<?xml version="1.0" encoding="UTF-8" standalone="no"?>
<!DOCTYPE svg PUBLIC "-//W3C//DTD SVG 1.1//EN"
 "http://www.w3.org/Graphics/SVG/1.1/DTD/svg11.dtd">
<!-- Generated by graphviz version 2.44.0 (0)
 -->
<!-- Title: MCMCProcessor Pages: 1 -->
<!--zoomable 789 -->
<svg id="main" version="1.1" xmlns="http://www.w3.org/2000/svg" xmlns:xlink="http://www.w3.org/1999/xlink" xml:space="preserve" onload="init(evt)">
<style type="text/css"><![CDATA[
.edge:hover path { stroke: red; }
.edge:hover polygon { stroke: red; fill: red; }
]]></style>
<script type="text/javascript"><![CDATA[
var edges = document.getElementsByTagName('g');
if (edges && edges.length) {
  for (var i=0;i<edges.length;i++) {
    if (edges[i].id.substr(0,4)=='edge') {
      edges[i].setAttribute('class','edge');
    }
  }
}
]]></script>
        <defs>
                <circle id="rim" cx="0" cy="0" r="7"/>
                <circle id="rim2" cx="0" cy="0" r="3.5"/>
                <g id="zoomPlus">
                        <use xlink:href="#rim" fill="#404040">
                                <set attributeName="fill" to="#808080" begin="zoomplus.mouseover" end="zoomplus.mouseout"/>
                        </use>
                        <path d="M-4,0h8M0,-4v8" fill="none" stroke="white" stroke-width="1.5" pointer-events="none"/>
                </g>
                <g id="zoomMin">
                        <use xlink:href="#rim" fill="#404040">
                                <set attributeName="fill" to="#808080" begin="zoomminus.mouseover" end="zoomminus.mouseout"/>
                        </use>
                        <path d="M-4,0h8" fill="none" stroke="white" stroke-width="1.5" pointer-events="none"/>
                </g>
                <g id="dirArrow">
                        <path fill="none" stroke="white" stroke-width="1.5" d="M0,-3.0v7 M-2.5,-0.5L0,-3.0L2.5,-0.5"/>
                </g>
               <g id="resetDef">
                       <use xlink:href="#rim2" fill="#404040">
                               <set attributeName="fill" to="#808080" begin="reset.mouseover" end="reset.mouseout"/>
                       </use>
               </g>
        </defs>

<script type="text/javascript">
var viewWidth = 508;
var viewHeight = 789;
var sectionId = 'dynsection-1';
</script>
<script xlink:href="svgpan.js"/>
<svg id="graph" class="graph">
<g id="viewport">
<title>MCMCProcessor</title>
<polygon fill="white" stroke="transparent" points="-4,4 -4,-785.31 504,-785.31 504,4 -4,4"/>
<!-- Node1 -->
<g id="node1" class="node">
<title>Node1</title>
<g id="a_node1"><a xlink:title="Class responsible for processing MCMC chains, performing diagnostics, generating plots,...">
<polygon fill="#bfbfbf" stroke="black" points="408,-429.81 408,-448.81 500,-448.81 500,-429.81 408,-429.81"/>
<text text-anchor="middle" x="454" y="-436.81" font-family="Helvetica" font-size="10.00">MCMCProcessor</text>
</a>
</g>
</g>
<!-- Node2 -->
<g id="node2" class="node">
<title>Node2</title>
<g id="a_node2"><a xlink:title=" ">
<polygon fill="white" stroke="#bfbfbf" points="132,-754.81 132,-773.81 283,-773.81 283,-754.81 132,-754.81"/>
<text text-anchor="middle" x="207.5" y="-761.81" font-family="Helvetica" font-size="10.00">std::vector&lt; ParameterEnum &gt;</text>
</a>
</g>
</g>
<!-- Node2&#45;&gt;Node1 -->
<g id="edge1" class="edge">
<title>Node2&#45;&gt;Node1</title>
<path fill="none" stroke="#9a32cd" stroke-dasharray="5,2" d="M293.65,-771.93C327.57,-770.37 364.52,-762.18 390,-738.31 433.75,-697.33 449.35,-495.68 452.41,-448.98"/>
<polygon fill="#9a32cd" stroke="#9a32cd" points="293.14,-768.44 283.23,-772.21 293.33,-775.44 293.14,-768.44"/>
<text text-anchor="middle" x="345.5" y="-773.31" font-family="Helvetica" font-size="10.00"> ParamType</text>
</g>
<!-- Node3 -->
<g id="node3" class="node">
<title>Node3</title>
<g id="a_node3"><a xlink:title=" ">
<polygon fill="white" stroke="#bfbfbf" points="149,-705.31 149,-735.31 266,-735.31 266,-705.31 149,-705.31"/>
<text text-anchor="start" x="157" y="-723.31" font-family="Helvetica" font-size="10.00">std::vector&lt; std::vector</text>
<text text-anchor="middle" x="207.5" y="-712.31" font-family="Helvetica" font-size="10.00">&lt; TH2D * &gt; &gt;</text>
</a>
</g>
</g>
<!-- Node3&#45;&gt;Node1 -->
<g id="edge2" class="edge">
<title>Node3&#45;&gt;Node1</title>
<path fill="none" stroke="#9a32cd" stroke-dasharray="5,2" d="M276.73,-726.08C314.58,-725.51 359.94,-718 390,-690.31 426.85,-656.37 447.3,-491.1 451.97,-449.06"/>
<polygon fill="#9a32cd" stroke="#9a32cd" points="276.27,-722.58 266.27,-726.08 276.26,-729.58 276.27,-722.58"/>
<text text-anchor="middle" x="345.5" y="-726.31" font-family="Helvetica" font-size="10.00"> hpost2D</text>
</g>
<!-- Node4 -->
<g id="node4" class="node">
<title>Node4</title>
<g id="a_node4"><a xlink:title=" ">
<polygon fill="white" stroke="#bfbfbf" points="155.5,-656.31 155.5,-686.31 259.5,-686.31 259.5,-656.31 155.5,-656.31"/>
<text text-anchor="start" x="163.5" y="-674.31" font-family="Helvetica" font-size="10.00">std::vector&lt; YAML::</text>
<text text-anchor="middle" x="207.5" y="-663.31" font-family="Helvetica" font-size="10.00">Node &gt;</text>
</a>
</g>
</g>
<!-- Node4&#45;&gt;Node1 -->
<g id="edge3" class="edge">
<title>Node4&#45;&gt;Node1</title>
<path fill="none" stroke="#9a32cd" stroke-dasharray="5,2" d="M270.03,-677.31C308.77,-677.68 357.43,-671.43 390,-643.31 450.61,-590.99 453.79,-481.73 453.31,-448.87"/>
<polygon fill="#9a32cd" stroke="#9a32cd" points="269.98,-673.81 259.9,-677.06 269.81,-680.81 269.98,-673.81"/>
<text text-anchor="middle" x="345.5" y="-678.31" font-family="Helvetica" font-size="10.00"> CovConfig</text>
</g>
<!-- Node5 -->
<g id="node5" class="node">
<title>Node5</title>
<g id="a_node5"><a xlink:title=" ">
<polygon fill="white" stroke="#bfbfbf" points="149,-607.31 149,-637.31 266,-637.31 266,-607.31 149,-607.31"/>
<text text-anchor="start" x="157" y="-625.31" font-family="Helvetica" font-size="10.00">std::vector&lt; std::vector</text>
<text text-anchor="middle" x="207.5" y="-614.31" font-family="Helvetica" font-size="10.00">&lt; std::string &gt; &gt;</text>
</a>
</g>
</g>
<!-- Node5&#45;&gt;Node1 -->
<g id="edge4" class="edge">
<title>Node5&#45;&gt;Node1</title>
<path fill="none" stroke="#9a32cd" stroke-dasharray="5,2" d="M276.39,-630C313.5,-630.58 358.24,-624.93 390,-600.31 440.06,-561.52 450.4,-477.3 452.49,-448.89"/>
<polygon fill="#9a32cd" stroke="#9a32cd" points="276.25,-626.49 266.15,-629.68 276.03,-633.49 276.25,-626.49"/>
<text text-anchor="middle" x="345.5" y="-631.31" font-family="Helvetica" font-size="10.00"> CovPos</text>
</g>
<!-- Node6 -->
<g id="node6" class="node">
<title>Node6</title>
<g id="a_node6"><a xlink:title=" ">
<polygon fill="white" stroke="#bfbfbf" points="145,-568.81 145,-587.81 270,-587.81 270,-568.81 145,-568.81"/>
<text text-anchor="middle" x="207.5" y="-575.81" font-family="Helvetica" font-size="10.00">std::unique_ptr&lt; TH2D &gt;</text>
</a>
</g>
</g>
<!-- Node6&#45;&gt;Node1 -->
<g id="edge5" class="edge">
<title>Node6&#45;&gt;Node1</title>
<path fill="none" stroke="#9a32cd" stroke-dasharray="5,2" d="M280.49,-578.88C316.17,-575.95 358.28,-567.35 390,-545.31 424.99,-521.01 443.65,-470.44 450.22,-449.12"/>
<polygon fill="#9a32cd" stroke="#9a32cd" points="279.87,-575.41 270.13,-579.59 280.35,-582.4 279.87,-575.41"/>
<text text-anchor="middle" x="345.5" y="-590.31" font-family="Helvetica" font-size="10.00"> hviolin</text>
<text text-anchor="middle" x="345.5" y="-579.31" font-family="Helvetica" font-size="10.00">hviolin_prior</text>
</g>
<!-- Node7 -->
<g id="node7" class="node">
<title>Node7</title>
<g id="a_node7"><a xlink:title=" ">
<polygon fill="white" stroke="#bfbfbf" points="139,-530.81 139,-549.81 276,-549.81 276,-530.81 139,-530.81"/>
<text text-anchor="middle" x="207.5" y="-537.81" font-family="Helvetica" font-size="10.00">std::unique_ptr&lt; TCanvas &gt;</text>
</a>
</g>
</g>
<!-- Node7&#45;&gt;Node1 -->
<g id="edge6" class="edge">
<title>Node7&#45;&gt;Node1</title>
<path fill="none" stroke="#9a32cd" stroke-dasharray="5,2" d="M286.55,-533.98C319.95,-528.8 358.44,-519.39 390,-502.31 414.49,-489.07 435.69,-463.3 446.11,-449.17"/>
<polygon fill="#9a32cd" stroke="#9a32cd" points="285.76,-530.56 276.36,-535.46 286.76,-537.49 285.76,-530.56"/>
<text text-anchor="middle" x="345.5" y="-533.31" font-family="Helvetica" font-size="10.00"> Posterior</text>
</g>
<!-- Node8 -->
<g id="node8" class="node">
<title>Node8</title>
<g id="a_node8"><a xlink:title=" ">
<polygon fill="white" stroke="#bfbfbf" points="149,-481.31 149,-511.31 266,-511.31 266,-481.31 149,-481.31"/>
<text text-anchor="start" x="157" y="-499.31" font-family="Helvetica" font-size="10.00">std::vector&lt; std::vector</text>
<text text-anchor="middle" x="207.5" y="-488.31" font-family="Helvetica" font-size="10.00">&lt; bool &gt; &gt;</text>
</a>
</g>
</g>
<!-- Node8&#45;&gt;Node1 -->
<g id="edge7" class="edge">
<title>Node8&#45;&gt;Node1</title>
<path fill="none" stroke="#9a32cd" stroke-dasharray="5,2" d="M276.27,-491.05C310.85,-487.16 353.25,-480.52 390,-469.31 406.45,-464.29 424.04,-455.61 436.44,-448.88"/>
<polygon fill="#9a32cd" stroke="#9a32cd" points="275.85,-487.58 266.28,-492.12 276.59,-494.54 275.85,-487.58"/>
<text text-anchor="middle" x="345.5" y="-490.31" font-family="Helvetica" font-size="10.00"> ParamFlat</text>
</g>
<!-- Node9 -->
<g id="node9" class="node">
<title>Node9</title>
<g id="a_node9"><a xlink:title=" ">
<polygon fill="white" stroke="#bfbfbf" points="149,-432.31 149,-462.31 266,-462.31 266,-432.31 149,-432.31"/>
<text text-anchor="start" x="157" y="-450.31" font-family="Helvetica" font-size="10.00">std::vector&lt; std::vector</text>
<text text-anchor="middle" x="207.5" y="-439.31" font-family="Helvetica" font-size="10.00">&lt; double &gt; &gt;</text>
</a>
</g>
</g>
<!-- Node9&#45;&gt;Node1 -->
<g id="edge8" class="edge">
<title>Node9&#45;&gt;Node1</title>
<path fill="none" stroke="#9a32cd" stroke-dasharray="5,2" d="M276.29,-445.1C318.29,-443.72 371.07,-441.99 407.96,-440.79"/>
<polygon fill="#9a32cd" stroke="#9a32cd" points="276.01,-441.6 266.13,-445.43 276.24,-448.6 276.01,-441.6"/>
<text text-anchor="middle" x="345.5" y="-457.31" font-family="Helvetica" font-size="10.00"> ParamCentral</text>
<text text-anchor="middle" x="345.5" y="-446.31" font-family="Helvetica" font-size="10.00">ParamErrors</text>
</g>
<!-- Node10 -->
<g id="node10" class="node">
<title>Node10</title>
<g id="a_node10"><a xlink:title=" ">
<polygon fill="white" stroke="#bfbfbf" points="149.5,-393.81 149.5,-412.81 265.5,-412.81 265.5,-393.81 149.5,-393.81"/>
<text text-anchor="middle" x="207.5" y="-400.81" font-family="Helvetica" font-size="10.00">std::unique_ptr&lt; TF1 &gt;</text>
</a>
</g>
</g>
<!-- Node10&#45;&gt;Node1 -->
<g id="edge9" class="edge">
<title>Node10&#45;&gt;Node1</title>
<path fill="none" stroke="#9a32cd" stroke-dasharray="5,2" d="M276.23,-410.63C310.43,-414.65 352.52,-420.08 390,-426.31 396.17,-427.34 402.65,-428.54 409.02,-429.79"/>
<polygon fill="#9a32cd" stroke="#9a32cd" points="276.22,-407.11 265.89,-409.43 275.42,-414.06 276.22,-407.11"/>
<text text-anchor="middle" x="345.5" y="-429.31" font-family="Helvetica" font-size="10.00"> Gauss</text>
</g>
<!-- Node11 -->
<g id="node11" class="node">
<title>Node11</title>
<g id="a_node11"><a xlink:title=" ">
<polygon fill="white" stroke="#bfbfbf" points="177.5,-323.81 177.5,-342.81 237.5,-342.81 237.5,-323.81 177.5,-323.81"/>
<text text-anchor="middle" x="207.5" y="-330.81" font-family="Helvetica" font-size="10.00">std::string</text>
</a>
</g>
</g>
<!-- Node11&#45;&gt;Node1 -->
<g id="edge10" class="edge">
<title>Node11&#45;&gt;Node1</title>
<path fill="none" stroke="#9a32cd" stroke-dasharray="5,2" d="M248.16,-325.75C287,-320.48 346.51,-318.26 390,-343.31 424.2,-363.01 443.19,-409.67 450.03,-429.8"/>
<polygon fill="#9a32cd" stroke="#9a32cd" points="247.16,-322.36 237.79,-327.3 248.2,-329.28 247.16,-322.36"/>
<text text-anchor="middle" x="345.5" y="-401.31" font-family="Helvetica" font-size="10.00"> MCMCFile</text>
<text text-anchor="middle" x="345.5" y="-390.31" font-family="Helvetica" font-size="10.00">OutputName</text>
<text text-anchor="middle" x="345.5" y="-379.31" font-family="Helvetica" font-size="10.00">OutputSuffix</text>
<text text-anchor="middle" x="345.5" y="-368.31" font-family="Helvetica" font-size="10.00">Posterior1DCut</text>
<text text-anchor="middle" x="345.5" y="-357.31" font-family="Helvetica" font-size="10.00">ReweightName</text>
<text text-anchor="middle" x="345.5" y="-346.31" font-family="Helvetica" font-size="10.00">StepCut</text>
</g>
<!-- Node12 -->
<g id="node12" class="node">
<title>Node12</title>
<g id="a_node12"><a xlink:title=" ">
<polygon fill="white" stroke="#bfbfbf" points="0,-318.31 0,-348.31 95,-348.31 95,-318.31 0,-318.31"/>
<text text-anchor="start" x="8" y="-336.31" font-family="Helvetica" font-size="10.00">std::basic_string&lt;</text>
<text text-anchor="middle" x="47.5" y="-325.31" font-family="Helvetica" font-size="10.00"> char &gt;</text>
</a>
</g>
</g>
<!-- Node12&#45;&gt;Node11 -->
<g id="edge11" class="edge">
<title>Node12&#45;&gt;Node11</title>
<path fill="none" stroke="midnightblue" d="M105.27,-333.31C129.61,-333.31 157.02,-333.31 177.17,-333.31"/>
<polygon fill="midnightblue" stroke="midnightblue" points="105.05,-329.81 95.05,-333.31 105.05,-336.81 105.05,-329.81"/>
</g>
<!-- Node13 -->
<g id="node13" class="node">
<title>Node13</title>
<g id="a_node13"><a xlink:title=" ">
<polygon fill="white" stroke="#bfbfbf" points="162,-267.81 162,-286.81 253,-286.81 253,-267.81 162,-267.81"/>
<text text-anchor="middle" x="207.5" y="-274.81" font-family="Helvetica" font-size="10.00">std::vector&lt; int &gt;</text>
</a>
</g>
</g>
<!-- Node13&#45;&gt;Node1 -->
<g id="edge12" class="edge">
<title>Node13&#45;&gt;Node1</title>
<path fill="none" stroke="#9a32cd" stroke-dasharray="5,2" d="M257.32,-266.11C296.71,-259.98 351.68,-258.34 390,-285.31 439.61,-320.23 450.22,-401.49 452.43,-429.56"/>
<polygon fill="#9a32cd" stroke="#9a32cd" points="256.68,-262.67 247.41,-267.79 257.85,-269.57 256.68,-262.67"/>
<text text-anchor="middle" x="345.5" y="-310.31" font-family="Helvetica" font-size="10.00"> NDSamplesBins</text>
<text text-anchor="middle" x="345.5" y="-299.31" font-family="Helvetica" font-size="10.00">ParamTypeStartPos</text>
<text text-anchor="middle" x="345.5" y="-288.31" font-family="Helvetica" font-size="10.00">nParam</text>
</g>
<!-- Node14 -->
<g id="node14" class="node">
<title>Node14</title>
<g id="a_node14"><a xlink:title=" ">
<polygon fill="white" stroke="#bfbfbf" points="151.5,-213.81 151.5,-232.81 263.5,-232.81 263.5,-213.81 151.5,-213.81"/>
<text text-anchor="middle" x="207.5" y="-220.81" font-family="Helvetica" font-size="10.00">std::vector&lt; TString &gt;</text>
</a>
</g>
</g>
<!-- Node14&#45;&gt;Node1 -->
<g id="edge13" class="edge">
<title>Node14&#45;&gt;Node1</title>
<path fill="none" stroke="#9a32cd" stroke-dasharray="5,2" d="M248.23,-211.29C288.2,-201.8 349.55,-194.7 390,-225.31 424.05,-251.08 446.18,-391.22 451.67,-429.6"/>
<polygon fill="#9a32cd" stroke="#9a32cd" points="247.14,-207.95 238.31,-213.79 248.86,-214.74 247.14,-207.95"/>
<text text-anchor="middle" x="345.5" y="-250.31" font-family="Helvetica" font-size="10.00"> BranchNames</text>
<text text-anchor="middle" x="345.5" y="-239.31" font-family="Helvetica" font-size="10.00">SampleName_v</text>
<text text-anchor="middle" x="345.5" y="-228.31" font-family="Helvetica" font-size="10.00">SystName_v</text>
</g>
<!-- Node15 -->
<g id="node15" class="node">
<title>Node15</title>
<g id="a_node15"><a xlink:title=" ">
<polygon fill="white" stroke="#bfbfbf" points="158.5,-175.81 158.5,-194.81 256.5,-194.81 256.5,-175.81 158.5,-175.81"/>
<text text-anchor="middle" x="207.5" y="-182.81" font-family="Helvetica" font-size="10.00">std::vector&lt; bool &gt;</text>
</a>
</g>
</g>
<!-- Node15&#45;&gt;Node1 -->
<g id="edge14" class="edge">
<title>Node15&#45;&gt;Node1</title>
<path fill="none" stroke="#9a32cd" stroke-dasharray="5,2" d="M266.84,-178.5C312.58,-174.49 371.49,-172.7 390,-187.31 429.55,-218.55 448.06,-387.32 452.12,-429.67"/>
<polygon fill="#9a32cd" stroke="#9a32cd" points="266.34,-175.03 256.71,-179.44 266.99,-182 266.34,-175.03"/>
<text text-anchor="middle" x="345.5" y="-190.31" font-family="Helvetica" font-size="10.00"> IamVaried</text>
</g>
<!-- Node16 -->
<g id="node16" class="node">
<title>Node16</title>
<g id="a_node16"><a xlink:title=" ">
<polygon fill="white" stroke="#bfbfbf" points="145.5,-90.81 145.5,-109.81 269.5,-109.81 269.5,-90.81 145.5,-90.81"/>
<text text-anchor="middle" x="207.5" y="-97.81" font-family="Helvetica" font-size="10.00">std::vector&lt; std::string &gt;</text>
</a>
</g>
</g>
<!-- Node16&#45;&gt;Node1 -->
<g id="edge15" class="edge">
<title>Node16&#45;&gt;Node1</title>
<path fill="none" stroke="#9a32cd" stroke-dasharray="5,2" d="M248.73,-88.32C289.3,-78.93 351.3,-72.32 390,-105.31 441.19,-148.95 451.17,-379.79 452.74,-429.77"/>
<polygon fill="#9a32cd" stroke="#9a32cd" points="247.77,-84.95 238.9,-90.75 249.45,-91.75 247.77,-84.95"/>
<text text-anchor="middle" x="345.5" y="-163.31" font-family="Helvetica" font-size="10.00"> CovNamePos</text>
<text text-anchor="middle" x="345.5" y="-152.31" font-family="Helvetica" font-size="10.00">ExcludedGroups</text>
<text text-anchor="middle" x="345.5" y="-141.31" font-family="Helvetica" font-size="10.00">ExcludedNames</text>
<text text-anchor="middle" x="345.5" y="-130.31" font-family="Helvetica" font-size="10.00">ExcludedTypes</text>
<text text-anchor="middle" x="345.5" y="-119.31" font-family="Helvetica" font-size="10.00">NDSamplesNames</text>
<text text-anchor="middle" x="345.5" y="-108.31" font-family="Helvetica" font-size="10.00">ParameterGroup</text>
</g>
<!-- Node17 -->
<g id="node17" class="node">
<title>Node17</title>
<g id="a_node17"><a xlink:title=" ">
<polygon fill="white" stroke="#bfbfbf" points="151,-52.81 151,-71.81 264,-71.81 264,-52.81 151,-52.81"/>
<text text-anchor="middle" x="207.5" y="-59.81" font-family="Helvetica" font-size="10.00">std::vector&lt; TH1D * &gt;</text>
</a>
</g>
</g>
<!-- Node17&#45;&gt;Node1 -->
<g id="edge16" class="edge">
<title>Node17&#45;&gt;Node1</title>
<path fill="none" stroke="#9a32cd" stroke-dasharray="5,2" d="M246.72,-50.16C287.27,-39.87 350.79,-31.6 390,-65.31 447.29,-114.58 452.49,-376.09 452.96,-429.7"/>
<polygon fill="#9a32cd" stroke="#9a32cd" points="245.68,-46.81 236.94,-52.79 247.5,-53.57 245.68,-46.81"/>
<text text-anchor="middle" x="345.5" y="-68.31" font-family="Helvetica" font-size="10.00"> hpost</text>
</g>
<!-- Node18 -->
<g id="node18" class="node">
<title>Node18</title>
<g id="a_node18"><a xlink:title=" ">
<polygon fill="white" stroke="#bfbfbf" points="149,-3.31 149,-33.31 266,-33.31 266,-3.31 149,-3.31"/>
<text text-anchor="start" x="157" y="-21.31" font-family="Helvetica" font-size="10.00">std::vector&lt; std::vector</text>
<text text-anchor="middle" x="207.5" y="-10.31" font-family="Helvetica" font-size="10.00">&lt; TString &gt; &gt;</text>
</a>
</g>
</g>
<!-- Node18&#45;&gt;Node1 -->
<g id="edge17" class="edge">
<title>Node18&#45;&gt;Node1</title>
<path fill="none" stroke="#9a32cd" stroke-dasharray="5,2" d="M276.26,-2.14C314.22,2.68 359.84,0.77 390,-26.31 452.19,-82.17 453.46,-372.26 453.1,-429.5"/>
<polygon fill="#9a32cd" stroke="#9a32cd" points="275.69,1.31 266.29,-3.58 276.69,-5.61 275.69,1.31"/>
<text text-anchor="middle" x="345.5" y="-29.31" font-family="Helvetica" font-size="10.00"> ParamNames</text>
</g>
</g>
</svg>
        <g id="navigator" transform="translate(0 0)" fill="#404254">
                <rect fill="#f2f5e9" fill-opacity="0.5" stroke="#606060" stroke-width=".5" x="0" y="0" width="60" height="60"/>
                <use id="zoomplus" xlink:href="#zoomPlus" x="17" y="9" onmousedown="handleZoom(evt,'in')"/>
                <use id="zoomminus" xlink:href="#zoomMin" x="42" y="9" onmousedown="handleZoom(evt,'out')"/>
                <use id="reset" xlink:href="#resetDef" x="30" y="36" onmousedown="handleReset()"/>
                <g id="arrowUp" xlink:href="#dirArrow" transform="translate(30 24)" onmousedown="handlePan(0,-1)">
                  <use xlink:href="#rim" fill="#404040">
                        <set attributeName="fill" to="#808080" begin="arrowUp.mouseover" end="arrowUp.mouseout"/>
                  </use>
                  <path fill="none" stroke="white" stroke-width="1.5" d="M0,-3.0v7 M-2.5,-0.5L0,-3.0L2.5,-0.5"/>
                </g>
                <g id="arrowRight" xlink:href="#dirArrow" transform="rotate(90) translate(36 -43)" onmousedown="handlePan(1,0)">
                  <use xlink:href="#rim" fill="#404040">
                        <set attributeName="fill" to="#808080" begin="arrowRight.mouseover" end="arrowRight.mouseout"/>
                  </use>
                  <path fill="none" stroke="white" stroke-width="1.5" d="M0,-3.0v7 M-2.5,-0.5L0,-3.0L2.5,-0.5"/>
                </g>
                <g id="arrowDown" xlink:href="#dirArrow" transform="rotate(180) translate(-30 -48)" onmousedown="handlePan(0,1)">
                  <use xlink:href="#rim" fill="#404040">
                        <set attributeName="fill" to="#808080" begin="arrowDown.mouseover" end="arrowDown.mouseout"/>
                  </use>
                  <path fill="none" stroke="white" stroke-width="1.5" d="M0,-3.0v7 M-2.5,-0.5L0,-3.0L2.5,-0.5"/>
                </g>
                <g id="arrowLeft" xlink:href="#dirArrow" transform="rotate(270) translate(-36 17)" onmousedown="handlePan(-1,0)">
                  <use xlink:href="#rim" fill="#404040">
                        <set attributeName="fill" to="#808080" begin="arrowLeft.mouseover" end="arrowLeft.mouseout"/>
                  </use>
                  <path fill="none" stroke="white" stroke-width="1.5" d="M0,-3.0v7 M-2.5,-0.5L0,-3.0L2.5,-0.5"/>
                </g>
        </g>
        <svg viewBox="0 0 15 15" width="100%" height="30px" preserveAspectRatio="xMaxYMin meet">
         <g id="arrow_out" transform="scale(0.3 0.3)">
          <a xlink:href="classMCMCProcessor__coll__graph_org.svg" target="_base">
           <rect id="button" ry="5" rx="5" y="6" x="6" height="38" width="38"
                fill="#f2f5e9" fill-opacity="0.5" stroke="#606060" stroke-width="1.0"/>
           <path id="arrow"
             d="M 11.500037,31.436501 C 11.940474,20.09759 22.043105,11.32322 32.158766,21.979434 L 37.068811,17.246167 C 37.068811,17.246167 37.088388,32 37.088388,32 L 22.160133,31.978069 C 22.160133,31.978069 26.997745,27.140456 26.997745,27.140456 C 18.528582,18.264221 13.291696,25.230495 11.500037,31.436501 z"
             style="fill:#404040;"/>
          </a>
         </g>
        </svg>
</svg>
