<?xml version="1.0" encoding="UTF-8" standalone="no"?>
<!DOCTYPE svg PUBLIC "-//W3C//DTD SVG 1.1//EN"
 "http://www.w3.org/Graphics/SVG/1.1/DTD/svg11.dtd">
<!-- Generated by graphviz version 2.44.0 (0)
 -->
<!-- Title: SplineBase Pages: 1 -->
<svg width="290pt" height="84pt"
 viewBox="0.00 0.00 289.50 84.00" xmlns="http://www.w3.org/2000/svg" xmlns:xlink="http://www.w3.org/1999/xlink">
<g id="graph0" class="graph" transform="scale(1 1) rotate(0) translate(4 80)">
<title>SplineBase</title>
<polygon fill="white" stroke="transparent" points="-4,4 -4,-80 285.5,-80 285.5,4 -4,4"/>
<!-- Node1 -->
<g id="node1" class="node">
<title>Node1</title>
<g id="a_node1"><a xlink:title="Base class for calculating weight from spline.">
<polygon fill="#bfbfbf" stroke="black" points="131.5,-56.5 131.5,-75.5 197.5,-75.5 197.5,-56.5 131.5,-56.5"/>
<text text-anchor="middle" x="164.5" y="-63.5" font-family="Helvetica" font-size="10.00">SplineBase</text>
</a>
</g>
</g>
<!-- Node2 -->
<g id="node2" class="node">
<title>Node2</title>
<g id="a_node2"><a xlink:href="classBinnedSplineHandler.html" target="_top" xlink:title="Bin&#45;by&#45;bin class calculating response for spline parameters.">
<polygon fill="white" stroke="black" points="0,-0.5 0,-19.5 107,-19.5 107,-0.5 0,-0.5"/>
<text text-anchor="middle" x="53.5" y="-7.5" font-family="Helvetica" font-size="10.00">BinnedSplineHandler</text>
</a>
</g>
</g>
<!-- Node1&#45;&gt;Node2 -->
<g id="edge1" class="edge">
<title>Node1&#45;&gt;Node2</title>
<path fill="none" stroke="midnightblue" d="M137.49,-51.86C116.91,-41.85 89.16,-28.35 71.29,-19.65"/>
<polygon fill="midnightblue" stroke="midnightblue" points="136.14,-55.1 146.67,-56.32 139.2,-48.8 136.14,-55.1"/>
</g>
<!-- Node3 -->
<g id="node3" class="node">
<title>Node3</title>
<g id="a_node3"><a xlink:href="classPySplineBase.html" target="_top" xlink:title="EW: As SplineBase is an abstract base class we have to do some gymnastics to get it to get it into py...">
<polygon fill="white" stroke="black" points="125.5,-0.5 125.5,-19.5 203.5,-19.5 203.5,-0.5 125.5,-0.5"/>
<text text-anchor="middle" x="164.5" y="-7.5" font-family="Helvetica" font-size="10.00">PySplineBase</text>
</a>
</g>
</g>
<!-- Node1&#45;&gt;Node3 -->
<g id="edge2" class="edge">
<title>Node1&#45;&gt;Node3</title>
<path fill="none" stroke="midnightblue" d="M164.5,-45.8C164.5,-36.91 164.5,-26.78 164.5,-19.75"/>
<polygon fill="midnightblue" stroke="midnightblue" points="161,-46.08 164.5,-56.08 168,-46.08 161,-46.08"/>
</g>
<!-- Node4 -->
<g id="node4" class="node">
<title>Node4</title>
<g id="a_node4"><a xlink:href="classSMonolith.html" target="_top" xlink:title="Even&#45;by&#45;event class calculating response for spline parameters. It is possible to use GPU acceleratio...">
<polygon fill="white" stroke="black" points="221.5,-0.5 221.5,-19.5 281.5,-19.5 281.5,-0.5 221.5,-0.5"/>
<text text-anchor="middle" x="251.5" y="-7.5" font-family="Helvetica" font-size="10.00">SMonolith</text>
</a>
</g>
</g>
<!-- Node1&#45;&gt;Node4 -->
<g id="edge3" class="edge">
<title>Node1&#45;&gt;Node4</title>
<path fill="none" stroke="midnightblue" d="M187.22,-50.9C203.17,-41 224,-28.07 237.56,-19.65"/>
<polygon fill="midnightblue" stroke="midnightblue" points="185.13,-48.08 178.48,-56.32 188.82,-54.02 185.13,-48.08"/>
</g>
</g>
</svg>
