<?xml version="1.0" encoding="UTF-8" standalone="no"?>
<!DOCTYPE svg PUBLIC "-//W3C//DTD SVG 1.1//EN"
 "http://www.w3.org/Graphics/SVG/1.1/DTD/svg11.dtd">
<!-- Generated by graphviz version 2.44.0 (0)
 -->
<!-- Title: /hosthome/v2.2.0/Fitters Pages: 1 -->
<svg width="136pt" height="311pt"
 viewBox="0.00 0.00 136.00 311.00" xmlns="http://www.w3.org/2000/svg" xmlns:xlink="http://www.w3.org/1999/xlink">
<g id="graph0" class="graph" transform="scale(1 1) rotate(0) translate(4 307)">
<title>/hosthome/v2.2.0/Fitters</title>
<polygon fill="white" stroke="transparent" points="-4,4 -4,-307 132,-307 132,4 -4,4"/>
<g id="clust1" class="cluster">
<title>clusterdir_fad90250b09e0ea847e09ab30914b229</title>
<g id="a_clust1"><a xlink:href="dir_fad90250b09e0ea847e09ab30914b229.html" target="_top" xlink:title="v2.2.0">
<polygon fill="#ddddee" stroke="black" points="8,-8 8,-295 120,-295 120,-8 8,-8"/>
<text text-anchor="middle" x="64" y="-283" font-family="Helvetica" font-size="10.00">v2.2.0</text>
</a>
</g>
</g>
<!-- dir_5dfbde4826449ccc27ade431c1bd7152 -->
<g id="node1" class="node">
<title>dir_5dfbde4826449ccc27ade431c1bd7152</title>
<g id="a_node1"><a xlink:href="dir_5dfbde4826449ccc27ade431c1bd7152.html" target="_top" xlink:title="Manager">
<polygon fill="none" stroke="black" points="90,-196 36,-196 36,-160 90,-160 90,-196"/>
<text text-anchor="middle" x="63" y="-175.5" font-family="Helvetica" font-size="10.00">Manager</text>
</a>
</g>
</g>
<!-- dir_be14dbde34440c1882315906112135f2 -->
<g id="node3" class="node">
<title>dir_be14dbde34440c1882315906112135f2</title>
<g id="a_node3"><a xlink:href="dir_be14dbde34440c1882315906112135f2.html" target="_top" xlink:title="Samples">
<polygon fill="none" stroke="black" points="111.5,-124 56.5,-124 56.5,-88 111.5,-88 111.5,-124"/>
<text text-anchor="middle" x="84" y="-103.5" font-family="Helvetica" font-size="10.00">Samples</text>
</a>
</g>
</g>
<!-- dir_5dfbde4826449ccc27ade431c1bd7152&#45;&gt;dir_be14dbde34440c1882315906112135f2 -->
<g id="edge5" class="edge">
<title>dir_5dfbde4826449ccc27ade431c1bd7152&#45;&gt;dir_be14dbde34440c1882315906112135f2</title>
<path fill="none" stroke="black" d="M62.28,-159.7C63.83,-151.81 66.46,-142.3 69.46,-133.55"/>
<polygon fill="black" stroke="black" points="72.77,-134.7 72.97,-124.1 66.21,-132.26 72.77,-134.7"/>
<g id="a_edge5&#45;headlabel"><a xlink:href="dir_000005_000010.html" target="_top" xlink:title="1">
<text text-anchor="middle" x="74.18" y="-136.56" font-family="Helvetica" font-size="10.00">1</text>
</a>
</g>
</g>
<!-- dir_9d0a427281a6c4894c573956181ebc74 -->
<g id="node2" class="node">
<title>dir_9d0a427281a6c4894c573956181ebc74</title>
<g id="a_node2"><a xlink:href="dir_9d0a427281a6c4894c573956181ebc74.html" target="_top" xlink:title="Parameters">
<polygon fill="none" stroke="black" points="98,-52 30,-52 30,-16 98,-16 98,-52"/>
<text text-anchor="middle" x="64" y="-31.5" font-family="Helvetica" font-size="10.00">Parameters</text>
</a>
</g>
</g>
<!-- dir_9d0a427281a6c4894c573956181ebc74&#45;&gt;dir_5dfbde4826449ccc27ade431c1bd7152 -->
<g id="edge1" class="edge">
<title>dir_9d0a427281a6c4894c573956181ebc74&#45;&gt;dir_5dfbde4826449ccc27ade431c1bd7152</title>
<path fill="none" stroke="black" d="M57.35,-52.37C53.8,-62.58 49.8,-75.83 48,-88 45.66,-103.83 45.8,-108.15 48,-124 49.18,-132.52 51.39,-141.61 53.75,-149.8"/>
<polygon fill="black" stroke="black" points="50.48,-151.06 56.76,-159.59 57.17,-149.01 50.48,-151.06"/>
<g id="a_edge1&#45;headlabel"><a xlink:href="dir_000006_000005.html" target="_top" xlink:title="7">
<text text-anchor="middle" x="46.71" y="-145.96" font-family="Helvetica" font-size="10.00">7</text>
</a>
</g>
</g>
<!-- dir_9d0a427281a6c4894c573956181ebc74&#45;&gt;dir_be14dbde34440c1882315906112135f2 -->
<g id="edge2" class="edge">
<title>dir_9d0a427281a6c4894c573956181ebc74&#45;&gt;dir_be14dbde34440c1882315906112135f2</title>
<path fill="none" stroke="black" d="M74.78,-52.1C77.78,-59.79 80.67,-69.05 82.79,-77.67"/>
<polygon fill="black" stroke="black" points="79.43,-78.67 84.97,-87.7 86.27,-77.18 79.43,-78.67"/>
<g id="a_edge2&#45;headlabel"><a xlink:href="dir_000006_000010.html" target="_top" xlink:title="1">
<text text-anchor="middle" x="75.89" y="-73.26" font-family="Helvetica" font-size="10.00">1</text>
</a>
</g>
</g>
<!-- dir_be14dbde34440c1882315906112135f2&#45;&gt;dir_5dfbde4826449ccc27ade431c1bd7152 -->
<g id="edge3" class="edge">
<title>dir_be14dbde34440c1882315906112135f2&#45;&gt;dir_5dfbde4826449ccc27ade431c1bd7152</title>
<path fill="none" stroke="black" d="M84.76,-124.1C83.23,-131.96 80.61,-141.46 77.61,-150.23"/>
<polygon fill="black" stroke="black" points="74.3,-149.1 74.11,-159.7 80.86,-151.53 74.3,-149.1"/>
<g id="a_edge3&#45;headlabel"><a xlink:href="dir_000010_000005.html" target="_top" xlink:title="7">
<text text-anchor="middle" x="72.88" y="-142.25" font-family="Helvetica" font-size="10.00">7</text>
</a>
</g>
</g>
<!-- dir_be14dbde34440c1882315906112135f2&#45;&gt;dir_9d0a427281a6c4894c573956181ebc74 -->
<g id="edge4" class="edge">
<title>dir_be14dbde34440c1882315906112135f2&#45;&gt;dir_9d0a427281a6c4894c573956181ebc74</title>
<path fill="none" stroke="black" d="M73.14,-87.7C70.14,-79.98 67.27,-70.71 65.15,-62.11"/>
<polygon fill="black" stroke="black" points="68.52,-61.14 62.99,-52.1 61.68,-62.62 68.52,-61.14"/>
<g id="a_edge4&#45;headlabel"><a xlink:href="dir_000010_000006.html" target="_top" xlink:title="2">
<text text-anchor="middle" x="72.06" y="-61.56" font-family="Helvetica" font-size="10.00">2</text>
</a>
</g>
</g>
<!-- dir_fee12dda89892310be5e8746bc27e246 -->
<g id="node4" class="node">
<title>dir_fee12dda89892310be5e8746bc27e246</title>
<g id="a_node4"><a xlink:href="dir_fee12dda89892310be5e8746bc27e246.html" target="_top" xlink:title="Fitters">
<polygon fill="#eeeeff" stroke="black" points="90,-268 36,-268 36,-232 90,-232 90,-268"/>
<text text-anchor="middle" x="63" y="-247.5" font-family="Helvetica" font-size="10.00">Fitters</text>
</a>
</g>
</g>
<!-- dir_fee12dda89892310be5e8746bc27e246&#45;&gt;dir_5dfbde4826449ccc27ade431c1bd7152 -->
<g id="edge6" class="edge">
<title>dir_fee12dda89892310be5e8746bc27e246&#45;&gt;dir_5dfbde4826449ccc27ade431c1bd7152</title>
<path fill="none" stroke="black" d="M63,-231.7C63,-223.98 63,-214.71 63,-206.11"/>
<polygon fill="black" stroke="black" points="66.5,-206.1 63,-196.1 59.5,-206.1 66.5,-206.1"/>
<g id="a_edge6&#45;headlabel"><a xlink:href="dir_000004_000005.html" target="_top" xlink:title="3">
<text text-anchor="middle" x="69.34" y="-207.2" font-family="Helvetica" font-size="10.00">3</text>
</a>
</g>
</g>
<!-- dir_fee12dda89892310be5e8746bc27e246&#45;&gt;dir_9d0a427281a6c4894c573956181ebc74 -->
<g id="edge7" class="edge">
<title>dir_fee12dda89892310be5e8746bc27e246&#45;&gt;dir_9d0a427281a6c4894c573956181ebc74</title>
<path fill="none" stroke="black" d="M47.39,-231.77C39.63,-222.03 31.05,-209.18 27,-196 12.64,-149.29 33.78,-93.45 49.53,-61.31"/>
<polygon fill="black" stroke="black" points="52.78,-62.64 54.2,-52.14 46.55,-59.46 52.78,-62.64"/>
<g id="a_edge7&#45;headlabel"><a xlink:href="dir_000004_000006.html" target="_top" xlink:title="3">
<text text-anchor="middle" x="53.68" y="-64.63" font-family="Helvetica" font-size="10.00">3</text>
</a>
</g>
</g>
<!-- dir_fee12dda89892310be5e8746bc27e246&#45;&gt;dir_be14dbde34440c1882315906112135f2 -->
<g id="edge8" class="edge">
<title>dir_fee12dda89892310be5e8746bc27e246&#45;&gt;dir_be14dbde34440c1882315906112135f2</title>
<path fill="none" stroke="black" d="M78.61,-231.77C86.37,-222.03 94.95,-209.18 99,-196 105.3,-175.5 100.58,-151.47 94.81,-133.55"/>
<polygon fill="black" stroke="black" points="98.09,-132.31 91.47,-124.04 91.48,-134.63 98.09,-132.31"/>
<g id="a_edge8&#45;headlabel"><a xlink:href="dir_000004_000010.html" target="_top" xlink:title="5">
<text text-anchor="middle" x="101.96" y="-132.26" font-family="Helvetica" font-size="10.00">5</text>
</a>
</g>
</g>
</g>
</svg>
