<?xml version="1.0" encoding="UTF-8" standalone="no"?>
<!DOCTYPE svg PUBLIC "-//W3C//DTD SVG 1.1//EN"
 "http://www.w3.org/Graphics/SVG/1.1/DTD/svg11.dtd">
<!-- Generated by graphviz version 2.44.0 (0)
 -->
<!-- Title: /hosthome/v2.2.0/Plotting/plottingUtils Pages: 1 -->
<svg width="140pt" height="295pt"
 viewBox="0.00 0.00 140.00 295.00" xmlns="http://www.w3.org/2000/svg" xmlns:xlink="http://www.w3.org/1999/xlink">
<g id="graph0" class="graph" transform="scale(1 1) rotate(0) translate(4 291)">
<title>/hosthome/v2.2.0/Plotting/plottingUtils</title>
<polygon fill="white" stroke="transparent" points="-4,4 -4,-291 136,-291 136,4 -4,4"/>
<g id="clust1" class="cluster">
<title>clusterdir_073eac5510d543258726172e228bbb0d</title>
<g id="a_clust1"><a xlink:href="dir_073eac5510d543258726172e228bbb0d.html" target="_top" xlink:title="Plotting">
<polygon fill="#ddddee" stroke="black" points="8,-208 8,-279 92,-279 92,-208 8,-208"/>
<text text-anchor="middle" x="50" y="-267" font-family="Helvetica" font-size="10.00">Plotting</text>
</a>
</g>
</g>
<!-- dir_7e7e64ae74810601973019551ea98d77 -->
<g id="node1" class="node">
<title>dir_7e7e64ae74810601973019551ea98d77</title>
<g id="a_node1"><a xlink:href="dir_7e7e64ae74810601973019551ea98d77.html" target="_top" xlink:title="plottingUtils">
<polygon fill="#eeeeff" stroke="black" points="84,-252 16,-252 16,-216 84,-216 84,-252"/>
<text text-anchor="middle" x="50" y="-231.5" font-family="Helvetica" font-size="10.00">plottingUtils</text>
</a>
</g>
</g>
<!-- dir_5dfbde4826449ccc27ade431c1bd7152 -->
<g id="node2" class="node">
<title>dir_5dfbde4826449ccc27ade431c1bd7152</title>
<g id="a_node2"><a xlink:href="dir_5dfbde4826449ccc27ade431c1bd7152.html" target="_top" xlink:title="Manager">
<polygon fill="none" stroke="black" points="86,-108 32,-108 32,-72 86,-72 86,-108"/>
<text text-anchor="middle" x="59" y="-87.5" font-family="Helvetica" font-size="10.00">Manager</text>
</a>
</g>
</g>
<!-- dir_7e7e64ae74810601973019551ea98d77&#45;&gt;dir_5dfbde4826449ccc27ade431c1bd7152 -->
<g id="edge1" class="edge">
<title>dir_7e7e64ae74810601973019551ea98d77&#45;&gt;dir_5dfbde4826449ccc27ade431c1bd7152</title>
<path fill="none" stroke="black" d="M51.09,-215.87C52.62,-191.67 55.44,-147.21 57.26,-118.39"/>
<polygon fill="black" stroke="black" points="60.77,-118.39 57.91,-108.19 53.78,-117.95 60.77,-118.39"/>
<g id="a_edge1&#45;headlabel"><a xlink:href="dir_000008_000005.html" target="_top" xlink:title="11">
<text text-anchor="middle" x="63.38" y="-119.66" font-family="Helvetica" font-size="10.00">11</text>
</a>
</g>
</g>
<!-- dir_be14dbde34440c1882315906112135f2 -->
<g id="node3" class="node">
<title>dir_be14dbde34440c1882315906112135f2</title>
<g id="a_node3"><a xlink:href="dir_be14dbde34440c1882315906112135f2.html" target="_top" xlink:title="Samples">
<polygon fill="none" stroke="black" points="86.5,-36 31.5,-36 31.5,0 86.5,0 86.5,-36"/>
<text text-anchor="middle" x="59" y="-15.5" font-family="Helvetica" font-size="10.00">Samples</text>
</a>
</g>
</g>
<!-- dir_7e7e64ae74810601973019551ea98d77&#45;&gt;dir_be14dbde34440c1882315906112135f2 -->
<g id="edge2" class="edge">
<title>dir_7e7e64ae74810601973019551ea98d77&#45;&gt;dir_be14dbde34440c1882315906112135f2</title>
<path fill="none" stroke="black" d="M41.98,-215.74C29.24,-185.88 7.34,-122.93 23,-72 26.01,-62.22 31.51,-52.62 37.32,-44.33"/>
<polygon fill="black" stroke="black" points="40.19,-46.33 43.39,-36.23 34.59,-42.13 40.19,-46.33"/>
<g id="a_edge2&#45;headlabel"><a xlink:href="dir_000008_000010.html" target="_top" xlink:title="1">
<text text-anchor="middle" x="40.31" y="-48.41" font-family="Helvetica" font-size="10.00">1</text>
</a>
</g>
</g>
<!-- dir_fee12dda89892310be5e8746bc27e246 -->
<g id="node4" class="node">
<title>dir_fee12dda89892310be5e8746bc27e246</title>
<g id="a_node4"><a xlink:href="dir_fee12dda89892310be5e8746bc27e246.html" target="_top" xlink:title="Fitters">
<polygon fill="none" stroke="black" points="132,-180 78,-180 78,-144 132,-144 132,-180"/>
<text text-anchor="middle" x="105" y="-159.5" font-family="Helvetica" font-size="10.00">Fitters</text>
</a>
</g>
</g>
<!-- dir_7e7e64ae74810601973019551ea98d77&#45;&gt;dir_fee12dda89892310be5e8746bc27e246 -->
<g id="edge3" class="edge">
<title>dir_7e7e64ae74810601973019551ea98d77&#45;&gt;dir_fee12dda89892310be5e8746bc27e246</title>
<path fill="none" stroke="black" d="M63.6,-215.7C70.12,-207.39 78.07,-197.28 85.25,-188.14"/>
<polygon fill="black" stroke="black" points="88.13,-190.13 91.56,-180.1 82.63,-185.81 88.13,-190.13"/>
<g id="a_edge3&#45;headlabel"><a xlink:href="dir_000008_000004.html" target="_top" xlink:title="1">
<text text-anchor="middle" x="88.15" y="-192.21" font-family="Helvetica" font-size="10.00">1</text>
</a>
</g>
</g>
<!-- dir_5dfbde4826449ccc27ade431c1bd7152&#45;&gt;dir_be14dbde34440c1882315906112135f2 -->
<g id="edge5" class="edge">
<title>dir_5dfbde4826449ccc27ade431c1bd7152&#45;&gt;dir_be14dbde34440c1882315906112135f2</title>
<path fill="none" stroke="black" d="M53.08,-71.7C52.29,-63.98 52.06,-54.71 52.4,-46.11"/>
<polygon fill="black" stroke="black" points="55.9,-46.32 53.1,-36.1 48.92,-45.84 55.9,-46.32"/>
<g id="a_edge5&#45;headlabel"><a xlink:href="dir_000005_000010.html" target="_top" xlink:title="1">
<text text-anchor="middle" x="58.48" y="-47.61" font-family="Helvetica" font-size="10.00">1</text>
</a>
</g>
</g>
<!-- dir_be14dbde34440c1882315906112135f2&#45;&gt;dir_5dfbde4826449ccc27ade431c1bd7152 -->
<g id="edge4" class="edge">
<title>dir_be14dbde34440c1882315906112135f2&#45;&gt;dir_5dfbde4826449ccc27ade431c1bd7152</title>
<path fill="none" stroke="black" d="M64.9,-36.1C65.7,-43.79 65.94,-53.05 65.6,-61.67"/>
<polygon fill="black" stroke="black" points="62.11,-61.48 64.92,-71.7 69.09,-61.96 62.11,-61.48"/>
<g id="a_edge4&#45;headlabel"><a xlink:href="dir_000010_000005.html" target="_top" xlink:title="7">
<text text-anchor="middle" x="59.52" y="-55.2" font-family="Helvetica" font-size="10.00">7</text>
</a>
</g>
</g>
<!-- dir_fee12dda89892310be5e8746bc27e246&#45;&gt;dir_5dfbde4826449ccc27ade431c1bd7152 -->
<g id="edge6" class="edge">
<title>dir_fee12dda89892310be5e8746bc27e246&#45;&gt;dir_5dfbde4826449ccc27ade431c1bd7152</title>
<path fill="none" stroke="black" d="M93.63,-143.7C88.28,-135.56 81.8,-125.69 75.89,-116.7"/>
<polygon fill="black" stroke="black" points="78.66,-114.54 70.24,-108.1 72.81,-118.38 78.66,-114.54"/>
<g id="a_edge6&#45;headlabel"><a xlink:href="dir_000004_000005.html" target="_top" xlink:title="3">
<text text-anchor="middle" x="83" y="-113.48" font-family="Helvetica" font-size="10.00">3</text>
</a>
</g>
</g>
<!-- dir_fee12dda89892310be5e8746bc27e246&#45;&gt;dir_be14dbde34440c1882315906112135f2 -->
<g id="edge7" class="edge">
<title>dir_fee12dda89892310be5e8746bc27e246&#45;&gt;dir_be14dbde34440c1882315906112135f2</title>
<path fill="none" stroke="black" d="M105.48,-143.71C105.44,-125.35 103.79,-95.77 95,-72 91.45,-62.4 85.8,-52.85 80.02,-44.56"/>
<polygon fill="black" stroke="black" points="82.77,-42.4 74.03,-36.42 77.14,-46.55 82.77,-42.4"/>
<g id="a_edge7&#45;headlabel"><a xlink:href="dir_000004_000010.html" target="_top" xlink:title="5">
<text text-anchor="middle" x="87.19" y="-41.11" font-family="Helvetica" font-size="10.00">5</text>
</a>
</g>
</g>
</g>
</svg>
