<?xml version="1.0" encoding="UTF-8" standalone="no"?>
<!DOCTYPE svg PUBLIC "-//W3C//DTD SVG 1.1//EN"
 "http://www.w3.org/Graphics/SVG/1.1/DTD/svg11.dtd">
<!-- Generated by graphviz version 2.44.0 (0)
 -->
<!-- Title: Graphical Class Hierarchy Pages: 1 -->
<svg width="292pt" height="66pt"
 viewBox="0.00 0.00 292.00 66.00" xmlns="http://www.w3.org/2000/svg" xmlns:xlink="http://www.w3.org/1999/xlink">
<g id="graph0" class="graph" transform="scale(1 1) rotate(0) translate(4 62)">
<title>Graphical Class Hierarchy</title>
<polygon fill="white" stroke="transparent" points="-4,4 -4,-62 288,-62 288,4 -4,4"/>
<!-- Node0 -->
<g id="node1" class="node">
<title>Node0</title>
<g id="a_node1"><a xlink:href="classParameterHandlerBase.html" target="_top" xlink:title="Base class responsible for handling of systematic error parameters. Capable of using PCA or using ada...">
<polygon fill="white" stroke="black" points="0,-19.5 0,-38.5 118,-38.5 118,-19.5 0,-19.5"/>
<text text-anchor="middle" x="59" y="-26.5" font-family="Helvetica" font-size="10.00">ParameterHandlerBase</text>
</a>
</g>
</g>
<!-- Node1 -->
<g id="node2" class="node">
<title>Node1</title>
<g id="a_node2"><a xlink:href="classParameterHandlerGeneric.html" target="_top" xlink:title="Class responsible for handling of systematic error parameters with different types defined in the con...">
<polygon fill="white" stroke="black" points="154.5,-38.5 154.5,-57.5 283.5,-57.5 283.5,-38.5 154.5,-38.5"/>
<text text-anchor="middle" x="219" y="-45.5" font-family="Helvetica" font-size="10.00">ParameterHandlerGeneric</text>
</a>
</g>
</g>
<!-- Node0&#45;&gt;Node1 -->
<g id="edge1" class="edge">
<title>Node0&#45;&gt;Node1</title>
<path fill="none" stroke="midnightblue" d="M128.38,-37.22C136.98,-38.26 145.75,-39.31 154.28,-40.34"/>
<polygon fill="midnightblue" stroke="midnightblue" points="128.73,-33.74 118.38,-36.02 127.9,-40.69 128.73,-33.74"/>
</g>
<!-- Node2 -->
<g id="node3" class="node">
<title>Node2</title>
<g id="a_node3"><a xlink:href="classPyParameterHandlerBase.html" target="_top" xlink:title="EW: As ParameterHandlerBase is an abstract base class we have to do some gymnastics to get it to get ...">
<polygon fill="white" stroke="black" points="154,-0.5 154,-19.5 284,-19.5 284,-0.5 154,-0.5"/>
<text text-anchor="middle" x="219" y="-7.5" font-family="Helvetica" font-size="10.00">PyParameterHandlerBase</text>
</a>
</g>
</g>
<!-- Node0&#45;&gt;Node2 -->
<g id="edge2" class="edge">
<title>Node0&#45;&gt;Node2</title>
<path fill="none" stroke="midnightblue" d="M128.5,-20.76C136.88,-19.75 145.43,-18.73 153.74,-17.73"/>
<polygon fill="midnightblue" stroke="midnightblue" points="127.9,-17.31 118.38,-21.98 128.73,-24.26 127.9,-17.31"/>
</g>
</g>
</svg>
