<?xml version="1.0" encoding="UTF-8" standalone="no"?>
<!DOCTYPE svg PUBLIC "-//W3C//DTD SVG 1.1//EN"
 "http://www.w3.org/Graphics/SVG/1.1/DTD/svg11.dtd">
<!-- Generated by graphviz version 2.44.0 (0)
 -->
<!-- Title: /hosthome/v2.2.0/Fitters/LikelihoodFit.h Pages: 1 -->
<!--zoomable 240 -->
<svg id="main" version="1.1" xmlns="http://www.w3.org/2000/svg" xmlns:xlink="http://www.w3.org/1999/xlink" xml:space="preserve" onload="init(evt)">
<style type="text/css"><![CDATA[
.edge:hover path { stroke: red; }
.edge:hover polygon { stroke: red; fill: red; }
]]></style>
<script type="text/javascript"><![CDATA[
var edges = document.getElementsByTagName('g');
if (edges && edges.length) {
  for (var i=0;i<edges.length;i++) {
    if (edges[i].id.substr(0,4)=='edge') {
      edges[i].setAttribute('class','edge');
    }
  }
}
]]></script>
        <defs>
                <circle id="rim" cx="0" cy="0" r="7"/>
                <circle id="rim2" cx="0" cy="0" r="3.5"/>
                <g id="zoomPlus">
                        <use xlink:href="#rim" fill="#404040">
                                <set attributeName="fill" to="#808080" begin="zoomplus.mouseover" end="zoomplus.mouseout"/>
                        </use>
                        <path d="M-4,0h8M0,-4v8" fill="none" stroke="white" stroke-width="1.5" pointer-events="none"/>
                </g>
                <g id="zoomMin">
                        <use xlink:href="#rim" fill="#404040">
                                <set attributeName="fill" to="#808080" begin="zoomminus.mouseover" end="zoomminus.mouseout"/>
                        </use>
                        <path d="M-4,0h8" fill="none" stroke="white" stroke-width="1.5" pointer-events="none"/>
                </g>
                <g id="dirArrow">
                        <path fill="none" stroke="white" stroke-width="1.5" d="M0,-3.0v7 M-2.5,-0.5L0,-3.0L2.5,-0.5"/>
                </g>
               <g id="resetDef">
                       <use xlink:href="#rim2" fill="#404040">
                               <set attributeName="fill" to="#808080" begin="reset.mouseover" end="reset.mouseout"/>
                       </use>
               </g>
        </defs>

<script type="text/javascript">
var viewWidth = 560;
var viewHeight = 240;
var sectionId = 'dynsection-1';
</script>
<script xlink:href="svgpan.js"/>
<svg id="graph" class="graph">
<g id="viewport">
<title>/hosthome/v2.2.0/Fitters/LikelihoodFit.h</title>
<polygon fill="white" stroke="transparent" points="-4,4 -4,-236 556,-236 556,4 -4,4"/>
<!-- Node1 -->
<g id="node1" class="node">
<title>Node1</title>
<g id="a_node1"><a xlink:title=" ">
<polygon fill="#bfbfbf" stroke="black" points="214,-201.5 214,-231.5 338,-231.5 338,-201.5 214,-201.5"/>
<text text-anchor="start" x="222" y="-219.5" font-family="Helvetica" font-size="10.00">/hosthome/v2.2.0/Fitters</text>
<text text-anchor="middle" x="276" y="-208.5" font-family="Helvetica" font-size="10.00">/LikelihoodFit.h</text>
</a>
</g>
</g>
<!-- Node2 -->
<g id="node2" class="node">
<title>Node2</title>
<g id="a_node2"><a xlink:href="LikelihoodFit_8cpp.html" target="_top" xlink:title=" ">
<polygon fill="white" stroke="black" points="1,-134.5 1,-164.5 125,-164.5 125,-134.5 1,-134.5"/>
<text text-anchor="start" x="9" y="-152.5" font-family="Helvetica" font-size="10.00">/hosthome/v2.2.0/Fitters</text>
<text text-anchor="middle" x="63" y="-141.5" font-family="Helvetica" font-size="10.00">/LikelihoodFit.cpp</text>
</a>
</g>
</g>
<!-- Node1&#45;&gt;Node2 -->
<g id="edge1" class="edge">
<title>Node1&#45;&gt;Node2</title>
<path fill="none" stroke="midnightblue" d="M220.11,-198.44C185.58,-187.91 141.81,-174.55 109.24,-164.61"/>
<polygon fill="midnightblue" stroke="midnightblue" points="219.46,-201.9 230.04,-201.48 221.5,-195.21 219.46,-201.9"/>
</g>
<!-- Node3 -->
<g id="node3" class="node">
<title>Node3</title>
<g id="a_node3"><a xlink:href="MaCh3Factory_8h.html" target="_top" xlink:title="Factory methods for MaCh3 software which streamline initialisation of different objects.">
<polygon fill="white" stroke="black" points="428,-67.5 428,-97.5 552,-97.5 552,-67.5 428,-67.5"/>
<text text-anchor="start" x="436" y="-85.5" font-family="Helvetica" font-size="10.00">/hosthome/v2.2.0/Fitters</text>
<text text-anchor="middle" x="490" y="-74.5" font-family="Helvetica" font-size="10.00">/MaCh3Factory.h</text>
</a>
</g>
</g>
<!-- Node1&#45;&gt;Node3 -->
<g id="edge2" class="edge">
<title>Node1&#45;&gt;Node3</title>
<path fill="none" stroke="midnightblue" d="M345.95,-198.36C370.04,-190.51 396.38,-179.62 418,-165 445.22,-146.6 468.7,-115.56 480.95,-97.57"/>
<polygon fill="midnightblue" stroke="midnightblue" points="344.64,-195.11 336.14,-201.44 346.73,-201.79 344.64,-195.11"/>
</g>
<!-- Node5 -->
<g id="node5" class="node">
<title>Node5</title>
<g id="a_node5"><a xlink:href="MinuitFit_8h.html" target="_top" xlink:title=" ">
<polygon fill="white" stroke="black" points="143,-134.5 143,-164.5 267,-164.5 267,-134.5 143,-134.5"/>
<text text-anchor="start" x="151" y="-152.5" font-family="Helvetica" font-size="10.00">/hosthome/v2.2.0/Fitters</text>
<text text-anchor="middle" x="205" y="-141.5" font-family="Helvetica" font-size="10.00">/MinuitFit.h</text>
</a>
</g>
</g>
<!-- Node1&#45;&gt;Node5 -->
<g id="edge4" class="edge">
<title>Node1&#45;&gt;Node5</title>
<path fill="none" stroke="midnightblue" d="M253.17,-194.6C242.45,-184.78 229.95,-173.34 220.38,-164.58"/>
<polygon fill="midnightblue" stroke="midnightblue" points="250.85,-197.22 260.59,-201.4 255.58,-192.06 250.85,-197.22"/>
</g>
<!-- Node8 -->
<g id="node8" class="node">
<title>Node8</title>
<g id="a_node8"><a xlink:href="PSO_8h.html" target="_top" xlink:title=" ">
<polygon fill="white" stroke="black" points="285,-134.5 285,-164.5 409,-164.5 409,-134.5 285,-134.5"/>
<text text-anchor="start" x="293" y="-152.5" font-family="Helvetica" font-size="10.00">/hosthome/v2.2.0/Fitters</text>
<text text-anchor="middle" x="347" y="-141.5" font-family="Helvetica" font-size="10.00">/PSO.h</text>
</a>
</g>
</g>
<!-- Node1&#45;&gt;Node8 -->
<g id="edge7" class="edge">
<title>Node1&#45;&gt;Node8</title>
<path fill="none" stroke="midnightblue" d="M298.83,-194.6C309.55,-184.78 322.05,-173.34 331.62,-164.58"/>
<polygon fill="midnightblue" stroke="midnightblue" points="296.42,-192.06 291.41,-201.4 301.15,-197.22 296.42,-192.06"/>
</g>
<!-- Node4 -->
<g id="node4" class="node">
<title>Node4</title>
<g id="a_node4"><a xlink:href="MaCh3Factory_8cpp.html" target="_top" xlink:title=" ">
<polygon fill="white" stroke="black" points="428,-0.5 428,-30.5 552,-30.5 552,-0.5 428,-0.5"/>
<text text-anchor="start" x="436" y="-18.5" font-family="Helvetica" font-size="10.00">/hosthome/v2.2.0/Fitters</text>
<text text-anchor="middle" x="490" y="-7.5" font-family="Helvetica" font-size="10.00">/MaCh3Factory.cpp</text>
</a>
</g>
</g>
<!-- Node3&#45;&gt;Node4 -->
<g id="edge3" class="edge">
<title>Node3&#45;&gt;Node4</title>
<path fill="none" stroke="midnightblue" d="M490,-57.11C490,-48.15 490,-38.32 490,-30.58"/>
<polygon fill="midnightblue" stroke="midnightblue" points="486.5,-57.4 490,-67.4 493.5,-57.4 486.5,-57.4"/>
</g>
<!-- Node6 -->
<g id="node6" class="node">
<title>Node6</title>
<g id="a_node6"><a xlink:href="MinuitFit_8cpp.html" target="_top" xlink:title=" ">
<polygon fill="white" stroke="black" points="0,-67.5 0,-97.5 124,-97.5 124,-67.5 0,-67.5"/>
<text text-anchor="start" x="8" y="-85.5" font-family="Helvetica" font-size="10.00">/hosthome/v2.2.0/Fitters</text>
<text text-anchor="middle" x="62" y="-74.5" font-family="Helvetica" font-size="10.00">/MinuitFit.cpp</text>
</a>
</g>
</g>
<!-- Node5&#45;&gt;Node6 -->
<g id="edge5" class="edge">
<title>Node5&#45;&gt;Node6</title>
<path fill="none" stroke="midnightblue" d="M164.59,-130.13C141.87,-119.8 113.94,-107.11 92.97,-97.58"/>
<polygon fill="midnightblue" stroke="midnightblue" points="163.42,-133.44 173.97,-134.4 166.32,-127.07 163.42,-133.44"/>
</g>
<!-- Node7 -->
<g id="node7" class="node">
<title>Node7</title>
<g id="a_node7"><a xlink:href="fitters_8cpp.html" target="_top" xlink:title=" ">
<polygon fill="white" stroke="black" points="142.5,-67.5 142.5,-97.5 267.5,-97.5 267.5,-67.5 142.5,-67.5"/>
<text text-anchor="start" x="150.5" y="-85.5" font-family="Helvetica" font-size="10.00">/hosthome/v2.2.0/python</text>
<text text-anchor="middle" x="205" y="-74.5" font-family="Helvetica" font-size="10.00">/fitters.cpp</text>
</a>
</g>
</g>
<!-- Node5&#45;&gt;Node7 -->
<g id="edge6" class="edge">
<title>Node5&#45;&gt;Node7</title>
<path fill="none" stroke="midnightblue" d="M205,-124.11C205,-115.15 205,-105.32 205,-97.58"/>
<polygon fill="midnightblue" stroke="midnightblue" points="201.5,-124.4 205,-134.4 208.5,-124.4 201.5,-124.4"/>
</g>
<!-- Node8&#45;&gt;Node3 -->
<g id="edge8" class="edge">
<title>Node8&#45;&gt;Node3</title>
<path fill="none" stroke="midnightblue" d="M387.41,-130.13C410.13,-119.8 438.06,-107.11 459.03,-97.58"/>
<polygon fill="midnightblue" stroke="midnightblue" points="385.68,-127.07 378.03,-134.4 388.58,-133.44 385.68,-127.07"/>
</g>
<!-- Node8&#45;&gt;Node7 -->
<g id="edge10" class="edge">
<title>Node8&#45;&gt;Node7</title>
<path fill="none" stroke="midnightblue" d="M306.87,-130.13C284.31,-119.8 256.58,-107.11 235.75,-97.58"/>
<polygon fill="midnightblue" stroke="midnightblue" points="305.64,-133.42 316.19,-134.4 308.55,-127.05 305.64,-133.42"/>
</g>
<!-- Node9 -->
<g id="node9" class="node">
<title>Node9</title>
<g id="a_node9"><a xlink:href="PSO_8cpp.html" target="_top" xlink:title=" ">
<polygon fill="white" stroke="black" points="286,-67.5 286,-97.5 410,-97.5 410,-67.5 286,-67.5"/>
<text text-anchor="start" x="294" y="-85.5" font-family="Helvetica" font-size="10.00">/hosthome/v2.2.0/Fitters</text>
<text text-anchor="middle" x="348" y="-74.5" font-family="Helvetica" font-size="10.00">/PSO.cpp</text>
</a>
</g>
</g>
<!-- Node8&#45;&gt;Node9 -->
<g id="edge9" class="edge">
<title>Node8&#45;&gt;Node9</title>
<path fill="none" stroke="midnightblue" d="M347.38,-124.11C347.51,-115.15 347.66,-105.32 347.78,-97.58"/>
<polygon fill="midnightblue" stroke="midnightblue" points="343.87,-124.34 347.22,-134.4 350.87,-124.45 343.87,-124.34"/>
</g>
</g>
</svg>
        <g id="navigator" transform="translate(0 0)" fill="#404254">
                <rect fill="#f2f5e9" fill-opacity="0.5" stroke="#606060" stroke-width=".5" x="0" y="0" width="60" height="60"/>
                <use id="zoomplus" xlink:href="#zoomPlus" x="17" y="9" onmousedown="handleZoom(evt,'in')"/>
                <use id="zoomminus" xlink:href="#zoomMin" x="42" y="9" onmousedown="handleZoom(evt,'out')"/>
                <use id="reset" xlink:href="#resetDef" x="30" y="36" onmousedown="handleReset()"/>
                <g id="arrowUp" xlink:href="#dirArrow" transform="translate(30 24)" onmousedown="handlePan(0,-1)">
                  <use xlink:href="#rim" fill="#404040">
                        <set attributeName="fill" to="#808080" begin="arrowUp.mouseover" end="arrowUp.mouseout"/>
                  </use>
                  <path fill="none" stroke="white" stroke-width="1.5" d="M0,-3.0v7 M-2.5,-0.5L0,-3.0L2.5,-0.5"/>
                </g>
                <g id="arrowRight" xlink:href="#dirArrow" transform="rotate(90) translate(36 -43)" onmousedown="handlePan(1,0)">
                  <use xlink:href="#rim" fill="#404040">
                        <set attributeName="fill" to="#808080" begin="arrowRight.mouseover" end="arrowRight.mouseout"/>
                  </use>
                  <path fill="none" stroke="white" stroke-width="1.5" d="M0,-3.0v7 M-2.5,-0.5L0,-3.0L2.5,-0.5"/>
                </g>
                <g id="arrowDown" xlink:href="#dirArrow" transform="rotate(180) translate(-30 -48)" onmousedown="handlePan(0,1)">
                  <use xlink:href="#rim" fill="#404040">
                        <set attributeName="fill" to="#808080" begin="arrowDown.mouseover" end="arrowDown.mouseout"/>
                  </use>
                  <path fill="none" stroke="white" stroke-width="1.5" d="M0,-3.0v7 M-2.5,-0.5L0,-3.0L2.5,-0.5"/>
                </g>
                <g id="arrowLeft" xlink:href="#dirArrow" transform="rotate(270) translate(-36 17)" onmousedown="handlePan(-1,0)">
                  <use xlink:href="#rim" fill="#404040">
                        <set attributeName="fill" to="#808080" begin="arrowLeft.mouseover" end="arrowLeft.mouseout"/>
                  </use>
                  <path fill="none" stroke="white" stroke-width="1.5" d="M0,-3.0v7 M-2.5,-0.5L0,-3.0L2.5,-0.5"/>
                </g>
        </g>
        <svg viewBox="0 0 15 15" width="100%" height="30px" preserveAspectRatio="xMaxYMin meet">
         <g id="arrow_out" transform="scale(0.3 0.3)">
          <a xlink:href="LikelihoodFit_8h__dep__incl_org.svg" target="_base">
           <rect id="button" ry="5" rx="5" y="6" x="6" height="38" width="38"
                fill="#f2f5e9" fill-opacity="0.5" stroke="#606060" stroke-width="1.0"/>
           <path id="arrow"
             d="M 11.500037,31.436501 C 11.940474,20.09759 22.043105,11.32322 32.158766,21.979434 L 37.068811,17.246167 C 37.068811,17.246167 37.088388,32 37.088388,32 L 22.160133,31.978069 C 22.160133,31.978069 26.997745,27.140456 26.997745,27.140456 C 18.528582,18.264221 13.291696,25.230495 11.500037,31.436501 z"
             style="fill:#404040;"/>
          </a>
         </g>
        </svg>
</svg>
