<?xml version="1.0" encoding="UTF-8" standalone="no"?>
<!DOCTYPE svg PUBLIC "-//W3C//DTD SVG 1.1//EN"
 "http://www.w3.org/Graphics/SVG/1.1/DTD/svg11.dtd">
<!-- Generated by graphviz version 2.44.0 (0)
 -->
<!-- Title: /hosthome/v2.2.0/Manager/MaCh3Modes.h Pages: 1 -->
<svg width="1259pt" height="375pt"
 viewBox="0.00 0.00 1258.82 375.00" xmlns="http://www.w3.org/2000/svg" xmlns:xlink="http://www.w3.org/1999/xlink">
<g id="graph0" class="graph" transform="scale(1 1) rotate(0) translate(4 371)">
<title>/hosthome/v2.2.0/Manager/MaCh3Modes.h</title>
<polygon fill="white" stroke="transparent" points="-4,4 -4,-371 1254.82,-371 1254.82,4 -4,4"/>
<!-- Node1 -->
<g id="node1" class="node">
<title>Node1</title>
<g id="a_node1"><a xlink:title=" ">
<polygon fill="#bfbfbf" stroke="black" points="219.32,-336.5 219.32,-366.5 352.32,-366.5 352.32,-336.5 219.32,-336.5"/>
<text text-anchor="start" x="227.32" y="-354.5" font-family="Helvetica" font-size="10.00">/hosthome/v2.2.0/Manager</text>
<text text-anchor="middle" x="285.82" y="-343.5" font-family="Helvetica" font-size="10.00">/MaCh3Modes.h</text>
</a>
</g>
</g>
<!-- Node2 -->
<g id="node2" class="node">
<title>Node2</title>
<g id="a_node2"><a xlink:title=" ">
<polygon fill="white" stroke="#bfbfbf" points="2.82,-0.5 2.82,-19.5 46.82,-19.5 46.82,-0.5 2.82,-0.5"/>
<text text-anchor="middle" x="24.82" y="-7.5" font-family="Helvetica" font-size="10.00">cmath</text>
</a>
</g>
</g>
<!-- Node1&#45;&gt;Node2 -->
<g id="edge1" class="edge">
<title>Node1&#45;&gt;Node2</title>
<path fill="none" stroke="midnightblue" d="M219.14,-345.72C150.12,-339.43 48.45,-325.98 19.82,-300 -2.47,-279.77 0.82,-265.1 0.82,-235 0.82,-235 0.82,-235 0.82,-121 0.82,-88.06 11.22,-50.82 18.33,-29.21"/>
<polygon fill="midnightblue" stroke="midnightblue" points="21.66,-30.29 21.58,-19.7 15.04,-28.03 21.66,-30.29"/>
</g>
<!-- Node3 -->
<g id="node3" class="node">
<title>Node3</title>
<g id="a_node3"><a xlink:title=" ">
<polygon fill="white" stroke="#bfbfbf" points="29.32,-280.5 29.32,-299.5 64.32,-299.5 64.32,-280.5 29.32,-280.5"/>
<text text-anchor="middle" x="46.82" y="-287.5" font-family="Helvetica" font-size="10.00">map</text>
</a>
</g>
</g>
<!-- Node1&#45;&gt;Node3 -->
<g id="edge2" class="edge">
<title>Node1&#45;&gt;Node3</title>
<path fill="none" stroke="midnightblue" d="M225.9,-336.46C184.49,-326.62 128.2,-312.96 78.82,-300 77.36,-299.62 75.86,-299.21 74.34,-298.81"/>
<polygon fill="midnightblue" stroke="midnightblue" points="74.97,-295.35 64.4,-296.06 73.11,-302.1 74.97,-295.35"/>
</g>
<!-- Node4 -->
<g id="node4" class="node">
<title>Node4</title>
<g id="a_node4"><a xlink:title=" ">
<polygon fill="white" stroke="#bfbfbf" points="553.32,-56.5 553.32,-75.5 594.32,-75.5 594.32,-56.5 553.32,-56.5"/>
<text text-anchor="middle" x="573.82" y="-63.5" font-family="Helvetica" font-size="10.00">string</text>
</a>
</g>
</g>
<!-- Node1&#45;&gt;Node4 -->
<g id="edge3" class="edge">
<title>Node1&#45;&gt;Node4</title>
<path fill="none" stroke="midnightblue" d="M219.3,-337.02C151.61,-319.72 60.49,-284.49 89.82,-224 131.15,-138.78 442.84,-86.17 542.96,-71.33"/>
<polygon fill="midnightblue" stroke="midnightblue" points="543.65,-74.77 553.04,-69.86 542.64,-67.84 543.65,-74.77"/>
</g>
<!-- Node5 -->
<g id="node5" class="node">
<title>Node5</title>
<g id="a_node5"><a xlink:href="YamlHelper_8h.html" target="_top" xlink:title="Utility functions for handling YAML nodes.">
<polygon fill="white" stroke="black" points="447.82,-224.5 447.82,-243.5 563.82,-243.5 563.82,-224.5 447.82,-224.5"/>
<text text-anchor="middle" x="505.82" y="-231.5" font-family="Helvetica" font-size="10.00">Manager/YamlHelper.h</text>
</a>
</g>
</g>
<!-- Node1&#45;&gt;Node5 -->
<g id="edge4" class="edge">
<title>Node1&#45;&gt;Node5</title>
<path fill="none" stroke="midnightblue" d="M312.8,-336.34C355.7,-313.82 438.87,-270.15 480.62,-248.23"/>
<polygon fill="midnightblue" stroke="midnightblue" points="482.36,-251.27 489.59,-243.52 479.11,-245.07 482.36,-251.27"/>
</g>
<!-- Node10 -->
<g id="node10" class="node">
<title>Node10</title>
<g id="a_node10"><a xlink:href="MaCh3Exception_8h.html" target="_top" xlink:title=" ">
<polygon fill="white" stroke="black" points="673.82,-168.5 673.82,-187.5 813.82,-187.5 813.82,-168.5 673.82,-168.5"/>
<text text-anchor="middle" x="743.82" y="-175.5" font-family="Helvetica" font-size="10.00">Manager/MaCh3Exception.h</text>
</a>
</g>
</g>
<!-- Node1&#45;&gt;Node10 -->
<g id="edge49" class="edge">
<title>Node1&#45;&gt;Node10</title>
<path fill="none" stroke="midnightblue" d="M323.93,-336.47C378.93,-316.19 483.76,-277.45 572.82,-244 621.4,-225.76 677.62,-204.33 711.94,-191.21"/>
<polygon fill="midnightblue" stroke="midnightblue" points="713.34,-194.42 721.44,-187.57 710.84,-187.88 713.34,-194.42"/>
</g>
<!-- Node25 -->
<g id="node25" class="node">
<title>Node25</title>
<g id="a_node25"><a xlink:href="Monitor_8h.html" target="_top" xlink:title="System and monitoring utilities for printing system information and status updates.">
<polygon fill="white" stroke="black" points="788.82,-280.5 788.82,-299.5 886.82,-299.5 886.82,-280.5 788.82,-280.5"/>
<text text-anchor="middle" x="837.82" y="-287.5" font-family="Helvetica" font-size="10.00">Manager/Monitor.h</text>
</a>
</g>
</g>
<!-- Node1&#45;&gt;Node25 -->
<g id="edge35" class="edge">
<title>Node1&#45;&gt;Node25</title>
<path fill="none" stroke="midnightblue" d="M352.41,-343.32C461.05,-331.61 674.72,-308.58 778.48,-297.4"/>
<polygon fill="midnightblue" stroke="midnightblue" points="778.9,-300.87 788.47,-296.32 778.15,-293.91 778.9,-300.87"/>
</g>
<!-- Node5&#45;&gt;Node4 -->
<g id="edge7" class="edge">
<title>Node5&#45;&gt;Node4</title>
<path fill="none" stroke="midnightblue" d="M518.44,-224.24C529,-216.14 543.49,-203.11 550.82,-188 565.67,-157.4 552.74,-145.27 559.82,-112 561.74,-102.99 564.68,-93.19 567.37,-85.05"/>
<polygon fill="midnightblue" stroke="midnightblue" points="570.71,-86.1 570.66,-75.5 564.1,-83.82 570.71,-86.1"/>
</g>
<!-- Node6 -->
<g id="node6" class="node">
<title>Node6</title>
<g id="a_node6"><a xlink:title=" ">
<polygon fill="white" stroke="#bfbfbf" points="845.82,-0.5 845.82,-19.5 899.82,-19.5 899.82,-0.5 845.82,-0.5"/>
<text text-anchor="middle" x="872.82" y="-7.5" font-family="Helvetica" font-size="10.00">iostream</text>
</a>
</g>
</g>
<!-- Node5&#45;&gt;Node6 -->
<g id="edge5" class="edge">
<title>Node5&#45;&gt;Node6</title>
<path fill="none" stroke="midnightblue" d="M564.1,-232.13C644.91,-229.72 785.31,-220.78 822.82,-188 869.47,-147.23 874.13,-66.6 873.65,-29.94"/>
<polygon fill="midnightblue" stroke="midnightblue" points="877.14,-29.59 873.36,-19.69 870.15,-29.78 877.14,-29.59"/>
</g>
<!-- Node7 -->
<g id="node7" class="node">
<title>Node7</title>
<g id="a_node7"><a xlink:title=" ">
<polygon fill="white" stroke="#bfbfbf" points="116.82,-0.5 116.82,-19.5 166.82,-19.5 166.82,-0.5 116.82,-0.5"/>
<text text-anchor="middle" x="141.82" y="-7.5" font-family="Helvetica" font-size="10.00">fstream</text>
</a>
</g>
</g>
<!-- Node5&#45;&gt;Node7 -->
<g id="edge6" class="edge">
<title>Node5&#45;&gt;Node7</title>
<path fill="none" stroke="midnightblue" d="M447.8,-233.75C360.02,-233.57 199.56,-227.63 160.82,-188 118.91,-145.12 129.61,-65.58 137.25,-29.57"/>
<polygon fill="midnightblue" stroke="midnightblue" points="140.73,-30.04 139.55,-19.51 133.91,-28.48 140.73,-30.04"/>
</g>
<!-- Node8 -->
<g id="node8" class="node">
<title>Node8</title>
<g id="a_node8"><a xlink:title=" ">
<polygon fill="white" stroke="#bfbfbf" points="275.32,-168.5 275.32,-187.5 328.32,-187.5 328.32,-168.5 275.32,-168.5"/>
<text text-anchor="middle" x="301.82" y="-175.5" font-family="Helvetica" font-size="10.00">cxxabi.h</text>
</a>
</g>
</g>
<!-- Node5&#45;&gt;Node8 -->
<g id="edge8" class="edge">
<title>Node5&#45;&gt;Node8</title>
<path fill="none" stroke="midnightblue" d="M473.5,-224.44C436.68,-214.7 376.66,-198.81 338.22,-188.64"/>
<polygon fill="midnightblue" stroke="midnightblue" points="339.03,-185.23 328.47,-186.05 337.24,-192 339.03,-185.23"/>
</g>
<!-- Node9 -->
<g id="node9" class="node">
<title>Node9</title>
<g id="a_node9"><a xlink:title=" ">
<polygon fill="white" stroke="#bfbfbf" points="346.32,-168.5 346.32,-187.5 387.32,-187.5 387.32,-168.5 346.32,-168.5"/>
<text text-anchor="middle" x="366.82" y="-175.5" font-family="Helvetica" font-size="10.00">regex</text>
</a>
</g>
</g>
<!-- Node5&#45;&gt;Node9 -->
<g id="edge9" class="edge">
<title>Node5&#45;&gt;Node9</title>
<path fill="none" stroke="midnightblue" d="M483.8,-224.44C460.31,-215.32 422.97,-200.81 396.81,-190.65"/>
<polygon fill="midnightblue" stroke="midnightblue" points="397.97,-187.35 387.38,-186.99 395.44,-193.87 397.97,-187.35"/>
</g>
<!-- Node5&#45;&gt;Node10 -->
<g id="edge10" class="edge">
<title>Node5&#45;&gt;Node10</title>
<path fill="none" stroke="midnightblue" d="M543.53,-224.44C584.96,-215.04 651.58,-199.93 696.49,-189.74"/>
<polygon fill="midnightblue" stroke="midnightblue" points="697.31,-193.14 706.29,-187.52 695.76,-186.32 697.31,-193.14"/>
</g>
<!-- Node16 -->
<g id="node16" class="node">
<title>Node16</title>
<g id="a_node16"><a xlink:href="Core_8h.html" target="_top" xlink:title=" ">
<polygon fill="white" stroke="black" points="689.82,-56.5 689.82,-75.5 775.82,-75.5 775.82,-56.5 689.82,-56.5"/>
<text text-anchor="middle" x="732.82" y="-63.5" font-family="Helvetica" font-size="10.00">Manager/Core.h</text>
</a>
</g>
</g>
<!-- Node5&#45;&gt;Node16 -->
<g id="edge30" class="edge">
<title>Node5&#45;&gt;Node16</title>
<path fill="none" stroke="midnightblue" d="M517.74,-224.42C530.25,-215.39 550.46,-200.77 567.82,-188 613.37,-154.51 624.15,-145.32 669.82,-112 683.98,-101.67 700.05,-90.19 712.42,-81.42"/>
<polygon fill="midnightblue" stroke="midnightblue" points="714.56,-84.19 720.69,-75.56 710.51,-78.48 714.56,-84.19"/>
</g>
<!-- Node21 -->
<g id="node21" class="node">
<title>Node21</title>
<g id="a_node21"><a xlink:title=" ">
<polygon fill="white" stroke="#bfbfbf" points="962.82,-168.5 962.82,-187.5 1020.82,-187.5 1020.82,-168.5 962.82,-168.5"/>
<text text-anchor="middle" x="991.82" y="-175.5" font-family="Helvetica" font-size="10.00">TMacro.h</text>
</a>
</g>
</g>
<!-- Node5&#45;&gt;Node21 -->
<g id="edge31" class="edge">
<title>Node5&#45;&gt;Node21</title>
<path fill="none" stroke="midnightblue" d="M563.96,-226.54C664.22,-215.4 867.06,-192.86 952.49,-183.37"/>
<polygon fill="midnightblue" stroke="midnightblue" points="952.99,-186.84 962.55,-182.25 952.22,-179.88 952.99,-186.84"/>
</g>
<!-- Node22 -->
<g id="node22" class="node">
<title>Node22</title>
<g id="a_node22"><a xlink:title=" ">
<polygon fill="white" stroke="#bfbfbf" points="405.82,-168.5 405.82,-187.5 451.82,-187.5 451.82,-168.5 405.82,-168.5"/>
<text text-anchor="middle" x="428.82" y="-175.5" font-family="Helvetica" font-size="10.00">TList.h</text>
</a>
</g>
</g>
<!-- Node5&#45;&gt;Node22 -->
<g id="edge32" class="edge">
<title>Node5&#45;&gt;Node22</title>
<path fill="none" stroke="midnightblue" d="M493.45,-224.32C481.66,-216.06 463.69,-203.45 449.69,-193.63"/>
<polygon fill="midnightblue" stroke="midnightblue" points="451.36,-190.53 441.16,-187.65 447.34,-196.26 451.36,-190.53"/>
</g>
<!-- Node23 -->
<g id="node23" class="node">
<title>Node23</title>
<g id="a_node23"><a xlink:title=" ">
<polygon fill="white" stroke="#bfbfbf" points="470.32,-168.5 470.32,-187.5 541.32,-187.5 541.32,-168.5 470.32,-168.5"/>
<text text-anchor="middle" x="505.82" y="-175.5" font-family="Helvetica" font-size="10.00">TObjString.h</text>
</a>
</g>
</g>
<!-- Node5&#45;&gt;Node23 -->
<g id="edge33" class="edge">
<title>Node5&#45;&gt;Node23</title>
<path fill="none" stroke="midnightblue" d="M505.82,-224.08C505.82,-217.01 505.82,-206.86 505.82,-197.99"/>
<polygon fill="midnightblue" stroke="midnightblue" points="509.32,-197.75 505.82,-187.75 502.32,-197.75 509.32,-197.75"/>
</g>
<!-- Node24 -->
<g id="node24" class="node">
<title>Node24</title>
<g id="a_node24"><a xlink:title=" ">
<polygon fill="white" stroke="#bfbfbf" points="170.32,-168.5 170.32,-187.5 257.32,-187.5 257.32,-168.5 170.32,-168.5"/>
<text text-anchor="middle" x="213.82" y="-175.5" font-family="Helvetica" font-size="10.00">yaml&#45;cpp/yaml.h</text>
</a>
</g>
</g>
<!-- Node5&#45;&gt;Node24 -->
<g id="edge34" class="edge">
<title>Node5&#45;&gt;Node24</title>
<path fill="none" stroke="midnightblue" d="M459.55,-224.44C407.32,-214.78 322.48,-199.09 267.41,-188.91"/>
<polygon fill="midnightblue" stroke="midnightblue" points="267.96,-185.45 257.49,-187.08 266.69,-192.34 267.96,-185.45"/>
</g>
<!-- Node10&#45;&gt;Node4 -->
<g id="edge12" class="edge">
<title>Node10&#45;&gt;Node4</title>
<path fill="none" stroke="midnightblue" d="M729.23,-168.41C714.21,-159.51 690.19,-145.08 669.82,-132 643.5,-115.1 613.76,-94.77 594.45,-81.4"/>
<polygon fill="midnightblue" stroke="midnightblue" points="596.33,-78.44 586.12,-75.61 592.34,-84.19 596.33,-78.44"/>
</g>
<!-- Node10&#45;&gt;Node6 -->
<g id="edge11" class="edge">
<title>Node10&#45;&gt;Node6</title>
<path fill="none" stroke="midnightblue" d="M749.04,-168.41C761.55,-148.06 794.7,-95.64 827.82,-56 836.5,-45.61 847.18,-34.86 855.95,-26.48"/>
<polygon fill="midnightblue" stroke="midnightblue" points="858.47,-28.91 863.37,-19.52 853.68,-23.81 858.47,-28.91"/>
</g>
<!-- Node11 -->
<g id="node11" class="node">
<title>Node11</title>
<g id="a_node11"><a xlink:title=" ">
<polygon fill="white" stroke="#bfbfbf" points="678.32,-112.5 678.32,-131.5 737.32,-131.5 737.32,-112.5 678.32,-112.5"/>
<text text-anchor="middle" x="707.82" y="-119.5" font-family="Helvetica" font-size="10.00">stdexcept</text>
</a>
</g>
</g>
<!-- Node10&#45;&gt;Node11 -->
<g id="edge13" class="edge">
<title>Node10&#45;&gt;Node11</title>
<path fill="none" stroke="midnightblue" d="M737.88,-168.08C732.84,-160.53 725.48,-149.49 719.31,-140.23"/>
<polygon fill="midnightblue" stroke="midnightblue" points="722.11,-138.13 713.66,-131.75 716.29,-142.01 722.11,-138.13"/>
</g>
<!-- Node12 -->
<g id="node12" class="node">
<title>Node12</title>
<g id="a_node12"><a xlink:href="MaCh3Logger_8h.html" target="_top" xlink:title="KS: Based on this https://github.com/gabime/spdlog/blob/a2b4262090fd3f005c2315dcb5be2f0f1774a005/incl...">
<polygon fill="white" stroke="black" points="887.82,-112.5 887.82,-131.5 1013.82,-131.5 1013.82,-112.5 887.82,-112.5"/>
<text text-anchor="middle" x="950.82" y="-119.5" font-family="Helvetica" font-size="10.00">Manager/MaCh3Logger.h</text>
</a>
</g>
</g>
<!-- Node10&#45;&gt;Node12 -->
<g id="edge14" class="edge">
<title>Node10&#45;&gt;Node12</title>
<path fill="none" stroke="midnightblue" d="M776.62,-168.44C812.2,-159.16 869.14,-144.31 908.17,-134.13"/>
<polygon fill="midnightblue" stroke="midnightblue" points="909.38,-137.43 918.18,-131.52 907.62,-130.65 909.38,-137.43"/>
</g>
<!-- Node10&#45;&gt;Node16 -->
<g id="edge29" class="edge">
<title>Node10&#45;&gt;Node16</title>
<path fill="none" stroke="midnightblue" d="M745.33,-168.11C747.21,-155.54 749.84,-131.88 746.82,-112 745.45,-103 742.63,-93.33 739.88,-85.26"/>
<polygon fill="midnightblue" stroke="midnightblue" points="743.13,-83.98 736.42,-75.78 736.56,-86.37 743.13,-83.98"/>
</g>
<!-- Node12&#45;&gt;Node4 -->
<g id="edge18" class="edge">
<title>Node12&#45;&gt;Node4</title>
<path fill="none" stroke="midnightblue" d="M891.08,-112.44C809.63,-100.78 666.74,-80.31 604.38,-71.38"/>
<polygon fill="midnightblue" stroke="midnightblue" points="604.79,-67.9 594.39,-69.95 603.79,-74.83 604.79,-67.9"/>
</g>
<!-- Node12&#45;&gt;Node6 -->
<g id="edge15" class="edge">
<title>Node12&#45;&gt;Node6</title>
<path fill="none" stroke="midnightblue" d="M938.02,-112.31C926.71,-104.07 910.4,-90.79 899.82,-76 889.61,-61.73 882.36,-43.01 877.96,-29.33"/>
<polygon fill="midnightblue" stroke="midnightblue" points="881.27,-28.19 875.04,-19.62 874.57,-30.2 881.27,-28.19"/>
</g>
<!-- Node13 -->
<g id="node13" class="node">
<title>Node13</title>
<g id="a_node13"><a xlink:title=" ">
<polygon fill="white" stroke="#bfbfbf" points="775.82,-0.5 775.82,-19.5 827.82,-19.5 827.82,-0.5 775.82,-0.5"/>
<text text-anchor="middle" x="801.82" y="-7.5" font-family="Helvetica" font-size="10.00">sstream</text>
</a>
</g>
</g>
<!-- Node12&#45;&gt;Node13 -->
<g id="edge16" class="edge">
<title>Node12&#45;&gt;Node13</title>
<path fill="none" stroke="midnightblue" d="M1014.09,-120.16C1089.16,-117.03 1199.04,-104.38 1155.82,-56 1110.19,-4.93 922.86,-30.64 838.15,-19.74"/>
<polygon fill="midnightblue" stroke="midnightblue" points="838.53,-16.26 828.11,-18.18 837.45,-23.17 838.53,-16.26"/>
</g>
<!-- Node14 -->
<g id="node14" class="node">
<title>Node14</title>
<g id="a_node14"><a xlink:title=" ">
<polygon fill="white" stroke="#bfbfbf" points="1011.32,-56.5 1011.32,-75.5 1070.32,-75.5 1070.32,-56.5 1011.32,-56.5"/>
<text text-anchor="middle" x="1040.82" y="-63.5" font-family="Helvetica" font-size="10.00">functional</text>
</a>
</g>
</g>
<!-- Node12&#45;&gt;Node14 -->
<g id="edge17" class="edge">
<title>Node12&#45;&gt;Node14</title>
<path fill="none" stroke="midnightblue" d="M965.28,-112.32C979.32,-103.9 1000.87,-90.97 1017.36,-81.07"/>
<polygon fill="midnightblue" stroke="midnightblue" points="1019.62,-83.8 1026.4,-75.65 1016.02,-77.8 1019.62,-83.8"/>
</g>
<!-- Node15 -->
<g id="node15" class="node">
<title>Node15</title>
<g id="a_node15"><a xlink:title=" ">
<polygon fill="white" stroke="#bfbfbf" points="1088.82,-56.5 1088.82,-75.5 1146.82,-75.5 1146.82,-56.5 1088.82,-56.5"/>
<text text-anchor="middle" x="1117.82" y="-63.5" font-family="Helvetica" font-size="10.00">exception</text>
</a>
</g>
</g>
<!-- Node12&#45;&gt;Node15 -->
<g id="edge19" class="edge">
<title>Node12&#45;&gt;Node15</title>
<path fill="none" stroke="midnightblue" d="M977.28,-112.44C1005.5,-103.32 1050.36,-88.81 1081.79,-78.65"/>
<polygon fill="midnightblue" stroke="midnightblue" points="1083.05,-81.92 1091.48,-75.52 1080.89,-75.26 1083.05,-81.92"/>
</g>
<!-- Node12&#45;&gt;Node16 -->
<g id="edge20" class="edge">
<title>Node12&#45;&gt;Node16</title>
<path fill="none" stroke="midnightblue" d="M916.28,-112.44C878.57,-103.1 818.08,-88.12 776.96,-77.93"/>
<polygon fill="midnightblue" stroke="midnightblue" points="777.75,-74.52 767.2,-75.52 776.07,-81.32 777.75,-74.52"/>
</g>
<!-- Node20 -->
<g id="node20" class="node">
<title>Node20</title>
<g id="a_node20"><a xlink:title=" ">
<polygon fill="white" stroke="#bfbfbf" points="908.32,-56.5 908.32,-75.5 993.32,-75.5 993.32,-56.5 908.32,-56.5"/>
<text text-anchor="middle" x="950.82" y="-63.5" font-family="Helvetica" font-size="10.00">spdlog/spdlog.h</text>
</a>
</g>
</g>
<!-- Node12&#45;&gt;Node20 -->
<g id="edge28" class="edge">
<title>Node12&#45;&gt;Node20</title>
<path fill="none" stroke="midnightblue" d="M950.82,-112.08C950.82,-105.01 950.82,-94.86 950.82,-85.99"/>
<polygon fill="midnightblue" stroke="midnightblue" points="954.32,-85.75 950.82,-75.75 947.32,-85.75 954.32,-85.75"/>
</g>
<!-- Node16&#45;&gt;Node2 -->
<g id="edge26" class="edge">
<title>Node16&#45;&gt;Node2</title>
<path fill="none" stroke="midnightblue" d="M689.8,-61.99C558.03,-52.77 165.38,-25.19 107.82,-20 91.05,-18.49 72.4,-16.49 57.04,-14.77"/>
<polygon fill="midnightblue" stroke="midnightblue" points="57.33,-11.28 46.99,-13.62 56.53,-18.23 57.33,-11.28"/>
</g>
<!-- Node16&#45;&gt;Node6 -->
<g id="edge23" class="edge">
<title>Node16&#45;&gt;Node6</title>
<path fill="none" stroke="midnightblue" d="M755.01,-56.44C778.25,-47.48 814.97,-33.31 841.24,-23.18"/>
<polygon fill="midnightblue" stroke="midnightblue" points="842.67,-26.38 850.74,-19.52 840.15,-19.85 842.67,-26.38"/>
</g>
<!-- Node16&#45;&gt;Node7 -->
<g id="edge22" class="edge">
<title>Node16&#45;&gt;Node7</title>
<path fill="none" stroke="midnightblue" d="M689.36,-61.03C577.24,-50.78 279.81,-23.61 177.21,-14.23"/>
<polygon fill="midnightblue" stroke="midnightblue" points="177.34,-10.73 167.06,-13.31 176.7,-17.7 177.34,-10.73"/>
</g>
<!-- Node16&#45;&gt;Node13 -->
<g id="edge21" class="edge">
<title>Node16&#45;&gt;Node13</title>
<path fill="none" stroke="midnightblue" d="M743.91,-56.32C754.31,-48.18 770.08,-35.84 782.54,-26.09"/>
<polygon fill="midnightblue" stroke="midnightblue" points="784.82,-28.75 790.53,-19.83 780.5,-23.24 784.82,-28.75"/>
</g>
<!-- Node17 -->
<g id="node17" class="node">
<title>Node17</title>
<g id="a_node17"><a xlink:title=" ">
<polygon fill="white" stroke="#bfbfbf" points="1073.32,-0.5 1073.32,-19.5 1116.32,-19.5 1116.32,-0.5 1073.32,-0.5"/>
<text text-anchor="middle" x="1094.82" y="-7.5" font-family="Helvetica" font-size="10.00">vector</text>
</a>
</g>
</g>
<!-- Node16&#45;&gt;Node17 -->
<g id="edge24" class="edge">
<title>Node16&#45;&gt;Node17</title>
<path fill="none" stroke="midnightblue" d="M776.13,-58.54C849.9,-47.53 998.27,-25.4 1063.19,-15.72"/>
<polygon fill="midnightblue" stroke="midnightblue" points="1063.85,-19.16 1073.23,-14.22 1062.82,-12.24 1063.85,-19.16"/>
</g>
<!-- Node18 -->
<g id="node18" class="node">
<title>Node18</title>
<g id="a_node18"><a xlink:title=" ">
<polygon fill="white" stroke="#bfbfbf" points="707.82,-0.5 707.82,-19.5 757.82,-19.5 757.82,-0.5 707.82,-0.5"/>
<text text-anchor="middle" x="732.82" y="-7.5" font-family="Helvetica" font-size="10.00">iomanip</text>
</a>
</g>
</g>
<!-- Node16&#45;&gt;Node18 -->
<g id="edge25" class="edge">
<title>Node16&#45;&gt;Node18</title>
<path fill="none" stroke="midnightblue" d="M732.82,-56.08C732.82,-49.01 732.82,-38.86 732.82,-29.99"/>
<polygon fill="midnightblue" stroke="midnightblue" points="736.32,-29.75 732.82,-19.75 729.32,-29.75 736.32,-29.75"/>
</g>
<!-- Node19 -->
<g id="node19" class="node">
<title>Node19</title>
<g id="a_node19"><a xlink:title=" ">
<polygon fill="white" stroke="#bfbfbf" points="649.82,-0.5 649.82,-19.5 689.82,-19.5 689.82,-0.5 649.82,-0.5"/>
<text text-anchor="middle" x="669.82" y="-7.5" font-family="Helvetica" font-size="10.00">limits</text>
</a>
</g>
</g>
<!-- Node16&#45;&gt;Node19 -->
<g id="edge27" class="edge">
<title>Node16&#45;&gt;Node19</title>
<path fill="none" stroke="midnightblue" d="M722.7,-56.32C713.3,-48.26 699.08,-36.08 687.75,-26.37"/>
<polygon fill="midnightblue" stroke="midnightblue" points="690,-23.68 680.13,-19.83 685.44,-29 690,-23.68"/>
</g>
<!-- Node25&#45;&gt;Node4 -->
<g id="edge38" class="edge">
<title>Node25&#45;&gt;Node4</title>
<path fill="none" stroke="midnightblue" d="M788.76,-281.89C759.29,-275.7 722.31,-264.38 694.82,-244 636.58,-200.82 596.92,-120.89 581.28,-85.12"/>
<polygon fill="midnightblue" stroke="midnightblue" points="584.49,-83.73 577.36,-75.9 578.05,-86.47 584.49,-83.73"/>
</g>
<!-- Node25&#45;&gt;Node5 -->
<g id="edge43" class="edge">
<title>Node25&#45;&gt;Node5</title>
<path fill="none" stroke="midnightblue" d="M788.48,-280.97C729.84,-271.44 631.93,-255.51 568.12,-245.13"/>
<polygon fill="midnightblue" stroke="midnightblue" points="568.61,-241.67 558.18,-243.52 567.49,-248.58 568.61,-241.67"/>
</g>
<!-- Node25&#45;&gt;Node6 -->
<g id="edge36" class="edge">
<title>Node25&#45;&gt;Node6</title>
<path fill="none" stroke="midnightblue" d="M886.85,-284.96C988.49,-275.24 1212.82,-246.17 1212.82,-179 1212.82,-179 1212.82,-179 1212.82,-121 1212.82,-87.31 1201.83,-74.73 1173.82,-56 1131.31,-27.58 981.01,-16.41 910.22,-12.65"/>
<polygon fill="midnightblue" stroke="midnightblue" points="910.13,-9.14 899.97,-12.13 909.78,-16.13 910.13,-9.14"/>
</g>
<!-- Node25&#45;&gt;Node7 -->
<g id="edge37" class="edge">
<title>Node25&#45;&gt;Node7</title>
<path fill="none" stroke="midnightblue" d="M788.81,-286.84C624.55,-278.95 103.82,-248.46 103.82,-179 103.82,-179 103.82,-179 103.82,-121 103.82,-86.81 120.42,-49.76 131.68,-28.57"/>
<polygon fill="midnightblue" stroke="midnightblue" points="134.77,-30.22 136.54,-19.77 128.64,-26.83 134.77,-30.22"/>
</g>
<!-- Node25&#45;&gt;Node10 -->
<g id="edge42" class="edge">
<title>Node25&#45;&gt;Node10</title>
<path fill="none" stroke="midnightblue" d="M788.61,-286.27C758.83,-281.78 723.02,-270.7 703.82,-244 691.96,-227.51 708.65,-207.46 723.94,-194.03"/>
<polygon fill="midnightblue" stroke="midnightblue" points="726.17,-196.73 731.66,-187.66 721.72,-191.33 726.17,-196.73"/>
</g>
<!-- Node25&#45;&gt;Node12 -->
<g id="edge41" class="edge">
<title>Node25&#45;&gt;Node12</title>
<path fill="none" stroke="midnightblue" d="M887.06,-287.86C955.5,-285.12 1074.02,-275.78 1100.82,-244 1140.71,-196.71 1044.73,-154.61 988.34,-134.87"/>
<polygon fill="midnightblue" stroke="midnightblue" points="989.24,-131.48 978.65,-131.56 986.98,-138.11 989.24,-131.48"/>
</g>
<!-- Node25&#45;&gt;Node17 -->
<g id="edge39" class="edge">
<title>Node25&#45;&gt;Node17</title>
<path fill="none" stroke="midnightblue" d="M887.23,-286.25C996.85,-278.79 1250.82,-253.48 1250.82,-179 1250.82,-179 1250.82,-179 1250.82,-121 1250.82,-60.61 1171.78,-30.46 1126.23,-18.1"/>
<polygon fill="midnightblue" stroke="midnightblue" points="1127.07,-14.7 1116.51,-15.59 1125.32,-21.48 1127.07,-14.7"/>
</g>
<!-- Node25&#45;&gt;Node21 -->
<g id="edge46" class="edge">
<title>Node25&#45;&gt;Node21</title>
<path fill="none" stroke="midnightblue" d="M887.08,-287.24C951.8,-283.76 1060.14,-273.58 1084.82,-244 1104.81,-220.05 1064.47,-200.85 1030.8,-189.7"/>
<polygon fill="midnightblue" stroke="midnightblue" points="1031.68,-186.31 1021.09,-186.63 1029.58,-192.98 1031.68,-186.31"/>
</g>
<!-- Node26 -->
<g id="node26" class="node">
<title>Node26</title>
<g id="a_node26"><a xlink:title=" ">
<polygon fill="white" stroke="#bfbfbf" points="712.32,-224.5 712.32,-243.5 757.32,-243.5 757.32,-224.5 712.32,-224.5"/>
<text text-anchor="middle" x="734.82" y="-231.5" font-family="Helvetica" font-size="10.00">cstdlib</text>
</a>
</g>
</g>
<!-- Node25&#45;&gt;Node26 -->
<g id="edge40" class="edge">
<title>Node25&#45;&gt;Node26</title>
<path fill="none" stroke="midnightblue" d="M821.27,-280.32C804.83,-271.7 779.39,-258.36 760.35,-248.39"/>
<polygon fill="midnightblue" stroke="midnightblue" points="761.81,-245.2 751.33,-243.65 758.56,-251.4 761.81,-245.2"/>
</g>
<!-- Node27 -->
<g id="node27" class="node">
<title>Node27</title>
<g id="a_node27"><a xlink:title=" ">
<polygon fill="white" stroke="#bfbfbf" points="775.82,-224.5 775.82,-243.5 825.82,-243.5 825.82,-224.5 775.82,-224.5"/>
<text text-anchor="middle" x="800.82" y="-231.5" font-family="Helvetica" font-size="10.00">TTree.h</text>
</a>
</g>
</g>
<!-- Node25&#45;&gt;Node27 -->
<g id="edge44" class="edge">
<title>Node25&#45;&gt;Node27</title>
<path fill="none" stroke="midnightblue" d="M831.71,-280.08C826.54,-272.53 818.98,-261.49 812.63,-252.23"/>
<polygon fill="midnightblue" stroke="midnightblue" points="815.36,-250.02 806.82,-243.75 809.58,-253.98 815.36,-250.02"/>
</g>
<!-- Node28 -->
<g id="node28" class="node">
<title>Node28</title>
<g id="a_node28"><a xlink:title=" ">
<polygon fill="white" stroke="#bfbfbf" points="843.82,-224.5 843.82,-243.5 905.82,-243.5 905.82,-224.5 843.82,-224.5"/>
<text text-anchor="middle" x="874.82" y="-231.5" font-family="Helvetica" font-size="10.00">TBranch.h</text>
</a>
</g>
</g>
<!-- Node25&#45;&gt;Node28 -->
<g id="edge45" class="edge">
<title>Node25&#45;&gt;Node28</title>
<path fill="none" stroke="midnightblue" d="M843.93,-280.08C849.1,-272.53 856.67,-261.49 863.02,-252.23"/>
<polygon fill="midnightblue" stroke="midnightblue" points="866.06,-253.98 868.83,-243.75 860.29,-250.02 866.06,-253.98"/>
</g>
<!-- Node29 -->
<g id="node29" class="node">
<title>Node29</title>
<g id="a_node29"><a xlink:title=" ">
<polygon fill="white" stroke="#bfbfbf" points="923.82,-224.5 923.82,-243.5 979.82,-243.5 979.82,-224.5 923.82,-224.5"/>
<text text-anchor="middle" x="951.82" y="-231.5" font-family="Helvetica" font-size="10.00">TChain.h</text>
</a>
</g>
</g>
<!-- Node25&#45;&gt;Node29 -->
<g id="edge47" class="edge">
<title>Node25&#45;&gt;Node29</title>
<path fill="none" stroke="midnightblue" d="M855.89,-280.44C874.4,-271.68 903.4,-257.94 924.68,-247.86"/>
<polygon fill="midnightblue" stroke="midnightblue" points="926.3,-250.96 933.84,-243.52 923.31,-244.63 926.3,-250.96"/>
</g>
<!-- Node30 -->
<g id="node30" class="node">
<title>Node30</title>
<g id="a_node30"><a xlink:title=" ">
<polygon fill="white" stroke="#bfbfbf" points="998.32,-224.5 998.32,-243.5 1075.32,-243.5 1075.32,-224.5 998.32,-224.5"/>
<text text-anchor="middle" x="1036.82" y="-231.5" font-family="Helvetica" font-size="10.00">TStopwatch.h</text>
</a>
</g>
</g>
<!-- Node25&#45;&gt;Node30 -->
<g id="edge48" class="edge">
<title>Node25&#45;&gt;Node30</title>
<path fill="none" stroke="midnightblue" d="M869.35,-280.44C903.41,-271.2 957.83,-256.44 995.34,-246.26"/>
<polygon fill="midnightblue" stroke="midnightblue" points="996.7,-249.51 1005.44,-243.52 994.87,-242.76 996.7,-249.51"/>
</g>
</g>
</svg>
