<?xml version="1.0" encoding="UTF-8" standalone="no"?>
<!DOCTYPE svg PUBLIC "-//W3C//DTD SVG 1.1//EN"
 "http://www.w3.org/Graphics/SVG/1.1/DTD/svg11.dtd">
<!-- Generated by graphviz version 2.44.0 (0)
 -->
<!-- Title: /hosthome/MaCh3_2.2.0/Manager/MaCh3Modes.h Pages: 1 -->
<!--zoomable 441 -->
<svg id="main" version="1.1" xmlns="http://www.w3.org/2000/svg" xmlns:xlink="http://www.w3.org/1999/xlink" xml:space="preserve" onload="init(evt)">
<style type="text/css"><![CDATA[
.edge:hover path { stroke: red; }
.edge:hover polygon { stroke: red; fill: red; }
]]></style>
<script type="text/javascript"><![CDATA[
var edges = document.getElementsByTagName('g');
if (edges && edges.length) {
  for (var i=0;i<edges.length;i++) {
    if (edges[i].id.substr(0,4)=='edge') {
      edges[i].setAttribute('class','edge');
    }
  }
}
]]></script>
        <defs>
                <circle id="rim" cx="0" cy="0" r="7"/>
                <circle id="rim2" cx="0" cy="0" r="3.5"/>
                <g id="zoomPlus">
                        <use xlink:href="#rim" fill="#404040">
                                <set attributeName="fill" to="#808080" begin="zoomplus.mouseover" end="zoomplus.mouseout"/>
                        </use>
                        <path d="M-4,0h8M0,-4v8" fill="none" stroke="white" stroke-width="1.5" pointer-events="none"/>
                </g>
                <g id="zoomMin">
                        <use xlink:href="#rim" fill="#404040">
                                <set attributeName="fill" to="#808080" begin="zoomminus.mouseover" end="zoomminus.mouseout"/>
                        </use>
                        <path d="M-4,0h8" fill="none" stroke="white" stroke-width="1.5" pointer-events="none"/>
                </g>
                <g id="dirArrow">
                        <path fill="none" stroke="white" stroke-width="1.5" d="M0,-3.0v7 M-2.5,-0.5L0,-3.0L2.5,-0.5"/>
                </g>
               <g id="resetDef">
                       <use xlink:href="#rim2" fill="#404040">
                               <set attributeName="fill" to="#808080" begin="reset.mouseover" end="reset.mouseout"/>
                       </use>
               </g>
        </defs>

<script type="text/javascript">
var viewWidth = 1246;
var viewHeight = 441;
var sectionId = 'dynsection-1';
</script>
<script xlink:href="svgpan.js"/>
<svg id="graph" class="graph">
<g id="viewport">
<title>/hosthome/MaCh3_2.2.0/Manager/MaCh3Modes.h</title>
<polygon fill="white" stroke="transparent" points="-4,4 -4,-437 1242,-437 1242,4 -4,4"/>
<!-- Node1 -->
<g id="node1" class="node">
<title>Node1</title>
<g id="a_node1"><a xlink:title=" ">
<polygon fill="#bfbfbf" stroke="black" points="192.5,-402.5 192.5,-432.5 321.5,-432.5 321.5,-402.5 192.5,-402.5"/>
<text text-anchor="start" x="200.5" y="-420.5" font-family="Helvetica" font-size="10.00">/hosthome/MaCh3_2.2.0</text>
<text text-anchor="middle" x="257" y="-409.5" font-family="Helvetica" font-size="10.00">/Manager/MaCh3Modes.h</text>
</a>
</g>
</g>
<!-- Node2 -->
<g id="node2" class="node">
<title>Node2</title>
<g id="a_node2"><a xlink:href="MaCh3Modes_8cpp.html" target="_top" xlink:title=" ">
<polygon fill="white" stroke="black" points="22,-335.5 22,-365.5 162,-365.5 162,-335.5 22,-335.5"/>
<text text-anchor="start" x="30" y="-353.5" font-family="Helvetica" font-size="10.00">/hosthome/MaCh3_2.2.0</text>
<text text-anchor="middle" x="92" y="-342.5" font-family="Helvetica" font-size="10.00">/Manager/MaCh3Modes.cpp</text>
</a>
</g>
</g>
<!-- Node1&#45;&gt;Node2 -->
<g id="edge1" class="edge">
<title>Node1&#45;&gt;Node2</title>
<path fill="none" stroke="midnightblue" d="M211.77,-398.68C185.31,-388.26 152.37,-375.28 127.73,-365.58"/>
<polygon fill="midnightblue" stroke="midnightblue" points="210.61,-401.99 221.2,-402.4 213.18,-395.47 210.61,-401.99"/>
</g>
<!-- Node3 -->
<g id="node3" class="node">
<title>Node3</title>
<g id="a_node3"><a xlink:href="BinnedSplineHandler_8h.html" target="_top" xlink:title=" ">
<polygon fill="white" stroke="black" points="180,-335.5 180,-365.5 334,-365.5 334,-335.5 180,-335.5"/>
<text text-anchor="start" x="188" y="-353.5" font-family="Helvetica" font-size="10.00">/hosthome/MaCh3_2.2.0</text>
<text text-anchor="middle" x="257" y="-342.5" font-family="Helvetica" font-size="10.00">/Splines/BinnedSplineHandler.h</text>
</a>
</g>
</g>
<!-- Node1&#45;&gt;Node3 -->
<g id="edge2" class="edge">
<title>Node1&#45;&gt;Node3</title>
<path fill="none" stroke="midnightblue" d="M257,-392.11C257,-383.15 257,-373.32 257,-365.58"/>
<polygon fill="midnightblue" stroke="midnightblue" points="253.5,-392.4 257,-402.4 260.5,-392.4 253.5,-392.4"/>
</g>
<!-- Node8 -->
<g id="node8" class="node">
<title>Node8</title>
<g id="a_node8"><a xlink:href="SampleHandlerBase_8h.html" target="_top" xlink:title=" ">
<polygon fill="white" stroke="black" points="390,-335.5 390,-365.5 548,-365.5 548,-335.5 390,-335.5"/>
<text text-anchor="start" x="398" y="-353.5" font-family="Helvetica" font-size="10.00">/hosthome/MaCh3_2.2.0</text>
<text text-anchor="middle" x="469" y="-342.5" font-family="Helvetica" font-size="10.00">/Samples/SampleHandlerBase.h</text>
</a>
</g>
</g>
<!-- Node1&#45;&gt;Node8 -->
<g id="edge7" class="edge">
<title>Node1&#45;&gt;Node8</title>
<path fill="none" stroke="midnightblue" d="M312.63,-399.44C346.99,-388.91 390.56,-375.55 422.98,-365.61"/>
<polygon fill="midnightblue" stroke="midnightblue" points="311.27,-396.2 302.74,-402.48 313.33,-402.89 311.27,-396.2"/>
</g>
<!-- Node4 -->
<g id="node4" class="node">
<title>Node4</title>
<g id="a_node4"><a xlink:href="BinnedSplineHandler_8cpp.html" target="_top" xlink:title=" ">
<polygon fill="white" stroke="black" points="0,-268.5 0,-298.5 164,-298.5 164,-268.5 0,-268.5"/>
<text text-anchor="start" x="8" y="-286.5" font-family="Helvetica" font-size="10.00">/hosthome/MaCh3_2.2.0</text>
<text text-anchor="middle" x="82" y="-275.5" font-family="Helvetica" font-size="10.00">/Splines/BinnedSplineHandler.cpp</text>
</a>
</g>
</g>
<!-- Node3&#45;&gt;Node4 -->
<g id="edge3" class="edge">
<title>Node3&#45;&gt;Node4</title>
<path fill="none" stroke="midnightblue" d="M209.4,-331.82C181.27,-321.37 146.14,-308.32 119.9,-298.58"/>
<polygon fill="midnightblue" stroke="midnightblue" points="208.43,-335.2 219.03,-335.4 210.87,-328.63 208.43,-335.2"/>
</g>
<!-- Node5 -->
<g id="node5" class="node">
<title>Node5</title>
<g id="a_node5"><a xlink:href="SampleHandlerFD_8h.html" target="_top" xlink:title=" ">
<polygon fill="white" stroke="black" points="182.5,-268.5 182.5,-298.5 331.5,-298.5 331.5,-268.5 182.5,-268.5"/>
<text text-anchor="start" x="190.5" y="-286.5" font-family="Helvetica" font-size="10.00">/hosthome/MaCh3_2.2.0</text>
<text text-anchor="middle" x="257" y="-275.5" font-family="Helvetica" font-size="10.00">/Samples/SampleHandlerFD.h</text>
</a>
</g>
</g>
<!-- Node3&#45;&gt;Node5 -->
<g id="edge4" class="edge">
<title>Node3&#45;&gt;Node5</title>
<path fill="none" stroke="midnightblue" d="M257,-325.11C257,-316.15 257,-306.32 257,-298.58"/>
<polygon fill="midnightblue" stroke="midnightblue" points="253.5,-325.4 257,-335.4 260.5,-325.4 253.5,-325.4"/>
</g>
<!-- Node6 -->
<g id="node6" class="node">
<title>Node6</title>
<g id="a_node6"><a xlink:href="SampleHandlerFD_8cpp.html" target="_top" xlink:title=" ">
<polygon fill="white" stroke="black" points="12,-201.5 12,-231.5 172,-231.5 172,-201.5 12,-201.5"/>
<text text-anchor="start" x="20" y="-219.5" font-family="Helvetica" font-size="10.00">/hosthome/MaCh3_2.2.0</text>
<text text-anchor="middle" x="92" y="-208.5" font-family="Helvetica" font-size="10.00">/Samples/SampleHandlerFD.cpp</text>
</a>
</g>
</g>
<!-- Node5&#45;&gt;Node6 -->
<g id="edge5" class="edge">
<title>Node5&#45;&gt;Node6</title>
<path fill="none" stroke="midnightblue" d="M211.77,-264.68C185.31,-254.26 152.37,-241.28 127.73,-231.58"/>
<polygon fill="midnightblue" stroke="midnightblue" points="210.61,-267.99 221.2,-268.4 213.18,-261.47 210.61,-267.99"/>
</g>
<!-- Node7 -->
<g id="node7" class="node">
<title>Node7</title>
<g id="a_node7"><a xlink:href="samples_8cpp.html" target="_top" xlink:title=" ">
<polygon fill="white" stroke="black" points="190,-201.5 190,-231.5 314,-231.5 314,-201.5 190,-201.5"/>
<text text-anchor="start" x="198" y="-219.5" font-family="Helvetica" font-size="10.00">/hosthome/MaCh3_2.2.0</text>
<text text-anchor="middle" x="252" y="-208.5" font-family="Helvetica" font-size="10.00">/python/samples.cpp</text>
</a>
</g>
</g>
<!-- Node5&#45;&gt;Node7 -->
<g id="edge6" class="edge">
<title>Node5&#45;&gt;Node7</title>
<path fill="none" stroke="midnightblue" d="M255.15,-258.4C254.45,-249.37 253.69,-239.41 253.08,-231.58"/>
<polygon fill="midnightblue" stroke="midnightblue" points="251.66,-258.69 255.92,-268.4 258.64,-258.16 251.66,-258.69"/>
</g>
<!-- Node8&#45;&gt;Node5 -->
<g id="edge9" class="edge">
<title>Node8&#45;&gt;Node5</title>
<path fill="none" stroke="midnightblue" d="M413.37,-332.44C379.01,-321.91 335.44,-308.55 303.02,-298.61"/>
<polygon fill="midnightblue" stroke="midnightblue" points="412.67,-335.89 423.26,-335.48 414.73,-329.2 412.67,-335.89"/>
</g>
<!-- Node9 -->
<g id="node9" class="node">
<title>Node9</title>
<g id="a_node9"><a xlink:href="SampleHandlerBase_8cpp.html" target="_top" xlink:title=" ">
<polygon fill="white" stroke="black" points="384.5,-268.5 384.5,-298.5 553.5,-298.5 553.5,-268.5 384.5,-268.5"/>
<text text-anchor="start" x="392.5" y="-286.5" font-family="Helvetica" font-size="10.00">/hosthome/MaCh3_2.2.0</text>
<text text-anchor="middle" x="469" y="-275.5" font-family="Helvetica" font-size="10.00">/Samples/SampleHandlerBase.cpp</text>
</a>
</g>
</g>
<!-- Node8&#45;&gt;Node9 -->
<g id="edge8" class="edge">
<title>Node8&#45;&gt;Node9</title>
<path fill="none" stroke="midnightblue" d="M469,-325.11C469,-316.15 469,-306.32 469,-298.58"/>
<polygon fill="midnightblue" stroke="midnightblue" points="465.5,-325.4 469,-335.4 472.5,-325.4 465.5,-325.4"/>
</g>
<!-- Node10 -->
<g id="node10" class="node">
<title>Node10</title>
<g id="a_node10"><a xlink:href="FitterBase_8h.html" target="_top" xlink:title=" ">
<polygon fill="white" stroke="black" points="589,-268.5 589,-298.5 713,-298.5 713,-268.5 589,-268.5"/>
<text text-anchor="start" x="597" y="-286.5" font-family="Helvetica" font-size="10.00">/hosthome/MaCh3_2.2.0</text>
<text text-anchor="middle" x="651" y="-275.5" font-family="Helvetica" font-size="10.00">/Fitters/FitterBase.h</text>
</a>
</g>
</g>
<!-- Node8&#45;&gt;Node10 -->
<g id="edge10" class="edge">
<title>Node8&#45;&gt;Node10</title>
<path fill="none" stroke="midnightblue" d="M518.13,-331.96C547.44,-321.48 584.18,-308.37 611.59,-298.58"/>
<polygon fill="midnightblue" stroke="midnightblue" points="516.73,-328.74 508.49,-335.4 519.09,-335.33 516.73,-328.74"/>
</g>
<!-- Node23 -->
<g id="node23" class="node">
<title>Node23</title>
<g id="a_node23"><a xlink:href="SampleSummary_8h.html" target="_top" xlink:title=" ">
<polygon fill="white" stroke="black" points="878,-268.5 878,-298.5 1012,-298.5 1012,-268.5 878,-268.5"/>
<text text-anchor="start" x="886" y="-286.5" font-family="Helvetica" font-size="10.00">/hosthome/MaCh3_2.2.0</text>
<text text-anchor="middle" x="945" y="-275.5" font-family="Helvetica" font-size="10.00">/Fitters/SampleSummary.h</text>
</a>
</g>
</g>
<!-- Node8&#45;&gt;Node23 -->
<g id="edge29" class="edge">
<title>Node8&#45;&gt;Node23</title>
<path fill="none" stroke="midnightblue" d="M558.08,-337.34C650.93,-324.66 794.33,-305.08 877.99,-293.65"/>
<polygon fill="midnightblue" stroke="midnightblue" points="557.57,-333.87 548.14,-338.69 558.52,-340.81 557.57,-333.87"/>
</g>
<!-- Node11 -->
<g id="node11" class="node">
<title>Node11</title>
<g id="a_node11"><a xlink:href="FitterBase_8cpp.html" target="_top" xlink:title=" ">
<polygon fill="white" stroke="black" points="332,-201.5 332,-231.5 456,-231.5 456,-201.5 332,-201.5"/>
<text text-anchor="start" x="340" y="-219.5" font-family="Helvetica" font-size="10.00">/hosthome/MaCh3_2.2.0</text>
<text text-anchor="middle" x="394" y="-208.5" font-family="Helvetica" font-size="10.00">/Fitters/FitterBase.cpp</text>
</a>
</g>
</g>
<!-- Node10&#45;&gt;Node11 -->
<g id="edge11" class="edge">
<title>Node10&#45;&gt;Node11</title>
<path fill="none" stroke="midnightblue" d="M585.7,-265.98C543.72,-255.37 489.76,-241.72 449.79,-231.61"/>
<polygon fill="midnightblue" stroke="midnightblue" points="585,-269.42 595.55,-268.48 586.71,-262.63 585,-269.42"/>
</g>
<!-- Node12 -->
<g id="node12" class="node">
<title>Node12</title>
<g id="a_node12"><a xlink:href="LikelihoodFit_8h.html" target="_top" xlink:title=" ">
<polygon fill="white" stroke="black" points="598,-201.5 598,-231.5 722,-231.5 722,-201.5 598,-201.5"/>
<text text-anchor="start" x="606" y="-219.5" font-family="Helvetica" font-size="10.00">/hosthome/MaCh3_2.2.0</text>
<text text-anchor="middle" x="660" y="-208.5" font-family="Helvetica" font-size="10.00">/Fitters/LikelihoodFit.h</text>
</a>
</g>
</g>
<!-- Node10&#45;&gt;Node12 -->
<g id="edge12" class="edge">
<title>Node10&#45;&gt;Node12</title>
<path fill="none" stroke="midnightblue" d="M654.34,-258.4C655.59,-249.37 656.97,-239.41 658.05,-231.58"/>
<polygon fill="midnightblue" stroke="midnightblue" points="650.86,-258.01 652.95,-268.4 657.79,-258.97 650.86,-258.01"/>
</g>
<!-- Node14 -->
<g id="node14" class="node">
<title>Node14</title>
<g id="a_node14"><a xlink:href="MaCh3Factory_8h.html" target="_top" xlink:title="Factory methods for MaCh3 software which streamline initialisation of different objects.">
<polygon fill="white" stroke="black" points="546,-67.5 546,-97.5 670,-97.5 670,-67.5 546,-67.5"/>
<text text-anchor="start" x="554" y="-85.5" font-family="Helvetica" font-size="10.00">/hosthome/MaCh3_2.2.0</text>
<text text-anchor="middle" x="608" y="-74.5" font-family="Helvetica" font-size="10.00">/Fitters/MaCh3Factory.h</text>
</a>
</g>
</g>
<!-- Node10&#45;&gt;Node14 -->
<g id="edge23" class="edge">
<title>Node10&#45;&gt;Node14</title>
<path fill="none" stroke="midnightblue" d="M609.57,-263.86C572.92,-244.84 521.83,-211.51 499,-165 492.93,-152.63 491.58,-145.61 499,-134 510.12,-116.6 528.93,-105.11 547.84,-97.55"/>
<polygon fill="midnightblue" stroke="midnightblue" points="608.04,-267.01 618.55,-268.38 611.19,-260.76 608.04,-267.01"/>
</g>
<!-- Node18 -->
<g id="node18" class="node">
<title>Node18</title>
<g id="a_node18"><a xlink:href="fitters_8cpp.html" target="_top" xlink:title=" ">
<polygon fill="white" stroke="black" points="972,-67.5 972,-97.5 1096,-97.5 1096,-67.5 972,-67.5"/>
<text text-anchor="start" x="980" y="-85.5" font-family="Helvetica" font-size="10.00">/hosthome/MaCh3_2.2.0</text>
<text text-anchor="middle" x="1034" y="-74.5" font-family="Helvetica" font-size="10.00">/python/fitters.cpp</text>
</a>
</g>
</g>
<!-- Node10&#45;&gt;Node18 -->
<g id="edge28" class="edge">
<title>Node10&#45;&gt;Node18</title>
<path fill="none" stroke="midnightblue" d="M723.02,-266.25C789.56,-248.83 889,-216.5 963,-165 989.65,-146.46 1012.7,-115.76 1024.85,-97.8"/>
<polygon fill="midnightblue" stroke="midnightblue" points="721.85,-262.93 713.04,-268.81 723.6,-269.71 721.85,-262.93"/>
</g>
<!-- Node21 -->
<g id="node21" class="node">
<title>Node21</title>
<g id="a_node21"><a xlink:href="mcmc_8h.html" target="_top" xlink:title=" ">
<polygon fill="white" stroke="black" points="830,-134.5 830,-164.5 954,-164.5 954,-134.5 830,-134.5"/>
<text text-anchor="start" x="838" y="-152.5" font-family="Helvetica" font-size="10.00">/hosthome/MaCh3_2.2.0</text>
<text text-anchor="middle" x="892" y="-141.5" font-family="Helvetica" font-size="10.00">/Fitters/mcmc.h</text>
</a>
</g>
</g>
<!-- Node10&#45;&gt;Node21 -->
<g id="edge24" class="edge">
<title>Node10&#45;&gt;Node21</title>
<path fill="none" stroke="midnightblue" d="M685.75,-263.47C734.73,-236.64 822.94,-188.32 866.39,-164.52"/>
<polygon fill="midnightblue" stroke="midnightblue" points="683.88,-260.5 676.79,-268.37 687.24,-266.64 683.88,-260.5"/>
</g>
<!-- Node13 -->
<g id="node13" class="node">
<title>Node13</title>
<g id="a_node13"><a xlink:href="LikelihoodFit_8cpp.html" target="_top" xlink:title=" ">
<polygon fill="white" stroke="black" points="508,-134.5 508,-164.5 632,-164.5 632,-134.5 508,-134.5"/>
<text text-anchor="start" x="516" y="-152.5" font-family="Helvetica" font-size="10.00">/hosthome/MaCh3_2.2.0</text>
<text text-anchor="middle" x="570" y="-141.5" font-family="Helvetica" font-size="10.00">/Fitters/LikelihoodFit.cpp</text>
</a>
</g>
</g>
<!-- Node12&#45;&gt;Node13 -->
<g id="edge13" class="edge">
<title>Node12&#45;&gt;Node13</title>
<path fill="none" stroke="midnightblue" d="M632.24,-195.45C618.39,-185.45 601.98,-173.6 589.49,-164.58"/>
<polygon fill="midnightblue" stroke="midnightblue" points="630.32,-198.38 640.47,-201.4 634.41,-192.7 630.32,-198.38"/>
</g>
<!-- Node12&#45;&gt;Node14 -->
<g id="edge14" class="edge">
<title>Node12&#45;&gt;Node14</title>
<path fill="none" stroke="midnightblue" d="M656.67,-191.49C653.83,-174.88 648.92,-152.52 641,-134 635.4,-120.9 626.44,-107.47 619.26,-97.75"/>
<polygon fill="midnightblue" stroke="midnightblue" points="653.23,-192.15 658.25,-201.48 660.15,-191.06 653.23,-192.15"/>
</g>
<!-- Node16 -->
<g id="node16" class="node">
<title>Node16</title>
<g id="a_node16"><a xlink:href="MinuitFit_8h.html" target="_top" xlink:title=" ">
<polygon fill="white" stroke="black" points="1010,-134.5 1010,-164.5 1134,-164.5 1134,-134.5 1010,-134.5"/>
<text text-anchor="start" x="1018" y="-152.5" font-family="Helvetica" font-size="10.00">/hosthome/MaCh3_2.2.0</text>
<text text-anchor="middle" x="1072" y="-141.5" font-family="Helvetica" font-size="10.00">/Fitters/MinuitFit.h</text>
</a>
</g>
</g>
<!-- Node12&#45;&gt;Node16 -->
<g id="edge16" class="edge">
<title>Node12&#45;&gt;Node16</title>
<path fill="none" stroke="midnightblue" d="M732.43,-204.07C811.05,-191.67 935.3,-172.07 1009.71,-160.33"/>
<polygon fill="midnightblue" stroke="midnightblue" points="731.46,-200.68 722.13,-205.7 732.55,-207.6 731.46,-200.68"/>
</g>
<!-- Node19 -->
<g id="node19" class="node">
<title>Node19</title>
<g id="a_node19"><a xlink:href="PSO_8h.html" target="_top" xlink:title=" ">
<polygon fill="white" stroke="black" points="688,-134.5 688,-164.5 812,-164.5 812,-134.5 688,-134.5"/>
<text text-anchor="start" x="696" y="-152.5" font-family="Helvetica" font-size="10.00">/hosthome/MaCh3_2.2.0</text>
<text text-anchor="middle" x="750" y="-141.5" font-family="Helvetica" font-size="10.00">/Fitters/PSO.h</text>
</a>
</g>
</g>
<!-- Node12&#45;&gt;Node19 -->
<g id="edge19" class="edge">
<title>Node12&#45;&gt;Node19</title>
<path fill="none" stroke="midnightblue" d="M687.76,-195.45C701.61,-185.45 718.02,-173.6 730.51,-164.58"/>
<polygon fill="midnightblue" stroke="midnightblue" points="685.59,-192.7 679.53,-201.4 689.68,-198.38 685.59,-192.7"/>
</g>
<!-- Node15 -->
<g id="node15" class="node">
<title>Node15</title>
<g id="a_node15"><a xlink:href="MaCh3Factory_8cpp.html" target="_top" xlink:title=" ">
<polygon fill="white" stroke="black" points="541,-0.5 541,-30.5 675,-30.5 675,-0.5 541,-0.5"/>
<text text-anchor="start" x="549" y="-18.5" font-family="Helvetica" font-size="10.00">/hosthome/MaCh3_2.2.0</text>
<text text-anchor="middle" x="608" y="-7.5" font-family="Helvetica" font-size="10.00">/Fitters/MaCh3Factory.cpp</text>
</a>
</g>
</g>
<!-- Node14&#45;&gt;Node15 -->
<g id="edge15" class="edge">
<title>Node14&#45;&gt;Node15</title>
<path fill="none" stroke="midnightblue" d="M608,-57.11C608,-48.15 608,-38.32 608,-30.58"/>
<polygon fill="midnightblue" stroke="midnightblue" points="604.5,-57.4 608,-67.4 611.5,-57.4 604.5,-57.4"/>
</g>
<!-- Node17 -->
<g id="node17" class="node">
<title>Node17</title>
<g id="a_node17"><a xlink:href="MinuitFit_8cpp.html" target="_top" xlink:title=" ">
<polygon fill="white" stroke="black" points="1114,-67.5 1114,-97.5 1238,-97.5 1238,-67.5 1114,-67.5"/>
<text text-anchor="start" x="1122" y="-85.5" font-family="Helvetica" font-size="10.00">/hosthome/MaCh3_2.2.0</text>
<text text-anchor="middle" x="1176" y="-74.5" font-family="Helvetica" font-size="10.00">/Fitters/MinuitFit.cpp</text>
</a>
</g>
</g>
<!-- Node16&#45;&gt;Node17 -->
<g id="edge17" class="edge">
<title>Node16&#45;&gt;Node17</title>
<path fill="none" stroke="midnightblue" d="M1103.18,-129.02C1119.36,-118.9 1138.77,-106.77 1153.48,-97.58"/>
<polygon fill="midnightblue" stroke="midnightblue" points="1101.19,-126.13 1094.57,-134.4 1104.9,-132.06 1101.19,-126.13"/>
</g>
<!-- Node16&#45;&gt;Node18 -->
<g id="edge18" class="edge">
<title>Node16&#45;&gt;Node18</title>
<path fill="none" stroke="midnightblue" d="M1058.6,-125.58C1053.14,-116.24 1047.01,-105.75 1042.23,-97.58"/>
<polygon fill="midnightblue" stroke="midnightblue" points="1055.69,-127.53 1063.75,-134.4 1061.73,-124 1055.69,-127.53"/>
</g>
<!-- Node19&#45;&gt;Node14 -->
<g id="edge20" class="edge">
<title>Node19&#45;&gt;Node14</title>
<path fill="none" stroke="midnightblue" d="M709.87,-130.13C687.31,-119.8 659.58,-107.11 638.75,-97.58"/>
<polygon fill="midnightblue" stroke="midnightblue" points="708.64,-133.42 719.19,-134.4 711.55,-127.05 708.64,-133.42"/>
</g>
<!-- Node19&#45;&gt;Node18 -->
<g id="edge22" class="edge">
<title>Node19&#45;&gt;Node18</title>
<path fill="none" stroke="midnightblue" d="M821.28,-132.19C867.79,-121.54 927.9,-107.78 972.35,-97.61"/>
<polygon fill="midnightblue" stroke="midnightblue" points="820.24,-128.83 811.27,-134.48 821.8,-135.66 820.24,-128.83"/>
</g>
<!-- Node20 -->
<g id="node20" class="node">
<title>Node20</title>
<g id="a_node20"><a xlink:href="PSO_8cpp.html" target="_top" xlink:title=" ">
<polygon fill="white" stroke="black" points="688,-67.5 688,-97.5 812,-97.5 812,-67.5 688,-67.5"/>
<text text-anchor="start" x="696" y="-85.5" font-family="Helvetica" font-size="10.00">/hosthome/MaCh3_2.2.0</text>
<text text-anchor="middle" x="750" y="-74.5" font-family="Helvetica" font-size="10.00">/Fitters/PSO.cpp</text>
</a>
</g>
</g>
<!-- Node19&#45;&gt;Node20 -->
<g id="edge21" class="edge">
<title>Node19&#45;&gt;Node20</title>
<path fill="none" stroke="midnightblue" d="M750,-124.11C750,-115.15 750,-105.32 750,-97.58"/>
<polygon fill="midnightblue" stroke="midnightblue" points="746.5,-124.4 750,-134.4 753.5,-124.4 746.5,-124.4"/>
</g>
<!-- Node21&#45;&gt;Node14 -->
<g id="edge25" class="edge">
<title>Node21&#45;&gt;Node14</title>
<path fill="none" stroke="midnightblue" d="M820.72,-132.19C774.21,-121.54 714.1,-107.78 669.65,-97.61"/>
<polygon fill="midnightblue" stroke="midnightblue" points="820.2,-135.66 830.73,-134.48 821.76,-128.83 820.2,-135.66"/>
</g>
<!-- Node21&#45;&gt;Node18 -->
<g id="edge27" class="edge">
<title>Node21&#45;&gt;Node18</title>
<path fill="none" stroke="midnightblue" d="M932.13,-130.13C954.69,-119.8 982.42,-107.11 1003.25,-97.58"/>
<polygon fill="midnightblue" stroke="midnightblue" points="930.45,-127.05 922.81,-134.4 933.36,-133.42 930.45,-127.05"/>
</g>
<!-- Node22 -->
<g id="node22" class="node">
<title>Node22</title>
<g id="a_node22"><a xlink:href="mcmc_8cpp.html" target="_top" xlink:title=" ">
<polygon fill="white" stroke="black" points="830,-67.5 830,-97.5 954,-97.5 954,-67.5 830,-67.5"/>
<text text-anchor="start" x="838" y="-85.5" font-family="Helvetica" font-size="10.00">/hosthome/MaCh3_2.2.0</text>
<text text-anchor="middle" x="892" y="-74.5" font-family="Helvetica" font-size="10.00">/Fitters/mcmc.cpp</text>
</a>
</g>
</g>
<!-- Node21&#45;&gt;Node22 -->
<g id="edge26" class="edge">
<title>Node21&#45;&gt;Node22</title>
<path fill="none" stroke="midnightblue" d="M892,-124.11C892,-115.15 892,-105.32 892,-97.58"/>
<polygon fill="midnightblue" stroke="midnightblue" points="888.5,-124.4 892,-134.4 895.5,-124.4 888.5,-124.4"/>
</g>
<!-- Node24 -->
<g id="node24" class="node">
<title>Node24</title>
<g id="a_node24"><a xlink:href="SampleSummary_8cpp.html" target="_top" xlink:title=" ">
<polygon fill="white" stroke="black" points="1010.5,-201.5 1010.5,-231.5 1155.5,-231.5 1155.5,-201.5 1010.5,-201.5"/>
<text text-anchor="start" x="1018.5" y="-219.5" font-family="Helvetica" font-size="10.00">/hosthome/MaCh3_2.2.0</text>
<text text-anchor="middle" x="1083" y="-208.5" font-family="Helvetica" font-size="10.00">/Fitters/SampleSummary.cpp</text>
</a>
</g>
</g>
<!-- Node23&#45;&gt;Node24 -->
<g id="edge30" class="edge">
<title>Node23&#45;&gt;Node24</title>
<path fill="none" stroke="midnightblue" d="M984,-264.13C1005.93,-253.8 1032.87,-241.11 1053.11,-231.58"/>
<polygon fill="midnightblue" stroke="midnightblue" points="982.5,-260.97 974.94,-268.4 985.48,-267.3 982.5,-260.97"/>
</g>
</g>
</svg>
        <g id="navigator" transform="translate(0 0)" fill="#404254">
                <rect fill="#f2f5e9" fill-opacity="0.5" stroke="#606060" stroke-width=".5" x="0" y="0" width="60" height="60"/>
                <use id="zoomplus" xlink:href="#zoomPlus" x="17" y="9" onmousedown="handleZoom(evt,'in')"/>
                <use id="zoomminus" xlink:href="#zoomMin" x="42" y="9" onmousedown="handleZoom(evt,'out')"/>
                <use id="reset" xlink:href="#resetDef" x="30" y="36" onmousedown="handleReset()"/>
                <g id="arrowUp" xlink:href="#dirArrow" transform="translate(30 24)" onmousedown="handlePan(0,-1)">
                  <use xlink:href="#rim" fill="#404040">
                        <set attributeName="fill" to="#808080" begin="arrowUp.mouseover" end="arrowUp.mouseout"/>
                  </use>
                  <path fill="none" stroke="white" stroke-width="1.5" d="M0,-3.0v7 M-2.5,-0.5L0,-3.0L2.5,-0.5"/>
                </g>
                <g id="arrowRight" xlink:href="#dirArrow" transform="rotate(90) translate(36 -43)" onmousedown="handlePan(1,0)">
                  <use xlink:href="#rim" fill="#404040">
                        <set attributeName="fill" to="#808080" begin="arrowRight.mouseover" end="arrowRight.mouseout"/>
                  </use>
                  <path fill="none" stroke="white" stroke-width="1.5" d="M0,-3.0v7 M-2.5,-0.5L0,-3.0L2.5,-0.5"/>
                </g>
                <g id="arrowDown" xlink:href="#dirArrow" transform="rotate(180) translate(-30 -48)" onmousedown="handlePan(0,1)">
                  <use xlink:href="#rim" fill="#404040">
                        <set attributeName="fill" to="#808080" begin="arrowDown.mouseover" end="arrowDown.mouseout"/>
                  </use>
                  <path fill="none" stroke="white" stroke-width="1.5" d="M0,-3.0v7 M-2.5,-0.5L0,-3.0L2.5,-0.5"/>
                </g>
                <g id="arrowLeft" xlink:href="#dirArrow" transform="rotate(270) translate(-36 17)" onmousedown="handlePan(-1,0)">
                  <use xlink:href="#rim" fill="#404040">
                        <set attributeName="fill" to="#808080" begin="arrowLeft.mouseover" end="arrowLeft.mouseout"/>
                  </use>
                  <path fill="none" stroke="white" stroke-width="1.5" d="M0,-3.0v7 M-2.5,-0.5L0,-3.0L2.5,-0.5"/>
                </g>
        </g>
        <svg viewBox="0 0 15 15" width="100%" height="30px" preserveAspectRatio="xMaxYMin meet">
         <g id="arrow_out" transform="scale(0.3 0.3)">
          <a xlink:href="MaCh3Modes_8h__dep__incl_org.svg" target="_base">
           <rect id="button" ry="5" rx="5" y="6" x="6" height="38" width="38"
                fill="#f2f5e9" fill-opacity="0.5" stroke="#606060" stroke-width="1.0"/>
           <path id="arrow"
             d="M 11.500037,31.436501 C 11.940474,20.09759 22.043105,11.32322 32.158766,21.979434 L 37.068811,17.246167 C 37.068811,17.246167 37.088388,32 37.088388,32 L 22.160133,31.978069 C 22.160133,31.978069 26.997745,27.140456 26.997745,27.140456 C 18.528582,18.264221 13.291696,25.230495 11.500037,31.436501 z"
             style="fill:#404040;"/>
          </a>
         </g>
        </svg>
</svg>
