<?xml version="1.0" encoding="UTF-8" standalone="no"?>
<!DOCTYPE svg PUBLIC "-//W3C//DTD SVG 1.1//EN"
 "http://www.w3.org/Graphics/SVG/1.1/DTD/svg11.dtd">
<!-- Generated by graphviz version 2.44.0 (0)
 -->
<!-- Title: /hosthome/MaCh3_2.2.0/Fitters/MCMCProcessor.h Pages: 1 -->
<svg width="1743pt" height="407pt"
 viewBox="0.00 0.00 1743.00 407.00" xmlns="http://www.w3.org/2000/svg" xmlns:xlink="http://www.w3.org/1999/xlink">
<g id="graph0" class="graph" transform="scale(1 1) rotate(0) translate(4 403)">
<title>/hosthome/MaCh3_2.2.0/Fitters/MCMCProcessor.h</title>
<polygon fill="white" stroke="transparent" points="-4,4 -4,-403 1739,-403 1739,4 -4,4"/>
<!-- Node1 -->
<g id="node1" class="node">
<title>Node1</title>
<g id="a_node1"><a xlink:title=" ">
<polygon fill="#bfbfbf" stroke="black" points="880.5,-368.5 880.5,-398.5 1015.5,-398.5 1015.5,-368.5 880.5,-368.5"/>
<text text-anchor="start" x="888.5" y="-386.5" font-family="Helvetica" font-size="10.00">/hosthome/MaCh3_2.2.0</text>
<text text-anchor="middle" x="948" y="-375.5" font-family="Helvetica" font-size="10.00">/Fitters/MCMCProcessor.h</text>
</a>
</g>
</g>
<!-- Node2 -->
<g id="node2" class="node">
<title>Node2</title>
<g id="a_node2"><a xlink:href="FitterBase_8h.html" target="_top" xlink:title=" ">
<polygon fill="white" stroke="black" points="423,-296 423,-326 547,-326 547,-296 423,-296"/>
<text text-anchor="start" x="431" y="-314" font-family="Helvetica" font-size="10.00">/hosthome/MaCh3_2.2.0</text>
<text text-anchor="middle" x="485" y="-303" font-family="Helvetica" font-size="10.00">/Fitters/FitterBase.h</text>
</a>
</g>
</g>
<!-- Node1&#45;&gt;Node2 -->
<g id="edge1" class="edge">
<title>Node1&#45;&gt;Node2</title>
<path fill="none" stroke="midnightblue" d="M870.2,-374.77C792.73,-366.47 670.59,-351.76 566,-332 557.03,-330.31 547.57,-328.23 538.41,-326.07"/>
<polygon fill="midnightblue" stroke="midnightblue" points="870.05,-378.27 880.36,-375.85 870.79,-371.31 870.05,-378.27"/>
</g>
<!-- Node15 -->
<g id="node15" class="node">
<title>Node15</title>
<g id="a_node15"><a xlink:href="MCMCProcessor_8cpp.html" target="_top" xlink:title=" ">
<polygon fill="white" stroke="black" points="575,-296 575,-326 721,-326 721,-296 575,-296"/>
<text text-anchor="start" x="583" y="-314" font-family="Helvetica" font-size="10.00">/hosthome/MaCh3_2.2.0</text>
<text text-anchor="middle" x="648" y="-303" font-family="Helvetica" font-size="10.00">/Fitters/MCMCProcessor.cpp</text>
</a>
</g>
</g>
<!-- Node1&#45;&gt;Node15 -->
<g id="edge20" class="edge">
<title>Node1&#45;&gt;Node15</title>
<path fill="none" stroke="midnightblue" d="M876.42,-366.14C833.86,-356.35 778.81,-343.61 730,-332 722.02,-330.1 713.6,-328.08 705.33,-326.07"/>
<polygon fill="midnightblue" stroke="midnightblue" points="875.88,-369.6 886.41,-368.43 877.44,-362.78 875.88,-369.6"/>
</g>
<!-- Node16 -->
<g id="node16" class="node">
<title>Node16</title>
<g id="a_node16"><a xlink:href="OscProcessor_8h.html" target="_top" xlink:title=" ">
<polygon fill="white" stroke="black" points="739,-296 739,-326 863,-326 863,-296 739,-296"/>
<text text-anchor="start" x="747" y="-314" font-family="Helvetica" font-size="10.00">/hosthome/MaCh3_2.2.0</text>
<text text-anchor="middle" x="801" y="-303" font-family="Helvetica" font-size="10.00">/Fitters/OscProcessor.h</text>
</a>
</g>
</g>
<!-- Node1&#45;&gt;Node16 -->
<g id="edge21" class="edge">
<title>Node1&#45;&gt;Node16</title>
<path fill="none" stroke="midnightblue" d="M909.49,-364.03C884.73,-352.16 853.06,-336.97 830.34,-326.07"/>
<polygon fill="midnightblue" stroke="midnightblue" points="908.08,-367.23 918.61,-368.4 911.1,-360.92 908.08,-367.23"/>
</g>
<!-- Node19 -->
<g id="node19" class="node">
<title>Node19</title>
<g id="a_node19"><a xlink:href="SampleSummary_8h.html" target="_top" xlink:title=" ">
<polygon fill="white" stroke="black" points="881,-296 881,-326 1015,-326 1015,-296 881,-296"/>
<text text-anchor="start" x="889" y="-314" font-family="Helvetica" font-size="10.00">/hosthome/MaCh3_2.2.0</text>
<text text-anchor="middle" x="948" y="-303" font-family="Helvetica" font-size="10.00">/Fitters/SampleSummary.h</text>
</a>
</g>
</g>
<!-- Node1&#45;&gt;Node19 -->
<g id="edge24" class="edge">
<title>Node1&#45;&gt;Node19</title>
<path fill="none" stroke="midnightblue" d="M948,-358.23C948,-347.57 948,-335.41 948,-326.25"/>
<polygon fill="midnightblue" stroke="midnightblue" points="944.5,-358.23 948,-368.23 951.5,-358.23 944.5,-358.23"/>
</g>
<!-- Node21 -->
<g id="node21" class="node">
<title>Node21</title>
<g id="a_node21"><a xlink:href="DiagMCMC_8cpp.html" target="_top" xlink:title=" ">
<polygon fill="white" stroke="black" points="1033,-296 1033,-326 1177,-326 1177,-296 1033,-296"/>
<text text-anchor="start" x="1041" y="-314" font-family="Helvetica" font-size="10.00">/hosthome/MaCh3_2.2.0</text>
<text text-anchor="middle" x="1105" y="-303" font-family="Helvetica" font-size="10.00">/Diagnostics/DiagMCMC.cpp</text>
</a>
</g>
</g>
<!-- Node1&#45;&gt;Node21 -->
<g id="edge26" class="edge">
<title>Node1&#45;&gt;Node21</title>
<path fill="none" stroke="midnightblue" d="M988.78,-364.19C1015.28,-352.29 1049.29,-337.02 1073.66,-326.07"/>
<polygon fill="midnightblue" stroke="midnightblue" points="987.08,-361.11 979.39,-368.4 989.95,-367.5 987.08,-361.11"/>
</g>
<!-- Node22 -->
<g id="node22" class="node">
<title>Node22</title>
<g id="a_node22"><a xlink:href="PlotMCMCDiag_8cpp.html" target="_top" xlink:title="KS: This script is used to analyse output form DiagMCMC.">
<polygon fill="white" stroke="black" points="1195.5,-296 1195.5,-326 1356.5,-326 1356.5,-296 1195.5,-296"/>
<text text-anchor="start" x="1203.5" y="-314" font-family="Helvetica" font-size="10.00">/hosthome/MaCh3_2.2.0</text>
<text text-anchor="middle" x="1276" y="-303" font-family="Helvetica" font-size="10.00">/Diagnostics/PlotMCMCDiag.cpp</text>
</a>
</g>
</g>
<!-- Node1&#45;&gt;Node22 -->
<g id="edge27" class="edge">
<title>Node1&#45;&gt;Node22</title>
<path fill="none" stroke="midnightblue" d="M1025,-366.36C1071.62,-356.53 1132.26,-343.67 1186,-332 1194.76,-330.1 1203.99,-328.07 1213.07,-326.06"/>
<polygon fill="midnightblue" stroke="midnightblue" points="1024.04,-362.98 1014.98,-368.47 1025.48,-369.83 1024.04,-362.98"/>
</g>
<!-- Node23 -->
<g id="node23" class="node">
<title>Node23</title>
<g id="a_node23"><a xlink:href="inputManager_8h.html" target="_top" xlink:title=" ">
<polygon fill="white" stroke="black" points="1375,-290.5 1375,-331.5 1499,-331.5 1499,-290.5 1375,-290.5"/>
<text text-anchor="start" x="1383" y="-319.5" font-family="Helvetica" font-size="10.00">/hosthome/MaCh3_2.2.0</text>
<text text-anchor="start" x="1383" y="-308.5" font-family="Helvetica" font-size="10.00">/Plotting/plottingUtils</text>
<text text-anchor="middle" x="1437" y="-297.5" font-family="Helvetica" font-size="10.00">/inputManager.h</text>
</a>
</g>
</g>
<!-- Node1&#45;&gt;Node23 -->
<g id="edge28" class="edge">
<title>Node1&#45;&gt;Node23</title>
<path fill="none" stroke="midnightblue" d="M1025.65,-376.61C1109.81,-369.42 1247.8,-355.24 1365,-332 1368.18,-331.37 1371.43,-330.67 1374.7,-329.92"/>
<polygon fill="midnightblue" stroke="midnightblue" points="1025.33,-373.13 1015.66,-377.46 1025.92,-380.1 1025.33,-373.13"/>
</g>
<!-- Node3 -->
<g id="node3" class="node">
<title>Node3</title>
<g id="a_node3"><a xlink:href="FitterBase_8cpp.html" target="_top" xlink:title=" ">
<polygon fill="white" stroke="black" points="0,-218 0,-248 124,-248 124,-218 0,-218"/>
<text text-anchor="start" x="8" y="-236" font-family="Helvetica" font-size="10.00">/hosthome/MaCh3_2.2.0</text>
<text text-anchor="middle" x="62" y="-225" font-family="Helvetica" font-size="10.00">/Fitters/FitterBase.cpp</text>
</a>
</g>
</g>
<!-- Node2&#45;&gt;Node3 -->
<g id="edge2" class="edge">
<title>Node2&#45;&gt;Node3</title>
<path fill="none" stroke="midnightblue" d="M412.82,-300.44C342.37,-290.62 232.31,-273.97 138,-254 129.72,-252.25 121,-250.17 112.53,-248.03"/>
<polygon fill="midnightblue" stroke="midnightblue" points="412.54,-303.93 422.92,-301.84 413.5,-297 412.54,-303.93"/>
</g>
<!-- Node4 -->
<g id="node4" class="node">
<title>Node4</title>
<g id="a_node4"><a xlink:href="LikelihoodFit_8h.html" target="_top" xlink:title=" ">
<polygon fill="white" stroke="black" points="360,-218 360,-248 484,-248 484,-218 360,-218"/>
<text text-anchor="start" x="368" y="-236" font-family="Helvetica" font-size="10.00">/hosthome/MaCh3_2.2.0</text>
<text text-anchor="middle" x="422" y="-225" font-family="Helvetica" font-size="10.00">/Fitters/LikelihoodFit.h</text>
</a>
</g>
</g>
<!-- Node2&#45;&gt;Node4 -->
<g id="edge3" class="edge">
<title>Node2&#45;&gt;Node4</title>
<path fill="none" stroke="midnightblue" d="M466.6,-287.81C456.01,-275.03 443.02,-259.36 433.8,-248.23"/>
<polygon fill="midnightblue" stroke="midnightblue" points="464.07,-290.24 473.15,-295.7 469.46,-285.77 464.07,-290.24"/>
</g>
<!-- Node6 -->
<g id="node6" class="node">
<title>Node6</title>
<g id="a_node6"><a xlink:href="MaCh3Factory_8h.html" target="_top" xlink:title="Factory methods for MaCh3 software which streamline initialisation of different objects.">
<polygon fill="white" stroke="black" points="218,-67.5 218,-97.5 342,-97.5 342,-67.5 218,-67.5"/>
<text text-anchor="start" x="226" y="-85.5" font-family="Helvetica" font-size="10.00">/hosthome/MaCh3_2.2.0</text>
<text text-anchor="middle" x="280" y="-74.5" font-family="Helvetica" font-size="10.00">/Fitters/MaCh3Factory.h</text>
</a>
</g>
</g>
<!-- Node2&#45;&gt;Node6 -->
<g id="edge14" class="edge">
<title>Node2&#45;&gt;Node6</title>
<path fill="none" stroke="midnightblue" d="M412.55,-301.9C337.59,-289.22 224.2,-257.04 171,-176 160.76,-160.4 160.95,-149.73 171,-134 182.12,-116.6 200.93,-105.11 219.84,-97.55"/>
<polygon fill="midnightblue" stroke="midnightblue" points="412.43,-305.43 422.86,-303.56 413.54,-298.52 412.43,-305.43"/>
</g>
<!-- Node10 -->
<g id="node10" class="node">
<title>Node10</title>
<g id="a_node10"><a xlink:href="fitters_8cpp.html" target="_top" xlink:title=" ">
<polygon fill="white" stroke="black" points="644,-67.5 644,-97.5 768,-97.5 768,-67.5 644,-67.5"/>
<text text-anchor="start" x="652" y="-85.5" font-family="Helvetica" font-size="10.00">/hosthome/MaCh3_2.2.0</text>
<text text-anchor="middle" x="706" y="-74.5" font-family="Helvetica" font-size="10.00">/python/fitters.cpp</text>
</a>
</g>
</g>
<!-- Node2&#45;&gt;Node10 -->
<g id="edge19" class="edge">
<title>Node2&#45;&gt;Node10</title>
<path fill="none" stroke="midnightblue" d="M511.23,-289.12C542.28,-263.85 594.83,-219.28 635,-176 659.1,-150.03 683.43,-116.34 696.41,-97.62"/>
<polygon fill="midnightblue" stroke="midnightblue" points="508.65,-286.71 503.07,-295.72 513.05,-292.15 508.65,-286.71"/>
</g>
<!-- Node13 -->
<g id="node13" class="node">
<title>Node13</title>
<g id="a_node13"><a xlink:href="mcmc_8h.html" target="_top" xlink:title=" ">
<polygon fill="white" stroke="black" points="502,-140 502,-170 626,-170 626,-140 502,-140"/>
<text text-anchor="start" x="510" y="-158" font-family="Helvetica" font-size="10.00">/hosthome/MaCh3_2.2.0</text>
<text text-anchor="middle" x="564" y="-147" font-family="Helvetica" font-size="10.00">/Fitters/mcmc.h</text>
</a>
</g>
</g>
<!-- Node2&#45;&gt;Node13 -->
<g id="edge15" class="edge">
<title>Node2&#45;&gt;Node13</title>
<path fill="none" stroke="midnightblue" d="M497,-286.61C513.61,-254.23 543.1,-196.74 556.73,-170.18"/>
<polygon fill="midnightblue" stroke="midnightblue" points="493.74,-285.29 492.29,-295.79 499.97,-288.49 493.74,-285.29"/>
</g>
<!-- Node5 -->
<g id="node5" class="node">
<title>Node5</title>
<g id="a_node5"><a xlink:href="LikelihoodFit_8cpp.html" target="_top" xlink:title=" ">
<polygon fill="white" stroke="black" points="180,-140 180,-170 304,-170 304,-140 180,-140"/>
<text text-anchor="start" x="188" y="-158" font-family="Helvetica" font-size="10.00">/hosthome/MaCh3_2.2.0</text>
<text text-anchor="middle" x="242" y="-147" font-family="Helvetica" font-size="10.00">/Fitters/LikelihoodFit.cpp</text>
</a>
</g>
</g>
<!-- Node4&#45;&gt;Node5 -->
<g id="edge4" class="edge">
<title>Node4&#45;&gt;Node5</title>
<path fill="none" stroke="midnightblue" d="M379.07,-213.87C347.25,-200.44 304.5,-182.39 275.26,-170.04"/>
<polygon fill="midnightblue" stroke="midnightblue" points="377.99,-217.22 388.57,-217.88 380.71,-210.77 377.99,-217.22"/>
</g>
<!-- Node4&#45;&gt;Node6 -->
<g id="edge5" class="edge">
<title>Node4&#45;&gt;Node6</title>
<path fill="none" stroke="midnightblue" d="M392.88,-211.62C379.48,-201.6 363.75,-188.92 351,-176 325.97,-150.64 301.8,-116.43 289.13,-97.52"/>
<polygon fill="midnightblue" stroke="midnightblue" points="391.17,-214.7 401.3,-217.79 395.31,-209.05 391.17,-214.7"/>
</g>
<!-- Node8 -->
<g id="node8" class="node">
<title>Node8</title>
<g id="a_node8"><a xlink:href="MinuitFit_8h.html" target="_top" xlink:title=" ">
<polygon fill="white" stroke="black" points="682,-140 682,-170 806,-170 806,-140 682,-140"/>
<text text-anchor="start" x="690" y="-158" font-family="Helvetica" font-size="10.00">/hosthome/MaCh3_2.2.0</text>
<text text-anchor="middle" x="744" y="-147" font-family="Helvetica" font-size="10.00">/Fitters/MinuitFit.h</text>
</a>
</g>
</g>
<!-- Node4&#45;&gt;Node8 -->
<g id="edge7" class="edge">
<title>Node4&#45;&gt;Node8</title>
<path fill="none" stroke="midnightblue" d="M491.19,-215.67C548.79,-202.07 629.95,-182.92 684.64,-170.01"/>
<polygon fill="midnightblue" stroke="midnightblue" points="490.36,-212.27 481.44,-217.97 491.97,-219.08 490.36,-212.27"/>
</g>
<!-- Node11 -->
<g id="node11" class="node">
<title>Node11</title>
<g id="a_node11"><a xlink:href="PSO_8h.html" target="_top" xlink:title=" ">
<polygon fill="white" stroke="black" points="360,-140 360,-170 484,-170 484,-140 360,-140"/>
<text text-anchor="start" x="368" y="-158" font-family="Helvetica" font-size="10.00">/hosthome/MaCh3_2.2.0</text>
<text text-anchor="middle" x="422" y="-147" font-family="Helvetica" font-size="10.00">/Fitters/PSO.h</text>
</a>
</g>
</g>
<!-- Node4&#45;&gt;Node11 -->
<g id="edge10" class="edge">
<title>Node4&#45;&gt;Node11</title>
<path fill="none" stroke="midnightblue" d="M422,-207.59C422,-195.26 422,-180.72 422,-170.23"/>
<polygon fill="midnightblue" stroke="midnightblue" points="418.5,-207.7 422,-217.7 425.5,-207.71 418.5,-207.7"/>
</g>
<!-- Node7 -->
<g id="node7" class="node">
<title>Node7</title>
<g id="a_node7"><a xlink:href="MaCh3Factory_8cpp.html" target="_top" xlink:title=" ">
<polygon fill="white" stroke="black" points="213,-0.5 213,-30.5 347,-30.5 347,-0.5 213,-0.5"/>
<text text-anchor="start" x="221" y="-18.5" font-family="Helvetica" font-size="10.00">/hosthome/MaCh3_2.2.0</text>
<text text-anchor="middle" x="280" y="-7.5" font-family="Helvetica" font-size="10.00">/Fitters/MaCh3Factory.cpp</text>
</a>
</g>
</g>
<!-- Node6&#45;&gt;Node7 -->
<g id="edge6" class="edge">
<title>Node6&#45;&gt;Node7</title>
<path fill="none" stroke="midnightblue" d="M280,-57.11C280,-48.15 280,-38.32 280,-30.58"/>
<polygon fill="midnightblue" stroke="midnightblue" points="276.5,-57.4 280,-67.4 283.5,-57.4 276.5,-57.4"/>
</g>
<!-- Node9 -->
<g id="node9" class="node">
<title>Node9</title>
<g id="a_node9"><a xlink:href="MinuitFit_8cpp.html" target="_top" xlink:title=" ">
<polygon fill="white" stroke="black" points="786,-67.5 786,-97.5 910,-97.5 910,-67.5 786,-67.5"/>
<text text-anchor="start" x="794" y="-85.5" font-family="Helvetica" font-size="10.00">/hosthome/MaCh3_2.2.0</text>
<text text-anchor="middle" x="848" y="-74.5" font-family="Helvetica" font-size="10.00">/Fitters/MinuitFit.cpp</text>
</a>
</g>
</g>
<!-- Node8&#45;&gt;Node9 -->
<g id="edge8" class="edge">
<title>Node8&#45;&gt;Node9</title>
<path fill="none" stroke="midnightblue" d="M773.61,-133.93C790.77,-122.29 811.97,-107.92 827.34,-97.5"/>
<polygon fill="midnightblue" stroke="midnightblue" points="771.36,-131.23 765.05,-139.73 775.29,-137.02 771.36,-131.23"/>
</g>
<!-- Node8&#45;&gt;Node10 -->
<g id="edge9" class="edge">
<title>Node8&#45;&gt;Node10</title>
<path fill="none" stroke="midnightblue" d="M731.46,-130.73C725.58,-119.83 718.78,-107.2 713.68,-97.75"/>
<polygon fill="midnightblue" stroke="midnightblue" points="728.48,-132.59 736.31,-139.73 734.65,-129.27 728.48,-132.59"/>
</g>
<!-- Node11&#45;&gt;Node6 -->
<g id="edge11" class="edge">
<title>Node11&#45;&gt;Node6</title>
<path fill="none" stroke="midnightblue" d="M384.48,-135.37C360.61,-123.52 330.2,-108.42 308.35,-97.57"/>
<polygon fill="midnightblue" stroke="midnightblue" points="383.09,-138.59 393.61,-139.9 386.21,-132.32 383.09,-138.59"/>
</g>
<!-- Node11&#45;&gt;Node10 -->
<g id="edge13" class="edge">
<title>Node11&#45;&gt;Node10</title>
<path fill="none" stroke="midnightblue" d="M480.6,-137.29C484.79,-136.15 488.96,-135.05 493,-134 543.58,-120.89 601.28,-107.29 643.85,-97.51"/>
<polygon fill="midnightblue" stroke="midnightblue" points="479.54,-133.95 470.82,-139.96 481.38,-140.7 479.54,-133.95"/>
</g>
<!-- Node12 -->
<g id="node12" class="node">
<title>Node12</title>
<g id="a_node12"><a xlink:href="PSO_8cpp.html" target="_top" xlink:title=" ">
<polygon fill="white" stroke="black" points="360,-67.5 360,-97.5 484,-97.5 484,-67.5 360,-67.5"/>
<text text-anchor="start" x="368" y="-85.5" font-family="Helvetica" font-size="10.00">/hosthome/MaCh3_2.2.0</text>
<text text-anchor="middle" x="422" y="-74.5" font-family="Helvetica" font-size="10.00">/Fitters/PSO.cpp</text>
</a>
</g>
</g>
<!-- Node11&#45;&gt;Node12 -->
<g id="edge12" class="edge">
<title>Node11&#45;&gt;Node12</title>
<path fill="none" stroke="midnightblue" d="M422,-129.73C422,-119.07 422,-106.91 422,-97.75"/>
<polygon fill="midnightblue" stroke="midnightblue" points="418.5,-129.73 422,-139.73 425.5,-129.73 418.5,-129.73"/>
</g>
<!-- Node13&#45;&gt;Node6 -->
<g id="edge16" class="edge">
<title>Node13&#45;&gt;Node6</title>
<path fill="none" stroke="midnightblue" d="M505.4,-137.29C501.21,-136.15 497.04,-135.05 493,-134 442.42,-120.89 384.72,-107.29 342.15,-97.51"/>
<polygon fill="midnightblue" stroke="midnightblue" points="504.62,-140.7 515.18,-139.96 506.46,-133.95 504.62,-140.7"/>
</g>
<!-- Node13&#45;&gt;Node10 -->
<g id="edge18" class="edge">
<title>Node13&#45;&gt;Node10</title>
<path fill="none" stroke="midnightblue" d="M601.52,-135.37C625.39,-123.52 655.8,-108.42 677.65,-97.57"/>
<polygon fill="midnightblue" stroke="midnightblue" points="599.79,-132.32 592.39,-139.9 602.91,-138.59 599.79,-132.32"/>
</g>
<!-- Node14 -->
<g id="node14" class="node">
<title>Node14</title>
<g id="a_node14"><a xlink:href="mcmc_8cpp.html" target="_top" xlink:title=" ">
<polygon fill="white" stroke="black" points="502,-67.5 502,-97.5 626,-97.5 626,-67.5 502,-67.5"/>
<text text-anchor="start" x="510" y="-85.5" font-family="Helvetica" font-size="10.00">/hosthome/MaCh3_2.2.0</text>
<text text-anchor="middle" x="564" y="-74.5" font-family="Helvetica" font-size="10.00">/Fitters/mcmc.cpp</text>
</a>
</g>
</g>
<!-- Node13&#45;&gt;Node14 -->
<g id="edge17" class="edge">
<title>Node13&#45;&gt;Node14</title>
<path fill="none" stroke="midnightblue" d="M564,-129.73C564,-119.07 564,-106.91 564,-97.75"/>
<polygon fill="midnightblue" stroke="midnightblue" points="560.5,-129.73 564,-139.73 567.5,-129.73 560.5,-129.73"/>
</g>
<!-- Node17 -->
<g id="node17" class="node">
<title>Node17</title>
<g id="a_node17"><a xlink:href="OscProcessor_8cpp.html" target="_top" xlink:title=" ">
<polygon fill="white" stroke="black" points="682,-218 682,-248 814,-248 814,-218 682,-218"/>
<text text-anchor="start" x="690" y="-236" font-family="Helvetica" font-size="10.00">/hosthome/MaCh3_2.2.0</text>
<text text-anchor="middle" x="748" y="-225" font-family="Helvetica" font-size="10.00">/Fitters/OscProcessor.cpp</text>
</a>
</g>
</g>
<!-- Node16&#45;&gt;Node17 -->
<g id="edge22" class="edge">
<title>Node16&#45;&gt;Node17</title>
<path fill="none" stroke="midnightblue" d="M785.27,-287.44C776.41,-274.73 765.61,-259.25 757.92,-248.23"/>
<polygon fill="midnightblue" stroke="midnightblue" points="782.44,-289.5 791.03,-295.7 788.18,-285.5 782.44,-289.5"/>
</g>
<!-- Node18 -->
<g id="node18" class="node">
<title>Node18</title>
<g id="a_node18"><a xlink:href="ProcessMCMC_8cpp.html" target="_top" xlink:title="Main exectable responsible for different types of MCMC processing like drawing posteriors,...">
<polygon fill="white" stroke="black" points="832,-218 832,-248 992,-248 992,-218 832,-218"/>
<text text-anchor="start" x="840" y="-236" font-family="Helvetica" font-size="10.00">/hosthome/MaCh3_2.2.0</text>
<text text-anchor="middle" x="912" y="-225" font-family="Helvetica" font-size="10.00">/Diagnostics/ProcessMCMC.cpp</text>
</a>
</g>
</g>
<!-- Node16&#45;&gt;Node18 -->
<g id="edge23" class="edge">
<title>Node16&#45;&gt;Node18</title>
<path fill="none" stroke="midnightblue" d="M830.05,-290.11C849.36,-276.89 874.24,-259.86 891.49,-248.04"/>
<polygon fill="midnightblue" stroke="midnightblue" points="827.89,-287.35 821.62,-295.88 831.85,-293.12 827.89,-287.35"/>
</g>
<!-- Node20 -->
<g id="node20" class="node">
<title>Node20</title>
<g id="a_node20"><a xlink:href="SampleSummary_8cpp.html" target="_top" xlink:title=" ">
<polygon fill="white" stroke="black" points="1010.5,-218 1010.5,-248 1155.5,-248 1155.5,-218 1010.5,-218"/>
<text text-anchor="start" x="1018.5" y="-236" font-family="Helvetica" font-size="10.00">/hosthome/MaCh3_2.2.0</text>
<text text-anchor="middle" x="1083" y="-225" font-family="Helvetica" font-size="10.00">/Fitters/SampleSummary.cpp</text>
</a>
</g>
</g>
<!-- Node19&#45;&gt;Node20 -->
<g id="edge25" class="edge">
<title>Node19&#45;&gt;Node20</title>
<path fill="none" stroke="midnightblue" d="M982.07,-290.82C1005.72,-277.51 1036.69,-260.07 1058.06,-248.04"/>
<polygon fill="midnightblue" stroke="midnightblue" points="980.07,-287.93 973.08,-295.88 983.51,-294.03 980.07,-287.93"/>
</g>
<!-- Node24 -->
<g id="node24" class="node">
<title>Node24</title>
<g id="a_node24"><a xlink:href="inputManager_8cpp.html" target="_top" xlink:title=" ">
<polygon fill="white" stroke="black" points="1233,-212.5 1233,-253.5 1357,-253.5 1357,-212.5 1233,-212.5"/>
<text text-anchor="start" x="1241" y="-241.5" font-family="Helvetica" font-size="10.00">/hosthome/MaCh3_2.2.0</text>
<text text-anchor="start" x="1241" y="-230.5" font-family="Helvetica" font-size="10.00">/Plotting/plottingUtils</text>
<text text-anchor="middle" x="1295" y="-219.5" font-family="Helvetica" font-size="10.00">/inputManager.cpp</text>
</a>
</g>
</g>
<!-- Node23&#45;&gt;Node24 -->
<g id="edge29" class="edge">
<title>Node23&#45;&gt;Node24</title>
<path fill="none" stroke="midnightblue" d="M1391.46,-285.63C1372.06,-275.24 1349.73,-263.29 1331.44,-253.51"/>
<polygon fill="midnightblue" stroke="midnightblue" points="1389.96,-288.8 1400.43,-290.43 1393.27,-282.62 1389.96,-288.8"/>
</g>
<!-- Node25 -->
<g id="node25" class="node">
<title>Node25</title>
<g id="a_node25"><a xlink:href="plottingManager_8h.html" target="_top" xlink:title=" ">
<polygon fill="white" stroke="black" points="1375,-212.5 1375,-253.5 1499,-253.5 1499,-212.5 1375,-212.5"/>
<text text-anchor="start" x="1383" y="-241.5" font-family="Helvetica" font-size="10.00">/hosthome/MaCh3_2.2.0</text>
<text text-anchor="start" x="1383" y="-230.5" font-family="Helvetica" font-size="10.00">/Plotting/plottingUtils</text>
<text text-anchor="middle" x="1437" y="-219.5" font-family="Helvetica" font-size="10.00">/plottingManager.h</text>
</a>
</g>
</g>
<!-- Node23&#45;&gt;Node25 -->
<g id="edge30" class="edge">
<title>Node23&#45;&gt;Node25</title>
<path fill="none" stroke="midnightblue" d="M1437,-280.3C1437,-271.3 1437,-261.65 1437,-253.51"/>
<polygon fill="midnightblue" stroke="midnightblue" points="1433.5,-280.43 1437,-290.43 1440.5,-280.43 1433.5,-280.43"/>
</g>
<!-- Node30 -->
<g id="node30" class="node">
<title>Node30</title>
<g id="a_node30"><a xlink:href="plotting_8cpp.html" target="_top" xlink:title=" ">
<polygon fill="white" stroke="black" points="1611,-140 1611,-170 1735,-170 1735,-140 1611,-140"/>
<text text-anchor="start" x="1619" y="-158" font-family="Helvetica" font-size="10.00">/hosthome/MaCh3_2.2.0</text>
<text text-anchor="middle" x="1673" y="-147" font-family="Helvetica" font-size="10.00">/python/plotting.cpp</text>
</a>
</g>
</g>
<!-- Node23&#45;&gt;Node30 -->
<g id="edge36" class="edge">
<title>Node23&#45;&gt;Node30</title>
<path fill="none" stroke="midnightblue" d="M1475.51,-284.87C1525.61,-252.18 1611.45,-196.17 1651.38,-170.11"/>
<polygon fill="midnightblue" stroke="midnightblue" points="1473.35,-282.1 1466.89,-290.5 1477.18,-287.96 1473.35,-282.1"/>
</g>
<!-- Node26 -->
<g id="node26" class="node">
<title>Node26</title>
<g id="a_node26"><a xlink:href="GetPostfitParamPlots_8cpp.html" target="_top" xlink:title=" ">
<polygon fill="white" stroke="black" points="991,-140 991,-170 1161,-170 1161,-140 991,-140"/>
<text text-anchor="start" x="999" y="-158" font-family="Helvetica" font-size="10.00">/hosthome/MaCh3_2.2.0</text>
<text text-anchor="middle" x="1076" y="-147" font-family="Helvetica" font-size="10.00">/Plotting/GetPostfitParamPlots.cpp</text>
</a>
</g>
</g>
<!-- Node25&#45;&gt;Node26 -->
<g id="edge31" class="edge">
<title>Node25&#45;&gt;Node26</title>
<path fill="none" stroke="midnightblue" d="M1364.99,-211.86C1278.04,-192.04 1253.82,-192.61 1170,-176 1160.51,-174.12 1150.49,-172.06 1140.68,-170.01"/>
<polygon fill="midnightblue" stroke="midnightblue" points="1364.22,-215.27 1374.75,-214.11 1365.79,-208.45 1364.22,-215.27"/>
</g>
<!-- Node27 -->
<g id="node27" class="node">
<title>Node27</title>
<g id="a_node27"><a xlink:href="MatrixPlotter_8cpp.html" target="_top" xlink:title=" ">
<polygon fill="white" stroke="black" points="1179,-140 1179,-170 1309,-170 1309,-140 1179,-140"/>
<text text-anchor="start" x="1187" y="-158" font-family="Helvetica" font-size="10.00">/hosthome/MaCh3_2.2.0</text>
<text text-anchor="middle" x="1244" y="-147" font-family="Helvetica" font-size="10.00">/Plotting/MatrixPlotter.cpp</text>
</a>
</g>
</g>
<!-- Node25&#45;&gt;Node27 -->
<g id="edge32" class="edge">
<title>Node25&#45;&gt;Node27</title>
<path fill="none" stroke="midnightblue" d="M1377.6,-208.61C1345.62,-196.02 1307.23,-180.9 1279.82,-170.11"/>
<polygon fill="midnightblue" stroke="midnightblue" points="1376.71,-212.02 1387.3,-212.43 1379.28,-205.51 1376.71,-212.02"/>
</g>
<!-- Node28 -->
<g id="node28" class="node">
<title>Node28</title>
<g id="a_node28"><a xlink:href="PlotLLH_8cpp.html" target="_top" xlink:title=" ">
<polygon fill="white" stroke="black" points="1327,-140 1327,-170 1451,-170 1451,-140 1327,-140"/>
<text text-anchor="start" x="1335" y="-158" font-family="Helvetica" font-size="10.00">/hosthome/MaCh3_2.2.0</text>
<text text-anchor="middle" x="1389" y="-147" font-family="Helvetica" font-size="10.00">/Plotting/PlotLLH.cpp</text>
</a>
</g>
</g>
<!-- Node25&#45;&gt;Node28 -->
<g id="edge33" class="edge">
<title>Node25&#45;&gt;Node28</title>
<path fill="none" stroke="midnightblue" d="M1419.09,-203.64C1411.89,-192.25 1403.92,-179.62 1397.98,-170.23"/>
<polygon fill="midnightblue" stroke="midnightblue" points="1416.34,-205.84 1424.64,-212.43 1422.26,-202.1 1416.34,-205.84"/>
</g>
<!-- Node29 -->
<g id="node29" class="node">
<title>Node29</title>
<g id="a_node29"><a xlink:href="plottingManager_8cpp.html" target="_top" xlink:title=" ">
<polygon fill="white" stroke="black" points="1469,-134.5 1469,-175.5 1593,-175.5 1593,-134.5 1469,-134.5"/>
<text text-anchor="start" x="1477" y="-163.5" font-family="Helvetica" font-size="10.00">/hosthome/MaCh3_2.2.0</text>
<text text-anchor="start" x="1477" y="-152.5" font-family="Helvetica" font-size="10.00">/Plotting/plottingUtils</text>
<text text-anchor="middle" x="1531" y="-141.5" font-family="Helvetica" font-size="10.00">/plottingManager.cpp</text>
</a>
</g>
</g>
<!-- Node25&#45;&gt;Node29 -->
<g id="edge34" class="edge">
<title>Node25&#45;&gt;Node29</title>
<path fill="none" stroke="midnightblue" d="M1469.08,-206.06C1481.46,-196.06 1495.37,-184.8 1506.87,-175.51"/>
<polygon fill="midnightblue" stroke="midnightblue" points="1466.78,-203.42 1461.21,-212.43 1471.18,-208.86 1466.78,-203.42"/>
</g>
<!-- Node25&#45;&gt;Node30 -->
<g id="edge35" class="edge">
<title>Node25&#45;&gt;Node30</title>
<path fill="none" stroke="midnightblue" d="M1507.37,-209.34C1546.91,-196.6 1595.03,-181.11 1629.2,-170.11"/>
<polygon fill="midnightblue" stroke="midnightblue" points="1506.22,-206.03 1497.78,-212.43 1508.37,-212.69 1506.22,-206.03"/>
</g>
</g>
</svg>
