<?xml version="1.0" encoding="UTF-8" standalone="no"?>
<!DOCTYPE svg PUBLIC "-//W3C//DTD SVG 1.1//EN"
 "http://www.w3.org/Graphics/SVG/1.1/DTD/svg11.dtd">
<!-- Generated by graphviz version 2.44.0 (0)
 -->
<!-- Title: /hosthome/v2.2.0/Fitters/OscProcessor.h Pages: 1 -->
<svg width="298pt" height="106pt"
 viewBox="0.00 0.00 297.50 106.00" xmlns="http://www.w3.org/2000/svg" xmlns:xlink="http://www.w3.org/1999/xlink">
<g id="graph0" class="graph" transform="scale(1 1) rotate(0) translate(4 102)">
<title>/hosthome/v2.2.0/Fitters/OscProcessor.h</title>
<polygon fill="white" stroke="transparent" points="-4,4 -4,-102 293.5,-102 293.5,4 -4,4"/>
<!-- Node1 -->
<g id="node1" class="node">
<title>Node1</title>
<g id="a_node1"><a xlink:title=" ">
<polygon fill="#bfbfbf" stroke="black" points="77,-67.5 77,-97.5 201,-97.5 201,-67.5 77,-67.5"/>
<text text-anchor="start" x="85" y="-85.5" font-family="Helvetica" font-size="10.00">/hosthome/v2.2.0/Fitters</text>
<text text-anchor="middle" x="139" y="-74.5" font-family="Helvetica" font-size="10.00">/OscProcessor.h</text>
</a>
</g>
</g>
<!-- Node2 -->
<g id="node2" class="node">
<title>Node2</title>
<g id="a_node2"><a xlink:href="OscProcessor_8cpp.html" target="_top" xlink:title=" ">
<polygon fill="white" stroke="black" points="0,-0.5 0,-30.5 124,-30.5 124,-0.5 0,-0.5"/>
<text text-anchor="start" x="8" y="-18.5" font-family="Helvetica" font-size="10.00">/hosthome/v2.2.0/Fitters</text>
<text text-anchor="middle" x="62" y="-7.5" font-family="Helvetica" font-size="10.00">/OscProcessor.cpp</text>
</a>
</g>
</g>
<!-- Node1&#45;&gt;Node2 -->
<g id="edge1" class="edge">
<title>Node1&#45;&gt;Node2</title>
<path fill="none" stroke="midnightblue" d="M114.58,-60.88C102.88,-51.01 89.16,-39.43 78.68,-30.58"/>
<polygon fill="midnightblue" stroke="midnightblue" points="112.39,-63.62 122.29,-67.4 116.91,-58.27 112.39,-63.62"/>
</g>
<!-- Node3 -->
<g id="node3" class="node">
<title>Node3</title>
<g id="a_node3"><a xlink:href="ProcessMCMC_8cpp.html" target="_top" xlink:title="Main exectable responsible for different types of MCMC processing like drawing posteriors,...">
<polygon fill="white" stroke="black" points="142.5,-0.5 142.5,-30.5 289.5,-30.5 289.5,-0.5 142.5,-0.5"/>
<text text-anchor="start" x="150.5" y="-18.5" font-family="Helvetica" font-size="10.00">/hosthome/v2.2.0/Diagnostics</text>
<text text-anchor="middle" x="216" y="-7.5" font-family="Helvetica" font-size="10.00">/ProcessMCMC.cpp</text>
</a>
</g>
</g>
<!-- Node1&#45;&gt;Node3 -->
<g id="edge2" class="edge">
<title>Node1&#45;&gt;Node3</title>
<path fill="none" stroke="midnightblue" d="M163.42,-60.88C175.12,-51.01 188.84,-39.43 199.32,-30.58"/>
<polygon fill="midnightblue" stroke="midnightblue" points="161.09,-58.27 155.71,-67.4 165.61,-63.62 161.09,-58.27"/>
</g>
</g>
</svg>
