<?xml version="1.0" encoding="UTF-8" standalone="no"?>
<!DOCTYPE svg PUBLIC "-//W3C//DTD SVG 1.1//EN"
 "http://www.w3.org/Graphics/SVG/1.1/DTD/svg11.dtd">
<!-- Generated by graphviz version 2.44.0 (0)
 -->
<!-- Title: /hosthome/MaCh3_2.2.0/Parameters/PCAHandler.h Pages: 1 -->
<!--zoomable 541 -->
<svg id="main" version="1.1" xmlns="http://www.w3.org/2000/svg" xmlns:xlink="http://www.w3.org/1999/xlink" xml:space="preserve" onload="init(evt)">
<style type="text/css"><![CDATA[
.edge:hover path { stroke: red; }
.edge:hover polygon { stroke: red; fill: red; }
]]></style>
<script type="text/javascript"><![CDATA[
var edges = document.getElementsByTagName('g');
if (edges && edges.length) {
  for (var i=0;i<edges.length;i++) {
    if (edges[i].id.substr(0,4)=='edge') {
      edges[i].setAttribute('class','edge');
    }
  }
}
]]></script>
        <defs>
                <circle id="rim" cx="0" cy="0" r="7"/>
                <circle id="rim2" cx="0" cy="0" r="3.5"/>
                <g id="zoomPlus">
                        <use xlink:href="#rim" fill="#404040">
                                <set attributeName="fill" to="#808080" begin="zoomplus.mouseover" end="zoomplus.mouseout"/>
                        </use>
                        <path d="M-4,0h8M0,-4v8" fill="none" stroke="white" stroke-width="1.5" pointer-events="none"/>
                </g>
                <g id="zoomMin">
                        <use xlink:href="#rim" fill="#404040">
                                <set attributeName="fill" to="#808080" begin="zoomminus.mouseover" end="zoomminus.mouseout"/>
                        </use>
                        <path d="M-4,0h8" fill="none" stroke="white" stroke-width="1.5" pointer-events="none"/>
                </g>
                <g id="dirArrow">
                        <path fill="none" stroke="white" stroke-width="1.5" d="M0,-3.0v7 M-2.5,-0.5L0,-3.0L2.5,-0.5"/>
                </g>
               <g id="resetDef">
                       <use xlink:href="#rim2" fill="#404040">
                               <set attributeName="fill" to="#808080" begin="reset.mouseover" end="reset.mouseout"/>
                       </use>
               </g>
        </defs>

<script type="text/javascript">
var viewWidth = 1568;
var viewHeight = 541;
var sectionId = 'dynsection-1';
</script>
<script xlink:href="svgpan.js"/>
<svg id="graph" class="graph">
<g id="viewport">
<title>/hosthome/MaCh3_2.2.0/Parameters/PCAHandler.h</title>
<polygon fill="white" stroke="transparent" points="-4,4 -4,-537 1564,-537 1564,4 -4,4"/>
<!-- Node1 -->
<g id="node1" class="node">
<title>Node1</title>
<g id="a_node1"><a xlink:title=" ">
<polygon fill="#bfbfbf" stroke="black" points="1083,-502.5 1083,-532.5 1219,-532.5 1219,-502.5 1083,-502.5"/>
<text text-anchor="start" x="1091" y="-520.5" font-family="Helvetica" font-size="10.00">/hosthome/MaCh3_2.2.0</text>
<text text-anchor="middle" x="1151" y="-509.5" font-family="Helvetica" font-size="10.00">/Parameters/PCAHandler.h</text>
</a>
</g>
</g>
<!-- Node2 -->
<g id="node2" class="node">
<title>Node2</title>
<g id="a_node2"><a xlink:href="ParameterHandlerBase_8h.html" target="_top" xlink:title=" ">
<polygon fill="white" stroke="black" points="992,-424.5 992,-465.5 1144,-465.5 1144,-424.5 992,-424.5"/>
<text text-anchor="start" x="1000" y="-453.5" font-family="Helvetica" font-size="10.00">/hosthome/MaCh3_2.2.0</text>
<text text-anchor="start" x="1000" y="-442.5" font-family="Helvetica" font-size="10.00">/Parameters/ParameterHandler</text>
<text text-anchor="middle" x="1068" y="-431.5" font-family="Helvetica" font-size="10.00">Base.h</text>
</a>
</g>
</g>
<!-- Node1&#45;&gt;Node2 -->
<g id="edge1" class="edge">
<title>Node1&#45;&gt;Node2</title>
<path fill="none" stroke="midnightblue" d="M1126.46,-495.66C1115.26,-486.15 1102.07,-474.94 1091.06,-465.59"/>
<polygon fill="midnightblue" stroke="midnightblue" points="1124.32,-498.43 1134.2,-502.23 1128.85,-493.09 1124.32,-498.43"/>
</g>
<!-- Node31 -->
<g id="node31" class="node">
<title>Node31</title>
<g id="a_node31"><a xlink:href="PCAHandler_8cpp.html" target="_top" xlink:title=" ">
<polygon fill="white" stroke="black" points="1162,-430 1162,-460 1308,-460 1308,-430 1162,-430"/>
<text text-anchor="start" x="1170" y="-448" font-family="Helvetica" font-size="10.00">/hosthome/MaCh3_2.2.0</text>
<text text-anchor="middle" x="1235" y="-437" font-family="Helvetica" font-size="10.00">/Parameters/PCAHandler.cpp</text>
</a>
</g>
</g>
<!-- Node1&#45;&gt;Node31 -->
<g id="edge41" class="edge">
<title>Node1&#45;&gt;Node31</title>
<path fill="none" stroke="midnightblue" d="M1175.68,-495.79C1189.41,-484.27 1206.13,-470.23 1218.31,-460"/>
<polygon fill="midnightblue" stroke="midnightblue" points="1173.41,-493.12 1168,-502.23 1177.91,-498.49 1173.41,-493.12"/>
</g>
<!-- Node3 -->
<g id="node3" class="node">
<title>Node3</title>
<g id="a_node3"><a xlink:href="FitterBase_8h.html" target="_top" xlink:title=" ">
<polygon fill="white" stroke="black" points="528,-352 528,-382 652,-382 652,-352 528,-352"/>
<text text-anchor="start" x="536" y="-370" font-family="Helvetica" font-size="10.00">/hosthome/MaCh3_2.2.0</text>
<text text-anchor="middle" x="590" y="-359" font-family="Helvetica" font-size="10.00">/Fitters/FitterBase.h</text>
</a>
</g>
</g>
<!-- Node2&#45;&gt;Node3 -->
<g id="edge2" class="edge">
<title>Node2&#45;&gt;Node3</title>
<path fill="none" stroke="midnightblue" d="M981.84,-430.3C886.91,-415.21 736.55,-391.3 652.36,-377.92"/>
<polygon fill="midnightblue" stroke="midnightblue" points="981.57,-433.8 992,-431.92 982.67,-426.89 981.57,-433.8"/>
</g>
<!-- Node16 -->
<g id="node16" class="node">
<title>Node16</title>
<g id="a_node16"><a xlink:href="ParameterHandlerBase_8cpp.html" target="_top" xlink:title=" ">
<polygon fill="white" stroke="black" points="907,-346.5 907,-387.5 1059,-387.5 1059,-346.5 907,-346.5"/>
<text text-anchor="start" x="915" y="-375.5" font-family="Helvetica" font-size="10.00">/hosthome/MaCh3_2.2.0</text>
<text text-anchor="start" x="915" y="-364.5" font-family="Helvetica" font-size="10.00">/Parameters/ParameterHandler</text>
<text text-anchor="middle" x="983" y="-353.5" font-family="Helvetica" font-size="10.00">Base.cpp</text>
</a>
</g>
</g>
<!-- Node2&#45;&gt;Node16 -->
<g id="edge21" class="edge">
<title>Node2&#45;&gt;Node16</title>
<path fill="none" stroke="midnightblue" d="M1038.35,-417.49C1027.32,-407.63 1015.02,-396.63 1004.82,-387.51"/>
<polygon fill="midnightblue" stroke="midnightblue" points="1036.32,-420.37 1046.11,-424.43 1040.99,-415.15 1036.32,-420.37"/>
</g>
<!-- Node17 -->
<g id="node17" class="node">
<title>Node17</title>
<g id="a_node17"><a xlink:href="ParameterHandlerGeneric_8h.html" target="_top" xlink:title=" ">
<polygon fill="white" stroke="black" points="1077,-346.5 1077,-387.5 1229,-387.5 1229,-346.5 1077,-346.5"/>
<text text-anchor="start" x="1085" y="-375.5" font-family="Helvetica" font-size="10.00">/hosthome/MaCh3_2.2.0</text>
<text text-anchor="start" x="1085" y="-364.5" font-family="Helvetica" font-size="10.00">/Parameters/ParameterHandler</text>
<text text-anchor="middle" x="1153" y="-353.5" font-family="Helvetica" font-size="10.00">Generic.h</text>
</a>
</g>
</g>
<!-- Node2&#45;&gt;Node17 -->
<g id="edge22" class="edge">
<title>Node2&#45;&gt;Node17</title>
<path fill="none" stroke="midnightblue" d="M1097.65,-417.49C1108.68,-407.63 1120.98,-396.63 1131.18,-387.51"/>
<polygon fill="midnightblue" stroke="midnightblue" points="1095.01,-415.15 1089.89,-424.43 1099.68,-420.37 1095.01,-415.15"/>
</g>
<!-- Node30 -->
<g id="node30" class="node">
<title>Node30</title>
<g id="a_node30"><a xlink:href="parameters_8cpp.html" target="_top" xlink:title=" ">
<polygon fill="white" stroke="black" points="1436,-274 1436,-304 1560,-304 1560,-274 1436,-274"/>
<text text-anchor="start" x="1444" y="-292" font-family="Helvetica" font-size="10.00">/hosthome/MaCh3_2.2.0</text>
<text text-anchor="middle" x="1498" y="-281" font-family="Helvetica" font-size="10.00">/python/parameters.cpp</text>
</a>
</g>
</g>
<!-- Node2&#45;&gt;Node30 -->
<g id="edge40" class="edge">
<title>Node2&#45;&gt;Node30</title>
<path fill="none" stroke="midnightblue" d="M1139.29,-421.26C1169.79,-411.34 1205.74,-399.39 1238,-388 1318.51,-359.58 1411.98,-323.61 1462,-304.12"/>
<polygon fill="midnightblue" stroke="midnightblue" points="1138.02,-417.99 1129.59,-424.4 1140.18,-424.65 1138.02,-417.99"/>
</g>
<!-- Node4 -->
<g id="node4" class="node">
<title>Node4</title>
<g id="a_node4"><a xlink:href="FitterBase_8cpp.html" target="_top" xlink:title=" ">
<polygon fill="white" stroke="black" points="0,-274 0,-304 124,-304 124,-274 0,-274"/>
<text text-anchor="start" x="8" y="-292" font-family="Helvetica" font-size="10.00">/hosthome/MaCh3_2.2.0</text>
<text text-anchor="middle" x="62" y="-281" font-family="Helvetica" font-size="10.00">/Fitters/FitterBase.cpp</text>
</a>
</g>
</g>
<!-- Node3&#45;&gt;Node4 -->
<g id="edge3" class="edge">
<title>Node3&#45;&gt;Node4</title>
<path fill="none" stroke="midnightblue" d="M517.75,-360.06C428.13,-352 270.89,-335.6 138,-310 129.43,-308.35 120.39,-306.27 111.66,-304.09"/>
<polygon fill="midnightblue" stroke="midnightblue" points="517.54,-363.55 527.81,-360.95 518.16,-356.58 517.54,-363.55"/>
</g>
<!-- Node5 -->
<g id="node5" class="node">
<title>Node5</title>
<g id="a_node5"><a xlink:href="LikelihoodFit_8h.html" target="_top" xlink:title=" ">
<polygon fill="white" stroke="black" points="464,-274 464,-304 588,-304 588,-274 464,-274"/>
<text text-anchor="start" x="472" y="-292" font-family="Helvetica" font-size="10.00">/hosthome/MaCh3_2.2.0</text>
<text text-anchor="middle" x="526" y="-281" font-family="Helvetica" font-size="10.00">/Fitters/LikelihoodFit.h</text>
</a>
</g>
</g>
<!-- Node3&#45;&gt;Node5 -->
<g id="edge4" class="edge">
<title>Node3&#45;&gt;Node5</title>
<path fill="none" stroke="midnightblue" d="M571.31,-343.81C560.55,-331.03 547.36,-315.36 537.98,-304.23"/>
<polygon fill="midnightblue" stroke="midnightblue" points="568.84,-346.31 577.96,-351.7 574.2,-341.8 568.84,-346.31"/>
</g>
<!-- Node7 -->
<g id="node7" class="node">
<title>Node7</title>
<g id="a_node7"><a xlink:href="MaCh3Factory_8h.html" target="_top" xlink:title="Factory methods for MaCh3 software which streamline initialisation of different objects.">
<polygon fill="white" stroke="black" points="566,-134.5 566,-164.5 690,-164.5 690,-134.5 566,-134.5"/>
<text text-anchor="start" x="574" y="-152.5" font-family="Helvetica" font-size="10.00">/hosthome/MaCh3_2.2.0</text>
<text text-anchor="middle" x="628" y="-141.5" font-family="Helvetica" font-size="10.00">/Fitters/MaCh3Factory.h</text>
</a>
</g>
</g>
<!-- Node3&#45;&gt;Node7 -->
<g id="edge15" class="edge">
<title>Node3&#45;&gt;Node7</title>
<path fill="none" stroke="midnightblue" d="M596.07,-341.62C602.54,-314.88 612.71,-270.61 619,-232 622.82,-208.54 625.49,-181 626.88,-164.69"/>
<polygon fill="midnightblue" stroke="midnightblue" points="592.6,-341.07 593.62,-351.62 599.4,-342.74 592.6,-341.07"/>
</g>
<!-- Node11 -->
<g id="node11" class="node">
<title>Node11</title>
<g id="a_node11"><a xlink:href="fitters_8cpp.html" target="_top" xlink:title=" ">
<polygon fill="white" stroke="black" points="225,-134.5 225,-164.5 349,-164.5 349,-134.5 225,-134.5"/>
<text text-anchor="start" x="233" y="-152.5" font-family="Helvetica" font-size="10.00">/hosthome/MaCh3_2.2.0</text>
<text text-anchor="middle" x="287" y="-141.5" font-family="Helvetica" font-size="10.00">/python/fitters.cpp</text>
</a>
</g>
</g>
<!-- Node3&#45;&gt;Node11 -->
<g id="edge20" class="edge">
<title>Node3&#45;&gt;Node11</title>
<path fill="none" stroke="midnightblue" d="M517.77,-353.39C409.21,-332.8 212.27,-288.53 171,-232 148.72,-201.49 194.87,-178.26 235.39,-164.56"/>
<polygon fill="midnightblue" stroke="midnightblue" points="517.19,-356.84 527.67,-355.25 518.48,-349.96 517.19,-356.84"/>
</g>
<!-- Node14 -->
<g id="node14" class="node">
<title>Node14</title>
<g id="a_node14"><a xlink:href="mcmc_8h.html" target="_top" xlink:title=" ">
<polygon fill="white" stroke="black" points="682,-201.5 682,-231.5 806,-231.5 806,-201.5 682,-201.5"/>
<text text-anchor="start" x="690" y="-219.5" font-family="Helvetica" font-size="10.00">/hosthome/MaCh3_2.2.0</text>
<text text-anchor="middle" x="744" y="-208.5" font-family="Helvetica" font-size="10.00">/Fitters/mcmc.h</text>
</a>
</g>
</g>
<!-- Node3&#45;&gt;Node14 -->
<g id="edge16" class="edge">
<title>Node3&#45;&gt;Node14</title>
<path fill="none" stroke="midnightblue" d="M621.1,-346.42C635.99,-336.37 653.66,-323.43 668,-310 694.69,-284.99 720.61,-250.65 734.19,-231.63"/>
<polygon fill="midnightblue" stroke="midnightblue" points="619.1,-343.54 612.69,-351.98 622.96,-349.38 619.1,-343.54"/>
</g>
<!-- Node6 -->
<g id="node6" class="node">
<title>Node6</title>
<g id="a_node6"><a xlink:href="LikelihoodFit_8cpp.html" target="_top" xlink:title=" ">
<polygon fill="white" stroke="black" points="464,-201.5 464,-231.5 588,-231.5 588,-201.5 464,-201.5"/>
<text text-anchor="start" x="472" y="-219.5" font-family="Helvetica" font-size="10.00">/hosthome/MaCh3_2.2.0</text>
<text text-anchor="middle" x="526" y="-208.5" font-family="Helvetica" font-size="10.00">/Fitters/LikelihoodFit.cpp</text>
</a>
</g>
</g>
<!-- Node5&#45;&gt;Node6 -->
<g id="edge5" class="edge">
<title>Node5&#45;&gt;Node6</title>
<path fill="none" stroke="midnightblue" d="M526,-263.73C526,-253.07 526,-240.91 526,-231.75"/>
<polygon fill="midnightblue" stroke="midnightblue" points="522.5,-263.73 526,-273.73 529.5,-263.73 522.5,-263.73"/>
</g>
<!-- Node5&#45;&gt;Node7 -->
<g id="edge6" class="edge">
<title>Node5&#45;&gt;Node7</title>
<path fill="none" stroke="midnightblue" d="M558.4,-268.12C571.82,-258.57 586.64,-246.12 597,-232 612.32,-211.13 621,-181.78 625.08,-164.59"/>
<polygon fill="midnightblue" stroke="midnightblue" points="556.13,-265.43 549.85,-273.97 560.08,-271.21 556.13,-265.43"/>
</g>
<!-- Node9 -->
<g id="node9" class="node">
<title>Node9</title>
<g id="a_node9"><a xlink:href="MinuitFit_8h.html" target="_top" xlink:title=" ">
<polygon fill="white" stroke="black" points="180,-201.5 180,-231.5 304,-231.5 304,-201.5 180,-201.5"/>
<text text-anchor="start" x="188" y="-219.5" font-family="Helvetica" font-size="10.00">/hosthome/MaCh3_2.2.0</text>
<text text-anchor="middle" x="242" y="-208.5" font-family="Helvetica" font-size="10.00">/Fitters/MinuitFit.h</text>
</a>
</g>
</g>
<!-- Node5&#45;&gt;Node9 -->
<g id="edge8" class="edge">
<title>Node5&#45;&gt;Node9</title>
<path fill="none" stroke="midnightblue" d="M459.72,-271.55C410.91,-259.43 345.24,-243.13 298.83,-231.61"/>
<polygon fill="midnightblue" stroke="midnightblue" points="459,-274.97 469.55,-273.99 460.69,-268.18 459,-274.97"/>
</g>
<!-- Node12 -->
<g id="node12" class="node">
<title>Node12</title>
<g id="a_node12"><a xlink:href="PSO_8h.html" target="_top" xlink:title=" ">
<polygon fill="white" stroke="black" points="322,-201.5 322,-231.5 446,-231.5 446,-201.5 322,-201.5"/>
<text text-anchor="start" x="330" y="-219.5" font-family="Helvetica" font-size="10.00">/hosthome/MaCh3_2.2.0</text>
<text text-anchor="middle" x="384" y="-208.5" font-family="Helvetica" font-size="10.00">/Fitters/PSO.h</text>
</a>
</g>
</g>
<!-- Node5&#45;&gt;Node12 -->
<g id="edge11" class="edge">
<title>Node5&#45;&gt;Node12</title>
<path fill="none" stroke="midnightblue" d="M488.48,-269.37C464.61,-257.52 434.2,-242.42 412.35,-231.57"/>
<polygon fill="midnightblue" stroke="midnightblue" points="487.09,-272.59 497.61,-273.9 490.21,-266.32 487.09,-272.59"/>
</g>
<!-- Node8 -->
<g id="node8" class="node">
<title>Node8</title>
<g id="a_node8"><a xlink:href="MaCh3Factory_8cpp.html" target="_top" xlink:title=" ">
<polygon fill="white" stroke="black" points="561,-67.5 561,-97.5 695,-97.5 695,-67.5 561,-67.5"/>
<text text-anchor="start" x="569" y="-85.5" font-family="Helvetica" font-size="10.00">/hosthome/MaCh3_2.2.0</text>
<text text-anchor="middle" x="628" y="-74.5" font-family="Helvetica" font-size="10.00">/Fitters/MaCh3Factory.cpp</text>
</a>
</g>
</g>
<!-- Node7&#45;&gt;Node8 -->
<g id="edge7" class="edge">
<title>Node7&#45;&gt;Node8</title>
<path fill="none" stroke="midnightblue" d="M628,-124.11C628,-115.15 628,-105.32 628,-97.58"/>
<polygon fill="midnightblue" stroke="midnightblue" points="624.5,-124.4 628,-134.4 631.5,-124.4 624.5,-124.4"/>
</g>
<!-- Node10 -->
<g id="node10" class="node">
<title>Node10</title>
<g id="a_node10"><a xlink:href="MinuitFit_8cpp.html" target="_top" xlink:title=" ">
<polygon fill="white" stroke="black" points="83,-134.5 83,-164.5 207,-164.5 207,-134.5 83,-134.5"/>
<text text-anchor="start" x="91" y="-152.5" font-family="Helvetica" font-size="10.00">/hosthome/MaCh3_2.2.0</text>
<text text-anchor="middle" x="145" y="-141.5" font-family="Helvetica" font-size="10.00">/Fitters/MinuitFit.cpp</text>
</a>
</g>
</g>
<!-- Node9&#45;&gt;Node10 -->
<g id="edge9" class="edge">
<title>Node9&#45;&gt;Node10</title>
<path fill="none" stroke="midnightblue" d="M212.5,-195.73C197.49,-185.68 179.6,-173.68 166.01,-164.58"/>
<polygon fill="midnightblue" stroke="midnightblue" points="210.7,-198.74 220.95,-201.4 214.59,-192.92 210.7,-198.74"/>
</g>
<!-- Node9&#45;&gt;Node11 -->
<g id="edge10" class="edge">
<title>Node9&#45;&gt;Node11</title>
<path fill="none" stroke="midnightblue" d="M257.47,-193.16C264.03,-183.68 271.48,-172.92 277.25,-164.58"/>
<polygon fill="midnightblue" stroke="midnightblue" points="254.58,-191.18 251.76,-201.4 260.33,-195.17 254.58,-191.18"/>
</g>
<!-- Node12&#45;&gt;Node7 -->
<g id="edge12" class="edge">
<title>Node12&#45;&gt;Node7</title>
<path fill="none" stroke="midnightblue" d="M446.5,-198.85C486.28,-188.25 537.24,-174.68 575.03,-164.61"/>
<polygon fill="midnightblue" stroke="midnightblue" points="445.41,-195.52 436.64,-201.48 447.21,-202.28 445.41,-195.52"/>
</g>
<!-- Node12&#45;&gt;Node11 -->
<g id="edge14" class="edge">
<title>Node12&#45;&gt;Node11</title>
<path fill="none" stroke="midnightblue" d="M354.5,-195.73C339.49,-185.68 321.6,-173.68 308.01,-164.58"/>
<polygon fill="midnightblue" stroke="midnightblue" points="352.7,-198.74 362.95,-201.4 356.59,-192.92 352.7,-198.74"/>
</g>
<!-- Node13 -->
<g id="node13" class="node">
<title>Node13</title>
<g id="a_node13"><a xlink:href="PSO_8cpp.html" target="_top" xlink:title=" ">
<polygon fill="white" stroke="black" points="367,-134.5 367,-164.5 491,-164.5 491,-134.5 367,-134.5"/>
<text text-anchor="start" x="375" y="-152.5" font-family="Helvetica" font-size="10.00">/hosthome/MaCh3_2.2.0</text>
<text text-anchor="middle" x="429" y="-141.5" font-family="Helvetica" font-size="10.00">/Fitters/PSO.cpp</text>
</a>
</g>
</g>
<!-- Node12&#45;&gt;Node13 -->
<g id="edge13" class="edge">
<title>Node12&#45;&gt;Node13</title>
<path fill="none" stroke="midnightblue" d="M399.47,-193.16C406.03,-183.68 413.48,-172.92 419.25,-164.58"/>
<polygon fill="midnightblue" stroke="midnightblue" points="396.58,-191.18 393.76,-201.4 402.33,-195.17 396.58,-191.18"/>
</g>
<!-- Node14&#45;&gt;Node7 -->
<g id="edge17" class="edge">
<title>Node14&#45;&gt;Node7</title>
<path fill="none" stroke="midnightblue" d="M709.73,-196.3C691.58,-186.12 669.68,-173.85 653.12,-164.58"/>
<polygon fill="midnightblue" stroke="midnightblue" points="708.4,-199.56 718.83,-201.4 711.82,-193.45 708.4,-199.56"/>
</g>
<!-- Node14&#45;&gt;Node11 -->
<g id="edge19" class="edge">
<title>Node14&#45;&gt;Node11</title>
<path fill="none" stroke="midnightblue" d="M671.8,-207.61C594.07,-198.76 466.93,-183.22 358,-165 355.15,-164.52 352.23,-164.01 349.29,-163.48"/>
<polygon fill="midnightblue" stroke="midnightblue" points="671.63,-211.12 681.96,-208.76 672.42,-204.16 671.63,-211.12"/>
</g>
<!-- Node15 -->
<g id="node15" class="node">
<title>Node15</title>
<g id="a_node15"><a xlink:href="mcmc_8cpp.html" target="_top" xlink:title=" ">
<polygon fill="white" stroke="black" points="708,-134.5 708,-164.5 832,-164.5 832,-134.5 708,-134.5"/>
<text text-anchor="start" x="716" y="-152.5" font-family="Helvetica" font-size="10.00">/hosthome/MaCh3_2.2.0</text>
<text text-anchor="middle" x="770" y="-141.5" font-family="Helvetica" font-size="10.00">/Fitters/mcmc.cpp</text>
</a>
</g>
</g>
<!-- Node14&#45;&gt;Node15 -->
<g id="edge18" class="edge">
<title>Node14&#45;&gt;Node15</title>
<path fill="none" stroke="midnightblue" d="M753.4,-191.99C757.08,-182.8 761.17,-172.58 764.37,-164.58"/>
<polygon fill="midnightblue" stroke="midnightblue" points="750.11,-190.81 749.64,-201.4 756.61,-193.41 750.11,-190.81"/>
</g>
<!-- Node17&#45;&gt;Node7 -->
<g id="edge37" class="edge">
<title>Node17&#45;&gt;Node7</title>
<path fill="none" stroke="midnightblue" d="M1066.37,-345.75C996.34,-331.22 970.46,-344.66 912,-310 856.22,-276.93 870.16,-235.1 815,-201 794.12,-188.09 736.23,-173.48 690.34,-163.31"/>
<polygon fill="midnightblue" stroke="midnightblue" points="1066.03,-349.26 1076.55,-347.99 1067.54,-342.42 1066.03,-349.26"/>
</g>
<!-- Node18 -->
<g id="node18" class="node">
<title>Node18</title>
<g id="a_node18"><a xlink:href="SplineStructs_8h.html" target="_top" xlink:title="Contains structures and helper functions for handling spline representations of systematic parameters...">
<polygon fill="white" stroke="black" points="1091,-274 1091,-304 1215,-304 1215,-274 1091,-274"/>
<text text-anchor="start" x="1099" y="-292" font-family="Helvetica" font-size="10.00">/hosthome/MaCh3_2.2.0</text>
<text text-anchor="middle" x="1153" y="-281" font-family="Helvetica" font-size="10.00">/Splines/SplineStructs.h</text>
</a>
</g>
</g>
<!-- Node17&#45;&gt;Node18 -->
<g id="edge23" class="edge">
<title>Node17&#45;&gt;Node18</title>
<path fill="none" stroke="midnightblue" d="M1153,-336.28C1153,-325.25 1153,-313.25 1153,-304.23"/>
<polygon fill="midnightblue" stroke="midnightblue" points="1149.5,-336.43 1153,-346.43 1156.5,-336.43 1149.5,-336.43"/>
</g>
<!-- Node22 -->
<g id="node22" class="node">
<title>Node22</title>
<g id="a_node22"><a xlink:href="SampleHandlerFD_8h.html" target="_top" xlink:title=" ">
<polygon fill="white" stroke="black" points="1333.5,-67.5 1333.5,-97.5 1482.5,-97.5 1482.5,-67.5 1333.5,-67.5"/>
<text text-anchor="start" x="1341.5" y="-85.5" font-family="Helvetica" font-size="10.00">/hosthome/MaCh3_2.2.0</text>
<text text-anchor="middle" x="1408" y="-74.5" font-family="Helvetica" font-size="10.00">/Samples/SampleHandlerFD.h</text>
</a>
</g>
</g>
<!-- Node17&#45;&gt;Node22 -->
<g id="edge36" class="edge">
<title>Node17&#45;&gt;Node22</title>
<path fill="none" stroke="midnightblue" d="M1196.82,-341.16C1250.84,-308.15 1341.34,-244.61 1389,-165 1401.69,-143.81 1405.9,-114.82 1407.3,-97.74"/>
<polygon fill="midnightblue" stroke="midnightblue" points="1194.9,-338.23 1188.15,-346.39 1198.52,-344.23 1194.9,-338.23"/>
</g>
<!-- Node29 -->
<g id="node29" class="node">
<title>Node29</title>
<g id="a_node29"><a xlink:href="ParameterHandlerGeneric_8cpp.html" target="_top" xlink:title=" ">
<polygon fill="white" stroke="black" points="921,-268.5 921,-309.5 1073,-309.5 1073,-268.5 921,-268.5"/>
<text text-anchor="start" x="929" y="-297.5" font-family="Helvetica" font-size="10.00">/hosthome/MaCh3_2.2.0</text>
<text text-anchor="start" x="929" y="-286.5" font-family="Helvetica" font-size="10.00">/Parameters/ParameterHandler</text>
<text text-anchor="middle" x="997" y="-275.5" font-family="Helvetica" font-size="10.00">Generic.cpp</text>
</a>
</g>
</g>
<!-- Node17&#45;&gt;Node29 -->
<g id="edge38" class="edge">
<title>Node17&#45;&gt;Node29</title>
<path fill="none" stroke="midnightblue" d="M1103.55,-341.91C1082.1,-331.46 1057.31,-319.38 1037.04,-309.51"/>
<polygon fill="midnightblue" stroke="midnightblue" points="1102.3,-345.19 1112.83,-346.43 1105.37,-338.9 1102.3,-345.19"/>
</g>
<!-- Node17&#45;&gt;Node30 -->
<g id="edge39" class="edge">
<title>Node17&#45;&gt;Node30</title>
<path fill="none" stroke="midnightblue" d="M1239.2,-349.24C1292.1,-338.66 1361.15,-324.33 1422,-310 1429.84,-308.15 1438.1,-306.1 1446.17,-304.02"/>
<polygon fill="midnightblue" stroke="midnightblue" points="1238.3,-345.85 1229.18,-351.24 1239.67,-352.72 1238.3,-345.85"/>
</g>
<!-- Node19 -->
<g id="node19" class="node">
<title>Node19</title>
<g id="a_node19"><a xlink:href="SplineBase_8h.html" target="_top" xlink:title=" ">
<polygon fill="white" stroke="black" points="1091,-201.5 1091,-231.5 1215,-231.5 1215,-201.5 1091,-201.5"/>
<text text-anchor="start" x="1099" y="-219.5" font-family="Helvetica" font-size="10.00">/hosthome/MaCh3_2.2.0</text>
<text text-anchor="middle" x="1153" y="-208.5" font-family="Helvetica" font-size="10.00">/Splines/SplineBase.h</text>
</a>
</g>
</g>
<!-- Node18&#45;&gt;Node19 -->
<g id="edge24" class="edge">
<title>Node18&#45;&gt;Node19</title>
<path fill="none" stroke="midnightblue" d="M1153,-263.73C1153,-253.07 1153,-240.91 1153,-231.75"/>
<polygon fill="midnightblue" stroke="midnightblue" points="1149.5,-263.73 1153,-273.73 1156.5,-263.73 1149.5,-263.73"/>
</g>
<!-- Node28 -->
<g id="node28" class="node">
<title>Node28</title>
<g id="a_node28"><a xlink:href="splines_8cpp.html" target="_top" xlink:title=" ">
<polygon fill="white" stroke="black" points="831,-67.5 831,-97.5 955,-97.5 955,-67.5 831,-67.5"/>
<text text-anchor="start" x="839" y="-85.5" font-family="Helvetica" font-size="10.00">/hosthome/MaCh3_2.2.0</text>
<text text-anchor="middle" x="893" y="-74.5" font-family="Helvetica" font-size="10.00">/python/splines.cpp</text>
</a>
</g>
</g>
<!-- Node18&#45;&gt;Node28 -->
<g id="edge35" class="edge">
<title>Node18&#45;&gt;Node28</title>
<path fill="none" stroke="midnightblue" d="M1099.99,-270.69C1030.56,-246.81 914.8,-202.47 891,-165 878.02,-144.57 883.27,-115.07 888.19,-97.73"/>
<polygon fill="midnightblue" stroke="midnightblue" points="1098.88,-274 1109.47,-273.92 1101.14,-267.38 1098.88,-274"/>
</g>
<!-- Node20 -->
<g id="node20" class="node">
<title>Node20</title>
<g id="a_node20"><a xlink:href="BinnedSplineHandler_8h.html" target="_top" xlink:title=" ">
<polygon fill="white" stroke="black" points="1226,-134.5 1226,-164.5 1380,-164.5 1380,-134.5 1226,-134.5"/>
<text text-anchor="start" x="1234" y="-152.5" font-family="Helvetica" font-size="10.00">/hosthome/MaCh3_2.2.0</text>
<text text-anchor="middle" x="1303" y="-141.5" font-family="Helvetica" font-size="10.00">/Splines/BinnedSplineHandler.h</text>
</a>
</g>
</g>
<!-- Node19&#45;&gt;Node20 -->
<g id="edge25" class="edge">
<title>Node19&#45;&gt;Node20</title>
<path fill="none" stroke="midnightblue" d="M1194.75,-197.41C1218.7,-187.03 1248.32,-174.2 1270.52,-164.58"/>
<polygon fill="midnightblue" stroke="midnightblue" points="1193.33,-194.21 1185.55,-201.4 1196.11,-200.63 1193.33,-194.21"/>
</g>
<!-- Node25 -->
<g id="node25" class="node">
<title>Node25</title>
<g id="a_node25"><a xlink:href="SplineBase_8cpp.html" target="_top" xlink:title=" ">
<polygon fill="white" stroke="black" points="1046,-134.5 1046,-164.5 1170,-164.5 1170,-134.5 1046,-134.5"/>
<text text-anchor="start" x="1054" y="-152.5" font-family="Helvetica" font-size="10.00">/hosthome/MaCh3_2.2.0</text>
<text text-anchor="middle" x="1108" y="-141.5" font-family="Helvetica" font-size="10.00">/Splines/SplineBase.cpp</text>
</a>
</g>
</g>
<!-- Node19&#45;&gt;Node25 -->
<g id="edge30" class="edge">
<title>Node19&#45;&gt;Node25</title>
<path fill="none" stroke="midnightblue" d="M1137.53,-193.16C1130.97,-183.68 1123.52,-172.92 1117.75,-164.58"/>
<polygon fill="midnightblue" stroke="midnightblue" points="1134.67,-195.17 1143.24,-201.4 1140.42,-191.18 1134.67,-195.17"/>
</g>
<!-- Node26 -->
<g id="node26" class="node">
<title>Node26</title>
<g id="a_node26"><a xlink:href="SplineMonolith_8h.html" target="_top" xlink:title=" ">
<polygon fill="white" stroke="black" points="900.5,-134.5 900.5,-164.5 1027.5,-164.5 1027.5,-134.5 900.5,-134.5"/>
<text text-anchor="start" x="908.5" y="-152.5" font-family="Helvetica" font-size="10.00">/hosthome/MaCh3_2.2.0</text>
<text text-anchor="middle" x="964" y="-141.5" font-family="Helvetica" font-size="10.00">/Splines/SplineMonolith.h</text>
</a>
</g>
</g>
<!-- Node19&#45;&gt;Node26 -->
<g id="edge31" class="edge">
<title>Node19&#45;&gt;Node26</title>
<path fill="none" stroke="midnightblue" d="M1102.38,-198.09C1071.87,-187.6 1033.52,-174.41 1004.93,-164.58"/>
<polygon fill="midnightblue" stroke="midnightblue" points="1101.4,-201.45 1111.99,-201.4 1103.67,-194.83 1101.4,-201.45"/>
</g>
<!-- Node19&#45;&gt;Node28 -->
<g id="edge34" class="edge">
<title>Node19&#45;&gt;Node28</title>
<path fill="none" stroke="midnightblue" d="M1170.92,-192.63C1182.52,-174.89 1193.05,-150.6 1179,-134 1147.7,-97.03 1011.63,-106.85 964,-98 961.16,-97.47 958.25,-96.92 955.31,-96.36"/>
<polygon fill="midnightblue" stroke="midnightblue" points="1167.77,-191.03 1164.89,-201.23 1173.5,-195.05 1167.77,-191.03"/>
</g>
<!-- Node21 -->
<g id="node21" class="node">
<title>Node21</title>
<g id="a_node21"><a xlink:href="BinnedSplineHandler_8cpp.html" target="_top" xlink:title=" ">
<polygon fill="white" stroke="black" points="1151,-67.5 1151,-97.5 1315,-97.5 1315,-67.5 1151,-67.5"/>
<text text-anchor="start" x="1159" y="-85.5" font-family="Helvetica" font-size="10.00">/hosthome/MaCh3_2.2.0</text>
<text text-anchor="middle" x="1233" y="-74.5" font-family="Helvetica" font-size="10.00">/Splines/BinnedSplineHandler.cpp</text>
</a>
</g>
</g>
<!-- Node20&#45;&gt;Node21 -->
<g id="edge26" class="edge">
<title>Node20&#45;&gt;Node21</title>
<path fill="none" stroke="midnightblue" d="M1280.18,-127.31C1269.68,-117.56 1257.51,-106.26 1248.16,-97.58"/>
<polygon fill="midnightblue" stroke="midnightblue" points="1278.1,-130.16 1287.81,-134.4 1282.86,-125.03 1278.1,-130.16"/>
</g>
<!-- Node20&#45;&gt;Node22 -->
<g id="edge27" class="edge">
<title>Node20&#45;&gt;Node22</title>
<path fill="none" stroke="midnightblue" d="M1334.48,-129.02C1350.82,-118.9 1370.41,-106.77 1385.26,-97.58"/>
<polygon fill="midnightblue" stroke="midnightblue" points="1332.44,-126.16 1325.78,-134.4 1336.13,-132.11 1332.44,-126.16"/>
</g>
<!-- Node23 -->
<g id="node23" class="node">
<title>Node23</title>
<g id="a_node23"><a xlink:href="SampleHandlerFD_8cpp.html" target="_top" xlink:title=" ">
<polygon fill="white" stroke="black" points="1248,-0.5 1248,-30.5 1408,-30.5 1408,-0.5 1248,-0.5"/>
<text text-anchor="start" x="1256" y="-18.5" font-family="Helvetica" font-size="10.00">/hosthome/MaCh3_2.2.0</text>
<text text-anchor="middle" x="1328" y="-7.5" font-family="Helvetica" font-size="10.00">/Samples/SampleHandlerFD.cpp</text>
</a>
</g>
</g>
<!-- Node22&#45;&gt;Node23 -->
<g id="edge28" class="edge">
<title>Node22&#45;&gt;Node23</title>
<path fill="none" stroke="midnightblue" d="M1382.63,-60.88C1370.47,-51.01 1356.22,-39.43 1345.32,-30.58"/>
<polygon fill="midnightblue" stroke="midnightblue" points="1380.67,-63.81 1390.64,-67.4 1385.09,-58.37 1380.67,-63.81"/>
</g>
<!-- Node24 -->
<g id="node24" class="node">
<title>Node24</title>
<g id="a_node24"><a xlink:href="samples_8cpp.html" target="_top" xlink:title=" ">
<polygon fill="white" stroke="black" points="1426,-0.5 1426,-30.5 1550,-30.5 1550,-0.5 1426,-0.5"/>
<text text-anchor="start" x="1434" y="-18.5" font-family="Helvetica" font-size="10.00">/hosthome/MaCh3_2.2.0</text>
<text text-anchor="middle" x="1488" y="-7.5" font-family="Helvetica" font-size="10.00">/python/samples.cpp</text>
</a>
</g>
</g>
<!-- Node22&#45;&gt;Node24 -->
<g id="edge29" class="edge">
<title>Node22&#45;&gt;Node24</title>
<path fill="none" stroke="midnightblue" d="M1433.37,-60.88C1445.53,-51.01 1459.78,-39.43 1470.68,-30.58"/>
<polygon fill="midnightblue" stroke="midnightblue" points="1430.91,-58.37 1425.36,-67.4 1435.33,-63.81 1430.91,-58.37"/>
</g>
<!-- Node27 -->
<g id="node27" class="node">
<title>Node27</title>
<g id="a_node27"><a xlink:href="SplineMonolith_8cpp.html" target="_top" xlink:title=" ">
<polygon fill="white" stroke="black" points="973.5,-67.5 973.5,-97.5 1110.5,-97.5 1110.5,-67.5 973.5,-67.5"/>
<text text-anchor="start" x="981.5" y="-85.5" font-family="Helvetica" font-size="10.00">/hosthome/MaCh3_2.2.0</text>
<text text-anchor="middle" x="1042" y="-74.5" font-family="Helvetica" font-size="10.00">/Splines/SplineMonolith.cpp</text>
</a>
</g>
</g>
<!-- Node26&#45;&gt;Node27 -->
<g id="edge32" class="edge">
<title>Node26&#45;&gt;Node27</title>
<path fill="none" stroke="midnightblue" d="M988.74,-127.88C1000.59,-118.01 1014.48,-106.43 1025.11,-97.58"/>
<polygon fill="midnightblue" stroke="midnightblue" points="986.37,-125.31 980.92,-134.4 990.85,-130.68 986.37,-125.31"/>
</g>
<!-- Node26&#45;&gt;Node28 -->
<g id="edge33" class="edge">
<title>Node26&#45;&gt;Node28</title>
<path fill="none" stroke="midnightblue" d="M941.17,-127.6C930.45,-117.78 917.95,-106.34 908.38,-97.58"/>
<polygon fill="midnightblue" stroke="midnightblue" points="938.85,-130.22 948.59,-134.4 943.58,-125.06 938.85,-130.22"/>
</g>
</g>
</svg>
        <g id="navigator" transform="translate(0 0)" fill="#404254">
                <rect fill="#f2f5e9" fill-opacity="0.5" stroke="#606060" stroke-width=".5" x="0" y="0" width="60" height="60"/>
                <use id="zoomplus" xlink:href="#zoomPlus" x="17" y="9" onmousedown="handleZoom(evt,'in')"/>
                <use id="zoomminus" xlink:href="#zoomMin" x="42" y="9" onmousedown="handleZoom(evt,'out')"/>
                <use id="reset" xlink:href="#resetDef" x="30" y="36" onmousedown="handleReset()"/>
                <g id="arrowUp" xlink:href="#dirArrow" transform="translate(30 24)" onmousedown="handlePan(0,-1)">
                  <use xlink:href="#rim" fill="#404040">
                        <set attributeName="fill" to="#808080" begin="arrowUp.mouseover" end="arrowUp.mouseout"/>
                  </use>
                  <path fill="none" stroke="white" stroke-width="1.5" d="M0,-3.0v7 M-2.5,-0.5L0,-3.0L2.5,-0.5"/>
                </g>
                <g id="arrowRight" xlink:href="#dirArrow" transform="rotate(90) translate(36 -43)" onmousedown="handlePan(1,0)">
                  <use xlink:href="#rim" fill="#404040">
                        <set attributeName="fill" to="#808080" begin="arrowRight.mouseover" end="arrowRight.mouseout"/>
                  </use>
                  <path fill="none" stroke="white" stroke-width="1.5" d="M0,-3.0v7 M-2.5,-0.5L0,-3.0L2.5,-0.5"/>
                </g>
                <g id="arrowDown" xlink:href="#dirArrow" transform="rotate(180) translate(-30 -48)" onmousedown="handlePan(0,1)">
                  <use xlink:href="#rim" fill="#404040">
                        <set attributeName="fill" to="#808080" begin="arrowDown.mouseover" end="arrowDown.mouseout"/>
                  </use>
                  <path fill="none" stroke="white" stroke-width="1.5" d="M0,-3.0v7 M-2.5,-0.5L0,-3.0L2.5,-0.5"/>
                </g>
                <g id="arrowLeft" xlink:href="#dirArrow" transform="rotate(270) translate(-36 17)" onmousedown="handlePan(-1,0)">
                  <use xlink:href="#rim" fill="#404040">
                        <set attributeName="fill" to="#808080" begin="arrowLeft.mouseover" end="arrowLeft.mouseout"/>
                  </use>
                  <path fill="none" stroke="white" stroke-width="1.5" d="M0,-3.0v7 M-2.5,-0.5L0,-3.0L2.5,-0.5"/>
                </g>
        </g>
        <svg viewBox="0 0 15 15" width="100%" height="30px" preserveAspectRatio="xMaxYMin meet">
         <g id="arrow_out" transform="scale(0.3 0.3)">
          <a xlink:href="PCAHandler_8h__dep__incl_org.svg" target="_base">
           <rect id="button" ry="5" rx="5" y="6" x="6" height="38" width="38"
                fill="#f2f5e9" fill-opacity="0.5" stroke="#606060" stroke-width="1.0"/>
           <path id="arrow"
             d="M 11.500037,31.436501 C 11.940474,20.09759 22.043105,11.32322 32.158766,21.979434 L 37.068811,17.246167 C 37.068811,17.246167 37.088388,32 37.088388,32 L 22.160133,31.978069 C 22.160133,31.978069 26.997745,27.140456 26.997745,27.140456 C 18.528582,18.264221 13.291696,25.230495 11.500037,31.436501 z"
             style="fill:#404040;"/>
          </a>
         </g>
        </svg>
</svg>
