<?xml version="1.0" encoding="UTF-8" standalone="no"?>
<!DOCTYPE svg PUBLIC "-//W3C//DTD SVG 1.1//EN"
 "http://www.w3.org/Graphics/SVG/1.1/DTD/svg11.dtd">
<!-- Generated by graphviz version 2.44.0 (0)
 -->
<!-- Title: /hosthome/MaCh3_2.2.0/Splines/SplineStructs.h Pages: 1 -->
<!--zoomable 307 -->
<svg id="main" version="1.1" xmlns="http://www.w3.org/2000/svg" xmlns:xlink="http://www.w3.org/1999/xlink" xml:space="preserve" onload="init(evt)">
<style type="text/css"><![CDATA[
.edge:hover path { stroke: red; }
.edge:hover polygon { stroke: red; fill: red; }
]]></style>
<script type="text/javascript"><![CDATA[
var edges = document.getElementsByTagName('g');
if (edges && edges.length) {
  for (var i=0;i<edges.length;i++) {
    if (edges[i].id.substr(0,4)=='edge') {
      edges[i].setAttribute('class','edge');
    }
  }
}
]]></script>
        <defs>
                <circle id="rim" cx="0" cy="0" r="7"/>
                <circle id="rim2" cx="0" cy="0" r="3.5"/>
                <g id="zoomPlus">
                        <use xlink:href="#rim" fill="#404040">
                                <set attributeName="fill" to="#808080" begin="zoomplus.mouseover" end="zoomplus.mouseout"/>
                        </use>
                        <path d="M-4,0h8M0,-4v8" fill="none" stroke="white" stroke-width="1.5" pointer-events="none"/>
                </g>
                <g id="zoomMin">
                        <use xlink:href="#rim" fill="#404040">
                                <set attributeName="fill" to="#808080" begin="zoomminus.mouseover" end="zoomminus.mouseout"/>
                        </use>
                        <path d="M-4,0h8" fill="none" stroke="white" stroke-width="1.5" pointer-events="none"/>
                </g>
                <g id="dirArrow">
                        <path fill="none" stroke="white" stroke-width="1.5" d="M0,-3.0v7 M-2.5,-0.5L0,-3.0L2.5,-0.5"/>
                </g>
               <g id="resetDef">
                       <use xlink:href="#rim2" fill="#404040">
                               <set attributeName="fill" to="#808080" begin="reset.mouseover" end="reset.mouseout"/>
                       </use>
               </g>
        </defs>

<script type="text/javascript">
var viewWidth = 697;
var viewHeight = 307;
var sectionId = 'dynsection-1';
</script>
<script xlink:href="svgpan.js"/>
<svg id="graph" class="graph">
<g id="viewport">
<title>/hosthome/MaCh3_2.2.0/Splines/SplineStructs.h</title>
<polygon fill="white" stroke="transparent" points="-4,4 -4,-303 693,-303 693,4 -4,4"/>
<!-- Node1 -->
<g id="node1" class="node">
<title>Node1</title>
<g id="a_node1"><a xlink:title="Contains structures and helper functions for handling spline representations of systematic parameters...">
<polygon fill="#bfbfbf" stroke="black" points="519,-268.5 519,-298.5 643,-298.5 643,-268.5 519,-268.5"/>
<text text-anchor="start" x="527" y="-286.5" font-family="Helvetica" font-size="10.00">/hosthome/MaCh3_2.2.0</text>
<text text-anchor="middle" x="581" y="-275.5" font-family="Helvetica" font-size="10.00">/Splines/SplineStructs.h</text>
</a>
</g>
</g>
<!-- Node2 -->
<g id="node2" class="node">
<title>Node2</title>
<g id="a_node2"><a xlink:href="SplineBase_8h.html" target="_top" xlink:title=" ">
<polygon fill="white" stroke="black" points="454,-201.5 454,-231.5 578,-231.5 578,-201.5 454,-201.5"/>
<text text-anchor="start" x="462" y="-219.5" font-family="Helvetica" font-size="10.00">/hosthome/MaCh3_2.2.0</text>
<text text-anchor="middle" x="516" y="-208.5" font-family="Helvetica" font-size="10.00">/Splines/SplineBase.h</text>
</a>
</g>
</g>
<!-- Node1&#45;&gt;Node2 -->
<g id="edge1" class="edge">
<title>Node1&#45;&gt;Node2</title>
<path fill="none" stroke="midnightblue" d="M559.81,-261.31C550.06,-251.56 538.76,-240.26 530.08,-231.58"/>
<polygon fill="midnightblue" stroke="midnightblue" points="557.35,-263.8 566.9,-268.4 562.3,-258.85 557.35,-263.8"/>
</g>
<!-- Node11 -->
<g id="node11" class="node">
<title>Node11</title>
<g id="a_node11"><a xlink:href="splines_8cpp.html" target="_top" xlink:title=" ">
<polygon fill="white" stroke="black" points="565,-67.5 565,-97.5 689,-97.5 689,-67.5 565,-67.5"/>
<text text-anchor="start" x="573" y="-85.5" font-family="Helvetica" font-size="10.00">/hosthome/MaCh3_2.2.0</text>
<text text-anchor="middle" x="627" y="-74.5" font-family="Helvetica" font-size="10.00">/python/splines.cpp</text>
</a>
</g>
</g>
<!-- Node1&#45;&gt;Node11 -->
<g id="edge12" class="edge">
<title>Node1&#45;&gt;Node11</title>
<path fill="none" stroke="midnightblue" d="M587.86,-258.64C594.53,-234.99 604.69,-197.67 612,-165 617.24,-141.55 622.03,-114.01 624.72,-97.7"/>
<polygon fill="midnightblue" stroke="midnightblue" points="584.44,-257.9 585.07,-268.48 591.17,-259.81 584.44,-257.9"/>
</g>
<!-- Node3 -->
<g id="node3" class="node">
<title>Node3</title>
<g id="a_node3"><a xlink:href="BinnedSplineHandler_8h.html" target="_top" xlink:title=" ">
<polygon fill="white" stroke="black" points="138,-134.5 138,-164.5 292,-164.5 292,-134.5 138,-134.5"/>
<text text-anchor="start" x="146" y="-152.5" font-family="Helvetica" font-size="10.00">/hosthome/MaCh3_2.2.0</text>
<text text-anchor="middle" x="215" y="-141.5" font-family="Helvetica" font-size="10.00">/Splines/BinnedSplineHandler.h</text>
</a>
</g>
</g>
<!-- Node2&#45;&gt;Node3 -->
<g id="edge2" class="edge">
<title>Node2&#45;&gt;Node3</title>
<path fill="none" stroke="midnightblue" d="M443.93,-199.94C394.08,-189.17 328.3,-174.97 280.04,-164.55"/>
<polygon fill="midnightblue" stroke="midnightblue" points="443.48,-203.42 454,-202.11 444.96,-196.58 443.48,-203.42"/>
</g>
<!-- Node8 -->
<g id="node8" class="node">
<title>Node8</title>
<g id="a_node8"><a xlink:href="SplineBase_8cpp.html" target="_top" xlink:title=" ">
<polygon fill="white" stroke="black" points="310,-134.5 310,-164.5 434,-164.5 434,-134.5 310,-134.5"/>
<text text-anchor="start" x="318" y="-152.5" font-family="Helvetica" font-size="10.00">/hosthome/MaCh3_2.2.0</text>
<text text-anchor="middle" x="372" y="-141.5" font-family="Helvetica" font-size="10.00">/Splines/SplineBase.cpp</text>
</a>
</g>
</g>
<!-- Node2&#45;&gt;Node8 -->
<g id="edge7" class="edge">
<title>Node2&#45;&gt;Node8</title>
<path fill="none" stroke="midnightblue" d="M475.61,-197.27C452.68,-186.92 424.4,-174.15 403.18,-164.58"/>
<polygon fill="midnightblue" stroke="midnightblue" points="474.2,-200.47 484.75,-201.4 477.08,-194.09 474.2,-200.47"/>
</g>
<!-- Node9 -->
<g id="node9" class="node">
<title>Node9</title>
<g id="a_node9"><a xlink:href="SplineMonolith_8h.html" target="_top" xlink:title=" ">
<polygon fill="white" stroke="black" points="452.5,-134.5 452.5,-164.5 579.5,-164.5 579.5,-134.5 452.5,-134.5"/>
<text text-anchor="start" x="460.5" y="-152.5" font-family="Helvetica" font-size="10.00">/hosthome/MaCh3_2.2.0</text>
<text text-anchor="middle" x="516" y="-141.5" font-family="Helvetica" font-size="10.00">/Splines/SplineMonolith.h</text>
</a>
</g>
</g>
<!-- Node2&#45;&gt;Node9 -->
<g id="edge8" class="edge">
<title>Node2&#45;&gt;Node9</title>
<path fill="none" stroke="midnightblue" d="M516,-191.11C516,-182.15 516,-172.32 516,-164.58"/>
<polygon fill="midnightblue" stroke="midnightblue" points="512.5,-191.4 516,-201.4 519.5,-191.4 512.5,-191.4"/>
</g>
<!-- Node2&#45;&gt;Node11 -->
<g id="edge11" class="edge">
<title>Node2&#45;&gt;Node11</title>
<path fill="none" stroke="midnightblue" d="M552.02,-195.99C564.9,-187.71 578.74,-177.15 589,-165 606.22,-144.6 617.39,-115.09 622.91,-97.74"/>
<polygon fill="midnightblue" stroke="midnightblue" points="549.99,-193.13 543.31,-201.35 553.66,-199.09 549.99,-193.13"/>
</g>
<!-- Node4 -->
<g id="node4" class="node">
<title>Node4</title>
<g id="a_node4"><a xlink:href="BinnedSplineHandler_8cpp.html" target="_top" xlink:title=" ">
<polygon fill="white" stroke="black" points="0,-67.5 0,-97.5 164,-97.5 164,-67.5 0,-67.5"/>
<text text-anchor="start" x="8" y="-85.5" font-family="Helvetica" font-size="10.00">/hosthome/MaCh3_2.2.0</text>
<text text-anchor="middle" x="82" y="-74.5" font-family="Helvetica" font-size="10.00">/Splines/BinnedSplineHandler.cpp</text>
</a>
</g>
</g>
<!-- Node3&#45;&gt;Node4 -->
<g id="edge3" class="edge">
<title>Node3&#45;&gt;Node4</title>
<path fill="none" stroke="midnightblue" d="M177.13,-129.99C156.05,-119.69 130.22,-107.07 110.8,-97.58"/>
<polygon fill="midnightblue" stroke="midnightblue" points="175.62,-133.15 186.14,-134.4 178.69,-126.86 175.62,-133.15"/>
</g>
<!-- Node5 -->
<g id="node5" class="node">
<title>Node5</title>
<g id="a_node5"><a xlink:href="SampleHandlerFD_8h.html" target="_top" xlink:title=" ">
<polygon fill="white" stroke="black" points="182.5,-67.5 182.5,-97.5 331.5,-97.5 331.5,-67.5 182.5,-67.5"/>
<text text-anchor="start" x="190.5" y="-85.5" font-family="Helvetica" font-size="10.00">/hosthome/MaCh3_2.2.0</text>
<text text-anchor="middle" x="257" y="-74.5" font-family="Helvetica" font-size="10.00">/Samples/SampleHandlerFD.h</text>
</a>
</g>
</g>
<!-- Node3&#45;&gt;Node5 -->
<g id="edge4" class="edge">
<title>Node3&#45;&gt;Node5</title>
<path fill="none" stroke="midnightblue" d="M229.62,-125.87C235.7,-116.46 242.57,-105.83 247.9,-97.58"/>
<polygon fill="midnightblue" stroke="midnightblue" points="226.6,-124.1 224.11,-134.4 232.48,-127.9 226.6,-124.1"/>
</g>
<!-- Node6 -->
<g id="node6" class="node">
<title>Node6</title>
<g id="a_node6"><a xlink:href="SampleHandlerFD_8cpp.html" target="_top" xlink:title=" ">
<polygon fill="white" stroke="black" points="97,-0.5 97,-30.5 257,-30.5 257,-0.5 97,-0.5"/>
<text text-anchor="start" x="105" y="-18.5" font-family="Helvetica" font-size="10.00">/hosthome/MaCh3_2.2.0</text>
<text text-anchor="middle" x="177" y="-7.5" font-family="Helvetica" font-size="10.00">/Samples/SampleHandlerFD.cpp</text>
</a>
</g>
</g>
<!-- Node5&#45;&gt;Node6 -->
<g id="edge5" class="edge">
<title>Node5&#45;&gt;Node6</title>
<path fill="none" stroke="midnightblue" d="M231.63,-60.88C219.47,-51.01 205.22,-39.43 194.32,-30.58"/>
<polygon fill="midnightblue" stroke="midnightblue" points="229.67,-63.81 239.64,-67.4 234.09,-58.37 229.67,-63.81"/>
</g>
<!-- Node7 -->
<g id="node7" class="node">
<title>Node7</title>
<g id="a_node7"><a xlink:href="samples_8cpp.html" target="_top" xlink:title=" ">
<polygon fill="white" stroke="black" points="275,-0.5 275,-30.5 399,-30.5 399,-0.5 275,-0.5"/>
<text text-anchor="start" x="283" y="-18.5" font-family="Helvetica" font-size="10.00">/hosthome/MaCh3_2.2.0</text>
<text text-anchor="middle" x="337" y="-7.5" font-family="Helvetica" font-size="10.00">/python/samples.cpp</text>
</a>
</g>
</g>
<!-- Node5&#45;&gt;Node7 -->
<g id="edge6" class="edge">
<title>Node5&#45;&gt;Node7</title>
<path fill="none" stroke="midnightblue" d="M282.37,-60.88C294.53,-51.01 308.78,-39.43 319.68,-30.58"/>
<polygon fill="midnightblue" stroke="midnightblue" points="279.91,-58.37 274.36,-67.4 284.33,-63.81 279.91,-58.37"/>
</g>
<!-- Node10 -->
<g id="node10" class="node">
<title>Node10</title>
<g id="a_node10"><a xlink:href="SplineMonolith_8cpp.html" target="_top" xlink:title=" ">
<polygon fill="white" stroke="black" points="409.5,-67.5 409.5,-97.5 546.5,-97.5 546.5,-67.5 409.5,-67.5"/>
<text text-anchor="start" x="417.5" y="-85.5" font-family="Helvetica" font-size="10.00">/hosthome/MaCh3_2.2.0</text>
<text text-anchor="middle" x="478" y="-74.5" font-family="Helvetica" font-size="10.00">/Splines/SplineMonolith.cpp</text>
</a>
</g>
</g>
<!-- Node9&#45;&gt;Node10 -->
<g id="edge9" class="edge">
<title>Node9&#45;&gt;Node10</title>
<path fill="none" stroke="midnightblue" d="M502.6,-125.58C497.14,-116.24 491.01,-105.75 486.23,-97.58"/>
<polygon fill="midnightblue" stroke="midnightblue" points="499.69,-127.53 507.75,-134.4 505.73,-124 499.69,-127.53"/>
</g>
<!-- Node9&#45;&gt;Node11 -->
<g id="edge10" class="edge">
<title>Node9&#45;&gt;Node11</title>
<path fill="none" stroke="midnightblue" d="M548.8,-129.3C566.16,-119.12 587.12,-106.85 602.96,-97.58"/>
<polygon fill="midnightblue" stroke="midnightblue" points="546.95,-126.32 540.09,-134.4 550.48,-132.36 546.95,-126.32"/>
</g>
</g>
</svg>
        <g id="navigator" transform="translate(0 0)" fill="#404254">
                <rect fill="#f2f5e9" fill-opacity="0.5" stroke="#606060" stroke-width=".5" x="0" y="0" width="60" height="60"/>
                <use id="zoomplus" xlink:href="#zoomPlus" x="17" y="9" onmousedown="handleZoom(evt,'in')"/>
                <use id="zoomminus" xlink:href="#zoomMin" x="42" y="9" onmousedown="handleZoom(evt,'out')"/>
                <use id="reset" xlink:href="#resetDef" x="30" y="36" onmousedown="handleReset()"/>
                <g id="arrowUp" xlink:href="#dirArrow" transform="translate(30 24)" onmousedown="handlePan(0,-1)">
                  <use xlink:href="#rim" fill="#404040">
                        <set attributeName="fill" to="#808080" begin="arrowUp.mouseover" end="arrowUp.mouseout"/>
                  </use>
                  <path fill="none" stroke="white" stroke-width="1.5" d="M0,-3.0v7 M-2.5,-0.5L0,-3.0L2.5,-0.5"/>
                </g>
                <g id="arrowRight" xlink:href="#dirArrow" transform="rotate(90) translate(36 -43)" onmousedown="handlePan(1,0)">
                  <use xlink:href="#rim" fill="#404040">
                        <set attributeName="fill" to="#808080" begin="arrowRight.mouseover" end="arrowRight.mouseout"/>
                  </use>
                  <path fill="none" stroke="white" stroke-width="1.5" d="M0,-3.0v7 M-2.5,-0.5L0,-3.0L2.5,-0.5"/>
                </g>
                <g id="arrowDown" xlink:href="#dirArrow" transform="rotate(180) translate(-30 -48)" onmousedown="handlePan(0,1)">
                  <use xlink:href="#rim" fill="#404040">
                        <set attributeName="fill" to="#808080" begin="arrowDown.mouseover" end="arrowDown.mouseout"/>
                  </use>
                  <path fill="none" stroke="white" stroke-width="1.5" d="M0,-3.0v7 M-2.5,-0.5L0,-3.0L2.5,-0.5"/>
                </g>
                <g id="arrowLeft" xlink:href="#dirArrow" transform="rotate(270) translate(-36 17)" onmousedown="handlePan(-1,0)">
                  <use xlink:href="#rim" fill="#404040">
                        <set attributeName="fill" to="#808080" begin="arrowLeft.mouseover" end="arrowLeft.mouseout"/>
                  </use>
                  <path fill="none" stroke="white" stroke-width="1.5" d="M0,-3.0v7 M-2.5,-0.5L0,-3.0L2.5,-0.5"/>
                </g>
        </g>
        <svg viewBox="0 0 15 15" width="100%" height="30px" preserveAspectRatio="xMaxYMin meet">
         <g id="arrow_out" transform="scale(0.3 0.3)">
          <a xlink:href="SplineStructs_8h__dep__incl_org.svg" target="_base">
           <rect id="button" ry="5" rx="5" y="6" x="6" height="38" width="38"
                fill="#f2f5e9" fill-opacity="0.5" stroke="#606060" stroke-width="1.0"/>
           <path id="arrow"
             d="M 11.500037,31.436501 C 11.940474,20.09759 22.043105,11.32322 32.158766,21.979434 L 37.068811,17.246167 C 37.068811,17.246167 37.088388,32 37.088388,32 L 22.160133,31.978069 C 22.160133,31.978069 26.997745,27.140456 26.997745,27.140456 C 18.528582,18.264221 13.291696,25.230495 11.500037,31.436501 z"
             style="fill:#404040;"/>
          </a>
         </g>
        </svg>
</svg>
