<?xml version="1.0" encoding="UTF-8" standalone="no"?>
<!DOCTYPE svg PUBLIC "-//W3C//DTD SVG 1.1//EN"
 "http://www.w3.org/Graphics/SVG/1.1/DTD/svg11.dtd">
<!-- Generated by graphviz version 2.44.0 (0)
 -->
<!-- Title: M3::Plotting::InputFile Pages: 1 -->
<svg width="600pt" height="618pt"
 viewBox="0.00 0.00 600.00 617.66" xmlns="http://www.w3.org/2000/svg" xmlns:xlink="http://www.w3.org/1999/xlink">
<g id="graph0" class="graph" transform="scale(1 1) rotate(0) translate(4 613.66)">
<title>M3::Plotting::InputFile</title>
<polygon fill="white" stroke="transparent" points="-4,4 -4,-613.66 596,-613.66 596,4 -4,4"/>
<!-- Node1 -->
<g id="node1" class="node">
<title>Node1</title>
<g id="a_node1"><a xlink:title="Struct which wraps around the actual input file and also holds general information,...">
<polygon fill="#bfbfbf" stroke="black" points="479,-285.16 479,-304.16 592,-304.16 592,-285.16 479,-285.16"/>
<text text-anchor="middle" x="535.5" y="-292.16" font-family="Helvetica" font-size="10.00">M3::Plotting::InputFile</text>
</a>
</g>
</g>
<!-- Node2 -->
<g id="node2" class="node">
<title>Node2</title>
<g id="a_node2"><a xlink:title=" ">
<polygon fill="white" stroke="#bfbfbf" points="150,-556.66 150,-608.66 289,-608.66 289,-556.66 150,-556.66"/>
<text text-anchor="start" x="158" y="-596.66" font-family="Helvetica" font-size="10.00">std::unordered_map</text>
<text text-anchor="start" x="158" y="-585.66" font-family="Helvetica" font-size="10.00">&lt; std::string, std::</text>
<text text-anchor="start" x="158" y="-574.66" font-family="Helvetica" font-size="10.00">unordered_map&lt; std::string,</text>
<text text-anchor="middle" x="219.5" y="-563.66" font-family="Helvetica" font-size="10.00"> double &gt; &gt;</text>
</a>
</g>
</g>
<!-- Node2&#45;&gt;Node1 -->
<g id="edge1" class="edge">
<title>Node2&#45;&gt;Node1</title>
<path fill="none" stroke="#9a32cd" stroke-dasharray="5,2" d="M299.28,-589.27C351.19,-589.26 417.39,-580.31 461,-541.66 534.49,-476.52 535.99,-341.5 534.93,-304.32"/>
<polygon fill="#9a32cd" stroke="#9a32cd" points="299.14,-585.77 289.1,-589.16 299.06,-592.77 299.14,-585.77"/>
<text text-anchor="middle" x="393" y="-601.66" font-family="Helvetica" font-size="10.00"> postFitErrors</text>
<text text-anchor="middle" x="393" y="-590.66" font-family="Helvetica" font-size="10.00">postFitValues</text>
</g>
<!-- Node3 -->
<g id="node3" class="node">
<title>Node3</title>
<g id="a_node3"><a xlink:title=" ">
<polygon fill="white" stroke="#bfbfbf" points="158.5,-496.16 158.5,-537.16 280.5,-537.16 280.5,-496.16 158.5,-496.16"/>
<text text-anchor="start" x="166.5" y="-525.16" font-family="Helvetica" font-size="10.00">std::unordered_map</text>
<text text-anchor="start" x="166.5" y="-514.16" font-family="Helvetica" font-size="10.00">&lt; std::string, std::</text>
<text text-anchor="middle" x="219.5" y="-503.16" font-family="Helvetica" font-size="10.00">shared_ptr&lt; TGraph &gt; &gt;</text>
</a>
</g>
</g>
<!-- Node3&#45;&gt;Node1 -->
<g id="edge2" class="edge">
<title>Node3&#45;&gt;Node1</title>
<path fill="none" stroke="#9a32cd" stroke-dasharray="5,2" d="M290.77,-526.27C343.02,-529.48 413.24,-524.99 461,-487.66 521.73,-440.19 532.3,-336.32 534.12,-304.27"/>
<polygon fill="#9a32cd" stroke="#9a32cd" points="290.8,-522.76 280.57,-525.53 290.29,-529.75 290.8,-522.76"/>
<text text-anchor="middle" x="393" y="-529.66" font-family="Helvetica" font-size="10.00"> posteriors1d_map</text>
</g>
<!-- Node4 -->
<g id="node4" class="node">
<title>Node4</title>
<g id="a_node4"><a xlink:title=" ">
<polygon fill="white" stroke="#bfbfbf" points="168,-446.66 168,-476.66 271,-476.66 271,-446.66 168,-446.66"/>
<text text-anchor="start" x="176" y="-464.66" font-family="Helvetica" font-size="10.00">std::unordered_map</text>
<text text-anchor="middle" x="219.5" y="-453.66" font-family="Helvetica" font-size="10.00">&lt; std::string, int &gt;</text>
</a>
</g>
</g>
<!-- Node4&#45;&gt;Node1 -->
<g id="edge3" class="edge">
<title>Node4&#45;&gt;Node1</title>
<path fill="none" stroke="#9a32cd" stroke-dasharray="5,2" d="M281.35,-471.45C333.5,-476.5 408.32,-475.43 461,-439.66 509.8,-406.53 527.91,-330.85 532.91,-304.18"/>
<polygon fill="#9a32cd" stroke="#9a32cd" points="281.55,-467.96 271.23,-470.37 280.81,-474.92 281.55,-467.96"/>
<text text-anchor="middle" x="393" y="-475.66" font-family="Helvetica" font-size="10.00"> MCMCstepTreeIndicesMap</text>
</g>
<!-- Node5 -->
<g id="node5" class="node">
<title>Node5</title>
<g id="a_node5"><a xlink:title=" ">
<polygon fill="white" stroke="#bfbfbf" points="158.5,-408.16 158.5,-427.16 280.5,-427.16 280.5,-408.16 158.5,-408.16"/>
<text text-anchor="middle" x="219.5" y="-415.16" font-family="Helvetica" font-size="10.00">std::shared_ptr&lt; TFile &gt;</text>
</a>
</g>
</g>
<!-- Node5&#45;&gt;Node1 -->
<g id="edge4" class="edge">
<title>Node5&#45;&gt;Node1</title>
<path fill="none" stroke="#9a32cd" stroke-dasharray="5,2" d="M290.83,-425.98C341.37,-428.59 409.41,-424.96 461,-395.66 498.53,-374.35 522.12,-325.14 530.77,-304.28"/>
<polygon fill="#9a32cd" stroke="#9a32cd" points="290.84,-422.47 280.65,-425.35 290.42,-429.46 290.84,-422.47"/>
<text text-anchor="middle" x="393" y="-428.66" font-family="Helvetica" font-size="10.00"> file</text>
</g>
<!-- Node6 -->
<g id="node6" class="node">
<title>Node6</title>
<g id="a_node6"><a xlink:title=" ">
<polygon fill="white" stroke="#bfbfbf" points="143,-336.66 143,-388.66 296,-388.66 296,-336.66 143,-336.66"/>
<text text-anchor="start" x="151" y="-376.66" font-family="Helvetica" font-size="10.00">std::unordered_map</text>
<text text-anchor="start" x="151" y="-365.66" font-family="Helvetica" font-size="10.00">&lt; std::string, std::</text>
<text text-anchor="start" x="151" y="-354.66" font-family="Helvetica" font-size="10.00">unordered_map&lt; std::string,</text>
<text text-anchor="middle" x="219.5" y="-343.66" font-family="Helvetica" font-size="10.00"> std::shared_ptr&lt; TGraph &gt; &gt; &gt;</text>
</a>
</g>
</g>
<!-- Node6&#45;&gt;Node1 -->
<g id="edge5" class="edge">
<title>Node6&#45;&gt;Node1</title>
<path fill="none" stroke="#9a32cd" stroke-dasharray="5,2" d="M306.34,-370.54C353.36,-371.89 411.89,-368.61 461,-350.66 487.82,-340.86 512.88,-317.61 525.66,-304.36"/>
<polygon fill="#9a32cd" stroke="#9a32cd" points="306.3,-367.04 296.18,-370.17 306.05,-374.03 306.3,-367.04"/>
<text text-anchor="middle" x="393" y="-384.66" font-family="Helvetica" font-size="10.00"> LLHScansBySample_map</text>
<text text-anchor="middle" x="393" y="-373.66" font-family="Helvetica" font-size="10.00">LLHScans_map</text>
</g>
<!-- Node7 -->
<g id="node7" class="node">
<title>Node7</title>
<g id="a_node7"><a xlink:title=" ">
<polygon fill="white" stroke="#bfbfbf" points="168,-279.66 168,-309.66 271,-309.66 271,-279.66 168,-279.66"/>
<text text-anchor="start" x="176" y="-297.66" font-family="Helvetica" font-size="10.00">std::unordered_map</text>
<text text-anchor="middle" x="219.5" y="-286.66" font-family="Helvetica" font-size="10.00">&lt; std::string, bool &gt;</text>
</a>
</g>
</g>
<!-- Node7&#45;&gt;Node1 -->
<g id="edge6" class="edge">
<title>Node7&#45;&gt;Node1</title>
<path fill="none" stroke="#9a32cd" stroke-dasharray="5,2" d="M281.64,-294.66C338.79,-294.66 423.4,-294.66 478.74,-294.66"/>
<polygon fill="#9a32cd" stroke="#9a32cd" points="281.3,-291.16 271.3,-294.66 281.3,-298.16 281.3,-291.16"/>
<text text-anchor="start" x="343.5" y="-341.66" font-family="Helvetica" font-size="10.00"> availableParams_map</text>
<text text-anchor="middle" x="393" y="-330.66" font-family="Helvetica" font-size="10.00">_1dPosteriors</text>
<text text-anchor="start" x="343.5" y="-319.66" font-family="Helvetica" font-size="10.00">availableParams_map</text>
<text text-anchor="middle" x="393" y="-308.66" font-family="Helvetica" font-size="10.00">_MCMCchain</text>
<text text-anchor="middle" x="393" y="-297.66" font-family="Helvetica" font-size="10.00">hasLLHScans_map</text>
</g>
<!-- Node8 -->
<g id="node8" class="node">
<title>Node8</title>
<g id="a_node8"><a xlink:title=" ">
<polygon fill="white" stroke="#bfbfbf" points="189.5,-239.16 189.5,-258.16 249.5,-258.16 249.5,-239.16 189.5,-239.16"/>
<text text-anchor="middle" x="219.5" y="-246.16" font-family="Helvetica" font-size="10.00">std::string</text>
</a>
</g>
</g>
<!-- Node8&#45;&gt;Node1 -->
<g id="edge7" class="edge">
<title>Node8&#45;&gt;Node1</title>
<path fill="none" stroke="#9a32cd" stroke-dasharray="5,2" d="M259.59,-245.09C307.79,-241.82 391.82,-239.86 461,-257.66 482.86,-263.29 505.73,-276.06 520.04,-285.02"/>
<polygon fill="#9a32cd" stroke="#9a32cd" points="259.29,-241.6 249.58,-245.82 259.8,-248.58 259.29,-241.6"/>
<text text-anchor="middle" x="393" y="-282.66" font-family="Helvetica" font-size="10.00"> defaultErrorType</text>
<text text-anchor="middle" x="393" y="-271.66" font-family="Helvetica" font-size="10.00">fileName</text>
<text text-anchor="middle" x="393" y="-260.66" font-family="Helvetica" font-size="10.00">fitter</text>
</g>
<!-- Node9 -->
<g id="node9" class="node">
<title>Node9</title>
<g id="a_node9"><a xlink:title=" ">
<polygon fill="white" stroke="#bfbfbf" points="0,-233.66 0,-263.66 95,-263.66 95,-233.66 0,-233.66"/>
<text text-anchor="start" x="8" y="-251.66" font-family="Helvetica" font-size="10.00">std::basic_string&lt;</text>
<text text-anchor="middle" x="47.5" y="-240.66" font-family="Helvetica" font-size="10.00"> char &gt;</text>
</a>
</g>
</g>
<!-- Node9&#45;&gt;Node8 -->
<g id="edge8" class="edge">
<title>Node9&#45;&gt;Node8</title>
<path fill="none" stroke="midnightblue" d="M105.53,-248.66C133.66,-248.66 166.39,-248.66 189.36,-248.66"/>
<polygon fill="midnightblue" stroke="midnightblue" points="105.4,-245.16 95.4,-248.66 105.4,-252.16 105.4,-245.16"/>
</g>
<!-- Node10 -->
<g id="node10" class="node">
<title>Node10</title>
<g id="a_node10"><a xlink:title=" ">
<polygon fill="white" stroke="#bfbfbf" points="160,-189.66 160,-219.66 279,-219.66 279,-189.66 160,-189.66"/>
<text text-anchor="start" x="168" y="-207.66" font-family="Helvetica" font-size="10.00">std::unordered_map</text>
<text text-anchor="middle" x="219.5" y="-196.66" font-family="Helvetica" font-size="10.00">&lt; std::string, double * &gt;</text>
</a>
</g>
</g>
<!-- Node10&#45;&gt;Node1 -->
<g id="edge9" class="edge">
<title>Node10&#45;&gt;Node1</title>
<path fill="none" stroke="#9a32cd" stroke-dasharray="5,2" d="M289.48,-199.91C339.21,-199.13 406.83,-203.65 461,-227.66 490.04,-240.53 515.31,-269.51 527.22,-284.8"/>
<polygon fill="#9a32cd" stroke="#9a32cd" points="289.38,-196.41 279.47,-200.14 289.54,-203.41 289.38,-196.41"/>
<text text-anchor="middle" x="393" y="-230.66" font-family="Helvetica" font-size="10.00"> MCMCstepParamsMap</text>
</g>
<!-- Node11 -->
<g id="node11" class="node">
<title>Node11</title>
<g id="a_node11"><a xlink:title=" ">
<polygon fill="white" stroke="#bfbfbf" points="132,-151.16 132,-170.16 307,-170.16 307,-151.16 132,-151.16"/>
<text text-anchor="middle" x="219.5" y="-158.16" font-family="Helvetica" font-size="10.00">std::unique_ptr&lt; MCMCProcessor &gt;</text>
</a>
</g>
</g>
<!-- Node11&#45;&gt;Node1 -->
<g id="edge10" class="edge">
<title>Node11&#45;&gt;Node1</title>
<path fill="none" stroke="#9a32cd" stroke-dasharray="5,2" d="M317.16,-151.85C363.62,-152.02 418.35,-159.06 461,-184.66 500.58,-208.42 523.32,-262.68 531.26,-284.9"/>
<polygon fill="#9a32cd" stroke="#9a32cd" points="317.04,-148.35 307.07,-151.91 317.09,-155.35 317.04,-148.35"/>
<text text-anchor="middle" x="393" y="-187.66" font-family="Helvetica" font-size="10.00"> mcmcProc</text>
</g>
<!-- Node12 -->
<g id="node12" class="node">
<title>Node12</title>
<g id="a_node12"><a xlink:title=" ">
<polygon fill="white" stroke="#bfbfbf" points="150,-77.66 150,-129.66 289,-129.66 289,-77.66 150,-77.66"/>
<text text-anchor="start" x="158" y="-117.66" font-family="Helvetica" font-size="10.00">std::unordered_map</text>
<text text-anchor="start" x="158" y="-106.66" font-family="Helvetica" font-size="10.00">&lt; std::string, std::</text>
<text text-anchor="start" x="158" y="-95.66" font-family="Helvetica" font-size="10.00">unordered_map&lt; std::string,</text>
<text text-anchor="middle" x="219.5" y="-84.66" font-family="Helvetica" font-size="10.00"> bool &gt; &gt;</text>
</a>
</g>
</g>
<!-- Node12&#45;&gt;Node1 -->
<g id="edge11" class="edge">
<title>Node12&#45;&gt;Node1</title>
<path fill="none" stroke="#9a32cd" stroke-dasharray="5,2" d="M299.27,-94.31C359.19,-88.9 435.54,-86.18 461,-103.66 523.97,-146.9 533.01,-252.23 534.29,-284.86"/>
<polygon fill="#9a32cd" stroke="#9a32cd" points="298.67,-90.86 289.05,-95.28 299.33,-97.82 298.67,-90.86"/>
<text text-anchor="start" x="343.5" y="-139.66" font-family="Helvetica" font-size="10.00"> availableParams_map</text>
<text text-anchor="middle" x="393" y="-128.66" font-family="Helvetica" font-size="10.00">_LLH</text>
<text text-anchor="start" x="343.5" y="-117.66" font-family="Helvetica" font-size="10.00">availableParams</text>
<text text-anchor="middle" x="393" y="-106.66" font-family="Helvetica" font-size="10.00">_map_LLHBySample</text>
</g>
<!-- Node13 -->
<g id="node13" class="node">
<title>Node13</title>
<g id="a_node13"><a xlink:title=" ">
<polygon fill="white" stroke="#bfbfbf" points="157.5,-16.16 157.5,-35.16 281.5,-35.16 281.5,-16.16 157.5,-16.16"/>
<text text-anchor="middle" x="219.5" y="-23.16" font-family="Helvetica" font-size="10.00">std::vector&lt; std::string &gt;</text>
</a>
</g>
</g>
<!-- Node13&#45;&gt;Node1 -->
<g id="edge12" class="edge">
<title>Node13&#45;&gt;Node1</title>
<path fill="none" stroke="#9a32cd" stroke-dasharray="5,2" d="M259.88,-13.46C311.75,-0.02 403.16,14.23 461,-30.66 503.19,-63.4 527.91,-241.75 533.35,-285.14"/>
<polygon fill="#9a32cd" stroke="#9a32cd" points="258.79,-10.13 250.05,-16.12 260.62,-16.88 258.79,-10.13"/>
<text text-anchor="middle" x="393" y="-77.66" font-family="Helvetica" font-size="10.00"> availableParams_1dPosteriors</text>
<text text-anchor="middle" x="393" y="-66.66" font-family="Helvetica" font-size="10.00">availableParams_LLH</text>
<text text-anchor="middle" x="393" y="-55.66" font-family="Helvetica" font-size="10.00">availableParams_MCMCchain</text>
<text text-anchor="middle" x="393" y="-44.66" font-family="Helvetica" font-size="10.00">availableParams_postFitErrors</text>
<text text-anchor="middle" x="393" y="-33.66" font-family="Helvetica" font-size="10.00">availableSamples_LLH</text>
</g>
</g>
</svg>
