<?xml version="1.0" encoding="UTF-8" standalone="no"?>
<!DOCTYPE svg PUBLIC "-//W3C//DTD SVG 1.1//EN"
 "http://www.w3.org/Graphics/SVG/1.1/DTD/svg11.dtd">
<!-- Generated by graphviz version 2.43.0 (0)
 -->
<!-- Title: Parameters/AdaptiveMCMCHandler.h Pages: 1 -->
<svg width="3003pt" height="423pt"
 viewBox="0.00 0.00 3003.00 423.00" xmlns="http://www.w3.org/2000/svg" xmlns:xlink="http://www.w3.org/1999/xlink">
<g id="graph0" class="graph" transform="scale(1 1) rotate(0) translate(4 419)">
<title>Parameters/AdaptiveMCMCHandler.h</title>
<!-- Node1 -->
<g id="node1" class="node">
<title>Node1</title>
<g id="a_node1"><a xlink:title=" ">
<polygon fill="#999999" stroke="#666666" points="968.5,-415 771.5,-415 771.5,-396 968.5,-396 968.5,-415"/>
<text text-anchor="middle" x="870" y="-403" font-family="Helvetica,sans-Serif" font-size="10.00">Parameters/AdaptiveMCMCHandler.h</text>
</a>
</g>
</g>
<!-- Node2 -->
<g id="node2" class="node">
<title>Node2</title>
<g id="a_node2"><a xlink:href="Manager_8h.html" target="_top" xlink:title=" ">
<polygon fill="white" stroke="#666666" points="884.5,-360 771.5,-360 771.5,-341 884.5,-341 884.5,-360"/>
<text text-anchor="middle" x="828" y="-348" font-family="Helvetica,sans-Serif" font-size="10.00">Manager/Manager.h</text>
</a>
</g>
</g>
<!-- Node1&#45;&gt;Node2 -->
<g id="edge1" class="edge">
<title>Node1&#45;&gt;Node2</title>
<path fill="none" stroke="#63b8ff" d="M863.06,-395.75C857.13,-388.26 848.43,-377.28 841.18,-368.13"/>
<polygon fill="#63b8ff" stroke="#63b8ff" points="843.76,-365.75 834.81,-360.09 838.27,-370.1 843.76,-365.75"/>
</g>
<!-- Node41 -->
<g id="node36" class="node">
<title>Node41</title>
<g id="a_node36"><a xlink:href="ParameterHandlerUtils_8h.html" target="_top" xlink:title=" ">
<polygon fill="white" stroke="#666666" points="2212,-305 2048,-305 2048,-275 2212,-275 2212,-305"/>
<text text-anchor="start" x="2056" y="-293" font-family="Helvetica,sans-Serif" font-size="10.00">Parameters/ParameterHandler</text>
<text text-anchor="middle" x="2130" y="-282" font-family="Helvetica,sans-Serif" font-size="10.00">Utils.h</text>
</a>
</g>
</g>
<!-- Node1&#45;&gt;Node41 -->
<g id="edge57" class="edge">
<title>Node1&#45;&gt;Node41</title>
<path fill="none" stroke="#63b8ff" d="M964.45,-395.99C1198.98,-374.87 1805.72,-320.21 2037.83,-299.3"/>
<polygon fill="#63b8ff" stroke="#63b8ff" points="2038.28,-302.78 2047.93,-298.39 2037.66,-295.8 2038.28,-302.78"/>
</g>
<!-- Node3 -->
<g id="node3" class="node">
<title>Node3</title>
<g id="a_node3"><a xlink:href="SampleStructs_8h.html" target="_top" xlink:title=" ">
<polygon fill="white" stroke="#666666" points="1358.5,-239 1217.5,-239 1217.5,-220 1358.5,-220 1358.5,-239"/>
<text text-anchor="middle" x="1288" y="-227" font-family="Helvetica,sans-Serif" font-size="10.00">Samples/SampleStructs.h</text>
</a>
</g>
</g>
<!-- Node2&#45;&gt;Node3 -->
<g id="edge2" class="edge">
<title>Node2&#45;&gt;Node3</title>
<path fill="none" stroke="#63b8ff" d="M861.08,-340.94C942.79,-319.8 1154.1,-265.14 1245.19,-241.58"/>
<polygon fill="#63b8ff" stroke="#63b8ff" points="1246.1,-244.95 1254.91,-239.06 1244.35,-238.18 1246.1,-244.95"/>
</g>
<!-- Node7 -->
<g id="node7" class="node">
<title>Node7</title>
<g id="a_node7"><a xlink:href="MaCh3Exception_8h.html" target="_top" xlink:title=" ">
<polygon fill="white" stroke="#666666" points="812.5,-184 659.5,-184 659.5,-165 812.5,-165 812.5,-184"/>
<text text-anchor="middle" x="736" y="-172" font-family="Helvetica,sans-Serif" font-size="10.00">Manager/MaCh3Exception.h</text>
</a>
</g>
</g>
<!-- Node2&#45;&gt;Node7 -->
<g id="edge56" class="edge">
<title>Node2&#45;&gt;Node7</title>
<path fill="none" stroke="#63b8ff" d="M829,-340.76C831.09,-318.53 833.76,-258.88 808,-220 798.68,-205.93 783.23,-195.53 769.03,-188.34"/>
<polygon fill="#63b8ff" stroke="#63b8ff" points="770.49,-185.16 759.95,-184.07 767.51,-191.49 770.49,-185.16"/>
</g>
<!-- Node29 -->
<g id="node24" class="node">
<title>Node29</title>
<g id="a_node24"><a xlink:href="YamlHelper_8h.html" target="_top" xlink:title="Utility functions for handling YAML nodes.">
<polygon fill="white" stroke="#666666" points="419,-239 293,-239 293,-220 419,-220 419,-239"/>
<text text-anchor="middle" x="356" y="-227" font-family="Helvetica,sans-Serif" font-size="10.00">Manager/YamlHelper.h</text>
</a>
</g>
</g>
<!-- Node2&#45;&gt;Node29 -->
<g id="edge30" class="edge">
<title>Node2&#45;&gt;Node29</title>
<path fill="none" stroke="#63b8ff" d="M790.84,-340.98C752.87,-332.21 692.23,-318.03 640,-305 553.4,-283.4 452.4,-256.49 397.21,-241.64"/>
<polygon fill="#63b8ff" stroke="#63b8ff" points="398.02,-238.24 387.46,-239.02 396.2,-245 398.02,-238.24"/>
</g>
<!-- Node35 -->
<g id="node30" class="node">
<title>Node35</title>
<g id="a_node30"><a xlink:href="Monitor_8h.html" target="_top" xlink:title="System and monitoring utilities for printing system information and status updates.">
<polygon fill="white" stroke="#666666" points="757,-299.5 649,-299.5 649,-280.5 757,-280.5 757,-299.5"/>
<text text-anchor="middle" x="703" y="-287.5" font-family="Helvetica,sans-Serif" font-size="10.00">Manager/Monitor.h</text>
</a>
</g>
</g>
<!-- Node2&#45;&gt;Node35 -->
<g id="edge42" class="edge">
<title>Node2&#45;&gt;Node35</title>
<path fill="none" stroke="#63b8ff" d="M809.82,-340.99C788.99,-331.25 754.63,-315.16 730.52,-303.88"/>
<polygon fill="#63b8ff" stroke="#63b8ff" points="731.74,-300.59 721.2,-299.52 728.77,-306.93 731.74,-300.59"/>
</g>
<!-- Node4 -->
<g id="node4" class="node">
<title>Node4</title>
<g id="a_node4"><a xlink:title=" ">
<polygon fill="#e0e0e0" stroke="#999999" points="1426,-184 1394,-184 1394,-165 1426,-165 1426,-184"/>
<text text-anchor="middle" x="1410" y="-172" font-family="Helvetica,sans-Serif" font-size="10.00">set</text>
</a>
</g>
</g>
<!-- Node3&#45;&gt;Node4 -->
<g id="edge3" class="edge">
<title>Node3&#45;&gt;Node4</title>
<path fill="none" stroke="#63b8ff" d="M1307.6,-219.98C1328.49,-210.91 1361.64,-196.51 1384.53,-186.56"/>
<polygon fill="#63b8ff" stroke="#63b8ff" points="1386.18,-189.67 1393.95,-182.47 1383.39,-183.25 1386.18,-189.67"/>
</g>
<!-- Node5 -->
<g id="node5" class="node">
<title>Node5</title>
<g id="a_node5"><a xlink:title=" ">
<polygon fill="#e0e0e0" stroke="#999999" points="1264,-184 1232,-184 1232,-165 1264,-165 1264,-184"/>
<text text-anchor="middle" x="1248" y="-172" font-family="Helvetica,sans-Serif" font-size="10.00">list</text>
</a>
</g>
</g>
<!-- Node3&#45;&gt;Node5 -->
<g id="edge4" class="edge">
<title>Node3&#45;&gt;Node5</title>
<path fill="none" stroke="#63b8ff" d="M1281.39,-219.75C1275.74,-212.26 1267.46,-201.28 1260.55,-192.13"/>
<polygon fill="#63b8ff" stroke="#63b8ff" points="1263.3,-189.96 1254.48,-184.09 1257.71,-194.18 1263.3,-189.96"/>
</g>
<!-- Node6 -->
<g id="node6" class="node">
<title>Node6</title>
<g id="a_node6"><a xlink:title=" ">
<polygon fill="#e0e0e0" stroke="#999999" points="1375.5,-184 1282.5,-184 1282.5,-165 1375.5,-165 1375.5,-184"/>
<text text-anchor="middle" x="1329" y="-172" font-family="Helvetica,sans-Serif" font-size="10.00">unordered_map</text>
</a>
</g>
</g>
<!-- Node3&#45;&gt;Node6 -->
<g id="edge5" class="edge">
<title>Node3&#45;&gt;Node6</title>
<path fill="none" stroke="#63b8ff" d="M1294.77,-219.75C1300.56,-212.26 1309.06,-201.28 1316.14,-192.13"/>
<polygon fill="#63b8ff" stroke="#63b8ff" points="1319.01,-194.14 1322.36,-184.09 1313.47,-189.86 1319.01,-194.14"/>
</g>
<!-- Node3&#45;&gt;Node7 -->
<g id="edge6" class="edge">
<title>Node3&#45;&gt;Node7</title>
<path fill="none" stroke="#63b8ff" d="M1217.25,-221.71C1116.39,-212.02 931.48,-194.27 822.58,-183.81"/>
<polygon fill="#63b8ff" stroke="#63b8ff" points="822.89,-180.33 812.61,-182.86 822.23,-187.3 822.89,-180.33"/>
</g>
<!-- Node11 -->
<g id="node11" class="node">
<title>Node11</title>
<g id="a_node11"><a xlink:href="MaCh3Logger_8h.html" target="_top" xlink:title="KS: Based on this https://github.com/gabime/spdlog/blob/a2b4262090fd3f005c2315dcb5be2f0f1774a005/incl...">
<polygon fill="#fff0f0" stroke="red" points="988.5,-129 851.5,-129 851.5,-110 988.5,-110 988.5,-129"/>
<text text-anchor="middle" x="920" y="-117" font-family="Helvetica,sans-Serif" font-size="10.00">Manager/MaCh3Logger.h</text>
</a>
</g>
</g>
<!-- Node3&#45;&gt;Node11 -->
<g id="edge21" class="edge">
<title>Node3&#45;&gt;Node11</title>
<path fill="none" stroke="#63b8ff" d="M1217.07,-222.84C1107.49,-213.76 908.49,-195.76 898,-184 886.4,-171 895.81,-151.57 905.68,-137.63"/>
<polygon fill="#63b8ff" stroke="#63b8ff" points="908.69,-139.44 912,-129.38 903.14,-135.18 908.69,-139.44"/>
</g>
<!-- Node15 -->
<g id="node14" class="node">
<title>Node15</title>
<g id="a_node14"><a xlink:href="Core_8h.html" target="_top" xlink:title=" ">
<polygon fill="#fff0f0" stroke="red" points="866,-74 772,-74 772,-55 866,-55 866,-74"/>
<text text-anchor="middle" x="819" y="-62" font-family="Helvetica,sans-Serif" font-size="10.00">Manager/Core.h</text>
</a>
</g>
</g>
<!-- Node3&#45;&gt;Node15 -->
<g id="edge22" class="edge">
<title>Node3&#45;&gt;Node15</title>
<path fill="none" stroke="#63b8ff" d="M1276.52,-219.98C1258.08,-206.64 1220.32,-180.71 1185,-165 1080.71,-118.61 949.84,-89.42 876.21,-75.41"/>
<polygon fill="#63b8ff" stroke="#63b8ff" points="876.68,-71.94 866.2,-73.53 875.39,-78.82 876.68,-71.94"/>
</g>
<!-- Node22 -->
<g id="node17" class="node">
<title>Node22</title>
<g id="a_node17"><a xlink:title=" ">
<polygon fill="#e0e0e0" stroke="#999999" points="1506,-184 1444,-184 1444,-165 1506,-165 1506,-184"/>
<text text-anchor="middle" x="1475" y="-172" font-family="Helvetica,sans-Serif" font-size="10.00">TSpline.h</text>
</a>
</g>
</g>
<!-- Node3&#45;&gt;Node22 -->
<g id="edge23" class="edge">
<title>Node3&#45;&gt;Node22</title>
<path fill="none" stroke="#63b8ff" d="M1318.04,-219.98C1349.71,-211.01 1399.77,-196.82 1434.81,-186.89"/>
<polygon fill="#63b8ff" stroke="#63b8ff" points="1436.05,-190.18 1444.72,-184.08 1434.14,-183.44 1436.05,-190.18"/>
</g>
<!-- Node23 -->
<g id="node18" class="node">
<title>Node23</title>
<g id="a_node18"><a xlink:title=" ">
<polygon fill="#e0e0e0" stroke="#999999" points="984.5,-184 907.5,-184 907.5,-165 984.5,-165 984.5,-184"/>
<text text-anchor="middle" x="946" y="-172" font-family="Helvetica,sans-Serif" font-size="10.00">TObjString.h</text>
</a>
</g>
</g>
<!-- Node3&#45;&gt;Node23 -->
<g id="edge24" class="edge">
<title>Node3&#45;&gt;Node23</title>
<path fill="none" stroke="#63b8ff" d="M1228.03,-219.98C1170.58,-211.69 1081.18,-198.5 994.7,-184.25"/>
<polygon fill="#63b8ff" stroke="#63b8ff" points="995.15,-180.77 984.71,-182.59 994.01,-187.68 995.15,-180.77"/>
</g>
<!-- Node24 -->
<g id="node19" class="node">
<title>Node24</title>
<g id="a_node19"><a xlink:title=" ">
<polygon fill="#e0e0e0" stroke="#999999" points="1781.5,-184 1732.5,-184 1732.5,-165 1781.5,-165 1781.5,-184"/>
<text text-anchor="middle" x="1757" y="-172" font-family="Helvetica,sans-Serif" font-size="10.00">TFile.h</text>
</a>
</g>
</g>
<!-- Node3&#45;&gt;Node24 -->
<g id="edge25" class="edge">
<title>Node3&#45;&gt;Node24</title>
<path fill="none" stroke="#63b8ff" d="M1358.68,-224.56C1443.18,-219.13 1588.96,-207.42 1722.24,-184.08"/>
<polygon fill="#63b8ff" stroke="#63b8ff" points="1722.99,-187.5 1732.22,-182.31 1721.76,-180.61 1722.99,-187.5"/>
</g>
<!-- Node25 -->
<g id="node20" class="node">
<title>Node25</title>
<g id="a_node20"><a xlink:title=" ">
<polygon fill="#e0e0e0" stroke="#999999" points="1568,-184 1524,-184 1524,-165 1568,-165 1568,-184"/>
<text text-anchor="middle" x="1546" y="-172" font-family="Helvetica,sans-Serif" font-size="10.00">TF1.h</text>
</a>
</g>
</g>
<!-- Node3&#45;&gt;Node25 -->
<g id="edge26" class="edge">
<title>Node3&#45;&gt;Node25</title>
<path fill="none" stroke="#63b8ff" d="M1336.93,-219.99C1380.89,-212.1 1447.41,-199.56 1513.89,-184.13"/>
<polygon fill="#63b8ff" stroke="#63b8ff" points="1514.76,-187.52 1523.7,-181.83 1513.16,-180.7 1514.76,-187.52"/>
</g>
<!-- Node26 -->
<g id="node21" class="node">
<title>Node26</title>
<g id="a_node21"><a xlink:title=" ">
<polygon fill="#e0e0e0" stroke="#999999" points="1651.5,-184 1586.5,-184 1586.5,-165 1651.5,-165 1651.5,-184"/>
<text text-anchor="middle" x="1619" y="-172" font-family="Helvetica,sans-Serif" font-size="10.00">TH2Poly.h</text>
</a>
</g>
</g>
<!-- Node3&#45;&gt;Node26 -->
<g id="edge27" class="edge">
<title>Node3&#45;&gt;Node26</title>
<path fill="none" stroke="#63b8ff" d="M1348.75,-219.99C1405.09,-211.91 1491.52,-199.02 1576.4,-184.03"/>
<polygon fill="#63b8ff" stroke="#63b8ff" points="1577.24,-187.44 1586.47,-182.24 1576.01,-180.54 1577.24,-187.44"/>
</g>
<!-- Node27 -->
<g id="node22" class="node">
<title>Node27</title>
<g id="a_node22"><a xlink:title=" ">
<polygon fill="#e0e0e0" stroke="#999999" points="1714.5,-184 1669.5,-184 1669.5,-165 1714.5,-165 1714.5,-184"/>
<text text-anchor="middle" x="1692" y="-172" font-family="Helvetica,sans-Serif" font-size="10.00">TH1.h</text>
</a>
</g>
</g>
<!-- Node3&#45;&gt;Node27 -->
<g id="edge28" class="edge">
<title>Node3&#45;&gt;Node27</title>
<path fill="none" stroke="#63b8ff" d="M1358.61,-223.23C1431.77,-217.05 1549.53,-205.13 1659.47,-184.05"/>
<polygon fill="#63b8ff" stroke="#63b8ff" points="1660.26,-187.46 1669.41,-182.11 1658.92,-180.59 1660.26,-187.46"/>
</g>
<!-- Node28 -->
<g id="node23" class="node">
<title>Node28</title>
<g id="a_node23"><a xlink:title=" ">
<polygon fill="#e0e0e0" stroke="#999999" points="1175.5,-184 1002.5,-184 1002.5,-165 1175.5,-165 1175.5,-184"/>
<text text-anchor="middle" x="1089" y="-172" font-family="Helvetica,sans-Serif" font-size="10.00">Constants/OscillatorConstants.h</text>
</a>
</g>
</g>
<!-- Node3&#45;&gt;Node28 -->
<g id="edge29" class="edge">
<title>Node3&#45;&gt;Node28</title>
<path fill="none" stroke="#63b8ff" d="M1256.03,-219.98C1222.18,-210.97 1168.6,-196.7 1131.29,-186.76"/>
<polygon fill="#63b8ff" stroke="#63b8ff" points="1131.79,-183.27 1121.22,-184.08 1129.99,-190.04 1131.79,-183.27"/>
</g>
<!-- Node8 -->
<g id="node8" class="node">
<title>Node8</title>
<g id="a_node8"><a xlink:title=" ">
<polygon fill="#e0e0e0" stroke="#999999" points="732,-19 672,-19 672,0 732,0 732,-19"/>
<text text-anchor="middle" x="702" y="-7" font-family="Helvetica,sans-Serif" font-size="10.00">iostream</text>
</a>
</g>
</g>
<!-- Node7&#45;&gt;Node8 -->
<g id="edge7" class="edge">
<title>Node7&#45;&gt;Node8</title>
<path fill="none" stroke="#63b8ff" d="M734.17,-164.74C728.85,-139.2 713.25,-64.43 705.91,-29.23"/>
<polygon fill="#63b8ff" stroke="#63b8ff" points="709.31,-28.38 703.84,-19.31 702.45,-29.81 709.31,-28.38"/>
</g>
<!-- Node9 -->
<g id="node9" class="node">
<title>Node9</title>
<g id="a_node9"><a xlink:title=" ">
<polygon fill="#e0e0e0" stroke="#999999" points="661,-74 617,-74 617,-55 661,-55 661,-74"/>
<text text-anchor="middle" x="639" y="-62" font-family="Helvetica,sans-Serif" font-size="10.00">string</text>
</a>
</g>
</g>
<!-- Node7&#45;&gt;Node9 -->
<g id="edge8" class="edge">
<title>Node7&#45;&gt;Node9</title>
<path fill="none" stroke="#63b8ff" d="M725.61,-164.76C715.56,-156.1 700.11,-142.26 688,-129 674.4,-114.11 660.5,-95.74 651,-82.6"/>
<polygon fill="#63b8ff" stroke="#63b8ff" points="653.58,-80.18 644.92,-74.07 647.88,-84.25 653.58,-80.18"/>
</g>
<!-- Node10 -->
<g id="node10" class="node">
<title>Node10</title>
<g id="a_node10"><a xlink:title=" ">
<polygon fill="#e0e0e0" stroke="#999999" points="833.5,-129 768.5,-129 768.5,-110 833.5,-110 833.5,-129"/>
<text text-anchor="middle" x="801" y="-117" font-family="Helvetica,sans-Serif" font-size="10.00">stdexcept</text>
</a>
</g>
</g>
<!-- Node7&#45;&gt;Node10 -->
<g id="edge9" class="edge">
<title>Node7&#45;&gt;Node10</title>
<path fill="none" stroke="#63b8ff" d="M746.44,-164.98C756.15,-157.07 770.82,-145.11 782.5,-135.58"/>
<polygon fill="#63b8ff" stroke="#63b8ff" points="784.83,-138.2 790.37,-129.17 780.4,-132.78 784.83,-138.2"/>
</g>
<!-- Node7&#45;&gt;Node11 -->
<g id="edge10" class="edge">
<title>Node7&#45;&gt;Node11</title>
<path fill="none" stroke="#63b8ff" d="M765.56,-164.98C796.72,-156.01 845.97,-141.82 880.46,-131.89"/>
<polygon fill="#63b8ff" stroke="#63b8ff" points="881.57,-135.21 890.21,-129.08 879.63,-128.49 881.57,-135.21"/>
</g>
<!-- Node7&#45;&gt;Node15 -->
<g id="edge20" class="edge">
<title>Node7&#45;&gt;Node15</title>
<path fill="none" stroke="#63b8ff" d="M737.46,-164.94C740.01,-151.99 746.25,-127.12 759,-110 768.26,-97.57 781.95,-87.04 793.92,-79.36"/>
<polygon fill="#63b8ff" stroke="#63b8ff" points="795.92,-82.24 802.63,-74.05 792.27,-76.26 795.92,-82.24"/>
</g>
<!-- Node11&#45;&gt;Node8 -->
<g id="edge11" class="edge">
<title>Node11&#45;&gt;Node8</title>
<path fill="none" stroke="#63b8ff" d="M863.33,-109.95C832.11,-103.45 793.6,-92.38 763,-74 743.03,-62.01 725.22,-41.79 714.08,-27.4"/>
<polygon fill="#63b8ff" stroke="#63b8ff" points="716.83,-25.23 708.04,-19.31 711.22,-29.41 716.83,-25.23"/>
</g>
<!-- Node11&#45;&gt;Node9 -->
<g id="edge14" class="edge">
<title>Node11&#45;&gt;Node9</title>
<path fill="none" stroke="#63b8ff" d="M874.85,-109.98C817.79,-99.22 720.98,-80.96 670.99,-71.53"/>
<polygon fill="#63b8ff" stroke="#63b8ff" points="671.54,-68.08 661.07,-69.66 670.25,-74.96 671.54,-68.08"/>
</g>
<!-- Node12 -->
<g id="node12" class="node">
<title>Node12</title>
<g id="a_node12"><a xlink:title=" ">
<polygon fill="#e0e0e0" stroke="#999999" points="926,-19 870,-19 870,0 926,0 926,-19"/>
<text text-anchor="middle" x="898" y="-7" font-family="Helvetica,sans-Serif" font-size="10.00">sstream</text>
</a>
</g>
</g>
<!-- Node11&#45;&gt;Node12 -->
<g id="edge12" class="edge">
<title>Node11&#45;&gt;Node12</title>
<path fill="none" stroke="#63b8ff" d="M931.79,-109.69C946.39,-97.64 968.17,-75.2 958,-55 951.31,-41.71 938.56,-31.39 926.53,-24.05"/>
<polygon fill="#63b8ff" stroke="#63b8ff" points="928.01,-20.87 917.58,-19.02 924.58,-26.97 928.01,-20.87"/>
</g>
<!-- Node13 -->
<g id="node13" class="node">
<title>Node13</title>
<g id="a_node13"><a xlink:title=" ">
<polygon fill="#e0e0e0" stroke="#999999" points="949.5,-74 884.5,-74 884.5,-55 949.5,-55 949.5,-74"/>
<text text-anchor="middle" x="917" y="-62" font-family="Helvetica,sans-Serif" font-size="10.00">functional</text>
</a>
</g>
</g>
<!-- Node11&#45;&gt;Node13 -->
<g id="edge13" class="edge">
<title>Node11&#45;&gt;Node13</title>
<path fill="none" stroke="#63b8ff" d="M919.5,-109.75C919.11,-102.8 918.55,-92.85 918.05,-84.13"/>
<polygon fill="#63b8ff" stroke="#63b8ff" points="921.55,-83.88 917.49,-74.09 914.56,-84.27 921.55,-83.88"/>
</g>
<!-- Node11&#45;&gt;Node15 -->
<g id="edge15" class="edge">
<title>Node11&#45;&gt;Node15</title>
<path fill="none" stroke="#63b8ff" d="M903.77,-109.98C887.82,-101.61 863.22,-88.7 844.62,-78.95"/>
<polygon fill="#63b8ff" stroke="#63b8ff" points="846,-75.72 835.52,-74.17 842.75,-81.92 846,-75.72"/>
</g>
<!-- Node15&#45;&gt;Node8 -->
<g id="edge18" class="edge">
<title>Node15&#45;&gt;Node8</title>
<path fill="none" stroke="#63b8ff" d="M800.2,-54.98C781.38,-46.46 752.18,-33.23 730.5,-23.41"/>
<polygon fill="#63b8ff" stroke="#63b8ff" points="731.69,-20.11 721.14,-19.17 728.8,-26.48 731.69,-20.11"/>
</g>
<!-- Node15&#45;&gt;Node12 -->
<g id="edge16" class="edge">
<title>Node15&#45;&gt;Node12</title>
<path fill="none" stroke="#63b8ff" d="M831.69,-54.98C843.83,-46.84 862.36,-34.41 876.75,-24.76"/>
<polygon fill="#63b8ff" stroke="#63b8ff" points="878.72,-27.65 885.08,-19.17 874.82,-21.84 878.72,-27.65"/>
</g>
<!-- Node16 -->
<g id="node15" class="node">
<title>Node16</title>
<g id="a_node15"><a xlink:title=" ">
<polygon fill="#e0e0e0" stroke="#999999" points="312.5,-19 257.5,-19 257.5,0 312.5,0 312.5,-19"/>
<text text-anchor="middle" x="285" y="-7" font-family="Helvetica,sans-Serif" font-size="10.00">fstream</text>
</a>
</g>
</g>
<!-- Node15&#45;&gt;Node16 -->
<g id="edge17" class="edge">
<title>Node15&#45;&gt;Node16</title>
<path fill="none" stroke="#63b8ff" d="M771.61,-58.8C666.93,-48.41 417.72,-23.67 322.7,-14.24"/>
<polygon fill="#63b8ff" stroke="#63b8ff" points="322.97,-10.75 312.67,-13.25 322.28,-17.72 322.97,-10.75"/>
</g>
<!-- Node17 -->
<g id="node16" class="node">
<title>Node17</title>
<g id="a_node16"><a xlink:title=" ">
<polygon fill="#e0e0e0" stroke="#999999" points="1490.5,-19 1443.5,-19 1443.5,0 1490.5,0 1490.5,-19"/>
<text text-anchor="middle" x="1467" y="-7" font-family="Helvetica,sans-Serif" font-size="10.00">vector</text>
</a>
</g>
</g>
<!-- Node15&#45;&gt;Node17 -->
<g id="edge19" class="edge">
<title>Node15&#45;&gt;Node17</title>
<path fill="none" stroke="#63b8ff" d="M866.02,-56.1C869.06,-55.7 872.07,-55.33 875,-55 1086.59,-31.02 1342.23,-16.76 1433.01,-12.15"/>
<polygon fill="#63b8ff" stroke="#63b8ff" points="1433.44,-15.64 1443.25,-11.64 1433.09,-8.65 1433.44,-15.64"/>
</g>
<!-- Node29&#45;&gt;Node7 -->
<g id="edge36" class="edge">
<title>Node29&#45;&gt;Node7</title>
<path fill="none" stroke="#63b8ff" d="M417.05,-219.98C484.54,-210.57 593.13,-195.43 664.53,-185.47"/>
<polygon fill="#63b8ff" stroke="#63b8ff" points="665.36,-188.89 674.78,-184.04 664.4,-181.95 665.36,-188.89"/>
</g>
<!-- Node29&#45;&gt;Node8 -->
<g id="edge31" class="edge">
<title>Node29&#45;&gt;Node8</title>
<path fill="none" stroke="#63b8ff" d="M361.24,-219.86C366.44,-211.05 374.43,-196.89 380,-184 403.99,-128.53 376.92,-94.1 423,-55 458.24,-25.1 592.74,-15.11 661.3,-11.92"/>
<polygon fill="#63b8ff" stroke="#63b8ff" points="661.88,-15.39 671.71,-11.46 661.57,-8.4 661.88,-15.39"/>
</g>
<!-- Node29&#45;&gt;Node9 -->
<g id="edge33" class="edge">
<title>Node29&#45;&gt;Node9</title>
<path fill="none" stroke="#63b8ff" d="M367.48,-219.79C379.08,-210.93 397.47,-196.73 413,-184 452,-152.03 454.97,-134.58 499,-110 533.31,-90.85 577.04,-78.63 606.41,-71.94"/>
<polygon fill="#63b8ff" stroke="#63b8ff" points="607.52,-75.28 616.54,-69.72 606.03,-68.44 607.52,-75.28"/>
</g>
<!-- Node29&#45;&gt;Node15 -->
<g id="edge37" class="edge">
<title>Node29&#45;&gt;Node15</title>
<path fill="none" stroke="#63b8ff" d="M372.68,-219.94C398.32,-206.98 449.15,-182.1 494,-165 592.98,-127.27 712.95,-93.53 775.8,-76.74"/>
<polygon fill="#63b8ff" stroke="#63b8ff" points="776.99,-80.04 785.75,-74.09 775.19,-73.28 776.99,-80.04"/>
</g>
<!-- Node29&#45;&gt;Node16 -->
<g id="edge32" class="edge">
<title>Node29&#45;&gt;Node16</title>
<path fill="none" stroke="#63b8ff" d="M340.43,-219.72C328.31,-211.99 312.21,-199.55 304,-184 277.16,-133.19 279.66,-62.45 282.76,-29.19"/>
<polygon fill="#63b8ff" stroke="#63b8ff" points="286.26,-29.39 283.83,-19.08 279.29,-28.65 286.26,-29.39"/>
</g>
<!-- Node29&#45;&gt;Node23 -->
<g id="edge40" class="edge">
<title>Node29&#45;&gt;Node23</title>
<path fill="none" stroke="#63b8ff" d="M419.14,-222.83C537.53,-212.19 790.49,-189.47 897.06,-179.9"/>
<polygon fill="#63b8ff" stroke="#63b8ff" points="897.56,-183.37 907.21,-178.98 896.94,-176.39 897.56,-183.37"/>
</g>
<!-- Node30 -->
<g id="node25" class="node">
<title>Node30</title>
<g id="a_node25"><a xlink:title=" ">
<polygon fill="#e0e0e0" stroke="#999999" points="371,-184 313,-184 313,-165 371,-165 371,-184"/>
<text text-anchor="middle" x="342" y="-172" font-family="Helvetica,sans-Serif" font-size="10.00">cxxabi.h</text>
</a>
</g>
</g>
<!-- Node29&#45;&gt;Node30 -->
<g id="edge34" class="edge">
<title>Node29&#45;&gt;Node30</title>
<path fill="none" stroke="#63b8ff" d="M353.69,-219.75C351.83,-212.72 349.16,-202.62 346.85,-193.84"/>
<polygon fill="#63b8ff" stroke="#63b8ff" points="350.21,-192.86 344.27,-184.09 343.44,-194.65 350.21,-192.86"/>
</g>
<!-- Node31 -->
<g id="node26" class="node">
<title>Node31</title>
<g id="a_node26"><a xlink:title=" ">
<polygon fill="#e0e0e0" stroke="#999999" points="72,-184 28,-184 28,-165 72,-165 72,-184"/>
<text text-anchor="middle" x="50" y="-172" font-family="Helvetica,sans-Serif" font-size="10.00">regex</text>
</a>
</g>
</g>
<!-- Node29&#45;&gt;Node31 -->
<g id="edge35" class="edge">
<title>Node29&#45;&gt;Node31</title>
<path fill="none" stroke="#63b8ff" d="M292.84,-220.24C239.16,-212.78 159.9,-200.71 82.23,-184.08"/>
<polygon fill="#63b8ff" stroke="#63b8ff" points="82.8,-180.62 72.28,-181.92 81.31,-187.46 82.8,-180.62"/>
</g>
<!-- Node32 -->
<g id="node27" class="node">
<title>Node32</title>
<g id="a_node27"><a xlink:title=" ">
<polygon fill="#e0e0e0" stroke="#999999" points="565,-184 503,-184 503,-165 565,-165 565,-184"/>
<text text-anchor="middle" x="534" y="-172" font-family="Helvetica,sans-Serif" font-size="10.00">TMacro.h</text>
</a>
</g>
</g>
<!-- Node29&#45;&gt;Node32 -->
<g id="edge38" class="edge">
<title>Node29&#45;&gt;Node32</title>
<path fill="none" stroke="#63b8ff" d="M384.6,-219.98C414.61,-211.05 461.98,-196.94 495.32,-187.02"/>
<polygon fill="#63b8ff" stroke="#63b8ff" points="496.59,-190.29 505.18,-184.08 494.59,-183.58 496.59,-190.29"/>
</g>
<!-- Node33 -->
<g id="node28" class="node">
<title>Node33</title>
<g id="a_node28"><a xlink:title=" ">
<polygon fill="#e0e0e0" stroke="#999999" points="139.5,-184 90.5,-184 90.5,-165 139.5,-165 139.5,-184"/>
<text text-anchor="middle" x="115" y="-172" font-family="Helvetica,sans-Serif" font-size="10.00">TList.h</text>
</a>
</g>
</g>
<!-- Node29&#45;&gt;Node33 -->
<g id="edge39" class="edge">
<title>Node29&#45;&gt;Node33</title>
<path fill="none" stroke="#63b8ff" d="M313.66,-219.98C273.69,-211.81 211.83,-198.87 149.79,-184.36"/>
<polygon fill="#63b8ff" stroke="#63b8ff" points="150.37,-180.9 139.84,-182.02 148.77,-187.71 150.37,-180.9"/>
</g>
<!-- Node34 -->
<g id="node29" class="node">
<title>Node34</title>
<g id="a_node29"><a xlink:title=" ">
<polygon fill="#e0e0e0" stroke="#999999" points="256.5,-184 157.5,-184 157.5,-165 256.5,-165 256.5,-184"/>
<text text-anchor="middle" x="207" y="-172" font-family="Helvetica,sans-Serif" font-size="10.00">yaml&#45;cpp/yaml.h</text>
</a>
</g>
</g>
<!-- Node29&#45;&gt;Node34 -->
<g id="edge41" class="edge">
<title>Node29&#45;&gt;Node34</title>
<path fill="none" stroke="#63b8ff" d="M332.06,-219.98C307.44,-211.23 268.88,-197.51 241.08,-187.62"/>
<polygon fill="#63b8ff" stroke="#63b8ff" points="241.97,-184.22 231.38,-184.17 239.62,-190.82 241.97,-184.22"/>
</g>
<!-- Node35&#45;&gt;Node7 -->
<g id="edge49" class="edge">
<title>Node35&#45;&gt;Node7</title>
<path fill="none" stroke="#63b8ff" d="M705.48,-280.47C710.81,-262.15 723.44,-218.68 730.68,-193.81"/>
<polygon fill="#63b8ff" stroke="#63b8ff" points="734.06,-194.71 733.49,-184.13 727.34,-192.76 734.06,-194.71"/>
</g>
<!-- Node35&#45;&gt;Node8 -->
<g id="edge43" class="edge">
<title>Node35&#45;&gt;Node8</title>
<path fill="none" stroke="#63b8ff" d="M648.89,-281.23C582.57,-271.15 477.51,-253.19 466,-239 460.68,-232.44 461.06,-226.85 466,-220 495.58,-178.95 539.39,-220.9 574,-184 614.56,-140.75 570.11,-100.61 608,-55 621.85,-38.32 643.39,-27.5 662.35,-20.71"/>
<polygon fill="#63b8ff" stroke="#63b8ff" points="663.59,-23.99 671.98,-17.52 661.39,-17.34 663.59,-23.99"/>
</g>
<!-- Node35&#45;&gt;Node9 -->
<g id="edge45" class="edge">
<title>Node35&#45;&gt;Node9</title>
<path fill="none" stroke="#63b8ff" d="M697.28,-280.47C686,-263.16 661,-222.27 650,-184 640.14,-149.7 638.58,-107.74 638.6,-84.07"/>
<polygon fill="#63b8ff" stroke="#63b8ff" points="642.1,-84.07 638.72,-74.03 635.1,-83.99 642.1,-84.07"/>
</g>
<!-- Node35&#45;&gt;Node11 -->
<g id="edge48" class="edge">
<title>Node35&#45;&gt;Node11</title>
<path fill="none" stroke="#63b8ff" d="M727.32,-280.39C749.54,-271.86 782.69,-257.41 808,-239 849.38,-208.89 888.18,-162.2 907.4,-137.37"/>
<polygon fill="#63b8ff" stroke="#63b8ff" points="910.28,-139.36 913.56,-129.29 904.72,-135.12 910.28,-139.36"/>
</g>
<!-- Node35&#45;&gt;Node16 -->
<g id="edge44" class="edge">
<title>Node35&#45;&gt;Node16</title>
<path fill="none" stroke="#63b8ff" d="M648.71,-285.95C483.82,-275.98 0,-241.14 0,-175.5 0,-175.5 0,-175.5 0,-118.5 0,-66.26 169.56,-30.35 247.11,-16.66"/>
<polygon fill="#63b8ff" stroke="#63b8ff" points="248.16,-20.03 257.41,-14.88 246.96,-13.14 248.16,-20.03"/>
</g>
<!-- Node35&#45;&gt;Node17 -->
<g id="edge46" class="edge">
<title>Node35&#45;&gt;Node17</title>
<path fill="none" stroke="#63b8ff" d="M757.2,-288.49C972.47,-285.88 1758.62,-270.44 1823,-184 1910.65,-66.32 1604.73,-24.27 1500.54,-13.54"/>
<polygon fill="#63b8ff" stroke="#63b8ff" points="1500.85,-10.05 1490.55,-12.54 1500.15,-17.01 1500.85,-10.05"/>
</g>
<!-- Node35&#45;&gt;Node29 -->
<g id="edge50" class="edge">
<title>Node35&#45;&gt;Node29</title>
<path fill="none" stroke="#63b8ff" d="M652.54,-280.49C589.97,-269.94 483.39,-251.98 416.5,-240.7"/>
<polygon fill="#63b8ff" stroke="#63b8ff" points="416.96,-237.23 406.52,-239.02 415.8,-244.13 416.96,-237.23"/>
</g>
<!-- Node35&#45;&gt;Node32 -->
<g id="edge53" class="edge">
<title>Node35&#45;&gt;Node32</title>
<path fill="none" stroke="#63b8ff" d="M694.66,-280.06C681.21,-265.99 653.43,-238.39 626,-220 607.01,-207.27 583.83,-196.08 565.49,-188.11"/>
<polygon fill="#63b8ff" stroke="#63b8ff" points="566.7,-184.82 556.12,-184.13 563.96,-191.26 566.7,-184.82"/>
</g>
<!-- Node36 -->
<g id="node31" class="node">
<title>Node36</title>
<g id="a_node31"><a xlink:title=" ">
<polygon fill="#e0e0e0" stroke="#999999" points="799.5,-239 750.5,-239 750.5,-220 799.5,-220 799.5,-239"/>
<text text-anchor="middle" x="775" y="-227" font-family="Helvetica,sans-Serif" font-size="10.00">cstdlib</text>
</a>
</g>
</g>
<!-- Node35&#45;&gt;Node36 -->
<g id="edge47" class="edge">
<title>Node35&#45;&gt;Node36</title>
<path fill="none" stroke="#63b8ff" d="M713.62,-280.37C724.9,-271.21 742.92,-256.56 756.53,-245.51"/>
<polygon fill="#63b8ff" stroke="#63b8ff" points="758.78,-248.19 764.33,-239.17 754.36,-242.76 758.78,-248.19"/>
</g>
<!-- Node37 -->
<g id="node32" class="node">
<title>Node37</title>
<g id="a_node32"><a xlink:title=" ">
<polygon fill="#e0e0e0" stroke="#999999" points="1168,-239 1116,-239 1116,-220 1168,-220 1168,-239"/>
<text text-anchor="middle" x="1142" y="-227" font-family="Helvetica,sans-Serif" font-size="10.00">TTree.h</text>
</a>
</g>
</g>
<!-- Node35&#45;&gt;Node37 -->
<g id="edge51" class="edge">
<title>Node35&#45;&gt;Node37</title>
<path fill="none" stroke="#63b8ff" d="M757.27,-281.77C848.09,-269.67 1028.47,-245.63 1105.62,-235.35"/>
<polygon fill="#63b8ff" stroke="#63b8ff" points="1106.35,-238.78 1115.8,-233.99 1105.43,-231.84 1106.35,-238.78"/>
</g>
<!-- Node38 -->
<g id="node33" class="node">
<title>Node38</title>
<g id="a_node33"><a xlink:title=" ">
<polygon fill="#e0e0e0" stroke="#999999" points="540.5,-239 475.5,-239 475.5,-220 540.5,-220 540.5,-239"/>
<text text-anchor="middle" x="508" y="-227" font-family="Helvetica,sans-Serif" font-size="10.00">TBranch.h</text>
</a>
</g>
</g>
<!-- Node35&#45;&gt;Node38 -->
<g id="edge52" class="edge">
<title>Node35&#45;&gt;Node38</title>
<path fill="none" stroke="#63b8ff" d="M674.65,-280.49C640.71,-270.31 583.74,-253.22 546.01,-241.9"/>
<polygon fill="#63b8ff" stroke="#63b8ff" points="546.97,-238.54 536.39,-239.02 544.96,-245.24 546.97,-238.54"/>
</g>
<!-- Node39 -->
<g id="node34" class="node">
<title>Node39</title>
<g id="a_node34"><a xlink:title=" ">
<polygon fill="#e0e0e0" stroke="#999999" points="617.5,-239 558.5,-239 558.5,-220 617.5,-220 617.5,-239"/>
<text text-anchor="middle" x="588" y="-227" font-family="Helvetica,sans-Serif" font-size="10.00">TChain.h</text>
</a>
</g>
</g>
<!-- Node35&#45;&gt;Node39 -->
<g id="edge54" class="edge">
<title>Node35&#45;&gt;Node39</title>
<path fill="none" stroke="#63b8ff" d="M686.03,-280.37C667.09,-270.73 636.21,-255.03 614.17,-243.81"/>
<polygon fill="#63b8ff" stroke="#63b8ff" points="615.54,-240.58 605.04,-239.17 612.36,-246.82 615.54,-240.58"/>
</g>
<!-- Node40 -->
<g id="node35" class="node">
<title>Node40</title>
<g id="a_node35"><a xlink:title=" ">
<polygon fill="#e0e0e0" stroke="#999999" points="1035.5,-239 952.5,-239 952.5,-220 1035.5,-220 1035.5,-239"/>
<text text-anchor="middle" x="994" y="-227" font-family="Helvetica,sans-Serif" font-size="10.00">TStopwatch.h</text>
</a>
</g>
</g>
<!-- Node35&#45;&gt;Node40 -->
<g id="edge55" class="edge">
<title>Node35&#45;&gt;Node40</title>
<path fill="none" stroke="#63b8ff" d="M745.31,-280.49C797.4,-270.02 885.84,-252.24 942.01,-240.95"/>
<polygon fill="#63b8ff" stroke="#63b8ff" points="942.99,-244.32 952.11,-238.92 941.61,-237.46 942.99,-244.32"/>
</g>
<!-- Node41&#45;&gt;Node24 -->
<g id="edge78" class="edge">
<title>Node41&#45;&gt;Node24</title>
<path fill="none" stroke="#63b8ff" d="M2047.98,-289.11C1952.27,-287.36 1802.21,-278.22 1764,-239 1752.76,-227.47 1752.02,-208.59 1753.48,-194.41"/>
<polygon fill="#63b8ff" stroke="#63b8ff" points="1756.98,-194.68 1754.97,-184.27 1750.06,-193.66 1756.98,-194.68"/>
</g>
<!-- Node41&#45;&gt;Node37 -->
<g id="edge77" class="edge">
<title>Node41&#45;&gt;Node37</title>
<path fill="none" stroke="#63b8ff" d="M2047.92,-286.53C1886.82,-281.23 1517.99,-266.95 1209,-239 1198.95,-238.09 1188.08,-236.83 1178.08,-235.56"/>
<polygon fill="#63b8ff" stroke="#63b8ff" points="1178.41,-232.07 1168.04,-234.25 1177.5,-239.02 1178.41,-232.07"/>
</g>
<!-- Node41&#45;&gt;Node40 -->
<g id="edge82" class="edge">
<title>Node41&#45;&gt;Node40</title>
<path fill="none" stroke="#63b8ff" d="M2047.75,-285.71C1873.95,-278.61 1456.63,-260.69 1107,-239 1086.94,-237.76 1064.9,-236.15 1045.65,-234.67"/>
<polygon fill="#63b8ff" stroke="#63b8ff" points="1045.81,-231.17 1035.57,-233.89 1045.27,-238.15 1045.81,-231.17"/>
</g>
<!-- Node42 -->
<g id="node37" class="node">
<title>Node42</title>
<g id="a_node37"><a xlink:href="ParameterStructs_8h.html" target="_top" xlink:title=" ">
<polygon fill="white" stroke="#666666" points="1630,-239 1462,-239 1462,-220 1630,-220 1630,-239"/>
<text text-anchor="middle" x="1546" y="-227" font-family="Helvetica,sans-Serif" font-size="10.00">Parameters/ParameterStructs.h</text>
</a>
</g>
</g>
<!-- Node41&#45;&gt;Node42 -->
<g id="edge58" class="edge">
<title>Node41&#45;&gt;Node42</title>
<path fill="none" stroke="#63b8ff" d="M2047.87,-280.77C1940.53,-270.02 1752.94,-251.23 1640.02,-239.92"/>
<polygon fill="#63b8ff" stroke="#63b8ff" points="1640.3,-236.43 1630,-238.91 1639.6,-243.39 1640.3,-236.43"/>
</g>
<!-- Node43 -->
<g id="node38" class="node">
<title>Node43</title>
<g id="a_node38"><a xlink:title=" ">
<polygon fill="#e0e0e0" stroke="#999999" points="1841,-239 1773,-239 1773,-220 1841,-220 1841,-239"/>
<text text-anchor="middle" x="1807" y="-227" font-family="Helvetica,sans-Serif" font-size="10.00">TMatrixT.h</text>
</a>
</g>
</g>
<!-- Node41&#45;&gt;Node43 -->
<g id="edge71" class="edge">
<title>Node41&#45;&gt;Node43</title>
<path fill="none" stroke="#63b8ff" d="M2049.06,-274.95C1995.62,-265.58 1923.77,-252.81 1851.46,-239.25"/>
<polygon fill="#63b8ff" stroke="#63b8ff" points="1851.73,-235.74 1841.26,-237.33 1850.44,-242.62 1851.73,-235.74"/>
</g>
<!-- Node44 -->
<g id="node39" class="node">
<title>Node44</title>
<g id="a_node39"><a xlink:title=" ">
<polygon fill="#e0e0e0" stroke="#999999" points="1951,-239 1859,-239 1859,-220 1951,-220 1951,-239"/>
<text text-anchor="middle" x="1905" y="-227" font-family="Helvetica,sans-Serif" font-size="10.00">TMatrixDSym.h</text>
</a>
</g>
</g>
<!-- Node41&#45;&gt;Node44 -->
<g id="edge72" class="edge">
<title>Node41&#45;&gt;Node44</title>
<path fill="none" stroke="#63b8ff" d="M2076.11,-274.99C2036.77,-264.76 1984.18,-251.09 1947.73,-241.61"/>
<polygon fill="#63b8ff" stroke="#63b8ff" points="1948.46,-238.18 1937.9,-239.05 1946.7,-244.96 1948.46,-238.18"/>
</g>
<!-- Node45 -->
<g id="node40" class="node">
<title>Node45</title>
<g id="a_node40"><a xlink:title=" ">
<polygon fill="#e0e0e0" stroke="#999999" points="2037,-239 1969,-239 1969,-220 2037,-220 2037,-239"/>
<text text-anchor="middle" x="2003" y="-227" font-family="Helvetica,sans-Serif" font-size="10.00">TVectorT.h</text>
</a>
</g>
</g>
<!-- Node41&#45;&gt;Node45 -->
<g id="edge73" class="edge">
<title>Node41&#45;&gt;Node45</title>
<path fill="none" stroke="#63b8ff" d="M2099.58,-274.99C2078.77,-265.4 2051.38,-252.79 2031.09,-243.44"/>
<polygon fill="#63b8ff" stroke="#63b8ff" points="2032.3,-240.14 2021.76,-239.14 2029.37,-246.5 2032.3,-240.14"/>
</g>
<!-- Node46 -->
<g id="node41" class="node">
<title>Node46</title>
<g id="a_node41"><a xlink:title=" ">
<polygon fill="#e0e0e0" stroke="#999999" points="2125,-239 2055,-239 2055,-220 2125,-220 2125,-239"/>
<text text-anchor="middle" x="2090" y="-227" font-family="Helvetica,sans-Serif" font-size="10.00">TVectorD.h</text>
</a>
</g>
</g>
<!-- Node41&#45;&gt;Node46 -->
<g id="edge74" class="edge">
<title>Node41&#45;&gt;Node46</title>
<path fill="none" stroke="#63b8ff" d="M2120.32,-274.84C2114.75,-266.69 2107.71,-256.4 2101.82,-247.78"/>
<polygon fill="#63b8ff" stroke="#63b8ff" points="2104.53,-245.55 2095.99,-239.27 2098.75,-249.5 2104.53,-245.55"/>
</g>
<!-- Node47 -->
<g id="node42" class="node">
<title>Node47</title>
<g id="a_node42"><a xlink:title=" ">
<polygon fill="#e0e0e0" stroke="#999999" points="2196.5,-239 2143.5,-239 2143.5,-220 2196.5,-220 2196.5,-239"/>
<text text-anchor="middle" x="2170" y="-227" font-family="Helvetica,sans-Serif" font-size="10.00">TH1D.h</text>
</a>
</g>
</g>
<!-- Node41&#45;&gt;Node47 -->
<g id="edge75" class="edge">
<title>Node41&#45;&gt;Node47</title>
<path fill="none" stroke="#63b8ff" d="M2139.68,-274.84C2145.25,-266.69 2152.29,-256.4 2158.18,-247.78"/>
<polygon fill="#63b8ff" stroke="#63b8ff" points="2161.25,-249.5 2164.01,-239.27 2155.47,-245.55 2161.25,-249.5"/>
</g>
<!-- Node48 -->
<g id="node43" class="node">
<title>Node48</title>
<g id="a_node43"><a xlink:title=" ">
<polygon fill="#e0e0e0" stroke="#999999" points="2267.5,-239 2214.5,-239 2214.5,-220 2267.5,-220 2267.5,-239"/>
<text text-anchor="middle" x="2241" y="-227" font-family="Helvetica,sans-Serif" font-size="10.00">TH2D.h</text>
</a>
</g>
</g>
<!-- Node41&#45;&gt;Node48 -->
<g id="edge76" class="edge">
<title>Node41&#45;&gt;Node48</title>
<path fill="none" stroke="#63b8ff" d="M2156.59,-274.99C2174.45,-265.58 2197.84,-253.24 2215.48,-243.95"/>
<polygon fill="#63b8ff" stroke="#63b8ff" points="2217.39,-246.9 2224.61,-239.14 2214.13,-240.71 2217.39,-246.9"/>
</g>
<!-- Node49 -->
<g id="node44" class="node">
<title>Node49</title>
<g id="a_node44"><a xlink:title=" ">
<polygon fill="#e0e0e0" stroke="#999999" points="2364,-239 2286,-239 2286,-220 2364,-220 2364,-239"/>
<text text-anchor="middle" x="2325" y="-227" font-family="Helvetica,sans-Serif" font-size="10.00">TRandom3.h</text>
</a>
</g>
</g>
<!-- Node41&#45;&gt;Node49 -->
<g id="edge79" class="edge">
<title>Node41&#45;&gt;Node49</title>
<path fill="none" stroke="#63b8ff" d="M2176.71,-274.99C2210.36,-264.89 2255.21,-251.44 2286.75,-241.98"/>
<polygon fill="#63b8ff" stroke="#63b8ff" points="2287.92,-245.28 2296.49,-239.05 2285.9,-238.57 2287.92,-245.28"/>
</g>
<!-- Node50 -->
<g id="node45" class="node">
<title>Node50</title>
<g id="a_node45"><a xlink:title=" ">
<polygon fill="#e0e0e0" stroke="#999999" points="2438,-239 2382,-239 2382,-220 2438,-220 2438,-239"/>
<text text-anchor="middle" x="2410" y="-227" font-family="Helvetica,sans-Serif" font-size="10.00">TMath.h</text>
</a>
</g>
</g>
<!-- Node41&#45;&gt;Node50 -->
<g id="edge80" class="edge">
<title>Node41&#45;&gt;Node50</title>
<path fill="none" stroke="#63b8ff" d="M2200.27,-274.98C2246.47,-265.66 2308.51,-252.96 2371.95,-239.19"/>
<polygon fill="#63b8ff" stroke="#63b8ff" points="2372.71,-242.61 2381.73,-237.06 2371.22,-235.77 2372.71,-242.61"/>
</g>
<!-- Node51 -->
<g id="node46" class="node">
<title>Node51</title>
<g id="a_node46"><a xlink:title=" ">
<polygon fill="#e0e0e0" stroke="#999999" points="2550,-239 2456,-239 2456,-220 2550,-220 2550,-239"/>
<text text-anchor="middle" x="2503" y="-227" font-family="Helvetica,sans-Serif" font-size="10.00">TDecompChol.h</text>
</a>
</g>
</g>
<!-- Node41&#45;&gt;Node51 -->
<g id="edge81" class="edge">
<title>Node41&#45;&gt;Node51</title>
<path fill="none" stroke="#63b8ff" d="M2212.32,-276.09C2283.14,-264.98 2383.48,-249.24 2445.83,-239.47"/>
<polygon fill="#63b8ff" stroke="#63b8ff" points="2446.54,-242.9 2455.88,-237.89 2445.46,-235.98 2446.54,-242.9"/>
</g>
<!-- Node52 -->
<g id="node47" class="node">
<title>Node52</title>
<g id="a_node47"><a xlink:title=" ">
<polygon fill="#e0e0e0" stroke="#999999" points="2631.5,-239 2568.5,-239 2568.5,-220 2631.5,-220 2631.5,-239"/>
<text text-anchor="middle" x="2600" y="-227" font-family="Helvetica,sans-Serif" font-size="10.00">TMatrix.h</text>
</a>
</g>
</g>
<!-- Node41&#45;&gt;Node52 -->
<g id="edge83" class="edge">
<title>Node41&#45;&gt;Node52</title>
<path fill="none" stroke="#63b8ff" d="M2212.14,-281.6C2296.51,-273.51 2431.81,-259.16 2558.39,-238.96"/>
<polygon fill="#63b8ff" stroke="#63b8ff" points="2558.95,-242.41 2568.27,-237.37 2557.84,-235.5 2558.95,-242.41"/>
</g>
<!-- Node53 -->
<g id="node48" class="node">
<title>Node53</title>
<g id="a_node48"><a xlink:title=" ">
<polygon fill="#e0e0e0" stroke="#999999" points="2768.5,-239 2649.5,-239 2649.5,-220 2768.5,-220 2768.5,-239"/>
<text text-anchor="middle" x="2709" y="-227" font-family="Helvetica,sans-Serif" font-size="10.00">TMatrixDSymEigen.h</text>
</a>
</g>
</g>
<!-- Node41&#45;&gt;Node53 -->
<g id="edge84" class="edge">
<title>Node41&#45;&gt;Node53</title>
<path fill="none" stroke="#63b8ff" d="M2212.38,-281.62C2311.27,-272.62 2482.4,-256.54 2639.01,-239.2"/>
<polygon fill="#63b8ff" stroke="#63b8ff" points="2639.75,-242.64 2649.31,-238.05 2638.98,-235.68 2639.75,-242.64"/>
</g>
<!-- Node54 -->
<g id="node49" class="node">
<title>Node54</title>
<g id="a_node49"><a xlink:title=" ">
<polygon fill="#e0e0e0" stroke="#999999" points="2885,-239 2787,-239 2787,-220 2885,-220 2885,-239"/>
<text text-anchor="middle" x="2836" y="-227" font-family="Helvetica,sans-Serif" font-size="10.00">TMatrixDEigen.h</text>
</a>
</g>
</g>
<!-- Node41&#45;&gt;Node54 -->
<g id="edge85" class="edge">
<title>Node41&#45;&gt;Node54</title>
<path fill="none" stroke="#63b8ff" d="M2212,-284.48C2333.22,-277.39 2567.56,-262.16 2777.03,-239.03"/>
<polygon fill="#63b8ff" stroke="#63b8ff" points="2777.43,-242.51 2786.98,-237.92 2776.66,-235.55 2777.43,-242.51"/>
</g>
<!-- Node55 -->
<g id="node50" class="node">
<title>Node55</title>
<g id="a_node50"><a xlink:title=" ">
<polygon fill="#e0e0e0" stroke="#999999" points="2995,-239 2903,-239 2903,-220 2995,-220 2995,-239"/>
<text text-anchor="middle" x="2949" y="-227" font-family="Helvetica,sans-Serif" font-size="10.00">TDecompSVD.h</text>
</a>
</g>
</g>
<!-- Node41&#45;&gt;Node55 -->
<g id="edge86" class="edge">
<title>Node41&#45;&gt;Node55</title>
<path fill="none" stroke="#63b8ff" d="M2212.18,-286C2350.52,-280.41 2638.86,-266.53 2892.67,-239.05"/>
<polygon fill="#63b8ff" stroke="#63b8ff" points="2893.26,-242.5 2902.83,-237.94 2892.5,-235.54 2893.26,-242.5"/>
</g>
<!-- Node42&#45;&gt;Node4 -->
<g id="edge59" class="edge">
<title>Node42&#45;&gt;Node4</title>
<path fill="none" stroke="#63b8ff" d="M1524.15,-219.98C1500.02,-210.58 1461.21,-195.46 1435.66,-185.5"/>
<polygon fill="#63b8ff" stroke="#63b8ff" points="1436.84,-182.2 1426.25,-181.83 1434.3,-188.72 1436.84,-182.2"/>
</g>
<!-- Node42&#45;&gt;Node5 -->
<g id="edge60" class="edge">
<title>Node42&#45;&gt;Node5</title>
<path fill="none" stroke="#63b8ff" d="M1475.52,-220C1420.26,-212.61 1341.64,-200.49 1274,-184 1273.9,-183.98 1273.8,-183.95 1273.7,-183.93"/>
<polygon fill="#63b8ff" stroke="#63b8ff" points="1274.69,-180.57 1264.12,-181.19 1272.77,-187.3 1274.69,-180.57"/>
</g>
<!-- Node42&#45;&gt;Node6 -->
<g id="edge61" class="edge">
<title>Node42&#45;&gt;Node6</title>
<path fill="none" stroke="#63b8ff" d="M1511.14,-219.98C1473.91,-210.89 1414.8,-196.46 1374.07,-186.51"/>
<polygon fill="#63b8ff" stroke="#63b8ff" points="1374.68,-183.05 1364.14,-184.08 1373.02,-189.85 1374.68,-183.05"/>
</g>
<!-- Node42&#45;&gt;Node7 -->
<g id="edge62" class="edge">
<title>Node42&#45;&gt;Node7</title>
<path fill="none" stroke="#63b8ff" d="M1461.99,-223C1307.35,-212.88 979.17,-191.41 822.61,-181.17"/>
<polygon fill="#63b8ff" stroke="#63b8ff" points="822.75,-177.67 812.55,-180.51 822.3,-184.65 822.75,-177.67"/>
</g>
<!-- Node42&#45;&gt;Node11 -->
<g id="edge63" class="edge">
<title>Node42&#45;&gt;Node11</title>
<path fill="none" stroke="#63b8ff" d="M1630.03,-224.46C1692.61,-219.48 1770.6,-208.43 1791,-184 1796.41,-177.52 1796.82,-171.12 1791,-165 1763.95,-136.53 1208.53,-124.98 999.04,-121.62"/>
<polygon fill="#63b8ff" stroke="#63b8ff" points="998.78,-118.12 988.73,-121.46 998.67,-125.12 998.78,-118.12"/>
</g>
<!-- Node42&#45;&gt;Node15 -->
<g id="edge64" class="edge">
<title>Node42&#45;&gt;Node15</title>
<path fill="none" stroke="#63b8ff" d="M1630.07,-225.59C1697.55,-221.27 1784.58,-210.57 1807,-184 1812.45,-177.55 1812.67,-171.25 1807,-165 1738.94,-89.97 1017.79,-86.98 876.23,-73.91"/>
<polygon fill="#63b8ff" stroke="#63b8ff" points="876.34,-70.4 866.03,-72.82 875.6,-77.36 876.34,-70.4"/>
</g>
<!-- Node42&#45;&gt;Node22 -->
<g id="edge65" class="edge">
<title>Node42&#45;&gt;Node22</title>
<path fill="none" stroke="#63b8ff" d="M1534.59,-219.98C1523.89,-212 1507.66,-199.88 1494.84,-190.31"/>
<polygon fill="#63b8ff" stroke="#63b8ff" points="1496.72,-187.35 1486.61,-184.17 1492.53,-192.96 1496.72,-187.35"/>
</g>
<!-- Node42&#45;&gt;Node23 -->
<g id="edge66" class="edge">
<title>Node42&#45;&gt;Node23</title>
<path fill="none" stroke="#63b8ff" d="M1461.88,-224.32C1355.32,-218.44 1165.86,-206.05 994.63,-184.1"/>
<polygon fill="#63b8ff" stroke="#63b8ff" points="995.05,-180.62 984.68,-182.81 994.15,-187.56 995.05,-180.62"/>
</g>
<!-- Node42&#45;&gt;Node24 -->
<g id="edge67" class="edge">
<title>Node42&#45;&gt;Node24</title>
<path fill="none" stroke="#63b8ff" d="M1580.47,-219.96C1614.31,-211.56 1667.66,-198.27 1722.59,-184.35"/>
<polygon fill="#63b8ff" stroke="#63b8ff" points="1723.66,-187.68 1732.5,-181.83 1721.94,-180.9 1723.66,-187.68"/>
</g>
<!-- Node42&#45;&gt;Node25 -->
<g id="edge68" class="edge">
<title>Node42&#45;&gt;Node25</title>
<path fill="none" stroke="#63b8ff" d="M1546,-219.75C1546,-212.8 1546,-202.85 1546,-194.13"/>
<polygon fill="#63b8ff" stroke="#63b8ff" points="1549.5,-194.09 1546,-184.09 1542.5,-194.09 1549.5,-194.09"/>
</g>
<!-- Node42&#45;&gt;Node26 -->
<g id="edge69" class="edge">
<title>Node42&#45;&gt;Node26</title>
<path fill="none" stroke="#63b8ff" d="M1557.73,-219.98C1568.73,-212 1585.42,-199.88 1598.6,-190.31"/>
<polygon fill="#63b8ff" stroke="#63b8ff" points="1601.02,-192.88 1607.06,-184.17 1596.91,-187.21 1601.02,-192.88"/>
</g>
<!-- Node42&#45;&gt;Node27 -->
<g id="edge70" class="edge">
<title>Node42&#45;&gt;Node27</title>
<path fill="none" stroke="#63b8ff" d="M1569.46,-219.98C1593.87,-211.12 1632.27,-197.18 1659.57,-187.27"/>
<polygon fill="#63b8ff" stroke="#63b8ff" points="1660.88,-190.52 1669.08,-183.82 1658.49,-183.94 1660.88,-190.52"/>
</g>
</g>
</svg>
