<?xml version="1.0" encoding="UTF-8" standalone="no"?>
<!DOCTYPE svg PUBLIC "-//W3C//DTD SVG 1.1//EN"
 "http://www.w3.org/Graphics/SVG/1.1/DTD/svg11.dtd">
<!-- Generated by graphviz version 2.43.0 (0)
 -->
<!-- Title: Splines/BinnedSplineHandler.h Pages: 1 -->
<svg width="542pt" height="137pt"
 viewBox="0.00 0.00 542.00 137.00" xmlns="http://www.w3.org/2000/svg" xmlns:xlink="http://www.w3.org/1999/xlink">
<g id="graph0" class="graph" transform="scale(1 1) rotate(0) translate(4 133)">
<title>Splines/BinnedSplineHandler.h</title>
<!-- Node1 -->
<g id="node1" class="node">
<title>Node1</title>
<g id="a_node1"><a xlink:title=" ">
<polygon fill="#999999" stroke="#666666" points="435.5,-129 270.5,-129 270.5,-110 435.5,-110 435.5,-129"/>
<text text-anchor="middle" x="353" y="-117" font-family="Helvetica,sans-Serif" font-size="10.00">Splines/BinnedSplineHandler.h</text>
</a>
</g>
</g>
<!-- Node2 -->
<g id="node2" class="node">
<title>Node2</title>
<g id="a_node2"><a xlink:href="SampleHandlerFD_8h.html" target="_top" xlink:title=" ">
<polygon fill="white" stroke="#666666" points="340.5,-74 181.5,-74 181.5,-55 340.5,-55 340.5,-74"/>
<text text-anchor="middle" x="261" y="-62" font-family="Helvetica,sans-Serif" font-size="10.00">Samples/SampleHandlerFD.h</text>
</a>
</g>
</g>
<!-- Node1&#45;&gt;Node2 -->
<g id="edge1" class="edge">
<title>Node1&#45;&gt;Node2</title>
<path fill="none" stroke="#63b8ff" d="M329.51,-104.97C312.69,-95.28 290.55,-82.52 276.05,-74.17"/>
<polygon fill="#63b8ff" stroke="#63b8ff" points="327.81,-108.03 338.22,-109.98 331.3,-101.96 327.81,-108.03"/>
</g>
<!-- Node6 -->
<g id="node6" class="node">
<title>Node6</title>
<g id="a_node6"><a xlink:href="BinnedSplineHandler_8cpp.html" target="_top" xlink:title=" ">
<polygon fill="white" stroke="#666666" points="534,-74 358,-74 358,-55 534,-55 534,-74"/>
<text text-anchor="middle" x="446" y="-62" font-family="Helvetica,sans-Serif" font-size="10.00">Splines/BinnedSplineHandler.cpp</text>
</a>
</g>
</g>
<!-- Node1&#45;&gt;Node6 -->
<g id="edge5" class="edge">
<title>Node1&#45;&gt;Node6</title>
<path fill="none" stroke="#63b8ff" d="M376.75,-104.97C393.75,-95.28 416.13,-82.52 430.79,-74.17"/>
<polygon fill="#63b8ff" stroke="#63b8ff" points="374.9,-101.99 367.94,-109.98 378.36,-108.07 374.9,-101.99"/>
</g>
<!-- Node3 -->
<g id="node3" class="node">
<title>Node3</title>
<g id="a_node3"><a xlink:href="PredictiveThrower_8cpp.html" target="_top" xlink:title=" ">
<polygon fill="white" stroke="#666666" points="158,-19 0,-19 0,0 158,0 158,-19"/>
<text text-anchor="middle" x="79" y="-7" font-family="Helvetica,sans-Serif" font-size="10.00">Fitters/PredictiveThrower.cpp</text>
</a>
</g>
</g>
<!-- Node2&#45;&gt;Node3 -->
<g id="edge2" class="edge">
<title>Node2&#45;&gt;Node3</title>
<path fill="none" stroke="#63b8ff" d="M222.14,-52.18C188.1,-42.27 139.38,-28.08 108.47,-19.08"/>
<polygon fill="#63b8ff" stroke="#63b8ff" points="221.18,-55.55 231.76,-54.98 223.14,-48.83 221.18,-55.55"/>
</g>
<!-- Node4 -->
<g id="node4" class="node">
<title>Node4</title>
<g id="a_node4"><a xlink:href="SampleHandlerFD_8cpp.html" target="_top" xlink:title=" ">
<polygon fill="white" stroke="#666666" points="346,-19 176,-19 176,0 346,0 346,-19"/>
<text text-anchor="middle" x="261" y="-7" font-family="Helvetica,sans-Serif" font-size="10.00">Samples/SampleHandlerFD.cpp</text>
</a>
</g>
</g>
<!-- Node2&#45;&gt;Node4 -->
<g id="edge3" class="edge">
<title>Node2&#45;&gt;Node4</title>
<path fill="none" stroke="#63b8ff" d="M261,-44.66C261,-35.93 261,-25.99 261,-19.09"/>
<polygon fill="#63b8ff" stroke="#63b8ff" points="257.5,-44.75 261,-54.75 264.5,-44.75 257.5,-44.75"/>
</g>
<!-- Node5 -->
<g id="node5" class="node">
<title>Node5</title>
<g id="a_node5"><a xlink:href="samples_8cpp.html" target="_top" xlink:title=" ">
<polygon fill="white" stroke="#666666" points="479.5,-19 364.5,-19 364.5,0 479.5,0 479.5,-19"/>
<text text-anchor="middle" x="422" y="-7" font-family="Helvetica,sans-Serif" font-size="10.00">python/samples.cpp</text>
</a>
</g>
</g>
<!-- Node2&#45;&gt;Node5 -->
<g id="edge4" class="edge">
<title>Node2&#45;&gt;Node5</title>
<path fill="none" stroke="#63b8ff" d="M296.55,-51.8C326.59,-41.91 368.94,-27.97 395.93,-19.08"/>
<polygon fill="#63b8ff" stroke="#63b8ff" points="295.27,-48.53 286.87,-54.98 297.46,-55.18 295.27,-48.53"/>
</g>
</g>
</svg>
