<?xml version="1.0" encoding="UTF-8" standalone="no"?>
<!DOCTYPE svg PUBLIC "-//W3C//DTD SVG 1.1//EN"
 "http://www.w3.org/Graphics/SVG/1.1/DTD/svg11.dtd">
<!-- Generated by graphviz version 2.43.0 (0)
 -->
<!-- Title: BinnedSplineHandler Pages: 1 -->
<!--zoomable 802 -->
<svg id="main" version="1.1" xmlns="http://www.w3.org/2000/svg" xmlns:xlink="http://www.w3.org/1999/xlink" xml:space="preserve" onload="init(evt)">
<style type="text/css"><![CDATA[
.edge:hover path { stroke: red; }
.edge:hover polygon { stroke: red; fill: red; }
]]></style>
<script type="text/javascript"><![CDATA[
var edges = document.getElementsByTagName('g');
if (edges && edges.length) {
  for (var i=0;i<edges.length;i++) {
    if (edges[i].id.substr(0,4)=='edge') {
      edges[i].setAttribute('class','edge');
    }
  }
}
]]></script>
        <defs>
                <circle id="rim" cx="0" cy="0" r="7"/>
                <circle id="rim2" cx="0" cy="0" r="3.5"/>
                <g id="zoomPlus">
                        <use xlink:href="#rim" fill="#404040">
                                <set attributeName="fill" to="#808080" begin="zoomplus.mouseover" end="zoomplus.mouseout"/>
                        </use>
                        <path d="M-4,0h8M0,-4v8" fill="none" stroke="white" stroke-width="1.5" pointer-events="none"/>
                </g>
                <g id="zoomMin">
                        <use xlink:href="#rim" fill="#404040">
                                <set attributeName="fill" to="#808080" begin="zoomminus.mouseover" end="zoomminus.mouseout"/>
                        </use>
                        <path d="M-4,0h8" fill="none" stroke="white" stroke-width="1.5" pointer-events="none"/>
                </g>
                <g id="dirArrow">
                        <path fill="none" stroke="white" stroke-width="1.5" d="M0,-3.0v7 M-2.5,-0.5L0,-3.0L2.5,-0.5"/>
                </g>
               <g id="resetDef">
                       <use xlink:href="#rim2" fill="#404040">
                               <set attributeName="fill" to="#808080" begin="reset.mouseover" end="reset.mouseout"/>
                       </use>
               </g>
        </defs>

<script type="text/javascript">
var viewWidth = 1285;
var viewHeight = 802;
var sectionId = 'dynsection-1';
</script>
<script xlink:href="svgpan.js"/>
<svg id="graph" class="graph">
<g id="viewport">
<title>BinnedSplineHandler</title>
<!-- Node1 -->
<g id="node1" class="node">
<title>Node1</title>
<g id="a_node1"><a xlink:title="Bin&#45;by&#45;bin class calculating response for spline parameters.">
<polygon fill="#999999" stroke="#666666" points="1277,-343.5 1158,-343.5 1158,-324.5 1277,-324.5 1277,-343.5"/>
<text text-anchor="middle" x="1217.5" y="-331.5" font-family="Helvetica,sans-Serif" font-size="10.00">BinnedSplineHandler</text>
</a>
</g>
</g>
<!-- Node2 -->
<g id="node2" class="node">
<title>Node2</title>
<g id="a_node2"><a xlink:href="classSplineBase.html" target="_top" xlink:title="Base class for calculating weight from spline.">
<polygon fill="white" stroke="#666666" points="942.5,-789.5 871.5,-789.5 871.5,-770.5 942.5,-770.5 942.5,-789.5"/>
<text text-anchor="middle" x="907" y="-777.5" font-family="Helvetica,sans-Serif" font-size="10.00">SplineBase</text>
</a>
</g>
</g>
<!-- Node2&#45;&gt;Node1 -->
<g id="edge1" class="edge">
<title>Node2&#45;&gt;Node1</title>
<path fill="none" stroke="#63b8ff" d="M952.65,-788.97C1004.69,-796.61 1089.94,-799.92 1140,-753 1202.31,-694.59 1214.46,-400.43 1216.24,-343.54"/>
<polygon fill="#63b8ff" stroke="#63b8ff" points="953.12,-785.5 942.7,-787.4 952.03,-792.42 953.12,-785.5"/>
</g>
<!-- Node3 -->
<g id="node3" class="node">
<title>Node3</title>
<g id="a_node3"><a xlink:title=" ">
<polygon fill="white" stroke="#666666" points="619,-793.5 460,-793.5 460,-774.5 619,-774.5 619,-793.5"/>
<text text-anchor="middle" x="539.5" y="-781.5" font-family="Helvetica,sans-Serif" font-size="10.00">std::vector&lt; FastSplineInfo &gt;</text>
</a>
</g>
</g>
<!-- Node3&#45;&gt;Node2 -->
<g id="edge2" class="edge">
<title>Node3&#45;&gt;Node2</title>
<path fill="none" stroke="#9a32cd" stroke-dasharray="5,2" d="M629.65,-783.02C707.53,-782.17 816.46,-780.98 871.4,-780.38"/>
<polygon fill="#9a32cd" stroke="#9a32cd" points="629.32,-779.53 619.36,-783.14 629.4,-786.53 629.32,-779.53"/>
<text text-anchor="middle" x="725.5" y="-785" font-family="Helvetica,sans-Serif" font-size="10.00"> SplineInfoArray</text>
</g>
<!-- Node4 -->
<g id="node4" class="node">
<title>Node4</title>
<g id="a_node4"><a xlink:href="classParameterHandlerGeneric.html" target="_top" xlink:title="Class responsible for handling of systematic error parameters with different types defined in the con...">
<polygon fill="white" stroke="#666666" points="978.5,-547.5 835.5,-547.5 835.5,-528.5 978.5,-528.5 978.5,-547.5"/>
<text text-anchor="middle" x="907" y="-535.5" font-family="Helvetica,sans-Serif" font-size="10.00">ParameterHandlerGeneric</text>
</a>
</g>
</g>
<!-- Node4&#45;&gt;Node1 -->
<g id="edge3" class="edge">
<title>Node4&#45;&gt;Node1</title>
<path fill="none" stroke="#9a32cd" stroke-dasharray="5,2" d="M968.09,-526.06C1018.64,-513.5 1090.4,-489.48 1140,-447 1175.81,-416.33 1202.17,-365.06 1212.14,-343.75"/>
<polygon fill="#9a32cd" stroke="#9a32cd" points="967.18,-522.68 958.28,-528.43 968.82,-529.49 967.18,-522.68"/>
<text text-anchor="middle" x="1078" y="-513" font-family="Helvetica,sans-Serif" font-size="10.00"> xsec</text>
</g>
<!-- Node5 -->
<g id="node5" class="node">
<title>Node5</title>
<g id="a_node5"><a xlink:href="classParameterHandlerBase.html" target="_top" xlink:title="Base class responsible for handling of systematic error parameters. Capable of using PCA or using ada...">
<polygon fill="white" stroke="#666666" points="604,-414.5 475,-414.5 475,-395.5 604,-395.5 604,-414.5"/>
<text text-anchor="middle" x="539.5" y="-402.5" font-family="Helvetica,sans-Serif" font-size="10.00">ParameterHandlerBase</text>
</a>
</g>
</g>
<!-- Node5&#45;&gt;Node4 -->
<g id="edge4" class="edge">
<title>Node5&#45;&gt;Node4</title>
<path fill="none" stroke="#63b8ff" d="M614.22,-405.36C680.6,-407.27 771.67,-414.3 798,-438 823.8,-461.22 791.8,-489.11 816,-514 822.09,-520.26 829.61,-524.95 837.69,-528.45"/>
<polygon fill="#63b8ff" stroke="#63b8ff" points="614.28,-401.86 604.2,-405.11 614.11,-408.86 614.28,-401.86"/>
</g>
<!-- Node6 -->
<g id="node6" class="node">
<title>Node6</title>
<g id="a_node6"><a xlink:title=" ">
<polygon fill="white" stroke="#666666" points="264.5,-122.5 199.5,-122.5 199.5,-103.5 264.5,-103.5 264.5,-122.5"/>
<text text-anchor="middle" x="232" y="-110.5" font-family="Helvetica,sans-Serif" font-size="10.00">std::string</text>
</a>
</g>
</g>
<!-- Node6&#45;&gt;Node5 -->
<g id="edge5" class="edge">
<title>Node6&#45;&gt;Node5</title>
<path fill="none" stroke="#9a32cd" stroke-dasharray="5,2" d="M274.73,-119.66C319.48,-129.12 389.08,-150.98 426,-199 456.73,-238.97 421,-266.14 444,-311 463.21,-348.48 502.87,-380.18 524.19,-395.37"/>
<polygon fill="#9a32cd" stroke="#9a32cd" points="275.24,-116.2 264.75,-117.67 273.87,-123.06 275.24,-116.2"/>
<text text-anchor="middle" x="383.5" y="-213" font-family="Helvetica,sans-Serif" font-size="10.00"> inputFile</text>
<text text-anchor="middle" x="383.5" y="-202" font-family="Helvetica,sans-Serif" font-size="10.00">matrixName</text>
</g>
<!-- Node30 -->
<g id="node30" class="node">
<title>Node30</title>
<g id="a_node30"><a xlink:href="classMaCh3Modes.html" target="_top" xlink:title="KS: Class describing MaCh3 modes used in the analysis, it is being initialised from config.">
<polygon fill="white" stroke="#666666" points="948.5,-49.5 865.5,-49.5 865.5,-30.5 948.5,-30.5 948.5,-49.5"/>
<text text-anchor="middle" x="907" y="-37.5" font-family="Helvetica,sans-Serif" font-size="10.00">MaCh3Modes</text>
</a>
</g>
</g>
<!-- Node6&#45;&gt;Node30 -->
<g id="edge36" class="edge">
<title>Node6&#45;&gt;Node30</title>
<path fill="none" stroke="#9a32cd" stroke-dasharray="5,2" d="M274.61,-104.2C317.03,-95.54 384.82,-82.55 444,-75 454.4,-73.67 754.32,-51.29 865.26,-43.03"/>
<polygon fill="#9a32cd" stroke="#9a32cd" points="273.75,-100.81 264.66,-106.25 275.16,-107.66 273.75,-100.81"/>
<text text-anchor="middle" x="539.5" y="-89" font-family="Helvetica,sans-Serif" font-size="10.00"> Generator</text>
<text text-anchor="middle" x="539.5" y="-78" font-family="Helvetica,sans-Serif" font-size="10.00">Title</text>
</g>
<!-- Node7 -->
<g id="node7" class="node">
<title>Node7</title>
<g id="a_node7"><a xlink:title=" ">
<polygon fill="white" stroke="#666666" points="104,-128 0,-128 0,-98 104,-98 104,-128"/>
<text text-anchor="start" x="8" y="-116" font-family="Helvetica,sans-Serif" font-size="10.00">std::basic_string&lt;</text>
<text text-anchor="middle" x="52" y="-105" font-family="Helvetica,sans-Serif" font-size="10.00"> Char &gt;</text>
</a>
</g>
</g>
<!-- Node7&#45;&gt;Node6 -->
<g id="edge6" class="edge">
<title>Node7&#45;&gt;Node6</title>
<path fill="none" stroke="#63b8ff" d="M114.33,-113C142.93,-113 175.76,-113 199.3,-113"/>
<polygon fill="#63b8ff" stroke="#63b8ff" points="114.01,-109.5 104.01,-113 114.01,-116.5 114.01,-109.5"/>
</g>
<!-- Node8 -->
<g id="node8" class="node">
<title>Node8</title>
<g id="a_node8"><a xlink:title=" ">
<polygon fill="white" stroke="#666666" points="297.5,-420 166.5,-420 166.5,-390 297.5,-390 297.5,-420"/>
<text text-anchor="start" x="174.5" y="-408" font-family="Helvetica,sans-Serif" font-size="10.00">std::vector&lt; std::vector</text>
<text text-anchor="middle" x="232" y="-397" font-family="Helvetica,sans-Serif" font-size="10.00">&lt; double &gt; &gt;</text>
</a>
</g>
</g>
<!-- Node8&#45;&gt;Node5 -->
<g id="edge7" class="edge">
<title>Node8&#45;&gt;Node5</title>
<path fill="none" stroke="#9a32cd" stroke-dasharray="5,2" d="M307.81,-405C359.02,-405 426.21,-405 474.85,-405"/>
<polygon fill="#9a32cd" stroke="#9a32cd" points="307.79,-401.5 297.79,-405 307.79,-408.5 307.79,-401.5"/>
<text text-anchor="middle" x="383.5" y="-408" font-family="Helvetica,sans-Serif" font-size="10.00"> InvertCovMatrix</text>
</g>
<!-- Node9 -->
<g id="node9" class="node">
<title>Node9</title>
<g id="a_node9"><a xlink:title=" ">
<polygon fill="white" stroke="#666666" points="299,-372 165,-372 165,-342 299,-342 299,-372"/>
<text text-anchor="start" x="173" y="-360" font-family="Helvetica,sans-Serif" font-size="10.00">std::vector&lt; std::unique</text>
<text text-anchor="middle" x="232" y="-349" font-family="Helvetica,sans-Serif" font-size="10.00">_ptr&lt; TRandom3 &gt; &gt;</text>
</a>
</g>
</g>
<!-- Node9&#45;&gt;Node5 -->
<g id="edge8" class="edge">
<title>Node9&#45;&gt;Node5</title>
<path fill="none" stroke="#9a32cd" stroke-dasharray="5,2" d="M309.48,-369.02C361.52,-377.19 429.45,-387.87 477.79,-395.46"/>
<polygon fill="#9a32cd" stroke="#9a32cd" points="309.71,-365.51 299.29,-367.42 308.62,-372.43 309.71,-365.51"/>
<text text-anchor="middle" x="383.5" y="-389" font-family="Helvetica,sans-Serif" font-size="10.00"> random_number</text>
</g>
<!-- Node10 -->
<g id="node10" class="node">
<title>Node10</title>
<g id="a_node10"><a xlink:title=" ">
<polygon fill="white" stroke="#666666" points="302,-648.5 162,-648.5 162,-629.5 302,-629.5 302,-648.5"/>
<text text-anchor="middle" x="232" y="-636.5" font-family="Helvetica,sans-Serif" font-size="10.00">std::vector&lt; std::string &gt;</text>
</a>
</g>
</g>
<!-- Node10&#45;&gt;Node1 -->
<g id="edge22" class="edge">
<title>Node10&#45;&gt;Node1</title>
<path fill="none" stroke="#9a32cd" stroke-dasharray="5,2" d="M258.96,-653.25C280.28,-664.1 311.64,-678.13 341,-684 386.29,-693.06 555.37,-688.69 635,-677 757.75,-658.99 1137.54,-527.29 1140,-525 1195.97,-472.94 1211.82,-374.45 1215.52,-343.53"/>
<polygon fill="#9a32cd" stroke="#9a32cd" points="260.4,-650.05 249.91,-648.53 257.16,-656.26 260.4,-650.05"/>
<text text-anchor="middle" x="725.5" y="-687" font-family="Helvetica,sans-Serif" font-size="10.00"> SampleNames</text>
<text text-anchor="middle" x="725.5" y="-676" font-family="Helvetica,sans-Serif" font-size="10.00">UniqueSystNames</text>
</g>
<!-- Node10&#45;&gt;Node4 -->
<g id="edge17" class="edge">
<title>Node10&#45;&gt;Node4</title>
<path fill="none" stroke="#9a32cd" stroke-dasharray="5,2" d="M312.35,-646.85C424,-655.09 632.34,-660.05 798,-604 836.3,-591.04 875.34,-562.62 894.27,-547.65"/>
<polygon fill="#9a32cd" stroke="#9a32cd" points="312.41,-643.35 302.18,-646.07 311.88,-650.33 312.41,-643.35"/>
<text text-anchor="middle" x="539.5" y="-665" font-family="Helvetica,sans-Serif" font-size="10.00"> _ParameterGroup</text>
<text text-anchor="middle" x="539.5" y="-654" font-family="Helvetica,sans-Serif" font-size="10.00">_fSplineNames</text>
</g>
<!-- Node10&#45;&gt;Node5 -->
<g id="edge9" class="edge">
<title>Node10&#45;&gt;Node5</title>
<path fill="none" stroke="#9a32cd" stroke-dasharray="5,2" d="M269.08,-625.88C319.26,-606.89 406.22,-571.07 426,-544 457.82,-500.46 406.82,-463.07 444,-424 452.19,-415.39 463.11,-410.1 474.61,-406.94"/>
<polygon fill="#9a32cd" stroke="#9a32cd" points="267.7,-622.66 259.56,-629.45 270.16,-629.21 267.7,-622.66"/>
<text text-anchor="middle" x="383.5" y="-608" font-family="Helvetica,sans-Serif" font-size="10.00"> _fFancyNames</text>
<text text-anchor="middle" x="383.5" y="-597" font-family="Helvetica,sans-Serif" font-size="10.00">_fNames</text>
</g>
<!-- Node11 -->
<g id="node11" class="node">
<title>Node11</title>
<g id="a_node11"><a xlink:title=" ">
<polygon fill="white" stroke="#666666" points="294,-280.5 170,-280.5 170,-261.5 294,-261.5 294,-280.5"/>
<text text-anchor="middle" x="232" y="-268.5" font-family="Helvetica,sans-Serif" font-size="10.00">std::vector&lt; double &gt;</text>
</a>
</g>
</g>
<!-- Node11&#45;&gt;Node5 -->
<g id="edge10" class="edge">
<title>Node11&#45;&gt;Node5</title>
<path fill="none" stroke="#9a32cd" stroke-dasharray="5,2" d="M304.5,-268.58C342.29,-269.95 388.48,-275.94 426,-294 427.61,-294.78 501.58,-368.27 528.68,-395.23"/>
<polygon fill="#9a32cd" stroke="#9a32cd" points="304.17,-265.07 294.08,-268.31 303.99,-272.07 304.17,-265.07"/>
<text text-anchor="middle" x="383.5" y="-363" font-family="Helvetica,sans-Serif" font-size="10.00"> _fCurrVal</text>
<text text-anchor="middle" x="383.5" y="-352" font-family="Helvetica,sans-Serif" font-size="10.00">_fError</text>
<text text-anchor="middle" x="383.5" y="-341" font-family="Helvetica,sans-Serif" font-size="10.00">_fIndivStepScale</text>
<text text-anchor="middle" x="383.5" y="-330" font-family="Helvetica,sans-Serif" font-size="10.00">_fLowBound</text>
<text text-anchor="middle" x="383.5" y="-319" font-family="Helvetica,sans-Serif" font-size="10.00">_fPreFitValue</text>
<text text-anchor="middle" x="383.5" y="-308" font-family="Helvetica,sans-Serif" font-size="10.00">_fPropVal</text>
<text text-anchor="middle" x="383.5" y="-297" font-family="Helvetica,sans-Serif" font-size="10.00">_fUpBound</text>
</g>
<!-- Node12 -->
<g id="node12" class="node">
<title>Node12</title>
<g id="a_node12"><a xlink:title=" ">
<polygon fill="white" stroke="#666666" points="288,-243.5 176,-243.5 176,-224.5 288,-224.5 288,-243.5"/>
<text text-anchor="middle" x="232" y="-231.5" font-family="Helvetica,sans-Serif" font-size="10.00">std::vector&lt; bool &gt;</text>
</a>
</g>
</g>
<!-- Node12&#45;&gt;Node5 -->
<g id="edge11" class="edge">
<title>Node12&#45;&gt;Node5</title>
<path fill="none" stroke="#9a32cd" stroke-dasharray="5,2" d="M298.31,-224.8C339.28,-222.71 390.82,-227.32 426,-256 445.93,-272.25 430.51,-289.1 444,-311 466.33,-347.25 505.38,-379.95 525.58,-395.48"/>
<polygon fill="#9a32cd" stroke="#9a32cd" points="297.89,-221.32 288.14,-225.46 298.35,-228.3 297.89,-221.32"/>
<text text-anchor="middle" x="383.5" y="-259" font-family="Helvetica,sans-Serif" font-size="10.00"> _fFlatPrior</text>
</g>
<!-- Node13 -->
<g id="node13" class="node">
<title>Node13</title>
<g id="a_node13"><a xlink:title=" ">
<polygon fill="white" stroke="#666666" points="297.5,-725 166.5,-725 166.5,-695 297.5,-695 297.5,-725"/>
<text text-anchor="start" x="174.5" y="-713" font-family="Helvetica,sans-Serif" font-size="10.00">std::vector&lt; std::vector</text>
<text text-anchor="middle" x="232" y="-702" font-family="Helvetica,sans-Serif" font-size="10.00">&lt; std::string &gt; &gt;</text>
</a>
</g>
</g>
<!-- Node13&#45;&gt;Node1 -->
<g id="edge24" class="edge">
<title>Node13&#45;&gt;Node1</title>
<path fill="none" stroke="#9a32cd" stroke-dasharray="5,2" d="M308.08,-717.2C417.25,-725.74 625.58,-734.67 798,-699 958.84,-665.73 1027.45,-678.61 1140,-559 1201.35,-493.8 1213.66,-377.47 1215.99,-343.53"/>
<polygon fill="#9a32cd" stroke="#9a32cd" points="308.08,-713.69 297.83,-716.38 307.52,-720.67 308.08,-713.69"/>
<text text-anchor="middle" x="725.5" y="-732" font-family="Helvetica,sans-Serif" font-size="10.00"> DimensionLabels</text>
<text text-anchor="middle" x="725.5" y="-721" font-family="Helvetica,sans-Serif" font-size="10.00">SplineFileParPrefixNames</text>
</g>
<!-- Node13&#45;&gt;Node5 -->
<g id="edge12" class="edge">
<title>Node13&#45;&gt;Node5</title>
<path fill="none" stroke="#9a32cd" stroke-dasharray="5,2" d="M307.26,-694.59C349.1,-681.86 398.37,-659.28 426,-620 451.16,-584.23 414.77,-456.54 444,-424 452.05,-415.04 463.05,-409.61 474.7,-406.45"/>
<polygon fill="#9a32cd" stroke="#9a32cd" points="306.25,-691.24 297.63,-697.39 308.21,-697.96 306.25,-691.24"/>
<text text-anchor="middle" x="383.5" y="-683" font-family="Helvetica,sans-Serif" font-size="10.00"> _fSampleNames</text>
</g>
<!-- Node14 -->
<g id="node14" class="node">
<title>Node14</title>
<g id="a_node14"><a xlink:title=" ">
<polygon fill="white" stroke="#666666" points="317,-505.5 147,-505.5 147,-486.5 317,-486.5 317,-505.5"/>
<text text-anchor="middle" x="232" y="-493.5" font-family="Helvetica,sans-Serif" font-size="10.00">std::unique_ptr&lt; PCAHandler &gt;</text>
</a>
</g>
</g>
<!-- Node14&#45;&gt;Node5 -->
<g id="edge13" class="edge">
<title>Node14&#45;&gt;Node5</title>
<path fill="none" stroke="#9a32cd" stroke-dasharray="5,2" d="M290.54,-484.37C301.35,-482.03 312.54,-479.52 323,-477 369.12,-465.87 387.01,-476.02 426,-449 437.25,-441.2 432.49,-431.42 444,-424 453.28,-418.02 464.06,-413.85 474.95,-410.97"/>
<polygon fill="#9a32cd" stroke="#9a32cd" points="289.81,-480.94 280.76,-486.45 291.27,-487.79 289.81,-480.94"/>
<text text-anchor="middle" x="383.5" y="-476" font-family="Helvetica,sans-Serif" font-size="10.00"> PCAObj</text>
</g>
<!-- Node15 -->
<g id="node15" class="node">
<title>Node15</title>
<g id="a_node15"><a xlink:title=" ">
<polygon fill="white" stroke="#666666" points="323,-468 141,-468 141,-438 323,-438 323,-468"/>
<text text-anchor="start" x="149" y="-456" font-family="Helvetica,sans-Serif" font-size="10.00">std::unique_ptr&lt; adaptive</text>
<text text-anchor="middle" x="232" y="-445" font-family="Helvetica,sans-Serif" font-size="10.00">_mcmc::AdaptiveMCMCHandler &gt;</text>
</a>
</g>
</g>
<!-- Node15&#45;&gt;Node5 -->
<g id="edge14" class="edge">
<title>Node15&#45;&gt;Node5</title>
<path fill="none" stroke="#9a32cd" stroke-dasharray="5,2" d="M333.07,-437.28C380.79,-429.78 436.34,-421.05 477.63,-414.56"/>
<polygon fill="#9a32cd" stroke="#9a32cd" points="332.34,-433.85 323.01,-438.86 333.43,-440.76 332.34,-433.85"/>
<text text-anchor="middle" x="383.5" y="-437" font-family="Helvetica,sans-Serif" font-size="10.00"> AdaptiveHandler</text>
</g>
<!-- Node16 -->
<g id="node16" class="node">
<title>Node16</title>
<g id="a_node16"><a xlink:title=" ">
<polygon fill="white" stroke="#666666" points="307.5,-554 156.5,-554 156.5,-524 307.5,-524 307.5,-554"/>
<text text-anchor="start" x="164.5" y="-542" font-family="Helvetica,sans-Serif" font-size="10.00">std::unique_ptr&lt; Parameter</text>
<text text-anchor="middle" x="232" y="-531" font-family="Helvetica,sans-Serif" font-size="10.00">Tunes &gt;</text>
</a>
</g>
</g>
<!-- Node16&#45;&gt;Node5 -->
<g id="edge15" class="edge">
<title>Node16&#45;&gt;Node5</title>
<path fill="none" stroke="#9a32cd" stroke-dasharray="5,2" d="M317.65,-535.18C355.28,-529.24 397.43,-516.12 426,-488 447.06,-467.27 422.33,-444.09 444,-424 452.59,-416.04 463.55,-411.01 474.94,-407.9"/>
<polygon fill="#9a32cd" stroke="#9a32cd" points="317.09,-531.72 307.69,-536.6 318.08,-538.65 317.09,-531.72"/>
<text text-anchor="middle" x="383.5" y="-532" font-family="Helvetica,sans-Serif" font-size="10.00"> Tunes</text>
</g>
<!-- Node17 -->
<g id="node17" class="node">
<title>Node17</title>
<g id="a_node17"><a xlink:title=" ">
<polygon fill="white" stroke="#666666" points="606.5,-611.5 472.5,-611.5 472.5,-592.5 606.5,-592.5 606.5,-611.5"/>
<text text-anchor="middle" x="539.5" y="-599.5" font-family="Helvetica,sans-Serif" font-size="10.00">std::vector&lt; SystType &gt;</text>
</a>
</g>
</g>
<!-- Node17&#45;&gt;Node4 -->
<g id="edge16" class="edge">
<title>Node17&#45;&gt;Node4</title>
<path fill="none" stroke="#9a32cd" stroke-dasharray="5,2" d="M616.56,-594.24C668.05,-588.35 737.46,-579.19 798,-567 824.07,-561.75 853.17,-553.81 874.59,-547.57"/>
<polygon fill="#9a32cd" stroke="#9a32cd" points="616.05,-590.77 606.5,-595.37 616.83,-597.73 616.05,-590.77"/>
<text text-anchor="middle" x="725.5" y="-592" font-family="Helvetica,sans-Serif" font-size="10.00"> _fParamType</text>
</g>
<!-- Node18 -->
<g id="node18" class="node">
<title>Node18</title>
<g id="a_node18"><a xlink:title=" ">
<polygon fill="white" stroke="#666666" points="600.5,-574 478.5,-574 478.5,-544 600.5,-544 600.5,-574"/>
<text text-anchor="start" x="486.5" y="-562" font-family="Helvetica,sans-Serif" font-size="10.00">std::vector&lt; std::map</text>
<text text-anchor="middle" x="539.5" y="-551" font-family="Helvetica,sans-Serif" font-size="10.00">&lt; int, int &gt; &gt;</text>
</a>
</g>
</g>
<!-- Node18&#45;&gt;Node4 -->
<g id="edge18" class="edge">
<title>Node18&#45;&gt;Node4</title>
<path fill="none" stroke="#9a32cd" stroke-dasharray="5,2" d="M610.94,-554.95C675.49,-551.24 770.57,-545.78 835.22,-542.07"/>
<polygon fill="#9a32cd" stroke="#9a32cd" points="610.64,-551.46 600.85,-555.53 611.04,-558.45 610.64,-551.46"/>
<text text-anchor="middle" x="725.5" y="-555" font-family="Helvetica,sans-Serif" font-size="10.00"> _fSystToGlobalSystIndexMap</text>
</g>
<!-- Node19 -->
<g id="node19" class="node">
<title>Node19</title>
<g id="a_node19"><a xlink:title=" ">
<polygon fill="white" stroke="#666666" points="625,-525.5 454,-525.5 454,-506.5 625,-506.5 625,-525.5"/>
<text text-anchor="middle" x="539.5" y="-513.5" font-family="Helvetica,sans-Serif" font-size="10.00">std::vector&lt; SplineParameter &gt;</text>
</a>
</g>
</g>
<!-- Node19&#45;&gt;Node4 -->
<g id="edge19" class="edge">
<title>Node19&#45;&gt;Node4</title>
<path fill="none" stroke="#9a32cd" stroke-dasharray="5,2" d="M635.4,-520.05C684.04,-522.31 744.21,-525.4 798,-529 810.11,-529.81 822.97,-530.78 835.44,-531.79"/>
<polygon fill="#9a32cd" stroke="#9a32cd" points="635.35,-516.54 625.2,-519.58 635.03,-523.54 635.35,-516.54"/>
<text text-anchor="middle" x="725.5" y="-532" font-family="Helvetica,sans-Serif" font-size="10.00"> SplineParams</text>
</g>
<!-- Node20 -->
<g id="node20" class="node">
<title>Node20</title>
<g id="a_node20"><a xlink:title=" ">
<polygon fill="white" stroke="#666666" points="623.5,-488.5 455.5,-488.5 455.5,-469.5 623.5,-469.5 623.5,-488.5"/>
<text text-anchor="middle" x="539.5" y="-476.5" font-family="Helvetica,sans-Serif" font-size="10.00">std::vector&lt; NormParameter &gt;</text>
</a>
</g>
</g>
<!-- Node20&#45;&gt;Node4 -->
<g id="edge20" class="edge">
<title>Node20&#45;&gt;Node4</title>
<path fill="none" stroke="#9a32cd" stroke-dasharray="5,2" d="M633.79,-481.74C683.27,-484.95 744.68,-491.74 798,-506 806.46,-508.26 807.74,-511.09 816,-514 831.71,-519.55 849.34,-524.51 864.81,-528.47"/>
<polygon fill="#9a32cd" stroke="#9a32cd" points="633.94,-478.24 623.75,-481.13 633.51,-485.23 633.94,-478.24"/>
<text text-anchor="middle" x="725.5" y="-509" font-family="Helvetica,sans-Serif" font-size="10.00"> NormParams</text>
</g>
<!-- Node21 -->
<g id="node21" class="node">
<title>Node21</title>
<g id="a_node21"><a xlink:title=" ">
<polygon fill="white" stroke="#666666" points="635,-451.5 444,-451.5 444,-432.5 635,-432.5 635,-451.5"/>
<text text-anchor="middle" x="539.5" y="-439.5" font-family="Helvetica,sans-Serif" font-size="10.00">std::vector&lt; FunctionalParameter &gt;</text>
</a>
</g>
</g>
<!-- Node21&#45;&gt;Node4 -->
<g id="edge21" class="edge">
<title>Node21&#45;&gt;Node4</title>
<path fill="none" stroke="#9a32cd" stroke-dasharray="5,2" d="M645.1,-441.72C705.53,-443.61 774.18,-449.92 798,-468 815.49,-481.27 799.63,-499.37 816,-514 822.99,-520.25 831.44,-524.9 840.32,-528.35"/>
<polygon fill="#9a32cd" stroke="#9a32cd" points="645.19,-438.23 635.1,-441.45 645,-445.22 645.19,-438.23"/>
<text text-anchor="middle" x="725.5" y="-471" font-family="Helvetica,sans-Serif" font-size="10.00"> FuncParams</text>
</g>
<!-- Node22 -->
<g id="node22" class="node">
<title>Node22</title>
<g id="a_node22"><a xlink:title=" ">
<polygon fill="white" stroke="#666666" points="591.5,-301.5 487.5,-301.5 487.5,-282.5 591.5,-282.5 591.5,-301.5"/>
<text text-anchor="middle" x="539.5" y="-289.5" font-family="Helvetica,sans-Serif" font-size="10.00">std::vector&lt; int &gt;</text>
</a>
</g>
</g>
<!-- Node22&#45;&gt;Node1 -->
<g id="edge23" class="edge">
<title>Node22&#45;&gt;Node1</title>
<path fill="none" stroke="#9a32cd" stroke-dasharray="5,2" d="M566.12,-306.65C613.56,-332.84 719.1,-386.74 816,-406 957.63,-434.14 1005.06,-433.39 1140,-382 1164.76,-372.57 1190.17,-354.67 1204.58,-343.6"/>
<polygon fill="#9a32cd" stroke="#9a32cd" points="567.6,-303.47 557.16,-301.65 564.19,-309.58 567.6,-303.47"/>
<text text-anchor="middle" x="907" y="-493" font-family="Helvetica,sans-Serif" font-size="10.00"> Dimensions</text>
<text text-anchor="middle" x="907" y="-482" font-family="Helvetica,sans-Serif" font-size="10.00">UniqueSystIndices</text>
<text text-anchor="middle" x="907" y="-471" font-family="Helvetica,sans-Serif" font-size="10.00">coeffindexvec</text>
<text text-anchor="middle" x="907" y="-460" font-family="Helvetica,sans-Serif" font-size="10.00">nOscChans</text>
<text text-anchor="middle" x="907" y="-449" font-family="Helvetica,sans-Serif" font-size="10.00">nSplineParams</text>
<text text-anchor="middle" x="907" y="-438" font-family="Helvetica,sans-Serif" font-size="10.00">uniquecoeffindices</text>
<text text-anchor="middle" x="907" y="-427" font-family="Helvetica,sans-Serif" font-size="10.00">uniquesplinevec_Monolith</text>
</g>
<!-- Node22&#45;&gt;Node30 -->
<g id="edge35" class="edge">
<title>Node22&#45;&gt;Node30</title>
<path fill="none" stroke="#9a32cd" stroke-dasharray="5,2" d="M579.82,-278.92C637,-257.81 742.33,-210.67 798,-134 818.14,-106.26 791.43,-82.9 816,-59 828.93,-46.42 847.99,-41.24 865.23,-39.38"/>
<polygon fill="#9a32cd" stroke="#9a32cd" points="578.28,-275.76 570.06,-282.44 580.66,-282.34 578.28,-275.76"/>
<text text-anchor="middle" x="725.5" y="-246" font-family="Helvetica,sans-Serif" font-size="10.00"> ModeMap</text>
</g>
<!-- Node23 -->
<g id="node23" class="node">
<title>Node23</title>
<g id="a_node23"><a xlink:title=" ">
<polygon fill="white" stroke="#666666" points="986.5,-397 827.5,-397 827.5,-367 986.5,-367 986.5,-397"/>
<text text-anchor="start" x="835.5" y="-385" font-family="Helvetica,sans-Serif" font-size="10.00">std::vector&lt; std::vector</text>
<text text-anchor="middle" x="907" y="-374" font-family="Helvetica,sans-Serif" font-size="10.00">&lt; std::vector&lt; TAxis * &gt; &gt; &gt;</text>
</a>
</g>
</g>
<!-- Node23&#45;&gt;Node1 -->
<g id="edge25" class="edge">
<title>Node23&#45;&gt;Node1</title>
<path fill="none" stroke="#9a32cd" stroke-dasharray="5,2" d="M996.5,-370.52C1039.84,-364.61 1092.74,-356.99 1140,-349 1149.74,-347.35 1160.15,-345.43 1170.05,-343.51"/>
<polygon fill="#9a32cd" stroke="#9a32cd" points="995.99,-367.06 986.55,-371.87 996.93,-373.99 995.99,-367.06"/>
<text text-anchor="middle" x="1078" y="-370" font-family="Helvetica,sans-Serif" font-size="10.00"> SplineBinning</text>
</g>
<!-- Node24 -->
<g id="node24" class="node">
<title>Node24</title>
<g id="a_node24"><a xlink:title=" ">
<polygon fill="white" stroke="#666666" points="975.5,-349 838.5,-349 838.5,-319 975.5,-319 975.5,-349"/>
<text text-anchor="start" x="846.5" y="-337" font-family="Helvetica,sans-Serif" font-size="10.00">std::vector&lt; std::vector</text>
<text text-anchor="middle" x="907" y="-326" font-family="Helvetica,sans-Serif" font-size="10.00">&lt; std::vector&lt; int &gt; &gt; &gt;</text>
</a>
</g>
</g>
<!-- Node24&#45;&gt;Node1 -->
<g id="edge26" class="edge">
<title>Node24&#45;&gt;Node1</title>
<path fill="none" stroke="#9a32cd" stroke-dasharray="5,2" d="M985.82,-334C1039.24,-334 1109.02,-334 1157.79,-334"/>
<polygon fill="#9a32cd" stroke="#9a32cd" points="985.7,-330.5 975.7,-334 985.7,-337.5 985.7,-330.5"/>
<text text-anchor="middle" x="1078" y="-337" font-family="Helvetica,sans-Serif" font-size="10.00"> SplineModeVecs</text>
</g>
<!-- Node25 -->
<g id="node25" class="node">
<title>Node25</title>
<g id="a_node25"><a xlink:title=" ">
<polygon fill="white" stroke="#666666" points="972.5,-301 841.5,-301 841.5,-271 972.5,-271 972.5,-301"/>
<text text-anchor="start" x="849.5" y="-289" font-family="Helvetica,sans-Serif" font-size="10.00">std::vector&lt; std::vector</text>
<text text-anchor="middle" x="907" y="-278" font-family="Helvetica,sans-Serif" font-size="10.00">&lt; int &gt; &gt;</text>
</a>
</g>
</g>
<!-- Node25&#45;&gt;Node1 -->
<g id="edge27" class="edge">
<title>Node25&#45;&gt;Node1</title>
<path fill="none" stroke="#9a32cd" stroke-dasharray="5,2" d="M982.73,-295.62C1028.28,-301.73 1087.6,-310.14 1140,-319 1149.74,-320.65 1160.15,-322.57 1170.05,-324.49"/>
<polygon fill="#9a32cd" stroke="#9a32cd" points="983.02,-292.13 972.64,-294.27 982.09,-299.07 983.02,-292.13"/>
<text text-anchor="middle" x="1078" y="-322" font-family="Helvetica,sans-Serif" font-size="10.00"> GlobalSystIndex</text>
</g>
<!-- Node26 -->
<g id="node26" class="node">
<title>Node26</title>
<g id="a_node26"><a xlink:title=" ">
<polygon fill="white" stroke="#666666" points="978.5,-253 835.5,-253 835.5,-223 978.5,-223 978.5,-253"/>
<text text-anchor="start" x="843.5" y="-241" font-family="Helvetica,sans-Serif" font-size="10.00">std::vector&lt; std::vector</text>
<text text-anchor="middle" x="907" y="-230" font-family="Helvetica,sans-Serif" font-size="10.00">&lt; SplineInterpolation &gt; &gt;</text>
</a>
</g>
</g>
<!-- Node26&#45;&gt;Node1 -->
<g id="edge28" class="edge">
<title>Node26&#45;&gt;Node1</title>
<path fill="none" stroke="#9a32cd" stroke-dasharray="5,2" d="M988.86,-246.91C1034.45,-253.75 1091.75,-265.46 1140,-285 1164.71,-295.01 1190.13,-313.15 1204.56,-324.34"/>
<polygon fill="#9a32cd" stroke="#9a32cd" points="989.13,-243.41 978.73,-245.43 988.13,-250.33 989.13,-243.41"/>
<text text-anchor="middle" x="1078" y="-288" font-family="Helvetica,sans-Serif" font-size="10.00"> SplineInterpolationTypes</text>
</g>
<!-- Node27 -->
<g id="node27" class="node">
<title>Node27</title>
<g id="a_node27"><a xlink:title=" ">
<polygon fill="white" stroke="#666666" points="998,-205 816,-205 816,-153 998,-153 998,-205"/>
<text text-anchor="start" x="824" y="-193" font-family="Helvetica,sans-Serif" font-size="10.00">std::vector&lt; std::vector</text>
<text text-anchor="start" x="824" y="-182" font-family="Helvetica,sans-Serif" font-size="10.00">&lt; std::vector&lt; std::vector</text>
<text text-anchor="start" x="824" y="-171" font-family="Helvetica,sans-Serif" font-size="10.00">&lt; std::vector&lt; std::vector</text>
<text text-anchor="middle" x="907" y="-160" font-family="Helvetica,sans-Serif" font-size="10.00">&lt; std::vector&lt; int &gt; &gt; &gt; &gt; &gt; &gt; &gt;</text>
</a>
</g>
</g>
<!-- Node27&#45;&gt;Node1 -->
<g id="edge29" class="edge">
<title>Node27&#45;&gt;Node1</title>
<path fill="none" stroke="#9a32cd" stroke-dasharray="5,2" d="M1008.06,-188.75C1051.29,-196.57 1100.83,-210.65 1140,-236 1175.7,-259.1 1201.75,-304.68 1211.87,-324.46"/>
<polygon fill="#9a32cd" stroke="#9a32cd" points="1008.53,-185.28 998.08,-187.04 1007.34,-192.18 1008.53,-185.28"/>
<text text-anchor="middle" x="1078" y="-239" font-family="Helvetica,sans-Serif" font-size="10.00"> indexvec</text>
</g>
<!-- Node28 -->
<g id="node28" class="node">
<title>Node28</title>
<g id="a_node28"><a xlink:title=" ">
<polygon fill="white" stroke="#666666" points="968,-135 846,-135 846,-105 968,-105 968,-135"/>
<text text-anchor="start" x="854" y="-123" font-family="Helvetica,sans-Serif" font-size="10.00">std::vector&lt; TSpline3</text>
<text text-anchor="middle" x="907" y="-112" font-family="Helvetica,sans-Serif" font-size="10.00">_red * &gt;</text>
</a>
</g>
</g>
<!-- Node28&#45;&gt;Node1 -->
<g id="edge30" class="edge">
<title>Node28&#45;&gt;Node1</title>
<path fill="none" stroke="#9a32cd" stroke-dasharray="5,2" d="M978.32,-121.51C1028.28,-125.98 1094.35,-139.21 1140,-176 1189.83,-216.16 1209.39,-296.75 1214.8,-324.42"/>
<polygon fill="#9a32cd" stroke="#9a32cd" points="978.48,-118.01 968.23,-120.7 977.92,-124.99 978.48,-118.01"/>
<text text-anchor="middle" x="1078" y="-179" font-family="Helvetica,sans-Serif" font-size="10.00"> splinevec_Monolith</text>
</g>
<!-- Node29 -->
<g id="node29" class="node">
<title>Node29</title>
<g id="a_node29"><a xlink:title=" ">
<polygon fill="white" stroke="#666666" points="978.5,-86.5 835.5,-86.5 835.5,-67.5 978.5,-67.5 978.5,-86.5"/>
<text text-anchor="middle" x="907" y="-74.5" font-family="Helvetica,sans-Serif" font-size="10.00">std::vector&lt; M3::float_t &gt;</text>
</a>
</g>
</g>
<!-- Node29&#45;&gt;Node1 -->
<g id="edge31" class="edge">
<title>Node29&#45;&gt;Node1</title>
<path fill="none" stroke="#9a32cd" stroke-dasharray="5,2" d="M988.83,-69.05C1037.75,-68.64 1098.48,-76.53 1140,-111 1208.65,-168 1215.86,-289.63 1216.48,-324.49"/>
<polygon fill="#9a32cd" stroke="#9a32cd" points="988.51,-65.55 978.59,-69.25 988.65,-72.55 988.51,-65.55"/>
<text text-anchor="middle" x="1078" y="-114" font-family="Helvetica,sans-Serif" font-size="10.00"> weightvec_Monolith</text>
</g>
<!-- Node30&#45;&gt;Node1 -->
<g id="edge32" class="edge">
<title>Node30&#45;&gt;Node1</title>
<path fill="none" stroke="#9a32cd" stroke-dasharray="5,2" d="M953.77,-28.47C1005.03,-18.49 1087.73,-11.55 1140,-54 1184,-89.74 1209.75,-278.95 1215.34,-324.25"/>
<polygon fill="#9a32cd" stroke="#9a32cd" points="953.05,-25.05 943.96,-30.5 954.46,-31.9 953.05,-25.05"/>
<text text-anchor="middle" x="1078" y="-57" font-family="Helvetica,sans-Serif" font-size="10.00"> Modes</text>
</g>
<!-- Node31 -->
<g id="node31" class="node">
<title>Node31</title>
<g id="a_node31"><a xlink:title=" ">
<polygon fill="white" stroke="#666666" points="600.5,-136 478.5,-136 478.5,-106 600.5,-106 600.5,-136"/>
<text text-anchor="start" x="486.5" y="-124" font-family="Helvetica,sans-Serif" font-size="10.00">std::map&lt; std::string,</text>
<text text-anchor="middle" x="539.5" y="-113" font-family="Helvetica,sans-Serif" font-size="10.00"> MaCh3Modes_t &gt;</text>
</a>
</g>
</g>
<!-- Node31&#45;&gt;Node30 -->
<g id="edge33" class="edge">
<title>Node31&#45;&gt;Node30</title>
<path fill="none" stroke="#9a32cd" stroke-dasharray="5,2" d="M610.75,-122.65C665.08,-121.02 740.47,-112.18 798,-80 808.73,-74 805.43,-65.27 816,-59 830.84,-50.21 849.17,-45.45 865.41,-42.89"/>
<polygon fill="#9a32cd" stroke="#9a32cd" points="610.44,-119.16 600.52,-122.89 610.6,-126.16 610.44,-119.16"/>
<text text-anchor="middle" x="725.5" y="-122" font-family="Helvetica,sans-Serif" font-size="10.00"> Mode</text>
</g>
<!-- Node32 -->
<g id="node32" class="node">
<title>Node32</title>
<g id="a_node32"><a xlink:title=" ">
<polygon fill="white" stroke="#666666" points="608,-30 471,-30 471,0 608,0 608,-30"/>
<text text-anchor="start" x="479" y="-18" font-family="Helvetica,sans-Serif" font-size="10.00">std::map&lt; MaCh3Modes</text>
<text text-anchor="middle" x="539.5" y="-7" font-family="Helvetica,sans-Serif" font-size="10.00">_t, MaCh3ModeInfo &gt;</text>
</a>
</g>
</g>
<!-- Node32&#45;&gt;Node30 -->
<g id="edge34" class="edge">
<title>Node32&#45;&gt;Node30</title>
<path fill="none" stroke="#9a32cd" stroke-dasharray="5,2" d="M618.82,-20.36C694.46,-25.53 806.03,-33.16 865.38,-37.22"/>
<polygon fill="#9a32cd" stroke="#9a32cd" points="618.61,-16.83 608.39,-19.64 618.13,-23.82 618.61,-16.83"/>
<text text-anchor="middle" x="725.5" y="-36" font-family="Helvetica,sans-Serif" font-size="10.00"> fMode</text>
</g>
</g>
</svg>
        <g id="navigator" transform="translate(0 0)" fill="#404254">
                <rect fill="#f2f5e9" fill-opacity="0.5" stroke="#606060" stroke-width=".5" x="0" y="0" width="60" height="60"/>
                <use id="zoomplus" xlink:href="#zoomPlus" x="17" y="9" onmousedown="handleZoom(evt,'in')"/>
                <use id="zoomminus" xlink:href="#zoomMin" x="42" y="9" onmousedown="handleZoom(evt,'out')"/>
                <use id="reset" xlink:href="#resetDef" x="30" y="36" onmousedown="handleReset()"/>
                <g id="arrowUp" xlink:href="#dirArrow" transform="translate(30 24)" onmousedown="handlePan(0,-1)">
                  <use xlink:href="#rim" fill="#404040">
                        <set attributeName="fill" to="#808080" begin="arrowUp.mouseover" end="arrowUp.mouseout"/>
                  </use>
                  <path fill="none" stroke="white" stroke-width="1.5" d="M0,-3.0v7 M-2.5,-0.5L0,-3.0L2.5,-0.5"/>
                </g>
                <g id="arrowRight" xlink:href="#dirArrow" transform="rotate(90) translate(36 -43)" onmousedown="handlePan(1,0)">
                  <use xlink:href="#rim" fill="#404040">
                        <set attributeName="fill" to="#808080" begin="arrowRight.mouseover" end="arrowRight.mouseout"/>
                  </use>
                  <path fill="none" stroke="white" stroke-width="1.5" d="M0,-3.0v7 M-2.5,-0.5L0,-3.0L2.5,-0.5"/>
                </g>
                <g id="arrowDown" xlink:href="#dirArrow" transform="rotate(180) translate(-30 -48)" onmousedown="handlePan(0,1)">
                  <use xlink:href="#rim" fill="#404040">
                        <set attributeName="fill" to="#808080" begin="arrowDown.mouseover" end="arrowDown.mouseout"/>
                  </use>
                  <path fill="none" stroke="white" stroke-width="1.5" d="M0,-3.0v7 M-2.5,-0.5L0,-3.0L2.5,-0.5"/>
                </g>
                <g id="arrowLeft" xlink:href="#dirArrow" transform="rotate(270) translate(-36 17)" onmousedown="handlePan(-1,0)">
                  <use xlink:href="#rim" fill="#404040">
                        <set attributeName="fill" to="#808080" begin="arrowLeft.mouseover" end="arrowLeft.mouseout"/>
                  </use>
                  <path fill="none" stroke="white" stroke-width="1.5" d="M0,-3.0v7 M-2.5,-0.5L0,-3.0L2.5,-0.5"/>
                </g>
        </g>
        <svg viewBox="0 0 15 15" width="100%" height="30px" preserveAspectRatio="xMaxYMin meet">
         <g id="arrow_out" transform="scale(0.3 0.3)">
          <a xlink:href="classBinnedSplineHandler__coll__graph_org.svg" target="_base">
           <rect id="button" ry="5" rx="5" y="6" x="6" height="38" width="38"
                fill="#f2f5e9" fill-opacity="0.5" stroke="#606060" stroke-width="1.0"/>
           <path id="arrow"
             d="M 11.500037,31.436501 C 11.940474,20.09759 22.043105,11.32322 32.158766,21.979434 L 37.068811,17.246167 C 37.068811,17.246167 37.088388,32 37.088388,32 L 22.160133,31.978069 C 22.160133,31.978069 26.997745,27.140456 26.997745,27.140456 C 18.528582,18.264221 13.291696,25.230495 11.500037,31.436501 z"
             style="fill:#404040;"/>
          </a>
         </g>
        </svg>
</svg>
