<?xml version="1.0" encoding="UTF-8" standalone="no"?>
<!DOCTYPE svg PUBLIC "-//W3C//DTD SVG 1.1//EN"
 "http://www.w3.org/Graphics/SVG/1.1/DTD/svg11.dtd">
<!-- Generated by graphviz version 2.43.0 (0)
 -->
<!-- Title: SampleHandlerFD Pages: 1 -->
<svg width="1319pt" height="982pt"
 viewBox="0.00 0.00 1319.00 981.98" xmlns="http://www.w3.org/2000/svg" xmlns:xlink="http://www.w3.org/1999/xlink">
<g id="graph0" class="graph" transform="scale(1 1) rotate(0) translate(4 977.98)">
<title>SampleHandlerFD</title>
<!-- Node1 -->
<g id="node1" class="node">
<title>Node1</title>
<g id="a_node1"><a xlink:title="Class responsible for handling implementation of samples used in analysis, reweighting and returning ...">
<polygon fill="#999999" stroke="#666666" points="1311,-448.98 1206,-448.98 1206,-429.98 1311,-429.98 1311,-448.98"/>
<text text-anchor="middle" x="1258.5" y="-436.98" font-family="Helvetica,sans-Serif" font-size="10.00">SampleHandlerFD</text>
</a>
</g>
</g>
<!-- Node2 -->
<g id="node2" class="node">
<title>Node2</title>
<g id="a_node2"><a xlink:href="classSampleHandlerBase.html" target="_top" xlink:title="Class responsible for handling implementation of samples used in analysis, reweighting and returning ...">
<polygon fill="white" stroke="#666666" points="974,-871.98 858,-871.98 858,-852.98 974,-852.98 974,-871.98"/>
<text text-anchor="middle" x="916" y="-859.98" font-family="Helvetica,sans-Serif" font-size="10.00">SampleHandlerBase</text>
</a>
</g>
</g>
<!-- Node2&#45;&gt;Node1 -->
<g id="edge1" class="edge">
<title>Node2&#45;&gt;Node1</title>
<path fill="none" stroke="#63b8ff" d="M984.13,-870.81C1045.61,-874.42 1134.89,-868.85 1188,-816.48 1242.38,-762.86 1255.12,-502.39 1257.17,-449.04"/>
<polygon fill="#63b8ff" stroke="#63b8ff" points="984.34,-867.32 974.13,-870.13 983.87,-874.3 984.34,-867.32"/>
</g>
<!-- Node3 -->
<g id="node3" class="node">
<title>Node3</title>
<g id="a_node3"><a xlink:href="classMaCh3Modes.html" target="_top" xlink:title="KS: Class describing MaCh3 modes used in the analysis, it is being initialised from config.">
<polygon fill="white" stroke="#666666" points="581,-889.98 498,-889.98 498,-870.98 581,-870.98 581,-889.98"/>
<text text-anchor="middle" x="539.5" y="-877.98" font-family="Helvetica,sans-Serif" font-size="10.00">MaCh3Modes</text>
</a>
</g>
</g>
<!-- Node3&#45;&gt;Node2 -->
<g id="edge2" class="edge">
<title>Node3&#45;&gt;Node2</title>
<path fill="none" stroke="#9a32cd" stroke-dasharray="5,2" d="M591.55,-878.03C661.09,-874.69 785.21,-868.72 857.8,-865.23"/>
<polygon fill="#9a32cd" stroke="#9a32cd" points="591.11,-874.55 581.29,-878.52 591.45,-881.54 591.11,-874.55"/>
<text text-anchor="middle" x="725.5" y="-877.48" font-family="Helvetica,sans-Serif" font-size="10.00"> Modes</text>
</g>
<!-- Node4 -->
<g id="node4" class="node">
<title>Node4</title>
<g id="a_node4"><a xlink:title=" ">
<polygon fill="white" stroke="#666666" points="293,-936.48 171,-936.48 171,-906.48 293,-906.48 293,-936.48"/>
<text text-anchor="start" x="179" y="-924.48" font-family="Helvetica,sans-Serif" font-size="10.00">std::map&lt; std::string,</text>
<text text-anchor="middle" x="232" y="-913.48" font-family="Helvetica,sans-Serif" font-size="10.00"> MaCh3Modes_t &gt;</text>
</a>
</g>
</g>
<!-- Node4&#45;&gt;Node3 -->
<g id="edge3" class="edge">
<title>Node4&#45;&gt;Node3</title>
<path fill="none" stroke="#9a32cd" stroke-dasharray="5,2" d="M303.55,-912.01C363.76,-903.93 448.24,-892.6 497.78,-885.95"/>
<polygon fill="#9a32cd" stroke="#9a32cd" points="302.8,-908.58 293.36,-913.38 303.73,-915.52 302.8,-908.58"/>
<text text-anchor="middle" x="383.5" y="-908.48" font-family="Helvetica,sans-Serif" font-size="10.00"> Mode</text>
</g>
<!-- Node5 -->
<g id="node5" class="node">
<title>Node5</title>
<g id="a_node5"><a xlink:title=" ">
<polygon fill="white" stroke="#666666" points="300.5,-888.48 163.5,-888.48 163.5,-858.48 300.5,-858.48 300.5,-888.48"/>
<text text-anchor="start" x="171.5" y="-876.48" font-family="Helvetica,sans-Serif" font-size="10.00">std::map&lt; MaCh3Modes</text>
<text text-anchor="middle" x="232" y="-865.48" font-family="Helvetica,sans-Serif" font-size="10.00">_t, MaCh3ModeInfo &gt;</text>
</a>
</g>
</g>
<!-- Node5&#45;&gt;Node3 -->
<g id="edge4" class="edge">
<title>Node5&#45;&gt;Node3</title>
<path fill="none" stroke="#9a32cd" stroke-dasharray="5,2" d="M310.91,-875.27C370.41,-876.63 450.04,-878.46 497.61,-879.55"/>
<polygon fill="#9a32cd" stroke="#9a32cd" points="310.88,-871.77 300.8,-875.04 310.72,-878.76 310.88,-871.77"/>
<text text-anchor="middle" x="383.5" y="-880.48" font-family="Helvetica,sans-Serif" font-size="10.00"> fMode</text>
</g>
<!-- Node6 -->
<g id="node6" class="node">
<title>Node6</title>
<g id="a_node6"><a xlink:title=" ">
<polygon fill="white" stroke="#666666" points="284,-973.98 180,-973.98 180,-954.98 284,-954.98 284,-973.98"/>
<text text-anchor="middle" x="232" y="-961.98" font-family="Helvetica,sans-Serif" font-size="10.00">std::vector&lt; int &gt;</text>
</a>
</g>
</g>
<!-- Node6&#45;&gt;Node3 -->
<g id="edge5" class="edge">
<title>Node6&#45;&gt;Node3</title>
<path fill="none" stroke="#9a32cd" stroke-dasharray="5,2" d="M289.75,-952.77C300.79,-950.42 312.27,-947.92 323,-945.48 368.94,-935.06 380.86,-933.95 426,-920.48 456.59,-911.36 491.09,-898.74 513.72,-890.13"/>
<polygon fill="#9a32cd" stroke="#9a32cd" points="288.83,-949.39 279.77,-954.89 290.28,-956.24 288.83,-949.39"/>
<text text-anchor="middle" x="383.5" y="-943.48" font-family="Helvetica,sans-Serif" font-size="10.00"> ModeMap</text>
</g>
<!-- Node7 -->
<g id="node7" class="node">
<title>Node7</title>
<g id="a_node7"><a xlink:title=" ">
<polygon fill="white" stroke="#666666" points="264.5,-811.98 199.5,-811.98 199.5,-792.98 264.5,-792.98 264.5,-811.98"/>
<text text-anchor="middle" x="232" y="-799.98" font-family="Helvetica,sans-Serif" font-size="10.00">std::string</text>
</a>
</g>
</g>
<!-- Node7&#45;&gt;Node1 -->
<g id="edge10" class="edge">
<title>Node7&#45;&gt;Node1</title>
<path fill="none" stroke="#9a32cd" stroke-dasharray="5,2" d="M274.61,-803.27C453.83,-806.49 1152.48,-817.08 1188,-787.48 1242.08,-742.42 1254.99,-500.55 1257.14,-449.11"/>
<polygon fill="#9a32cd" stroke="#9a32cd" points="274.59,-799.77 264.53,-803.09 274.46,-806.77 274.59,-799.77"/>
<text text-anchor="middle" x="725.5" y="-843.48" font-family="Helvetica,sans-Serif" font-size="10.00"> SampleName</text>
<text text-anchor="middle" x="725.5" y="-832.48" font-family="Helvetica,sans-Serif" font-size="10.00">SampleTitle</text>
<text text-anchor="middle" x="725.5" y="-821.48" font-family="Helvetica,sans-Serif" font-size="10.00">XVarStr</text>
<text text-anchor="middle" x="725.5" y="-810.48" font-family="Helvetica,sans-Serif" font-size="10.00">YVarStr</text>
</g>
<!-- Node7&#45;&gt;Node3 -->
<g id="edge6" class="edge">
<title>Node7&#45;&gt;Node3</title>
<path fill="none" stroke="#9a32cd" stroke-dasharray="5,2" d="M274.81,-812.28C313.96,-821.55 374.06,-836.01 426,-849.48 452.47,-856.35 482.31,-864.6 504.6,-870.86"/>
<polygon fill="#9a32cd" stroke="#9a32cd" points="275.37,-808.82 264.83,-809.93 273.76,-815.63 275.37,-808.82"/>
<text text-anchor="middle" x="383.5" y="-863.48" font-family="Helvetica,sans-Serif" font-size="10.00"> Generator</text>
<text text-anchor="middle" x="383.5" y="-852.48" font-family="Helvetica,sans-Serif" font-size="10.00">Title</text>
</g>
<!-- Node21 -->
<g id="node21" class="node">
<title>Node21</title>
<g id="a_node21"><a xlink:href="classParameterHandlerBase.html" target="_top" xlink:title="Base class responsible for handling of systematic error parameters. Capable of using PCA or using ada...">
<polygon fill="white" stroke="#666666" points="604,-523.98 475,-523.98 475,-504.98 604,-504.98 604,-523.98"/>
<text text-anchor="middle" x="539.5" y="-511.98" font-family="Helvetica,sans-Serif" font-size="10.00">ParameterHandlerBase</text>
</a>
</g>
</g>
<!-- Node7&#45;&gt;Node21 -->
<g id="edge22" class="edge">
<title>Node7&#45;&gt;Node21</title>
<path fill="none" stroke="#9a32cd" stroke-dasharray="5,2" d="M268.94,-789.4C317.79,-771.1 401.86,-737.62 426,-715.48 489.08,-657.65 525.31,-556.05 535.5,-524.27"/>
<polygon fill="#9a32cd" stroke="#9a32cd" points="267.52,-786.19 259.37,-792.96 269.96,-792.75 267.52,-786.19"/>
<text text-anchor="middle" x="383.5" y="-773.48" font-family="Helvetica,sans-Serif" font-size="10.00"> inputFile</text>
<text text-anchor="middle" x="383.5" y="-762.48" font-family="Helvetica,sans-Serif" font-size="10.00">matrixName</text>
</g>
<!-- Node8 -->
<g id="node8" class="node">
<title>Node8</title>
<g id="a_node8"><a xlink:title=" ">
<polygon fill="white" stroke="#666666" points="104,-817.48 0,-817.48 0,-787.48 104,-787.48 104,-817.48"/>
<text text-anchor="start" x="8" y="-805.48" font-family="Helvetica,sans-Serif" font-size="10.00">std::basic_string&lt;</text>
<text text-anchor="middle" x="52" y="-794.48" font-family="Helvetica,sans-Serif" font-size="10.00"> Char &gt;</text>
</a>
</g>
</g>
<!-- Node8&#45;&gt;Node7 -->
<g id="edge7" class="edge">
<title>Node8&#45;&gt;Node7</title>
<path fill="none" stroke="#63b8ff" d="M114.33,-802.48C142.93,-802.48 175.76,-802.48 199.3,-802.48"/>
<polygon fill="#63b8ff" stroke="#63b8ff" points="114.01,-798.98 104.01,-802.48 114.01,-805.98 114.01,-798.98"/>
</g>
<!-- Node9 -->
<g id="node9" class="node">
<title>Node9</title>
<g id="a_node9"><a xlink:title=" ">
<polygon fill="white" stroke="#666666" points="998,-774.48 834,-774.48 834,-744.48 998,-744.48 998,-774.48"/>
<text text-anchor="start" x="842" y="-762.48" font-family="Helvetica,sans-Serif" font-size="10.00">std::unique_ptr&lt; BinnedSpline</text>
<text text-anchor="middle" x="916" y="-751.48" font-family="Helvetica,sans-Serif" font-size="10.00">Handler &gt;</text>
</a>
</g>
</g>
<!-- Node9&#45;&gt;Node1 -->
<g id="edge8" class="edge">
<title>Node9&#45;&gt;Node1</title>
<path fill="none" stroke="#9a32cd" stroke-dasharray="5,2" d="M1008.58,-772.8C1066.8,-775.93 1139.99,-769.21 1188,-726.48 1231.18,-688.06 1252.22,-494.64 1256.61,-449.1"/>
<polygon fill="#9a32cd" stroke="#9a32cd" points="1008.46,-769.29 998.26,-772.14 1008.01,-776.27 1008.46,-769.29"/>
<text text-anchor="middle" x="1111" y="-775.48" font-family="Helvetica,sans-Serif" font-size="10.00"> SplineHandler</text>
</g>
<!-- Node10 -->
<g id="node10" class="node">
<title>Node10</title>
<g id="a_node10"><a xlink:title=" ">
<polygon fill="white" stroke="#666666" points="992,-726.48 840,-726.48 840,-696.48 992,-696.48 992,-726.48"/>
<text text-anchor="start" x="848" y="-714.48" font-family="Helvetica,sans-Serif" font-size="10.00">std::shared_ptr&lt; Oscillation</text>
<text text-anchor="middle" x="916" y="-703.48" font-family="Helvetica,sans-Serif" font-size="10.00">Handler &gt;</text>
</a>
</g>
</g>
<!-- Node10&#45;&gt;Node1 -->
<g id="edge9" class="edge">
<title>Node10&#45;&gt;Node1</title>
<path fill="none" stroke="#9a32cd" stroke-dasharray="5,2" d="M1002.58,-712.46C1071.29,-711.44 1160.66,-705.48 1188,-682.48 1225.44,-650.99 1250.39,-489.97 1256.2,-448.98"/>
<polygon fill="#9a32cd" stroke="#9a32cd" points="1002.13,-708.96 992.17,-712.57 1002.21,-715.96 1002.13,-708.96"/>
<text text-anchor="middle" x="1111" y="-714.48" font-family="Helvetica,sans-Serif" font-size="10.00"> Oscillator</text>
</g>
<!-- Node11 -->
<g id="node11" class="node">
<title>Node11</title>
<g id="a_node11"><a xlink:title=" ">
<polygon fill="white" stroke="#666666" points="302,-326.98 162,-326.98 162,-307.98 302,-307.98 302,-326.98"/>
<text text-anchor="middle" x="232" y="-314.98" font-family="Helvetica,sans-Serif" font-size="10.00">std::vector&lt; std::string &gt;</text>
</a>
</g>
</g>
<!-- Node11&#45;&gt;Node1 -->
<g id="edge11" class="edge">
<title>Node11&#45;&gt;Node1</title>
<path fill="none" stroke="#9a32cd" stroke-dasharray="5,2" d="M289.44,-306.66C331.13,-301.94 387.15,-302.85 426,-331.48 443.67,-344.51 428.1,-362.34 444,-377.48 564.19,-491.96 686.31,-373.69 798,-496.48 821.65,-522.48 788.52,-551.58 816,-573.48 848.32,-599.24 1152.71,-596.01 1188,-574.48 1234.59,-546.07 1251.27,-475.34 1255.96,-449.3"/>
<polygon fill="#9a32cd" stroke="#9a32cd" points="288.92,-303.2 279.44,-307.93 289.8,-310.14 288.92,-303.2"/>
<text text-anchor="middle" x="725.5" y="-543.48" font-family="Helvetica,sans-Serif" font-size="10.00"> SelectionStr</text>
<text text-anchor="middle" x="725.5" y="-532.48" font-family="Helvetica,sans-Serif" font-size="10.00">SplineVarNames</text>
<text text-anchor="middle" x="725.5" y="-521.48" font-family="Helvetica,sans-Serif" font-size="10.00">funcParsNamesVec</text>
<text text-anchor="middle" x="725.5" y="-510.48" font-family="Helvetica,sans-Serif" font-size="10.00">mc_files</text>
<text text-anchor="middle" x="725.5" y="-499.48" font-family="Helvetica,sans-Serif" font-size="10.00">spline_files</text>
</g>
<!-- Node20 -->
<g id="node20" class="node">
<title>Node20</title>
<g id="a_node20"><a xlink:href="classParameterHandlerGeneric.html" target="_top" xlink:title="Class responsible for handling of systematic error parameters with different types defined in the con...">
<polygon fill="white" stroke="#666666" points="987.5,-248.98 844.5,-248.98 844.5,-229.98 987.5,-229.98 987.5,-248.98"/>
<text text-anchor="middle" x="916" y="-236.98" font-family="Helvetica,sans-Serif" font-size="10.00">ParameterHandlerGeneric</text>
</a>
</g>
</g>
<!-- Node11&#45;&gt;Node20 -->
<g id="edge33" class="edge">
<title>Node11&#45;&gt;Node20</title>
<path fill="none" stroke="#9a32cd" stroke-dasharray="5,2" d="M290.43,-306.02C332.74,-297.92 391.77,-287.32 444,-280.48 453.8,-279.2 715.52,-256.63 844.5,-245.54"/>
<polygon fill="#9a32cd" stroke="#9a32cd" points="289.74,-302.59 280.58,-307.92 291.07,-309.46 289.74,-302.59"/>
<text text-anchor="middle" x="539.5" y="-294.48" font-family="Helvetica,sans-Serif" font-size="10.00"> _ParameterGroup</text>
<text text-anchor="middle" x="539.5" y="-283.48" font-family="Helvetica,sans-Serif" font-size="10.00">_fSplineNames</text>
</g>
<!-- Node11&#45;&gt;Node21 -->
<g id="edge25" class="edge">
<title>Node11&#45;&gt;Node21</title>
<path fill="none" stroke="#9a32cd" stroke-dasharray="5,2" d="M312.04,-328.52C361.51,-336.13 417.44,-346.31 426,-354.48 450.79,-378.16 426.47,-400.03 444,-429.48 463.98,-463.04 501.5,-490.83 522.76,-504.78"/>
<polygon fill="#9a32cd" stroke="#9a32cd" points="312.34,-325.03 301.93,-326.99 311.29,-331.95 312.34,-325.03"/>
<text text-anchor="middle" x="383.5" y="-368.48" font-family="Helvetica,sans-Serif" font-size="10.00"> _fFancyNames</text>
<text text-anchor="middle" x="383.5" y="-357.48" font-family="Helvetica,sans-Serif" font-size="10.00">_fNames</text>
</g>
<!-- Node12 -->
<g id="node12" class="node">
<title>Node12</title>
<g id="a_node12"><a xlink:title=" ">
<polygon fill="white" stroke="#666666" points="294,-709.98 170,-709.98 170,-690.98 294,-690.98 294,-709.98"/>
<text text-anchor="middle" x="232" y="-697.98" font-family="Helvetica,sans-Serif" font-size="10.00">std::vector&lt; double &gt;</text>
</a>
</g>
</g>
<!-- Node12&#45;&gt;Node1 -->
<g id="edge12" class="edge">
<title>Node12&#45;&gt;Node1</title>
<path fill="none" stroke="#9a32cd" stroke-dasharray="5,2" d="M304.21,-708.77C316.47,-709.9 329.09,-710.88 341,-711.48 378.73,-713.4 388.26,-713.09 426,-711.48 447.22,-710.58 1171.3,-659.61 1188,-646.48 1252.39,-595.89 1257.6,-483.31 1257.66,-449.36"/>
<polygon fill="#9a32cd" stroke="#9a32cd" points="304.32,-705.26 294.03,-707.79 303.65,-712.23 304.32,-705.26"/>
<text text-anchor="middle" x="725.5" y="-730.48" font-family="Helvetica,sans-Serif" font-size="10.00"> SampleXBins</text>
<text text-anchor="middle" x="725.5" y="-719.48" font-family="Helvetica,sans-Serif" font-size="10.00">SampleYBins</text>
<text text-anchor="middle" x="725.5" y="-708.48" font-family="Helvetica,sans-Serif" font-size="10.00">XBinEdges</text>
<text text-anchor="middle" x="725.5" y="-697.48" font-family="Helvetica,sans-Serif" font-size="10.00">YBinEdges</text>
</g>
<!-- Node12&#45;&gt;Node21 -->
<g id="edge26" class="edge">
<title>Node12&#45;&gt;Node21</title>
<path fill="none" stroke="#9a32cd" stroke-dasharray="5,2" d="M267.94,-686.93C285.44,-679.19 306.39,-668.45 323,-655.48 332.69,-647.92 330.61,-641.05 341,-634.48 374.09,-613.59 391.43,-629.83 426,-611.48 470.65,-587.79 512.87,-543.52 530.22,-524.07"/>
<polygon fill="#9a32cd" stroke="#9a32cd" points="266.44,-683.76 258.62,-690.91 269.19,-690.2 266.44,-683.76"/>
<text text-anchor="middle" x="383.5" y="-703.48" font-family="Helvetica,sans-Serif" font-size="10.00"> _fCurrVal</text>
<text text-anchor="middle" x="383.5" y="-692.48" font-family="Helvetica,sans-Serif" font-size="10.00">_fError</text>
<text text-anchor="middle" x="383.5" y="-681.48" font-family="Helvetica,sans-Serif" font-size="10.00">_fIndivStepScale</text>
<text text-anchor="middle" x="383.5" y="-670.48" font-family="Helvetica,sans-Serif" font-size="10.00">_fLowBound</text>
<text text-anchor="middle" x="383.5" y="-659.48" font-family="Helvetica,sans-Serif" font-size="10.00">_fPreFitValue</text>
<text text-anchor="middle" x="383.5" y="-648.48" font-family="Helvetica,sans-Serif" font-size="10.00">_fPropVal</text>
<text text-anchor="middle" x="383.5" y="-637.48" font-family="Helvetica,sans-Serif" font-size="10.00">_fUpBound</text>
</g>
<!-- Node13 -->
<g id="node13" class="node">
<title>Node13</title>
<g id="a_node13"><a xlink:title=" ">
<polygon fill="white" stroke="#666666" points="635,-367.98 444,-367.98 444,-348.98 635,-348.98 635,-367.98"/>
<text text-anchor="middle" x="539.5" y="-355.98" font-family="Helvetica,sans-Serif" font-size="10.00">std::vector&lt; FunctionalParameter &gt;</text>
</a>
</g>
</g>
<!-- Node13&#45;&gt;Node1 -->
<g id="edge13" class="edge">
<title>Node13&#45;&gt;Node1</title>
<path fill="none" stroke="#9a32cd" stroke-dasharray="5,2" d="M587.04,-370.04C642.89,-381.01 736.65,-389.83 798,-344.48 816.66,-330.69 796.98,-308.76 816,-295.48 888.89,-244.61 927.29,-289.83 1016,-295.48 1092.91,-300.38 1123.97,-274.6 1188,-317.48 1229.32,-345.15 1248.92,-406.19 1255.18,-429.85"/>
<polygon fill="#9a32cd" stroke="#9a32cd" points="587.58,-366.58 577.07,-367.98 586.16,-373.44 587.58,-366.58"/>
<text text-anchor="middle" x="916" y="-298.48" font-family="Helvetica,sans-Serif" font-size="10.00"> funcParsVec</text>
</g>
<!-- Node13&#45;&gt;Node20 -->
<g id="edge37" class="edge">
<title>Node13&#45;&gt;Node20</title>
<path fill="none" stroke="#9a32cd" stroke-dasharray="5,2" d="M603.71,-346.9C614.21,-344.65 624.95,-342.16 635,-339.48 643.15,-337.31 644.81,-335.48 653,-333.48 716.39,-318 747.31,-351.57 798,-310.48 815.38,-296.4 799.2,-278.26 816,-263.48 824.1,-256.36 833.96,-251.26 844.28,-247.64"/>
<polygon fill="#9a32cd" stroke="#9a32cd" points="602.82,-343.51 593.75,-348.97 604.25,-350.36 602.82,-343.51"/>
<text text-anchor="middle" x="725.5" y="-336.48" font-family="Helvetica,sans-Serif" font-size="10.00"> FuncParams</text>
</g>
<!-- Node14 -->
<g id="node14" class="node">
<title>Node14</title>
<g id="a_node14"><a xlink:title=" ">
<polygon fill="white" stroke="#666666" points="973,-564.48 859,-564.48 859,-534.48 973,-534.48 973,-564.48"/>
<text text-anchor="start" x="867" y="-552.48" font-family="Helvetica,sans-Serif" font-size="10.00">std::unordered_map</text>
<text text-anchor="middle" x="916" y="-541.48" font-family="Helvetica,sans-Serif" font-size="10.00">&lt; std::string, int &gt;</text>
</a>
</g>
</g>
<!-- Node14&#45;&gt;Node1 -->
<g id="edge14" class="edge">
<title>Node14&#45;&gt;Node1</title>
<path fill="none" stroke="#9a32cd" stroke-dasharray="5,2" d="M983.11,-551.99C1040.31,-551.5 1123.71,-544.24 1188,-511.48 1216.95,-496.73 1240.69,-465.11 1251.38,-449.14"/>
<polygon fill="#9a32cd" stroke="#9a32cd" points="983.1,-548.49 973.1,-552.01 983.11,-555.49 983.1,-548.49"/>
<text text-anchor="middle" x="1111" y="-562.48" font-family="Helvetica,sans-Serif" font-size="10.00"> KinematicParameters</text>
<text text-anchor="middle" x="1111" y="-551.48" font-family="Helvetica,sans-Serif" font-size="10.00">funcParsNamesMap</text>
</g>
<!-- Node15 -->
<g id="node15" class="node">
<title>Node15</title>
<g id="a_node15"><a xlink:title=" ">
<polygon fill="white" stroke="#666666" points="1016,-515.98 816,-515.98 816,-496.98 1016,-496.98 1016,-515.98"/>
<text text-anchor="middle" x="916" y="-503.98" font-family="Helvetica,sans-Serif" font-size="10.00">std::vector&lt; FunctionalParameter * &gt;</text>
</a>
</g>
</g>
<!-- Node15&#45;&gt;Node1 -->
<g id="edge15" class="edge">
<title>Node15&#45;&gt;Node1</title>
<path fill="none" stroke="#9a32cd" stroke-dasharray="5,2" d="M1026.33,-498.38C1076.26,-492.95 1135.79,-484.02 1188,-469.48 1205.98,-464.48 1225.4,-455.79 1239.12,-449.05"/>
<polygon fill="#9a32cd" stroke="#9a32cd" points="1025.73,-494.93 1016.15,-499.46 1026.46,-501.89 1025.73,-494.93"/>
<text text-anchor="middle" x="1111" y="-499.48" font-family="Helvetica,sans-Serif" font-size="10.00"> funcParsMap</text>
</g>
<!-- Node16 -->
<g id="node16" class="node">
<title>Node16</title>
<g id="a_node16"><a xlink:title=" ">
<polygon fill="white" stroke="#666666" points="986,-478.48 846,-478.48 846,-448.48 986,-448.48 986,-478.48"/>
<text text-anchor="start" x="854" y="-466.48" font-family="Helvetica,sans-Serif" font-size="10.00">std::unordered_map</text>
<text text-anchor="middle" x="916" y="-455.48" font-family="Helvetica,sans-Serif" font-size="10.00">&lt; int, FuncParFuncType &gt;</text>
</a>
</g>
</g>
<!-- Node16&#45;&gt;Node1 -->
<g id="edge16" class="edge">
<title>Node16&#45;&gt;Node1</title>
<path fill="none" stroke="#9a32cd" stroke-dasharray="5,2" d="M996.45,-457.88C1060.99,-453.33 1150.14,-447.05 1205.77,-443.13"/>
<polygon fill="#9a32cd" stroke="#9a32cd" points="996.04,-454.4 986.32,-458.6 996.54,-461.38 996.04,-454.4"/>
<text text-anchor="middle" x="1111" y="-457.48" font-family="Helvetica,sans-Serif" font-size="10.00"> funcParsFuncMap</text>
</g>
<!-- Node17 -->
<g id="node17" class="node">
<title>Node17</title>
<g id="a_node17"><a xlink:title=" ">
<polygon fill="white" stroke="#666666" points="981.5,-430.48 850.5,-430.48 850.5,-400.48 981.5,-400.48 981.5,-430.48"/>
<text text-anchor="start" x="858.5" y="-418.48" font-family="Helvetica,sans-Serif" font-size="10.00">std::vector&lt; std::vector</text>
<text text-anchor="middle" x="916" y="-407.48" font-family="Helvetica,sans-Serif" font-size="10.00">&lt; int &gt; &gt;</text>
</a>
</g>
</g>
<!-- Node17&#45;&gt;Node1 -->
<g id="edge17" class="edge">
<title>Node17&#45;&gt;Node1</title>
<path fill="none" stroke="#9a32cd" stroke-dasharray="5,2" d="M992,-417.52C1046.48,-419.44 1121.93,-423.04 1188,-429.48 1193.82,-430.05 1199.91,-430.76 1205.95,-431.53"/>
<polygon fill="#9a32cd" stroke="#9a32cd" points="991.85,-414.01 981.74,-417.17 991.61,-421.01 991.85,-414.01"/>
<text text-anchor="middle" x="1111" y="-432.48" font-family="Helvetica,sans-Serif" font-size="10.00"> funcParsGrid</text>
</g>
<!-- Node18 -->
<g id="node18" class="node">
<title>Node18</title>
<g id="a_node18"><a xlink:title=" ">
<polygon fill="white" stroke="#666666" points="984,-382.48 848,-382.48 848,-352.48 984,-352.48 984,-382.48"/>
<text text-anchor="start" x="856" y="-370.48" font-family="Helvetica,sans-Serif" font-size="10.00">std::vector&lt; FarDetector</text>
<text text-anchor="middle" x="916" y="-359.48" font-family="Helvetica,sans-Serif" font-size="10.00">CoreInfo &gt;</text>
</a>
</g>
</g>
<!-- Node18&#45;&gt;Node1 -->
<g id="edge18" class="edge">
<title>Node18&#45;&gt;Node1</title>
<path fill="none" stroke="#9a32cd" stroke-dasharray="5,2" d="M994.08,-371.22C1049.13,-375.51 1124.39,-384.73 1188,-404.48 1207.61,-410.57 1228.44,-421.77 1242.12,-429.86"/>
<polygon fill="#9a32cd" stroke="#9a32cd" points="994.27,-367.72 984.04,-370.47 993.75,-374.7 994.27,-367.72"/>
<text text-anchor="middle" x="1111" y="-407.48" font-family="Helvetica,sans-Serif" font-size="10.00"> MCSamples</text>
</g>
<!-- Node19 -->
<g id="node19" class="node">
<title>Node19</title>
<g id="a_node19"><a xlink:title=" ">
<polygon fill="white" stroke="#666666" points="999.5,-333.98 832.5,-333.98 832.5,-314.98 999.5,-314.98 999.5,-333.98"/>
<text text-anchor="middle" x="916" y="-321.98" font-family="Helvetica,sans-Serif" font-size="10.00">std::vector&lt; OscChannelInfo &gt;</text>
</a>
</g>
</g>
<!-- Node19&#45;&gt;Node1 -->
<g id="edge19" class="edge">
<title>Node19&#45;&gt;Node1</title>
<path fill="none" stroke="#9a32cd" stroke-dasharray="5,2" d="M1009.63,-320.4C1064.45,-321.76 1133.58,-330.32 1188,-359.48 1218.97,-376.08 1242.42,-412.44 1252.32,-429.84"/>
<polygon fill="#9a32cd" stroke="#9a32cd" points="1009.63,-316.9 999.57,-320.22 1009.51,-323.89 1009.63,-316.9"/>
<text text-anchor="middle" x="1111" y="-362.48" font-family="Helvetica,sans-Serif" font-size="10.00"> OscChannels</text>
</g>
<!-- Node20&#45;&gt;Node1 -->
<g id="edge20" class="edge">
<title>Node20&#45;&gt;Node1</title>
<path fill="none" stroke="#9a32cd" stroke-dasharray="5,2" d="M969.71,-228.27C1028.86,-218.86 1124.79,-213.53 1188,-260.48 1245,-302.82 1255.26,-398.62 1257.1,-429.61"/>
<polygon fill="#9a32cd" stroke="#9a32cd" points="969.11,-224.82 959.83,-229.93 970.27,-231.72 969.11,-224.82"/>
<text text-anchor="middle" x="1111" y="-263.48" font-family="Helvetica,sans-Serif" font-size="10.00"> ParHandler</text>
</g>
<!-- Node21&#45;&gt;Node20 -->
<g id="edge21" class="edge">
<title>Node21&#45;&gt;Node20</title>
<path fill="none" stroke="#63b8ff" d="M606.98,-524.97C666.03,-530.13 750.16,-526.57 798,-475.48 830.32,-440.97 785.22,-299.37 816,-263.48 823.48,-254.76 833.55,-248.91 844.4,-245.05"/>
<polygon fill="#63b8ff" stroke="#63b8ff" points="607.29,-521.48 597,-523.99 606.61,-528.45 607.29,-521.48"/>
</g>
<!-- Node33 -->
<g id="node33" class="node">
<title>Node33</title>
<g id="a_node33"><a xlink:href="classParameterHandlerOsc.html" target="_top" xlink:title="Class responsible for handling of neutrino oscillation parameters.">
<polygon fill="white" stroke="#666666" points="977.5,-639.98 854.5,-639.98 854.5,-620.98 977.5,-620.98 977.5,-639.98"/>
<text text-anchor="middle" x="916" y="-627.98" font-family="Helvetica,sans-Serif" font-size="10.00">ParameterHandlerOsc</text>
</a>
</g>
</g>
<!-- Node21&#45;&gt;Node33 -->
<g id="edge39" class="edge">
<title>Node21&#45;&gt;Node33</title>
<path fill="none" stroke="#63b8ff" d="M576.35,-527.54C628.64,-546.32 729.04,-581.47 816,-606.48 834.19,-611.71 854.46,-616.76 871.91,-620.87"/>
<polygon fill="#63b8ff" stroke="#63b8ff" points="577.46,-524.21 566.86,-524.11 575.08,-530.8 577.46,-524.21"/>
</g>
<!-- Node22 -->
<g id="node22" class="node">
<title>Node22</title>
<g id="a_node22"><a xlink:title=" ">
<polygon fill="white" stroke="#666666" points="297.5,-646.48 166.5,-646.48 166.5,-616.48 297.5,-616.48 297.5,-646.48"/>
<text text-anchor="start" x="174.5" y="-634.48" font-family="Helvetica,sans-Serif" font-size="10.00">std::vector&lt; std::vector</text>
<text text-anchor="middle" x="232" y="-623.48" font-family="Helvetica,sans-Serif" font-size="10.00">&lt; double &gt; &gt;</text>
</a>
</g>
</g>
<!-- Node22&#45;&gt;Node21 -->
<g id="edge23" class="edge">
<title>Node22&#45;&gt;Node21</title>
<path fill="none" stroke="#9a32cd" stroke-dasharray="5,2" d="M303.16,-613.58C309.89,-611.62 316.6,-609.57 323,-607.48 331.16,-604.82 332.86,-603.21 341,-600.48 378.22,-588.02 389.68,-591.39 426,-576.48 462.72,-561.41 502.77,-537.32 523.76,-524.04"/>
<polygon fill="#9a32cd" stroke="#9a32cd" points="301.96,-610.28 293.3,-616.39 303.88,-617.02 301.96,-610.28"/>
<text text-anchor="middle" x="383.5" y="-603.48" font-family="Helvetica,sans-Serif" font-size="10.00"> InvertCovMatrix</text>
</g>
<!-- Node23 -->
<g id="node23" class="node">
<title>Node23</title>
<g id="a_node23"><a xlink:title=" ">
<polygon fill="white" stroke="#666666" points="299,-598.48 165,-598.48 165,-568.48 299,-568.48 299,-598.48"/>
<text text-anchor="start" x="173" y="-586.48" font-family="Helvetica,sans-Serif" font-size="10.00">std::vector&lt; std::unique</text>
<text text-anchor="middle" x="232" y="-575.48" font-family="Helvetica,sans-Serif" font-size="10.00">_ptr&lt; TRandom3 &gt; &gt;</text>
</a>
</g>
</g>
<!-- Node23&#45;&gt;Node21 -->
<g id="edge24" class="edge">
<title>Node23&#45;&gt;Node21</title>
<path fill="none" stroke="#9a32cd" stroke-dasharray="5,2" d="M309.11,-568.58C344.7,-561.39 387.61,-552.4 426,-543.48 451.93,-537.46 481.03,-529.93 503.14,-524.06"/>
<polygon fill="#9a32cd" stroke="#9a32cd" points="308.38,-565.16 299.27,-570.56 309.77,-572.02 308.38,-565.16"/>
<text text-anchor="middle" x="383.5" y="-564.48" font-family="Helvetica,sans-Serif" font-size="10.00"> random_number</text>
</g>
<!-- Node24 -->
<g id="node24" class="node">
<title>Node24</title>
<g id="a_node24"><a xlink:title=" ">
<polygon fill="white" stroke="#666666" points="288,-549.98 176,-549.98 176,-530.98 288,-530.98 288,-549.98"/>
<text text-anchor="middle" x="232" y="-537.98" font-family="Helvetica,sans-Serif" font-size="10.00">std::vector&lt; bool &gt;</text>
</a>
</g>
</g>
<!-- Node24&#45;&gt;Node21 -->
<g id="edge27" class="edge">
<title>Node24&#45;&gt;Node21</title>
<path fill="none" stroke="#9a32cd" stroke-dasharray="5,2" d="M298.47,-534.91C350.62,-530.47 423.21,-524.29 474.87,-519.9"/>
<polygon fill="#9a32cd" stroke="#9a32cd" points="297.99,-531.44 288.32,-535.77 298.58,-538.41 297.99,-531.44"/>
<text text-anchor="middle" x="383.5" y="-533.48" font-family="Helvetica,sans-Serif" font-size="10.00"> _fFlatPrior</text>
</g>
<!-- Node25 -->
<g id="node25" class="node">
<title>Node25</title>
<g id="a_node25"><a xlink:title=" ">
<polygon fill="white" stroke="#666666" points="297.5,-512.48 166.5,-512.48 166.5,-482.48 297.5,-482.48 297.5,-512.48"/>
<text text-anchor="start" x="174.5" y="-500.48" font-family="Helvetica,sans-Serif" font-size="10.00">std::vector&lt; std::vector</text>
<text text-anchor="middle" x="232" y="-489.48" font-family="Helvetica,sans-Serif" font-size="10.00">&lt; std::string &gt; &gt;</text>
</a>
</g>
</g>
<!-- Node25&#45;&gt;Node21 -->
<g id="edge28" class="edge">
<title>Node25&#45;&gt;Node21</title>
<path fill="none" stroke="#9a32cd" stroke-dasharray="5,2" d="M308.21,-495.5C343.94,-495.17 387.22,-495.64 426,-498.48 444.4,-499.83 464.36,-502.33 482.3,-504.96"/>
<polygon fill="#9a32cd" stroke="#9a32cd" points="307.82,-492.01 297.86,-495.62 307.9,-499.01 307.82,-492.01"/>
<text text-anchor="middle" x="383.5" y="-501.48" font-family="Helvetica,sans-Serif" font-size="10.00"> _fSampleNames</text>
</g>
<!-- Node26 -->
<g id="node26" class="node">
<title>Node26</title>
<g id="a_node26"><a xlink:title=" ">
<polygon fill="white" stroke="#666666" points="317,-463.98 147,-463.98 147,-444.98 317,-444.98 317,-463.98"/>
<text text-anchor="middle" x="232" y="-451.98" font-family="Helvetica,sans-Serif" font-size="10.00">std::unique_ptr&lt; PCAHandler &gt;</text>
</a>
</g>
</g>
<!-- Node26&#45;&gt;Node21 -->
<g id="edge29" class="edge">
<title>Node26&#45;&gt;Node21</title>
<path fill="none" stroke="#9a32cd" stroke-dasharray="5,2" d="M327.26,-463.39C358.85,-467.25 394.13,-472.52 426,-479.48 456.17,-486.08 489.89,-497.07 512.48,-504.98"/>
<polygon fill="#9a32cd" stroke="#9a32cd" points="327.49,-459.89 317.14,-462.18 326.66,-466.84 327.49,-459.89"/>
<text text-anchor="middle" x="383.5" y="-482.48" font-family="Helvetica,sans-Serif" font-size="10.00"> PCAObj</text>
</g>
<!-- Node27 -->
<g id="node27" class="node">
<title>Node27</title>
<g id="a_node27"><a xlink:title=" ">
<polygon fill="white" stroke="#666666" points="323,-426.48 141,-426.48 141,-396.48 323,-396.48 323,-426.48"/>
<text text-anchor="start" x="149" y="-414.48" font-family="Helvetica,sans-Serif" font-size="10.00">std::unique_ptr&lt; adaptive</text>
<text text-anchor="middle" x="232" y="-403.48" font-family="Helvetica,sans-Serif" font-size="10.00">_mcmc::AdaptiveMCMCHandler &gt;</text>
</a>
</g>
</g>
<!-- Node27&#45;&gt;Node21 -->
<g id="edge30" class="edge">
<title>Node27&#45;&gt;Node21</title>
<path fill="none" stroke="#9a32cd" stroke-dasharray="5,2" d="M333.28,-424.76C363.65,-430.49 396.7,-438.48 426,-449.48 464.43,-463.91 505.08,-490.68 525.37,-504.95"/>
<polygon fill="#9a32cd" stroke="#9a32cd" points="333.56,-421.25 323.09,-422.9 332.3,-428.14 333.56,-421.25"/>
<text text-anchor="middle" x="383.5" y="-452.48" font-family="Helvetica,sans-Serif" font-size="10.00"> AdaptiveHandler</text>
</g>
<!-- Node28 -->
<g id="node28" class="node">
<title>Node28</title>
<g id="a_node28"><a xlink:title=" ">
<polygon fill="white" stroke="#666666" points="307.5,-378.48 156.5,-378.48 156.5,-348.48 307.5,-348.48 307.5,-378.48"/>
<text text-anchor="start" x="164.5" y="-366.48" font-family="Helvetica,sans-Serif" font-size="10.00">std::unique_ptr&lt; Parameter</text>
<text text-anchor="middle" x="232" y="-355.48" font-family="Helvetica,sans-Serif" font-size="10.00">Tunes &gt;</text>
</a>
</g>
</g>
<!-- Node28&#45;&gt;Node21 -->
<g id="edge31" class="edge">
<title>Node28&#45;&gt;Node21</title>
<path fill="none" stroke="#9a32cd" stroke-dasharray="5,2" d="M317.77,-374.33C352.89,-381.37 393.04,-392.85 426,-411.48 435.85,-417.05 435.79,-421.7 444,-429.48 473.62,-457.58 509.78,-489.45 527.56,-504.98"/>
<polygon fill="#9a32cd" stroke="#9a32cd" points="318.01,-370.82 307.53,-372.38 316.7,-377.69 318.01,-370.82"/>
<text text-anchor="middle" x="383.5" y="-414.48" font-family="Helvetica,sans-Serif" font-size="10.00"> Tunes</text>
</g>
<!-- Node29 -->
<g id="node29" class="node">
<title>Node29</title>
<g id="a_node29"><a xlink:title=" ">
<polygon fill="white" stroke="#666666" points="606.5,-233.98 472.5,-233.98 472.5,-214.98 606.5,-214.98 606.5,-233.98"/>
<text text-anchor="middle" x="539.5" y="-221.98" font-family="Helvetica,sans-Serif" font-size="10.00">std::vector&lt; SystType &gt;</text>
</a>
</g>
</g>
<!-- Node29&#45;&gt;Node20 -->
<g id="edge32" class="edge">
<title>Node29&#45;&gt;Node20</title>
<path fill="none" stroke="#9a32cd" stroke-dasharray="5,2" d="M616.62,-227.53C683.32,-230.2 779.5,-234.06 844.48,-236.66"/>
<polygon fill="#9a32cd" stroke="#9a32cd" points="616.72,-224.03 606.59,-227.13 616.44,-231.03 616.72,-224.03"/>
<text text-anchor="middle" x="725.5" y="-237.48" font-family="Helvetica,sans-Serif" font-size="10.00"> _fParamType</text>
</g>
<!-- Node30 -->
<g id="node30" class="node">
<title>Node30</title>
<g id="a_node30"><a xlink:title=" ">
<polygon fill="white" stroke="#666666" points="600.5,-196.48 478.5,-196.48 478.5,-166.48 600.5,-166.48 600.5,-196.48"/>
<text text-anchor="start" x="486.5" y="-184.48" font-family="Helvetica,sans-Serif" font-size="10.00">std::vector&lt; std::map</text>
<text text-anchor="middle" x="539.5" y="-173.48" font-family="Helvetica,sans-Serif" font-size="10.00">&lt; int, int &gt; &gt;</text>
</a>
</g>
</g>
<!-- Node30&#45;&gt;Node20 -->
<g id="edge34" class="edge">
<title>Node30&#45;&gt;Node20</title>
<path fill="none" stroke="#9a32cd" stroke-dasharray="5,2" d="M610.68,-188.38C662.6,-193.93 734.95,-202.58 798,-213.48 824.35,-218.04 853.72,-224.57 876.45,-229.95"/>
<polygon fill="#9a32cd" stroke="#9a32cd" points="610.89,-184.89 600.57,-187.31 610.15,-191.85 610.89,-184.89"/>
<text text-anchor="middle" x="725.5" y="-216.48" font-family="Helvetica,sans-Serif" font-size="10.00"> _fSystToGlobalSystIndexMap</text>
</g>
<!-- Node31 -->
<g id="node31" class="node">
<title>Node31</title>
<g id="a_node31"><a xlink:title=" ">
<polygon fill="white" stroke="#666666" points="625,-329.98 454,-329.98 454,-310.98 625,-310.98 625,-329.98"/>
<text text-anchor="middle" x="539.5" y="-317.98" font-family="Helvetica,sans-Serif" font-size="10.00">std::vector&lt; SplineParameter &gt;</text>
</a>
</g>
</g>
<!-- Node31&#45;&gt;Node20 -->
<g id="edge35" class="edge">
<title>Node31&#45;&gt;Node20</title>
<path fill="none" stroke="#9a32cd" stroke-dasharray="5,2" d="M599.89,-309.08C617.01,-305.88 635.73,-302.46 653,-299.48 717.3,-288.38 737.68,-301.37 798,-276.48 807.12,-272.72 807.04,-267.61 816,-263.48 829.49,-257.27 844.79,-252.55 859.25,-249.01"/>
<polygon fill="#9a32cd" stroke="#9a32cd" points="599.19,-305.65 590.01,-310.94 600.49,-312.53 599.19,-305.65"/>
<text text-anchor="middle" x="725.5" y="-302.48" font-family="Helvetica,sans-Serif" font-size="10.00"> SplineParams</text>
</g>
<!-- Node32 -->
<g id="node32" class="node">
<title>Node32</title>
<g id="a_node32"><a xlink:title=" ">
<polygon fill="white" stroke="#666666" points="623.5,-147.98 455.5,-147.98 455.5,-128.98 623.5,-128.98 623.5,-147.98"/>
<text text-anchor="middle" x="539.5" y="-135.98" font-family="Helvetica,sans-Serif" font-size="10.00">std::vector&lt; NormParameter &gt;</text>
</a>
</g>
</g>
<!-- Node32&#45;&gt;Node1 -->
<g id="edge40" class="edge">
<title>Node32&#45;&gt;Node1</title>
<path fill="none" stroke="#9a32cd" stroke-dasharray="5,2" d="M610.23,-127.96C664.27,-123.08 739.53,-123.64 798,-152.48 809.02,-157.92 805.15,-167.7 816,-173.48 889.45,-212.66 1123.94,-164.33 1188,-217.48 1255.76,-273.7 1258.51,-395.16 1257.84,-429.98"/>
<polygon fill="#9a32cd" stroke="#9a32cd" points="609.66,-124.5 600.06,-128.97 610.35,-131.47 609.66,-124.5"/>
<text text-anchor="middle" x="916" y="-193.48" font-family="Helvetica,sans-Serif" font-size="10.00"> norm_parameters</text>
</g>
<!-- Node32&#45;&gt;Node20 -->
<g id="edge36" class="edge">
<title>Node32&#45;&gt;Node20</title>
<path fill="none" stroke="#9a32cd" stroke-dasharray="5,2" d="M633.49,-148.69C701.68,-156.88 784.62,-168.6 798,-178.48 812.71,-189.35 801.76,-204.01 816,-215.48 824.26,-222.14 834.09,-226.99 844.3,-230.52"/>
<polygon fill="#9a32cd" stroke="#9a32cd" points="633.89,-145.21 623.55,-147.5 633.07,-152.16 633.89,-145.21"/>
<text text-anchor="middle" x="725.5" y="-181.48" font-family="Helvetica,sans-Serif" font-size="10.00"> NormParams</text>
</g>
<!-- Node33&#45;&gt;Node1 -->
<g id="edge38" class="edge">
<title>Node33&#45;&gt;Node1</title>
<path fill="none" stroke="#9a32cd" stroke-dasharray="5,2" d="M987.57,-632.3C1057.07,-632.69 1157.18,-629.07 1188,-606.48 1241.7,-567.13 1254.12,-478.43 1256.81,-449.1"/>
<polygon fill="#9a32cd" stroke="#9a32cd" points="987.57,-628.8 977.54,-632.21 987.51,-635.8 987.57,-628.8"/>
<text text-anchor="middle" x="1111" y="-634.48" font-family="Helvetica,sans-Serif" font-size="10.00"> OscParHandler</text>
</g>
<!-- Node34 -->
<g id="node34" class="node">
<title>Node34</title>
<g id="a_node34"><a xlink:title=" ">
<polygon fill="white" stroke="#666666" points="994.5,-163.98 837.5,-163.98 837.5,-144.98 994.5,-144.98 994.5,-163.98"/>
<text text-anchor="middle" x="916" y="-151.98" font-family="Helvetica,sans-Serif" font-size="10.00">std::vector&lt; KinematicCut &gt;</text>
</a>
</g>
</g>
<!-- Node34&#45;&gt;Node1 -->
<g id="edge41" class="edge">
<title>Node34&#45;&gt;Node1</title>
<path fill="none" stroke="#9a32cd" stroke-dasharray="5,2" d="M1005.03,-146.71C1073.29,-142.66 1160.71,-142.41 1188,-164.48 1231.07,-199.32 1252.12,-385.35 1256.58,-429.89"/>
<polygon fill="#9a32cd" stroke="#9a32cd" points="1004.44,-143.24 994.68,-147.36 1004.88,-150.23 1004.44,-143.24"/>
<text text-anchor="middle" x="1111" y="-178.48" font-family="Helvetica,sans-Serif" font-size="10.00"> Selection</text>
<text text-anchor="middle" x="1111" y="-167.48" font-family="Helvetica,sans-Serif" font-size="10.00">StoredSelection</text>
</g>
<!-- Node35 -->
<g id="node35" class="node">
<title>Node35</title>
<g id="a_node35"><a xlink:title=" ">
<polygon fill="white" stroke="#666666" points="973,-126.48 859,-126.48 859,-96.48 973,-96.48 973,-126.48"/>
<text text-anchor="start" x="867" y="-114.48" font-family="Helvetica,sans-Serif" font-size="10.00">std::unordered_map</text>
<text text-anchor="middle" x="916" y="-103.48" font-family="Helvetica,sans-Serif" font-size="10.00">&lt; int, std::string &gt;</text>
</a>
</g>
</g>
<!-- Node35&#45;&gt;Node1 -->
<g id="edge42" class="edge">
<title>Node35&#45;&gt;Node1</title>
<path fill="none" stroke="#9a32cd" stroke-dasharray="5,2" d="M983.48,-95.62C1044.02,-85.4 1132.23,-81.71 1188,-129.48 1235.44,-170.12 1253.34,-381.52 1256.83,-429.7"/>
<polygon fill="#9a32cd" stroke="#9a32cd" points="982.49,-92.24 973.26,-97.45 983.72,-99.13 982.49,-92.24"/>
<text text-anchor="middle" x="1111" y="-132.48" font-family="Helvetica,sans-Serif" font-size="10.00"> ReversedKinematicParameters</text>
</g>
<!-- Node36 -->
<g id="node36" class="node">
<title>Node36</title>
<g id="a_node36"><a xlink:title=" ">
<polygon fill="white" stroke="#666666" points="993.5,-77.98 838.5,-77.98 838.5,-58.98 993.5,-58.98 993.5,-77.98"/>
<text text-anchor="middle" x="916" y="-65.98" font-family="Helvetica,sans-Serif" font-size="10.00">std::unique_ptr&lt; manager &gt;</text>
</a>
</g>
</g>
<!-- Node36&#45;&gt;Node1 -->
<g id="edge43" class="edge">
<title>Node36&#45;&gt;Node1</title>
<path fill="none" stroke="#9a32cd" stroke-dasharray="5,2" d="M1003.55,-58.68C1072.2,-52.93 1160.96,-50.67 1188,-73.48 1244.6,-121.24 1255.55,-376.42 1257.23,-429.72"/>
<polygon fill="#9a32cd" stroke="#9a32cd" points="1003.23,-55.19 993.58,-59.55 1003.84,-62.17 1003.23,-55.19"/>
<text text-anchor="middle" x="1111" y="-76.48" font-family="Helvetica,sans-Serif" font-size="10.00"> SampleManager</text>
</g>
<!-- Node37 -->
<g id="node37" class="node">
<title>Node37</title>
<g id="a_node37"><a xlink:title=" ">
<polygon fill="white" stroke="#666666" points="979.5,-40.48 852.5,-40.48 852.5,-10.48 979.5,-10.48 979.5,-40.48"/>
<text text-anchor="start" x="860.5" y="-28.48" font-family="Helvetica,sans-Serif" font-size="10.00">std::unordered_map</text>
<text text-anchor="middle" x="916" y="-17.48" font-family="Helvetica,sans-Serif" font-size="10.00">&lt; std::string, double &gt;</text>
</a>
</g>
</g>
<!-- Node37&#45;&gt;Node1 -->
<g id="edge44" class="edge">
<title>Node37&#45;&gt;Node1</title>
<path fill="none" stroke="#9a32cd" stroke-dasharray="5,2" d="M982.15,-8.48C1043.03,3.16 1132.63,8.75 1188,-40.48 1248.43,-94.21 1256.37,-373.47 1257.36,-429.63"/>
<polygon fill="#9a32cd" stroke="#9a32cd" points="981.37,-5.06 972.26,-10.47 982.75,-11.93 981.37,-5.06"/>
<text text-anchor="middle" x="1111" y="-43.48" font-family="Helvetica,sans-Serif" font-size="10.00"> _modeNomWeightMap</text>
</g>
</g>
</svg>
