<?xml version="1.0" encoding="UTF-8" standalone="no"?>
<!DOCTYPE svg PUBLIC "-//W3C//DTD SVG 1.1//EN"
 "http://www.w3.org/Graphics/SVG/1.1/DTD/svg11.dtd">
<!-- Generated by graphviz version 2.43.0 (0)
 -->
<!-- Title: MCMCProcessor Pages: 1 -->
<!--zoomable 772 -->
<svg id="main" version="1.1" xmlns="http://www.w3.org/2000/svg" xmlns:xlink="http://www.w3.org/1999/xlink" xml:space="preserve" onload="init(evt)">
<style type="text/css"><![CDATA[
.edge:hover path { stroke: red; }
.edge:hover polygon { stroke: red; fill: red; }
]]></style>
<script type="text/javascript"><![CDATA[
var edges = document.getElementsByTagName('g');
if (edges && edges.length) {
  for (var i=0;i<edges.length;i++) {
    if (edges[i].id.substr(0,4)=='edge') {
      edges[i].setAttribute('class','edge');
    }
  }
}
]]></script>
        <defs>
                <circle id="rim" cx="0" cy="0" r="7"/>
                <circle id="rim2" cx="0" cy="0" r="3.5"/>
                <g id="zoomPlus">
                        <use xlink:href="#rim" fill="#404040">
                                <set attributeName="fill" to="#808080" begin="zoomplus.mouseover" end="zoomplus.mouseout"/>
                        </use>
                        <path d="M-4,0h8M0,-4v8" fill="none" stroke="white" stroke-width="1.5" pointer-events="none"/>
                </g>
                <g id="zoomMin">
                        <use xlink:href="#rim" fill="#404040">
                                <set attributeName="fill" to="#808080" begin="zoomminus.mouseover" end="zoomminus.mouseout"/>
                        </use>
                        <path d="M-4,0h8" fill="none" stroke="white" stroke-width="1.5" pointer-events="none"/>
                </g>
                <g id="dirArrow">
                        <path fill="none" stroke="white" stroke-width="1.5" d="M0,-3.0v7 M-2.5,-0.5L0,-3.0L2.5,-0.5"/>
                </g>
               <g id="resetDef">
                       <use xlink:href="#rim2" fill="#404040">
                               <set attributeName="fill" to="#808080" begin="reset.mouseover" end="reset.mouseout"/>
                       </use>
               </g>
        </defs>

<script type="text/javascript">
var viewWidth = 543;
var viewHeight = 772;
var sectionId = 'dynsection-1';
</script>
<script xlink:href="svgpan.js"/>
<svg id="graph" class="graph">
<g id="viewport">
<title>MCMCProcessor</title>
<!-- Node1 -->
<g id="node1" class="node">
<title>Node1</title>
<g id="a_node1"><a xlink:title="Class responsible for processing MCMC chains, performing diagnostics, generating plots,...">
<polygon fill="#999999" stroke="#666666" points="535,-338.86 440,-338.86 440,-319.86 535,-319.86 535,-338.86"/>
<text text-anchor="middle" x="487.5" y="-326.86" font-family="Helvetica,sans-Serif" font-size="10.00">MCMCProcessor</text>
</a>
</g>
</g>
<!-- Node2 -->
<g id="node2" class="node">
<title>Node2</title>
<g id="a_node2"><a xlink:title=" ">
<polygon fill="white" stroke="#666666" points="258,-701.86 193,-701.86 193,-682.86 258,-682.86 258,-701.86"/>
<text text-anchor="middle" x="225.5" y="-689.86" font-family="Helvetica,sans-Serif" font-size="10.00">std::string</text>
</a>
</g>
</g>
<!-- Node2&#45;&gt;Node1 -->
<g id="edge1" class="edge">
<title>Node2&#45;&gt;Node1</title>
<path fill="none" stroke="#9a32cd" stroke-dasharray="5,2" d="M268.48,-698.66C312.71,-702.73 381.44,-701.36 422,-662.36 470.28,-615.93 483.69,-389.04 486.07,-339.1"/>
<polygon fill="#9a32cd" stroke="#9a32cd" points="268.66,-695.16 258.35,-697.59 267.92,-702.12 268.66,-695.16"/>
<text text-anchor="middle" x="375" y="-756.36" font-family="Helvetica,sans-Serif" font-size="10.00"> MCMCFile</text>
<text text-anchor="middle" x="375" y="-745.36" font-family="Helvetica,sans-Serif" font-size="10.00">OutputName</text>
<text text-anchor="middle" x="375" y="-734.36" font-family="Helvetica,sans-Serif" font-size="10.00">OutputSuffix</text>
<text text-anchor="middle" x="375" y="-723.36" font-family="Helvetica,sans-Serif" font-size="10.00">Posterior1DCut</text>
<text text-anchor="middle" x="375" y="-712.36" font-family="Helvetica,sans-Serif" font-size="10.00">ReweightName</text>
<text text-anchor="middle" x="375" y="-701.36" font-family="Helvetica,sans-Serif" font-size="10.00">StepCut</text>
</g>
<!-- Node3 -->
<g id="node3" class="node">
<title>Node3</title>
<g id="a_node3"><a xlink:title=" ">
<polygon fill="white" stroke="#666666" points="104,-707.36 0,-707.36 0,-677.36 104,-677.36 104,-707.36"/>
<text text-anchor="start" x="8" y="-695.36" font-family="Helvetica,sans-Serif" font-size="10.00">std::basic_string&lt;</text>
<text text-anchor="middle" x="52" y="-684.36" font-family="Helvetica,sans-Serif" font-size="10.00"> Char &gt;</text>
</a>
</g>
</g>
<!-- Node3&#45;&gt;Node2 -->
<g id="edge2" class="edge">
<title>Node3&#45;&gt;Node2</title>
<path fill="none" stroke="#63b8ff" d="M114.78,-692.36C141.2,-692.36 170.92,-692.36 192.76,-692.36"/>
<polygon fill="#63b8ff" stroke="#63b8ff" points="114.46,-688.86 104.46,-692.36 114.46,-695.86 114.46,-688.86"/>
</g>
<!-- Node4 -->
<g id="node4" class="node">
<title>Node4</title>
<g id="a_node4"><a xlink:title=" ">
<polygon fill="white" stroke="#666666" points="291,-664.36 160,-664.36 160,-634.36 291,-634.36 291,-664.36"/>
<text text-anchor="start" x="168" y="-652.36" font-family="Helvetica,sans-Serif" font-size="10.00">std::vector&lt; std::vector</text>
<text text-anchor="middle" x="225.5" y="-641.36" font-family="Helvetica,sans-Serif" font-size="10.00">&lt; std::string &gt; &gt;</text>
</a>
</g>
</g>
<!-- Node4&#45;&gt;Node1 -->
<g id="edge3" class="edge">
<title>Node4&#45;&gt;Node1</title>
<path fill="none" stroke="#9a32cd" stroke-dasharray="5,2" d="M301.05,-648.92C348.6,-647.04 404.48,-641.33 422,-625.36 465.92,-585.32 482.56,-385.29 485.86,-338.95"/>
<polygon fill="#9a32cd" stroke="#9a32cd" points="300.92,-645.43 291.04,-649.27 301.16,-652.42 300.92,-645.43"/>
<text text-anchor="middle" x="375" y="-650.36" font-family="Helvetica,sans-Serif" font-size="10.00"> CovPos</text>
</g>
<!-- Node5 -->
<g id="node5" class="node">
<title>Node5</title>
<g id="a_node5"><a xlink:title=" ">
<polygon fill="white" stroke="#666666" points="295.5,-576.86 155.5,-576.86 155.5,-557.86 295.5,-557.86 295.5,-576.86"/>
<text text-anchor="middle" x="225.5" y="-564.86" font-family="Helvetica,sans-Serif" font-size="10.00">std::vector&lt; std::string &gt;</text>
</a>
</g>
</g>
<!-- Node5&#45;&gt;Node1 -->
<g id="edge4" class="edge">
<title>Node5&#45;&gt;Node1</title>
<path fill="none" stroke="#9a32cd" stroke-dasharray="5,2" d="M305.84,-559.19C355.97,-553.34 412.95,-545.16 422,-537.36 483.87,-484.06 487.25,-372.63 486.8,-339.1"/>
<polygon fill="#9a32cd" stroke="#9a32cd" points="305.13,-555.75 295.6,-560.37 305.93,-562.7 305.13,-555.75"/>
<text text-anchor="middle" x="375" y="-613.36" font-family="Helvetica,sans-Serif" font-size="10.00"> CovNamePos</text>
<text text-anchor="middle" x="375" y="-602.36" font-family="Helvetica,sans-Serif" font-size="10.00">ExcludedGroups</text>
<text text-anchor="middle" x="375" y="-591.36" font-family="Helvetica,sans-Serif" font-size="10.00">ExcludedNames</text>
<text text-anchor="middle" x="375" y="-580.36" font-family="Helvetica,sans-Serif" font-size="10.00">ExcludedTypes</text>
<text text-anchor="middle" x="375" y="-569.36" font-family="Helvetica,sans-Serif" font-size="10.00">NDSamplesNames</text>
<text text-anchor="middle" x="375" y="-558.36" font-family="Helvetica,sans-Serif" font-size="10.00">ParameterGroup</text>
</g>
<!-- Node6 -->
<g id="node6" class="node">
<title>Node6</title>
<g id="a_node6"><a xlink:title=" ">
<polygon fill="white" stroke="#666666" points="281.5,-539.36 169.5,-539.36 169.5,-509.36 281.5,-509.36 281.5,-539.36"/>
<text text-anchor="start" x="177.5" y="-527.36" font-family="Helvetica,sans-Serif" font-size="10.00">std::vector&lt; YAML::</text>
<text text-anchor="middle" x="225.5" y="-516.36" font-family="Helvetica,sans-Serif" font-size="10.00">Node &gt;</text>
</a>
</g>
</g>
<!-- Node6&#45;&gt;Node1 -->
<g id="edge5" class="edge">
<title>Node6&#45;&gt;Node1</title>
<path fill="none" stroke="#9a32cd" stroke-dasharray="5,2" d="M291.83,-524.93C340.63,-524.05 402.18,-519.74 422,-504.36 476.49,-462.09 484.96,-369.01 486.26,-338.94"/>
<polygon fill="#9a32cd" stroke="#9a32cd" points="291.58,-521.44 281.63,-525.07 291.67,-528.43 291.58,-521.44"/>
<text text-anchor="middle" x="375" y="-525.36" font-family="Helvetica,sans-Serif" font-size="10.00"> CovConfig</text>
</g>
<!-- Node7 -->
<g id="node7" class="node">
<title>Node7</title>
<g id="a_node7"><a xlink:title=" ">
<polygon fill="white" stroke="#666666" points="288,-487.86 163,-487.86 163,-468.86 288,-468.86 288,-487.86"/>
<text text-anchor="middle" x="225.5" y="-475.86" font-family="Helvetica,sans-Serif" font-size="10.00">std::vector&lt; TString &gt;</text>
</a>
</g>
</g>
<!-- Node7&#45;&gt;Node1 -->
<g id="edge6" class="edge">
<title>Node7&#45;&gt;Node1</title>
<path fill="none" stroke="#9a32cd" stroke-dasharray="5,2" d="M298.69,-473.96C345.92,-469.84 402.38,-462.17 422,-448.36 461.01,-420.91 478.71,-362.17 484.37,-339.02"/>
<polygon fill="#9a32cd" stroke="#9a32cd" points="298.14,-470.5 288.46,-474.81 298.72,-477.47 298.14,-470.5"/>
<text text-anchor="middle" x="375" y="-495.36" font-family="Helvetica,sans-Serif" font-size="10.00"> BranchNames</text>
<text text-anchor="middle" x="375" y="-484.36" font-family="Helvetica,sans-Serif" font-size="10.00">SampleName_v</text>
<text text-anchor="middle" x="375" y="-473.36" font-family="Helvetica,sans-Serif" font-size="10.00">SystName_v</text>
</g>
<!-- Node8 -->
<g id="node8" class="node">
<title>Node8</title>
<g id="a_node8"><a xlink:title=" ">
<polygon fill="white" stroke="#666666" points="281.5,-450.86 169.5,-450.86 169.5,-431.86 281.5,-431.86 281.5,-450.86"/>
<text text-anchor="middle" x="225.5" y="-438.86" font-family="Helvetica,sans-Serif" font-size="10.00">std::vector&lt; bool &gt;</text>
</a>
</g>
</g>
<!-- Node8&#45;&gt;Node1 -->
<g id="edge7" class="edge">
<title>Node8&#45;&gt;Node1</title>
<path fill="none" stroke="#9a32cd" stroke-dasharray="5,2" d="M291.69,-437.3C339.75,-433.34 400.38,-426 422,-413.36 452.63,-395.45 473.74,-356.8 482.27,-338.86"/>
<polygon fill="#9a32cd" stroke="#9a32cd" points="291.34,-433.82 281.65,-438.1 291.89,-440.8 291.34,-433.82"/>
<text text-anchor="middle" x="375" y="-436.36" font-family="Helvetica,sans-Serif" font-size="10.00"> IamVaried</text>
</g>
<!-- Node9 -->
<g id="node9" class="node">
<title>Node9</title>
<g id="a_node9"><a xlink:title=" ">
<polygon fill="white" stroke="#666666" points="291,-413.36 160,-413.36 160,-383.36 291,-383.36 291,-413.36"/>
<text text-anchor="start" x="168" y="-401.36" font-family="Helvetica,sans-Serif" font-size="10.00">std::vector&lt; std::vector</text>
<text text-anchor="middle" x="225.5" y="-390.36" font-family="Helvetica,sans-Serif" font-size="10.00">&lt; TString &gt; &gt;</text>
</a>
</g>
</g>
<!-- Node9&#45;&gt;Node1 -->
<g id="edge8" class="edge">
<title>Node9&#45;&gt;Node1</title>
<path fill="none" stroke="#9a32cd" stroke-dasharray="5,2" d="M301.4,-400.14C338.77,-398.7 384,-393.36 422,-378.36 444.24,-369.59 465.38,-350.86 477.08,-339.27"/>
<polygon fill="#9a32cd" stroke="#9a32cd" points="300.97,-396.65 291.08,-400.45 301.18,-403.65 300.97,-396.65"/>
<text text-anchor="middle" x="375" y="-401.36" font-family="Helvetica,sans-Serif" font-size="10.00"> ParamNames</text>
</g>
<!-- Node10 -->
<g id="node10" class="node">
<title>Node10</title>
<g id="a_node10"><a xlink:title=" ">
<polygon fill="white" stroke="#666666" points="291,-365.36 160,-365.36 160,-335.36 291,-335.36 291,-365.36"/>
<text text-anchor="start" x="168" y="-353.36" font-family="Helvetica,sans-Serif" font-size="10.00">std::vector&lt; std::vector</text>
<text text-anchor="middle" x="225.5" y="-342.36" font-family="Helvetica,sans-Serif" font-size="10.00">&lt; double &gt; &gt;</text>
</a>
</g>
</g>
<!-- Node10&#45;&gt;Node1 -->
<g id="edge9" class="edge">
<title>Node10&#45;&gt;Node1</title>
<path fill="none" stroke="#9a32cd" stroke-dasharray="5,2" d="M301.33,-344.32C346,-340.71 401.33,-336.24 439.82,-333.13"/>
<polygon fill="#9a32cd" stroke="#9a32cd" points="300.79,-340.85 291.1,-345.14 301.35,-347.83 300.79,-340.85"/>
<text text-anchor="middle" x="375" y="-366.36" font-family="Helvetica,sans-Serif" font-size="10.00"> ParamCentral</text>
<text text-anchor="middle" x="375" y="-355.36" font-family="Helvetica,sans-Serif" font-size="10.00">ParamErrors</text>
<text text-anchor="middle" x="375" y="-344.36" font-family="Helvetica,sans-Serif" font-size="10.00">ParamNom</text>
</g>
<!-- Node11 -->
<g id="node11" class="node">
<title>Node11</title>
<g id="a_node11"><a xlink:title=" ">
<polygon fill="white" stroke="#666666" points="291,-317.36 160,-317.36 160,-287.36 291,-287.36 291,-317.36"/>
<text text-anchor="start" x="168" y="-305.36" font-family="Helvetica,sans-Serif" font-size="10.00">std::vector&lt; std::vector</text>
<text text-anchor="middle" x="225.5" y="-294.36" font-family="Helvetica,sans-Serif" font-size="10.00">&lt; bool &gt; &gt;</text>
</a>
</g>
</g>
<!-- Node11&#45;&gt;Node1 -->
<g id="edge10" class="edge">
<title>Node11&#45;&gt;Node1</title>
<path fill="none" stroke="#9a32cd" stroke-dasharray="5,2" d="M301.39,-307.69C337.85,-310.59 382.27,-314.56 422,-319.36 427.74,-320.05 433.75,-320.87 439.7,-321.73"/>
<polygon fill="#9a32cd" stroke="#9a32cd" points="301.58,-304.19 291.33,-306.9 301.03,-311.17 301.58,-304.19"/>
<text text-anchor="middle" x="375" y="-322.36" font-family="Helvetica,sans-Serif" font-size="10.00"> ParamFlat</text>
</g>
<!-- Node12 -->
<g id="node12" class="node">
<title>Node12</title>
<g id="a_node12"><a xlink:title=" ">
<polygon fill="white" stroke="#666666" points="277.5,-268.86 173.5,-268.86 173.5,-249.86 277.5,-249.86 277.5,-268.86"/>
<text text-anchor="middle" x="225.5" y="-256.86" font-family="Helvetica,sans-Serif" font-size="10.00">std::vector&lt; int &gt;</text>
</a>
</g>
</g>
<!-- Node12&#45;&gt;Node1 -->
<g id="edge11" class="edge">
<title>Node12&#45;&gt;Node1</title>
<path fill="none" stroke="#9a32cd" stroke-dasharray="5,2" d="M287.63,-253.49C327.39,-252.03 379.54,-254.66 422,-272.36 446.55,-282.6 468.14,-306.16 479.02,-319.56"/>
<polygon fill="#9a32cd" stroke="#9a32cd" points="287.37,-250 277.54,-253.96 287.7,-256.99 287.37,-250"/>
<text text-anchor="middle" x="375" y="-297.36" font-family="Helvetica,sans-Serif" font-size="10.00"> NDSamplesBins</text>
<text text-anchor="middle" x="375" y="-286.36" font-family="Helvetica,sans-Serif" font-size="10.00">ParamTypeStartPos</text>
<text text-anchor="middle" x="375" y="-275.36" font-family="Helvetica,sans-Serif" font-size="10.00">nParam</text>
</g>
<!-- Node13 -->
<g id="node13" class="node">
<title>Node13</title>
<g id="a_node13"><a xlink:title=" ">
<polygon fill="white" stroke="#666666" points="310,-231.86 141,-231.86 141,-212.86 310,-212.86 310,-231.86"/>
<text text-anchor="middle" x="225.5" y="-219.86" font-family="Helvetica,sans-Serif" font-size="10.00">std::vector&lt; ParameterEnum &gt;</text>
</a>
</g>
</g>
<!-- Node13&#45;&gt;Node1 -->
<g id="edge12" class="edge">
<title>Node13&#45;&gt;Node1</title>
<path fill="none" stroke="#9a32cd" stroke-dasharray="5,2" d="M320.46,-214.08C354.36,-215.08 391.7,-221.1 422,-238.36 454.98,-257.15 475.27,-300.51 482.97,-319.8"/>
<polygon fill="#9a32cd" stroke="#9a32cd" points="320.11,-210.58 310.06,-213.93 320,-217.58 320.11,-210.58"/>
<text text-anchor="middle" x="375" y="-241.36" font-family="Helvetica,sans-Serif" font-size="10.00"> ParamType</text>
</g>
<!-- Node14 -->
<g id="node14" class="node">
<title>Node14</title>
<g id="a_node14"><a xlink:title=" ">
<polygon fill="white" stroke="#666666" points="290.5,-194.86 160.5,-194.86 160.5,-175.86 290.5,-175.86 290.5,-194.86"/>
<text text-anchor="middle" x="225.5" y="-182.86" font-family="Helvetica,sans-Serif" font-size="10.00">std::unique_ptr&lt; TF1 &gt;</text>
</a>
</g>
</g>
<!-- Node14&#45;&gt;Node1 -->
<g id="edge13" class="edge">
<title>Node14&#45;&gt;Node1</title>
<path fill="none" stroke="#9a32cd" stroke-dasharray="5,2" d="M288.54,-174.82C329.74,-171.2 383.18,-173.32 422,-199.36 465.1,-228.27 480.6,-294.83 485.01,-319.73"/>
<polygon fill="#9a32cd" stroke="#9a32cd" points="287.94,-171.36 278.34,-175.85 288.64,-178.33 287.94,-171.36"/>
<text text-anchor="middle" x="375" y="-202.36" font-family="Helvetica,sans-Serif" font-size="10.00"> Gauss</text>
</g>
<!-- Node15 -->
<g id="node15" class="node">
<title>Node15</title>
<g id="a_node15"><a xlink:title=" ">
<polygon fill="white" stroke="#666666" points="302,-157.86 149,-157.86 149,-138.86 302,-138.86 302,-157.86"/>
<text text-anchor="middle" x="225.5" y="-145.86" font-family="Helvetica,sans-Serif" font-size="10.00">std::unique_ptr&lt; TCanvas &gt;</text>
</a>
</g>
</g>
<!-- Node15&#45;&gt;Node1 -->
<g id="edge14" class="edge">
<title>Node15&#45;&gt;Node1</title>
<path fill="none" stroke="#9a32cd" stroke-dasharray="5,2" d="M275.4,-137.06C318.2,-130.13 379.94,-127.66 422,-158.36 476.33,-198.02 484.91,-289.27 486.25,-319.46"/>
<polygon fill="#9a32cd" stroke="#9a32cd" points="274.74,-133.62 265.49,-138.79 275.94,-140.51 274.74,-133.62"/>
<text text-anchor="middle" x="375" y="-161.36" font-family="Helvetica,sans-Serif" font-size="10.00"> Posterior</text>
</g>
<!-- Node16 -->
<g id="node16" class="node">
<title>Node16</title>
<g id="a_node16"><a xlink:title=" ">
<polygon fill="white" stroke="#666666" points="288.5,-120.86 162.5,-120.86 162.5,-101.86 288.5,-101.86 288.5,-120.86"/>
<text text-anchor="middle" x="225.5" y="-108.86" font-family="Helvetica,sans-Serif" font-size="10.00">std::vector&lt; TH1D * &gt;</text>
</a>
</g>
</g>
<!-- Node16&#45;&gt;Node1 -->
<g id="edge15" class="edge">
<title>Node16&#45;&gt;Node1</title>
<path fill="none" stroke="#9a32cd" stroke-dasharray="5,2" d="M268.91,-99.6C312,-90.38 378.43,-84.03 422,-117.36 488.3,-168.09 488.55,-285.14 487.08,-319.63"/>
<polygon fill="#9a32cd" stroke="#9a32cd" points="267.99,-96.22 259.02,-101.85 269.55,-103.04 267.99,-96.22"/>
<text text-anchor="middle" x="375" y="-120.36" font-family="Helvetica,sans-Serif" font-size="10.00"> hpost</text>
</g>
<!-- Node17 -->
<g id="node17" class="node">
<title>Node17</title>
<g id="a_node17"><a xlink:title=" ">
<polygon fill="white" stroke="#666666" points="291,-83.36 160,-83.36 160,-53.36 291,-53.36 291,-83.36"/>
<text text-anchor="start" x="168" y="-71.36" font-family="Helvetica,sans-Serif" font-size="10.00">std::vector&lt; std::vector</text>
<text text-anchor="middle" x="225.5" y="-60.36" font-family="Helvetica,sans-Serif" font-size="10.00">&lt; TH2D * &gt; &gt;</text>
</a>
</g>
</g>
<!-- Node17&#45;&gt;Node1 -->
<g id="edge16" class="edge">
<title>Node17&#45;&gt;Node1</title>
<path fill="none" stroke="#9a32cd" stroke-dasharray="5,2" d="M297.91,-51.95C338.53,-46.95 387.94,-48.76 422,-76.36 461.35,-108.25 481.15,-277.3 485.55,-319.71"/>
<polygon fill="#9a32cd" stroke="#9a32cd" points="297.21,-48.52 287.79,-53.36 298.17,-55.45 297.21,-48.52"/>
<text text-anchor="middle" x="375" y="-79.36" font-family="Helvetica,sans-Serif" font-size="10.00"> hpost2D</text>
</g>
<!-- Node18 -->
<g id="node18" class="node">
<title>Node18</title>
<g id="a_node18"><a xlink:title=" ">
<polygon fill="white" stroke="#666666" points="295,-33.86 156,-33.86 156,-14.86 295,-14.86 295,-33.86"/>
<text text-anchor="middle" x="225.5" y="-21.86" font-family="Helvetica,sans-Serif" font-size="10.00">std::unique_ptr&lt; TH2D &gt;</text>
</a>
</g>
</g>
<!-- Node18&#45;&gt;Node1 -->
<g id="edge17" class="edge">
<title>Node18&#45;&gt;Node1</title>
<path fill="none" stroke="#9a32cd" stroke-dasharray="5,2" d="M263.13,-11.94C306.16,0.13 377.33,11.85 422,-24.36 469.61,-62.96 483.46,-272.01 486.02,-319.68"/>
<polygon fill="#9a32cd" stroke="#9a32cd" points="261.96,-8.63 253.35,-14.82 263.94,-15.35 261.96,-8.63"/>
<text text-anchor="middle" x="375" y="-38.36" font-family="Helvetica,sans-Serif" font-size="10.00"> hviolin</text>
<text text-anchor="middle" x="375" y="-27.36" font-family="Helvetica,sans-Serif" font-size="10.00">hviolin_prior</text>
</g>
</g>
</svg>
        <g id="navigator" transform="translate(0 0)" fill="#404254">
                <rect fill="#f2f5e9" fill-opacity="0.5" stroke="#606060" stroke-width=".5" x="0" y="0" width="60" height="60"/>
                <use id="zoomplus" xlink:href="#zoomPlus" x="17" y="9" onmousedown="handleZoom(evt,'in')"/>
                <use id="zoomminus" xlink:href="#zoomMin" x="42" y="9" onmousedown="handleZoom(evt,'out')"/>
                <use id="reset" xlink:href="#resetDef" x="30" y="36" onmousedown="handleReset()"/>
                <g id="arrowUp" xlink:href="#dirArrow" transform="translate(30 24)" onmousedown="handlePan(0,-1)">
                  <use xlink:href="#rim" fill="#404040">
                        <set attributeName="fill" to="#808080" begin="arrowUp.mouseover" end="arrowUp.mouseout"/>
                  </use>
                  <path fill="none" stroke="white" stroke-width="1.5" d="M0,-3.0v7 M-2.5,-0.5L0,-3.0L2.5,-0.5"/>
                </g>
                <g id="arrowRight" xlink:href="#dirArrow" transform="rotate(90) translate(36 -43)" onmousedown="handlePan(1,0)">
                  <use xlink:href="#rim" fill="#404040">
                        <set attributeName="fill" to="#808080" begin="arrowRight.mouseover" end="arrowRight.mouseout"/>
                  </use>
                  <path fill="none" stroke="white" stroke-width="1.5" d="M0,-3.0v7 M-2.5,-0.5L0,-3.0L2.5,-0.5"/>
                </g>
                <g id="arrowDown" xlink:href="#dirArrow" transform="rotate(180) translate(-30 -48)" onmousedown="handlePan(0,1)">
                  <use xlink:href="#rim" fill="#404040">
                        <set attributeName="fill" to="#808080" begin="arrowDown.mouseover" end="arrowDown.mouseout"/>
                  </use>
                  <path fill="none" stroke="white" stroke-width="1.5" d="M0,-3.0v7 M-2.5,-0.5L0,-3.0L2.5,-0.5"/>
                </g>
                <g id="arrowLeft" xlink:href="#dirArrow" transform="rotate(270) translate(-36 17)" onmousedown="handlePan(-1,0)">
                  <use xlink:href="#rim" fill="#404040">
                        <set attributeName="fill" to="#808080" begin="arrowLeft.mouseover" end="arrowLeft.mouseout"/>
                  </use>
                  <path fill="none" stroke="white" stroke-width="1.5" d="M0,-3.0v7 M-2.5,-0.5L0,-3.0L2.5,-0.5"/>
                </g>
        </g>
        <svg viewBox="0 0 15 15" width="100%" height="30px" preserveAspectRatio="xMaxYMin meet">
         <g id="arrow_out" transform="scale(0.3 0.3)">
          <a xlink:href="classMCMCProcessor__coll__graph_org.svg" target="_base">
           <rect id="button" ry="5" rx="5" y="6" x="6" height="38" width="38"
                fill="#f2f5e9" fill-opacity="0.5" stroke="#606060" stroke-width="1.0"/>
           <path id="arrow"
             d="M 11.500037,31.436501 C 11.940474,20.09759 22.043105,11.32322 32.158766,21.979434 L 37.068811,17.246167 C 37.068811,17.246167 37.088388,32 37.088388,32 L 22.160133,31.978069 C 22.160133,31.978069 26.997745,27.140456 26.997745,27.140456 C 18.528582,18.264221 13.291696,25.230495 11.500037,31.436501 z"
             style="fill:#404040;"/>
          </a>
         </g>
        </svg>
</svg>
