<?xml version="1.0" encoding="UTF-8" standalone="no"?>
<!DOCTYPE svg PUBLIC "-//W3C//DTD SVG 1.1//EN"
 "http://www.w3.org/Graphics/SVG/1.1/DTD/svg11.dtd">
<!-- Generated by graphviz version 2.43.0 (0)
 -->
<!-- Title: DelayedMR2T2 Pages: 1 -->
<!--zoomable 317 -->
<svg id="main" version="1.1" xmlns="http://www.w3.org/2000/svg" xmlns:xlink="http://www.w3.org/1999/xlink" xml:space="preserve" onload="init(evt)">
<style type="text/css"><![CDATA[
.edge:hover path { stroke: red; }
.edge:hover polygon { stroke: red; fill: red; }
]]></style>
<script type="text/javascript"><![CDATA[
var edges = document.getElementsByTagName('g');
if (edges && edges.length) {
  for (var i=0;i<edges.length;i++) {
    if (edges[i].id.substr(0,4)=='edge') {
      edges[i].setAttribute('class','edge');
    }
  }
}
]]></script>
        <defs>
                <circle id="rim" cx="0" cy="0" r="7"/>
                <circle id="rim2" cx="0" cy="0" r="3.5"/>
                <g id="zoomPlus">
                        <use xlink:href="#rim" fill="#404040">
                                <set attributeName="fill" to="#808080" begin="zoomplus.mouseover" end="zoomplus.mouseout"/>
                        </use>
                        <path d="M-4,0h8M0,-4v8" fill="none" stroke="white" stroke-width="1.5" pointer-events="none"/>
                </g>
                <g id="zoomMin">
                        <use xlink:href="#rim" fill="#404040">
                                <set attributeName="fill" to="#808080" begin="zoomminus.mouseover" end="zoomminus.mouseout"/>
                        </use>
                        <path d="M-4,0h8" fill="none" stroke="white" stroke-width="1.5" pointer-events="none"/>
                </g>
                <g id="dirArrow">
                        <path fill="none" stroke="white" stroke-width="1.5" d="M0,-3.0v7 M-2.5,-0.5L0,-3.0L2.5,-0.5"/>
                </g>
               <g id="resetDef">
                       <use xlink:href="#rim2" fill="#404040">
                               <set attributeName="fill" to="#808080" begin="reset.mouseover" end="reset.mouseout"/>
                       </use>
               </g>
        </defs>

<script type="text/javascript">
var viewWidth = 1139;
var viewHeight = 317;
var sectionId = 'dynsection-1';
</script>
<script xlink:href="svgpan.js"/>
<svg id="graph" class="graph">
<g id="viewport">
<title>DelayedMR2T2</title>
<!-- Node1 -->
<g id="node1" class="node">
<title>Node1</title>
<g id="a_node1"><a xlink:title="Implementation of delayed rejection for MR2T2.">
<polygon fill="#999999" stroke="#666666" points="1131,-256 1040,-256 1040,-237 1131,-237 1131,-256"/>
<text text-anchor="middle" x="1085.5" y="-244" font-family="Helvetica,sans-Serif" font-size="10.00">DelayedMR2T2</text>
</a>
</g>
</g>
<!-- Node2 -->
<g id="node2" class="node">
<title>Node2</title>
<g id="a_node2"><a xlink:href="classMR2T2.html" target="_top" xlink:title="MCMC algorithm implementing the Metropolis–Rosenbluth–Rosenbluth–Teller–Teller (MR T ) method.">
<polygon fill="white" stroke="#666666" points="873.5,-256 823.5,-256 823.5,-237 873.5,-237 873.5,-256"/>
<text text-anchor="middle" x="848.5" y="-244" font-family="Helvetica,sans-Serif" font-size="10.00">MR2T2</text>
</a>
</g>
</g>
<!-- Node2&#45;&gt;Node1 -->
<g id="edge1" class="edge">
<title>Node2&#45;&gt;Node1</title>
<path fill="none" stroke="#63b8ff" d="M883.85,-246.5C925.03,-246.5 994.16,-246.5 1039.56,-246.5"/>
<polygon fill="#63b8ff" stroke="#63b8ff" points="883.76,-243 873.76,-246.5 883.76,-250 883.76,-243"/>
</g>
<!-- Node3 -->
<g id="node3" class="node">
<title>Node3</title>
<g id="a_node3"><a xlink:href="classMCMCBase.html" target="_top" xlink:title="Base class for MCMC fitting algorithms.">
<polygon fill="white" stroke="#666666" points="740.5,-239 668.5,-239 668.5,-220 740.5,-220 740.5,-239"/>
<text text-anchor="middle" x="704.5" y="-227" font-family="Helvetica,sans-Serif" font-size="10.00">MCMCBase</text>
</a>
</g>
</g>
<!-- Node3&#45;&gt;Node2 -->
<g id="edge2" class="edge">
<title>Node3&#45;&gt;Node2</title>
<path fill="none" stroke="#63b8ff" d="M750.63,-234.9C774.8,-237.8 803.59,-241.24 823.47,-243.62"/>
<polygon fill="#63b8ff" stroke="#63b8ff" points="750.95,-231.42 740.6,-233.7 750.11,-238.37 750.95,-231.42"/>
</g>
<!-- Node4 -->
<g id="node4" class="node">
<title>Node4</title>
<g id="a_node4"><a xlink:href="classFitterBase.html" target="_top" xlink:title="Base class for implementing fitting algorithms.">
<polygon fill="white" stroke="#666666" points="626,-172 560,-172 560,-153 626,-153 626,-172"/>
<text text-anchor="middle" x="593" y="-160" font-family="Helvetica,sans-Serif" font-size="10.00">FitterBase</text>
</a>
</g>
</g>
<!-- Node4&#45;&gt;Node3 -->
<g id="edge3" class="edge">
<title>Node4&#45;&gt;Node3</title>
<path fill="none" stroke="#63b8ff" d="M618.45,-177.46C639.66,-190.44 669.72,-208.83 687.84,-219.92"/>
<polygon fill="#63b8ff" stroke="#63b8ff" points="620.05,-174.33 609.69,-172.1 616.39,-180.3 620.05,-174.33"/>
</g>
<!-- Node5 -->
<g id="node5" class="node">
<title>Node5</title>
<g id="a_node5"><a xlink:href="classmanager.html" target="_top" xlink:title="The manager class is responsible for managing configurations and settings.">
<polygon fill="white" stroke="#666666" points="406.5,-191 346.5,-191 346.5,-172 406.5,-172 406.5,-191"/>
<text text-anchor="middle" x="376.5" y="-179" font-family="Helvetica,sans-Serif" font-size="10.00">manager</text>
</a>
</g>
</g>
<!-- Node5&#45;&gt;Node4 -->
<g id="edge4" class="edge">
<title>Node5&#45;&gt;Node4</title>
<path fill="none" stroke="#9a32cd" stroke-dasharray="5,2" d="M417.07,-178C458.17,-174.35 521.71,-168.73 559.83,-165.35"/>
<polygon fill="#9a32cd" stroke="#9a32cd" points="416.53,-174.53 406.88,-178.9 417.15,-181.5 416.53,-174.53"/>
<text text-anchor="middle" x="510.5" y="-175.5" font-family="Helvetica,sans-Serif" font-size="10.00"> fitMan</text>
</g>
<!-- Node6 -->
<g id="node6" class="node">
<title>Node6</title>
<g id="a_node6"><a xlink:title=" ">
<polygon fill="white" stroke="#666666" points="206,-214 141,-214 141,-195 206,-195 206,-214"/>
<text text-anchor="middle" x="173.5" y="-202" font-family="Helvetica,sans-Serif" font-size="10.00">std::string</text>
</a>
</g>
</g>
<!-- Node6&#45;&gt;Node4 -->
<g id="edge12" class="edge">
<title>Node6&#45;&gt;Node4</title>
<path fill="none" stroke="#9a32cd" stroke-dasharray="5,2" d="M216.2,-212.63C218.83,-212.97 221.45,-213.27 224,-213.5 246.13,-215.5 251.79,-214.33 274,-213.5 393.59,-209.03 427.87,-223.48 542,-187.5 553.85,-183.77 566.35,-177.52 575.89,-172.2"/>
<polygon fill="#9a32cd" stroke="#9a32cd" points="216.48,-209.13 206.07,-211.11 215.44,-216.06 216.48,-209.13"/>
<text text-anchor="middle" x="376.5" y="-216.5" font-family="Helvetica,sans-Serif" font-size="10.00"> AlgorithmName</text>
</g>
<!-- Node6&#45;&gt;Node5 -->
<g id="edge5" class="edge">
<title>Node6&#45;&gt;Node5</title>
<path fill="none" stroke="#9a32cd" stroke-dasharray="5,2" d="M216.32,-199.71C255.24,-195.26 312.23,-188.74 346.41,-184.83"/>
<polygon fill="#9a32cd" stroke="#9a32cd" points="215.89,-196.24 206.35,-200.86 216.68,-203.2 215.89,-196.24"/>
<text text-anchor="middle" x="249" y="-201.5" font-family="Helvetica,sans-Serif" font-size="10.00"> FileName</text>
</g>
<!-- Node7 -->
<g id="node7" class="node">
<title>Node7</title>
<g id="a_node7"><a xlink:title=" ">
<polygon fill="white" stroke="#666666" points="104,-219.5 0,-219.5 0,-189.5 104,-189.5 104,-219.5"/>
<text text-anchor="start" x="8" y="-207.5" font-family="Helvetica,sans-Serif" font-size="10.00">std::basic_string&lt;</text>
<text text-anchor="middle" x="52" y="-196.5" font-family="Helvetica,sans-Serif" font-size="10.00"> Char &gt;</text>
</a>
</g>
</g>
<!-- Node7&#45;&gt;Node6 -->
<g id="edge6" class="edge">
<title>Node7&#45;&gt;Node6</title>
<path fill="none" stroke="#63b8ff" d="M114.1,-204.5C123.41,-204.5 132.68,-204.5 141,-204.5"/>
<polygon fill="#63b8ff" stroke="#63b8ff" points="114.03,-201 104.03,-204.5 114.03,-208 114.03,-201"/>
</g>
<!-- Node8 -->
<g id="node8" class="node">
<title>Node8</title>
<g id="a_node8"><a xlink:title=" ">
<polygon fill="white" stroke="#666666" points="438.5,-292 314.5,-292 314.5,-273 438.5,-273 438.5,-292"/>
<text text-anchor="middle" x="376.5" y="-280" font-family="Helvetica,sans-Serif" font-size="10.00">std::vector&lt; double &gt;</text>
</a>
</g>
</g>
<!-- Node8&#45;&gt;Node1 -->
<g id="edge14" class="edge">
<title>Node8&#45;&gt;Node1</title>
<path fill="none" stroke="#9a32cd" stroke-dasharray="5,2" d="M448.96,-290C490.63,-293.75 544.24,-297.5 592,-297.5 592,-297.5 592,-297.5 849.5,-297.5 926.73,-297.5 1015.07,-270.87 1058.12,-256.09"/>
<polygon fill="#9a32cd" stroke="#9a32cd" points="449.19,-286.51 438.91,-289.08 448.54,-293.48 449.19,-286.51"/>
<text text-anchor="middle" x="704.5" y="-300.5" font-family="Helvetica,sans-Serif" font-size="10.00"> start_step_scale</text>
</g>
<!-- Node8&#45;&gt;Node4 -->
<g id="edge7" class="edge">
<title>Node8&#45;&gt;Node4</title>
<path fill="none" stroke="#9a32cd" stroke-dasharray="5,2" d="M438.56,-270.9C478.14,-262.5 525.31,-250.54 542,-238.5 566.08,-221.12 581.76,-188.28 588.39,-172.06"/>
<polygon fill="#9a32cd" stroke="#9a32cd" points="437.76,-267.49 428.69,-272.96 439.19,-274.34 437.76,-267.49"/>
<text text-anchor="middle" x="510.5" y="-275.5" font-family="Helvetica,sans-Serif" font-size="10.00"> sample_llh</text>
<text text-anchor="middle" x="510.5" y="-264.5" font-family="Helvetica,sans-Serif" font-size="10.00">syst_llh</text>
</g>
<!-- Node9 -->
<g id="node9" class="node">
<title>Node9</title>
<g id="a_node9"><a xlink:title=" ">
<polygon fill="white" stroke="#666666" points="454,-116.5 299,-116.5 299,-86.5 454,-86.5 454,-116.5"/>
<text text-anchor="start" x="307" y="-104.5" font-family="Helvetica,sans-Serif" font-size="10.00">std::vector&lt; SampleHandler</text>
<text text-anchor="middle" x="376.5" y="-93.5" font-family="Helvetica,sans-Serif" font-size="10.00">Base * &gt;</text>
</a>
</g>
</g>
<!-- Node9&#45;&gt;Node4 -->
<g id="edge8" class="edge">
<title>Node9&#45;&gt;Node4</title>
<path fill="none" stroke="#9a32cd" stroke-dasharray="5,2" d="M464.45,-107.77C490.08,-111.59 517.74,-117.7 542,-127.5 556.93,-133.53 571.76,-144.74 581.34,-152.85"/>
<polygon fill="#9a32cd" stroke="#9a32cd" points="464.75,-104.28 454.36,-106.37 463.79,-111.21 464.75,-104.28"/>
<text text-anchor="middle" x="510.5" y="-130.5" font-family="Helvetica,sans-Serif" font-size="10.00"> samples</text>
</g>
<!-- Node10 -->
<g id="node10" class="node">
<title>Node10</title>
<g id="a_node10"><a xlink:title=" ">
<polygon fill="white" stroke="#666666" points="460.5,-68.5 292.5,-68.5 292.5,-38.5 460.5,-38.5 460.5,-68.5"/>
<text text-anchor="start" x="300.5" y="-56.5" font-family="Helvetica,sans-Serif" font-size="10.00">std::vector&lt; ParameterHandler</text>
<text text-anchor="middle" x="376.5" y="-45.5" font-family="Helvetica,sans-Serif" font-size="10.00">Base * &gt;</text>
</a>
</g>
</g>
<!-- Node10&#45;&gt;Node4 -->
<g id="edge9" class="edge">
<title>Node10&#45;&gt;Node4</title>
<path fill="none" stroke="#9a32cd" stroke-dasharray="5,2" d="M470.47,-65.7C495.15,-71.92 520.81,-81.32 542,-95.5 563.95,-110.19 579.96,-137.86 587.38,-152.62"/>
<polygon fill="#9a32cd" stroke="#9a32cd" points="471.24,-62.29 460.7,-63.39 469.63,-69.1 471.24,-62.29"/>
<text text-anchor="middle" x="510.5" y="-98.5" font-family="Helvetica,sans-Serif" font-size="10.00"> systematics</text>
</g>
<!-- Node11 -->
<g id="node11" class="node">
<title>Node11</title>
<g id="a_node11"><a xlink:title=" ">
<polygon fill="white" stroke="#666666" points="461,-19 292,-19 292,0 461,0 461,-19"/>
<text text-anchor="middle" x="376.5" y="-7" font-family="Helvetica,sans-Serif" font-size="10.00">std::unique_ptr&lt; TStopwatch &gt;</text>
</a>
</g>
</g>
<!-- Node11&#45;&gt;Node4 -->
<g id="edge10" class="edge">
<title>Node11&#45;&gt;Node4</title>
<path fill="none" stroke="#9a32cd" stroke-dasharray="5,2" d="M471.2,-13.1C496.39,-18.02 522.12,-27.14 542,-43.5 576.96,-72.26 587.88,-129.72 590.93,-152.69"/>
<polygon fill="#9a32cd" stroke="#9a32cd" points="471.67,-9.63 461.22,-11.35 470.47,-16.52 471.67,-9.63"/>
<text text-anchor="middle" x="510.5" y="-57.5" font-family="Helvetica,sans-Serif" font-size="10.00"> clock</text>
<text text-anchor="middle" x="510.5" y="-46.5" font-family="Helvetica,sans-Serif" font-size="10.00">stepClock</text>
</g>
<!-- Node12 -->
<g id="node12" class="node">
<title>Node12</title>
<g id="a_node12"><a xlink:title=" ">
<polygon fill="white" stroke="#666666" points="458.5,-154 294.5,-154 294.5,-135 458.5,-135 458.5,-154"/>
<text text-anchor="middle" x="376.5" y="-142" font-family="Helvetica,sans-Serif" font-size="10.00">std::unique_ptr&lt; TRandom3 &gt;</text>
</a>
</g>
</g>
<!-- Node12&#45;&gt;Node4 -->
<g id="edge11" class="edge">
<title>Node12&#45;&gt;Node4</title>
<path fill="none" stroke="#9a32cd" stroke-dasharray="5,2" d="M468.76,-141.74C492.7,-142.22 518.42,-143.82 542,-147.5 549.61,-148.69 557.68,-150.74 565.06,-152.95"/>
<polygon fill="#9a32cd" stroke="#9a32cd" points="468.67,-138.24 458.62,-141.6 468.57,-145.24 468.67,-138.24"/>
<text text-anchor="middle" x="510.5" y="-150.5" font-family="Helvetica,sans-Serif" font-size="10.00"> random</text>
</g>
<!-- Node13 -->
<g id="node13" class="node">
<title>Node13</title>
<g id="a_node13"><a xlink:title=" ">
<polygon fill="white" stroke="#666666" points="914,-218.5 783,-218.5 783,-188.5 914,-188.5 914,-218.5"/>
<text text-anchor="start" x="791" y="-206.5" font-family="Helvetica,sans-Serif" font-size="10.00">std::vector&lt; std::vector</text>
<text text-anchor="middle" x="848.5" y="-195.5" font-family="Helvetica,sans-Serif" font-size="10.00">&lt; double &gt; &gt;</text>
</a>
</g>
</g>
<!-- Node13&#45;&gt;Node1 -->
<g id="edge13" class="edge">
<title>Node13&#45;&gt;Node1</title>
<path fill="none" stroke="#9a32cd" stroke-dasharray="5,2" d="M924.13,-214.37C954.57,-219.13 990.06,-225.09 1022,-231.5 1029.99,-233.1 1038.5,-235.01 1046.59,-236.92"/>
<polygon fill="#9a32cd" stroke="#9a32cd" points="924.43,-210.87 914.01,-212.8 923.36,-217.79 924.43,-210.87"/>
<text text-anchor="middle" x="977" y="-234.5" font-family="Helvetica,sans-Serif" font-size="10.00"> current_step_vals</text>
</g>
</g>
</svg>
        <g id="navigator" transform="translate(0 0)" fill="#404254">
                <rect fill="#f2f5e9" fill-opacity="0.5" stroke="#606060" stroke-width=".5" x="0" y="0" width="60" height="60"/>
                <use id="zoomplus" xlink:href="#zoomPlus" x="17" y="9" onmousedown="handleZoom(evt,'in')"/>
                <use id="zoomminus" xlink:href="#zoomMin" x="42" y="9" onmousedown="handleZoom(evt,'out')"/>
                <use id="reset" xlink:href="#resetDef" x="30" y="36" onmousedown="handleReset()"/>
                <g id="arrowUp" xlink:href="#dirArrow" transform="translate(30 24)" onmousedown="handlePan(0,-1)">
                  <use xlink:href="#rim" fill="#404040">
                        <set attributeName="fill" to="#808080" begin="arrowUp.mouseover" end="arrowUp.mouseout"/>
                  </use>
                  <path fill="none" stroke="white" stroke-width="1.5" d="M0,-3.0v7 M-2.5,-0.5L0,-3.0L2.5,-0.5"/>
                </g>
                <g id="arrowRight" xlink:href="#dirArrow" transform="rotate(90) translate(36 -43)" onmousedown="handlePan(1,0)">
                  <use xlink:href="#rim" fill="#404040">
                        <set attributeName="fill" to="#808080" begin="arrowRight.mouseover" end="arrowRight.mouseout"/>
                  </use>
                  <path fill="none" stroke="white" stroke-width="1.5" d="M0,-3.0v7 M-2.5,-0.5L0,-3.0L2.5,-0.5"/>
                </g>
                <g id="arrowDown" xlink:href="#dirArrow" transform="rotate(180) translate(-30 -48)" onmousedown="handlePan(0,1)">
                  <use xlink:href="#rim" fill="#404040">
                        <set attributeName="fill" to="#808080" begin="arrowDown.mouseover" end="arrowDown.mouseout"/>
                  </use>
                  <path fill="none" stroke="white" stroke-width="1.5" d="M0,-3.0v7 M-2.5,-0.5L0,-3.0L2.5,-0.5"/>
                </g>
                <g id="arrowLeft" xlink:href="#dirArrow" transform="rotate(270) translate(-36 17)" onmousedown="handlePan(-1,0)">
                  <use xlink:href="#rim" fill="#404040">
                        <set attributeName="fill" to="#808080" begin="arrowLeft.mouseover" end="arrowLeft.mouseout"/>
                  </use>
                  <path fill="none" stroke="white" stroke-width="1.5" d="M0,-3.0v7 M-2.5,-0.5L0,-3.0L2.5,-0.5"/>
                </g>
        </g>
        <svg viewBox="0 0 15 15" width="100%" height="30px" preserveAspectRatio="xMaxYMin meet">
         <g id="arrow_out" transform="scale(0.3 0.3)">
          <a xlink:href="classDelayedMR2T2__coll__graph_org.svg" target="_base">
           <rect id="button" ry="5" rx="5" y="6" x="6" height="38" width="38"
                fill="#f2f5e9" fill-opacity="0.5" stroke="#606060" stroke-width="1.0"/>
           <path id="arrow"
             d="M 11.500037,31.436501 C 11.940474,20.09759 22.043105,11.32322 32.158766,21.979434 L 37.068811,17.246167 C 37.068811,17.246167 37.088388,32 37.088388,32 L 22.160133,31.978069 C 22.160133,31.978069 26.997745,27.140456 26.997745,27.140456 C 18.528582,18.264221 13.291696,25.230495 11.500037,31.436501 z"
             style="fill:#404040;"/>
          </a>
         </g>
        </svg>
</svg>
