<?xml version="1.0" encoding="UTF-8" standalone="no"?>
<!DOCTYPE svg PUBLIC "-//W3C//DTD SVG 1.1//EN"
 "http://www.w3.org/Graphics/SVG/1.1/DTD/svg11.dtd">
<!-- Generated by graphviz version 2.43.0 (0)
 -->
<!-- Title: MinuitFit Pages: 1 -->
<!--zoomable 288 -->
<svg id="main" version="1.1" xmlns="http://www.w3.org/2000/svg" xmlns:xlink="http://www.w3.org/1999/xlink" xml:space="preserve" onload="init(evt)">
<style type="text/css"><![CDATA[
.edge:hover path { stroke: red; }
.edge:hover polygon { stroke: red; fill: red; }
]]></style>
<script type="text/javascript"><![CDATA[
var edges = document.getElementsByTagName('g');
if (edges && edges.length) {
  for (var i=0;i<edges.length;i++) {
    if (edges[i].id.substr(0,4)=='edge') {
      edges[i].setAttribute('class','edge');
    }
  }
}
]]></script>
        <defs>
                <circle id="rim" cx="0" cy="0" r="7"/>
                <circle id="rim2" cx="0" cy="0" r="3.5"/>
                <g id="zoomPlus">
                        <use xlink:href="#rim" fill="#404040">
                                <set attributeName="fill" to="#808080" begin="zoomplus.mouseover" end="zoomplus.mouseout"/>
                        </use>
                        <path d="M-4,0h8M0,-4v8" fill="none" stroke="white" stroke-width="1.5" pointer-events="none"/>
                </g>
                <g id="zoomMin">
                        <use xlink:href="#rim" fill="#404040">
                                <set attributeName="fill" to="#808080" begin="zoomminus.mouseover" end="zoomminus.mouseout"/>
                        </use>
                        <path d="M-4,0h8" fill="none" stroke="white" stroke-width="1.5" pointer-events="none"/>
                </g>
                <g id="dirArrow">
                        <path fill="none" stroke="white" stroke-width="1.5" d="M0,-3.0v7 M-2.5,-0.5L0,-3.0L2.5,-0.5"/>
                </g>
               <g id="resetDef">
                       <use xlink:href="#rim2" fill="#404040">
                               <set attributeName="fill" to="#808080" begin="reset.mouseover" end="reset.mouseout"/>
                       </use>
               </g>
        </defs>

<script type="text/javascript">
var viewWidth = 929;
var viewHeight = 288;
var sectionId = 'dynsection-1';
</script>
<script xlink:href="svgpan.js"/>
<svg id="graph" class="graph">
<g id="viewport">
<title>MinuitFit</title>
<!-- Node1 -->
<g id="node1" class="node">
<title>Node1</title>
<g id="a_node1"><a xlink:title="Implementation of Minuit fitting algorithm .">
<polygon fill="#999999" stroke="#666666" points="921,-117 862,-117 862,-98 921,-98 921,-117"/>
<text text-anchor="middle" x="891.5" y="-105" font-family="Helvetica,sans-Serif" font-size="10.00">MinuitFit</text>
</a>
</g>
</g>
<!-- Node2 -->
<g id="node2" class="node">
<title>Node2</title>
<g id="a_node2"><a xlink:href="classLikelihoodFit.html" target="_top" xlink:title="Implementation of base Likelihood Fit class, it is mostly responsible for likelihood calculation whil...">
<polygon fill="white" stroke="#666666" points="766,-147 688,-147 688,-128 766,-128 766,-147"/>
<text text-anchor="middle" x="727" y="-135" font-family="Helvetica,sans-Serif" font-size="10.00">LikelihoodFit</text>
</a>
</g>
</g>
<!-- Node2&#45;&gt;Node1 -->
<g id="edge1" class="edge">
<title>Node2&#45;&gt;Node1</title>
<path fill="none" stroke="#63b8ff" d="M776.05,-128.63C803.91,-123.49 838.07,-117.18 861.78,-112.8"/>
<polygon fill="#63b8ff" stroke="#63b8ff" points="775.3,-125.21 766.1,-130.47 776.57,-132.09 775.3,-125.21"/>
</g>
<!-- Node3 -->
<g id="node3" class="node">
<title>Node3</title>
<g id="a_node3"><a xlink:href="classFitterBase.html" target="_top" xlink:title="Base class for implementing fitting algorithms.">
<polygon fill="white" stroke="#666666" points="626,-147 560,-147 560,-128 626,-128 626,-147"/>
<text text-anchor="middle" x="593" y="-135" font-family="Helvetica,sans-Serif" font-size="10.00">FitterBase</text>
</a>
</g>
</g>
<!-- Node3&#45;&gt;Node2 -->
<g id="edge2" class="edge">
<title>Node3&#45;&gt;Node2</title>
<path fill="none" stroke="#63b8ff" d="M636.75,-137.5C653.24,-137.5 671.94,-137.5 687.95,-137.5"/>
<polygon fill="#63b8ff" stroke="#63b8ff" points="636.29,-134 626.29,-137.5 636.29,-141 636.29,-134"/>
</g>
<!-- Node4 -->
<g id="node4" class="node">
<title>Node4</title>
<g id="a_node4"><a xlink:href="classmanager.html" target="_top" xlink:title="The manager class is responsible for managing configurations and settings.">
<polygon fill="white" stroke="#666666" points="406.5,-227 346.5,-227 346.5,-208 406.5,-208 406.5,-227"/>
<text text-anchor="middle" x="376.5" y="-215" font-family="Helvetica,sans-Serif" font-size="10.00">manager</text>
</a>
</g>
</g>
<!-- Node4&#45;&gt;Node3 -->
<g id="edge3" class="edge">
<title>Node4&#45;&gt;Node3</title>
<path fill="none" stroke="#9a32cd" stroke-dasharray="5,2" d="M416.75,-216.86C451.48,-214.83 502.62,-208.15 542,-187.5 560.48,-177.81 576.47,-158.94 585.12,-147.36"/>
<polygon fill="#9a32cd" stroke="#9a32cd" points="416.35,-213.38 406.53,-217.35 416.69,-220.37 416.35,-213.38"/>
<text text-anchor="middle" x="510.5" y="-210.5" font-family="Helvetica,sans-Serif" font-size="10.00"> fitMan</text>
</g>
<!-- Node5 -->
<g id="node5" class="node">
<title>Node5</title>
<g id="a_node5"><a xlink:title=" ">
<polygon fill="white" stroke="#666666" points="206,-250 141,-250 141,-231 206,-231 206,-250"/>
<text text-anchor="middle" x="173.5" y="-238" font-family="Helvetica,sans-Serif" font-size="10.00">std::string</text>
</a>
</g>
</g>
<!-- Node5&#45;&gt;Node3 -->
<g id="edge11" class="edge">
<title>Node5&#45;&gt;Node3</title>
<path fill="none" stroke="#9a32cd" stroke-dasharray="5,2" d="M215.76,-251.4C288.77,-268.12 442.4,-291.39 542,-222.5 569.04,-203.8 583.64,-165.34 589.26,-147.28"/>
<polygon fill="#9a32cd" stroke="#9a32cd" points="216.55,-247.99 206.01,-249.1 214.94,-254.81 216.55,-247.99"/>
<text text-anchor="middle" x="376.5" y="-271.5" font-family="Helvetica,sans-Serif" font-size="10.00"> AlgorithmName</text>
</g>
<!-- Node5&#45;&gt;Node4 -->
<g id="edge4" class="edge">
<title>Node5&#45;&gt;Node4</title>
<path fill="none" stroke="#9a32cd" stroke-dasharray="5,2" d="M216.32,-235.71C255.24,-231.26 312.23,-224.74 346.41,-220.83"/>
<polygon fill="#9a32cd" stroke="#9a32cd" points="215.89,-232.24 206.35,-236.86 216.68,-239.2 215.89,-232.24"/>
<text text-anchor="middle" x="249" y="-236.5" font-family="Helvetica,sans-Serif" font-size="10.00"> FileName</text>
</g>
<!-- Node6 -->
<g id="node6" class="node">
<title>Node6</title>
<g id="a_node6"><a xlink:title=" ">
<polygon fill="white" stroke="#666666" points="104,-255.5 0,-255.5 0,-225.5 104,-225.5 104,-255.5"/>
<text text-anchor="start" x="8" y="-243.5" font-family="Helvetica,sans-Serif" font-size="10.00">std::basic_string&lt;</text>
<text text-anchor="middle" x="52" y="-232.5" font-family="Helvetica,sans-Serif" font-size="10.00"> Char &gt;</text>
</a>
</g>
</g>
<!-- Node6&#45;&gt;Node5 -->
<g id="edge5" class="edge">
<title>Node6&#45;&gt;Node5</title>
<path fill="none" stroke="#63b8ff" d="M114.1,-240.5C123.41,-240.5 132.68,-240.5 141,-240.5"/>
<polygon fill="#63b8ff" stroke="#63b8ff" points="114.03,-237 104.03,-240.5 114.03,-244 114.03,-237"/>
</g>
<!-- Node7 -->
<g id="node7" class="node">
<title>Node7</title>
<g id="a_node7"><a xlink:title=" ">
<polygon fill="white" stroke="#666666" points="438.5,-190 314.5,-190 314.5,-171 438.5,-171 438.5,-190"/>
<text text-anchor="middle" x="376.5" y="-178" font-family="Helvetica,sans-Serif" font-size="10.00">std::vector&lt; double &gt;</text>
</a>
</g>
</g>
<!-- Node7&#45;&gt;Node3 -->
<g id="edge6" class="edge">
<title>Node7&#45;&gt;Node3</title>
<path fill="none" stroke="#9a32cd" stroke-dasharray="5,2" d="M445.43,-169.28C475.17,-164.06 510.42,-157.48 542,-150.5 547.78,-149.22 553.9,-147.74 559.81,-146.24"/>
<polygon fill="#9a32cd" stroke="#9a32cd" points="444.82,-165.83 435.57,-170.99 446.02,-172.72 444.82,-165.83"/>
<text text-anchor="middle" x="510.5" y="-175.5" font-family="Helvetica,sans-Serif" font-size="10.00"> sample_llh</text>
<text text-anchor="middle" x="510.5" y="-164.5" font-family="Helvetica,sans-Serif" font-size="10.00">syst_llh</text>
</g>
<!-- Node8 -->
<g id="node8" class="node">
<title>Node8</title>
<g id="a_node8"><a xlink:title=" ">
<polygon fill="white" stroke="#666666" points="454,-152.5 299,-152.5 299,-122.5 454,-122.5 454,-152.5"/>
<text text-anchor="start" x="307" y="-140.5" font-family="Helvetica,sans-Serif" font-size="10.00">std::vector&lt; SampleHandler</text>
<text text-anchor="middle" x="376.5" y="-129.5" font-family="Helvetica,sans-Serif" font-size="10.00">Base * &gt;</text>
</a>
</g>
</g>
<!-- Node8&#45;&gt;Node3 -->
<g id="edge7" class="edge">
<title>Node8&#45;&gt;Node3</title>
<path fill="none" stroke="#9a32cd" stroke-dasharray="5,2" d="M464.37,-137.5C498.02,-137.5 534.46,-137.5 559.75,-137.5"/>
<polygon fill="#9a32cd" stroke="#9a32cd" points="464.03,-134 454.03,-137.5 464.03,-141 464.03,-134"/>
<text text-anchor="middle" x="510.5" y="-140.5" font-family="Helvetica,sans-Serif" font-size="10.00"> samples</text>
</g>
<!-- Node9 -->
<g id="node9" class="node">
<title>Node9</title>
<g id="a_node9"><a xlink:title=" ">
<polygon fill="white" stroke="#666666" points="460.5,-104.5 292.5,-104.5 292.5,-74.5 460.5,-74.5 460.5,-104.5"/>
<text text-anchor="start" x="300.5" y="-92.5" font-family="Helvetica,sans-Serif" font-size="10.00">std::vector&lt; ParameterHandler</text>
<text text-anchor="middle" x="376.5" y="-81.5" font-family="Helvetica,sans-Serif" font-size="10.00">Base * &gt;</text>
</a>
</g>
</g>
<!-- Node9&#45;&gt;Node3 -->
<g id="edge8" class="edge">
<title>Node9&#45;&gt;Node3</title>
<path fill="none" stroke="#9a32cd" stroke-dasharray="5,2" d="M470.22,-106.52C493.74,-111.27 518.88,-116.73 542,-122.5 548.51,-124.12 555.43,-126.06 561.98,-128"/>
<polygon fill="#9a32cd" stroke="#9a32cd" points="470.75,-103.06 460.26,-104.53 469.38,-109.92 470.75,-103.06"/>
<text text-anchor="middle" x="510.5" y="-125.5" font-family="Helvetica,sans-Serif" font-size="10.00"> systematics</text>
</g>
<!-- Node10 -->
<g id="node10" class="node">
<title>Node10</title>
<g id="a_node10"><a xlink:title=" ">
<polygon fill="white" stroke="#666666" points="461,-56 292,-56 292,-37 461,-37 461,-56"/>
<text text-anchor="middle" x="376.5" y="-44" font-family="Helvetica,sans-Serif" font-size="10.00">std::unique_ptr&lt; TStopwatch &gt;</text>
</a>
</g>
</g>
<!-- Node10&#45;&gt;Node3 -->
<g id="edge9" class="edge">
<title>Node10&#45;&gt;Node3</title>
<path fill="none" stroke="#9a32cd" stroke-dasharray="5,2" d="M471,-56.62C495.24,-61.95 520.53,-70.09 542,-82.5 561.44,-93.74 577.55,-115.11 585.88,-127.65"/>
<polygon fill="#9a32cd" stroke="#9a32cd" points="471.56,-53.16 461.06,-54.57 470.14,-60.01 471.56,-53.16"/>
<text text-anchor="middle" x="510.5" y="-96.5" font-family="Helvetica,sans-Serif" font-size="10.00"> clock</text>
<text text-anchor="middle" x="510.5" y="-85.5" font-family="Helvetica,sans-Serif" font-size="10.00">stepClock</text>
</g>
<!-- Node11 -->
<g id="node11" class="node">
<title>Node11</title>
<g id="a_node11"><a xlink:title=" ">
<polygon fill="white" stroke="#666666" points="458.5,-19 294.5,-19 294.5,0 458.5,0 458.5,-19"/>
<text text-anchor="middle" x="376.5" y="-7" font-family="Helvetica,sans-Serif" font-size="10.00">std::unique_ptr&lt; TRandom3 &gt;</text>
</a>
</g>
</g>
<!-- Node11&#45;&gt;Node3 -->
<g id="edge10" class="edge">
<title>Node11&#45;&gt;Node3</title>
<path fill="none" stroke="#9a32cd" stroke-dasharray="5,2" d="M468.74,-14.67C494.38,-19.71 520.97,-28.72 542,-44.5 570.6,-65.95 584.64,-108.68 589.71,-127.83"/>
<polygon fill="#9a32cd" stroke="#9a32cd" points="469.06,-11.17 458.6,-12.86 467.83,-18.06 469.06,-11.17"/>
<text text-anchor="middle" x="510.5" y="-47.5" font-family="Helvetica,sans-Serif" font-size="10.00"> random</text>
</g>
<!-- Node12 -->
<g id="node12" class="node">
<title>Node12</title>
<g id="a_node12"><a xlink:title=" ">
<polygon fill="white" stroke="#666666" points="791,-109.5 663,-109.5 663,-79.5 791,-79.5 791,-109.5"/>
<text text-anchor="start" x="671" y="-97.5" font-family="Helvetica,sans-Serif" font-size="10.00">std::unique_ptr&lt; ROOT</text>
<text text-anchor="middle" x="727" y="-86.5" font-family="Helvetica,sans-Serif" font-size="10.00">::Math::Minimizer &gt;</text>
</a>
</g>
</g>
<!-- Node12&#45;&gt;Node1 -->
<g id="edge12" class="edge">
<title>Node12&#45;&gt;Node1</title>
<path fill="none" stroke="#9a32cd" stroke-dasharray="5,2" d="M801.4,-100.1C815.54,-101.21 830.23,-102.37 844,-103.5 849.81,-103.98 856.04,-104.5 861.98,-105.01"/>
<polygon fill="#9a32cd" stroke="#9a32cd" points="801.46,-96.6 791.22,-99.31 800.92,-103.57 801.46,-96.6"/>
<text text-anchor="middle" x="826.5" y="-106.5" font-family="Helvetica,sans-Serif" font-size="10.00"> minuit</text>
</g>
</g>
</svg>
        <g id="navigator" transform="translate(0 0)" fill="#404254">
                <rect fill="#f2f5e9" fill-opacity="0.5" stroke="#606060" stroke-width=".5" x="0" y="0" width="60" height="60"/>
                <use id="zoomplus" xlink:href="#zoomPlus" x="17" y="9" onmousedown="handleZoom(evt,'in')"/>
                <use id="zoomminus" xlink:href="#zoomMin" x="42" y="9" onmousedown="handleZoom(evt,'out')"/>
                <use id="reset" xlink:href="#resetDef" x="30" y="36" onmousedown="handleReset()"/>
                <g id="arrowUp" xlink:href="#dirArrow" transform="translate(30 24)" onmousedown="handlePan(0,-1)">
                  <use xlink:href="#rim" fill="#404040">
                        <set attributeName="fill" to="#808080" begin="arrowUp.mouseover" end="arrowUp.mouseout"/>
                  </use>
                  <path fill="none" stroke="white" stroke-width="1.5" d="M0,-3.0v7 M-2.5,-0.5L0,-3.0L2.5,-0.5"/>
                </g>
                <g id="arrowRight" xlink:href="#dirArrow" transform="rotate(90) translate(36 -43)" onmousedown="handlePan(1,0)">
                  <use xlink:href="#rim" fill="#404040">
                        <set attributeName="fill" to="#808080" begin="arrowRight.mouseover" end="arrowRight.mouseout"/>
                  </use>
                  <path fill="none" stroke="white" stroke-width="1.5" d="M0,-3.0v7 M-2.5,-0.5L0,-3.0L2.5,-0.5"/>
                </g>
                <g id="arrowDown" xlink:href="#dirArrow" transform="rotate(180) translate(-30 -48)" onmousedown="handlePan(0,1)">
                  <use xlink:href="#rim" fill="#404040">
                        <set attributeName="fill" to="#808080" begin="arrowDown.mouseover" end="arrowDown.mouseout"/>
                  </use>
                  <path fill="none" stroke="white" stroke-width="1.5" d="M0,-3.0v7 M-2.5,-0.5L0,-3.0L2.5,-0.5"/>
                </g>
                <g id="arrowLeft" xlink:href="#dirArrow" transform="rotate(270) translate(-36 17)" onmousedown="handlePan(-1,0)">
                  <use xlink:href="#rim" fill="#404040">
                        <set attributeName="fill" to="#808080" begin="arrowLeft.mouseover" end="arrowLeft.mouseout"/>
                  </use>
                  <path fill="none" stroke="white" stroke-width="1.5" d="M0,-3.0v7 M-2.5,-0.5L0,-3.0L2.5,-0.5"/>
                </g>
        </g>
        <svg viewBox="0 0 15 15" width="100%" height="30px" preserveAspectRatio="xMaxYMin meet">
         <g id="arrow_out" transform="scale(0.3 0.3)">
          <a xlink:href="classMinuitFit__coll__graph_org.svg" target="_base">
           <rect id="button" ry="5" rx="5" y="6" x="6" height="38" width="38"
                fill="#f2f5e9" fill-opacity="0.5" stroke="#606060" stroke-width="1.0"/>
           <path id="arrow"
             d="M 11.500037,31.436501 C 11.940474,20.09759 22.043105,11.32322 32.158766,21.979434 L 37.068811,17.246167 C 37.068811,17.246167 37.088388,32 37.088388,32 L 22.160133,31.978069 C 22.160133,31.978069 26.997745,27.140456 26.997745,27.140456 C 18.528582,18.264221 13.291696,25.230495 11.500037,31.436501 z"
             style="fill:#404040;"/>
          </a>
         </g>
        </svg>
</svg>
