<?xml version="1.0" encoding="UTF-8" standalone="no"?>
<!DOCTYPE svg PUBLIC "-//W3C//DTD SVG 1.1//EN"
 "http://www.w3.org/Graphics/SVG/1.1/DTD/svg11.dtd">
<!-- Generated by graphviz version 2.43.0 (0)
 -->
<!-- Title: ParameterHandlerOsc Pages: 1 -->
<!--zoomable 490 -->
<svg id="main" version="1.1" xmlns="http://www.w3.org/2000/svg" xmlns:xlink="http://www.w3.org/1999/xlink" xml:space="preserve" onload="init(evt)">
<style type="text/css"><![CDATA[
.edge:hover path { stroke: red; }
.edge:hover polygon { stroke: red; fill: red; }
]]></style>
<script type="text/javascript"><![CDATA[
var edges = document.getElementsByTagName('g');
if (edges && edges.length) {
  for (var i=0;i<edges.length;i++) {
    if (edges[i].id.substr(0,4)=='edge') {
      edges[i].setAttribute('class','edge');
    }
  }
}
]]></script>
        <defs>
                <circle id="rim" cx="0" cy="0" r="7"/>
                <circle id="rim2" cx="0" cy="0" r="3.5"/>
                <g id="zoomPlus">
                        <use xlink:href="#rim" fill="#404040">
                                <set attributeName="fill" to="#808080" begin="zoomplus.mouseover" end="zoomplus.mouseout"/>
                        </use>
                        <path d="M-4,0h8M0,-4v8" fill="none" stroke="white" stroke-width="1.5" pointer-events="none"/>
                </g>
                <g id="zoomMin">
                        <use xlink:href="#rim" fill="#404040">
                                <set attributeName="fill" to="#808080" begin="zoomminus.mouseover" end="zoomminus.mouseout"/>
                        </use>
                        <path d="M-4,0h8" fill="none" stroke="white" stroke-width="1.5" pointer-events="none"/>
                </g>
                <g id="dirArrow">
                        <path fill="none" stroke="white" stroke-width="1.5" d="M0,-3.0v7 M-2.5,-0.5L0,-3.0L2.5,-0.5"/>
                </g>
               <g id="resetDef">
                       <use xlink:href="#rim2" fill="#404040">
                               <set attributeName="fill" to="#808080" begin="reset.mouseover" end="reset.mouseout"/>
                       </use>
               </g>
        </defs>

<script type="text/javascript">
var viewWidth = 741;
var viewHeight = 490;
var sectionId = 'dynsection-1';
</script>
<script xlink:href="svgpan.js"/>
<svg id="graph" class="graph">
<g id="viewport">
<title>ParameterHandlerOsc</title>
<!-- Node1 -->
<g id="node1" class="node">
<title>Node1</title>
<g id="a_node1"><a xlink:title="Class responsible for handling of neutrino oscillation parameters.">
<polygon fill="#999999" stroke="#666666" points="733,-213.5 610,-213.5 610,-194.5 733,-194.5 733,-213.5"/>
<text text-anchor="middle" x="671.5" y="-201.5" font-family="Helvetica,sans-Serif" font-size="10.00">ParameterHandlerOsc</text>
</a>
</g>
</g>
<!-- Node2 -->
<g id="node2" class="node">
<title>Node2</title>
<g id="a_node2"><a xlink:href="classParameterHandlerBase.html" target="_top" xlink:title="Base class responsible for handling of systematic error parameters. Capable of using PCA or using ada...">
<polygon fill="white" stroke="#666666" points="573,-213.5 444,-213.5 444,-194.5 573,-194.5 573,-213.5"/>
<text text-anchor="middle" x="508.5" y="-201.5" font-family="Helvetica,sans-Serif" font-size="10.00">ParameterHandlerBase</text>
</a>
</g>
</g>
<!-- Node2&#45;&gt;Node1 -->
<g id="edge1" class="edge">
<title>Node2&#45;&gt;Node1</title>
<path fill="none" stroke="#63b8ff" d="M583.18,-204C592.14,-204 601.21,-204 609.96,-204"/>
<polygon fill="#63b8ff" stroke="#63b8ff" points="583.13,-200.5 573.13,-204 583.13,-207.5 583.13,-200.5"/>
</g>
<!-- Node3 -->
<g id="node3" class="node">
<title>Node3</title>
<g id="a_node3"><a xlink:title=" ">
<polygon fill="white" stroke="#666666" points="264.5,-465.5 199.5,-465.5 199.5,-446.5 264.5,-446.5 264.5,-465.5"/>
<text text-anchor="middle" x="232" y="-453.5" font-family="Helvetica,sans-Serif" font-size="10.00">std::string</text>
</a>
</g>
</g>
<!-- Node3&#45;&gt;Node2 -->
<g id="edge2" class="edge">
<title>Node3&#45;&gt;Node2</title>
<path fill="none" stroke="#9a32cd" stroke-dasharray="5,2" d="M274.63,-461.7C317.34,-465.16 383.39,-463.54 426,-429 496.36,-371.97 505.99,-248.91 507.3,-213.63"/>
<polygon fill="#9a32cd" stroke="#9a32cd" points="274.85,-458.21 264.57,-460.76 274.2,-465.18 274.85,-458.21"/>
<text text-anchor="middle" x="383.5" y="-474" font-family="Helvetica,sans-Serif" font-size="10.00"> inputFile</text>
<text text-anchor="middle" x="383.5" y="-463" font-family="Helvetica,sans-Serif" font-size="10.00">matrixName</text>
</g>
<!-- Node4 -->
<g id="node4" class="node">
<title>Node4</title>
<g id="a_node4"><a xlink:title=" ">
<polygon fill="white" stroke="#666666" points="104,-471 0,-471 0,-441 104,-441 104,-471"/>
<text text-anchor="start" x="8" y="-459" font-family="Helvetica,sans-Serif" font-size="10.00">std::basic_string&lt;</text>
<text text-anchor="middle" x="52" y="-448" font-family="Helvetica,sans-Serif" font-size="10.00"> Char &gt;</text>
</a>
</g>
</g>
<!-- Node4&#45;&gt;Node3 -->
<g id="edge3" class="edge">
<title>Node4&#45;&gt;Node3</title>
<path fill="none" stroke="#63b8ff" d="M114.33,-456C142.93,-456 175.76,-456 199.3,-456"/>
<polygon fill="#63b8ff" stroke="#63b8ff" points="114.01,-452.5 104.01,-456 114.01,-459.5 114.01,-452.5"/>
</g>
<!-- Node5 -->
<g id="node5" class="node">
<title>Node5</title>
<g id="a_node5"><a xlink:title=" ">
<polygon fill="white" stroke="#666666" points="297.5,-428 166.5,-428 166.5,-398 297.5,-398 297.5,-428"/>
<text text-anchor="start" x="174.5" y="-416" font-family="Helvetica,sans-Serif" font-size="10.00">std::vector&lt; std::vector</text>
<text text-anchor="middle" x="232" y="-405" font-family="Helvetica,sans-Serif" font-size="10.00">&lt; double &gt; &gt;</text>
</a>
</g>
</g>
<!-- Node5&#45;&gt;Node2 -->
<g id="edge4" class="edge">
<title>Node5&#45;&gt;Node2</title>
<path fill="none" stroke="#9a32cd" stroke-dasharray="5,2" d="M307.8,-417.55C346.57,-416.17 392.64,-408.3 426,-383 483.95,-339.05 501.89,-244.32 506.28,-213.73"/>
<polygon fill="#9a32cd" stroke="#9a32cd" points="307.52,-414.05 297.6,-417.77 307.67,-421.05 307.52,-414.05"/>
<text text-anchor="middle" x="383.5" y="-417" font-family="Helvetica,sans-Serif" font-size="10.00"> InvertCovMatrix</text>
</g>
<!-- Node6 -->
<g id="node6" class="node">
<title>Node6</title>
<g id="a_node6"><a xlink:title=" ">
<polygon fill="white" stroke="#666666" points="299,-380 165,-380 165,-350 299,-350 299,-380"/>
<text text-anchor="start" x="173" y="-368" font-family="Helvetica,sans-Serif" font-size="10.00">std::vector&lt; std::unique</text>
<text text-anchor="middle" x="232" y="-357" font-family="Helvetica,sans-Serif" font-size="10.00">_ptr&lt; TRandom3 &gt; &gt;</text>
</a>
</g>
</g>
<!-- Node6&#45;&gt;Node2 -->
<g id="edge5" class="edge">
<title>Node6&#45;&gt;Node2</title>
<path fill="none" stroke="#9a32cd" stroke-dasharray="5,2" d="M309.63,-370.65C347.41,-369.85 392.03,-363.21 426,-341 473.95,-309.66 497.64,-239.43 504.96,-213.69"/>
<polygon fill="#9a32cd" stroke="#9a32cd" points="309.15,-367.15 299.17,-370.73 309.2,-374.15 309.15,-367.15"/>
<text text-anchor="middle" x="383.5" y="-371" font-family="Helvetica,sans-Serif" font-size="10.00"> random_number</text>
</g>
<!-- Node7 -->
<g id="node7" class="node">
<title>Node7</title>
<g id="a_node7"><a xlink:title=" ">
<polygon fill="white" stroke="#666666" points="302,-330.5 162,-330.5 162,-311.5 302,-311.5 302,-330.5"/>
<text text-anchor="middle" x="232" y="-318.5" font-family="Helvetica,sans-Serif" font-size="10.00">std::vector&lt; std::string &gt;</text>
</a>
</g>
</g>
<!-- Node7&#45;&gt;Node2 -->
<g id="edge6" class="edge">
<title>Node7&#45;&gt;Node2</title>
<path fill="none" stroke="#9a32cd" stroke-dasharray="5,2" d="M312.34,-317.78C356.55,-314.85 406.51,-309.33 426,-299 463.82,-278.94 491.7,-233.5 502.54,-213.62"/>
<polygon fill="#9a32cd" stroke="#9a32cd" points="311.9,-314.3 302.13,-318.41 312.33,-321.28 311.9,-314.3"/>
<text text-anchor="middle" x="383.5" y="-329" font-family="Helvetica,sans-Serif" font-size="10.00"> _fFancyNames</text>
<text text-anchor="middle" x="383.5" y="-318" font-family="Helvetica,sans-Serif" font-size="10.00">_fNames</text>
</g>
<!-- Node8 -->
<g id="node8" class="node">
<title>Node8</title>
<g id="a_node8"><a xlink:title=" ">
<polygon fill="white" stroke="#666666" points="294,-238.5 170,-238.5 170,-219.5 294,-219.5 294,-238.5"/>
<text text-anchor="middle" x="232" y="-226.5" font-family="Helvetica,sans-Serif" font-size="10.00">std::vector&lt; double &gt;</text>
</a>
</g>
</g>
<!-- Node8&#45;&gt;Node2 -->
<g id="edge7" class="edge">
<title>Node8&#45;&gt;Node2</title>
<path fill="none" stroke="#9a32cd" stroke-dasharray="5,2" d="M304.39,-222.5C347.47,-218.57 401.9,-213.62 443.56,-209.82"/>
<polygon fill="#9a32cd" stroke="#9a32cd" points="303.9,-219.03 294.26,-223.42 304.54,-226 303.9,-219.03"/>
<text text-anchor="middle" x="383.5" y="-287" font-family="Helvetica,sans-Serif" font-size="10.00"> _fCurrVal</text>
<text text-anchor="middle" x="383.5" y="-276" font-family="Helvetica,sans-Serif" font-size="10.00">_fError</text>
<text text-anchor="middle" x="383.5" y="-265" font-family="Helvetica,sans-Serif" font-size="10.00">_fIndivStepScale</text>
<text text-anchor="middle" x="383.5" y="-254" font-family="Helvetica,sans-Serif" font-size="10.00">_fLowBound</text>
<text text-anchor="middle" x="383.5" y="-243" font-family="Helvetica,sans-Serif" font-size="10.00">_fPreFitValue</text>
<text text-anchor="middle" x="383.5" y="-232" font-family="Helvetica,sans-Serif" font-size="10.00">_fPropVal</text>
<text text-anchor="middle" x="383.5" y="-221" font-family="Helvetica,sans-Serif" font-size="10.00">_fUpBound</text>
</g>
<!-- Node9 -->
<g id="node9" class="node">
<title>Node9</title>
<g id="a_node9"><a xlink:title=" ">
<polygon fill="white" stroke="#666666" points="288,-201.5 176,-201.5 176,-182.5 288,-182.5 288,-201.5"/>
<text text-anchor="middle" x="232" y="-189.5" font-family="Helvetica,sans-Serif" font-size="10.00">std::vector&lt; bool &gt;</text>
</a>
</g>
</g>
<!-- Node9&#45;&gt;Node2 -->
<g id="edge8" class="edge">
<title>Node9&#45;&gt;Node2</title>
<path fill="none" stroke="#9a32cd" stroke-dasharray="5,2" d="M298.31,-186.84C335.77,-184.83 383.62,-183.88 426,-188 439.49,-189.31 454.06,-191.82 467.1,-194.46"/>
<polygon fill="#9a32cd" stroke="#9a32cd" points="297.82,-183.36 288.04,-187.43 298.22,-190.35 297.82,-183.36"/>
<text text-anchor="middle" x="383.5" y="-191" font-family="Helvetica,sans-Serif" font-size="10.00"> _fFlatPrior</text>
</g>
<!-- Node10 -->
<g id="node10" class="node">
<title>Node10</title>
<g id="a_node10"><a xlink:title=" ">
<polygon fill="white" stroke="#666666" points="297.5,-164 166.5,-164 166.5,-134 297.5,-134 297.5,-164"/>
<text text-anchor="start" x="174.5" y="-152" font-family="Helvetica,sans-Serif" font-size="10.00">std::vector&lt; std::vector</text>
<text text-anchor="middle" x="232" y="-141" font-family="Helvetica,sans-Serif" font-size="10.00">&lt; std::string &gt; &gt;</text>
</a>
</g>
</g>
<!-- Node10&#45;&gt;Node2 -->
<g id="edge9" class="edge">
<title>Node10&#45;&gt;Node2</title>
<path fill="none" stroke="#9a32cd" stroke-dasharray="5,2" d="M307.71,-152.13C343.87,-154.9 387.66,-160.14 426,-170 448.42,-175.77 472.75,-186.56 488.93,-194.44"/>
<polygon fill="#9a32cd" stroke="#9a32cd" points="307.95,-148.64 297.72,-151.41 307.44,-155.62 307.95,-148.64"/>
<text text-anchor="middle" x="383.5" y="-173" font-family="Helvetica,sans-Serif" font-size="10.00"> _fSampleNames</text>
</g>
<!-- Node11 -->
<g id="node11" class="node">
<title>Node11</title>
<g id="a_node11"><a xlink:title=" ">
<polygon fill="white" stroke="#666666" points="317,-115.5 147,-115.5 147,-96.5 317,-96.5 317,-115.5"/>
<text text-anchor="middle" x="232" y="-103.5" font-family="Helvetica,sans-Serif" font-size="10.00">std::unique_ptr&lt; PCAHandler &gt;</text>
</a>
</g>
</g>
<!-- Node11&#45;&gt;Node2 -->
<g id="edge10" class="edge">
<title>Node11&#45;&gt;Node2</title>
<path fill="none" stroke="#9a32cd" stroke-dasharray="5,2" d="M327.25,-113.21C359.57,-118.1 395.31,-126.29 426,-140 455.9,-153.35 484.48,-180.07 498.5,-194.4"/>
<polygon fill="#9a32cd" stroke="#9a32cd" points="327.73,-109.75 317.33,-111.8 326.74,-116.68 327.73,-109.75"/>
<text text-anchor="middle" x="383.5" y="-143" font-family="Helvetica,sans-Serif" font-size="10.00"> PCAObj</text>
</g>
<!-- Node12 -->
<g id="node12" class="node">
<title>Node12</title>
<g id="a_node12"><a xlink:title=" ">
<polygon fill="white" stroke="#666666" points="323,-78 141,-78 141,-48 323,-48 323,-78"/>
<text text-anchor="start" x="149" y="-66" font-family="Helvetica,sans-Serif" font-size="10.00">std::unique_ptr&lt; adaptive</text>
<text text-anchor="middle" x="232" y="-55" font-family="Helvetica,sans-Serif" font-size="10.00">_mcmc::AdaptiveMCMCHandler &gt;</text>
</a>
</g>
</g>
<!-- Node12&#45;&gt;Node2 -->
<g id="edge11" class="edge">
<title>Node12&#45;&gt;Node2</title>
<path fill="none" stroke="#9a32cd" stroke-dasharray="5,2" d="M333.38,-69.18C364.77,-74.56 398.38,-84.15 426,-101 464.74,-124.64 492.5,-173.77 502.94,-194.47"/>
<polygon fill="#9a32cd" stroke="#9a32cd" points="333.71,-65.68 323.28,-67.57 332.61,-72.6 333.71,-65.68"/>
<text text-anchor="middle" x="383.5" y="-104" font-family="Helvetica,sans-Serif" font-size="10.00"> AdaptiveHandler</text>
</g>
<!-- Node13 -->
<g id="node13" class="node">
<title>Node13</title>
<g id="a_node13"><a xlink:title=" ">
<polygon fill="white" stroke="#666666" points="307.5,-30 156.5,-30 156.5,0 307.5,0 307.5,-30"/>
<text text-anchor="start" x="164.5" y="-18" font-family="Helvetica,sans-Serif" font-size="10.00">std::unique_ptr&lt; Parameter</text>
<text text-anchor="middle" x="232" y="-7" font-family="Helvetica,sans-Serif" font-size="10.00">Tunes &gt;</text>
</a>
</g>
</g>
<!-- Node13&#45;&gt;Node2 -->
<g id="edge12" class="edge">
<title>Node13&#45;&gt;Node2</title>
<path fill="none" stroke="#9a32cd" stroke-dasharray="5,2" d="M317.85,-17.03C354.09,-21.61 395.08,-32.11 426,-55 475.53,-91.67 498.51,-167.78 505.28,-194.49"/>
<polygon fill="#9a32cd" stroke="#9a32cd" points="318.09,-13.54 307.76,-15.89 317.3,-20.49 318.09,-13.54"/>
<text text-anchor="middle" x="383.5" y="-58" font-family="Helvetica,sans-Serif" font-size="10.00"> Tunes</text>
</g>
</g>
</svg>
        <g id="navigator" transform="translate(0 0)" fill="#404254">
                <rect fill="#f2f5e9" fill-opacity="0.5" stroke="#606060" stroke-width=".5" x="0" y="0" width="60" height="60"/>
                <use id="zoomplus" xlink:href="#zoomPlus" x="17" y="9" onmousedown="handleZoom(evt,'in')"/>
                <use id="zoomminus" xlink:href="#zoomMin" x="42" y="9" onmousedown="handleZoom(evt,'out')"/>
                <use id="reset" xlink:href="#resetDef" x="30" y="36" onmousedown="handleReset()"/>
                <g id="arrowUp" xlink:href="#dirArrow" transform="translate(30 24)" onmousedown="handlePan(0,-1)">
                  <use xlink:href="#rim" fill="#404040">
                        <set attributeName="fill" to="#808080" begin="arrowUp.mouseover" end="arrowUp.mouseout"/>
                  </use>
                  <path fill="none" stroke="white" stroke-width="1.5" d="M0,-3.0v7 M-2.5,-0.5L0,-3.0L2.5,-0.5"/>
                </g>
                <g id="arrowRight" xlink:href="#dirArrow" transform="rotate(90) translate(36 -43)" onmousedown="handlePan(1,0)">
                  <use xlink:href="#rim" fill="#404040">
                        <set attributeName="fill" to="#808080" begin="arrowRight.mouseover" end="arrowRight.mouseout"/>
                  </use>
                  <path fill="none" stroke="white" stroke-width="1.5" d="M0,-3.0v7 M-2.5,-0.5L0,-3.0L2.5,-0.5"/>
                </g>
                <g id="arrowDown" xlink:href="#dirArrow" transform="rotate(180) translate(-30 -48)" onmousedown="handlePan(0,1)">
                  <use xlink:href="#rim" fill="#404040">
                        <set attributeName="fill" to="#808080" begin="arrowDown.mouseover" end="arrowDown.mouseout"/>
                  </use>
                  <path fill="none" stroke="white" stroke-width="1.5" d="M0,-3.0v7 M-2.5,-0.5L0,-3.0L2.5,-0.5"/>
                </g>
                <g id="arrowLeft" xlink:href="#dirArrow" transform="rotate(270) translate(-36 17)" onmousedown="handlePan(-1,0)">
                  <use xlink:href="#rim" fill="#404040">
                        <set attributeName="fill" to="#808080" begin="arrowLeft.mouseover" end="arrowLeft.mouseout"/>
                  </use>
                  <path fill="none" stroke="white" stroke-width="1.5" d="M0,-3.0v7 M-2.5,-0.5L0,-3.0L2.5,-0.5"/>
                </g>
        </g>
        <svg viewBox="0 0 15 15" width="100%" height="30px" preserveAspectRatio="xMaxYMin meet">
         <g id="arrow_out" transform="scale(0.3 0.3)">
          <a xlink:href="classParameterHandlerOsc__coll__graph_org.svg" target="_base">
           <rect id="button" ry="5" rx="5" y="6" x="6" height="38" width="38"
                fill="#f2f5e9" fill-opacity="0.5" stroke="#606060" stroke-width="1.0"/>
           <path id="arrow"
             d="M 11.500037,31.436501 C 11.940474,20.09759 22.043105,11.32322 32.158766,21.979434 L 37.068811,17.246167 C 37.068811,17.246167 37.088388,32 37.088388,32 L 22.160133,31.978069 C 22.160133,31.978069 26.997745,27.140456 26.997745,27.140456 C 18.528582,18.264221 13.291696,25.230495 11.500037,31.436501 z"
             style="fill:#404040;"/>
          </a>
         </g>
        </svg>
</svg>
