<?xml version="1.0" encoding="UTF-8" standalone="no"?>
<!DOCTYPE svg PUBLIC "-//W3C//DTD SVG 1.1//EN"
 "http://www.w3.org/Graphics/SVG/1.1/DTD/svg11.dtd">
<!-- Generated by graphviz version 2.43.0 (0)
 -->
<!-- Title: PyParameterHandlerBase Pages: 1 -->
<svg width="783pt" height="586pt"
 viewBox="0.00 0.00 783.00 586.00" xmlns="http://www.w3.org/2000/svg" xmlns:xlink="http://www.w3.org/1999/xlink">
<g id="graph0" class="graph" transform="scale(1 1) rotate(0) translate(4 582)">
<title>PyParameterHandlerBase</title>
<!-- Node1 -->
<g id="node1" class="node">
<title>Node1</title>
<g id="a_node1"><a xlink:title="EW: As ParameterHandlerBase is an abstract base class we have to do some gymnastics to get it to get ...">
<polygon fill="#999999" stroke="#666666" points="775,-261.5 634,-261.5 634,-242.5 775,-242.5 775,-261.5"/>
<text text-anchor="middle" x="704.5" y="-249.5" font-family="Helvetica,sans-Serif" font-size="10.00">PyParameterHandlerBase</text>
</a>
</g>
</g>
<!-- Node2 -->
<g id="node2" class="node">
<title>Node2</title>
<g id="a_node2"><a xlink:href="classParameterHandlerBase.html" target="_top" xlink:title="Base class responsible for handling of systematic error parameters. Capable of using PCA or using ada...">
<polygon fill="white" stroke="#666666" points="597,-261.5 468,-261.5 468,-242.5 597,-242.5 597,-261.5"/>
<text text-anchor="middle" x="532.5" y="-249.5" font-family="Helvetica,sans-Serif" font-size="10.00">ParameterHandlerBase</text>
</a>
</g>
</g>
<!-- Node2&#45;&gt;Node1 -->
<g id="edge1" class="edge">
<title>Node2&#45;&gt;Node1</title>
<path fill="none" stroke="#63b8ff" d="M607.5,-252C616.28,-252 625.23,-252 633.95,-252"/>
<polygon fill="#63b8ff" stroke="#63b8ff" points="607.29,-248.5 597.29,-252 607.29,-255.5 607.29,-248.5"/>
</g>
<!-- Node3 -->
<g id="node3" class="node">
<title>Node3</title>
<g id="a_node3"><a xlink:title=" ">
<polygon fill="white" stroke="#666666" points="264.5,-558.5 199.5,-558.5 199.5,-539.5 264.5,-539.5 264.5,-558.5"/>
<text text-anchor="middle" x="232" y="-546.5" font-family="Helvetica,sans-Serif" font-size="10.00">std::string</text>
</a>
</g>
</g>
<!-- Node3&#45;&gt;Node2 -->
<g id="edge2" class="edge">
<title>Node3&#45;&gt;Node2</title>
<path fill="none" stroke="#9a32cd" stroke-dasharray="5,2" d="M274.92,-555.48C322.97,-560.42 401.33,-560.49 450,-519 531.51,-449.51 533.03,-301.02 531.92,-261.71"/>
<polygon fill="#9a32cd" stroke="#9a32cd" points="275.19,-551.99 264.86,-554.33 274.4,-558.95 275.19,-551.99"/>
<text text-anchor="middle" x="395.5" y="-570" font-family="Helvetica,sans-Serif" font-size="10.00"> inputFile</text>
<text text-anchor="middle" x="395.5" y="-559" font-family="Helvetica,sans-Serif" font-size="10.00">matrixName</text>
</g>
<!-- Node4 -->
<g id="node4" class="node">
<title>Node4</title>
<g id="a_node4"><a xlink:title=" ">
<polygon fill="white" stroke="#666666" points="104,-564 0,-564 0,-534 104,-534 104,-564"/>
<text text-anchor="start" x="8" y="-552" font-family="Helvetica,sans-Serif" font-size="10.00">std::basic_string&lt;</text>
<text text-anchor="middle" x="52" y="-541" font-family="Helvetica,sans-Serif" font-size="10.00"> Char &gt;</text>
</a>
</g>
</g>
<!-- Node4&#45;&gt;Node3 -->
<g id="edge3" class="edge">
<title>Node4&#45;&gt;Node3</title>
<path fill="none" stroke="#63b8ff" d="M114.33,-549C142.93,-549 175.76,-549 199.3,-549"/>
<polygon fill="#63b8ff" stroke="#63b8ff" points="114.01,-545.5 104.01,-549 114.01,-552.5 114.01,-545.5"/>
</g>
<!-- Node5 -->
<g id="node5" class="node">
<title>Node5</title>
<g id="a_node5"><a xlink:title=" ">
<polygon fill="white" stroke="#666666" points="297.5,-521 166.5,-521 166.5,-491 297.5,-491 297.5,-521"/>
<text text-anchor="start" x="174.5" y="-509" font-family="Helvetica,sans-Serif" font-size="10.00">std::vector&lt; std::vector</text>
<text text-anchor="middle" x="232" y="-498" font-family="Helvetica,sans-Serif" font-size="10.00">&lt; double &gt; &gt;</text>
</a>
</g>
</g>
<!-- Node5&#45;&gt;Node2 -->
<g id="edge4" class="edge">
<title>Node5&#45;&gt;Node2</title>
<path fill="none" stroke="#9a32cd" stroke-dasharray="5,2" d="M307.96,-506.38C361.78,-505.14 428.46,-500.02 450,-483 522.75,-425.53 530.7,-298.43 531.45,-261.96"/>
<polygon fill="#9a32cd" stroke="#9a32cd" points="307.66,-502.88 297.73,-506.57 307.79,-509.88 307.66,-502.88"/>
<text text-anchor="middle" x="395.5" y="-507" font-family="Helvetica,sans-Serif" font-size="10.00"> InvertCovMatrix</text>
</g>
<!-- Node6 -->
<g id="node6" class="node">
<title>Node6</title>
<g id="a_node6"><a xlink:title=" ">
<polygon fill="white" stroke="#666666" points="299,-473 165,-473 165,-443 299,-443 299,-473"/>
<text text-anchor="start" x="173" y="-461" font-family="Helvetica,sans-Serif" font-size="10.00">std::vector&lt; std::unique</text>
<text text-anchor="middle" x="232" y="-450" font-family="Helvetica,sans-Serif" font-size="10.00">_ptr&lt; TRandom3 &gt; &gt;</text>
</a>
</g>
</g>
<!-- Node6&#45;&gt;Node2 -->
<g id="edge5" class="edge">
<title>Node6&#45;&gt;Node2</title>
<path fill="none" stroke="#9a32cd" stroke-dasharray="5,2" d="M309.34,-468.67C354.27,-470.85 409.94,-465.97 450,-437 510.86,-392.98 526.92,-293.28 530.55,-261.75"/>
<polygon fill="#9a32cd" stroke="#9a32cd" points="309.54,-465.18 299.34,-468.06 309.11,-472.16 309.54,-465.18"/>
<text text-anchor="middle" x="395.5" y="-471" font-family="Helvetica,sans-Serif" font-size="10.00"> random_number</text>
</g>
<!-- Node7 -->
<g id="node7" class="node">
<title>Node7</title>
<g id="a_node7"><a xlink:title=" ">
<polygon fill="white" stroke="#666666" points="302,-423.5 162,-423.5 162,-404.5 302,-404.5 302,-423.5"/>
<text text-anchor="middle" x="232" y="-411.5" font-family="Helvetica,sans-Serif" font-size="10.00">std::vector&lt; std::string &gt;</text>
</a>
</g>
</g>
<!-- Node7&#45;&gt;Node2 -->
<g id="edge6" class="edge">
<title>Node7&#45;&gt;Node2</title>
<path fill="none" stroke="#9a32cd" stroke-dasharray="5,2" d="M312.39,-413.39C364.77,-411.6 427.69,-406.37 450,-392 499.18,-360.32 522.24,-287.7 529.17,-261.58"/>
<polygon fill="#9a32cd" stroke="#9a32cd" points="311.95,-409.9 302.07,-413.7 312.17,-416.9 311.95,-409.9"/>
<text text-anchor="middle" x="395.5" y="-425" font-family="Helvetica,sans-Serif" font-size="10.00"> _fFancyNames</text>
<text text-anchor="middle" x="395.5" y="-414" font-family="Helvetica,sans-Serif" font-size="10.00">_fNames</text>
</g>
<!-- Node8 -->
<g id="node8" class="node">
<title>Node8</title>
<g id="a_node8"><a xlink:title=" ">
<polygon fill="white" stroke="#666666" points="294,-324.5 170,-324.5 170,-305.5 294,-305.5 294,-324.5"/>
<text text-anchor="middle" x="232" y="-312.5" font-family="Helvetica,sans-Serif" font-size="10.00">std::vector&lt; double &gt;</text>
</a>
</g>
</g>
<!-- Node8&#45;&gt;Node2 -->
<g id="edge7" class="edge">
<title>Node8&#45;&gt;Node2</title>
<path fill="none" stroke="#9a32cd" stroke-dasharray="5,2" d="M304.42,-307.21C347.08,-301.72 402.1,-293.16 450,-281 470.09,-275.9 492.2,-267.87 508.32,-261.55"/>
<polygon fill="#9a32cd" stroke="#9a32cd" points="303.9,-303.75 294.41,-308.48 304.77,-310.7 303.9,-303.75"/>
<text text-anchor="middle" x="395.5" y="-381" font-family="Helvetica,sans-Serif" font-size="10.00"> FlipParameterPoint</text>
<text text-anchor="middle" x="395.5" y="-370" font-family="Helvetica,sans-Serif" font-size="10.00">_fCurrVal</text>
<text text-anchor="middle" x="395.5" y="-359" font-family="Helvetica,sans-Serif" font-size="10.00">_fError</text>
<text text-anchor="middle" x="395.5" y="-348" font-family="Helvetica,sans-Serif" font-size="10.00">_fIndivStepScale</text>
<text text-anchor="middle" x="395.5" y="-337" font-family="Helvetica,sans-Serif" font-size="10.00">_fLowBound</text>
<text text-anchor="middle" x="395.5" y="-326" font-family="Helvetica,sans-Serif" font-size="10.00">_fPreFitValue</text>
<text text-anchor="middle" x="395.5" y="-315" font-family="Helvetica,sans-Serif" font-size="10.00">_fPropVal</text>
<text text-anchor="middle" x="395.5" y="-304" font-family="Helvetica,sans-Serif" font-size="10.00">_fUpBound</text>
</g>
<!-- Node9 -->
<g id="node9" class="node">
<title>Node9</title>
<g id="a_node9"><a xlink:title=" ">
<polygon fill="white" stroke="#666666" points="288,-287.5 176,-287.5 176,-268.5 288,-268.5 288,-287.5"/>
<text text-anchor="middle" x="232" y="-275.5" font-family="Helvetica,sans-Serif" font-size="10.00">std::vector&lt; bool &gt;</text>
</a>
</g>
</g>
<!-- Node9&#45;&gt;Node2 -->
<g id="edge8" class="edge">
<title>Node9&#45;&gt;Node2</title>
<path fill="none" stroke="#9a32cd" stroke-dasharray="5,2" d="M298.23,-272.32C348.62,-267.93 417.96,-261.89 467.92,-257.54"/>
<polygon fill="#9a32cd" stroke="#9a32cd" points="297.76,-268.85 288.1,-273.2 298.36,-275.82 297.76,-268.85"/>
<text text-anchor="middle" x="395.5" y="-271" font-family="Helvetica,sans-Serif" font-size="10.00"> _fFlatPrior</text>
</g>
<!-- Node10 -->
<g id="node10" class="node">
<title>Node10</title>
<g id="a_node10"><a xlink:title=" ">
<polygon fill="white" stroke="#666666" points="297.5,-250 166.5,-250 166.5,-220 297.5,-220 297.5,-250"/>
<text text-anchor="start" x="174.5" y="-238" font-family="Helvetica,sans-Serif" font-size="10.00">std::vector&lt; std::vector</text>
<text text-anchor="middle" x="232" y="-227" font-family="Helvetica,sans-Serif" font-size="10.00">&lt; std::string &gt; &gt;</text>
</a>
</g>
</g>
<!-- Node10&#45;&gt;Node2 -->
<g id="edge9" class="edge">
<title>Node10&#45;&gt;Node2</title>
<path fill="none" stroke="#9a32cd" stroke-dasharray="5,2" d="M307.86,-231.87C349.76,-230.98 402.9,-231.31 450,-236 463.34,-237.33 477.75,-239.8 490.68,-242.42"/>
<polygon fill="#9a32cd" stroke="#9a32cd" points="307.65,-228.37 297.73,-232.11 307.81,-235.37 307.65,-228.37"/>
<text text-anchor="middle" x="395.5" y="-239" font-family="Helvetica,sans-Serif" font-size="10.00"> _fSampleNames</text>
</g>
<!-- Node11 -->
<g id="node11" class="node">
<title>Node11</title>
<g id="a_node11"><a xlink:title=" ">
<polygon fill="white" stroke="#666666" points="317,-201.5 147,-201.5 147,-182.5 317,-182.5 317,-201.5"/>
<text text-anchor="middle" x="232" y="-189.5" font-family="Helvetica,sans-Serif" font-size="10.00">std::unique_ptr&lt; PCAHandler &gt;</text>
</a>
</g>
</g>
<!-- Node11&#45;&gt;Node2 -->
<g id="edge10" class="edge">
<title>Node11&#45;&gt;Node2</title>
<path fill="none" stroke="#9a32cd" stroke-dasharray="5,2" d="M327.24,-196.13C365.79,-199.44 410.52,-205.37 450,-216 473,-222.19 497.82,-233.96 513.95,-242.36"/>
<polygon fill="#9a32cd" stroke="#9a32cd" points="327.31,-192.62 317.06,-195.3 326.74,-199.6 327.31,-192.62"/>
<text text-anchor="middle" x="395.5" y="-219" font-family="Helvetica,sans-Serif" font-size="10.00"> PCAObj</text>
</g>
<!-- Node12 -->
<g id="node12" class="node">
<title>Node12</title>
<g id="a_node12"><a xlink:title=" ">
<polygon fill="white" stroke="#666666" points="323,-164 141,-164 141,-134 323,-134 323,-164"/>
<text text-anchor="start" x="149" y="-152" font-family="Helvetica,sans-Serif" font-size="10.00">std::unique_ptr&lt; adaptive</text>
<text text-anchor="middle" x="232" y="-141" font-family="Helvetica,sans-Serif" font-size="10.00">_mcmc::AdaptiveMCMCHandler &gt;</text>
</a>
</g>
</g>
<!-- Node12&#45;&gt;Node2 -->
<g id="edge11" class="edge">
<title>Node12&#45;&gt;Node2</title>
<path fill="none" stroke="#9a32cd" stroke-dasharray="5,2" d="M333.11,-152.55C371.07,-156.85 413.84,-165.4 450,-182 481.53,-196.47 510.27,-226.87 523.62,-242.41"/>
<polygon fill="#9a32cd" stroke="#9a32cd" points="333.36,-149.06 323.05,-151.5 332.63,-156.02 333.36,-149.06"/>
<text text-anchor="middle" x="395.5" y="-185" font-family="Helvetica,sans-Serif" font-size="10.00"> AdaptiveHandler</text>
</g>
<!-- Node13 -->
<g id="node13" class="node">
<title>Node13</title>
<g id="a_node13"><a xlink:title=" ">
<polygon fill="white" stroke="#666666" points="307.5,-116 156.5,-116 156.5,-86 307.5,-86 307.5,-116"/>
<text text-anchor="start" x="164.5" y="-104" font-family="Helvetica,sans-Serif" font-size="10.00">std::unique_ptr&lt; Parameter</text>
<text text-anchor="middle" x="232" y="-93" font-family="Helvetica,sans-Serif" font-size="10.00">Tunes &gt;</text>
</a>
</g>
</g>
<!-- Node13&#45;&gt;Node2 -->
<g id="edge12" class="edge">
<title>Node13&#45;&gt;Node2</title>
<path fill="none" stroke="#9a32cd" stroke-dasharray="5,2" d="M317.62,-101.06C360.12,-104.59 410.77,-114.42 450,-139 491.41,-164.94 518.21,-220.3 527.68,-242.5"/>
<polygon fill="#9a32cd" stroke="#9a32cd" points="317.8,-97.56 307.57,-100.32 317.29,-104.54 317.8,-97.56"/>
<text text-anchor="middle" x="395.5" y="-142" font-family="Helvetica,sans-Serif" font-size="10.00"> Tunes</text>
</g>
<!-- Node14 -->
<g id="node14" class="node">
<title>Node14</title>
<g id="a_node14"><a xlink:title=" ">
<polygon fill="white" stroke="#666666" points="284,-67.5 180,-67.5 180,-48.5 284,-48.5 284,-67.5"/>
<text text-anchor="middle" x="232" y="-55.5" font-family="Helvetica,sans-Serif" font-size="10.00">std::vector&lt; int &gt;</text>
</a>
</g>
</g>
<!-- Node14&#45;&gt;Node2 -->
<g id="edge13" class="edge">
<title>Node14&#45;&gt;Node2</title>
<path fill="none" stroke="#9a32cd" stroke-dasharray="5,2" d="M294.36,-47.9C341.14,-43.61 404.99,-45.46 450,-77 508.47,-117.96 526.06,-211.91 530.32,-242.31"/>
<polygon fill="#9a32cd" stroke="#9a32cd" points="293.94,-44.43 284.35,-48.94 294.66,-51.39 293.94,-44.43"/>
<text text-anchor="middle" x="395.5" y="-91" font-family="Helvetica,sans-Serif" font-size="10.00"> CircularBoundsIndex</text>
<text text-anchor="middle" x="395.5" y="-80" font-family="Helvetica,sans-Serif" font-size="10.00">FlipParameterIndex</text>
</g>
<!-- Node15 -->
<g id="node15" class="node">
<title>Node15</title>
<g id="a_node15"><a xlink:title=" ">
<polygon fill="white" stroke="#666666" points="293,-30 171,-30 171,0 293,0 293,-30"/>
<text text-anchor="start" x="179" y="-18" font-family="Helvetica,sans-Serif" font-size="10.00">std::vector&lt; std::pair</text>
<text text-anchor="middle" x="232" y="-7" font-family="Helvetica,sans-Serif" font-size="10.00">&lt; double, double &gt; &gt;</text>
</a>
</g>
</g>
<!-- Node15&#45;&gt;Node2 -->
<g id="edge14" class="edge">
<title>Node15&#45;&gt;Node2</title>
<path fill="none" stroke="#9a32cd" stroke-dasharray="5,2" d="M303.64,-2.34C349.74,1.87 408.8,-0.87 450,-32 520.84,-85.53 530.13,-207.43 531.33,-242.44"/>
<polygon fill="#9a32cd" stroke="#9a32cd" points="303,1.11 293.42,-3.41 303.72,-5.85 303,1.11"/>
<text text-anchor="middle" x="395.5" y="-35" font-family="Helvetica,sans-Serif" font-size="10.00"> CircularBoundsValues</text>
</g>
</g>
</svg>
