<?xml version="1.0" encoding="UTF-8" standalone="no"?>
<!DOCTYPE svg PUBLIC "-//W3C//DTD SVG 1.1//EN"
 "http://www.w3.org/Graphics/SVG/1.1/DTD/svg11.dtd">
<!-- Generated by graphviz version 2.43.0 (0)
 -->
<!-- Title: OscProcessor Pages: 1 -->
<svg width="662pt" height="772pt"
 viewBox="0.00 0.00 662.00 772.26" xmlns="http://www.w3.org/2000/svg" xmlns:xlink="http://www.w3.org/1999/xlink">
<g id="graph0" class="graph" transform="scale(1 1) rotate(0) translate(4 768.26)">
<title>OscProcessor</title>
<!-- Node1 -->
<g id="node1" class="node">
<title>Node1</title>
<g id="a_node1"><a xlink:title="This class extends MCMC and allow specialised for Oscillation parameters analysis which require speci...">
<polygon fill="#999999" stroke="#666666" points="654,-548.76 572,-548.76 572,-529.76 654,-529.76 654,-548.76"/>
<text text-anchor="middle" x="613" y="-536.76" font-family="Helvetica,sans-Serif" font-size="10.00">OscProcessor</text>
</a>
</g>
</g>
<!-- Node2 -->
<g id="node2" class="node">
<title>Node2</title>
<g id="a_node2"><a xlink:href="classMCMCProcessor.html" target="_top" xlink:title="Class responsible for processing MCMC chains, performing diagnostics, generating plots,...">
<polygon fill="white" stroke="#666666" points="535,-356.76 440,-356.76 440,-337.76 535,-337.76 535,-356.76"/>
<text text-anchor="middle" x="487.5" y="-344.76" font-family="Helvetica,sans-Serif" font-size="10.00">MCMCProcessor</text>
</a>
</g>
</g>
<!-- Node2&#45;&gt;Node1 -->
<g id="edge1" class="edge">
<title>Node2&#45;&gt;Node1</title>
<path fill="none" stroke="#63b8ff" d="M500.06,-365.23C525.64,-405.01 586.32,-499.34 605.84,-529.68"/>
<polygon fill="#63b8ff" stroke="#63b8ff" points="502.98,-363.3 494.62,-356.78 497.09,-367.09 502.98,-363.3"/>
</g>
<!-- Node3 -->
<g id="node3" class="node">
<title>Node3</title>
<g id="a_node3"><a xlink:title=" ">
<polygon fill="white" stroke="#666666" points="258,-714.76 193,-714.76 193,-695.76 258,-695.76 258,-714.76"/>
<text text-anchor="middle" x="225.5" y="-702.76" font-family="Helvetica,sans-Serif" font-size="10.00">std::string</text>
</a>
</g>
</g>
<!-- Node3&#45;&gt;Node1 -->
<g id="edge19" class="edge">
<title>Node3&#45;&gt;Node1</title>
<path fill="none" stroke="#9a32cd" stroke-dasharray="5,2" d="M265.66,-717.49C306.27,-728.01 370.85,-738.56 422,-718.26 512.56,-682.32 585.02,-580.49 605.91,-548.8"/>
<polygon fill="#9a32cd" stroke="#9a32cd" points="266.44,-714.08 255.88,-714.84 264.61,-720.84 266.44,-714.08"/>
<text text-anchor="middle" x="487.5" y="-756.26" font-family="Helvetica,sans-Serif" font-size="10.00"> DeltaCPName</text>
<text text-anchor="middle" x="487.5" y="-745.26" font-family="Helvetica,sans-Serif" font-size="10.00">DeltaM2_23Name</text>
<text text-anchor="middle" x="487.5" y="-734.26" font-family="Helvetica,sans-Serif" font-size="10.00">Sin2Theta12Name</text>
<text text-anchor="middle" x="487.5" y="-723.26" font-family="Helvetica,sans-Serif" font-size="10.00">Sin2Theta13Name</text>
<text text-anchor="middle" x="487.5" y="-712.26" font-family="Helvetica,sans-Serif" font-size="10.00">Sin2Theta23Name</text>
</g>
<!-- Node3&#45;&gt;Node2 -->
<g id="edge2" class="edge">
<title>Node3&#45;&gt;Node2</title>
<path fill="none" stroke="#9a32cd" stroke-dasharray="5,2" d="M256.4,-691.66C276.41,-682.87 303.47,-671.56 328,-663.26 368.95,-649.41 392.08,-669.46 422,-638.26 462.38,-596.15 481.67,-402.44 485.69,-356.87"/>
<polygon fill="#9a32cd" stroke="#9a32cd" points="254.91,-688.5 247.19,-695.75 257.75,-694.89 254.91,-688.5"/>
<text text-anchor="middle" x="375" y="-710.26" font-family="Helvetica,sans-Serif" font-size="10.00"> MCMCFile</text>
<text text-anchor="middle" x="375" y="-699.26" font-family="Helvetica,sans-Serif" font-size="10.00">OutputName</text>
<text text-anchor="middle" x="375" y="-688.26" font-family="Helvetica,sans-Serif" font-size="10.00">OutputSuffix</text>
<text text-anchor="middle" x="375" y="-677.26" font-family="Helvetica,sans-Serif" font-size="10.00">Posterior1DCut</text>
<text text-anchor="middle" x="375" y="-666.26" font-family="Helvetica,sans-Serif" font-size="10.00">StepCut</text>
</g>
<!-- Node4 -->
<g id="node4" class="node">
<title>Node4</title>
<g id="a_node4"><a xlink:title=" ">
<polygon fill="white" stroke="#666666" points="104,-720.26 0,-720.26 0,-690.26 104,-690.26 104,-720.26"/>
<text text-anchor="start" x="8" y="-708.26" font-family="Helvetica,sans-Serif" font-size="10.00">std::basic_string&lt;</text>
<text text-anchor="middle" x="52" y="-697.26" font-family="Helvetica,sans-Serif" font-size="10.00"> Char &gt;</text>
</a>
</g>
</g>
<!-- Node4&#45;&gt;Node3 -->
<g id="edge3" class="edge">
<title>Node4&#45;&gt;Node3</title>
<path fill="none" stroke="#63b8ff" d="M114.78,-705.26C141.2,-705.26 170.92,-705.26 192.76,-705.26"/>
<polygon fill="#63b8ff" stroke="#63b8ff" points="114.46,-701.76 104.46,-705.26 114.46,-708.76 114.46,-701.76"/>
</g>
<!-- Node5 -->
<g id="node5" class="node">
<title>Node5</title>
<g id="a_node5"><a xlink:title=" ">
<polygon fill="white" stroke="#666666" points="291,-650.26 160,-650.26 160,-620.26 291,-620.26 291,-650.26"/>
<text text-anchor="start" x="168" y="-638.26" font-family="Helvetica,sans-Serif" font-size="10.00">std::vector&lt; std::vector</text>
<text text-anchor="middle" x="225.5" y="-627.26" font-family="Helvetica,sans-Serif" font-size="10.00">&lt; std::string &gt; &gt;</text>
</a>
</g>
</g>
<!-- Node5&#45;&gt;Node2 -->
<g id="edge4" class="edge">
<title>Node5&#45;&gt;Node2</title>
<path fill="none" stroke="#9a32cd" stroke-dasharray="5,2" d="M301.13,-627.41C352.43,-621.34 412.89,-612.59 422,-604.26 459.92,-569.56 480.79,-399.56 485.48,-356.96"/>
<polygon fill="#9a32cd" stroke="#9a32cd" points="300.54,-623.95 291.01,-628.58 301.34,-630.9 300.54,-623.95"/>
<text text-anchor="middle" x="375" y="-626.26" font-family="Helvetica,sans-Serif" font-size="10.00"> CovPos</text>
</g>
<!-- Node6 -->
<g id="node6" class="node">
<title>Node6</title>
<g id="a_node6"><a xlink:title=" ">
<polygon fill="white" stroke="#666666" points="281.5,-602.26 169.5,-602.26 169.5,-572.26 281.5,-572.26 281.5,-602.26"/>
<text text-anchor="start" x="177.5" y="-590.26" font-family="Helvetica,sans-Serif" font-size="10.00">std::vector&lt; YAML::</text>
<text text-anchor="middle" x="225.5" y="-579.26" font-family="Helvetica,sans-Serif" font-size="10.00">Node &gt;</text>
</a>
</g>
</g>
<!-- Node6&#45;&gt;Node2 -->
<g id="edge5" class="edge">
<title>Node6&#45;&gt;Node2</title>
<path fill="none" stroke="#9a32cd" stroke-dasharray="5,2" d="M292.06,-590.02C340.99,-590.67 402.6,-588.08 422,-572.26 456.88,-543.82 479.69,-396.15 485.2,-356.87"/>
<polygon fill="#9a32cd" stroke="#9a32cd" points="291.89,-586.51 281.83,-589.83 291.76,-593.51 291.89,-586.51"/>
<text text-anchor="middle" x="375" y="-592.26" font-family="Helvetica,sans-Serif" font-size="10.00"> CovConfig</text>
</g>
<!-- Node7 -->
<g id="node7" class="node">
<title>Node7</title>
<g id="a_node7"><a xlink:title=" ">
<polygon fill="white" stroke="#666666" points="288,-547.76 163,-547.76 163,-528.76 288,-528.76 288,-547.76"/>
<text text-anchor="middle" x="225.5" y="-535.76" font-family="Helvetica,sans-Serif" font-size="10.00">std::vector&lt; TString &gt;</text>
</a>
</g>
</g>
<!-- Node7&#45;&gt;Node2 -->
<g id="edge6" class="edge">
<title>Node7&#45;&gt;Node2</title>
<path fill="none" stroke="#9a32cd" stroke-dasharray="5,2" d="M298.39,-537.84C345.99,-536.15 403.03,-530.96 422,-516.26 474.63,-475.49 484.33,-386.35 486.1,-356.91"/>
<polygon fill="#9a32cd" stroke="#9a32cd" points="298.28,-534.34 288.39,-538.15 298.49,-541.34 298.28,-534.34"/>
<text text-anchor="middle" x="375" y="-560.26" font-family="Helvetica,sans-Serif" font-size="10.00"> BranchNames</text>
<text text-anchor="middle" x="375" y="-549.26" font-family="Helvetica,sans-Serif" font-size="10.00">SampleName_v</text>
<text text-anchor="middle" x="375" y="-538.26" font-family="Helvetica,sans-Serif" font-size="10.00">SystName_v</text>
</g>
<!-- Node8 -->
<g id="node8" class="node">
<title>Node8</title>
<g id="a_node8"><a xlink:title=" ">
<polygon fill="white" stroke="#666666" points="295.5,-488.76 155.5,-488.76 155.5,-469.76 295.5,-469.76 295.5,-488.76"/>
<text text-anchor="middle" x="225.5" y="-476.76" font-family="Helvetica,sans-Serif" font-size="10.00">std::vector&lt; std::string &gt;</text>
</a>
</g>
</g>
<!-- Node8&#45;&gt;Node2 -->
<g id="edge7" class="edge">
<title>Node8&#45;&gt;Node2</title>
<path fill="none" stroke="#9a32cd" stroke-dasharray="5,2" d="M305.83,-473.75C351.28,-469.32 402.97,-461.72 422,-449.26 456.88,-426.43 476.51,-377.46 483.52,-356.78"/>
<polygon fill="#9a32cd" stroke="#9a32cd" points="305.27,-470.28 295.64,-474.7 305.92,-477.25 305.27,-470.28"/>
<text text-anchor="middle" x="375" y="-506.26" font-family="Helvetica,sans-Serif" font-size="10.00"> ExcludedNames</text>
<text text-anchor="middle" x="375" y="-495.26" font-family="Helvetica,sans-Serif" font-size="10.00">ExcludedTypes</text>
<text text-anchor="middle" x="375" y="-484.26" font-family="Helvetica,sans-Serif" font-size="10.00">NDSamplesNames</text>
<text text-anchor="middle" x="375" y="-473.26" font-family="Helvetica,sans-Serif" font-size="10.00">ParameterGroup</text>
</g>
<!-- Node9 -->
<g id="node9" class="node">
<title>Node9</title>
<g id="a_node9"><a xlink:title=" ">
<polygon fill="white" stroke="#666666" points="281.5,-451.76 169.5,-451.76 169.5,-432.76 281.5,-432.76 281.5,-451.76"/>
<text text-anchor="middle" x="225.5" y="-439.76" font-family="Helvetica,sans-Serif" font-size="10.00">std::vector&lt; bool &gt;</text>
</a>
</g>
</g>
<!-- Node9&#45;&gt;Node2 -->
<g id="edge8" class="edge">
<title>Node9&#45;&gt;Node2</title>
<path fill="none" stroke="#9a32cd" stroke-dasharray="5,2" d="M291.6,-441.9C331.18,-439.33 381.68,-431.71 422,-411.26 447.61,-398.27 469.4,-371.4 479.87,-356.96"/>
<polygon fill="#9a32cd" stroke="#9a32cd" points="291.32,-438.41 281.53,-442.47 291.71,-445.4 291.32,-438.41"/>
<text text-anchor="middle" x="375" y="-440.26" font-family="Helvetica,sans-Serif" font-size="10.00"> IamVaried</text>
</g>
<!-- Node10 -->
<g id="node10" class="node">
<title>Node10</title>
<g id="a_node10"><a xlink:title=" ">
<polygon fill="white" stroke="#666666" points="291,-414.26 160,-414.26 160,-384.26 291,-384.26 291,-414.26"/>
<text text-anchor="start" x="168" y="-402.26" font-family="Helvetica,sans-Serif" font-size="10.00">std::vector&lt; std::vector</text>
<text text-anchor="middle" x="225.5" y="-391.26" font-family="Helvetica,sans-Serif" font-size="10.00">&lt; TString &gt; &gt;</text>
</a>
</g>
</g>
<!-- Node10&#45;&gt;Node2 -->
<g id="edge9" class="edge">
<title>Node10&#45;&gt;Node2</title>
<path fill="none" stroke="#9a32cd" stroke-dasharray="5,2" d="M301.29,-399.22C338.27,-397.49 383.17,-392.78 422,-381.26 440.45,-375.79 459.73,-364.83 472.35,-356.83"/>
<polygon fill="#9a32cd" stroke="#9a32cd" points="300.94,-395.73 291.09,-399.63 301.22,-402.72 300.94,-395.73"/>
<text text-anchor="middle" x="375" y="-399.26" font-family="Helvetica,sans-Serif" font-size="10.00"> ParamNames</text>
</g>
<!-- Node11 -->
<g id="node11" class="node">
<title>Node11</title>
<g id="a_node11"><a xlink:title=" ">
<polygon fill="white" stroke="#666666" points="291,-366.26 160,-366.26 160,-336.26 291,-336.26 291,-366.26"/>
<text text-anchor="start" x="168" y="-354.26" font-family="Helvetica,sans-Serif" font-size="10.00">std::vector&lt; std::vector</text>
<text text-anchor="middle" x="225.5" y="-343.26" font-family="Helvetica,sans-Serif" font-size="10.00">&lt; double &gt; &gt;</text>
</a>
</g>
</g>
<!-- Node11&#45;&gt;Node2 -->
<g id="edge10" class="edge">
<title>Node11&#45;&gt;Node2</title>
<path fill="none" stroke="#9a32cd" stroke-dasharray="5,2" d="M301.3,-348.85C310.3,-348.62 319.36,-348.42 328,-348.26 365.56,-347.59 408.12,-347.35 439.68,-347.27"/>
<polygon fill="#9a32cd" stroke="#9a32cd" points="301.1,-345.36 291.2,-349.12 301.29,-352.35 301.1,-345.36"/>
<text text-anchor="middle" x="375" y="-373.26" font-family="Helvetica,sans-Serif" font-size="10.00"> ParamCentral</text>
<text text-anchor="middle" x="375" y="-362.26" font-family="Helvetica,sans-Serif" font-size="10.00">ParamErrors</text>
<text text-anchor="middle" x="375" y="-351.26" font-family="Helvetica,sans-Serif" font-size="10.00">ParamNom</text>
</g>
<!-- Node12 -->
<g id="node12" class="node">
<title>Node12</title>
<g id="a_node12"><a xlink:title=" ">
<polygon fill="white" stroke="#666666" points="291,-318.26 160,-318.26 160,-288.26 291,-288.26 291,-318.26"/>
<text text-anchor="start" x="168" y="-306.26" font-family="Helvetica,sans-Serif" font-size="10.00">std::vector&lt; std::vector</text>
<text text-anchor="middle" x="225.5" y="-295.26" font-family="Helvetica,sans-Serif" font-size="10.00">&lt; bool &gt; &gt;</text>
</a>
</g>
</g>
<!-- Node12&#45;&gt;Node2 -->
<g id="edge11" class="edge">
<title>Node12&#45;&gt;Node2</title>
<path fill="none" stroke="#9a32cd" stroke-dasharray="5,2" d="M301.51,-312.93C337.99,-318.01 382.41,-324.73 422,-332.26 430.36,-333.85 439.27,-335.77 447.73,-337.71"/>
<polygon fill="#9a32cd" stroke="#9a32cd" points="301.83,-309.44 291.44,-311.55 300.87,-316.38 301.83,-309.44"/>
<text text-anchor="middle" x="375" y="-335.26" font-family="Helvetica,sans-Serif" font-size="10.00"> ParamFlat</text>
</g>
<!-- Node13 -->
<g id="node13" class="node">
<title>Node13</title>
<g id="a_node13"><a xlink:title=" ">
<polygon fill="white" stroke="#666666" points="277.5,-269.76 173.5,-269.76 173.5,-250.76 277.5,-250.76 277.5,-269.76"/>
<text text-anchor="middle" x="225.5" y="-257.76" font-family="Helvetica,sans-Serif" font-size="10.00">std::vector&lt; int &gt;</text>
</a>
</g>
</g>
<!-- Node13&#45;&gt;Node2 -->
<g id="edge12" class="edge">
<title>Node13&#45;&gt;Node2</title>
<path fill="none" stroke="#9a32cd" stroke-dasharray="5,2" d="M287.9,-255.45C328,-254.84 380.42,-258.95 422,-279.26 448.9,-292.4 470.45,-321.78 480.45,-337.27"/>
<polygon fill="#9a32cd" stroke="#9a32cd" points="287.64,-251.96 277.73,-255.71 287.82,-258.95 287.64,-251.96"/>
<text text-anchor="middle" x="375" y="-304.26" font-family="Helvetica,sans-Serif" font-size="10.00"> NDSamplesBins</text>
<text text-anchor="middle" x="375" y="-293.26" font-family="Helvetica,sans-Serif" font-size="10.00">ParamTypeStartPos</text>
<text text-anchor="middle" x="375" y="-282.26" font-family="Helvetica,sans-Serif" font-size="10.00">nParam</text>
</g>
<!-- Node14 -->
<g id="node14" class="node">
<title>Node14</title>
<g id="a_node14"><a xlink:title=" ">
<polygon fill="white" stroke="#666666" points="310,-232.76 141,-232.76 141,-213.76 310,-213.76 310,-232.76"/>
<text text-anchor="middle" x="225.5" y="-220.76" font-family="Helvetica,sans-Serif" font-size="10.00">std::vector&lt; ParameterEnum &gt;</text>
</a>
</g>
</g>
<!-- Node14&#45;&gt;Node2 -->
<g id="edge13" class="edge">
<title>Node14&#45;&gt;Node2</title>
<path fill="none" stroke="#9a32cd" stroke-dasharray="5,2" d="M320.31,-214.93C354.53,-216.09 392.13,-222.62 422,-241.26 458.55,-264.07 477.36,-315.94 483.84,-337.54"/>
<polygon fill="#9a32cd" stroke="#9a32cd" points="320.35,-211.43 310.28,-214.74 320.21,-218.43 320.35,-211.43"/>
<text text-anchor="middle" x="375" y="-244.26" font-family="Helvetica,sans-Serif" font-size="10.00"> ParamType</text>
</g>
<!-- Node15 -->
<g id="node15" class="node">
<title>Node15</title>
<g id="a_node15"><a xlink:title=" ">
<polygon fill="white" stroke="#666666" points="290.5,-195.76 160.5,-195.76 160.5,-176.76 290.5,-176.76 290.5,-195.76"/>
<text text-anchor="middle" x="225.5" y="-183.76" font-family="Helvetica,sans-Serif" font-size="10.00">std::unique_ptr&lt; TF1 &gt;</text>
</a>
</g>
</g>
<!-- Node15&#45;&gt;Node2 -->
<g id="edge14" class="edge">
<title>Node15&#45;&gt;Node2</title>
<path fill="none" stroke="#9a32cd" stroke-dasharray="5,2" d="M284.96,-175.53C326.84,-171.15 382.57,-172.44 422,-200.26 469.59,-233.84 482.47,-310.57 485.59,-337.61"/>
<polygon fill="#9a32cd" stroke="#9a32cd" points="284.42,-172.07 274.9,-176.71 285.24,-179.02 284.42,-172.07"/>
<text text-anchor="middle" x="375" y="-203.26" font-family="Helvetica,sans-Serif" font-size="10.00"> Gauss</text>
</g>
<!-- Node16 -->
<g id="node16" class="node">
<title>Node16</title>
<g id="a_node16"><a xlink:title=" ">
<polygon fill="white" stroke="#666666" points="302,-158.76 149,-158.76 149,-139.76 302,-139.76 302,-158.76"/>
<text text-anchor="middle" x="225.5" y="-146.76" font-family="Helvetica,sans-Serif" font-size="10.00">std::unique_ptr&lt; TCanvas &gt;</text>
</a>
</g>
</g>
<!-- Node16&#45;&gt;Node2 -->
<g id="edge15" class="edge">
<title>Node16&#45;&gt;Node2</title>
<path fill="none" stroke="#9a32cd" stroke-dasharray="5,2" d="M272.91,-137.81C315.92,-130.08 379.49,-126.35 422,-158.26 481.61,-203.01 486.59,-305.9 486.65,-337.71"/>
<polygon fill="#9a32cd" stroke="#9a32cd" points="272.13,-134.39 262.98,-139.73 273.46,-141.27 272.13,-134.39"/>
<text text-anchor="middle" x="375" y="-161.26" font-family="Helvetica,sans-Serif" font-size="10.00"> Posterior</text>
</g>
<!-- Node17 -->
<g id="node17" class="node">
<title>Node17</title>
<g id="a_node17"><a xlink:title=" ">
<polygon fill="white" stroke="#666666" points="288.5,-121.76 162.5,-121.76 162.5,-102.76 288.5,-102.76 288.5,-121.76"/>
<text text-anchor="middle" x="225.5" y="-109.76" font-family="Helvetica,sans-Serif" font-size="10.00">std::vector&lt; TH1D * &gt;</text>
</a>
</g>
</g>
<!-- Node17&#45;&gt;Node2 -->
<g id="edge16" class="edge">
<title>Node17&#45;&gt;Node2</title>
<path fill="none" stroke="#9a32cd" stroke-dasharray="5,2" d="M267.55,-100.37C310.68,-90.57 378.22,-83.18 422,-117.26 458.32,-145.54 480.15,-297.73 485.31,-337.66"/>
<polygon fill="#9a32cd" stroke="#9a32cd" points="266.57,-97.01 257.67,-102.76 268.21,-103.81 266.57,-97.01"/>
<text text-anchor="middle" x="375" y="-120.26" font-family="Helvetica,sans-Serif" font-size="10.00"> hpost</text>
</g>
<!-- Node18 -->
<g id="node18" class="node">
<title>Node18</title>
<g id="a_node18"><a xlink:title=" ">
<polygon fill="white" stroke="#666666" points="291,-84.26 160,-84.26 160,-54.26 291,-54.26 291,-84.26"/>
<text text-anchor="start" x="168" y="-72.26" font-family="Helvetica,sans-Serif" font-size="10.00">std::vector&lt; std::vector</text>
<text text-anchor="middle" x="225.5" y="-61.26" font-family="Helvetica,sans-Serif" font-size="10.00">&lt; TH2D * &gt; &gt;</text>
</a>
</g>
</g>
<!-- Node18&#45;&gt;Node2 -->
<g id="edge17" class="edge">
<title>Node18&#45;&gt;Node2</title>
<path fill="none" stroke="#9a32cd" stroke-dasharray="5,2" d="M294.73,-52.67C335.99,-46.87 387.17,-47.72 422,-76.26 463.99,-110.67 481.94,-293.14 485.72,-337.52"/>
<polygon fill="#9a32cd" stroke="#9a32cd" points="294.08,-49.23 284.74,-54.23 295.16,-56.15 294.08,-49.23"/>
<text text-anchor="middle" x="375" y="-79.26" font-family="Helvetica,sans-Serif" font-size="10.00"> hpost2D</text>
</g>
<!-- Node19 -->
<g id="node19" class="node">
<title>Node19</title>
<g id="a_node19"><a xlink:title=" ">
<polygon fill="white" stroke="#666666" points="295,-34.76 156,-34.76 156,-15.76 295,-15.76 295,-34.76"/>
<text text-anchor="middle" x="225.5" y="-22.76" font-family="Helvetica,sans-Serif" font-size="10.00">std::unique_ptr&lt; TH2D &gt;</text>
</a>
</g>
</g>
<!-- Node19&#45;&gt;Node2 -->
<g id="edge18" class="edge">
<title>Node19&#45;&gt;Node2</title>
<path fill="none" stroke="#9a32cd" stroke-dasharray="5,2" d="M262.5,-12.69C305.52,-0.17 377.29,12.4 422,-24.26 472.3,-65.51 484.14,-288.53 486.15,-337.68"/>
<polygon fill="#9a32cd" stroke="#9a32cd" points="261.28,-9.4 252.73,-15.67 263.32,-16.09 261.28,-9.4"/>
<text text-anchor="middle" x="375" y="-38.26" font-family="Helvetica,sans-Serif" font-size="10.00"> hviolin</text>
<text text-anchor="middle" x="375" y="-27.26" font-family="Helvetica,sans-Serif" font-size="10.00">hviolin_prior</text>
</g>
</g>
</svg>
