<?xml version="1.0" encoding="UTF-8" standalone="no"?>
<!DOCTYPE svg PUBLIC "-//W3C//DTD SVG 1.1//EN"
 "http://www.w3.org/Graphics/SVG/1.1/DTD/svg11.dtd">
<!-- Generated by graphviz version 2.44.0 (0)
 -->
<!-- Title: SMonolith Pages: 1 -->
<!--zoomable 326 -->
<svg id="main" version="1.1" xmlns="http://www.w3.org/2000/svg" xmlns:xlink="http://www.w3.org/1999/xlink" xml:space="preserve" onload="init(evt)">
<style type="text/css"><![CDATA[
.edge:hover path { stroke: red; }
.edge:hover polygon { stroke: red; fill: red; }
]]></style>
<script type="text/javascript"><![CDATA[
var edges = document.getElementsByTagName('g');
if (edges && edges.length) {
  for (var i=0;i<edges.length;i++) {
    if (edges[i].id.substr(0,4)=='edge') {
      edges[i].setAttribute('class','edge');
    }
  }
}
]]></script>
        <defs>
                <circle id="rim" cx="0" cy="0" r="7"/>
                <circle id="rim2" cx="0" cy="0" r="3.5"/>
                <g id="zoomPlus">
                        <use xlink:href="#rim" fill="#404040">
                                <set attributeName="fill" to="#808080" begin="zoomplus.mouseover" end="zoomplus.mouseout"/>
                        </use>
                        <path d="M-4,0h8M0,-4v8" fill="none" stroke="white" stroke-width="1.5" pointer-events="none"/>
                </g>
                <g id="zoomMin">
                        <use xlink:href="#rim" fill="#404040">
                                <set attributeName="fill" to="#808080" begin="zoomminus.mouseover" end="zoomminus.mouseout"/>
                        </use>
                        <path d="M-4,0h8" fill="none" stroke="white" stroke-width="1.5" pointer-events="none"/>
                </g>
                <g id="dirArrow">
                        <path fill="none" stroke="white" stroke-width="1.5" d="M0,-3.0v7 M-2.5,-0.5L0,-3.0L2.5,-0.5"/>
                </g>
               <g id="resetDef">
                       <use xlink:href="#rim2" fill="#404040">
                               <set attributeName="fill" to="#808080" begin="reset.mouseover" end="reset.mouseout"/>
                       </use>
               </g>
        </defs>

<script type="text/javascript">
var viewWidth = 551;
var viewHeight = 326;
var sectionId = 'dynsection-1';
</script>
<script xlink:href="svgpan.js"/>
<svg id="graph" class="graph">
<g id="viewport">
<title>SMonolith</title>
<polygon fill="white" stroke="transparent" points="-4,4 -4,-322 547,-322 547,4 -4,4"/>
<!-- Node1 -->
<g id="node1" class="node">
<title>Node1</title>
<g id="a_node1"><a xlink:title="Even&#45;by&#45;event class calculating response for spline parameters. It is possible to use GPU acceleratio...">
<polygon fill="#bfbfbf" stroke="black" points="483,-142.5 483,-161.5 543,-161.5 543,-142.5 483,-142.5"/>
<text text-anchor="middle" x="513" y="-149.5" font-family="Helvetica" font-size="10.00">SMonolith</text>
</a>
</g>
</g>
<!-- Node2 -->
<g id="node2" class="node">
<title>Node2</title>
<g id="a_node2"><a xlink:href="classSplineBase.html" target="_top" xlink:title="Base class for calculating weight from spline.">
<polygon fill="white" stroke="black" points="271.5,-297.5 271.5,-316.5 337.5,-316.5 337.5,-297.5 271.5,-297.5"/>
<text text-anchor="middle" x="304.5" y="-304.5" font-family="Helvetica" font-size="10.00">SplineBase</text>
</a>
</g>
</g>
<!-- Node2&#45;&gt;Node1 -->
<g id="edge1" class="edge">
<title>Node2&#45;&gt;Node1</title>
<path fill="none" stroke="midnightblue" d="M347.95,-307.86C383.17,-306.34 432.57,-298.78 465,-271 499.08,-241.81 508.64,-184.59 511.16,-161.75"/>
<polygon fill="midnightblue" stroke="midnightblue" points="347.41,-304.37 337.51,-308.15 347.6,-311.37 347.41,-304.37"/>
</g>
<!-- Node3 -->
<g id="node3" class="node">
<title>Node3</title>
<g id="a_node3"><a xlink:title=" ">
<polygon fill="white" stroke="#bfbfbf" points="0,-297.5 0,-316.5 143,-316.5 143,-297.5 0,-297.5"/>
<text text-anchor="middle" x="71.5" y="-304.5" font-family="Helvetica" font-size="10.00">std::vector&lt; FastSplineInfo &gt;</text>
</a>
</g>
</g>
<!-- Node3&#45;&gt;Node2 -->
<g id="edge2" class="edge">
<title>Node3&#45;&gt;Node2</title>
<path fill="none" stroke="#9a32cd" stroke-dasharray="5,2" d="M153.24,-307C193.86,-307 240.81,-307 271.27,-307"/>
<polygon fill="#9a32cd" stroke="#9a32cd" points="153.06,-303.5 143.06,-307 153.06,-310.5 153.06,-303.5"/>
<text text-anchor="middle" x="196" y="-310" font-family="Helvetica" font-size="10.00"> SplineInfoArray</text>
</g>
<!-- Node4 -->
<g id="node4" class="node">
<title>Node4</title>
<g id="a_node4"><a xlink:href="structSplineMonoStruct.html" target="_top" xlink:title="KS: Struct storing information for spline monolith.">
<polygon fill="white" stroke="black" points="257.5,-142.5 257.5,-161.5 351.5,-161.5 351.5,-142.5 257.5,-142.5"/>
<text text-anchor="middle" x="304.5" y="-149.5" font-family="Helvetica" font-size="10.00">SplineMonoStruct</text>
</a>
</g>
</g>
<!-- Node4&#45;&gt;Node1 -->
<g id="edge3" class="edge">
<title>Node4&#45;&gt;Node1</title>
<path fill="none" stroke="#9a32cd" stroke-dasharray="5,2" d="M361.79,-152C400.97,-152 451.6,-152 482.93,-152"/>
<polygon fill="#9a32cd" stroke="#9a32cd" points="361.59,-148.5 351.59,-152 361.59,-155.5 361.59,-148.5"/>
<text text-anchor="middle" x="421.5" y="-155" font-family="Helvetica" font-size="10.00"> cpu_spline_handler</text>
</g>
<!-- Node5 -->
<g id="node5" class="node">
<title>Node5</title>
<g id="a_node5"><a xlink:title=" ">
<polygon fill="white" stroke="#bfbfbf" points="22,-176.5 22,-195.5 121,-195.5 121,-176.5 22,-176.5"/>
<text text-anchor="middle" x="71.5" y="-183.5" font-family="Helvetica" font-size="10.00">std::vector&lt; float &gt;</text>
</a>
</g>
</g>
<!-- Node5&#45;&gt;Node1 -->
<g id="edge9" class="edge">
<title>Node5&#45;&gt;Node1</title>
<path fill="none" stroke="#9a32cd" stroke-dasharray="5,2" d="M131.08,-188.31C208.34,-190.2 348.17,-189.56 465,-167 471.9,-165.67 479.2,-163.65 485.93,-161.52"/>
<polygon fill="#9a32cd" stroke="#9a32cd" points="131.15,-184.81 121.06,-188.05 130.96,-191.81 131.15,-184.81"/>
<text text-anchor="middle" x="304.5" y="-190" font-family="Helvetica" font-size="10.00"> cpu_coeff_TF1_many</text>
</g>
<!-- Node5&#45;&gt;Node4 -->
<g id="edge4" class="edge">
<title>Node5&#45;&gt;Node4</title>
<path fill="none" stroke="#9a32cd" stroke-dasharray="5,2" d="M111.71,-173.61C126.95,-169.25 144.65,-164.76 161,-162 192.91,-156.61 229.32,-154.11 257.35,-152.96"/>
<polygon fill="#9a32cd" stroke="#9a32cd" points="110.69,-170.25 102.08,-176.43 112.66,-176.97 110.69,-170.25"/>
<text text-anchor="middle" x="196" y="-176" font-family="Helvetica" font-size="10.00"> coeff_many</text>
<text text-anchor="middle" x="196" y="-165" font-family="Helvetica" font-size="10.00">coeff_x</text>
</g>
<!-- Node6 -->
<g id="node6" class="node">
<title>Node6</title>
<g id="a_node6"><a xlink:title=" ">
<polygon fill="white" stroke="#bfbfbf" points="16.5,-228 16.5,-258 126.5,-258 126.5,-228 16.5,-228"/>
<text text-anchor="start" x="24.5" y="-246" font-family="Helvetica" font-size="10.00">std::vector&lt; unsigned</text>
<text text-anchor="middle" x="71.5" y="-235" font-family="Helvetica" font-size="10.00"> int &gt;</text>
</a>
</g>
</g>
<!-- Node6&#45;&gt;Node1 -->
<g id="edge10" class="edge">
<title>Node6&#45;&gt;Node1</title>
<path fill="none" stroke="#9a32cd" stroke-dasharray="5,2" d="M137.15,-244.21C217.39,-243.41 356.85,-234.39 465,-187 479.16,-180.79 493.08,-169.62 502.04,-161.56"/>
<polygon fill="#9a32cd" stroke="#9a32cd" points="136.69,-240.71 126.71,-244.27 136.73,-247.71 136.69,-240.71"/>
<text text-anchor="middle" x="304.5" y="-251" font-family="Helvetica" font-size="10.00"> cpu_nParamPerEvent</text>
<text text-anchor="middle" x="304.5" y="-240" font-family="Helvetica" font-size="10.00">cpu_nParamPerEvent_tf1</text>
</g>
<!-- Node6&#45;&gt;Node4 -->
<g id="edge5" class="edge">
<title>Node6&#45;&gt;Node4</title>
<path fill="none" stroke="#9a32cd" stroke-dasharray="5,2" d="M136.48,-224.89C165.97,-215.51 201,-202.9 231,-188 239.61,-183.72 240.57,-180.62 249,-176 258.7,-170.68 269.81,-165.62 279.46,-161.52"/>
<polygon fill="#9a32cd" stroke="#9a32cd" points="135.21,-221.62 126.71,-227.94 137.3,-228.3 135.21,-221.62"/>
<text text-anchor="middle" x="196" y="-219" font-family="Helvetica" font-size="10.00"> nKnots_arr</text>
</g>
<!-- Node7 -->
<g id="node7" class="node">
<title>Node7</title>
<g id="a_node7"><a xlink:title=" ">
<polygon fill="white" stroke="#bfbfbf" points="24.5,-97 24.5,-127 118.5,-127 118.5,-97 24.5,-97"/>
<text text-anchor="start" x="32.5" y="-115" font-family="Helvetica" font-size="10.00">std::vector&lt; short</text>
<text text-anchor="middle" x="71.5" y="-104" font-family="Helvetica" font-size="10.00"> int &gt;</text>
</a>
</g>
</g>
<!-- Node7&#45;&gt;Node1 -->
<g id="edge12" class="edge">
<title>Node7&#45;&gt;Node1</title>
<path fill="none" stroke="#9a32cd" stroke-dasharray="5,2" d="M128.64,-107.35C186.8,-103.57 280.18,-100.42 360,-111 404.84,-116.94 455.23,-132.34 485.26,-142.48"/>
<polygon fill="#9a32cd" stroke="#9a32cd" points="128.29,-103.87 118.55,-108.03 128.77,-110.85 128.29,-103.87"/>
<text text-anchor="middle" x="304.5" y="-125" font-family="Helvetica" font-size="10.00"> cpu_nPoints_arr</text>
<text text-anchor="middle" x="304.5" y="-114" font-family="Helvetica" font-size="10.00">cpu_paramNo_TF1_arr</text>
</g>
<!-- Node7&#45;&gt;Node4 -->
<g id="edge6" class="edge">
<title>Node7&#45;&gt;Node4</title>
<path fill="none" stroke="#9a32cd" stroke-dasharray="5,2" d="M128.61,-121.44C158.94,-126.57 197.03,-133.06 231,-139 239.57,-140.5 248.7,-142.12 257.49,-143.69"/>
<polygon fill="#9a32cd" stroke="#9a32cd" points="129.08,-117.97 118.64,-119.75 127.92,-124.87 129.08,-117.97"/>
<text text-anchor="middle" x="196" y="-142" font-family="Helvetica" font-size="10.00"> paramNo_arr</text>
</g>
<!-- Node8 -->
<g id="node8" class="node">
<title>Node8</title>
<g id="a_node8"><a xlink:title=" ">
<polygon fill="white" stroke="#bfbfbf" points="274.5,-38.5 274.5,-57.5 334.5,-57.5 334.5,-38.5 274.5,-38.5"/>
<text text-anchor="middle" x="304.5" y="-45.5" font-family="Helvetica" font-size="10.00">std::string</text>
</a>
</g>
</g>
<!-- Node8&#45;&gt;Node1 -->
<g id="edge7" class="edge">
<title>Node8&#45;&gt;Node1</title>
<path fill="none" stroke="#9a32cd" stroke-dasharray="5,2" d="M344.87,-43.87C379.41,-42.27 429.53,-45.09 465,-69 491.36,-86.77 504.62,-124.57 509.6,-142.36"/>
<polygon fill="#9a32cd" stroke="#9a32cd" points="344.45,-40.38 334.68,-44.48 344.88,-47.37 344.45,-40.38"/>
<text text-anchor="middle" x="421.5" y="-72" font-family="Helvetica" font-size="10.00"> FastSplineName</text>
</g>
<!-- Node9 -->
<g id="node9" class="node">
<title>Node9</title>
<g id="a_node9"><a xlink:title=" ">
<polygon fill="white" stroke="#bfbfbf" points="24,-33 24,-63 119,-63 119,-33 24,-33"/>
<text text-anchor="start" x="32" y="-51" font-family="Helvetica" font-size="10.00">std::basic_string&lt;</text>
<text text-anchor="middle" x="71.5" y="-40" font-family="Helvetica" font-size="10.00"> char &gt;</text>
</a>
</g>
</g>
<!-- Node9&#45;&gt;Node8 -->
<g id="edge8" class="edge">
<title>Node9&#45;&gt;Node8</title>
<path fill="none" stroke="midnightblue" d="M129.36,-48C175.3,-48 238.08,-48 274.36,-48"/>
<polygon fill="midnightblue" stroke="midnightblue" points="129.25,-44.5 119.25,-48 129.25,-51.5 129.25,-44.5"/>
</g>
<!-- Node10 -->
<g id="node10" class="node">
<title>Node10</title>
<g id="a_node10"><a xlink:href="classSMonolithGPU.html" target="_top" xlink:title="Class responsible for calculating spline weight on GPU.">
<polygon fill="white" stroke="black" points="264,-0.5 264,-19.5 345,-19.5 345,-0.5 264,-0.5"/>
<text text-anchor="middle" x="304.5" y="-7.5" font-family="Helvetica" font-size="10.00">SMonolithGPU</text>
</a>
</g>
</g>
<!-- Node10&#45;&gt;Node1 -->
<g id="edge11" class="edge">
<title>Node10&#45;&gt;Node1</title>
<path fill="none" stroke="#9a32cd" stroke-dasharray="5,2" d="M355.42,-3.37C389.67,-1.59 434.31,-5.07 465,-29 501.78,-57.67 509.79,-118.75 511.52,-142.39"/>
<polygon fill="#9a32cd" stroke="#9a32cd" points="354.89,0.11 345.15,-4.07 355.37,-6.88 354.89,0.11"/>
<text text-anchor="middle" x="421.5" y="-32" font-family="Helvetica" font-size="10.00"> gpu_spline_handler</text>
</g>
</g>
</svg>
        <g id="navigator" transform="translate(0 0)" fill="#404254">
                <rect fill="#f2f5e9" fill-opacity="0.5" stroke="#606060" stroke-width=".5" x="0" y="0" width="60" height="60"/>
                <use id="zoomplus" xlink:href="#zoomPlus" x="17" y="9" onmousedown="handleZoom(evt,'in')"/>
                <use id="zoomminus" xlink:href="#zoomMin" x="42" y="9" onmousedown="handleZoom(evt,'out')"/>
                <use id="reset" xlink:href="#resetDef" x="30" y="36" onmousedown="handleReset()"/>
                <g id="arrowUp" xlink:href="#dirArrow" transform="translate(30 24)" onmousedown="handlePan(0,-1)">
                  <use xlink:href="#rim" fill="#404040">
                        <set attributeName="fill" to="#808080" begin="arrowUp.mouseover" end="arrowUp.mouseout"/>
                  </use>
                  <path fill="none" stroke="white" stroke-width="1.5" d="M0,-3.0v7 M-2.5,-0.5L0,-3.0L2.5,-0.5"/>
                </g>
                <g id="arrowRight" xlink:href="#dirArrow" transform="rotate(90) translate(36 -43)" onmousedown="handlePan(1,0)">
                  <use xlink:href="#rim" fill="#404040">
                        <set attributeName="fill" to="#808080" begin="arrowRight.mouseover" end="arrowRight.mouseout"/>
                  </use>
                  <path fill="none" stroke="white" stroke-width="1.5" d="M0,-3.0v7 M-2.5,-0.5L0,-3.0L2.5,-0.5"/>
                </g>
                <g id="arrowDown" xlink:href="#dirArrow" transform="rotate(180) translate(-30 -48)" onmousedown="handlePan(0,1)">
                  <use xlink:href="#rim" fill="#404040">
                        <set attributeName="fill" to="#808080" begin="arrowDown.mouseover" end="arrowDown.mouseout"/>
                  </use>
                  <path fill="none" stroke="white" stroke-width="1.5" d="M0,-3.0v7 M-2.5,-0.5L0,-3.0L2.5,-0.5"/>
                </g>
                <g id="arrowLeft" xlink:href="#dirArrow" transform="rotate(270) translate(-36 17)" onmousedown="handlePan(-1,0)">
                  <use xlink:href="#rim" fill="#404040">
                        <set attributeName="fill" to="#808080" begin="arrowLeft.mouseover" end="arrowLeft.mouseout"/>
                  </use>
                  <path fill="none" stroke="white" stroke-width="1.5" d="M0,-3.0v7 M-2.5,-0.5L0,-3.0L2.5,-0.5"/>
                </g>
        </g>
        <svg viewBox="0 0 15 15" width="100%" height="30px" preserveAspectRatio="xMaxYMin meet">
         <g id="arrow_out" transform="scale(0.3 0.3)">
          <a xlink:href="classSMonolith__coll__graph_org.svg" target="_base">
           <rect id="button" ry="5" rx="5" y="6" x="6" height="38" width="38"
                fill="#f2f5e9" fill-opacity="0.5" stroke="#606060" stroke-width="1.0"/>
           <path id="arrow"
             d="M 11.500037,31.436501 C 11.940474,20.09759 22.043105,11.32322 32.158766,21.979434 L 37.068811,17.246167 C 37.068811,17.246167 37.088388,32 37.088388,32 L 22.160133,31.978069 C 22.160133,31.978069 26.997745,27.140456 26.997745,27.140456 C 18.528582,18.264221 13.291696,25.230495 11.500037,31.436501 z"
             style="fill:#404040;"/>
          </a>
         </g>
        </svg>
</svg>
