<?xml version="1.0" encoding="UTF-8" standalone="no"?>
<!DOCTYPE svg PUBLIC "-//W3C//DTD SVG 1.1//EN"
 "http://www.w3.org/Graphics/SVG/1.1/DTD/svg11.dtd">
<!-- Generated by graphviz version 2.43.0 (0)
 -->
<!-- Title: SampleHandlerFD Pages: 1 -->
<svg width="1363pt" height="1164pt"
 viewBox="0.00 0.00 1363.00 1164.48" xmlns="http://www.w3.org/2000/svg" xmlns:xlink="http://www.w3.org/1999/xlink">
<g id="graph0" class="graph" transform="scale(1 1) rotate(0) translate(4 1160.48)">
<title>SampleHandlerFD</title>
<!-- Node1 -->
<g id="node1" class="node">
<title>Node1</title>
<g id="a_node1"><a xlink:title="Class responsible for handling implementation of samples used in analysis, reweighting and returning ...">
<polygon fill="#999999" stroke="#666666" points="1355,-720.91 1250,-720.91 1250,-701.91 1355,-701.91 1355,-720.91"/>
<text text-anchor="middle" x="1302.5" y="-708.91" font-family="Helvetica,sans-Serif" font-size="10.00">SampleHandlerFD</text>
</a>
</g>
</g>
<!-- Node2 -->
<g id="node2" class="node">
<title>Node2</title>
<g id="a_node2"><a xlink:href="classSampleHandlerBase.html" target="_top" xlink:title="Class responsible for handling implementation of samples used in analysis, reweighting and returning ...">
<polygon fill="white" stroke="#666666" points="1018,-1148.91 902,-1148.91 902,-1129.91 1018,-1129.91 1018,-1148.91"/>
<text text-anchor="middle" x="960" y="-1136.91" font-family="Helvetica,sans-Serif" font-size="10.00">SampleHandlerBase</text>
</a>
</g>
</g>
<!-- Node2&#45;&gt;Node1 -->
<g id="edge1" class="edge">
<title>Node2&#45;&gt;Node1</title>
<path fill="none" stroke="#63b8ff" d="M1014.99,-1150.58C1075.96,-1159.78 1174.19,-1163.71 1232,-1109.41 1290.8,-1054.18 1300.04,-776.93 1301.31,-721.18"/>
<polygon fill="#63b8ff" stroke="#63b8ff" points="1015.22,-1147.07 1004.79,-1148.94 1014.11,-1153.99 1015.22,-1147.07"/>
</g>
<!-- Node3 -->
<g id="node3" class="node">
<title>Node3</title>
<g id="a_node3"><a xlink:title=" ">
<polygon fill="white" stroke="#666666" points="672.5,-1148.91 494.5,-1148.91 494.5,-1129.91 672.5,-1129.91 672.5,-1148.91"/>
<text text-anchor="middle" x="583.5" y="-1136.91" font-family="Helvetica,sans-Serif" font-size="10.00">std::unique_ptr&lt; MaCh3Modes &gt;</text>
</a>
</g>
</g>
<!-- Node3&#45;&gt;Node2 -->
<g id="edge2" class="edge">
<title>Node3&#45;&gt;Node2</title>
<path fill="none" stroke="#9a32cd" stroke-dasharray="5,2" d="M682.9,-1139.41C752.64,-1139.41 843.78,-1139.41 901.87,-1139.41"/>
<polygon fill="#9a32cd" stroke="#9a32cd" points="682.78,-1135.91 672.78,-1139.41 682.78,-1142.91 682.78,-1135.91"/>
<text text-anchor="middle" x="769.5" y="-1142.41" font-family="Helvetica,sans-Serif" font-size="10.00"> Modes</text>
</g>
<!-- Node4 -->
<g id="node4" class="node">
<title>Node4</title>
<g id="a_node4"><a xlink:title=" ">
<polygon fill="white" stroke="#666666" points="1042,-1111.41 878,-1111.41 878,-1081.41 1042,-1081.41 1042,-1111.41"/>
<text text-anchor="start" x="886" y="-1099.41" font-family="Helvetica,sans-Serif" font-size="10.00">std::unique_ptr&lt; BinnedSpline</text>
<text text-anchor="middle" x="960" y="-1088.41" font-family="Helvetica,sans-Serif" font-size="10.00">Handler &gt;</text>
</a>
</g>
</g>
<!-- Node4&#45;&gt;Node1 -->
<g id="edge3" class="edge">
<title>Node4&#45;&gt;Node1</title>
<path fill="none" stroke="#9a32cd" stroke-dasharray="5,2" d="M1052.4,-1096.45C1120.68,-1094.49 1206.44,-1087.14 1232,-1063.41 1284.14,-1014.97 1298.57,-772.56 1301.07,-721.04"/>
<polygon fill="#9a32cd" stroke="#9a32cd" points="1051.94,-1092.96 1042.03,-1096.71 1052.12,-1099.96 1051.94,-1092.96"/>
<text text-anchor="middle" x="1155" y="-1097.41" font-family="Helvetica,sans-Serif" font-size="10.00"> SplineHandler</text>
</g>
<!-- Node5 -->
<g id="node5" class="node">
<title>Node5</title>
<g id="a_node5"><a xlink:title=" ">
<polygon fill="white" stroke="#666666" points="1036,-1063.41 884,-1063.41 884,-1033.41 1036,-1033.41 1036,-1063.41"/>
<text text-anchor="start" x="892" y="-1051.41" font-family="Helvetica,sans-Serif" font-size="10.00">std::shared_ptr&lt; Oscillation</text>
<text text-anchor="middle" x="960" y="-1040.41" font-family="Helvetica,sans-Serif" font-size="10.00">Handler &gt;</text>
</a>
</g>
</g>
<!-- Node5&#45;&gt;Node1 -->
<g id="edge4" class="edge">
<title>Node5&#45;&gt;Node1</title>
<path fill="none" stroke="#9a32cd" stroke-dasharray="5,2" d="M1046.16,-1049.77C1115.18,-1049.03 1205.23,-1043.26 1232,-1019.41 1278.35,-978.11 1297.09,-768.78 1300.79,-721.09"/>
<polygon fill="#9a32cd" stroke="#9a32cd" points="1046.11,-1046.27 1036.14,-1049.85 1046.17,-1053.27 1046.11,-1046.27"/>
<text text-anchor="middle" x="1155" y="-1051.41" font-family="Helvetica,sans-Serif" font-size="10.00"> Oscillator</text>
</g>
<!-- Node6 -->
<g id="node6" class="node">
<title>Node6</title>
<g id="a_node6"><a xlink:title=" ">
<polygon fill="white" stroke="#666666" points="679,-614.91 488,-614.91 488,-595.91 679,-595.91 679,-614.91"/>
<text text-anchor="middle" x="583.5" y="-602.91" font-family="Helvetica,sans-Serif" font-size="10.00">std::vector&lt; FunctionalParameter &gt;</text>
</a>
</g>
</g>
<!-- Node6&#45;&gt;Node1 -->
<g id="edge5" class="edge">
<title>Node6&#45;&gt;Node1</title>
<path fill="none" stroke="#9a32cd" stroke-dasharray="5,2" d="M689.28,-604.55C860.24,-603.86 1184.95,-605.75 1232,-629.41 1264.18,-645.58 1287.34,-683.97 1296.79,-701.89"/>
<polygon fill="#9a32cd" stroke="#9a32cd" points="689.23,-601.05 679.25,-604.6 689.27,-608.05 689.23,-601.05"/>
<text text-anchor="middle" x="960" y="-612.41" font-family="Helvetica,sans-Serif" font-size="10.00"> funcParsVec</text>
</g>
<!-- Node19 -->
<g id="node19" class="node">
<title>Node19</title>
<g id="a_node19"><a xlink:href="classParameterHandlerGeneric.html" target="_top" xlink:title="Class responsible for handling of systematic error parameters with different types defined in the con...">
<polygon fill="white" stroke="#666666" points="1031.5,-530.91 888.5,-530.91 888.5,-511.91 1031.5,-511.91 1031.5,-530.91"/>
<text text-anchor="middle" x="960" y="-518.91" font-family="Helvetica,sans-Serif" font-size="10.00">ParameterHandlerGeneric</text>
</a>
</g>
</g>
<!-- Node6&#45;&gt;Node19 -->
<g id="edge37" class="edge">
<title>Node6&#45;&gt;Node19</title>
<path fill="none" stroke="#9a32cd" stroke-dasharray="5,2" d="M646.81,-594.11C663.13,-591.22 680.72,-588.14 697,-585.41 761.35,-574.58 785.41,-594.89 842,-562.41 852.96,-556.12 849.15,-546.87 860,-540.41 868.65,-535.25 878.4,-531.46 888.33,-528.67"/>
<polygon fill="#9a32cd" stroke="#9a32cd" points="646.07,-590.69 636.84,-595.89 647.3,-597.58 646.07,-590.69"/>
<text text-anchor="middle" x="769.5" y="-588.41" font-family="Helvetica,sans-Serif" font-size="10.00"> FuncParams</text>
</g>
<!-- Node7 -->
<g id="node7" class="node">
<title>Node7</title>
<g id="a_node7"><a xlink:title=" ">
<polygon fill="white" stroke="#666666" points="1017,-977.41 903,-977.41 903,-947.41 1017,-947.41 1017,-977.41"/>
<text text-anchor="start" x="911" y="-965.41" font-family="Helvetica,sans-Serif" font-size="10.00">std::unordered_map</text>
<text text-anchor="middle" x="960" y="-954.41" font-family="Helvetica,sans-Serif" font-size="10.00">&lt; std::string, int &gt;</text>
</a>
</g>
</g>
<!-- Node7&#45;&gt;Node1 -->
<g id="edge6" class="edge">
<title>Node7&#45;&gt;Node1</title>
<path fill="none" stroke="#9a32cd" stroke-dasharray="5,2" d="M1027.57,-959.07C1102.69,-954.72 1216.5,-946.12 1232,-933.41 1300.07,-877.57 1302.61,-755.84 1301.86,-720.94"/>
<polygon fill="#9a32cd" stroke="#9a32cd" points="1027.02,-955.59 1017.24,-959.65 1027.42,-962.58 1027.02,-955.59"/>
<text text-anchor="middle" x="1155" y="-980.41" font-family="Helvetica,sans-Serif" font-size="10.00"> KinematicParameters</text>
<text text-anchor="middle" x="1155" y="-969.41" font-family="Helvetica,sans-Serif" font-size="10.00">KinematicVectors</text>
<text text-anchor="middle" x="1155" y="-958.41" font-family="Helvetica,sans-Serif" font-size="10.00">funcParsNamesMap</text>
</g>
<!-- Node8 -->
<g id="node8" class="node">
<title>Node8</title>
<g id="a_node8"><a xlink:title=" ">
<polygon fill="white" stroke="#666666" points="1060,-928.91 860,-928.91 860,-909.91 1060,-909.91 1060,-928.91"/>
<text text-anchor="middle" x="960" y="-916.91" font-family="Helvetica,sans-Serif" font-size="10.00">std::vector&lt; FunctionalParameter * &gt;</text>
</a>
</g>
</g>
<!-- Node8&#45;&gt;Node1 -->
<g id="edge7" class="edge">
<title>Node8&#45;&gt;Node1</title>
<path fill="none" stroke="#9a32cd" stroke-dasharray="5,2" d="M1070.4,-919.04C1134.19,-916.68 1206.9,-909.62 1232,-890.41 1288.38,-847.23 1299.05,-751.99 1301.05,-721.21"/>
<polygon fill="#9a32cd" stroke="#9a32cd" points="1070.12,-915.54 1060.25,-919.38 1070.36,-922.54 1070.12,-915.54"/>
<text text-anchor="middle" x="1155" y="-921.41" font-family="Helvetica,sans-Serif" font-size="10.00"> funcParsMap</text>
</g>
<!-- Node9 -->
<g id="node9" class="node">
<title>Node9</title>
<g id="a_node9"><a xlink:title=" ">
<polygon fill="white" stroke="#666666" points="1030,-891.41 890,-891.41 890,-861.41 1030,-861.41 1030,-891.41"/>
<text text-anchor="start" x="898" y="-879.41" font-family="Helvetica,sans-Serif" font-size="10.00">std::unordered_map</text>
<text text-anchor="middle" x="960" y="-868.41" font-family="Helvetica,sans-Serif" font-size="10.00">&lt; int, FuncParFuncType &gt;</text>
</a>
</g>
</g>
<!-- Node9&#45;&gt;Node1 -->
<g id="edge8" class="edge">
<title>Node9&#45;&gt;Node1</title>
<path fill="none" stroke="#9a32cd" stroke-dasharray="5,2" d="M1040.42,-876.8C1109.05,-875.66 1201.83,-870.12 1232,-849.41 1277.77,-817.97 1294.96,-747.14 1299.87,-721.18"/>
<polygon fill="#9a32cd" stroke="#9a32cd" points="1040,-873.3 1030.05,-876.94 1040.1,-880.3 1040,-873.3"/>
<text text-anchor="middle" x="1155" y="-878.41" font-family="Helvetica,sans-Serif" font-size="10.00"> funcParsFuncMap</text>
</g>
<!-- Node10 -->
<g id="node10" class="node">
<title>Node10</title>
<g id="a_node10"><a xlink:title=" ">
<polygon fill="white" stroke="#666666" points="1025.5,-843.41 894.5,-843.41 894.5,-813.41 1025.5,-813.41 1025.5,-843.41"/>
<text text-anchor="start" x="902.5" y="-831.41" font-family="Helvetica,sans-Serif" font-size="10.00">std::vector&lt; std::vector</text>
<text text-anchor="middle" x="960" y="-820.41" font-family="Helvetica,sans-Serif" font-size="10.00">&lt; int &gt; &gt;</text>
</a>
</g>
</g>
<!-- Node10&#45;&gt;Node1 -->
<g id="edge9" class="edge">
<title>Node10&#45;&gt;Node1</title>
<path fill="none" stroke="#9a32cd" stroke-dasharray="5,2" d="M1035.71,-835.05C1092.88,-836.75 1171.86,-831.53 1232,-798.41 1264.85,-780.31 1287.82,-739.68 1297.03,-721.06"/>
<polygon fill="#9a32cd" stroke="#9a32cd" points="1035.78,-831.55 1025.65,-834.68 1035.52,-838.55 1035.78,-831.55"/>
<text text-anchor="middle" x="1155" y="-837.41" font-family="Helvetica,sans-Serif" font-size="10.00"> funcParsGrid</text>
</g>
<!-- Node11 -->
<g id="node11" class="node">
<title>Node11</title>
<g id="a_node11"><a xlink:title=" ">
<polygon fill="white" stroke="#666666" points="302,-432.91 162,-432.91 162,-413.91 302,-413.91 302,-432.91"/>
<text text-anchor="middle" x="232" y="-420.91" font-family="Helvetica,sans-Serif" font-size="10.00">std::vector&lt; std::string &gt;</text>
</a>
</g>
</g>
<!-- Node11&#45;&gt;Node1 -->
<g id="edge10" class="edge">
<title>Node11&#45;&gt;Node1</title>
<path fill="none" stroke="#9a32cd" stroke-dasharray="5,2" d="M246.42,-441.22C265.72,-467.57 301.36,-519.02 323,-567.41 334.72,-593.6 318.46,-611.65 341,-629.41 403.83,-678.88 980.46,-654.13 1060,-662.41 1137.04,-670.42 1156.54,-672.94 1232,-690.41 1245.63,-693.56 1260.51,-697.93 1272.99,-701.86"/>
<polygon fill="#9a32cd" stroke="#9a32cd" points="249.09,-438.95 240.33,-433 243.47,-443.12 249.09,-438.95"/>
<text text-anchor="middle" x="769.5" y="-686.41" font-family="Helvetica,sans-Serif" font-size="10.00"> funcParsNamesVec</text>
<text text-anchor="middle" x="769.5" y="-675.41" font-family="Helvetica,sans-Serif" font-size="10.00">mc_files</text>
<text text-anchor="middle" x="769.5" y="-664.41" font-family="Helvetica,sans-Serif" font-size="10.00">spline_files</text>
</g>
<!-- Node11&#45;&gt;Node19 -->
<g id="edge33" class="edge">
<title>Node11&#45;&gt;Node19</title>
<path fill="none" stroke="#9a32cd" stroke-dasharray="5,2" d="M312.49,-421.88C358.65,-420.2 417.82,-416.7 470,-409.41 478.12,-408.27 479.85,-406.3 488,-405.41 572.38,-396.14 594.38,-398.7 679,-405.41 752.13,-411.2 787.92,-381.83 842,-431.41 866.31,-453.7 835.93,-480.85 860,-503.41 867.97,-510.87 877.95,-515.76 888.48,-518.9"/>
<polygon fill="#9a32cd" stroke="#9a32cd" points="312.13,-418.39 302.25,-422.23 312.37,-425.38 312.13,-418.39"/>
<text text-anchor="middle" x="583.5" y="-419.41" font-family="Helvetica,sans-Serif" font-size="10.00"> _ParameterGroup</text>
<text text-anchor="middle" x="583.5" y="-408.41" font-family="Helvetica,sans-Serif" font-size="10.00">_fSplineNames</text>
</g>
<!-- Node20 -->
<g id="node20" class="node">
<title>Node20</title>
<g id="a_node20"><a xlink:href="classParameterHandlerBase.html" target="_top" xlink:title="Base class responsible for handling of systematic error parameters. Capable of using PCA or using ada...">
<polygon fill="white" stroke="#666666" points="648,-282.91 519,-282.91 519,-263.91 648,-263.91 648,-282.91"/>
<text text-anchor="middle" x="583.5" y="-270.91" font-family="Helvetica,sans-Serif" font-size="10.00">ParameterHandlerBase</text>
</a>
</g>
</g>
<!-- Node11&#45;&gt;Node20 -->
<g id="edge23" class="edge">
<title>Node11&#45;&gt;Node20</title>
<path fill="none" stroke="#9a32cd" stroke-dasharray="5,2" d="M274.15,-410.71C289.54,-405.81 307.14,-400.04 323,-394.41 331.09,-391.53 332.74,-389.73 341,-387.41 397.07,-371.67 424.7,-401 470,-364.41 486.44,-351.13 473.62,-335.88 488,-320.41 504.71,-302.42 529.82,-290.39 549.96,-283"/>
<polygon fill="#9a32cd" stroke="#9a32cd" points="272.87,-407.44 264.39,-413.79 274.98,-414.12 272.87,-407.44"/>
<text text-anchor="middle" x="405.5" y="-401.41" font-family="Helvetica,sans-Serif" font-size="10.00"> _fFancyNames</text>
<text text-anchor="middle" x="405.5" y="-390.41" font-family="Helvetica,sans-Serif" font-size="10.00">_fNames</text>
</g>
<!-- Node12 -->
<g id="node12" class="node">
<title>Node12</title>
<g id="a_node12"><a xlink:href="structSampleBinningInfo.html" target="_top" xlink:title="KS: Small struct storying info about used binning.">
<polygon fill="white" stroke="#666666" points="824,-723.91 715,-723.91 715,-704.91 824,-704.91 824,-723.91"/>
<text text-anchor="middle" x="769.5" y="-711.91" font-family="Helvetica,sans-Serif" font-size="10.00">SampleBinningInfo</text>
</a>
</g>
</g>
<!-- Node12&#45;&gt;Node1 -->
<g id="edge11" class="edge">
<title>Node12&#45;&gt;Node1</title>
<path fill="none" stroke="#9a32cd" stroke-dasharray="5,2" d="M834.44,-718.36C923.59,-723.15 1090.28,-729.54 1232,-720.41 1237.83,-720.03 1243.91,-719.48 1249.96,-718.83"/>
<polygon fill="#9a32cd" stroke="#9a32cd" points="834.39,-714.85 824.22,-717.79 834.01,-721.84 834.39,-714.85"/>
<text text-anchor="middle" x="960" y="-727.41" font-family="Helvetica,sans-Serif" font-size="10.00"> Binning</text>
</g>
<!-- Node13 -->
<g id="node13" class="node">
<title>Node13</title>
<g id="a_node13"><a xlink:title=" ">
<polygon fill="white" stroke="#666666" points="294,-594.91 170,-594.91 170,-575.91 294,-575.91 294,-594.91"/>
<text text-anchor="middle" x="232" y="-582.91" font-family="Helvetica,sans-Serif" font-size="10.00">std::vector&lt; double &gt;</text>
</a>
</g>
</g>
<!-- Node13&#45;&gt;Node12 -->
<g id="edge12" class="edge">
<title>Node13&#45;&gt;Node12</title>
<path fill="none" stroke="#9a32cd" stroke-dasharray="5,2" d="M251.56,-601.69C271.98,-618.61 306.49,-644.41 341,-657.41 469.05,-705.64 632.14,-714.06 714.98,-714.92"/>
<polygon fill="#9a32cd" stroke="#9a32cd" points="253.61,-598.83 243.71,-595.04 249.08,-604.17 253.61,-598.83"/>
<text text-anchor="middle" x="405.5" y="-759.41" font-family="Helvetica,sans-Serif" font-size="10.00"> XBinEdges</text>
<text text-anchor="middle" x="405.5" y="-748.41" font-family="Helvetica,sans-Serif" font-size="10.00">YBinEdges</text>
<text text-anchor="start" x="341" y="-737.41" font-family="Helvetica,sans-Serif" font-size="10.00">rw_lower_lower</text>
<text text-anchor="middle" x="405.5" y="-726.41" font-family="Helvetica,sans-Serif" font-size="10.00">_xbinedge</text>
<text text-anchor="middle" x="405.5" y="-715.41" font-family="Helvetica,sans-Serif" font-size="10.00">rw_lower_xbinedge</text>
<text text-anchor="middle" x="405.5" y="-704.41" font-family="Helvetica,sans-Serif" font-size="10.00">rw_upper_upper_xbinedge</text>
<text text-anchor="middle" x="405.5" y="-693.41" font-family="Helvetica,sans-Serif" font-size="10.00">rw_upper_xbinedge</text>
</g>
<!-- Node13&#45;&gt;Node20 -->
<g id="edge24" class="edge">
<title>Node13&#45;&gt;Node20</title>
<path fill="none" stroke="#9a32cd" stroke-dasharray="5,2" d="M250.76,-568.82C271.62,-549.69 307.63,-517.76 341,-493.41 395.5,-453.64 431.72,-468.95 470,-413.41 493.89,-378.74 462.51,-353.92 488,-320.41 502.09,-301.88 525.45,-290.17 545.43,-283.07"/>
<polygon fill="#9a32cd" stroke="#9a32cd" points="248.27,-566.36 243.3,-575.71 253.02,-571.5 248.27,-566.36"/>
<text text-anchor="middle" x="405.5" y="-573.41" font-family="Helvetica,sans-Serif" font-size="10.00"> FlipParameterPoint</text>
<text text-anchor="middle" x="405.5" y="-562.41" font-family="Helvetica,sans-Serif" font-size="10.00">_fCurrVal</text>
<text text-anchor="middle" x="405.5" y="-551.41" font-family="Helvetica,sans-Serif" font-size="10.00">_fError</text>
<text text-anchor="middle" x="405.5" y="-540.41" font-family="Helvetica,sans-Serif" font-size="10.00">_fIndivStepScale</text>
<text text-anchor="middle" x="405.5" y="-529.41" font-family="Helvetica,sans-Serif" font-size="10.00">_fLowBound</text>
<text text-anchor="middle" x="405.5" y="-518.41" font-family="Helvetica,sans-Serif" font-size="10.00">_fPreFitValue</text>
<text text-anchor="middle" x="405.5" y="-507.41" font-family="Helvetica,sans-Serif" font-size="10.00">_fPropVal</text>
<text text-anchor="middle" x="405.5" y="-496.41" font-family="Helvetica,sans-Serif" font-size="10.00">_fUpBound</text>
</g>
<!-- Node14 -->
<g id="node14" class="node">
<title>Node14</title>
<g id="a_node14"><a xlink:title=" ">
<polygon fill="white" stroke="#666666" points="1028,-701.41 892,-701.41 892,-671.41 1028,-671.41 1028,-701.41"/>
<text text-anchor="start" x="900" y="-689.41" font-family="Helvetica,sans-Serif" font-size="10.00">std::vector&lt; FarDetector</text>
<text text-anchor="middle" x="960" y="-678.41" font-family="Helvetica,sans-Serif" font-size="10.00">CoreInfo &gt;</text>
</a>
</g>
</g>
<!-- Node14&#45;&gt;Node1 -->
<g id="edge13" class="edge">
<title>Node14&#45;&gt;Node1</title>
<path fill="none" stroke="#9a32cd" stroke-dasharray="5,2" d="M1038.43,-692.09C1103.18,-696.84 1193.72,-703.49 1249.92,-707.62"/>
<polygon fill="#9a32cd" stroke="#9a32cd" points="1038.5,-688.59 1028.27,-691.34 1037.99,-695.57 1038.5,-688.59"/>
<text text-anchor="middle" x="1155" y="-708.41" font-family="Helvetica,sans-Serif" font-size="10.00"> MCSamples</text>
</g>
<!-- Node15 -->
<g id="node15" class="node">
<title>Node15</title>
<g id="a_node15"><a xlink:href="structSampleInfo.html" target="_top" xlink:title="KS: Store info about MC sample.">
<polygon fill="white" stroke="#666666" points="805.5,-793.91 733.5,-793.91 733.5,-774.91 805.5,-774.91 805.5,-793.91"/>
<text text-anchor="middle" x="769.5" y="-781.91" font-family="Helvetica,sans-Serif" font-size="10.00">SampleInfo</text>
</a>
</g>
</g>
<!-- Node15&#45;&gt;Node1 -->
<g id="edge14" class="edge">
<title>Node15&#45;&gt;Node1</title>
<path fill="none" stroke="#9a32cd" stroke-dasharray="5,2" d="M815.85,-783.31C899.24,-780.5 1082.13,-770.62 1232,-736.41 1248.25,-732.7 1265.92,-726.31 1279.38,-720.92"/>
<polygon fill="#9a32cd" stroke="#9a32cd" points="815.59,-779.82 805.71,-783.63 815.81,-786.81 815.59,-779.82"/>
<text text-anchor="middle" x="960" y="-783.41" font-family="Helvetica,sans-Serif" font-size="10.00"> SampleDetails</text>
</g>
<!-- Node16 -->
<g id="node16" class="node">
<title>Node16</title>
<g id="a_node16"><a xlink:title=" ">
<polygon fill="white" stroke="#666666" points="264.5,-793.91 199.5,-793.91 199.5,-774.91 264.5,-774.91 264.5,-793.91"/>
<text text-anchor="middle" x="232" y="-781.91" font-family="Helvetica,sans-Serif" font-size="10.00">std::string</text>
</a>
</g>
</g>
<!-- Node16&#45;&gt;Node1 -->
<g id="edge39" class="edge">
<title>Node16&#45;&gt;Node1</title>
<path fill="none" stroke="#9a32cd" stroke-dasharray="5,2" d="M270.18,-797.37C290.98,-804.57 317.39,-813.61 341,-821.41 570.84,-897.3 621.26,-946.56 860,-986.41 955.59,-1002.36 981.09,-990.29 1078,-991.41 1146.44,-992.19 1178.09,-1033.57 1232,-991.41 1276.38,-956.69 1296.44,-766.71 1300.64,-721.2"/>
<polygon fill="#9a32cd" stroke="#9a32cd" points="271.06,-793.97 260.46,-794 268.77,-800.59 271.06,-793.97"/>
<text text-anchor="middle" x="769.5" y="-985.41" font-family="Helvetica,sans-Serif" font-size="10.00"> SampleName</text>
</g>
<!-- Node16&#45;&gt;Node15 -->
<g id="edge15" class="edge">
<title>Node16&#45;&gt;Node15</title>
<path fill="none" stroke="#9a32cd" stroke-dasharray="5,2" d="M275.17,-784.41C377.68,-784.41 638.47,-784.41 733.33,-784.41"/>
<polygon fill="#9a32cd" stroke="#9a32cd" points="274.89,-780.91 264.89,-784.41 274.89,-787.91 274.89,-780.91"/>
<text text-anchor="middle" x="405.5" y="-809.41" font-family="Helvetica,sans-Serif" font-size="10.00"> SampleTitle</text>
<text text-anchor="middle" x="405.5" y="-798.41" font-family="Helvetica,sans-Serif" font-size="10.00">XVarStr</text>
<text text-anchor="middle" x="405.5" y="-787.41" font-family="Helvetica,sans-Serif" font-size="10.00">YVarStr</text>
</g>
<!-- Node16&#45;&gt;Node20 -->
<g id="edge20" class="edge">
<title>Node16&#45;&gt;Node20</title>
<path fill="none" stroke="#9a32cd" stroke-dasharray="5,2" d="M242.55,-765.84C258.96,-735.5 295.22,-675.05 341,-638.41 389.94,-599.24 434,-632.72 470,-581.41 503.39,-533.81 455.7,-368.75 488,-320.41 500.62,-301.51 523.19,-289.9 543.1,-282.94"/>
<polygon fill="#9a32cd" stroke="#9a32cd" points="239.34,-764.41 237.76,-774.89 245.53,-767.69 239.34,-764.41"/>
<text text-anchor="middle" x="405.5" y="-652.41" font-family="Helvetica,sans-Serif" font-size="10.00"> inputFile</text>
<text text-anchor="middle" x="405.5" y="-641.41" font-family="Helvetica,sans-Serif" font-size="10.00">matrixName</text>
</g>
<!-- Node17 -->
<g id="node17" class="node">
<title>Node17</title>
<g id="a_node17"><a xlink:title=" ">
<polygon fill="white" stroke="#666666" points="104,-799.41 0,-799.41 0,-769.41 104,-769.41 104,-799.41"/>
<text text-anchor="start" x="8" y="-787.41" font-family="Helvetica,sans-Serif" font-size="10.00">std::basic_string&lt;</text>
<text text-anchor="middle" x="52" y="-776.41" font-family="Helvetica,sans-Serif" font-size="10.00"> Char &gt;</text>
</a>
</g>
</g>
<!-- Node17&#45;&gt;Node16 -->
<g id="edge16" class="edge">
<title>Node17&#45;&gt;Node16</title>
<path fill="none" stroke="#63b8ff" d="M114.33,-784.41C142.93,-784.41 175.76,-784.41 199.3,-784.41"/>
<polygon fill="#63b8ff" stroke="#63b8ff" points="114.01,-780.91 104.01,-784.41 114.01,-787.91 114.01,-780.91"/>
</g>
<!-- Node18 -->
<g id="node18" class="node">
<title>Node18</title>
<g id="a_node18"><a xlink:title=" ">
<polygon fill="white" stroke="#666666" points="1043.5,-567.91 876.5,-567.91 876.5,-548.91 1043.5,-548.91 1043.5,-567.91"/>
<text text-anchor="middle" x="960" y="-555.91" font-family="Helvetica,sans-Serif" font-size="10.00">std::vector&lt; OscChannelInfo &gt;</text>
</a>
</g>
</g>
<!-- Node18&#45;&gt;Node1 -->
<g id="edge17" class="edge">
<title>Node18&#45;&gt;Node1</title>
<path fill="none" stroke="#9a32cd" stroke-dasharray="5,2" d="M1053.8,-556.22C1120.48,-556.38 1203.45,-560.63 1232,-579.41 1276.58,-608.72 1294.42,-676.33 1299.68,-701.62"/>
<polygon fill="#9a32cd" stroke="#9a32cd" points="1053.66,-552.72 1043.67,-556.23 1053.67,-559.72 1053.66,-552.72"/>
<text text-anchor="middle" x="1155" y="-582.41" font-family="Helvetica,sans-Serif" font-size="10.00"> OscChannels</text>
</g>
<!-- Node19&#45;&gt;Node1 -->
<g id="edge18" class="edge">
<title>Node19&#45;&gt;Node1</title>
<path fill="none" stroke="#9a32cd" stroke-dasharray="5,2" d="M1041.98,-518.23C1110.69,-517.16 1202.64,-520.08 1232,-541.41 1286.69,-581.13 1298.46,-671.65 1300.89,-701.59"/>
<polygon fill="#9a32cd" stroke="#9a32cd" points="1041.53,-514.74 1031.6,-518.42 1041.66,-521.74 1041.53,-514.74"/>
<text text-anchor="middle" x="1155" y="-544.41" font-family="Helvetica,sans-Serif" font-size="10.00"> ParHandler</text>
</g>
<!-- Node20&#45;&gt;Node19 -->
<g id="edge19" class="edge">
<title>Node20&#45;&gt;Node19</title>
<path fill="none" stroke="#63b8ff" d="M658.39,-266.02C717,-264.6 796.41,-273.41 842,-323.41 869.09,-353.11 832.74,-473.86 860,-503.41 867.58,-511.62 877.56,-516.86 888.26,-520.08"/>
<polygon fill="#63b8ff" stroke="#63b8ff" points="657.94,-262.53 648.06,-266.38 658.18,-269.53 657.94,-262.53"/>
</g>
<!-- Node21 -->
<g id="node21" class="node">
<title>Node21</title>
<g id="a_node21"><a xlink:title=" ">
<polygon fill="white" stroke="#666666" points="297.5,-203.41 166.5,-203.41 166.5,-173.41 297.5,-173.41 297.5,-203.41"/>
<text text-anchor="start" x="174.5" y="-191.41" font-family="Helvetica,sans-Serif" font-size="10.00">std::vector&lt; std::vector</text>
<text text-anchor="middle" x="232" y="-180.41" font-family="Helvetica,sans-Serif" font-size="10.00">&lt; double &gt; &gt;</text>
</a>
</g>
</g>
<!-- Node21&#45;&gt;Node20 -->
<g id="edge21" class="edge">
<title>Node21&#45;&gt;Node20</title>
<path fill="none" stroke="#9a32cd" stroke-dasharray="5,2" d="M307.68,-198.47C354.72,-205.67 416.47,-216.68 470,-231.41 502.16,-240.25 538.07,-254.45 560.47,-263.85"/>
<polygon fill="#9a32cd" stroke="#9a32cd" points="307.98,-194.98 297.57,-196.95 306.94,-201.9 307.98,-194.98"/>
<text text-anchor="middle" x="405.5" y="-234.41" font-family="Helvetica,sans-Serif" font-size="10.00"> InvertCovMatrix</text>
</g>
<!-- Node22 -->
<g id="node22" class="node">
<title>Node22</title>
<g id="a_node22"><a xlink:title=" ">
<polygon fill="white" stroke="#666666" points="299,-155.41 165,-155.41 165,-125.41 299,-125.41 299,-155.41"/>
<text text-anchor="start" x="173" y="-143.41" font-family="Helvetica,sans-Serif" font-size="10.00">std::vector&lt; std::unique</text>
<text text-anchor="middle" x="232" y="-132.41" font-family="Helvetica,sans-Serif" font-size="10.00">_ptr&lt; TRandom3 &gt; &gt;</text>
</a>
</g>
</g>
<!-- Node22&#45;&gt;Node20 -->
<g id="edge22" class="edge">
<title>Node22&#45;&gt;Node20</title>
<path fill="none" stroke="#9a32cd" stroke-dasharray="5,2" d="M309.22,-147.59C357.02,-154.15 419.02,-166.48 470,-189.41 512.68,-208.6 554.62,-246.25 572.92,-263.88"/>
<polygon fill="#9a32cd" stroke="#9a32cd" points="309.62,-144.11 299.25,-146.28 308.71,-151.05 309.62,-144.11"/>
<text text-anchor="middle" x="405.5" y="-192.41" font-family="Helvetica,sans-Serif" font-size="10.00"> random_number</text>
</g>
<!-- Node23 -->
<g id="node23" class="node">
<title>Node23</title>
<g id="a_node23"><a xlink:title=" ">
<polygon fill="white" stroke="#666666" points="288,-106.91 176,-106.91 176,-87.91 288,-87.91 288,-106.91"/>
<text text-anchor="middle" x="232" y="-94.91" font-family="Helvetica,sans-Serif" font-size="10.00">std::vector&lt; bool &gt;</text>
</a>
</g>
</g>
<!-- Node23&#45;&gt;Node20 -->
<g id="edge25" class="edge">
<title>Node23&#45;&gt;Node20</title>
<path fill="none" stroke="#9a32cd" stroke-dasharray="5,2" d="M298.45,-96.77C348.49,-98.99 417.56,-108.13 470,-138.41 524.43,-169.83 564.11,-238.1 577.53,-263.56"/>
<polygon fill="#9a32cd" stroke="#9a32cd" points="298.51,-93.27 288.39,-96.4 298.25,-100.26 298.51,-93.27"/>
<text text-anchor="middle" x="405.5" y="-141.41" font-family="Helvetica,sans-Serif" font-size="10.00"> _fFlatPrior</text>
</g>
<!-- Node24 -->
<g id="node24" class="node">
<title>Node24</title>
<g id="a_node24"><a xlink:title=" ">
<polygon fill="white" stroke="#666666" points="297.5,-69.41 166.5,-69.41 166.5,-39.41 297.5,-39.41 297.5,-69.41"/>
<text text-anchor="start" x="174.5" y="-57.41" font-family="Helvetica,sans-Serif" font-size="10.00">std::vector&lt; std::vector</text>
<text text-anchor="middle" x="232" y="-46.41" font-family="Helvetica,sans-Serif" font-size="10.00">&lt; std::string &gt; &gt;</text>
</a>
</g>
</g>
<!-- Node24&#45;&gt;Node20 -->
<g id="edge26" class="edge">
<title>Node24&#45;&gt;Node20</title>
<path fill="none" stroke="#9a32cd" stroke-dasharray="5,2" d="M307.64,-48.46C357.45,-48.13 422.29,-55.03 470,-86.41 537.74,-130.95 570.84,-231.7 579.88,-263.55"/>
<polygon fill="#9a32cd" stroke="#9a32cd" points="307.52,-44.97 297.57,-48.63 307.63,-51.97 307.52,-44.97"/>
<text text-anchor="middle" x="405.5" y="-89.41" font-family="Helvetica,sans-Serif" font-size="10.00"> _fSampleNames</text>
</g>
<!-- Node25 -->
<g id="node25" class="node">
<title>Node25</title>
<g id="a_node25"><a xlink:title=" ">
<polygon fill="white" stroke="#666666" points="317,-20.91 147,-20.91 147,-1.91 317,-1.91 317,-20.91"/>
<text text-anchor="middle" x="232" y="-8.91" font-family="Helvetica,sans-Serif" font-size="10.00">std::unique_ptr&lt; PCAHandler &gt;</text>
</a>
</g>
</g>
<!-- Node25&#45;&gt;Node20 -->
<g id="edge27" class="edge">
<title>Node25&#45;&gt;Node20</title>
<path fill="none" stroke="#9a32cd" stroke-dasharray="5,2" d="M305.9,-1.14C356.39,2.04 422.76,-2.03 470,-35.41 551.93,-93.29 576.07,-226.88 581.29,-263.8"/>
<polygon fill="#9a32cd" stroke="#9a32cd" points="305.42,2.34 295.71,-1.89 305.94,-4.64 305.42,2.34"/>
<text text-anchor="middle" x="405.5" y="-38.41" font-family="Helvetica,sans-Serif" font-size="10.00"> PCAObj</text>
</g>
<!-- Node26 -->
<g id="node26" class="node">
<title>Node26</title>
<g id="a_node26"><a xlink:title=" ">
<polygon fill="white" stroke="#666666" points="323,-385.41 141,-385.41 141,-355.41 323,-355.41 323,-385.41"/>
<text text-anchor="start" x="149" y="-373.41" font-family="Helvetica,sans-Serif" font-size="10.00">std::unique_ptr&lt; adaptive</text>
<text text-anchor="middle" x="232" y="-362.41" font-family="Helvetica,sans-Serif" font-size="10.00">_mcmc::AdaptiveMCMCHandler &gt;</text>
</a>
</g>
</g>
<!-- Node26&#45;&gt;Node20 -->
<g id="edge28" class="edge">
<title>Node26&#45;&gt;Node20</title>
<path fill="none" stroke="#9a32cd" stroke-dasharray="5,2" d="M333.18,-353.99C391.7,-344.17 456.62,-332.77 470,-328.41 474.81,-326.84 532.02,-298.52 562.94,-283.14"/>
<polygon fill="#9a32cd" stroke="#9a32cd" points="332.39,-350.58 323.1,-355.68 333.54,-357.48 332.39,-350.58"/>
<text text-anchor="middle" x="405.5" y="-355.41" font-family="Helvetica,sans-Serif" font-size="10.00"> AdaptiveHandler</text>
</g>
<!-- Node27 -->
<g id="node27" class="node">
<title>Node27</title>
<g id="a_node27"><a xlink:title=" ">
<polygon fill="white" stroke="#666666" points="307.5,-337.41 156.5,-337.41 156.5,-307.41 307.5,-307.41 307.5,-337.41"/>
<text text-anchor="start" x="164.5" y="-325.41" font-family="Helvetica,sans-Serif" font-size="10.00">std::unique_ptr&lt; Parameter</text>
<text text-anchor="middle" x="232" y="-314.41" font-family="Helvetica,sans-Serif" font-size="10.00">Tunes &gt;</text>
</a>
</g>
</g>
<!-- Node27&#45;&gt;Node20 -->
<g id="edge29" class="edge">
<title>Node27&#45;&gt;Node20</title>
<path fill="none" stroke="#9a32cd" stroke-dasharray="5,2" d="M317.76,-315.02C363.07,-310.59 419.72,-304.29 470,-296.41 493.44,-292.73 519.39,-287.5 540.46,-282.96"/>
<polygon fill="#9a32cd" stroke="#9a32cd" points="317.31,-311.55 307.69,-316 317.98,-318.52 317.31,-311.55"/>
<text text-anchor="middle" x="405.5" y="-316.41" font-family="Helvetica,sans-Serif" font-size="10.00"> Tunes</text>
</g>
<!-- Node28 -->
<g id="node28" class="node">
<title>Node28</title>
<g id="a_node28"><a xlink:title=" ">
<polygon fill="white" stroke="#666666" points="284,-288.91 180,-288.91 180,-269.91 284,-269.91 284,-288.91"/>
<text text-anchor="middle" x="232" y="-276.91" font-family="Helvetica,sans-Serif" font-size="10.00">std::vector&lt; int &gt;</text>
</a>
</g>
</g>
<!-- Node28&#45;&gt;Node20 -->
<g id="edge30" class="edge">
<title>Node28&#45;&gt;Node20</title>
<path fill="none" stroke="#9a32cd" stroke-dasharray="5,2" d="M294.42,-276.11C309.64,-275.42 325.91,-274.79 341,-274.41 401.36,-272.88 470.22,-272.76 518.93,-272.94"/>
<polygon fill="#9a32cd" stroke="#9a32cd" points="293.9,-272.63 284.08,-276.6 294.23,-279.63 293.9,-272.63"/>
<text text-anchor="middle" x="405.5" y="-288.41" font-family="Helvetica,sans-Serif" font-size="10.00"> CircularBoundsIndex</text>
<text text-anchor="middle" x="405.5" y="-277.41" font-family="Helvetica,sans-Serif" font-size="10.00">FlipParameterIndex</text>
</g>
<!-- Node29 -->
<g id="node29" class="node">
<title>Node29</title>
<g id="a_node29"><a xlink:title=" ">
<polygon fill="white" stroke="#666666" points="293,-251.41 171,-251.41 171,-221.41 293,-221.41 293,-251.41"/>
<text text-anchor="start" x="179" y="-239.41" font-family="Helvetica,sans-Serif" font-size="10.00">std::vector&lt; std::pair</text>
<text text-anchor="middle" x="232" y="-228.41" font-family="Helvetica,sans-Serif" font-size="10.00">&lt; double, double &gt; &gt;</text>
</a>
</g>
</g>
<!-- Node29&#45;&gt;Node20 -->
<g id="edge31" class="edge">
<title>Node29&#45;&gt;Node20</title>
<path fill="none" stroke="#9a32cd" stroke-dasharray="5,2" d="M303.57,-242.21C350.74,-246.28 414.15,-252.09 470,-258.41 485.86,-260.2 502.95,-262.36 518.89,-264.47"/>
<polygon fill="#9a32cd" stroke="#9a32cd" points="303.73,-238.71 293.46,-241.35 303.13,-245.69 303.73,-238.71"/>
<text text-anchor="middle" x="405.5" y="-261.41" font-family="Helvetica,sans-Serif" font-size="10.00"> CircularBoundsValues</text>
</g>
<!-- Node30 -->
<g id="node30" class="node">
<title>Node30</title>
<g id="a_node30"><a xlink:title=" ">
<polygon fill="white" stroke="#666666" points="650.5,-577.91 516.5,-577.91 516.5,-558.91 650.5,-558.91 650.5,-577.91"/>
<text text-anchor="middle" x="583.5" y="-565.91" font-family="Helvetica,sans-Serif" font-size="10.00">std::vector&lt; SystType &gt;</text>
</a>
</g>
</g>
<!-- Node30&#45;&gt;Node19 -->
<g id="edge32" class="edge">
<title>Node30&#45;&gt;Node19</title>
<path fill="none" stroke="#9a32cd" stroke-dasharray="5,2" d="M654.9,-557.37C668.84,-555.3 683.37,-553.22 697,-551.41 761.67,-542.82 835.53,-534.5 888.3,-528.8"/>
<polygon fill="#9a32cd" stroke="#9a32cd" points="654.24,-553.93 644.87,-558.87 655.28,-560.85 654.24,-553.93"/>
<text text-anchor="middle" x="769.5" y="-554.41" font-family="Helvetica,sans-Serif" font-size="10.00"> _fParamType</text>
</g>
<!-- Node31 -->
<g id="node31" class="node">
<title>Node31</title>
<g id="a_node31"><a xlink:title=" ">
<polygon fill="white" stroke="#666666" points="644.5,-540.41 522.5,-540.41 522.5,-510.41 644.5,-510.41 644.5,-540.41"/>
<text text-anchor="start" x="530.5" y="-528.41" font-family="Helvetica,sans-Serif" font-size="10.00">std::vector&lt; std::map</text>
<text text-anchor="middle" x="583.5" y="-517.41" font-family="Helvetica,sans-Serif" font-size="10.00">&lt; int, int &gt; &gt;</text>
</a>
</g>
</g>
<!-- Node31&#45;&gt;Node19 -->
<g id="edge34" class="edge">
<title>Node31&#45;&gt;Node19</title>
<path fill="none" stroke="#9a32cd" stroke-dasharray="5,2" d="M654.67,-519.64C668.68,-518.71 683.3,-517.89 697,-517.41 761.78,-515.11 835.63,-516.61 888.37,-518.39"/>
<polygon fill="#9a32cd" stroke="#9a32cd" points="654.33,-516.16 644.59,-520.34 654.81,-523.14 654.33,-516.16"/>
<text text-anchor="middle" x="769.5" y="-520.41" font-family="Helvetica,sans-Serif" font-size="10.00"> _fSystToGlobalSystIndexMap</text>
</g>
<!-- Node32 -->
<g id="node32" class="node">
<title>Node32</title>
<g id="a_node32"><a xlink:title=" ">
<polygon fill="white" stroke="#666666" points="669,-491.91 498,-491.91 498,-472.91 669,-472.91 669,-491.91"/>
<text text-anchor="middle" x="583.5" y="-479.91" font-family="Helvetica,sans-Serif" font-size="10.00">std::vector&lt; SplineParameter &gt;</text>
</a>
</g>
</g>
<!-- Node32&#45;&gt;Node19 -->
<g id="edge35" class="edge">
<title>Node32&#45;&gt;Node19</title>
<path fill="none" stroke="#9a32cd" stroke-dasharray="5,2" d="M679.31,-486.58C728.05,-489.35 788.34,-493.73 842,-500.41 845.42,-500.83 877.09,-506.52 906.62,-511.87"/>
<polygon fill="#9a32cd" stroke="#9a32cd" points="679.27,-483.08 669.09,-486.02 678.88,-490.07 679.27,-483.08"/>
<text text-anchor="middle" x="769.5" y="-503.41" font-family="Helvetica,sans-Serif" font-size="10.00"> SplineParams</text>
</g>
<!-- Node33 -->
<g id="node33" class="node">
<title>Node33</title>
<g id="a_node33"><a xlink:title=" ">
<polygon fill="white" stroke="#666666" points="667.5,-454.91 499.5,-454.91 499.5,-435.91 667.5,-435.91 667.5,-454.91"/>
<text text-anchor="middle" x="583.5" y="-442.91" font-family="Helvetica,sans-Serif" font-size="10.00">std::vector&lt; NormParameter &gt;</text>
</a>
</g>
</g>
<!-- Node33&#45;&gt;Node19 -->
<g id="edge36" class="edge">
<title>Node33&#45;&gt;Node19</title>
<path fill="none" stroke="#9a32cd" stroke-dasharray="5,2" d="M673.59,-435.53C726.49,-434.1 792.64,-440.45 842,-472.41 855.37,-481.06 846.96,-494.25 860,-503.41 868.43,-509.33 878.24,-513.48 888.34,-516.36"/>
<polygon fill="#9a32cd" stroke="#9a32cd" points="673.4,-432.04 663.54,-435.9 673.66,-439.03 673.4,-432.04"/>
<text text-anchor="middle" x="769.5" y="-475.41" font-family="Helvetica,sans-Serif" font-size="10.00"> NormParams</text>
</g>
<!-- Node34 -->
<g id="node34" class="node">
<title>Node34</title>
<g id="a_node34"><a xlink:title=" ">
<polygon fill="white" stroke="#666666" points="649,-359.41 518,-359.41 518,-329.41 649,-329.41 649,-359.41"/>
<text text-anchor="start" x="526" y="-347.41" font-family="Helvetica,sans-Serif" font-size="10.00">std::vector&lt; Oscillation</text>
<text text-anchor="middle" x="583.5" y="-336.41" font-family="Helvetica,sans-Serif" font-size="10.00">Parameter &gt;</text>
</a>
</g>
</g>
<!-- Node34&#45;&gt;Node19 -->
<g id="edge38" class="edge">
<title>Node34&#45;&gt;Node19</title>
<path fill="none" stroke="#9a32cd" stroke-dasharray="5,2" d="M659.33,-329.52C716.98,-322.75 794.61,-324.6 842,-370.41 884.89,-411.86 818.79,-460.28 860,-503.41 867.66,-511.43 877.62,-516.57 888.25,-519.78"/>
<polygon fill="#9a32cd" stroke="#9a32cd" points="658.64,-326.08 649.17,-330.83 659.53,-333.02 658.64,-326.08"/>
<text text-anchor="middle" x="769.5" y="-373.41" font-family="Helvetica,sans-Serif" font-size="10.00"> OscParams</text>
</g>
<!-- Node35 -->
<g id="node35" class="node">
<title>Node35</title>
<g id="a_node35"><a xlink:title=" ">
<polygon fill="white" stroke="#666666" points="1038.5,-493.91 881.5,-493.91 881.5,-474.91 1038.5,-474.91 1038.5,-493.91"/>
<text text-anchor="middle" x="960" y="-481.91" font-family="Helvetica,sans-Serif" font-size="10.00">std::vector&lt; KinematicCut &gt;</text>
</a>
</g>
</g>
<!-- Node35&#45;&gt;Node1 -->
<g id="edge40" class="edge">
<title>Node35&#45;&gt;Node1</title>
<path fill="none" stroke="#9a32cd" stroke-dasharray="5,2" d="M1048.97,-475.99C1116.95,-471.4 1204.01,-470.34 1232,-491.41 1301.76,-543.92 1303.11,-666.53 1301.97,-701.77"/>
<polygon fill="#9a32cd" stroke="#9a32cd" points="1048.39,-472.52 1038.66,-476.72 1048.88,-479.5 1048.39,-472.52"/>
<text text-anchor="middle" x="1155" y="-505.41" font-family="Helvetica,sans-Serif" font-size="10.00"> Selection</text>
<text text-anchor="middle" x="1155" y="-494.41" font-family="Helvetica,sans-Serif" font-size="10.00">StoredSelection</text>
</g>
<!-- Node36 -->
<g id="node36" class="node">
<title>Node36</title>
<g id="a_node36"><a xlink:title=" ">
<polygon fill="white" stroke="#666666" points="1017,-456.41 903,-456.41 903,-426.41 1017,-426.41 1017,-456.41"/>
<text text-anchor="start" x="911" y="-444.41" font-family="Helvetica,sans-Serif" font-size="10.00">std::unordered_map</text>
<text text-anchor="middle" x="960" y="-433.41" font-family="Helvetica,sans-Serif" font-size="10.00">&lt; int, std::string &gt;</text>
</a>
</g>
</g>
<!-- Node36&#45;&gt;Node1 -->
<g id="edge41" class="edge">
<title>Node36&#45;&gt;Node1</title>
<path fill="none" stroke="#9a32cd" stroke-dasharray="5,2" d="M1027.35,-433.8C1097.26,-427.29 1201.42,-422.35 1232,-446.41 1273.97,-479.41 1295.78,-658.32 1300.51,-701.86"/>
<polygon fill="#9a32cd" stroke="#9a32cd" points="1026.91,-430.32 1017.3,-434.77 1027.59,-437.29 1026.91,-430.32"/>
<text text-anchor="middle" x="1155" y="-460.41" font-family="Helvetica,sans-Serif" font-size="10.00"> ReversedKinematicParameters</text>
<text text-anchor="middle" x="1155" y="-449.41" font-family="Helvetica,sans-Serif" font-size="10.00">ReversedKinematicVectors</text>
</g>
<!-- Node37 -->
<g id="node37" class="node">
<title>Node37</title>
<g id="a_node37"><a xlink:title=" ">
<polygon fill="white" stroke="#666666" points="1037.5,-407.91 882.5,-407.91 882.5,-388.91 1037.5,-388.91 1037.5,-407.91"/>
<text text-anchor="middle" x="960" y="-395.91" font-family="Helvetica,sans-Serif" font-size="10.00">std::unique_ptr&lt; manager &gt;</text>
</a>
</g>
</g>
<!-- Node37&#45;&gt;Node1 -->
<g id="edge42" class="edge">
<title>Node37&#45;&gt;Node1</title>
<path fill="none" stroke="#9a32cd" stroke-dasharray="5,2" d="M1047.93,-392.3C1116.49,-389.44 1204.93,-390.67 1232,-413.41 1277.97,-452.01 1296.94,-654.7 1300.75,-701.68"/>
<polygon fill="#9a32cd" stroke="#9a32cd" points="1047.36,-388.83 1037.53,-392.78 1047.68,-395.82 1047.36,-388.83"/>
<text text-anchor="middle" x="1155" y="-416.41" font-family="Helvetica,sans-Serif" font-size="10.00"> SampleManager</text>
</g>
<!-- Node38 -->
<g id="node38" class="node">
<title>Node38</title>
<g id="a_node38"><a xlink:title=" ">
<polygon fill="white" stroke="#666666" points="1023.5,-370.41 896.5,-370.41 896.5,-340.41 1023.5,-340.41 1023.5,-370.41"/>
<text text-anchor="start" x="904.5" y="-358.41" font-family="Helvetica,sans-Serif" font-size="10.00">std::unordered_map</text>
<text text-anchor="middle" x="960" y="-347.41" font-family="Helvetica,sans-Serif" font-size="10.00">&lt; std::string, double &gt;</text>
</a>
</g>
</g>
<!-- Node38&#45;&gt;Node1 -->
<g id="edge43" class="edge">
<title>Node38&#45;&gt;Node1</title>
<path fill="none" stroke="#9a32cd" stroke-dasharray="5,2" d="M1033.9,-338.94C1094.31,-329.9 1178.62,-328.56 1232,-375.41 1283.04,-420.2 1298.29,-651.72 1301.02,-701.83"/>
<polygon fill="#9a32cd" stroke="#9a32cd" points="1032.99,-335.55 1023.67,-340.58 1034.1,-342.46 1032.99,-335.55"/>
<text text-anchor="middle" x="1155" y="-378.41" font-family="Helvetica,sans-Serif" font-size="10.00"> _modeNomWeightMap</text>
</g>
<!-- Node39 -->
<g id="node39" class="node">
<title>Node39</title>
<g id="a_node39"><a xlink:title=" ">
<polygon fill="white" stroke="#666666" points="1024,-322.41 896,-322.41 896,-292.41 1024,-292.41 1024,-322.41"/>
<text text-anchor="start" x="904" y="-310.41" font-family="Helvetica,sans-Serif" font-size="10.00">std::unordered_map</text>
<text text-anchor="middle" x="960" y="-299.41" font-family="Helvetica,sans-Serif" font-size="10.00">&lt; std::string, NuPDG &gt;</text>
</a>
</g>
</g>
<!-- Node39&#45;&gt;Node1 -->
<g id="edge44" class="edge">
<title>Node39&#45;&gt;Node1</title>
<path fill="none" stroke="#9a32cd" stroke-dasharray="5,2" d="M1014.01,-289.49C1074.18,-272.83 1171.76,-257.47 1232,-308.41 1294.49,-361.24 1300.79,-645.64 1301.43,-701.78"/>
<polygon fill="#9a32cd" stroke="#9a32cd" points="1012.97,-286.15 1004.33,-292.27 1014.9,-292.87 1012.97,-286.15"/>
<text text-anchor="middle" x="1155" y="-322.41" font-family="Helvetica,sans-Serif" font-size="10.00"> FileToFinalPDGMap</text>
<text text-anchor="middle" x="1155" y="-311.41" font-family="Helvetica,sans-Serif" font-size="10.00">FileToInitPDGMap</text>
</g>
</g>
</svg>
