<?xml version="1.0" encoding="UTF-8" standalone="no"?>
<!DOCTYPE svg PUBLIC "-//W3C//DTD SVG 1.1//EN"
 "http://www.w3.org/Graphics/SVG/1.1/DTD/svg11.dtd">
<!-- Generated by graphviz version 2.43.0 (0)
 -->
<!-- Title: SMonolith Pages: 1 -->
<svg width="603pt" height="406pt"
 viewBox="0.00 0.00 603.00 406.00" xmlns="http://www.w3.org/2000/svg" xmlns:xlink="http://www.w3.org/1999/xlink">
<g id="graph0" class="graph" transform="scale(1 1) rotate(0) translate(4 402)">
<title>SMonolith</title>
<!-- Node1 -->
<g id="node1" class="node">
<title>Node1</title>
<g id="a_node1"><a xlink:title="Even&#45;by&#45;event class calculating response for spline parameters. It is possible to use GPU acceleratio...">
<polygon fill="#999999" stroke="#666666" points="595,-205.5 530,-205.5 530,-186.5 595,-186.5 595,-205.5"/>
<text text-anchor="middle" x="562.5" y="-193.5" font-family="Helvetica,sans-Serif" font-size="10.00">SMonolith</text>
</a>
</g>
</g>
<!-- Node2 -->
<g id="node2" class="node">
<title>Node2</title>
<g id="a_node2"><a xlink:href="classSplineBase.html" target="_top" xlink:title="Base class for calculating weight from spline.">
<polygon fill="white" stroke="#666666" points="370.5,-396.5 299.5,-396.5 299.5,-377.5 370.5,-377.5 370.5,-396.5"/>
<text text-anchor="middle" x="335" y="-384.5" font-family="Helvetica,sans-Serif" font-size="10.00">SplineBase</text>
</a>
</g>
</g>
<!-- Node2&#45;&gt;Node1 -->
<g id="edge1" class="edge">
<title>Node2&#45;&gt;Node1</title>
<path fill="none" stroke="#63b8ff" d="M380.91,-393.68C420.07,-396.87 476.09,-394.69 512,-364 560.78,-322.32 562.77,-235.22 561.97,-205.88"/>
<polygon fill="#63b8ff" stroke="#63b8ff" points="381.13,-390.19 370.84,-392.72 380.46,-397.16 381.13,-390.19"/>
</g>
<!-- Node3 -->
<g id="node3" class="node">
<title>Node3</title>
<g id="a_node3"><a xlink:title=" ">
<polygon fill="white" stroke="#666666" points="159,-396.5 0,-396.5 0,-377.5 159,-377.5 159,-396.5"/>
<text text-anchor="middle" x="79.5" y="-384.5" font-family="Helvetica,sans-Serif" font-size="10.00">std::vector&lt; FastSplineInfo &gt;</text>
</a>
</g>
</g>
<!-- Node3&#45;&gt;Node2 -->
<g id="edge2" class="edge">
<title>Node3&#45;&gt;Node2</title>
<path fill="none" stroke="#9a32cd" stroke-dasharray="5,2" d="M169.36,-387C214.21,-387 266.02,-387 299.36,-387"/>
<polygon fill="#9a32cd" stroke="#9a32cd" points="169.32,-383.5 159.32,-387 169.32,-390.5 169.32,-383.5"/>
<text text-anchor="middle" x="216.5" y="-390" font-family="Helvetica,sans-Serif" font-size="10.00"> SplineInfoArray</text>
</g>
<!-- Node4 -->
<g id="node4" class="node">
<title>Node4</title>
<g id="a_node4"><a xlink:title=" ">
<polygon fill="white" stroke="#666666" points="388,-359 282,-359 282,-329 388,-329 388,-359"/>
<text text-anchor="start" x="290" y="-347" font-family="Helvetica,sans-Serif" font-size="10.00">std::vector&lt; const</text>
<text text-anchor="middle" x="335" y="-336" font-family="Helvetica,sans-Serif" font-size="10.00"> double * &gt;</text>
</a>
</g>
</g>
<!-- Node4&#45;&gt;Node1 -->
<g id="edge3" class="edge">
<title>Node4&#45;&gt;Node1</title>
<path fill="none" stroke="#9a32cd" stroke-dasharray="5,2" d="M398.36,-351.09C435,-351.9 480.21,-346.69 512,-322 549.86,-292.59 558.82,-230.04 560.89,-205.84"/>
<polygon fill="#9a32cd" stroke="#9a32cd" points="398.4,-347.59 388.27,-350.71 398.14,-354.59 398.4,-347.59"/>
<text text-anchor="middle" x="463" y="-353" font-family="Helvetica,sans-Serif" font-size="10.00"> splineParsPointer</text>
</g>
<!-- Node5 -->
<g id="node5" class="node">
<title>Node5</title>
<g id="a_node5"><a xlink:title=" ">
<polygon fill="white" stroke="#666666" points="387,-310.5 283,-310.5 283,-291.5 387,-291.5 387,-310.5"/>
<text text-anchor="middle" x="335" y="-298.5" font-family="Helvetica,sans-Serif" font-size="10.00">std::vector&lt; int &gt;</text>
</a>
</g>
</g>
<!-- Node5&#45;&gt;Node1 -->
<g id="edge4" class="edge">
<title>Node5&#45;&gt;Node1</title>
<path fill="none" stroke="#9a32cd" stroke-dasharray="5,2" d="M397.46,-299.43C433.33,-295.95 478.06,-287 512,-265 534.76,-250.24 550.38,-221.05 557.36,-205.8"/>
<polygon fill="#9a32cd" stroke="#9a32cd" points="396.79,-295.97 387.12,-300.3 397.38,-302.94 396.79,-295.97"/>
<text text-anchor="middle" x="463" y="-311" font-family="Helvetica,sans-Serif" font-size="10.00"> index_TF1_cpu</text>
<text text-anchor="middle" x="463" y="-300" font-family="Helvetica,sans-Serif" font-size="10.00">index_spline_cpu</text>
</g>
<!-- Node6 -->
<g id="node6" class="node">
<title>Node6</title>
<g id="a_node6"><a xlink:title=" ">
<polygon fill="white" stroke="#666666" points="141.5,-263 17.5,-263 17.5,-233 141.5,-233 141.5,-263"/>
<text text-anchor="start" x="25.5" y="-251" font-family="Helvetica,sans-Serif" font-size="10.00">std::vector&lt; unsigned</text>
<text text-anchor="middle" x="79.5" y="-240" font-family="Helvetica,sans-Serif" font-size="10.00"> int &gt;</text>
</a>
</g>
</g>
<!-- Node6&#45;&gt;Node1 -->
<g id="edge5" class="edge">
<title>Node6&#45;&gt;Node1</title>
<path fill="none" stroke="#9a32cd" stroke-dasharray="5,2" d="M152.02,-247.51C183.88,-246.9 221.86,-245.61 256,-243 370.33,-234.25 399.84,-234.82 512,-211 518.85,-209.54 526.12,-207.58 532.92,-205.56"/>
<polygon fill="#9a32cd" stroke="#9a32cd" points="151.83,-244.02 141.9,-247.69 151.96,-251.01 151.83,-244.02"/>
<text text-anchor="middle" x="335" y="-255" font-family="Helvetica,sans-Serif" font-size="10.00"> cpu_nParamPerEvent</text>
<text text-anchor="middle" x="335" y="-244" font-family="Helvetica,sans-Serif" font-size="10.00">cpu_nParamPerEvent_tf1</text>
</g>
<!-- Node7 -->
<g id="node7" class="node">
<title>Node7</title>
<g id="a_node7"><a xlink:href="structSplineMonoStruct.html" target="_top" xlink:title="KS: Struct storing information for spline monolith.">
<polygon fill="white" stroke="#666666" points="386,-205.5 284,-205.5 284,-186.5 386,-186.5 386,-205.5"/>
<text text-anchor="middle" x="335" y="-193.5" font-family="Helvetica,sans-Serif" font-size="10.00">SplineMonoStruct</text>
</a>
</g>
</g>
<!-- Node6&#45;&gt;Node7 -->
<g id="edge8" class="edge">
<title>Node6&#45;&gt;Node7</title>
<path fill="none" stroke="#9a32cd" stroke-dasharray="5,2" d="M151.99,-234.04C183.86,-227.74 221.83,-220.13 256,-213 267.26,-210.65 279.42,-208.04 290.71,-205.58"/>
<polygon fill="#9a32cd" stroke="#9a32cd" points="151.01,-230.67 141.88,-236.04 152.36,-237.53 151.01,-230.67"/>
<text text-anchor="middle" x="216.5" y="-231" font-family="Helvetica,sans-Serif" font-size="10.00"> nKnots_arr</text>
</g>
<!-- Node7&#45;&gt;Node1 -->
<g id="edge6" class="edge">
<title>Node7&#45;&gt;Node1</title>
<path fill="none" stroke="#9a32cd" stroke-dasharray="5,2" d="M396.1,-196C439.03,-196 495.09,-196 529.68,-196"/>
<polygon fill="#9a32cd" stroke="#9a32cd" points="396.05,-192.5 386.05,-196 396.05,-199.5 396.05,-192.5"/>
<text text-anchor="middle" x="463" y="-199" font-family="Helvetica,sans-Serif" font-size="10.00"> cpu_spline_handler</text>
</g>
<!-- Node8 -->
<g id="node8" class="node">
<title>Node8</title>
<g id="a_node8"><a xlink:title=" ">
<polygon fill="white" stroke="#666666" points="136,-183.5 23,-183.5 23,-164.5 136,-164.5 136,-183.5"/>
<text text-anchor="middle" x="79.5" y="-171.5" font-family="Helvetica,sans-Serif" font-size="10.00">std::vector&lt; float &gt;</text>
</a>
</g>
</g>
<!-- Node8&#45;&gt;Node1 -->
<g id="edge11" class="edge">
<title>Node8&#45;&gt;Node1</title>
<path fill="none" stroke="#9a32cd" stroke-dasharray="5,2" d="M146.52,-168.37C210.45,-163.9 310.04,-159.53 396,-167 443.08,-171.09 496.85,-181.62 529.99,-188.8"/>
<polygon fill="#9a32cd" stroke="#9a32cd" points="145.91,-164.9 136.19,-169.11 146.41,-171.88 145.91,-164.9"/>
<text text-anchor="middle" x="335" y="-170" font-family="Helvetica,sans-Serif" font-size="10.00"> cpu_coeff_TF1_many</text>
</g>
<!-- Node8&#45;&gt;Node7 -->
<g id="edge7" class="edge">
<title>Node8&#45;&gt;Node7</title>
<path fill="none" stroke="#9a32cd" stroke-dasharray="5,2" d="M146.2,-179.7C189.09,-183.42 244.24,-188.21 283.66,-191.63"/>
<polygon fill="#9a32cd" stroke="#9a32cd" points="146.4,-176.21 136.13,-178.83 145.79,-183.18 146.4,-176.21"/>
<text text-anchor="middle" x="216.5" y="-202" font-family="Helvetica,sans-Serif" font-size="10.00"> coeff_many</text>
<text text-anchor="middle" x="216.5" y="-191" font-family="Helvetica,sans-Serif" font-size="10.00">coeff_x</text>
</g>
<!-- Node9 -->
<g id="node9" class="node">
<title>Node9</title>
<g id="a_node9"><a xlink:title=" ">
<polygon fill="white" stroke="#666666" points="131.5,-130 27.5,-130 27.5,-100 131.5,-100 131.5,-130"/>
<text text-anchor="start" x="35.5" y="-118" font-family="Helvetica,sans-Serif" font-size="10.00">std::vector&lt; short</text>
<text text-anchor="middle" x="79.5" y="-107" font-family="Helvetica,sans-Serif" font-size="10.00"> int &gt;</text>
</a>
</g>
</g>
<!-- Node9&#45;&gt;Node1 -->
<g id="edge12" class="edge">
<title>Node9&#45;&gt;Node1</title>
<path fill="none" stroke="#9a32cd" stroke-dasharray="5,2" d="M141.92,-115.85C205.76,-117.49 308.41,-122.25 396,-136 448.5,-144.24 463.1,-144.2 512,-165 525.25,-170.64 539.03,-179.56 548.68,-186.39"/>
<polygon fill="#9a32cd" stroke="#9a32cd" points="141.71,-112.34 131.63,-115.61 141.54,-119.34 141.71,-112.34"/>
<text text-anchor="middle" x="335" y="-150" font-family="Helvetica,sans-Serif" font-size="10.00"> cpu_nPoints_arr</text>
<text text-anchor="middle" x="335" y="-139" font-family="Helvetica,sans-Serif" font-size="10.00">cpu_paramNo_TF1_arr</text>
</g>
<!-- Node9&#45;&gt;Node7 -->
<g id="edge9" class="edge">
<title>Node9&#45;&gt;Node7</title>
<path fill="none" stroke="#9a32cd" stroke-dasharray="5,2" d="M141.61,-132C175.49,-141.71 218.27,-154.41 256,-167 274.09,-173.04 294.26,-180.56 309.56,-186.43"/>
<polygon fill="#9a32cd" stroke="#9a32cd" points="142.43,-128.6 131.86,-129.22 140.51,-135.33 142.43,-128.6"/>
<text text-anchor="middle" x="216.5" y="-170" font-family="Helvetica,sans-Serif" font-size="10.00"> paramNo_arr</text>
</g>
<!-- Node10 -->
<g id="node10" class="node">
<title>Node10</title>
<g id="a_node10"><a xlink:href="classSMonolithGPU.html" target="_top" xlink:title="Class responsible for calculating spline weight on GPU.">
<polygon fill="white" stroke="#666666" points="378,-61.5 292,-61.5 292,-42.5 378,-42.5 378,-61.5"/>
<text text-anchor="middle" x="335" y="-49.5" font-family="Helvetica,sans-Serif" font-size="10.00">SMonolithGPU</text>
</a>
</g>
</g>
<!-- Node10&#45;&gt;Node1 -->
<g id="edge10" class="edge">
<title>Node10&#45;&gt;Node1</title>
<path fill="none" stroke="#9a32cd" stroke-dasharray="5,2" d="M388.5,-45.01C426.53,-42.85 477.16,-46.32 512,-73 549.28,-101.55 558.58,-162.7 560.82,-186.37"/>
<polygon fill="#9a32cd" stroke="#9a32cd" points="387.86,-41.54 378.14,-45.75 388.36,-48.53 387.86,-41.54"/>
<text text-anchor="middle" x="463" y="-76" font-family="Helvetica,sans-Serif" font-size="10.00"> gpu_spline_handler</text>
</g>
<!-- Node11 -->
<g id="node11" class="node">
<title>Node11</title>
<g id="a_node11"><a xlink:title=" ">
<polygon fill="white" stroke="#666666" points="367.5,-24.5 302.5,-24.5 302.5,-5.5 367.5,-5.5 367.5,-24.5"/>
<text text-anchor="middle" x="335" y="-12.5" font-family="Helvetica,sans-Serif" font-size="10.00">std::string</text>
</a>
</g>
</g>
<!-- Node11&#45;&gt;Node1 -->
<g id="edge13" class="edge">
<title>Node11&#45;&gt;Node1</title>
<path fill="none" stroke="#9a32cd" stroke-dasharray="5,2" d="M377.53,-6.41C416.6,-0.86 474.55,0.47 512,-30 561.22,-70.05 562.93,-156.85 562.01,-186.13"/>
<polygon fill="#9a32cd" stroke="#9a32cd" points="376.87,-2.97 367.53,-7.97 377.96,-9.88 376.87,-2.97"/>
<text text-anchor="middle" x="463" y="-33" font-family="Helvetica,sans-Serif" font-size="10.00"> FastSplineName</text>
</g>
<!-- Node12 -->
<g id="node12" class="node">
<title>Node12</title>
<g id="a_node12"><a xlink:title=" ">
<polygon fill="white" stroke="#666666" points="131.5,-30 27.5,-30 27.5,0 131.5,0 131.5,-30"/>
<text text-anchor="start" x="35.5" y="-18" font-family="Helvetica,sans-Serif" font-size="10.00">std::basic_string&lt;</text>
<text text-anchor="middle" x="79.5" y="-7" font-family="Helvetica,sans-Serif" font-size="10.00"> Char &gt;</text>
</a>
</g>
</g>
<!-- Node12&#45;&gt;Node11 -->
<g id="edge14" class="edge">
<title>Node12&#45;&gt;Node11</title>
<path fill="none" stroke="#63b8ff" d="M141.98,-15C192.62,-15 262.39,-15 302.39,-15"/>
<polygon fill="#63b8ff" stroke="#63b8ff" points="141.8,-11.5 131.8,-15 141.8,-18.5 141.8,-11.5"/>
</g>
</g>
</svg>
