<?xml version="1.0" encoding="UTF-8" standalone="no"?>
<!DOCTYPE svg PUBLIC "-//W3C//DTD SVG 1.1//EN"
 "http://www.w3.org/Graphics/SVG/1.1/DTD/svg11.dtd">
<!-- Generated by graphviz version 2.43.0 (0)
 -->
<!-- Title: PredictiveThrower Pages: 1 -->
<!--zoomable 990 -->
<svg id="main" version="1.1" xmlns="http://www.w3.org/2000/svg" xmlns:xlink="http://www.w3.org/1999/xlink" xml:space="preserve" onload="init(evt)">
<style type="text/css"><![CDATA[
.edge:hover path { stroke: red; }
.edge:hover polygon { stroke: red; fill: red; }
]]></style>
<script type="text/javascript"><![CDATA[
var edges = document.getElementsByTagName('g');
if (edges && edges.length) {
  for (var i=0;i<edges.length;i++) {
    if (edges[i].id.substr(0,4)=='edge') {
      edges[i].setAttribute('class','edge');
    }
  }
}
]]></script>
        <defs>
                <circle id="rim" cx="0" cy="0" r="7"/>
                <circle id="rim2" cx="0" cy="0" r="3.5"/>
                <g id="zoomPlus">
                        <use xlink:href="#rim" fill="#404040">
                                <set attributeName="fill" to="#808080" begin="zoomplus.mouseover" end="zoomplus.mouseout"/>
                        </use>
                        <path d="M-4,0h8M0,-4v8" fill="none" stroke="white" stroke-width="1.5" pointer-events="none"/>
                </g>
                <g id="zoomMin">
                        <use xlink:href="#rim" fill="#404040">
                                <set attributeName="fill" to="#808080" begin="zoomminus.mouseover" end="zoomminus.mouseout"/>
                        </use>
                        <path d="M-4,0h8" fill="none" stroke="white" stroke-width="1.5" pointer-events="none"/>
                </g>
                <g id="dirArrow">
                        <path fill="none" stroke="white" stroke-width="1.5" d="M0,-3.0v7 M-2.5,-0.5L0,-3.0L2.5,-0.5"/>
                </g>
               <g id="resetDef">
                       <use xlink:href="#rim2" fill="#404040">
                               <set attributeName="fill" to="#808080" begin="reset.mouseover" end="reset.mouseout"/>
                       </use>
               </g>
        </defs>

<script type="text/javascript">
var viewWidth = 1271;
var viewHeight = 990;
var sectionId = 'dynsection-1';
</script>
<script xlink:href="svgpan.js"/>
<svg id="graph" class="graph">
<g id="viewport">
<title>PredictiveThrower</title>
<!-- Node1 -->
<g id="node1" class="node">
<title>Node1</title>
<g id="a_node1"><a xlink:title="Implementation of Prior/Posterior Predictive and Bayesian p&#45;Value calculations following the approach...">
<polygon fill="#999999" stroke="#666666" points="1263,-344.57 1158,-344.57 1158,-325.57 1263,-325.57 1263,-344.57"/>
<text text-anchor="middle" x="1210.5" y="-332.57" font-family="Helvetica,sans-Serif" font-size="10.00">PredictiveThrower</text>
</a>
</g>
</g>
<!-- Node2 -->
<g id="node2" class="node">
<title>Node2</title>
<g id="a_node2"><a xlink:href="classFitterBase.html" target="_top" xlink:title="Base class for implementing fitting algorithms.">
<polygon fill="white" stroke="#666666" points="959.5,-809.57 893.5,-809.57 893.5,-790.57 959.5,-790.57 959.5,-809.57"/>
<text text-anchor="middle" x="926.5" y="-797.57" font-family="Helvetica,sans-Serif" font-size="10.00">FitterBase</text>
</a>
</g>
</g>
<!-- Node2&#45;&gt;Node1 -->
<g id="edge1" class="edge">
<title>Node2&#45;&gt;Node1</title>
<path fill="none" stroke="#63b8ff" d="M960.6,-786.35C1008.15,-764.85 1095,-718.59 1140,-651.07 1209.16,-547.3 1210.64,-385.87 1209.81,-344.82"/>
<polygon fill="#63b8ff" stroke="#63b8ff" points="959.09,-783.19 951.36,-790.44 961.92,-789.59 959.09,-783.19"/>
</g>
<!-- Node3 -->
<g id="node3" class="node">
<title>Node3</title>
<g id="a_node3"><a xlink:href="classmanager.html" target="_top" xlink:title="The manager class is responsible for managing configurations and settings.">
<polygon fill="white" stroke="#666666" points="593.5,-838.57 533.5,-838.57 533.5,-819.57 593.5,-819.57 593.5,-838.57"/>
<text text-anchor="middle" x="563.5" y="-826.57" font-family="Helvetica,sans-Serif" font-size="10.00">manager</text>
</a>
</g>
</g>
<!-- Node3&#45;&gt;Node2 -->
<g id="edge2" class="edge">
<title>Node3&#45;&gt;Node2</title>
<path fill="none" stroke="#9a32cd" stroke-dasharray="5,2" d="M603.75,-825.92C675.66,-820.14 827.21,-807.96 893.42,-802.65"/>
<polygon fill="#9a32cd" stroke="#9a32cd" points="603.42,-822.43 593.74,-826.72 603.98,-829.41 603.42,-822.43"/>
<text text-anchor="middle" x="749.5" y="-822.07" font-family="Helvetica,sans-Serif" font-size="10.00"> fitMan</text>
</g>
<!-- Node4 -->
<g id="node4" class="node">
<title>Node4</title>
<g id="a_node4"><a xlink:title=" ">
<polygon fill="white" stroke="#666666" points="264.5,-858.57 199.5,-858.57 199.5,-839.57 264.5,-839.57 264.5,-858.57"/>
<text text-anchor="middle" x="232" y="-846.57" font-family="Helvetica,sans-Serif" font-size="10.00">std::string</text>
</a>
</g>
</g>
<!-- Node4&#45;&gt;Node2 -->
<g id="edge10" class="edge">
<title>Node4&#45;&gt;Node2</title>
<path fill="none" stroke="#9a32cd" stroke-dasharray="5,2" d="M274.74,-852.97C371.92,-860.98 620.39,-875.26 822,-834.07 849.98,-828.35 880.96,-817.55 901.67,-809.65"/>
<polygon fill="#9a32cd" stroke="#9a32cd" points="274.99,-849.48 264.73,-852.12 274.4,-856.45 274.99,-849.48"/>
<text text-anchor="middle" x="563.5" y="-864.07" font-family="Helvetica,sans-Serif" font-size="10.00"> AlgorithmName</text>
</g>
<!-- Node4&#45;&gt;Node3 -->
<g id="edge3" class="edge">
<title>Node4&#45;&gt;Node3</title>
<path fill="none" stroke="#9a32cd" stroke-dasharray="5,2" d="M274.91,-846.53C342.73,-842.41 474.84,-834.39 533.38,-830.84"/>
<polygon fill="#9a32cd" stroke="#9a32cd" points="274.36,-843.05 264.59,-847.15 274.79,-850.04 274.36,-843.05"/>
<text text-anchor="middle" x="395.5" y="-844.07" font-family="Helvetica,sans-Serif" font-size="10.00"> FileName</text>
</g>
<!-- Node15 -->
<g id="node15" class="node">
<title>Node15</title>
<g id="a_node15"><a xlink:href="classParameterHandlerBase.html" target="_top" xlink:title="Base class responsible for handling of systematic error parameters. Capable of using PCA or using ada...">
<polygon fill="white" stroke="#666666" points="628,-347.57 499,-347.57 499,-328.57 628,-328.57 628,-347.57"/>
<text text-anchor="middle" x="563.5" y="-335.57" font-family="Helvetica,sans-Serif" font-size="10.00">ParameterHandlerBase</text>
</a>
</g>
</g>
<!-- Node4&#45;&gt;Node15 -->
<g id="edge16" class="edge">
<title>Node4&#45;&gt;Node15</title>
<path fill="none" stroke="#9a32cd" stroke-dasharray="5,2" d="M261.32,-834.62C310.01,-808.04 408.36,-746.28 450,-662.07 480.1,-601.21 423.45,-408.31 468,-357.07 476.02,-347.85 487.14,-342.34 498.96,-339.18"/>
<polygon fill="#9a32cd" stroke="#9a32cd" points="259.44,-831.66 252.28,-839.47 262.75,-837.83 259.44,-831.66"/>
<text text-anchor="middle" x="395.5" y="-795.07" font-family="Helvetica,sans-Serif" font-size="10.00"> inputFile</text>
<text text-anchor="middle" x="395.5" y="-784.07" font-family="Helvetica,sans-Serif" font-size="10.00">matrixName</text>
</g>
<!-- Node5 -->
<g id="node5" class="node">
<title>Node5</title>
<g id="a_node5"><a xlink:title=" ">
<polygon fill="white" stroke="#666666" points="104,-864.07 0,-864.07 0,-834.07 104,-834.07 104,-864.07"/>
<text text-anchor="start" x="8" y="-852.07" font-family="Helvetica,sans-Serif" font-size="10.00">std::basic_string&lt;</text>
<text text-anchor="middle" x="52" y="-841.07" font-family="Helvetica,sans-Serif" font-size="10.00"> Char &gt;</text>
</a>
</g>
</g>
<!-- Node5&#45;&gt;Node4 -->
<g id="edge4" class="edge">
<title>Node5&#45;&gt;Node4</title>
<path fill="none" stroke="#63b8ff" d="M114.33,-849.07C142.93,-849.07 175.76,-849.07 199.3,-849.07"/>
<polygon fill="#63b8ff" stroke="#63b8ff" points="114.01,-845.57 104.01,-849.07 114.01,-852.57 114.01,-845.57"/>
</g>
<!-- Node6 -->
<g id="node6" class="node">
<title>Node6</title>
<g id="a_node6"><a xlink:title=" ">
<polygon fill="white" stroke="#666666" points="294,-681.57 170,-681.57 170,-662.57 294,-662.57 294,-681.57"/>
<text text-anchor="middle" x="232" y="-669.57" font-family="Helvetica,sans-Serif" font-size="10.00">std::vector&lt; double &gt;</text>
</a>
</g>
</g>
<!-- Node6&#45;&gt;Node1 -->
<g id="edge37" class="edge">
<title>Node6&#45;&gt;Node1</title>
<path fill="none" stroke="#9a32cd" stroke-dasharray="5,2" d="M304.32,-670.39C346.81,-668.66 401.69,-665.16 450,-658.07 706.32,-620.43 778.23,-616.6 1013,-507.07 1072.82,-479.16 1091.35,-474.68 1140,-430.07 1169.07,-403.41 1193.81,-362.95 1204.23,-344.65"/>
<polygon fill="#9a32cd" stroke="#9a32cd" points="303.94,-666.9 294.08,-670.78 304.2,-673.9 303.94,-666.9"/>
<text text-anchor="middle" x="749.5" y="-636.07" font-family="Helvetica,sans-Serif" font-size="10.00"> PenaltyTerm</text>
<text text-anchor="middle" x="749.5" y="-625.07" font-family="Helvetica,sans-Serif" font-size="10.00">ReweightWeight</text>
</g>
<!-- Node6&#45;&gt;Node2 -->
<g id="edge5" class="edge">
<title>Node6&#45;&gt;Node2</title>
<path fill="none" stroke="#9a32cd" stroke-dasharray="5,2" d="M264.96,-685.51C309.58,-703.68 393.45,-735.69 468,-752.07 625.17,-786.61 818.36,-796.51 893.49,-799.17"/>
<polygon fill="#9a32cd" stroke="#9a32cd" points="266.11,-682.2 255.53,-681.64 263.45,-688.68 266.11,-682.2"/>
<text text-anchor="middle" x="563.5" y="-795.07" font-family="Helvetica,sans-Serif" font-size="10.00"> sample_llh</text>
<text text-anchor="middle" x="563.5" y="-784.07" font-family="Helvetica,sans-Serif" font-size="10.00">syst_llh</text>
</g>
<!-- Node6&#45;&gt;Node15 -->
<g id="edge20" class="edge">
<title>Node6&#45;&gt;Node15</title>
<path fill="none" stroke="#9a32cd" stroke-dasharray="5,2" d="M248.93,-655.13C269.25,-633.99 305.97,-597.29 341,-570.07 386.27,-534.89 419.28,-549.48 450,-501.07 484.56,-446.61 424.11,-404.33 468,-357.07 476.2,-348.24 487.26,-342.87 498.93,-339.72"/>
<polygon fill="#9a32cd" stroke="#9a32cd" points="246.35,-652.77 241.98,-662.42 251.42,-657.6 246.35,-652.77"/>
<text text-anchor="middle" x="395.5" y="-650.07" font-family="Helvetica,sans-Serif" font-size="10.00"> FlipParameterPoint</text>
<text text-anchor="middle" x="395.5" y="-639.07" font-family="Helvetica,sans-Serif" font-size="10.00">_fCurrVal</text>
<text text-anchor="middle" x="395.5" y="-628.07" font-family="Helvetica,sans-Serif" font-size="10.00">_fError</text>
<text text-anchor="middle" x="395.5" y="-617.07" font-family="Helvetica,sans-Serif" font-size="10.00">_fIndivStepScale</text>
<text text-anchor="middle" x="395.5" y="-606.07" font-family="Helvetica,sans-Serif" font-size="10.00">_fLowBound</text>
<text text-anchor="middle" x="395.5" y="-595.07" font-family="Helvetica,sans-Serif" font-size="10.00">_fPreFitValue</text>
<text text-anchor="middle" x="395.5" y="-584.07" font-family="Helvetica,sans-Serif" font-size="10.00">_fPropVal</text>
<text text-anchor="middle" x="395.5" y="-573.07" font-family="Helvetica,sans-Serif" font-size="10.00">_fUpBound</text>
</g>
<!-- Node7 -->
<g id="node7" class="node">
<title>Node7</title>
<g id="a_node7"><a xlink:title=" ">
<polygon fill="white" stroke="#666666" points="641,-743.07 486,-743.07 486,-713.07 641,-713.07 641,-743.07"/>
<text text-anchor="start" x="494" y="-731.07" font-family="Helvetica,sans-Serif" font-size="10.00">std::vector&lt; SampleHandler</text>
<text text-anchor="middle" x="563.5" y="-720.07" font-family="Helvetica,sans-Serif" font-size="10.00">Base * &gt;</text>
</a>
</g>
</g>
<!-- Node7&#45;&gt;Node2 -->
<g id="edge6" class="edge">
<title>Node7&#45;&gt;Node2</title>
<path fill="none" stroke="#9a32cd" stroke-dasharray="5,2" d="M651.36,-729.99C701.87,-732.8 766.34,-739.3 822,-754.07 853.93,-762.54 888.53,-779.71 908.54,-790.5"/>
<polygon fill="#9a32cd" stroke="#9a32cd" points="651.29,-726.48 641.12,-729.46 650.93,-733.48 651.29,-726.48"/>
<text text-anchor="middle" x="749.5" y="-757.07" font-family="Helvetica,sans-Serif" font-size="10.00"> samples</text>
</g>
<!-- Node8 -->
<g id="node8" class="node">
<title>Node8</title>
<g id="a_node8"><a xlink:title=" ">
<polygon fill="white" stroke="#666666" points="647.5,-695.07 479.5,-695.07 479.5,-665.07 647.5,-665.07 647.5,-695.07"/>
<text text-anchor="start" x="487.5" y="-683.07" font-family="Helvetica,sans-Serif" font-size="10.00">std::vector&lt; ParameterHandler</text>
<text text-anchor="middle" x="563.5" y="-672.07" font-family="Helvetica,sans-Serif" font-size="10.00">Base * &gt;</text>
</a>
</g>
</g>
<!-- Node8&#45;&gt;Node2 -->
<g id="edge7" class="edge">
<title>Node8&#45;&gt;Node2</title>
<path fill="none" stroke="#9a32cd" stroke-dasharray="5,2" d="M657.78,-681.62C708.17,-685.34 770.45,-694.7 822,-717.07 862.57,-734.67 900.5,-772.56 916.94,-790.4"/>
<polygon fill="#9a32cd" stroke="#9a32cd" points="657.76,-678.11 647.55,-680.93 657.29,-685.09 657.76,-678.11"/>
<text text-anchor="middle" x="749.5" y="-720.07" font-family="Helvetica,sans-Serif" font-size="10.00"> systematics</text>
</g>
<!-- Node9 -->
<g id="node9" class="node">
<title>Node9</title>
<g id="a_node9"><a xlink:title=" ">
<polygon fill="white" stroke="#666666" points="648,-960.57 479,-960.57 479,-941.57 648,-941.57 648,-960.57"/>
<text text-anchor="middle" x="563.5" y="-948.57" font-family="Helvetica,sans-Serif" font-size="10.00">std::unique_ptr&lt; TStopwatch &gt;</text>
</a>
</g>
</g>
<!-- Node9&#45;&gt;Node2 -->
<g id="edge8" class="edge">
<title>Node9&#45;&gt;Node2</title>
<path fill="none" stroke="#9a32cd" stroke-dasharray="5,2" d="M658.14,-960.4C709.33,-961.38 772.27,-955.59 822,-929.07 874.19,-901.24 909.41,-834.67 921.17,-809.72"/>
<polygon fill="#9a32cd" stroke="#9a32cd" points="658.15,-956.9 648.06,-960.12 657.96,-963.9 658.15,-956.9"/>
<text text-anchor="middle" x="749.5" y="-974.07" font-family="Helvetica,sans-Serif" font-size="10.00"> clock</text>
<text text-anchor="middle" x="749.5" y="-963.07" font-family="Helvetica,sans-Serif" font-size="10.00">stepClock</text>
</g>
<!-- Node10 -->
<g id="node10" class="node">
<title>Node10</title>
<g id="a_node10"><a xlink:title=" ">
<polygon fill="white" stroke="#666666" points="645.5,-923.57 481.5,-923.57 481.5,-904.57 645.5,-904.57 645.5,-923.57"/>
<text text-anchor="middle" x="563.5" y="-911.57" font-family="Helvetica,sans-Serif" font-size="10.00">std::unique_ptr&lt; TRandom3 &gt;</text>
</a>
</g>
</g>
<!-- Node10&#45;&gt;Node2 -->
<g id="edge9" class="edge">
<title>Node10&#45;&gt;Node2</title>
<path fill="none" stroke="#9a32cd" stroke-dasharray="5,2" d="M655.92,-918.47C706.69,-917.7 769.93,-911.3 822,-889.07 864.5,-870.92 902.31,-828.78 917.91,-809.73"/>
<polygon fill="#9a32cd" stroke="#9a32cd" points="655.59,-914.97 645.62,-918.55 655.64,-921.97 655.59,-914.97"/>
<text text-anchor="middle" x="749.5" y="-920.07" font-family="Helvetica,sans-Serif" font-size="10.00"> random</text>
</g>
<!-- Node11 -->
<g id="node11" class="node">
<title>Node11</title>
<g id="a_node11"><a xlink:title=" ">
<polygon fill="white" stroke="#666666" points="302,-529.57 162,-529.57 162,-510.57 302,-510.57 302,-529.57"/>
<text text-anchor="middle" x="232" y="-517.57" font-family="Helvetica,sans-Serif" font-size="10.00">std::vector&lt; std::string &gt;</text>
</a>
</g>
</g>
<!-- Node11&#45;&gt;Node1 -->
<g id="edge11" class="edge">
<title>Node11&#45;&gt;Node1</title>
<path fill="none" stroke="#9a32cd" stroke-dasharray="5,2" d="M312.28,-527.36C450.06,-539.16 727.97,-558.82 822,-535.07 981.28,-494.83 1148.96,-379.11 1196.35,-344.78"/>
<polygon fill="#9a32cd" stroke="#9a32cd" points="312.47,-523.86 302.2,-526.49 311.87,-530.84 312.47,-523.86"/>
<text text-anchor="middle" x="749.5" y="-560.07" font-family="Helvetica,sans-Serif" font-size="10.00"> ParameterGroupsNotVaried</text>
<text text-anchor="middle" x="749.5" y="-549.07" font-family="Helvetica,sans-Serif" font-size="10.00">SampleNames</text>
</g>
<!-- Node14 -->
<g id="node14" class="node">
<title>Node14</title>
<g id="a_node14"><a xlink:href="classParameterHandlerGeneric.html" target="_top" xlink:title="Class responsible for handling of systematic error parameters with different types defined in the con...">
<polygon fill="white" stroke="#666666" points="998,-366.57 855,-366.57 855,-347.57 998,-347.57 998,-366.57"/>
<text text-anchor="middle" x="926.5" y="-354.57" font-family="Helvetica,sans-Serif" font-size="10.00">ParameterHandlerGeneric</text>
</a>
</g>
</g>
<!-- Node11&#45;&gt;Node14 -->
<g id="edge29" class="edge">
<title>Node11&#45;&gt;Node14</title>
<path fill="none" stroke="#9a32cd" stroke-dasharray="5,2" d="M312.29,-520.83C365.57,-519.66 429.64,-514.46 450,-497.07 473.44,-477.04 444.79,-450.37 468,-430.07 497.85,-403.95 783.07,-391.65 822,-384.07 846.06,-379.39 872.83,-372.35 893.11,-366.64"/>
<polygon fill="#9a32cd" stroke="#9a32cd" points="312.08,-517.33 302.14,-521 312.2,-524.33 312.08,-517.33"/>
<text text-anchor="middle" x="563.5" y="-444.07" font-family="Helvetica,sans-Serif" font-size="10.00"> _ParameterGroup</text>
<text text-anchor="middle" x="563.5" y="-433.07" font-family="Helvetica,sans-Serif" font-size="10.00">_fSplineNames</text>
</g>
<!-- Node11&#45;&gt;Node15 -->
<g id="edge19" class="edge">
<title>Node11&#45;&gt;Node15</title>
<path fill="none" stroke="#9a32cd" stroke-dasharray="5,2" d="M311.59,-507.39C315.57,-505.55 319.41,-503.46 323,-501.07 334.7,-493.29 329.3,-482.85 341,-475.07 382.23,-447.66 415.35,-487.44 450,-452.07 480.07,-421.37 437.78,-387.62 468,-357.07 476.35,-348.62 487.34,-343.4 498.86,-340.26"/>
<polygon fill="#9a32cd" stroke="#9a32cd" points="310.02,-504.25 302.05,-511.23 312.64,-510.74 310.02,-504.25"/>
<text text-anchor="middle" x="395.5" y="-489.07" font-family="Helvetica,sans-Serif" font-size="10.00"> _fFancyNames</text>
<text text-anchor="middle" x="395.5" y="-478.07" font-family="Helvetica,sans-Serif" font-size="10.00">_fNames</text>
</g>
<!-- Node12 -->
<g id="node12" class="node">
<title>Node12</title>
<g id="a_node12"><a xlink:title=" ">
<polygon fill="white" stroke="#666666" points="284,-126.57 180,-126.57 180,-107.57 284,-107.57 284,-126.57"/>
<text text-anchor="middle" x="232" y="-114.57" font-family="Helvetica,sans-Serif" font-size="10.00">std::vector&lt; int &gt;</text>
</a>
</g>
</g>
<!-- Node12&#45;&gt;Node1 -->
<g id="edge12" class="edge">
<title>Node12&#45;&gt;Node1</title>
<path fill="none" stroke="#9a32cd" stroke-dasharray="5,2" d="M294.49,-119.8C337.98,-121.97 397.62,-125.41 450,-130.07 615.83,-144.83 660.93,-131.95 822,-174.07 970.71,-212.96 1137.52,-297.11 1191.57,-325.5"/>
<polygon fill="#9a32cd" stroke="#9a32cd" points="294.52,-116.3 284.36,-119.31 294.18,-123.29 294.52,-116.3"/>
<text text-anchor="middle" x="749.5" y="-177.07" font-family="Helvetica,sans-Serif" font-size="10.00"> SampleObjectMap</text>
</g>
<!-- Node12&#45;&gt;Node15 -->
<g id="edge26" class="edge">
<title>Node12&#45;&gt;Node15</title>
<path fill="none" stroke="#9a32cd" stroke-dasharray="5,2" d="M294.17,-123.95C356.42,-131.23 444.57,-142.43 450,-148.07 503.03,-203.1 416.55,-262.56 468,-319.07 476.11,-327.98 487.14,-333.38 498.79,-336.54"/>
<polygon fill="#9a32cd" stroke="#9a32cd" points="294.37,-120.45 284.03,-122.77 293.56,-127.4 294.37,-120.45"/>
<text text-anchor="middle" x="395.5" y="-162.07" font-family="Helvetica,sans-Serif" font-size="10.00"> CircularBoundsIndex</text>
<text text-anchor="middle" x="395.5" y="-151.07" font-family="Helvetica,sans-Serif" font-size="10.00">FlipParameterIndex</text>
</g>
<!-- Node13 -->
<g id="node13" class="node">
<title>Node13</title>
<g id="a_node13"><a xlink:title=" ">
<polygon fill="white" stroke="#666666" points="980,-329.07 873,-329.07 873,-299.07 980,-299.07 980,-329.07"/>
<text text-anchor="start" x="881" y="-317.07" font-family="Helvetica,sans-Serif" font-size="10.00">std::unordered_set</text>
<text text-anchor="middle" x="926.5" y="-306.07" font-family="Helvetica,sans-Serif" font-size="10.00">&lt; int &gt;</text>
</a>
</g>
</g>
<!-- Node13&#45;&gt;Node1 -->
<g id="edge13" class="edge">
<title>Node13&#45;&gt;Node1</title>
<path fill="none" stroke="#9a32cd" stroke-dasharray="5,2" d="M990.28,-312.82C1032.7,-312.71 1089.9,-314.01 1140,-320.07 1150.29,-321.31 1161.31,-323.36 1171.48,-325.54"/>
<polygon fill="#9a32cd" stroke="#9a32cd" points="990.08,-309.32 980.1,-312.87 990.11,-316.32 990.08,-309.32"/>
<text text-anchor="middle" x="1085.5" y="-323.07" font-family="Helvetica,sans-Serif" font-size="10.00"> ParameterOnlyToVary</text>
</g>
<!-- Node14&#45;&gt;Node1 -->
<g id="edge14" class="edge">
<title>Node14&#45;&gt;Node1</title>
<path fill="none" stroke="#9a32cd" stroke-dasharray="5,2" d="M1008.37,-350.76C1056.46,-347.01 1116.02,-342.36 1157.81,-339.1"/>
<polygon fill="#9a32cd" stroke="#9a32cd" points="1007.99,-347.28 998.3,-351.55 1008.54,-354.26 1007.99,-347.28"/>
<text text-anchor="middle" x="1085.5" y="-351.07" font-family="Helvetica,sans-Serif" font-size="10.00"> ModelSystematic</text>
</g>
<!-- Node15&#45;&gt;Node14 -->
<g id="edge15" class="edge">
<title>Node15&#45;&gt;Node14</title>
<path fill="none" stroke="#63b8ff" d="M638.52,-341.96C701.83,-345.3 792.34,-350.06 854.71,-353.34"/>
<polygon fill="#63b8ff" stroke="#63b8ff" points="638.38,-338.45 628.21,-341.42 638.01,-345.44 638.38,-338.45"/>
</g>
<!-- Node16 -->
<g id="node16" class="node">
<title>Node16</title>
<g id="a_node16"><a xlink:title=" ">
<polygon fill="white" stroke="#666666" points="297.5,-444.07 166.5,-444.07 166.5,-414.07 297.5,-414.07 297.5,-444.07"/>
<text text-anchor="start" x="174.5" y="-432.07" font-family="Helvetica,sans-Serif" font-size="10.00">std::vector&lt; std::vector</text>
<text text-anchor="middle" x="232" y="-421.07" font-family="Helvetica,sans-Serif" font-size="10.00">&lt; double &gt; &gt;</text>
</a>
</g>
</g>
<!-- Node16&#45;&gt;Node15 -->
<g id="edge17" class="edge">
<title>Node16&#45;&gt;Node15</title>
<path fill="none" stroke="#9a32cd" stroke-dasharray="5,2" d="M307.67,-413.45C367.96,-400.64 443.78,-384.01 450,-380.07 460.97,-373.13 456.95,-363.88 468,-357.07 477.26,-351.36 487.91,-347.32 498.64,-344.48"/>
<polygon fill="#9a32cd" stroke="#9a32cd" points="306.81,-410.05 297.76,-415.55 308.27,-416.9 306.81,-410.05"/>
<text text-anchor="middle" x="395.5" y="-408.07" font-family="Helvetica,sans-Serif" font-size="10.00"> InvertCovMatrix</text>
</g>
<!-- Node17 -->
<g id="node17" class="node">
<title>Node17</title>
<g id="a_node17"><a xlink:title=" ">
<polygon fill="white" stroke="#666666" points="299,-396.07 165,-396.07 165,-366.07 299,-366.07 299,-396.07"/>
<text text-anchor="start" x="173" y="-384.07" font-family="Helvetica,sans-Serif" font-size="10.00">std::vector&lt; std::unique</text>
<text text-anchor="middle" x="232" y="-373.07" font-family="Helvetica,sans-Serif" font-size="10.00">_ptr&lt; TRandom3 &gt; &gt;</text>
</a>
</g>
</g>
<!-- Node17&#45;&gt;Node15 -->
<g id="edge18" class="edge">
<title>Node17&#45;&gt;Node15</title>
<path fill="none" stroke="#9a32cd" stroke-dasharray="5,2" d="M309.41,-371.1C366.88,-363.6 444.72,-353.44 498.84,-346.38"/>
<polygon fill="#9a32cd" stroke="#9a32cd" points="308.75,-367.65 299.28,-372.42 309.65,-374.6 308.75,-367.65"/>
<text text-anchor="middle" x="395.5" y="-368.07" font-family="Helvetica,sans-Serif" font-size="10.00"> random_number</text>
</g>
<!-- Node18 -->
<g id="node18" class="node">
<title>Node18</title>
<g id="a_node18"><a xlink:title=" ">
<polygon fill="white" stroke="#666666" points="288,-347.57 176,-347.57 176,-328.57 288,-328.57 288,-347.57"/>
<text text-anchor="middle" x="232" y="-335.57" font-family="Helvetica,sans-Serif" font-size="10.00">std::vector&lt; bool &gt;</text>
</a>
</g>
</g>
<!-- Node18&#45;&gt;Node15 -->
<g id="edge21" class="edge">
<title>Node18&#45;&gt;Node15</title>
<path fill="none" stroke="#9a32cd" stroke-dasharray="5,2" d="M298.34,-338.07C356.59,-338.07 441.31,-338.07 498.99,-338.07"/>
<polygon fill="#9a32cd" stroke="#9a32cd" points="298.15,-334.57 288.15,-338.07 298.15,-341.57 298.15,-334.57"/>
<text text-anchor="middle" x="395.5" y="-341.07" font-family="Helvetica,sans-Serif" font-size="10.00"> _fFlatPrior</text>
</g>
<!-- Node19 -->
<g id="node19" class="node">
<title>Node19</title>
<g id="a_node19"><a xlink:title=" ">
<polygon fill="white" stroke="#666666" points="297.5,-310.07 166.5,-310.07 166.5,-280.07 297.5,-280.07 297.5,-310.07"/>
<text text-anchor="start" x="174.5" y="-298.07" font-family="Helvetica,sans-Serif" font-size="10.00">std::vector&lt; std::vector</text>
<text text-anchor="middle" x="232" y="-287.07" font-family="Helvetica,sans-Serif" font-size="10.00">&lt; std::string &gt; &gt;</text>
</a>
</g>
</g>
<!-- Node19&#45;&gt;Node15 -->
<g id="edge22" class="edge">
<title>Node19&#45;&gt;Node15</title>
<path fill="none" stroke="#9a32cd" stroke-dasharray="5,2" d="M307.69,-304.63C349.54,-310 402.68,-316.86 450,-323.07 465.82,-325.14 482.9,-327.41 498.85,-329.53"/>
<polygon fill="#9a32cd" stroke="#9a32cd" points="307.94,-301.13 297.58,-303.33 307.05,-308.07 307.94,-301.13"/>
<text text-anchor="middle" x="395.5" y="-326.07" font-family="Helvetica,sans-Serif" font-size="10.00"> _fSampleNames</text>
</g>
<!-- Node20 -->
<g id="node20" class="node">
<title>Node20</title>
<g id="a_node20"><a xlink:title=" ">
<polygon fill="white" stroke="#666666" points="317,-261.57 147,-261.57 147,-242.57 317,-242.57 317,-261.57"/>
<text text-anchor="middle" x="232" y="-249.57" font-family="Helvetica,sans-Serif" font-size="10.00">std::unique_ptr&lt; PCAHandler &gt;</text>
</a>
</g>
</g>
<!-- Node20&#45;&gt;Node15 -->
<g id="edge23" class="edge">
<title>Node20&#45;&gt;Node15</title>
<path fill="none" stroke="#9a32cd" stroke-dasharray="5,2" d="M327.36,-255.01C367.73,-259.98 413.79,-270.91 450,-294.07 461.53,-301.45 456.49,-311.65 468,-319.07 477.28,-325.05 488.06,-329.21 498.95,-332.1"/>
<polygon fill="#9a32cd" stroke="#9a32cd" points="327.56,-251.51 317.23,-253.87 326.78,-258.46 327.56,-251.51"/>
<text text-anchor="middle" x="395.5" y="-297.07" font-family="Helvetica,sans-Serif" font-size="10.00"> PCAObj</text>
</g>
<!-- Node21 -->
<g id="node21" class="node">
<title>Node21</title>
<g id="a_node21"><a xlink:title=" ">
<polygon fill="white" stroke="#666666" points="323,-224.07 141,-224.07 141,-194.07 323,-194.07 323,-224.07"/>
<text text-anchor="start" x="149" y="-212.07" font-family="Helvetica,sans-Serif" font-size="10.00">std::unique_ptr&lt; adaptive</text>
<text text-anchor="middle" x="232" y="-201.07" font-family="Helvetica,sans-Serif" font-size="10.00">_mcmc::AdaptiveMCMCHandler &gt;</text>
</a>
</g>
</g>
<!-- Node21&#45;&gt;Node15 -->
<g id="edge24" class="edge">
<title>Node21&#45;&gt;Node15</title>
<path fill="none" stroke="#9a32cd" stroke-dasharray="5,2" d="M333.37,-213.61C381.64,-217.86 432.72,-226.1 450,-242.07 475.81,-265.92 442.76,-294.61 468,-319.07 476.41,-327.22 487.29,-332.34 498.65,-335.47"/>
<polygon fill="#9a32cd" stroke="#9a32cd" points="333.38,-210.1 323.13,-212.76 332.8,-217.07 333.38,-210.1"/>
<text text-anchor="middle" x="395.5" y="-245.07" font-family="Helvetica,sans-Serif" font-size="10.00"> AdaptiveHandler</text>
</g>
<!-- Node22 -->
<g id="node22" class="node">
<title>Node22</title>
<g id="a_node22"><a xlink:title=" ">
<polygon fill="white" stroke="#666666" points="307.5,-176.07 156.5,-176.07 156.5,-146.07 307.5,-146.07 307.5,-176.07"/>
<text text-anchor="start" x="164.5" y="-164.07" font-family="Helvetica,sans-Serif" font-size="10.00">std::unique_ptr&lt; Parameter</text>
<text text-anchor="middle" x="232" y="-153.07" font-family="Helvetica,sans-Serif" font-size="10.00">Tunes &gt;</text>
</a>
</g>
</g>
<!-- Node22&#45;&gt;Node15 -->
<g id="edge25" class="edge">
<title>Node22&#45;&gt;Node15</title>
<path fill="none" stroke="#9a32cd" stroke-dasharray="5,2" d="M317.88,-171.15C374.59,-178.69 440.5,-189.34 450,-199.07 487.66,-237.67 430.82,-280 468,-319.07 476.19,-327.68 487.11,-332.97 498.61,-336.13"/>
<polygon fill="#9a32cd" stroke="#9a32cd" points="318.14,-167.65 307.77,-169.83 317.23,-174.6 318.14,-167.65"/>
<text text-anchor="middle" x="395.5" y="-202.07" font-family="Helvetica,sans-Serif" font-size="10.00"> Tunes</text>
</g>
<!-- Node23 -->
<g id="node23" class="node">
<title>Node23</title>
<g id="a_node23"><a xlink:title=" ">
<polygon fill="white" stroke="#666666" points="293,-492.07 171,-492.07 171,-462.07 293,-462.07 293,-492.07"/>
<text text-anchor="start" x="179" y="-480.07" font-family="Helvetica,sans-Serif" font-size="10.00">std::vector&lt; std::pair</text>
<text text-anchor="middle" x="232" y="-469.07" font-family="Helvetica,sans-Serif" font-size="10.00">&lt; double, double &gt; &gt;</text>
</a>
</g>
</g>
<!-- Node23&#45;&gt;Node15 -->
<g id="edge27" class="edge">
<title>Node23&#45;&gt;Node15</title>
<path fill="none" stroke="#9a32cd" stroke-dasharray="5,2" d="M302.6,-460.98C309.6,-458.63 316.52,-456 323,-453.07 331.76,-449.11 332.14,-444.8 341,-441.07 386.64,-421.88 413.64,-451.67 450,-418.07 470.76,-398.89 447.15,-376.15 468,-357.07 476.52,-349.27 487.31,-344.3 498.53,-341.19"/>
<polygon fill="#9a32cd" stroke="#9a32cd" points="301.5,-457.65 293.02,-464.01 303.61,-464.33 301.5,-457.65"/>
<text text-anchor="middle" x="395.5" y="-444.07" font-family="Helvetica,sans-Serif" font-size="10.00"> CircularBoundsValues</text>
</g>
<!-- Node24 -->
<g id="node24" class="node">
<title>Node24</title>
<g id="a_node24"><a xlink:title=" ">
<polygon fill="white" stroke="#666666" points="630.5,-384.57 496.5,-384.57 496.5,-365.57 630.5,-365.57 630.5,-384.57"/>
<text text-anchor="middle" x="563.5" y="-372.57" font-family="Helvetica,sans-Serif" font-size="10.00">std::vector&lt; SystType &gt;</text>
</a>
</g>
</g>
<!-- Node24&#45;&gt;Node14 -->
<g id="edge28" class="edge">
<title>Node24&#45;&gt;Node14</title>
<path fill="none" stroke="#9a32cd" stroke-dasharray="5,2" d="M641.02,-371.25C704.22,-368.1 793.22,-363.66 854.77,-360.6"/>
<polygon fill="#9a32cd" stroke="#9a32cd" points="640.53,-367.77 630.71,-371.77 640.87,-374.77 640.53,-367.77"/>
<text text-anchor="middle" x="749.5" y="-372.07" font-family="Helvetica,sans-Serif" font-size="10.00"> _fParamType</text>
</g>
<!-- Node25 -->
<g id="node25" class="node">
<title>Node25</title>
<g id="a_node25"><a xlink:title=" ">
<polygon fill="white" stroke="#666666" points="624.5,-310.07 502.5,-310.07 502.5,-280.07 624.5,-280.07 624.5,-310.07"/>
<text text-anchor="start" x="510.5" y="-298.07" font-family="Helvetica,sans-Serif" font-size="10.00">std::vector&lt; std::map</text>
<text text-anchor="middle" x="563.5" y="-287.07" font-family="Helvetica,sans-Serif" font-size="10.00">&lt; int, int &gt; &gt;</text>
</a>
</g>
</g>
<!-- Node25&#45;&gt;Node14 -->
<g id="edge30" class="edge">
<title>Node25&#45;&gt;Node14</title>
<path fill="none" stroke="#9a32cd" stroke-dasharray="5,2" d="M634.98,-298.07C687.5,-301.81 760.46,-310.2 822,-329.07 830.55,-331.69 831.57,-335.08 840,-338.07 850.46,-341.78 861.91,-344.92 872.93,-347.52"/>
<polygon fill="#9a32cd" stroke="#9a32cd" points="634.97,-294.56 624.76,-297.38 634.5,-301.54 634.97,-294.56"/>
<text text-anchor="middle" x="749.5" y="-332.07" font-family="Helvetica,sans-Serif" font-size="10.00"> _fSystToGlobalSystIndexMap</text>
</g>
<!-- Node26 -->
<g id="node26" class="node">
<title>Node26</title>
<g id="a_node26"><a xlink:title=" ">
<polygon fill="white" stroke="#666666" points="649,-261.57 478,-261.57 478,-242.57 649,-242.57 649,-261.57"/>
<text text-anchor="middle" x="563.5" y="-249.57" font-family="Helvetica,sans-Serif" font-size="10.00">std::vector&lt; SplineParameter &gt;</text>
</a>
</g>
</g>
<!-- Node26&#45;&gt;Node14 -->
<g id="edge31" class="edge">
<title>Node26&#45;&gt;Node14</title>
<path fill="none" stroke="#9a32cd" stroke-dasharray="5,2" d="M646.43,-242.04C701.84,-239.84 773.49,-246.48 822,-286.07 840.95,-301.53 821.74,-321.79 840,-338.07 844.43,-342.02 849.49,-345.2 854.89,-347.76"/>
<polygon fill="#9a32cd" stroke="#9a32cd" points="646.1,-238.56 636.29,-242.55 646.45,-245.55 646.1,-238.56"/>
<text text-anchor="middle" x="749.5" y="-289.07" font-family="Helvetica,sans-Serif" font-size="10.00"> SplineParams</text>
</g>
<!-- Node27 -->
<g id="node27" class="node">
<title>Node27</title>
<g id="a_node27"><a xlink:title=" ">
<polygon fill="white" stroke="#666666" points="647.5,-224.57 479.5,-224.57 479.5,-205.57 647.5,-205.57 647.5,-224.57"/>
<text text-anchor="middle" x="563.5" y="-212.57" font-family="Helvetica,sans-Serif" font-size="10.00">std::vector&lt; NormParameter &gt;</text>
</a>
</g>
</g>
<!-- Node27&#45;&gt;Node14 -->
<g id="edge32" class="edge">
<title>Node27&#45;&gt;Node14</title>
<path fill="none" stroke="#9a32cd" stroke-dasharray="5,2" d="M604.7,-202.86C660.8,-188.56 762.36,-173.01 822,-226.07 859.67,-259.58 805.42,-301.38 840,-338.07 844.28,-342.61 849.37,-346.18 854.92,-348.98"/>
<polygon fill="#9a32cd" stroke="#9a32cd" points="603.54,-199.55 594.78,-205.5 605.34,-206.31 603.54,-199.55"/>
<text text-anchor="middle" x="749.5" y="-229.07" font-family="Helvetica,sans-Serif" font-size="10.00"> NormParams</text>
</g>
<!-- Node28 -->
<g id="node28" class="node">
<title>Node28</title>
<g id="a_node28"><a xlink:title=" ">
<polygon fill="white" stroke="#666666" points="659,-528.57 468,-528.57 468,-509.57 659,-509.57 659,-528.57"/>
<text text-anchor="middle" x="563.5" y="-516.57" font-family="Helvetica,sans-Serif" font-size="10.00">std::vector&lt; FunctionalParameter &gt;</text>
</a>
</g>
</g>
<!-- Node28&#45;&gt;Node14 -->
<g id="edge33" class="edge">
<title>Node28&#45;&gt;Node14</title>
<path fill="none" stroke="#9a32cd" stroke-dasharray="5,2" d="M669.16,-522.15C718.27,-519.41 775.98,-509.87 822,-484.07 872.86,-455.55 908.63,-391.27 920.87,-366.79"/>
<polygon fill="#9a32cd" stroke="#9a32cd" points="668.96,-518.65 659.13,-522.62 669.29,-525.65 668.96,-518.65"/>
<text text-anchor="middle" x="749.5" y="-524.07" font-family="Helvetica,sans-Serif" font-size="10.00"> FuncParams</text>
</g>
<!-- Node29 -->
<g id="node29" class="node">
<title>Node29</title>
<g id="a_node29"><a xlink:title=" ">
<polygon fill="white" stroke="#666666" points="629,-491.07 498,-491.07 498,-461.07 629,-461.07 629,-491.07"/>
<text text-anchor="start" x="506" y="-479.07" font-family="Helvetica,sans-Serif" font-size="10.00">std::vector&lt; Oscillation</text>
<text text-anchor="middle" x="563.5" y="-468.07" font-family="Helvetica,sans-Serif" font-size="10.00">Parameter &gt;</text>
</a>
</g>
</g>
<!-- Node29&#45;&gt;Node14 -->
<g id="edge34" class="edge">
<title>Node29&#45;&gt;Node14</title>
<path fill="none" stroke="#9a32cd" stroke-dasharray="5,2" d="M639.03,-473.73C691.91,-469.83 763.58,-459.89 822,-435.07 861.34,-418.35 899.3,-383.48 916.25,-366.61"/>
<polygon fill="#9a32cd" stroke="#9a32cd" points="638.78,-470.24 629.05,-474.41 639.26,-477.22 638.78,-470.24"/>
<text text-anchor="middle" x="749.5" y="-472.07" font-family="Helvetica,sans-Serif" font-size="10.00"> OscParams</text>
</g>
<!-- Node30 -->
<g id="node30" class="node">
<title>Node30</title>
<g id="a_node30"><a xlink:title=" ">
<polygon fill="white" stroke="#666666" points="993.5,-83.07 859.5,-83.07 859.5,-53.07 993.5,-53.07 993.5,-83.07"/>
<text text-anchor="start" x="867.5" y="-71.07" font-family="Helvetica,sans-Serif" font-size="10.00">std::vector&lt; std::unique</text>
<text text-anchor="middle" x="926.5" y="-60.07" font-family="Helvetica,sans-Serif" font-size="10.00">_ptr&lt; TH1D &gt; &gt;</text>
</a>
</g>
</g>
<!-- Node30&#45;&gt;Node1 -->
<g id="edge35" class="edge">
<title>Node30&#45;&gt;Node1</title>
<path fill="none" stroke="#9a32cd" stroke-dasharray="5,2" d="M1003.78,-58.96C1055.95,-54.46 1119.27,-52.98 1140,-69.07 1182.33,-101.92 1203.87,-281.72 1208.52,-325.47"/>
<polygon fill="#9a32cd" stroke="#9a32cd" points="1003.16,-55.5 993.52,-59.89 1003.79,-62.47 1003.16,-55.5"/>
<text text-anchor="middle" x="1085.5" y="-94.07" font-family="Helvetica,sans-Serif" font-size="10.00"> Data_Hist</text>
<text text-anchor="middle" x="1085.5" y="-83.07" font-family="Helvetica,sans-Serif" font-size="10.00">MC_Nom_Hist</text>
<text text-anchor="middle" x="1085.5" y="-72.07" font-family="Helvetica,sans-Serif" font-size="10.00">W2_Nom_Hist</text>
</g>
<!-- Node31 -->
<g id="node31" class="node">
<title>Node31</title>
<g id="a_node31"><a xlink:title=" ">
<polygon fill="white" stroke="#666666" points="1013,-35.07 840,-35.07 840,-5.07 1013,-5.07 1013,-35.07"/>
<text text-anchor="start" x="848" y="-23.07" font-family="Helvetica,sans-Serif" font-size="10.00">std::vector&lt; std::vector</text>
<text text-anchor="middle" x="926.5" y="-12.07" font-family="Helvetica,sans-Serif" font-size="10.00">&lt; std::unique_ptr&lt; TH1D &gt; &gt; &gt;</text>
</a>
</g>
</g>
<!-- Node31&#45;&gt;Node1 -->
<g id="edge36" class="edge">
<title>Node31&#45;&gt;Node1</title>
<path fill="none" stroke="#9a32cd" stroke-dasharray="5,2" d="M997.75,-3.44C1043.35,2.98 1101.29,2.33 1140,-30.07 1187.16,-69.54 1205.28,-277.92 1208.82,-325.42"/>
<polygon fill="#9a32cd" stroke="#9a32cd" points="996.97,-0.02 987.62,-5.01 998.04,-6.94 996.97,-0.02"/>
<text text-anchor="middle" x="1085.5" y="-44.07" font-family="Helvetica,sans-Serif" font-size="10.00"> MC_Hist_Toy</text>
<text text-anchor="middle" x="1085.5" y="-33.07" font-family="Helvetica,sans-Serif" font-size="10.00">W2_Hist_Toy</text>
</g>
</g>
</svg>
        <g id="navigator" transform="translate(0 0)" fill="#404254">
                <rect fill="#f2f5e9" fill-opacity="0.5" stroke="#606060" stroke-width=".5" x="0" y="0" width="60" height="60"/>
                <use id="zoomplus" xlink:href="#zoomPlus" x="17" y="9" onmousedown="handleZoom(evt,'in')"/>
                <use id="zoomminus" xlink:href="#zoomMin" x="42" y="9" onmousedown="handleZoom(evt,'out')"/>
                <use id="reset" xlink:href="#resetDef" x="30" y="36" onmousedown="handleReset()"/>
                <g id="arrowUp" xlink:href="#dirArrow" transform="translate(30 24)" onmousedown="handlePan(0,-1)">
                  <use xlink:href="#rim" fill="#404040">
                        <set attributeName="fill" to="#808080" begin="arrowUp.mouseover" end="arrowUp.mouseout"/>
                  </use>
                  <path fill="none" stroke="white" stroke-width="1.5" d="M0,-3.0v7 M-2.5,-0.5L0,-3.0L2.5,-0.5"/>
                </g>
                <g id="arrowRight" xlink:href="#dirArrow" transform="rotate(90) translate(36 -43)" onmousedown="handlePan(1,0)">
                  <use xlink:href="#rim" fill="#404040">
                        <set attributeName="fill" to="#808080" begin="arrowRight.mouseover" end="arrowRight.mouseout"/>
                  </use>
                  <path fill="none" stroke="white" stroke-width="1.5" d="M0,-3.0v7 M-2.5,-0.5L0,-3.0L2.5,-0.5"/>
                </g>
                <g id="arrowDown" xlink:href="#dirArrow" transform="rotate(180) translate(-30 -48)" onmousedown="handlePan(0,1)">
                  <use xlink:href="#rim" fill="#404040">
                        <set attributeName="fill" to="#808080" begin="arrowDown.mouseover" end="arrowDown.mouseout"/>
                  </use>
                  <path fill="none" stroke="white" stroke-width="1.5" d="M0,-3.0v7 M-2.5,-0.5L0,-3.0L2.5,-0.5"/>
                </g>
                <g id="arrowLeft" xlink:href="#dirArrow" transform="rotate(270) translate(-36 17)" onmousedown="handlePan(-1,0)">
                  <use xlink:href="#rim" fill="#404040">
                        <set attributeName="fill" to="#808080" begin="arrowLeft.mouseover" end="arrowLeft.mouseout"/>
                  </use>
                  <path fill="none" stroke="white" stroke-width="1.5" d="M0,-3.0v7 M-2.5,-0.5L0,-3.0L2.5,-0.5"/>
                </g>
        </g>
        <svg viewBox="0 0 15 15" width="100%" height="30px" preserveAspectRatio="xMaxYMin meet">
         <g id="arrow_out" transform="scale(0.3 0.3)">
          <a xlink:href="classPredictiveThrower__coll__graph_org.svg" target="_base">
           <rect id="button" ry="5" rx="5" y="6" x="6" height="38" width="38"
                fill="#f2f5e9" fill-opacity="0.5" stroke="#606060" stroke-width="1.0"/>
           <path id="arrow"
             d="M 11.500037,31.436501 C 11.940474,20.09759 22.043105,11.32322 32.158766,21.979434 L 37.068811,17.246167 C 37.068811,17.246167 37.088388,32 37.088388,32 L 22.160133,31.978069 C 22.160133,31.978069 26.997745,27.140456 26.997745,27.140456 C 18.528582,18.264221 13.291696,25.230495 11.500037,31.436501 z"
             style="fill:#404040;"/>
          </a>
         </g>
        </svg>
</svg>
