<?xml version="1.0" encoding="UTF-8" standalone="no"?>
<!DOCTYPE svg PUBLIC "-//W3C//DTD SVG 1.1//EN"
 "http://www.w3.org/Graphics/SVG/1.1/DTD/svg11.dtd">
<!-- Generated by graphviz version 2.43.0 (0)
 -->
<!-- Title: SampleHandlerFD Pages: 1 -->
<!--zoomable 989 -->
<svg id="main" version="1.1" xmlns="http://www.w3.org/2000/svg" xmlns:xlink="http://www.w3.org/1999/xlink" xml:space="preserve" onload="init(evt)">
<style type="text/css"><![CDATA[
.edge:hover path { stroke: red; }
.edge:hover polygon { stroke: red; fill: red; }
]]></style>
<script type="text/javascript"><![CDATA[
var edges = document.getElementsByTagName('g');
if (edges && edges.length) {
  for (var i=0;i<edges.length;i++) {
    if (edges[i].id.substr(0,4)=='edge') {
      edges[i].setAttribute('class','edge');
    }
  }
}
]]></script>
        <defs>
                <circle id="rim" cx="0" cy="0" r="7"/>
                <circle id="rim2" cx="0" cy="0" r="3.5"/>
                <g id="zoomPlus">
                        <use xlink:href="#rim" fill="#404040">
                                <set attributeName="fill" to="#808080" begin="zoomplus.mouseover" end="zoomplus.mouseout"/>
                        </use>
                        <path d="M-4,0h8M0,-4v8" fill="none" stroke="white" stroke-width="1.5" pointer-events="none"/>
                </g>
                <g id="zoomMin">
                        <use xlink:href="#rim" fill="#404040">
                                <set attributeName="fill" to="#808080" begin="zoomminus.mouseover" end="zoomminus.mouseout"/>
                        </use>
                        <path d="M-4,0h8" fill="none" stroke="white" stroke-width="1.5" pointer-events="none"/>
                </g>
                <g id="dirArrow">
                        <path fill="none" stroke="white" stroke-width="1.5" d="M0,-3.0v7 M-2.5,-0.5L0,-3.0L2.5,-0.5"/>
                </g>
               <g id="resetDef">
                       <use xlink:href="#rim2" fill="#404040">
                               <set attributeName="fill" to="#808080" begin="reset.mouseover" end="reset.mouseout"/>
                       </use>
               </g>
        </defs>

<script type="text/javascript">
var viewWidth = 1319;
var viewHeight = 989;
var sectionId = 'dynsection-1';
</script>
<script xlink:href="svgpan.js"/>
<svg id="graph" class="graph">
<g id="viewport">
<title>SampleHandlerFD</title>
<!-- Node1 -->
<g id="node1" class="node">
<title>Node1</title>
<g id="a_node1"><a xlink:title="Class responsible for handling implementation of samples used in analysis, reweighting and returning ...">
<polygon fill="#999999" stroke="#666666" points="1311,-448.98 1206,-448.98 1206,-429.98 1311,-429.98 1311,-448.98"/>
<text text-anchor="middle" x="1258.5" y="-436.98" font-family="Helvetica,sans-Serif" font-size="10.00">SampleHandlerFD</text>
</a>
</g>
</g>
<!-- Node2 -->
<g id="node2" class="node">
<title>Node2</title>
<g id="a_node2"><a xlink:href="classSampleHandlerBase.html" target="_top" xlink:title="Class responsible for handling implementation of samples used in analysis, reweighting and returning ...">
<polygon fill="white" stroke="#666666" points="974,-869.98 858,-869.98 858,-850.98 974,-850.98 974,-869.98"/>
<text text-anchor="middle" x="916" y="-857.98" font-family="Helvetica,sans-Serif" font-size="10.00">SampleHandlerBase</text>
</a>
</g>
</g>
<!-- Node2&#45;&gt;Node1 -->
<g id="edge1" class="edge">
<title>Node2&#45;&gt;Node1</title>
<path fill="none" stroke="#63b8ff" d="M984.07,-869.37C1045.51,-873.48 1134.76,-868.6 1188,-816.48 1242.58,-763.06 1255.15,-502.43 1257.17,-449.05"/>
<polygon fill="#63b8ff" stroke="#63b8ff" points="984.32,-865.88 974.08,-868.61 983.78,-872.86 984.32,-865.88"/>
</g>
<!-- Node3 -->
<g id="node3" class="node">
<title>Node3</title>
<g id="a_node3"><a xlink:href="classMaCh3Modes.html" target="_top" xlink:title="KS: Class describing MaCh3 modes used in the analysis, it is being initialised from config.">
<polygon fill="white" stroke="#666666" points="581,-889.98 498,-889.98 498,-870.98 581,-870.98 581,-889.98"/>
<text text-anchor="middle" x="539.5" y="-877.98" font-family="Helvetica,sans-Serif" font-size="10.00">MaCh3Modes</text>
</a>
</g>
</g>
<!-- Node3&#45;&gt;Node2 -->
<g id="edge2" class="edge">
<title>Node3&#45;&gt;Node2</title>
<path fill="none" stroke="#9a32cd" stroke-dasharray="5,2" d="M591.55,-877.76C661.09,-874.04 785.21,-867.41 857.8,-863.54"/>
<polygon fill="#9a32cd" stroke="#9a32cd" points="591.09,-874.28 581.29,-878.3 591.46,-881.27 591.09,-874.28"/>
<text text-anchor="middle" x="725.5" y="-876.48" font-family="Helvetica,sans-Serif" font-size="10.00"> Modes</text>
</g>
<!-- Node4 -->
<g id="node4" class="node">
<title>Node4</title>
<g id="a_node4"><a xlink:title=" ">
<polygon fill="white" stroke="#666666" points="293,-981.48 171,-981.48 171,-951.48 293,-951.48 293,-981.48"/>
<text text-anchor="start" x="179" y="-969.48" font-family="Helvetica,sans-Serif" font-size="10.00">std::map&lt; std::string,</text>
<text text-anchor="middle" x="232" y="-958.48" font-family="Helvetica,sans-Serif" font-size="10.00"> MaCh3Modes_t &gt;</text>
</a>
</g>
</g>
<!-- Node4&#45;&gt;Node3 -->
<g id="edge3" class="edge">
<title>Node4&#45;&gt;Node3</title>
<path fill="none" stroke="#9a32cd" stroke-dasharray="5,2" d="M303.44,-950.43C340.17,-941.69 385.71,-930.27 426,-918.48 455.88,-909.74 489.65,-898.09 512.33,-890"/>
<polygon fill="#9a32cd" stroke="#9a32cd" points="302.25,-947.11 293.33,-952.82 303.86,-953.93 302.25,-947.11"/>
<text text-anchor="middle" x="383.5" y="-943.48" font-family="Helvetica,sans-Serif" font-size="10.00"> Mode</text>
</g>
<!-- Node5 -->
<g id="node5" class="node">
<title>Node5</title>
<g id="a_node5"><a xlink:title=" ">
<polygon fill="white" stroke="#666666" points="300.5,-933.48 163.5,-933.48 163.5,-903.48 300.5,-903.48 300.5,-933.48"/>
<text text-anchor="start" x="171.5" y="-921.48" font-family="Helvetica,sans-Serif" font-size="10.00">std::map&lt; MaCh3Modes</text>
<text text-anchor="middle" x="232" y="-910.48" font-family="Helvetica,sans-Serif" font-size="10.00">_t, MaCh3ModeInfo &gt;</text>
</a>
</g>
</g>
<!-- Node5&#45;&gt;Node3 -->
<g id="edge4" class="edge">
<title>Node5&#45;&gt;Node3</title>
<path fill="none" stroke="#9a32cd" stroke-dasharray="5,2" d="M310.91,-908.79C370.41,-901.39 450.04,-891.49 497.61,-885.57"/>
<polygon fill="#9a32cd" stroke="#9a32cd" points="310.29,-905.34 300.8,-910.05 311.16,-912.29 310.29,-905.34"/>
<text text-anchor="middle" x="383.5" y="-906.48" font-family="Helvetica,sans-Serif" font-size="10.00"> fMode</text>
</g>
<!-- Node6 -->
<g id="node6" class="node">
<title>Node6</title>
<g id="a_node6"><a xlink:title=" ">
<polygon fill="white" stroke="#666666" points="284,-884.98 180,-884.98 180,-865.98 284,-865.98 284,-884.98"/>
<text text-anchor="middle" x="232" y="-872.98" font-family="Helvetica,sans-Serif" font-size="10.00">std::vector&lt; int &gt;</text>
</a>
</g>
</g>
<!-- Node6&#45;&gt;Node3 -->
<g id="edge5" class="edge">
<title>Node6&#45;&gt;Node3</title>
<path fill="none" stroke="#9a32cd" stroke-dasharray="5,2" d="M294.33,-876.49C354.92,-877.48 445.86,-878.97 497.96,-879.82"/>
<polygon fill="#9a32cd" stroke="#9a32cd" points="294.19,-872.98 284.13,-876.32 294.08,-879.98 294.19,-872.98"/>
<text text-anchor="middle" x="383.5" y="-881.48" font-family="Helvetica,sans-Serif" font-size="10.00"> ModeMap</text>
</g>
<!-- Node7 -->
<g id="node7" class="node">
<title>Node7</title>
<g id="a_node7"><a xlink:title=" ">
<polygon fill="white" stroke="#666666" points="264.5,-811.98 199.5,-811.98 199.5,-792.98 264.5,-792.98 264.5,-811.98"/>
<text text-anchor="middle" x="232" y="-799.98" font-family="Helvetica,sans-Serif" font-size="10.00">std::string</text>
</a>
</g>
</g>
<!-- Node7&#45;&gt;Node1 -->
<g id="edge10" class="edge">
<title>Node7&#45;&gt;Node1</title>
<path fill="none" stroke="#9a32cd" stroke-dasharray="5,2" d="M274.61,-803.27C453.83,-806.49 1152.48,-817.08 1188,-787.48 1242.08,-742.42 1254.99,-500.55 1257.14,-449.11"/>
<polygon fill="#9a32cd" stroke="#9a32cd" points="274.59,-799.77 264.53,-803.09 274.46,-806.77 274.59,-799.77"/>
<text text-anchor="middle" x="725.5" y="-843.48" font-family="Helvetica,sans-Serif" font-size="10.00"> SampleName</text>
<text text-anchor="middle" x="725.5" y="-832.48" font-family="Helvetica,sans-Serif" font-size="10.00">SampleTitle</text>
<text text-anchor="middle" x="725.5" y="-821.48" font-family="Helvetica,sans-Serif" font-size="10.00">XVarStr</text>
<text text-anchor="middle" x="725.5" y="-810.48" font-family="Helvetica,sans-Serif" font-size="10.00">YVarStr</text>
</g>
<!-- Node7&#45;&gt;Node3 -->
<g id="edge6" class="edge">
<title>Node7&#45;&gt;Node3</title>
<path fill="none" stroke="#9a32cd" stroke-dasharray="5,2" d="M274.52,-812.59C313.64,-822.17 373.86,-837.05 426,-850.48 451.84,-857.14 480.94,-864.91 503.07,-870.87"/>
<polygon fill="#9a32cd" stroke="#9a32cd" points="275.35,-809.19 264.8,-810.22 273.68,-815.99 275.35,-809.19"/>
<text text-anchor="middle" x="383.5" y="-864.48" font-family="Helvetica,sans-Serif" font-size="10.00"> Generator</text>
<text text-anchor="middle" x="383.5" y="-853.48" font-family="Helvetica,sans-Serif" font-size="10.00">Title</text>
</g>
<!-- Node21 -->
<g id="node21" class="node">
<title>Node21</title>
<g id="a_node21"><a xlink:href="classParameterHandlerBase.html" target="_top" xlink:title="Base class responsible for handling of systematic error parameters. Capable of using PCA or using ada...">
<polygon fill="white" stroke="#666666" points="604,-515.98 475,-515.98 475,-496.98 604,-496.98 604,-515.98"/>
<text text-anchor="middle" x="539.5" y="-503.98" font-family="Helvetica,sans-Serif" font-size="10.00">ParameterHandlerBase</text>
</a>
</g>
</g>
<!-- Node7&#45;&gt;Node21 -->
<g id="edge22" class="edge">
<title>Node7&#45;&gt;Node21</title>
<path fill="none" stroke="#9a32cd" stroke-dasharray="5,2" d="M272.27,-789.46C314.36,-773.92 381.16,-744.51 426,-701.48 486.06,-643.84 524.06,-547.12 535.13,-516.26"/>
<polygon fill="#9a32cd" stroke="#9a32cd" points="270.87,-786.24 262.65,-792.93 273.25,-792.83 270.87,-786.24"/>
<text text-anchor="middle" x="383.5" y="-771.48" font-family="Helvetica,sans-Serif" font-size="10.00"> inputFile</text>
<text text-anchor="middle" x="383.5" y="-760.48" font-family="Helvetica,sans-Serif" font-size="10.00">matrixName</text>
</g>
<!-- Node8 -->
<g id="node8" class="node">
<title>Node8</title>
<g id="a_node8"><a xlink:title=" ">
<polygon fill="white" stroke="#666666" points="104,-817.48 0,-817.48 0,-787.48 104,-787.48 104,-817.48"/>
<text text-anchor="start" x="8" y="-805.48" font-family="Helvetica,sans-Serif" font-size="10.00">std::basic_string&lt;</text>
<text text-anchor="middle" x="52" y="-794.48" font-family="Helvetica,sans-Serif" font-size="10.00"> Char &gt;</text>
</a>
</g>
</g>
<!-- Node8&#45;&gt;Node7 -->
<g id="edge7" class="edge">
<title>Node8&#45;&gt;Node7</title>
<path fill="none" stroke="#63b8ff" d="M114.33,-802.48C142.93,-802.48 175.76,-802.48 199.3,-802.48"/>
<polygon fill="#63b8ff" stroke="#63b8ff" points="114.01,-798.98 104.01,-802.48 114.01,-805.98 114.01,-798.98"/>
</g>
<!-- Node9 -->
<g id="node9" class="node">
<title>Node9</title>
<g id="a_node9"><a xlink:title=" ">
<polygon fill="white" stroke="#666666" points="998,-774.48 834,-774.48 834,-744.48 998,-744.48 998,-774.48"/>
<text text-anchor="start" x="842" y="-762.48" font-family="Helvetica,sans-Serif" font-size="10.00">std::unique_ptr&lt; BinnedSpline</text>
<text text-anchor="middle" x="916" y="-751.48" font-family="Helvetica,sans-Serif" font-size="10.00">Handler &gt;</text>
</a>
</g>
</g>
<!-- Node9&#45;&gt;Node1 -->
<g id="edge8" class="edge">
<title>Node9&#45;&gt;Node1</title>
<path fill="none" stroke="#9a32cd" stroke-dasharray="5,2" d="M1008.58,-772.8C1066.8,-775.93 1139.99,-769.21 1188,-726.48 1231.18,-688.06 1252.22,-494.64 1256.61,-449.1"/>
<polygon fill="#9a32cd" stroke="#9a32cd" points="1008.46,-769.29 998.26,-772.14 1008.01,-776.27 1008.46,-769.29"/>
<text text-anchor="middle" x="1111" y="-775.48" font-family="Helvetica,sans-Serif" font-size="10.00"> SplineHandler</text>
</g>
<!-- Node10 -->
<g id="node10" class="node">
<title>Node10</title>
<g id="a_node10"><a xlink:title=" ">
<polygon fill="white" stroke="#666666" points="992,-726.48 840,-726.48 840,-696.48 992,-696.48 992,-726.48"/>
<text text-anchor="start" x="848" y="-714.48" font-family="Helvetica,sans-Serif" font-size="10.00">std::shared_ptr&lt; Oscillation</text>
<text text-anchor="middle" x="916" y="-703.48" font-family="Helvetica,sans-Serif" font-size="10.00">Handler &gt;</text>
</a>
</g>
</g>
<!-- Node10&#45;&gt;Node1 -->
<g id="edge9" class="edge">
<title>Node10&#45;&gt;Node1</title>
<path fill="none" stroke="#9a32cd" stroke-dasharray="5,2" d="M1002.58,-712.46C1071.29,-711.44 1160.66,-705.48 1188,-682.48 1225.44,-650.99 1250.39,-489.97 1256.2,-448.98"/>
<polygon fill="#9a32cd" stroke="#9a32cd" points="1002.13,-708.96 992.17,-712.57 1002.21,-715.96 1002.13,-708.96"/>
<text text-anchor="middle" x="1111" y="-714.48" font-family="Helvetica,sans-Serif" font-size="10.00"> Oscillator</text>
</g>
<!-- Node11 -->
<g id="node11" class="node">
<title>Node11</title>
<g id="a_node11"><a xlink:title=" ">
<polygon fill="white" stroke="#666666" points="302,-335.98 162,-335.98 162,-316.98 302,-316.98 302,-335.98"/>
<text text-anchor="middle" x="232" y="-323.98" font-family="Helvetica,sans-Serif" font-size="10.00">std::vector&lt; std::string &gt;</text>
</a>
</g>
</g>
<!-- Node11&#45;&gt;Node1 -->
<g id="edge11" class="edge">
<title>Node11&#45;&gt;Node1</title>
<path fill="none" stroke="#9a32cd" stroke-dasharray="5,2" d="M297.61,-316.1C338.07,-313.14 389.29,-316.28 426,-342.48 442.2,-354.04 429.14,-370.24 444,-383.48 566.9,-493.01 686.34,-371.51 798,-492.48 823.01,-519.58 787.29,-550.34 816,-573.48 848.18,-599.42 1152.71,-596.01 1188,-574.48 1234.59,-546.07 1251.27,-475.34 1255.96,-449.3"/>
<polygon fill="#9a32cd" stroke="#9a32cd" points="297.24,-312.62 287.58,-316.97 297.84,-319.59 297.24,-312.62"/>
<text text-anchor="middle" x="725.5" y="-539.48" font-family="Helvetica,sans-Serif" font-size="10.00"> SelectionStr</text>
<text text-anchor="middle" x="725.5" y="-528.48" font-family="Helvetica,sans-Serif" font-size="10.00">SplineVarNames</text>
<text text-anchor="middle" x="725.5" y="-517.48" font-family="Helvetica,sans-Serif" font-size="10.00">funcParsNamesVec</text>
<text text-anchor="middle" x="725.5" y="-506.48" font-family="Helvetica,sans-Serif" font-size="10.00">mc_files</text>
<text text-anchor="middle" x="725.5" y="-495.48" font-family="Helvetica,sans-Serif" font-size="10.00">spline_files</text>
</g>
<!-- Node20 -->
<g id="node20" class="node">
<title>Node20</title>
<g id="a_node20"><a xlink:href="classParameterHandlerGeneric.html" target="_top" xlink:title="Class responsible for handling of systematic error parameters with different types defined in the con...">
<polygon fill="white" stroke="#666666" points="987.5,-248.98 844.5,-248.98 844.5,-229.98 987.5,-229.98 987.5,-248.98"/>
<text text-anchor="middle" x="916" y="-236.98" font-family="Helvetica,sans-Serif" font-size="10.00">ParameterHandlerGeneric</text>
</a>
</g>
</g>
<!-- Node11&#45;&gt;Node20 -->
<g id="edge32" class="edge">
<title>Node11&#45;&gt;Node20</title>
<path fill="none" stroke="#9a32cd" stroke-dasharray="5,2" d="M261.56,-312.62C301.34,-294.12 376.2,-262.21 444,-249.48 584.07,-223.19 751.68,-228.06 844.44,-233.85"/>
<polygon fill="#9a32cd" stroke="#9a32cd" points="260.01,-309.48 252.46,-316.91 262.99,-315.81 260.01,-309.48"/>
<text text-anchor="middle" x="539.5" y="-263.48" font-family="Helvetica,sans-Serif" font-size="10.00"> _ParameterGroup</text>
<text text-anchor="middle" x="539.5" y="-252.48" font-family="Helvetica,sans-Serif" font-size="10.00">_fSplineNames</text>
</g>
<!-- Node11&#45;&gt;Node21 -->
<g id="edge25" class="edge">
<title>Node11&#45;&gt;Node21</title>
<path fill="none" stroke="#9a32cd" stroke-dasharray="5,2" d="M303.43,-337.92C351.12,-347.04 408.53,-361.13 426,-378.48 447.27,-399.6 426.43,-419.2 444,-443.48 462.27,-468.72 493.98,-486.8 515.59,-496.95"/>
<polygon fill="#9a32cd" stroke="#9a32cd" points="303.88,-334.45 293.41,-336.05 302.6,-341.33 303.88,-334.45"/>
<text text-anchor="middle" x="383.5" y="-392.48" font-family="Helvetica,sans-Serif" font-size="10.00"> _fFancyNames</text>
<text text-anchor="middle" x="383.5" y="-381.48" font-family="Helvetica,sans-Serif" font-size="10.00">_fNames</text>
</g>
<!-- Node12 -->
<g id="node12" class="node">
<title>Node12</title>
<g id="a_node12"><a xlink:title=" ">
<polygon fill="white" stroke="#666666" points="294,-687.98 170,-687.98 170,-668.98 294,-668.98 294,-687.98"/>
<text text-anchor="middle" x="232" y="-675.98" font-family="Helvetica,sans-Serif" font-size="10.00">std::vector&lt; double &gt;</text>
</a>
</g>
</g>
<!-- Node12&#45;&gt;Node1 -->
<g id="edge12" class="edge">
<title>Node12&#45;&gt;Node1</title>
<path fill="none" stroke="#9a32cd" stroke-dasharray="5,2" d="M286.8,-689.85C304.03,-692.97 323.24,-695.93 341,-697.48 378.63,-700.77 388.24,-698.74 426,-697.48 468.4,-696.06 1154.4,-672.39 1188,-646.48 1252.85,-596.48 1257.74,-483.49 1257.69,-449.4"/>
<polygon fill="#9a32cd" stroke="#9a32cd" points="287.38,-686.4 276.91,-687.99 286.09,-693.28 287.38,-686.4"/>
<text text-anchor="middle" x="725.5" y="-724.48" font-family="Helvetica,sans-Serif" font-size="10.00"> SampleXBins</text>
<text text-anchor="middle" x="725.5" y="-713.48" font-family="Helvetica,sans-Serif" font-size="10.00">SampleYBins</text>
<text text-anchor="middle" x="725.5" y="-702.48" font-family="Helvetica,sans-Serif" font-size="10.00">XBinEdges</text>
<text text-anchor="middle" x="725.5" y="-691.48" font-family="Helvetica,sans-Serif" font-size="10.00">YBinEdges</text>
</g>
<!-- Node12&#45;&gt;Node21 -->
<g id="edge26" class="edge">
<title>Node12&#45;&gt;Node21</title>
<path fill="none" stroke="#9a32cd" stroke-dasharray="5,2" d="M266.07,-664.49C283.91,-656.08 305.75,-644.32 323,-630.48 332.59,-622.79 330.61,-616.05 341,-609.48 374.09,-588.59 390.61,-603.19 426,-586.48 466.96,-567.14 508.76,-532.75 527.83,-516.08"/>
<polygon fill="#9a32cd" stroke="#9a32cd" points="264.26,-661.47 256.62,-668.82 267.17,-667.84 264.26,-661.47"/>
<text text-anchor="middle" x="383.5" y="-689.48" font-family="Helvetica,sans-Serif" font-size="10.00"> _fCurrVal</text>
<text text-anchor="middle" x="383.5" y="-678.48" font-family="Helvetica,sans-Serif" font-size="10.00">_fError</text>
<text text-anchor="middle" x="383.5" y="-667.48" font-family="Helvetica,sans-Serif" font-size="10.00">_fGenerated</text>
<text text-anchor="middle" x="383.5" y="-656.48" font-family="Helvetica,sans-Serif" font-size="10.00">_fIndivStepScale</text>
<text text-anchor="middle" x="383.5" y="-645.48" font-family="Helvetica,sans-Serif" font-size="10.00">_fLowBound</text>
<text text-anchor="middle" x="383.5" y="-634.48" font-family="Helvetica,sans-Serif" font-size="10.00">_fPreFitValue</text>
<text text-anchor="middle" x="383.5" y="-623.48" font-family="Helvetica,sans-Serif" font-size="10.00">_fPropVal</text>
<text text-anchor="middle" x="383.5" y="-612.48" font-family="Helvetica,sans-Serif" font-size="10.00">_fUpBound</text>
</g>
<!-- Node13 -->
<g id="node13" class="node">
<title>Node13</title>
<g id="a_node13"><a xlink:title=" ">
<polygon fill="white" stroke="#666666" points="635,-373.98 444,-373.98 444,-354.98 635,-354.98 635,-373.98"/>
<text text-anchor="middle" x="539.5" y="-361.98" font-family="Helvetica,sans-Serif" font-size="10.00">std::vector&lt; FunctionalParameter &gt;</text>
</a>
</g>
</g>
<!-- Node13&#45;&gt;Node1 -->
<g id="edge13" class="edge">
<title>Node13&#45;&gt;Node1</title>
<path fill="none" stroke="#9a32cd" stroke-dasharray="5,2" d="M584.59,-376.36C640.37,-388.55 736.56,-399.75 798,-352.48 819.06,-336.28 794.57,-311.19 816,-295.48 887.7,-242.94 927.29,-289.83 1016,-295.48 1092.91,-300.38 1123.97,-274.6 1188,-317.48 1229.32,-345.15 1248.92,-406.19 1255.18,-429.85"/>
<polygon fill="#9a32cd" stroke="#9a32cd" points="585.19,-372.9 574.66,-374.08 583.63,-379.73 585.19,-372.9"/>
<text text-anchor="middle" x="916" y="-298.48" font-family="Helvetica,sans-Serif" font-size="10.00"> funcParsVec</text>
</g>
<!-- Node13&#45;&gt;Node20 -->
<g id="edge36" class="edge">
<title>Node13&#45;&gt;Node20</title>
<path fill="none" stroke="#9a32cd" stroke-dasharray="5,2" d="M598.97,-352.92C610.9,-350.51 623.36,-347.95 635,-345.48 643.02,-343.79 644.95,-343.01 653,-341.48 717.1,-329.29 748.34,-360.81 798,-318.48 817.57,-301.8 797.11,-280.94 816,-263.48 824.05,-256.04 834.01,-250.79 844.48,-247.12"/>
<polygon fill="#9a32cd" stroke="#9a32cd" points="598.21,-349.5 589.1,-354.91 599.59,-356.36 598.21,-349.5"/>
<text text-anchor="middle" x="725.5" y="-344.48" font-family="Helvetica,sans-Serif" font-size="10.00"> FuncParams</text>
</g>
<!-- Node14 -->
<g id="node14" class="node">
<title>Node14</title>
<g id="a_node14"><a xlink:title=" ">
<polygon fill="white" stroke="#666666" points="973,-564.48 859,-564.48 859,-534.48 973,-534.48 973,-564.48"/>
<text text-anchor="start" x="867" y="-552.48" font-family="Helvetica,sans-Serif" font-size="10.00">std::unordered_map</text>
<text text-anchor="middle" x="916" y="-541.48" font-family="Helvetica,sans-Serif" font-size="10.00">&lt; std::string, int &gt;</text>
</a>
</g>
</g>
<!-- Node14&#45;&gt;Node1 -->
<g id="edge14" class="edge">
<title>Node14&#45;&gt;Node1</title>
<path fill="none" stroke="#9a32cd" stroke-dasharray="5,2" d="M983.11,-551.99C1040.31,-551.5 1123.71,-544.24 1188,-511.48 1216.95,-496.73 1240.69,-465.11 1251.38,-449.14"/>
<polygon fill="#9a32cd" stroke="#9a32cd" points="983.1,-548.49 973.1,-552.01 983.11,-555.49 983.1,-548.49"/>
<text text-anchor="middle" x="1111" y="-562.48" font-family="Helvetica,sans-Serif" font-size="10.00"> KinematicParameters</text>
<text text-anchor="middle" x="1111" y="-551.48" font-family="Helvetica,sans-Serif" font-size="10.00">funcParsNamesMap</text>
</g>
<!-- Node15 -->
<g id="node15" class="node">
<title>Node15</title>
<g id="a_node15"><a xlink:title=" ">
<polygon fill="white" stroke="#666666" points="1016,-515.98 816,-515.98 816,-496.98 1016,-496.98 1016,-515.98"/>
<text text-anchor="middle" x="916" y="-503.98" font-family="Helvetica,sans-Serif" font-size="10.00">std::vector&lt; FunctionalParameter * &gt;</text>
</a>
</g>
</g>
<!-- Node15&#45;&gt;Node1 -->
<g id="edge15" class="edge">
<title>Node15&#45;&gt;Node1</title>
<path fill="none" stroke="#9a32cd" stroke-dasharray="5,2" d="M1026.33,-498.38C1076.26,-492.95 1135.79,-484.02 1188,-469.48 1205.98,-464.48 1225.4,-455.79 1239.12,-449.05"/>
<polygon fill="#9a32cd" stroke="#9a32cd" points="1025.73,-494.93 1016.15,-499.46 1026.46,-501.89 1025.73,-494.93"/>
<text text-anchor="middle" x="1111" y="-499.48" font-family="Helvetica,sans-Serif" font-size="10.00"> funcParsMap</text>
</g>
<!-- Node16 -->
<g id="node16" class="node">
<title>Node16</title>
<g id="a_node16"><a xlink:title=" ">
<polygon fill="white" stroke="#666666" points="986,-478.48 846,-478.48 846,-448.48 986,-448.48 986,-478.48"/>
<text text-anchor="start" x="854" y="-466.48" font-family="Helvetica,sans-Serif" font-size="10.00">std::unordered_map</text>
<text text-anchor="middle" x="916" y="-455.48" font-family="Helvetica,sans-Serif" font-size="10.00">&lt; int, FuncParFuncType &gt;</text>
</a>
</g>
</g>
<!-- Node16&#45;&gt;Node1 -->
<g id="edge16" class="edge">
<title>Node16&#45;&gt;Node1</title>
<path fill="none" stroke="#9a32cd" stroke-dasharray="5,2" d="M996.45,-457.88C1060.99,-453.33 1150.14,-447.05 1205.77,-443.13"/>
<polygon fill="#9a32cd" stroke="#9a32cd" points="996.04,-454.4 986.32,-458.6 996.54,-461.38 996.04,-454.4"/>
<text text-anchor="middle" x="1111" y="-457.48" font-family="Helvetica,sans-Serif" font-size="10.00"> funcParsFuncMap</text>
</g>
<!-- Node17 -->
<g id="node17" class="node">
<title>Node17</title>
<g id="a_node17"><a xlink:title=" ">
<polygon fill="white" stroke="#666666" points="984.5,-430.48 847.5,-430.48 847.5,-400.48 984.5,-400.48 984.5,-430.48"/>
<text text-anchor="start" x="855.5" y="-418.48" font-family="Helvetica,sans-Serif" font-size="10.00">std::vector&lt; std::vector</text>
<text text-anchor="middle" x="916" y="-407.48" font-family="Helvetica,sans-Serif" font-size="10.00">&lt; std::vector&lt; int &gt; &gt; &gt;</text>
</a>
</g>
</g>
<!-- Node17&#45;&gt;Node1 -->
<g id="edge17" class="edge">
<title>Node17&#45;&gt;Node1</title>
<path fill="none" stroke="#9a32cd" stroke-dasharray="5,2" d="M994.74,-417.62C1048.99,-419.56 1123.03,-423.14 1188,-429.48 1193.82,-430.05 1199.91,-430.76 1205.95,-431.53"/>
<polygon fill="#9a32cd" stroke="#9a32cd" points="994.62,-414.11 984.51,-417.26 994.38,-421.11 994.62,-414.11"/>
<text text-anchor="middle" x="1111" y="-432.48" font-family="Helvetica,sans-Serif" font-size="10.00"> funcParsGrid</text>
</g>
<!-- Node18 -->
<g id="node18" class="node">
<title>Node18</title>
<g id="a_node18"><a xlink:title=" ">
<polygon fill="white" stroke="#666666" points="984,-382.48 848,-382.48 848,-352.48 984,-352.48 984,-382.48"/>
<text text-anchor="start" x="856" y="-370.48" font-family="Helvetica,sans-Serif" font-size="10.00">std::vector&lt; FarDetector</text>
<text text-anchor="middle" x="916" y="-359.48" font-family="Helvetica,sans-Serif" font-size="10.00">CoreInfo &gt;</text>
</a>
</g>
</g>
<!-- Node18&#45;&gt;Node1 -->
<g id="edge18" class="edge">
<title>Node18&#45;&gt;Node1</title>
<path fill="none" stroke="#9a32cd" stroke-dasharray="5,2" d="M994.08,-371.22C1049.13,-375.51 1124.39,-384.73 1188,-404.48 1207.61,-410.57 1228.44,-421.77 1242.12,-429.86"/>
<polygon fill="#9a32cd" stroke="#9a32cd" points="994.27,-367.72 984.04,-370.47 993.75,-374.7 994.27,-367.72"/>
<text text-anchor="middle" x="1111" y="-407.48" font-family="Helvetica,sans-Serif" font-size="10.00"> MCSamples</text>
</g>
<!-- Node19 -->
<g id="node19" class="node">
<title>Node19</title>
<g id="a_node19"><a xlink:title=" ">
<polygon fill="white" stroke="#666666" points="999.5,-333.98 832.5,-333.98 832.5,-314.98 999.5,-314.98 999.5,-333.98"/>
<text text-anchor="middle" x="916" y="-321.98" font-family="Helvetica,sans-Serif" font-size="10.00">std::vector&lt; OscChannelInfo &gt;</text>
</a>
</g>
</g>
<!-- Node19&#45;&gt;Node1 -->
<g id="edge19" class="edge">
<title>Node19&#45;&gt;Node1</title>
<path fill="none" stroke="#9a32cd" stroke-dasharray="5,2" d="M1009.63,-320.4C1064.45,-321.76 1133.58,-330.32 1188,-359.48 1218.97,-376.08 1242.42,-412.44 1252.32,-429.84"/>
<polygon fill="#9a32cd" stroke="#9a32cd" points="1009.63,-316.9 999.57,-320.22 1009.51,-323.89 1009.63,-316.9"/>
<text text-anchor="middle" x="1111" y="-362.48" font-family="Helvetica,sans-Serif" font-size="10.00"> OscChannels</text>
</g>
<!-- Node20&#45;&gt;Node1 -->
<g id="edge20" class="edge">
<title>Node20&#45;&gt;Node1</title>
<path fill="none" stroke="#9a32cd" stroke-dasharray="5,2" d="M969.71,-228.27C1028.86,-218.86 1124.79,-213.53 1188,-260.48 1245,-302.82 1255.26,-398.62 1257.1,-429.61"/>
<polygon fill="#9a32cd" stroke="#9a32cd" points="969.11,-224.82 959.83,-229.93 970.27,-231.72 969.11,-224.82"/>
<text text-anchor="middle" x="1111" y="-263.48" font-family="Helvetica,sans-Serif" font-size="10.00"> ParHandler</text>
</g>
<!-- Node21&#45;&gt;Node20 -->
<g id="edge21" class="edge">
<title>Node21&#45;&gt;Node20</title>
<path fill="none" stroke="#63b8ff" d="M582.46,-518.46C639.66,-531.93 741.44,-545.29 798,-489.48 833.87,-454.1 783.3,-301.81 816,-263.48 823.46,-254.74 833.51,-248.88 844.36,-245.02"/>
<polygon fill="#63b8ff" stroke="#63b8ff" points="583.21,-515.03 572.66,-516.04 581.53,-521.83 583.21,-515.03"/>
</g>
<!-- Node32 -->
<g id="node32" class="node">
<title>Node32</title>
<g id="a_node32"><a xlink:href="classParameterHandlerOsc.html" target="_top" xlink:title="Class responsible for handling of neutrino oscillation parameters.">
<polygon fill="white" stroke="#666666" points="977.5,-639.98 854.5,-639.98 854.5,-620.98 977.5,-620.98 977.5,-639.98"/>
<text text-anchor="middle" x="916" y="-627.98" font-family="Helvetica,sans-Serif" font-size="10.00">ParameterHandlerOsc</text>
</a>
</g>
</g>
<!-- Node21&#45;&gt;Node32 -->
<g id="edge38" class="edge">
<title>Node21&#45;&gt;Node32</title>
<path fill="none" stroke="#63b8ff" d="M573.74,-519.9C625.11,-540.33 727.17,-579.68 816,-606.48 833.78,-611.85 853.63,-616.85 870.86,-620.88"/>
<polygon fill="#63b8ff" stroke="#63b8ff" points="574.74,-516.53 564.16,-516.07 572.15,-523.03 574.74,-516.53"/>
</g>
<!-- Node22 -->
<g id="node22" class="node">
<title>Node22</title>
<g id="a_node22"><a xlink:title=" ">
<polygon fill="white" stroke="#666666" points="297.5,-573.48 166.5,-573.48 166.5,-543.48 297.5,-543.48 297.5,-573.48"/>
<text text-anchor="start" x="174.5" y="-561.48" font-family="Helvetica,sans-Serif" font-size="10.00">std::vector&lt; std::vector</text>
<text text-anchor="middle" x="232" y="-550.48" font-family="Helvetica,sans-Serif" font-size="10.00">&lt; double &gt; &gt;</text>
</a>
</g>
</g>
<!-- Node22&#45;&gt;Node21 -->
<g id="edge23" class="edge">
<title>Node22&#45;&gt;Node21</title>
<path fill="none" stroke="#9a32cd" stroke-dasharray="5,2" d="M307.65,-545.78C361.63,-536.59 433.42,-524.37 482.52,-516.01"/>
<polygon fill="#9a32cd" stroke="#9a32cd" points="307.06,-542.33 297.79,-547.45 308.23,-549.23 307.06,-542.33"/>
<text text-anchor="middle" x="383.5" y="-541.48" font-family="Helvetica,sans-Serif" font-size="10.00"> InvertCovMatrix</text>
</g>
<!-- Node23 -->
<g id="node23" class="node">
<title>Node23</title>
<g id="a_node23"><a xlink:title=" ">
<polygon fill="white" stroke="#666666" points="299,-525.48 165,-525.48 165,-495.48 299,-495.48 299,-525.48"/>
<text text-anchor="start" x="173" y="-513.48" font-family="Helvetica,sans-Serif" font-size="10.00">std::vector&lt; std::unique</text>
<text text-anchor="middle" x="232" y="-502.48" font-family="Helvetica,sans-Serif" font-size="10.00">_ptr&lt; TRandom3 &gt; &gt;</text>
</a>
</g>
</g>
<!-- Node23&#45;&gt;Node21 -->
<g id="edge24" class="edge">
<title>Node23&#45;&gt;Node21</title>
<path fill="none" stroke="#9a32cd" stroke-dasharray="5,2" d="M309.37,-508.15C319.99,-507.88 330.77,-507.65 341,-507.48 385.74,-506.75 436.19,-506.5 474.9,-506.44"/>
<polygon fill="#9a32cd" stroke="#9a32cd" points="309.16,-504.65 299.25,-508.4 309.34,-511.65 309.16,-504.65"/>
<text text-anchor="middle" x="383.5" y="-510.48" font-family="Helvetica,sans-Serif" font-size="10.00"> random_number</text>
</g>
<!-- Node24 -->
<g id="node24" class="node">
<title>Node24</title>
<g id="a_node24"><a xlink:title=" ">
<polygon fill="white" stroke="#666666" points="288,-476.98 176,-476.98 176,-457.98 288,-457.98 288,-476.98"/>
<text text-anchor="middle" x="232" y="-464.98" font-family="Helvetica,sans-Serif" font-size="10.00">std::vector&lt; bool &gt;</text>
</a>
</g>
</g>
<!-- Node24&#45;&gt;Node21 -->
<g id="edge27" class="edge">
<title>Node24&#45;&gt;Node21</title>
<path fill="none" stroke="#9a32cd" stroke-dasharray="5,2" d="M298.59,-475.49C335.94,-480.09 383.6,-486.02 426,-491.48 441.83,-493.52 458.9,-495.77 474.85,-497.9"/>
<polygon fill="#9a32cd" stroke="#9a32cd" points="298.69,-471.98 288.34,-474.23 297.84,-478.93 298.69,-471.98"/>
<text text-anchor="middle" x="383.5" y="-494.48" font-family="Helvetica,sans-Serif" font-size="10.00"> _fFlatPrior</text>
</g>
<!-- Node25 -->
<g id="node25" class="node">
<title>Node25</title>
<g id="a_node25"><a xlink:title=" ">
<polygon fill="white" stroke="#666666" points="297.5,-439.48 166.5,-439.48 166.5,-409.48 297.5,-409.48 297.5,-439.48"/>
<text text-anchor="start" x="174.5" y="-427.48" font-family="Helvetica,sans-Serif" font-size="10.00">std::vector&lt; std::vector</text>
<text text-anchor="middle" x="232" y="-416.48" font-family="Helvetica,sans-Serif" font-size="10.00">&lt; std::string &gt; &gt;</text>
</a>
</g>
</g>
<!-- Node25&#45;&gt;Node21 -->
<g id="edge28" class="edge">
<title>Node25&#45;&gt;Node21</title>
<path fill="none" stroke="#9a32cd" stroke-dasharray="5,2" d="M307.84,-437.84C343.85,-444.92 387.48,-454.43 426,-465.48 457.37,-474.48 492.58,-487.86 515.11,-496.87"/>
<polygon fill="#9a32cd" stroke="#9a32cd" points="308.37,-434.38 297.89,-435.91 307.04,-441.25 308.37,-434.38"/>
<text text-anchor="middle" x="383.5" y="-468.48" font-family="Helvetica,sans-Serif" font-size="10.00"> _fSampleNames</text>
</g>
<!-- Node26 -->
<g id="node26" class="node">
<title>Node26</title>
<g id="a_node26"><a xlink:title=" ">
<polygon fill="white" stroke="#666666" points="317,-390.98 147,-390.98 147,-371.98 317,-371.98 317,-390.98"/>
<text text-anchor="middle" x="232" y="-378.98" font-family="Helvetica,sans-Serif" font-size="10.00">std::unique_ptr&lt; PCAHandler &gt;</text>
</a>
</g>
</g>
<!-- Node26&#45;&gt;Node21 -->
<g id="edge29" class="edge">
<title>Node26&#45;&gt;Node21</title>
<path fill="none" stroke="#9a32cd" stroke-dasharray="5,2" d="M291.26,-393.19C301.85,-395.49 312.78,-397.97 323,-400.48 369.18,-411.84 383.55,-408.04 426,-429.48 435.05,-434.05 435.78,-437.56 444,-443.48 471.35,-463.2 504.33,-484.68 523.21,-496.78"/>
<polygon fill="#9a32cd" stroke="#9a32cd" points="291.75,-389.72 281.24,-391.05 290.29,-396.56 291.75,-389.72"/>
<text text-anchor="middle" x="383.5" y="-432.48" font-family="Helvetica,sans-Serif" font-size="10.00"> PCAObj</text>
</g>
<!-- Node27 -->
<g id="node27" class="node">
<title>Node27</title>
<g id="a_node27"><a xlink:title=" ">
<polygon fill="white" stroke="#666666" points="323,-621.48 141,-621.48 141,-591.48 323,-591.48 323,-621.48"/>
<text text-anchor="start" x="149" y="-609.48" font-family="Helvetica,sans-Serif" font-size="10.00">std::unique_ptr&lt; adaptive</text>
<text text-anchor="middle" x="232" y="-598.48" font-family="Helvetica,sans-Serif" font-size="10.00">_mcmc::AdaptiveMCMCHandler &gt;</text>
</a>
</g>
</g>
<!-- Node27&#45;&gt;Node21 -->
<g id="edge30" class="edge">
<title>Node27&#45;&gt;Node21</title>
<path fill="none" stroke="#9a32cd" stroke-dasharray="5,2" d="M303.16,-588.58C309.89,-586.62 316.6,-584.57 323,-582.48 331.16,-579.82 332.85,-578.16 341,-575.48 378.18,-563.26 388.93,-565.02 426,-552.48 458.38,-541.53 494.83,-526.02 517.23,-516.1"/>
<polygon fill="#9a32cd" stroke="#9a32cd" points="301.96,-585.28 293.3,-591.39 303.88,-592.02 301.96,-585.28"/>
<text text-anchor="middle" x="383.5" y="-578.48" font-family="Helvetica,sans-Serif" font-size="10.00"> AdaptiveHandler</text>
</g>
<!-- Node28 -->
<g id="node28" class="node">
<title>Node28</title>
<g id="a_node28"><a xlink:title=" ">
<polygon fill="white" stroke="#666666" points="606.5,-298.98 472.5,-298.98 472.5,-279.98 606.5,-279.98 606.5,-298.98"/>
<text text-anchor="middle" x="539.5" y="-286.98" font-family="Helvetica,sans-Serif" font-size="10.00">std::vector&lt; SystType &gt;</text>
</a>
</g>
</g>
<!-- Node28&#45;&gt;Node20 -->
<g id="edge31" class="edge">
<title>Node28&#45;&gt;Node20</title>
<path fill="none" stroke="#9a32cd" stroke-dasharray="5,2" d="M616.64,-278.53C628.8,-276.81 641.24,-275.08 653,-273.48 717.77,-264.67 791.61,-255.14 844.36,-248.41"/>
<polygon fill="#9a32cd" stroke="#9a32cd" points="615.92,-275.09 606.51,-279.96 616.9,-282.02 615.92,-275.09"/>
<text text-anchor="middle" x="725.5" y="-276.48" font-family="Helvetica,sans-Serif" font-size="10.00"> _fParamType</text>
</g>
<!-- Node29 -->
<g id="node29" class="node">
<title>Node29</title>
<g id="a_node29"><a xlink:title=" ">
<polygon fill="white" stroke="#666666" points="600.5,-203.48 478.5,-203.48 478.5,-173.48 600.5,-173.48 600.5,-203.48"/>
<text text-anchor="start" x="486.5" y="-191.48" font-family="Helvetica,sans-Serif" font-size="10.00">std::vector&lt; std::map</text>
<text text-anchor="middle" x="539.5" y="-180.48" font-family="Helvetica,sans-Serif" font-size="10.00">&lt; int, int &gt; &gt;</text>
</a>
</g>
</g>
<!-- Node29&#45;&gt;Node20 -->
<g id="edge33" class="edge">
<title>Node29&#45;&gt;Node20</title>
<path fill="none" stroke="#9a32cd" stroke-dasharray="5,2" d="M610.68,-193.47C662.6,-197.68 734.95,-204.59 798,-214.48 824.06,-218.57 853.06,-224.75 875.67,-229.95"/>
<polygon fill="#9a32cd" stroke="#9a32cd" points="610.82,-189.97 600.57,-192.67 610.27,-196.95 610.82,-189.97"/>
<text text-anchor="middle" x="725.5" y="-217.48" font-family="Helvetica,sans-Serif" font-size="10.00"> _fSystToGlobalSystIndexMap</text>
</g>
<!-- Node30 -->
<g id="node30" class="node">
<title>Node30</title>
<g id="a_node30"><a xlink:title=" ">
<polygon fill="white" stroke="#666666" points="625,-335.98 454,-335.98 454,-316.98 625,-316.98 625,-335.98"/>
<text text-anchor="middle" x="539.5" y="-323.98" font-family="Helvetica,sans-Serif" font-size="10.00">std::vector&lt; SplineParameter &gt;</text>
</a>
</g>
</g>
<!-- Node30&#45;&gt;Node20 -->
<g id="edge34" class="edge">
<title>Node30&#45;&gt;Node20</title>
<path fill="none" stroke="#9a32cd" stroke-dasharray="5,2" d="M606.2,-315.27C621.56,-312.68 637.85,-309.96 653,-307.48 717.39,-296.94 741.05,-316.32 798,-284.48 808.73,-278.48 805.52,-269.91 816,-263.48 826.33,-257.15 838.22,-252.49 850.09,-249.06"/>
<polygon fill="#9a32cd" stroke="#9a32cd" points="605.55,-311.83 596.27,-316.95 606.72,-318.74 605.55,-311.83"/>
<text text-anchor="middle" x="725.5" y="-310.48" font-family="Helvetica,sans-Serif" font-size="10.00"> SplineParams</text>
</g>
<!-- Node31 -->
<g id="node31" class="node">
<title>Node31</title>
<g id="a_node31"><a xlink:title=" ">
<polygon fill="white" stroke="#666666" points="623.5,-154.98 455.5,-154.98 455.5,-135.98 623.5,-135.98 623.5,-154.98"/>
<text text-anchor="middle" x="539.5" y="-142.98" font-family="Helvetica,sans-Serif" font-size="10.00">std::vector&lt; NormParameter &gt;</text>
</a>
</g>
</g>
<!-- Node31&#45;&gt;Node1 -->
<g id="edge39" class="edge">
<title>Node31&#45;&gt;Node1</title>
<path fill="none" stroke="#9a32cd" stroke-dasharray="5,2" d="M633.89,-138.48C683.91,-137.79 745.8,-141.91 798,-160.48 807.3,-163.79 806.81,-169.9 816,-173.48 893.56,-203.71 1123.94,-164.33 1188,-217.48 1255.76,-273.7 1258.51,-395.16 1257.84,-429.98"/>
<polygon fill="#9a32cd" stroke="#9a32cd" points="633.65,-134.99 623.73,-138.69 633.8,-141.99 633.65,-134.99"/>
<text text-anchor="middle" x="916" y="-189.48" font-family="Helvetica,sans-Serif" font-size="10.00"> norm_parameters</text>
</g>
<!-- Node31&#45;&gt;Node20 -->
<g id="edge35" class="edge">
<title>Node31&#45;&gt;Node20</title>
<path fill="none" stroke="#9a32cd" stroke-dasharray="5,2" d="M628.83,-156.27C700.54,-165.33 790.91,-177.56 798,-182.48 811.72,-192.01 802.75,-205.31 816,-215.48 824.35,-221.89 834.16,-226.61 844.31,-230.09"/>
<polygon fill="#9a32cd" stroke="#9a32cd" points="629.2,-152.79 618.84,-155.02 628.33,-159.74 629.2,-152.79"/>
<text text-anchor="middle" x="725.5" y="-185.48" font-family="Helvetica,sans-Serif" font-size="10.00"> NormParams</text>
</g>
<!-- Node32&#45;&gt;Node1 -->
<g id="edge37" class="edge">
<title>Node32&#45;&gt;Node1</title>
<path fill="none" stroke="#9a32cd" stroke-dasharray="5,2" d="M987.57,-632.3C1057.07,-632.69 1157.18,-629.07 1188,-606.48 1241.7,-567.13 1254.12,-478.43 1256.81,-449.1"/>
<polygon fill="#9a32cd" stroke="#9a32cd" points="987.57,-628.8 977.54,-632.21 987.51,-635.8 987.57,-628.8"/>
<text text-anchor="middle" x="1111" y="-634.48" font-family="Helvetica,sans-Serif" font-size="10.00"> OscParHandler</text>
</g>
<!-- Node33 -->
<g id="node33" class="node">
<title>Node33</title>
<g id="a_node33"><a xlink:title=" ">
<polygon fill="white" stroke="#666666" points="994.5,-163.98 837.5,-163.98 837.5,-144.98 994.5,-144.98 994.5,-163.98"/>
<text text-anchor="middle" x="916" y="-151.98" font-family="Helvetica,sans-Serif" font-size="10.00">std::vector&lt; KinematicCut &gt;</text>
</a>
</g>
</g>
<!-- Node33&#45;&gt;Node1 -->
<g id="edge40" class="edge">
<title>Node33&#45;&gt;Node1</title>
<path fill="none" stroke="#9a32cd" stroke-dasharray="5,2" d="M1005.03,-146.71C1073.29,-142.66 1160.71,-142.41 1188,-164.48 1231.07,-199.32 1252.12,-385.35 1256.58,-429.89"/>
<polygon fill="#9a32cd" stroke="#9a32cd" points="1004.44,-143.24 994.68,-147.36 1004.88,-150.23 1004.44,-143.24"/>
<text text-anchor="middle" x="1111" y="-178.48" font-family="Helvetica,sans-Serif" font-size="10.00"> Selection</text>
<text text-anchor="middle" x="1111" y="-167.48" font-family="Helvetica,sans-Serif" font-size="10.00">StoredSelection</text>
</g>
<!-- Node34 -->
<g id="node34" class="node">
<title>Node34</title>
<g id="a_node34"><a xlink:title=" ">
<polygon fill="white" stroke="#666666" points="973,-126.48 859,-126.48 859,-96.48 973,-96.48 973,-126.48"/>
<text text-anchor="start" x="867" y="-114.48" font-family="Helvetica,sans-Serif" font-size="10.00">std::unordered_map</text>
<text text-anchor="middle" x="916" y="-103.48" font-family="Helvetica,sans-Serif" font-size="10.00">&lt; int, std::string &gt;</text>
</a>
</g>
</g>
<!-- Node34&#45;&gt;Node1 -->
<g id="edge41" class="edge">
<title>Node34&#45;&gt;Node1</title>
<path fill="none" stroke="#9a32cd" stroke-dasharray="5,2" d="M983.48,-95.62C1044.02,-85.4 1132.23,-81.71 1188,-129.48 1235.44,-170.12 1253.34,-381.52 1256.83,-429.7"/>
<polygon fill="#9a32cd" stroke="#9a32cd" points="982.49,-92.24 973.26,-97.45 983.72,-99.13 982.49,-92.24"/>
<text text-anchor="middle" x="1111" y="-132.48" font-family="Helvetica,sans-Serif" font-size="10.00"> ReversedKinematicParameters</text>
</g>
<!-- Node35 -->
<g id="node35" class="node">
<title>Node35</title>
<g id="a_node35"><a xlink:title=" ">
<polygon fill="white" stroke="#666666" points="993.5,-77.98 838.5,-77.98 838.5,-58.98 993.5,-58.98 993.5,-77.98"/>
<text text-anchor="middle" x="916" y="-65.98" font-family="Helvetica,sans-Serif" font-size="10.00">std::unique_ptr&lt; manager &gt;</text>
</a>
</g>
</g>
<!-- Node35&#45;&gt;Node1 -->
<g id="edge42" class="edge">
<title>Node35&#45;&gt;Node1</title>
<path fill="none" stroke="#9a32cd" stroke-dasharray="5,2" d="M1003.55,-58.68C1072.2,-52.93 1160.96,-50.67 1188,-73.48 1244.6,-121.24 1255.55,-376.42 1257.23,-429.72"/>
<polygon fill="#9a32cd" stroke="#9a32cd" points="1003.23,-55.19 993.58,-59.55 1003.84,-62.17 1003.23,-55.19"/>
<text text-anchor="middle" x="1111" y="-76.48" font-family="Helvetica,sans-Serif" font-size="10.00"> SampleManager</text>
</g>
<!-- Node36 -->
<g id="node36" class="node">
<title>Node36</title>
<g id="a_node36"><a xlink:title=" ">
<polygon fill="white" stroke="#666666" points="979.5,-40.48 852.5,-40.48 852.5,-10.48 979.5,-10.48 979.5,-40.48"/>
<text text-anchor="start" x="860.5" y="-28.48" font-family="Helvetica,sans-Serif" font-size="10.00">std::unordered_map</text>
<text text-anchor="middle" x="916" y="-17.48" font-family="Helvetica,sans-Serif" font-size="10.00">&lt; std::string, double &gt;</text>
</a>
</g>
</g>
<!-- Node36&#45;&gt;Node1 -->
<g id="edge43" class="edge">
<title>Node36&#45;&gt;Node1</title>
<path fill="none" stroke="#9a32cd" stroke-dasharray="5,2" d="M982.15,-8.48C1043.03,3.16 1132.63,8.75 1188,-40.48 1248.43,-94.21 1256.37,-373.47 1257.36,-429.63"/>
<polygon fill="#9a32cd" stroke="#9a32cd" points="981.37,-5.06 972.26,-10.47 982.75,-11.93 981.37,-5.06"/>
<text text-anchor="middle" x="1111" y="-43.48" font-family="Helvetica,sans-Serif" font-size="10.00"> _modeNomWeightMap</text>
</g>
</g>
</svg>
        <g id="navigator" transform="translate(0 0)" fill="#404254">
                <rect fill="#f2f5e9" fill-opacity="0.5" stroke="#606060" stroke-width=".5" x="0" y="0" width="60" height="60"/>
                <use id="zoomplus" xlink:href="#zoomPlus" x="17" y="9" onmousedown="handleZoom(evt,'in')"/>
                <use id="zoomminus" xlink:href="#zoomMin" x="42" y="9" onmousedown="handleZoom(evt,'out')"/>
                <use id="reset" xlink:href="#resetDef" x="30" y="36" onmousedown="handleReset()"/>
                <g id="arrowUp" xlink:href="#dirArrow" transform="translate(30 24)" onmousedown="handlePan(0,-1)">
                  <use xlink:href="#rim" fill="#404040">
                        <set attributeName="fill" to="#808080" begin="arrowUp.mouseover" end="arrowUp.mouseout"/>
                  </use>
                  <path fill="none" stroke="white" stroke-width="1.5" d="M0,-3.0v7 M-2.5,-0.5L0,-3.0L2.5,-0.5"/>
                </g>
                <g id="arrowRight" xlink:href="#dirArrow" transform="rotate(90) translate(36 -43)" onmousedown="handlePan(1,0)">
                  <use xlink:href="#rim" fill="#404040">
                        <set attributeName="fill" to="#808080" begin="arrowRight.mouseover" end="arrowRight.mouseout"/>
                  </use>
                  <path fill="none" stroke="white" stroke-width="1.5" d="M0,-3.0v7 M-2.5,-0.5L0,-3.0L2.5,-0.5"/>
                </g>
                <g id="arrowDown" xlink:href="#dirArrow" transform="rotate(180) translate(-30 -48)" onmousedown="handlePan(0,1)">
                  <use xlink:href="#rim" fill="#404040">
                        <set attributeName="fill" to="#808080" begin="arrowDown.mouseover" end="arrowDown.mouseout"/>
                  </use>
                  <path fill="none" stroke="white" stroke-width="1.5" d="M0,-3.0v7 M-2.5,-0.5L0,-3.0L2.5,-0.5"/>
                </g>
                <g id="arrowLeft" xlink:href="#dirArrow" transform="rotate(270) translate(-36 17)" onmousedown="handlePan(-1,0)">
                  <use xlink:href="#rim" fill="#404040">
                        <set attributeName="fill" to="#808080" begin="arrowLeft.mouseover" end="arrowLeft.mouseout"/>
                  </use>
                  <path fill="none" stroke="white" stroke-width="1.5" d="M0,-3.0v7 M-2.5,-0.5L0,-3.0L2.5,-0.5"/>
                </g>
        </g>
        <svg viewBox="0 0 15 15" width="100%" height="30px" preserveAspectRatio="xMaxYMin meet">
         <g id="arrow_out" transform="scale(0.3 0.3)">
          <a xlink:href="classSampleHandlerFD__coll__graph_org.svg" target="_base">
           <rect id="button" ry="5" rx="5" y="6" x="6" height="38" width="38"
                fill="#f2f5e9" fill-opacity="0.5" stroke="#606060" stroke-width="1.0"/>
           <path id="arrow"
             d="M 11.500037,31.436501 C 11.940474,20.09759 22.043105,11.32322 32.158766,21.979434 L 37.068811,17.246167 C 37.068811,17.246167 37.088388,32 37.088388,32 L 22.160133,31.978069 C 22.160133,31.978069 26.997745,27.140456 26.997745,27.140456 C 18.528582,18.264221 13.291696,25.230495 11.500037,31.436501 z"
             style="fill:#404040;"/>
          </a>
         </g>
        </svg>
</svg>
