<?xml version="1.0" encoding="UTF-8" standalone="no"?>
<!DOCTYPE svg PUBLIC "-//W3C//DTD SVG 1.1//EN"
 "http://www.w3.org/Graphics/SVG/1.1/DTD/svg11.dtd">
<!-- Generated by graphviz version 2.43.0 (0)
 -->
<!-- Title: SampleHandlerFD Pages: 1 -->
<svg width="1343pt" height="907pt"
 viewBox="0.00 0.00 1343.00 907.24" xmlns="http://www.w3.org/2000/svg" xmlns:xlink="http://www.w3.org/1999/xlink">
<g id="graph0" class="graph" transform="scale(1 1) rotate(0) translate(4 903.24)">
<title>SampleHandlerFD</title>
<!-- Node1 -->
<g id="node1" class="node">
<title>Node1</title>
<g id="a_node1"><a xlink:title="Class responsible for handling implementation of samples used in analysis, reweighting and returning ...">
<polygon fill="#999999" stroke="#666666" points="1335,-423.88 1230,-423.88 1230,-404.88 1335,-404.88 1335,-423.88"/>
<text text-anchor="middle" x="1282.5" y="-411.88" font-family="Helvetica,sans-Serif" font-size="10.00">SampleHandlerFD</text>
</a>
</g>
</g>
<!-- Node2 -->
<g id="node2" class="node">
<title>Node2</title>
<g id="a_node2"><a xlink:href="classSampleHandlerBase.html" target="_top" xlink:title="Class responsible for handling implementation of samples used in analysis, reweighting and returning ...">
<polygon fill="white" stroke="#666666" points="998,-890.88 882,-890.88 882,-871.88 998,-871.88 998,-890.88"/>
<text text-anchor="middle" x="940" y="-878.88" font-family="Helvetica,sans-Serif" font-size="10.00">SampleHandlerBase</text>
</a>
</g>
</g>
<!-- Node2&#45;&gt;Node1 -->
<g id="edge1" class="edge">
<title>Node2&#45;&gt;Node1</title>
<path fill="none" stroke="#63b8ff" d="M993.31,-892.66C1054.25,-902.45 1153.97,-907.54 1212,-852.38 1276.6,-790.98 1281.2,-482.45 1281.49,-423.96"/>
<polygon fill="#63b8ff" stroke="#63b8ff" points="993.59,-889.15 983.14,-890.92 992.41,-896.05 993.59,-889.15"/>
</g>
<!-- Node3 -->
<g id="node3" class="node">
<title>Node3</title>
<g id="a_node3"><a xlink:title=" ">
<polygon fill="white" stroke="#666666" points="652.5,-890.88 474.5,-890.88 474.5,-871.88 652.5,-871.88 652.5,-890.88"/>
<text text-anchor="middle" x="563.5" y="-878.88" font-family="Helvetica,sans-Serif" font-size="10.00">std::unique_ptr&lt; MaCh3Modes &gt;</text>
</a>
</g>
</g>
<!-- Node3&#45;&gt;Node2 -->
<g id="edge2" class="edge">
<title>Node3&#45;&gt;Node2</title>
<path fill="none" stroke="#9a32cd" stroke-dasharray="5,2" d="M662.9,-881.38C732.64,-881.38 823.78,-881.38 881.87,-881.38"/>
<polygon fill="#9a32cd" stroke="#9a32cd" points="662.78,-877.88 652.78,-881.38 662.78,-884.88 662.78,-877.88"/>
<text text-anchor="middle" x="749.5" y="-884.38" font-family="Helvetica,sans-Serif" font-size="10.00"> Modes</text>
</g>
<!-- Node4 -->
<g id="node4" class="node">
<title>Node4</title>
<g id="a_node4"><a xlink:title=" ">
<polygon fill="white" stroke="#666666" points="1022,-853.38 858,-853.38 858,-823.38 1022,-823.38 1022,-853.38"/>
<text text-anchor="start" x="866" y="-841.38" font-family="Helvetica,sans-Serif" font-size="10.00">std::unique_ptr&lt; BinnedSpline</text>
<text text-anchor="middle" x="940" y="-830.38" font-family="Helvetica,sans-Serif" font-size="10.00">Handler &gt;</text>
</a>
</g>
</g>
<!-- Node4&#45;&gt;Node1 -->
<g id="edge3" class="edge">
<title>Node4&#45;&gt;Node1</title>
<path fill="none" stroke="#9a32cd" stroke-dasharray="5,2" d="M1032.52,-838.56C1100.88,-836.67 1186.67,-829.36 1212,-805.38 1269.58,-750.87 1279.8,-478.69 1281.28,-423.97"/>
<polygon fill="#9a32cd" stroke="#9a32cd" points="1032.06,-835.07 1022.14,-838.81 1032.23,-842.06 1032.06,-835.07"/>
<text text-anchor="middle" x="1135" y="-840.38" font-family="Helvetica,sans-Serif" font-size="10.00"> SplineHandler</text>
</g>
<!-- Node5 -->
<g id="node5" class="node">
<title>Node5</title>
<g id="a_node5"><a xlink:title=" ">
<polygon fill="white" stroke="#666666" points="1016,-805.38 864,-805.38 864,-775.38 1016,-775.38 1016,-805.38"/>
<text text-anchor="start" x="872" y="-793.38" font-family="Helvetica,sans-Serif" font-size="10.00">std::shared_ptr&lt; Oscillation</text>
<text text-anchor="middle" x="940" y="-782.38" font-family="Helvetica,sans-Serif" font-size="10.00">Handler &gt;</text>
</a>
</g>
</g>
<!-- Node5&#45;&gt;Node1 -->
<g id="edge4" class="edge">
<title>Node5&#45;&gt;Node1</title>
<path fill="none" stroke="#9a32cd" stroke-dasharray="5,2" d="M1026.31,-791.91C1095.42,-791.27 1185.52,-785.55 1212,-761.38 1263.84,-714.05 1278.51,-474.76 1281.06,-423.89"/>
<polygon fill="#9a32cd" stroke="#9a32cd" points="1026.25,-788.41 1016.27,-791.96 1026.29,-795.41 1026.25,-788.41"/>
<text text-anchor="middle" x="1135" y="-793.38" font-family="Helvetica,sans-Serif" font-size="10.00"> Oscillator</text>
</g>
<!-- Node6 -->
<g id="node6" class="node">
<title>Node6</title>
<g id="a_node6"><a xlink:title=" ">
<polygon fill="white" stroke="#666666" points="264.5,-740.88 199.5,-740.88 199.5,-721.88 264.5,-721.88 264.5,-740.88"/>
<text text-anchor="middle" x="232" y="-728.88" font-family="Helvetica,sans-Serif" font-size="10.00">std::string</text>
</a>
</g>
</g>
<!-- Node6&#45;&gt;Node1 -->
<g id="edge5" class="edge">
<title>Node6&#45;&gt;Node1</title>
<path fill="none" stroke="#9a32cd" stroke-dasharray="5,2" d="M274.66,-735.66C294.7,-737.51 319.07,-739.46 341,-740.38 535.29,-748.46 1070.29,-789.53 1212,-656.38 1281.76,-590.82 1283.03,-460.33 1281.94,-423.97"/>
<polygon fill="#9a32cd" stroke="#9a32cd" points="274.91,-732.17 264.62,-734.71 274.24,-739.14 274.91,-732.17"/>
<text text-anchor="middle" x="749.5" y="-788.38" font-family="Helvetica,sans-Serif" font-size="10.00"> SampleName</text>
<text text-anchor="middle" x="749.5" y="-777.38" font-family="Helvetica,sans-Serif" font-size="10.00">SampleTitle</text>
<text text-anchor="middle" x="749.5" y="-766.38" font-family="Helvetica,sans-Serif" font-size="10.00">XVarStr</text>
<text text-anchor="middle" x="749.5" y="-755.38" font-family="Helvetica,sans-Serif" font-size="10.00">YVarStr</text>
</g>
<!-- Node18 -->
<g id="node18" class="node">
<title>Node18</title>
<g id="a_node18"><a xlink:href="classParameterHandlerBase.html" target="_top" xlink:title="Base class responsible for handling of systematic error parameters. Capable of using PCA or using ada...">
<polygon fill="white" stroke="#666666" points="628,-451.88 499,-451.88 499,-432.88 628,-432.88 628,-451.88"/>
<text text-anchor="middle" x="563.5" y="-439.88" font-family="Helvetica,sans-Serif" font-size="10.00">ParameterHandlerBase</text>
</a>
</g>
</g>
<!-- Node6&#45;&gt;Node18 -->
<g id="edge18" class="edge">
<title>Node6&#45;&gt;Node18</title>
<path fill="none" stroke="#9a32cd" stroke-dasharray="5,2" d="M274.99,-726.91C331.51,-719.98 427.59,-704.61 450,-678.38 481.43,-641.59 435.82,-497.51 468,-461.38 476.01,-452.38 486.99,-446.94 498.64,-443.77"/>
<polygon fill="#9a32cd" stroke="#9a32cd" points="274.44,-723.45 264.92,-728.11 275.26,-730.41 274.44,-723.45"/>
<text text-anchor="middle" x="395.5" y="-730.38" font-family="Helvetica,sans-Serif" font-size="10.00"> inputFile</text>
<text text-anchor="middle" x="395.5" y="-719.38" font-family="Helvetica,sans-Serif" font-size="10.00">matrixName</text>
</g>
<!-- Node7 -->
<g id="node7" class="node">
<title>Node7</title>
<g id="a_node7"><a xlink:title=" ">
<polygon fill="white" stroke="#666666" points="104,-746.38 0,-746.38 0,-716.38 104,-716.38 104,-746.38"/>
<text text-anchor="start" x="8" y="-734.38" font-family="Helvetica,sans-Serif" font-size="10.00">std::basic_string&lt;</text>
<text text-anchor="middle" x="52" y="-723.38" font-family="Helvetica,sans-Serif" font-size="10.00"> Char &gt;</text>
</a>
</g>
</g>
<!-- Node7&#45;&gt;Node6 -->
<g id="edge6" class="edge">
<title>Node7&#45;&gt;Node6</title>
<path fill="none" stroke="#63b8ff" d="M114.33,-731.38C142.93,-731.38 175.76,-731.38 199.3,-731.38"/>
<polygon fill="#63b8ff" stroke="#63b8ff" points="114.01,-727.88 104.01,-731.38 114.01,-734.88 114.01,-727.88"/>
</g>
<!-- Node8 -->
<g id="node8" class="node">
<title>Node8</title>
<g id="a_node8"><a xlink:title=" ">
<polygon fill="white" stroke="#666666" points="302,-197.88 162,-197.88 162,-178.88 302,-178.88 302,-197.88"/>
<text text-anchor="middle" x="232" y="-185.88" font-family="Helvetica,sans-Serif" font-size="10.00">std::vector&lt; std::string &gt;</text>
</a>
</g>
</g>
<!-- Node8&#45;&gt;Node1 -->
<g id="edge7" class="edge">
<title>Node8&#45;&gt;Node1</title>
<path fill="none" stroke="#9a32cd" stroke-dasharray="5,2" d="M312.17,-182.76C321.88,-182.22 331.66,-181.73 341,-181.38 490.23,-175.66 527.66,-178.27 677,-177.38 796.63,-176.66 1118.57,-162.65 1212,-237.38 1266.91,-281.3 1278.56,-374.66 1280.92,-404.79"/>
<polygon fill="#9a32cd" stroke="#9a32cd" points="311.89,-179.27 302.11,-183.35 312.3,-186.26 311.89,-179.27"/>
<text text-anchor="middle" x="749.5" y="-224.38" font-family="Helvetica,sans-Serif" font-size="10.00"> SelectionStr</text>
<text text-anchor="middle" x="749.5" y="-213.38" font-family="Helvetica,sans-Serif" font-size="10.00">SplineVarNames</text>
<text text-anchor="middle" x="749.5" y="-202.38" font-family="Helvetica,sans-Serif" font-size="10.00">funcParsNamesVec</text>
<text text-anchor="middle" x="749.5" y="-191.38" font-family="Helvetica,sans-Serif" font-size="10.00">mc_files</text>
<text text-anchor="middle" x="749.5" y="-180.38" font-family="Helvetica,sans-Serif" font-size="10.00">spline_files</text>
</g>
<!-- Node17 -->
<g id="node17" class="node">
<title>Node17</title>
<g id="a_node17"><a xlink:href="classParameterHandlerGeneric.html" target="_top" xlink:title="Class responsible for handling of systematic error parameters with different types defined in the con...">
<polygon fill="white" stroke="#666666" points="1011.5,-552.88 868.5,-552.88 868.5,-533.88 1011.5,-533.88 1011.5,-552.88"/>
<text text-anchor="middle" x="940" y="-540.88" font-family="Helvetica,sans-Serif" font-size="10.00">ParameterHandlerGeneric</text>
</a>
</g>
</g>
<!-- Node8&#45;&gt;Node17 -->
<g id="edge31" class="edge">
<title>Node8&#45;&gt;Node17</title>
<path fill="none" stroke="#9a32cd" stroke-dasharray="5,2" d="M312.12,-185.69C365.14,-185.52 428.94,-189.01 450,-205.38 469.64,-220.64 450.2,-240.99 468,-258.38 585.96,-373.59 716.88,-242.34 822,-369.38 866.21,-422.81 792.81,-473.56 840,-524.38 847.62,-532.58 857.62,-537.88 868.33,-541.2"/>
<polygon fill="#9a32cd" stroke="#9a32cd" points="311.99,-182.19 302.02,-185.76 312.05,-189.19 311.99,-182.19"/>
<text text-anchor="middle" x="563.5" y="-324.38" font-family="Helvetica,sans-Serif" font-size="10.00"> _ParameterGroup</text>
<text text-anchor="middle" x="563.5" y="-313.38" font-family="Helvetica,sans-Serif" font-size="10.00">_fSplineNames</text>
</g>
<!-- Node8&#45;&gt;Node18 -->
<g id="edge21" class="edge">
<title>Node8&#45;&gt;Node18</title>
<path fill="none" stroke="#9a32cd" stroke-dasharray="5,2" d="M312.35,-198.49C372.31,-206.51 445.14,-217.19 450,-222.38 480.65,-255.12 438.07,-389.98 468,-423.38 476.04,-432.35 487.04,-437.78 498.69,-440.94"/>
<polygon fill="#9a32cd" stroke="#9a32cd" points="312.46,-194.98 302.08,-197.13 311.54,-201.92 312.46,-194.98"/>
<text text-anchor="middle" x="395.5" y="-236.38" font-family="Helvetica,sans-Serif" font-size="10.00"> _fFancyNames</text>
<text text-anchor="middle" x="395.5" y="-225.38" font-family="Helvetica,sans-Serif" font-size="10.00">_fNames</text>
</g>
<!-- Node9 -->
<g id="node9" class="node">
<title>Node9</title>
<g id="a_node9"><a xlink:title=" ">
<polygon fill="white" stroke="#666666" points="294,-686.88 170,-686.88 170,-667.88 294,-667.88 294,-686.88"/>
<text text-anchor="middle" x="232" y="-674.88" font-family="Helvetica,sans-Serif" font-size="10.00">std::vector&lt; double &gt;</text>
</a>
</g>
</g>
<!-- Node9&#45;&gt;Node1 -->
<g id="edge8" class="edge">
<title>Node9&#45;&gt;Node1</title>
<path fill="none" stroke="#9a32cd" stroke-dasharray="5,2" d="M268.77,-690.49C285.46,-696.91 305.47,-705.04 323,-713.38 331.27,-717.31 332.14,-721.08 341,-723.38 387.9,-735.53 401.64,-726.24 450,-723.38 551.42,-717.37 575.84,-705.87 677,-696.38 838.01,-681.27 881.09,-701.36 1040,-671.38 1118.73,-656.52 1154.62,-673.3 1212,-617.38 1269.35,-561.48 1279.39,-456.29 1281.14,-424.03"/>
<polygon fill="#9a32cd" stroke="#9a32cd" points="269.96,-687.2 259.37,-686.92 267.47,-693.74 269.96,-687.2"/>
<text text-anchor="middle" x="749.5" y="-732.38" font-family="Helvetica,sans-Serif" font-size="10.00"> SampleXBins</text>
<text text-anchor="middle" x="749.5" y="-721.38" font-family="Helvetica,sans-Serif" font-size="10.00">SampleYBins</text>
<text text-anchor="middle" x="749.5" y="-710.38" font-family="Helvetica,sans-Serif" font-size="10.00">XBinEdges</text>
<text text-anchor="middle" x="749.5" y="-699.38" font-family="Helvetica,sans-Serif" font-size="10.00">YBinEdges</text>
</g>
<!-- Node9&#45;&gt;Node18 -->
<g id="edge22" class="edge">
<title>Node9&#45;&gt;Node18</title>
<path fill="none" stroke="#9a32cd" stroke-dasharray="5,2" d="M255.5,-661.96C274.21,-648.77 301.2,-628.88 323,-609.38 331.67,-601.62 330.85,-596.06 341,-590.38 384.21,-566.2 415.69,-603.08 450,-567.38 483.11,-532.92 434.72,-495.67 468,-461.38 476.27,-452.85 487.23,-447.59 498.74,-444.44"/>
<polygon fill="#9a32cd" stroke="#9a32cd" points="253.48,-659.1 247.28,-667.69 257.49,-664.84 253.48,-659.1"/>
<text text-anchor="middle" x="395.5" y="-670.38" font-family="Helvetica,sans-Serif" font-size="10.00"> FlipParameterPoint</text>
<text text-anchor="middle" x="395.5" y="-659.38" font-family="Helvetica,sans-Serif" font-size="10.00">_fCurrVal</text>
<text text-anchor="middle" x="395.5" y="-648.38" font-family="Helvetica,sans-Serif" font-size="10.00">_fError</text>
<text text-anchor="middle" x="395.5" y="-637.38" font-family="Helvetica,sans-Serif" font-size="10.00">_fIndivStepScale</text>
<text text-anchor="middle" x="395.5" y="-626.38" font-family="Helvetica,sans-Serif" font-size="10.00">_fLowBound</text>
<text text-anchor="middle" x="395.5" y="-615.38" font-family="Helvetica,sans-Serif" font-size="10.00">_fPreFitValue</text>
<text text-anchor="middle" x="395.5" y="-604.38" font-family="Helvetica,sans-Serif" font-size="10.00">_fPropVal</text>
<text text-anchor="middle" x="395.5" y="-593.38" font-family="Helvetica,sans-Serif" font-size="10.00">_fUpBound</text>
</g>
<!-- Node10 -->
<g id="node10" class="node">
<title>Node10</title>
<g id="a_node10"><a xlink:title=" ">
<polygon fill="white" stroke="#666666" points="659,-618.88 468,-618.88 468,-599.88 659,-599.88 659,-618.88"/>
<text text-anchor="middle" x="563.5" y="-606.88" font-family="Helvetica,sans-Serif" font-size="10.00">std::vector&lt; FunctionalParameter &gt;</text>
</a>
</g>
</g>
<!-- Node10&#45;&gt;Node1 -->
<g id="edge9" class="edge">
<title>Node10&#45;&gt;Node1</title>
<path fill="none" stroke="#9a32cd" stroke-dasharray="5,2" d="M609.17,-621.41C722.18,-649.02 1023.81,-704.79 1212,-571.38 1263.07,-535.17 1277.12,-452.72 1280.52,-424.26"/>
<polygon fill="#9a32cd" stroke="#9a32cd" points="609.7,-617.93 599.15,-618.91 608.01,-624.72 609.7,-617.93"/>
<text text-anchor="middle" x="940" y="-659.38" font-family="Helvetica,sans-Serif" font-size="10.00"> funcParsVec</text>
</g>
<!-- Node10&#45;&gt;Node17 -->
<g id="edge35" class="edge">
<title>Node10&#45;&gt;Node17</title>
<path fill="none" stroke="#9a32cd" stroke-dasharray="5,2" d="M634.22,-598.21C648.38,-595.94 663.17,-593.58 677,-591.38 741.44,-581.11 757.85,-580.31 822,-568.38 847.02,-563.72 874.88,-557.8 897.14,-552.89"/>
<polygon fill="#9a32cd" stroke="#9a32cd" points="633.37,-594.8 624.05,-599.83 634.48,-601.71 633.37,-594.8"/>
<text text-anchor="middle" x="749.5" y="-594.38" font-family="Helvetica,sans-Serif" font-size="10.00"> FuncParams</text>
</g>
<!-- Node11 -->
<g id="node11" class="node">
<title>Node11</title>
<g id="a_node11"><a xlink:title=" ">
<polygon fill="white" stroke="#666666" points="997,-515.38 883,-515.38 883,-485.38 997,-485.38 997,-515.38"/>
<text text-anchor="start" x="891" y="-503.38" font-family="Helvetica,sans-Serif" font-size="10.00">std::unordered_map</text>
<text text-anchor="middle" x="940" y="-492.38" font-family="Helvetica,sans-Serif" font-size="10.00">&lt; std::string, int &gt;</text>
</a>
</g>
</g>
<!-- Node11&#45;&gt;Node1 -->
<g id="edge10" class="edge">
<title>Node11&#45;&gt;Node1</title>
<path fill="none" stroke="#9a32cd" stroke-dasharray="5,2" d="M1007.28,-494.62C1075.19,-488.09 1175.79,-476.5 1212,-462.38 1235.22,-453.32 1258.25,-435.12 1271.1,-423.92"/>
<polygon fill="#9a32cd" stroke="#9a32cd" points="1006.72,-491.16 997.09,-495.58 1007.38,-498.12 1006.72,-491.16"/>
<text text-anchor="middle" x="1135" y="-513.38" font-family="Helvetica,sans-Serif" font-size="10.00"> KinematicParameters</text>
<text text-anchor="middle" x="1135" y="-502.38" font-family="Helvetica,sans-Serif" font-size="10.00">KinematicVectors</text>
<text text-anchor="middle" x="1135" y="-491.38" font-family="Helvetica,sans-Serif" font-size="10.00">funcParsNamesMap</text>
</g>
<!-- Node12 -->
<g id="node12" class="node">
<title>Node12</title>
<g id="a_node12"><a xlink:title=" ">
<polygon fill="white" stroke="#666666" points="1040,-466.88 840,-466.88 840,-447.88 1040,-447.88 1040,-466.88"/>
<text text-anchor="middle" x="940" y="-454.88" font-family="Helvetica,sans-Serif" font-size="10.00">std::vector&lt; FunctionalParameter * &gt;</text>
</a>
</g>
</g>
<!-- Node12&#45;&gt;Node1 -->
<g id="edge11" class="edge">
<title>Node12&#45;&gt;Node1</title>
<path fill="none" stroke="#9a32cd" stroke-dasharray="5,2" d="M1050.23,-448.84C1099.77,-444.26 1159.01,-437.81 1212,-429.38 1221.39,-427.88 1231.41,-425.93 1240.85,-423.93"/>
<polygon fill="#9a32cd" stroke="#9a32cd" points="1049.77,-445.37 1040.13,-449.76 1050.41,-452.34 1049.77,-445.37"/>
<text text-anchor="middle" x="1135" y="-450.38" font-family="Helvetica,sans-Serif" font-size="10.00"> funcParsMap</text>
</g>
<!-- Node13 -->
<g id="node13" class="node">
<title>Node13</title>
<g id="a_node13"><a xlink:title=" ">
<polygon fill="white" stroke="#666666" points="1010,-429.38 870,-429.38 870,-399.38 1010,-399.38 1010,-429.38"/>
<text text-anchor="start" x="878" y="-417.38" font-family="Helvetica,sans-Serif" font-size="10.00">std::unordered_map</text>
<text text-anchor="middle" x="940" y="-406.38" font-family="Helvetica,sans-Serif" font-size="10.00">&lt; int, FuncParFuncType &gt;</text>
</a>
</g>
</g>
<!-- Node13&#45;&gt;Node1 -->
<g id="edge12" class="edge">
<title>Node13&#45;&gt;Node1</title>
<path fill="none" stroke="#9a32cd" stroke-dasharray="5,2" d="M1020.45,-414.38C1084.99,-414.38 1174.14,-414.38 1229.77,-414.38"/>
<polygon fill="#9a32cd" stroke="#9a32cd" points="1020.32,-410.88 1010.32,-414.38 1020.32,-417.88 1020.32,-410.88"/>
<text text-anchor="middle" x="1135" y="-417.38" font-family="Helvetica,sans-Serif" font-size="10.00"> funcParsFuncMap</text>
</g>
<!-- Node14 -->
<g id="node14" class="node">
<title>Node14</title>
<g id="a_node14"><a xlink:title=" ">
<polygon fill="white" stroke="#666666" points="1005.5,-381.38 874.5,-381.38 874.5,-351.38 1005.5,-351.38 1005.5,-381.38"/>
<text text-anchor="start" x="882.5" y="-369.38" font-family="Helvetica,sans-Serif" font-size="10.00">std::vector&lt; std::vector</text>
<text text-anchor="middle" x="940" y="-358.38" font-family="Helvetica,sans-Serif" font-size="10.00">&lt; int &gt; &gt;</text>
</a>
</g>
</g>
<!-- Node14&#45;&gt;Node1 -->
<g id="edge13" class="edge">
<title>Node14&#45;&gt;Node1</title>
<path fill="none" stroke="#9a32cd" stroke-dasharray="5,2" d="M1015.86,-373.63C1070.42,-379.37 1146.03,-388.26 1212,-399.38 1221.25,-400.94 1231.13,-402.89 1240.46,-404.87"/>
<polygon fill="#9a32cd" stroke="#9a32cd" points="1015.89,-370.12 1005.58,-372.56 1015.16,-377.08 1015.89,-370.12"/>
<text text-anchor="middle" x="1135" y="-402.38" font-family="Helvetica,sans-Serif" font-size="10.00"> funcParsGrid</text>
</g>
<!-- Node15 -->
<g id="node15" class="node">
<title>Node15</title>
<g id="a_node15"><a xlink:title=" ">
<polygon fill="white" stroke="#666666" points="1008,-333.38 872,-333.38 872,-303.38 1008,-303.38 1008,-333.38"/>
<text text-anchor="start" x="880" y="-321.38" font-family="Helvetica,sans-Serif" font-size="10.00">std::vector&lt; FarDetector</text>
<text text-anchor="middle" x="940" y="-310.38" font-family="Helvetica,sans-Serif" font-size="10.00">CoreInfo &gt;</text>
</a>
</g>
</g>
<!-- Node15&#45;&gt;Node1 -->
<g id="edge14" class="edge">
<title>Node15&#45;&gt;Node1</title>
<path fill="none" stroke="#9a32cd" stroke-dasharray="5,2" d="M1018.23,-321.11C1073.99,-325.39 1150.05,-336.06 1212,-362.38 1235.86,-372.51 1259.03,-392.5 1271.67,-404.53"/>
<polygon fill="#9a32cd" stroke="#9a32cd" points="1018.29,-317.61 1008.06,-320.38 1017.79,-324.59 1018.29,-317.61"/>
<text text-anchor="middle" x="1135" y="-365.38" font-family="Helvetica,sans-Serif" font-size="10.00"> MCSamples</text>
</g>
<!-- Node16 -->
<g id="node16" class="node">
<title>Node16</title>
<g id="a_node16"><a xlink:title=" ">
<polygon fill="white" stroke="#666666" points="1023.5,-284.88 856.5,-284.88 856.5,-265.88 1023.5,-265.88 1023.5,-284.88"/>
<text text-anchor="middle" x="940" y="-272.88" font-family="Helvetica,sans-Serif" font-size="10.00">std::vector&lt; OscChannelInfo &gt;</text>
</a>
</g>
</g>
<!-- Node16&#45;&gt;Node1 -->
<g id="edge15" class="edge">
<title>Node16&#45;&gt;Node1</title>
<path fill="none" stroke="#9a32cd" stroke-dasharray="5,2" d="M1033.85,-268.84C1089.36,-269.22 1159.15,-277.6 1212,-310.38 1248.73,-333.15 1270.35,-383.36 1278.16,-404.59"/>
<polygon fill="#9a32cd" stroke="#9a32cd" points="1033.65,-265.34 1023.65,-268.85 1033.66,-272.34 1033.65,-265.34"/>
<text text-anchor="middle" x="1135" y="-313.38" font-family="Helvetica,sans-Serif" font-size="10.00"> OscChannels</text>
</g>
<!-- Node17&#45;&gt;Node1 -->
<g id="edge16" class="edge">
<title>Node17&#45;&gt;Node1</title>
<path fill="none" stroke="#9a32cd" stroke-dasharray="5,2" d="M1005.54,-554.07C1063.7,-560.3 1149.43,-560.75 1212,-523.38 1250.73,-500.24 1271.49,-446.24 1278.62,-424.11"/>
<polygon fill="#9a32cd" stroke="#9a32cd" points="1005.71,-550.56 995.37,-552.89 1004.9,-557.52 1005.71,-550.56"/>
<text text-anchor="middle" x="1135" y="-559.38" font-family="Helvetica,sans-Serif" font-size="10.00"> ParHandler</text>
</g>
<!-- Node18&#45;&gt;Node17 -->
<g id="edge17" class="edge">
<title>Node18&#45;&gt;Node17</title>
<path fill="none" stroke="#63b8ff" d="M621.01,-431.39C678.11,-423.71 765.7,-421.77 822,-467.38 842.64,-484.1 820.15,-506.71 840,-524.38 848.04,-531.53 857.93,-536.35 868.32,-539.53"/>
<polygon fill="#63b8ff" stroke="#63b8ff" points="620.47,-427.93 611.07,-432.83 621.47,-434.86 620.47,-427.93"/>
</g>
<!-- Node19 -->
<g id="node19" class="node">
<title>Node19</title>
<g id="a_node19"><a xlink:title=" ">
<polygon fill="white" stroke="#666666" points="297.5,-294.38 166.5,-294.38 166.5,-264.38 297.5,-264.38 297.5,-294.38"/>
<text text-anchor="start" x="174.5" y="-282.38" font-family="Helvetica,sans-Serif" font-size="10.00">std::vector&lt; std::vector</text>
<text text-anchor="middle" x="232" y="-271.38" font-family="Helvetica,sans-Serif" font-size="10.00">&lt; double &gt; &gt;</text>
</a>
</g>
</g>
<!-- Node19&#45;&gt;Node18 -->
<g id="edge19" class="edge">
<title>Node19&#45;&gt;Node18</title>
<path fill="none" stroke="#9a32cd" stroke-dasharray="5,2" d="M307.62,-280.83C362.26,-283.53 430.18,-290.87 450,-310.38 486.25,-346.05 432.77,-386.7 468,-423.38 476.23,-431.95 487.16,-437.22 498.67,-440.38"/>
<polygon fill="#9a32cd" stroke="#9a32cd" points="307.74,-277.33 297.59,-280.37 307.42,-284.32 307.74,-277.33"/>
<text text-anchor="middle" x="395.5" y="-313.38" font-family="Helvetica,sans-Serif" font-size="10.00"> InvertCovMatrix</text>
</g>
<!-- Node20 -->
<g id="node20" class="node">
<title>Node20</title>
<g id="a_node20"><a xlink:title=" ">
<polygon fill="white" stroke="#666666" points="299,-466.38 165,-466.38 165,-436.38 299,-436.38 299,-466.38"/>
<text text-anchor="start" x="173" y="-454.38" font-family="Helvetica,sans-Serif" font-size="10.00">std::vector&lt; std::unique</text>
<text text-anchor="middle" x="232" y="-443.38" font-family="Helvetica,sans-Serif" font-size="10.00">_ptr&lt; TRandom3 &gt; &gt;</text>
</a>
</g>
</g>
<!-- Node20&#45;&gt;Node18 -->
<g id="edge20" class="edge">
<title>Node20&#45;&gt;Node18</title>
<path fill="none" stroke="#9a32cd" stroke-dasharray="5,2" d="M309.33,-445.06C319.96,-444.37 330.75,-443.78 341,-443.38 394.22,-441.29 454.69,-441.17 498.98,-441.5"/>
<polygon fill="#9a32cd" stroke="#9a32cd" points="308.95,-441.58 299.21,-445.74 309.43,-448.56 308.95,-441.58"/>
<text text-anchor="middle" x="395.5" y="-446.38" font-family="Helvetica,sans-Serif" font-size="10.00"> random_number</text>
</g>
<!-- Node21 -->
<g id="node21" class="node">
<title>Node21</title>
<g id="a_node21"><a xlink:title=" ">
<polygon fill="white" stroke="#666666" points="288,-417.88 176,-417.88 176,-398.88 288,-398.88 288,-417.88"/>
<text text-anchor="middle" x="232" y="-405.88" font-family="Helvetica,sans-Serif" font-size="10.00">std::vector&lt; bool &gt;</text>
</a>
</g>
</g>
<!-- Node21&#45;&gt;Node18 -->
<g id="edge23" class="edge">
<title>Node21&#45;&gt;Node18</title>
<path fill="none" stroke="#9a32cd" stroke-dasharray="5,2" d="M298.48,-412.28C341.6,-415.15 399.25,-419.56 450,-425.38 467.86,-427.42 487.24,-430.16 504.8,-432.84"/>
<polygon fill="#9a32cd" stroke="#9a32cd" points="298.61,-408.78 288.4,-411.62 298.15,-415.76 298.61,-408.78"/>
<text text-anchor="middle" x="395.5" y="-428.38" font-family="Helvetica,sans-Serif" font-size="10.00"> _fFlatPrior</text>
</g>
<!-- Node22 -->
<g id="node22" class="node">
<title>Node22</title>
<g id="a_node22"><a xlink:title=" ">
<polygon fill="white" stroke="#666666" points="297.5,-380.38 166.5,-380.38 166.5,-350.38 297.5,-350.38 297.5,-380.38"/>
<text text-anchor="start" x="174.5" y="-368.38" font-family="Helvetica,sans-Serif" font-size="10.00">std::vector&lt; std::vector</text>
<text text-anchor="middle" x="232" y="-357.38" font-family="Helvetica,sans-Serif" font-size="10.00">&lt; std::string &gt; &gt;</text>
</a>
</g>
</g>
<!-- Node22&#45;&gt;Node18 -->
<g id="edge24" class="edge">
<title>Node22&#45;&gt;Node18</title>
<path fill="none" stroke="#9a32cd" stroke-dasharray="5,2" d="M308.03,-364.14C352.09,-366.54 407.32,-375.18 450,-400.38 461.18,-406.98 456.95,-416.56 468,-423.38 477.26,-429.09 487.91,-433.12 498.64,-435.96"/>
<polygon fill="#9a32cd" stroke="#9a32cd" points="308.1,-360.64 297.95,-363.69 307.78,-367.64 308.1,-360.64"/>
<text text-anchor="middle" x="395.5" y="-403.38" font-family="Helvetica,sans-Serif" font-size="10.00"> _fSampleNames</text>
</g>
<!-- Node23 -->
<g id="node23" class="node">
<title>Node23</title>
<g id="a_node23"><a xlink:title=" ">
<polygon fill="white" stroke="#666666" points="317,-331.88 147,-331.88 147,-312.88 317,-312.88 317,-331.88"/>
<text text-anchor="middle" x="232" y="-319.88" font-family="Helvetica,sans-Serif" font-size="10.00">std::unique_ptr&lt; PCAHandler &gt;</text>
</a>
</g>
</g>
<!-- Node23&#45;&gt;Node18 -->
<g id="edge25" class="edge">
<title>Node23&#45;&gt;Node18</title>
<path fill="none" stroke="#9a32cd" stroke-dasharray="5,2" d="M327.43,-324.69C377.27,-327.87 431.81,-335.12 450,-351.38 474.59,-373.36 444.14,-400.6 468,-423.38 476.47,-431.46 487.38,-436.55 498.75,-439.67"/>
<polygon fill="#9a32cd" stroke="#9a32cd" points="327.39,-321.18 317.21,-324.09 326.98,-328.17 327.39,-321.18"/>
<text text-anchor="middle" x="395.5" y="-354.38" font-family="Helvetica,sans-Serif" font-size="10.00"> PCAObj</text>
</g>
<!-- Node24 -->
<g id="node24" class="node">
<title>Node24</title>
<g id="a_node24"><a xlink:title=" ">
<polygon fill="white" stroke="#666666" points="323,-246.38 141,-246.38 141,-216.38 323,-216.38 323,-246.38"/>
<text text-anchor="start" x="149" y="-234.38" font-family="Helvetica,sans-Serif" font-size="10.00">std::unique_ptr&lt; adaptive</text>
<text text-anchor="middle" x="232" y="-223.38" font-family="Helvetica,sans-Serif" font-size="10.00">_mcmc::AdaptiveMCMCHandler &gt;</text>
</a>
</g>
</g>
<!-- Node24&#45;&gt;Node18 -->
<g id="edge26" class="edge">
<title>Node24&#45;&gt;Node18</title>
<path fill="none" stroke="#9a32cd" stroke-dasharray="5,2" d="M333.02,-247.1C388.9,-256.1 447.81,-266.06 450,-268.38 497.72,-318.7 421.03,-372.35 468,-423.38 476.16,-432.24 487.2,-437.62 498.87,-440.78"/>
<polygon fill="#9a32cd" stroke="#9a32cd" points="333.43,-243.62 323,-245.49 332.32,-250.53 333.43,-243.62"/>
<text text-anchor="middle" x="395.5" y="-271.38" font-family="Helvetica,sans-Serif" font-size="10.00"> AdaptiveHandler</text>
</g>
<!-- Node25 -->
<g id="node25" class="node">
<title>Node25</title>
<g id="a_node25"><a xlink:title=" ">
<polygon fill="white" stroke="#666666" points="307.5,-600.38 156.5,-600.38 156.5,-570.38 307.5,-570.38 307.5,-600.38"/>
<text text-anchor="start" x="164.5" y="-588.38" font-family="Helvetica,sans-Serif" font-size="10.00">std::unique_ptr&lt; Parameter</text>
<text text-anchor="middle" x="232" y="-577.38" font-family="Helvetica,sans-Serif" font-size="10.00">Tunes &gt;</text>
</a>
</g>
</g>
<!-- Node25&#45;&gt;Node18 -->
<g id="edge27" class="edge">
<title>Node25&#45;&gt;Node18</title>
<path fill="none" stroke="#9a32cd" stroke-dasharray="5,2" d="M299.35,-567.77C307.32,-565.63 315.35,-563.46 323,-561.38 331.01,-559.2 332.93,-558.35 341,-556.38 389.1,-544.63 414.35,-567.73 450,-533.38 473.75,-510.49 444.14,-484.15 468,-461.38 476.47,-453.29 487.38,-448.2 498.75,-445.08"/>
<polygon fill="#9a32cd" stroke="#9a32cd" points="298.43,-564.39 289.68,-570.36 300.24,-571.15 298.43,-564.39"/>
<text text-anchor="middle" x="395.5" y="-559.38" font-family="Helvetica,sans-Serif" font-size="10.00"> Tunes</text>
</g>
<!-- Node26 -->
<g id="node26" class="node">
<title>Node26</title>
<g id="a_node26"><a xlink:title=" ">
<polygon fill="white" stroke="#666666" points="284,-551.88 180,-551.88 180,-532.88 284,-532.88 284,-551.88"/>
<text text-anchor="middle" x="232" y="-539.88" font-family="Helvetica,sans-Serif" font-size="10.00">std::vector&lt; int &gt;</text>
</a>
</g>
</g>
<!-- Node26&#45;&gt;Node18 -->
<g id="edge28" class="edge">
<title>Node26&#45;&gt;Node18</title>
<path fill="none" stroke="#9a32cd" stroke-dasharray="5,2" d="M293.88,-532.82C303.81,-530.33 313.84,-527.23 323,-523.38 331.86,-519.65 332.14,-515.1 341,-511.38 386.64,-492.19 409.01,-516.14 450,-488.38 461.94,-480.29 456.02,-469.41 468,-461.38 477.17,-455.23 487.9,-450.98 498.76,-448.08"/>
<polygon fill="#9a32cd" stroke="#9a32cd" points="292.96,-529.44 284.01,-535.11 294.55,-536.26 292.96,-529.44"/>
<text text-anchor="middle" x="395.5" y="-525.38" font-family="Helvetica,sans-Serif" font-size="10.00"> CircularBoundsIndex</text>
<text text-anchor="middle" x="395.5" y="-514.38" font-family="Helvetica,sans-Serif" font-size="10.00">FlipParameterIndex</text>
</g>
<!-- Node27 -->
<g id="node27" class="node">
<title>Node27</title>
<g id="a_node27"><a xlink:title=" ">
<polygon fill="white" stroke="#666666" points="293,-514.38 171,-514.38 171,-484.38 293,-484.38 293,-514.38"/>
<text text-anchor="start" x="179" y="-502.38" font-family="Helvetica,sans-Serif" font-size="10.00">std::vector&lt; std::pair</text>
<text text-anchor="middle" x="232" y="-491.38" font-family="Helvetica,sans-Serif" font-size="10.00">&lt; double, double &gt; &gt;</text>
</a>
</g>
</g>
<!-- Node27&#45;&gt;Node18 -->
<g id="edge29" class="edge">
<title>Node27&#45;&gt;Node18</title>
<path fill="none" stroke="#9a32cd" stroke-dasharray="5,2" d="M303.15,-484.62C315.73,-482.1 328.74,-479.59 341,-477.38 394.06,-467.79 454.54,-458.33 498.88,-451.67"/>
<polygon fill="#9a32cd" stroke="#9a32cd" points="302.29,-481.22 293.17,-486.63 303.67,-488.08 302.29,-481.22"/>
<text text-anchor="middle" x="395.5" y="-480.38" font-family="Helvetica,sans-Serif" font-size="10.00"> CircularBoundsValues</text>
</g>
<!-- Node28 -->
<g id="node28" class="node">
<title>Node28</title>
<g id="a_node28"><a xlink:title=" ">
<polygon fill="white" stroke="#666666" points="630.5,-574.88 496.5,-574.88 496.5,-555.88 630.5,-555.88 630.5,-574.88"/>
<text text-anchor="middle" x="563.5" y="-562.88" font-family="Helvetica,sans-Serif" font-size="10.00">std::vector&lt; SystType &gt;</text>
</a>
</g>
</g>
<!-- Node28&#45;&gt;Node17 -->
<g id="edge30" class="edge">
<title>Node28&#45;&gt;Node17</title>
<path fill="none" stroke="#9a32cd" stroke-dasharray="5,2" d="M640.64,-559.78C652.8,-558.94 665.24,-558.11 677,-557.38 741.78,-553.34 815.63,-549.46 868.37,-546.81"/>
<polygon fill="#9a32cd" stroke="#9a32cd" points="640.25,-556.3 630.52,-560.49 640.74,-563.28 640.25,-556.3"/>
<text text-anchor="middle" x="749.5" y="-560.38" font-family="Helvetica,sans-Serif" font-size="10.00"> _fParamType</text>
</g>
<!-- Node29 -->
<g id="node29" class="node">
<title>Node29</title>
<g id="a_node29"><a xlink:title=" ">
<polygon fill="white" stroke="#666666" points="624.5,-537.38 502.5,-537.38 502.5,-507.38 624.5,-507.38 624.5,-537.38"/>
<text text-anchor="start" x="510.5" y="-525.38" font-family="Helvetica,sans-Serif" font-size="10.00">std::vector&lt; std::map</text>
<text text-anchor="middle" x="563.5" y="-514.38" font-family="Helvetica,sans-Serif" font-size="10.00">&lt; int, int &gt; &gt;</text>
</a>
</g>
</g>
<!-- Node29&#45;&gt;Node17 -->
<g id="edge32" class="edge">
<title>Node29&#45;&gt;Node17</title>
<path fill="none" stroke="#9a32cd" stroke-dasharray="5,2" d="M634.81,-519.52C686.65,-518.18 758.85,-517.89 822,-523.38 845.81,-525.44 872.07,-529.74 893.66,-533.83"/>
<polygon fill="#9a32cd" stroke="#9a32cd" points="634.62,-516.03 624.72,-519.8 634.81,-523.02 634.62,-516.03"/>
<text text-anchor="middle" x="749.5" y="-526.38" font-family="Helvetica,sans-Serif" font-size="10.00"> _fSystToGlobalSystIndexMap</text>
</g>
<!-- Node30 -->
<g id="node30" class="node">
<title>Node30</title>
<g id="a_node30"><a xlink:title=" ">
<polygon fill="white" stroke="#666666" points="649,-488.88 478,-488.88 478,-469.88 649,-469.88 649,-488.88"/>
<text text-anchor="middle" x="563.5" y="-476.88" font-family="Helvetica,sans-Serif" font-size="10.00">std::vector&lt; SplineParameter &gt;</text>
</a>
</g>
</g>
<!-- Node30&#45;&gt;Node17 -->
<g id="edge33" class="edge">
<title>Node30&#45;&gt;Node17</title>
<path fill="none" stroke="#9a32cd" stroke-dasharray="5,2" d="M659.29,-471.53C710.14,-471.31 772.37,-477.7 822,-503.38 832.92,-509.03 829.37,-518.21 840,-524.38 848.7,-529.43 858.49,-533.17 868.44,-535.93"/>
<polygon fill="#9a32cd" stroke="#9a32cd" points="659.23,-468.03 649.28,-471.66 659.32,-475.03 659.23,-468.03"/>
<text text-anchor="middle" x="749.5" y="-506.38" font-family="Helvetica,sans-Serif" font-size="10.00"> SplineParams</text>
</g>
<!-- Node31 -->
<g id="node31" class="node">
<title>Node31</title>
<g id="a_node31"><a xlink:title=" ">
<polygon fill="white" stroke="#666666" points="647.5,-248.88 479.5,-248.88 479.5,-229.88 647.5,-229.88 647.5,-248.88"/>
<text text-anchor="middle" x="563.5" y="-236.88" font-family="Helvetica,sans-Serif" font-size="10.00">std::vector&lt; NormParameter &gt;</text>
</a>
</g>
</g>
<!-- Node31&#45;&gt;Node1 -->
<g id="edge37" class="edge">
<title>Node31&#45;&gt;Node1</title>
<path fill="none" stroke="#9a32cd" stroke-dasharray="5,2" d="M657.89,-237.53C826.44,-235.01 1168.16,-233.93 1212,-265.38 1260.48,-300.15 1276.12,-377.45 1280.23,-404.67"/>
<polygon fill="#9a32cd" stroke="#9a32cd" points="657.72,-234.03 647.78,-237.69 657.83,-241.03 657.72,-234.03"/>
<text text-anchor="middle" x="940" y="-243.38" font-family="Helvetica,sans-Serif" font-size="10.00"> norm_parameters</text>
</g>
<!-- Node31&#45;&gt;Node17 -->
<g id="edge34" class="edge">
<title>Node31&#45;&gt;Node17</title>
<path fill="none" stroke="#9a32cd" stroke-dasharray="5,2" d="M657.46,-247.78C728.83,-254.68 816.18,-264.26 822,-270.38 861.02,-311.36 802.43,-482.06 840,-524.38 847.49,-532.82 857.5,-538.21 868.27,-541.56"/>
<polygon fill="#9a32cd" stroke="#9a32cd" points="657.8,-244.3 647.51,-246.83 657.13,-251.27 657.8,-244.3"/>
<text text-anchor="middle" x="749.5" y="-273.38" font-family="Helvetica,sans-Serif" font-size="10.00"> NormParams</text>
</g>
<!-- Node32 -->
<g id="node32" class="node">
<title>Node32</title>
<g id="a_node32"><a xlink:title=" ">
<polygon fill="white" stroke="#666666" points="629,-414.38 498,-414.38 498,-384.38 629,-384.38 629,-414.38"/>
<text text-anchor="start" x="506" y="-402.38" font-family="Helvetica,sans-Serif" font-size="10.00">std::vector&lt; Oscillation</text>
<text text-anchor="middle" x="563.5" y="-391.38" font-family="Helvetica,sans-Serif" font-size="10.00">Parameter &gt;</text>
</a>
</g>
</g>
<!-- Node32&#45;&gt;Node17 -->
<g id="edge36" class="edge">
<title>Node32&#45;&gt;Node17</title>
<path fill="none" stroke="#9a32cd" stroke-dasharray="5,2" d="M627.45,-382.21C685.33,-370.59 769.84,-364.73 822,-411.38 859.91,-445.28 804.61,-487.85 840,-524.38 847.73,-532.36 857.72,-537.55 868.37,-540.84"/>
<polygon fill="#9a32cd" stroke="#9a32cd" points="626.39,-378.86 617.33,-384.36 627.84,-385.71 626.39,-378.86"/>
<text text-anchor="middle" x="749.5" y="-414.38" font-family="Helvetica,sans-Serif" font-size="10.00"> OscParams</text>
</g>
<!-- Node33 -->
<g id="node33" class="node">
<title>Node33</title>
<g id="a_node33"><a xlink:title=" ">
<polygon fill="white" stroke="#666666" points="1018.5,-161.88 861.5,-161.88 861.5,-142.88 1018.5,-142.88 1018.5,-161.88"/>
<text text-anchor="middle" x="940" y="-149.88" font-family="Helvetica,sans-Serif" font-size="10.00">std::vector&lt; KinematicCut &gt;</text>
</a>
</g>
</g>
<!-- Node33&#45;&gt;Node1 -->
<g id="edge38" class="edge">
<title>Node33&#45;&gt;Node1</title>
<path fill="none" stroke="#9a32cd" stroke-dasharray="5,2" d="M1028.79,-141.9C1096.91,-135.77 1184.26,-132.91 1212,-154.38 1253.39,-186.4 1275.56,-361.44 1280.45,-404.71"/>
<polygon fill="#9a32cd" stroke="#9a32cd" points="1028.09,-138.45 1018.46,-142.87 1028.75,-145.42 1028.09,-138.45"/>
<text text-anchor="middle" x="1135" y="-168.38" font-family="Helvetica,sans-Serif" font-size="10.00"> Selection</text>
<text text-anchor="middle" x="1135" y="-157.38" font-family="Helvetica,sans-Serif" font-size="10.00">StoredSelection</text>
</g>
<!-- Node34 -->
<g id="node34" class="node">
<title>Node34</title>
<g id="a_node34"><a xlink:title=" ">
<polygon fill="white" stroke="#666666" points="997,-124.38 883,-124.38 883,-94.38 997,-94.38 997,-124.38"/>
<text text-anchor="start" x="891" y="-112.38" font-family="Helvetica,sans-Serif" font-size="10.00">std::unordered_map</text>
<text text-anchor="middle" x="940" y="-101.38" font-family="Helvetica,sans-Serif" font-size="10.00">&lt; int, std::string &gt;</text>
</a>
</g>
</g>
<!-- Node34&#45;&gt;Node1 -->
<g id="edge39" class="edge">
<title>Node34&#45;&gt;Node1</title>
<path fill="none" stroke="#9a32cd" stroke-dasharray="5,2" d="M1007.14,-100.83C1077.14,-93.32 1181.62,-86.99 1212,-111.38 1259.67,-149.64 1277.39,-357.39 1280.84,-404.76"/>
<polygon fill="#9a32cd" stroke="#9a32cd" points="1006.63,-97.36 997.08,-101.94 1007.4,-104.32 1006.63,-97.36"/>
<text text-anchor="middle" x="1135" y="-125.38" font-family="Helvetica,sans-Serif" font-size="10.00"> ReversedKinematicParameters</text>
<text text-anchor="middle" x="1135" y="-114.38" font-family="Helvetica,sans-Serif" font-size="10.00">ReversedKinematicVectors</text>
</g>
<!-- Node35 -->
<g id="node35" class="node">
<title>Node35</title>
<g id="a_node35"><a xlink:title=" ">
<polygon fill="white" stroke="#666666" points="1017.5,-75.88 862.5,-75.88 862.5,-56.88 1017.5,-56.88 1017.5,-75.88"/>
<text text-anchor="middle" x="940" y="-63.88" font-family="Helvetica,sans-Serif" font-size="10.00">std::unique_ptr&lt; manager &gt;</text>
</a>
</g>
</g>
<!-- Node35&#45;&gt;Node1 -->
<g id="edge40" class="edge">
<title>Node35&#45;&gt;Node1</title>
<path fill="none" stroke="#9a32cd" stroke-dasharray="5,2" d="M1028.02,-59.07C1096.64,-55.29 1185.1,-55.47 1212,-78.38 1263.7,-122.41 1278.44,-354.53 1281.04,-404.78"/>
<polygon fill="#9a32cd" stroke="#9a32cd" points="1027.39,-55.6 1017.62,-59.68 1027.8,-62.59 1027.39,-55.6"/>
<text text-anchor="middle" x="1135" y="-81.38" font-family="Helvetica,sans-Serif" font-size="10.00"> SampleManager</text>
</g>
<!-- Node36 -->
<g id="node36" class="node">
<title>Node36</title>
<g id="a_node36"><a xlink:title=" ">
<polygon fill="white" stroke="#666666" points="1003.5,-38.38 876.5,-38.38 876.5,-8.38 1003.5,-8.38 1003.5,-38.38"/>
<text text-anchor="start" x="884.5" y="-26.38" font-family="Helvetica,sans-Serif" font-size="10.00">std::unordered_map</text>
<text text-anchor="middle" x="940" y="-15.38" font-family="Helvetica,sans-Serif" font-size="10.00">&lt; std::string, double &gt;</text>
</a>
</g>
</g>
<!-- Node36&#45;&gt;Node1 -->
<g id="edge41" class="edge">
<title>Node36&#45;&gt;Node1</title>
<path fill="none" stroke="#9a32cd" stroke-dasharray="5,2" d="M1010.57,-6.59C1071.29,3.59 1157.91,6.69 1212,-41.38 1268.5,-91.58 1279.55,-351.55 1281.24,-404.83"/>
<polygon fill="#9a32cd" stroke="#9a32cd" points="1009.92,-3.15 1000.68,-8.35 1011.14,-10.05 1009.92,-3.15"/>
<text text-anchor="middle" x="1135" y="-44.38" font-family="Helvetica,sans-Serif" font-size="10.00"> _modeNomWeightMap</text>
</g>
</g>
</svg>
