<?xml version="1.0" encoding="UTF-8" standalone="no"?>
<!DOCTYPE svg PUBLIC "-//W3C//DTD SVG 1.1//EN"
 "http://www.w3.org/Graphics/SVG/1.1/DTD/svg11.dtd">
<!-- Generated by graphviz version 2.44.0 (0)
 -->
<!-- Title: ParameterHandlerGeneric Pages: 1 -->
<!--zoomable 879 -->
<svg id="main" version="1.1" xmlns="http://www.w3.org/2000/svg" xmlns:xlink="http://www.w3.org/1999/xlink" xml:space="preserve" onload="init(evt)">
<style type="text/css"><![CDATA[
.edge:hover path { stroke: red; }
.edge:hover polygon { stroke: red; fill: red; }
]]></style>
<script type="text/javascript"><![CDATA[
var edges = document.getElementsByTagName('g');
if (edges && edges.length) {
  for (var i=0;i<edges.length;i++) {
    if (edges[i].id.substr(0,4)=='edge') {
      edges[i].setAttribute('class','edge');
    }
  }
}
]]></script>
        <defs>
                <circle id="rim" cx="0" cy="0" r="7"/>
                <circle id="rim2" cx="0" cy="0" r="3.5"/>
                <g id="zoomPlus">
                        <use xlink:href="#rim" fill="#404040">
                                <set attributeName="fill" to="#808080" begin="zoomplus.mouseover" end="zoomplus.mouseout"/>
                        </use>
                        <path d="M-4,0h8M0,-4v8" fill="none" stroke="white" stroke-width="1.5" pointer-events="none"/>
                </g>
                <g id="zoomMin">
                        <use xlink:href="#rim" fill="#404040">
                                <set attributeName="fill" to="#808080" begin="zoomminus.mouseover" end="zoomminus.mouseout"/>
                        </use>
                        <path d="M-4,0h8" fill="none" stroke="white" stroke-width="1.5" pointer-events="none"/>
                </g>
                <g id="dirArrow">
                        <path fill="none" stroke="white" stroke-width="1.5" d="M0,-3.0v7 M-2.5,-0.5L0,-3.0L2.5,-0.5"/>
                </g>
               <g id="resetDef">
                       <use xlink:href="#rim2" fill="#404040">
                               <set attributeName="fill" to="#808080" begin="reset.mouseover" end="reset.mouseout"/>
                       </use>
               </g>
        </defs>

<script type="text/javascript">
var viewWidth = 909;
var viewHeight = 879;
var sectionId = 'dynsection-1';
</script>
<script xlink:href="svgpan.js"/>
<svg id="graph" class="graph">
<g id="viewport">
<title>ParameterHandlerGeneric</title>
<polygon fill="white" stroke="transparent" points="-4,4 -4,-874.5 905,-874.5 905,4 -4,4"/>
<!-- Node1 -->
<g id="node1" class="node">
<title>Node1</title>
<g id="a_node1"><a xlink:title="Class responsible for handling of systematic error parameters with different types defined in the con...">
<polygon fill="#bfbfbf" stroke="black" points="772,-145 772,-164 901,-164 901,-145 772,-145"/>
<text text-anchor="middle" x="836.5" y="-152" font-family="Helvetica" font-size="10.00">ParameterHandlerGeneric</text>
</a>
</g>
</g>
<!-- Node2 -->
<g id="node2" class="node">
<title>Node2</title>
<g id="a_node2"><a xlink:href="classParameterHandlerBase.html" target="_top" xlink:title="Base class responsible for handling of systematic error parameters. Capable of using PCA or using ada...">
<polygon fill="white" stroke="black" points="460,-501 460,-520 578,-520 578,-501 460,-501"/>
<text text-anchor="middle" x="519" y="-508" font-family="Helvetica" font-size="10.00">ParameterHandlerBase</text>
</a>
</g>
</g>
<!-- Node2&#45;&gt;Node1 -->
<g id="edge1" class="edge">
<title>Node2&#45;&gt;Node1</title>
<path fill="none" stroke="midnightblue" d="M539.5,-494.4C581.67,-459.01 683.24,-370.65 754,-283.5 787.56,-242.16 818.66,-186.21 830.48,-164.08"/>
<polygon fill="midnightblue" stroke="midnightblue" points="537.09,-491.85 531.66,-500.94 541.58,-497.22 537.09,-491.85"/>
</g>
<!-- Node3 -->
<g id="node3" class="node">
<title>Node3</title>
<g id="a_node3"><a xlink:title=" ">
<polygon fill="white" stroke="#bfbfbf" points="132,-722.5 132,-752.5 298,-752.5 298,-722.5 132,-722.5"/>
<text text-anchor="start" x="140" y="-740.5" font-family="Helvetica" font-size="10.00">std::unique_ptr&lt; adaptive</text>
<text text-anchor="middle" x="215" y="-729.5" font-family="Helvetica" font-size="10.00">_mcmc::AdaptiveMCMCHandler &gt;</text>
</a>
</g>
</g>
<!-- Node3&#45;&gt;Node2 -->
<g id="edge2" class="edge">
<title>Node3&#45;&gt;Node2</title>
<path fill="none" stroke="#9a32cd" stroke-dasharray="5,2" d="M308.5,-734.45C344.89,-729.3 385.24,-718.26 416,-695.5 479.1,-648.82 507.98,-550.91 515.76,-520.04"/>
<polygon fill="#9a32cd" stroke="#9a32cd" points="307.83,-731.01 298.35,-735.75 308.72,-737.95 307.83,-731.01"/>
<text text-anchor="middle" x="366" y="-735.5" font-family="Helvetica" font-size="10.00"> AdaptiveHandler</text>
</g>
<!-- Node4 -->
<g id="node4" class="node">
<title>Node4</title>
<g id="a_node4"><a xlink:title=" ">
<polygon fill="white" stroke="#bfbfbf" points="138.5,-684 138.5,-703 291.5,-703 291.5,-684 138.5,-684"/>
<text text-anchor="middle" x="215" y="-691" font-family="Helvetica" font-size="10.00">std::unique_ptr&lt; PCAHandler &gt;</text>
</a>
</g>
</g>
<!-- Node4&#45;&gt;Node2 -->
<g id="edge3" class="edge">
<title>Node4&#45;&gt;Node2</title>
<path fill="none" stroke="#9a32cd" stroke-dasharray="5,2" d="M301.61,-684.66C339.13,-677.64 382.22,-665.06 416,-642.5 465.37,-609.52 501.08,-544.72 513.35,-520.2"/>
<polygon fill="#9a32cd" stroke="#9a32cd" points="300.94,-681.22 291.7,-686.41 302.15,-688.12 300.94,-681.22"/>
<text text-anchor="middle" x="366" y="-683.5" font-family="Helvetica" font-size="10.00"> PCAObj</text>
</g>
<!-- Node5 -->
<g id="node5" class="node">
<title>Node5</title>
<g id="a_node5"><a xlink:title=" ">
<polygon fill="white" stroke="#bfbfbf" points="147.5,-634.5 147.5,-664.5 282.5,-664.5 282.5,-634.5 147.5,-634.5"/>
<text text-anchor="start" x="155.5" y="-652.5" font-family="Helvetica" font-size="10.00">std::unique_ptr&lt; Parameter</text>
<text text-anchor="middle" x="215" y="-641.5" font-family="Helvetica" font-size="10.00">Tunes &gt;</text>
</a>
</g>
</g>
<!-- Node5&#45;&gt;Node2 -->
<g id="edge4" class="edge">
<title>Node5&#45;&gt;Node2</title>
<path fill="none" stroke="#9a32cd" stroke-dasharray="5,2" d="M292.98,-635.14C331.33,-626.13 377.58,-612.37 416,-592.5 454.34,-572.67 491.96,-537.1 508.8,-520.09"/>
<polygon fill="#9a32cd" stroke="#9a32cd" points="291.87,-631.8 282.9,-637.44 293.43,-638.63 291.87,-631.8"/>
<text text-anchor="middle" x="366" y="-630.5" font-family="Helvetica" font-size="10.00"> Tunes</text>
</g>
<!-- Node6 -->
<g id="node6" class="node">
<title>Node6</title>
<g id="a_node6"><a xlink:title=" ">
<polygon fill="white" stroke="#bfbfbf" points="156.5,-585.5 156.5,-615.5 273.5,-615.5 273.5,-585.5 156.5,-585.5"/>
<text text-anchor="start" x="164.5" y="-603.5" font-family="Helvetica" font-size="10.00">std::vector&lt; std::vector</text>
<text text-anchor="middle" x="215" y="-592.5" font-family="Helvetica" font-size="10.00">&lt; std::string &gt; &gt;</text>
</a>
</g>
</g>
<!-- Node6&#45;&gt;Node2 -->
<g id="edge5" class="edge">
<title>Node6&#45;&gt;Node2</title>
<path fill="none" stroke="#9a32cd" stroke-dasharray="5,2" d="M284.12,-586.33C323.11,-577.6 372.73,-565.42 416,-551.5 444.52,-542.32 476.43,-528.98 496.83,-520.04"/>
<polygon fill="#9a32cd" stroke="#9a32cd" points="282.94,-583.01 273.93,-588.59 284.45,-589.84 282.94,-583.01"/>
<text text-anchor="middle" x="366" y="-580.5" font-family="Helvetica" font-size="10.00"> _fSampleNames</text>
</g>
<!-- Node7 -->
<g id="node7" class="node">
<title>Node7</title>
<g id="a_node7"><a xlink:title=" ">
<polygon fill="white" stroke="#bfbfbf" points="156.5,-536.5 156.5,-566.5 273.5,-566.5 273.5,-536.5 156.5,-536.5"/>
<text text-anchor="start" x="164.5" y="-554.5" font-family="Helvetica" font-size="10.00">std::vector&lt; std::vector</text>
<text text-anchor="middle" x="215" y="-543.5" font-family="Helvetica" font-size="10.00">&lt; double &gt; &gt;</text>
</a>
</g>
</g>
<!-- Node7&#45;&gt;Node2 -->
<g id="edge6" class="edge">
<title>Node7&#45;&gt;Node2</title>
<path fill="none" stroke="#9a32cd" stroke-dasharray="5,2" d="M283.5,-542.34C336.5,-535.14 409.52,-525.23 459.93,-518.38"/>
<polygon fill="#9a32cd" stroke="#9a32cd" points="282.95,-538.88 273.51,-543.69 283.89,-545.81 282.95,-538.88"/>
<text text-anchor="middle" x="366" y="-539.5" font-family="Helvetica" font-size="10.00"> InvertCovMatrix</text>
</g>
<!-- Node8 -->
<g id="node8" class="node">
<title>Node8</title>
<g id="a_node8"><a xlink:title=" ">
<polygon fill="white" stroke="#bfbfbf" points="161.5,-487.5 161.5,-517.5 268.5,-517.5 268.5,-487.5 161.5,-487.5"/>
<text text-anchor="start" x="169.5" y="-505.5" font-family="Helvetica" font-size="10.00">std::vector&lt; std::pair</text>
<text text-anchor="middle" x="215" y="-494.5" font-family="Helvetica" font-size="10.00">&lt; double, double &gt; &gt;</text>
</a>
</g>
</g>
<!-- Node8&#45;&gt;Node2 -->
<g id="edge7" class="edge">
<title>Node8&#45;&gt;Node2</title>
<path fill="none" stroke="#9a32cd" stroke-dasharray="5,2" d="M278.61,-504.16C331.9,-505.57 407.84,-507.58 459.82,-508.96"/>
<polygon fill="#9a32cd" stroke="#9a32cd" points="278.69,-500.66 268.6,-503.89 278.51,-507.66 278.69,-500.66"/>
<text text-anchor="middle" x="366" y="-510.5" font-family="Helvetica" font-size="10.00"> CircularBoundsValues</text>
</g>
<!-- Node9 -->
<g id="node9" class="node">
<title>Node9</title>
<g id="a_node9"><a xlink:title=" ">
<polygon fill="white" stroke="#bfbfbf" points="185,-449 185,-468 245,-468 245,-449 185,-449"/>
<text text-anchor="middle" x="215" y="-456" font-family="Helvetica" font-size="10.00">std::string</text>
</a>
</g>
</g>
<!-- Node9&#45;&gt;Node2 -->
<g id="edge8" class="edge">
<title>Node9&#45;&gt;Node2</title>
<path fill="none" stroke="#9a32cd" stroke-dasharray="5,2" d="M255.11,-460.05C295.68,-462.2 360.81,-467.21 416,-478.5 442.55,-483.93 471.99,-493.58 492.39,-500.86"/>
<polygon fill="#9a32cd" stroke="#9a32cd" points="255.26,-456.55 245.09,-459.55 254.91,-463.54 255.26,-456.55"/>
<text text-anchor="middle" x="366" y="-492.5" font-family="Helvetica" font-size="10.00"> inputFile</text>
<text text-anchor="middle" x="366" y="-481.5" font-family="Helvetica" font-size="10.00">matrixName</text>
</g>
<!-- Node10 -->
<g id="node10" class="node">
<title>Node10</title>
<g id="a_node10"><a xlink:title=" ">
<polygon fill="white" stroke="#bfbfbf" points="0,-443.5 0,-473.5 95,-473.5 95,-443.5 0,-443.5"/>
<text text-anchor="start" x="8" y="-461.5" font-family="Helvetica" font-size="10.00">std::basic_string&lt;</text>
<text text-anchor="middle" x="47.5" y="-450.5" font-family="Helvetica" font-size="10.00"> char &gt;</text>
</a>
</g>
</g>
<!-- Node10&#45;&gt;Node9 -->
<g id="edge9" class="edge">
<title>Node10&#45;&gt;Node9</title>
<path fill="none" stroke="midnightblue" d="M105.11,-458.5C131.97,-458.5 162.93,-458.5 184.95,-458.5"/>
<polygon fill="midnightblue" stroke="midnightblue" points="105.04,-455 95.04,-458.5 105.04,-462 105.04,-455"/>
</g>
<!-- Node11 -->
<g id="node11" class="node">
<title>Node11</title>
<g id="a_node11"><a xlink:title=" ">
<polygon fill="white" stroke="#bfbfbf" points="169.5,-411 169.5,-430 260.5,-430 260.5,-411 169.5,-411"/>
<text text-anchor="middle" x="215" y="-418" font-family="Helvetica" font-size="10.00">std::vector&lt; int &gt;</text>
</a>
</g>
</g>
<!-- Node11&#45;&gt;Node2 -->
<g id="edge10" class="edge">
<title>Node11&#45;&gt;Node2</title>
<path fill="none" stroke="#9a32cd" stroke-dasharray="5,2" d="M270.85,-417.87C312.01,-417.68 369.09,-421.26 416,-438.5 454.25,-452.56 491.33,-484.8 508.33,-500.93"/>
<polygon fill="#9a32cd" stroke="#9a32cd" points="270.7,-414.38 260.74,-418 270.79,-421.37 270.7,-414.38"/>
<text text-anchor="middle" x="366" y="-452.5" font-family="Helvetica" font-size="10.00"> CircularBoundsIndex</text>
<text text-anchor="middle" x="366" y="-441.5" font-family="Helvetica" font-size="10.00">FlipParameterIndex</text>
</g>
<!-- Node12 -->
<g id="node12" class="node">
<title>Node12</title>
<g id="a_node12"><a xlink:title=" ">
<polygon fill="white" stroke="#bfbfbf" points="155.5,-361.5 155.5,-391.5 274.5,-391.5 274.5,-361.5 155.5,-361.5"/>
<text text-anchor="start" x="163.5" y="-379.5" font-family="Helvetica" font-size="10.00">std::vector&lt; std::unique</text>
<text text-anchor="middle" x="215" y="-368.5" font-family="Helvetica" font-size="10.00">_ptr&lt; TRandom3 &gt; &gt;</text>
</a>
</g>
</g>
<!-- Node12&#45;&gt;Node2 -->
<g id="edge11" class="edge">
<title>Node12&#45;&gt;Node2</title>
<path fill="none" stroke="#9a32cd" stroke-dasharray="5,2" d="M284.85,-375.15C325.05,-376.97 375.64,-383.9 416,-404.5 461.5,-427.72 498.16,-479.35 512.02,-500.84"/>
<polygon fill="#9a32cd" stroke="#9a32cd" points="284.72,-371.64 274.6,-374.78 284.47,-378.64 284.72,-371.64"/>
<text text-anchor="middle" x="366" y="-407.5" font-family="Helvetica" font-size="10.00"> random_number</text>
</g>
<!-- Node13 -->
<g id="node13" class="node">
<title>Node13</title>
<g id="a_node13"><a xlink:title=" ">
<polygon fill="white" stroke="#bfbfbf" points="166,-323 166,-342 264,-342 264,-323 166,-323"/>
<text text-anchor="middle" x="215" y="-330" font-family="Helvetica" font-size="10.00">std::vector&lt; bool &gt;</text>
</a>
</g>
</g>
<!-- Node13&#45;&gt;Node2 -->
<g id="edge12" class="edge">
<title>Node13&#45;&gt;Node2</title>
<path fill="none" stroke="#9a32cd" stroke-dasharray="5,2" d="M274.26,-329.34C316.58,-329.73 373.63,-336.05 416,-362.5 471.32,-397.04 504.3,-473.83 514.54,-500.86"/>
<polygon fill="#9a32cd" stroke="#9a32cd" points="274.1,-325.84 264.11,-329.35 274.11,-332.84 274.1,-325.84"/>
<text text-anchor="middle" x="366" y="-365.5" font-family="Helvetica" font-size="10.00"> _fFlatPrior</text>
</g>
<!-- Node14 -->
<g id="node14" class="node">
<title>Node14</title>
<g id="a_node14"><a xlink:title=" ">
<polygon fill="white" stroke="#bfbfbf" points="153,-275 153,-294 277,-294 277,-275 153,-275"/>
<text text-anchor="middle" x="215" y="-282" font-family="Helvetica" font-size="10.00">std::vector&lt; std::string &gt;</text>
</a>
</g>
</g>
<!-- Node14&#45;&gt;Node1 -->
<g id="edge21" class="edge">
<title>Node14&#45;&gt;Node1</title>
<path fill="none" stroke="#9a32cd" stroke-dasharray="5,2" d="M287.72,-280.96C414.36,-273.87 671.95,-255.42 754,-219.5 784.17,-206.29 812.64,-179.01 826.57,-164.34"/>
<polygon fill="#9a32cd" stroke="#9a32cd" points="287.15,-277.49 277.36,-281.53 287.53,-284.47 287.15,-277.49"/>
<text text-anchor="middle" x="519" y="-284.5" font-family="Helvetica" font-size="10.00"> _ParameterGroup</text>
<text text-anchor="middle" x="519" y="-273.5" font-family="Helvetica" font-size="10.00">_fSplineNames</text>
</g>
<!-- Node14&#45;&gt;Node2 -->
<g id="edge13" class="edge">
<title>Node14&#45;&gt;Node2</title>
<path fill="none" stroke="#9a32cd" stroke-dasharray="5,2" d="M287.64,-284.88C336.41,-286.45 395.65,-291.37 416,-305.5 486.53,-354.47 510.66,-466.74 516.47,-500.64"/>
<polygon fill="#9a32cd" stroke="#9a32cd" points="287.51,-281.37 277.41,-284.59 287.31,-288.37 287.51,-281.37"/>
<text text-anchor="middle" x="366" y="-319.5" font-family="Helvetica" font-size="10.00"> _fFancyNames</text>
<text text-anchor="middle" x="366" y="-308.5" font-family="Helvetica" font-size="10.00">_fNames</text>
</g>
<!-- Node15 -->
<g id="node15" class="node">
<title>Node15</title>
<g id="a_node15"><a xlink:title=" ">
<polygon fill="white" stroke="#bfbfbf" points="160.5,-772 160.5,-791 269.5,-791 269.5,-772 160.5,-772"/>
<text text-anchor="middle" x="215" y="-779" font-family="Helvetica" font-size="10.00">std::vector&lt; double &gt;</text>
</a>
</g>
</g>
<!-- Node15&#45;&gt;Node2 -->
<g id="edge14" class="edge">
<title>Node15&#45;&gt;Node2</title>
<path fill="none" stroke="#9a32cd" stroke-dasharray="5,2" d="M279.58,-785.64C322.34,-785.12 377.68,-777.63 416,-747.5 493.11,-686.86 512.94,-556.53 517.06,-520.12"/>
<polygon fill="#9a32cd" stroke="#9a32cd" points="279.55,-782.14 269.55,-785.64 279.55,-789.14 279.55,-782.14"/>
<text text-anchor="middle" x="366" y="-862.5" font-family="Helvetica" font-size="10.00"> FlipParameterPoint</text>
<text text-anchor="middle" x="366" y="-851.5" font-family="Helvetica" font-size="10.00">_fCurrVal</text>
<text text-anchor="middle" x="366" y="-840.5" font-family="Helvetica" font-size="10.00">_fError</text>
<text text-anchor="middle" x="366" y="-829.5" font-family="Helvetica" font-size="10.00">_fIndivStepScale</text>
<text text-anchor="middle" x="366" y="-818.5" font-family="Helvetica" font-size="10.00">_fLowBound</text>
<text text-anchor="middle" x="366" y="-807.5" font-family="Helvetica" font-size="10.00">_fPreFitValue</text>
<text text-anchor="middle" x="366" y="-796.5" font-family="Helvetica" font-size="10.00">_fPropVal</text>
<text text-anchor="middle" x="366" y="-785.5" font-family="Helvetica" font-size="10.00">_fUpBound</text>
</g>
<!-- Node16 -->
<g id="node16" class="node">
<title>Node16</title>
<g id="a_node16"><a xlink:title=" ">
<polygon fill="white" stroke="#bfbfbf" points="464,-202.5 464,-232.5 574,-232.5 574,-202.5 464,-202.5"/>
<text text-anchor="start" x="472" y="-220.5" font-family="Helvetica" font-size="10.00">std::vector&lt; std::map</text>
<text text-anchor="middle" x="519" y="-209.5" font-family="Helvetica" font-size="10.00">&lt; int, int &gt; &gt;</text>
</a>
</g>
</g>
<!-- Node16&#45;&gt;Node1 -->
<g id="edge15" class="edge">
<title>Node16&#45;&gt;Node1</title>
<path fill="none" stroke="#9a32cd" stroke-dasharray="5,2" d="M584.51,-210.52C631.83,-204.69 697.41,-195.13 754,-181.5 773.13,-176.89 794.2,-169.86 810.12,-164.13"/>
<polygon fill="#9a32cd" stroke="#9a32cd" points="583.91,-207.07 574.41,-211.74 584.75,-214.02 583.91,-207.07"/>
<text text-anchor="middle" x="688" y="-207.5" font-family="Helvetica" font-size="10.00"> _fSystToGlobalSystIndexMap</text>
</g>
<!-- Node17 -->
<g id="node17" class="node">
<title>Node17</title>
<g id="a_node17"><a xlink:title=" ">
<polygon fill="white" stroke="#bfbfbf" points="458.5,-164 458.5,-183 579.5,-183 579.5,-164 458.5,-164"/>
<text text-anchor="middle" x="519" y="-171" font-family="Helvetica" font-size="10.00">std::vector&lt; SystType &gt;</text>
</a>
</g>
</g>
<!-- Node17&#45;&gt;Node1 -->
<g id="edge16" class="edge">
<title>Node17&#45;&gt;Node1</title>
<path fill="none" stroke="#9a32cd" stroke-dasharray="5,2" d="M589.97,-169.29C644.39,-166.01 719.26,-161.5 771.97,-158.33"/>
<polygon fill="#9a32cd" stroke="#9a32cd" points="589.49,-165.81 579.71,-169.9 589.91,-172.8 589.49,-165.81"/>
<text text-anchor="middle" x="688" y="-169.5" font-family="Helvetica" font-size="10.00"> _fParamType</text>
</g>
<!-- Node18 -->
<g id="node18" class="node">
<title>Node18</title>
<g id="a_node18"><a xlink:title=" ">
<polygon fill="white" stroke="#bfbfbf" points="444.5,-126 444.5,-145 593.5,-145 593.5,-126 444.5,-126"/>
<text text-anchor="middle" x="519" y="-133" font-family="Helvetica" font-size="10.00">std::vector&lt; NormParameter &gt;</text>
</a>
</g>
</g>
<!-- Node18&#45;&gt;Node1 -->
<g id="edge17" class="edge">
<title>Node18&#45;&gt;Node1</title>
<path fill="none" stroke="#9a32cd" stroke-dasharray="5,2" d="M603.83,-137.03C648.47,-138.27 704.28,-140.5 754,-144.5 759.83,-144.97 765.88,-145.54 771.93,-146.18"/>
<polygon fill="#9a32cd" stroke="#9a32cd" points="603.69,-133.52 593.6,-136.75 603.51,-140.52 603.69,-133.52"/>
<text text-anchor="middle" x="688" y="-147.5" font-family="Helvetica" font-size="10.00"> NormParams</text>
</g>
<!-- Node19 -->
<g id="node19" class="node">
<title>Node19</title>
<g id="a_node19"><a xlink:title=" ">
<polygon fill="white" stroke="#bfbfbf" points="434,-88 434,-107 604,-107 604,-88 434,-88"/>
<text text-anchor="middle" x="519" y="-95" font-family="Helvetica" font-size="10.00">std::vector&lt; FunctionalParameter &gt;</text>
</a>
</g>
</g>
<!-- Node19&#45;&gt;Node1 -->
<g id="edge18" class="edge">
<title>Node19&#45;&gt;Node1</title>
<path fill="none" stroke="#9a32cd" stroke-dasharray="5,2" d="M614.25,-101.8C657.32,-105.23 708.72,-111.41 754,-122.5 775.7,-127.82 799.35,-137.58 815.56,-144.93"/>
<polygon fill="#9a32cd" stroke="#9a32cd" points="614.29,-98.3 604.06,-101.03 613.76,-105.28 614.29,-98.3"/>
<text text-anchor="middle" x="688" y="-125.5" font-family="Helvetica" font-size="10.00"> FuncParams</text>
</g>
<!-- Node20 -->
<g id="node20" class="node">
<title>Node20</title>
<g id="a_node20"><a xlink:title=" ">
<polygon fill="white" stroke="#bfbfbf" points="443,-50 443,-69 595,-69 595,-50 443,-50"/>
<text text-anchor="middle" x="519" y="-57" font-family="Helvetica" font-size="10.00">std::vector&lt; SplineParameter &gt;</text>
</a>
</g>
</g>
<!-- Node20&#45;&gt;Node1 -->
<g id="edge19" class="edge">
<title>Node20&#45;&gt;Node1</title>
<path fill="none" stroke="#9a32cd" stroke-dasharray="5,2" d="M605.4,-58.27C651.09,-60.4 707.39,-67.6 754,-87.5 785,-100.74 813.54,-129.56 827.14,-144.72"/>
<polygon fill="#9a32cd" stroke="#9a32cd" points="605.35,-54.77 595.22,-57.87 605.08,-61.76 605.35,-54.77"/>
<text text-anchor="middle" x="688" y="-90.5" font-family="Helvetica" font-size="10.00"> SplineParams</text>
</g>
<!-- Node21 -->
<g id="node21" class="node">
<title>Node21</title>
<g id="a_node21"><a xlink:title=" ">
<polygon fill="white" stroke="#bfbfbf" points="460.5,-0.5 460.5,-30.5 577.5,-30.5 577.5,-0.5 460.5,-0.5"/>
<text text-anchor="start" x="468.5" y="-18.5" font-family="Helvetica" font-size="10.00">std::vector&lt; Oscillation</text>
<text text-anchor="middle" x="519" y="-7.5" font-family="Helvetica" font-size="10.00">Parameter &gt;</text>
</a>
</g>
</g>
<!-- Node21&#45;&gt;Node1 -->
<g id="edge20" class="edge">
<title>Node21&#45;&gt;Node1</title>
<path fill="none" stroke="#9a32cd" stroke-dasharray="5,2" d="M588.13,-9.79C637.4,-8.81 703.85,-14.23 754,-43.5 795.5,-67.72 822.08,-122.34 831.58,-144.68"/>
<polygon fill="#9a32cd" stroke="#9a32cd" points="587.78,-6.3 577.89,-10.09 587.98,-13.29 587.78,-6.3"/>
<text text-anchor="middle" x="688" y="-46.5" font-family="Helvetica" font-size="10.00"> OscParams</text>
</g>
</g>
</svg>
        <g id="navigator" transform="translate(0 0)" fill="#404254">
                <rect fill="#f2f5e9" fill-opacity="0.5" stroke="#606060" stroke-width=".5" x="0" y="0" width="60" height="60"/>
                <use id="zoomplus" xlink:href="#zoomPlus" x="17" y="9" onmousedown="handleZoom(evt,'in')"/>
                <use id="zoomminus" xlink:href="#zoomMin" x="42" y="9" onmousedown="handleZoom(evt,'out')"/>
                <use id="reset" xlink:href="#resetDef" x="30" y="36" onmousedown="handleReset()"/>
                <g id="arrowUp" xlink:href="#dirArrow" transform="translate(30 24)" onmousedown="handlePan(0,-1)">
                  <use xlink:href="#rim" fill="#404040">
                        <set attributeName="fill" to="#808080" begin="arrowUp.mouseover" end="arrowUp.mouseout"/>
                  </use>
                  <path fill="none" stroke="white" stroke-width="1.5" d="M0,-3.0v7 M-2.5,-0.5L0,-3.0L2.5,-0.5"/>
                </g>
                <g id="arrowRight" xlink:href="#dirArrow" transform="rotate(90) translate(36 -43)" onmousedown="handlePan(1,0)">
                  <use xlink:href="#rim" fill="#404040">
                        <set attributeName="fill" to="#808080" begin="arrowRight.mouseover" end="arrowRight.mouseout"/>
                  </use>
                  <path fill="none" stroke="white" stroke-width="1.5" d="M0,-3.0v7 M-2.5,-0.5L0,-3.0L2.5,-0.5"/>
                </g>
                <g id="arrowDown" xlink:href="#dirArrow" transform="rotate(180) translate(-30 -48)" onmousedown="handlePan(0,1)">
                  <use xlink:href="#rim" fill="#404040">
                        <set attributeName="fill" to="#808080" begin="arrowDown.mouseover" end="arrowDown.mouseout"/>
                  </use>
                  <path fill="none" stroke="white" stroke-width="1.5" d="M0,-3.0v7 M-2.5,-0.5L0,-3.0L2.5,-0.5"/>
                </g>
                <g id="arrowLeft" xlink:href="#dirArrow" transform="rotate(270) translate(-36 17)" onmousedown="handlePan(-1,0)">
                  <use xlink:href="#rim" fill="#404040">
                        <set attributeName="fill" to="#808080" begin="arrowLeft.mouseover" end="arrowLeft.mouseout"/>
                  </use>
                  <path fill="none" stroke="white" stroke-width="1.5" d="M0,-3.0v7 M-2.5,-0.5L0,-3.0L2.5,-0.5"/>
                </g>
        </g>
        <svg viewBox="0 0 15 15" width="100%" height="30px" preserveAspectRatio="xMaxYMin meet">
         <g id="arrow_out" transform="scale(0.3 0.3)">
          <a xlink:href="classParameterHandlerGeneric__coll__graph_org.svg" target="_base">
           <rect id="button" ry="5" rx="5" y="6" x="6" height="38" width="38"
                fill="#f2f5e9" fill-opacity="0.5" stroke="#606060" stroke-width="1.0"/>
           <path id="arrow"
             d="M 11.500037,31.436501 C 11.940474,20.09759 22.043105,11.32322 32.158766,21.979434 L 37.068811,17.246167 C 37.068811,17.246167 37.088388,32 37.088388,32 L 22.160133,31.978069 C 22.160133,31.978069 26.997745,27.140456 26.997745,27.140456 C 18.528582,18.264221 13.291696,25.230495 11.500037,31.436501 z"
             style="fill:#404040;"/>
          </a>
         </g>
        </svg>
</svg>
