<?xml version="1.0" encoding="UTF-8" standalone="no"?>
<!DOCTYPE svg PUBLIC "-//W3C//DTD SVG 1.1//EN"
 "http://www.w3.org/Graphics/SVG/1.1/DTD/svg11.dtd">
<!-- Generated by graphviz version 2.43.0 (0)
 -->
<!-- Title: MinuitFit Pages: 1 -->
<svg width="845pt" height="245pt"
 viewBox="0.00 0.00 845.00 244.50" xmlns="http://www.w3.org/2000/svg" xmlns:xlink="http://www.w3.org/1999/xlink">
<g id="graph0" class="graph" transform="scale(1 1) rotate(0) translate(4 240.5)">
<title>MinuitFit</title>
<!-- Node1 -->
<g id="node1" class="node">
<title>Node1</title>
<g id="a_node1"><a xlink:title="Implementation of Minuit fitting algorithm .">
<polygon fill="#999999" stroke="#666666" points="837,-124 778,-124 778,-105 837,-105 837,-124"/>
<text text-anchor="middle" x="807.5" y="-112" font-family="Helvetica,sans-Serif" font-size="10.00">MinuitFit</text>
</a>
</g>
</g>
<!-- Node2 -->
<g id="node2" class="node">
<title>Node2</title>
<g id="a_node2"><a xlink:href="classLikelihoodFit.html" target="_top" xlink:title="Implementation of base Likelihood Fit class, it is mostly responsible for likelihood calculation whil...">
<polygon fill="white" stroke="#666666" points="741,-124 663,-124 663,-105 741,-105 741,-124"/>
<text text-anchor="middle" x="702" y="-112" font-family="Helvetica,sans-Serif" font-size="10.00">LikelihoodFit</text>
</a>
</g>
</g>
<!-- Node2&#45;&gt;Node1 -->
<g id="edge1" class="edge">
<title>Node2&#45;&gt;Node1</title>
<path fill="none" stroke="#63b8ff" d="M751.34,-114.5C760.39,-114.5 769.58,-114.5 777.8,-114.5"/>
<polygon fill="#63b8ff" stroke="#63b8ff" points="751.25,-111 741.25,-114.5 751.25,-118 751.25,-111"/>
</g>
<!-- Node3 -->
<g id="node3" class="node">
<title>Node3</title>
<g id="a_node3"><a xlink:href="classFitterBase.html" target="_top" xlink:title="Base class for implementing fitting algorithms.">
<polygon fill="white" stroke="#666666" points="626,-124 560,-124 560,-105 626,-105 626,-124"/>
<text text-anchor="middle" x="593" y="-112" font-family="Helvetica,sans-Serif" font-size="10.00">FitterBase</text>
</a>
</g>
</g>
<!-- Node3&#45;&gt;Node2 -->
<g id="edge2" class="edge">
<title>Node3&#45;&gt;Node2</title>
<path fill="none" stroke="#63b8ff" d="M636.19,-114.5C645,-114.5 654.23,-114.5 662.88,-114.5"/>
<polygon fill="#63b8ff" stroke="#63b8ff" points="636.1,-111 626.1,-114.5 636.1,-118 636.1,-111"/>
</g>
<!-- Node4 -->
<g id="node4" class="node">
<title>Node4</title>
<g id="a_node4"><a xlink:href="classmanager.html" target="_top" xlink:title="The manager class is responsible for managing configurations and settings.">
<polygon fill="white" stroke="#666666" points="406.5,-231 346.5,-231 346.5,-212 406.5,-212 406.5,-231"/>
<text text-anchor="middle" x="376.5" y="-219" font-family="Helvetica,sans-Serif" font-size="10.00">manager</text>
</a>
</g>
</g>
<!-- Node4&#45;&gt;Node3 -->
<g id="edge3" class="edge">
<title>Node4&#45;&gt;Node3</title>
<path fill="none" stroke="#9a32cd" stroke-dasharray="5,2" d="M417.13,-220.78C452.54,-218.39 504.48,-210.42 542,-185.5 565.36,-169.98 581.17,-139.53 588.07,-124.04"/>
<polygon fill="#9a32cd" stroke="#9a32cd" points="416.5,-217.31 406.7,-221.35 416.88,-224.3 416.5,-217.31"/>
<text text-anchor="middle" x="510.5" y="-212.5" font-family="Helvetica,sans-Serif" font-size="10.00"> fitMan</text>
</g>
<!-- Node5 -->
<g id="node5" class="node">
<title>Node5</title>
<g id="a_node5"><a xlink:title=" ">
<polygon fill="white" stroke="#666666" points="206,-231 141,-231 141,-212 206,-212 206,-231"/>
<text text-anchor="middle" x="173.5" y="-219" font-family="Helvetica,sans-Serif" font-size="10.00">std::string</text>
</a>
</g>
</g>
<!-- Node5&#45;&gt;Node4 -->
<g id="edge4" class="edge">
<title>Node5&#45;&gt;Node4</title>
<path fill="none" stroke="#9a32cd" stroke-dasharray="5,2" d="M216.82,-221.5C255.72,-221.5 312.37,-221.5 346.41,-221.5"/>
<polygon fill="#9a32cd" stroke="#9a32cd" points="216.35,-218 206.35,-221.5 216.35,-225 216.35,-218"/>
<text text-anchor="middle" x="249" y="-224.5" font-family="Helvetica,sans-Serif" font-size="10.00"> FileName</text>
</g>
<!-- Node6 -->
<g id="node6" class="node">
<title>Node6</title>
<g id="a_node6"><a xlink:title=" ">
<polygon fill="white" stroke="#666666" points="104,-236.5 0,-236.5 0,-206.5 104,-206.5 104,-236.5"/>
<text text-anchor="start" x="8" y="-224.5" font-family="Helvetica,sans-Serif" font-size="10.00">std::basic_string&lt;</text>
<text text-anchor="middle" x="52" y="-213.5" font-family="Helvetica,sans-Serif" font-size="10.00"> Char &gt;</text>
</a>
</g>
</g>
<!-- Node6&#45;&gt;Node5 -->
<g id="edge5" class="edge">
<title>Node6&#45;&gt;Node5</title>
<path fill="none" stroke="#63b8ff" d="M114.1,-221.5C123.41,-221.5 132.68,-221.5 141,-221.5"/>
<polygon fill="#63b8ff" stroke="#63b8ff" points="114.03,-218 104.03,-221.5 114.03,-225 114.03,-218"/>
</g>
<!-- Node7 -->
<g id="node7" class="node">
<title>Node7</title>
<g id="a_node7"><a xlink:title=" ">
<polygon fill="white" stroke="#666666" points="438.5,-190 314.5,-190 314.5,-171 438.5,-171 438.5,-190"/>
<text text-anchor="middle" x="376.5" y="-178" font-family="Helvetica,sans-Serif" font-size="10.00">std::vector&lt; double &gt;</text>
</a>
</g>
</g>
<!-- Node7&#45;&gt;Node3 -->
<g id="edge6" class="edge">
<title>Node7&#45;&gt;Node3</title>
<path fill="none" stroke="#9a32cd" stroke-dasharray="5,2" d="M441.34,-168.96C472.3,-162.36 509.69,-152.91 542,-140.5 553.69,-136.01 566.19,-129.51 575.77,-124.13"/>
<polygon fill="#9a32cd" stroke="#9a32cd" points="440.6,-165.53 431.52,-171 442.03,-172.39 440.6,-165.53"/>
<text text-anchor="middle" x="510.5" y="-173.5" font-family="Helvetica,sans-Serif" font-size="10.00"> sample_llh</text>
<text text-anchor="middle" x="510.5" y="-162.5" font-family="Helvetica,sans-Serif" font-size="10.00">syst_llh</text>
</g>
<!-- Node8 -->
<g id="node8" class="node">
<title>Node8</title>
<g id="a_node8"><a xlink:title=" ">
<polygon fill="white" stroke="#666666" points="454,-152.5 299,-152.5 299,-122.5 454,-122.5 454,-152.5"/>
<text text-anchor="start" x="307" y="-140.5" font-family="Helvetica,sans-Serif" font-size="10.00">std::vector&lt; SampleHandler</text>
<text text-anchor="middle" x="376.5" y="-129.5" font-family="Helvetica,sans-Serif" font-size="10.00">Base * &gt;</text>
</a>
</g>
</g>
<!-- Node8&#45;&gt;Node3 -->
<g id="edge7" class="edge">
<title>Node8&#45;&gt;Node3</title>
<path fill="none" stroke="#9a32cd" stroke-dasharray="5,2" d="M464.37,-128.19C498.02,-124.58 534.46,-120.67 559.75,-117.96"/>
<polygon fill="#9a32cd" stroke="#9a32cd" points="463.6,-124.75 454.03,-129.29 464.35,-131.71 463.6,-124.75"/>
<text text-anchor="middle" x="510.5" y="-128.5" font-family="Helvetica,sans-Serif" font-size="10.00"> samples</text>
</g>
<!-- Node9 -->
<g id="node9" class="node">
<title>Node9</title>
<g id="a_node9"><a xlink:title=" ">
<polygon fill="white" stroke="#666666" points="460.5,-104.5 292.5,-104.5 292.5,-74.5 460.5,-74.5 460.5,-104.5"/>
<text text-anchor="start" x="300.5" y="-92.5" font-family="Helvetica,sans-Serif" font-size="10.00">std::vector&lt; ParameterHandler</text>
<text text-anchor="middle" x="376.5" y="-81.5" font-family="Helvetica,sans-Serif" font-size="10.00">Base * &gt;</text>
</a>
</g>
</g>
<!-- Node9&#45;&gt;Node3 -->
<g id="edge8" class="edge">
<title>Node9&#45;&gt;Node3</title>
<path fill="none" stroke="#9a32cd" stroke-dasharray="5,2" d="M470.78,-96.27C494.1,-98.43 519.01,-101.16 542,-104.5 547.78,-105.34 553.91,-106.41 559.81,-107.54"/>
<polygon fill="#9a32cd" stroke="#9a32cd" points="470.82,-92.76 460.54,-95.34 470.19,-99.73 470.82,-92.76"/>
<text text-anchor="middle" x="510.5" y="-107.5" font-family="Helvetica,sans-Serif" font-size="10.00"> systematics</text>
</g>
<!-- Node10 -->
<g id="node10" class="node">
<title>Node10</title>
<g id="a_node10"><a xlink:title=" ">
<polygon fill="white" stroke="#666666" points="461,-56 292,-56 292,-37 461,-37 461,-56"/>
<text text-anchor="middle" x="376.5" y="-44" font-family="Helvetica,sans-Serif" font-size="10.00">std::unique_ptr&lt; TStopwatch &gt;</text>
</a>
</g>
</g>
<!-- Node10&#45;&gt;Node3 -->
<g id="edge9" class="edge">
<title>Node10&#45;&gt;Node3</title>
<path fill="none" stroke="#9a32cd" stroke-dasharray="5,2" d="M471.44,-50.77C495.25,-54.37 520.23,-60.43 542,-70.5 559.42,-78.56 575.27,-94.67 584.27,-105"/>
<polygon fill="#9a32cd" stroke="#9a32cd" points="471.71,-47.28 461.33,-49.38 470.75,-54.21 471.71,-47.28"/>
<text text-anchor="middle" x="510.5" y="-84.5" font-family="Helvetica,sans-Serif" font-size="10.00"> clock</text>
<text text-anchor="middle" x="510.5" y="-73.5" font-family="Helvetica,sans-Serif" font-size="10.00">stepClock</text>
</g>
<!-- Node11 -->
<g id="node11" class="node">
<title>Node11</title>
<g id="a_node11"><a xlink:title=" ">
<polygon fill="white" stroke="#666666" points="458.5,-19 294.5,-19 294.5,0 458.5,0 458.5,-19"/>
<text text-anchor="middle" x="376.5" y="-7" font-family="Helvetica,sans-Serif" font-size="10.00">std::unique_ptr&lt; TRandom3 &gt;</text>
</a>
</g>
</g>
<!-- Node11&#45;&gt;Node3 -->
<g id="edge10" class="edge">
<title>Node11&#45;&gt;Node3</title>
<path fill="none" stroke="#9a32cd" stroke-dasharray="5,2" d="M468.56,-10.89C493.94,-14.74 520.44,-22.32 542,-36.5 567.53,-53.29 582.71,-88.12 588.84,-104.97"/>
<polygon fill="#9a32cd" stroke="#9a32cd" points="468.91,-7.4 458.53,-9.54 467.98,-14.34 468.91,-7.4"/>
<text text-anchor="middle" x="510.5" y="-39.5" font-family="Helvetica,sans-Serif" font-size="10.00"> random</text>
</g>
</g>
</svg>
