<?xml version="1.0" encoding="UTF-8" standalone="no"?>
<!DOCTYPE svg PUBLIC "-//W3C//DTD SVG 1.1//EN"
 "http://www.w3.org/Graphics/SVG/1.1/DTD/svg11.dtd">
<!-- Generated by graphviz version 2.43.0 (0)
 -->
<!-- Title: BinnedSplineHandler Pages: 1 -->
<svg width="1285pt" height="813pt"
 viewBox="0.00 0.00 1285.00 813.39" xmlns="http://www.w3.org/2000/svg" xmlns:xlink="http://www.w3.org/1999/xlink">
<g id="graph0" class="graph" transform="scale(1 1) rotate(0) translate(4 809.39)">
<title>BinnedSplineHandler</title>
<!-- Node1 -->
<g id="node1" class="node">
<title>Node1</title>
<g id="a_node1"><a xlink:title="Bin&#45;by&#45;bin class calculating response for spline parameters.">
<polygon fill="#999999" stroke="#666666" points="1277,-343.5 1158,-343.5 1158,-324.5 1277,-324.5 1277,-343.5"/>
<text text-anchor="middle" x="1217.5" y="-331.5" font-family="Helvetica,sans-Serif" font-size="10.00">BinnedSplineHandler</text>
</a>
</g>
</g>
<!-- Node2 -->
<g id="node2" class="node">
<title>Node2</title>
<g id="a_node2"><a xlink:href="classSplineBase.html" target="_top" xlink:title="Base class for calculating weight from spline.">
<polygon fill="white" stroke="#666666" points="942.5,-801.5 871.5,-801.5 871.5,-782.5 942.5,-782.5 942.5,-801.5"/>
<text text-anchor="middle" x="907" y="-789.5" font-family="Helvetica,sans-Serif" font-size="10.00">SplineBase</text>
</a>
</g>
</g>
<!-- Node2&#45;&gt;Node1 -->
<g id="edge1" class="edge">
<title>Node2&#45;&gt;Node1</title>
<path fill="none" stroke="#63b8ff" d="M952.71,-800.79C1004.81,-808.21 1090.12,-811.17 1140,-764 1203.64,-703.83 1214.72,-402.13 1216.27,-343.78"/>
<polygon fill="#63b8ff" stroke="#63b8ff" points="953.17,-797.32 942.75,-799.26 952.1,-804.24 953.17,-797.32"/>
</g>
<!-- Node3 -->
<g id="node3" class="node">
<title>Node3</title>
<g id="a_node3"><a xlink:title=" ">
<polygon fill="white" stroke="#666666" points="619,-804.5 460,-804.5 460,-785.5 619,-785.5 619,-804.5"/>
<text text-anchor="middle" x="539.5" y="-792.5" font-family="Helvetica,sans-Serif" font-size="10.00">std::vector&lt; FastSplineInfo &gt;</text>
</a>
</g>
</g>
<!-- Node3&#45;&gt;Node2 -->
<g id="edge2" class="edge">
<title>Node3&#45;&gt;Node2</title>
<path fill="none" stroke="#9a32cd" stroke-dasharray="5,2" d="M629.65,-794.27C707.53,-793.63 816.46,-792.73 871.4,-792.28"/>
<polygon fill="#9a32cd" stroke="#9a32cd" points="629.33,-790.77 619.36,-794.35 629.39,-797.77 629.33,-790.77"/>
<text text-anchor="middle" x="725.5" y="-797" font-family="Helvetica,sans-Serif" font-size="10.00"> SplineInfoArray</text>
</g>
<!-- Node4 -->
<g id="node4" class="node">
<title>Node4</title>
<g id="a_node4"><a xlink:href="classParameterHandlerGeneric.html" target="_top" xlink:title="Class responsible for handling of systematic error parameters with different types defined in the con...">
<polygon fill="white" stroke="#666666" points="978.5,-547.5 835.5,-547.5 835.5,-528.5 978.5,-528.5 978.5,-547.5"/>
<text text-anchor="middle" x="907" y="-535.5" font-family="Helvetica,sans-Serif" font-size="10.00">ParameterHandlerGeneric</text>
</a>
</g>
</g>
<!-- Node4&#45;&gt;Node1 -->
<g id="edge3" class="edge">
<title>Node4&#45;&gt;Node1</title>
<path fill="none" stroke="#9a32cd" stroke-dasharray="5,2" d="M968.09,-526.06C1018.64,-513.5 1090.4,-489.48 1140,-447 1175.81,-416.33 1202.17,-365.06 1212.14,-343.75"/>
<polygon fill="#9a32cd" stroke="#9a32cd" points="967.18,-522.68 958.28,-528.43 968.82,-529.49 967.18,-522.68"/>
<text text-anchor="middle" x="1078" y="-513" font-family="Helvetica,sans-Serif" font-size="10.00"> xsec</text>
</g>
<!-- Node5 -->
<g id="node5" class="node">
<title>Node5</title>
<g id="a_node5"><a xlink:href="classParameterHandlerBase.html" target="_top" xlink:title="Base class responsible for handling of systematic error parameters. Capable of using PCA or using ada...">
<polygon fill="white" stroke="#666666" points="604,-414.5 475,-414.5 475,-395.5 604,-395.5 604,-414.5"/>
<text text-anchor="middle" x="539.5" y="-402.5" font-family="Helvetica,sans-Serif" font-size="10.00">ParameterHandlerBase</text>
</a>
</g>
</g>
<!-- Node5&#45;&gt;Node4 -->
<g id="edge4" class="edge">
<title>Node5&#45;&gt;Node4</title>
<path fill="none" stroke="#63b8ff" d="M614.22,-405.36C680.6,-407.27 771.67,-414.3 798,-438 823.8,-461.22 791.8,-489.11 816,-514 822.09,-520.26 829.61,-524.95 837.69,-528.45"/>
<polygon fill="#63b8ff" stroke="#63b8ff" points="614.28,-401.86 604.2,-405.11 614.11,-408.86 614.28,-401.86"/>
</g>
<!-- Node6 -->
<g id="node6" class="node">
<title>Node6</title>
<g id="a_node6"><a xlink:title=" ">
<polygon fill="white" stroke="#666666" points="264.5,-109.5 199.5,-109.5 199.5,-90.5 264.5,-90.5 264.5,-109.5"/>
<text text-anchor="middle" x="232" y="-97.5" font-family="Helvetica,sans-Serif" font-size="10.00">std::string</text>
</a>
</g>
</g>
<!-- Node6&#45;&gt;Node5 -->
<g id="edge5" class="edge">
<title>Node6&#45;&gt;Node5</title>
<path fill="none" stroke="#9a32cd" stroke-dasharray="5,2" d="M274.2,-111.14C319.62,-125.76 390.88,-156.12 426,-210 447.35,-242.75 417.86,-355.93 444,-385 452.07,-393.98 463.08,-399.49 474.73,-402.77"/>
<polygon fill="#9a32cd" stroke="#9a32cd" points="275.24,-107.79 264.65,-108.17 273.16,-114.48 275.24,-107.79"/>
<text text-anchor="middle" x="383.5" y="-224" font-family="Helvetica,sans-Serif" font-size="10.00"> inputFile</text>
<text text-anchor="middle" x="383.5" y="-213" font-family="Helvetica,sans-Serif" font-size="10.00">matrixName</text>
</g>
<!-- Node29 -->
<g id="node29" class="node">
<title>Node29</title>
<g id="a_node29"><a xlink:href="classMaCh3Modes.html" target="_top" xlink:title="KS: Class describing MaCh3 modes used in the analysis, it is being initialised from config.">
<polygon fill="white" stroke="#666666" points="948.5,-49.5 865.5,-49.5 865.5,-30.5 948.5,-30.5 948.5,-49.5"/>
<text text-anchor="middle" x="907" y="-37.5" font-family="Helvetica,sans-Serif" font-size="10.00">MaCh3Modes</text>
</a>
</g>
</g>
<!-- Node6&#45;&gt;Node29 -->
<g id="edge35" class="edge">
<title>Node6&#45;&gt;Node29</title>
<path fill="none" stroke="#9a32cd" stroke-dasharray="5,2" d="M274.75,-94.52C317.28,-89.07 385.15,-80.71 444,-75 464.79,-72.98 756.1,-51.19 865.17,-43.05"/>
<polygon fill="#9a32cd" stroke="#9a32cd" points="274.24,-91.06 264.77,-95.81 275.13,-98 274.24,-91.06"/>
<text text-anchor="middle" x="539.5" y="-89" font-family="Helvetica,sans-Serif" font-size="10.00"> Generator</text>
<text text-anchor="middle" x="539.5" y="-78" font-family="Helvetica,sans-Serif" font-size="10.00">Title</text>
</g>
<!-- Node7 -->
<g id="node7" class="node">
<title>Node7</title>
<g id="a_node7"><a xlink:title=" ">
<polygon fill="white" stroke="#666666" points="104,-115 0,-115 0,-85 104,-85 104,-115"/>
<text text-anchor="start" x="8" y="-103" font-family="Helvetica,sans-Serif" font-size="10.00">std::basic_string&lt;</text>
<text text-anchor="middle" x="52" y="-92" font-family="Helvetica,sans-Serif" font-size="10.00"> Char &gt;</text>
</a>
</g>
</g>
<!-- Node7&#45;&gt;Node6 -->
<g id="edge6" class="edge">
<title>Node7&#45;&gt;Node6</title>
<path fill="none" stroke="#63b8ff" d="M114.33,-100C142.93,-100 175.76,-100 199.3,-100"/>
<polygon fill="#63b8ff" stroke="#63b8ff" points="114.01,-96.5 104.01,-100 114.01,-103.5 114.01,-96.5"/>
</g>
<!-- Node8 -->
<g id="node8" class="node">
<title>Node8</title>
<g id="a_node8"><a xlink:title=" ">
<polygon fill="white" stroke="#666666" points="297.5,-408 166.5,-408 166.5,-378 297.5,-378 297.5,-408"/>
<text text-anchor="start" x="174.5" y="-396" font-family="Helvetica,sans-Serif" font-size="10.00">std::vector&lt; std::vector</text>
<text text-anchor="middle" x="232" y="-385" font-family="Helvetica,sans-Serif" font-size="10.00">&lt; double &gt; &gt;</text>
</a>
</g>
</g>
<!-- Node8&#45;&gt;Node5 -->
<g id="edge7" class="edge">
<title>Node8&#45;&gt;Node5</title>
<path fill="none" stroke="#9a32cd" stroke-dasharray="5,2" d="M307.81,-395.94C359.02,-397.95 426.21,-400.59 474.85,-402.5"/>
<polygon fill="#9a32cd" stroke="#9a32cd" points="307.92,-392.44 297.79,-395.54 307.64,-399.43 307.92,-392.44"/>
<text text-anchor="middle" x="383.5" y="-403" font-family="Helvetica,sans-Serif" font-size="10.00"> InvertCovMatrix</text>
</g>
<!-- Node9 -->
<g id="node9" class="node">
<title>Node9</title>
<g id="a_node9"><a xlink:title=" ">
<polygon fill="white" stroke="#666666" points="299,-360 165,-360 165,-330 299,-330 299,-360"/>
<text text-anchor="start" x="173" y="-348" font-family="Helvetica,sans-Serif" font-size="10.00">std::vector&lt; std::unique</text>
<text text-anchor="middle" x="232" y="-337" font-family="Helvetica,sans-Serif" font-size="10.00">_ptr&lt; TRandom3 &gt; &gt;</text>
</a>
</g>
</g>
<!-- Node9&#45;&gt;Node5 -->
<g id="edge8" class="edge">
<title>Node9&#45;&gt;Node5</title>
<path fill="none" stroke="#9a32cd" stroke-dasharray="5,2" d="M308.97,-359.34C344.53,-366.11 387.46,-374.37 426,-382 447.9,-386.34 472.17,-391.28 492.55,-395.47"/>
<polygon fill="#9a32cd" stroke="#9a32cd" points="309.62,-355.9 299.14,-357.47 308.31,-362.78 309.62,-355.9"/>
<text text-anchor="middle" x="383.5" y="-385" font-family="Helvetica,sans-Serif" font-size="10.00"> random_number</text>
</g>
<!-- Node10 -->
<g id="node10" class="node">
<title>Node10</title>
<g id="a_node10"><a xlink:title=" ">
<polygon fill="white" stroke="#666666" points="302,-657.5 162,-657.5 162,-638.5 302,-638.5 302,-657.5"/>
<text text-anchor="middle" x="232" y="-645.5" font-family="Helvetica,sans-Serif" font-size="10.00">std::vector&lt; std::string &gt;</text>
</a>
</g>
</g>
<!-- Node10&#45;&gt;Node1 -->
<g id="edge21" class="edge">
<title>Node10&#45;&gt;Node1</title>
<path fill="none" stroke="#9a32cd" stroke-dasharray="5,2" d="M285.03,-659.53C361.86,-674.9 510.03,-698.3 635,-681 747.46,-665.44 1119.24,-544.36 1140,-525 1195.91,-472.87 1211.8,-374.42 1215.51,-343.53"/>
<polygon fill="#9a32cd" stroke="#9a32cd" points="285.62,-656.07 275.13,-657.51 284.23,-662.93 285.62,-656.07"/>
<text text-anchor="middle" x="725.5" y="-691" font-family="Helvetica,sans-Serif" font-size="10.00"> SampleNames</text>
<text text-anchor="middle" x="725.5" y="-680" font-family="Helvetica,sans-Serif" font-size="10.00">UniqueSystNames</text>
</g>
<!-- Node10&#45;&gt;Node4 -->
<g id="edge16" class="edge">
<title>Node10&#45;&gt;Node4</title>
<path fill="none" stroke="#9a32cd" stroke-dasharray="5,2" d="M312.29,-653.87C423.88,-659.47 632.16,-660.11 798,-604 836.3,-591.04 875.34,-562.62 894.27,-547.65"/>
<polygon fill="#9a32cd" stroke="#9a32cd" points="312.3,-650.37 302.13,-653.33 311.93,-657.36 312.3,-650.37"/>
<text text-anchor="middle" x="539.5" y="-669" font-family="Helvetica,sans-Serif" font-size="10.00"> _ParameterGroup</text>
<text text-anchor="middle" x="539.5" y="-658" font-family="Helvetica,sans-Serif" font-size="10.00">_fSplineNames</text>
</g>
<!-- Node10&#45;&gt;Node5 -->
<g id="edge9" class="edge">
<title>Node10&#45;&gt;Node5</title>
<path fill="none" stroke="#9a32cd" stroke-dasharray="5,2" d="M274.01,-635.05C318.93,-618.62 389.43,-585.75 426,-532 453.37,-491.77 410.17,-458.98 444,-424 452.26,-415.46 463.21,-410.2 474.72,-407.05"/>
<polygon fill="#9a32cd" stroke="#9a32cd" points="272.82,-631.76 264.56,-638.41 275.16,-638.36 272.82,-631.76"/>
<text text-anchor="middle" x="383.5" y="-616" font-family="Helvetica,sans-Serif" font-size="10.00"> _fFancyNames</text>
<text text-anchor="middle" x="383.5" y="-605" font-family="Helvetica,sans-Serif" font-size="10.00">_fNames</text>
</g>
<!-- Node11 -->
<g id="node11" class="node">
<title>Node11</title>
<g id="a_node11"><a xlink:title=" ">
<polygon fill="white" stroke="#666666" points="294,-250.5 170,-250.5 170,-231.5 294,-231.5 294,-250.5"/>
<text text-anchor="middle" x="232" y="-238.5" font-family="Helvetica,sans-Serif" font-size="10.00">std::vector&lt; double &gt;</text>
</a>
</g>
</g>
<!-- Node11&#45;&gt;Node5 -->
<g id="edge10" class="edge">
<title>Node11&#45;&gt;Node5</title>
<path fill="none" stroke="#9a32cd" stroke-dasharray="5,2" d="M304.62,-233.88C345.58,-233.94 394.86,-241.71 426,-273 461.56,-308.74 409.24,-348.48 444,-385 452.21,-393.62 463.13,-399 474.64,-402.27"/>
<polygon fill="#9a32cd" stroke="#9a32cd" points="304.35,-230.38 294.4,-234.02 304.45,-237.38 304.35,-230.38"/>
<text text-anchor="middle" x="383.5" y="-353" font-family="Helvetica,sans-Serif" font-size="10.00"> _fCurrVal</text>
<text text-anchor="middle" x="383.5" y="-342" font-family="Helvetica,sans-Serif" font-size="10.00">_fError</text>
<text text-anchor="middle" x="383.5" y="-331" font-family="Helvetica,sans-Serif" font-size="10.00">_fGenerated</text>
<text text-anchor="middle" x="383.5" y="-320" font-family="Helvetica,sans-Serif" font-size="10.00">_fIndivStepScale</text>
<text text-anchor="middle" x="383.5" y="-309" font-family="Helvetica,sans-Serif" font-size="10.00">_fLowBound</text>
<text text-anchor="middle" x="383.5" y="-298" font-family="Helvetica,sans-Serif" font-size="10.00">_fPreFitValue</text>
<text text-anchor="middle" x="383.5" y="-287" font-family="Helvetica,sans-Serif" font-size="10.00">_fPropVal</text>
<text text-anchor="middle" x="383.5" y="-276" font-family="Helvetica,sans-Serif" font-size="10.00">_fUpBound</text>
</g>
<!-- Node12 -->
<g id="node12" class="node">
<title>Node12</title>
<g id="a_node12"><a xlink:title=" ">
<polygon fill="white" stroke="#666666" points="288,-531.5 176,-531.5 176,-512.5 288,-512.5 288,-531.5"/>
<text text-anchor="middle" x="232" y="-519.5" font-family="Helvetica,sans-Serif" font-size="10.00">std::vector&lt; bool &gt;</text>
</a>
</g>
</g>
<!-- Node12&#45;&gt;Node5 -->
<g id="edge11" class="edge">
<title>Node12&#45;&gt;Node5</title>
<path fill="none" stroke="#9a32cd" stroke-dasharray="5,2" d="M298.36,-523.65C339.74,-521.23 391.72,-511.29 426,-480 445.31,-462.38 424.5,-441.42 444,-424 452.61,-416.31 463.45,-411.38 474.68,-408.29"/>
<polygon fill="#9a32cd" stroke="#9a32cd" points="298.19,-520.16 288.36,-524.11 298.51,-527.15 298.19,-520.16"/>
<text text-anchor="middle" x="383.5" y="-520" font-family="Helvetica,sans-Serif" font-size="10.00"> _fFlatPrior</text>
</g>
<!-- Node13 -->
<g id="node13" class="node">
<title>Node13</title>
<g id="a_node13"><a xlink:title=" ">
<polygon fill="white" stroke="#666666" points="297.5,-752 166.5,-752 166.5,-722 297.5,-722 297.5,-752"/>
<text text-anchor="start" x="174.5" y="-740" font-family="Helvetica,sans-Serif" font-size="10.00">std::vector&lt; std::vector</text>
<text text-anchor="middle" x="232" y="-729" font-family="Helvetica,sans-Serif" font-size="10.00">&lt; std::string &gt; &gt;</text>
</a>
</g>
</g>
<!-- Node13&#45;&gt;Node1 -->
<g id="edge23" class="edge">
<title>Node13&#45;&gt;Node1</title>
<path fill="none" stroke="#9a32cd" stroke-dasharray="5,2" d="M307.65,-748.69C482.28,-771.35 919.33,-800.02 1140,-563 1201.98,-496.43 1213.85,-378.17 1216.03,-343.69"/>
<polygon fill="#9a32cd" stroke="#9a32cd" points="307.9,-745.19 297.53,-747.34 306.98,-752.13 307.9,-745.19"/>
<text text-anchor="middle" x="725.5" y="-772" font-family="Helvetica,sans-Serif" font-size="10.00"> DimensionLabels</text>
<text text-anchor="middle" x="725.5" y="-761" font-family="Helvetica,sans-Serif" font-size="10.00">SplineFileParPrefixNames</text>
</g>
<!-- Node13&#45;&gt;Node5 -->
<g id="edge12" class="edge">
<title>Node13&#45;&gt;Node5</title>
<path fill="none" stroke="#9a32cd" stroke-dasharray="5,2" d="M296.49,-718.6C340.57,-702.29 396.49,-673.81 426,-628 450.65,-589.74 413.64,-457.91 444,-424 452.04,-415.02 463.03,-409.59 474.68,-406.42"/>
<polygon fill="#9a32cd" stroke="#9a32cd" points="295.23,-715.33 286.99,-721.99 297.59,-721.92 295.23,-715.33"/>
<text text-anchor="middle" x="383.5" y="-699" font-family="Helvetica,sans-Serif" font-size="10.00"> _fSampleNames</text>
</g>
<!-- Node14 -->
<g id="node14" class="node">
<title>Node14</title>
<g id="a_node14"><a xlink:title=" ">
<polygon fill="white" stroke="#666666" points="317,-445.5 147,-445.5 147,-426.5 317,-426.5 317,-445.5"/>
<text text-anchor="middle" x="232" y="-433.5" font-family="Helvetica,sans-Serif" font-size="10.00">std::unique_ptr&lt; PCAHandler &gt;</text>
</a>
</g>
</g>
<!-- Node14&#45;&gt;Node5 -->
<g id="edge13" class="edge">
<title>Node14&#45;&gt;Node5</title>
<path fill="none" stroke="#9a32cd" stroke-dasharray="5,2" d="M327.36,-426.42C375.26,-421.56 432.18,-415.79 474.84,-411.46"/>
<polygon fill="#9a32cd" stroke="#9a32cd" points="326.88,-422.96 317.29,-427.45 327.59,-429.92 326.88,-422.96"/>
<text text-anchor="middle" x="383.5" y="-427" font-family="Helvetica,sans-Serif" font-size="10.00"> PCAObj</text>
</g>
<!-- Node15 -->
<g id="node15" class="node">
<title>Node15</title>
<g id="a_node15"><a xlink:title=" ">
<polygon fill="white" stroke="#666666" points="323,-494 141,-494 141,-464 323,-464 323,-494"/>
<text text-anchor="start" x="149" y="-482" font-family="Helvetica,sans-Serif" font-size="10.00">std::unique_ptr&lt; adaptive</text>
<text text-anchor="middle" x="232" y="-471" font-family="Helvetica,sans-Serif" font-size="10.00">_mcmc::AdaptiveMCMCHandler &gt;</text>
</a>
</g>
</g>
<!-- Node15&#45;&gt;Node5 -->
<g id="edge14" class="edge">
<title>Node15&#45;&gt;Node5</title>
<path fill="none" stroke="#9a32cd" stroke-dasharray="5,2" d="M333.29,-467.81C364.07,-461.88 397.36,-452.82 426,-439 435.38,-434.47 434.61,-428.5 444,-424 453.58,-419.41 464.23,-415.93 474.82,-413.29"/>
<polygon fill="#9a32cd" stroke="#9a32cd" points="332.6,-464.38 323.4,-469.63 333.86,-471.26 332.6,-464.38"/>
<text text-anchor="middle" x="383.5" y="-468" font-family="Helvetica,sans-Serif" font-size="10.00"> AdaptiveHandler</text>
</g>
<!-- Node16 -->
<g id="node16" class="node">
<title>Node16</title>
<g id="a_node16"><a xlink:title=" ">
<polygon fill="white" stroke="#666666" points="606.5,-611.5 472.5,-611.5 472.5,-592.5 606.5,-592.5 606.5,-611.5"/>
<text text-anchor="middle" x="539.5" y="-599.5" font-family="Helvetica,sans-Serif" font-size="10.00">std::vector&lt; SystType &gt;</text>
</a>
</g>
</g>
<!-- Node16&#45;&gt;Node4 -->
<g id="edge15" class="edge">
<title>Node16&#45;&gt;Node4</title>
<path fill="none" stroke="#9a32cd" stroke-dasharray="5,2" d="M616.56,-594.24C668.05,-588.35 737.46,-579.19 798,-567 824.07,-561.75 853.17,-553.81 874.59,-547.57"/>
<polygon fill="#9a32cd" stroke="#9a32cd" points="616.05,-590.77 606.5,-595.37 616.83,-597.73 616.05,-590.77"/>
<text text-anchor="middle" x="725.5" y="-592" font-family="Helvetica,sans-Serif" font-size="10.00"> _fParamType</text>
</g>
<!-- Node17 -->
<g id="node17" class="node">
<title>Node17</title>
<g id="a_node17"><a xlink:title=" ">
<polygon fill="white" stroke="#666666" points="600.5,-574 478.5,-574 478.5,-544 600.5,-544 600.5,-574"/>
<text text-anchor="start" x="486.5" y="-562" font-family="Helvetica,sans-Serif" font-size="10.00">std::vector&lt; std::map</text>
<text text-anchor="middle" x="539.5" y="-551" font-family="Helvetica,sans-Serif" font-size="10.00">&lt; int, int &gt; &gt;</text>
</a>
</g>
</g>
<!-- Node17&#45;&gt;Node4 -->
<g id="edge17" class="edge">
<title>Node17&#45;&gt;Node4</title>
<path fill="none" stroke="#9a32cd" stroke-dasharray="5,2" d="M610.94,-554.95C675.49,-551.24 770.57,-545.78 835.22,-542.07"/>
<polygon fill="#9a32cd" stroke="#9a32cd" points="610.64,-551.46 600.85,-555.53 611.04,-558.45 610.64,-551.46"/>
<text text-anchor="middle" x="725.5" y="-555" font-family="Helvetica,sans-Serif" font-size="10.00"> _fSystToGlobalSystIndexMap</text>
</g>
<!-- Node18 -->
<g id="node18" class="node">
<title>Node18</title>
<g id="a_node18"><a xlink:title=" ">
<polygon fill="white" stroke="#666666" points="625,-525.5 454,-525.5 454,-506.5 625,-506.5 625,-525.5"/>
<text text-anchor="middle" x="539.5" y="-513.5" font-family="Helvetica,sans-Serif" font-size="10.00">std::vector&lt; SplineParameter &gt;</text>
</a>
</g>
</g>
<!-- Node18&#45;&gt;Node4 -->
<g id="edge18" class="edge">
<title>Node18&#45;&gt;Node4</title>
<path fill="none" stroke="#9a32cd" stroke-dasharray="5,2" d="M635.4,-520.05C684.04,-522.31 744.21,-525.4 798,-529 810.11,-529.81 822.97,-530.78 835.44,-531.79"/>
<polygon fill="#9a32cd" stroke="#9a32cd" points="635.35,-516.54 625.2,-519.58 635.03,-523.54 635.35,-516.54"/>
<text text-anchor="middle" x="725.5" y="-532" font-family="Helvetica,sans-Serif" font-size="10.00"> SplineParams</text>
</g>
<!-- Node19 -->
<g id="node19" class="node">
<title>Node19</title>
<g id="a_node19"><a xlink:title=" ">
<polygon fill="white" stroke="#666666" points="623.5,-488.5 455.5,-488.5 455.5,-469.5 623.5,-469.5 623.5,-488.5"/>
<text text-anchor="middle" x="539.5" y="-476.5" font-family="Helvetica,sans-Serif" font-size="10.00">std::vector&lt; NormParameter &gt;</text>
</a>
</g>
</g>
<!-- Node19&#45;&gt;Node4 -->
<g id="edge19" class="edge">
<title>Node19&#45;&gt;Node4</title>
<path fill="none" stroke="#9a32cd" stroke-dasharray="5,2" d="M633.79,-481.74C683.27,-484.95 744.68,-491.74 798,-506 806.46,-508.26 807.74,-511.09 816,-514 831.71,-519.55 849.34,-524.51 864.81,-528.47"/>
<polygon fill="#9a32cd" stroke="#9a32cd" points="633.94,-478.24 623.75,-481.13 633.51,-485.23 633.94,-478.24"/>
<text text-anchor="middle" x="725.5" y="-509" font-family="Helvetica,sans-Serif" font-size="10.00"> NormParams</text>
</g>
<!-- Node20 -->
<g id="node20" class="node">
<title>Node20</title>
<g id="a_node20"><a xlink:title=" ">
<polygon fill="white" stroke="#666666" points="635,-451.5 444,-451.5 444,-432.5 635,-432.5 635,-451.5"/>
<text text-anchor="middle" x="539.5" y="-439.5" font-family="Helvetica,sans-Serif" font-size="10.00">std::vector&lt; FunctionalParameter &gt;</text>
</a>
</g>
</g>
<!-- Node20&#45;&gt;Node4 -->
<g id="edge20" class="edge">
<title>Node20&#45;&gt;Node4</title>
<path fill="none" stroke="#9a32cd" stroke-dasharray="5,2" d="M645.1,-441.72C705.53,-443.61 774.18,-449.92 798,-468 815.49,-481.27 799.63,-499.37 816,-514 822.99,-520.25 831.44,-524.9 840.32,-528.35"/>
<polygon fill="#9a32cd" stroke="#9a32cd" points="645.19,-438.23 635.1,-441.45 645,-445.22 645.19,-438.23"/>
<text text-anchor="middle" x="725.5" y="-471" font-family="Helvetica,sans-Serif" font-size="10.00"> FuncParams</text>
</g>
<!-- Node21 -->
<g id="node21" class="node">
<title>Node21</title>
<g id="a_node21"><a xlink:title=" ">
<polygon fill="white" stroke="#666666" points="591.5,-375.5 487.5,-375.5 487.5,-356.5 591.5,-356.5 591.5,-375.5"/>
<text text-anchor="middle" x="539.5" y="-363.5" font-family="Helvetica,sans-Serif" font-size="10.00">std::vector&lt; int &gt;</text>
</a>
</g>
</g>
<!-- Node21&#45;&gt;Node1 -->
<g id="edge22" class="edge">
<title>Node21&#45;&gt;Node1</title>
<path fill="none" stroke="#9a32cd" stroke-dasharray="5,2" d="M600.82,-377.32C656.46,-387.14 741.46,-400.62 816,-406 896.68,-411.83 917.39,-412.76 998,-406 1061.78,-400.65 1080.19,-404.78 1140,-382 1164.76,-372.57 1190.17,-354.67 1204.58,-343.6"/>
<polygon fill="#9a32cd" stroke="#9a32cd" points="601.25,-373.84 590.79,-375.53 600.02,-380.73 601.25,-373.84"/>
<text text-anchor="middle" x="907" y="-479" font-family="Helvetica,sans-Serif" font-size="10.00"> Dimensions</text>
<text text-anchor="middle" x="907" y="-468" font-family="Helvetica,sans-Serif" font-size="10.00">UniqueSystIndices</text>
<text text-anchor="middle" x="907" y="-457" font-family="Helvetica,sans-Serif" font-size="10.00">coeffindexvec</text>
<text text-anchor="middle" x="907" y="-446" font-family="Helvetica,sans-Serif" font-size="10.00">nOscChans</text>
<text text-anchor="middle" x="907" y="-435" font-family="Helvetica,sans-Serif" font-size="10.00">nSplineParams</text>
<text text-anchor="middle" x="907" y="-424" font-family="Helvetica,sans-Serif" font-size="10.00">uniquecoeffindices</text>
<text text-anchor="middle" x="907" y="-413" font-family="Helvetica,sans-Serif" font-size="10.00">uniquesplinevec_Monolith</text>
</g>
<!-- Node21&#45;&gt;Node29 -->
<g id="edge34" class="edge">
<title>Node21&#45;&gt;Node29</title>
<path fill="none" stroke="#9a32cd" stroke-dasharray="5,2" d="M565.44,-351.03C617.39,-318.48 737.36,-235.97 798,-134 815.52,-104.54 791.43,-82.9 816,-59 828.93,-46.42 847.99,-41.24 865.23,-39.38"/>
<polygon fill="#9a32cd" stroke="#9a32cd" points="563.52,-348.11 556.85,-356.34 567.2,-354.06 563.52,-348.11"/>
<text text-anchor="middle" x="725.5" y="-287" font-family="Helvetica,sans-Serif" font-size="10.00"> ModeMap</text>
</g>
<!-- Node22 -->
<g id="node22" class="node">
<title>Node22</title>
<g id="a_node22"><a xlink:title=" ">
<polygon fill="white" stroke="#666666" points="986.5,-397 827.5,-397 827.5,-367 986.5,-367 986.5,-397"/>
<text text-anchor="start" x="835.5" y="-385" font-family="Helvetica,sans-Serif" font-size="10.00">std::vector&lt; std::vector</text>
<text text-anchor="middle" x="907" y="-374" font-family="Helvetica,sans-Serif" font-size="10.00">&lt; std::vector&lt; TAxis * &gt; &gt; &gt;</text>
</a>
</g>
</g>
<!-- Node22&#45;&gt;Node1 -->
<g id="edge24" class="edge">
<title>Node22&#45;&gt;Node1</title>
<path fill="none" stroke="#9a32cd" stroke-dasharray="5,2" d="M996.5,-370.52C1039.84,-364.61 1092.74,-356.99 1140,-349 1149.74,-347.35 1160.15,-345.43 1170.05,-343.51"/>
<polygon fill="#9a32cd" stroke="#9a32cd" points="995.99,-367.06 986.55,-371.87 996.93,-373.99 995.99,-367.06"/>
<text text-anchor="middle" x="1078" y="-370" font-family="Helvetica,sans-Serif" font-size="10.00"> SplineBinning</text>
</g>
<!-- Node23 -->
<g id="node23" class="node">
<title>Node23</title>
<g id="a_node23"><a xlink:title=" ">
<polygon fill="white" stroke="#666666" points="975.5,-349 838.5,-349 838.5,-319 975.5,-319 975.5,-349"/>
<text text-anchor="start" x="846.5" y="-337" font-family="Helvetica,sans-Serif" font-size="10.00">std::vector&lt; std::vector</text>
<text text-anchor="middle" x="907" y="-326" font-family="Helvetica,sans-Serif" font-size="10.00">&lt; std::vector&lt; int &gt; &gt; &gt;</text>
</a>
</g>
</g>
<!-- Node23&#45;&gt;Node1 -->
<g id="edge25" class="edge">
<title>Node23&#45;&gt;Node1</title>
<path fill="none" stroke="#9a32cd" stroke-dasharray="5,2" d="M985.82,-334C1039.24,-334 1109.02,-334 1157.79,-334"/>
<polygon fill="#9a32cd" stroke="#9a32cd" points="985.7,-330.5 975.7,-334 985.7,-337.5 985.7,-330.5"/>
<text text-anchor="middle" x="1078" y="-337" font-family="Helvetica,sans-Serif" font-size="10.00"> SplineModeVecs</text>
</g>
<!-- Node24 -->
<g id="node24" class="node">
<title>Node24</title>
<g id="a_node24"><a xlink:title=" ">
<polygon fill="white" stroke="#666666" points="972.5,-301 841.5,-301 841.5,-271 972.5,-271 972.5,-301"/>
<text text-anchor="start" x="849.5" y="-289" font-family="Helvetica,sans-Serif" font-size="10.00">std::vector&lt; std::vector</text>
<text text-anchor="middle" x="907" y="-278" font-family="Helvetica,sans-Serif" font-size="10.00">&lt; int &gt; &gt;</text>
</a>
</g>
</g>
<!-- Node24&#45;&gt;Node1 -->
<g id="edge26" class="edge">
<title>Node24&#45;&gt;Node1</title>
<path fill="none" stroke="#9a32cd" stroke-dasharray="5,2" d="M982.73,-295.62C1028.28,-301.73 1087.6,-310.14 1140,-319 1149.74,-320.65 1160.15,-322.57 1170.05,-324.49"/>
<polygon fill="#9a32cd" stroke="#9a32cd" points="983.02,-292.13 972.64,-294.27 982.09,-299.07 983.02,-292.13"/>
<text text-anchor="middle" x="1078" y="-322" font-family="Helvetica,sans-Serif" font-size="10.00"> GlobalSystIndex</text>
</g>
<!-- Node25 -->
<g id="node25" class="node">
<title>Node25</title>
<g id="a_node25"><a xlink:title=" ">
<polygon fill="white" stroke="#666666" points="978.5,-253 835.5,-253 835.5,-223 978.5,-223 978.5,-253"/>
<text text-anchor="start" x="843.5" y="-241" font-family="Helvetica,sans-Serif" font-size="10.00">std::vector&lt; std::vector</text>
<text text-anchor="middle" x="907" y="-230" font-family="Helvetica,sans-Serif" font-size="10.00">&lt; SplineInterpolation &gt; &gt;</text>
</a>
</g>
</g>
<!-- Node25&#45;&gt;Node1 -->
<g id="edge27" class="edge">
<title>Node25&#45;&gt;Node1</title>
<path fill="none" stroke="#9a32cd" stroke-dasharray="5,2" d="M988.86,-246.91C1034.45,-253.75 1091.75,-265.46 1140,-285 1164.71,-295.01 1190.13,-313.15 1204.56,-324.34"/>
<polygon fill="#9a32cd" stroke="#9a32cd" points="989.13,-243.41 978.73,-245.43 988.13,-250.33 989.13,-243.41"/>
<text text-anchor="middle" x="1078" y="-288" font-family="Helvetica,sans-Serif" font-size="10.00"> SplineInterpolationTypes</text>
</g>
<!-- Node26 -->
<g id="node26" class="node">
<title>Node26</title>
<g id="a_node26"><a xlink:title=" ">
<polygon fill="white" stroke="#666666" points="998,-205 816,-205 816,-153 998,-153 998,-205"/>
<text text-anchor="start" x="824" y="-193" font-family="Helvetica,sans-Serif" font-size="10.00">std::vector&lt; std::vector</text>
<text text-anchor="start" x="824" y="-182" font-family="Helvetica,sans-Serif" font-size="10.00">&lt; std::vector&lt; std::vector</text>
<text text-anchor="start" x="824" y="-171" font-family="Helvetica,sans-Serif" font-size="10.00">&lt; std::vector&lt; std::vector</text>
<text text-anchor="middle" x="907" y="-160" font-family="Helvetica,sans-Serif" font-size="10.00">&lt; std::vector&lt; int &gt; &gt; &gt; &gt; &gt; &gt; &gt;</text>
</a>
</g>
</g>
<!-- Node26&#45;&gt;Node1 -->
<g id="edge28" class="edge">
<title>Node26&#45;&gt;Node1</title>
<path fill="none" stroke="#9a32cd" stroke-dasharray="5,2" d="M1008.06,-188.75C1051.29,-196.57 1100.83,-210.65 1140,-236 1175.7,-259.1 1201.75,-304.68 1211.87,-324.46"/>
<polygon fill="#9a32cd" stroke="#9a32cd" points="1008.53,-185.28 998.08,-187.04 1007.34,-192.18 1008.53,-185.28"/>
<text text-anchor="middle" x="1078" y="-239" font-family="Helvetica,sans-Serif" font-size="10.00"> indexvec</text>
</g>
<!-- Node27 -->
<g id="node27" class="node">
<title>Node27</title>
<g id="a_node27"><a xlink:title=" ">
<polygon fill="white" stroke="#666666" points="968,-135 846,-135 846,-105 968,-105 968,-135"/>
<text text-anchor="start" x="854" y="-123" font-family="Helvetica,sans-Serif" font-size="10.00">std::vector&lt; TSpline3</text>
<text text-anchor="middle" x="907" y="-112" font-family="Helvetica,sans-Serif" font-size="10.00">_red * &gt;</text>
</a>
</g>
</g>
<!-- Node27&#45;&gt;Node1 -->
<g id="edge29" class="edge">
<title>Node27&#45;&gt;Node1</title>
<path fill="none" stroke="#9a32cd" stroke-dasharray="5,2" d="M978.32,-121.51C1028.28,-125.98 1094.35,-139.21 1140,-176 1189.83,-216.16 1209.39,-296.75 1214.8,-324.42"/>
<polygon fill="#9a32cd" stroke="#9a32cd" points="978.48,-118.01 968.23,-120.7 977.92,-124.99 978.48,-118.01"/>
<text text-anchor="middle" x="1078" y="-179" font-family="Helvetica,sans-Serif" font-size="10.00"> splinevec_Monolith</text>
</g>
<!-- Node28 -->
<g id="node28" class="node">
<title>Node28</title>
<g id="a_node28"><a xlink:title=" ">
<polygon fill="white" stroke="#666666" points="978.5,-86.5 835.5,-86.5 835.5,-67.5 978.5,-67.5 978.5,-86.5"/>
<text text-anchor="middle" x="907" y="-74.5" font-family="Helvetica,sans-Serif" font-size="10.00">std::vector&lt; M3::float_t &gt;</text>
</a>
</g>
</g>
<!-- Node28&#45;&gt;Node1 -->
<g id="edge30" class="edge">
<title>Node28&#45;&gt;Node1</title>
<path fill="none" stroke="#9a32cd" stroke-dasharray="5,2" d="M988.83,-69.05C1037.75,-68.64 1098.48,-76.53 1140,-111 1208.65,-168 1215.86,-289.63 1216.48,-324.49"/>
<polygon fill="#9a32cd" stroke="#9a32cd" points="988.51,-65.55 978.59,-69.25 988.65,-72.55 988.51,-65.55"/>
<text text-anchor="middle" x="1078" y="-114" font-family="Helvetica,sans-Serif" font-size="10.00"> weightvec_Monolith</text>
</g>
<!-- Node29&#45;&gt;Node1 -->
<g id="edge31" class="edge">
<title>Node29&#45;&gt;Node1</title>
<path fill="none" stroke="#9a32cd" stroke-dasharray="5,2" d="M953.77,-28.47C1005.03,-18.49 1087.73,-11.55 1140,-54 1184,-89.74 1209.75,-278.95 1215.34,-324.25"/>
<polygon fill="#9a32cd" stroke="#9a32cd" points="953.05,-25.05 943.96,-30.5 954.46,-31.9 953.05,-25.05"/>
<text text-anchor="middle" x="1078" y="-57" font-family="Helvetica,sans-Serif" font-size="10.00"> Modes</text>
</g>
<!-- Node30 -->
<g id="node30" class="node">
<title>Node30</title>
<g id="a_node30"><a xlink:title=" ">
<polygon fill="white" stroke="#666666" points="600.5,-136 478.5,-136 478.5,-106 600.5,-106 600.5,-136"/>
<text text-anchor="start" x="486.5" y="-124" font-family="Helvetica,sans-Serif" font-size="10.00">std::map&lt; std::string,</text>
<text text-anchor="middle" x="539.5" y="-113" font-family="Helvetica,sans-Serif" font-size="10.00"> MaCh3Modes_t &gt;</text>
</a>
</g>
</g>
<!-- Node30&#45;&gt;Node29 -->
<g id="edge32" class="edge">
<title>Node30&#45;&gt;Node29</title>
<path fill="none" stroke="#9a32cd" stroke-dasharray="5,2" d="M610.75,-122.65C665.08,-121.02 740.47,-112.18 798,-80 808.73,-74 805.43,-65.27 816,-59 830.84,-50.21 849.17,-45.45 865.41,-42.89"/>
<polygon fill="#9a32cd" stroke="#9a32cd" points="610.44,-119.16 600.52,-122.89 610.6,-126.16 610.44,-119.16"/>
<text text-anchor="middle" x="725.5" y="-122" font-family="Helvetica,sans-Serif" font-size="10.00"> Mode</text>
</g>
<!-- Node31 -->
<g id="node31" class="node">
<title>Node31</title>
<g id="a_node31"><a xlink:title=" ">
<polygon fill="white" stroke="#666666" points="608,-30 471,-30 471,0 608,0 608,-30"/>
<text text-anchor="start" x="479" y="-18" font-family="Helvetica,sans-Serif" font-size="10.00">std::map&lt; MaCh3Modes</text>
<text text-anchor="middle" x="539.5" y="-7" font-family="Helvetica,sans-Serif" font-size="10.00">_t, MaCh3ModeInfo &gt;</text>
</a>
</g>
</g>
<!-- Node31&#45;&gt;Node29 -->
<g id="edge33" class="edge">
<title>Node31&#45;&gt;Node29</title>
<path fill="none" stroke="#9a32cd" stroke-dasharray="5,2" d="M618.82,-20.36C694.46,-25.53 806.03,-33.16 865.38,-37.22"/>
<polygon fill="#9a32cd" stroke="#9a32cd" points="618.61,-16.83 608.39,-19.64 618.13,-23.82 618.61,-16.83"/>
<text text-anchor="middle" x="725.5" y="-36" font-family="Helvetica,sans-Serif" font-size="10.00"> fMode</text>
</g>
</g>
</svg>
