<?xml version="1.0" encoding="UTF-8" standalone="no"?>
<!DOCTYPE svg PUBLIC "-//W3C//DTD SVG 1.1//EN"
 "http://www.w3.org/Graphics/SVG/1.1/DTD/svg11.dtd">
<!-- Generated by graphviz version 2.43.0 (0)
 -->
<!-- Title: ParameterHandlerOsc Pages: 1 -->
<svg width="741pt" height="458pt"
 viewBox="0.00 0.00 741.00 458.00" xmlns="http://www.w3.org/2000/svg" xmlns:xlink="http://www.w3.org/1999/xlink">
<g id="graph0" class="graph" transform="scale(1 1) rotate(0) translate(4 454)">
<title>ParameterHandlerOsc</title>
<!-- Node1 -->
<g id="node1" class="node">
<title>Node1</title>
<g id="a_node1"><a xlink:title="Class responsible for handling of neutrino oscillation parameters.">
<polygon fill="#999999" stroke="#666666" points="733,-187.5 610,-187.5 610,-168.5 733,-168.5 733,-187.5"/>
<text text-anchor="middle" x="671.5" y="-175.5" font-family="Helvetica,sans-Serif" font-size="10.00">ParameterHandlerOsc</text>
</a>
</g>
</g>
<!-- Node2 -->
<g id="node2" class="node">
<title>Node2</title>
<g id="a_node2"><a xlink:href="classParameterHandlerBase.html" target="_top" xlink:title="Base class responsible for handling of systematic error parameters. Capable of using PCA or using ada...">
<polygon fill="white" stroke="#666666" points="573,-187.5 444,-187.5 444,-168.5 573,-168.5 573,-187.5"/>
<text text-anchor="middle" x="508.5" y="-175.5" font-family="Helvetica,sans-Serif" font-size="10.00">ParameterHandlerBase</text>
</a>
</g>
</g>
<!-- Node2&#45;&gt;Node1 -->
<g id="edge1" class="edge">
<title>Node2&#45;&gt;Node1</title>
<path fill="none" stroke="#63b8ff" d="M583.18,-178C592.14,-178 601.21,-178 609.96,-178"/>
<polygon fill="#63b8ff" stroke="#63b8ff" points="583.13,-174.5 573.13,-178 583.13,-181.5 583.13,-174.5"/>
</g>
<!-- Node3 -->
<g id="node3" class="node">
<title>Node3</title>
<g id="a_node3"><a xlink:title=" ">
<polygon fill="white" stroke="#666666" points="264.5,-433.5 199.5,-433.5 199.5,-414.5 264.5,-414.5 264.5,-433.5"/>
<text text-anchor="middle" x="232" y="-421.5" font-family="Helvetica,sans-Serif" font-size="10.00">std::string</text>
</a>
</g>
</g>
<!-- Node3&#45;&gt;Node2 -->
<g id="edge2" class="edge">
<title>Node3&#45;&gt;Node2</title>
<path fill="none" stroke="#9a32cd" stroke-dasharray="5,2" d="M274.57,-429.63C317.23,-433.02 383.24,-431.35 426,-397 494.63,-341.87 505.47,-222.85 507.18,-187.86"/>
<polygon fill="#9a32cd" stroke="#9a32cd" points="274.8,-426.13 264.52,-428.7 274.15,-433.11 274.8,-426.13"/>
<text text-anchor="middle" x="383.5" y="-442" font-family="Helvetica,sans-Serif" font-size="10.00"> inputFile</text>
<text text-anchor="middle" x="383.5" y="-431" font-family="Helvetica,sans-Serif" font-size="10.00">matrixName</text>
</g>
<!-- Node4 -->
<g id="node4" class="node">
<title>Node4</title>
<g id="a_node4"><a xlink:title=" ">
<polygon fill="white" stroke="#666666" points="104,-439 0,-439 0,-409 104,-409 104,-439"/>
<text text-anchor="start" x="8" y="-427" font-family="Helvetica,sans-Serif" font-size="10.00">std::basic_string&lt;</text>
<text text-anchor="middle" x="52" y="-416" font-family="Helvetica,sans-Serif" font-size="10.00"> Char &gt;</text>
</a>
</g>
</g>
<!-- Node4&#45;&gt;Node3 -->
<g id="edge3" class="edge">
<title>Node4&#45;&gt;Node3</title>
<path fill="none" stroke="#63b8ff" d="M114.33,-424C142.93,-424 175.76,-424 199.3,-424"/>
<polygon fill="#63b8ff" stroke="#63b8ff" points="114.01,-420.5 104.01,-424 114.01,-427.5 114.01,-420.5"/>
</g>
<!-- Node5 -->
<g id="node5" class="node">
<title>Node5</title>
<g id="a_node5"><a xlink:title=" ">
<polygon fill="white" stroke="#666666" points="297.5,-396 166.5,-396 166.5,-366 297.5,-366 297.5,-396"/>
<text text-anchor="start" x="174.5" y="-384" font-family="Helvetica,sans-Serif" font-size="10.00">std::vector&lt; std::vector</text>
<text text-anchor="middle" x="232" y="-373" font-family="Helvetica,sans-Serif" font-size="10.00">&lt; double &gt; &gt;</text>
</a>
</g>
</g>
<!-- Node5&#45;&gt;Node2 -->
<g id="edge4" class="edge">
<title>Node5&#45;&gt;Node2</title>
<path fill="none" stroke="#9a32cd" stroke-dasharray="5,2" d="M308.1,-385.36C346.74,-383.89 392.6,-375.99 426,-351 482.36,-308.83 501.26,-217.86 506.1,-187.84"/>
<polygon fill="#9a32cd" stroke="#9a32cd" points="307.84,-381.86 297.93,-385.6 308.01,-388.86 307.84,-381.86"/>
<text text-anchor="middle" x="383.5" y="-385" font-family="Helvetica,sans-Serif" font-size="10.00"> InvertCovMatrix</text>
</g>
<!-- Node6 -->
<g id="node6" class="node">
<title>Node6</title>
<g id="a_node6"><a xlink:title=" ">
<polygon fill="white" stroke="#666666" points="299,-348 165,-348 165,-318 299,-318 299,-348"/>
<text text-anchor="start" x="173" y="-336" font-family="Helvetica,sans-Serif" font-size="10.00">std::vector&lt; std::unique</text>
<text text-anchor="middle" x="232" y="-325" font-family="Helvetica,sans-Serif" font-size="10.00">_ptr&lt; TRandom3 &gt; &gt;</text>
</a>
</g>
</g>
<!-- Node6&#45;&gt;Node2 -->
<g id="edge5" class="edge">
<title>Node6&#45;&gt;Node2</title>
<path fill="none" stroke="#9a32cd" stroke-dasharray="5,2" d="M309.45,-338.36C347.18,-337.49 391.81,-330.87 426,-309 472.48,-279.27 496.93,-212.56 504.71,-187.64"/>
<polygon fill="#9a32cd" stroke="#9a32cd" points="308.97,-334.87 299,-338.47 309.04,-341.87 308.97,-334.87"/>
<text text-anchor="middle" x="383.5" y="-339" font-family="Helvetica,sans-Serif" font-size="10.00"> random_number</text>
</g>
<!-- Node7 -->
<g id="node7" class="node">
<title>Node7</title>
<g id="a_node7"><a xlink:title=" ">
<polygon fill="white" stroke="#666666" points="302,-298.5 162,-298.5 162,-279.5 302,-279.5 302,-298.5"/>
<text text-anchor="middle" x="232" y="-286.5" font-family="Helvetica,sans-Serif" font-size="10.00">std::vector&lt; std::string &gt;</text>
</a>
</g>
</g>
<!-- Node7&#45;&gt;Node2 -->
<g id="edge6" class="edge">
<title>Node7&#45;&gt;Node2</title>
<path fill="none" stroke="#9a32cd" stroke-dasharray="5,2" d="M312.22,-285.55C356.39,-282.54 406.35,-277.02 426,-267 462.4,-248.45 490.63,-206.52 502.02,-187.59"/>
<polygon fill="#9a32cd" stroke="#9a32cd" points="311.78,-282.07 302.03,-286.21 312.23,-289.06 311.78,-282.07"/>
<text text-anchor="middle" x="383.5" y="-297" font-family="Helvetica,sans-Serif" font-size="10.00"> _fFancyNames</text>
<text text-anchor="middle" x="383.5" y="-286" font-family="Helvetica,sans-Serif" font-size="10.00">_fNames</text>
</g>
<!-- Node8 -->
<g id="node8" class="node">
<title>Node8</title>
<g id="a_node8"><a xlink:title=" ">
<polygon fill="white" stroke="#666666" points="294,-190.5 170,-190.5 170,-171.5 294,-171.5 294,-190.5"/>
<text text-anchor="middle" x="232" y="-178.5" font-family="Helvetica,sans-Serif" font-size="10.00">std::vector&lt; double &gt;</text>
</a>
</g>
</g>
<!-- Node8&#45;&gt;Node2 -->
<g id="edge7" class="edge">
<title>Node8&#45;&gt;Node2</title>
<path fill="none" stroke="#9a32cd" stroke-dasharray="5,2" d="M304.29,-179.55C316.53,-179.34 329.13,-179.15 341,-179 374.96,-178.58 412.82,-178.34 443.85,-178.2"/>
<polygon fill="#9a32cd" stroke="#9a32cd" points="304.05,-176.06 294.11,-179.74 304.17,-183.06 304.05,-176.06"/>
<text text-anchor="middle" x="383.5" y="-259" font-family="Helvetica,sans-Serif" font-size="10.00"> _fCurrVal</text>
<text text-anchor="middle" x="383.5" y="-248" font-family="Helvetica,sans-Serif" font-size="10.00">_fError</text>
<text text-anchor="middle" x="383.5" y="-237" font-family="Helvetica,sans-Serif" font-size="10.00">_fGenerated</text>
<text text-anchor="middle" x="383.5" y="-226" font-family="Helvetica,sans-Serif" font-size="10.00">_fIndivStepScale</text>
<text text-anchor="middle" x="383.5" y="-215" font-family="Helvetica,sans-Serif" font-size="10.00">_fLowBound</text>
<text text-anchor="middle" x="383.5" y="-204" font-family="Helvetica,sans-Serif" font-size="10.00">_fPreFitValue</text>
<text text-anchor="middle" x="383.5" y="-193" font-family="Helvetica,sans-Serif" font-size="10.00">_fPropVal</text>
<text text-anchor="middle" x="383.5" y="-182" font-family="Helvetica,sans-Serif" font-size="10.00">_fUpBound</text>
</g>
<!-- Node9 -->
<g id="node9" class="node">
<title>Node9</title>
<g id="a_node9"><a xlink:title=" ">
<polygon fill="white" stroke="#666666" points="288,-153.5 176,-153.5 176,-134.5 288,-134.5 288,-153.5"/>
<text text-anchor="middle" x="232" y="-141.5" font-family="Helvetica,sans-Serif" font-size="10.00">std::vector&lt; bool &gt;</text>
</a>
</g>
</g>
<!-- Node9&#45;&gt;Node2 -->
<g id="edge8" class="edge">
<title>Node9&#45;&gt;Node2</title>
<path fill="none" stroke="#9a32cd" stroke-dasharray="5,2" d="M298.33,-149.06C335.79,-152.3 383.64,-157.03 426,-163 436.83,-164.53 448.41,-166.47 459.34,-168.45"/>
<polygon fill="#9a32cd" stroke="#9a32cd" points="298.31,-145.55 288.05,-148.18 297.72,-152.52 298.31,-145.55"/>
<text text-anchor="middle" x="383.5" y="-166" font-family="Helvetica,sans-Serif" font-size="10.00"> _fFlatPrior</text>
</g>
<!-- Node10 -->
<g id="node10" class="node">
<title>Node10</title>
<g id="a_node10"><a xlink:title=" ">
<polygon fill="white" stroke="#666666" points="297.5,-116 166.5,-116 166.5,-86 297.5,-86 297.5,-116"/>
<text text-anchor="start" x="174.5" y="-104" font-family="Helvetica,sans-Serif" font-size="10.00">std::vector&lt; std::vector</text>
<text text-anchor="middle" x="232" y="-93" font-family="Helvetica,sans-Serif" font-size="10.00">&lt; std::string &gt; &gt;</text>
</a>
</g>
</g>
<!-- Node10&#45;&gt;Node2 -->
<g id="edge9" class="edge">
<title>Node10&#45;&gt;Node2</title>
<path fill="none" stroke="#9a32cd" stroke-dasharray="5,2" d="M307.58,-110.54C343.9,-116.38 387.85,-125.24 426,-138 449.62,-145.9 475.13,-159.29 491.2,-168.38"/>
<polygon fill="#9a32cd" stroke="#9a32cd" points="307.97,-107.06 297.55,-108.97 306.89,-113.98 307.97,-107.06"/>
<text text-anchor="middle" x="383.5" y="-141" font-family="Helvetica,sans-Serif" font-size="10.00"> _fSampleNames</text>
</g>
<!-- Node11 -->
<g id="node11" class="node">
<title>Node11</title>
<g id="a_node11"><a xlink:title=" ">
<polygon fill="white" stroke="#666666" points="317,-67.5 147,-67.5 147,-48.5 317,-48.5 317,-67.5"/>
<text text-anchor="middle" x="232" y="-55.5" font-family="Helvetica,sans-Serif" font-size="10.00">std::unique_ptr&lt; PCAHandler &gt;</text>
</a>
</g>
</g>
<!-- Node11&#45;&gt;Node2 -->
<g id="edge10" class="edge">
<title>Node11&#45;&gt;Node2</title>
<path fill="none" stroke="#9a32cd" stroke-dasharray="5,2" d="M327.28,-68.4C359.92,-74.7 395.85,-84.81 426,-101 458.24,-118.32 487.08,-151.73 500.13,-168.25"/>
<polygon fill="#9a32cd" stroke="#9a32cd" points="327.73,-64.93 317.26,-66.57 326.47,-71.81 327.73,-64.93"/>
<text text-anchor="middle" x="383.5" y="-104" font-family="Helvetica,sans-Serif" font-size="10.00"> PCAObj</text>
</g>
<!-- Node12 -->
<g id="node12" class="node">
<title>Node12</title>
<g id="a_node12"><a xlink:title=" ">
<polygon fill="white" stroke="#666666" points="323,-30 141,-30 141,0 323,0 323,-30"/>
<text text-anchor="start" x="149" y="-18" font-family="Helvetica,sans-Serif" font-size="10.00">std::unique_ptr&lt; adaptive</text>
<text text-anchor="middle" x="232" y="-7" font-family="Helvetica,sans-Serif" font-size="10.00">_mcmc::AdaptiveMCMCHandler &gt;</text>
</a>
</g>
</g>
<!-- Node12&#45;&gt;Node2 -->
<g id="edge11" class="edge">
<title>Node12&#45;&gt;Node2</title>
<path fill="none" stroke="#9a32cd" stroke-dasharray="5,2" d="M333.36,-22.12C365.06,-28.07 398.86,-38.58 426,-57 468.55,-85.87 494.86,-145.04 503.94,-168.3"/>
<polygon fill="#9a32cd" stroke="#9a32cd" points="333.61,-18.61 323.15,-20.34 332.41,-25.5 333.61,-18.61"/>
<text text-anchor="middle" x="383.5" y="-60" font-family="Helvetica,sans-Serif" font-size="10.00"> AdaptiveHandler</text>
</g>
</g>
</svg>
