<?xml version="1.0" encoding="UTF-8" standalone="no"?>
<!DOCTYPE svg PUBLIC "-//W3C//DTD SVG 1.1//EN"
 "http://www.w3.org/Graphics/SVG/1.1/DTD/svg11.dtd">
<!-- Generated by graphviz version 2.43.0 (0)
 -->
<!-- Title: SampleSummary Pages: 1 -->
<!--zoomable 1106 -->
<svg id="main" version="1.1" xmlns="http://www.w3.org/2000/svg" xmlns:xlink="http://www.w3.org/1999/xlink" xml:space="preserve" onload="init(evt)">
<style type="text/css"><![CDATA[
.edge:hover path { stroke: red; }
.edge:hover polygon { stroke: red; fill: red; }
]]></style>
<script type="text/javascript"><![CDATA[
var edges = document.getElementsByTagName('g');
if (edges && edges.length) {
  for (var i=0;i<edges.length;i++) {
    if (edges[i].id.substr(0,4)=='edge') {
      edges[i].setAttribute('class','edge');
    }
  }
}
]]></script>
        <defs>
                <circle id="rim" cx="0" cy="0" r="7"/>
                <circle id="rim2" cx="0" cy="0" r="3.5"/>
                <g id="zoomPlus">
                        <use xlink:href="#rim" fill="#404040">
                                <set attributeName="fill" to="#808080" begin="zoomplus.mouseover" end="zoomplus.mouseout"/>
                        </use>
                        <path d="M-4,0h8M0,-4v8" fill="none" stroke="white" stroke-width="1.5" pointer-events="none"/>
                </g>
                <g id="zoomMin">
                        <use xlink:href="#rim" fill="#404040">
                                <set attributeName="fill" to="#808080" begin="zoomminus.mouseover" end="zoomminus.mouseout"/>
                        </use>
                        <path d="M-4,0h8" fill="none" stroke="white" stroke-width="1.5" pointer-events="none"/>
                </g>
                <g id="dirArrow">
                        <path fill="none" stroke="white" stroke-width="1.5" d="M0,-3.0v7 M-2.5,-0.5L0,-3.0L2.5,-0.5"/>
                </g>
               <g id="resetDef">
                       <use xlink:href="#rim2" fill="#404040">
                               <set attributeName="fill" to="#808080" begin="reset.mouseover" end="reset.mouseout"/>
                       </use>
               </g>
        </defs>

<script type="text/javascript">
var viewWidth = 1019;
var viewHeight = 1106;
var sectionId = 'dynsection-0';
</script>
<script xlink:href="svgpan.js"/>
<svg id="graph" class="graph">
<g id="viewport">
<title>SampleSummary</title>
<!-- Node1 -->
<g id="node1" class="node">
<title>Node1</title>
<g id="a_node1"><a xlink:title="Class to calculate pvalue produce posterior predictive and many fancy Bayesian stuff .">
<polygon fill="#999999" stroke="#666666" points="1011,-487.14 910,-487.14 910,-468.14 1011,-468.14 1011,-487.14"/>
<text text-anchor="middle" x="960.5" y="-475.14" font-family="Helvetica,sans-Serif" font-size="10.00">SampleSummary</text>
</a>
</g>
</g>
<!-- Node2 -->
<g id="node2" class="node">
<title>Node2</title>
<g id="a_node2"><a xlink:title=" ">
<polygon fill="white" stroke="#666666" points="719.5,-1077.14 555.5,-1077.14 555.5,-1058.14 719.5,-1058.14 719.5,-1077.14"/>
<text text-anchor="middle" x="637.5" y="-1065.14" font-family="Helvetica,sans-Serif" font-size="10.00">std::unique_ptr&lt; TRandom3 &gt;</text>
</a>
</g>
</g>
<!-- Node2&#45;&gt;Node1 -->
<g id="edge1" class="edge">
<title>Node2&#45;&gt;Node1</title>
<path fill="none" stroke="#9a32cd" stroke-dasharray="5,2" d="M686.12,-1079.19C743.2,-1089.91 837.9,-1097.24 892,-1044.64 933.84,-1003.95 955.82,-558.3 959.08,-487.18"/>
<polygon fill="#9a32cd" stroke="#9a32cd" points="686.75,-1075.75 676.26,-1077.23 685.39,-1082.61 686.75,-1075.75"/>
<text text-anchor="middle" x="817" y="-1089.64" font-family="Helvetica,sans-Serif" font-size="10.00"> rnd</text>
</g>
<!-- Node3 -->
<g id="node3" class="node">
<title>Node3</title>
<g id="a_node3"><a xlink:title=" ">
<polygon fill="white" stroke="#666666" points="703,-1031.64 572,-1031.64 572,-1001.64 703,-1001.64 703,-1031.64"/>
<text text-anchor="start" x="580" y="-1019.64" font-family="Helvetica,sans-Serif" font-size="10.00">std::vector&lt; std::vector</text>
<text text-anchor="middle" x="637.5" y="-1008.64" font-family="Helvetica,sans-Serif" font-size="10.00">&lt; TH2Poly * &gt; &gt;</text>
</a>
</g>
</g>
<!-- Node3&#45;&gt;Node1 -->
<g id="edge2" class="edge">
<title>Node3&#45;&gt;Node1</title>
<path fill="none" stroke="#9a32cd" stroke-dasharray="5,2" d="M713.25,-1011.2C783.41,-1005.36 879.43,-995.21 892,-982.64 964.85,-909.76 961.01,-551.21 959.73,-487.37"/>
<polygon fill="#9a32cd" stroke="#9a32cd" points="712.78,-1007.72 703.1,-1012.03 713.35,-1014.7 712.78,-1007.72"/>
<text text-anchor="middle" x="817" y="-1032.64" font-family="Helvetica,sans-Serif" font-size="10.00"> MCVector</text>
<text text-anchor="middle" x="817" y="-1021.64" font-family="Helvetica,sans-Serif" font-size="10.00">MeanHist_ByMode</text>
<text text-anchor="middle" x="817" y="-1010.64" font-family="Helvetica,sans-Serif" font-size="10.00">W2MCVector</text>
</g>
<!-- Node4 -->
<g id="node4" class="node">
<title>Node4</title>
<g id="a_node4"><a xlink:title=" ">
<polygon fill="white" stroke="#666666" points="703,-983.14 572,-983.14 572,-942.14 703,-942.14 703,-983.14"/>
<text text-anchor="start" x="580" y="-971.14" font-family="Helvetica,sans-Serif" font-size="10.00">std::vector&lt; std::vector</text>
<text text-anchor="start" x="580" y="-960.14" font-family="Helvetica,sans-Serif" font-size="10.00">&lt; std::vector&lt; TH2Poly</text>
<text text-anchor="middle" x="637.5" y="-949.14" font-family="Helvetica,sans-Serif" font-size="10.00"> * &gt; &gt; &gt;</text>
</a>
</g>
</g>
<!-- Node4&#45;&gt;Node1 -->
<g id="edge3" class="edge">
<title>Node4&#45;&gt;Node1</title>
<path fill="none" stroke="#9a32cd" stroke-dasharray="5,2" d="M713.48,-967.62C778.79,-970.21 866.85,-968.94 892,-945.64 961.85,-880.92 960.53,-549.14 959.67,-487.5"/>
<polygon fill="#9a32cd" stroke="#9a32cd" points="713.35,-964.11 703.21,-967.17 713.05,-971.1 713.35,-964.11"/>
<text text-anchor="middle" x="817" y="-970.64" font-family="Helvetica,sans-Serif" font-size="10.00"> MCVectorByMode</text>
</g>
<!-- Node5 -->
<g id="node5" class="node">
<title>Node5</title>
<g id="a_node5"><a xlink:title=" ">
<polygon fill="white" stroke="#666666" points="699.5,-823.14 575.5,-823.14 575.5,-804.14 699.5,-804.14 699.5,-823.14"/>
<text text-anchor="middle" x="637.5" y="-811.14" font-family="Helvetica,sans-Serif" font-size="10.00">std::vector&lt; double &gt;</text>
</a>
</g>
</g>
<!-- Node5&#45;&gt;Node1 -->
<g id="edge4" class="edge">
<title>Node5&#45;&gt;Node1</title>
<path fill="none" stroke="#9a32cd" stroke-dasharray="5,2" d="M709.86,-811.44C780.03,-808.6 878.56,-802.54 892,-790.64 939.25,-748.83 955.78,-535.07 958.92,-487.17"/>
<polygon fill="#9a32cd" stroke="#9a32cd" points="709.58,-807.95 699.72,-811.84 709.85,-814.94 709.58,-807.95"/>
<text text-anchor="middle" x="817" y="-933.64" font-family="Helvetica,sans-Serif" font-size="10.00"> LLHPenaltyVector</text>
<text text-anchor="middle" x="817" y="-922.64" font-family="Helvetica,sans-Serif" font-size="10.00">WeightVector</text>
<text text-anchor="middle" x="817" y="-911.64" font-family="Helvetica,sans-Serif" font-size="10.00">llh_data_draw</text>
<text text-anchor="middle" x="817" y="-900.64" font-family="Helvetica,sans-Serif" font-size="10.00">llh_data_draw_ProjectX</text>
<text text-anchor="middle" x="817" y="-889.64" font-family="Helvetica,sans-Serif" font-size="10.00">llh_data_drawfluc</text>
<text text-anchor="middle" x="817" y="-878.64" font-family="Helvetica,sans-Serif" font-size="10.00">llh_data_predfluc</text>
<text text-anchor="middle" x="817" y="-867.64" font-family="Helvetica,sans-Serif" font-size="10.00">llh_datafluc_draw</text>
<text text-anchor="middle" x="817" y="-856.64" font-family="Helvetica,sans-Serif" font-size="10.00">llh_draw_pred</text>
<text text-anchor="middle" x="817" y="-845.64" font-family="Helvetica,sans-Serif" font-size="10.00">llh_drawfluc_draw</text>
<text text-anchor="start" x="759.5" y="-834.64" font-family="Helvetica,sans-Serif" font-size="10.00">llh_drawfluc_draw</text>
<text text-anchor="middle" x="817" y="-823.64" font-family="Helvetica,sans-Serif" font-size="10.00">_ProjectX</text>
<text text-anchor="middle" x="817" y="-812.64" font-family="Helvetica,sans-Serif" font-size="10.00">...</text>
</g>
<!-- Node6 -->
<g id="node6" class="node">
<title>Node6</title>
<g id="a_node6"><a xlink:title=" ">
<polygon fill="white" stroke="#666666" points="707.5,-786.14 567.5,-786.14 567.5,-767.14 707.5,-767.14 707.5,-786.14"/>
<text text-anchor="middle" x="637.5" y="-774.14" font-family="Helvetica,sans-Serif" font-size="10.00">std::vector&lt; std::string &gt;</text>
</a>
</g>
</g>
<!-- Node6&#45;&gt;Node1 -->
<g id="edge5" class="edge">
<title>Node6&#45;&gt;Node1</title>
<path fill="none" stroke="#9a32cd" stroke-dasharray="5,2" d="M717.87,-779.53C782.33,-780.14 866.58,-776.45 892,-754.64 934.26,-718.38 954.38,-531.88 958.63,-487.25"/>
<polygon fill="#9a32cd" stroke="#9a32cd" points="717.75,-776.03 707.7,-779.39 717.65,-783.03 717.75,-776.03"/>
<text text-anchor="middle" x="817" y="-781.64" font-family="Helvetica,sans-Serif" font-size="10.00"> SampleNames</text>
</g>
<!-- Node7 -->
<g id="node7" class="node">
<title>Node7</title>
<g id="a_node7"><a xlink:title=" ">
<polygon fill="white" stroke="#666666" points="724,-737.64 551,-737.64 551,-707.64 724,-707.64 724,-737.64"/>
<text text-anchor="start" x="559" y="-725.64" font-family="Helvetica,sans-Serif" font-size="10.00">std::vector&lt; std::vector</text>
<text text-anchor="middle" x="637.5" y="-714.64" font-family="Helvetica,sans-Serif" font-size="10.00">&lt; std::unique_ptr&lt; TH1D &gt; &gt; &gt;</text>
</a>
</g>
</g>
<!-- Node7&#45;&gt;Node1 -->
<g id="edge6" class="edge">
<title>Node7&#45;&gt;Node1</title>
<path fill="none" stroke="#9a32cd" stroke-dasharray="5,2" d="M734.38,-719.06C800.88,-715.71 879.65,-709.69 892,-699.64 960.12,-644.21 961.17,-522.2 959.98,-487.2"/>
<polygon fill="#9a32cd" stroke="#9a32cd" points="734.06,-715.57 724.25,-719.55 734.41,-722.56 734.06,-715.57"/>
<text text-anchor="middle" x="817" y="-742.64" font-family="Helvetica,sans-Serif" font-size="10.00"> BetaHist</text>
<text text-anchor="middle" x="817" y="-731.64" font-family="Helvetica,sans-Serif" font-size="10.00">PosteriorHist</text>
<text text-anchor="middle" x="817" y="-720.64" font-family="Helvetica,sans-Serif" font-size="10.00">w2Hist</text>
</g>
<!-- Node8 -->
<g id="node8" class="node">
<title>Node8</title>
<g id="a_node8"><a xlink:title=" ">
<polygon fill="white" stroke="#666666" points="700.5,-687.14 574.5,-687.14 574.5,-668.14 700.5,-668.14 700.5,-687.14"/>
<text text-anchor="middle" x="637.5" y="-675.14" font-family="Helvetica,sans-Serif" font-size="10.00">std::vector&lt; TH2D * &gt;</text>
</a>
</g>
</g>
<!-- Node8&#45;&gt;Node1 -->
<g id="edge7" class="edge">
<title>Node8&#45;&gt;Node1</title>
<path fill="none" stroke="#9a32cd" stroke-dasharray="5,2" d="M710.74,-675.26C780.54,-672.34 877.77,-666.4 892,-655.64 948.15,-613.18 957.59,-518.15 959.18,-487.43"/>
<polygon fill="#9a32cd" stroke="#9a32cd" points="710.5,-671.77 700.65,-675.67 710.79,-678.76 710.5,-671.77"/>
<text text-anchor="middle" x="817" y="-687.64" font-family="Helvetica,sans-Serif" font-size="10.00"> ViolinHists_ProjectX</text>
<text text-anchor="middle" x="817" y="-676.64" font-family="Helvetica,sans-Serif" font-size="10.00">ViolinHists_ProjectY</text>
</g>
<!-- Node9 -->
<g id="node9" class="node">
<title>Node9</title>
<g id="a_node9"><a xlink:title=" ">
<polygon fill="white" stroke="#666666" points="707.5,-543.14 567.5,-543.14 567.5,-524.14 707.5,-524.14 707.5,-543.14"/>
<text text-anchor="middle" x="637.5" y="-531.14" font-family="Helvetica,sans-Serif" font-size="10.00">std::vector&lt; TH2Poly * &gt;</text>
</a>
</g>
</g>
<!-- Node9&#45;&gt;Node1 -->
<g id="edge8" class="edge">
<title>Node9&#45;&gt;Node1</title>
<path fill="none" stroke="#9a32cd" stroke-dasharray="5,2" d="M717.79,-534.42C768.48,-533.06 835.15,-527.78 892,-511.64 911.19,-506.19 931.39,-495.23 944.63,-487.22"/>
<polygon fill="#9a32cd" stroke="#9a32cd" points="717.47,-530.93 707.55,-534.65 717.63,-537.93 717.47,-530.93"/>
<text text-anchor="middle" x="817" y="-645.64" font-family="Helvetica,sans-Serif" font-size="10.00"> DataHist</text>
<text text-anchor="middle" x="817" y="-634.64" font-family="Helvetica,sans-Serif" font-size="10.00">MeanHist</text>
<text text-anchor="middle" x="817" y="-623.64" font-family="Helvetica,sans-Serif" font-size="10.00">MeanHistCorrected</text>
<text text-anchor="middle" x="817" y="-612.64" font-family="Helvetica,sans-Serif" font-size="10.00">ModeHist</text>
<text text-anchor="middle" x="817" y="-601.64" font-family="Helvetica,sans-Serif" font-size="10.00">NominalHist</text>
<text text-anchor="middle" x="817" y="-590.64" font-family="Helvetica,sans-Serif" font-size="10.00">W2MeanHist</text>
<text text-anchor="middle" x="817" y="-579.64" font-family="Helvetica,sans-Serif" font-size="10.00">W2ModeHist</text>
<text text-anchor="middle" x="817" y="-568.64" font-family="Helvetica,sans-Serif" font-size="10.00">W2NomHist</text>
<text text-anchor="middle" x="817" y="-557.64" font-family="Helvetica,sans-Serif" font-size="10.00">lnLHist_Mean</text>
<text text-anchor="middle" x="817" y="-546.64" font-family="Helvetica,sans-Serif" font-size="10.00">lnLHist_Mode</text>
<text text-anchor="middle" x="817" y="-535.64" font-family="Helvetica,sans-Serif" font-size="10.00">...</text>
</g>
<!-- Node10 -->
<g id="node10" class="node">
<title>Node10</title>
<g id="a_node10"><a xlink:title=" ">
<polygon fill="white" stroke="#666666" points="700.5,-432.14 574.5,-432.14 574.5,-413.14 700.5,-413.14 700.5,-432.14"/>
<text text-anchor="middle" x="637.5" y="-420.14" font-family="Helvetica,sans-Serif" font-size="10.00">std::vector&lt; TH1D * &gt;</text>
</a>
</g>
</g>
<!-- Node10&#45;&gt;Node1 -->
<g id="edge9" class="edge">
<title>Node10&#45;&gt;Node1</title>
<path fill="none" stroke="#9a32cd" stroke-dasharray="5,2" d="M700.38,-411.77C752.94,-405.12 829.55,-401.6 892,-423.64 917.19,-432.53 939.98,-455.17 951.53,-468.13"/>
<polygon fill="#9a32cd" stroke="#9a32cd" points="699.65,-408.34 690.2,-413.14 700.58,-415.28 699.65,-408.34"/>
<text text-anchor="middle" x="817" y="-503.64" font-family="Helvetica,sans-Serif" font-size="10.00"> DataHist_ProjectX</text>
<text text-anchor="middle" x="817" y="-492.64" font-family="Helvetica,sans-Serif" font-size="10.00">DataHist_ProjectY</text>
<text text-anchor="middle" x="817" y="-481.64" font-family="Helvetica,sans-Serif" font-size="10.00">lnLHist_Mean1D</text>
<text text-anchor="middle" x="817" y="-470.64" font-family="Helvetica,sans-Serif" font-size="10.00">lnLHist_Mean_ProjectX</text>
<text text-anchor="middle" x="817" y="-459.64" font-family="Helvetica,sans-Serif" font-size="10.00">lnLHist_Mode1D</text>
<text text-anchor="middle" x="817" y="-448.64" font-family="Helvetica,sans-Serif" font-size="10.00">lnLHist_Sample_DrawData</text>
<text text-anchor="middle" x="817" y="-437.64" font-family="Helvetica,sans-Serif" font-size="10.00">lnLHist_Sample_DrawflucDraw</text>
<text text-anchor="middle" x="817" y="-426.64" font-family="Helvetica,sans-Serif" font-size="10.00">lnLHist_Sample_PredflucDraw</text>
</g>
<!-- Node11 -->
<g id="node11" class="node">
<title>Node11</title>
<g id="a_node11"><a xlink:title=" ">
<polygon fill="white" stroke="#666666" points="707,-354.14 568,-354.14 568,-335.14 707,-335.14 707,-354.14"/>
<text text-anchor="middle" x="637.5" y="-342.14" font-family="Helvetica,sans-Serif" font-size="10.00">std::unique_ptr&lt; TH1D &gt;</text>
</a>
</g>
</g>
<!-- Node11&#45;&gt;Node1 -->
<g id="edge10" class="edge">
<title>Node11&#45;&gt;Node1</title>
<path fill="none" stroke="#9a32cd" stroke-dasharray="5,2" d="M717.27,-336.94C780.67,-332.3 863.72,-330.23 892,-347.64 936.61,-375.11 953.13,-442.55 957.89,-467.84"/>
<polygon fill="#9a32cd" stroke="#9a32cd" points="716.98,-333.45 707.27,-337.71 717.51,-340.43 716.98,-333.45"/>
<text text-anchor="middle" x="817" y="-394.64" font-family="Helvetica,sans-Serif" font-size="10.00"> RandomHist</text>
<text text-anchor="middle" x="817" y="-383.64" font-family="Helvetica,sans-Serif" font-size="10.00">lnLHist</text>
<text text-anchor="middle" x="817" y="-372.64" font-family="Helvetica,sans-Serif" font-size="10.00">lnLHist_drawdata</text>
<text text-anchor="middle" x="817" y="-361.64" font-family="Helvetica,sans-Serif" font-size="10.00">lnLHist_drawfluc</text>
<text text-anchor="middle" x="817" y="-350.64" font-family="Helvetica,sans-Serif" font-size="10.00">lnLHist_drawflucdraw</text>
</g>
<!-- Node12 -->
<g id="node12" class="node">
<title>Node12</title>
<g id="a_node12"><a xlink:title=" ">
<polygon fill="white" stroke="#666666" points="707,-292.14 568,-292.14 568,-273.14 707,-273.14 707,-292.14"/>
<text text-anchor="middle" x="637.5" y="-280.14" font-family="Helvetica,sans-Serif" font-size="10.00">std::unique_ptr&lt; TH2D &gt;</text>
</a>
</g>
</g>
<!-- Node12&#45;&gt;Node1 -->
<g id="edge11" class="edge">
<title>Node12&#45;&gt;Node1</title>
<path fill="none" stroke="#9a32cd" stroke-dasharray="5,2" d="M677.86,-270.37C731.65,-256.2 828.67,-240.21 892,-285.64 953.73,-329.92 959.38,-435.25 959.61,-467.85"/>
<polygon fill="#9a32cd" stroke="#9a32cd" points="676.74,-267.05 668.02,-273.07 678.59,-273.8 676.74,-267.05"/>
<text text-anchor="middle" x="817" y="-321.64" font-family="Helvetica,sans-Serif" font-size="10.00"> lnLDrawHist</text>
<text text-anchor="middle" x="817" y="-310.64" font-family="Helvetica,sans-Serif" font-size="10.00">lnLDrawHistRate</text>
<text text-anchor="middle" x="817" y="-299.64" font-family="Helvetica,sans-Serif" font-size="10.00">lnLFlucHist</text>
<text text-anchor="middle" x="817" y="-288.64" font-family="Helvetica,sans-Serif" font-size="10.00">lnLFlucHist_ProjectX</text>
</g>
<!-- Node13 -->
<g id="node13" class="node">
<title>Node13</title>
<g id="a_node13"><a xlink:title=" ">
<polygon fill="white" stroke="#666666" points="261.5,-249.14 157.5,-249.14 157.5,-230.14 261.5,-230.14 261.5,-249.14"/>
<text text-anchor="middle" x="209.5" y="-237.14" font-family="Helvetica,sans-Serif" font-size="10.00">std::vector&lt; int &gt;</text>
</a>
</g>
</g>
<!-- Node13&#45;&gt;Node1 -->
<g id="edge12" class="edge">
<title>Node13&#45;&gt;Node1</title>
<path fill="none" stroke="#9a32cd" stroke-dasharray="5,2" d="M271.71,-237.35C429.89,-231.98 843.36,-221.68 892,-258.64 961.06,-311.12 961.45,-433.03 960.04,-468.07"/>
<polygon fill="#9a32cd" stroke="#9a32cd" points="271.54,-233.85 261.66,-237.69 271.78,-240.85 271.54,-233.85"/>
<text text-anchor="middle" x="500" y="-234.64" font-family="Helvetica,sans-Serif" font-size="10.00"> maxBins</text>
</g>
<!-- Node18 -->
<g id="node18" class="node">
<title>Node18</title>
<g id="a_node18"><a xlink:href="classMaCh3Modes.html" target="_top" xlink:title="KS: Class describing MaCh3 modes used in the analysis, it is being initialised from config.">
<polygon fill="white" stroke="#666666" points="449,-177.14 366,-177.14 366,-158.14 449,-158.14 449,-177.14"/>
<text text-anchor="middle" x="407.5" y="-165.14" font-family="Helvetica,sans-Serif" font-size="10.00">MaCh3Modes</text>
</a>
</g>
</g>
<!-- Node13&#45;&gt;Node18 -->
<g id="edge20" class="edge">
<title>Node13&#45;&gt;Node18</title>
<path fill="none" stroke="#9a32cd" stroke-dasharray="5,2" d="M251.62,-227.02C279.13,-218.29 316.03,-206.06 348,-193.64 360.95,-188.61 375.2,-182.29 386.39,-177.15"/>
<polygon fill="#9a32cd" stroke="#9a32cd" points="250.42,-223.73 241.93,-230.07 252.52,-230.4 250.42,-223.73"/>
<text text-anchor="middle" x="322" y="-213.64" font-family="Helvetica,sans-Serif" font-size="10.00"> ModeMap</text>
</g>
<!-- Node14 -->
<g id="node14" class="node">
<title>Node14</title>
<g id="a_node14"><a xlink:title=" ">
<polygon fill="white" stroke="#666666" points="242,-97.14 177,-97.14 177,-78.14 242,-78.14 242,-97.14"/>
<text text-anchor="middle" x="209.5" y="-85.14" font-family="Helvetica,sans-Serif" font-size="10.00">std::string</text>
</a>
</g>
</g>
<!-- Node14&#45;&gt;Node1 -->
<g id="edge13" class="edge">
<title>Node14&#45;&gt;Node1</title>
<path fill="none" stroke="#9a32cd" stroke-dasharray="5,2" d="M243.77,-74.44C352.01,-33.89 698.27,76.51 892,-86.64 952.59,-137.67 958.79,-412.62 959.43,-467.94"/>
<polygon fill="#9a32cd" stroke="#9a32cd" points="242.45,-71.2 234.34,-78.02 244.93,-77.74 242.45,-71.2"/>
<text text-anchor="middle" x="500" y="-16.64" font-family="Helvetica,sans-Serif" font-size="10.00"> OutputName</text>
</g>
<!-- Node14&#45;&gt;Node18 -->
<g id="edge21" class="edge">
<title>Node14&#45;&gt;Node18</title>
<path fill="none" stroke="#9a32cd" stroke-dasharray="5,2" d="M252.07,-95.13C280.08,-101.12 317.36,-110.98 348,-125.64 366.05,-134.27 384.39,-148.52 395.6,-157.99"/>
<polygon fill="#9a32cd" stroke="#9a32cd" points="252.71,-91.69 242.2,-93.09 251.29,-98.54 252.71,-91.69"/>
<text text-anchor="middle" x="322" y="-139.64" font-family="Helvetica,sans-Serif" font-size="10.00"> Generator</text>
<text text-anchor="middle" x="322" y="-128.64" font-family="Helvetica,sans-Serif" font-size="10.00">Title</text>
</g>
<!-- Node15 -->
<g id="node15" class="node">
<title>Node15</title>
<g id="a_node15"><a xlink:title=" ">
<polygon fill="white" stroke="#666666" points="104,-102.64 0,-102.64 0,-72.64 104,-72.64 104,-102.64"/>
<text text-anchor="start" x="8" y="-90.64" font-family="Helvetica,sans-Serif" font-size="10.00">std::basic_string&lt;</text>
<text text-anchor="middle" x="52" y="-79.64" font-family="Helvetica,sans-Serif" font-size="10.00"> Char &gt;</text>
</a>
</g>
</g>
<!-- Node15&#45;&gt;Node14 -->
<g id="edge14" class="edge">
<title>Node15&#45;&gt;Node14</title>
<path fill="none" stroke="#63b8ff" d="M114.62,-87.64C135.88,-87.64 158.82,-87.64 176.7,-87.64"/>
<polygon fill="#63b8ff" stroke="#63b8ff" points="114.35,-84.14 104.35,-87.64 114.35,-91.14 114.35,-84.14"/>
</g>
<!-- Node16 -->
<g id="node16" class="node">
<title>Node16</title>
<g id="a_node16"><a xlink:title=" ">
<polygon fill="white" stroke="#666666" points="712.5,-179.14 562.5,-179.14 562.5,-160.14 712.5,-160.14 712.5,-179.14"/>
<text text-anchor="middle" x="637.5" y="-167.14" font-family="Helvetica,sans-Serif" font-size="10.00">std::vector&lt; TDirectory * &gt;</text>
</a>
</g>
</g>
<!-- Node16&#45;&gt;Node1 -->
<g id="edge15" class="edge">
<title>Node16&#45;&gt;Node1</title>
<path fill="none" stroke="#9a32cd" stroke-dasharray="5,2" d="M682.11,-157.75C737.66,-145.48 833.45,-134.31 892,-183.64 937.26,-221.77 955.21,-421.71 958.8,-468.05"/>
<polygon fill="#9a32cd" stroke="#9a32cd" points="681.18,-154.38 672.22,-160.05 682.76,-161.2 681.18,-154.38"/>
<text text-anchor="middle" x="817" y="-186.64" font-family="Helvetica,sans-Serif" font-size="10.00"> Dir</text>
</g>
<!-- Node17 -->
<g id="node17" class="node">
<title>Node17</title>
<g id="a_node17"><a xlink:href="classSampleHandlerBase.html" target="_top" xlink:title="Class responsible for handling implementation of samples used in analysis, reweighting and returning ...">
<polygon fill="white" stroke="#666666" points="695.5,-216.14 579.5,-216.14 579.5,-197.14 695.5,-197.14 695.5,-216.14"/>
<text text-anchor="middle" x="637.5" y="-204.14" font-family="Helvetica,sans-Serif" font-size="10.00">SampleHandlerBase</text>
</a>
</g>
</g>
<!-- Node17&#45;&gt;Node1 -->
<g id="edge16" class="edge">
<title>Node17&#45;&gt;Node1</title>
<path fill="none" stroke="#9a32cd" stroke-dasharray="5,2" d="M705.79,-201.44C771.16,-197.88 864.46,-197.23 892,-219.64 932.22,-252.37 953.73,-425.35 958.48,-468.09"/>
<polygon fill="#9a32cd" stroke="#9a32cd" points="705.34,-197.96 695.56,-202.03 705.74,-204.95 705.34,-197.96"/>
<text text-anchor="middle" x="817" y="-222.64" font-family="Helvetica,sans-Serif" font-size="10.00"> SampleHandler</text>
</g>
<!-- Node18&#45;&gt;Node1 -->
<g id="edge22" class="edge">
<title>Node18&#45;&gt;Node1</title>
<path fill="none" stroke="#9a32cd" stroke-dasharray="5,2" d="M438.36,-153.95C521.38,-118.16 757.67,-32.11 892,-144.64 943.55,-187.82 956.82,-418.23 959.1,-468.11"/>
<polygon fill="#9a32cd" stroke="#9a32cd" points="436.77,-150.83 429.01,-158.05 439.58,-157.24 436.77,-150.83"/>
<text text-anchor="middle" x="637.5" y="-114.64" font-family="Helvetica,sans-Serif" font-size="10.00"> Modes</text>
</g>
<!-- Node18&#45;&gt;Node17 -->
<g id="edge17" class="edge">
<title>Node18&#45;&gt;Node17</title>
<path fill="none" stroke="#9a32cd" stroke-dasharray="5,2" d="M459.54,-176.37C495.51,-182.52 543.68,-190.76 580.67,-197.09"/>
<polygon fill="#9a32cd" stroke="#9a32cd" points="459.71,-172.85 449.26,-174.61 458.53,-179.75 459.71,-172.85"/>
<text text-anchor="middle" x="500" y="-190.64" font-family="Helvetica,sans-Serif" font-size="10.00"> Modes</text>
</g>
<!-- Node19 -->
<g id="node19" class="node">
<title>Node19</title>
<g id="a_node19"><a xlink:title=" ">
<polygon fill="white" stroke="#666666" points="270.5,-203.64 148.5,-203.64 148.5,-173.64 270.5,-173.64 270.5,-203.64"/>
<text text-anchor="start" x="156.5" y="-191.64" font-family="Helvetica,sans-Serif" font-size="10.00">std::map&lt; std::string,</text>
<text text-anchor="middle" x="209.5" y="-180.64" font-family="Helvetica,sans-Serif" font-size="10.00"> MaCh3Modes_t &gt;</text>
</a>
</g>
</g>
<!-- Node19&#45;&gt;Node18 -->
<g id="edge18" class="edge">
<title>Node19&#45;&gt;Node18</title>
<path fill="none" stroke="#9a32cd" stroke-dasharray="5,2" d="M280.95,-181.09C309.4,-178.04 341.22,-174.64 365.71,-172.01"/>
<polygon fill="#9a32cd" stroke="#9a32cd" points="280.21,-177.65 270.64,-182.2 280.95,-184.61 280.21,-177.65"/>
<text text-anchor="middle" x="322" y="-181.64" font-family="Helvetica,sans-Serif" font-size="10.00"> Mode</text>
</g>
<!-- Node20 -->
<g id="node20" class="node">
<title>Node20</title>
<g id="a_node20"><a xlink:title=" ">
<polygon fill="white" stroke="#666666" points="278,-155.64 141,-155.64 141,-125.64 278,-125.64 278,-155.64"/>
<text text-anchor="start" x="149" y="-143.64" font-family="Helvetica,sans-Serif" font-size="10.00">std::map&lt; MaCh3Modes</text>
<text text-anchor="middle" x="209.5" y="-132.64" font-family="Helvetica,sans-Serif" font-size="10.00">_t, MaCh3ModeInfo &gt;</text>
</a>
</g>
</g>
<!-- Node20&#45;&gt;Node18 -->
<g id="edge19" class="edge">
<title>Node20&#45;&gt;Node18</title>
<path fill="none" stroke="#9a32cd" stroke-dasharray="5,2" d="M288.11,-150.49C307.67,-153.06 328.62,-155.88 348,-158.64 353.8,-159.47 359.92,-160.37 365.92,-161.28"/>
<polygon fill="#9a32cd" stroke="#9a32cd" points="288.4,-147 278.03,-149.17 287.49,-153.94 288.4,-147"/>
<text text-anchor="middle" x="322" y="-161.64" font-family="Helvetica,sans-Serif" font-size="10.00"> fMode</text>
</g>
</g>
</svg>
        <g id="navigator" transform="translate(0 0)" fill="#404254">
                <rect fill="#f2f5e9" fill-opacity="0.5" stroke="#606060" stroke-width=".5" x="0" y="0" width="60" height="60"/>
                <use id="zoomplus" xlink:href="#zoomPlus" x="17" y="9" onmousedown="handleZoom(evt,'in')"/>
                <use id="zoomminus" xlink:href="#zoomMin" x="42" y="9" onmousedown="handleZoom(evt,'out')"/>
                <use id="reset" xlink:href="#resetDef" x="30" y="36" onmousedown="handleReset()"/>
                <g id="arrowUp" xlink:href="#dirArrow" transform="translate(30 24)" onmousedown="handlePan(0,-1)">
                  <use xlink:href="#rim" fill="#404040">
                        <set attributeName="fill" to="#808080" begin="arrowUp.mouseover" end="arrowUp.mouseout"/>
                  </use>
                  <path fill="none" stroke="white" stroke-width="1.5" d="M0,-3.0v7 M-2.5,-0.5L0,-3.0L2.5,-0.5"/>
                </g>
                <g id="arrowRight" xlink:href="#dirArrow" transform="rotate(90) translate(36 -43)" onmousedown="handlePan(1,0)">
                  <use xlink:href="#rim" fill="#404040">
                        <set attributeName="fill" to="#808080" begin="arrowRight.mouseover" end="arrowRight.mouseout"/>
                  </use>
                  <path fill="none" stroke="white" stroke-width="1.5" d="M0,-3.0v7 M-2.5,-0.5L0,-3.0L2.5,-0.5"/>
                </g>
                <g id="arrowDown" xlink:href="#dirArrow" transform="rotate(180) translate(-30 -48)" onmousedown="handlePan(0,1)">
                  <use xlink:href="#rim" fill="#404040">
                        <set attributeName="fill" to="#808080" begin="arrowDown.mouseover" end="arrowDown.mouseout"/>
                  </use>
                  <path fill="none" stroke="white" stroke-width="1.5" d="M0,-3.0v7 M-2.5,-0.5L0,-3.0L2.5,-0.5"/>
                </g>
                <g id="arrowLeft" xlink:href="#dirArrow" transform="rotate(270) translate(-36 17)" onmousedown="handlePan(-1,0)">
                  <use xlink:href="#rim" fill="#404040">
                        <set attributeName="fill" to="#808080" begin="arrowLeft.mouseover" end="arrowLeft.mouseout"/>
                  </use>
                  <path fill="none" stroke="white" stroke-width="1.5" d="M0,-3.0v7 M-2.5,-0.5L0,-3.0L2.5,-0.5"/>
                </g>
        </g>
        <svg viewBox="0 0 15 15" width="100%" height="30px" preserveAspectRatio="xMaxYMin meet">
         <g id="arrow_out" transform="scale(0.3 0.3)">
          <a xlink:href="classSampleSummary__coll__graph_org.svg" target="_base">
           <rect id="button" ry="5" rx="5" y="6" x="6" height="38" width="38"
                fill="#f2f5e9" fill-opacity="0.5" stroke="#606060" stroke-width="1.0"/>
           <path id="arrow"
             d="M 11.500037,31.436501 C 11.940474,20.09759 22.043105,11.32322 32.158766,21.979434 L 37.068811,17.246167 C 37.068811,17.246167 37.088388,32 37.088388,32 L 22.160133,31.978069 C 22.160133,31.978069 26.997745,27.140456 26.997745,27.140456 C 18.528582,18.264221 13.291696,25.230495 11.500037,31.436501 z"
             style="fill:#404040;"/>
          </a>
         </g>
        </svg>
</svg>
