<?xml version="1.0" encoding="UTF-8" standalone="no"?>
<!DOCTYPE svg PUBLIC "-//W3C//DTD SVG 1.1//EN"
 "http://www.w3.org/Graphics/SVG/1.1/DTD/svg11.dtd">
<!-- Generated by graphviz version 2.44.0 (0)
 -->
<!-- Title: Manager/Core.h Pages: 1 -->
<svg width="512pt" height="84pt"
 viewBox="0.00 0.00 512.00 84.00" xmlns="http://www.w3.org/2000/svg" xmlns:xlink="http://www.w3.org/1999/xlink">
<g id="graph0" class="graph" transform="scale(1 1) rotate(0) translate(4 80)">
<title>Manager/Core.h</title>
<polygon fill="white" stroke="transparent" points="-4,4 -4,-80 508,-80 508,4 -4,4"/>
<!-- Node1 -->
<g id="node1" class="node">
<title>Node1</title>
<g id="a_node1"><a xlink:title="KS: Core MaCh3 definitions and compile&#45;time configuration utilities.">
<polygon fill="#bfbfbf" stroke="black" points="221,-56.5 221,-75.5 307,-75.5 307,-56.5 221,-56.5"/>
<text text-anchor="middle" x="264" y="-63.5" font-family="Helvetica" font-size="10.00">Manager/Core.h</text>
</a>
</g>
</g>
<!-- Node2 -->
<g id="node2" class="node">
<title>Node2</title>
<g id="a_node2"><a xlink:title=" ">
<polygon fill="white" stroke="#bfbfbf" points="0,-0.5 0,-19.5 52,-19.5 52,-0.5 0,-0.5"/>
<text text-anchor="middle" x="26" y="-7.5" font-family="Helvetica" font-size="10.00">sstream</text>
</a>
</g>
</g>
<!-- Node1&#45;&gt;Node2 -->
<g id="edge1" class="edge">
<title>Node1&#45;&gt;Node2</title>
<path fill="none" stroke="midnightblue" d="M223.47,-56.43C184.51,-48.11 123.74,-34.87 62.23,-20.24"/>
<polygon fill="midnightblue" stroke="midnightblue" points="62.89,-16.8 52.35,-17.88 61.26,-23.61 62.89,-16.8"/>
</g>
<!-- Node3 -->
<g id="node3" class="node">
<title>Node3</title>
<g id="a_node3"><a xlink:title=" ">
<polygon fill="white" stroke="#bfbfbf" points="70,-0.5 70,-19.5 120,-19.5 120,-0.5 70,-0.5"/>
<text text-anchor="middle" x="95" y="-7.5" font-family="Helvetica" font-size="10.00">fstream</text>
</a>
</g>
</g>
<!-- Node1&#45;&gt;Node3 -->
<g id="edge2" class="edge">
<title>Node1&#45;&gt;Node3</title>
<path fill="none" stroke="midnightblue" d="M237.22,-56.44C208.16,-47.16 161.66,-32.3 129.79,-22.12"/>
<polygon fill="midnightblue" stroke="midnightblue" points="130.59,-18.7 120,-18.99 128.46,-25.37 130.59,-18.7"/>
</g>
<!-- Node4 -->
<g id="node4" class="node">
<title>Node4</title>
<g id="a_node4"><a xlink:title=" ">
<polygon fill="white" stroke="#bfbfbf" points="138,-0.5 138,-19.5 192,-19.5 192,-0.5 138,-0.5"/>
<text text-anchor="middle" x="165" y="-7.5" font-family="Helvetica" font-size="10.00">iostream</text>
</a>
</g>
</g>
<!-- Node1&#45;&gt;Node4 -->
<g id="edge3" class="edge">
<title>Node1&#45;&gt;Node4</title>
<path fill="none" stroke="midnightblue" d="M248.09,-56.32C232.36,-47.74 208.06,-34.49 189.79,-24.52"/>
<polygon fill="midnightblue" stroke="midnightblue" points="191.32,-21.37 180.87,-19.65 187.97,-27.52 191.32,-21.37"/>
</g>
<!-- Node5 -->
<g id="node5" class="node">
<title>Node5</title>
<g id="a_node5"><a xlink:title=" ">
<polygon fill="white" stroke="#bfbfbf" points="210.5,-0.5 210.5,-19.5 253.5,-19.5 253.5,-0.5 210.5,-0.5"/>
<text text-anchor="middle" x="232" y="-7.5" font-family="Helvetica" font-size="10.00">vector</text>
</a>
</g>
</g>
<!-- Node1&#45;&gt;Node5 -->
<g id="edge4" class="edge">
<title>Node1&#45;&gt;Node5</title>
<path fill="none" stroke="midnightblue" d="M258.72,-56.08C254.29,-48.61 247.84,-37.72 242.38,-28.52"/>
<polygon fill="midnightblue" stroke="midnightblue" points="245.29,-26.57 237.19,-19.75 239.27,-30.14 245.29,-26.57"/>
</g>
<!-- Node6 -->
<g id="node6" class="node">
<title>Node6</title>
<g id="a_node6"><a xlink:title=" ">
<polygon fill="white" stroke="#bfbfbf" points="272,-0.5 272,-19.5 322,-19.5 322,-0.5 272,-0.5"/>
<text text-anchor="middle" x="297" y="-7.5" font-family="Helvetica" font-size="10.00">iomanip</text>
</a>
</g>
</g>
<!-- Node1&#45;&gt;Node6 -->
<g id="edge5" class="edge">
<title>Node1&#45;&gt;Node6</title>
<path fill="none" stroke="midnightblue" d="M269.45,-56.08C274.01,-48.61 280.67,-37.72 286.29,-28.52"/>
<polygon fill="midnightblue" stroke="midnightblue" points="289.42,-30.11 291.65,-19.75 283.45,-26.46 289.42,-30.11"/>
</g>
<!-- Node7 -->
<g id="node7" class="node">
<title>Node7</title>
<g id="a_node7"><a xlink:title=" ">
<polygon fill="white" stroke="#bfbfbf" points="340,-0.5 340,-19.5 384,-19.5 384,-0.5 340,-0.5"/>
<text text-anchor="middle" x="362" y="-7.5" font-family="Helvetica" font-size="10.00">cmath</text>
</a>
</g>
</g>
<!-- Node1&#45;&gt;Node7 -->
<g id="edge6" class="edge">
<title>Node1&#45;&gt;Node7</title>
<path fill="none" stroke="midnightblue" d="M279.75,-56.32C295.32,-47.74 319.38,-34.49 337.46,-24.52"/>
<polygon fill="midnightblue" stroke="midnightblue" points="339.22,-27.55 346.29,-19.65 335.85,-21.42 339.22,-27.55"/>
</g>
<!-- Node8 -->
<g id="node8" class="node">
<title>Node8</title>
<g id="a_node8"><a xlink:title=" ">
<polygon fill="white" stroke="#bfbfbf" points="402,-0.5 402,-19.5 442,-19.5 442,-0.5 402,-0.5"/>
<text text-anchor="middle" x="422" y="-7.5" font-family="Helvetica" font-size="10.00">limits</text>
</a>
</g>
</g>
<!-- Node1&#45;&gt;Node8 -->
<g id="edge7" class="edge">
<title>Node1&#45;&gt;Node8</title>
<path fill="none" stroke="midnightblue" d="M289.04,-56.44C317.02,-46.88 362.32,-31.4 392.13,-21.21"/>
<polygon fill="midnightblue" stroke="midnightblue" points="393.27,-24.52 401.6,-17.97 391.01,-17.89 393.27,-24.52"/>
</g>
<!-- Node9 -->
<g id="node9" class="node">
<title>Node9</title>
<g id="a_node9"><a xlink:title=" ">
<polygon fill="white" stroke="#bfbfbf" points="460,-0.5 460,-19.5 504,-19.5 504,-0.5 460,-0.5"/>
<text text-anchor="middle" x="482" y="-7.5" font-family="Helvetica" font-size="10.00">omp.h</text>
</a>
</g>
</g>
<!-- Node1&#45;&gt;Node9 -->
<g id="edge8" class="edge">
<title>Node1&#45;&gt;Node9</title>
<path fill="none" stroke="midnightblue" d="M301.74,-56.46C337.53,-48.24 393.03,-35.19 449.82,-20.23"/>
<polygon fill="midnightblue" stroke="midnightblue" points="450.91,-23.56 459.68,-17.61 449.12,-16.79 450.91,-23.56"/>
</g>
</g>
</svg>
