<?xml version="1.0" encoding="UTF-8" standalone="no"?>
<!DOCTYPE svg PUBLIC "-//W3C//DTD SVG 1.1//EN"
 "http://www.w3.org/Graphics/SVG/1.1/DTD/svg11.dtd">
<!-- Generated by graphviz version 2.44.0 (0)
 -->
<!-- Title: /__w/MaCh3/MaCh3/Fitters/DelayedMR2T2.h Pages: 1 -->
<svg width="460pt" height="173pt"
 viewBox="0.00 0.00 459.50 173.00" xmlns="http://www.w3.org/2000/svg" xmlns:xlink="http://www.w3.org/1999/xlink">
<g id="graph0" class="graph" transform="scale(1 1) rotate(0) translate(4 169)">
<title>/__w/MaCh3/MaCh3/Fitters/DelayedMR2T2.h</title>
<polygon fill="white" stroke="transparent" points="-4,4 -4,-169 455.5,-169 455.5,4 -4,4"/>
<!-- Node1 -->
<g id="node1" class="node">
<title>Node1</title>
<g id="a_node1"><a xlink:title=" ">
<polygon fill="#bfbfbf" stroke="black" points="156,-134.5 156,-164.5 294,-164.5 294,-134.5 156,-134.5"/>
<text text-anchor="start" x="164" y="-152.5" font-family="Helvetica" font-size="10.00">/__w/MaCh3/MaCh3/Fitters</text>
<text text-anchor="middle" x="225" y="-141.5" font-family="Helvetica" font-size="10.00">/DelayedMR2T2.h</text>
</a>
</g>
</g>
<!-- Node2 -->
<g id="node2" class="node">
<title>Node2</title>
<g id="a_node2"><a xlink:href="DelayedMR2T2_8cpp.html" target="_top" xlink:title=" ">
<polygon fill="white" stroke="black" points="0,-67.5 0,-97.5 138,-97.5 138,-67.5 0,-67.5"/>
<text text-anchor="start" x="8" y="-85.5" font-family="Helvetica" font-size="10.00">/__w/MaCh3/MaCh3/Fitters</text>
<text text-anchor="middle" x="69" y="-74.5" font-family="Helvetica" font-size="10.00">/DelayedMR2T2.cpp</text>
</a>
</g>
</g>
<!-- Node1&#45;&gt;Node2 -->
<g id="edge1" class="edge">
<title>Node1&#45;&gt;Node2</title>
<path fill="none" stroke="midnightblue" d="M181.91,-130.54C156.94,-120.14 125.97,-107.24 102.78,-97.58"/>
<polygon fill="midnightblue" stroke="midnightblue" points="180.57,-133.78 191.15,-134.4 183.27,-127.32 180.57,-133.78"/>
</g>
<!-- Node3 -->
<g id="node3" class="node">
<title>Node3</title>
<g id="a_node3"><a xlink:href="MaCh3Factory_8h.html" target="_top" xlink:title="Factory methods for MaCh3 software which streamline initialisation of different objects.">
<polygon fill="white" stroke="black" points="156,-67.5 156,-97.5 294,-97.5 294,-67.5 156,-67.5"/>
<text text-anchor="start" x="164" y="-85.5" font-family="Helvetica" font-size="10.00">/__w/MaCh3/MaCh3/Fitters</text>
<text text-anchor="middle" x="225" y="-74.5" font-family="Helvetica" font-size="10.00">/MaCh3Factory.h</text>
</a>
</g>
</g>
<!-- Node1&#45;&gt;Node3 -->
<g id="edge2" class="edge">
<title>Node1&#45;&gt;Node3</title>
<path fill="none" stroke="midnightblue" d="M225,-124.11C225,-115.15 225,-105.32 225,-97.58"/>
<polygon fill="midnightblue" stroke="midnightblue" points="221.5,-124.4 225,-134.4 228.5,-124.4 221.5,-124.4"/>
</g>
<!-- Node5 -->
<g id="node5" class="node">
<title>Node5</title>
<g id="a_node5"><a xlink:href="fitters_8cpp.html" target="_top" xlink:title=" ">
<polygon fill="white" stroke="black" points="312.5,-67.5 312.5,-97.5 451.5,-97.5 451.5,-67.5 312.5,-67.5"/>
<text text-anchor="start" x="320.5" y="-85.5" font-family="Helvetica" font-size="10.00">/__w/MaCh3/MaCh3/python</text>
<text text-anchor="middle" x="382" y="-74.5" font-family="Helvetica" font-size="10.00">/fitters.cpp</text>
</a>
</g>
</g>
<!-- Node1&#45;&gt;Node5 -->
<g id="edge4" class="edge">
<title>Node1&#45;&gt;Node5</title>
<path fill="none" stroke="midnightblue" d="M268.37,-130.54C293.49,-120.14 324.66,-107.24 348,-97.58"/>
<polygon fill="midnightblue" stroke="midnightblue" points="266.97,-127.34 259.07,-134.4 269.64,-133.8 266.97,-127.34"/>
</g>
<!-- Node4 -->
<g id="node4" class="node">
<title>Node4</title>
<g id="a_node4"><a xlink:href="MaCh3Factory_8cpp.html" target="_top" xlink:title=" ">
<polygon fill="white" stroke="black" points="156,-0.5 156,-30.5 294,-30.5 294,-0.5 156,-0.5"/>
<text text-anchor="start" x="164" y="-18.5" font-family="Helvetica" font-size="10.00">/__w/MaCh3/MaCh3/Fitters</text>
<text text-anchor="middle" x="225" y="-7.5" font-family="Helvetica" font-size="10.00">/MaCh3Factory.cpp</text>
</a>
</g>
</g>
<!-- Node3&#45;&gt;Node4 -->
<g id="edge3" class="edge">
<title>Node3&#45;&gt;Node4</title>
<path fill="none" stroke="midnightblue" d="M225,-57.11C225,-48.15 225,-38.32 225,-30.58"/>
<polygon fill="midnightblue" stroke="midnightblue" points="221.5,-57.4 225,-67.4 228.5,-57.4 221.5,-57.4"/>
</g>
</g>
</svg>
