<?xml version="1.0" encoding="UTF-8" standalone="no"?>
<!DOCTYPE svg PUBLIC "-//W3C//DTD SVG 1.1//EN"
 "http://www.w3.org/Graphics/SVG/1.1/DTD/svg11.dtd">
<!-- Generated by graphviz version 2.44.0 (0)
 -->
<!-- Title: Fitters Pages: 1 -->
<svg width="113pt" height="260pt"
 viewBox="0.00 0.00 113.47 260.00" xmlns="http://www.w3.org/2000/svg" xmlns:xlink="http://www.w3.org/1999/xlink">
<g id="graph0" class="graph" transform="scale(1 1) rotate(0) translate(4 256)">
<title>Fitters</title>
<polygon fill="white" stroke="transparent" points="-4,4 -4,-256 109.47,-256 109.47,4 -4,4"/>
<!-- dir_c4587985b869c96ecd5a3e2399525831 -->
<g id="node1" class="node">
<title>dir_c4587985b869c96ecd5a3e2399525831</title>
<g id="a_node1"><a xlink:href="dir_c4587985b869c96ecd5a3e2399525831.html" target="_top" xlink:title="Fitters">
<polygon fill="#eeeeff" stroke="black" points="93.5,-252 39.5,-252 39.5,-216 93.5,-216 93.5,-252"/>
<text text-anchor="middle" x="66.5" y="-231.5" font-family="Helvetica" font-size="10.00">Fitters</text>
</a>
</g>
</g>
<!-- dir_0d0ed8c9b19e6818cf5af4bd559a697b -->
<g id="node2" class="node">
<title>dir_0d0ed8c9b19e6818cf5af4bd559a697b</title>
<g id="a_node2"><a xlink:href="dir_0d0ed8c9b19e6818cf5af4bd559a697b.html" target="_top" xlink:title="Manager">
<polygon fill="none" stroke="black" points="93.5,-180 39.5,-180 39.5,-144 93.5,-144 93.5,-180"/>
<text text-anchor="middle" x="66.5" y="-159.5" font-family="Helvetica" font-size="10.00">Manager</text>
</a>
</g>
</g>
<!-- dir_c4587985b869c96ecd5a3e2399525831&#45;&gt;dir_0d0ed8c9b19e6818cf5af4bd559a697b -->
<g id="edge3" class="edge">
<title>dir_c4587985b869c96ecd5a3e2399525831&#45;&gt;dir_0d0ed8c9b19e6818cf5af4bd559a697b</title>
<path fill="none" stroke="black" d="M66.5,-215.7C66.5,-207.98 66.5,-198.71 66.5,-190.11"/>
<polygon fill="black" stroke="black" points="70,-190.1 66.5,-180.1 63,-190.1 70,-190.1"/>
<g id="a_edge3&#45;headlabel"><a xlink:href="dir_000004_000005.html" target="_top" xlink:title="3">
<text text-anchor="middle" x="72.84" y="-191.2" font-family="Helvetica" font-size="10.00">3</text>
</a>
</g>
</g>
<!-- dir_24e107d8aaaa0f0fb9ce89773de45c08 -->
<g id="node3" class="node">
<title>dir_24e107d8aaaa0f0fb9ce89773de45c08</title>
<g id="a_node3"><a xlink:href="dir_24e107d8aaaa0f0fb9ce89773de45c08.html" target="_top" xlink:title="Samples">
<polygon fill="none" stroke="black" points="55,-108 0,-108 0,-72 55,-72 55,-108"/>
<text text-anchor="middle" x="27.5" y="-87.5" font-family="Helvetica" font-size="10.00">Samples</text>
</a>
</g>
</g>
<!-- dir_c4587985b869c96ecd5a3e2399525831&#45;&gt;dir_24e107d8aaaa0f0fb9ce89773de45c08 -->
<g id="edge4" class="edge">
<title>dir_c4587985b869c96ecd5a3e2399525831&#45;&gt;dir_24e107d8aaaa0f0fb9ce89773de45c08</title>
<path fill="none" stroke="black" d="M51.07,-215.72C43.36,-205.96 34.78,-193.11 30.5,-180 24,-160.07 23.55,-136.27 24.55,-118.31"/>
<polygon fill="black" stroke="black" points="28.05,-118.45 25.31,-108.22 21.07,-117.93 28.05,-118.45"/>
<g id="a_edge4&#45;headlabel"><a xlink:href="dir_000004_000009.html" target="_top" xlink:title="7">
<text text-anchor="middle" x="30.62" y="-119.75" font-family="Helvetica" font-size="10.00">7</text>
</a>
</g>
</g>
<!-- dir_e05d56c3c81e8a80e8e7fed7226c4d57 -->
<g id="node4" class="node">
<title>dir_e05d56c3c81e8a80e8e7fed7226c4d57</title>
<g id="a_node4"><a xlink:href="dir_e05d56c3c81e8a80e8e7fed7226c4d57.html" target="_top" xlink:title="Parameters">
<polygon fill="none" stroke="black" points="89.5,-36 21.5,-36 21.5,0 89.5,0 89.5,-36"/>
<text text-anchor="middle" x="55.5" y="-15.5" font-family="Helvetica" font-size="10.00">Parameters</text>
</a>
</g>
</g>
<!-- dir_c4587985b869c96ecd5a3e2399525831&#45;&gt;dir_e05d56c3c81e8a80e8e7fed7226c4d57 -->
<g id="edge5" class="edge">
<title>dir_c4587985b869c96ecd5a3e2399525831&#45;&gt;dir_e05d56c3c81e8a80e8e7fed7226c4d57</title>
<path fill="none" stroke="black" d="M82.11,-215.77C89.87,-206.03 98.45,-193.18 102.5,-180 107.2,-164.71 104.96,-159.81 102.5,-144 96.95,-108.41 80.83,-69.97 69.01,-45.26"/>
<polygon fill="black" stroke="black" points="72.1,-43.62 64.56,-36.18 65.81,-46.7 72.1,-43.62"/>
<g id="a_edge5&#45;headlabel"><a xlink:href="dir_000004_000006.html" target="_top" xlink:title="4">
<text text-anchor="middle" x="76.23" y="-43.1" font-family="Helvetica" font-size="10.00">4</text>
</a>
</g>
</g>
<!-- dir_0d0ed8c9b19e6818cf5af4bd559a697b&#45;&gt;dir_24e107d8aaaa0f0fb9ce89773de45c08 -->
<g id="edge6" class="edge">
<title>dir_0d0ed8c9b19e6818cf5af4bd559a697b&#45;&gt;dir_24e107d8aaaa0f0fb9ce89773de45c08</title>
<path fill="none" stroke="black" d="M50.94,-143.7C45.68,-135.73 40.1,-126.1 35.57,-117.26"/>
<polygon fill="black" stroke="black" points="38.65,-115.58 31.13,-108.1 32.35,-118.63 38.65,-115.58"/>
<g id="a_edge6&#45;headlabel"><a xlink:href="dir_000005_000009.html" target="_top" xlink:title="1">
<text text-anchor="middle" x="42.77" y="-115.07" font-family="Helvetica" font-size="10.00">1</text>
</a>
</g>
</g>
<!-- dir_24e107d8aaaa0f0fb9ce89773de45c08&#45;&gt;dir_0d0ed8c9b19e6818cf5af4bd559a697b -->
<g id="edge7" class="edge">
<title>dir_24e107d8aaaa0f0fb9ce89773de45c08&#45;&gt;dir_0d0ed8c9b19e6818cf5af4bd559a697b</title>
<path fill="none" stroke="black" d="M42.92,-108.1C48.18,-116.04 53.77,-125.67 58.31,-134.51"/>
<polygon fill="black" stroke="black" points="55.26,-136.23 62.78,-143.7 61.55,-133.17 55.26,-136.23"/>
<g id="a_edge7&#45;headlabel"><a xlink:href="dir_000009_000005.html" target="_top" xlink:title="8">
<text text-anchor="middle" x="51.13" y="-131.74" font-family="Helvetica" font-size="10.00">8</text>
</a>
</g>
</g>
<!-- dir_24e107d8aaaa0f0fb9ce89773de45c08&#45;&gt;dir_e05d56c3c81e8a80e8e7fed7226c4d57 -->
<g id="edge8" class="edge">
<title>dir_24e107d8aaaa0f0fb9ce89773de45c08&#45;&gt;dir_e05d56c3c81e8a80e8e7fed7226c4d57</title>
<path fill="none" stroke="black" d="M28.51,-71.7C30.87,-63.73 34.51,-54.1 38.43,-45.26"/>
<polygon fill="black" stroke="black" points="41.66,-46.64 42.76,-36.1 35.33,-43.65 41.66,-46.64"/>
<g id="a_edge8&#45;headlabel"><a xlink:href="dir_000009_000006.html" target="_top" xlink:title="3">
<text text-anchor="middle" x="42.69" y="-48.6" font-family="Helvetica" font-size="10.00">3</text>
</a>
</g>
</g>
<!-- dir_e05d56c3c81e8a80e8e7fed7226c4d57&#45;&gt;dir_0d0ed8c9b19e6818cf5af4bd559a697b -->
<g id="edge1" class="edge">
<title>dir_e05d56c3c81e8a80e8e7fed7226c4d57&#45;&gt;dir_0d0ed8c9b19e6818cf5af4bd559a697b</title>
<path fill="none" stroke="black" d="M58.6,-36.12C60.35,-46.47 62.39,-59.95 63.5,-72 65.4,-92.65 66.13,-116.1 66.4,-133.74"/>
<polygon fill="black" stroke="black" points="62.9,-133.94 66.51,-143.9 69.9,-133.86 62.9,-133.94"/>
<g id="a_edge1&#45;headlabel"><a xlink:href="dir_000006_000005.html" target="_top" xlink:title="7">
<text text-anchor="middle" x="60.02" y="-127.88" font-family="Helvetica" font-size="10.00">7</text>
</a>
</g>
</g>
<!-- dir_e05d56c3c81e8a80e8e7fed7226c4d57&#45;&gt;dir_24e107d8aaaa0f0fb9ce89773de45c08 -->
<g id="edge2" class="edge">
<title>dir_e05d56c3c81e8a80e8e7fed7226c4d57&#45;&gt;dir_24e107d8aaaa0f0fb9ce89773de45c08</title>
<path fill="none" stroke="black" d="M54.55,-36.1C52.21,-44.04 48.59,-53.67 44.66,-62.51"/>
<polygon fill="black" stroke="black" points="41.43,-61.16 40.34,-71.7 47.77,-64.14 41.43,-61.16"/>
<g id="a_edge2&#45;headlabel"><a xlink:href="dir_000006_000009.html" target="_top" xlink:title="2">
<text text-anchor="middle" x="40.4" y="-54.2" font-family="Helvetica" font-size="10.00">2</text>
</a>
</g>
</g>
</g>
</svg>
