<?xml version="1.0" encoding="UTF-8" standalone="no"?>
<!DOCTYPE svg PUBLIC "-//W3C//DTD SVG 1.1//EN"
 "http://www.w3.org/Graphics/SVG/1.1/DTD/svg11.dtd">
<!-- Generated by graphviz version 2.44.0 (0)
 -->
<!-- Title: /__w/MaCh3/MaCh3/Fitters Pages: 1 -->
<svg width="148pt" height="311pt"
 viewBox="0.00 0.00 148.00 311.00" xmlns="http://www.w3.org/2000/svg" xmlns:xlink="http://www.w3.org/1999/xlink">
<g id="graph0" class="graph" transform="scale(1 1) rotate(0) translate(4 307)">
<title>/__w/MaCh3/MaCh3/Fitters</title>
<polygon fill="white" stroke="transparent" points="-4,4 -4,-307 144,-307 144,4 -4,4"/>
<g id="clust1" class="cluster">
<title>clusterdir_8540fe61b410ad578d6cced20c9b8874</title>
<g id="a_clust1"><a xlink:href="dir_8540fe61b410ad578d6cced20c9b8874.html" target="_top" xlink:title="MaCh3">
<polygon fill="#ddddee" stroke="black" points="8,-8 8,-295 132,-295 132,-8 8,-8"/>
<text text-anchor="middle" x="70" y="-283" font-family="Helvetica" font-size="10.00">MaCh3</text>
</a>
</g>
</g>
<!-- dir_05a3cd45f84ffc796ecc78f916a8393a -->
<g id="node1" class="node">
<title>dir_05a3cd45f84ffc796ecc78f916a8393a</title>
<g id="a_node1"><a xlink:href="dir_05a3cd45f84ffc796ecc78f916a8393a.html" target="_top" xlink:title="Samples">
<polygon fill="none" stroke="black" points="74.5,-196 19.5,-196 19.5,-160 74.5,-160 74.5,-196"/>
<text text-anchor="middle" x="47" y="-175.5" font-family="Helvetica" font-size="10.00">Samples</text>
</a>
</g>
</g>
<!-- dir_1e83bc892953b3a70d29f26b4f8a12c0 -->
<g id="node2" class="node">
<title>dir_1e83bc892953b3a70d29f26b4f8a12c0</title>
<g id="a_node2"><a xlink:href="dir_1e83bc892953b3a70d29f26b4f8a12c0.html" target="_top" xlink:title="Manager">
<polygon fill="none" stroke="black" points="83,-52 29,-52 29,-16 83,-16 83,-52"/>
<text text-anchor="middle" x="56" y="-31.5" font-family="Helvetica" font-size="10.00">Manager</text>
</a>
</g>
</g>
<!-- dir_05a3cd45f84ffc796ecc78f916a8393a&#45;&gt;dir_1e83bc892953b3a70d29f26b4f8a12c0 -->
<g id="edge1" class="edge">
<title>dir_05a3cd45f84ffc796ecc78f916a8393a&#45;&gt;dir_1e83bc892953b3a70d29f26b4f8a12c0</title>
<path fill="none" stroke="black" d="M31.6,-159.87C21.34,-141.89 11.64,-112.86 18,-88 20.4,-78.6 24.86,-69.07 29.99,-60.73"/>
<polygon fill="black" stroke="black" points="33.05,-62.46 35.77,-52.22 27.26,-58.53 33.05,-62.46"/>
<g id="a_edge1&#45;headlabel"><a xlink:href="dir_000012_000007.html" target="_top" xlink:title="7">
<text text-anchor="middle" x="33.38" y="-64.53" font-family="Helvetica" font-size="10.00">7</text>
</a>
</g>
</g>
<!-- dir_e724c6cb2d9d603d4bd7b5198c02cc5a -->
<g id="node3" class="node">
<title>dir_e724c6cb2d9d603d4bd7b5198c02cc5a</title>
<g id="a_node3"><a xlink:href="dir_e724c6cb2d9d603d4bd7b5198c02cc5a.html" target="_top" xlink:title="Parameters">
<polygon fill="none" stroke="black" points="104,-124 36,-124 36,-88 104,-88 104,-124"/>
<text text-anchor="middle" x="70" y="-103.5" font-family="Helvetica" font-size="10.00">Parameters</text>
</a>
</g>
</g>
<!-- dir_05a3cd45f84ffc796ecc78f916a8393a&#45;&gt;dir_e724c6cb2d9d603d4bd7b5198c02cc5a -->
<g id="edge2" class="edge">
<title>dir_05a3cd45f84ffc796ecc78f916a8393a&#45;&gt;dir_e724c6cb2d9d603d4bd7b5198c02cc5a</title>
<path fill="none" stroke="black" d="M46.77,-159.7C48.55,-151.81 51.45,-142.3 54.71,-133.55"/>
<polygon fill="black" stroke="black" points="58.02,-134.69 58.48,-124.1 51.52,-132.09 58.02,-134.69"/>
<g id="a_edge2&#45;headlabel"><a xlink:href="dir_000012_000008.html" target="_top" xlink:title="2">
<text text-anchor="middle" x="59.32" y="-136.58" font-family="Helvetica" font-size="10.00">2</text>
</a>
</g>
</g>
<!-- dir_1e83bc892953b3a70d29f26b4f8a12c0&#45;&gt;dir_05a3cd45f84ffc796ecc78f916a8393a -->
<g id="edge8" class="edge">
<title>dir_1e83bc892953b3a70d29f26b4f8a12c0&#45;&gt;dir_05a3cd45f84ffc796ecc78f916a8393a</title>
<path fill="none" stroke="black" d="M51.62,-52.22C46.35,-62.16 39.27,-75.2 36,-88 30.69,-108.78 36.59,-132.48 42,-150.19"/>
<polygon fill="black" stroke="black" points="38.7,-151.38 45.04,-159.87 45.38,-149.28 38.7,-151.38"/>
<g id="a_edge8&#45;headlabel"><a xlink:href="dir_000007_000012.html" target="_top" xlink:title="1">
<text text-anchor="middle" x="34.92" y="-146.3" font-family="Helvetica" font-size="10.00">1</text>
</a>
</g>
</g>
<!-- dir_e724c6cb2d9d603d4bd7b5198c02cc5a&#45;&gt;dir_05a3cd45f84ffc796ecc78f916a8393a -->
<g id="edge6" class="edge">
<title>dir_e724c6cb2d9d603d4bd7b5198c02cc5a&#45;&gt;dir_05a3cd45f84ffc796ecc78f916a8393a</title>
<path fill="none" stroke="black" d="M70.28,-124.1C68.52,-131.96 65.62,-141.46 62.38,-150.23"/>
<polygon fill="black" stroke="black" points="59.06,-149.11 58.6,-159.7 65.56,-151.71 59.06,-149.11"/>
<g id="a_edge6&#45;headlabel"><a xlink:href="dir_000008_000012.html" target="_top" xlink:title="1">
<text text-anchor="middle" x="57.75" y="-142.22" font-family="Helvetica" font-size="10.00">1</text>
</a>
</g>
</g>
<!-- dir_e724c6cb2d9d603d4bd7b5198c02cc5a&#45;&gt;dir_1e83bc892953b3a70d29f26b4f8a12c0 -->
<g id="edge7" class="edge">
<title>dir_e724c6cb2d9d603d4bd7b5198c02cc5a&#45;&gt;dir_1e83bc892953b3a70d29f26b4f8a12c0</title>
<path fill="none" stroke="black" d="M66.54,-87.7C65,-79.98 63.14,-70.71 61.42,-62.11"/>
<polygon fill="black" stroke="black" points="64.81,-61.22 59.42,-52.1 57.95,-62.6 64.81,-61.22"/>
<g id="a_edge7&#45;headlabel"><a xlink:href="dir_000008_000007.html" target="_top" xlink:title="7">
<text text-anchor="middle" x="68.3" y="-61.69" font-family="Helvetica" font-size="10.00">7</text>
</a>
</g>
</g>
<!-- dir_dcebc3cac6501544ef7ba4ea95bda73c -->
<g id="node4" class="node">
<title>dir_dcebc3cac6501544ef7ba4ea95bda73c</title>
<g id="a_node4"><a xlink:href="dir_dcebc3cac6501544ef7ba4ea95bda73c.html" target="_top" xlink:title="Fitters">
<polygon fill="#eeeeff" stroke="black" points="121,-268 67,-268 67,-232 121,-232 121,-268"/>
<text text-anchor="middle" x="94" y="-247.5" font-family="Helvetica" font-size="10.00">Fitters</text>
</a>
</g>
</g>
<!-- dir_dcebc3cac6501544ef7ba4ea95bda73c&#45;&gt;dir_05a3cd45f84ffc796ecc78f916a8393a -->
<g id="edge3" class="edge">
<title>dir_dcebc3cac6501544ef7ba4ea95bda73c&#45;&gt;dir_05a3cd45f84ffc796ecc78f916a8393a</title>
<path fill="none" stroke="black" d="M82.38,-231.7C76.86,-223.47 70.15,-213.48 64.07,-204.42"/>
<polygon fill="black" stroke="black" points="66.96,-202.46 58.48,-196.1 61.15,-206.36 66.96,-202.46"/>
<g id="a_edge3&#45;headlabel"><a xlink:href="dir_000006_000012.html" target="_top" xlink:title="7">
<text text-anchor="middle" x="71.33" y="-201.36" font-family="Helvetica" font-size="10.00">7</text>
</a>
</g>
</g>
<!-- dir_dcebc3cac6501544ef7ba4ea95bda73c&#45;&gt;dir_1e83bc892953b3a70d29f26b4f8a12c0 -->
<g id="edge4" class="edge">
<title>dir_dcebc3cac6501544ef7ba4ea95bda73c&#45;&gt;dir_1e83bc892953b3a70d29f26b4f8a12c0</title>
<path fill="none" stroke="black" d="M101.59,-231.71C113.77,-201.28 134.25,-136.77 113,-88 108.07,-76.68 99.39,-66.68 90.27,-58.51"/>
<polygon fill="black" stroke="black" points="92.5,-55.81 82.58,-52.09 88.01,-61.19 92.5,-55.81"/>
<g id="a_edge4&#45;headlabel"><a xlink:href="dir_000006_000007.html" target="_top" xlink:title="3">
<text text-anchor="middle" x="97.08" y="-53.44" font-family="Helvetica" font-size="10.00">3</text>
</a>
</g>
</g>
<!-- dir_dcebc3cac6501544ef7ba4ea95bda73c&#45;&gt;dir_e724c6cb2d9d603d4bd7b5198c02cc5a -->
<g id="edge5" class="edge">
<title>dir_dcebc3cac6501544ef7ba4ea95bda73c&#45;&gt;dir_e724c6cb2d9d603d4bd7b5198c02cc5a</title>
<path fill="none" stroke="black" d="M92.82,-231.83C91.41,-213.82 88.64,-184.76 84,-160 82.4,-151.45 80.16,-142.25 77.93,-133.95"/>
<polygon fill="black" stroke="black" points="81.23,-132.74 75.18,-124.04 74.49,-134.61 81.23,-132.74"/>
<g id="a_edge5&#45;headlabel"><a xlink:href="dir_000006_000008.html" target="_top" xlink:title="4">
<text text-anchor="middle" x="84.93" y="-132.94" font-family="Helvetica" font-size="10.00">4</text>
</a>
</g>
</g>
</g>
</svg>
