<?xml version="1.0" encoding="UTF-8" standalone="no"?>
<!DOCTYPE svg PUBLIC "-//W3C//DTD SVG 1.1//EN"
 "http://www.w3.org/Graphics/SVG/1.1/DTD/svg11.dtd">
<!-- Generated by graphviz version 2.44.0 (0)
 -->
<!-- Title: CLI/Plotting Pages: 1 -->
<svg width="94pt" height="151pt"
 viewBox="0.00 0.00 94.00 151.00" xmlns="http://www.w3.org/2000/svg" xmlns:xlink="http://www.w3.org/1999/xlink">
<g id="graph0" class="graph" transform="scale(1 1) rotate(0) translate(4 147)">
<title>CLI/Plotting</title>
<polygon fill="white" stroke="transparent" points="-4,4 -4,-147 90,-147 90,4 -4,4"/>
<g id="clust1" class="cluster">
<title>clusterdir_e126f7b990f7130c1196f46e29e55d5b</title>
<g id="a_clust1"><a xlink:href="dir_e126f7b990f7130c1196f46e29e55d5b.html" target="_top" xlink:title="CLI">
<polygon fill="#ddddee" stroke="black" points="8,-64 8,-135 78,-135 78,-64 8,-64"/>
<text text-anchor="middle" x="43" y="-123" font-family="Helvetica" font-size="10.00">CLI</text>
</a>
</g>
</g>
<!-- dir_264ccb41d5c5e993ce13c03e3c8b5c92 -->
<g id="node1" class="node">
<title>dir_264ccb41d5c5e993ce13c03e3c8b5c92</title>
<g id="a_node1"><a xlink:href="dir_264ccb41d5c5e993ce13c03e3c8b5c92.html" target="_top" xlink:title="Plotting">
<polygon fill="#eeeeff" stroke="black" points="70,-108 16,-108 16,-72 70,-72 70,-108"/>
<text text-anchor="middle" x="43" y="-87.5" font-family="Helvetica" font-size="10.00">Plotting</text>
</a>
</g>
</g>
<!-- dir_0a824aa1f70ce3b829ef378253b085da -->
<g id="node2" class="node">
<title>dir_0a824aa1f70ce3b829ef378253b085da</title>
<g id="a_node2"><a xlink:href="dir_0a824aa1f70ce3b829ef378253b085da.html" target="_top" xlink:title="Utils">
<polygon fill="white" stroke="red" points="70,-36 16,-36 16,0 70,0 70,-36"/>
<text text-anchor="middle" x="43" y="-15.5" font-family="Helvetica" font-size="10.00">Utils</text>
</a>
</g>
</g>
<!-- dir_264ccb41d5c5e993ce13c03e3c8b5c92&#45;&gt;dir_0a824aa1f70ce3b829ef378253b085da -->
<g id="edge1" class="edge">
<title>dir_264ccb41d5c5e993ce13c03e3c8b5c92&#45;&gt;dir_0a824aa1f70ce3b829ef378253b085da</title>
<path fill="none" stroke="black" d="M43,-71.7C43,-63.98 43,-54.71 43,-46.11"/>
<polygon fill="black" stroke="black" points="46.5,-46.1 43,-36.1 39.5,-46.1 46.5,-46.1"/>
<g id="a_edge1&#45;headlabel"><a xlink:href="dir_000005_000016.html" target="_top" xlink:title="9">
<text text-anchor="middle" x="49.34" y="-47.2" font-family="Helvetica" font-size="10.00">9</text>
</a>
</g>
</g>
</g>
</svg>
