<?xml version="1.0" encoding="UTF-8" standalone="no"?>
<!DOCTYPE svg PUBLIC "-//W3C//DTD SVG 1.1//EN"
 "http://www.w3.org/Graphics/SVG/1.1/DTD/svg11.dtd">
<!-- Generated by graphviz version 2.43.0 (0)
 -->
<!-- Title: Diagnostics Pages: 1 -->
<svg width="300pt" height="82pt"
 viewBox="0.00 0.00 299.50 82.00" xmlns="http://www.w3.org/2000/svg" xmlns:xlink="http://www.w3.org/1999/xlink">
<g id="graph0" class="graph" transform="scale(1 1) rotate(0) translate(4 78)">
<title>Diagnostics</title>
<!-- dir_335e938d2c12c5a13717c0a8a9316e75 -->
<g id="node1" class="node">
<title>dir_335e938d2c12c5a13717c0a8a9316e75</title>
<g id="a_node1"><a xlink:href="dir_335e938d2c12c5a13717c0a8a9316e75.html" target="_top" xlink:title="Diagnostics">
<polygon fill="#edf0f7" stroke="#404040" stroke-width="2" points="178.5,-74 104.5,-74 104.5,-55 178.5,-55 178.5,-74"/>
<text text-anchor="middle" x="141.5" y="-62" font-family="Helvetica,sans-Serif" font-size="10.00">Diagnostics</text>
</a>
</g>
</g>
<!-- dir_0d0ed8c9b19e6818cf5af4bd559a697b -->
<g id="node2" class="node">
<title>dir_0d0ed8c9b19e6818cf5af4bd559a697b</title>
<g id="a_node2"><a xlink:href="dir_0d0ed8c9b19e6818cf5af4bd559a697b.html" target="_top" xlink:title="Manager">
<polygon fill="#edf0f7" stroke="#404040" points="59,-19 0,-19 0,0 59,0 59,-19"/>
<text text-anchor="middle" x="29.5" y="-7" font-family="Helvetica,sans-Serif" font-size="10.00">Manager</text>
</a>
</g>
</g>
<!-- dir_335e938d2c12c5a13717c0a8a9316e75&#45;&gt;dir_0d0ed8c9b19e6818cf5af4bd559a697b -->
<g id="edge1" class="edge">
<title>dir_335e938d2c12c5a13717c0a8a9316e75&#45;&gt;dir_0d0ed8c9b19e6818cf5af4bd559a697b</title>
<path fill="none" stroke="#63b8ff" d="M123.51,-54.98C105.57,-46.5 77.78,-33.35 57.07,-23.54"/>
<polygon fill="#63b8ff" stroke="#63b8ff" points="58.36,-20.28 47.82,-19.17 55.36,-26.61 58.36,-20.28"/>
<g id="a_edge1&#45;headlabel"><a xlink:href="dir_000000_000003.html" target="_top" xlink:title="7">
<text text-anchor="middle" x="62.82" y="-16.76" font-family="Helvetica,sans-Serif" font-size="10.00" fill="#63b8ff">7</text>
</a>
</g>
</g>
<!-- dir_24e107d8aaaa0f0fb9ce89773de45c08 -->
<g id="node3" class="node">
<title>dir_24e107d8aaaa0f0fb9ce89773de45c08</title>
<g id="a_node3"><a xlink:href="dir_24e107d8aaaa0f0fb9ce89773de45c08.html" target="_top" xlink:title="Samples">
<polygon fill="#edf0f7" stroke="#404040" points="136,-19 77,-19 77,0 136,0 136,-19"/>
<text text-anchor="middle" x="106.5" y="-7" font-family="Helvetica,sans-Serif" font-size="10.00">Samples</text>
</a>
</g>
</g>
<!-- dir_335e938d2c12c5a13717c0a8a9316e75&#45;&gt;dir_24e107d8aaaa0f0fb9ce89773de45c08 -->
<g id="edge2" class="edge">
<title>dir_335e938d2c12c5a13717c0a8a9316e75&#45;&gt;dir_24e107d8aaaa0f0fb9ce89773de45c08</title>
<path fill="none" stroke="#63b8ff" d="M135.72,-54.75C130.88,-47.42 123.82,-36.73 117.86,-27.7"/>
<polygon fill="#63b8ff" stroke="#63b8ff" points="120.6,-25.5 112.17,-19.09 114.76,-29.36 120.6,-25.5"/>
<g id="a_edge2&#45;headlabel"><a xlink:href="dir_000000_000008.html" target="_top" xlink:title="5">
<text text-anchor="middle" x="124.95" y="-24.44" font-family="Helvetica,sans-Serif" font-size="10.00" fill="#63b8ff">5</text>
</a>
</g>
</g>
<!-- dir_c4587985b869c96ecd5a3e2399525831 -->
<g id="node4" class="node">
<title>dir_c4587985b869c96ecd5a3e2399525831</title>
<g id="a_node4"><a xlink:href="dir_c4587985b869c96ecd5a3e2399525831.html" target="_top" xlink:title="Fitters">
<polygon fill="#edf0f7" stroke="#404040" points="201,-19 154,-19 154,0 201,0 201,-19"/>
<text text-anchor="middle" x="177.5" y="-7" font-family="Helvetica,sans-Serif" font-size="10.00">Fitters</text>
</a>
</g>
</g>
<!-- dir_335e938d2c12c5a13717c0a8a9316e75&#45;&gt;dir_c4587985b869c96ecd5a3e2399525831 -->
<g id="edge3" class="edge">
<title>dir_335e938d2c12c5a13717c0a8a9316e75&#45;&gt;dir_c4587985b869c96ecd5a3e2399525831</title>
<path fill="none" stroke="#63b8ff" d="M147.44,-54.75C152.48,-47.34 159.84,-36.5 166.01,-27.41"/>
<polygon fill="#63b8ff" stroke="#63b8ff" points="168.94,-29.33 171.67,-19.09 163.15,-25.39 168.94,-29.33"/>
<g id="a_edge3&#45;headlabel"><a xlink:href="dir_000000_000002.html" target="_top" xlink:title="4">
<text text-anchor="middle" x="169.27" y="-31.4" font-family="Helvetica,sans-Serif" font-size="10.00" fill="#63b8ff">4</text>
</a>
</g>
</g>
<!-- dir_e05d56c3c81e8a80e8e7fed7226c4d57 -->
<g id="node5" class="node">
<title>dir_e05d56c3c81e8a80e8e7fed7226c4d57</title>
<g id="a_node5"><a xlink:href="dir_e05d56c3c81e8a80e8e7fed7226c4d57.html" target="_top" xlink:title="Parameters">
<polygon fill="#edf0f7" stroke="#404040" points="291.5,-19 219.5,-19 219.5,0 291.5,0 291.5,-19"/>
<text text-anchor="middle" x="255.5" y="-7" font-family="Helvetica,sans-Serif" font-size="10.00">Parameters</text>
</a>
</g>
</g>
<!-- dir_335e938d2c12c5a13717c0a8a9316e75&#45;&gt;dir_e05d56c3c81e8a80e8e7fed7226c4d57 -->
<g id="edge4" class="edge">
<title>dir_335e938d2c12c5a13717c0a8a9316e75&#45;&gt;dir_e05d56c3c81e8a80e8e7fed7226c4d57</title>
<path fill="none" stroke="#63b8ff" d="M159.82,-54.98C178.16,-46.46 206.61,-33.23 227.73,-23.41"/>
<polygon fill="#63b8ff" stroke="#63b8ff" points="229.26,-26.56 236.85,-19.17 226.31,-20.21 229.26,-26.56"/>
<g id="a_edge4&#45;headlabel"><a xlink:href="dir_000000_000004.html" target="_top" xlink:title="1">
<text text-anchor="middle" x="227.2" y="-28.15" font-family="Helvetica,sans-Serif" font-size="10.00" fill="#63b8ff">1</text>
</a>
</g>
</g>
</g>
</svg>
