<?xml version="1.0" encoding="UTF-8" standalone="no"?>
<!DOCTYPE svg PUBLIC "-//W3C//DTD SVG 1.1//EN"
 "http://www.w3.org/Graphics/SVG/1.1/DTD/svg11.dtd">
<!-- Generated by graphviz version 2.44.0 (0)
 -->
<!-- Title: /__w/MaCh3/MaCh3/Samples/FarDetectorCoreInfoStruct.h Pages: 1 -->
<svg width="626pt" height="173pt"
 viewBox="0.00 0.00 625.50 173.00" xmlns="http://www.w3.org/2000/svg" xmlns:xlink="http://www.w3.org/1999/xlink">
<g id="graph0" class="graph" transform="scale(1 1) rotate(0) translate(4 169)">
<title>/__w/MaCh3/MaCh3/Samples/FarDetectorCoreInfoStruct.h</title>
<polygon fill="white" stroke="transparent" points="-4,4 -4,-169 621.5,-169 621.5,4 -4,4"/>
<!-- Node1 -->
<g id="node1" class="node">
<title>Node1</title>
<g id="a_node1"><a xlink:title=" ">
<polygon fill="#bfbfbf" stroke="black" points="239,-134.5 239,-164.5 387,-164.5 387,-134.5 239,-134.5"/>
<text text-anchor="start" x="247" y="-152.5" font-family="Helvetica" font-size="10.00">/__w/MaCh3/MaCh3/Samples</text>
<text text-anchor="middle" x="313" y="-141.5" font-family="Helvetica" font-size="10.00">/FarDetectorCoreInfoStruct.h</text>
</a>
</g>
</g>
<!-- Node2 -->
<g id="node2" class="node">
<title>Node2</title>
<g id="a_node2"><a xlink:href="SampleHandlerFD_8h.html" target="_top" xlink:title=" ">
<polygon fill="white" stroke="black" points="239,-67.5 239,-97.5 387,-97.5 387,-67.5 239,-67.5"/>
<text text-anchor="start" x="247" y="-85.5" font-family="Helvetica" font-size="10.00">/__w/MaCh3/MaCh3/Samples</text>
<text text-anchor="middle" x="313" y="-74.5" font-family="Helvetica" font-size="10.00">/SampleHandlerFD.h</text>
</a>
</g>
</g>
<!-- Node1&#45;&gt;Node2 -->
<g id="edge1" class="edge">
<title>Node1&#45;&gt;Node2</title>
<path fill="none" stroke="midnightblue" d="M313,-124.11C313,-115.15 313,-105.32 313,-97.58"/>
<polygon fill="midnightblue" stroke="midnightblue" points="309.5,-124.4 313,-134.4 316.5,-124.4 309.5,-124.4"/>
</g>
<!-- Node3 -->
<g id="node3" class="node">
<title>Node3</title>
<g id="a_node3"><a xlink:href="SampleHandlerFD_8cpp.html" target="_top" xlink:title=" ">
<polygon fill="white" stroke="black" points="0,-0.5 0,-30.5 148,-30.5 148,-0.5 0,-0.5"/>
<text text-anchor="start" x="8" y="-18.5" font-family="Helvetica" font-size="10.00">/__w/MaCh3/MaCh3/Samples</text>
<text text-anchor="middle" x="74" y="-7.5" font-family="Helvetica" font-size="10.00">/SampleHandlerFD.cpp</text>
</a>
</g>
</g>
<!-- Node2&#45;&gt;Node3 -->
<g id="edge2" class="edge">
<title>Node2&#45;&gt;Node3</title>
<path fill="none" stroke="midnightblue" d="M251.78,-64.85C212.81,-54.25 162.9,-40.68 125.88,-30.61"/>
<polygon fill="midnightblue" stroke="midnightblue" points="250.87,-68.23 261.43,-67.48 252.7,-61.47 250.87,-68.23"/>
</g>
<!-- Node4 -->
<g id="node4" class="node">
<title>Node4</title>
<g id="a_node4"><a xlink:href="FitterBase_8cpp.html" target="_top" xlink:title=" ">
<polygon fill="white" stroke="black" points="166,-0.5 166,-30.5 304,-30.5 304,-0.5 166,-0.5"/>
<text text-anchor="start" x="174" y="-18.5" font-family="Helvetica" font-size="10.00">/__w/MaCh3/MaCh3/Fitters</text>
<text text-anchor="middle" x="235" y="-7.5" font-family="Helvetica" font-size="10.00">/FitterBase.cpp</text>
</a>
</g>
</g>
<!-- Node2&#45;&gt;Node4 -->
<g id="edge3" class="edge">
<title>Node2&#45;&gt;Node4</title>
<path fill="none" stroke="midnightblue" d="M288.26,-60.88C276.41,-51.01 262.52,-39.43 251.89,-30.58"/>
<polygon fill="midnightblue" stroke="midnightblue" points="286.15,-63.68 296.08,-67.4 290.63,-58.31 286.15,-63.68"/>
</g>
<!-- Node5 -->
<g id="node5" class="node">
<title>Node5</title>
<g id="a_node5"><a xlink:href="PredictiveThrower_8cpp.html" target="_top" xlink:title=" ">
<polygon fill="white" stroke="black" points="322,-0.5 322,-30.5 460,-30.5 460,-0.5 322,-0.5"/>
<text text-anchor="start" x="330" y="-18.5" font-family="Helvetica" font-size="10.00">/__w/MaCh3/MaCh3/Fitters</text>
<text text-anchor="middle" x="391" y="-7.5" font-family="Helvetica" font-size="10.00">/PredictiveThrower.cpp</text>
</a>
</g>
</g>
<!-- Node2&#45;&gt;Node5 -->
<g id="edge4" class="edge">
<title>Node2&#45;&gt;Node5</title>
<path fill="none" stroke="midnightblue" d="M337.74,-60.88C349.59,-51.01 363.48,-39.43 374.11,-30.58"/>
<polygon fill="midnightblue" stroke="midnightblue" points="335.37,-58.31 329.92,-67.4 339.85,-63.68 335.37,-58.31"/>
</g>
<!-- Node6 -->
<g id="node6" class="node">
<title>Node6</title>
<g id="a_node6"><a xlink:href="samples_8cpp.html" target="_top" xlink:title=" ">
<polygon fill="white" stroke="black" points="478.5,-0.5 478.5,-30.5 617.5,-30.5 617.5,-0.5 478.5,-0.5"/>
<text text-anchor="start" x="486.5" y="-18.5" font-family="Helvetica" font-size="10.00">/__w/MaCh3/MaCh3/python</text>
<text text-anchor="middle" x="548" y="-7.5" font-family="Helvetica" font-size="10.00">/samples.cpp</text>
</a>
</g>
</g>
<!-- Node2&#45;&gt;Node6 -->
<g id="edge5" class="edge">
<title>Node2&#45;&gt;Node6</title>
<path fill="none" stroke="midnightblue" d="M373.68,-64.71C411.93,-54.14 460.74,-40.63 496.98,-30.61"/>
<polygon fill="midnightblue" stroke="midnightblue" points="372.41,-61.44 363.7,-67.48 374.27,-68.18 372.41,-61.44"/>
</g>
</g>
</svg>
