<?xml version="1.0" encoding="UTF-8" standalone="no"?>
<!DOCTYPE svg PUBLIC "-//W3C//DTD SVG 1.1//EN"
 "http://www.w3.org/Graphics/SVG/1.1/DTD/svg11.dtd">
<!-- Generated by graphviz version 2.43.0 (0)
 -->
<!-- Title: Fitters/FitterBase.h Pages: 1 -->
<svg width="893pt" height="247pt"
 viewBox="0.00 0.00 893.00 247.00" xmlns="http://www.w3.org/2000/svg" xmlns:xlink="http://www.w3.org/1999/xlink">
<g id="graph0" class="graph" transform="scale(1 1) rotate(0) translate(4 243)">
<title>Fitters/FitterBase.h</title>
<!-- Node1 -->
<g id="node1" class="node">
<title>Node1</title>
<g id="a_node1"><a xlink:title=" ">
<polygon fill="#999999" stroke="#666666" points="506.5,-239 397.5,-239 397.5,-220 506.5,-220 506.5,-239"/>
<text text-anchor="middle" x="452" y="-227" font-family="Helvetica,sans-Serif" font-size="10.00">Fitters/FitterBase.h</text>
</a>
</g>
</g>
<!-- Node2 -->
<g id="node2" class="node">
<title>Node2</title>
<g id="a_node2"><a xlink:href="FitterBase_8cpp.html" target="_top" xlink:title=" ">
<polygon fill="white" stroke="#666666" points="120,-184 0,-184 0,-165 120,-165 120,-184"/>
<text text-anchor="middle" x="60" y="-172" font-family="Helvetica,sans-Serif" font-size="10.00">Fitters/FitterBase.cpp</text>
</a>
</g>
</g>
<!-- Node1&#45;&gt;Node2 -->
<g id="edge1" class="edge">
<title>Node1&#45;&gt;Node2</title>
<path fill="none" stroke="#63b8ff" d="M387.34,-219.76C313.13,-209.72 192.4,-193.4 120.14,-183.63"/>
<polygon fill="#63b8ff" stroke="#63b8ff" points="387.12,-223.26 397.49,-221.13 388.05,-216.32 387.12,-223.26"/>
</g>
<!-- Node3 -->
<g id="node3" class="node">
<title>Node3</title>
<g id="a_node3"><a xlink:href="LikelihoodFit_8h.html" target="_top" xlink:title=" ">
<polygon fill="white" stroke="#666666" points="464.5,-184 343.5,-184 343.5,-165 464.5,-165 464.5,-184"/>
<text text-anchor="middle" x="404" y="-172" font-family="Helvetica,sans-Serif" font-size="10.00">Fitters/LikelihoodFit.h</text>
</a>
</g>
</g>
<!-- Node1&#45;&gt;Node3 -->
<g id="edge2" class="edge">
<title>Node1&#45;&gt;Node3</title>
<path fill="none" stroke="#63b8ff" d="M437.27,-212.24C428.86,-202.95 418.65,-191.68 411.78,-184.09"/>
<polygon fill="#63b8ff" stroke="#63b8ff" points="434.77,-214.69 444.07,-219.75 439.96,-209.99 434.77,-214.69"/>
</g>
<!-- Node5 -->
<g id="node5" class="node">
<title>Node5</title>
<g id="a_node5"><a xlink:href="MaCh3Factory_8h.html" target="_top" xlink:title="Factory methods for MaCh3 software which streamline initialisation of different objects.">
<polygon fill="white" stroke="#666666" points="328.5,-74 201.5,-74 201.5,-55 328.5,-55 328.5,-74"/>
<text text-anchor="middle" x="265" y="-62" font-family="Helvetica,sans-Serif" font-size="10.00">Fitters/MaCh3Factory.h</text>
</a>
</g>
</g>
<!-- Node1&#45;&gt;Node5 -->
<g id="edge13" class="edge">
<title>Node1&#45;&gt;Node5</title>
<path fill="none" stroke="#63b8ff" d="M387.11,-226.32C319.53,-220.16 216.71,-199.01 167,-129 147.99,-102.22 192.28,-83.91 227.37,-74.07"/>
<polygon fill="#63b8ff" stroke="#63b8ff" points="386.98,-229.82 397.23,-227.15 387.55,-222.84 386.98,-229.82"/>
</g>
<!-- Node9 -->
<g id="node9" class="node">
<title>Node9</title>
<g id="a_node9"><a xlink:href="fitters_8cpp.html" target="_top" xlink:title=" ">
<polygon fill="white" stroke="#666666" points="677,-74 575,-74 575,-55 677,-55 677,-74"/>
<text text-anchor="middle" x="626" y="-62" font-family="Helvetica,sans-Serif" font-size="10.00">python/fitters.cpp</text>
</a>
</g>
</g>
<!-- Node1&#45;&gt;Node9 -->
<g id="edge20" class="edge">
<title>Node1&#45;&gt;Node9</title>
<path fill="none" stroke="#63b8ff" d="M469,-212.79C490.14,-193.22 527.33,-158.74 559,-129 579.8,-109.48 604.07,-86.4 616.92,-74.15"/>
<polygon fill="#63b8ff" stroke="#63b8ff" points="466.44,-210.39 461.47,-219.75 471.19,-215.52 466.44,-210.39"/>
</g>
<!-- Node12 -->
<g id="node12" class="node">
<title>Node12</title>
<g id="a_node12"><a xlink:href="PredictiveThrower_8h.html" target="_top" xlink:title=" ">
<polygon fill="white" stroke="#666666" points="816.5,-184 669.5,-184 669.5,-165 816.5,-165 816.5,-184"/>
<text text-anchor="middle" x="743" y="-172" font-family="Helvetica,sans-Serif" font-size="10.00">Fitters/PredictiveThrower.h</text>
</a>
</g>
</g>
<!-- Node1&#45;&gt;Node12 -->
<g id="edge14" class="edge">
<title>Node1&#45;&gt;Node12</title>
<path fill="none" stroke="#63b8ff" d="M508.61,-218.19C563.17,-208.25 644.76,-193.39 695.88,-184.08"/>
<polygon fill="#63b8ff" stroke="#63b8ff" points="507.97,-214.75 498.75,-219.98 509.22,-221.64 507.97,-214.75"/>
</g>
<!-- Node14 -->
<g id="node14" class="node">
<title>Node14</title>
<g id="a_node14"><a xlink:href="mcmc_8h.html" target="_top" xlink:title=" ">
<polygon fill="white" stroke="#666666" points="550.5,-129 461.5,-129 461.5,-110 550.5,-110 550.5,-129"/>
<text text-anchor="middle" x="506" y="-117" font-family="Helvetica,sans-Serif" font-size="10.00">Fitters/mcmc.h</text>
</a>
</g>
</g>
<!-- Node1&#45;&gt;Node14 -->
<g id="edge16" class="edge">
<title>Node1&#45;&gt;Node14</title>
<path fill="none" stroke="#63b8ff" d="M461.03,-210.44C472.79,-186.92 492.88,-146.73 501.67,-129.16"/>
<polygon fill="#63b8ff" stroke="#63b8ff" points="457.76,-209.15 456.42,-219.66 464.02,-212.28 457.76,-209.15"/>
</g>
<!-- Node4 -->
<g id="node4" class="node">
<title>Node4</title>
<g id="a_node4"><a xlink:href="LikelihoodFit_8cpp.html" target="_top" xlink:title=" ">
<polygon fill="white" stroke="#666666" points="308,-129 176,-129 176,-110 308,-110 308,-129"/>
<text text-anchor="middle" x="242" y="-117" font-family="Helvetica,sans-Serif" font-size="10.00">Fitters/LikelihoodFit.cpp</text>
</a>
</g>
</g>
<!-- Node3&#45;&gt;Node4 -->
<g id="edge3" class="edge">
<title>Node3&#45;&gt;Node4</title>
<path fill="none" stroke="#63b8ff" d="M368.23,-161.8C338,-151.91 295.39,-137.97 268.23,-129.08"/>
<polygon fill="#63b8ff" stroke="#63b8ff" points="367.38,-165.2 377.97,-164.98 369.56,-158.55 367.38,-165.2"/>
</g>
<!-- Node3&#45;&gt;Node5 -->
<g id="edge4" class="edge">
<title>Node3&#45;&gt;Node5</title>
<path fill="none" stroke="#63b8ff" d="M384.7,-158.5C355.18,-135.57 299.78,-92.52 276.14,-74.16"/>
<polygon fill="#63b8ff" stroke="#63b8ff" points="382.58,-161.29 392.63,-164.66 386.88,-155.76 382.58,-161.29"/>
</g>
<!-- Node7 -->
<g id="node7" class="node">
<title>Node7</title>
<g id="a_node7"><a xlink:href="MinuitFit_8h.html" target="_top" xlink:title=" ">
<polygon fill="white" stroke="#666666" points="709,-129 607,-129 607,-110 709,-110 709,-129"/>
<text text-anchor="middle" x="658" y="-117" font-family="Helvetica,sans-Serif" font-size="10.00">Fitters/MinuitFit.h</text>
</a>
</g>
</g>
<!-- Node3&#45;&gt;Node7 -->
<g id="edge6" class="edge">
<title>Node3&#45;&gt;Node7</title>
<path fill="none" stroke="#63b8ff" d="M454.61,-162.94C502.22,-153.01 572.62,-138.31 616.87,-129.08"/>
<polygon fill="#63b8ff" stroke="#63b8ff" points="453.88,-159.52 444.81,-164.98 455.31,-166.37 453.88,-159.52"/>
</g>
<!-- Node10 -->
<g id="node10" class="node">
<title>Node10</title>
<g id="a_node10"><a xlink:href="PSO_8h.html" target="_top" xlink:title=" ">
<polygon fill="white" stroke="#666666" points="443.5,-129 364.5,-129 364.5,-110 443.5,-110 443.5,-129"/>
<text text-anchor="middle" x="404" y="-117" font-family="Helvetica,sans-Serif" font-size="10.00">Fitters/PSO.h</text>
</a>
</g>
</g>
<!-- Node3&#45;&gt;Node10 -->
<g id="edge9" class="edge">
<title>Node3&#45;&gt;Node10</title>
<path fill="none" stroke="#63b8ff" d="M404,-154.66C404,-145.93 404,-135.99 404,-129.09"/>
<polygon fill="#63b8ff" stroke="#63b8ff" points="400.5,-154.75 404,-164.75 407.5,-154.75 400.5,-154.75"/>
</g>
<!-- Node6 -->
<g id="node6" class="node">
<title>Node6</title>
<g id="a_node6"><a xlink:href="MaCh3Factory_8cpp.html" target="_top" xlink:title=" ">
<polygon fill="white" stroke="#666666" points="334,-19 196,-19 196,0 334,0 334,-19"/>
<text text-anchor="middle" x="265" y="-7" font-family="Helvetica,sans-Serif" font-size="10.00">Fitters/MaCh3Factory.cpp</text>
</a>
</g>
</g>
<!-- Node5&#45;&gt;Node6 -->
<g id="edge5" class="edge">
<title>Node5&#45;&gt;Node6</title>
<path fill="none" stroke="#63b8ff" d="M265,-44.66C265,-35.93 265,-25.99 265,-19.09"/>
<polygon fill="#63b8ff" stroke="#63b8ff" points="261.5,-44.75 265,-54.75 268.5,-44.75 261.5,-44.75"/>
</g>
<!-- Node8 -->
<g id="node8" class="node">
<title>Node8</title>
<g id="a_node8"><a xlink:href="MinuitFit_8cpp.html" target="_top" xlink:title=" ">
<polygon fill="white" stroke="#666666" points="808.5,-74 695.5,-74 695.5,-55 808.5,-55 808.5,-74"/>
<text text-anchor="middle" x="752" y="-62" font-family="Helvetica,sans-Serif" font-size="10.00">Fitters/MinuitFit.cpp</text>
</a>
</g>
</g>
<!-- Node7&#45;&gt;Node8 -->
<g id="edge7" class="edge">
<title>Node7&#45;&gt;Node8</title>
<path fill="none" stroke="#63b8ff" d="M682,-104.97C699.19,-95.28 721.81,-82.52 736.62,-74.17"/>
<polygon fill="#63b8ff" stroke="#63b8ff" points="680.09,-102.02 673.1,-109.98 683.53,-108.12 680.09,-102.02"/>
</g>
<!-- Node7&#45;&gt;Node9 -->
<g id="edge8" class="edge">
<title>Node7&#45;&gt;Node9</title>
<path fill="none" stroke="#63b8ff" d="M647.5,-101.1C642.03,-92.04 635.58,-81.37 631.19,-74.09"/>
<polygon fill="#63b8ff" stroke="#63b8ff" points="644.55,-103 652.72,-109.75 650.54,-99.38 644.55,-103"/>
</g>
<!-- Node10&#45;&gt;Node5 -->
<g id="edge10" class="edge">
<title>Node10&#45;&gt;Node5</title>
<path fill="none" stroke="#63b8ff" d="M372.32,-106.42C346.53,-96.59 310.76,-82.95 287.74,-74.17"/>
<polygon fill="#63b8ff" stroke="#63b8ff" points="371.08,-109.69 381.67,-109.98 373.57,-103.15 371.08,-109.69"/>
</g>
<!-- Node10&#45;&gt;Node9 -->
<g id="edge12" class="edge">
<title>Node10&#45;&gt;Node9</title>
<path fill="none" stroke="#63b8ff" d="M449.54,-107.63C491.13,-97.7 551.78,-83.22 590.05,-74.08"/>
<polygon fill="#63b8ff" stroke="#63b8ff" points="448.58,-104.26 439.67,-109.98 450.21,-111.07 448.58,-104.26"/>
</g>
<!-- Node11 -->
<g id="node11" class="node">
<title>Node11</title>
<g id="a_node11"><a xlink:href="PSO_8cpp.html" target="_top" xlink:title=" ">
<polygon fill="white" stroke="#666666" points="437,-74 347,-74 347,-55 437,-55 437,-74"/>
<text text-anchor="middle" x="392" y="-62" font-family="Helvetica,sans-Serif" font-size="10.00">Fitters/PSO.cpp</text>
</a>
</g>
</g>
<!-- Node10&#45;&gt;Node11 -->
<g id="edge11" class="edge">
<title>Node10&#45;&gt;Node11</title>
<path fill="none" stroke="#63b8ff" d="M399.8,-99.95C397.81,-91.15 395.52,-81.06 393.94,-74.09"/>
<polygon fill="#63b8ff" stroke="#63b8ff" points="396.4,-100.77 402.02,-109.75 403.22,-99.22 396.4,-100.77"/>
</g>
<!-- Node13 -->
<g id="node13" class="node">
<title>Node13</title>
<g id="a_node13"><a xlink:href="PredictiveThrower_8cpp.html" target="_top" xlink:title=" ">
<polygon fill="white" stroke="#666666" points="885,-129 727,-129 727,-110 885,-110 885,-129"/>
<text text-anchor="middle" x="806" y="-117" font-family="Helvetica,sans-Serif" font-size="10.00">Fitters/PredictiveThrower.cpp</text>
</a>
</g>
</g>
<!-- Node12&#45;&gt;Node13 -->
<g id="edge15" class="edge">
<title>Node12&#45;&gt;Node13</title>
<path fill="none" stroke="#63b8ff" d="M761.04,-158.32C772.27,-148.87 786.32,-137.06 795.69,-129.17"/>
<polygon fill="#63b8ff" stroke="#63b8ff" points="758.52,-155.87 753.12,-164.98 763.03,-161.23 758.52,-155.87"/>
</g>
<!-- Node14&#45;&gt;Node5 -->
<g id="edge17" class="edge">
<title>Node14&#45;&gt;Node5</title>
<path fill="none" stroke="#63b8ff" d="M457.42,-107.82C412.25,-97.88 345.83,-83.28 304.02,-74.08"/>
<polygon fill="#63b8ff" stroke="#63b8ff" points="456.76,-111.26 467.28,-109.98 458.26,-104.42 456.76,-111.26"/>
</g>
<!-- Node14&#45;&gt;Node9 -->
<g id="edge19" class="edge">
<title>Node14&#45;&gt;Node9</title>
<path fill="none" stroke="#63b8ff" d="M534.53,-105.9C556.7,-96.11 586.85,-82.79 606.37,-74.17"/>
<polygon fill="#63b8ff" stroke="#63b8ff" points="533.01,-102.74 525.28,-109.98 535.84,-109.15 533.01,-102.74"/>
</g>
<!-- Node15 -->
<g id="node15" class="node">
<title>Node15</title>
<g id="a_node15"><a xlink:href="mcmc_8cpp.html" target="_top" xlink:title=" ">
<polygon fill="white" stroke="#666666" points="556.5,-74 455.5,-74 455.5,-55 556.5,-55 556.5,-74"/>
<text text-anchor="middle" x="506" y="-62" font-family="Helvetica,sans-Serif" font-size="10.00">Fitters/mcmc.cpp</text>
</a>
</g>
</g>
<!-- Node14&#45;&gt;Node15 -->
<g id="edge18" class="edge">
<title>Node14&#45;&gt;Node15</title>
<path fill="none" stroke="#63b8ff" d="M506,-99.66C506,-90.93 506,-80.99 506,-74.09"/>
<polygon fill="#63b8ff" stroke="#63b8ff" points="502.5,-99.75 506,-109.75 509.5,-99.75 502.5,-99.75"/>
</g>
</g>
</svg>
