<?xml version="1.0" encoding="UTF-8" standalone="no"?>
<!DOCTYPE svg PUBLIC "-//W3C//DTD SVG 1.1//EN"
 "http://www.w3.org/Graphics/SVG/1.1/DTD/svg11.dtd">
<!-- Generated by graphviz version 2.43.0 (0)
 -->
<!-- Title: Plotting/GetPostfitParamPlots.cpp Pages: 1 -->
<svg width="2635pt" height="423pt"
 viewBox="0.00 0.00 2634.50 423.00" xmlns="http://www.w3.org/2000/svg" xmlns:xlink="http://www.w3.org/1999/xlink">
<g id="graph0" class="graph" transform="scale(1 1) rotate(0) translate(4 419)">
<title>Plotting/GetPostfitParamPlots.cpp</title>
<!-- Node1 -->
<g id="node1" class="node">
<title>Node1</title>
<g id="a_node1"><a xlink:title=" ">
<polygon fill="#999999" stroke="#666666" points="1726,-415 1590,-415 1590,-385 1726,-385 1726,-415"/>
<text text-anchor="start" x="1598" y="-403" font-family="Helvetica,sans-Serif" font-size="10.00">Plotting/GetPostfitParam</text>
<text text-anchor="middle" x="1658" y="-392" font-family="Helvetica,sans-Serif" font-size="10.00">Plots.cpp</text>
</a>
</g>
</g>
<!-- Node2 -->
<g id="node2" class="node">
<title>Node2</title>
<g id="a_node2"><a xlink:title=" ">
<polygon fill="#e0e0e0" stroke="#999999" points="2069,-19 2009,-19 2009,0 2069,0 2069,-19"/>
<text text-anchor="middle" x="2039" y="-7" font-family="Helvetica,sans-Serif" font-size="10.00">iostream</text>
</a>
</g>
</g>
<!-- Node1&#45;&gt;Node2 -->
<g id="edge1" class="edge">
<title>Node1&#45;&gt;Node2</title>
<path fill="none" stroke="#63b8ff" d="M1722.22,-384.94C1758.5,-376.2 1804.38,-363.82 1844,-349 1862.06,-342.24 1864.48,-335.35 1883,-330 1953.88,-309.54 2152.6,-336.35 2213,-294 2299.97,-233.01 2295.92,-121.39 2213,-55 2174.62,-24.27 2117.51,-14.51 2079.3,-11.55"/>
<polygon fill="#63b8ff" stroke="#63b8ff" points="2079.26,-8.04 2069.06,-10.89 2078.81,-15.03 2079.26,-8.04"/>
</g>
<!-- Node3 -->
<g id="node3" class="node">
<title>Node3</title>
<g id="a_node3"><a xlink:title=" ">
<polygon fill="#e0e0e0" stroke="#999999" points="1501,-19 1445,-19 1445,0 1501,0 1501,-19"/>
<text text-anchor="middle" x="1473" y="-7" font-family="Helvetica,sans-Serif" font-size="10.00">sstream</text>
</a>
</g>
</g>
<!-- Node1&#45;&gt;Node3 -->
<g id="edge2" class="edge">
<title>Node1&#45;&gt;Node3</title>
<path fill="none" stroke="#63b8ff" d="M1589.94,-397.85C1282.47,-392.23 38,-364.58 38,-285.5 38,-285.5 38,-285.5 38,-228.5 38,-199.04 34.36,-183.85 57,-165 166.15,-74.11 1219.85,-21.92 1434.82,-12.17"/>
<polygon fill="#63b8ff" stroke="#63b8ff" points="1435.15,-15.66 1444.98,-11.72 1434.84,-8.67 1435.15,-15.66"/>
</g>
<!-- Node4 -->
<g id="node4" class="node">
<title>Node4</title>
<g id="a_node4"><a xlink:title=" ">
<polygon fill="#e0e0e0" stroke="#999999" points="955,-19 899,-19 899,0 955,0 955,-19"/>
<text text-anchor="middle" x="927" y="-7" font-family="Helvetica,sans-Serif" font-size="10.00">iomanip</text>
</a>
</g>
</g>
<!-- Node1&#45;&gt;Node4 -->
<g id="edge3" class="edge">
<title>Node1&#45;&gt;Node4</title>
<path fill="none" stroke="#63b8ff" d="M1589.72,-399.08C1339.72,-399 474.74,-395.3 203,-349 109.81,-333.12 0,-380.03 0,-285.5 0,-285.5 0,-285.5 0,-118.5 0,-27.5 713.93,-13.04 888.72,-10.87"/>
<polygon fill="#63b8ff" stroke="#63b8ff" points="888.79,-14.37 898.75,-10.75 888.71,-7.37 888.79,-14.37"/>
</g>
<!-- Node5 -->
<g id="node5" class="node">
<title>Node5</title>
<g id="a_node5"><a xlink:title=" ">
<polygon fill="#e0e0e0" stroke="#999999" points="1500,-184 1436,-184 1436,-165 1500,-165 1500,-184"/>
<text text-anchor="middle" x="1468" y="-172" font-family="Helvetica,sans-Serif" font-size="10.00">algorithm</text>
</a>
</g>
</g>
<!-- Node1&#45;&gt;Node5 -->
<g id="edge4" class="edge">
<title>Node1&#45;&gt;Node5</title>
<path fill="none" stroke="#63b8ff" d="M1645.21,-384.63C1636.38,-374.68 1624.41,-361.1 1614,-349 1564.92,-291.97 1507.74,-223.38 1481.92,-192.29"/>
<polygon fill="#63b8ff" stroke="#63b8ff" points="1484.3,-189.68 1475.22,-184.22 1478.92,-194.15 1484.3,-189.68"/>
</g>
<!-- Node6 -->
<g id="node6" class="node">
<title>Node6</title>
<g id="a_node6"><a xlink:href="plottingUtils_8h.html" target="_top" xlink:title=" ">
<polygon fill="white" stroke="#666666" points="1109.5,-239 960.5,-239 960.5,-220 1109.5,-220 1109.5,-239"/>
<text text-anchor="middle" x="1035" y="-227" font-family="Helvetica,sans-Serif" font-size="10.00">plottingUtils/plottingUtils.h</text>
</a>
</g>
</g>
<!-- Node1&#45;&gt;Node6 -->
<g id="edge5" class="edge">
<title>Node1&#45;&gt;Node6</title>
<path fill="none" stroke="#63b8ff" d="M1596.09,-384.94C1554.41,-375.29 1498.26,-361.93 1449,-349 1309.67,-312.41 1145.54,-263.77 1072.88,-241.95"/>
<polygon fill="#63b8ff" stroke="#63b8ff" points="1073.83,-238.58 1063.24,-239.05 1071.81,-245.28 1073.83,-238.58"/>
</g>
<!-- Node20 -->
<g id="node17" class="node">
<title>Node20</title>
<g id="a_node17"><a xlink:title=" ">
<polygon fill="#e0e0e0" stroke="#999999" points="133.5,-184 66.5,-184 66.5,-165 133.5,-165 133.5,-184"/>
<text text-anchor="middle" x="100" y="-172" font-family="Helvetica,sans-Serif" font-size="10.00">TCanvas.h</text>
</a>
</g>
</g>
<!-- Node1&#45;&gt;Node20 -->
<g id="edge82" class="edge">
<title>Node1&#45;&gt;Node20</title>
<path fill="none" stroke="#63b8ff" d="M1589.99,-397.26C1458.01,-393.27 1158.12,-381.18 908,-349 779.19,-332.43 748.37,-319.37 621,-294 502.6,-270.42 472.71,-265.81 355,-239 279.88,-221.89 192.91,-199.72 142.41,-186.61"/>
<polygon fill="#63b8ff" stroke="#63b8ff" points="143.06,-183.17 132.51,-184.04 141.3,-189.94 143.06,-183.17"/>
</g>
<!-- Node24 -->
<g id="node21" class="node">
<title>Node24</title>
<g id="a_node21"><a xlink:title=" ">
<polygon fill="#e0e0e0" stroke="#999999" points="200.5,-184 151.5,-184 151.5,-165 200.5,-165 200.5,-184"/>
<text text-anchor="middle" x="176" y="-172" font-family="Helvetica,sans-Serif" font-size="10.00">TFile.h</text>
</a>
</g>
</g>
<!-- Node1&#45;&gt;Node24 -->
<g id="edge84" class="edge">
<title>Node1&#45;&gt;Node24</title>
<path fill="none" stroke="#63b8ff" d="M1589.8,-395.74C1474.67,-389.74 1234.6,-375.12 1033,-349 895.97,-331.25 862.84,-319.31 727,-294 600.18,-270.37 568.14,-266.05 442,-239 341.11,-217.37 313.93,-209.94 210.74,-184.4"/>
<polygon fill="#63b8ff" stroke="#63b8ff" points="211.4,-180.96 200.85,-181.96 209.72,-187.76 211.4,-180.96"/>
</g>
<!-- Node26 -->
<g id="node23" class="node">
<title>Node26</title>
<g id="a_node23"><a xlink:title=" ">
<polygon fill="#e0e0e0" stroke="#999999" points="1563.5,-184 1518.5,-184 1518.5,-165 1563.5,-165 1563.5,-184"/>
<text text-anchor="middle" x="1541" y="-172" font-family="Helvetica,sans-Serif" font-size="10.00">TH1.h</text>
</a>
</g>
</g>
<!-- Node1&#45;&gt;Node26 -->
<g id="edge77" class="edge">
<title>Node1&#45;&gt;Node26</title>
<path fill="none" stroke="#63b8ff" d="M1649.04,-384.73C1642.92,-374.82 1634.73,-361.24 1628,-349 1597.37,-293.29 1564.64,-225.46 1549.53,-193.63"/>
<polygon fill="#63b8ff" stroke="#63b8ff" points="1552.55,-191.83 1545.12,-184.29 1546.23,-194.82 1552.55,-191.83"/>
</g>
<!-- Node28 -->
<g id="node25" class="node">
<title>Node28</title>
<g id="a_node25"><a xlink:title=" ">
<polygon fill="#e0e0e0" stroke="#999999" points="263.5,-184 218.5,-184 218.5,-165 263.5,-165 263.5,-184"/>
<text text-anchor="middle" x="241" y="-172" font-family="Helvetica,sans-Serif" font-size="10.00">TH2.h</text>
</a>
</g>
</g>
<!-- Node1&#45;&gt;Node28 -->
<g id="edge78" class="edge">
<title>Node1&#45;&gt;Node28</title>
<path fill="none" stroke="#63b8ff" d="M1589.92,-393.51C1494.97,-385.53 1317.5,-369.41 1167,-349 889.68,-311.38 821.79,-292.01 547,-239 427.84,-216.01 395,-212.88 273.69,-184.28"/>
<polygon fill="#63b8ff" stroke="#63b8ff" points="274.18,-180.8 263.64,-181.9 272.56,-187.61 274.18,-180.8"/>
</g>
<!-- Node33 -->
<g id="node30" class="node">
<title>Node33</title>
<g id="a_node30"><a xlink:title=" ">
<polygon fill="#e0e0e0" stroke="#999999" points="348.5,-184 281.5,-184 281.5,-165 348.5,-165 348.5,-184"/>
<text text-anchor="middle" x="315" y="-172" font-family="Helvetica,sans-Serif" font-size="10.00">TLegend.h</text>
</a>
</g>
</g>
<!-- Node1&#45;&gt;Node33 -->
<g id="edge80" class="edge">
<title>Node1&#45;&gt;Node33</title>
<path fill="none" stroke="#63b8ff" d="M1589.99,-390.73C1515.31,-381.45 1391.91,-365.52 1286,-349 875,-284.91 770.66,-262.62 359,-184.35"/>
<polygon fill="#63b8ff" stroke="#63b8ff" points="359.39,-180.86 348.91,-182.44 358.08,-187.74 359.39,-180.86"/>
</g>
<!-- Node35 -->
<g id="node32" class="node">
<title>Node35</title>
<g id="a_node32"><a xlink:title=" ">
<polygon fill="#e0e0e0" stroke="#999999" points="425.5,-184 366.5,-184 366.5,-165 425.5,-165 425.5,-184"/>
<text text-anchor="middle" x="396" y="-172" font-family="Helvetica,sans-Serif" font-size="10.00">TROOT.h</text>
</a>
</g>
</g>
<!-- Node1&#45;&gt;Node35 -->
<g id="edge73" class="edge">
<title>Node1&#45;&gt;Node35</title>
<path fill="none" stroke="#63b8ff" d="M1589.9,-387.41C1533.55,-377.67 1451.44,-363.1 1380,-349 1112.4,-296.18 1049.22,-263.83 780,-220 637.43,-196.79 600.32,-201.97 457,-184 450.16,-183.14 442.89,-182.18 435.85,-181.21"/>
<polygon fill="#63b8ff" stroke="#63b8ff" points="436.15,-177.72 425.76,-179.81 435.19,-184.66 436.15,-177.72"/>
</g>
<!-- Node36 -->
<g id="node33" class="node">
<title>Node36</title>
<g id="a_node33"><a xlink:title=" ">
<polygon fill="#e0e0e0" stroke="#999999" points="1638,-184 1582,-184 1582,-165 1638,-165 1638,-184"/>
<text text-anchor="middle" x="1610" y="-172" font-family="Helvetica,sans-Serif" font-size="10.00">TStyle.h</text>
</a>
</g>
</g>
<!-- Node1&#45;&gt;Node36 -->
<g id="edge76" class="edge">
<title>Node1&#45;&gt;Node36</title>
<path fill="none" stroke="#63b8ff" d="M1651.92,-384.69C1643.71,-364.76 1629.3,-327.32 1622,-294 1614.4,-259.28 1611.59,-217.77 1610.57,-194.23"/>
<polygon fill="#63b8ff" stroke="#63b8ff" points="1614.07,-194.09 1610.2,-184.23 1607.07,-194.35 1614.07,-194.09"/>
</g>
<!-- Node38 -->
<g id="node35" class="node">
<title>Node38</title>
<g id="a_node35"><a xlink:href="plottingManager_8h.html" target="_top" xlink:title=" ">
<polygon fill="white" stroke="#666666" points="1835,-349 1667,-349 1667,-330 1835,-330 1835,-349"/>
<text text-anchor="middle" x="1751" y="-337" font-family="Helvetica,sans-Serif" font-size="10.00">plottingUtils/plottingManager.h</text>
</a>
</g>
</g>
<!-- Node1&#45;&gt;Node38 -->
<g id="edge46" class="edge">
<title>Node1&#45;&gt;Node38</title>
<path fill="none" stroke="#63b8ff" d="M1680.51,-384.84C1695.06,-375.68 1713.93,-363.82 1728.49,-354.66"/>
<polygon fill="#63b8ff" stroke="#63b8ff" points="1730.74,-357.38 1737.34,-349.09 1727.01,-351.46 1730.74,-357.38"/>
</g>
<!-- Node87 -->
<g id="node42" class="node">
<title>Node87</title>
<g id="a_node42"><a xlink:title=" ">
<polygon fill="#e0e0e0" stroke="#999999" points="1950.5,-349 1891.5,-349 1891.5,-330 1950.5,-330 1950.5,-349"/>
<text text-anchor="middle" x="1921" y="-337" font-family="Helvetica,sans-Serif" font-size="10.00">TGaxis.h</text>
</a>
</g>
</g>
<!-- Node1&#45;&gt;Node87 -->
<g id="edge74" class="edge">
<title>Node1&#45;&gt;Node87</title>
<path fill="none" stroke="#63b8ff" d="M1721,-384.99C1770.83,-373.9 1838.89,-358.76 1881.37,-349.32"/>
<polygon fill="#63b8ff" stroke="#63b8ff" points="1882.33,-352.69 1891.33,-347.1 1880.81,-345.85 1882.33,-352.69"/>
</g>
<!-- Node84 -->
<g id="node43" class="node">
<title>Node84</title>
<g id="a_node43"><a xlink:title=" ">
<polygon fill="#e0e0e0" stroke="#999999" points="2029,-349 1969,-349 1969,-330 2029,-330 2029,-349"/>
<text text-anchor="middle" x="1999" y="-337" font-family="Helvetica,sans-Serif" font-size="10.00">TString.h</text>
</a>
</g>
</g>
<!-- Node1&#45;&gt;Node84 -->
<g id="edge75" class="edge">
<title>Node1&#45;&gt;Node84</title>
<path fill="none" stroke="#63b8ff" d="M1726.24,-388.71C1785.29,-379.57 1873.19,-365.43 1958.9,-349.13"/>
<polygon fill="#63b8ff" stroke="#63b8ff" points="1959.63,-352.56 1968.8,-347.24 1958.32,-345.68 1959.63,-352.56"/>
</g>
<!-- Node60 -->
<g id="node44" class="node">
<title>Node60</title>
<g id="a_node44"><a xlink:title=" ">
<polygon fill="#e0e0e0" stroke="#999999" points="2091,-349 2047,-349 2047,-330 2091,-330 2091,-349"/>
<text text-anchor="middle" x="2069" y="-337" font-family="Helvetica,sans-Serif" font-size="10.00">TF1.h</text>
</a>
</g>
</g>
<!-- Node1&#45;&gt;Node60 -->
<g id="edge79" class="edge">
<title>Node1&#45;&gt;Node60</title>
<path fill="none" stroke="#63b8ff" d="M1726.08,-392.88C1800.31,-385.56 1922.71,-371.64 2036.79,-349"/>
<polygon fill="#63b8ff" stroke="#63b8ff" points="2037.62,-352.4 2046.74,-347 2036.24,-345.54 2037.62,-352.4"/>
</g>
<!-- Node92 -->
<g id="node45" class="node">
<title>Node92</title>
<g id="a_node45"><a xlink:title=" ">
<polygon fill="#e0e0e0" stroke="#999999" points="2158.5,-349 2109.5,-349 2109.5,-330 2158.5,-330 2158.5,-349"/>
<text text-anchor="middle" x="2134" y="-337" font-family="Helvetica,sans-Serif" font-size="10.00">TPad.h</text>
</a>
</g>
</g>
<!-- Node1&#45;&gt;Node92 -->
<g id="edge81" class="edge">
<title>Node1&#45;&gt;Node92</title>
<path fill="none" stroke="#63b8ff" d="M1726.18,-394.1C1811.3,-387.36 1961.47,-373.4 2099.3,-348.89"/>
<polygon fill="#63b8ff" stroke="#63b8ff" points="2099.98,-352.32 2109.2,-347.1 2098.74,-345.43 2099.98,-352.32"/>
</g>
<!-- Node64 -->
<g id="node46" class="node">
<title>Node64</title>
<g id="a_node46"><a xlink:title=" ">
<polygon fill="#e0e0e0" stroke="#999999" points="2229,-349 2177,-349 2177,-330 2229,-330 2229,-349"/>
<text text-anchor="middle" x="2203" y="-337" font-family="Helvetica,sans-Serif" font-size="10.00">TTree.h</text>
</a>
</g>
</g>
<!-- Node1&#45;&gt;Node64 -->
<g id="edge83" class="edge">
<title>Node1&#45;&gt;Node64</title>
<path fill="none" stroke="#63b8ff" d="M1726.05,-395.38C1822.19,-389.58 2003.37,-376.19 2166.49,-349.03"/>
<polygon fill="#63b8ff" stroke="#63b8ff" points="2167.43,-352.42 2176.71,-347.3 2166.27,-345.52 2167.43,-352.42"/>
</g>
<!-- Node76 -->
<g id="node47" class="node">
<title>Node76</title>
<g id="a_node47"><a xlink:title=" ">
<polygon fill="#e0e0e0" stroke="#999999" points="2317,-349 2247,-349 2247,-330 2317,-330 2317,-349"/>
<text text-anchor="middle" x="2282" y="-337" font-family="Helvetica,sans-Serif" font-size="10.00">TVectorD.h</text>
</a>
</g>
</g>
<!-- Node1&#45;&gt;Node76 -->
<g id="edge85" class="edge">
<title>Node1&#45;&gt;Node76</title>
<path fill="none" stroke="#63b8ff" d="M1726.12,-395.45C1832.91,-389.37 2046.36,-375.15 2237.06,-348.98"/>
<polygon fill="#63b8ff" stroke="#63b8ff" points="2237.57,-352.45 2246.99,-347.61 2236.6,-345.51 2237.57,-352.45"/>
</g>
<!-- Node89 -->
<g id="node48" class="node">
<title>Node89</title>
<g id="a_node48"><a xlink:title=" ">
<polygon fill="#e0e0e0" stroke="#999999" points="2400.5,-349 2335.5,-349 2335.5,-330 2400.5,-330 2400.5,-349"/>
<text text-anchor="middle" x="2368" y="-337" font-family="Helvetica,sans-Serif" font-size="10.00">TCandle.h</text>
</a>
</g>
</g>
<!-- Node1&#45;&gt;Node89 -->
<g id="edge86" class="edge">
<title>Node1&#45;&gt;Node89</title>
<path fill="none" stroke="#63b8ff" d="M1726.09,-396.71C1845.47,-392.09 2100.37,-379.48 2325.05,-348.95"/>
<polygon fill="#63b8ff" stroke="#63b8ff" points="2325.62,-352.4 2335.05,-347.57 2324.67,-345.47 2325.62,-352.4"/>
</g>
<!-- Node93 -->
<g id="node49" class="node">
<title>Node93</title>
<g id="a_node49"><a xlink:title=" ">
<polygon fill="#e0e0e0" stroke="#999999" points="2481,-349 2419,-349 2419,-330 2481,-330 2481,-349"/>
<text text-anchor="middle" x="2450" y="-337" font-family="Helvetica,sans-Serif" font-size="10.00">TFrame.h</text>
</a>
</g>
</g>
<!-- Node1&#45;&gt;Node93 -->
<g id="edge87" class="edge">
<title>Node1&#45;&gt;Node93</title>
<path fill="none" stroke="#63b8ff" d="M1726.25,-397.72C1856.95,-394.57 2151.64,-384.04 2408.36,-349.03"/>
<polygon fill="#63b8ff" stroke="#63b8ff" points="2409.2,-352.44 2418.63,-347.61 2408.25,-345.51 2409.2,-352.44"/>
</g>
<!-- Node70 -->
<g id="node50" class="node">
<title>Node70</title>
<g id="a_node50"><a xlink:title=" ">
<polygon fill="#e0e0e0" stroke="#999999" points="2626.5,-349 2499.5,-349 2499.5,-330 2626.5,-330 2626.5,-349"/>
<text text-anchor="middle" x="2563" y="-337" font-family="Helvetica,sans-Serif" font-size="10.00">TGraphAsymmErrors.h</text>
</a>
</g>
</g>
<!-- Node1&#45;&gt;Node70 -->
<g id="edge88" class="edge">
<title>Node1&#45;&gt;Node70</title>
<path fill="none" stroke="#63b8ff" d="M1726.04,-396.2C1866.48,-390.14 2198.84,-374.36 2489.02,-349.03"/>
<polygon fill="#63b8ff" stroke="#63b8ff" points="2489.66,-352.49 2499.32,-348.13 2489.05,-345.52 2489.66,-352.49"/>
</g>
<!-- Node6&#45;&gt;Node2 -->
<g id="edge26" class="edge">
<title>Node6&#45;&gt;Node2</title>
<path fill="none" stroke="#63b8ff" d="M1109.73,-227.96C1175.44,-225.19 1272.57,-215.41 1351,-184 1396.69,-165.71 1484.85,-72.09 1531,-55 1616.69,-23.27 1894.45,-13.78 1998.85,-11.29"/>
<polygon fill="#63b8ff" stroke="#63b8ff" points="1999.06,-14.79 2008.97,-11.06 1998.9,-7.79 1999.06,-14.79"/>
</g>
<!-- Node6&#45;&gt;Node4 -->
<g id="edge25" class="edge">
<title>Node6&#45;&gt;Node4</title>
<path fill="none" stroke="#63b8ff" d="M960.44,-223.24C808.53,-212.45 477.09,-188.43 473,-184 349.22,-50.03 758.21,-18.6 888.47,-12.06"/>
<polygon fill="#63b8ff" stroke="#63b8ff" points="888.95,-15.54 898.77,-11.57 888.62,-8.55 888.95,-15.54"/>
</g>
<!-- Node6&#45;&gt;Node5 -->
<g id="edge24" class="edge">
<title>Node6&#45;&gt;Node5</title>
<path fill="none" stroke="#63b8ff" d="M1109.75,-221.43C1187.84,-213.69 1313.81,-200.2 1422,-184 1423.27,-183.81 1424.55,-183.61 1425.84,-183.41"/>
<polygon fill="#63b8ff" stroke="#63b8ff" points="1426.59,-186.83 1435.88,-181.72 1425.44,-179.93 1426.59,-186.83"/>
</g>
<!-- Node7 -->
<g id="node7" class="node">
<title>Node7</title>
<g id="a_node7"><a xlink:href="MaCh3Logger_8h.html" target="_top" xlink:title="KS: Based on this https://github.com/gabime/spdlog/blob/a2b4262090fd3f005c2315dcb5be2f0f1774a005/incl...">
<polygon fill="white" stroke="#666666" points="1836.5,-129 1699.5,-129 1699.5,-110 1836.5,-110 1836.5,-129"/>
<text text-anchor="middle" x="1768" y="-117" font-family="Helvetica,sans-Serif" font-size="10.00">Manager/MaCh3Logger.h</text>
</a>
</g>
</g>
<!-- Node6&#45;&gt;Node7 -->
<g id="edge6" class="edge">
<title>Node6&#45;&gt;Node7</title>
<path fill="none" stroke="#63b8ff" d="M1109.76,-225.22C1181.28,-220.62 1291.61,-209.71 1384,-184 1404.13,-178.4 1406.88,-170.63 1427,-165 1514.81,-140.42 1619.23,-129.33 1689.18,-124.38"/>
<polygon fill="#63b8ff" stroke="#63b8ff" points="1689.5,-127.87 1699.24,-123.7 1689.03,-120.88 1689.5,-127.87"/>
</g>
<!-- Node17 -->
<g id="node14" class="node">
<title>Node17</title>
<g id="a_node14"><a xlink:href="MaCh3Exception_8h.html" target="_top" xlink:title=" ">
<polygon fill="white" stroke="#666666" points="2035.5,-184 1882.5,-184 1882.5,-165 2035.5,-165 2035.5,-184"/>
<text text-anchor="middle" x="1959" y="-172" font-family="Helvetica,sans-Serif" font-size="10.00">Manager/MaCh3Exception.h</text>
</a>
</g>
</g>
<!-- Node6&#45;&gt;Node17 -->
<g id="edge18" class="edge">
<title>Node6&#45;&gt;Node17</title>
<path fill="none" stroke="#63b8ff" d="M1109.83,-224.21C1279.36,-214.48 1691.95,-190.82 1872.26,-180.48"/>
<polygon fill="#63b8ff" stroke="#63b8ff" points="1872.71,-183.96 1882.5,-179.89 1872.31,-176.97 1872.71,-183.96"/>
</g>
<!-- Node19 -->
<g id="node16" class="node">
<title>Node19</title>
<g id="a_node16"><a xlink:title=" ">
<polygon fill="#e0e0e0" stroke="#999999" points="1156,-184 1118,-184 1118,-165 1156,-165 1156,-184"/>
<text text-anchor="middle" x="1137" y="-172" font-family="Helvetica,sans-Serif" font-size="10.00">map</text>
</a>
</g>
</g>
<!-- Node6&#45;&gt;Node19 -->
<g id="edge27" class="edge">
<title>Node6&#45;&gt;Node19</title>
<path fill="none" stroke="#63b8ff" d="M1051.39,-219.98C1067.57,-211.57 1092.57,-198.59 1111.38,-188.81"/>
<polygon fill="#63b8ff" stroke="#63b8ff" points="1113.05,-191.89 1120.31,-184.17 1109.83,-185.68 1113.05,-191.89"/>
</g>
<!-- Node6&#45;&gt;Node20 -->
<g id="edge28" class="edge">
<title>Node6&#45;&gt;Node20</title>
<path fill="none" stroke="#63b8ff" d="M960.29,-228.55C808.16,-227.83 451.46,-221.96 143.86,-184.05"/>
<polygon fill="#63b8ff" stroke="#63b8ff" points="144.21,-180.57 133.85,-182.8 143.34,-187.51 144.21,-180.57"/>
</g>
<!-- Node21 -->
<g id="node18" class="node">
<title>Node21</title>
<g id="a_node18"><a xlink:title=" ">
<polygon fill="#e0e0e0" stroke="#999999" points="1248,-184 1174,-184 1174,-165 1248,-165 1248,-184"/>
<text text-anchor="middle" x="1211" y="-172" font-family="Helvetica,sans-Serif" font-size="10.00">TGraph2D.h</text>
</a>
</g>
</g>
<!-- Node6&#45;&gt;Node21 -->
<g id="edge29" class="edge">
<title>Node6&#45;&gt;Node21</title>
<path fill="none" stroke="#63b8ff" d="M1063.28,-219.98C1092.95,-211.05 1139.79,-196.94 1172.75,-187.02"/>
<polygon fill="#63b8ff" stroke="#63b8ff" points="1173.93,-190.32 1182.5,-184.08 1171.92,-183.61 1173.93,-190.32"/>
</g>
<!-- Node22 -->
<g id="node19" class="node">
<title>Node22</title>
<g id="a_node19"><a xlink:title=" ">
<polygon fill="#e0e0e0" stroke="#999999" points="1712,-184 1656,-184 1656,-165 1712,-165 1712,-184"/>
<text text-anchor="middle" x="1684" y="-172" font-family="Helvetica,sans-Serif" font-size="10.00">TColor.h</text>
</a>
</g>
</g>
<!-- Node6&#45;&gt;Node22 -->
<g id="edge30" class="edge">
<title>Node6&#45;&gt;Node22</title>
<path fill="none" stroke="#63b8ff" d="M1109.83,-226.75C1223.65,-223.27 1447.16,-213.24 1645.77,-183.95"/>
<polygon fill="#63b8ff" stroke="#63b8ff" points="1646.43,-187.39 1655.8,-182.45 1645.4,-180.46 1646.43,-187.39"/>
</g>
<!-- Node23 -->
<g id="node20" class="node">
<title>Node23</title>
<g id="a_node20"><a xlink:title=" ">
<polygon fill="#e0e0e0" stroke="#999999" points="1341.5,-184 1266.5,-184 1266.5,-165 1341.5,-165 1341.5,-184"/>
<text text-anchor="middle" x="1304" y="-172" font-family="Helvetica,sans-Serif" font-size="10.00">TDirectory.h</text>
</a>
</g>
</g>
<!-- Node6&#45;&gt;Node23 -->
<g id="edge31" class="edge">
<title>Node6&#45;&gt;Node23</title>
<path fill="none" stroke="#63b8ff" d="M1078.22,-219.98C1126.85,-210.4 1205.62,-194.88 1256.1,-184.94"/>
<polygon fill="#63b8ff" stroke="#63b8ff" points="1256.97,-188.33 1266.1,-182.97 1255.62,-181.47 1256.97,-188.33"/>
</g>
<!-- Node6&#45;&gt;Node24 -->
<g id="edge32" class="edge">
<title>Node6&#45;&gt;Node24</title>
<path fill="none" stroke="#63b8ff" d="M960.45,-229.41C816.72,-230.09 491.38,-226.43 210.72,-183.97"/>
<polygon fill="#63b8ff" stroke="#63b8ff" points="211.17,-180.49 200.76,-182.44 210.11,-187.41 211.17,-180.49"/>
</g>
<!-- Node25 -->
<g id="node22" class="node">
<title>Node25</title>
<g id="a_node22"><a xlink:title=" ">
<polygon fill="#e0e0e0" stroke="#999999" points="543.5,-184 482.5,-184 482.5,-165 543.5,-165 543.5,-184"/>
<text text-anchor="middle" x="513" y="-172" font-family="Helvetica,sans-Serif" font-size="10.00">TGraph.h</text>
</a>
</g>
</g>
<!-- Node6&#45;&gt;Node25 -->
<g id="edge33" class="edge">
<title>Node6&#45;&gt;Node25</title>
<path fill="none" stroke="#63b8ff" d="M960.04,-222.73C848.87,-213.98 644.46,-197.14 553.58,-184.04"/>
<polygon fill="#63b8ff" stroke="#63b8ff" points="554,-180.56 543.59,-182.54 552.96,-187.48 554,-180.56"/>
</g>
<!-- Node6&#45;&gt;Node26 -->
<g id="edge34" class="edge">
<title>Node6&#45;&gt;Node26</title>
<path fill="none" stroke="#63b8ff" d="M1109.82,-225.32C1201.56,-220.56 1361.85,-209.46 1508.31,-183.8"/>
<polygon fill="#63b8ff" stroke="#63b8ff" points="1509.15,-187.2 1518.38,-182.01 1507.92,-180.31 1509.15,-187.2"/>
</g>
<!-- Node27 -->
<g id="node24" class="node">
<title>Node27</title>
<g id="a_node24"><a xlink:title=" ">
<polygon fill="#e0e0e0" stroke="#999999" points="614.5,-184 561.5,-184 561.5,-165 614.5,-165 614.5,-184"/>
<text text-anchor="middle" x="588" y="-172" font-family="Helvetica,sans-Serif" font-size="10.00">TH1D.h</text>
</a>
</g>
</g>
<!-- Node6&#45;&gt;Node27 -->
<g id="edge35" class="edge">
<title>Node6&#45;&gt;Node27</title>
<path fill="none" stroke="#63b8ff" d="M960.16,-223.37C879.47,-217.17 747.14,-205.08 624.61,-184.08"/>
<polygon fill="#63b8ff" stroke="#63b8ff" points="625.13,-180.62 614.68,-182.36 623.93,-187.52 625.13,-180.62"/>
</g>
<!-- Node6&#45;&gt;Node28 -->
<g id="edge36" class="edge">
<title>Node6&#45;&gt;Node28</title>
<path fill="none" stroke="#63b8ff" d="M960.24,-229.3C824.74,-229.63 529.67,-225.18 273.8,-183.95"/>
<polygon fill="#63b8ff" stroke="#63b8ff" points="274,-180.43 263.57,-182.27 272.87,-187.34 274,-180.43"/>
</g>
<!-- Node29 -->
<g id="node26" class="node">
<title>Node29</title>
<g id="a_node26"><a xlink:title=" ">
<polygon fill="#e0e0e0" stroke="#999999" points="697.5,-184 632.5,-184 632.5,-165 697.5,-165 697.5,-184"/>
<text text-anchor="middle" x="665" y="-172" font-family="Helvetica,sans-Serif" font-size="10.00">TH2Poly.h</text>
</a>
</g>
</g>
<!-- Node6&#45;&gt;Node29 -->
<g id="edge37" class="edge">
<title>Node6&#45;&gt;Node29</title>
<path fill="none" stroke="#63b8ff" d="M962.17,-219.99C897.84,-212.16 801.28,-199.65 707.47,-183.97"/>
<polygon fill="#63b8ff" stroke="#63b8ff" points="707.96,-180.51 697.52,-182.3 706.8,-187.41 707.96,-180.51"/>
</g>
<!-- Node30 -->
<g id="node27" class="node">
<title>Node30</title>
<g id="a_node27"><a xlink:title=" ">
<polygon fill="#e0e0e0" stroke="#999999" points="782,-184 716,-184 716,-165 782,-165 782,-184"/>
<text text-anchor="middle" x="749" y="-172" font-family="Helvetica,sans-Serif" font-size="10.00">THStack.h</text>
</a>
</g>
</g>
<!-- Node6&#45;&gt;Node30 -->
<g id="edge38" class="edge">
<title>Node6&#45;&gt;Node30</title>
<path fill="none" stroke="#63b8ff" d="M986.8,-219.99C939.66,-211.61 865.57,-198.26 791.92,-184.15"/>
<polygon fill="#63b8ff" stroke="#63b8ff" points="792.48,-180.69 782,-182.24 791.16,-187.57 792.48,-180.69"/>
</g>
<!-- Node31 -->
<g id="node28" class="node">
<title>Node31</title>
<g id="a_node28"><a xlink:title=" ">
<polygon fill="#e0e0e0" stroke="#999999" points="848,-184 800,-184 800,-165 848,-165 848,-184"/>
<text text-anchor="middle" x="824" y="-172" font-family="Helvetica,sans-Serif" font-size="10.00">TKey.h</text>
</a>
</g>
</g>
<!-- Node6&#45;&gt;Node31 -->
<g id="edge39" class="edge">
<title>Node6&#45;&gt;Node31</title>
<path fill="none" stroke="#63b8ff" d="M1000.53,-219.96C966.69,-211.56 913.34,-198.27 858.11,-184.27"/>
<polygon fill="#63b8ff" stroke="#63b8ff" points="858.7,-180.81 848.15,-181.74 856.98,-187.59 858.7,-180.81"/>
</g>
<!-- Node32 -->
<g id="node29" class="node">
<title>Node32</title>
<g id="a_node29"><a xlink:title=" ">
<polygon fill="#e0e0e0" stroke="#999999" points="925.5,-184 866.5,-184 866.5,-165 925.5,-165 925.5,-184"/>
<text text-anchor="middle" x="896" y="-172" font-family="Helvetica,sans-Serif" font-size="10.00">TLatex.h</text>
</a>
</g>
</g>
<!-- Node6&#45;&gt;Node32 -->
<g id="edge40" class="edge">
<title>Node6&#45;&gt;Node32</title>
<path fill="none" stroke="#63b8ff" d="M1012.67,-219.98C989.8,-211.27 954.04,-197.63 928.14,-187.75"/>
<polygon fill="#63b8ff" stroke="#63b8ff" points="929.33,-184.46 918.74,-184.17 926.84,-191 929.33,-184.46"/>
</g>
<!-- Node6&#45;&gt;Node33 -->
<g id="edge41" class="edge">
<title>Node6&#45;&gt;Node33</title>
<path fill="none" stroke="#63b8ff" d="M960.44,-226.87C837.08,-223.46 582.66,-213.39 358.82,-184.08"/>
<polygon fill="#63b8ff" stroke="#63b8ff" points="359.23,-180.6 348.86,-182.76 358.31,-187.54 359.23,-180.6"/>
</g>
<!-- Node34 -->
<g id="node31" class="node">
<title>Node34</title>
<g id="a_node31"><a xlink:title=" ">
<polygon fill="#e0e0e0" stroke="#999999" points="996,-184 944,-184 944,-165 996,-165 996,-184"/>
<text text-anchor="middle" x="970" y="-172" font-family="Helvetica,sans-Serif" font-size="10.00">TLine.h</text>
</a>
</g>
</g>
<!-- Node6&#45;&gt;Node34 -->
<g id="edge42" class="edge">
<title>Node6&#45;&gt;Node34</title>
<path fill="none" stroke="#63b8ff" d="M1024.56,-219.98C1014.85,-212.07 1000.18,-200.11 988.5,-190.58"/>
<polygon fill="#63b8ff" stroke="#63b8ff" points="990.6,-187.78 980.63,-184.17 986.17,-193.2 990.6,-187.78"/>
</g>
<!-- Node6&#45;&gt;Node35 -->
<g id="edge43" class="edge">
<title>Node6&#45;&gt;Node35</title>
<path fill="none" stroke="#63b8ff" d="M960.28,-223.4C811.95,-213.21 490.28,-190.71 440,-184 438.7,-183.83 437.38,-183.64 436.05,-183.44"/>
<polygon fill="#63b8ff" stroke="#63b8ff" points="436.18,-179.91 425.75,-181.73 435.04,-186.82 436.18,-179.91"/>
</g>
<!-- Node6&#45;&gt;Node36 -->
<g id="edge44" class="edge">
<title>Node6&#45;&gt;Node36</title>
<path fill="none" stroke="#63b8ff" d="M1109.81,-225.7C1212.11,-221.12 1401.46,-209.95 1571.9,-183.95"/>
<polygon fill="#63b8ff" stroke="#63b8ff" points="1572.45,-187.4 1581.8,-182.42 1571.38,-180.49 1572.45,-187.4"/>
</g>
<!-- Node37 -->
<g id="node34" class="node">
<title>Node37</title>
<g id="a_node34"><a xlink:title=" ">
<polygon fill="#e0e0e0" stroke="#999999" points="1100,-184 1014,-184 1014,-165 1100,-165 1100,-184"/>
<text text-anchor="middle" x="1057" y="-172" font-family="Helvetica,sans-Serif" font-size="10.00">TMultiGraph.h</text>
</a>
</g>
</g>
<!-- Node6&#45;&gt;Node37 -->
<g id="edge45" class="edge">
<title>Node6&#45;&gt;Node37</title>
<path fill="none" stroke="#63b8ff" d="M1038.63,-219.75C1041.58,-212.65 1045.83,-202.4 1049.51,-193.56"/>
<polygon fill="#63b8ff" stroke="#63b8ff" points="1052.83,-194.67 1053.43,-184.09 1046.37,-191.98 1052.83,-194.67"/>
</g>
<!-- Node7&#45;&gt;Node2 -->
<g id="edge7" class="edge">
<title>Node7&#45;&gt;Node2</title>
<path fill="none" stroke="#63b8ff" d="M1776.19,-109.61C1789.47,-95.75 1817.14,-69.12 1846,-55 1895.44,-30.81 1958.51,-19.48 1998.83,-14.37"/>
<polygon fill="#63b8ff" stroke="#63b8ff" points="1999.31,-17.84 2008.82,-13.18 1998.48,-10.89 1999.31,-17.84"/>
</g>
<!-- Node7&#45;&gt;Node3 -->
<g id="edge8" class="edge">
<title>Node7&#45;&gt;Node3</title>
<path fill="none" stroke="#63b8ff" d="M1699.5,-117.07C1649.94,-113.41 1582.85,-102.87 1531,-74 1511.1,-62.92 1494.32,-42.49 1484,-27.79"/>
<polygon fill="#63b8ff" stroke="#63b8ff" points="1486.67,-25.48 1478.2,-19.12 1480.85,-29.37 1486.67,-25.48"/>
</g>
<!-- Node8 -->
<g id="node8" class="node">
<title>Node8</title>
<g id="a_node8"><a xlink:title=" ">
<polygon fill="#e0e0e0" stroke="#999999" points="1715.5,-74 1650.5,-74 1650.5,-55 1715.5,-55 1715.5,-74"/>
<text text-anchor="middle" x="1683" y="-62" font-family="Helvetica,sans-Serif" font-size="10.00">functional</text>
</a>
</g>
</g>
<!-- Node7&#45;&gt;Node8 -->
<g id="edge9" class="edge">
<title>Node7&#45;&gt;Node8</title>
<path fill="none" stroke="#63b8ff" d="M1754.34,-109.98C1741.16,-101.77 1720.97,-89.18 1705.43,-79.49"/>
<polygon fill="#63b8ff" stroke="#63b8ff" points="1707.24,-76.49 1696.91,-74.17 1703.54,-82.43 1707.24,-76.49"/>
</g>
<!-- Node9 -->
<g id="node9" class="node">
<title>Node9</title>
<g id="a_node9"><a xlink:title=" ">
<polygon fill="#e0e0e0" stroke="#999999" points="2011,-74 1967,-74 1967,-55 2011,-55 2011,-74"/>
<text text-anchor="middle" x="1989" y="-62" font-family="Helvetica,sans-Serif" font-size="10.00">string</text>
</a>
</g>
</g>
<!-- Node7&#45;&gt;Node9 -->
<g id="edge10" class="edge">
<title>Node7&#45;&gt;Node9</title>
<path fill="none" stroke="#63b8ff" d="M1806.31,-109.97C1842.66,-101.78 1899.04,-88.82 1956.67,-74.27"/>
<polygon fill="#63b8ff" stroke="#63b8ff" points="1957.84,-77.58 1966.68,-71.73 1956.12,-70.8 1957.84,-77.58"/>
</g>
<!-- Node10 -->
<g id="node10" class="node">
<title>Node10</title>
<g id="a_node10"><a xlink:title=" ">
<polygon fill="#e0e0e0" stroke="#999999" points="1798.5,-74 1733.5,-74 1733.5,-55 1798.5,-55 1798.5,-74"/>
<text text-anchor="middle" x="1766" y="-62" font-family="Helvetica,sans-Serif" font-size="10.00">exception</text>
</a>
</g>
</g>
<!-- Node7&#45;&gt;Node10 -->
<g id="edge11" class="edge">
<title>Node7&#45;&gt;Node10</title>
<path fill="none" stroke="#63b8ff" d="M1767.67,-109.75C1767.41,-102.8 1767.03,-92.85 1766.7,-84.13"/>
<polygon fill="#63b8ff" stroke="#63b8ff" points="1770.2,-83.95 1766.32,-74.09 1763.2,-84.21 1770.2,-83.95"/>
</g>
<!-- Node11 -->
<g id="node11" class="node">
<title>Node11</title>
<g id="a_node11"><a xlink:href="Core_8h.html" target="_top" xlink:title=" ">
<polygon fill="#fff0f0" stroke="red" points="1949,-74 1855,-74 1855,-55 1949,-55 1949,-74"/>
<text text-anchor="middle" x="1902" y="-62" font-family="Helvetica,sans-Serif" font-size="10.00">Manager/Core.h</text>
</a>
</g>
</g>
<!-- Node7&#45;&gt;Node11 -->
<g id="edge12" class="edge">
<title>Node7&#45;&gt;Node11</title>
<path fill="none" stroke="#63b8ff" d="M1789.53,-109.98C1811.47,-101.3 1845.74,-87.75 1870.69,-77.88"/>
<polygon fill="#63b8ff" stroke="#63b8ff" points="1872.07,-81.1 1880.08,-74.17 1869.49,-74.59 1872.07,-81.1"/>
</g>
<!-- Node16 -->
<g id="node13" class="node">
<title>Node16</title>
<g id="a_node13"><a xlink:title=" ">
<polygon fill="#e0e0e0" stroke="#999999" points="1632.5,-74 1539.5,-74 1539.5,-55 1632.5,-55 1632.5,-74"/>
<text text-anchor="middle" x="1586" y="-62" font-family="Helvetica,sans-Serif" font-size="10.00">spdlog/spdlog.h</text>
</a>
</g>
</g>
<!-- Node7&#45;&gt;Node16 -->
<g id="edge17" class="edge">
<title>Node7&#45;&gt;Node16</title>
<path fill="none" stroke="#63b8ff" d="M1738.76,-109.98C1707.94,-101.01 1659.22,-86.82 1625.11,-76.89"/>
<polygon fill="#63b8ff" stroke="#63b8ff" points="1626.05,-73.52 1615.47,-74.08 1624.09,-80.24 1626.05,-73.52"/>
</g>
<!-- Node11&#45;&gt;Node2 -->
<g id="edge14" class="edge">
<title>Node11&#45;&gt;Node2</title>
<path fill="none" stroke="#63b8ff" d="M1924.01,-54.98C1946.45,-46.3 1981.48,-32.75 2006.99,-22.88"/>
<polygon fill="#63b8ff" stroke="#63b8ff" points="2008.52,-26.04 2016.59,-19.17 2006,-19.51 2008.52,-26.04"/>
</g>
<!-- Node11&#45;&gt;Node3 -->
<g id="edge13" class="edge">
<title>Node11&#45;&gt;Node3</title>
<path fill="none" stroke="#63b8ff" d="M1854.86,-57.68C1769.14,-47.09 1589.37,-24.88 1510.94,-15.19"/>
<polygon fill="#63b8ff" stroke="#63b8ff" points="1511.36,-11.71 1501.01,-13.96 1510.51,-18.66 1511.36,-11.71"/>
</g>
<!-- Node11&#45;&gt;Node4 -->
<g id="edge16" class="edge">
<title>Node11&#45;&gt;Node4</title>
<path fill="none" stroke="#63b8ff" d="M1854.69,-58.85C1839.76,-57.49 1823.2,-56.07 1808,-55 1482.17,-32.05 1087.74,-16.45 965.19,-11.89"/>
<polygon fill="#63b8ff" stroke="#63b8ff" points="965.29,-8.39 955.17,-11.52 965.03,-15.38 965.29,-8.39"/>
</g>
<!-- Node13 -->
<g id="node12" class="node">
<title>Node13</title>
<g id="a_node12"><a xlink:title=" ">
<polygon fill="#e0e0e0" stroke="#999999" points="2226.5,-19 2179.5,-19 2179.5,0 2226.5,0 2226.5,-19"/>
<text text-anchor="middle" x="2203" y="-7" font-family="Helvetica,sans-Serif" font-size="10.00">vector</text>
</a>
</g>
</g>
<!-- Node11&#45;&gt;Node13 -->
<g id="edge15" class="edge">
<title>Node11&#45;&gt;Node13</title>
<path fill="none" stroke="#63b8ff" d="M1949.03,-55.22C2010.11,-44.46 2115.24,-25.95 2169.07,-16.47"/>
<polygon fill="#63b8ff" stroke="#63b8ff" points="2169.89,-19.88 2179.13,-14.7 2168.67,-12.99 2169.89,-19.88"/>
</g>
<!-- Node17&#45;&gt;Node2 -->
<g id="edge19" class="edge">
<title>Node17&#45;&gt;Node2</title>
<path fill="none" stroke="#63b8ff" d="M1964.91,-164.72C1970.87,-155.8 1980.26,-141.56 1988,-129 2002.84,-104.92 2008.76,-99.95 2020,-74 2026.3,-59.46 2031.32,-42.2 2034.61,-29.34"/>
<polygon fill="#63b8ff" stroke="#63b8ff" points="2038.08,-29.9 2037.05,-19.36 2031.28,-28.24 2038.08,-29.9"/>
</g>
<!-- Node17&#45;&gt;Node7 -->
<g id="edge22" class="edge">
<title>Node17&#45;&gt;Node7</title>
<path fill="none" stroke="#63b8ff" d="M1928.31,-164.98C1895.83,-155.97 1844.4,-141.7 1808.59,-131.76"/>
<polygon fill="#63b8ff" stroke="#63b8ff" points="1809.5,-128.38 1798.93,-129.08 1807.63,-135.13 1809.5,-128.38"/>
</g>
<!-- Node17&#45;&gt;Node9 -->
<g id="edge20" class="edge">
<title>Node17&#45;&gt;Node9</title>
<path fill="none" stroke="#63b8ff" d="M1961.46,-164.66C1966.34,-147.09 1977.35,-107.45 1983.87,-83.95"/>
<polygon fill="#63b8ff" stroke="#63b8ff" points="1987.29,-84.73 1986.59,-74.16 1980.55,-82.86 1987.29,-84.73"/>
</g>
<!-- Node17&#45;&gt;Node11 -->
<g id="edge23" class="edge">
<title>Node17&#45;&gt;Node11</title>
<path fill="none" stroke="#63b8ff" d="M1955.63,-164.66C1950.76,-152.19 1941.21,-128.86 1931,-110 1925.89,-100.57 1919.45,-90.53 1913.93,-82.38"/>
<polygon fill="#63b8ff" stroke="#63b8ff" points="1916.78,-80.34 1908.21,-74.11 1911.02,-84.32 1916.78,-80.34"/>
</g>
<!-- Node18 -->
<g id="node15" class="node">
<title>Node18</title>
<g id="a_node15"><a xlink:title=" ">
<polygon fill="#e0e0e0" stroke="#999999" points="1921.5,-129 1856.5,-129 1856.5,-110 1921.5,-110 1921.5,-129"/>
<text text-anchor="middle" x="1889" y="-117" font-family="Helvetica,sans-Serif" font-size="10.00">stdexcept</text>
</a>
</g>
</g>
<!-- Node17&#45;&gt;Node18 -->
<g id="edge21" class="edge">
<title>Node17&#45;&gt;Node18</title>
<path fill="none" stroke="#63b8ff" d="M1947.75,-164.98C1937.2,-157 1921.2,-144.88 1908.56,-135.31"/>
<polygon fill="#63b8ff" stroke="#63b8ff" points="1910.54,-132.42 1900.45,-129.17 1906.31,-138 1910.54,-132.42"/>
</g>
<!-- Node38&#45;&gt;Node2 -->
<g id="edge49" class="edge">
<title>Node38&#45;&gt;Node2</title>
<path fill="none" stroke="#63b8ff" d="M1835.08,-330.85C1959.69,-319.38 2179.6,-298.59 2187,-294 2215.34,-276.42 2227,-263.85 2227,-230.5 2227,-230.5 2227,-230.5 2227,-118.5 2227,-50.96 2134.64,-25.04 2079.39,-15.58"/>
<polygon fill="#63b8ff" stroke="#63b8ff" points="2079.63,-12.07 2069.21,-13.95 2078.53,-18.98 2079.63,-12.07"/>
</g>
<!-- Node38&#45;&gt;Node4 -->
<g id="edge48" class="edge">
<title>Node38&#45;&gt;Node4</title>
<path fill="none" stroke="#63b8ff" d="M1752.54,-329.8C1756.98,-301.58 1766.77,-211.74 1721,-165 1613.4,-55.12 1108.74,-20.17 965.18,-12.36"/>
<polygon fill="#63b8ff" stroke="#63b8ff" points="965.27,-8.86 955.1,-11.83 964.9,-15.85 965.27,-8.86"/>
</g>
<!-- Node38&#45;&gt;Node5 -->
<g id="edge47" class="edge">
<title>Node38&#45;&gt;Node5</title>
<path fill="none" stroke="#63b8ff" d="M1716.88,-330C1690.13,-322.57 1652.45,-310.4 1622,-294 1567.09,-264.43 1511.17,-215.77 1484.34,-191.01"/>
<polygon fill="#63b8ff" stroke="#63b8ff" points="1486.68,-188.41 1476.98,-184.14 1481.9,-193.52 1486.68,-188.41"/>
</g>
<!-- Node38&#45;&gt;Node7 -->
<g id="edge54" class="edge">
<title>Node38&#45;&gt;Node7</title>
<path fill="none" stroke="#63b8ff" d="M1755.95,-329.81C1765.25,-312.96 1785,-274.37 1792,-239 1798.39,-206.74 1800.05,-196.89 1792,-165 1789.59,-155.44 1784.67,-145.7 1779.91,-137.78"/>
<polygon fill="#63b8ff" stroke="#63b8ff" points="1782.72,-135.68 1774.37,-129.16 1776.83,-139.46 1782.72,-135.68"/>
</g>
<!-- Node38&#45;&gt;Node13 -->
<g id="edge53" class="edge">
<title>Node38&#45;&gt;Node13</title>
<path fill="none" stroke="#63b8ff" d="M1835.14,-330.91C1967.33,-318.92 2209.15,-296.66 2213,-294 2303.62,-231.3 2333.81,-150.6 2279,-55 2269.74,-38.85 2252.1,-28 2236.15,-21.06"/>
<polygon fill="#63b8ff" stroke="#63b8ff" points="2237.11,-17.67 2226.52,-17.23 2234.52,-24.18 2237.11,-17.67"/>
</g>
<!-- Node38&#45;&gt;Node17 -->
<g id="edge60" class="edge">
<title>Node38&#45;&gt;Node17</title>
<path fill="none" stroke="#63b8ff" d="M1835.26,-332.19C1864.52,-326.14 1895.59,-314.84 1918,-294 1946.47,-267.53 1955.17,-220.33 1957.83,-194.2"/>
<polygon fill="#63b8ff" stroke="#63b8ff" points="1961.33,-194.37 1958.66,-184.12 1954.35,-193.8 1961.33,-194.37"/>
</g>
<!-- Node39 -->
<g id="node36" class="node">
<title>Node39</title>
<g id="a_node36"><a xlink:title=" ">
<polygon fill="#e0e0e0" stroke="#999999" points="2015,-294 1965,-294 1965,-275 2015,-275 2015,-294"/>
<text text-anchor="middle" x="1990" y="-282" font-family="Helvetica,sans-Serif" font-size="10.00">stdio.h</text>
</a>
</g>
</g>
<!-- Node38&#45;&gt;Node39 -->
<g id="edge50" class="edge">
<title>Node38&#45;&gt;Node39</title>
<path fill="none" stroke="#63b8ff" d="M1789.4,-329.98C1835.09,-319.85 1910.72,-303.08 1954.9,-293.28"/>
<polygon fill="#63b8ff" stroke="#63b8ff" points="1955.89,-296.65 1964.89,-291.07 1954.37,-289.82 1955.89,-296.65"/>
</g>
<!-- Node40 -->
<g id="node37" class="node">
<title>Node40</title>
<g id="a_node37"><a xlink:title=" ">
<polygon fill="#e0e0e0" stroke="#999999" points="2086.5,-294 2033.5,-294 2033.5,-275 2086.5,-275 2086.5,-294"/>
<text text-anchor="middle" x="2060" y="-282" font-family="Helvetica,sans-Serif" font-size="10.00">stdlib.h</text>
</a>
</g>
</g>
<!-- Node38&#45;&gt;Node40 -->
<g id="edge51" class="edge">
<title>Node38&#45;&gt;Node40</title>
<path fill="none" stroke="#63b8ff" d="M1810.86,-329.98C1864.05,-322.13 1944.11,-309.63 2023.17,-294.04"/>
<polygon fill="#63b8ff" stroke="#63b8ff" points="2024.18,-297.41 2033.31,-292.02 2022.82,-290.54 2024.18,-297.41"/>
</g>
<!-- Node41 -->
<g id="node38" class="node">
<title>Node41</title>
<g id="a_node38"><a xlink:title=" ">
<polygon fill="#e0e0e0" stroke="#999999" points="2161,-294 2105,-294 2105,-275 2161,-275 2161,-294"/>
<text text-anchor="middle" x="2133" y="-282" font-family="Helvetica,sans-Serif" font-size="10.00">unistd.h</text>
</a>
</g>
</g>
<!-- Node38&#45;&gt;Node41 -->
<g id="edge52" class="edge">
<title>Node38&#45;&gt;Node41</title>
<path fill="none" stroke="#63b8ff" d="M1835.01,-329.98C1902.69,-322.58 2000.46,-310.7 2094.78,-294.07"/>
<polygon fill="#63b8ff" stroke="#63b8ff" points="2095.55,-297.48 2104.78,-292.28 2094.32,-290.59 2095.55,-297.48"/>
</g>
<!-- Node42 -->
<g id="node39" class="node">
<title>Node42</title>
<g id="a_node39"><a xlink:href="YamlHelper_8h.html" target="_top" xlink:title="Utility functions for handling YAML nodes.">
<polygon fill="#fff0f0" stroke="red" points="2127,-239 2001,-239 2001,-220 2127,-220 2127,-239"/>
<text text-anchor="middle" x="2064" y="-227" font-family="Helvetica,sans-Serif" font-size="10.00">Manager/YamlHelper.h</text>
</a>
</g>
</g>
<!-- Node38&#45;&gt;Node42 -->
<g id="edge55" class="edge">
<title>Node38&#45;&gt;Node42</title>
<path fill="none" stroke="#63b8ff" d="M1835.39,-330.95C1956.16,-319.96 2164.45,-300.17 2170,-294 2191.6,-269.99 2151.13,-252.26 2114.14,-241.72"/>
<polygon fill="#63b8ff" stroke="#63b8ff" points="2114.91,-238.31 2104.35,-239.07 2113.08,-245.07 2114.91,-238.31"/>
</g>
<!-- Node49 -->
<g id="node40" class="node">
<title>Node49</title>
<g id="a_node40"><a xlink:href="inputManager_8h.html" target="_top" xlink:title=" ">
<polygon fill="#fff0f0" stroke="red" points="1909,-294 1817,-294 1817,-275 1909,-275 1909,-294"/>
<text text-anchor="middle" x="1863" y="-282" font-family="Helvetica,sans-Serif" font-size="10.00">inputManager.h</text>
</a>
</g>
</g>
<!-- Node38&#45;&gt;Node49 -->
<g id="edge61" class="edge">
<title>Node38&#45;&gt;Node49</title>
<path fill="none" stroke="#63b8ff" d="M1768.99,-329.98C1786.93,-321.5 1814.72,-308.35 1835.43,-298.54"/>
<polygon fill="#63b8ff" stroke="#63b8ff" points="1837.14,-301.61 1844.68,-294.17 1834.14,-295.28 1837.14,-301.61"/>
</g>
<!-- Node91 -->
<g id="node41" class="node">
<title>Node91</title>
<g id="a_node41"><a xlink:href="styleManager_8h.html" target="_top" xlink:title=" ">
<polygon fill="white" stroke="#666666" points="1723,-294 1631,-294 1631,-275 1723,-275 1723,-294"/>
<text text-anchor="middle" x="1677" y="-282" font-family="Helvetica,sans-Serif" font-size="10.00">styleManager.h</text>
</a>
</g>
</g>
<!-- Node38&#45;&gt;Node91 -->
<g id="edge66" class="edge">
<title>Node38&#45;&gt;Node91</title>
<path fill="none" stroke="#63b8ff" d="M1739.11,-329.98C1727.85,-321.92 1710.71,-309.65 1697.29,-300.03"/>
<polygon fill="#63b8ff" stroke="#63b8ff" points="1699.27,-297.15 1689.11,-294.17 1695.2,-302.84 1699.27,-297.15"/>
</g>
<!-- Node42&#45;&gt;Node2 -->
<g id="edge56" class="edge">
<title>Node42&#45;&gt;Node2</title>
<path fill="none" stroke="#63b8ff" d="M2073.61,-219.69C2081.87,-211.41 2093.2,-198.18 2098,-184 2102.21,-171.56 2102.74,-136.57 2095,-110 2085.85,-78.6 2065.23,-46.34 2051.73,-27.38"/>
<polygon fill="#63b8ff" stroke="#63b8ff" points="2054.48,-25.21 2045.75,-19.2 2048.83,-29.34 2054.48,-25.21"/>
</g>
<!-- Node42&#45;&gt;Node9 -->
<g id="edge57" class="edge">
<title>Node42&#45;&gt;Node9</title>
<path fill="none" stroke="#63b8ff" d="M2068.39,-219.97C2078.35,-199.32 2100.11,-145.77 2078,-110 2065.57,-89.89 2040.99,-78.56 2020.8,-72.37"/>
<polygon fill="#63b8ff" stroke="#63b8ff" points="2021.6,-68.96 2011.03,-69.66 2019.73,-75.71 2021.6,-68.96"/>
</g>
<!-- Node42&#45;&gt;Node11 -->
<g id="edge59" class="edge">
<title>Node42&#45;&gt;Node11</title>
<path fill="none" stroke="#63b8ff" d="M2063.23,-219.9C2061.71,-206.9 2057.28,-181.96 2045,-165 2015.5,-124.27 1963.98,-94.47 1931.5,-78.58"/>
<polygon fill="#63b8ff" stroke="#63b8ff" points="1932.61,-75.24 1922.08,-74.11 1929.61,-81.56 1932.61,-75.24"/>
</g>
<!-- Node42&#45;&gt;Node17 -->
<g id="edge58" class="edge">
<title>Node42&#45;&gt;Node17</title>
<path fill="none" stroke="#63b8ff" d="M2047.13,-219.98C2030.39,-211.54 2004.5,-198.47 1985.11,-188.68"/>
<polygon fill="#63b8ff" stroke="#63b8ff" points="1986.68,-185.55 1976.18,-184.17 1983.53,-191.8 1986.68,-185.55"/>
</g>
<!-- Node49&#45;&gt;Node6 -->
<g id="edge65" class="edge">
<title>Node49&#45;&gt;Node6</title>
<path fill="none" stroke="#63b8ff" d="M1816.93,-280.5C1791.82,-278.87 1760.2,-276.82 1732,-275 1511.03,-260.78 1250.64,-244.2 1119.51,-235.87"/>
<polygon fill="#63b8ff" stroke="#63b8ff" points="1119.73,-232.37 1109.53,-235.23 1119.29,-239.36 1119.73,-232.37"/>
</g>
<!-- Node49&#45;&gt;Node7 -->
<g id="edge62" class="edge">
<title>Node49&#45;&gt;Node7</title>
<path fill="none" stroke="#63b8ff" d="M1862.54,-274.93C1861.03,-254.23 1854.83,-200.54 1830,-165 1821.11,-152.28 1807.37,-141.88 1795.09,-134.35"/>
<polygon fill="#63b8ff" stroke="#63b8ff" points="1796.49,-131.11 1786.08,-129.15 1792.99,-137.18 1796.49,-131.11"/>
</g>
<!-- Node49&#45;&gt;Node17 -->
<g id="edge64" class="edge">
<title>Node49&#45;&gt;Node17</title>
<path fill="none" stroke="#63b8ff" d="M1871.76,-274.81C1880.59,-265.97 1894.51,-251.79 1906,-239 1919.88,-223.55 1934.99,-205.29 1945.51,-192.33"/>
<polygon fill="#63b8ff" stroke="#63b8ff" points="1948.44,-194.28 1951.99,-184.3 1942.99,-189.88 1948.44,-194.28"/>
</g>
<!-- Node49&#45;&gt;Node42 -->
<g id="edge63" class="edge">
<title>Node49&#45;&gt;Node42</title>
<path fill="none" stroke="#63b8ff" d="M1895.29,-274.98C1929.62,-265.93 1984.06,-251.58 2021.77,-241.64"/>
<polygon fill="#63b8ff" stroke="#63b8ff" points="2022.68,-245.02 2031.45,-239.08 2020.89,-238.25 2022.68,-245.02"/>
</g>
<!-- Node91&#45;&gt;Node7 -->
<g id="edge67" class="edge">
<title>Node91&#45;&gt;Node7</title>
<path fill="none" stroke="#63b8ff" d="M1681.89,-274.74C1696.27,-248.98 1738.62,-173.13 1758.05,-138.33"/>
<polygon fill="#63b8ff" stroke="#63b8ff" points="1761.26,-139.74 1763.08,-129.31 1755.15,-136.33 1761.26,-139.74"/>
</g>
<!-- Node91&#45;&gt;Node17 -->
<g id="edge69" class="edge">
<title>Node91&#45;&gt;Node17</title>
<path fill="none" stroke="#63b8ff" d="M1699.6,-274.84C1749.54,-255.72 1869.39,-209.82 1927.01,-187.75"/>
<polygon fill="#63b8ff" stroke="#63b8ff" points="1928.6,-190.89 1936.68,-184.05 1926.09,-184.35 1928.6,-190.89"/>
</g>
<!-- Node91&#45;&gt;Node22 -->
<g id="edge70" class="edge">
<title>Node91&#45;&gt;Node22</title>
<path fill="none" stroke="#63b8ff" d="M1677.57,-274.66C1678.71,-257.17 1681.26,-217.8 1682.78,-194.27"/>
<polygon fill="#63b8ff" stroke="#63b8ff" points="1686.28,-194.36 1683.44,-184.16 1679.3,-193.91 1686.28,-194.36"/>
</g>
<!-- Node91&#45;&gt;Node26 -->
<g id="edge71" class="edge">
<title>Node91&#45;&gt;Node26</title>
<path fill="none" stroke="#63b8ff" d="M1665.87,-274.66C1642.64,-256.22 1588.78,-213.45 1559.98,-190.57"/>
<polygon fill="#63b8ff" stroke="#63b8ff" points="1561.91,-187.64 1551.9,-184.16 1557.56,-193.12 1561.91,-187.64"/>
</g>
<!-- Node91&#45;&gt;Node36 -->
<g id="edge72" class="edge">
<title>Node91&#45;&gt;Node36</title>
<path fill="none" stroke="#63b8ff" d="M1671.52,-274.66C1660.42,-256.77 1635.13,-216 1620.67,-192.69"/>
<polygon fill="#63b8ff" stroke="#63b8ff" points="1623.62,-190.81 1615.37,-184.16 1617.67,-194.5 1623.62,-190.81"/>
</g>
<!-- Node91&#45;&gt;Node42 -->
<g id="edge68" class="edge">
<title>Node91&#45;&gt;Node42</title>
<path fill="none" stroke="#63b8ff" d="M1723.3,-277.16C1789.73,-268.06 1912.74,-251.21 1991.36,-240.45"/>
<polygon fill="#63b8ff" stroke="#63b8ff" points="1992.24,-243.86 2001.67,-239.04 1991.29,-236.93 1992.24,-243.86"/>
</g>
</g>
</svg>
