<?xml version="1.0" encoding="UTF-8" standalone="no"?>
<!DOCTYPE svg PUBLIC "-//W3C//DTD SVG 1.1//EN"
 "http://www.w3.org/Graphics/SVG/1.1/DTD/svg11.dtd">
<!-- Generated by graphviz version 2.44.0 (0)
 -->
<!-- Title: Samples/HistogramUtils.cpp Pages: 1 -->
<svg width="1121pt" height="420pt"
 viewBox="0.00 0.00 1121.07 420.00" xmlns="http://www.w3.org/2000/svg" xmlns:xlink="http://www.w3.org/1999/xlink">
<g id="graph0" class="graph" transform="scale(1 1) rotate(0) translate(4 416)">
<title>Samples/HistogramUtils.cpp</title>
<polygon fill="white" stroke="transparent" points="-4,4 -4,-416 1117.07,-416 1117.07,4 -4,4"/>
<!-- Node1 -->
<g id="node1" class="node">
<title>Node1</title>
<g id="a_node1"><a xlink:title=" ">
<polygon fill="#bfbfbf" stroke="black" points="913.07,-392.5 913.07,-411.5 1055.07,-411.5 1055.07,-392.5 913.07,-392.5"/>
<text text-anchor="middle" x="984.07" y="-399.5" font-family="Helvetica" font-size="10.00">Samples/HistogramUtils.cpp</text>
</a>
</g>
</g>
<!-- Node2 -->
<g id="node2" class="node">
<title>Node2</title>
<g id="a_node2"><a xlink:href="HistogramUtils_8h.html" target="_top" xlink:title=" ">
<polygon fill="white" stroke="black" points="811.57,-336.5 811.57,-355.5 942.57,-355.5 942.57,-336.5 811.57,-336.5"/>
<text text-anchor="middle" x="877.07" y="-343.5" font-family="Helvetica" font-size="10.00">Samples/HistogramUtils.h</text>
</a>
</g>
</g>
<!-- Node1&#45;&gt;Node2 -->
<g id="edge1" class="edge">
<title>Node1&#45;&gt;Node2</title>
<path fill="none" stroke="midnightblue" d="M966.87,-392.32C949.71,-383.66 923.12,-370.24 903.32,-360.25"/>
<polygon fill="midnightblue" stroke="midnightblue" points="904.72,-357.04 894.21,-355.65 901.56,-363.28 904.72,-357.04"/>
</g>
<!-- Node32 -->
<g id="node32" class="node">
<title>Node32</title>
<g id="a_node32"><a xlink:title=" ">
<polygon fill="white" stroke="#bfbfbf" points="961.07,-336.5 961.07,-355.5 1007.07,-355.5 1007.07,-336.5 961.07,-336.5"/>
<text text-anchor="middle" x="984.07" y="-343.5" font-family="Helvetica" font-size="10.00">TList.h</text>
</a>
</g>
</g>
<!-- Node1&#45;&gt;Node32 -->
<g id="edge52" class="edge">
<title>Node1&#45;&gt;Node32</title>
<path fill="none" stroke="midnightblue" d="M984.07,-392.08C984.07,-385.01 984.07,-374.86 984.07,-365.99"/>
<polygon fill="midnightblue" stroke="midnightblue" points="987.57,-365.75 984.07,-355.75 980.57,-365.75 987.57,-365.75"/>
</g>
<!-- Node33 -->
<g id="node33" class="node">
<title>Node33</title>
<g id="a_node33"><a xlink:title=" ">
<polygon fill="white" stroke="#bfbfbf" points="1025.07,-336.5 1025.07,-355.5 1093.07,-355.5 1093.07,-336.5 1025.07,-336.5"/>
<text text-anchor="middle" x="1059.07" y="-343.5" font-family="Helvetica" font-size="10.00">TObjArray.h</text>
</a>
</g>
</g>
<!-- Node1&#45;&gt;Node33 -->
<g id="edge53" class="edge">
<title>Node1&#45;&gt;Node33</title>
<path fill="none" stroke="midnightblue" d="M996.12,-392.32C1007.53,-384.11 1024.9,-371.6 1038.5,-361.81"/>
<polygon fill="midnightblue" stroke="midnightblue" points="1040.73,-364.52 1046.8,-355.83 1036.64,-358.84 1040.73,-364.52"/>
</g>
<!-- Node3 -->
<g id="node3" class="node">
<title>Node3</title>
<g id="a_node3"><a xlink:href="SampleStructs_8h.html" target="_top" xlink:title=" ">
<polygon fill="white" stroke="black" points="405.57,-280.5 405.57,-299.5 536.57,-299.5 536.57,-280.5 405.57,-280.5"/>
<text text-anchor="middle" x="471.07" y="-287.5" font-family="Helvetica" font-size="10.00">Samples/SampleStructs.h</text>
</a>
</g>
</g>
<!-- Node2&#45;&gt;Node3 -->
<g id="edge2" class="edge">
<title>Node2&#45;&gt;Node3</title>
<path fill="none" stroke="midnightblue" d="M812.73,-336.44C739.98,-326.77 621.7,-311.04 545.15,-300.85"/>
<polygon fill="midnightblue" stroke="midnightblue" points="545.47,-297.37 535.1,-299.52 544.55,-304.3 545.47,-297.37"/>
</g>
<!-- Node22 -->
<g id="node22" class="node">
<title>Node22</title>
<g id="a_node22"><a xlink:href="ParameterStructs_8h.html" target="_top" xlink:title="Definitions of generic parameter structs and utility templates for MaCh3.">
<polygon fill="white" stroke="black" points="287.57,-224.5 287.57,-243.5 442.57,-243.5 442.57,-224.5 287.57,-224.5"/>
<text text-anchor="middle" x="365.07" y="-231.5" font-family="Helvetica" font-size="10.00">Parameters/ParameterStructs.h</text>
</a>
</g>
</g>
<!-- Node2&#45;&gt;Node22 -->
<g id="edge48" class="edge">
<title>Node2&#45;&gt;Node22</title>
<path fill="none" stroke="midnightblue" d="M811.48,-342.44C687.78,-337.09 429.37,-323.26 396.07,-300 380.72,-289.29 372.72,-268.88 368.73,-253.78"/>
<polygon fill="midnightblue" stroke="midnightblue" points="372.12,-252.9 366.47,-243.94 365.29,-254.46 372.12,-252.9"/>
</g>
<!-- Node24 -->
<g id="node24" class="node">
<title>Node24</title>
<g id="a_node24"><a xlink:title=" ">
<polygon fill="white" stroke="#bfbfbf" points="829.57,-168.5 829.57,-187.5 900.57,-187.5 900.57,-168.5 829.57,-168.5"/>
<text text-anchor="middle" x="865.07" y="-175.5" font-family="Helvetica" font-size="10.00">TObjString.h</text>
</a>
</g>
</g>
<!-- Node2&#45;&gt;Node24 -->
<g id="edge50" class="edge">
<title>Node2&#45;&gt;Node24</title>
<path fill="none" stroke="midnightblue" d="M876.42,-336.08C874.53,-309.95 868.98,-233.21 866.41,-197.58"/>
<polygon fill="midnightblue" stroke="midnightblue" points="869.9,-197.29 865.68,-187.57 862.92,-197.79 869.9,-197.29"/>
</g>
<!-- Node30 -->
<g id="node30" class="node">
<title>Node30</title>
<g id="a_node30"><a xlink:title=" ">
<polygon fill="white" stroke="#bfbfbf" points="905.57,-280.5 905.57,-299.5 1022.57,-299.5 1022.57,-280.5 905.57,-280.5"/>
<text text-anchor="middle" x="964.07" y="-287.5" font-family="Helvetica" font-size="10.00">TGraphAsymmErrors.h</text>
</a>
</g>
</g>
<!-- Node2&#45;&gt;Node30 -->
<g id="edge49" class="edge">
<title>Node2&#45;&gt;Node30</title>
<path fill="none" stroke="midnightblue" d="M891.04,-336.32C904.62,-327.9 925.45,-314.97 941.39,-305.07"/>
<polygon fill="midnightblue" stroke="midnightblue" points="943.47,-307.9 950.12,-299.65 939.78,-301.95 943.47,-307.9"/>
</g>
<!-- Node31 -->
<g id="node31" class="node">
<title>Node31</title>
<g id="a_node31"><a xlink:title=" ">
<polygon fill="white" stroke="#bfbfbf" points="1041.07,-280.5 1041.07,-299.5 1113.07,-299.5 1113.07,-280.5 1041.07,-280.5"/>
<text text-anchor="middle" x="1077.07" y="-287.5" font-family="Helvetica" font-size="10.00">TRandom3.h</text>
</a>
</g>
</g>
<!-- Node2&#45;&gt;Node31 -->
<g id="edge51" class="edge">
<title>Node2&#45;&gt;Node31</title>
<path fill="none" stroke="midnightblue" d="M908.76,-336.44C943.13,-327.16 998.14,-312.31 1035.85,-302.13"/>
<polygon fill="midnightblue" stroke="midnightblue" points="1036.78,-305.5 1045.52,-299.52 1034.96,-298.74 1036.78,-305.5"/>
</g>
<!-- Node4 -->
<g id="node4" class="node">
<title>Node4</title>
<g id="a_node4"><a xlink:title=" ">
<polygon fill="white" stroke="#bfbfbf" points="191.07,-168.5 191.07,-187.5 221.07,-187.5 221.07,-168.5 191.07,-168.5"/>
<text text-anchor="middle" x="206.07" y="-175.5" font-family="Helvetica" font-size="10.00">set</text>
</a>
</g>
</g>
<!-- Node3&#45;&gt;Node4 -->
<g id="edge3" class="edge">
<title>Node3&#45;&gt;Node4</title>
<path fill="none" stroke="midnightblue" d="M405.42,-286.81C360.69,-282.66 301.72,-271.77 257.07,-244 238.48,-232.44 223.93,-211.57 215.21,-196.6"/>
<polygon fill="midnightblue" stroke="midnightblue" points="218.23,-194.83 210.34,-187.76 212.1,-198.21 218.23,-194.83"/>
</g>
<!-- Node5 -->
<g id="node5" class="node">
<title>Node5</title>
<g id="a_node5"><a xlink:title=" ">
<polygon fill="white" stroke="#bfbfbf" points="583.57,-168.5 583.57,-187.5 612.57,-187.5 612.57,-168.5 583.57,-168.5"/>
<text text-anchor="middle" x="598.07" y="-175.5" font-family="Helvetica" font-size="10.00">list</text>
</a>
</g>
</g>
<!-- Node3&#45;&gt;Node5 -->
<g id="edge4" class="edge">
<title>Node3&#45;&gt;Node5</title>
<path fill="none" stroke="midnightblue" d="M536.79,-285.48C598.39,-280.65 684.05,-269.44 705.07,-244 710.73,-237.15 709.98,-231.4 705.07,-224 702.62,-220.32 653.41,-200.6 622.59,-188.52"/>
<polygon fill="midnightblue" stroke="midnightblue" points="623.52,-185.13 612.93,-184.75 620.97,-191.65 623.52,-185.13"/>
</g>
<!-- Node6 -->
<g id="node6" class="node">
<title>Node6</title>
<g id="a_node6"><a xlink:title=" ">
<polygon fill="white" stroke="#bfbfbf" points="13.57,-168.5 13.57,-187.5 96.57,-187.5 96.57,-168.5 13.57,-168.5"/>
<text text-anchor="middle" x="55.07" y="-175.5" font-family="Helvetica" font-size="10.00">unordered_map</text>
</a>
</g>
</g>
<!-- Node3&#45;&gt;Node6 -->
<g id="edge5" class="edge">
<title>Node3&#45;&gt;Node6</title>
<path fill="none" stroke="midnightblue" d="M405.51,-283.4C348.85,-277.36 265.26,-265.57 195.07,-244 152.45,-230.9 106.09,-207.37 78.85,-192.5"/>
<polygon fill="midnightblue" stroke="midnightblue" points="80.5,-189.42 70.06,-187.64 77.11,-195.54 80.5,-189.42"/>
</g>
<!-- Node7 -->
<g id="node7" class="node">
<title>Node7</title>
<g id="a_node7"><a xlink:href="MaCh3Exception_8h.html" target="_top" xlink:title="Defines the custom exception class used throughout MaCh3.">
<polygon fill="white" stroke="black" points="631.07,-168.5 631.07,-187.5 771.07,-187.5 771.07,-168.5 631.07,-168.5"/>
<text text-anchor="middle" x="701.07" y="-175.5" font-family="Helvetica" font-size="10.00">Manager/MaCh3Exception.h</text>
</a>
</g>
</g>
<!-- Node3&#45;&gt;Node7 -->
<g id="edge6" class="edge">
<title>Node3&#45;&gt;Node7</title>
<path fill="none" stroke="midnightblue" d="M536.64,-286.43C602.67,-282.31 697.98,-271.62 721.07,-244 732.5,-230.33 723.5,-210.18 714.18,-195.95"/>
<polygon fill="midnightblue" stroke="midnightblue" points="716.88,-193.7 708.23,-187.58 711.17,-197.76 716.88,-193.7"/>
</g>
<!-- Node11 -->
<g id="node11" class="node">
<title>Node11</title>
<g id="a_node11"><a xlink:href="MaCh3Logger_8h.html" target="_top" xlink:title="MaCh3 Logging utilities built on top of SPDLOG.">
<polygon fill="white" stroke="black" points="622.07,-112.5 622.07,-131.5 748.07,-131.5 748.07,-112.5 622.07,-112.5"/>
<text text-anchor="middle" x="685.07" y="-119.5" font-family="Helvetica" font-size="10.00">Manager/MaCh3Logger.h</text>
</a>
</g>
</g>
<!-- Node3&#45;&gt;Node11 -->
<g id="edge26" class="edge">
<title>Node3&#45;&gt;Node11</title>
<path fill="none" stroke="midnightblue" d="M536.67,-283.54C604.52,-276.92 705.1,-264.08 738.07,-244 771.02,-223.92 800.7,-200.61 780.07,-168 770.02,-152.13 752.69,-141.74 735.56,-135"/>
<polygon fill="midnightblue" stroke="midnightblue" points="736.71,-131.69 726.12,-131.62 734.35,-138.28 736.71,-131.69"/>
</g>
<!-- Node15 -->
<g id="node15" class="node">
<title>Node15</title>
<g id="a_node15"><a xlink:href="Core_8h.html" target="_top" xlink:title="KS: Core MaCh3 definitions and compile&#45;time configuration utilities.">
<polygon fill="white" stroke="black" points="332.07,-56.5 332.07,-75.5 418.07,-75.5 418.07,-56.5 332.07,-56.5"/>
<text text-anchor="middle" x="375.07" y="-63.5" font-family="Helvetica" font-size="10.00">Manager/Core.h</text>
</a>
</g>
</g>
<!-- Node3&#45;&gt;Node15 -->
<g id="edge27" class="edge">
<title>Node3&#45;&gt;Node15</title>
<path fill="none" stroke="midnightblue" d="M405.48,-285.56C287.66,-277.77 48.26,-253.99 4.07,-188 -33.36,-132.12 210.44,-90.13 321.75,-74.1"/>
<polygon fill="midnightblue" stroke="midnightblue" points="322.36,-77.55 331.77,-72.68 321.38,-70.62 322.36,-77.55"/>
</g>
<!-- Node3&#45;&gt;Node22 -->
<g id="edge28" class="edge">
<title>Node3&#45;&gt;Node22</title>
<path fill="none" stroke="midnightblue" d="M454.03,-280.32C437.04,-271.66 410.69,-258.24 391.07,-248.25"/>
<polygon fill="midnightblue" stroke="midnightblue" points="392.55,-245.08 382.05,-243.65 389.38,-251.31 392.55,-245.08"/>
</g>
<!-- Node23 -->
<g id="node23" class="node">
<title>Node23</title>
<g id="a_node23"><a xlink:title=" ">
<polygon fill="white" stroke="#bfbfbf" points="115.07,-168.5 115.07,-187.5 173.07,-187.5 173.07,-168.5 115.07,-168.5"/>
<text text-anchor="middle" x="144.07" y="-175.5" font-family="Helvetica" font-size="10.00">TSpline.h</text>
</a>
</g>
</g>
<!-- Node3&#45;&gt;Node23 -->
<g id="edge41" class="edge">
<title>Node3&#45;&gt;Node23</title>
<path fill="none" stroke="midnightblue" d="M405.34,-284.6C355.98,-279.42 287.61,-268.21 232.07,-244 204.49,-231.98 177.35,-209.95 160.66,-194.9"/>
<polygon fill="midnightblue" stroke="midnightblue" points="162.66,-191.98 152.94,-187.75 157.9,-197.12 162.66,-191.98"/>
</g>
<!-- Node3&#45;&gt;Node24 -->
<g id="edge42" class="edge">
<title>Node3&#45;&gt;Node24</title>
<path fill="none" stroke="midnightblue" d="M536.66,-286.35C622.94,-281.87 769.01,-270.53 815.07,-244 833.89,-233.16 848.04,-212.15 856.39,-196.95"/>
<polygon fill="midnightblue" stroke="midnightblue" points="859.56,-198.45 861.04,-187.96 853.34,-195.23 859.56,-198.45"/>
</g>
<!-- Node25 -->
<g id="node25" class="node">
<title>Node25</title>
<g id="a_node25"><a xlink:title=" ">
<polygon fill="white" stroke="#bfbfbf" points="239.57,-168.5 239.57,-187.5 286.57,-187.5 286.57,-168.5 239.57,-168.5"/>
<text text-anchor="middle" x="263.07" y="-175.5" font-family="Helvetica" font-size="10.00">TFile.h</text>
</a>
</g>
</g>
<!-- Node3&#45;&gt;Node25 -->
<g id="edge43" class="edge">
<title>Node3&#45;&gt;Node25</title>
<path fill="none" stroke="midnightblue" d="M405.41,-282.53C353.87,-276.02 287.93,-264 270.07,-244 259.09,-231.71 258.31,-212.45 259.7,-198.08"/>
<polygon fill="midnightblue" stroke="midnightblue" points="263.21,-198.22 261.11,-187.84 256.28,-197.26 263.21,-198.22"/>
</g>
<!-- Node26 -->
<g id="node26" class="node">
<title>Node26</title>
<g id="a_node26"><a xlink:title=" ">
<polygon fill="white" stroke="#bfbfbf" points="305.07,-168.5 305.07,-187.5 347.07,-187.5 347.07,-168.5 305.07,-168.5"/>
<text text-anchor="middle" x="326.07" y="-175.5" font-family="Helvetica" font-size="10.00">TF1.h</text>
</a>
</g>
</g>
<!-- Node3&#45;&gt;Node26 -->
<g id="edge44" class="edge">
<title>Node3&#45;&gt;Node26</title>
<path fill="none" stroke="midnightblue" d="M405.45,-282.38C355.93,-275.87 293.89,-263.94 278.07,-244 264.58,-227 284.91,-206.81 303.12,-193.5"/>
<polygon fill="midnightblue" stroke="midnightblue" points="305.49,-196.12 311.74,-187.56 301.52,-190.35 305.49,-196.12"/>
</g>
<!-- Node27 -->
<g id="node27" class="node">
<title>Node27</title>
<g id="a_node27"><a xlink:title=" ">
<polygon fill="white" stroke="#bfbfbf" points="441.07,-168.5 441.07,-187.5 503.07,-187.5 503.07,-168.5 441.07,-168.5"/>
<text text-anchor="middle" x="472.07" y="-175.5" font-family="Helvetica" font-size="10.00">TH2Poly.h</text>
</a>
</g>
</g>
<!-- Node3&#45;&gt;Node27 -->
<g id="edge45" class="edge">
<title>Node3&#45;&gt;Node27</title>
<path fill="none" stroke="midnightblue" d="M471.14,-280.37C471.31,-262.62 471.68,-221.67 471.9,-197.6"/>
<polygon fill="midnightblue" stroke="midnightblue" points="475.4,-197.62 471.99,-187.59 468.4,-197.56 475.4,-197.62"/>
</g>
<!-- Node28 -->
<g id="node28" class="node">
<title>Node28</title>
<g id="a_node28"><a xlink:title=" ">
<polygon fill="white" stroke="#bfbfbf" points="521.07,-168.5 521.07,-187.5 565.07,-187.5 565.07,-168.5 521.07,-168.5"/>
<text text-anchor="middle" x="543.07" y="-175.5" font-family="Helvetica" font-size="10.00">TH1.h</text>
</a>
</g>
</g>
<!-- Node3&#45;&gt;Node28 -->
<g id="edge46" class="edge">
<title>Node3&#45;&gt;Node28</title>
<path fill="none" stroke="midnightblue" d="M476.72,-280.37C488.6,-262.22 516.36,-219.8 531.94,-195.99"/>
<polygon fill="midnightblue" stroke="midnightblue" points="534.89,-197.88 537.44,-187.59 529.04,-194.04 534.89,-197.88"/>
</g>
<!-- Node29 -->
<g id="node29" class="node">
<title>Node29</title>
<g id="a_node29"><a xlink:title=" ">
<polygon fill="white" stroke="#bfbfbf" points="537.57,-224.5 537.57,-243.5 696.57,-243.5 696.57,-224.5 537.57,-224.5"/>
<text text-anchor="middle" x="617.07" y="-231.5" font-family="Helvetica" font-size="10.00">Constants/OscillatorConstants.h</text>
</a>
</g>
</g>
<!-- Node3&#45;&gt;Node29 -->
<g id="edge47" class="edge">
<title>Node3&#45;&gt;Node29</title>
<path fill="none" stroke="midnightblue" d="M494.2,-280.44C518.55,-271.44 557.07,-257.19 584.49,-247.05"/>
<polygon fill="midnightblue" stroke="midnightblue" points="585.87,-250.27 594.04,-243.52 583.45,-243.7 585.87,-250.27"/>
</g>
<!-- Node8 -->
<g id="node8" class="node">
<title>Node8</title>
<g id="a_node8"><a xlink:title=" ">
<polygon fill="white" stroke="#bfbfbf" points="715.07,-0.5 715.07,-19.5 769.07,-19.5 769.07,-0.5 715.07,-0.5"/>
<text text-anchor="middle" x="742.07" y="-7.5" font-family="Helvetica" font-size="10.00">iostream</text>
</a>
</g>
</g>
<!-- Node7&#45;&gt;Node8 -->
<g id="edge7" class="edge">
<title>Node7&#45;&gt;Node8</title>
<path fill="none" stroke="midnightblue" d="M721.24,-168.29C750.9,-154.1 804.47,-122.79 820.07,-76 822.88,-67.57 824.51,-63.7 820.07,-56 811.07,-40.42 794.39,-29.75 778.76,-22.73"/>
<polygon fill="midnightblue" stroke="midnightblue" points="779.82,-19.38 769.24,-18.81 777.16,-25.85 779.82,-19.38"/>
</g>
<!-- Node9 -->
<g id="node9" class="node">
<title>Node9</title>
<g id="a_node9"><a xlink:title=" ">
<polygon fill="white" stroke="#bfbfbf" points="770.57,-56.5 770.57,-75.5 811.57,-75.5 811.57,-56.5 770.57,-56.5"/>
<text text-anchor="middle" x="791.07" y="-63.5" font-family="Helvetica" font-size="10.00">string</text>
</a>
</g>
</g>
<!-- Node7&#45;&gt;Node9 -->
<g id="edge8" class="edge">
<title>Node7&#45;&gt;Node9</title>
<path fill="none" stroke="midnightblue" d="M714.84,-168.33C727.08,-160.11 744.87,-146.84 757.07,-132 768.79,-117.73 778.14,-98.77 784.05,-85.01"/>
<polygon fill="midnightblue" stroke="midnightblue" points="787.32,-86.25 787.87,-75.66 780.85,-83.59 787.32,-86.25"/>
</g>
<!-- Node10 -->
<g id="node10" class="node">
<title>Node10</title>
<g id="a_node10"><a xlink:title=" ">
<polygon fill="white" stroke="#bfbfbf" points="506.57,-112.5 506.57,-131.5 565.57,-131.5 565.57,-112.5 506.57,-112.5"/>
<text text-anchor="middle" x="536.07" y="-119.5" font-family="Helvetica" font-size="10.00">stdexcept</text>
</a>
</g>
</g>
<!-- Node7&#45;&gt;Node10 -->
<g id="edge9" class="edge">
<title>Node7&#45;&gt;Node10</title>
<path fill="none" stroke="midnightblue" d="M674.92,-168.44C647.04,-159.32 602.72,-144.81 571.67,-134.65"/>
<polygon fill="midnightblue" stroke="midnightblue" points="572.68,-131.3 562.09,-131.52 570.5,-137.95 572.68,-131.3"/>
</g>
<!-- Node7&#45;&gt;Node11 -->
<g id="edge10" class="edge">
<title>Node7&#45;&gt;Node11</title>
<path fill="none" stroke="midnightblue" d="M698.42,-168.08C696.28,-160.85 693.19,-150.41 690.52,-141.4"/>
<polygon fill="midnightblue" stroke="midnightblue" points="693.86,-140.34 687.66,-131.75 687.14,-142.33 693.86,-140.34"/>
</g>
<!-- Node7&#45;&gt;Node15 -->
<g id="edge25" class="edge">
<title>Node7&#45;&gt;Node15</title>
<path fill="none" stroke="midnightblue" d="M684.19,-168.38C666.48,-159.33 637.81,-144.67 613.07,-132 595.73,-123.12 592.38,-118.65 574.07,-112 547.67,-102.42 477.62,-87.44 428.12,-77.43"/>
<polygon fill="midnightblue" stroke="midnightblue" points="428.7,-73.98 418.21,-75.43 427.32,-80.84 428.7,-73.98"/>
</g>
<!-- Node11&#45;&gt;Node8 -->
<g id="edge11" class="edge">
<title>Node11&#45;&gt;Node8</title>
<path fill="none" stroke="midnightblue" d="M694.48,-112.2C703.06,-103.69 715.52,-90.05 723.07,-76 730.89,-61.43 735.85,-43.26 738.73,-29.83"/>
<polygon fill="midnightblue" stroke="midnightblue" points="742.2,-30.34 740.68,-19.86 735.33,-29 742.2,-30.34"/>
</g>
<!-- Node11&#45;&gt;Node9 -->
<g id="edge14" class="edge">
<title>Node11&#45;&gt;Node9</title>
<path fill="none" stroke="midnightblue" d="M702.1,-112.32C719.1,-103.66 745.44,-90.24 765.06,-80.25"/>
<polygon fill="midnightblue" stroke="midnightblue" points="766.76,-83.31 774.08,-75.65 763.58,-77.08 766.76,-83.31"/>
</g>
<!-- Node12 -->
<g id="node12" class="node">
<title>Node12</title>
<g id="a_node12"><a xlink:title=" ">
<polygon fill="white" stroke="#bfbfbf" points="524.07,-0.5 524.07,-19.5 576.07,-19.5 576.07,-0.5 524.07,-0.5"/>
<text text-anchor="middle" x="550.07" y="-7.5" font-family="Helvetica" font-size="10.00">sstream</text>
</a>
</g>
</g>
<!-- Node11&#45;&gt;Node12 -->
<g id="edge12" class="edge">
<title>Node11&#45;&gt;Node12</title>
<path fill="none" stroke="midnightblue" d="M636.18,-112.48C612.96,-106.09 586.52,-95.02 569.07,-76 557.52,-63.42 552.96,-44.21 551.18,-29.92"/>
<polygon fill="midnightblue" stroke="midnightblue" points="554.64,-29.4 550.26,-19.75 547.67,-30.02 554.64,-29.4"/>
</g>
<!-- Node13 -->
<g id="node13" class="node">
<title>Node13</title>
<g id="a_node13"><a xlink:title=" ">
<polygon fill="white" stroke="#bfbfbf" points="578.57,-56.5 578.57,-75.5 637.57,-75.5 637.57,-56.5 578.57,-56.5"/>
<text text-anchor="middle" x="608.07" y="-63.5" font-family="Helvetica" font-size="10.00">functional</text>
</a>
</g>
</g>
<!-- Node11&#45;&gt;Node13 -->
<g id="edge13" class="edge">
<title>Node11&#45;&gt;Node13</title>
<path fill="none" stroke="midnightblue" d="M672.69,-112.32C660.91,-104.06 642.93,-91.45 628.93,-81.63"/>
<polygon fill="midnightblue" stroke="midnightblue" points="630.6,-78.53 620.41,-75.65 626.58,-84.26 630.6,-78.53"/>
</g>
<!-- Node14 -->
<g id="node14" class="node">
<title>Node14</title>
<g id="a_node14"><a xlink:title=" ">
<polygon fill="white" stroke="#bfbfbf" points="656.07,-56.5 656.07,-75.5 714.07,-75.5 714.07,-56.5 656.07,-56.5"/>
<text text-anchor="middle" x="685.07" y="-63.5" font-family="Helvetica" font-size="10.00">exception</text>
</a>
</g>
</g>
<!-- Node11&#45;&gt;Node14 -->
<g id="edge15" class="edge">
<title>Node11&#45;&gt;Node14</title>
<path fill="none" stroke="midnightblue" d="M685.07,-112.08C685.07,-105.01 685.07,-94.86 685.07,-85.99"/>
<polygon fill="midnightblue" stroke="midnightblue" points="688.57,-85.75 685.07,-75.75 681.57,-85.75 688.57,-85.75"/>
</g>
<!-- Node11&#45;&gt;Node15 -->
<g id="edge16" class="edge">
<title>Node11&#45;&gt;Node15</title>
<path fill="none" stroke="midnightblue" d="M635.95,-112.44C579.41,-102.6 486.89,-86.48 428.57,-76.32"/>
<polygon fill="midnightblue" stroke="midnightblue" points="428.91,-72.83 418.45,-74.56 427.71,-79.72 428.91,-72.83"/>
</g>
<!-- Node21 -->
<g id="node21" class="node">
<title>Node21</title>
<g id="a_node21"><a xlink:title=" ">
<polygon fill="white" stroke="#bfbfbf" points="436.57,-56.5 436.57,-75.5 521.57,-75.5 521.57,-56.5 436.57,-56.5"/>
<text text-anchor="middle" x="479.07" y="-63.5" font-family="Helvetica" font-size="10.00">spdlog/spdlog.h</text>
</a>
</g>
</g>
<!-- Node11&#45;&gt;Node21 -->
<g id="edge24" class="edge">
<title>Node11&#45;&gt;Node21</title>
<path fill="none" stroke="midnightblue" d="M652.42,-112.44C617.02,-103.16 560.36,-88.31 521.51,-78.13"/>
<polygon fill="midnightblue" stroke="midnightblue" points="522.11,-74.67 511.55,-75.52 520.34,-81.44 522.11,-74.67"/>
</g>
<!-- Node15&#45;&gt;Node8 -->
<g id="edge19" class="edge">
<title>Node15&#45;&gt;Node8</title>
<path fill="none" stroke="midnightblue" d="M418.18,-57.44C421.19,-56.94 424.17,-56.46 427.07,-56 527.44,-40.15 646.21,-23.84 705.11,-15.92"/>
<polygon fill="midnightblue" stroke="midnightblue" points="705.61,-19.38 715.06,-14.59 704.68,-12.45 705.61,-19.38"/>
</g>
<!-- Node15&#45;&gt;Node12 -->
<g id="edge17" class="edge">
<title>Node15&#45;&gt;Node12</title>
<path fill="none" stroke="midnightblue" d="M402.79,-56.44C432.93,-47.15 481.18,-32.26 514.18,-22.07"/>
<polygon fill="midnightblue" stroke="midnightblue" points="515.37,-25.37 523.9,-19.08 513.31,-18.68 515.37,-25.37"/>
</g>
<!-- Node16 -->
<g id="node16" class="node">
<title>Node16</title>
<g id="a_node16"><a xlink:title=" ">
<polygon fill="white" stroke="#bfbfbf" points="394.07,-0.5 394.07,-19.5 444.07,-19.5 444.07,-0.5 394.07,-0.5"/>
<text text-anchor="middle" x="419.07" y="-7.5" font-family="Helvetica" font-size="10.00">fstream</text>
</a>
</g>
</g>
<!-- Node15&#45;&gt;Node16 -->
<g id="edge18" class="edge">
<title>Node15&#45;&gt;Node16</title>
<path fill="none" stroke="midnightblue" d="M382.33,-56.08C388.61,-48.38 397.85,-37.03 405.5,-27.65"/>
<polygon fill="midnightblue" stroke="midnightblue" points="408.33,-29.71 411.94,-19.75 402.9,-25.29 408.33,-29.71"/>
</g>
<!-- Node17 -->
<g id="node17" class="node">
<title>Node17</title>
<g id="a_node17"><a xlink:title=" ">
<polygon fill="white" stroke="#bfbfbf" points="462.57,-0.5 462.57,-19.5 505.57,-19.5 505.57,-0.5 462.57,-0.5"/>
<text text-anchor="middle" x="484.07" y="-7.5" font-family="Helvetica" font-size="10.00">vector</text>
</a>
</g>
</g>
<!-- Node15&#45;&gt;Node17 -->
<g id="edge20" class="edge">
<title>Node15&#45;&gt;Node17</title>
<path fill="none" stroke="midnightblue" d="M392.58,-56.32C410.14,-47.62 437.4,-34.12 457.6,-24.11"/>
<polygon fill="midnightblue" stroke="midnightblue" points="459.19,-27.23 466.6,-19.65 456.08,-20.96 459.19,-27.23"/>
</g>
<!-- Node18 -->
<g id="node18" class="node">
<title>Node18</title>
<g id="a_node18"><a xlink:title=" ">
<polygon fill="white" stroke="#bfbfbf" points="206.07,-0.5 206.07,-19.5 256.07,-19.5 256.07,-0.5 206.07,-0.5"/>
<text text-anchor="middle" x="231.07" y="-7.5" font-family="Helvetica" font-size="10.00">iomanip</text>
</a>
</g>
</g>
<!-- Node15&#45;&gt;Node18 -->
<g id="edge21" class="edge">
<title>Node15&#45;&gt;Node18</title>
<path fill="none" stroke="midnightblue" d="M352.25,-56.44C328.23,-47.44 290.24,-33.19 263.2,-23.05"/>
<polygon fill="midnightblue" stroke="midnightblue" points="264.37,-19.75 253.78,-19.52 261.91,-26.3 264.37,-19.75"/>
</g>
<!-- Node19 -->
<g id="node19" class="node">
<title>Node19</title>
<g id="a_node19"><a xlink:title=" ">
<polygon fill="white" stroke="#bfbfbf" points="274.07,-0.5 274.07,-19.5 318.07,-19.5 318.07,-0.5 274.07,-0.5"/>
<text text-anchor="middle" x="296.07" y="-7.5" font-family="Helvetica" font-size="10.00">cmath</text>
</a>
</g>
</g>
<!-- Node15&#45;&gt;Node19 -->
<g id="edge22" class="edge">
<title>Node15&#45;&gt;Node19</title>
<path fill="none" stroke="midnightblue" d="M362.37,-56.32C350.16,-47.98 331.49,-35.21 317.06,-25.35"/>
<polygon fill="midnightblue" stroke="midnightblue" points="318.96,-22.41 308.73,-19.65 315.01,-28.19 318.96,-22.41"/>
</g>
<!-- Node20 -->
<g id="node20" class="node">
<title>Node20</title>
<g id="a_node20"><a xlink:title=" ">
<polygon fill="white" stroke="#bfbfbf" points="336.07,-0.5 336.07,-19.5 376.07,-19.5 376.07,-0.5 336.07,-0.5"/>
<text text-anchor="middle" x="356.07" y="-7.5" font-family="Helvetica" font-size="10.00">limits</text>
</a>
</g>
</g>
<!-- Node15&#45;&gt;Node20 -->
<g id="edge23" class="edge">
<title>Node15&#45;&gt;Node20</title>
<path fill="none" stroke="midnightblue" d="M371.93,-56.08C369.38,-48.85 365.71,-38.41 362.54,-29.4"/>
<polygon fill="midnightblue" stroke="midnightblue" points="365.77,-28.02 359.14,-19.75 359.16,-30.35 365.77,-28.02"/>
</g>
<!-- Node22&#45;&gt;Node4 -->
<g id="edge29" class="edge">
<title>Node22&#45;&gt;Node4</title>
<path fill="none" stroke="midnightblue" d="M338.58,-224.49C313.16,-216.26 273.46,-203.21 230.72,-188.15"/>
<polygon fill="midnightblue" stroke="midnightblue" points="231.86,-184.84 221.27,-184.8 229.53,-191.44 231.86,-184.84"/>
</g>
<!-- Node22&#45;&gt;Node5 -->
<g id="edge30" class="edge">
<title>Node22&#45;&gt;Node5</title>
<path fill="none" stroke="midnightblue" d="M414.56,-224.46C455.07,-217 513.94,-205.07 573.84,-187.7"/>
<polygon fill="midnightblue" stroke="midnightblue" points="574.85,-191.05 583.46,-184.87 572.88,-184.34 574.85,-191.05"/>
</g>
<!-- Node22&#45;&gt;Node6 -->
<g id="edge31" class="edge">
<title>Node22&#45;&gt;Node6</title>
<path fill="none" stroke="midnightblue" d="M315.89,-224.5C265.92,-215.85 186.01,-201.99 106.95,-188.15"/>
<polygon fill="midnightblue" stroke="midnightblue" points="107.27,-184.65 96.81,-186.38 106.06,-191.55 107.27,-184.65"/>
</g>
<!-- Node22&#45;&gt;Node7 -->
<g id="edge32" class="edge">
<title>Node22&#45;&gt;Node7</title>
<path fill="none" stroke="midnightblue" d="M418.31,-224.44C478.03,-214.85 574.81,-199.29 638.2,-189.1"/>
<polygon fill="midnightblue" stroke="midnightblue" points="638.76,-192.56 648.07,-187.52 637.65,-185.65 638.76,-192.56"/>
</g>
<!-- Node22&#45;&gt;Node11 -->
<g id="edge33" class="edge">
<title>Node22&#45;&gt;Node11</title>
<path fill="none" stroke="midnightblue" d="M371.34,-224.16C382.02,-209.82 405.23,-181.74 432.07,-168 462.79,-152.27 548.79,-139.12 612.03,-131.17"/>
<polygon fill="midnightblue" stroke="midnightblue" points="612.48,-134.64 621.97,-129.94 611.62,-127.7 612.48,-134.64"/>
</g>
<!-- Node22&#45;&gt;Node15 -->
<g id="edge34" class="edge">
<title>Node22&#45;&gt;Node15</title>
<path fill="none" stroke="midnightblue" d="M365.6,-224.08C367.18,-197.95 371.8,-121.21 373.95,-85.58"/>
<polygon fill="midnightblue" stroke="midnightblue" points="377.44,-85.76 374.55,-75.57 370.45,-85.34 377.44,-85.76"/>
</g>
<!-- Node22&#45;&gt;Node23 -->
<g id="edge35" class="edge">
<title>Node22&#45;&gt;Node23</title>
<path fill="none" stroke="midnightblue" d="M330.05,-224.44C290.02,-214.66 224.68,-198.7 183.06,-188.53"/>
<polygon fill="midnightblue" stroke="midnightblue" points="183.82,-185.11 173.27,-186.14 182.16,-191.91 183.82,-185.11"/>
</g>
<!-- Node22&#45;&gt;Node24 -->
<g id="edge36" class="edge">
<title>Node22&#45;&gt;Node24</title>
<path fill="none" stroke="midnightblue" d="M442.64,-224.62C548.1,-213.23 733.37,-193.22 819.12,-183.96"/>
<polygon fill="midnightblue" stroke="midnightblue" points="819.75,-187.41 829.32,-182.86 819,-180.45 819.75,-187.41"/>
</g>
<!-- Node22&#45;&gt;Node25 -->
<g id="edge37" class="edge">
<title>Node22&#45;&gt;Node25</title>
<path fill="none" stroke="midnightblue" d="M348.68,-224.32C332.39,-215.7 307.2,-202.36 288.35,-192.39"/>
<polygon fill="midnightblue" stroke="midnightblue" points="289.89,-189.24 279.41,-187.65 286.61,-195.43 289.89,-189.24"/>
</g>
<!-- Node22&#45;&gt;Node26 -->
<g id="edge38" class="edge">
<title>Node22&#45;&gt;Node26</title>
<path fill="none" stroke="midnightblue" d="M358.63,-224.08C353.12,-216.46 345.03,-205.26 338.3,-195.94"/>
<polygon fill="midnightblue" stroke="midnightblue" points="341.08,-193.81 332.39,-187.75 335.4,-197.91 341.08,-193.81"/>
</g>
<!-- Node22&#45;&gt;Node27 -->
<g id="edge39" class="edge">
<title>Node22&#45;&gt;Node27</title>
<path fill="none" stroke="midnightblue" d="M382.26,-224.32C399.42,-215.66 426.01,-202.24 445.81,-192.25"/>
<polygon fill="midnightblue" stroke="midnightblue" points="447.57,-195.28 454.92,-187.65 444.41,-189.04 447.57,-195.28"/>
</g>
<!-- Node22&#45;&gt;Node28 -->
<g id="edge40" class="edge">
<title>Node22&#45;&gt;Node28</title>
<path fill="none" stroke="midnightblue" d="M393.27,-224.44C425.34,-214.71 477.59,-198.86 511.13,-188.69"/>
<polygon fill="midnightblue" stroke="midnightblue" points="512.34,-191.98 520.9,-185.73 510.31,-185.28 512.34,-191.98"/>
</g>
</g>
</svg>
