<?xml version="1.0" encoding="UTF-8" standalone="no"?>
<!DOCTYPE svg PUBLIC "-//W3C//DTD SVG 1.1//EN"
 "http://www.w3.org/Graphics/SVG/1.1/DTD/svg11.dtd">
<!-- Generated by graphviz version 2.44.0 (0)
 -->
<!-- Title: Samples/HistogramUtils.h Pages: 1 -->
<!--zoomable 509 -->
<svg id="main" version="1.1" xmlns="http://www.w3.org/2000/svg" xmlns:xlink="http://www.w3.org/1999/xlink" xml:space="preserve" onload="init(evt)">
<style type="text/css"><![CDATA[
.edge:hover path { stroke: red; }
.edge:hover polygon { stroke: red; fill: red; }
]]></style>
<script type="text/javascript"><![CDATA[
var edges = document.getElementsByTagName('g');
if (edges && edges.length) {
  for (var i=0;i<edges.length;i++) {
    if (edges[i].id.substr(0,4)=='edge') {
      edges[i].setAttribute('class','edge');
    }
  }
}
]]></script>
        <defs>
                <circle id="rim" cx="0" cy="0" r="7"/>
                <circle id="rim2" cx="0" cy="0" r="3.5"/>
                <g id="zoomPlus">
                        <use xlink:href="#rim" fill="#404040">
                                <set attributeName="fill" to="#808080" begin="zoomplus.mouseover" end="zoomplus.mouseout"/>
                        </use>
                        <path d="M-4,0h8M0,-4v8" fill="none" stroke="white" stroke-width="1.5" pointer-events="none"/>
                </g>
                <g id="zoomMin">
                        <use xlink:href="#rim" fill="#404040">
                                <set attributeName="fill" to="#808080" begin="zoomminus.mouseover" end="zoomminus.mouseout"/>
                        </use>
                        <path d="M-4,0h8" fill="none" stroke="white" stroke-width="1.5" pointer-events="none"/>
                </g>
                <g id="dirArrow">
                        <path fill="none" stroke="white" stroke-width="1.5" d="M0,-3.0v7 M-2.5,-0.5L0,-3.0L2.5,-0.5"/>
                </g>
               <g id="resetDef">
                       <use xlink:href="#rim2" fill="#404040">
                               <set attributeName="fill" to="#808080" begin="reset.mouseover" end="reset.mouseout"/>
                       </use>
               </g>
        </defs>

<script type="text/javascript">
var viewWidth = 1975;
var viewHeight = 509;
var sectionId = 'dynsection-1';
</script>
<script xlink:href="svgpan.js"/>
<svg id="graph" class="graph">
<g id="viewport">
<title>Samples/HistogramUtils.h</title>
<polygon fill="white" stroke="transparent" points="-4,4 -4,-505 1970.5,-505 1970.5,4 -4,4"/>
<!-- Node1 -->
<g id="node1" class="node">
<title>Node1</title>
<g id="a_node1"><a xlink:title=" ">
<polygon fill="#bfbfbf" stroke="black" points="1060,-481.5 1060,-500.5 1191,-500.5 1191,-481.5 1060,-481.5"/>
<text text-anchor="middle" x="1125.5" y="-488.5" font-family="Helvetica" font-size="10.00">Samples/HistogramUtils.h</text>
</a>
</g>
</g>
<!-- Node2 -->
<g id="node2" class="node">
<title>Node2</title>
<g id="a_node2"><a xlink:href="HistogramUtils_8cpp.html" target="_top" xlink:title=" ">
<polygon fill="white" stroke="black" points="851.5,-425.5 851.5,-444.5 993.5,-444.5 993.5,-425.5 851.5,-425.5"/>
<text text-anchor="middle" x="922.5" y="-432.5" font-family="Helvetica" font-size="10.00">Samples/HistogramUtils.cpp</text>
</a>
</g>
</g>
<!-- Node1&#45;&gt;Node2 -->
<g id="edge1" class="edge">
<title>Node1&#45;&gt;Node2</title>
<path fill="none" stroke="midnightblue" d="M1083.51,-478.83C1045.18,-468.63 989.35,-453.78 954.52,-444.52"/>
<polygon fill="midnightblue" stroke="midnightblue" points="1082.77,-482.26 1093.33,-481.44 1084.57,-475.49 1082.77,-482.26"/>
</g>
<!-- Node3 -->
<g id="node3" class="node">
<title>Node3</title>
<g id="a_node3"><a xlink:href="SampleHandlerBase_8h.html" target="_top" xlink:title=" ">
<polygon fill="white" stroke="black" points="588,-369.5 588,-388.5 743,-388.5 743,-369.5 588,-369.5"/>
<text text-anchor="middle" x="665.5" y="-376.5" font-family="Helvetica" font-size="10.00">Samples/SampleHandlerBase.h</text>
</a>
</g>
</g>
<!-- Node1&#45;&gt;Node3 -->
<g id="edge2" class="edge">
<title>Node1&#45;&gt;Node3</title>
<path fill="none" stroke="midnightblue" d="M1101.96,-476.28C1072.23,-459.18 1022.53,-431.4 1002.5,-425 916.34,-397.45 812.57,-386.76 743.15,-382.62"/>
<polygon fill="midnightblue" stroke="midnightblue" points="1100.44,-479.44 1110.85,-481.42 1103.95,-473.38 1100.44,-479.44"/>
</g>
<!-- Node29 -->
<g id="node29" class="node">
<title>Node29</title>
<g id="a_node29"><a xlink:href="MCMCProcessor_8h.html" target="_top" xlink:title=" ">
<polygon fill="white" stroke="black" points="1275.5,-369.5 1275.5,-388.5 1407.5,-388.5 1407.5,-369.5 1275.5,-369.5"/>
<text text-anchor="middle" x="1341.5" y="-376.5" font-family="Helvetica" font-size="10.00">Fitters/MCMCProcessor.h</text>
</a>
</g>
</g>
<!-- Node1&#45;&gt;Node29 -->
<g id="edge38" class="edge">
<title>Node1&#45;&gt;Node29</title>
<path fill="none" stroke="midnightblue" d="M1160.33,-478.02C1183.05,-469.75 1213.09,-457.94 1238.5,-445 1272.98,-427.44 1310.8,-401.77 1329.56,-388.56"/>
<polygon fill="midnightblue" stroke="midnightblue" points="1159,-474.78 1150.77,-481.45 1161.36,-481.37 1159,-474.78"/>
</g>
<!-- Node31 -->
<g id="node31" class="node">
<title>Node31</title>
<g id="a_node31"><a xlink:href="OscProcessor_8h.html" target="_top" xlink:title=" ">
<polygon fill="white" stroke="black" points="1066,-308 1066,-327 1185,-327 1185,-308 1066,-308"/>
<text text-anchor="middle" x="1125.5" y="-315" font-family="Helvetica" font-size="10.00">Fitters/OscProcessor.h</text>
</a>
</g>
</g>
<!-- Node1&#45;&gt;Node31 -->
<g id="edge58" class="edge">
<title>Node1&#45;&gt;Node31</title>
<path fill="none" stroke="midnightblue" d="M1113.26,-472.83C1108.25,-464.79 1103.05,-454.82 1100.5,-445 1089.16,-401.22 1111.28,-347.77 1121.12,-327.17"/>
<polygon fill="midnightblue" stroke="midnightblue" points="1110.42,-474.89 1118.87,-481.27 1116.25,-471.01 1110.42,-474.89"/>
</g>
<!-- Node35 -->
<g id="node35" class="node">
<title>Node35</title>
<g id="a_node35"><a xlink:href="PlotMCMCDiag_8cpp.html" target="_top" xlink:title="KS: This script is used to analyse output form DiagMCMC.">
<polygon fill="white" stroke="black" points="1808.5,-308 1808.5,-327 1966.5,-327 1966.5,-308 1808.5,-308"/>
<text text-anchor="middle" x="1887.5" y="-315" font-family="Helvetica" font-size="10.00">Diagnostics/PlotMCMCDiag.cpp</text>
</a>
</g>
</g>
<!-- Node1&#45;&gt;Node35 -->
<g id="edge63" class="edge">
<title>Node1&#45;&gt;Node35</title>
<path fill="none" stroke="midnightblue" d="M1173.31,-479.24C1313.66,-447.65 1722.58,-355.62 1849.48,-327.06"/>
<polygon fill="midnightblue" stroke="midnightblue" points="1172.28,-475.88 1163.29,-481.5 1173.81,-482.71 1172.28,-475.88"/>
</g>
<!-- Node46 -->
<g id="node46" class="node">
<title>Node46</title>
<g id="a_node46"><a xlink:href="StatisticalUtils_8h.html" target="_top" xlink:title="Utility functions for statistical interpretations in MaCh3.">
<polygon fill="white" stroke="black" points="1109.5,-425.5 1109.5,-444.5 1229.5,-444.5 1229.5,-425.5 1109.5,-425.5"/>
<text text-anchor="middle" x="1169.5" y="-432.5" font-family="Helvetica" font-size="10.00">Fitters/StatisticalUtils.h</text>
</a>
</g>
</g>
<!-- Node1&#45;&gt;Node46 -->
<g id="edge59" class="edge">
<title>Node1&#45;&gt;Node46</title>
<path fill="none" stroke="midnightblue" d="M1139.23,-473.14C1146.9,-463.74 1156.13,-452.4 1162.37,-444.75"/>
<polygon fill="midnightblue" stroke="midnightblue" points="1136.37,-471.12 1132.77,-481.08 1141.8,-475.54 1136.37,-471.12"/>
</g>
<!-- Node4 -->
<g id="node4" class="node">
<title>Node4</title>
<g id="a_node4"><a xlink:href="SampleHandlerBase_8cpp.html" target="_top" xlink:title=" ">
<polygon fill="white" stroke="black" points="92.5,-308 92.5,-327 258.5,-327 258.5,-308 92.5,-308"/>
<text text-anchor="middle" x="175.5" y="-315" font-family="Helvetica" font-size="10.00">Samples/SampleHandlerBase.cpp</text>
</a>
</g>
</g>
<!-- Node3&#45;&gt;Node4 -->
<g id="edge3" class="edge">
<title>Node3&#45;&gt;Node4</title>
<path fill="none" stroke="midnightblue" d="M577.84,-369.2C497.1,-360.83 374.06,-347.41 267.5,-333 254.36,-331.22 240.2,-329.1 227.02,-327.03"/>
<polygon fill="midnightblue" stroke="midnightblue" points="577.65,-372.7 587.96,-370.25 578.37,-365.74 577.65,-372.7"/>
</g>
<!-- Node5 -->
<g id="node5" class="node">
<title>Node5</title>
<g id="a_node5"><a xlink:href="SampleHandlerFD_8h.html" target="_top" xlink:title=" ">
<polygon fill="white" stroke="black" points="276.5,-308 276.5,-327 422.5,-327 422.5,-308 276.5,-308"/>
<text text-anchor="middle" x="349.5" y="-315" font-family="Helvetica" font-size="10.00">Samples/SampleHandlerFD.h</text>
</a>
</g>
</g>
<!-- Node3&#45;&gt;Node5 -->
<g id="edge4" class="edge">
<title>Node3&#45;&gt;Node5</title>
<path fill="none" stroke="midnightblue" d="M610.36,-367.62C549.16,-356.09 451.55,-337.72 394.69,-327.01"/>
<polygon fill="midnightblue" stroke="midnightblue" points="609.75,-371.06 620.22,-369.48 611.05,-364.19 609.75,-371.06"/>
</g>
<!-- Node10 -->
<g id="node10" class="node">
<title>Node10</title>
<g id="a_node10"><a xlink:href="FitterBase_8h.html" target="_top" xlink:title=" ">
<polygon fill="white" stroke="black" points="615,-308 615,-327 716,-327 716,-308 615,-308"/>
<text text-anchor="middle" x="665.5" y="-315" font-family="Helvetica" font-size="10.00">Fitters/FitterBase.h</text>
</a>
</g>
</g>
<!-- Node3&#45;&gt;Node10 -->
<g id="edge9" class="edge">
<title>Node3&#45;&gt;Node10</title>
<path fill="none" stroke="midnightblue" d="M665.5,-359.32C665.5,-348.5 665.5,-335.4 665.5,-327.01"/>
<polygon fill="midnightblue" stroke="midnightblue" points="662,-359.48 665.5,-369.48 669,-359.48 662,-359.48"/>
</g>
<!-- Node27 -->
<g id="node27" class="node">
<title>Node27</title>
<g id="a_node27"><a xlink:href="SampleSummary_8h.html" target="_top" xlink:title=" ">
<polygon fill="white" stroke="black" points="904,-308 904,-327 1035,-327 1035,-308 904,-308"/>
<text text-anchor="middle" x="969.5" y="-315" font-family="Helvetica" font-size="10.00">Fitters/SampleSummary.h</text>
</a>
</g>
</g>
<!-- Node3&#45;&gt;Node27 -->
<g id="edge36" class="edge">
<title>Node3&#45;&gt;Node27</title>
<path fill="none" stroke="midnightblue" d="M718.91,-367.55C777.81,-356.02 871.43,-337.69 926.03,-327.01"/>
<polygon fill="midnightblue" stroke="midnightblue" points="718.2,-364.12 709.06,-369.48 719.54,-370.99 718.2,-364.12"/>
</g>
<!-- Node6 -->
<g id="node6" class="node">
<title>Node6</title>
<g id="a_node6"><a xlink:href="SampleHandlerFD_8cpp.html" target="_top" xlink:title=" ">
<polygon fill="white" stroke="black" points="0,-241 0,-260 157,-260 157,-241 0,-241"/>
<text text-anchor="middle" x="78.5" y="-248" font-family="Helvetica" font-size="10.00">Samples/SampleHandlerFD.cpp</text>
</a>
</g>
</g>
<!-- Node5&#45;&gt;Node6 -->
<g id="edge5" class="edge">
<title>Node5&#45;&gt;Node6</title>
<path fill="none" stroke="midnightblue" d="M303.91,-305.56C250.48,-292.75 163.07,-271.78 114.29,-260.08"/>
<polygon fill="midnightblue" stroke="midnightblue" points="303.25,-309.01 313.79,-307.94 304.88,-302.2 303.25,-309.01"/>
</g>
<!-- Node7 -->
<g id="node7" class="node">
<title>Node7</title>
<g id="a_node7"><a xlink:href="FitterBase_8cpp.html" target="_top" xlink:title=" ">
<polygon fill="white" stroke="black" points="335.5,-241 335.5,-260 447.5,-260 447.5,-241 335.5,-241"/>
<text text-anchor="middle" x="391.5" y="-248" font-family="Helvetica" font-size="10.00">Fitters/FitterBase.cpp</text>
</a>
</g>
</g>
<!-- Node5&#45;&gt;Node7 -->
<g id="edge6" class="edge">
<title>Node5&#45;&gt;Node7</title>
<path fill="none" stroke="midnightblue" d="M360.79,-299.03C368.92,-286.45 379.54,-270.01 385.93,-260.13"/>
<polygon fill="midnightblue" stroke="midnightblue" points="357.65,-297.44 355.16,-307.73 363.53,-301.23 357.65,-297.44"/>
</g>
<!-- Node8 -->
<g id="node8" class="node">
<title>Node8</title>
<g id="a_node8"><a xlink:href="PredictiveThrower_8cpp.html" target="_top" xlink:title=" ">
<polygon fill="white" stroke="black" points="293.5,-174 293.5,-193 437.5,-193 437.5,-174 293.5,-174"/>
<text text-anchor="middle" x="365.5" y="-181" font-family="Helvetica" font-size="10.00">Fitters/PredictiveThrower.cpp</text>
</a>
</g>
</g>
<!-- Node5&#45;&gt;Node8 -->
<g id="edge7" class="edge">
<title>Node5&#45;&gt;Node8</title>
<path fill="none" stroke="midnightblue" d="M338.52,-299.21C329.41,-282.6 319.04,-256.87 326.5,-235 332.29,-218.02 346.37,-202.3 355.93,-193.06"/>
<polygon fill="midnightblue" stroke="midnightblue" points="335.51,-301 343.6,-307.84 341.55,-297.45 335.51,-301"/>
</g>
<!-- Node9 -->
<g id="node9" class="node">
<title>Node9</title>
<g id="a_node9"><a xlink:href="samples_8cpp.html" target="_top" xlink:title=" ">
<polygon fill="white" stroke="black" points="175.5,-241 175.5,-260 279.5,-260 279.5,-241 175.5,-241"/>
<text text-anchor="middle" x="227.5" y="-248" font-family="Helvetica" font-size="10.00">python/samples.cpp</text>
</a>
</g>
</g>
<!-- Node5&#45;&gt;Node9 -->
<g id="edge8" class="edge">
<title>Node5&#45;&gt;Node9</title>
<path fill="none" stroke="midnightblue" d="M324.36,-303.1C300.19,-290.23 264.4,-271.16 243.77,-260.17"/>
<polygon fill="midnightblue" stroke="midnightblue" points="322.83,-306.26 333.3,-307.87 326.12,-300.08 322.83,-306.26"/>
</g>
<!-- Node10&#45;&gt;Node7 -->
<g id="edge10" class="edge">
<title>Node10&#45;&gt;Node7</title>
<path fill="none" stroke="midnightblue" d="M619.4,-305.56C565.38,-292.75 477.01,-271.78 427.68,-260.08"/>
<polygon fill="midnightblue" stroke="midnightblue" points="618.86,-309.03 629.4,-307.94 620.48,-302.22 618.86,-309.03"/>
</g>
<!-- Node11 -->
<g id="node11" class="node">
<title>Node11</title>
<g id="a_node11"><a xlink:href="LikelihoodFit_8h.html" target="_top" xlink:title=" ">
<polygon fill="white" stroke="black" points="505.5,-174 505.5,-193 615.5,-193 615.5,-174 505.5,-174"/>
<text text-anchor="middle" x="560.5" y="-181" font-family="Helvetica" font-size="10.00">Fitters/LikelihoodFit.h</text>
</a>
</g>
</g>
<!-- Node10&#45;&gt;Node11 -->
<g id="edge11" class="edge">
<title>Node10&#45;&gt;Node11</title>
<path fill="none" stroke="midnightblue" d="M654.25,-298.83C643.24,-281.94 625.67,-256.01 608.5,-235 595.79,-219.45 579.38,-202.83 569.42,-193.07"/>
<polygon fill="midnightblue" stroke="midnightblue" points="651.56,-301.12 659.92,-307.62 657.44,-297.32 651.56,-301.12"/>
</g>
<!-- Node13 -->
<g id="node13" class="node">
<title>Node13</title>
<g id="a_node13"><a xlink:href="MaCh3Factory_8h.html" target="_top" xlink:title="Factory methods for MaCh3 software which streamline initialisation of different objects.">
<polygon fill="white" stroke="black" points="843,-56.5 843,-75.5 964,-75.5 964,-56.5 843,-56.5"/>
<text text-anchor="middle" x="903.5" y="-63.5" font-family="Helvetica" font-size="10.00">Fitters/MaCh3Factory.h</text>
</a>
</g>
</g>
<!-- Node10&#45;&gt;Node13 -->
<g id="edge22" class="edge">
<title>Node10&#45;&gt;Node13</title>
<path fill="none" stroke="midnightblue" d="M706.5,-305.17C737.94,-295.98 782.15,-281.96 819.5,-266 846.38,-254.51 851.61,-248.57 877.5,-235 908.48,-218.75 920.69,-221.47 947.5,-199 981.85,-170.21 1022.47,-149.87 998.5,-112 986.59,-93.19 964.46,-82.08 944.55,-75.62"/>
<polygon fill="midnightblue" stroke="midnightblue" points="705.4,-301.85 696.76,-307.98 707.34,-308.57 705.4,-301.85"/>
</g>
<!-- Node17 -->
<g id="node17" class="node">
<title>Node17</title>
<g id="a_node17"><a xlink:href="fitters_8cpp.html" target="_top" xlink:title=" ">
<polygon fill="white" stroke="black" points="579,-56.5 579,-75.5 672,-75.5 672,-56.5 579,-56.5"/>
<text text-anchor="middle" x="625.5" y="-63.5" font-family="Helvetica" font-size="10.00">python/fitters.cpp</text>
</a>
</g>
</g>
<!-- Node10&#45;&gt;Node17 -->
<g id="edge35" class="edge">
<title>Node10&#45;&gt;Node17</title>
<path fill="none" stroke="midnightblue" d="M662.51,-297.84C654.46,-247.64 632.57,-111.1 626.87,-75.55"/>
<polygon fill="midnightblue" stroke="midnightblue" points="659.08,-298.59 664.12,-307.91 666,-297.48 659.08,-298.59"/>
</g>
<!-- Node20 -->
<g id="node20" class="node">
<title>Node20</title>
<g id="a_node20"><a xlink:href="MCMCBase_8h.html" target="_top" xlink:title=" ">
<polygon fill="white" stroke="black" points="700.5,-241 700.5,-260 810.5,-260 810.5,-241 700.5,-241"/>
<text text-anchor="middle" x="755.5" y="-248" font-family="Helvetica" font-size="10.00">Fitters/MCMCBase.h</text>
</a>
</g>
</g>
<!-- Node10&#45;&gt;Node20 -->
<g id="edge23" class="edge">
<title>Node10&#45;&gt;Node20</title>
<path fill="none" stroke="midnightblue" d="M686.18,-301.57C703.94,-288.74 728.94,-270.69 743.55,-260.13"/>
<polygon fill="midnightblue" stroke="midnightblue" points="683.7,-299.04 677.64,-307.73 687.79,-304.72 683.7,-299.04"/>
</g>
<!-- Node26 -->
<g id="node26" class="node">
<title>Node26</title>
<g id="a_node26"><a xlink:href="PredictiveThrower_8h.html" target="_top" xlink:title=" ">
<polygon fill="white" stroke="black" points="465.5,-241 465.5,-260 599.5,-260 599.5,-241 465.5,-241"/>
<text text-anchor="middle" x="532.5" y="-248" font-family="Helvetica" font-size="10.00">Fitters/PredictiveThrower.h</text>
</a>
</g>
</g>
<!-- Node10&#45;&gt;Node26 -->
<g id="edge33" class="edge">
<title>Node10&#45;&gt;Node26</title>
<path fill="none" stroke="midnightblue" d="M638.78,-303.44C612.44,-290.57 572.93,-271.26 550.23,-260.17"/>
<polygon fill="midnightblue" stroke="midnightblue" points="637.32,-306.62 647.84,-307.87 640.39,-300.33 637.32,-306.62"/>
</g>
<!-- Node12 -->
<g id="node12" class="node">
<title>Node12</title>
<g id="a_node12"><a xlink:href="LikelihoodFit_8cpp.html" target="_top" xlink:title=" ">
<polygon fill="white" stroke="black" points="383.5,-112.5 383.5,-131.5 503.5,-131.5 503.5,-112.5 383.5,-112.5"/>
<text text-anchor="middle" x="443.5" y="-119.5" font-family="Helvetica" font-size="10.00">Fitters/LikelihoodFit.cpp</text>
</a>
</g>
</g>
<!-- Node11&#45;&gt;Node12 -->
<g id="edge12" class="edge">
<title>Node11&#45;&gt;Node12</title>
<path fill="none" stroke="midnightblue" d="M534.67,-169.37C512,-157.83 479.68,-141.4 460.23,-131.51"/>
<polygon fill="midnightblue" stroke="midnightblue" points="533.24,-172.56 543.74,-173.98 536.41,-166.32 533.24,-172.56"/>
</g>
<!-- Node11&#45;&gt;Node13 -->
<g id="edge13" class="edge">
<title>Node11&#45;&gt;Node13</title>
<path fill="none" stroke="midnightblue" d="M625.58,-174.01C692.51,-164.6 791.73,-148.55 826.5,-132 855.88,-118.01 883.21,-90.04 895.97,-75.78"/>
<polygon fill="midnightblue" stroke="midnightblue" points="624.97,-170.57 615.54,-175.41 625.93,-177.5 624.97,-170.57"/>
</g>
<!-- Node15 -->
<g id="node15" class="node">
<title>Node15</title>
<g id="a_node15"><a xlink:href="MinuitFit_8h.html" target="_top" xlink:title=" ">
<polygon fill="white" stroke="black" points="272,-112.5 272,-131.5 365,-131.5 365,-112.5 272,-112.5"/>
<text text-anchor="middle" x="318.5" y="-119.5" font-family="Helvetica" font-size="10.00">Fitters/MinuitFit.h</text>
</a>
</g>
</g>
<!-- Node11&#45;&gt;Node15 -->
<g id="edge15" class="edge">
<title>Node11&#45;&gt;Node15</title>
<path fill="none" stroke="midnightblue" d="M515.93,-171.54C468.95,-159.99 395.94,-142.04 353.11,-131.51"/>
<polygon fill="midnightblue" stroke="midnightblue" points="515.28,-174.99 525.83,-173.98 516.95,-168.19 515.28,-174.99"/>
</g>
<!-- Node18 -->
<g id="node18" class="node">
<title>Node18</title>
<g id="a_node18"><a xlink:href="PSO_8h.html" target="_top" xlink:title=" ">
<polygon fill="white" stroke="black" points="522,-112.5 522,-131.5 599,-131.5 599,-112.5 522,-112.5"/>
<text text-anchor="middle" x="560.5" y="-119.5" font-family="Helvetica" font-size="10.00">Fitters/PSO.h</text>
</a>
</g>
</g>
<!-- Node11&#45;&gt;Node18 -->
<g id="edge18" class="edge">
<title>Node11&#45;&gt;Node18</title>
<path fill="none" stroke="midnightblue" d="M560.5,-163.82C560.5,-153 560.5,-139.9 560.5,-131.51"/>
<polygon fill="midnightblue" stroke="midnightblue" points="557,-163.98 560.5,-173.98 564,-163.98 557,-163.98"/>
</g>
<!-- Node14 -->
<g id="node14" class="node">
<title>Node14</title>
<g id="a_node14"><a xlink:href="MaCh3Factory_8cpp.html" target="_top" xlink:title=" ">
<polygon fill="white" stroke="black" points="838,-0.5 838,-19.5 969,-19.5 969,-0.5 838,-0.5"/>
<text text-anchor="middle" x="903.5" y="-7.5" font-family="Helvetica" font-size="10.00">Fitters/MaCh3Factory.cpp</text>
</a>
</g>
</g>
<!-- Node13&#45;&gt;Node14 -->
<g id="edge14" class="edge">
<title>Node13&#45;&gt;Node14</title>
<path fill="none" stroke="midnightblue" d="M903.5,-45.8C903.5,-36.91 903.5,-26.78 903.5,-19.75"/>
<polygon fill="midnightblue" stroke="midnightblue" points="900,-46.08 903.5,-56.08 907,-46.08 900,-46.08"/>
</g>
<!-- Node16 -->
<g id="node16" class="node">
<title>Node16</title>
<g id="a_node16"><a xlink:href="MinuitFit_8cpp.html" target="_top" xlink:title=" ">
<polygon fill="white" stroke="black" points="266.5,-56.5 266.5,-75.5 370.5,-75.5 370.5,-56.5 266.5,-56.5"/>
<text text-anchor="middle" x="318.5" y="-63.5" font-family="Helvetica" font-size="10.00">Fitters/MinuitFit.cpp</text>
</a>
</g>
</g>
<!-- Node15&#45;&gt;Node16 -->
<g id="edge16" class="edge">
<title>Node15&#45;&gt;Node16</title>
<path fill="none" stroke="midnightblue" d="M318.5,-101.8C318.5,-92.91 318.5,-82.78 318.5,-75.75"/>
<polygon fill="midnightblue" stroke="midnightblue" points="315,-102.08 318.5,-112.08 322,-102.08 315,-102.08"/>
</g>
<!-- Node15&#45;&gt;Node17 -->
<g id="edge17" class="edge">
<title>Node15&#45;&gt;Node17</title>
<path fill="none" stroke="midnightblue" d="M375.33,-111C433.98,-100.69 524.37,-84.79 578.94,-75.19"/>
<polygon fill="midnightblue" stroke="midnightblue" points="374.37,-107.62 365.13,-112.8 375.58,-114.51 374.37,-107.62"/>
</g>
<!-- Node18&#45;&gt;Node13 -->
<g id="edge19" class="edge">
<title>Node18&#45;&gt;Node13</title>
<path fill="none" stroke="midnightblue" d="M609.34,-113.31C672.87,-103.31 783.52,-85.89 849.5,-75.5"/>
<polygon fill="midnightblue" stroke="midnightblue" points="608.51,-109.9 599.18,-114.91 609.6,-116.81 608.51,-109.9"/>
</g>
<!-- Node18&#45;&gt;Node17 -->
<g id="edge21" class="edge">
<title>Node18&#45;&gt;Node17</title>
<path fill="none" stroke="midnightblue" d="M578.77,-105.82C590.42,-96.15 605.1,-83.95 614.87,-75.83"/>
<polygon fill="midnightblue" stroke="midnightblue" points="576.4,-103.24 570.94,-112.32 580.87,-108.63 576.4,-103.24"/>
</g>
<!-- Node19 -->
<g id="node19" class="node">
<title>Node19</title>
<g id="a_node19"><a xlink:href="PSO_8cpp.html" target="_top" xlink:title=" ">
<polygon fill="white" stroke="black" points="472.5,-56.5 472.5,-75.5 560.5,-75.5 560.5,-56.5 472.5,-56.5"/>
<text text-anchor="middle" x="516.5" y="-63.5" font-family="Helvetica" font-size="10.00">Fitters/PSO.cpp</text>
</a>
</g>
</g>
<!-- Node18&#45;&gt;Node19 -->
<g id="edge20" class="edge">
<title>Node18&#45;&gt;Node19</title>
<path fill="none" stroke="midnightblue" d="M546.77,-104.14C539.1,-94.74 529.87,-83.4 523.63,-75.75"/>
<polygon fill="midnightblue" stroke="midnightblue" points="544.2,-106.54 553.23,-112.08 549.63,-102.12 544.2,-106.54"/>
</g>
<!-- Node21 -->
<g id="node21" class="node">
<title>Node21</title>
<g id="a_node21"><a xlink:href="MCMCBase_8cpp.html" target="_top" xlink:title=" ">
<polygon fill="white" stroke="black" points="818,-174 818,-193 939,-193 939,-174 818,-174"/>
<text text-anchor="middle" x="878.5" y="-181" font-family="Helvetica" font-size="10.00">Fitters/MCMCBase.cpp</text>
</a>
</g>
</g>
<!-- Node20&#45;&gt;Node21 -->
<g id="edge24" class="edge">
<title>Node20&#45;&gt;Node21</title>
<path fill="none" stroke="midnightblue" d="M780.85,-236.1C805.21,-223.23 841.3,-204.16 862.1,-193.17"/>
<polygon fill="midnightblue" stroke="midnightblue" points="779.04,-233.1 771.83,-240.87 782.31,-239.29 779.04,-233.1"/>
</g>
<!-- Node22 -->
<g id="node22" class="node">
<title>Node22</title>
<g id="a_node22"><a xlink:href="MR2T2_8h.html" target="_top" xlink:title=" ">
<polygon fill="white" stroke="black" points="711,-174 711,-193 800,-193 800,-174 711,-174"/>
<text text-anchor="middle" x="755.5" y="-181" font-family="Helvetica" font-size="10.00">Fitters/MR2T2.h</text>
</a>
</g>
</g>
<!-- Node20&#45;&gt;Node22 -->
<g id="edge25" class="edge">
<title>Node20&#45;&gt;Node22</title>
<path fill="none" stroke="midnightblue" d="M755.5,-230.54C755.5,-218.17 755.5,-202.62 755.5,-193.13"/>
<polygon fill="midnightblue" stroke="midnightblue" points="752,-230.73 755.5,-240.73 759,-230.73 752,-230.73"/>
</g>
<!-- Node22&#45;&gt;Node13 -->
<g id="edge30" class="edge">
<title>Node22&#45;&gt;Node13</title>
<path fill="none" stroke="midnightblue" d="M795.13,-171.37C799.63,-170.19 804.16,-169.04 808.5,-168 884.86,-149.63 931.95,-192.93 981.5,-132 1000.8,-108.27 958.11,-86.85 928.59,-75.51"/>
<polygon fill="midnightblue" stroke="midnightblue" points="794.16,-168.01 785.41,-173.97 795.97,-174.77 794.16,-168.01"/>
</g>
<!-- Node22&#45;&gt;Node17 -->
<g id="edge32" class="edge">
<title>Node22&#45;&gt;Node17</title>
<path fill="none" stroke="midnightblue" d="M732.73,-168.13C718.32,-158.61 699.63,-145.43 684.5,-132 663.76,-113.59 642.69,-88.5 632.24,-75.54"/>
<polygon fill="midnightblue" stroke="midnightblue" points="731.21,-171.32 741.5,-173.83 735.02,-165.45 731.21,-171.32"/>
</g>
<!-- Node23 -->
<g id="node23" class="node">
<title>Node23</title>
<g id="a_node23"><a xlink:href="DelayedMR2T2_8h.html" target="_top" xlink:title=" ">
<polygon fill="white" stroke="black" points="693.5,-112.5 693.5,-131.5 817.5,-131.5 817.5,-112.5 693.5,-112.5"/>
<text text-anchor="middle" x="755.5" y="-119.5" font-family="Helvetica" font-size="10.00">Fitters/DelayedMR2T2.h</text>
</a>
</g>
</g>
<!-- Node22&#45;&gt;Node23 -->
<g id="edge26" class="edge">
<title>Node22&#45;&gt;Node23</title>
<path fill="none" stroke="midnightblue" d="M755.5,-163.82C755.5,-153 755.5,-139.9 755.5,-131.51"/>
<polygon fill="midnightblue" stroke="midnightblue" points="752,-163.98 755.5,-173.98 759,-163.98 752,-163.98"/>
</g>
<!-- Node25 -->
<g id="node25" class="node">
<title>Node25</title>
<g id="a_node25"><a xlink:href="MR2T2_8cpp.html" target="_top" xlink:title=" ">
<polygon fill="white" stroke="black" points="874,-112.5 874,-131.5 973,-131.5 973,-112.5 874,-112.5"/>
<text text-anchor="middle" x="923.5" y="-119.5" font-family="Helvetica" font-size="10.00">Fitters/MR2T2.cpp</text>
</a>
</g>
</g>
<!-- Node22&#45;&gt;Node25 -->
<g id="edge31" class="edge">
<title>Node22&#45;&gt;Node25</title>
<path fill="none" stroke="midnightblue" d="M789.15,-170.58C821.8,-159.02 870.55,-141.75 899.47,-131.51"/>
<polygon fill="midnightblue" stroke="midnightblue" points="787.83,-167.34 779.57,-173.98 790.17,-173.94 787.83,-167.34"/>
</g>
<!-- Node23&#45;&gt;Node13 -->
<g id="edge28" class="edge">
<title>Node23&#45;&gt;Node13</title>
<path fill="none" stroke="midnightblue" d="M788.65,-108.91C816.47,-98.75 855.52,-84.51 880.16,-75.52"/>
<polygon fill="midnightblue" stroke="midnightblue" points="787.15,-105.73 778.95,-112.44 789.54,-112.3 787.15,-105.73"/>
</g>
<!-- Node23&#45;&gt;Node17 -->
<g id="edge29" class="edge">
<title>Node23&#45;&gt;Node17</title>
<path fill="none" stroke="midnightblue" d="M725.41,-108.5C701.04,-98.38 667.36,-84.39 646,-75.52"/>
<polygon fill="midnightblue" stroke="midnightblue" points="724.32,-111.84 734.9,-112.44 727.01,-105.38 724.32,-111.84"/>
</g>
<!-- Node24 -->
<g id="node24" class="node">
<title>Node24</title>
<g id="a_node24"><a xlink:href="DelayedMR2T2_8cpp.html" target="_top" xlink:title=" ">
<polygon fill="white" stroke="black" points="690.5,-56.5 690.5,-75.5 824.5,-75.5 824.5,-56.5 690.5,-56.5"/>
<text text-anchor="middle" x="757.5" y="-63.5" font-family="Helvetica" font-size="10.00">Fitters/DelayedMR2T2.cpp</text>
</a>
</g>
</g>
<!-- Node23&#45;&gt;Node24 -->
<g id="edge27" class="edge">
<title>Node23&#45;&gt;Node24</title>
<path fill="none" stroke="midnightblue" d="M756.21,-101.8C756.54,-92.91 756.92,-82.78 757.18,-75.75"/>
<polygon fill="midnightblue" stroke="midnightblue" points="752.7,-101.96 755.83,-112.08 759.7,-102.22 752.7,-101.96"/>
</g>
<!-- Node26&#45;&gt;Node8 -->
<g id="edge34" class="edge">
<title>Node26&#45;&gt;Node8</title>
<path fill="none" stroke="midnightblue" d="M500.65,-237.1C467.49,-224.2 416.44,-204.33 387.5,-193.06"/>
<polygon fill="midnightblue" stroke="midnightblue" points="499.74,-240.5 510.32,-240.87 502.27,-233.98 499.74,-240.5"/>
</g>
<!-- Node28 -->
<g id="node28" class="node">
<title>Node28</title>
<g id="a_node28"><a xlink:href="SampleSummary_8cpp.html" target="_top" xlink:title=" ">
<polygon fill="white" stroke="black" points="886.5,-241 886.5,-260 1028.5,-260 1028.5,-241 886.5,-241"/>
<text text-anchor="middle" x="957.5" y="-248" font-family="Helvetica" font-size="10.00">Fitters/SampleSummary.cpp</text>
</a>
</g>
</g>
<!-- Node27&#45;&gt;Node28 -->
<g id="edge37" class="edge">
<title>Node27&#45;&gt;Node28</title>
<path fill="none" stroke="midnightblue" d="M966,-297.54C963.72,-285.17 960.85,-269.62 959.09,-260.13"/>
<polygon fill="midnightblue" stroke="midnightblue" points="962.62,-298.54 967.88,-307.73 969.51,-297.26 962.62,-298.54"/>
</g>
<!-- Node29&#45;&gt;Node10 -->
<g id="edge39" class="edge">
<title>Node29&#45;&gt;Node10</title>
<path fill="none" stroke="midnightblue" d="M1265.19,-369C1054.62,-347.83 817.86,-329.7 716.12,-322.18"/>
<polygon fill="midnightblue" stroke="midnightblue" points="1264.89,-372.49 1275.2,-370.01 1265.6,-365.53 1264.89,-372.49"/>
</g>
<!-- Node29&#45;&gt;Node27 -->
<g id="edge44" class="edge">
<title>Node29&#45;&gt;Node27</title>
<path fill="none" stroke="midnightblue" d="M1276.49,-367.9C1218.71,-358.88 1131.95,-345.24 1056.5,-333 1044.71,-331.09 1032.03,-328.99 1020.09,-327.01"/>
<polygon fill="midnightblue" stroke="midnightblue" points="1276.16,-371.39 1286.58,-369.47 1277.23,-364.47 1276.16,-371.39"/>
</g>
<!-- Node30 -->
<g id="node30" class="node">
<title>Node30</title>
<g id="a_node30"><a xlink:href="MCMCProcessor_8cpp.html" target="_top" xlink:title=" ">
<polygon fill="white" stroke="black" points="1488,-308 1488,-327 1631,-327 1631,-308 1488,-308"/>
<text text-anchor="middle" x="1559.5" y="-315" font-family="Helvetica" font-size="10.00">Fitters/MCMCProcessor.cpp</text>
</a>
</g>
</g>
<!-- Node29&#45;&gt;Node30 -->
<g id="edge40" class="edge">
<title>Node29&#45;&gt;Node30</title>
<path fill="none" stroke="midnightblue" d="M1382.45,-366.82C1424.8,-355.26 1489.98,-337.47 1528.32,-327.01"/>
<polygon fill="midnightblue" stroke="midnightblue" points="1381.46,-363.47 1372.73,-369.48 1383.3,-370.22 1381.46,-363.47"/>
</g>
<!-- Node29&#45;&gt;Node31 -->
<g id="edge41" class="edge">
<title>Node29&#45;&gt;Node31</title>
<path fill="none" stroke="midnightblue" d="M1300.66,-366.75C1258.69,-355.19 1194.3,-337.45 1156.39,-327.01"/>
<polygon fill="midnightblue" stroke="midnightblue" points="1299.98,-370.19 1310.55,-369.48 1301.84,-363.44 1299.98,-370.19"/>
</g>
<!-- Node34 -->
<g id="node34" class="node">
<title>Node34</title>
<g id="a_node34"><a xlink:href="DiagMCMC_8cpp.html" target="_top" xlink:title=" ">
<polygon fill="white" stroke="black" points="1649,-308 1649,-327 1790,-327 1790,-308 1649,-308"/>
<text text-anchor="middle" x="1719.5" y="-315" font-family="Helvetica" font-size="10.00">Diagnostics/DiagMCMC.cpp</text>
</a>
</g>
</g>
<!-- Node29&#45;&gt;Node34 -->
<g id="edge45" class="edge">
<title>Node29&#45;&gt;Node34</title>
<path fill="none" stroke="midnightblue" d="M1411.7,-367.99C1472.15,-359.24 1561.68,-345.93 1639.5,-333 1650.64,-331.15 1662.63,-329.04 1673.85,-327.01"/>
<polygon fill="midnightblue" stroke="midnightblue" points="1410.91,-364.57 1401.51,-369.47 1411.91,-371.5 1410.91,-364.57"/>
</g>
<!-- Node29&#45;&gt;Node35 -->
<g id="edge46" class="edge">
<title>Node29&#45;&gt;Node35</title>
<path fill="none" stroke="midnightblue" d="M1418.09,-371.95C1509,-364.42 1665.1,-350.42 1798.5,-333 1811.54,-331.3 1825.6,-329.15 1838.62,-327.04"/>
<polygon fill="midnightblue" stroke="midnightblue" points="1417.55,-368.48 1407.87,-372.79 1418.12,-375.46 1417.55,-368.48"/>
</g>
<!-- Node36 -->
<g id="node36" class="node">
<title>Node36</title>
<g id="a_node36"><a xlink:href="SmearChain_8cpp.html" target="_top" xlink:title=" ">
<polygon fill="white" stroke="black" points="1203.5,-308 1203.5,-327 1347.5,-327 1347.5,-308 1203.5,-308"/>
<text text-anchor="middle" x="1275.5" y="-315" font-family="Helvetica" font-size="10.00">Diagnostics/SmearChain.cpp</text>
</a>
</g>
</g>
<!-- Node29&#45;&gt;Node36 -->
<g id="edge47" class="edge">
<title>Node29&#45;&gt;Node36</title>
<path fill="none" stroke="midnightblue" d="M1324.47,-362.65C1311.89,-351.31 1295.22,-336.28 1284.94,-327.01"/>
<polygon fill="midnightblue" stroke="midnightblue" points="1322.27,-365.38 1332.04,-369.48 1326.96,-360.18 1322.27,-365.38"/>
</g>
<!-- Node37 -->
<g id="node37" class="node">
<title>Node37</title>
<g id="a_node37"><a xlink:href="inputManager_8h.html" target="_top" xlink:title=" ">
<polygon fill="white" stroke="black" points="1365.5,-302.5 1365.5,-332.5 1469.5,-332.5 1469.5,-302.5 1365.5,-302.5"/>
<text text-anchor="start" x="1373.5" y="-320.5" font-family="Helvetica" font-size="10.00">Plotting/plottingUtils</text>
<text text-anchor="middle" x="1417.5" y="-309.5" font-family="Helvetica" font-size="10.00">/inputManager.h</text>
</a>
</g>
</g>
<!-- Node29&#45;&gt;Node37 -->
<g id="edge48" class="edge">
<title>Node29&#45;&gt;Node37</title>
<path fill="none" stroke="midnightblue" d="M1360.41,-363.2C1372.39,-353.81 1387.8,-341.75 1399.59,-332.52"/>
<polygon fill="midnightblue" stroke="midnightblue" points="1358.11,-360.55 1352.39,-369.48 1362.42,-366.07 1358.11,-360.55"/>
</g>
<!-- Node32 -->
<g id="node32" class="node">
<title>Node32</title>
<g id="a_node32"><a xlink:href="OscProcessor_8cpp.html" target="_top" xlink:title=" ">
<polygon fill="white" stroke="black" points="1222,-241 1222,-260 1351,-260 1351,-241 1222,-241"/>
<text text-anchor="middle" x="1286.5" y="-248" font-family="Helvetica" font-size="10.00">Fitters/OscProcessor.cpp</text>
</a>
</g>
</g>
<!-- Node31&#45;&gt;Node32 -->
<g id="edge42" class="edge">
<title>Node31&#45;&gt;Node32</title>
<path fill="none" stroke="midnightblue" d="M1156.2,-304.1C1188.17,-291.2 1237.39,-271.33 1265.29,-260.06"/>
<polygon fill="midnightblue" stroke="midnightblue" points="1154.84,-300.88 1146.88,-307.87 1157.46,-307.37 1154.84,-300.88"/>
</g>
<!-- Node33 -->
<g id="node33" class="node">
<title>Node33</title>
<g id="a_node33"><a xlink:href="ProcessMCMC_8cpp.html" target="_top" xlink:title="Main exectable responsible for different types of MCMC processing like drawing posteriors,...">
<polygon fill="white" stroke="black" points="1047,-241 1047,-260 1204,-260 1204,-241 1047,-241"/>
<text text-anchor="middle" x="1125.5" y="-248" font-family="Helvetica" font-size="10.00">Diagnostics/ProcessMCMC.cpp</text>
</a>
</g>
</g>
<!-- Node31&#45;&gt;Node33 -->
<g id="edge43" class="edge">
<title>Node31&#45;&gt;Node33</title>
<path fill="none" stroke="midnightblue" d="M1125.5,-297.54C1125.5,-285.17 1125.5,-269.62 1125.5,-260.13"/>
<polygon fill="midnightblue" stroke="midnightblue" points="1122,-297.73 1125.5,-307.73 1129,-297.73 1122,-297.73"/>
</g>
<!-- Node38 -->
<g id="node38" class="node">
<title>Node38</title>
<g id="a_node38"><a xlink:href="inputManager_8cpp.html" target="_top" xlink:title=" ">
<polygon fill="white" stroke="black" points="1369.5,-235.5 1369.5,-265.5 1473.5,-265.5 1473.5,-235.5 1369.5,-235.5"/>
<text text-anchor="start" x="1377.5" y="-253.5" font-family="Helvetica" font-size="10.00">Plotting/plottingUtils</text>
<text text-anchor="middle" x="1421.5" y="-242.5" font-family="Helvetica" font-size="10.00">/inputManager.cpp</text>
</a>
</g>
</g>
<!-- Node37&#45;&gt;Node38 -->
<g id="edge49" class="edge">
<title>Node37&#45;&gt;Node38</title>
<path fill="none" stroke="midnightblue" d="M1418.98,-292.4C1419.54,-283.37 1420.15,-273.41 1420.63,-265.58"/>
<polygon fill="midnightblue" stroke="midnightblue" points="1415.49,-292.2 1418.37,-302.4 1422.48,-292.63 1415.49,-292.2"/>
</g>
<!-- Node39 -->
<g id="node39" class="node">
<title>Node39</title>
<g id="a_node39"><a xlink:href="plottingManager_8h.html" target="_top" xlink:title=" ">
<polygon fill="white" stroke="black" points="1491.5,-235.5 1491.5,-265.5 1595.5,-265.5 1595.5,-235.5 1491.5,-235.5"/>
<text text-anchor="start" x="1499.5" y="-253.5" font-family="Helvetica" font-size="10.00">Plotting/plottingUtils</text>
<text text-anchor="middle" x="1543.5" y="-242.5" font-family="Helvetica" font-size="10.00">/plottingManager.h</text>
</a>
</g>
</g>
<!-- Node37&#45;&gt;Node39 -->
<g id="edge50" class="edge">
<title>Node37&#45;&gt;Node39</title>
<path fill="none" stroke="midnightblue" d="M1453.92,-297.71C1473.79,-287.46 1497.98,-274.98 1516.21,-265.58"/>
<polygon fill="midnightblue" stroke="midnightblue" points="1452.12,-294.7 1444.84,-302.4 1455.33,-300.92 1452.12,-294.7"/>
</g>
<!-- Node45 -->
<g id="node45" class="node">
<title>Node45</title>
<g id="a_node45"><a xlink:href="plotting_8cpp.html" target="_top" xlink:title=" ">
<polygon fill="white" stroke="black" points="1788,-174 1788,-193 1887,-193 1887,-174 1788,-174"/>
<text text-anchor="middle" x="1837.5" y="-181" font-family="Helvetica" font-size="10.00">python/plotting.cpp</text>
</a>
</g>
</g>
<!-- Node37&#45;&gt;Node45 -->
<g id="edge57" class="edge">
<title>Node37&#45;&gt;Node45</title>
<path fill="none" stroke="midnightblue" d="M1479.8,-300.89C1516.32,-291.43 1563.24,-278.77 1604.5,-266 1682.49,-241.86 1773.43,-208.52 1814.86,-193.04"/>
<polygon fill="midnightblue" stroke="midnightblue" points="1478.6,-297.58 1469.78,-303.47 1480.34,-304.36 1478.6,-297.58"/>
</g>
<!-- Node40 -->
<g id="node40" class="node">
<title>Node40</title>
<g id="a_node40"><a xlink:href="GetPostfitParamPlots_8cpp.html" target="_top" xlink:title=" ">
<polygon fill="white" stroke="black" points="1202,-168.5 1202,-198.5 1327,-198.5 1327,-168.5 1202,-168.5"/>
<text text-anchor="start" x="1210" y="-186.5" font-family="Helvetica" font-size="10.00">Plotting/GetPostfitParam</text>
<text text-anchor="middle" x="1264.5" y="-175.5" font-family="Helvetica" font-size="10.00">Plots.cpp</text>
</a>
</g>
</g>
<!-- Node39&#45;&gt;Node40 -->
<g id="edge51" class="edge">
<title>Node39&#45;&gt;Node40</title>
<path fill="none" stroke="midnightblue" d="M1481.51,-234.77C1423.24,-221.11 1367.01,-208.1 1325.6,-198.56"/>
<polygon fill="midnightblue" stroke="midnightblue" points="1480.73,-238.19 1491.26,-237.06 1482.32,-231.37 1480.73,-238.19"/>
</g>
<!-- Node41 -->
<g id="node41" class="node">
<title>Node41</title>
<g id="a_node41"><a xlink:href="MatrixPlotter_8cpp.html" target="_top" xlink:title=" ">
<polygon fill="white" stroke="black" points="1345,-174 1345,-193 1472,-193 1472,-174 1345,-174"/>
<text text-anchor="middle" x="1408.5" y="-181" font-family="Helvetica" font-size="10.00">Plotting/MatrixPlotter.cpp</text>
</a>
</g>
</g>
<!-- Node39&#45;&gt;Node41 -->
<g id="edge52" class="edge">
<title>Node39&#45;&gt;Node41</title>
<path fill="none" stroke="midnightblue" d="M1505.01,-230.97C1479.08,-218.48 1446.09,-202.6 1426.17,-193.01"/>
<polygon fill="midnightblue" stroke="midnightblue" points="1503.68,-234.21 1514.21,-235.4 1506.72,-227.9 1503.68,-234.21"/>
</g>
<!-- Node42 -->
<g id="node42" class="node">
<title>Node42</title>
<g id="a_node42"><a xlink:href="PlotLLH_8cpp.html" target="_top" xlink:title=" ">
<polygon fill="white" stroke="black" points="1490,-174 1490,-193 1597,-193 1597,-174 1490,-174"/>
<text text-anchor="middle" x="1543.5" y="-181" font-family="Helvetica" font-size="10.00">Plotting/PlotLLH.cpp</text>
</a>
</g>
</g>
<!-- Node39&#45;&gt;Node42 -->
<g id="edge53" class="edge">
<title>Node39&#45;&gt;Node42</title>
<path fill="none" stroke="midnightblue" d="M1543.5,-225.25C1543.5,-214.02 1543.5,-201.38 1543.5,-193.19"/>
<polygon fill="midnightblue" stroke="midnightblue" points="1540,-225.4 1543.5,-235.4 1547,-225.4 1540,-225.4"/>
</g>
<!-- Node43 -->
<g id="node43" class="node">
<title>Node43</title>
<g id="a_node43"><a xlink:href="PlotSigmaVariation_8cpp.html" target="_top" xlink:title=" ">
<polygon fill="white" stroke="black" points="1615.5,-174 1615.5,-193 1769.5,-193 1769.5,-174 1615.5,-174"/>
<text text-anchor="middle" x="1692.5" y="-181" font-family="Helvetica" font-size="10.00">Plotting/PlotSigmaVariation.cpp</text>
</a>
</g>
</g>
<!-- Node39&#45;&gt;Node43 -->
<g id="edge54" class="edge">
<title>Node39&#45;&gt;Node43</title>
<path fill="none" stroke="midnightblue" d="M1585.23,-231.3C1613.97,-218.76 1650.82,-202.68 1673,-193.01"/>
<polygon fill="midnightblue" stroke="midnightblue" points="1583.6,-228.19 1575.83,-235.4 1586.4,-234.61 1583.6,-228.19"/>
</g>
<!-- Node44 -->
<g id="node44" class="node">
<title>Node44</title>
<g id="a_node44"><a xlink:href="plottingManager_8cpp.html" target="_top" xlink:title=" ">
<polygon fill="white" stroke="black" points="1077,-168.5 1077,-198.5 1184,-198.5 1184,-168.5 1077,-168.5"/>
<text text-anchor="start" x="1085" y="-186.5" font-family="Helvetica" font-size="10.00">Plotting/plottingUtils</text>
<text text-anchor="middle" x="1130.5" y="-175.5" font-family="Helvetica" font-size="10.00">/plottingManager.cpp</text>
</a>
</g>
</g>
<!-- Node39&#45;&gt;Node44 -->
<g id="edge55" class="edge">
<title>Node39&#45;&gt;Node44</title>
<path fill="none" stroke="midnightblue" d="M1481.12,-234.88C1352.88,-212.43 1317.11,-221.24 1192.5,-199 1189.78,-198.51 1187,-197.99 1184.2,-197.43"/>
<polygon fill="midnightblue" stroke="midnightblue" points="1480.88,-238.39 1491.34,-236.7 1482.1,-231.5 1480.88,-238.39"/>
</g>
<!-- Node39&#45;&gt;Node45 -->
<g id="edge56" class="edge">
<title>Node39&#45;&gt;Node45</title>
<path fill="none" stroke="midnightblue" d="M1605.68,-236.66C1653.12,-226.73 1720.03,-212.46 1778.5,-199 1786.62,-197.13 1795.35,-195.03 1803.53,-193.03"/>
<polygon fill="midnightblue" stroke="midnightblue" points="1604.94,-233.24 1595.87,-238.71 1606.37,-240.09 1604.94,-233.24"/>
</g>
<!-- Node46&#45;&gt;Node27 -->
<g id="edge61" class="edge">
<title>Node46&#45;&gt;Node27</title>
<path fill="none" stroke="midnightblue" d="M1145.8,-420.31C1104.13,-396.25 1018.88,-347.02 984.43,-327.12"/>
<polygon fill="midnightblue" stroke="midnightblue" points="1144.06,-423.35 1154.47,-425.32 1147.56,-417.29 1144.06,-423.35"/>
</g>
<!-- Node46&#45;&gt;Node29 -->
<g id="edge60" class="edge">
<title>Node46&#45;&gt;Node29</title>
<path fill="none" stroke="midnightblue" d="M1206.33,-422.44C1238.76,-412.26 1285.24,-397.66 1314.37,-388.52"/>
<polygon fill="midnightblue" stroke="midnightblue" points="1205.25,-419.11 1196.75,-425.44 1207.34,-425.79 1205.25,-419.11"/>
</g>
<!-- Node47 -->
<g id="node47" class="node">
<title>Node47</title>
<g id="a_node47"><a xlink:href="StatisticalUtils_8cpp.html" target="_top" xlink:title=" ">
<polygon fill="white" stroke="black" points="1126,-369.5 1126,-388.5 1257,-388.5 1257,-369.5 1126,-369.5"/>
<text text-anchor="middle" x="1191.5" y="-376.5" font-family="Helvetica" font-size="10.00">Fitters/StatisticalUtils.cpp</text>
</a>
</g>
</g>
<!-- Node46&#45;&gt;Node47 -->
<g id="edge62" class="edge">
<title>Node46&#45;&gt;Node47</title>
<path fill="none" stroke="midnightblue" d="M1176.96,-415.69C1180.67,-406.59 1184.98,-396.01 1187.93,-388.75"/>
<polygon fill="midnightblue" stroke="midnightblue" points="1173.66,-414.5 1173.13,-425.08 1180.15,-417.14 1173.66,-414.5"/>
</g>
</g>
</svg>
        <g id="navigator" transform="translate(0 0)" fill="#404254">
                <rect fill="#f2f5e9" fill-opacity="0.5" stroke="#606060" stroke-width=".5" x="0" y="0" width="60" height="60"/>
                <use id="zoomplus" xlink:href="#zoomPlus" x="17" y="9" onmousedown="handleZoom(evt,'in')"/>
                <use id="zoomminus" xlink:href="#zoomMin" x="42" y="9" onmousedown="handleZoom(evt,'out')"/>
                <use id="reset" xlink:href="#resetDef" x="30" y="36" onmousedown="handleReset()"/>
                <g id="arrowUp" xlink:href="#dirArrow" transform="translate(30 24)" onmousedown="handlePan(0,-1)">
                  <use xlink:href="#rim" fill="#404040">
                        <set attributeName="fill" to="#808080" begin="arrowUp.mouseover" end="arrowUp.mouseout"/>
                  </use>
                  <path fill="none" stroke="white" stroke-width="1.5" d="M0,-3.0v7 M-2.5,-0.5L0,-3.0L2.5,-0.5"/>
                </g>
                <g id="arrowRight" xlink:href="#dirArrow" transform="rotate(90) translate(36 -43)" onmousedown="handlePan(1,0)">
                  <use xlink:href="#rim" fill="#404040">
                        <set attributeName="fill" to="#808080" begin="arrowRight.mouseover" end="arrowRight.mouseout"/>
                  </use>
                  <path fill="none" stroke="white" stroke-width="1.5" d="M0,-3.0v7 M-2.5,-0.5L0,-3.0L2.5,-0.5"/>
                </g>
                <g id="arrowDown" xlink:href="#dirArrow" transform="rotate(180) translate(-30 -48)" onmousedown="handlePan(0,1)">
                  <use xlink:href="#rim" fill="#404040">
                        <set attributeName="fill" to="#808080" begin="arrowDown.mouseover" end="arrowDown.mouseout"/>
                  </use>
                  <path fill="none" stroke="white" stroke-width="1.5" d="M0,-3.0v7 M-2.5,-0.5L0,-3.0L2.5,-0.5"/>
                </g>
                <g id="arrowLeft" xlink:href="#dirArrow" transform="rotate(270) translate(-36 17)" onmousedown="handlePan(-1,0)">
                  <use xlink:href="#rim" fill="#404040">
                        <set attributeName="fill" to="#808080" begin="arrowLeft.mouseover" end="arrowLeft.mouseout"/>
                  </use>
                  <path fill="none" stroke="white" stroke-width="1.5" d="M0,-3.0v7 M-2.5,-0.5L0,-3.0L2.5,-0.5"/>
                </g>
        </g>
        <svg viewBox="0 0 15 15" width="100%" height="30px" preserveAspectRatio="xMaxYMin meet">
         <g id="arrow_out" transform="scale(0.3 0.3)">
          <a xlink:href="HistogramUtils_8h__dep__incl_org.svg" target="_base">
           <rect id="button" ry="5" rx="5" y="6" x="6" height="38" width="38"
                fill="#f2f5e9" fill-opacity="0.5" stroke="#606060" stroke-width="1.0"/>
           <path id="arrow"
             d="M 11.500037,31.436501 C 11.940474,20.09759 22.043105,11.32322 32.158766,21.979434 L 37.068811,17.246167 C 37.068811,17.246167 37.088388,32 37.088388,32 L 22.160133,31.978069 C 22.160133,31.978069 26.997745,27.140456 26.997745,27.140456 C 18.528582,18.264221 13.291696,25.230495 11.500037,31.436501 z"
             style="fill:#404040;"/>
          </a>
         </g>
        </svg>
</svg>
