<?xml version="1.0" encoding="UTF-8" standalone="no"?>
<!DOCTYPE svg PUBLIC "-//W3C//DTD SVG 1.1//EN"
 "http://www.w3.org/Graphics/SVG/1.1/DTD/svg11.dtd">
<!-- Generated by graphviz version 2.43.0 (0)
 -->
<!-- Title: Samples/HistogramUtils.h Pages: 1 -->
<!--zoomable 445 -->
<svg id="main" version="1.1" xmlns="http://www.w3.org/2000/svg" xmlns:xlink="http://www.w3.org/1999/xlink" xml:space="preserve" onload="init(evt)">
<style type="text/css"><![CDATA[
.edge:hover path { stroke: red; }
.edge:hover polygon { stroke: red; fill: red; }
]]></style>
<script type="text/javascript"><![CDATA[
var edges = document.getElementsByTagName('g');
if (edges && edges.length) {
  for (var i=0;i<edges.length;i++) {
    if (edges[i].id.substr(0,4)=='edge') {
      edges[i].setAttribute('class','edge');
    }
  }
}
]]></script>
        <defs>
                <circle id="rim" cx="0" cy="0" r="7"/>
                <circle id="rim2" cx="0" cy="0" r="3.5"/>
                <g id="zoomPlus">
                        <use xlink:href="#rim" fill="#404040">
                                <set attributeName="fill" to="#808080" begin="zoomplus.mouseover" end="zoomplus.mouseout"/>
                        </use>
                        <path d="M-4,0h8M0,-4v8" fill="none" stroke="white" stroke-width="1.5" pointer-events="none"/>
                </g>
                <g id="zoomMin">
                        <use xlink:href="#rim" fill="#404040">
                                <set attributeName="fill" to="#808080" begin="zoomminus.mouseover" end="zoomminus.mouseout"/>
                        </use>
                        <path d="M-4,0h8" fill="none" stroke="white" stroke-width="1.5" pointer-events="none"/>
                </g>
                <g id="dirArrow">
                        <path fill="none" stroke="white" stroke-width="1.5" d="M0,-3.0v7 M-2.5,-0.5L0,-3.0L2.5,-0.5"/>
                </g>
               <g id="resetDef">
                       <use xlink:href="#rim2" fill="#404040">
                               <set attributeName="fill" to="#808080" begin="reset.mouseover" end="reset.mouseout"/>
                       </use>
               </g>
        </defs>

<script type="text/javascript">
var viewWidth = 1814;
var viewHeight = 445;
var sectionId = 'dynsection-1';
</script>
<script xlink:href="svgpan.js"/>
<svg id="graph" class="graph">
<g id="viewport">
<title>Samples/HistogramUtils.h</title>
<!-- Node1 -->
<g id="node1" class="node">
<title>Node1</title>
<g id="a_node1"><a xlink:title=" ">
<polygon fill="#999999" stroke="#666666" points="1002,-437 858,-437 858,-418 1002,-418 1002,-437"/>
<text text-anchor="middle" x="930" y="-425" font-family="Helvetica,sans-Serif" font-size="10.00">Samples/HistogramUtils.h</text>
</a>
</g>
</g>
<!-- Node2 -->
<g id="node2" class="node">
<title>Node2</title>
<g id="a_node2"><a xlink:href="PlotMCMCDiag_8cpp.html" target="_top" xlink:title="KS: This script is used to analyse output form DiagMCMC.">
<polygon fill="white" stroke="#666666" points="266,-266.5 96,-266.5 96,-247.5 266,-247.5 266,-266.5"/>
<text text-anchor="middle" x="181" y="-254.5" font-family="Helvetica,sans-Serif" font-size="10.00">Diagnostics/PlotMCMCDiag.cpp</text>
</a>
</g>
</g>
<!-- Node1&#45;&gt;Node2 -->
<g id="edge1" class="edge">
<title>Node1&#45;&gt;Node2</title>
<path fill="none" stroke="#63b8ff" d="M870.2,-416.23C821.96,-407.72 752.43,-394.97 692,-382 510.14,-342.96 294.07,-287.52 213.44,-266.51"/>
<polygon fill="#63b8ff" stroke="#63b8ff" points="869.71,-419.69 880.16,-417.98 870.92,-412.8 869.71,-419.69"/>
</g>
<!-- Node3 -->
<g id="node3" class="node">
<title>Node3</title>
<g id="a_node3"><a xlink:href="MCMCProcessor_8h.html" target="_top" xlink:title=" ">
<polygon fill="white" stroke="#666666" points="731.5,-327 594.5,-327 594.5,-308 731.5,-308 731.5,-327"/>
<text text-anchor="middle" x="663" y="-315" font-family="Helvetica,sans-Serif" font-size="10.00">Fitters/MCMCProcessor.h</text>
</a>
</g>
</g>
<!-- Node1&#45;&gt;Node3 -->
<g id="edge2" class="edge">
<title>Node1&#45;&gt;Node3</title>
<path fill="none" stroke="#63b8ff" d="M847.58,-421.34C806.68,-415.84 757.84,-404.65 719,-382 695.38,-368.23 676.52,-340.95 667.97,-327.06"/>
<polygon fill="#63b8ff" stroke="#63b8ff" points="847.17,-424.82 857.53,-422.59 848.04,-417.87 847.17,-424.82"/>
</g>
<!-- Node19 -->
<g id="node19" class="node">
<title>Node19</title>
<g id="a_node19"><a xlink:href="OscProcessor_8h.html" target="_top" xlink:title=" ">
<polygon fill="white" stroke="#666666" points="1208,-266.5 1084,-266.5 1084,-247.5 1208,-247.5 1208,-266.5"/>
<text text-anchor="middle" x="1146" y="-254.5" font-family="Helvetica,sans-Serif" font-size="10.00">Fitters/OscProcessor.h</text>
</a>
</g>
</g>
<!-- Node1&#45;&gt;Node19 -->
<g id="edge39" class="edge">
<title>Node1&#45;&gt;Node19</title>
<path fill="none" stroke="#63b8ff" d="M975.64,-415.13C1020.61,-401.57 1088.08,-374.55 1127,-327 1141.64,-309.12 1145.03,-280.8 1145.8,-266.64"/>
<polygon fill="#63b8ff" stroke="#63b8ff" points="974.47,-411.82 965.84,-417.97 976.42,-418.54 974.47,-411.82"/>
</g>
<!-- Node32 -->
<g id="node32" class="node">
<title>Node32</title>
<g id="a_node32"><a xlink:href="StatisticalUtils_8h.html" target="_top" xlink:title="Utility functions for statistical interpretations in MaCh3.">
<polygon fill="white" stroke="#666666" points="859.5,-382 728.5,-382 728.5,-363 859.5,-363 859.5,-382"/>
<text text-anchor="middle" x="794" y="-370" font-family="Helvetica,sans-Serif" font-size="10.00">Fitters/StatisticalUtils.h</text>
</a>
</g>
</g>
<!-- Node1&#45;&gt;Node32 -->
<g id="edge40" class="edge">
<title>Node1&#45;&gt;Node32</title>
<path fill="none" stroke="#63b8ff" d="M898.67,-414.29C873.46,-404.47 838.67,-390.91 816.25,-382.17"/>
<polygon fill="#63b8ff" stroke="#63b8ff" points="897.56,-417.61 908.15,-417.98 900.1,-411.09 897.56,-417.61"/>
</g>
<!-- Node34 -->
<g id="node34" class="node">
<title>Node34</title>
<g id="a_node34"><a xlink:href="HistogramUtils_8cpp.html" target="_top" xlink:title=" ">
<polygon fill="white" stroke="#666666" points="1329.5,-382 1174.5,-382 1174.5,-363 1329.5,-363 1329.5,-382"/>
<text text-anchor="middle" x="1252" y="-370" font-family="Helvetica,sans-Serif" font-size="10.00">Samples/HistogramUtils.cpp</text>
</a>
</g>
</g>
<!-- Node1&#45;&gt;Node34 -->
<g id="edge44" class="edge">
<title>Node1&#45;&gt;Node34</title>
<path fill="none" stroke="#63b8ff" d="M991.91,-416.31C1052.38,-406.36 1143.35,-391.38 1200.13,-382.04"/>
<polygon fill="#63b8ff" stroke="#63b8ff" points="991.03,-412.91 981.73,-417.98 992.17,-419.81 991.03,-412.91"/>
</g>
<!-- Node35 -->
<g id="node35" class="node">
<title>Node35</title>
<g id="a_node35"><a xlink:href="SampleHandlerBase_8h.html" target="_top" xlink:title=" ">
<polygon fill="white" stroke="#666666" points="1118,-327 948,-327 948,-308 1118,-308 1118,-327"/>
<text text-anchor="middle" x="1033" y="-315" font-family="Helvetica,sans-Serif" font-size="10.00">Samples/SampleHandlerBase.h</text>
</a>
</g>
</g>
<!-- Node1&#45;&gt;Node35 -->
<g id="edge45" class="edge">
<title>Node1&#45;&gt;Node35</title>
<path fill="none" stroke="#63b8ff" d="M945.45,-410.3C967.58,-387.1 1007.53,-345.21 1024.74,-327.16"/>
<polygon fill="#63b8ff" stroke="#63b8ff" points="942.8,-408.01 938.43,-417.66 947.86,-412.84 942.8,-408.01"/>
</g>
<!-- Node3&#45;&gt;Node2 -->
<g id="edge4" class="edge">
<title>Node3&#45;&gt;Node2</title>
<path fill="none" stroke="#63b8ff" d="M583.94,-308.22C505.46,-299.82 381.79,-286.07 275,-272 262.4,-270.34 248.88,-268.41 236.13,-266.53"/>
<polygon fill="#63b8ff" stroke="#63b8ff" points="583.91,-311.74 594.23,-309.32 584.66,-304.78 583.91,-311.74"/>
</g>
<!-- Node4 -->
<g id="node4" class="node">
<title>Node4</title>
<g id="a_node4"><a xlink:href="DiagMCMC_8cpp.html" target="_top" xlink:title=" ">
<polygon fill="white" stroke="#666666" points="435.5,-266.5 284.5,-266.5 284.5,-247.5 435.5,-247.5 435.5,-266.5"/>
<text text-anchor="middle" x="360" y="-254.5" font-family="Helvetica,sans-Serif" font-size="10.00">Diagnostics/DiagMCMC.cpp</text>
</a>
</g>
</g>
<!-- Node3&#45;&gt;Node4 -->
<g id="edge3" class="edge">
<title>Node3&#45;&gt;Node4</title>
<path fill="none" stroke="#63b8ff" d="M608.79,-306.03C550.31,-294.74 458.33,-276.98 404.11,-266.52"/>
<polygon fill="#63b8ff" stroke="#63b8ff" points="608.46,-309.53 618.94,-307.99 609.79,-302.66 608.46,-309.53"/>
</g>
<!-- Node5 -->
<g id="node5" class="node">
<title>Node5</title>
<g id="a_node5"><a xlink:href="FitterBase_8h.html" target="_top" xlink:title=" ">
<polygon fill="white" stroke="#666666" points="1025.5,-266.5 916.5,-266.5 916.5,-247.5 1025.5,-247.5 1025.5,-266.5"/>
<text text-anchor="middle" x="971" y="-254.5" font-family="Helvetica,sans-Serif" font-size="10.00">Fitters/FitterBase.h</text>
</a>
</g>
</g>
<!-- Node3&#45;&gt;Node5 -->
<g id="edge5" class="edge">
<title>Node3&#45;&gt;Node5</title>
<path fill="none" stroke="#63b8ff" d="M722.52,-306.24C772,-297.58 844.2,-284.59 907,-272 915.48,-270.3 924.56,-268.38 933.14,-266.51"/>
<polygon fill="#63b8ff" stroke="#63b8ff" points="721.88,-302.8 712.63,-307.97 723.09,-309.7 721.88,-302.8"/>
</g>
<!-- Node18 -->
<g id="node18" class="node">
<title>Node18</title>
<g id="a_node18"><a xlink:href="MCMCProcessor_8cpp.html" target="_top" xlink:title=" ">
<polygon fill="white" stroke="#666666" points="737.5,-266.5 588.5,-266.5 588.5,-247.5 737.5,-247.5 737.5,-266.5"/>
<text text-anchor="middle" x="663" y="-254.5" font-family="Helvetica,sans-Serif" font-size="10.00">Fitters/MCMCProcessor.cpp</text>
</a>
</g>
</g>
<!-- Node3&#45;&gt;Node18 -->
<g id="edge24" class="edge">
<title>Node3&#45;&gt;Node18</title>
<path fill="none" stroke="#63b8ff" d="M663,-297.66C663,-287.24 663,-274.8 663,-266.67"/>
<polygon fill="#63b8ff" stroke="#63b8ff" points="659.5,-297.87 663,-307.87 666.5,-297.87 659.5,-297.87"/>
</g>
<!-- Node3&#45;&gt;Node19 -->
<g id="edge25" class="edge">
<title>Node3&#45;&gt;Node19</title>
<path fill="none" stroke="#63b8ff" d="M741.93,-307.21C817.24,-298.3 933.88,-284.42 1035,-272 1050.81,-270.06 1067.88,-267.92 1083.78,-265.92"/>
<polygon fill="#63b8ff" stroke="#63b8ff" points="741.1,-303.78 731.58,-308.43 741.92,-310.73 741.1,-303.78"/>
</g>
<!-- Node22 -->
<g id="node22" class="node">
<title>Node22</title>
<g id="a_node22"><a xlink:href="SampleSummary_8h.html" target="_top" xlink:title=" ">
<polygon fill="white" stroke="#666666" points="898,-266.5 756,-266.5 756,-247.5 898,-247.5 898,-266.5"/>
<text text-anchor="middle" x="827" y="-254.5" font-family="Helvetica,sans-Serif" font-size="10.00">Fitters/SampleSummary.h</text>
</a>
</g>
</g>
<!-- Node3&#45;&gt;Node22 -->
<g id="edge28" class="edge">
<title>Node3&#45;&gt;Node22</title>
<path fill="none" stroke="#63b8ff" d="M696.57,-304.52C728.28,-293.21 775.05,-276.53 803.12,-266.52"/>
<polygon fill="#63b8ff" stroke="#63b8ff" points="695.09,-301.34 686.85,-307.99 697.44,-307.93 695.09,-301.34"/>
</g>
<!-- Node24 -->
<g id="node24" class="node">
<title>Node24</title>
<g id="a_node24"><a xlink:href="inputManager_8h.html" target="_top" xlink:title=" ">
<polygon fill="white" stroke="#666666" points="570.5,-272 453.5,-272 453.5,-242 570.5,-242 570.5,-272"/>
<text text-anchor="start" x="461.5" y="-260" font-family="Helvetica,sans-Serif" font-size="10.00">Plotting/plottingUtils</text>
<text text-anchor="middle" x="512" y="-249" font-family="Helvetica,sans-Serif" font-size="10.00">/inputManager.h</text>
</a>
</g>
</g>
<!-- Node3&#45;&gt;Node24 -->
<g id="edge30" class="edge">
<title>Node3&#45;&gt;Node24</title>
<path fill="none" stroke="#63b8ff" d="M631.59,-304.33C607.33,-294.93 573.72,-281.91 548.3,-272.06"/>
<polygon fill="#63b8ff" stroke="#63b8ff" points="630.45,-307.64 641.04,-307.99 632.98,-301.12 630.45,-307.64"/>
</g>
<!-- Node6 -->
<g id="node6" class="node">
<title>Node6</title>
<g id="a_node6"><a xlink:href="FitterBase_8cpp.html" target="_top" xlink:title=" ">
<polygon fill="white" stroke="#666666" points="969,-200.5 849,-200.5 849,-181.5 969,-181.5 969,-200.5"/>
<text text-anchor="middle" x="909" y="-188.5" font-family="Helvetica,sans-Serif" font-size="10.00">Fitters/FitterBase.cpp</text>
</a>
</g>
</g>
<!-- Node5&#45;&gt;Node6 -->
<g id="edge6" class="edge">
<title>Node5&#45;&gt;Node6</title>
<path fill="none" stroke="#63b8ff" d="M955.48,-239.98C943.51,-227.62 927.4,-210.99 917.63,-200.91"/>
<polygon fill="#63b8ff" stroke="#63b8ff" points="953.17,-242.62 962.64,-247.37 958.19,-237.75 953.17,-242.62"/>
</g>
<!-- Node7 -->
<g id="node7" class="node">
<title>Node7</title>
<g id="a_node7"><a xlink:href="LikelihoodFit_8h.html" target="_top" xlink:title=" ">
<polygon fill="white" stroke="#666666" points="1146.5,-200.5 1025.5,-200.5 1025.5,-181.5 1146.5,-181.5 1146.5,-200.5"/>
<text text-anchor="middle" x="1086" y="-188.5" font-family="Helvetica,sans-Serif" font-size="10.00">Fitters/LikelihoodFit.h</text>
</a>
</g>
</g>
<!-- Node5&#45;&gt;Node7 -->
<g id="edge7" class="edge">
<title>Node5&#45;&gt;Node7</title>
<path fill="none" stroke="#63b8ff" d="M995.51,-242.36C1018.15,-229.76 1051.11,-211.42 1070.37,-200.7"/>
<polygon fill="#63b8ff" stroke="#63b8ff" points="993.55,-239.45 986.51,-247.37 996.95,-245.56 993.55,-239.45"/>
</g>
<!-- Node9 -->
<g id="node9" class="node">
<title>Node9</title>
<g id="a_node9"><a xlink:href="MaCh3Factory_8h.html" target="_top" xlink:title="Factory methods for MaCh3 software which streamline initialisation of different objects.">
<polygon fill="white" stroke="#666666" points="993.5,-74 866.5,-74 866.5,-55 993.5,-55 993.5,-74"/>
<text text-anchor="middle" x="930" y="-62" font-family="Helvetica,sans-Serif" font-size="10.00">Fitters/MaCh3Factory.h</text>
</a>
</g>
</g>
<!-- Node5&#45;&gt;Node9 -->
<g id="edge18" class="edge">
<title>Node5&#45;&gt;Node9</title>
<path fill="none" stroke="#63b8ff" d="M926.43,-244.8C892.61,-235.3 850.24,-220.87 840,-206 806.32,-157.09 884.29,-96.42 916.7,-74.18"/>
<polygon fill="#63b8ff" stroke="#63b8ff" points="925.58,-248.2 936.15,-247.47 927.43,-241.45 925.58,-248.2"/>
</g>
<!-- Node13 -->
<g id="node13" class="node">
<title>Node13</title>
<g id="a_node13"><a xlink:href="fitters_8cpp.html" target="_top" xlink:title=" ">
<polygon fill="white" stroke="#666666" points="1132,-74 1030,-74 1030,-55 1132,-55 1132,-74"/>
<text text-anchor="middle" x="1081" y="-62" font-family="Helvetica,sans-Serif" font-size="10.00">python/fitters.cpp</text>
</a>
</g>
</g>
<!-- Node5&#45;&gt;Node13 -->
<g id="edge23" class="edge">
<title>Node5&#45;&gt;Node13</title>
<path fill="none" stroke="#63b8ff" d="M974.41,-237.14C980.97,-202.47 995.99,-130.33 1011,-110 1023.32,-93.32 1043.93,-81.32 1059.6,-74.02"/>
<polygon fill="#63b8ff" stroke="#63b8ff" points="970.91,-236.86 972.53,-247.33 977.79,-238.13 970.91,-236.86"/>
</g>
<!-- Node16 -->
<g id="node16" class="node">
<title>Node16</title>
<g id="a_node16"><a xlink:href="mcmc_8h.html" target="_top" xlink:title=" ">
<polygon fill="white" stroke="#666666" points="818.5,-134.5 729.5,-134.5 729.5,-115.5 818.5,-115.5 818.5,-134.5"/>
<text text-anchor="middle" x="774" y="-122.5" font-family="Helvetica,sans-Serif" font-size="10.00">Fitters/mcmc.h</text>
</a>
</g>
</g>
<!-- Node5&#45;&gt;Node16 -->
<g id="edge19" class="edge">
<title>Node5&#45;&gt;Node16</title>
<path fill="none" stroke="#63b8ff" d="M927.79,-244.88C882.34,-232.85 816.14,-214.31 807,-206 785.65,-186.6 777.76,-151.3 775.15,-134.86"/>
<polygon fill="#63b8ff" stroke="#63b8ff" points="927.15,-248.33 937.71,-247.48 928.93,-241.56 927.15,-248.33"/>
</g>
<!-- Node8 -->
<g id="node8" class="node">
<title>Node8</title>
<g id="a_node8"><a xlink:href="LikelihoodFit_8cpp.html" target="_top" xlink:title=" ">
<polygon fill="white" stroke="#666666" points="1152,-134.5 1020,-134.5 1020,-115.5 1152,-115.5 1152,-134.5"/>
<text text-anchor="middle" x="1086" y="-122.5" font-family="Helvetica,sans-Serif" font-size="10.00">Fitters/LikelihoodFit.cpp</text>
</a>
</g>
</g>
<!-- Node7&#45;&gt;Node8 -->
<g id="edge8" class="edge">
<title>Node7&#45;&gt;Node8</title>
<path fill="none" stroke="#63b8ff" d="M1086,-171.08C1086,-159.13 1086,-144.22 1086,-134.91"/>
<polygon fill="#63b8ff" stroke="#63b8ff" points="1082.5,-171.37 1086,-181.37 1089.5,-171.37 1082.5,-171.37"/>
</g>
<!-- Node7&#45;&gt;Node9 -->
<g id="edge9" class="edge">
<title>Node7&#45;&gt;Node9</title>
<path fill="none" stroke="#63b8ff" d="M1062.98,-175.97C1047.8,-166.4 1027.71,-153.13 1011,-140 983.05,-118.05 952.96,-88.67 938.59,-74.24"/>
<polygon fill="#63b8ff" stroke="#63b8ff" points="1061.38,-179.1 1071.72,-181.41 1065.08,-173.15 1061.38,-179.1"/>
</g>
<!-- Node11 -->
<g id="node11" class="node">
<title>Node11</title>
<g id="a_node11"><a xlink:href="MinuitFit_8h.html" target="_top" xlink:title=" ">
<polygon fill="white" stroke="#666666" points="1369,-134.5 1267,-134.5 1267,-115.5 1369,-115.5 1369,-134.5"/>
<text text-anchor="middle" x="1318" y="-122.5" font-family="Helvetica,sans-Serif" font-size="10.00">Fitters/MinuitFit.h</text>
</a>
</g>
</g>
<!-- Node7&#45;&gt;Node11 -->
<g id="edge11" class="edge">
<title>Node7&#45;&gt;Node11</title>
<path fill="none" stroke="#63b8ff" d="M1127.17,-178.64C1172.88,-166.03 1245.62,-145.97 1286.84,-134.6"/>
<polygon fill="#63b8ff" stroke="#63b8ff" points="1126,-175.34 1117.29,-181.37 1127.86,-182.08 1126,-175.34"/>
</g>
<!-- Node14 -->
<g id="node14" class="node">
<title>Node14</title>
<g id="a_node14"><a xlink:href="PSO_8h.html" target="_top" xlink:title=" ">
<polygon fill="white" stroke="#666666" points="1249.5,-134.5 1170.5,-134.5 1170.5,-115.5 1249.5,-115.5 1249.5,-134.5"/>
<text text-anchor="middle" x="1210" y="-122.5" font-family="Helvetica,sans-Serif" font-size="10.00">Fitters/PSO.h</text>
</a>
</g>
</g>
<!-- Node7&#45;&gt;Node14 -->
<g id="edge14" class="edge">
<title>Node7&#45;&gt;Node14</title>
<path fill="none" stroke="#63b8ff" d="M1111.78,-176.69C1136.21,-164.09 1172.19,-145.51 1193.15,-134.7"/>
<polygon fill="#63b8ff" stroke="#63b8ff" points="1110,-173.67 1102.72,-181.37 1113.21,-179.89 1110,-173.67"/>
</g>
<!-- Node10 -->
<g id="node10" class="node">
<title>Node10</title>
<g id="a_node10"><a xlink:href="MaCh3Factory_8cpp.html" target="_top" xlink:title=" ">
<polygon fill="white" stroke="#666666" points="999,-19 861,-19 861,0 999,0 999,-19"/>
<text text-anchor="middle" x="930" y="-7" font-family="Helvetica,sans-Serif" font-size="10.00">Fitters/MaCh3Factory.cpp</text>
</a>
</g>
</g>
<!-- Node9&#45;&gt;Node10 -->
<g id="edge10" class="edge">
<title>Node9&#45;&gt;Node10</title>
<path fill="none" stroke="#63b8ff" d="M930,-44.66C930,-35.93 930,-25.99 930,-19.09"/>
<polygon fill="#63b8ff" stroke="#63b8ff" points="926.5,-44.75 930,-54.75 933.5,-44.75 926.5,-44.75"/>
</g>
<!-- Node12 -->
<g id="node12" class="node">
<title>Node12</title>
<g id="a_node12"><a xlink:href="MinuitFit_8cpp.html" target="_top" xlink:title=" ">
<polygon fill="white" stroke="#666666" points="1380.5,-74 1267.5,-74 1267.5,-55 1380.5,-55 1380.5,-74"/>
<text text-anchor="middle" x="1324" y="-62" font-family="Helvetica,sans-Serif" font-size="10.00">Fitters/MinuitFit.cpp</text>
</a>
</g>
</g>
<!-- Node11&#45;&gt;Node12 -->
<g id="edge12" class="edge">
<title>Node11&#45;&gt;Node12</title>
<path fill="none" stroke="#63b8ff" d="M1319.93,-105.16C1321,-94.74 1322.28,-82.3 1323.11,-74.17"/>
<polygon fill="#63b8ff" stroke="#63b8ff" points="1316.42,-105.06 1318.89,-115.37 1323.39,-105.78 1316.42,-105.06"/>
</g>
<!-- Node11&#45;&gt;Node13 -->
<g id="edge13" class="edge">
<title>Node11&#45;&gt;Node13</title>
<path fill="none" stroke="#63b8ff" d="M1273.59,-113.04C1227.78,-101.73 1157.3,-84.33 1115.5,-74.02"/>
<polygon fill="#63b8ff" stroke="#63b8ff" points="1272.99,-116.5 1283.54,-115.49 1274.67,-109.7 1272.99,-116.5"/>
</g>
<!-- Node14&#45;&gt;Node9 -->
<g id="edge15" class="edge">
<title>Node14&#45;&gt;Node9</title>
<path fill="none" stroke="#63b8ff" d="M1171.95,-112.78C1168.26,-111.79 1164.57,-110.85 1161,-110 1099.62,-95.35 1028.19,-82.17 981.2,-74.03"/>
<polygon fill="#63b8ff" stroke="#63b8ff" points="1171.04,-116.15 1181.61,-115.43 1172.9,-109.41 1171.04,-116.15"/>
</g>
<!-- Node14&#45;&gt;Node13 -->
<g id="edge17" class="edge">
<title>Node14&#45;&gt;Node13</title>
<path fill="none" stroke="#63b8ff" d="M1181.96,-111.28C1157.06,-99.99 1121.38,-83.81 1099.78,-74.02"/>
<polygon fill="#63b8ff" stroke="#63b8ff" points="1180.69,-114.55 1191.24,-115.49 1183.58,-108.18 1180.69,-114.55"/>
</g>
<!-- Node15 -->
<g id="node15" class="node">
<title>Node15</title>
<g id="a_node15"><a xlink:href="PSO_8cpp.html" target="_top" xlink:title=" ">
<polygon fill="white" stroke="#666666" points="1249,-74 1159,-74 1159,-55 1249,-55 1249,-74"/>
<text text-anchor="middle" x="1204" y="-62" font-family="Helvetica,sans-Serif" font-size="10.00">Fitters/PSO.cpp</text>
</a>
</g>
</g>
<!-- Node14&#45;&gt;Node15 -->
<g id="edge16" class="edge">
<title>Node14&#45;&gt;Node15</title>
<path fill="none" stroke="#63b8ff" d="M1208.07,-105.16C1207,-94.74 1205.72,-82.3 1204.89,-74.17"/>
<polygon fill="#63b8ff" stroke="#63b8ff" points="1204.61,-105.78 1209.11,-115.37 1211.58,-105.06 1204.61,-105.78"/>
</g>
<!-- Node16&#45;&gt;Node9 -->
<g id="edge20" class="edge">
<title>Node16&#45;&gt;Node9</title>
<path fill="none" stroke="#63b8ff" d="M806.33,-111.88C836.48,-100.57 880.7,-83.99 907.29,-74.02"/>
<polygon fill="#63b8ff" stroke="#63b8ff" points="804.82,-108.71 796.68,-115.49 807.28,-115.26 804.82,-108.71"/>
</g>
<!-- Node16&#45;&gt;Node13 -->
<g id="edge22" class="edge">
<title>Node16&#45;&gt;Node13</title>
<path fill="none" stroke="#63b8ff" d="M828.56,-113.6C887.79,-102.32 981.26,-84.51 1036.31,-74.02"/>
<polygon fill="#63b8ff" stroke="#63b8ff" points="827.81,-110.18 818.64,-115.49 829.12,-117.06 827.81,-110.18"/>
</g>
<!-- Node17 -->
<g id="node17" class="node">
<title>Node17</title>
<g id="a_node17"><a xlink:href="mcmc_8cpp.html" target="_top" xlink:title=" ">
<polygon fill="white" stroke="#666666" points="824.5,-74 723.5,-74 723.5,-55 824.5,-55 824.5,-74"/>
<text text-anchor="middle" x="774" y="-62" font-family="Helvetica,sans-Serif" font-size="10.00">Fitters/mcmc.cpp</text>
</a>
</g>
</g>
<!-- Node16&#45;&gt;Node17 -->
<g id="edge21" class="edge">
<title>Node16&#45;&gt;Node17</title>
<path fill="none" stroke="#63b8ff" d="M774,-105.16C774,-94.74 774,-82.3 774,-74.17"/>
<polygon fill="#63b8ff" stroke="#63b8ff" points="770.5,-105.37 774,-115.37 777.5,-105.37 770.5,-105.37"/>
</g>
<!-- Node20 -->
<g id="node20" class="node">
<title>Node20</title>
<g id="a_node20"><a xlink:href="ProcessMCMC_8cpp.html" target="_top" xlink:title="Main exectable responsible for different types of MCMC processing like drawing posteriors,...">
<polygon fill="white" stroke="#666666" points="1484,-200.5 1318,-200.5 1318,-181.5 1484,-181.5 1484,-200.5"/>
<text text-anchor="middle" x="1401" y="-188.5" font-family="Helvetica,sans-Serif" font-size="10.00">Diagnostics/ProcessMCMC.cpp</text>
</a>
</g>
</g>
<!-- Node19&#45;&gt;Node20 -->
<g id="edge26" class="edge">
<title>Node19&#45;&gt;Node20</title>
<path fill="none" stroke="#63b8ff" d="M1190.06,-244.94C1240.33,-232.32 1321.47,-211.96 1367.08,-200.51"/>
<polygon fill="#63b8ff" stroke="#63b8ff" points="1188.97,-241.61 1180.13,-247.44 1190.68,-248.4 1188.97,-241.61"/>
</g>
<!-- Node21 -->
<g id="node21" class="node">
<title>Node21</title>
<g id="a_node21"><a xlink:href="OscProcessor_8cpp.html" target="_top" xlink:title=" ">
<polygon fill="white" stroke="#666666" points="1299.5,-200.5 1164.5,-200.5 1164.5,-181.5 1299.5,-181.5 1299.5,-200.5"/>
<text text-anchor="middle" x="1232" y="-188.5" font-family="Helvetica,sans-Serif" font-size="10.00">Fitters/OscProcessor.cpp</text>
</a>
</g>
</g>
<!-- Node19&#45;&gt;Node21 -->
<g id="edge27" class="edge">
<title>Node19&#45;&gt;Node21</title>
<path fill="none" stroke="#63b8ff" d="M1165.71,-241.33C1182.57,-228.78 1206.29,-211.13 1220.31,-200.7"/>
<polygon fill="#63b8ff" stroke="#63b8ff" points="1163.53,-238.59 1157.6,-247.37 1167.71,-244.21 1163.53,-238.59"/>
</g>
<!-- Node23 -->
<g id="node23" class="node">
<title>Node23</title>
<g id="a_node23"><a xlink:href="SampleSummary_8cpp.html" target="_top" xlink:title=" ">
<polygon fill="white" stroke="#666666" points="754.5,-200.5 601.5,-200.5 601.5,-181.5 754.5,-181.5 754.5,-200.5"/>
<text text-anchor="middle" x="678" y="-188.5" font-family="Helvetica,sans-Serif" font-size="10.00">Fitters/SampleSummary.cpp</text>
</a>
</g>
</g>
<!-- Node22&#45;&gt;Node23 -->
<g id="edge29" class="edge">
<title>Node22&#45;&gt;Node23</title>
<path fill="none" stroke="#63b8ff" d="M797.57,-243.36C768.21,-230.75 723.88,-211.71 698.25,-200.7"/>
<polygon fill="#63b8ff" stroke="#63b8ff" points="796.34,-246.64 806.91,-247.37 799.1,-240.21 796.34,-246.64"/>
</g>
<!-- Node25 -->
<g id="node25" class="node">
<title>Node25</title>
<g id="a_node25"><a xlink:href="inputManager_8cpp.html" target="_top" xlink:title=" ">
<polygon fill="white" stroke="#666666" points="409.5,-206 292.5,-206 292.5,-176 409.5,-176 409.5,-206"/>
<text text-anchor="start" x="300.5" y="-194" font-family="Helvetica,sans-Serif" font-size="10.00">Plotting/plottingUtils</text>
<text text-anchor="middle" x="351" y="-183" font-family="Helvetica,sans-Serif" font-size="10.00">/inputManager.cpp</text>
</a>
</g>
</g>
<!-- Node24&#45;&gt;Node25 -->
<g id="edge31" class="edge">
<title>Node24&#45;&gt;Node25</title>
<path fill="none" stroke="#63b8ff" d="M467.19,-238.19C441.63,-228.02 410.03,-215.47 386.25,-206.01"/>
<polygon fill="#63b8ff" stroke="#63b8ff" points="466.08,-241.51 476.67,-241.95 468.67,-235.01 466.08,-241.51"/>
</g>
<!-- Node26 -->
<g id="node26" class="node">
<title>Node26</title>
<g id="a_node26"><a xlink:href="plottingManager_8h.html" target="_top" xlink:title=" ">
<polygon fill="white" stroke="#666666" points="544.5,-206 427.5,-206 427.5,-176 544.5,-176 544.5,-206"/>
<text text-anchor="start" x="435.5" y="-194" font-family="Helvetica,sans-Serif" font-size="10.00">Plotting/plottingUtils</text>
<text text-anchor="middle" x="486" y="-183" font-family="Helvetica,sans-Serif" font-size="10.00">/plottingManager.h</text>
</a>
</g>
</g>
<!-- Node24&#45;&gt;Node26 -->
<g id="edge32" class="edge">
<title>Node24&#45;&gt;Node26</title>
<path fill="none" stroke="#63b8ff" d="M502.41,-232.39C498.83,-223.59 494.88,-213.86 491.75,-206.16"/>
<polygon fill="#63b8ff" stroke="#63b8ff" points="499.22,-233.85 506.23,-241.8 505.71,-231.21 499.22,-233.85"/>
</g>
<!-- Node31 -->
<g id="node31" class="node">
<title>Node31</title>
<g id="a_node31"><a xlink:href="plotting_8cpp.html" target="_top" xlink:title=" ">
<polygon fill="white" stroke="#666666" points="693.5,-134.5 582.5,-134.5 582.5,-115.5 693.5,-115.5 693.5,-134.5"/>
<text text-anchor="middle" x="638" y="-122.5" font-family="Helvetica,sans-Serif" font-size="10.00">python/plotting.cpp</text>
</a>
</g>
</g>
<!-- Node24&#45;&gt;Node31 -->
<g id="edge38" class="edge">
<title>Node24&#45;&gt;Node31</title>
<path fill="none" stroke="#63b8ff" d="M532.73,-234.61C560.87,-205.58 609.89,-155 629.52,-134.75"/>
<polygon fill="#63b8ff" stroke="#63b8ff" points="530.17,-232.22 525.72,-241.84 535.2,-237.1 530.17,-232.22"/>
</g>
<!-- Node27 -->
<g id="node27" class="node">
<title>Node27</title>
<g id="a_node27"><a xlink:href="GetPostfitParamPlots_8cpp.html" target="_top" xlink:title=" ">
<polygon fill="white" stroke="#666666" points="564,-140 428,-140 428,-110 564,-110 564,-140"/>
<text text-anchor="start" x="436" y="-128" font-family="Helvetica,sans-Serif" font-size="10.00">Plotting/GetPostfitParam</text>
<text text-anchor="middle" x="496" y="-117" font-family="Helvetica,sans-Serif" font-size="10.00">Plots.cpp</text>
</a>
</g>
</g>
<!-- Node26&#45;&gt;Node27 -->
<g id="edge33" class="edge">
<title>Node26&#45;&gt;Node27</title>
<path fill="none" stroke="#63b8ff" d="M489.78,-165.83C491.13,-157.17 492.61,-147.7 493.79,-140.16"/>
<polygon fill="#63b8ff" stroke="#63b8ff" points="486.31,-165.38 488.22,-175.8 493.22,-166.46 486.31,-165.38"/>
</g>
<!-- Node28 -->
<g id="node28" class="node">
<title>Node28</title>
<g id="a_node28"><a xlink:href="MatrixPlotter_8cpp.html" target="_top" xlink:title=" ">
<polygon fill="white" stroke="#666666" points="140,-134.5 0,-134.5 0,-115.5 140,-115.5 140,-134.5"/>
<text text-anchor="middle" x="70" y="-122.5" font-family="Helvetica,sans-Serif" font-size="10.00">Plotting/MatrixPlotter.cpp</text>
</a>
</g>
</g>
<!-- Node26&#45;&gt;Node28 -->
<g id="edge34" class="edge">
<title>Node26&#45;&gt;Node28</title>
<path fill="none" stroke="#63b8ff" d="M417.49,-176C297.39,-155.95 265.05,-158.04 149,-140 138.4,-138.35 127.03,-136.43 116.31,-134.55"/>
<polygon fill="#63b8ff" stroke="#63b8ff" points="417,-179.46 427.44,-177.67 418.16,-172.56 417,-179.46"/>
</g>
<!-- Node29 -->
<g id="node29" class="node">
<title>Node29</title>
<g id="a_node29"><a xlink:href="PlotLLH_8cpp.html" target="_top" xlink:title=" ">
<polygon fill="white" stroke="#666666" points="272,-134.5 158,-134.5 158,-115.5 272,-115.5 272,-134.5"/>
<text text-anchor="middle" x="215" y="-122.5" font-family="Helvetica,sans-Serif" font-size="10.00">Plotting/PlotLLH.cpp</text>
</a>
</g>
</g>
<!-- Node26&#45;&gt;Node29 -->
<g id="edge35" class="edge">
<title>Node26&#45;&gt;Node29</title>
<path fill="none" stroke="#63b8ff" d="M417.22,-173.76C364.39,-161.28 293.54,-144.55 251.25,-134.56"/>
<polygon fill="#63b8ff" stroke="#63b8ff" points="416.66,-177.22 427.2,-176.11 418.27,-170.41 416.66,-177.22"/>
</g>
<!-- Node30 -->
<g id="node30" class="node">
<title>Node30</title>
<g id="a_node30"><a xlink:href="plottingManager_8cpp.html" target="_top" xlink:title=" ">
<polygon fill="white" stroke="#666666" points="409.5,-140 290.5,-140 290.5,-110 409.5,-110 409.5,-140"/>
<text text-anchor="start" x="298.5" y="-128" font-family="Helvetica,sans-Serif" font-size="10.00">Plotting/plottingUtils</text>
<text text-anchor="middle" x="350" y="-117" font-family="Helvetica,sans-Serif" font-size="10.00">/plottingManager.cpp</text>
</a>
</g>
</g>
<!-- Node26&#45;&gt;Node30 -->
<g id="edge36" class="edge">
<title>Node26&#45;&gt;Node30</title>
<path fill="none" stroke="#63b8ff" d="M447,-171.65C425.61,-161.58 399.51,-149.3 379.78,-140.01"/>
<polygon fill="#63b8ff" stroke="#63b8ff" points="445.62,-174.86 456.15,-175.95 448.6,-168.53 445.62,-174.86"/>
</g>
<!-- Node26&#45;&gt;Node31 -->
<g id="edge37" class="edge">
<title>Node26&#45;&gt;Node31</title>
<path fill="none" stroke="#63b8ff" d="M528.89,-171.94C558.01,-159.68 595.19,-144.02 617.77,-134.52"/>
<polygon fill="#63b8ff" stroke="#63b8ff" points="527.22,-168.85 519.36,-175.95 529.93,-175.3 527.22,-168.85"/>
</g>
<!-- Node32&#45;&gt;Node3 -->
<g id="edge41" class="edge">
<title>Node32&#45;&gt;Node3</title>
<path fill="none" stroke="#63b8ff" d="M763.5,-359.16C739.25,-349.35 705.93,-335.87 684.43,-327.17"/>
<polygon fill="#63b8ff" stroke="#63b8ff" points="762.37,-362.48 772.95,-362.98 765,-355.99 762.37,-362.48"/>
</g>
<!-- Node32&#45;&gt;Node22 -->
<g id="edge42" class="edge">
<title>Node32&#45;&gt;Node22</title>
<path fill="none" stroke="#63b8ff" d="M783.96,-353.39C778.15,-340.44 773.06,-322.76 779,-308 786.1,-290.36 802.72,-275.45 814.4,-266.62"/>
<polygon fill="#63b8ff" stroke="#63b8ff" points="780.97,-355.24 788.58,-362.62 787.23,-352.11 780.97,-355.24"/>
</g>
<!-- Node33 -->
<g id="node33" class="node">
<title>Node33</title>
<g id="a_node33"><a xlink:href="StatisticalUtils_8cpp.html" target="_top" xlink:title=" ">
<polygon fill="white" stroke="#666666" points="930,-327 788,-327 788,-308 930,-308 930,-327"/>
<text text-anchor="middle" x="859" y="-315" font-family="Helvetica,sans-Serif" font-size="10.00">Fitters/StatisticalUtils.cpp</text>
</a>
</g>
</g>
<!-- Node32&#45;&gt;Node33 -->
<g id="edge43" class="edge">
<title>Node32&#45;&gt;Node33</title>
<path fill="none" stroke="#63b8ff" d="M812.27,-356.6C823.92,-347.11 838.6,-335.13 848.37,-327.17"/>
<polygon fill="#63b8ff" stroke="#63b8ff" points="809.98,-353.95 804.44,-362.98 814.41,-359.38 809.98,-353.95"/>
</g>
<!-- Node35&#45;&gt;Node5 -->
<g id="edge46" class="edge">
<title>Node35&#45;&gt;Node5</title>
<path fill="none" stroke="#63b8ff" d="M1016.48,-300.91C1004.85,-289.94 989.72,-275.67 980.19,-266.67"/>
<polygon fill="#63b8ff" stroke="#63b8ff" points="1014.18,-303.55 1023.85,-307.87 1018.98,-298.46 1014.18,-303.55"/>
</g>
<!-- Node35&#45;&gt;Node22 -->
<g id="edge47" class="edge">
<title>Node35&#45;&gt;Node22</title>
<path fill="none" stroke="#63b8ff" d="M993.39,-305.25C953.55,-293.94 893.01,-276.75 856.99,-266.52"/>
<polygon fill="#63b8ff" stroke="#63b8ff" points="992.47,-308.63 1003.05,-307.99 994.38,-301.89 992.47,-308.63"/>
</g>
<!-- Node36 -->
<g id="node36" class="node">
<title>Node36</title>
<g id="a_node36"><a xlink:href="SampleHandlerBase_8cpp.html" target="_top" xlink:title=" ">
<polygon fill="white" stroke="#666666" points="1407.5,-266.5 1226.5,-266.5 1226.5,-247.5 1407.5,-247.5 1407.5,-266.5"/>
<text text-anchor="middle" x="1317" y="-254.5" font-family="Helvetica,sans-Serif" font-size="10.00">Samples/SampleHandlerBase.cpp</text>
</a>
</g>
</g>
<!-- Node35&#45;&gt;Node36 -->
<g id="edge48" class="edge">
<title>Node35&#45;&gt;Node36</title>
<path fill="none" stroke="#63b8ff" d="M1084.15,-305.96C1138.98,-294.67 1224.94,-276.96 1275.65,-266.52"/>
<polygon fill="#63b8ff" stroke="#63b8ff" points="1083.38,-302.55 1074.3,-307.99 1084.8,-309.4 1083.38,-302.55"/>
</g>
<!-- Node37 -->
<g id="node37" class="node">
<title>Node37</title>
<g id="a_node37"><a xlink:href="SampleHandlerFD_8h.html" target="_top" xlink:title=" ">
<polygon fill="white" stroke="#666666" points="1639.5,-266.5 1480.5,-266.5 1480.5,-247.5 1639.5,-247.5 1639.5,-266.5"/>
<text text-anchor="middle" x="1560" y="-254.5" font-family="Helvetica,sans-Serif" font-size="10.00">Samples/SampleHandlerFD.h</text>
</a>
</g>
</g>
<!-- Node35&#45;&gt;Node37 -->
<g id="edge49" class="edge">
<title>Node35&#45;&gt;Node37</title>
<path fill="none" stroke="#63b8ff" d="M1119.82,-306.86C1221,-295.63 1386.64,-277.24 1483.28,-266.52"/>
<polygon fill="#63b8ff" stroke="#63b8ff" points="1119.18,-303.41 1109.63,-307.99 1119.96,-310.37 1119.18,-303.41"/>
</g>
<!-- Node38 -->
<g id="node38" class="node">
<title>Node38</title>
<g id="a_node38"><a xlink:href="SampleHandlerFD_8cpp.html" target="_top" xlink:title=" ">
<polygon fill="white" stroke="#666666" points="1806,-200.5 1636,-200.5 1636,-181.5 1806,-181.5 1806,-200.5"/>
<text text-anchor="middle" x="1721" y="-188.5" font-family="Helvetica,sans-Serif" font-size="10.00">Samples/SampleHandlerFD.cpp</text>
</a>
</g>
</g>
<!-- Node37&#45;&gt;Node38 -->
<g id="edge50" class="edge">
<title>Node37&#45;&gt;Node38</title>
<path fill="none" stroke="#63b8ff" d="M1591.42,-243.51C1623.24,-230.86 1671.61,-211.63 1699.37,-200.6"/>
<polygon fill="#63b8ff" stroke="#63b8ff" points="1589.71,-240.42 1581.71,-247.37 1592.3,-246.93 1589.71,-240.42"/>
</g>
<!-- Node39 -->
<g id="node39" class="node">
<title>Node39</title>
<g id="a_node39"><a xlink:href="samples_8cpp.html" target="_top" xlink:title=" ">
<polygon fill="white" stroke="#666666" points="1617.5,-200.5 1502.5,-200.5 1502.5,-181.5 1617.5,-181.5 1617.5,-200.5"/>
<text text-anchor="middle" x="1560" y="-188.5" font-family="Helvetica,sans-Serif" font-size="10.00">python/samples.cpp</text>
</a>
</g>
</g>
<!-- Node37&#45;&gt;Node39 -->
<g id="edge51" class="edge">
<title>Node37&#45;&gt;Node39</title>
<path fill="none" stroke="#63b8ff" d="M1560,-237.08C1560,-225.13 1560,-210.22 1560,-200.91"/>
<polygon fill="#63b8ff" stroke="#63b8ff" points="1556.5,-237.37 1560,-247.37 1563.5,-237.37 1556.5,-237.37"/>
</g>
</g>
</svg>
        <g id="navigator" transform="translate(0 0)" fill="#404254">
                <rect fill="#f2f5e9" fill-opacity="0.5" stroke="#606060" stroke-width=".5" x="0" y="0" width="60" height="60"/>
                <use id="zoomplus" xlink:href="#zoomPlus" x="17" y="9" onmousedown="handleZoom(evt,'in')"/>
                <use id="zoomminus" xlink:href="#zoomMin" x="42" y="9" onmousedown="handleZoom(evt,'out')"/>
                <use id="reset" xlink:href="#resetDef" x="30" y="36" onmousedown="handleReset()"/>
                <g id="arrowUp" xlink:href="#dirArrow" transform="translate(30 24)" onmousedown="handlePan(0,-1)">
                  <use xlink:href="#rim" fill="#404040">
                        <set attributeName="fill" to="#808080" begin="arrowUp.mouseover" end="arrowUp.mouseout"/>
                  </use>
                  <path fill="none" stroke="white" stroke-width="1.5" d="M0,-3.0v7 M-2.5,-0.5L0,-3.0L2.5,-0.5"/>
                </g>
                <g id="arrowRight" xlink:href="#dirArrow" transform="rotate(90) translate(36 -43)" onmousedown="handlePan(1,0)">
                  <use xlink:href="#rim" fill="#404040">
                        <set attributeName="fill" to="#808080" begin="arrowRight.mouseover" end="arrowRight.mouseout"/>
                  </use>
                  <path fill="none" stroke="white" stroke-width="1.5" d="M0,-3.0v7 M-2.5,-0.5L0,-3.0L2.5,-0.5"/>
                </g>
                <g id="arrowDown" xlink:href="#dirArrow" transform="rotate(180) translate(-30 -48)" onmousedown="handlePan(0,1)">
                  <use xlink:href="#rim" fill="#404040">
                        <set attributeName="fill" to="#808080" begin="arrowDown.mouseover" end="arrowDown.mouseout"/>
                  </use>
                  <path fill="none" stroke="white" stroke-width="1.5" d="M0,-3.0v7 M-2.5,-0.5L0,-3.0L2.5,-0.5"/>
                </g>
                <g id="arrowLeft" xlink:href="#dirArrow" transform="rotate(270) translate(-36 17)" onmousedown="handlePan(-1,0)">
                  <use xlink:href="#rim" fill="#404040">
                        <set attributeName="fill" to="#808080" begin="arrowLeft.mouseover" end="arrowLeft.mouseout"/>
                  </use>
                  <path fill="none" stroke="white" stroke-width="1.5" d="M0,-3.0v7 M-2.5,-0.5L0,-3.0L2.5,-0.5"/>
                </g>
        </g>
        <svg viewBox="0 0 15 15" width="100%" height="30px" preserveAspectRatio="xMaxYMin meet">
         <g id="arrow_out" transform="scale(0.3 0.3)">
          <a xlink:href="HistogramUtils_8h__dep__incl_org.svg" target="_base">
           <rect id="button" ry="5" rx="5" y="6" x="6" height="38" width="38"
                fill="#f2f5e9" fill-opacity="0.5" stroke="#606060" stroke-width="1.0"/>
           <path id="arrow"
             d="M 11.500037,31.436501 C 11.940474,20.09759 22.043105,11.32322 32.158766,21.979434 L 37.068811,17.246167 C 37.068811,17.246167 37.088388,32 37.088388,32 L 22.160133,31.978069 C 22.160133,31.978069 26.997745,27.140456 26.997745,27.140456 C 18.528582,18.264221 13.291696,25.230495 11.500037,31.436501 z"
             style="fill:#404040;"/>
          </a>
         </g>
        </svg>
</svg>
