<?xml version="1.0" encoding="UTF-8" standalone="no"?>
<!DOCTYPE svg PUBLIC "-//W3C//DTD SVG 1.1//EN"
 "http://www.w3.org/Graphics/SVG/1.1/DTD/svg11.dtd">
<!-- Generated by graphviz version 2.44.0 (0)
 -->
<!-- Title: Samples/HistogramUtils.h Pages: 1 -->
<svg width="1992pt" height="509pt"
 viewBox="0.00 0.00 1991.50 509.00" xmlns="http://www.w3.org/2000/svg" xmlns:xlink="http://www.w3.org/1999/xlink">
<g id="graph0" class="graph" transform="scale(1 1) rotate(0) translate(4 505)">
<title>Samples/HistogramUtils.h</title>
<polygon fill="white" stroke="transparent" points="-4,4 -4,-505 1987.5,-505 1987.5,4 -4,4"/>
<!-- Node1 -->
<g id="node1" class="node">
<title>Node1</title>
<g id="a_node1"><a xlink:title=" ">
<polygon fill="#bfbfbf" stroke="black" points="1077,-481.5 1077,-500.5 1208,-500.5 1208,-481.5 1077,-481.5"/>
<text text-anchor="middle" x="1142.5" y="-488.5" font-family="Helvetica" font-size="10.00">Samples/HistogramUtils.h</text>
</a>
</g>
</g>
<!-- Node2 -->
<g id="node2" class="node">
<title>Node2</title>
<g id="a_node2"><a xlink:href="HistogramUtils_8cpp.html" target="_top" xlink:title=" ">
<polygon fill="white" stroke="black" points="868.5,-425.5 868.5,-444.5 1010.5,-444.5 1010.5,-425.5 868.5,-425.5"/>
<text text-anchor="middle" x="939.5" y="-432.5" font-family="Helvetica" font-size="10.00">Samples/HistogramUtils.cpp</text>
</a>
</g>
</g>
<!-- Node1&#45;&gt;Node2 -->
<g id="edge1" class="edge">
<title>Node1&#45;&gt;Node2</title>
<path fill="none" stroke="midnightblue" d="M1100.51,-478.83C1062.18,-468.63 1006.35,-453.78 971.52,-444.52"/>
<polygon fill="midnightblue" stroke="midnightblue" points="1099.77,-482.26 1110.33,-481.44 1101.57,-475.49 1099.77,-482.26"/>
</g>
<!-- Node3 -->
<g id="node3" class="node">
<title>Node3</title>
<g id="a_node3"><a xlink:href="SampleHandlerBase_8h.html" target="_top" xlink:title=" ">
<polygon fill="white" stroke="black" points="588,-369.5 588,-388.5 743,-388.5 743,-369.5 588,-369.5"/>
<text text-anchor="middle" x="665.5" y="-376.5" font-family="Helvetica" font-size="10.00">Samples/SampleHandlerBase.h</text>
</a>
</g>
</g>
<!-- Node1&#45;&gt;Node3 -->
<g id="edge2" class="edge">
<title>Node1&#45;&gt;Node3</title>
<path fill="none" stroke="midnightblue" d="M1117.77,-476.32C1084.89,-458.22 1029.72,-428.23 1019.5,-425 927.35,-395.86 816.06,-385.52 743.17,-381.89"/>
<polygon fill="midnightblue" stroke="midnightblue" points="1116.34,-479.53 1126.79,-481.29 1119.72,-473.4 1116.34,-479.53"/>
</g>
<!-- Node29 -->
<g id="node29" class="node">
<title>Node29</title>
<g id="a_node29"><a xlink:href="MCMCProcessor_8h.html" target="_top" xlink:title=" ">
<polygon fill="white" stroke="black" points="1292.5,-369.5 1292.5,-388.5 1424.5,-388.5 1424.5,-369.5 1292.5,-369.5"/>
<text text-anchor="middle" x="1358.5" y="-376.5" font-family="Helvetica" font-size="10.00">Fitters/MCMCProcessor.h</text>
</a>
</g>
</g>
<!-- Node1&#45;&gt;Node29 -->
<g id="edge38" class="edge">
<title>Node1&#45;&gt;Node29</title>
<path fill="none" stroke="midnightblue" d="M1177.33,-478.02C1200.05,-469.75 1230.09,-457.94 1255.5,-445 1289.98,-427.44 1327.8,-401.77 1346.56,-388.56"/>
<polygon fill="midnightblue" stroke="midnightblue" points="1176,-474.78 1167.77,-481.45 1178.36,-481.37 1176,-474.78"/>
</g>
<!-- Node31 -->
<g id="node31" class="node">
<title>Node31</title>
<g id="a_node31"><a xlink:href="OscProcessor_8h.html" target="_top" xlink:title=" ">
<polygon fill="white" stroke="black" points="1083,-308 1083,-327 1202,-327 1202,-308 1083,-308"/>
<text text-anchor="middle" x="1142.5" y="-315" font-family="Helvetica" font-size="10.00">Fitters/OscProcessor.h</text>
</a>
</g>
</g>
<!-- Node1&#45;&gt;Node31 -->
<g id="edge57" class="edge">
<title>Node1&#45;&gt;Node31</title>
<path fill="none" stroke="midnightblue" d="M1130.26,-472.83C1125.25,-464.79 1120.05,-454.82 1117.5,-445 1106.16,-401.22 1128.28,-347.77 1138.12,-327.17"/>
<polygon fill="midnightblue" stroke="midnightblue" points="1127.42,-474.89 1135.87,-481.27 1133.25,-471.01 1127.42,-474.89"/>
</g>
<!-- Node35 -->
<g id="node35" class="node">
<title>Node35</title>
<g id="a_node35"><a xlink:href="PlotMCMCDiag_8cpp.html" target="_top" xlink:title="KS: This script is used to analyse output form DiagMCMC.">
<polygon fill="white" stroke="black" points="1825.5,-308 1825.5,-327 1983.5,-327 1983.5,-308 1825.5,-308"/>
<text text-anchor="middle" x="1904.5" y="-315" font-family="Helvetica" font-size="10.00">Diagnostics/PlotMCMCDiag.cpp</text>
</a>
</g>
</g>
<!-- Node1&#45;&gt;Node35 -->
<g id="edge62" class="edge">
<title>Node1&#45;&gt;Node35</title>
<path fill="none" stroke="midnightblue" d="M1190.31,-479.24C1330.66,-447.65 1739.58,-355.62 1866.48,-327.06"/>
<polygon fill="midnightblue" stroke="midnightblue" points="1189.28,-475.88 1180.29,-481.5 1190.81,-482.71 1189.28,-475.88"/>
</g>
<!-- Node45 -->
<g id="node45" class="node">
<title>Node45</title>
<g id="a_node45"><a xlink:href="StatisticalUtils_8h.html" target="_top" xlink:title="Utility functions for statistical interpretations in MaCh3.">
<polygon fill="white" stroke="black" points="1126.5,-425.5 1126.5,-444.5 1246.5,-444.5 1246.5,-425.5 1126.5,-425.5"/>
<text text-anchor="middle" x="1186.5" y="-432.5" font-family="Helvetica" font-size="10.00">Fitters/StatisticalUtils.h</text>
</a>
</g>
</g>
<!-- Node1&#45;&gt;Node45 -->
<g id="edge58" class="edge">
<title>Node1&#45;&gt;Node45</title>
<path fill="none" stroke="midnightblue" d="M1156.23,-473.14C1163.9,-463.74 1173.13,-452.4 1179.37,-444.75"/>
<polygon fill="midnightblue" stroke="midnightblue" points="1153.37,-471.12 1149.77,-481.08 1158.8,-475.54 1153.37,-471.12"/>
</g>
<!-- Node4 -->
<g id="node4" class="node">
<title>Node4</title>
<g id="a_node4"><a xlink:href="SampleHandlerBase_8cpp.html" target="_top" xlink:title=" ">
<polygon fill="white" stroke="black" points="92.5,-308 92.5,-327 258.5,-327 258.5,-308 92.5,-308"/>
<text text-anchor="middle" x="175.5" y="-315" font-family="Helvetica" font-size="10.00">Samples/SampleHandlerBase.cpp</text>
</a>
</g>
</g>
<!-- Node3&#45;&gt;Node4 -->
<g id="edge3" class="edge">
<title>Node3&#45;&gt;Node4</title>
<path fill="none" stroke="midnightblue" d="M577.84,-369.2C497.1,-360.83 374.06,-347.41 267.5,-333 254.36,-331.22 240.2,-329.1 227.02,-327.03"/>
<polygon fill="midnightblue" stroke="midnightblue" points="577.65,-372.7 587.96,-370.25 578.37,-365.74 577.65,-372.7"/>
</g>
<!-- Node5 -->
<g id="node5" class="node">
<title>Node5</title>
<g id="a_node5"><a xlink:href="SampleHandlerFD_8h.html" target="_top" xlink:title=" ">
<polygon fill="white" stroke="black" points="276.5,-308 276.5,-327 422.5,-327 422.5,-308 276.5,-308"/>
<text text-anchor="middle" x="349.5" y="-315" font-family="Helvetica" font-size="10.00">Samples/SampleHandlerFD.h</text>
</a>
</g>
</g>
<!-- Node3&#45;&gt;Node5 -->
<g id="edge4" class="edge">
<title>Node3&#45;&gt;Node5</title>
<path fill="none" stroke="midnightblue" d="M610.36,-367.62C549.16,-356.09 451.55,-337.72 394.69,-327.01"/>
<polygon fill="midnightblue" stroke="midnightblue" points="609.75,-371.06 620.22,-369.48 611.05,-364.19 609.75,-371.06"/>
</g>
<!-- Node10 -->
<g id="node10" class="node">
<title>Node10</title>
<g id="a_node10"><a xlink:href="FitterBase_8h.html" target="_top" xlink:title=" ">
<polygon fill="white" stroke="black" points="615,-308 615,-327 716,-327 716,-308 615,-308"/>
<text text-anchor="middle" x="665.5" y="-315" font-family="Helvetica" font-size="10.00">Fitters/FitterBase.h</text>
</a>
</g>
</g>
<!-- Node3&#45;&gt;Node10 -->
<g id="edge9" class="edge">
<title>Node3&#45;&gt;Node10</title>
<path fill="none" stroke="midnightblue" d="M665.5,-359.32C665.5,-348.5 665.5,-335.4 665.5,-327.01"/>
<polygon fill="midnightblue" stroke="midnightblue" points="662,-359.48 665.5,-369.48 669,-359.48 662,-359.48"/>
</g>
<!-- Node27 -->
<g id="node27" class="node">
<title>Node27</title>
<g id="a_node27"><a xlink:href="SampleSummary_8h.html" target="_top" xlink:title=" ">
<polygon fill="white" stroke="black" points="921,-308 921,-327 1052,-327 1052,-308 921,-308"/>
<text text-anchor="middle" x="986.5" y="-315" font-family="Helvetica" font-size="10.00">Fitters/SampleSummary.h</text>
</a>
</g>
</g>
<!-- Node3&#45;&gt;Node27 -->
<g id="edge36" class="edge">
<title>Node3&#45;&gt;Node27</title>
<path fill="none" stroke="midnightblue" d="M721.52,-367.62C783.68,-356.09 882.83,-337.72 940.59,-327.01"/>
<polygon fill="midnightblue" stroke="midnightblue" points="720.69,-364.21 711.49,-369.48 721.96,-371.09 720.69,-364.21"/>
</g>
<!-- Node6 -->
<g id="node6" class="node">
<title>Node6</title>
<g id="a_node6"><a xlink:href="SampleHandlerFD_8cpp.html" target="_top" xlink:title=" ">
<polygon fill="white" stroke="black" points="0,-241 0,-260 157,-260 157,-241 0,-241"/>
<text text-anchor="middle" x="78.5" y="-248" font-family="Helvetica" font-size="10.00">Samples/SampleHandlerFD.cpp</text>
</a>
</g>
</g>
<!-- Node5&#45;&gt;Node6 -->
<g id="edge5" class="edge">
<title>Node5&#45;&gt;Node6</title>
<path fill="none" stroke="midnightblue" d="M303.91,-305.56C250.48,-292.75 163.07,-271.78 114.29,-260.08"/>
<polygon fill="midnightblue" stroke="midnightblue" points="303.25,-309.01 313.79,-307.94 304.88,-302.2 303.25,-309.01"/>
</g>
<!-- Node7 -->
<g id="node7" class="node">
<title>Node7</title>
<g id="a_node7"><a xlink:href="FitterBase_8cpp.html" target="_top" xlink:title=" ">
<polygon fill="white" stroke="black" points="335.5,-241 335.5,-260 447.5,-260 447.5,-241 335.5,-241"/>
<text text-anchor="middle" x="391.5" y="-248" font-family="Helvetica" font-size="10.00">Fitters/FitterBase.cpp</text>
</a>
</g>
</g>
<!-- Node5&#45;&gt;Node7 -->
<g id="edge6" class="edge">
<title>Node5&#45;&gt;Node7</title>
<path fill="none" stroke="midnightblue" d="M360.79,-299.03C368.92,-286.45 379.54,-270.01 385.93,-260.13"/>
<polygon fill="midnightblue" stroke="midnightblue" points="357.65,-297.44 355.16,-307.73 363.53,-301.23 357.65,-297.44"/>
</g>
<!-- Node8 -->
<g id="node8" class="node">
<title>Node8</title>
<g id="a_node8"><a xlink:href="PredictiveThrower_8cpp.html" target="_top" xlink:title=" ">
<polygon fill="white" stroke="black" points="300.5,-174 300.5,-193 444.5,-193 444.5,-174 300.5,-174"/>
<text text-anchor="middle" x="372.5" y="-181" font-family="Helvetica" font-size="10.00">Fitters/PredictiveThrower.cpp</text>
</a>
</g>
</g>
<!-- Node5&#45;&gt;Node8 -->
<g id="edge7" class="edge">
<title>Node5&#45;&gt;Node8</title>
<path fill="none" stroke="midnightblue" d="M338.13,-299.07C328.73,-282.35 318.16,-256.55 326.5,-235 333.35,-217.3 349.61,-202 360.84,-193.01"/>
<polygon fill="midnightblue" stroke="midnightblue" points="335.21,-301.01 343.38,-307.76 341.21,-297.39 335.21,-301.01"/>
</g>
<!-- Node9 -->
<g id="node9" class="node">
<title>Node9</title>
<g id="a_node9"><a xlink:href="samples_8cpp.html" target="_top" xlink:title=" ">
<polygon fill="white" stroke="black" points="175.5,-241 175.5,-260 279.5,-260 279.5,-241 175.5,-241"/>
<text text-anchor="middle" x="227.5" y="-248" font-family="Helvetica" font-size="10.00">python/samples.cpp</text>
</a>
</g>
</g>
<!-- Node5&#45;&gt;Node9 -->
<g id="edge8" class="edge">
<title>Node5&#45;&gt;Node9</title>
<path fill="none" stroke="midnightblue" d="M324.36,-303.1C300.19,-290.23 264.4,-271.16 243.77,-260.17"/>
<polygon fill="midnightblue" stroke="midnightblue" points="322.83,-306.26 333.3,-307.87 326.12,-300.08 322.83,-306.26"/>
</g>
<!-- Node10&#45;&gt;Node7 -->
<g id="edge10" class="edge">
<title>Node10&#45;&gt;Node7</title>
<path fill="none" stroke="midnightblue" d="M619.4,-305.56C565.38,-292.75 477.01,-271.78 427.68,-260.08"/>
<polygon fill="midnightblue" stroke="midnightblue" points="618.86,-309.03 629.4,-307.94 620.48,-302.22 618.86,-309.03"/>
</g>
<!-- Node11 -->
<g id="node11" class="node">
<title>Node11</title>
<g id="a_node11"><a xlink:href="LikelihoodFit_8h.html" target="_top" xlink:title=" ">
<polygon fill="white" stroke="black" points="524.5,-174 524.5,-193 634.5,-193 634.5,-174 524.5,-174"/>
<text text-anchor="middle" x="579.5" y="-181" font-family="Helvetica" font-size="10.00">Fitters/LikelihoodFit.h</text>
</a>
</g>
</g>
<!-- Node10&#45;&gt;Node11 -->
<g id="edge11" class="edge">
<title>Node10&#45;&gt;Node11</title>
<path fill="none" stroke="midnightblue" d="M654.29,-299.29C635.66,-270.69 598.99,-214.41 585.05,-193.02"/>
<polygon fill="midnightblue" stroke="midnightblue" points="651.47,-301.37 659.86,-307.84 657.33,-297.55 651.47,-301.37"/>
</g>
<!-- Node13 -->
<g id="node13" class="node">
<title>Node13</title>
<g id="a_node13"><a xlink:href="MaCh3Factory_8h.html" target="_top" xlink:title="Factory methods for MaCh3 software which streamline initialisation of different objects.">
<polygon fill="white" stroke="black" points="870,-56.5 870,-75.5 991,-75.5 991,-56.5 870,-56.5"/>
<text text-anchor="middle" x="930.5" y="-63.5" font-family="Helvetica" font-size="10.00">Fitters/MaCh3Factory.h</text>
</a>
</g>
</g>
<!-- Node10&#45;&gt;Node13 -->
<g id="edge22" class="edge">
<title>Node10&#45;&gt;Node13</title>
<path fill="none" stroke="midnightblue" d="M707.19,-305.08C737.82,-296.08 780.08,-282.33 815.5,-266 865.77,-242.83 999.66,-180.96 1025.5,-132 1040.47,-103.63 999.33,-85.29 966.55,-75.54"/>
<polygon fill="midnightblue" stroke="midnightblue" points="705.91,-301.81 697.28,-307.95 707.86,-308.54 705.91,-301.81"/>
</g>
<!-- Node17 -->
<g id="node17" class="node">
<title>Node17</title>
<g id="a_node17"><a xlink:href="fitters_8cpp.html" target="_top" xlink:title=" ">
<polygon fill="white" stroke="black" points="606,-56.5 606,-75.5 699,-75.5 699,-56.5 606,-56.5"/>
<text text-anchor="middle" x="652.5" y="-63.5" font-family="Helvetica" font-size="10.00">python/fitters.cpp</text>
</a>
</g>
</g>
<!-- Node10&#45;&gt;Node17 -->
<g id="edge35" class="edge">
<title>Node10&#45;&gt;Node17</title>
<path fill="none" stroke="midnightblue" d="M664.53,-297.84C661.91,-247.64 654.8,-111.1 652.95,-75.55"/>
<polygon fill="midnightblue" stroke="midnightblue" points="661.04,-298.11 665.05,-307.91 668.03,-297.74 661.04,-298.11"/>
</g>
<!-- Node20 -->
<g id="node20" class="node">
<title>Node20</title>
<g id="a_node20"><a xlink:href="MCMCBase_8h.html" target="_top" xlink:title=" ">
<polygon fill="white" stroke="black" points="696.5,-241 696.5,-260 806.5,-260 806.5,-241 696.5,-241"/>
<text text-anchor="middle" x="751.5" y="-248" font-family="Helvetica" font-size="10.00">Fitters/MCMCBase.h</text>
</a>
</g>
</g>
<!-- Node10&#45;&gt;Node20 -->
<g id="edge23" class="edge">
<title>Node10&#45;&gt;Node20</title>
<path fill="none" stroke="midnightblue" d="M685.26,-301.57C702.23,-288.74 726.12,-270.69 740.09,-260.13"/>
<polygon fill="midnightblue" stroke="midnightblue" points="682.97,-298.91 677.1,-307.73 687.19,-304.5 682.97,-298.91"/>
</g>
<!-- Node26 -->
<g id="node26" class="node">
<title>Node26</title>
<g id="a_node26"><a xlink:href="PredictiveThrower_8h.html" target="_top" xlink:title=" ">
<polygon fill="white" stroke="black" points="465.5,-241 465.5,-260 599.5,-260 599.5,-241 465.5,-241"/>
<text text-anchor="middle" x="532.5" y="-248" font-family="Helvetica" font-size="10.00">Fitters/PredictiveThrower.h</text>
</a>
</g>
</g>
<!-- Node10&#45;&gt;Node26 -->
<g id="edge33" class="edge">
<title>Node10&#45;&gt;Node26</title>
<path fill="none" stroke="midnightblue" d="M638.78,-303.44C612.44,-290.57 572.93,-271.26 550.23,-260.17"/>
<polygon fill="midnightblue" stroke="midnightblue" points="637.32,-306.62 647.84,-307.87 640.39,-300.33 637.32,-306.62"/>
</g>
<!-- Node12 -->
<g id="node12" class="node">
<title>Node12</title>
<g id="a_node12"><a xlink:href="LikelihoodFit_8cpp.html" target="_top" xlink:title=" ">
<polygon fill="white" stroke="black" points="410.5,-112.5 410.5,-131.5 530.5,-131.5 530.5,-112.5 410.5,-112.5"/>
<text text-anchor="middle" x="470.5" y="-119.5" font-family="Helvetica" font-size="10.00">Fitters/LikelihoodFit.cpp</text>
</a>
</g>
</g>
<!-- Node11&#45;&gt;Node12 -->
<g id="edge12" class="edge">
<title>Node11&#45;&gt;Node12</title>
<path fill="none" stroke="midnightblue" d="M554.87,-169.06C533.78,-157.54 504.04,-141.31 486.09,-131.51"/>
<polygon fill="midnightblue" stroke="midnightblue" points="553.43,-172.26 563.88,-173.98 556.78,-166.11 553.43,-172.26"/>
</g>
<!-- Node11&#45;&gt;Node13 -->
<g id="edge13" class="edge">
<title>Node11&#45;&gt;Node13</title>
<path fill="none" stroke="midnightblue" d="M644.56,-172.31C719.53,-160.28 834.86,-140.81 853.5,-132 882.92,-118.09 910.24,-90.08 922.98,-75.8"/>
<polygon fill="midnightblue" stroke="midnightblue" points="643.59,-168.92 634.27,-173.95 644.69,-175.83 643.59,-168.92"/>
</g>
<!-- Node15 -->
<g id="node15" class="node">
<title>Node15</title>
<g id="a_node15"><a xlink:href="MinuitFit_8h.html" target="_top" xlink:title=" ">
<polygon fill="white" stroke="black" points="299,-112.5 299,-131.5 392,-131.5 392,-112.5 299,-112.5"/>
<text text-anchor="middle" x="345.5" y="-119.5" font-family="Helvetica" font-size="10.00">Fitters/MinuitFit.h</text>
</a>
</g>
</g>
<!-- Node11&#45;&gt;Node15 -->
<g id="edge15" class="edge">
<title>Node11&#45;&gt;Node15</title>
<path fill="none" stroke="midnightblue" d="M536.12,-171.47C490.68,-159.91 420.29,-142.02 378.96,-131.51"/>
<polygon fill="midnightblue" stroke="midnightblue" points="535.42,-174.9 545.97,-173.98 537.14,-168.12 535.42,-174.9"/>
</g>
<!-- Node18 -->
<g id="node18" class="node">
<title>Node18</title>
<g id="a_node18"><a xlink:href="PSO_8h.html" target="_top" xlink:title=" ">
<polygon fill="white" stroke="black" points="549,-112.5 549,-131.5 626,-131.5 626,-112.5 549,-112.5"/>
<text text-anchor="middle" x="587.5" y="-119.5" font-family="Helvetica" font-size="10.00">Fitters/PSO.h</text>
</a>
</g>
</g>
<!-- Node11&#45;&gt;Node18 -->
<g id="edge18" class="edge">
<title>Node11&#45;&gt;Node18</title>
<path fill="none" stroke="midnightblue" d="M582.01,-163.82C583.47,-153 585.23,-139.9 586.36,-131.51"/>
<polygon fill="midnightblue" stroke="midnightblue" points="578.51,-163.6 580.65,-173.98 585.45,-164.53 578.51,-163.6"/>
</g>
<!-- Node14 -->
<g id="node14" class="node">
<title>Node14</title>
<g id="a_node14"><a xlink:href="MaCh3Factory_8cpp.html" target="_top" xlink:title=" ">
<polygon fill="white" stroke="black" points="865,-0.5 865,-19.5 996,-19.5 996,-0.5 865,-0.5"/>
<text text-anchor="middle" x="930.5" y="-7.5" font-family="Helvetica" font-size="10.00">Fitters/MaCh3Factory.cpp</text>
</a>
</g>
</g>
<!-- Node13&#45;&gt;Node14 -->
<g id="edge14" class="edge">
<title>Node13&#45;&gt;Node14</title>
<path fill="none" stroke="midnightblue" d="M930.5,-45.8C930.5,-36.91 930.5,-26.78 930.5,-19.75"/>
<polygon fill="midnightblue" stroke="midnightblue" points="927,-46.08 930.5,-56.08 934,-46.08 927,-46.08"/>
</g>
<!-- Node16 -->
<g id="node16" class="node">
<title>Node16</title>
<g id="a_node16"><a xlink:href="MinuitFit_8cpp.html" target="_top" xlink:title=" ">
<polygon fill="white" stroke="black" points="293.5,-56.5 293.5,-75.5 397.5,-75.5 397.5,-56.5 293.5,-56.5"/>
<text text-anchor="middle" x="345.5" y="-63.5" font-family="Helvetica" font-size="10.00">Fitters/MinuitFit.cpp</text>
</a>
</g>
</g>
<!-- Node15&#45;&gt;Node16 -->
<g id="edge16" class="edge">
<title>Node15&#45;&gt;Node16</title>
<path fill="none" stroke="midnightblue" d="M345.5,-101.8C345.5,-92.91 345.5,-82.78 345.5,-75.75"/>
<polygon fill="midnightblue" stroke="midnightblue" points="342,-102.08 345.5,-112.08 349,-102.08 342,-102.08"/>
</g>
<!-- Node15&#45;&gt;Node17 -->
<g id="edge17" class="edge">
<title>Node15&#45;&gt;Node17</title>
<path fill="none" stroke="midnightblue" d="M402.33,-111C460.98,-100.69 551.37,-84.79 605.94,-75.19"/>
<polygon fill="midnightblue" stroke="midnightblue" points="401.37,-107.62 392.13,-112.8 402.58,-114.51 401.37,-107.62"/>
</g>
<!-- Node18&#45;&gt;Node13 -->
<g id="edge19" class="edge">
<title>Node18&#45;&gt;Node13</title>
<path fill="none" stroke="midnightblue" d="M636.34,-113.31C699.87,-103.31 810.52,-85.89 876.5,-75.5"/>
<polygon fill="midnightblue" stroke="midnightblue" points="635.51,-109.9 626.18,-114.91 636.6,-116.81 635.51,-109.9"/>
</g>
<!-- Node18&#45;&gt;Node17 -->
<g id="edge21" class="edge">
<title>Node18&#45;&gt;Node17</title>
<path fill="none" stroke="midnightblue" d="M605.77,-105.82C617.42,-96.15 632.1,-83.95 641.87,-75.83"/>
<polygon fill="midnightblue" stroke="midnightblue" points="603.4,-103.24 597.94,-112.32 607.87,-108.63 603.4,-103.24"/>
</g>
<!-- Node19 -->
<g id="node19" class="node">
<title>Node19</title>
<g id="a_node19"><a xlink:href="PSO_8cpp.html" target="_top" xlink:title=" ">
<polygon fill="white" stroke="black" points="499.5,-56.5 499.5,-75.5 587.5,-75.5 587.5,-56.5 499.5,-56.5"/>
<text text-anchor="middle" x="543.5" y="-63.5" font-family="Helvetica" font-size="10.00">Fitters/PSO.cpp</text>
</a>
</g>
</g>
<!-- Node18&#45;&gt;Node19 -->
<g id="edge20" class="edge">
<title>Node18&#45;&gt;Node19</title>
<path fill="none" stroke="midnightblue" d="M573.77,-104.14C566.1,-94.74 556.87,-83.4 550.63,-75.75"/>
<polygon fill="midnightblue" stroke="midnightblue" points="571.2,-106.54 580.23,-112.08 576.63,-102.12 571.2,-106.54"/>
</g>
<!-- Node21 -->
<g id="node21" class="node">
<title>Node21</title>
<g id="a_node21"><a xlink:href="MCMCBase_8cpp.html" target="_top" xlink:title=" ">
<polygon fill="white" stroke="black" points="691,-174 691,-193 812,-193 812,-174 691,-174"/>
<text text-anchor="middle" x="751.5" y="-181" font-family="Helvetica" font-size="10.00">Fitters/MCMCBase.cpp</text>
</a>
</g>
</g>
<!-- Node20&#45;&gt;Node21 -->
<g id="edge24" class="edge">
<title>Node20&#45;&gt;Node21</title>
<path fill="none" stroke="midnightblue" d="M751.5,-230.54C751.5,-218.17 751.5,-202.62 751.5,-193.13"/>
<polygon fill="midnightblue" stroke="midnightblue" points="748,-230.73 751.5,-240.73 755,-230.73 748,-230.73"/>
</g>
<!-- Node22 -->
<g id="node22" class="node">
<title>Node22</title>
<g id="a_node22"><a xlink:href="MR2T2_8h.html" target="_top" xlink:title=" ">
<polygon fill="white" stroke="black" points="830,-174 830,-193 919,-193 919,-174 830,-174"/>
<text text-anchor="middle" x="874.5" y="-181" font-family="Helvetica" font-size="10.00">Fitters/MR2T2.h</text>
</a>
</g>
</g>
<!-- Node20&#45;&gt;Node22 -->
<g id="edge25" class="edge">
<title>Node20&#45;&gt;Node22</title>
<path fill="none" stroke="midnightblue" d="M776.85,-236.1C801.21,-223.23 837.3,-204.16 858.1,-193.17"/>
<polygon fill="midnightblue" stroke="midnightblue" points="775.04,-233.1 767.83,-240.87 778.31,-239.29 775.04,-233.1"/>
</g>
<!-- Node22&#45;&gt;Node13 -->
<g id="edge30" class="edge">
<title>Node22&#45;&gt;Node13</title>
<path fill="none" stroke="midnightblue" d="M929.2,-176.61C957.87,-170.42 990.66,-157.79 1008.5,-132 1025.65,-107.21 985.09,-86.54 956.26,-75.54"/>
<polygon fill="midnightblue" stroke="midnightblue" points="928.4,-173.19 919.25,-178.54 929.74,-180.07 928.4,-173.19"/>
</g>
<!-- Node22&#45;&gt;Node17 -->
<g id="edge32" class="edge">
<title>Node22&#45;&gt;Node17</title>
<path fill="none" stroke="midnightblue" d="M834.27,-171.24C789.5,-158.52 722.04,-138.71 711.5,-132 687.59,-116.77 667.28,-89.36 657.96,-75.51"/>
<polygon fill="midnightblue" stroke="midnightblue" points="833.43,-174.64 844,-173.99 835.33,-167.9 833.43,-174.64"/>
</g>
<!-- Node23 -->
<g id="node23" class="node">
<title>Node23</title>
<g id="a_node23"><a xlink:href="DelayedMR2T2_8h.html" target="_top" xlink:title=" ">
<polygon fill="white" stroke="black" points="720.5,-112.5 720.5,-131.5 844.5,-131.5 844.5,-112.5 720.5,-112.5"/>
<text text-anchor="middle" x="782.5" y="-119.5" font-family="Helvetica" font-size="10.00">Fitters/DelayedMR2T2.h</text>
</a>
</g>
</g>
<!-- Node22&#45;&gt;Node23 -->
<g id="edge26" class="edge">
<title>Node22&#45;&gt;Node23</title>
<path fill="none" stroke="midnightblue" d="M852.74,-168.43C835.01,-156.96 810.54,-141.13 795.66,-131.51"/>
<polygon fill="midnightblue" stroke="midnightblue" points="851.02,-171.48 861.32,-173.98 854.82,-165.61 851.02,-171.48"/>
</g>
<!-- Node25 -->
<g id="node25" class="node">
<title>Node25</title>
<g id="a_node25"><a xlink:href="MR2T2_8cpp.html" target="_top" xlink:title=" ">
<polygon fill="white" stroke="black" points="901,-112.5 901,-131.5 1000,-131.5 1000,-112.5 901,-112.5"/>
<text text-anchor="middle" x="950.5" y="-119.5" font-family="Helvetica" font-size="10.00">Fitters/MR2T2.cpp</text>
</a>
</g>
</g>
<!-- Node22&#45;&gt;Node25 -->
<g id="edge31" class="edge">
<title>Node22&#45;&gt;Node25</title>
<path fill="none" stroke="midnightblue" d="M893.28,-167.79C907.86,-156.38 927.56,-140.96 939.63,-131.51"/>
<polygon fill="midnightblue" stroke="midnightblue" points="891.11,-165.05 885.39,-173.98 895.42,-170.57 891.11,-165.05"/>
</g>
<!-- Node23&#45;&gt;Node13 -->
<g id="edge28" class="edge">
<title>Node23&#45;&gt;Node13</title>
<path fill="none" stroke="midnightblue" d="M815.65,-108.91C843.47,-98.75 882.52,-84.51 907.16,-75.52"/>
<polygon fill="midnightblue" stroke="midnightblue" points="814.15,-105.73 805.95,-112.44 816.54,-112.3 814.15,-105.73"/>
</g>
<!-- Node23&#45;&gt;Node17 -->
<g id="edge29" class="edge">
<title>Node23&#45;&gt;Node17</title>
<path fill="none" stroke="midnightblue" d="M752.41,-108.5C728.04,-98.38 694.36,-84.39 673,-75.52"/>
<polygon fill="midnightblue" stroke="midnightblue" points="751.32,-111.84 761.9,-112.44 754.01,-105.38 751.32,-111.84"/>
</g>
<!-- Node24 -->
<g id="node24" class="node">
<title>Node24</title>
<g id="a_node24"><a xlink:href="DelayedMR2T2_8cpp.html" target="_top" xlink:title=" ">
<polygon fill="white" stroke="black" points="717.5,-56.5 717.5,-75.5 851.5,-75.5 851.5,-56.5 717.5,-56.5"/>
<text text-anchor="middle" x="784.5" y="-63.5" font-family="Helvetica" font-size="10.00">Fitters/DelayedMR2T2.cpp</text>
</a>
</g>
</g>
<!-- Node23&#45;&gt;Node24 -->
<g id="edge27" class="edge">
<title>Node23&#45;&gt;Node24</title>
<path fill="none" stroke="midnightblue" d="M783.21,-101.8C783.54,-92.91 783.92,-82.78 784.18,-75.75"/>
<polygon fill="midnightblue" stroke="midnightblue" points="779.7,-101.96 782.83,-112.08 786.7,-102.22 779.7,-101.96"/>
</g>
<!-- Node26&#45;&gt;Node8 -->
<g id="edge34" class="edge">
<title>Node26&#45;&gt;Node8</title>
<path fill="none" stroke="midnightblue" d="M501.99,-237.1C470.22,-224.2 421.31,-204.33 393.58,-193.06"/>
<polygon fill="midnightblue" stroke="midnightblue" points="500.67,-240.35 511.25,-240.87 503.31,-233.86 500.67,-240.35"/>
</g>
<!-- Node28 -->
<g id="node28" class="node">
<title>Node28</title>
<g id="a_node28"><a xlink:href="SampleSummary_8cpp.html" target="_top" xlink:title=" ">
<polygon fill="white" stroke="black" points="903.5,-241 903.5,-260 1045.5,-260 1045.5,-241 903.5,-241"/>
<text text-anchor="middle" x="974.5" y="-248" font-family="Helvetica" font-size="10.00">Fitters/SampleSummary.cpp</text>
</a>
</g>
</g>
<!-- Node27&#45;&gt;Node28 -->
<g id="edge37" class="edge">
<title>Node27&#45;&gt;Node28</title>
<path fill="none" stroke="midnightblue" d="M983,-297.54C980.72,-285.17 977.85,-269.62 976.09,-260.13"/>
<polygon fill="midnightblue" stroke="midnightblue" points="979.62,-298.54 984.88,-307.73 986.51,-297.26 979.62,-298.54"/>
</g>
<!-- Node29&#45;&gt;Node10 -->
<g id="edge39" class="edge">
<title>Node29&#45;&gt;Node10</title>
<path fill="none" stroke="midnightblue" d="M1282.2,-369.01C1065.07,-347.43 820.34,-329.4 716.34,-322.04"/>
<polygon fill="midnightblue" stroke="midnightblue" points="1281.9,-372.49 1292.2,-370.01 1282.59,-365.53 1281.9,-372.49"/>
</g>
<!-- Node29&#45;&gt;Node27 -->
<g id="edge44" class="edge">
<title>Node29&#45;&gt;Node27</title>
<path fill="none" stroke="midnightblue" d="M1293.49,-367.9C1235.71,-358.88 1148.95,-345.24 1073.5,-333 1061.71,-331.09 1049.03,-328.99 1037.09,-327.01"/>
<polygon fill="midnightblue" stroke="midnightblue" points="1293.16,-371.39 1303.58,-369.47 1294.23,-364.47 1293.16,-371.39"/>
</g>
<!-- Node30 -->
<g id="node30" class="node">
<title>Node30</title>
<g id="a_node30"><a xlink:href="MCMCProcessor_8cpp.html" target="_top" xlink:title=" ">
<polygon fill="white" stroke="black" points="1505,-308 1505,-327 1648,-327 1648,-308 1505,-308"/>
<text text-anchor="middle" x="1576.5" y="-315" font-family="Helvetica" font-size="10.00">Fitters/MCMCProcessor.cpp</text>
</a>
</g>
</g>
<!-- Node29&#45;&gt;Node30 -->
<g id="edge40" class="edge">
<title>Node29&#45;&gt;Node30</title>
<path fill="none" stroke="midnightblue" d="M1399.45,-366.82C1441.8,-355.26 1506.98,-337.47 1545.32,-327.01"/>
<polygon fill="midnightblue" stroke="midnightblue" points="1398.46,-363.47 1389.73,-369.48 1400.3,-370.22 1398.46,-363.47"/>
</g>
<!-- Node29&#45;&gt;Node31 -->
<g id="edge41" class="edge">
<title>Node29&#45;&gt;Node31</title>
<path fill="none" stroke="midnightblue" d="M1317.66,-366.75C1275.69,-355.19 1211.3,-337.45 1173.39,-327.01"/>
<polygon fill="midnightblue" stroke="midnightblue" points="1316.98,-370.19 1327.55,-369.48 1318.84,-363.44 1316.98,-370.19"/>
</g>
<!-- Node34 -->
<g id="node34" class="node">
<title>Node34</title>
<g id="a_node34"><a xlink:href="DiagMCMC_8cpp.html" target="_top" xlink:title=" ">
<polygon fill="white" stroke="black" points="1666,-308 1666,-327 1807,-327 1807,-308 1666,-308"/>
<text text-anchor="middle" x="1736.5" y="-315" font-family="Helvetica" font-size="10.00">Diagnostics/DiagMCMC.cpp</text>
</a>
</g>
</g>
<!-- Node29&#45;&gt;Node34 -->
<g id="edge45" class="edge">
<title>Node29&#45;&gt;Node34</title>
<path fill="none" stroke="midnightblue" d="M1428.7,-367.99C1489.15,-359.24 1578.68,-345.93 1656.5,-333 1667.64,-331.15 1679.63,-329.04 1690.85,-327.01"/>
<polygon fill="midnightblue" stroke="midnightblue" points="1427.91,-364.57 1418.51,-369.47 1428.91,-371.5 1427.91,-364.57"/>
</g>
<!-- Node29&#45;&gt;Node35 -->
<g id="edge46" class="edge">
<title>Node29&#45;&gt;Node35</title>
<path fill="none" stroke="midnightblue" d="M1435.09,-371.95C1526,-364.42 1682.1,-350.42 1815.5,-333 1828.54,-331.3 1842.6,-329.15 1855.62,-327.04"/>
<polygon fill="midnightblue" stroke="midnightblue" points="1434.55,-368.48 1424.87,-372.79 1435.12,-375.46 1434.55,-368.48"/>
</g>
<!-- Node36 -->
<g id="node36" class="node">
<title>Node36</title>
<g id="a_node36"><a xlink:href="SmearChain_8cpp.html" target="_top" xlink:title=" ">
<polygon fill="white" stroke="black" points="1220.5,-308 1220.5,-327 1364.5,-327 1364.5,-308 1220.5,-308"/>
<text text-anchor="middle" x="1292.5" y="-315" font-family="Helvetica" font-size="10.00">Diagnostics/SmearChain.cpp</text>
</a>
</g>
</g>
<!-- Node29&#45;&gt;Node36 -->
<g id="edge47" class="edge">
<title>Node29&#45;&gt;Node36</title>
<path fill="none" stroke="midnightblue" d="M1341.47,-362.65C1328.89,-351.31 1312.22,-336.28 1301.94,-327.01"/>
<polygon fill="midnightblue" stroke="midnightblue" points="1339.27,-365.38 1349.04,-369.48 1343.96,-360.18 1339.27,-365.38"/>
</g>
<!-- Node37 -->
<g id="node37" class="node">
<title>Node37</title>
<g id="a_node37"><a xlink:href="inputManager_8h.html" target="_top" xlink:title=" ">
<polygon fill="white" stroke="black" points="1382.5,-302.5 1382.5,-332.5 1486.5,-332.5 1486.5,-302.5 1382.5,-302.5"/>
<text text-anchor="start" x="1390.5" y="-320.5" font-family="Helvetica" font-size="10.00">Plotting/plottingUtils</text>
<text text-anchor="middle" x="1434.5" y="-309.5" font-family="Helvetica" font-size="10.00">/inputManager.h</text>
</a>
</g>
</g>
<!-- Node29&#45;&gt;Node37 -->
<g id="edge48" class="edge">
<title>Node29&#45;&gt;Node37</title>
<path fill="none" stroke="midnightblue" d="M1377.41,-363.2C1389.39,-353.81 1404.8,-341.75 1416.59,-332.52"/>
<polygon fill="midnightblue" stroke="midnightblue" points="1375.11,-360.55 1369.39,-369.48 1379.42,-366.07 1375.11,-360.55"/>
</g>
<!-- Node32 -->
<g id="node32" class="node">
<title>Node32</title>
<g id="a_node32"><a xlink:href="OscProcessor_8cpp.html" target="_top" xlink:title=" ">
<polygon fill="white" stroke="black" points="1239,-241 1239,-260 1368,-260 1368,-241 1239,-241"/>
<text text-anchor="middle" x="1303.5" y="-248" font-family="Helvetica" font-size="10.00">Fitters/OscProcessor.cpp</text>
</a>
</g>
</g>
<!-- Node31&#45;&gt;Node32 -->
<g id="edge42" class="edge">
<title>Node31&#45;&gt;Node32</title>
<path fill="none" stroke="midnightblue" d="M1173.2,-304.1C1205.17,-291.2 1254.39,-271.33 1282.29,-260.06"/>
<polygon fill="midnightblue" stroke="midnightblue" points="1171.84,-300.88 1163.88,-307.87 1174.46,-307.37 1171.84,-300.88"/>
</g>
<!-- Node33 -->
<g id="node33" class="node">
<title>Node33</title>
<g id="a_node33"><a xlink:href="ProcessMCMC_8cpp.html" target="_top" xlink:title="Main exectable responsible for different types of MCMC processing like drawing posteriors,...">
<polygon fill="white" stroke="black" points="1064,-241 1064,-260 1221,-260 1221,-241 1064,-241"/>
<text text-anchor="middle" x="1142.5" y="-248" font-family="Helvetica" font-size="10.00">Diagnostics/ProcessMCMC.cpp</text>
</a>
</g>
</g>
<!-- Node31&#45;&gt;Node33 -->
<g id="edge43" class="edge">
<title>Node31&#45;&gt;Node33</title>
<path fill="none" stroke="midnightblue" d="M1142.5,-297.54C1142.5,-285.17 1142.5,-269.62 1142.5,-260.13"/>
<polygon fill="midnightblue" stroke="midnightblue" points="1139,-297.73 1142.5,-307.73 1146,-297.73 1139,-297.73"/>
</g>
<!-- Node38 -->
<g id="node38" class="node">
<title>Node38</title>
<g id="a_node38"><a xlink:href="inputManager_8cpp.html" target="_top" xlink:title=" ">
<polygon fill="white" stroke="black" points="1386.5,-235.5 1386.5,-265.5 1490.5,-265.5 1490.5,-235.5 1386.5,-235.5"/>
<text text-anchor="start" x="1394.5" y="-253.5" font-family="Helvetica" font-size="10.00">Plotting/plottingUtils</text>
<text text-anchor="middle" x="1438.5" y="-242.5" font-family="Helvetica" font-size="10.00">/inputManager.cpp</text>
</a>
</g>
</g>
<!-- Node37&#45;&gt;Node38 -->
<g id="edge49" class="edge">
<title>Node37&#45;&gt;Node38</title>
<path fill="none" stroke="midnightblue" d="M1435.98,-292.4C1436.54,-283.37 1437.15,-273.41 1437.63,-265.58"/>
<polygon fill="midnightblue" stroke="midnightblue" points="1432.49,-292.2 1435.37,-302.4 1439.48,-292.63 1432.49,-292.2"/>
</g>
<!-- Node39 -->
<g id="node39" class="node">
<title>Node39</title>
<g id="a_node39"><a xlink:href="plottingManager_8h.html" target="_top" xlink:title=" ">
<polygon fill="white" stroke="black" points="1508.5,-235.5 1508.5,-265.5 1612.5,-265.5 1612.5,-235.5 1508.5,-235.5"/>
<text text-anchor="start" x="1516.5" y="-253.5" font-family="Helvetica" font-size="10.00">Plotting/plottingUtils</text>
<text text-anchor="middle" x="1560.5" y="-242.5" font-family="Helvetica" font-size="10.00">/plottingManager.h</text>
</a>
</g>
</g>
<!-- Node37&#45;&gt;Node39 -->
<g id="edge50" class="edge">
<title>Node37&#45;&gt;Node39</title>
<path fill="none" stroke="midnightblue" d="M1470.92,-297.71C1490.79,-287.46 1514.98,-274.98 1533.21,-265.58"/>
<polygon fill="midnightblue" stroke="midnightblue" points="1469.12,-294.7 1461.84,-302.4 1472.33,-300.92 1469.12,-294.7"/>
</g>
<!-- Node44 -->
<g id="node44" class="node">
<title>Node44</title>
<g id="a_node44"><a xlink:href="plotting_8cpp.html" target="_top" xlink:title=" ">
<polygon fill="white" stroke="black" points="1659,-174 1659,-193 1758,-193 1758,-174 1659,-174"/>
<text text-anchor="middle" x="1708.5" y="-181" font-family="Helvetica" font-size="10.00">python/plotting.cpp</text>
</a>
</g>
</g>
<!-- Node37&#45;&gt;Node44 -->
<g id="edge56" class="edge">
<title>Node37&#45;&gt;Node44</title>
<path fill="none" stroke="midnightblue" d="M1496.61,-301.32C1546.61,-288.83 1610.35,-272.21 1621.5,-266 1656.58,-246.46 1688.45,-209.73 1701.83,-193.09"/>
<polygon fill="midnightblue" stroke="midnightblue" points="1495.67,-297.94 1486.81,-303.75 1497.36,-304.74 1495.67,-297.94"/>
</g>
<!-- Node40 -->
<g id="node40" class="node">
<title>Node40</title>
<g id="a_node40"><a xlink:href="GetPostfitParamPlots_8cpp.html" target="_top" xlink:title=" ">
<polygon fill="white" stroke="black" points="1371,-168.5 1371,-198.5 1496,-198.5 1496,-168.5 1371,-168.5"/>
<text text-anchor="start" x="1379" y="-186.5" font-family="Helvetica" font-size="10.00">Plotting/GetPostfitParam</text>
<text text-anchor="middle" x="1433.5" y="-175.5" font-family="Helvetica" font-size="10.00">Plots.cpp</text>
</a>
</g>
</g>
<!-- Node39&#45;&gt;Node40 -->
<g id="edge51" class="edge">
<title>Node39&#45;&gt;Node40</title>
<path fill="none" stroke="midnightblue" d="M1523.8,-230.71C1503.77,-220.46 1479.38,-207.98 1461,-198.58"/>
<polygon fill="midnightblue" stroke="midnightblue" points="1522.45,-233.96 1532.94,-235.4 1525.64,-227.72 1522.45,-233.96"/>
</g>
<!-- Node41 -->
<g id="node41" class="node">
<title>Node41</title>
<g id="a_node41"><a xlink:href="MatrixPlotter_8cpp.html" target="_top" xlink:title=" ">
<polygon fill="white" stroke="black" points="1514,-174 1514,-193 1641,-193 1641,-174 1514,-174"/>
<text text-anchor="middle" x="1577.5" y="-181" font-family="Helvetica" font-size="10.00">Plotting/MatrixPlotter.cpp</text>
</a>
</g>
</g>
<!-- Node39&#45;&gt;Node41 -->
<g id="edge52" class="edge">
<title>Node39&#45;&gt;Node41</title>
<path fill="none" stroke="midnightblue" d="M1566.75,-225.6C1569.71,-214.28 1573.06,-201.46 1575.23,-193.19"/>
<polygon fill="midnightblue" stroke="midnightblue" points="1563.33,-224.84 1564.19,-235.4 1570.11,-226.61 1563.33,-224.84"/>
</g>
<!-- Node42 -->
<g id="node42" class="node">
<title>Node42</title>
<g id="a_node42"><a xlink:href="PlotLLH_8cpp.html" target="_top" xlink:title=" ">
<polygon fill="white" stroke="black" points="1121,-174 1121,-193 1228,-193 1228,-174 1121,-174"/>
<text text-anchor="middle" x="1174.5" y="-181" font-family="Helvetica" font-size="10.00">Plotting/PlotLLH.cpp</text>
</a>
</g>
</g>
<!-- Node39&#45;&gt;Node42 -->
<g id="edge53" class="edge">
<title>Node39&#45;&gt;Node42</title>
<path fill="none" stroke="midnightblue" d="M1498.3,-234.89C1381.77,-213.7 1349.34,-219.87 1236.5,-199 1227.37,-197.31 1217.56,-195.17 1208.49,-193.05"/>
<polygon fill="midnightblue" stroke="midnightblue" points="1497.86,-238.37 1508.33,-236.75 1499.13,-231.49 1497.86,-238.37"/>
</g>
<!-- Node43 -->
<g id="node43" class="node">
<title>Node43</title>
<g id="a_node43"><a xlink:href="plottingManager_8cpp.html" target="_top" xlink:title=" ">
<polygon fill="white" stroke="black" points="1246,-168.5 1246,-198.5 1353,-198.5 1353,-168.5 1246,-168.5"/>
<text text-anchor="start" x="1254" y="-186.5" font-family="Helvetica" font-size="10.00">Plotting/plottingUtils</text>
<text text-anchor="middle" x="1299.5" y="-175.5" font-family="Helvetica" font-size="10.00">/plottingManager.cpp</text>
</a>
</g>
</g>
<!-- Node39&#45;&gt;Node43 -->
<g id="edge54" class="edge">
<title>Node39&#45;&gt;Node43</title>
<path fill="none" stroke="midnightblue" d="M1498.56,-234.07C1454.4,-223.08 1395.61,-208.44 1353.39,-197.92"/>
<polygon fill="midnightblue" stroke="midnightblue" points="1497.76,-237.48 1508.31,-236.5 1499.45,-230.69 1497.76,-237.48"/>
</g>
<!-- Node39&#45;&gt;Node44 -->
<g id="edge55" class="edge">
<title>Node39&#45;&gt;Node44</title>
<path fill="none" stroke="midnightblue" d="M1601.95,-231.3C1630.49,-218.76 1667.1,-202.68 1689.13,-193.01"/>
<polygon fill="midnightblue" stroke="midnightblue" points="1600.36,-228.17 1592.61,-235.4 1603.18,-234.58 1600.36,-228.17"/>
</g>
<!-- Node45&#45;&gt;Node27 -->
<g id="edge60" class="edge">
<title>Node45&#45;&gt;Node27</title>
<path fill="none" stroke="midnightblue" d="M1162.8,-420.31C1121.13,-396.25 1035.88,-347.02 1001.43,-327.12"/>
<polygon fill="midnightblue" stroke="midnightblue" points="1161.06,-423.35 1171.47,-425.32 1164.56,-417.29 1161.06,-423.35"/>
</g>
<!-- Node45&#45;&gt;Node29 -->
<g id="edge59" class="edge">
<title>Node45&#45;&gt;Node29</title>
<path fill="none" stroke="midnightblue" d="M1223.33,-422.44C1255.76,-412.26 1302.24,-397.66 1331.37,-388.52"/>
<polygon fill="midnightblue" stroke="midnightblue" points="1222.25,-419.11 1213.75,-425.44 1224.34,-425.79 1222.25,-419.11"/>
</g>
<!-- Node46 -->
<g id="node46" class="node">
<title>Node46</title>
<g id="a_node46"><a xlink:href="StatisticalUtils_8cpp.html" target="_top" xlink:title=" ">
<polygon fill="white" stroke="black" points="1143,-369.5 1143,-388.5 1274,-388.5 1274,-369.5 1143,-369.5"/>
<text text-anchor="middle" x="1208.5" y="-376.5" font-family="Helvetica" font-size="10.00">Fitters/StatisticalUtils.cpp</text>
</a>
</g>
</g>
<!-- Node45&#45;&gt;Node46 -->
<g id="edge61" class="edge">
<title>Node45&#45;&gt;Node46</title>
<path fill="none" stroke="midnightblue" d="M1193.96,-415.69C1197.67,-406.59 1201.98,-396.01 1204.93,-388.75"/>
<polygon fill="midnightblue" stroke="midnightblue" points="1190.66,-414.5 1190.13,-425.08 1197.15,-417.14 1190.66,-414.5"/>
</g>
</g>
</svg>
