<?xml version="1.0" encoding="UTF-8" standalone="no"?>
<!DOCTYPE svg PUBLIC "-//W3C//DTD SVG 1.1//EN"
 "http://www.w3.org/Graphics/SVG/1.1/DTD/svg11.dtd">
<!-- Generated by graphviz version 2.44.0 (0)
 -->
<!-- Title: Graphical Class Hierarchy Pages: 1 -->
<svg width="240pt" height="66pt"
 viewBox="0.00 0.00 240.00 66.00" xmlns="http://www.w3.org/2000/svg" xmlns:xlink="http://www.w3.org/1999/xlink">
<g id="graph0" class="graph" transform="scale(1 1) rotate(0) translate(4 62)">
<title>Graphical Class Hierarchy</title>
<polygon fill="white" stroke="transparent" points="-4,4 -4,-62 236,-62 236,4 -4,4"/>
<!-- Node0 -->
<g id="node1" class="node">
<title>Node0</title>
<g id="a_node1"><a xlink:href="classTResponseFunction__red.html" target="_top" xlink:title="KS: A reduced ResponseFunction Generic function used for evaluating weight.">
<polygon fill="white" stroke="black" points="0,-19.5 0,-38.5 122,-38.5 122,-19.5 0,-19.5"/>
<text text-anchor="middle" x="61" y="-26.5" font-family="Helvetica" font-size="10.00">TResponseFunction_red</text>
</a>
</g>
</g>
<!-- Node1 -->
<g id="node2" class="node">
<title>Node1</title>
<g id="a_node2"><a xlink:href="classTF1__red.html" target="_top" xlink:title="CW: A reduced TF1 class only. Only saves parameters for each TF1 and how many parameters each paramet...">
<polygon fill="white" stroke="black" points="168.5,-38.5 168.5,-57.5 221.5,-57.5 221.5,-38.5 168.5,-38.5"/>
<text text-anchor="middle" x="195" y="-45.5" font-family="Helvetica" font-size="10.00">TF1_red</text>
</a>
</g>
</g>
<!-- Node0&#45;&gt;Node1 -->
<g id="edge1" class="edge">
<title>Node0&#45;&gt;Node1</title>
<path fill="none" stroke="midnightblue" d="M132.47,-39.14C145.26,-40.98 157.82,-42.79 168.23,-44.29"/>
<polygon fill="midnightblue" stroke="midnightblue" points="132.6,-35.63 122.21,-37.67 131.61,-42.56 132.6,-35.63"/>
</g>
<!-- Node2 -->
<g id="node3" class="node">
<title>Node2</title>
<g id="a_node3"><a xlink:href="classTSpline3__red.html" target="_top" xlink:title="CW: Reduced TSpline3 class.">
<polygon fill="white" stroke="black" points="158,-0.5 158,-19.5 232,-19.5 232,-0.5 158,-0.5"/>
<text text-anchor="middle" x="195" y="-7.5" font-family="Helvetica" font-size="10.00">TSpline3_red</text>
</a>
</g>
</g>
<!-- Node0&#45;&gt;Node2 -->
<g id="edge2" class="edge">
<title>Node0&#45;&gt;Node2</title>
<path fill="none" stroke="midnightblue" d="M132.16,-18.9C140.97,-17.63 149.68,-16.38 157.66,-15.23"/>
<polygon fill="midnightblue" stroke="midnightblue" points="131.61,-15.44 122.21,-20.33 132.6,-22.37 131.61,-15.44"/>
</g>
</g>
</svg>
