<?xml version="1.0" encoding="UTF-8" standalone="no"?>
<!DOCTYPE svg PUBLIC "-//W3C//DTD SVG 1.1//EN"
 "http://www.w3.org/Graphics/SVG/1.1/DTD/svg11.dtd">
<!-- Generated by graphviz version 2.43.0 (0)
 -->
<!-- Title: Graphical Class Hierarchy Pages: 1 -->
<svg width="316pt" height="101pt"
 viewBox="0.00 0.00 316.00 101.00" xmlns="http://www.w3.org/2000/svg" xmlns:xlink="http://www.w3.org/1999/xlink">
<g id="graph0" class="graph" transform="scale(1 1) rotate(0) translate(4 97)">
<title>Graphical Class Hierarchy</title>
<!-- Node0 -->
<g id="node1" class="node">
<title>Node0</title>
<g id="a_node1"><a xlink:href="classParameterHandlerBase.html" target="_top" xlink:title="Base class responsible for handling of systematic error parameters. Capable of using PCA or using ada...">
<polygon fill="white" stroke="#666666" points="129,-56 0,-56 0,-37 129,-37 129,-56"/>
<text text-anchor="middle" x="64.5" y="-44" font-family="Helvetica,sans-Serif" font-size="10.00">ParameterHandlerBase</text>
</a>
</g>
</g>
<!-- Node1 -->
<g id="node2" class="node">
<title>Node1</title>
<g id="a_node2"><a xlink:href="classParameterHandlerGeneric.html" target="_top" xlink:title="Class responsible for handling of systematic error parameters with different types defined in the con...">
<polygon fill="white" stroke="#666666" points="308,-93 165,-93 165,-74 308,-74 308,-93"/>
<text text-anchor="middle" x="236.5" y="-81" font-family="Helvetica,sans-Serif" font-size="10.00">ParameterHandlerGeneric</text>
</a>
</g>
</g>
<!-- Node0&#45;&gt;Node1 -->
<g id="edge1" class="edge">
<title>Node0&#45;&gt;Node1</title>
<path fill="none" stroke="#63b8ff" d="M119.35,-58.22C142.63,-63.29 169.53,-69.14 191.57,-73.94"/>
<polygon fill="#63b8ff" stroke="#63b8ff" points="119.79,-54.74 109.28,-56.03 118.31,-61.58 119.79,-54.74"/>
</g>
<!-- Node2 -->
<g id="node3" class="node">
<title>Node2</title>
<g id="a_node3"><a xlink:href="classParameterHandlerOsc.html" target="_top" xlink:title="Class responsible for handling of neutrino oscillation parameters.">
<polygon fill="white" stroke="#666666" points="298,-56 175,-56 175,-37 298,-37 298,-56"/>
<text text-anchor="middle" x="236.5" y="-44" font-family="Helvetica,sans-Serif" font-size="10.00">ParameterHandlerOsc</text>
</a>
</g>
</g>
<!-- Node0&#45;&gt;Node2 -->
<g id="edge2" class="edge">
<title>Node0&#45;&gt;Node2</title>
<path fill="none" stroke="#63b8ff" d="M139.52,-46.5C151.28,-46.5 163.33,-46.5 174.74,-46.5"/>
<polygon fill="#63b8ff" stroke="#63b8ff" points="139.29,-43 129.29,-46.5 139.29,-50 139.29,-43"/>
</g>
<!-- Node3 -->
<g id="node4" class="node">
<title>Node3</title>
<g id="a_node4"><a xlink:href="classPyParameterHandlerBase.html" target="_top" xlink:title="EW: As ParameterHandlerBase is an abstract base class we have to do some gymnastics to get it to get ...">
<polygon fill="white" stroke="#666666" points="307,-19 166,-19 166,0 307,0 307,-19"/>
<text text-anchor="middle" x="236.5" y="-7" font-family="Helvetica,sans-Serif" font-size="10.00">PyParameterHandlerBase</text>
</a>
</g>
</g>
<!-- Node0&#45;&gt;Node3 -->
<g id="edge3" class="edge">
<title>Node0&#45;&gt;Node3</title>
<path fill="none" stroke="#63b8ff" d="M119.35,-34.78C142.63,-29.71 169.53,-23.86 191.57,-19.06"/>
<polygon fill="#63b8ff" stroke="#63b8ff" points="118.31,-31.42 109.28,-36.97 119.79,-38.26 118.31,-31.42"/>
</g>
</g>
</svg>
