<?xml version="1.0" encoding="UTF-8" standalone="no"?>
<!DOCTYPE svg PUBLIC "-//W3C//DTD SVG 1.1//EN"
 "http://www.w3.org/Graphics/SVG/1.1/DTD/svg11.dtd">
<!-- Generated by graphviz version 2.43.0 (0)
 -->
<!-- Title: Graphical Class Hierarchy Pages: 1 -->
<svg width="441pt" height="64pt"
 viewBox="0.00 0.00 441.00 64.00" xmlns="http://www.w3.org/2000/svg" xmlns:xlink="http://www.w3.org/1999/xlink">
<g id="graph0" class="graph" transform="scale(1 1) rotate(0) translate(4 60)">
<title>Graphical Class Hierarchy</title>
<!-- Node0 -->
<g id="node1" class="node">
<title>Node0</title>
<g id="a_node1"><a xlink:href="classSampleHandlerBase.html" target="_top" xlink:title="Class responsible for handling implementation of samples used in analysis, reweighting and returning ...">
<polygon fill="white" stroke="#666666" points="116,-37 0,-37 0,-18 116,-18 116,-37"/>
<text text-anchor="middle" x="58" y="-25" font-family="Helvetica,sans-Serif" font-size="10.00">SampleHandlerBase</text>
</a>
</g>
</g>
<!-- Node1 -->
<g id="node2" class="node">
<title>Node1</title>
<g id="a_node2"><a xlink:href="classPySampleHandlerBase.html" target="_top" xlink:title="EW: As SampleHandlerBase is an abstract base class we have to do some gymnastics to get it to get it ...">
<polygon fill="white" stroke="#666666" points="280,-56 152,-56 152,-37 280,-37 280,-56"/>
<text text-anchor="middle" x="216" y="-44" font-family="Helvetica,sans-Serif" font-size="10.00">PySampleHandlerBase</text>
</a>
</g>
</g>
<!-- Node0&#45;&gt;Node1 -->
<g id="edge1" class="edge">
<title>Node0&#45;&gt;Node1</title>
<path fill="none" stroke="#63b8ff" d="M126.37,-35.71C134.8,-36.73 143.39,-37.78 151.75,-38.8"/>
<polygon fill="#63b8ff" stroke="#63b8ff" points="126.55,-32.2 116.2,-34.47 125.71,-39.15 126.55,-32.2"/>
</g>
<!-- Node2 -->
<g id="node3" class="node">
<title>Node2</title>
<g id="a_node3"><a xlink:href="classSampleHandlerFD.html" target="_top" xlink:title="Class responsible for handling implementation of samples used in analysis, reweighting and returning ...">
<polygon fill="white" stroke="#666666" points="268.5,-19 163.5,-19 163.5,0 268.5,0 268.5,-19"/>
<text text-anchor="middle" x="216" y="-7" font-family="Helvetica,sans-Serif" font-size="10.00">SampleHandlerFD</text>
</a>
</g>
</g>
<!-- Node0&#45;&gt;Node2 -->
<g id="edge2" class="edge">
<title>Node0&#45;&gt;Node2</title>
<path fill="none" stroke="#63b8ff" d="M126.5,-19.71C138.9,-18.28 151.65,-16.81 163.48,-15.44"/>
<polygon fill="#63b8ff" stroke="#63b8ff" points="125.74,-16.28 116.2,-20.9 126.54,-23.23 125.74,-16.28"/>
</g>
<!-- Node3 -->
<g id="node4" class="node">
<title>Node3</title>
<g id="a_node4"><a xlink:href="classPySampleHandlerFD.html" target="_top" xlink:title="As SampleHandlerFD is an abstract base class we have to do some gymnastics to get it to get it into p...">
<polygon fill="white" stroke="#666666" points="433,-19 316,-19 316,0 433,0 433,-19"/>
<text text-anchor="middle" x="374.5" y="-7" font-family="Helvetica,sans-Serif" font-size="10.00">PySampleHandlerFD</text>
</a>
</g>
</g>
<!-- Node2&#45;&gt;Node3 -->
<g id="edge3" class="edge">
<title>Node2&#45;&gt;Node3</title>
<path fill="none" stroke="#63b8ff" d="M278.8,-9.5C291.04,-9.5 303.84,-9.5 315.93,-9.5"/>
<polygon fill="#63b8ff" stroke="#63b8ff" points="278.68,-6 268.68,-9.5 278.68,-13 278.68,-6"/>
</g>
</g>
</svg>
