<?xml version="1.0" encoding="UTF-8" standalone="no"?>
<!DOCTYPE svg PUBLIC "-//W3C//DTD SVG 1.1//EN"
 "http://www.w3.org/Graphics/SVG/1.1/DTD/svg11.dtd">
<!-- Generated by graphviz version 2.43.0 (0)
 -->
<!-- Title: Graphical Class Hierarchy Pages: 1 -->
<svg width="256pt" height="64pt"
 viewBox="0.00 0.00 256.00 64.00" xmlns="http://www.w3.org/2000/svg" xmlns:xlink="http://www.w3.org/1999/xlink">
<g id="graph0" class="graph" transform="scale(1 1) rotate(0) translate(4 60)">
<title>Graphical Class Hierarchy</title>
<!-- Node0 -->
<g id="node1" class="node">
<title>Node0</title>
<g id="a_node1"><a xlink:href="classTResponseFunction__red.html" target="_top" xlink:title="KS: A reduced ResponseFunction Generic function used for evaluating weight.">
<polygon fill="white" stroke="#666666" points="132,-37 0,-37 0,-18 132,-18 132,-37"/>
<text text-anchor="middle" x="66" y="-25" font-family="Helvetica,sans-Serif" font-size="10.00">TResponseFunction_red</text>
</a>
</g>
</g>
<!-- Node1 -->
<g id="node2" class="node">
<title>Node1</title>
<g id="a_node2"><a xlink:href="classTF1__red.html" target="_top" xlink:title="CW: A reduced TF1 class only. Only saves parameters for each TF1 and how many parameters each paramet...">
<polygon fill="white" stroke="#666666" points="236,-56 180,-56 180,-37 236,-37 236,-56"/>
<text text-anchor="middle" x="208" y="-44" font-family="Helvetica,sans-Serif" font-size="10.00">TF1_red</text>
</a>
</g>
</g>
<!-- Node0&#45;&gt;Node1 -->
<g id="edge1" class="edge">
<title>Node0&#45;&gt;Node1</title>
<path fill="none" stroke="#63b8ff" d="M142.37,-37.73C155.79,-39.55 168.95,-41.34 179.85,-42.82"/>
<polygon fill="#63b8ff" stroke="#63b8ff" points="142.46,-34.21 132.08,-36.33 141.52,-41.15 142.46,-34.21"/>
</g>
<!-- Node2 -->
<g id="node3" class="node">
<title>Node2</title>
<g id="a_node3"><a xlink:href="classTSpline3__red.html" target="_top" xlink:title="CW: Reduced TSpline3 class.">
<polygon fill="white" stroke="#666666" points="248,-19 168,-19 168,0 248,0 248,-19"/>
<text text-anchor="middle" x="208" y="-7" font-family="Helvetica,sans-Serif" font-size="10.00">TSpline3_red</text>
</a>
</g>
</g>
<!-- Node0&#45;&gt;Node2 -->
<g id="edge2" class="edge">
<title>Node0&#45;&gt;Node2</title>
<path fill="none" stroke="#63b8ff" d="M142.05,-17.85C150.87,-16.72 159.58,-15.6 167.62,-14.56"/>
<polygon fill="#63b8ff" stroke="#63b8ff" points="141.55,-14.39 132.08,-19.13 142.45,-21.33 141.55,-14.39"/>
</g>
</g>
</svg>
