<?xml version="1.0" encoding="UTF-8" standalone="no"?>
<!DOCTYPE svg PUBLIC "-//W3C//DTD SVG 1.1//EN"
 "http://www.w3.org/Graphics/SVG/1.1/DTD/svg11.dtd">
<!-- Generated by graphviz version 2.43.0 (0)
 -->
<!-- Title: Graphical Class Hierarchy Pages: 1 -->
<svg width="274pt" height="101pt"
 viewBox="0.00 0.00 274.00 101.00" xmlns="http://www.w3.org/2000/svg" xmlns:xlink="http://www.w3.org/1999/xlink">
<g id="graph0" class="graph" transform="scale(1 1) rotate(0) translate(4 97)">
<title>Graphical Class Hierarchy</title>
<!-- Node0 -->
<g id="node1" class="node">
<title>Node0</title>
<g id="a_node1"><a xlink:href="structTypeParameterBase.html" target="_top" xlink:title="Base class storing info for parameters types, helping unify codebase.">
<polygon fill="white" stroke="#666666" points="113,-56 0,-56 0,-37 113,-37 113,-56"/>
<text text-anchor="middle" x="56.5" y="-44" font-family="Helvetica,sans-Serif" font-size="10.00">TypeParameterBase</text>
</a>
</g>
</g>
<!-- Node1 -->
<g id="node2" class="node">
<title>Node1</title>
<g id="a_node2"><a xlink:href="structFunctionalParameter.html" target="_top" xlink:title="HH &#45; Functional parameters Carrier for whether you want to apply a systematic to an event or not.">
<polygon fill="white" stroke="#666666" points="266,-93 149,-93 149,-74 266,-74 266,-93"/>
<text text-anchor="middle" x="207.5" y="-81" font-family="Helvetica,sans-Serif" font-size="10.00">FunctionalParameter</text>
</a>
</g>
</g>
<!-- Node0&#45;&gt;Node1 -->
<g id="edge1" class="edge">
<title>Node0&#45;&gt;Node1</title>
<path fill="none" stroke="#63b8ff" d="M105.8,-58.49C125.95,-63.5 149.02,-69.23 168,-73.94"/>
<polygon fill="#63b8ff" stroke="#63b8ff" points="106.42,-55.04 95.87,-56.03 104.73,-61.84 106.42,-55.04"/>
</g>
<!-- Node2 -->
<g id="node3" class="node">
<title>Node2</title>
<g id="a_node3"><a xlink:href="structNormParameter.html" target="_top" xlink:title="ETA &#45; Normalisations for cross&#45;section parameters Carrier for whether you want to apply a systematic ...">
<polygon fill="white" stroke="#666666" points="254.5,-56 160.5,-56 160.5,-37 254.5,-37 254.5,-56"/>
<text text-anchor="middle" x="207.5" y="-44" font-family="Helvetica,sans-Serif" font-size="10.00">NormParameter</text>
</a>
</g>
</g>
<!-- Node0&#45;&gt;Node2 -->
<g id="edge2" class="edge">
<title>Node0&#45;&gt;Node2</title>
<path fill="none" stroke="#63b8ff" d="M123.73,-46.5C136.14,-46.5 148.86,-46.5 160.49,-46.5"/>
<polygon fill="#63b8ff" stroke="#63b8ff" points="123.41,-43 113.41,-46.5 123.41,-50 123.41,-43"/>
</g>
<!-- Node3 -->
<g id="node4" class="node">
<title>Node3</title>
<g id="a_node4"><a xlink:href="structSplineParameter.html" target="_top" xlink:title="KS: Struct holding info about Spline Systematics.">
<polygon fill="white" stroke="#666666" points="256,-19 159,-19 159,0 256,0 256,-19"/>
<text text-anchor="middle" x="207.5" y="-7" font-family="Helvetica,sans-Serif" font-size="10.00">SplineParameter</text>
</a>
</g>
</g>
<!-- Node0&#45;&gt;Node3 -->
<g id="edge3" class="edge">
<title>Node0&#45;&gt;Node3</title>
<path fill="none" stroke="#63b8ff" d="M105.8,-34.51C125.95,-29.5 149.02,-23.77 168,-19.06"/>
<polygon fill="#63b8ff" stroke="#63b8ff" points="104.73,-31.16 95.87,-36.97 106.42,-37.96 104.73,-31.16"/>
</g>
</g>
</svg>
