<?xml version="1.0" encoding="UTF-8" standalone="no"?>
<!DOCTYPE svg PUBLIC "-//W3C//DTD SVG 1.1//EN"
 "http://www.w3.org/Graphics/SVG/1.1/DTD/svg11.dtd">
<!-- Generated by graphviz version 2.43.0 (0)
 -->
<!-- Title: Graphical Class Hierarchy Pages: 1 -->
<svg width="234pt" height="101pt"
 viewBox="0.00 0.00 234.00 101.00" xmlns="http://www.w3.org/2000/svg" xmlns:xlink="http://www.w3.org/1999/xlink">
<g id="graph0" class="graph" transform="scale(1 1) rotate(0) translate(4 97)">
<title>Graphical Class Hierarchy</title>
<!-- Node0 -->
<g id="node1" class="node">
<title>Node0</title>
<g id="a_node1"><a xlink:href="classSplineBase.html" target="_top" xlink:title="Base class for calculating weight from spline.">
<polygon fill="white" stroke="#666666" points="71,-56 0,-56 0,-37 71,-37 71,-56"/>
<text text-anchor="middle" x="35.5" y="-44" font-family="Helvetica,sans-Serif" font-size="10.00">SplineBase</text>
</a>
</g>
</g>
<!-- Node1 -->
<g id="node2" class="node">
<title>Node1</title>
<g id="a_node2"><a xlink:href="classBinnedSplineHandler.html" target="_top" xlink:title="Bin&#45;by&#45;bin class calculating response for spline parameters.">
<polygon fill="white" stroke="#666666" points="226,-93 107,-93 107,-74 226,-74 226,-93"/>
<text text-anchor="middle" x="166.5" y="-81" font-family="Helvetica,sans-Serif" font-size="10.00">BinnedSplineHandler</text>
</a>
</g>
</g>
<!-- Node0&#45;&gt;Node1 -->
<g id="edge1" class="edge">
<title>Node0&#45;&gt;Node1</title>
<path fill="none" stroke="#63b8ff" d="M79.47,-58.83C96.56,-63.73 115.92,-69.28 131.94,-73.88"/>
<polygon fill="#63b8ff" stroke="#63b8ff" points="80.3,-55.42 69.72,-56.03 78.37,-62.15 80.3,-55.42"/>
</g>
<!-- Node2 -->
<g id="node3" class="node">
<title>Node2</title>
<g id="a_node3"><a xlink:href="classPySplineBase.html" target="_top" xlink:title="EW: As SplineBase is an abstract base class we have to do some gymnastics to get it to get it into py...">
<polygon fill="white" stroke="#666666" points="208,-56 125,-56 125,-37 208,-37 208,-56"/>
<text text-anchor="middle" x="166.5" y="-44" font-family="Helvetica,sans-Serif" font-size="10.00">PySplineBase</text>
</a>
</g>
</g>
<!-- Node0&#45;&gt;Node2 -->
<g id="edge2" class="edge">
<title>Node0&#45;&gt;Node2</title>
<path fill="none" stroke="#63b8ff" d="M81.12,-46.5C95.33,-46.5 110.97,-46.5 124.88,-46.5"/>
<polygon fill="#63b8ff" stroke="#63b8ff" points="81.07,-43 71.07,-46.5 81.07,-50 81.07,-43"/>
</g>
<!-- Node3 -->
<g id="node4" class="node">
<title>Node3</title>
<g id="a_node4"><a xlink:href="classSMonolith.html" target="_top" xlink:title="Even&#45;by&#45;event class calculating response for spline parameters. It is possible to use GPU acceleratio...">
<polygon fill="white" stroke="#666666" points="199,-19 134,-19 134,0 199,0 199,-19"/>
<text text-anchor="middle" x="166.5" y="-7" font-family="Helvetica,sans-Serif" font-size="10.00">SMonolith</text>
</a>
</g>
</g>
<!-- Node0&#45;&gt;Node3 -->
<g id="edge3" class="edge">
<title>Node0&#45;&gt;Node3</title>
<path fill="none" stroke="#63b8ff" d="M79.79,-34.08C97.44,-29.02 117.47,-23.28 133.73,-18.61"/>
<polygon fill="#63b8ff" stroke="#63b8ff" points="78.37,-30.85 69.72,-36.97 80.3,-37.58 78.37,-30.85"/>
</g>
</g>
</svg>
