<?xml version="1.0" encoding="UTF-8" standalone="no"?>
<!DOCTYPE svg PUBLIC "-//W3C//DTD SVG 1.1//EN"
 "http://www.w3.org/Graphics/SVG/1.1/DTD/svg11.dtd">
<!-- Generated by graphviz version 2.44.0 (0)
 -->
<!-- Title: Graphical Class Hierarchy Pages: 1 -->
<svg width="413pt" height="66pt"
 viewBox="0.00 0.00 413.00 66.00" xmlns="http://www.w3.org/2000/svg" xmlns:xlink="http://www.w3.org/1999/xlink">
<g id="graph0" class="graph" transform="scale(1 1) rotate(0) translate(4 62)">
<title>Graphical Class Hierarchy</title>
<polygon fill="white" stroke="transparent" points="-4,4 -4,-62 409,-62 409,4 -4,4"/>
<!-- Node0 -->
<g id="node1" class="node">
<title>Node0</title>
<g id="a_node1"><a xlink:href="classSampleHandlerBase.html" target="_top" xlink:title="Class responsible for handling implementation of samples used in analysis, reweighting and returning ...">
<polygon fill="white" stroke="black" points="0,-19.5 0,-38.5 106,-38.5 106,-19.5 0,-19.5"/>
<text text-anchor="middle" x="53" y="-26.5" font-family="Helvetica" font-size="10.00">SampleHandlerBase</text>
</a>
</g>
</g>
<!-- Node1 -->
<g id="node2" class="node">
<title>Node1</title>
<g id="a_node2"><a xlink:href="classPySampleHandlerBase.html" target="_top" xlink:title="EW: As SampleHandlerBase is an abstract base class we have to do some gymnastics to get it to get it ...">
<polygon fill="white" stroke="black" points="142,-38.5 142,-57.5 260,-57.5 260,-38.5 142,-38.5"/>
<text text-anchor="middle" x="201" y="-45.5" font-family="Helvetica" font-size="10.00">PySampleHandlerBase</text>
</a>
</g>
</g>
<!-- Node0&#45;&gt;Node1 -->
<g id="edge1" class="edge">
<title>Node0&#45;&gt;Node1</title>
<path fill="none" stroke="midnightblue" d="M116.46,-37.13C124.89,-38.23 133.52,-39.35 141.87,-40.44"/>
<polygon fill="midnightblue" stroke="midnightblue" points="116.67,-33.63 106.3,-35.81 115.76,-40.57 116.67,-33.63"/>
</g>
<!-- Node2 -->
<g id="node3" class="node">
<title>Node2</title>
<g id="a_node3"><a xlink:href="classSampleHandlerFD.html" target="_top" xlink:title="Class responsible for handling implementation of samples used in analysis, reweighting and returning ...">
<polygon fill="white" stroke="black" points="152.5,-0.5 152.5,-19.5 249.5,-19.5 249.5,-0.5 152.5,-0.5"/>
<text text-anchor="middle" x="201" y="-7.5" font-family="Helvetica" font-size="10.00">SampleHandlerFD</text>
</a>
</g>
</g>
<!-- Node0&#45;&gt;Node2 -->
<g id="edge2" class="edge">
<title>Node0&#45;&gt;Node2</title>
<path fill="none" stroke="midnightblue" d="M116.33,-20.89C128.42,-19.31 140.92,-17.69 152.44,-16.19"/>
<polygon fill="midnightblue" stroke="midnightblue" points="115.76,-17.43 106.3,-22.19 116.67,-24.37 115.76,-17.43"/>
</g>
<!-- Node3 -->
<g id="node4" class="node">
<title>Node3</title>
<g id="a_node4"><a xlink:href="classPySampleHandlerFD.html" target="_top" xlink:title="As SampleHandlerFD is an abstract base class we have to do some gymnastics to get it to get it into p...">
<polygon fill="white" stroke="black" points="296,-0.5 296,-19.5 405,-19.5 405,-0.5 296,-0.5"/>
<text text-anchor="middle" x="350.5" y="-7.5" font-family="Helvetica" font-size="10.00">PySampleHandlerFD</text>
</a>
</g>
</g>
<!-- Node2&#45;&gt;Node3 -->
<g id="edge3" class="edge">
<title>Node2&#45;&gt;Node3</title>
<path fill="none" stroke="midnightblue" d="M260.1,-10C271.93,-10 284.32,-10 295.98,-10"/>
<polygon fill="midnightblue" stroke="midnightblue" points="259.89,-6.5 249.89,-10 259.89,-13.5 259.89,-6.5"/>
</g>
</g>
</svg>
