<?xml version="1.0" encoding="UTF-8" standalone="no"?>
<!DOCTYPE svg PUBLIC "-//W3C//DTD SVG 1.1//EN"
 "http://www.w3.org/Graphics/SVG/1.1/DTD/svg11.dtd">
<!-- Generated by graphviz version 2.44.0 (0)
 -->
<!-- Title: Graphical Class Hierarchy Pages: 1 -->
<svg width="256pt" height="142pt"
 viewBox="0.00 0.00 256.00 142.00" xmlns="http://www.w3.org/2000/svg" xmlns:xlink="http://www.w3.org/1999/xlink">
<g id="graph0" class="graph" transform="scale(1 1) rotate(0) translate(4 138)">
<title>Graphical Class Hierarchy</title>
<polygon fill="white" stroke="transparent" points="-4,4 -4,-138 252,-138 252,4 -4,4"/>
<!-- Node0 -->
<g id="node1" class="node">
<title>Node0</title>
<g id="a_node1"><a xlink:href="structTypeParameterBase.html" target="_top" xlink:title="Base class storing info for parameters types, helping unify codebase.">
<polygon fill="white" stroke="black" points="0,-57.5 0,-76.5 105,-76.5 105,-57.5 0,-57.5"/>
<text text-anchor="middle" x="52.5" y="-64.5" font-family="Helvetica" font-size="10.00">TypeParameterBase</text>
</a>
</g>
</g>
<!-- Node1 -->
<g id="node2" class="node">
<title>Node1</title>
<g id="a_node2"><a xlink:href="structFunctionalParameter.html" target="_top" xlink:title="HH &#45; Functional parameters Carrier for whether you want to apply a systematic to an event or not.">
<polygon fill="white" stroke="black" points="141,-114.5 141,-133.5 248,-133.5 248,-114.5 141,-114.5"/>
<text text-anchor="middle" x="194.5" y="-121.5" font-family="Helvetica" font-size="10.00">FunctionalParameter</text>
</a>
</g>
</g>
<!-- Node0&#45;&gt;Node1 -->
<g id="edge1" class="edge">
<title>Node0&#45;&gt;Node1</title>
<path fill="none" stroke="midnightblue" d="M83.86,-80.74C100.6,-88.18 121.83,-97.38 141,-105 149.11,-108.22 158,-111.53 166.13,-114.46"/>
<polygon fill="midnightblue" stroke="midnightblue" points="85.12,-77.47 74.56,-76.59 82.27,-83.86 85.12,-77.47"/>
</g>
<!-- Node2 -->
<g id="node3" class="node">
<title>Node2</title>
<g id="a_node3"><a xlink:href="structNormParameter.html" target="_top" xlink:title="ETA &#45; Normalisations for cross&#45;section parameters Carrier for whether you want to apply a systematic ...">
<polygon fill="white" stroke="black" points="151.5,-76.5 151.5,-95.5 237.5,-95.5 237.5,-76.5 151.5,-76.5"/>
<text text-anchor="middle" x="194.5" y="-83.5" font-family="Helvetica" font-size="10.00">NormParameter</text>
</a>
</g>
</g>
<!-- Node0&#45;&gt;Node2 -->
<g id="edge2" class="edge">
<title>Node0&#45;&gt;Node2</title>
<path fill="none" stroke="midnightblue" d="M115.29,-75.39C127.4,-77.03 139.84,-78.72 151.13,-80.25"/>
<polygon fill="midnightblue" stroke="midnightblue" points="115.61,-71.9 105.23,-74.02 114.67,-78.83 115.61,-71.9"/>
</g>
<!-- Node3 -->
<g id="node4" class="node">
<title>Node3</title>
<g id="a_node4"><a xlink:href="structOscillationParameter.html" target="_top" xlink:title="KS: Struct holding info about oscillation Systematics.">
<polygon fill="white" stroke="black" points="141,-38.5 141,-57.5 248,-57.5 248,-38.5 141,-38.5"/>
<text text-anchor="middle" x="194.5" y="-45.5" font-family="Helvetica" font-size="10.00">OscillationParameter</text>
</a>
</g>
</g>
<!-- Node0&#45;&gt;Node3 -->
<g id="edge3" class="edge">
<title>Node0&#45;&gt;Node3</title>
<path fill="none" stroke="midnightblue" d="M115.37,-58.6C123.78,-57.46 132.35,-56.3 140.58,-55.18"/>
<polygon fill="midnightblue" stroke="midnightblue" points="114.67,-55.17 105.23,-59.98 115.61,-62.1 114.67,-55.17"/>
</g>
<!-- Node4 -->
<g id="node5" class="node">
<title>Node4</title>
<g id="a_node5"><a xlink:href="structSplineParameter.html" target="_top" xlink:title="KS: Struct holding info about Spline Systematics.">
<polygon fill="white" stroke="black" points="150,-0.5 150,-19.5 239,-19.5 239,-0.5 150,-0.5"/>
<text text-anchor="middle" x="194.5" y="-7.5" font-family="Helvetica" font-size="10.00">SplineParameter</text>
</a>
</g>
</g>
<!-- Node0&#45;&gt;Node4 -->
<g id="edge4" class="edge">
<title>Node0&#45;&gt;Node4</title>
<path fill="none" stroke="midnightblue" d="M83.86,-53.26C100.6,-45.82 121.83,-36.62 141,-29 149.11,-25.78 158,-22.47 166.13,-19.54"/>
<polygon fill="midnightblue" stroke="midnightblue" points="82.27,-50.14 74.56,-57.41 85.12,-56.53 82.27,-50.14"/>
</g>
</g>
</svg>
