<?xml version="1.0" encoding="UTF-8" standalone="no"?>
<!DOCTYPE svg PUBLIC "-//W3C//DTD SVG 1.1//EN"
 "http://www.w3.org/Graphics/SVG/1.1/DTD/svg11.dtd">
<!-- Generated by graphviz version 2.43.0 (0)
 -->
<!-- Title: Graphical Class Hierarchy Pages: 1 -->
<svg width="341pt" height="175pt"
 viewBox="0.00 0.00 341.00 175.00" xmlns="http://www.w3.org/2000/svg" xmlns:xlink="http://www.w3.org/1999/xlink">
<g id="graph0" class="graph" transform="scale(1 1) rotate(0) translate(4 171)">
<title>Graphical Class Hierarchy</title>
<!-- Node0 -->
<g id="node1" class="node">
<title>Node0</title>
<g id="a_node1"><a xlink:href="classFitterBase.html" target="_top" xlink:title="Base class for implementing fitting algorithms.">
<polygon fill="white" stroke="#666666" points="66,-74 0,-74 0,-55 66,-55 66,-74"/>
<text text-anchor="middle" x="33" y="-62" font-family="Helvetica,sans-Serif" font-size="10.00">FitterBase</text>
</a>
</g>
</g>
<!-- Node1 -->
<g id="node2" class="node">
<title>Node1</title>
<g id="a_node2"><a xlink:href="classLikelihoodFit.html" target="_top" xlink:title="Implementation of base Likelihood Fit class, it is mostly responsible for likelihood calculation whil...">
<polygon fill="white" stroke="#666666" points="193.5,-130 115.5,-130 115.5,-111 193.5,-111 193.5,-130"/>
<text text-anchor="middle" x="154.5" y="-118" font-family="Helvetica,sans-Serif" font-size="10.00">LikelihoodFit</text>
</a>
</g>
</g>
<!-- Node0&#45;&gt;Node1 -->
<g id="edge1" class="edge">
<title>Node0&#45;&gt;Node1</title>
<path fill="none" stroke="#63b8ff" d="M57.92,-79.21C70.72,-86.73 86.92,-95.71 102,-102.5 108.82,-105.57 116.34,-108.46 123.47,-110.99"/>
<polygon fill="#63b8ff" stroke="#63b8ff" points="59.65,-76.16 49.27,-74.04 56.06,-82.17 59.65,-76.16"/>
</g>
<!-- Node5 -->
<g id="node6" class="node">
<title>Node5</title>
<g id="a_node6"><a xlink:href="classPredictiveThrower.html" target="_top" xlink:title="Implementation of Prior/Posterior Predictive and Bayesian p&#45;Value calculations following the approach...">
<polygon fill="white" stroke="#666666" points="207,-93 102,-93 102,-74 207,-74 207,-93"/>
<text text-anchor="middle" x="154.5" y="-81" font-family="Helvetica,sans-Serif" font-size="10.00">PredictiveThrower</text>
</a>
</g>
</g>
<!-- Node0&#45;&gt;Node5 -->
<g id="edge5" class="edge">
<title>Node0&#45;&gt;Node5</title>
<path fill="none" stroke="#63b8ff" d="M75.97,-71.17C84.38,-72.51 93.31,-73.93 102,-75.31"/>
<polygon fill="#63b8ff" stroke="#63b8ff" points="76.45,-67.71 66.02,-69.59 75.35,-74.62 76.45,-67.71"/>
</g>
<!-- Node6 -->
<g id="node7" class="node">
<title>Node6</title>
<g id="a_node7"><a xlink:href="classPyFitterBase.html" target="_top" xlink:title="EW: As FitterBase is an abstract base class we have to do some gymnastics to get it to get it into py...">
<polygon fill="white" stroke="#666666" points="193.5,-56 115.5,-56 115.5,-37 193.5,-37 193.5,-56"/>
<text text-anchor="middle" x="154.5" y="-44" font-family="Helvetica,sans-Serif" font-size="10.00">PyFitterBase</text>
</a>
</g>
</g>
<!-- Node0&#45;&gt;Node6 -->
<g id="edge6" class="edge">
<title>Node0&#45;&gt;Node6</title>
<path fill="none" stroke="#63b8ff" d="M76.01,-58.17C88.84,-56.24 102.88,-54.12 115.44,-52.23"/>
<polygon fill="#63b8ff" stroke="#63b8ff" points="75.39,-54.73 66.02,-59.68 76.43,-61.65 75.39,-54.73"/>
</g>
<!-- Node7 -->
<g id="node8" class="node">
<title>Node7</title>
<g id="a_node8"><a xlink:href="classmcmc.html" target="_top" xlink:title="Implementation of MR2T2 algorithm.">
<polygon fill="white" stroke="#666666" points="178,-19 131,-19 131,0 178,0 178,-19"/>
<text text-anchor="middle" x="154.5" y="-7" font-family="Helvetica,sans-Serif" font-size="10.00">mcmc</text>
</a>
</g>
</g>
<!-- Node0&#45;&gt;Node7 -->
<g id="edge7" class="edge">
<title>Node0&#45;&gt;Node7</title>
<path fill="none" stroke="#63b8ff" d="M58.85,-49.72C71.52,-42.51 87.31,-34.01 102,-27.5 111.26,-23.39 121.78,-19.57 130.89,-16.52"/>
<polygon fill="#63b8ff" stroke="#63b8ff" points="56.75,-46.89 49.84,-54.92 60.25,-52.95 56.75,-46.89"/>
</g>
<!-- Node2 -->
<g id="node3" class="node">
<title>Node2</title>
<g id="a_node3"><a xlink:href="classMinuitFit.html" target="_top" xlink:title="Implementation of Minuit fitting algorithm .">
<polygon fill="white" stroke="#666666" points="317.5,-167 258.5,-167 258.5,-148 317.5,-148 317.5,-167"/>
<text text-anchor="middle" x="288" y="-155" font-family="Helvetica,sans-Serif" font-size="10.00">MinuitFit</text>
</a>
</g>
</g>
<!-- Node1&#45;&gt;Node2 -->
<g id="edge2" class="edge">
<title>Node1&#45;&gt;Node2</title>
<path fill="none" stroke="#63b8ff" d="M199.2,-132.8C218.6,-138.25 240.88,-144.52 258.15,-149.38"/>
<polygon fill="#63b8ff" stroke="#63b8ff" points="199.94,-129.37 189.36,-130.03 198.04,-136.11 199.94,-129.37"/>
</g>
<!-- Node3 -->
<g id="node4" class="node">
<title>Node3</title>
<g id="a_node4"><a xlink:href="classPSO.html" target="_top" xlink:title="Class PSO, consist of a vector of object Class Particle and global best Takes in the size (number of ...">
<polygon fill="white" stroke="#666666" points="306,-130 270,-130 270,-111 306,-111 306,-130"/>
<text text-anchor="middle" x="288" y="-118" font-family="Helvetica,sans-Serif" font-size="10.00">PSO</text>
</a>
</g>
</g>
<!-- Node1&#45;&gt;Node3 -->
<g id="edge3" class="edge">
<title>Node1&#45;&gt;Node3</title>
<path fill="none" stroke="#63b8ff" d="M203.56,-120.5C226.71,-120.5 253.02,-120.5 269.8,-120.5"/>
<polygon fill="#63b8ff" stroke="#63b8ff" points="203.54,-117 193.54,-120.5 203.54,-124 203.54,-117"/>
</g>
<!-- Node4 -->
<g id="node5" class="node">
<title>Node4</title>
<g id="a_node5"><a xlink:href="classPyLikelihoodFit.html" target="_top" xlink:title="EW: As LikelihoodFit is an abstract base class we have to do some gymnastics to get it to get it into...">
<polygon fill="white" stroke="#666666" points="333,-93 243,-93 243,-74 333,-74 333,-93"/>
<text text-anchor="middle" x="288" y="-81" font-family="Helvetica,sans-Serif" font-size="10.00">PyLikelihoodFit</text>
</a>
</g>
</g>
<!-- Node1&#45;&gt;Node4 -->
<g id="edge4" class="edge">
<title>Node1&#45;&gt;Node4</title>
<path fill="none" stroke="#63b8ff" d="M199.31,-108.17C216.72,-103.27 236.46,-97.72 252.79,-93.12"/>
<polygon fill="#63b8ff" stroke="#63b8ff" points="198.04,-104.89 189.36,-110.97 199.94,-111.63 198.04,-104.89"/>
</g>
</g>
</svg>
