<?xml version="1.0" encoding="UTF-8" standalone="no"?>
<!DOCTYPE svg PUBLIC "-//W3C//DTD SVG 1.1//EN"
 "http://www.w3.org/Graphics/SVG/1.1/DTD/svg11.dtd">
<!-- Generated by graphviz version 2.44.0 (0)
 -->
<!-- Title: /__w/MaCh3/MaCh3/Plotting/plottingUtils/inputManager.h Pages: 1 -->
<!--zoomable 173 -->
<svg id="main" version="1.1" xmlns="http://www.w3.org/2000/svg" xmlns:xlink="http://www.w3.org/1999/xlink" xml:space="preserve" onload="init(evt)">
<style type="text/css"><![CDATA[
.edge:hover path { stroke: red; }
.edge:hover polygon { stroke: red; fill: red; }
]]></style>
<script type="text/javascript"><![CDATA[
var edges = document.getElementsByTagName('g');
if (edges && edges.length) {
  for (var i=0;i<edges.length;i++) {
    if (edges[i].id.substr(0,4)=='edge') {
      edges[i].setAttribute('class','edge');
    }
  }
}
]]></script>
        <defs>
                <circle id="rim" cx="0" cy="0" r="7"/>
                <circle id="rim2" cx="0" cy="0" r="3.5"/>
                <g id="zoomPlus">
                        <use xlink:href="#rim" fill="#404040">
                                <set attributeName="fill" to="#808080" begin="zoomplus.mouseover" end="zoomplus.mouseout"/>
                        </use>
                        <path d="M-4,0h8M0,-4v8" fill="none" stroke="white" stroke-width="1.5" pointer-events="none"/>
                </g>
                <g id="zoomMin">
                        <use xlink:href="#rim" fill="#404040">
                                <set attributeName="fill" to="#808080" begin="zoomminus.mouseover" end="zoomminus.mouseout"/>
                        </use>
                        <path d="M-4,0h8" fill="none" stroke="white" stroke-width="1.5" pointer-events="none"/>
                </g>
                <g id="dirArrow">
                        <path fill="none" stroke="white" stroke-width="1.5" d="M0,-3.0v7 M-2.5,-0.5L0,-3.0L2.5,-0.5"/>
                </g>
               <g id="resetDef">
                       <use xlink:href="#rim2" fill="#404040">
                               <set attributeName="fill" to="#808080" begin="reset.mouseover" end="reset.mouseout"/>
                       </use>
               </g>
        </defs>

<script type="text/javascript">
var viewWidth = 811;
var viewHeight = 173;
var sectionId = 'dynsection-1';
</script>
<script xlink:href="svgpan.js"/>
<svg id="graph" class="graph">
<g id="viewport">
<title>/__w/MaCh3/MaCh3/Plotting/plottingUtils/inputManager.h</title>
<polygon fill="white" stroke="transparent" points="-4,4 -4,-169 807,-169 807,4 -4,4"/>
<!-- Node1 -->
<g id="node1" class="node">
<title>Node1</title>
<g id="a_node1"><a xlink:title=" ">
<polygon fill="#bfbfbf" stroke="black" points="381,-134.5 381,-164.5 524,-164.5 524,-134.5 381,-134.5"/>
<text text-anchor="start" x="389" y="-152.5" font-family="Helvetica" font-size="10.00">/__w/MaCh3/MaCh3/Plotting</text>
<text text-anchor="middle" x="452.5" y="-141.5" font-family="Helvetica" font-size="10.00">/plottingUtils/inputManager.h</text>
</a>
</g>
</g>
<!-- Node2 -->
<g id="node2" class="node">
<title>Node2</title>
<g id="a_node2"><a xlink:href="inputManager_8cpp.html" target="_top" xlink:title=" ">
<polygon fill="white" stroke="black" points="206.5,-67.5 206.5,-97.5 358.5,-97.5 358.5,-67.5 206.5,-67.5"/>
<text text-anchor="start" x="214.5" y="-85.5" font-family="Helvetica" font-size="10.00">/__w/MaCh3/MaCh3/Plotting</text>
<text text-anchor="middle" x="282.5" y="-74.5" font-family="Helvetica" font-size="10.00">/plottingUtils/inputManager.cpp</text>
</a>
</g>
</g>
<!-- Node1&#45;&gt;Node2 -->
<g id="edge1" class="edge">
<title>Node1&#45;&gt;Node2</title>
<path fill="none" stroke="midnightblue" d="M406.26,-130.82C378.93,-120.37 344.81,-107.32 319.32,-97.58"/>
<polygon fill="midnightblue" stroke="midnightblue" points="405.02,-134.09 415.61,-134.4 407.52,-127.56 405.02,-134.09"/>
</g>
<!-- Node3 -->
<g id="node3" class="node">
<title>Node3</title>
<g id="a_node3"><a xlink:href="plottingManager_8h.html" target="_top" xlink:title=" ">
<polygon fill="white" stroke="black" points="376.5,-67.5 376.5,-97.5 528.5,-97.5 528.5,-67.5 376.5,-67.5"/>
<text text-anchor="start" x="384.5" y="-85.5" font-family="Helvetica" font-size="10.00">/__w/MaCh3/MaCh3/Plotting</text>
<text text-anchor="middle" x="452.5" y="-74.5" font-family="Helvetica" font-size="10.00">/plottingUtils/plottingManager.h</text>
</a>
</g>
</g>
<!-- Node1&#45;&gt;Node3 -->
<g id="edge2" class="edge">
<title>Node1&#45;&gt;Node3</title>
<path fill="none" stroke="midnightblue" d="M452.5,-124.11C452.5,-115.15 452.5,-105.32 452.5,-97.58"/>
<polygon fill="midnightblue" stroke="midnightblue" points="449,-124.4 452.5,-134.4 456,-124.4 449,-124.4"/>
</g>
<!-- Node8 -->
<g id="node8" class="node">
<title>Node8</title>
<g id="a_node8"><a xlink:href="plotting_8cpp.html" target="_top" xlink:title=" ">
<polygon fill="white" stroke="black" points="664,-0.5 664,-30.5 803,-30.5 803,-0.5 664,-0.5"/>
<text text-anchor="start" x="672" y="-18.5" font-family="Helvetica" font-size="10.00">/__w/MaCh3/MaCh3/python</text>
<text text-anchor="middle" x="733.5" y="-7.5" font-family="Helvetica" font-size="10.00">/plotting.cpp</text>
</a>
</g>
</g>
<!-- Node1&#45;&gt;Node8 -->
<g id="edge8" class="edge">
<title>Node1&#45;&gt;Node8</title>
<path fill="none" stroke="midnightblue" d="M491.67,-130.1C548.47,-103.42 652.49,-54.55 703.58,-30.56"/>
<polygon fill="midnightblue" stroke="midnightblue" points="489.87,-127.08 482.31,-134.5 492.85,-133.41 489.87,-127.08"/>
</g>
<!-- Node4 -->
<g id="node4" class="node">
<title>Node4</title>
<g id="a_node4"><a xlink:href="GetPostfitParamPlots_8cpp.html" target="_top" xlink:title=" ">
<polygon fill="white" stroke="black" points="0,-0.5 0,-30.5 143,-30.5 143,-0.5 0,-0.5"/>
<text text-anchor="start" x="8" y="-18.5" font-family="Helvetica" font-size="10.00">/__w/MaCh3/MaCh3/Plotting</text>
<text text-anchor="middle" x="71.5" y="-7.5" font-family="Helvetica" font-size="10.00">/GetPostfitParamPlots.cpp</text>
</a>
</g>
</g>
<!-- Node3&#45;&gt;Node4 -->
<g id="edge3" class="edge">
<title>Node3&#45;&gt;Node4</title>
<path fill="none" stroke="midnightblue" d="M365.9,-66.73C269.85,-50.59 244.2,-47.13 151.5,-31 148.72,-30.52 145.88,-30.02 143.02,-29.51"/>
<polygon fill="midnightblue" stroke="midnightblue" points="365.6,-70.23 376.05,-68.44 366.77,-63.33 365.6,-70.23"/>
</g>
<!-- Node5 -->
<g id="node5" class="node">
<title>Node5</title>
<g id="a_node5"><a xlink:href="MatrixPlotter_8cpp.html" target="_top" xlink:title=" ">
<polygon fill="white" stroke="black" points="161,-0.5 161,-30.5 304,-30.5 304,-0.5 161,-0.5"/>
<text text-anchor="start" x="169" y="-18.5" font-family="Helvetica" font-size="10.00">/__w/MaCh3/MaCh3/Plotting</text>
<text text-anchor="middle" x="232.5" y="-7.5" font-family="Helvetica" font-size="10.00">/MatrixPlotter.cpp</text>
</a>
</g>
</g>
<!-- Node3&#45;&gt;Node5 -->
<g id="edge4" class="edge">
<title>Node3&#45;&gt;Node5</title>
<path fill="none" stroke="midnightblue" d="M395.23,-64.58C359.5,-54.02 314.04,-40.59 280.26,-30.61"/>
<polygon fill="midnightblue" stroke="midnightblue" points="394.45,-68 405.03,-67.48 396.44,-61.29 394.45,-68"/>
</g>
<!-- Node6 -->
<g id="node6" class="node">
<title>Node6</title>
<g id="a_node6"><a xlink:href="PlotLLH_8cpp.html" target="_top" xlink:title=" ">
<polygon fill="white" stroke="black" points="322,-0.5 322,-30.5 465,-30.5 465,-0.5 322,-0.5"/>
<text text-anchor="start" x="330" y="-18.5" font-family="Helvetica" font-size="10.00">/__w/MaCh3/MaCh3/Plotting</text>
<text text-anchor="middle" x="393.5" y="-7.5" font-family="Helvetica" font-size="10.00">/PlotLLH.cpp</text>
</a>
</g>
</g>
<!-- Node3&#45;&gt;Node6 -->
<g id="edge5" class="edge">
<title>Node3&#45;&gt;Node6</title>
<path fill="none" stroke="midnightblue" d="M432.75,-59.74C424.02,-50.12 414,-39.09 406.28,-30.58"/>
<polygon fill="midnightblue" stroke="midnightblue" points="430.39,-62.34 439.7,-67.4 435.57,-57.64 430.39,-62.34"/>
</g>
<!-- Node7 -->
<g id="node7" class="node">
<title>Node7</title>
<g id="a_node7"><a xlink:href="plottingManager_8cpp.html" target="_top" xlink:title=" ">
<polygon fill="white" stroke="black" points="483.5,-0.5 483.5,-30.5 645.5,-30.5 645.5,-0.5 483.5,-0.5"/>
<text text-anchor="start" x="491.5" y="-18.5" font-family="Helvetica" font-size="10.00">/__w/MaCh3/MaCh3/Plotting</text>
<text text-anchor="middle" x="564.5" y="-7.5" font-family="Helvetica" font-size="10.00">/plottingUtils/plottingManager.cpp</text>
</a>
</g>
</g>
<!-- Node3&#45;&gt;Node7 -->
<g id="edge6" class="edge">
<title>Node3&#45;&gt;Node7</title>
<path fill="none" stroke="midnightblue" d="M485.59,-62.3C503.12,-52.12 524.26,-39.85 540.25,-30.58"/>
<polygon fill="midnightblue" stroke="midnightblue" points="483.69,-59.35 476.8,-67.4 487.21,-65.4 483.69,-59.35"/>
</g>
<!-- Node3&#45;&gt;Node8 -->
<g id="edge7" class="edge">
<title>Node3&#45;&gt;Node8</title>
<path fill="none" stroke="midnightblue" d="M523.03,-65.19C569.05,-54.54 628.52,-40.78 672.5,-30.61"/>
<polygon fill="midnightblue" stroke="midnightblue" points="522.08,-61.81 513.13,-67.48 523.66,-68.63 522.08,-61.81"/>
</g>
</g>
</svg>
        <g id="navigator" transform="translate(0 0)" fill="#404254">
                <rect fill="#f2f5e9" fill-opacity="0.5" stroke="#606060" stroke-width=".5" x="0" y="0" width="60" height="60"/>
                <use id="zoomplus" xlink:href="#zoomPlus" x="17" y="9" onmousedown="handleZoom(evt,'in')"/>
                <use id="zoomminus" xlink:href="#zoomMin" x="42" y="9" onmousedown="handleZoom(evt,'out')"/>
                <use id="reset" xlink:href="#resetDef" x="30" y="36" onmousedown="handleReset()"/>
                <g id="arrowUp" xlink:href="#dirArrow" transform="translate(30 24)" onmousedown="handlePan(0,-1)">
                  <use xlink:href="#rim" fill="#404040">
                        <set attributeName="fill" to="#808080" begin="arrowUp.mouseover" end="arrowUp.mouseout"/>
                  </use>
                  <path fill="none" stroke="white" stroke-width="1.5" d="M0,-3.0v7 M-2.5,-0.5L0,-3.0L2.5,-0.5"/>
                </g>
                <g id="arrowRight" xlink:href="#dirArrow" transform="rotate(90) translate(36 -43)" onmousedown="handlePan(1,0)">
                  <use xlink:href="#rim" fill="#404040">
                        <set attributeName="fill" to="#808080" begin="arrowRight.mouseover" end="arrowRight.mouseout"/>
                  </use>
                  <path fill="none" stroke="white" stroke-width="1.5" d="M0,-3.0v7 M-2.5,-0.5L0,-3.0L2.5,-0.5"/>
                </g>
                <g id="arrowDown" xlink:href="#dirArrow" transform="rotate(180) translate(-30 -48)" onmousedown="handlePan(0,1)">
                  <use xlink:href="#rim" fill="#404040">
                        <set attributeName="fill" to="#808080" begin="arrowDown.mouseover" end="arrowDown.mouseout"/>
                  </use>
                  <path fill="none" stroke="white" stroke-width="1.5" d="M0,-3.0v7 M-2.5,-0.5L0,-3.0L2.5,-0.5"/>
                </g>
                <g id="arrowLeft" xlink:href="#dirArrow" transform="rotate(270) translate(-36 17)" onmousedown="handlePan(-1,0)">
                  <use xlink:href="#rim" fill="#404040">
                        <set attributeName="fill" to="#808080" begin="arrowLeft.mouseover" end="arrowLeft.mouseout"/>
                  </use>
                  <path fill="none" stroke="white" stroke-width="1.5" d="M0,-3.0v7 M-2.5,-0.5L0,-3.0L2.5,-0.5"/>
                </g>
        </g>
        <svg viewBox="0 0 15 15" width="100%" height="30px" preserveAspectRatio="xMaxYMin meet">
         <g id="arrow_out" transform="scale(0.3 0.3)">
          <a xlink:href="inputManager_8h__dep__incl_org.svg" target="_base">
           <rect id="button" ry="5" rx="5" y="6" x="6" height="38" width="38"
                fill="#f2f5e9" fill-opacity="0.5" stroke="#606060" stroke-width="1.0"/>
           <path id="arrow"
             d="M 11.500037,31.436501 C 11.940474,20.09759 22.043105,11.32322 32.158766,21.979434 L 37.068811,17.246167 C 37.068811,17.246167 37.088388,32 37.088388,32 L 22.160133,31.978069 C 22.160133,31.978069 26.997745,27.140456 26.997745,27.140456 C 18.528582,18.264221 13.291696,25.230495 11.500037,31.436501 z"
             style="fill:#404040;"/>
          </a>
         </g>
        </svg>
</svg>
