<?xml version="1.0" encoding="UTF-8" standalone="no"?>
<!DOCTYPE svg PUBLIC "-//W3C//DTD SVG 1.1//EN"
 "http://www.w3.org/Graphics/SVG/1.1/DTD/svg11.dtd">
<!-- Generated by graphviz version 2.44.0 (0)
 -->
<!-- Title: Plotting/plottingUtils/inputManager.h Pages: 1 -->
<svg width="983pt" height="173pt"
 viewBox="0.00 0.00 983.00 173.00" xmlns="http://www.w3.org/2000/svg" xmlns:xlink="http://www.w3.org/1999/xlink">
<g id="graph0" class="graph" transform="scale(1 1) rotate(0) translate(4 169)">
<title>Plotting/plottingUtils/inputManager.h</title>
<polygon fill="white" stroke="transparent" points="-4,4 -4,-169 979,-169 979,4 -4,4"/>
<!-- Node1 -->
<g id="node1" class="node">
<title>Node1</title>
<g id="a_node1"><a xlink:title=" ">
<polygon fill="#bfbfbf" stroke="black" points="522.5,-134.5 522.5,-164.5 626.5,-164.5 626.5,-134.5 522.5,-134.5"/>
<text text-anchor="start" x="530.5" y="-152.5" font-family="Helvetica" font-size="10.00">Plotting/plottingUtils</text>
<text text-anchor="middle" x="574.5" y="-141.5" font-family="Helvetica" font-size="10.00">/inputManager.h</text>
</a>
</g>
</g>
<!-- Node2 -->
<g id="node2" class="node">
<title>Node2</title>
<g id="a_node2"><a xlink:href="inputManager_8cpp.html" target="_top" xlink:title=" ">
<polygon fill="white" stroke="black" points="400.5,-67.5 400.5,-97.5 504.5,-97.5 504.5,-67.5 400.5,-67.5"/>
<text text-anchor="start" x="408.5" y="-85.5" font-family="Helvetica" font-size="10.00">Plotting/plottingUtils</text>
<text text-anchor="middle" x="452.5" y="-74.5" font-family="Helvetica" font-size="10.00">/inputManager.cpp</text>
</a>
</g>
</g>
<!-- Node1&#45;&gt;Node2 -->
<g id="edge1" class="edge">
<title>Node1&#45;&gt;Node2</title>
<path fill="none" stroke="midnightblue" d="M538.98,-129.57C519.79,-119.35 496.5,-106.94 478.92,-97.58"/>
<polygon fill="midnightblue" stroke="midnightblue" points="537.56,-132.78 548.03,-134.4 540.85,-126.6 537.56,-132.78"/>
</g>
<!-- Node3 -->
<g id="node3" class="node">
<title>Node3</title>
<g id="a_node3"><a xlink:href="plottingManager_8h.html" target="_top" xlink:title=" ">
<polygon fill="white" stroke="black" points="522.5,-67.5 522.5,-97.5 626.5,-97.5 626.5,-67.5 522.5,-67.5"/>
<text text-anchor="start" x="530.5" y="-85.5" font-family="Helvetica" font-size="10.00">Plotting/plottingUtils</text>
<text text-anchor="middle" x="574.5" y="-74.5" font-family="Helvetica" font-size="10.00">/plottingManager.h</text>
</a>
</g>
</g>
<!-- Node1&#45;&gt;Node3 -->
<g id="edge2" class="edge">
<title>Node1&#45;&gt;Node3</title>
<path fill="none" stroke="midnightblue" d="M574.5,-124.11C574.5,-115.15 574.5,-105.32 574.5,-97.58"/>
<polygon fill="midnightblue" stroke="midnightblue" points="571,-124.4 574.5,-134.4 578,-124.4 571,-124.4"/>
</g>
<!-- Node10 -->
<g id="node10" class="node">
<title>Node10</title>
<g id="a_node10"><a xlink:href="plotting_8cpp.html" target="_top" xlink:title=" ">
<polygon fill="white" stroke="black" points="876,-6 876,-25 975,-25 975,-6 876,-6"/>
<text text-anchor="middle" x="925.5" y="-13" font-family="Helvetica" font-size="10.00">python/plotting.cpp</text>
</a>
</g>
</g>
<!-- Node1&#45;&gt;Node10 -->
<g id="edge10" class="edge">
<title>Node1&#45;&gt;Node10</title>
<path fill="none" stroke="midnightblue" d="M621.1,-130.98C697.29,-102.32 845.73,-46.5 902.59,-25.12"/>
<polygon fill="midnightblue" stroke="midnightblue" points="619.86,-127.7 611.73,-134.5 622.32,-134.25 619.86,-127.7"/>
</g>
<!-- Node4 -->
<g id="node4" class="node">
<title>Node4</title>
<g id="a_node4"><a xlink:href="GetPostfitParamPlots_8cpp.html" target="_top" xlink:title=" ">
<polygon fill="white" stroke="black" points="0,-0.5 0,-30.5 125,-30.5 125,-0.5 0,-0.5"/>
<text text-anchor="start" x="8" y="-18.5" font-family="Helvetica" font-size="10.00">Plotting/GetPostfitParam</text>
<text text-anchor="middle" x="62.5" y="-7.5" font-family="Helvetica" font-size="10.00">Plots.cpp</text>
</a>
</g>
</g>
<!-- Node3&#45;&gt;Node4 -->
<g id="edge3" class="edge">
<title>Node3&#45;&gt;Node4</title>
<path fill="none" stroke="midnightblue" d="M512.43,-66.98C344.38,-39.94 298.1,-55.53 133.5,-31 130.76,-30.59 127.97,-30.15 125.16,-29.67"/>
<polygon fill="midnightblue" stroke="midnightblue" points="511.92,-70.44 522.35,-68.6 513.05,-63.53 511.92,-70.44"/>
</g>
<!-- Node5 -->
<g id="node5" class="node">
<title>Node5</title>
<g id="a_node5"><a xlink:href="MatrixPlotter_8cpp.html" target="_top" xlink:title=" ">
<polygon fill="white" stroke="black" points="143,-6 143,-25 270,-25 270,-6 143,-6"/>
<text text-anchor="middle" x="206.5" y="-13" font-family="Helvetica" font-size="10.00">Plotting/MatrixPlotter.cpp</text>
</a>
</g>
</g>
<!-- Node3&#45;&gt;Node5 -->
<g id="edge4" class="edge">
<title>Node3&#45;&gt;Node5</title>
<path fill="none" stroke="midnightblue" d="M512.33,-66.87C408.07,-46.91 379.39,-48.88 278.5,-31 268.33,-29.2 257.39,-27.08 247.18,-25.04"/>
<polygon fill="midnightblue" stroke="midnightblue" points="511.83,-70.34 522.32,-68.8 513.17,-63.46 511.83,-70.34"/>
</g>
<!-- Node6 -->
<g id="node6" class="node">
<title>Node6</title>
<g id="a_node6"><a xlink:href="PlotLLH_8cpp.html" target="_top" xlink:title=" ">
<polygon fill="white" stroke="black" points="288,-6 288,-25 395,-25 395,-6 288,-6"/>
<text text-anchor="middle" x="341.5" y="-13" font-family="Helvetica" font-size="10.00">Plotting/PlotLLH.cpp</text>
</a>
</g>
</g>
<!-- Node3&#45;&gt;Node6 -->
<g id="edge5" class="edge">
<title>Node3&#45;&gt;Node6</title>
<path fill="none" stroke="midnightblue" d="M514.46,-64.75C468.89,-52.04 408.12,-35.09 372.07,-25.03"/>
<polygon fill="midnightblue" stroke="midnightblue" points="513.66,-68.16 524.23,-67.48 515.54,-61.42 513.66,-68.16"/>
</g>
<!-- Node7 -->
<g id="node7" class="node">
<title>Node7</title>
<g id="a_node7"><a xlink:href="PlotSigmaVariation_8cpp.html" target="_top" xlink:title=" ">
<polygon fill="white" stroke="black" points="413.5,-6 413.5,-25 567.5,-25 567.5,-6 413.5,-6"/>
<text text-anchor="middle" x="490.5" y="-13" font-family="Helvetica" font-size="10.00">Plotting/PlotSigmaVariation.cpp</text>
</a>
</g>
</g>
<!-- Node3&#45;&gt;Node7 -->
<g id="edge6" class="edge">
<title>Node3&#45;&gt;Node7</title>
<path fill="none" stroke="midnightblue" d="M548.02,-61.01C532.42,-48.94 513.51,-34.3 501.74,-25.19"/>
<polygon fill="midnightblue" stroke="midnightblue" points="546.22,-64.04 556.27,-67.4 550.51,-58.51 546.22,-64.04"/>
</g>
<!-- Node8 -->
<g id="node8" class="node">
<title>Node8</title>
<g id="a_node8"><a xlink:href="PredictivePlotting_8cpp.html" target="_top" xlink:title=" ">
<polygon fill="white" stroke="black" points="586,-6 586,-25 733,-25 733,-6 586,-6"/>
<text text-anchor="middle" x="659.5" y="-13" font-family="Helvetica" font-size="10.00">Plotting/PredictivePlotting.cpp</text>
</a>
</g>
</g>
<!-- Node3&#45;&gt;Node8 -->
<g id="edge7" class="edge">
<title>Node3&#45;&gt;Node8</title>
<path fill="none" stroke="midnightblue" d="M601.3,-61.01C617.08,-48.94 636.22,-34.3 648.13,-25.19"/>
<polygon fill="midnightblue" stroke="midnightblue" points="598.76,-58.54 592.94,-67.4 603.01,-64.1 598.76,-58.54"/>
</g>
<!-- Node9 -->
<g id="node9" class="node">
<title>Node9</title>
<g id="a_node9"><a xlink:href="plottingManager_8cpp.html" target="_top" xlink:title=" ">
<polygon fill="white" stroke="black" points="751,-0.5 751,-30.5 858,-30.5 858,-0.5 751,-0.5"/>
<text text-anchor="start" x="759" y="-18.5" font-family="Helvetica" font-size="10.00">Plotting/plottingUtils</text>
<text text-anchor="middle" x="804.5" y="-7.5" font-family="Helvetica" font-size="10.00">/plottingManager.cpp</text>
</a>
</g>
</g>
<!-- Node3&#45;&gt;Node9 -->
<g id="edge8" class="edge">
<title>Node3&#45;&gt;Node9</title>
<path fill="none" stroke="midnightblue" d="M633.89,-64.71C671.32,-54.14 719.1,-40.63 754.57,-30.61"/>
<polygon fill="midnightblue" stroke="midnightblue" points="632.79,-61.39 624.12,-67.48 634.7,-68.12 632.79,-61.39"/>
</g>
<!-- Node3&#45;&gt;Node10 -->
<g id="edge9" class="edge">
<title>Node3&#45;&gt;Node10</title>
<path fill="none" stroke="midnightblue" d="M636.58,-72.17C696.06,-62.91 788.24,-47.71 867.5,-31 875.83,-29.24 884.77,-27.13 893.08,-25.06"/>
<polygon fill="midnightblue" stroke="midnightblue" points="635.94,-68.73 626.59,-73.72 637.01,-75.65 635.94,-68.73"/>
</g>
</g>
</svg>
