<?xml version="1.0" encoding="UTF-8" standalone="no"?>
<!DOCTYPE svg PUBLIC "-//W3C//DTD SVG 1.1//EN"
 "http://www.w3.org/Graphics/SVG/1.1/DTD/svg11.dtd">
<!-- Generated by graphviz version 2.44.0 (0)
 -->
<!-- Title: Manager/MaCh3Modes.cpp Pages: 1 -->
<!--zoomable 420 -->
<svg id="main" version="1.1" xmlns="http://www.w3.org/2000/svg" xmlns:xlink="http://www.w3.org/1999/xlink" xml:space="preserve" onload="init(evt)">
<style type="text/css"><![CDATA[
.edge:hover path { stroke: red; }
.edge:hover polygon { stroke: red; fill: red; }
]]></style>
<script type="text/javascript"><![CDATA[
var edges = document.getElementsByTagName('g');
if (edges && edges.length) {
  for (var i=0;i<edges.length;i++) {
    if (edges[i].id.substr(0,4)=='edge') {
      edges[i].setAttribute('class','edge');
    }
  }
}
]]></script>
        <defs>
                <circle id="rim" cx="0" cy="0" r="7"/>
                <circle id="rim2" cx="0" cy="0" r="3.5"/>
                <g id="zoomPlus">
                        <use xlink:href="#rim" fill="#404040">
                                <set attributeName="fill" to="#808080" begin="zoomplus.mouseover" end="zoomplus.mouseout"/>
                        </use>
                        <path d="M-4,0h8M0,-4v8" fill="none" stroke="white" stroke-width="1.5" pointer-events="none"/>
                </g>
                <g id="zoomMin">
                        <use xlink:href="#rim" fill="#404040">
                                <set attributeName="fill" to="#808080" begin="zoomminus.mouseover" end="zoomminus.mouseout"/>
                        </use>
                        <path d="M-4,0h8" fill="none" stroke="white" stroke-width="1.5" pointer-events="none"/>
                </g>
                <g id="dirArrow">
                        <path fill="none" stroke="white" stroke-width="1.5" d="M0,-3.0v7 M-2.5,-0.5L0,-3.0L2.5,-0.5"/>
                </g>
               <g id="resetDef">
                       <use xlink:href="#rim2" fill="#404040">
                               <set attributeName="fill" to="#808080" begin="reset.mouseover" end="reset.mouseout"/>
                       </use>
               </g>
        </defs>

<script type="text/javascript">
var viewWidth = 1223;
var viewHeight = 420;
var sectionId = 'dynsection-0';
</script>
<script xlink:href="svgpan.js"/>
<svg id="graph" class="graph">
<g id="viewport">
<title>Manager/MaCh3Modes.cpp</title>
<polygon fill="white" stroke="transparent" points="-4,4 -4,-416 1219,-416 1219,4 -4,4"/>
<!-- Node1 -->
<g id="node1" class="node">
<title>Node1</title>
<g id="a_node1"><a xlink:title=" ">
<polygon fill="#bfbfbf" stroke="black" points="656.5,-392.5 656.5,-411.5 793.5,-411.5 793.5,-392.5 656.5,-392.5"/>
<text text-anchor="middle" x="725" y="-399.5" font-family="Helvetica" font-size="10.00">Manager/MaCh3Modes.cpp</text>
</a>
</g>
</g>
<!-- Node2 -->
<g id="node2" class="node">
<title>Node2</title>
<g id="a_node2"><a xlink:href="MaCh3Modes_8h.html" target="_top" xlink:title=" ">
<polygon fill="white" stroke="black" points="682,-336.5 682,-355.5 768,-355.5 768,-336.5 682,-336.5"/>
<text text-anchor="middle" x="725" y="-343.5" font-family="Helvetica" font-size="10.00">MaCh3Modes.h</text>
</a>
</g>
</g>
<!-- Node1&#45;&gt;Node2 -->
<g id="edge1" class="edge">
<title>Node1&#45;&gt;Node2</title>
<path fill="none" stroke="midnightblue" d="M725,-392.08C725,-385.01 725,-374.86 725,-365.99"/>
<polygon fill="midnightblue" stroke="midnightblue" points="728.5,-365.75 725,-355.75 721.5,-365.75 728.5,-365.75"/>
</g>
<!-- Node3 -->
<g id="node3" class="node">
<title>Node3</title>
<g id="a_node3"><a xlink:title=" ">
<polygon fill="white" stroke="#bfbfbf" points="0,-0.5 0,-19.5 44,-19.5 44,-0.5 0,-0.5"/>
<text text-anchor="middle" x="22" y="-7.5" font-family="Helvetica" font-size="10.00">cmath</text>
</a>
</g>
</g>
<!-- Node2&#45;&gt;Node3 -->
<g id="edge2" class="edge">
<title>Node2&#45;&gt;Node3</title>
<path fill="none" stroke="midnightblue" d="M681.78,-342.87C528.06,-334.75 17,-302.64 17,-235 17,-235 17,-235 17,-121 17,-88.91 19.15,-51.62 20.63,-29.74"/>
<polygon fill="midnightblue" stroke="midnightblue" points="24.14,-29.77 21.35,-19.55 17.15,-29.28 24.14,-29.77"/>
</g>
<!-- Node4 -->
<g id="node4" class="node">
<title>Node4</title>
<g id="a_node4"><a xlink:title=" ">
<polygon fill="white" stroke="#bfbfbf" points="623.5,-280.5 623.5,-299.5 658.5,-299.5 658.5,-280.5 623.5,-280.5"/>
<text text-anchor="middle" x="641" y="-287.5" font-family="Helvetica" font-size="10.00">map</text>
</a>
</g>
</g>
<!-- Node2&#45;&gt;Node4 -->
<g id="edge3" class="edge">
<title>Node2&#45;&gt;Node4</title>
<path fill="none" stroke="midnightblue" d="M711.5,-336.32C698.4,-327.9 678.29,-314.97 662.89,-305.07"/>
<polygon fill="midnightblue" stroke="midnightblue" points="664.77,-302.12 654.46,-299.65 660.98,-308.01 664.77,-302.12"/>
</g>
<!-- Node5 -->
<g id="node5" class="node">
<title>Node5</title>
<g id="a_node5"><a xlink:title=" ">
<polygon fill="white" stroke="#bfbfbf" points="774.5,-56.5 774.5,-75.5 815.5,-75.5 815.5,-56.5 774.5,-56.5"/>
<text text-anchor="middle" x="795" y="-63.5" font-family="Helvetica" font-size="10.00">string</text>
</a>
</g>
</g>
<!-- Node2&#45;&gt;Node5 -->
<g id="edge4" class="edge">
<title>Node2&#45;&gt;Node5</title>
<path fill="none" stroke="midnightblue" d="M768.41,-344.19C816.37,-341.6 894.53,-332.24 953,-300 983.01,-283.45 993.32,-275.84 1006,-244 1009.29,-235.74 1009.99,-231.94 1006,-224 967.84,-148.04 873.59,-99.53 825.01,-78.72"/>
<polygon fill="midnightblue" stroke="midnightblue" points="826.23,-75.43 815.66,-74.81 823.54,-81.89 826.23,-75.43"/>
</g>
<!-- Node6 -->
<g id="node6" class="node">
<title>Node6</title>
<g id="a_node6"><a xlink:href="YamlHelper_8h.html" target="_top" xlink:title="Utility functions for handling YAML nodes.">
<polygon fill="white" stroke="black" points="331,-224.5 331,-243.5 447,-243.5 447,-224.5 331,-224.5"/>
<text text-anchor="middle" x="389" y="-231.5" font-family="Helvetica" font-size="10.00">Manager/YamlHelper.h</text>
</a>
</g>
</g>
<!-- Node2&#45;&gt;Node6 -->
<g id="edge5" class="edge">
<title>Node2&#45;&gt;Node6</title>
<path fill="none" stroke="midnightblue" d="M720.02,-336.11C711.45,-321.7 692.43,-293.52 668,-280 649.85,-269.95 533.87,-253.54 457.27,-243.55"/>
<polygon fill="midnightblue" stroke="midnightblue" points="457.57,-240.06 447.2,-242.25 456.67,-247.01 457.57,-240.06"/>
</g>
<!-- Node11 -->
<g id="node11" class="node">
<title>Node11</title>
<g id="a_node11"><a xlink:href="MaCh3Exception_8h.html" target="_top" xlink:title="Defines the custom exception class used throughout MaCh3.">
<polygon fill="white" stroke="black" points="701,-168.5 701,-187.5 841,-187.5 841,-168.5 701,-168.5"/>
<text text-anchor="middle" x="771" y="-175.5" font-family="Helvetica" font-size="10.00">Manager/MaCh3Exception.h</text>
</a>
</g>
</g>
<!-- Node2&#45;&gt;Node11 -->
<g id="edge51" class="edge">
<title>Node2&#45;&gt;Node11</title>
<path fill="none" stroke="midnightblue" d="M768.16,-342.85C829.44,-337.21 939.79,-316.88 990,-244 995.04,-236.68 995.62,-230.89 990,-224 972.48,-202.51 906.31,-190.99 851.25,-185.01"/>
<polygon fill="midnightblue" stroke="midnightblue" points="851.42,-181.51 841.11,-183.95 850.7,-188.47 851.42,-181.51"/>
</g>
<!-- Node27 -->
<g id="node27" class="node">
<title>Node27</title>
<g id="a_node27"><a xlink:href="Monitor_8h.html" target="_top" xlink:title="System and monitoring utilities for printing system information and status updates.">
<polygon fill="white" stroke="black" points="715,-280.5 715,-299.5 813,-299.5 813,-280.5 715,-280.5"/>
<text text-anchor="middle" x="764" y="-287.5" font-family="Helvetica" font-size="10.00">Manager/Monitor.h</text>
</a>
</g>
</g>
<!-- Node2&#45;&gt;Node27 -->
<g id="edge37" class="edge">
<title>Node2&#45;&gt;Node27</title>
<path fill="none" stroke="midnightblue" d="M731.44,-336.08C736.95,-328.46 745.03,-317.26 751.76,-307.94"/>
<polygon fill="midnightblue" stroke="midnightblue" points="754.66,-309.91 757.68,-299.75 748.99,-305.81 754.66,-309.91"/>
</g>
<!-- Node6&#45;&gt;Node5 -->
<g id="edge8" class="edge">
<title>Node6&#45;&gt;Node5</title>
<path fill="none" stroke="midnightblue" d="M445.86,-224.5C483.11,-217.64 532.28,-206.09 573,-188 627.98,-163.58 631.99,-140.43 685,-112 710.86,-98.13 741.94,-85.78 764.45,-77.55"/>
<polygon fill="midnightblue" stroke="midnightblue" points="765.92,-80.74 774.15,-74.06 763.55,-74.15 765.92,-80.74"/>
</g>
<!-- Node7 -->
<g id="node7" class="node">
<title>Node7</title>
<g id="a_node7"><a xlink:title=" ">
<polygon fill="white" stroke="#bfbfbf" points="719,-0.5 719,-19.5 773,-19.5 773,-0.5 719,-0.5"/>
<text text-anchor="middle" x="746" y="-7.5" font-family="Helvetica" font-size="10.00">iostream</text>
</a>
</g>
</g>
<!-- Node6&#45;&gt;Node7 -->
<g id="edge6" class="edge">
<title>Node6&#45;&gt;Node7</title>
<path fill="none" stroke="midnightblue" d="M424.25,-224.48C451.64,-217.05 490.04,-204.81 521,-188 607.53,-141 694.88,-60.74 729.96,-26.85"/>
<polygon fill="midnightblue" stroke="midnightblue" points="732.65,-29.12 737.37,-19.63 727.76,-24.11 732.65,-29.12"/>
</g>
<!-- Node8 -->
<g id="node8" class="node">
<title>Node8</title>
<g id="a_node8"><a xlink:title=" ">
<polygon fill="white" stroke="#bfbfbf" points="68,-0.5 68,-19.5 118,-19.5 118,-0.5 68,-0.5"/>
<text text-anchor="middle" x="93" y="-7.5" font-family="Helvetica" font-size="10.00">fstream</text>
</a>
</g>
</g>
<!-- Node6&#45;&gt;Node8 -->
<g id="edge7" class="edge">
<title>Node6&#45;&gt;Node8</title>
<path fill="none" stroke="midnightblue" d="M330.92,-231.58C258.64,-228.5 141.15,-218.77 112,-188 70.96,-144.67 81.02,-66 88.44,-29.96"/>
<polygon fill="midnightblue" stroke="midnightblue" points="91.94,-30.37 90.69,-19.85 85.1,-28.85 91.94,-30.37"/>
</g>
<!-- Node9 -->
<g id="node9" class="node">
<title>Node9</title>
<g id="a_node9"><a xlink:title=" ">
<polygon fill="white" stroke="#bfbfbf" points="226.5,-168.5 226.5,-187.5 279.5,-187.5 279.5,-168.5 226.5,-168.5"/>
<text text-anchor="middle" x="253" y="-175.5" font-family="Helvetica" font-size="10.00">cxxabi.h</text>
</a>
</g>
</g>
<!-- Node6&#45;&gt;Node9 -->
<g id="edge9" class="edge">
<title>Node6&#45;&gt;Node9</title>
<path fill="none" stroke="midnightblue" d="M367.45,-224.44C344.97,-215.52 309.51,-201.44 284.02,-191.32"/>
<polygon fill="midnightblue" stroke="midnightblue" points="285.03,-187.95 274.45,-187.52 282.45,-194.46 285.03,-187.95"/>
</g>
<!-- Node10 -->
<g id="node10" class="node">
<title>Node10</title>
<g id="a_node10"><a xlink:title=" ">
<polygon fill="white" stroke="#bfbfbf" points="297.5,-168.5 297.5,-187.5 338.5,-187.5 338.5,-168.5 297.5,-168.5"/>
<text text-anchor="middle" x="318" y="-175.5" font-family="Helvetica" font-size="10.00">regex</text>
</a>
</g>
</g>
<!-- Node6&#45;&gt;Node10 -->
<g id="edge10" class="edge">
<title>Node6&#45;&gt;Node10</title>
<path fill="none" stroke="midnightblue" d="M377.59,-224.32C366.89,-216.18 350.66,-203.84 337.84,-194.09"/>
<polygon fill="midnightblue" stroke="midnightblue" points="339.69,-191.1 329.61,-187.83 335.46,-196.67 339.69,-191.1"/>
</g>
<!-- Node6&#45;&gt;Node11 -->
<g id="edge11" class="edge">
<title>Node6&#45;&gt;Node11</title>
<path fill="none" stroke="midnightblue" d="M447.02,-224.8C515.09,-215.18 627.91,-199.23 700.84,-188.92"/>
<polygon fill="midnightblue" stroke="midnightblue" points="701.45,-192.37 710.86,-187.5 700.47,-185.44 701.45,-192.37"/>
</g>
<!-- Node17 -->
<g id="node17" class="node">
<title>Node17</title>
<g id="a_node17"><a xlink:href="Core_8h.html" target="_top" xlink:title="KS: Core MaCh3 definitions and compile&#45;time configuration utilities.">
<polygon fill="white" stroke="black" points="478,-56.5 478,-75.5 564,-75.5 564,-56.5 478,-56.5"/>
<text text-anchor="middle" x="521" y="-63.5" font-family="Helvetica" font-size="10.00">Manager/Core.h</text>
</a>
</g>
</g>
<!-- Node6&#45;&gt;Node17 -->
<g id="edge32" class="edge">
<title>Node6&#45;&gt;Node17</title>
<path fill="none" stroke="midnightblue" d="M440,-224.44C462.29,-218.08 486.78,-207.06 502,-188 525.58,-158.47 525.58,-111.63 523.37,-85.75"/>
<polygon fill="midnightblue" stroke="midnightblue" points="526.85,-85.33 522.32,-75.75 519.89,-86.07 526.85,-85.33"/>
</g>
<!-- Node23 -->
<g id="node23" class="node">
<title>Node23</title>
<g id="a_node23"><a xlink:title=" ">
<polygon fill="white" stroke="#bfbfbf" points="625,-168.5 625,-187.5 683,-187.5 683,-168.5 625,-168.5"/>
<text text-anchor="middle" x="654" y="-175.5" font-family="Helvetica" font-size="10.00">TMacro.h</text>
</a>
</g>
</g>
<!-- Node6&#45;&gt;Node23 -->
<g id="edge33" class="edge">
<title>Node6&#45;&gt;Node23</title>
<path fill="none" stroke="midnightblue" d="M431.58,-224.45C476.28,-215.46 548.6,-200.85 611,-188 612.26,-187.74 613.54,-187.48 614.84,-187.21"/>
<polygon fill="midnightblue" stroke="midnightblue" points="615.78,-190.59 624.86,-185.12 614.36,-183.73 615.78,-190.59"/>
</g>
<!-- Node24 -->
<g id="node24" class="node">
<title>Node24</title>
<g id="a_node24"><a xlink:title=" ">
<polygon fill="white" stroke="#bfbfbf" points="357,-168.5 357,-187.5 403,-187.5 403,-168.5 357,-168.5"/>
<text text-anchor="middle" x="380" y="-175.5" font-family="Helvetica" font-size="10.00">TList.h</text>
</a>
</g>
</g>
<!-- Node6&#45;&gt;Node24 -->
<g id="edge34" class="edge">
<title>Node6&#45;&gt;Node24</title>
<path fill="none" stroke="midnightblue" d="M387.51,-224.08C386.32,-216.93 384.61,-206.64 383.12,-197.69"/>
<polygon fill="midnightblue" stroke="midnightblue" points="386.55,-197.04 381.46,-187.75 379.65,-198.19 386.55,-197.04"/>
</g>
<!-- Node25 -->
<g id="node25" class="node">
<title>Node25</title>
<g id="a_node25"><a xlink:title=" ">
<polygon fill="white" stroke="#bfbfbf" points="421.5,-168.5 421.5,-187.5 492.5,-187.5 492.5,-168.5 421.5,-168.5"/>
<text text-anchor="middle" x="457" y="-175.5" font-family="Helvetica" font-size="10.00">TObjString.h</text>
</a>
</g>
</g>
<!-- Node6&#45;&gt;Node25 -->
<g id="edge35" class="edge">
<title>Node6&#45;&gt;Node25</title>
<path fill="none" stroke="midnightblue" d="M399.93,-224.32C410.17,-216.18 425.72,-203.84 438,-194.09"/>
<polygon fill="midnightblue" stroke="midnightblue" points="440.22,-196.79 445.88,-187.83 435.87,-191.31 440.22,-196.79"/>
</g>
<!-- Node26 -->
<g id="node26" class="node">
<title>Node26</title>
<g id="a_node26"><a xlink:title=" ">
<polygon fill="white" stroke="#bfbfbf" points="121.5,-168.5 121.5,-187.5 208.5,-187.5 208.5,-168.5 121.5,-168.5"/>
<text text-anchor="middle" x="165" y="-175.5" font-family="Helvetica" font-size="10.00">yaml&#45;cpp/yaml.h</text>
</a>
</g>
</g>
<!-- Node6&#45;&gt;Node26 -->
<g id="edge36" class="edge">
<title>Node6&#45;&gt;Node26</title>
<path fill="none" stroke="midnightblue" d="M353.51,-224.44C314.68,-215.08 252.34,-200.06 210.08,-189.87"/>
<polygon fill="midnightblue" stroke="midnightblue" points="210.87,-186.46 200.33,-187.52 209.23,-193.26 210.87,-186.46"/>
</g>
<!-- Node11&#45;&gt;Node5 -->
<g id="edge13" class="edge">
<title>Node11&#45;&gt;Node5</title>
<path fill="none" stroke="midnightblue" d="M744.97,-168.42C716.4,-157.53 676.64,-137.1 693,-112 708.65,-87.99 740.33,-76.7 764.25,-71.45"/>
<polygon fill="midnightblue" stroke="midnightblue" points="765.14,-74.84 774.28,-69.49 763.8,-67.97 765.14,-74.84"/>
</g>
<!-- Node11&#45;&gt;Node7 -->
<g id="edge12" class="edge">
<title>Node11&#45;&gt;Node7</title>
<path fill="none" stroke="midnightblue" d="M771.47,-168.13C772,-155.57 772.49,-131.93 770,-112 766.32,-82.58 757.46,-49.25 751.59,-29.2"/>
<polygon fill="midnightblue" stroke="midnightblue" points="754.92,-28.1 748.7,-19.53 748.21,-30.11 754.92,-28.1"/>
</g>
<!-- Node12 -->
<g id="node12" class="node">
<title>Node12</title>
<g id="a_node12"><a xlink:title=" ">
<polygon fill="white" stroke="#bfbfbf" points="701.5,-112.5 701.5,-131.5 760.5,-131.5 760.5,-112.5 701.5,-112.5"/>
<text text-anchor="middle" x="731" y="-119.5" font-family="Helvetica" font-size="10.00">stdexcept</text>
</a>
</g>
</g>
<!-- Node11&#45;&gt;Node12 -->
<g id="edge14" class="edge">
<title>Node11&#45;&gt;Node12</title>
<path fill="none" stroke="midnightblue" d="M764.39,-168.08C758.74,-160.46 750.46,-149.26 743.55,-139.94"/>
<polygon fill="midnightblue" stroke="midnightblue" points="746.25,-137.7 737.48,-131.75 740.62,-141.87 746.25,-137.7"/>
</g>
<!-- Node13 -->
<g id="node13" class="node">
<title>Node13</title>
<g id="a_node13"><a xlink:href="MaCh3Logger_8h.html" target="_top" xlink:title="MaCh3 Logging utilities built on top of SPDLOG.">
<polygon fill="white" stroke="black" points="935,-112.5 935,-131.5 1061,-131.5 1061,-112.5 935,-112.5"/>
<text text-anchor="middle" x="998" y="-119.5" font-family="Helvetica" font-size="10.00">Manager/MaCh3Logger.h</text>
</a>
</g>
</g>
<!-- Node11&#45;&gt;Node13 -->
<g id="edge15" class="edge">
<title>Node11&#45;&gt;Node13</title>
<path fill="none" stroke="midnightblue" d="M806.97,-168.44C846.32,-159.08 909.49,-144.06 952.31,-133.87"/>
<polygon fill="midnightblue" stroke="midnightblue" points="953.28,-137.24 962.2,-131.52 951.66,-130.43 953.28,-137.24"/>
</g>
<!-- Node11&#45;&gt;Node17 -->
<g id="edge31" class="edge">
<title>Node11&#45;&gt;Node17</title>
<path fill="none" stroke="midnightblue" d="M751.38,-168.37C707.48,-149.05 601.13,-102.26 549.75,-79.65"/>
<polygon fill="midnightblue" stroke="midnightblue" points="551.09,-76.42 540.53,-75.59 548.27,-82.82 551.09,-76.42"/>
</g>
<!-- Node13&#45;&gt;Node5 -->
<g id="edge19" class="edge">
<title>Node13&#45;&gt;Node5</title>
<path fill="none" stroke="midnightblue" d="M965.83,-112.44C927.31,-102.2 863.25,-85.16 825.49,-75.11"/>
<polygon fill="midnightblue" stroke="midnightblue" points="826.14,-71.66 815.58,-72.47 824.34,-78.43 826.14,-71.66"/>
</g>
<!-- Node13&#45;&gt;Node7 -->
<g id="edge16" class="edge">
<title>Node13&#45;&gt;Node7</title>
<path fill="none" stroke="midnightblue" d="M1047.76,-112.46C1091.79,-102.82 1145.4,-84.64 1120,-56 1097.85,-31.03 873.15,-17.26 783.06,-12.72"/>
<polygon fill="midnightblue" stroke="midnightblue" points="783.18,-9.22 773.02,-12.22 782.83,-16.21 783.18,-9.22"/>
</g>
<!-- Node14 -->
<g id="node14" class="node">
<title>Node14</title>
<g id="a_node14"><a xlink:title=" ">
<polygon fill="white" stroke="#bfbfbf" points="642,-0.5 642,-19.5 694,-19.5 694,-0.5 642,-0.5"/>
<text text-anchor="middle" x="668" y="-7.5" font-family="Helvetica" font-size="10.00">sstream</text>
</a>
</g>
</g>
<!-- Node13&#45;&gt;Node14 -->
<g id="edge17" class="edge">
<title>Node13&#45;&gt;Node14</title>
<path fill="none" stroke="midnightblue" d="M967.72,-112.45C940.01,-104.26 898.11,-90.97 863,-76 845.44,-68.51 842.71,-63.11 825,-56 784.64,-39.79 736.27,-26.85 703.99,-19.08"/>
<polygon fill="midnightblue" stroke="midnightblue" points="704.64,-15.64 694.11,-16.74 703.03,-22.45 704.64,-15.64"/>
</g>
<!-- Node15 -->
<g id="node15" class="node">
<title>Node15</title>
<g id="a_node15"><a xlink:title=" ">
<polygon fill="white" stroke="#bfbfbf" points="1051.5,-56.5 1051.5,-75.5 1110.5,-75.5 1110.5,-56.5 1051.5,-56.5"/>
<text text-anchor="middle" x="1081" y="-63.5" font-family="Helvetica" font-size="10.00">functional</text>
</a>
</g>
</g>
<!-- Node13&#45;&gt;Node15 -->
<g id="edge18" class="edge">
<title>Node13&#45;&gt;Node15</title>
<path fill="none" stroke="midnightblue" d="M1011.34,-112.32C1024.16,-103.98 1043.78,-91.21 1058.94,-81.35"/>
<polygon fill="midnightblue" stroke="midnightblue" points="1061.22,-84.04 1067.7,-75.65 1057.41,-78.17 1061.22,-84.04"/>
</g>
<!-- Node16 -->
<g id="node16" class="node">
<title>Node16</title>
<g id="a_node16"><a xlink:title=" ">
<polygon fill="white" stroke="#bfbfbf" points="872,-56.5 872,-75.5 930,-75.5 930,-56.5 872,-56.5"/>
<text text-anchor="middle" x="901" y="-63.5" font-family="Helvetica" font-size="10.00">exception</text>
</a>
</g>
</g>
<!-- Node13&#45;&gt;Node16 -->
<g id="edge20" class="edge">
<title>Node13&#45;&gt;Node16</title>
<path fill="none" stroke="midnightblue" d="M982.42,-112.32C967,-103.74 943.19,-90.49 925.29,-80.52"/>
<polygon fill="midnightblue" stroke="midnightblue" points="926.99,-77.46 916.55,-75.65 923.58,-83.58 926.99,-77.46"/>
</g>
<!-- Node13&#45;&gt;Node17 -->
<g id="edge21" class="edge">
<title>Node13&#45;&gt;Node17</title>
<path fill="none" stroke="midnightblue" d="M934.66,-113.83C839.83,-103.09 662.67,-83.04 574.17,-73.02"/>
<polygon fill="midnightblue" stroke="midnightblue" points="574.41,-69.52 564.08,-71.88 573.62,-76.48 574.41,-69.52"/>
</g>
<!-- Node22 -->
<g id="node22" class="node">
<title>Node22</title>
<g id="a_node22"><a xlink:title=" ">
<polygon fill="white" stroke="#bfbfbf" points="948.5,-56.5 948.5,-75.5 1033.5,-75.5 1033.5,-56.5 948.5,-56.5"/>
<text text-anchor="middle" x="991" y="-63.5" font-family="Helvetica" font-size="10.00">spdlog/spdlog.h</text>
</a>
</g>
</g>
<!-- Node13&#45;&gt;Node22 -->
<g id="edge30" class="edge">
<title>Node13&#45;&gt;Node22</title>
<path fill="none" stroke="midnightblue" d="M996.84,-112.08C995.92,-104.93 994.58,-94.64 993.42,-85.69"/>
<polygon fill="midnightblue" stroke="midnightblue" points="996.89,-85.22 992.13,-75.75 989.95,-86.12 996.89,-85.22"/>
</g>
<!-- Node17&#45;&gt;Node3 -->
<g id="edge27" class="edge">
<title>Node17&#45;&gt;Node3</title>
<path fill="none" stroke="midnightblue" d="M477.74,-62.83C395.63,-58.27 211.75,-45.88 59,-20 57.49,-19.74 55.96,-19.46 54.41,-19.16"/>
<polygon fill="midnightblue" stroke="midnightblue" points="54.71,-15.64 44.2,-16.94 53.23,-22.48 54.71,-15.64"/>
</g>
<!-- Node17&#45;&gt;Node7 -->
<g id="edge24" class="edge">
<title>Node17&#45;&gt;Node7</title>
<path fill="none" stroke="midnightblue" d="M556.65,-56.44C598.32,-46.44 666.93,-29.98 709.12,-19.85"/>
<polygon fill="midnightblue" stroke="midnightblue" points="710.08,-23.22 718.99,-17.48 708.45,-16.41 710.08,-23.22"/>
</g>
<!-- Node17&#45;&gt;Node8 -->
<g id="edge23" class="edge">
<title>Node17&#45;&gt;Node8</title>
<path fill="none" stroke="midnightblue" d="M477.61,-59.53C392.76,-48.82 206.4,-25.31 128.41,-15.47"/>
<polygon fill="midnightblue" stroke="midnightblue" points="128.51,-11.95 118.15,-14.17 127.63,-18.9 128.51,-11.95"/>
</g>
<!-- Node17&#45;&gt;Node14 -->
<g id="edge22" class="edge">
<title>Node17&#45;&gt;Node14</title>
<path fill="none" stroke="midnightblue" d="M544.29,-56.44C568.81,-47.44 607.6,-33.19 635.2,-23.05"/>
<polygon fill="midnightblue" stroke="midnightblue" points="636.64,-26.25 644.82,-19.52 634.22,-19.68 636.64,-26.25"/>
</g>
<!-- Node18 -->
<g id="node18" class="node">
<title>Node18</title>
<g id="a_node18"><a xlink:title=" ">
<polygon fill="white" stroke="#bfbfbf" points="992.5,-0.5 992.5,-19.5 1035.5,-19.5 1035.5,-0.5 992.5,-0.5"/>
<text text-anchor="middle" x="1014" y="-7.5" font-family="Helvetica" font-size="10.00">vector</text>
</a>
</g>
</g>
<!-- Node17&#45;&gt;Node18 -->
<g id="edge25" class="edge">
<title>Node17&#45;&gt;Node18</title>
<path fill="none" stroke="midnightblue" d="M564.32,-60.26C661.88,-49.57 896.97,-23.82 982.34,-14.47"/>
<polygon fill="midnightblue" stroke="midnightblue" points="982.89,-17.93 992.45,-13.36 982.13,-10.97 982.89,-17.93"/>
</g>
<!-- Node19 -->
<g id="node19" class="node">
<title>Node19</title>
<g id="a_node19"><a xlink:title=" ">
<polygon fill="white" stroke="#bfbfbf" points="561,-0.5 561,-19.5 611,-19.5 611,-0.5 561,-0.5"/>
<text text-anchor="middle" x="586" y="-7.5" font-family="Helvetica" font-size="10.00">iomanip</text>
</a>
</g>
</g>
<!-- Node17&#45;&gt;Node19 -->
<g id="edge26" class="edge">
<title>Node17&#45;&gt;Node19</title>
<path fill="none" stroke="midnightblue" d="M531.44,-56.32C541.15,-48.26 555.82,-36.08 567.5,-26.37"/>
<polygon fill="midnightblue" stroke="midnightblue" points="569.91,-28.92 575.37,-19.83 565.44,-23.53 569.91,-28.92"/>
</g>
<!-- Node20 -->
<g id="node20" class="node">
<title>Node20</title>
<g id="a_node20"><a xlink:title=" ">
<polygon fill="white" stroke="#bfbfbf" points="441,-0.5 441,-19.5 481,-19.5 481,-0.5 441,-0.5"/>
<text text-anchor="middle" x="461" y="-7.5" font-family="Helvetica" font-size="10.00">limits</text>
</a>
</g>
</g>
<!-- Node17&#45;&gt;Node20 -->
<g id="edge28" class="edge">
<title>Node17&#45;&gt;Node20</title>
<path fill="none" stroke="midnightblue" d="M511.36,-56.32C502.49,-48.34 489.13,-36.31 478.39,-26.65"/>
<polygon fill="midnightblue" stroke="midnightblue" points="480.59,-23.92 470.82,-19.83 475.91,-29.13 480.59,-23.92"/>
</g>
<!-- Node21 -->
<g id="node21" class="node">
<title>Node21</title>
<g id="a_node21"><a xlink:title=" ">
<polygon fill="white" stroke="#bfbfbf" points="499,-0.5 499,-19.5 543,-19.5 543,-0.5 499,-0.5"/>
<text text-anchor="middle" x="521" y="-7.5" font-family="Helvetica" font-size="10.00">omp.h</text>
</a>
</g>
</g>
<!-- Node17&#45;&gt;Node21 -->
<g id="edge29" class="edge">
<title>Node17&#45;&gt;Node21</title>
<path fill="none" stroke="midnightblue" d="M521,-56.08C521,-49.01 521,-38.86 521,-29.99"/>
<polygon fill="midnightblue" stroke="midnightblue" points="524.5,-29.75 521,-19.75 517.5,-29.75 524.5,-29.75"/>
</g>
<!-- Node27&#45;&gt;Node5 -->
<g id="edge40" class="edge">
<title>Node27&#45;&gt;Node5</title>
<path fill="none" stroke="midnightblue" d="M781.02,-280.37C795,-272.54 814.48,-259.8 827,-244 843.71,-222.91 844.79,-214.4 850,-188 857.88,-148.05 828.77,-105.69 809.91,-83.22"/>
<polygon fill="midnightblue" stroke="midnightblue" points="812.5,-80.86 803.29,-75.62 807.23,-85.46 812.5,-80.86"/>
</g>
<!-- Node27&#45;&gt;Node6 -->
<g id="edge45" class="edge">
<title>Node27&#45;&gt;Node6</title>
<path fill="none" stroke="midnightblue" d="M714.98,-281.94C649.18,-272.47 531.98,-255.59 457.5,-244.86"/>
<polygon fill="midnightblue" stroke="midnightblue" points="457.68,-241.35 447.28,-243.39 456.68,-248.28 457.68,-241.35"/>
</g>
<!-- Node27&#45;&gt;Node7 -->
<g id="edge38" class="edge">
<title>Node27&#45;&gt;Node7</title>
<path fill="none" stroke="midnightblue" d="M813.41,-286.25C923.03,-278.79 1177,-253.48 1177,-179 1177,-179 1177,-179 1177,-121 1177,-87.08 1165.62,-74.22 1137,-56 1078.83,-18.97 869.34,-12.36 783.3,-11.22"/>
<polygon fill="midnightblue" stroke="midnightblue" points="783.23,-7.72 773.19,-11.1 783.15,-14.72 783.23,-7.72"/>
</g>
<!-- Node27&#45;&gt;Node8 -->
<g id="edge39" class="edge">
<title>Node27&#45;&gt;Node8</title>
<path fill="none" stroke="midnightblue" d="M714.86,-284.38C607.78,-274.26 359.96,-250.52 322,-244 201.63,-223.32 55,-301.13 55,-179 55,-179 55,-179 55,-121 55,-86.81 71.6,-49.76 82.86,-28.57"/>
<polygon fill="midnightblue" stroke="midnightblue" points="85.95,-30.22 87.72,-19.77 79.82,-26.83 85.95,-30.22"/>
</g>
<!-- Node27&#45;&gt;Node11 -->
<g id="edge44" class="edge">
<title>Node27&#45;&gt;Node11</title>
<path fill="none" stroke="midnightblue" d="M778.37,-280.33C789.88,-272.47 805.19,-259.72 812,-244 819.85,-225.89 804.93,-207 790.94,-194.28"/>
<polygon fill="midnightblue" stroke="midnightblue" points="792.88,-191.34 782.99,-187.56 788.36,-196.69 792.88,-191.34"/>
</g>
<!-- Node27&#45;&gt;Node13 -->
<g id="edge43" class="edge">
<title>Node27&#45;&gt;Node13</title>
<path fill="none" stroke="midnightblue" d="M798.23,-280.5C823.12,-273.3 856.87,-261.35 883,-244 927.08,-214.73 966.78,-165.66 985.93,-139.93"/>
<polygon fill="midnightblue" stroke="midnightblue" points="988.95,-141.72 992.02,-131.58 983.3,-137.59 988.95,-141.72"/>
</g>
<!-- Node27&#45;&gt;Node18 -->
<g id="edge41" class="edge">
<title>Node27&#45;&gt;Node18</title>
<path fill="none" stroke="midnightblue" d="M813.12,-287.37C930.01,-282.14 1215,-261 1215,-179 1215,-179 1215,-179 1215,-121 1215,-44.76 1102.35,-21.02 1045.72,-13.91"/>
<polygon fill="midnightblue" stroke="midnightblue" points="1045.85,-10.4 1035.51,-12.73 1045.04,-17.35 1045.85,-10.4"/>
</g>
<!-- Node27&#45;&gt;Node23 -->
<g id="edge48" class="edge">
<title>Node27&#45;&gt;Node23</title>
<path fill="none" stroke="midnightblue" d="M714.97,-281.64C638.11,-270 497.57,-248.21 494,-244 488.25,-237.22 488.63,-231.09 494,-224 501.42,-214.21 569.72,-197.54 614.66,-187.47"/>
<polygon fill="midnightblue" stroke="midnightblue" points="615.69,-190.83 624.69,-185.24 614.17,-183.99 615.69,-190.83"/>
</g>
<!-- Node28 -->
<g id="node28" class="node">
<title>Node28</title>
<g id="a_node28"><a xlink:title=" ">
<polygon fill="white" stroke="#bfbfbf" points="935.5,-224.5 935.5,-243.5 980.5,-243.5 980.5,-224.5 935.5,-224.5"/>
<text text-anchor="middle" x="958" y="-231.5" font-family="Helvetica" font-size="10.00">cstdlib</text>
</a>
</g>
</g>
<!-- Node27&#45;&gt;Node28 -->
<g id="edge42" class="edge">
<title>Node27&#45;&gt;Node28</title>
<path fill="none" stroke="midnightblue" d="M794.74,-280.44C830.48,-270.49 889.22,-254.15 925.64,-244.01"/>
<polygon fill="midnightblue" stroke="midnightblue" points="926.59,-247.38 935.28,-241.32 924.71,-240.63 926.59,-247.38"/>
</g>
<!-- Node29 -->
<g id="node29" class="node">
<title>Node29</title>
<g id="a_node29"><a xlink:title=" ">
<polygon fill="white" stroke="#bfbfbf" points="503,-224.5 503,-243.5 553,-243.5 553,-224.5 503,-224.5"/>
<text text-anchor="middle" x="528" y="-231.5" font-family="Helvetica" font-size="10.00">TTree.h</text>
</a>
</g>
</g>
<!-- Node27&#45;&gt;Node29 -->
<g id="edge46" class="edge">
<title>Node27&#45;&gt;Node29</title>
<path fill="none" stroke="midnightblue" d="M723.27,-280.42C684.47,-272.14 624.19,-258.99 563.04,-244.18"/>
<polygon fill="midnightblue" stroke="midnightblue" points="563.77,-240.76 553.22,-241.8 562.11,-247.56 563.77,-240.76"/>
</g>
<!-- Node30 -->
<g id="node30" class="node">
<title>Node30</title>
<g id="a_node30"><a xlink:title=" ">
<polygon fill="white" stroke="#bfbfbf" points="571,-224.5 571,-243.5 633,-243.5 633,-224.5 571,-224.5"/>
<text text-anchor="middle" x="602" y="-231.5" font-family="Helvetica" font-size="10.00">TBranch.h</text>
</a>
</g>
</g>
<!-- Node27&#45;&gt;Node30 -->
<g id="edge47" class="edge">
<title>Node27&#45;&gt;Node30</title>
<path fill="none" stroke="midnightblue" d="M738.33,-280.44C711.08,-271.36 667.82,-256.94 637.35,-246.78"/>
<polygon fill="midnightblue" stroke="midnightblue" points="638.14,-243.36 627.55,-243.52 635.93,-250 638.14,-243.36"/>
</g>
<!-- Node31 -->
<g id="node31" class="node">
<title>Node31</title>
<g id="a_node31"><a xlink:title=" ">
<polygon fill="white" stroke="#bfbfbf" points="651,-224.5 651,-243.5 707,-243.5 707,-224.5 651,-224.5"/>
<text text-anchor="middle" x="679" y="-231.5" font-family="Helvetica" font-size="10.00">TChain.h</text>
</a>
</g>
</g>
<!-- Node27&#45;&gt;Node31 -->
<g id="edge49" class="edge">
<title>Node27&#45;&gt;Node31</title>
<path fill="none" stroke="midnightblue" d="M750.34,-280.32C737.08,-271.9 716.73,-258.97 701.15,-249.07"/>
<polygon fill="midnightblue" stroke="midnightblue" points="702.94,-246.06 692.62,-243.65 699.19,-251.97 702.94,-246.06"/>
</g>
<!-- Node32 -->
<g id="node32" class="node">
<title>Node32</title>
<g id="a_node32"><a xlink:title=" ">
<polygon fill="white" stroke="#bfbfbf" points="725.5,-224.5 725.5,-243.5 802.5,-243.5 802.5,-224.5 725.5,-224.5"/>
<text text-anchor="middle" x="764" y="-231.5" font-family="Helvetica" font-size="10.00">TStopwatch.h</text>
</a>
</g>
</g>
<!-- Node27&#45;&gt;Node32 -->
<g id="edge50" class="edge">
<title>Node27&#45;&gt;Node32</title>
<path fill="none" stroke="midnightblue" d="M764,-280.08C764,-273.01 764,-262.86 764,-253.99"/>
<polygon fill="midnightblue" stroke="midnightblue" points="767.5,-253.75 764,-243.75 760.5,-253.75 767.5,-253.75"/>
</g>
</g>
</svg>
        <g id="navigator" transform="translate(0 0)" fill="#404254">
                <rect fill="#f2f5e9" fill-opacity="0.5" stroke="#606060" stroke-width=".5" x="0" y="0" width="60" height="60"/>
                <use id="zoomplus" xlink:href="#zoomPlus" x="17" y="9" onmousedown="handleZoom(evt,'in')"/>
                <use id="zoomminus" xlink:href="#zoomMin" x="42" y="9" onmousedown="handleZoom(evt,'out')"/>
                <use id="reset" xlink:href="#resetDef" x="30" y="36" onmousedown="handleReset()"/>
                <g id="arrowUp" xlink:href="#dirArrow" transform="translate(30 24)" onmousedown="handlePan(0,-1)">
                  <use xlink:href="#rim" fill="#404040">
                        <set attributeName="fill" to="#808080" begin="arrowUp.mouseover" end="arrowUp.mouseout"/>
                  </use>
                  <path fill="none" stroke="white" stroke-width="1.5" d="M0,-3.0v7 M-2.5,-0.5L0,-3.0L2.5,-0.5"/>
                </g>
                <g id="arrowRight" xlink:href="#dirArrow" transform="rotate(90) translate(36 -43)" onmousedown="handlePan(1,0)">
                  <use xlink:href="#rim" fill="#404040">
                        <set attributeName="fill" to="#808080" begin="arrowRight.mouseover" end="arrowRight.mouseout"/>
                  </use>
                  <path fill="none" stroke="white" stroke-width="1.5" d="M0,-3.0v7 M-2.5,-0.5L0,-3.0L2.5,-0.5"/>
                </g>
                <g id="arrowDown" xlink:href="#dirArrow" transform="rotate(180) translate(-30 -48)" onmousedown="handlePan(0,1)">
                  <use xlink:href="#rim" fill="#404040">
                        <set attributeName="fill" to="#808080" begin="arrowDown.mouseover" end="arrowDown.mouseout"/>
                  </use>
                  <path fill="none" stroke="white" stroke-width="1.5" d="M0,-3.0v7 M-2.5,-0.5L0,-3.0L2.5,-0.5"/>
                </g>
                <g id="arrowLeft" xlink:href="#dirArrow" transform="rotate(270) translate(-36 17)" onmousedown="handlePan(-1,0)">
                  <use xlink:href="#rim" fill="#404040">
                        <set attributeName="fill" to="#808080" begin="arrowLeft.mouseover" end="arrowLeft.mouseout"/>
                  </use>
                  <path fill="none" stroke="white" stroke-width="1.5" d="M0,-3.0v7 M-2.5,-0.5L0,-3.0L2.5,-0.5"/>
                </g>
        </g>
        <svg viewBox="0 0 15 15" width="100%" height="30px" preserveAspectRatio="xMaxYMin meet">
         <g id="arrow_out" transform="scale(0.3 0.3)">
          <a xlink:href="MaCh3Modes_8cpp__incl_org.svg" target="_base">
           <rect id="button" ry="5" rx="5" y="6" x="6" height="38" width="38"
                fill="#f2f5e9" fill-opacity="0.5" stroke="#606060" stroke-width="1.0"/>
           <path id="arrow"
             d="M 11.500037,31.436501 C 11.940474,20.09759 22.043105,11.32322 32.158766,21.979434 L 37.068811,17.246167 C 37.068811,17.246167 37.088388,32 37.088388,32 L 22.160133,31.978069 C 22.160133,31.978069 26.997745,27.140456 26.997745,27.140456 C 18.528582,18.264221 13.291696,25.230495 11.500037,31.436501 z"
             style="fill:#404040;"/>
          </a>
         </g>
        </svg>
</svg>
