<?xml version="1.0" encoding="UTF-8" standalone="no"?>
<!DOCTYPE svg PUBLIC "-//W3C//DTD SVG 1.1//EN"
 "http://www.w3.org/Graphics/SVG/1.1/DTD/svg11.dtd">
<!-- Generated by graphviz version 2.43.0 (0)
 -->
<!-- Title: Manager/MaCh3Modes.h Pages: 1 -->
<!--zoomable 412 -->
<svg id="main" version="1.1" xmlns="http://www.w3.org/2000/svg" xmlns:xlink="http://www.w3.org/1999/xlink" xml:space="preserve" onload="init(evt)">
<style type="text/css"><![CDATA[
.edge:hover path { stroke: red; }
.edge:hover polygon { stroke: red; fill: red; }
]]></style>
<script type="text/javascript"><![CDATA[
var edges = document.getElementsByTagName('g');
if (edges && edges.length) {
  for (var i=0;i<edges.length;i++) {
    if (edges[i].id.substr(0,4)=='edge') {
      edges[i].setAttribute('class','edge');
    }
  }
}
]]></script>
        <defs>
                <circle id="rim" cx="0" cy="0" r="7"/>
                <circle id="rim2" cx="0" cy="0" r="3.5"/>
                <g id="zoomPlus">
                        <use xlink:href="#rim" fill="#404040">
                                <set attributeName="fill" to="#808080" begin="zoomplus.mouseover" end="zoomplus.mouseout"/>
                        </use>
                        <path d="M-4,0h8M0,-4v8" fill="none" stroke="white" stroke-width="1.5" pointer-events="none"/>
                </g>
                <g id="zoomMin">
                        <use xlink:href="#rim" fill="#404040">
                                <set attributeName="fill" to="#808080" begin="zoomminus.mouseover" end="zoomminus.mouseout"/>
                        </use>
                        <path d="M-4,0h8" fill="none" stroke="white" stroke-width="1.5" pointer-events="none"/>
                </g>
                <g id="dirArrow">
                        <path fill="none" stroke="white" stroke-width="1.5" d="M0,-3.0v7 M-2.5,-0.5L0,-3.0L2.5,-0.5"/>
                </g>
               <g id="resetDef">
                       <use xlink:href="#rim2" fill="#404040">
                               <set attributeName="fill" to="#808080" begin="reset.mouseover" end="reset.mouseout"/>
                       </use>
               </g>
        </defs>

<script type="text/javascript">
var viewWidth = 1489;
var viewHeight = 412;
var sectionId = 'dynsection-1';
</script>
<script xlink:href="svgpan.js"/>
<svg id="graph" class="graph">
<g id="viewport">
<title>Manager/MaCh3Modes.h</title>
<!-- Node1 -->
<g id="node1" class="node">
<title>Node1</title>
<g id="a_node1"><a xlink:title=" ">
<polygon fill="#999999" stroke="#666666" points="875,-404 738,-404 738,-385 875,-385 875,-404"/>
<text text-anchor="middle" x="806.5" y="-392" font-family="Helvetica,sans-Serif" font-size="10.00">Manager/MaCh3Modes.h</text>
</a>
</g>
</g>
<!-- Node2 -->
<g id="node2" class="node">
<title>Node2</title>
<g id="a_node2"><a xlink:href="MaCh3Modes_8cpp.html" target="_top" xlink:title=" ">
<polygon fill="white" stroke="#666666" points="703,-349 554,-349 554,-330 703,-330 703,-349"/>
<text text-anchor="middle" x="628.5" y="-337" font-family="Helvetica,sans-Serif" font-size="10.00">Manager/MaCh3Modes.cpp</text>
</a>
</g>
</g>
<!-- Node1&#45;&gt;Node2 -->
<g id="edge1" class="edge">
<title>Node1&#45;&gt;Node2</title>
<path fill="none" stroke="#63b8ff" d="M768.06,-382.06C734.8,-372.15 687.42,-358.04 657.32,-349.08"/>
<polygon fill="#63b8ff" stroke="#63b8ff" points="767.32,-385.49 777.9,-384.98 769.32,-378.78 767.32,-385.49"/>
</g>
<!-- Node3 -->
<g id="node3" class="node">
<title>Node3</title>
<g id="a_node3"><a xlink:href="SampleHandlerBase_8h.html" target="_top" xlink:title=" ">
<polygon fill="white" stroke="#666666" points="891.5,-349 721.5,-349 721.5,-330 891.5,-330 891.5,-349"/>
<text text-anchor="middle" x="806.5" y="-337" font-family="Helvetica,sans-Serif" font-size="10.00">Samples/SampleHandlerBase.h</text>
</a>
</g>
</g>
<!-- Node1&#45;&gt;Node3 -->
<g id="edge2" class="edge">
<title>Node1&#45;&gt;Node3</title>
<path fill="none" stroke="#63b8ff" d="M806.5,-374.66C806.5,-365.93 806.5,-355.99 806.5,-349.09"/>
<polygon fill="#63b8ff" stroke="#63b8ff" points="803,-374.75 806.5,-384.75 810,-374.75 803,-374.75"/>
</g>
<!-- Node29 -->
<g id="node29" class="node">
<title>Node29</title>
<g id="a_node29"><a xlink:href="BinnedSplineHandler_8h.html" target="_top" xlink:title=" ">
<polygon fill="white" stroke="#666666" points="1211,-349 1046,-349 1046,-330 1211,-330 1211,-349"/>
<text text-anchor="middle" x="1128.5" y="-337" font-family="Helvetica,sans-Serif" font-size="10.00">Splines/BinnedSplineHandler.h</text>
</a>
</g>
</g>
<!-- Node1&#45;&gt;Node29 -->
<g id="edge38" class="edge">
<title>Node1&#45;&gt;Node29</title>
<path fill="none" stroke="#63b8ff" d="M868.41,-383.31C928.88,-373.36 1019.85,-358.38 1076.63,-349.04"/>
<polygon fill="#63b8ff" stroke="#63b8ff" points="867.53,-379.91 858.23,-384.98 868.67,-386.81 867.53,-379.91"/>
</g>
<!-- Node4 -->
<g id="node4" class="node">
<title>Node4</title>
<g id="a_node4"><a xlink:href="FitterBase_8h.html" target="_top" xlink:title=" ">
<polygon fill="white" stroke="#666666" points="861,-294 752,-294 752,-275 861,-275 861,-294"/>
<text text-anchor="middle" x="806.5" y="-282" font-family="Helvetica,sans-Serif" font-size="10.00">Fitters/FitterBase.h</text>
</a>
</g>
</g>
<!-- Node3&#45;&gt;Node4 -->
<g id="edge3" class="edge">
<title>Node3&#45;&gt;Node4</title>
<path fill="none" stroke="#63b8ff" d="M806.5,-319.66C806.5,-310.93 806.5,-300.99 806.5,-294.09"/>
<polygon fill="#63b8ff" stroke="#63b8ff" points="803,-319.75 806.5,-329.75 810,-319.75 803,-319.75"/>
</g>
<!-- Node23 -->
<g id="node23" class="node">
<title>Node23</title>
<g id="a_node23"><a xlink:href="SampleSummary_8h.html" target="_top" xlink:title=" ">
<polygon fill="white" stroke="#666666" points="424.5,-294 282.5,-294 282.5,-275 424.5,-275 424.5,-294"/>
<text text-anchor="middle" x="353.5" y="-282" font-family="Helvetica,sans-Serif" font-size="10.00">Fitters/SampleSummary.h</text>
</a>
</g>
</g>
<!-- Node3&#45;&gt;Node23 -->
<g id="edge30" class="edge">
<title>Node3&#45;&gt;Node23</title>
<path fill="none" stroke="#63b8ff" d="M723.77,-328.82C638.12,-318.8 505.71,-303.31 424.61,-293.82"/>
<polygon fill="#63b8ff" stroke="#63b8ff" points="723.38,-332.3 733.72,-329.98 724.19,-325.35 723.38,-332.3"/>
</g>
<!-- Node25 -->
<g id="node25" class="node">
<title>Node25</title>
<g id="a_node25"><a xlink:href="SampleHandlerBase_8cpp.html" target="_top" xlink:title=" ">
<polygon fill="white" stroke="#666666" points="734,-294 553,-294 553,-275 734,-275 734,-294"/>
<text text-anchor="middle" x="643.5" y="-282" font-family="Helvetica,sans-Serif" font-size="10.00">Samples/SampleHandlerBase.cpp</text>
</a>
</g>
</g>
<!-- Node3&#45;&gt;Node25 -->
<g id="edge32" class="edge">
<title>Node3&#45;&gt;Node25</title>
<path fill="none" stroke="#63b8ff" d="M770.51,-326.8C740.09,-316.91 697.22,-302.97 669.89,-294.08"/>
<polygon fill="#63b8ff" stroke="#63b8ff" points="769.72,-330.22 780.31,-329.98 771.88,-323.56 769.72,-330.22"/>
</g>
<!-- Node26 -->
<g id="node26" class="node">
<title>Node26</title>
<g id="a_node26"><a xlink:href="SampleHandlerFD_8h.html" target="_top" xlink:title=" ">
<polygon fill="white" stroke="#666666" points="1208,-294 1049,-294 1049,-275 1208,-275 1208,-294"/>
<text text-anchor="middle" x="1128.5" y="-282" font-family="Helvetica,sans-Serif" font-size="10.00">Samples/SampleHandlerFD.h</text>
</a>
</g>
</g>
<!-- Node3&#45;&gt;Node26 -->
<g id="edge33" class="edge">
<title>Node3&#45;&gt;Node26</title>
<path fill="none" stroke="#63b8ff" d="M868.41,-328.31C928.88,-318.36 1019.85,-303.38 1076.63,-294.04"/>
<polygon fill="#63b8ff" stroke="#63b8ff" points="867.53,-324.91 858.23,-329.98 868.67,-331.81 867.53,-324.91"/>
</g>
<!-- Node5 -->
<g id="node5" class="node">
<title>Node5</title>
<g id="a_node5"><a xlink:href="FitterBase_8cpp.html" target="_top" xlink:title=" ">
<polygon fill="white" stroke="#666666" points="1120.5,-239 1000.5,-239 1000.5,-220 1120.5,-220 1120.5,-239"/>
<text text-anchor="middle" x="1060.5" y="-227" font-family="Helvetica,sans-Serif" font-size="10.00">Fitters/FitterBase.cpp</text>
</a>
</g>
</g>
<!-- Node4&#45;&gt;Node5 -->
<g id="edge4" class="edge">
<title>Node4&#45;&gt;Node5</title>
<path fill="none" stroke="#63b8ff" d="M857.11,-272.94C904.72,-263.01 975.12,-248.31 1019.37,-239.08"/>
<polygon fill="#63b8ff" stroke="#63b8ff" points="856.38,-269.52 847.31,-274.98 857.81,-276.37 856.38,-269.52"/>
</g>
<!-- Node6 -->
<g id="node6" class="node">
<title>Node6</title>
<g id="a_node6"><a xlink:href="LikelihoodFit_8h.html" target="_top" xlink:title=" ">
<polygon fill="white" stroke="#666666" points="355,-184 234,-184 234,-165 355,-165 355,-184"/>
<text text-anchor="middle" x="294.5" y="-172" font-family="Helvetica,sans-Serif" font-size="10.00">Fitters/LikelihoodFit.h</text>
</a>
</g>
</g>
<!-- Node4&#45;&gt;Node6 -->
<g id="edge5" class="edge">
<title>Node4&#45;&gt;Node6</title>
<path fill="none" stroke="#63b8ff" d="M741.8,-274.9C575.46,-257.67 520.35,-302.65 369.5,-239 340.26,-226.66 313.92,-198.73 301.7,-184.38"/>
<polygon fill="#63b8ff" stroke="#63b8ff" points="741.56,-278.39 751.88,-276 742.32,-271.43 741.56,-278.39"/>
</g>
<!-- Node8 -->
<g id="node8" class="node">
<title>Node8</title>
<g id="a_node8"><a xlink:href="MaCh3Factory_8h.html" target="_top" xlink:title="Factory methods for MaCh3 software which streamline initialisation of different objects.">
<polygon fill="white" stroke="#666666" points="738,-74 611,-74 611,-55 738,-55 738,-74"/>
<text text-anchor="middle" x="674.5" y="-62" font-family="Helvetica,sans-Serif" font-size="10.00">Fitters/MaCh3Factory.h</text>
</a>
</g>
</g>
<!-- Node4&#45;&gt;Node8 -->
<g id="edge26" class="edge">
<title>Node4&#45;&gt;Node8</title>
<path fill="none" stroke="#63b8ff" d="M808.16,-264.62C810.15,-229.37 809.11,-153.19 768.5,-110 751.8,-92.24 726.58,-80.84 706.46,-74.02"/>
<polygon fill="#63b8ff" stroke="#63b8ff" points="804.65,-264.68 807.42,-274.9 811.63,-265.18 804.65,-264.68"/>
</g>
<!-- Node12 -->
<g id="node12" class="node">
<title>Node12</title>
<g id="a_node12"><a xlink:href="fitters_8cpp.html" target="_top" xlink:title=" ">
<polygon fill="white" stroke="#666666" points="429.5,-74 327.5,-74 327.5,-55 429.5,-55 429.5,-74"/>
<text text-anchor="middle" x="378.5" y="-62" font-family="Helvetica,sans-Serif" font-size="10.00">python/fitters.cpp</text>
</a>
</g>
</g>
<!-- Node4&#45;&gt;Node12 -->
<g id="edge29" class="edge">
<title>Node4&#45;&gt;Node12</title>
<path fill="none" stroke="#63b8ff" d="M741.77,-273.17C656.82,-256.55 507.51,-216.44 413.5,-129 396.54,-113.23 385.88,-87.32 381.22,-74"/>
<polygon fill="#63b8ff" stroke="#63b8ff" points="741.32,-276.64 751.8,-275.08 742.63,-269.77 741.32,-276.64"/>
</g>
<!-- Node15 -->
<g id="node15" class="node">
<title>Node15</title>
<g id="a_node15"><a xlink:href="MCMCBase_8h.html" target="_top" xlink:title=" ">
<polygon fill="white" stroke="#666666" points="776,-239 661,-239 661,-220 776,-220 776,-239"/>
<text text-anchor="middle" x="718.5" y="-227" font-family="Helvetica,sans-Serif" font-size="10.00">Fitters/MCMCBase.h</text>
</a>
</g>
</g>
<!-- Node4&#45;&gt;Node15 -->
<g id="edge16" class="edge">
<title>Node4&#45;&gt;Node15</title>
<path fill="none" stroke="#63b8ff" d="M783.58,-269.7C767.55,-260.04 746.63,-247.44 732.9,-239.17"/>
<polygon fill="#63b8ff" stroke="#63b8ff" points="781.99,-272.82 792.36,-274.98 785.6,-266.83 781.99,-272.82"/>
</g>
<!-- Node21 -->
<g id="node21" class="node">
<title>Node21</title>
<g id="a_node21"><a xlink:href="PredictiveThrower_8h.html" target="_top" xlink:title=" ">
<polygon fill="white" stroke="#666666" points="982,-239 835,-239 835,-220 982,-220 982,-239"/>
<text text-anchor="middle" x="908.5" y="-227" font-family="Helvetica,sans-Serif" font-size="10.00">Fitters/PredictiveThrower.h</text>
</a>
</g>
</g>
<!-- Node4&#45;&gt;Node21 -->
<g id="edge27" class="edge">
<title>Node4&#45;&gt;Node21</title>
<path fill="none" stroke="#63b8ff" d="M831.77,-270.37C850.51,-260.63 875.52,-247.64 891.81,-239.17"/>
<polygon fill="#63b8ff" stroke="#63b8ff" points="830.15,-267.27 822.89,-274.98 833.38,-273.48 830.15,-267.27"/>
</g>
<!-- Node7 -->
<g id="node7" class="node">
<title>Node7</title>
<g id="a_node7"><a xlink:href="LikelihoodFit_8cpp.html" target="_top" xlink:title=" ">
<polygon fill="white" stroke="#666666" points="257.5,-129 125.5,-129 125.5,-110 257.5,-110 257.5,-129"/>
<text text-anchor="middle" x="191.5" y="-117" font-family="Helvetica,sans-Serif" font-size="10.00">Fitters/LikelihoodFit.cpp</text>
</a>
</g>
</g>
<!-- Node6&#45;&gt;Node7 -->
<g id="edge6" class="edge">
<title>Node6&#45;&gt;Node7</title>
<path fill="none" stroke="#63b8ff" d="M268.98,-160.37C250.06,-150.63 224.8,-137.64 208.35,-129.17"/>
<polygon fill="#63b8ff" stroke="#63b8ff" points="267.46,-163.52 277.95,-164.98 270.66,-157.3 267.46,-163.52"/>
</g>
<!-- Node6&#45;&gt;Node8 -->
<g id="edge7" class="edge">
<title>Node6&#45;&gt;Node8</title>
<path fill="none" stroke="#63b8ff" d="M365.26,-172.92C427.42,-170.12 519.13,-160.33 592.5,-129 623.3,-115.85 652.63,-88.29 666.37,-74.2"/>
<polygon fill="#63b8ff" stroke="#63b8ff" points="365.01,-169.43 355.16,-173.33 365.29,-176.42 365.01,-169.43"/>
</g>
<!-- Node10 -->
<g id="node10" class="node">
<title>Node10</title>
<g id="a_node10"><a xlink:href="MinuitFit_8h.html" target="_top" xlink:title=" ">
<polygon fill="white" stroke="#666666" points="107.5,-129 5.5,-129 5.5,-110 107.5,-110 107.5,-129"/>
<text text-anchor="middle" x="56.5" y="-117" font-family="Helvetica,sans-Serif" font-size="10.00">Fitters/MinuitFit.h</text>
</a>
</g>
</g>
<!-- Node6&#45;&gt;Node10 -->
<g id="edge9" class="edge">
<title>Node6&#45;&gt;Node10</title>
<path fill="none" stroke="#63b8ff" d="M246.24,-162.75C201.64,-152.82 136.24,-138.26 95.04,-129.08"/>
<polygon fill="#63b8ff" stroke="#63b8ff" points="245.74,-166.23 256.26,-164.98 247.26,-159.39 245.74,-166.23"/>
</g>
<!-- Node13 -->
<g id="node13" class="node">
<title>Node13</title>
<g id="a_node13"><a xlink:href="PSO_8h.html" target="_top" xlink:title=" ">
<polygon fill="white" stroke="#666666" points="355,-129 276,-129 276,-110 355,-110 355,-129"/>
<text text-anchor="middle" x="315.5" y="-117" font-family="Helvetica,sans-Serif" font-size="10.00">Fitters/PSO.h</text>
</a>
</g>
</g>
<!-- Node6&#45;&gt;Node13 -->
<g id="edge12" class="edge">
<title>Node6&#45;&gt;Node13</title>
<path fill="none" stroke="#63b8ff" d="M301.74,-155.24C305.25,-146.37 309.3,-136.14 312.1,-129.09"/>
<polygon fill="#63b8ff" stroke="#63b8ff" points="298.4,-154.16 297.97,-164.75 304.91,-156.74 298.4,-154.16"/>
</g>
<!-- Node9 -->
<g id="node9" class="node">
<title>Node9</title>
<g id="a_node9"><a xlink:href="MaCh3Factory_8cpp.html" target="_top" xlink:title=" ">
<polygon fill="white" stroke="#666666" points="743.5,-19 605.5,-19 605.5,0 743.5,0 743.5,-19"/>
<text text-anchor="middle" x="674.5" y="-7" font-family="Helvetica,sans-Serif" font-size="10.00">Fitters/MaCh3Factory.cpp</text>
</a>
</g>
</g>
<!-- Node8&#45;&gt;Node9 -->
<g id="edge8" class="edge">
<title>Node8&#45;&gt;Node9</title>
<path fill="none" stroke="#63b8ff" d="M674.5,-44.66C674.5,-35.93 674.5,-25.99 674.5,-19.09"/>
<polygon fill="#63b8ff" stroke="#63b8ff" points="671,-44.75 674.5,-54.75 678,-44.75 671,-44.75"/>
</g>
<!-- Node11 -->
<g id="node11" class="node">
<title>Node11</title>
<g id="a_node11"><a xlink:href="MinuitFit_8cpp.html" target="_top" xlink:title=" ">
<polygon fill="white" stroke="#666666" points="113,-74 0,-74 0,-55 113,-55 113,-74"/>
<text text-anchor="middle" x="56.5" y="-62" font-family="Helvetica,sans-Serif" font-size="10.00">Fitters/MinuitFit.cpp</text>
</a>
</g>
</g>
<!-- Node10&#45;&gt;Node11 -->
<g id="edge10" class="edge">
<title>Node10&#45;&gt;Node11</title>
<path fill="none" stroke="#63b8ff" d="M56.5,-99.66C56.5,-90.93 56.5,-80.99 56.5,-74.09"/>
<polygon fill="#63b8ff" stroke="#63b8ff" points="53,-99.75 56.5,-109.75 60,-99.75 53,-99.75"/>
</g>
<!-- Node10&#45;&gt;Node12 -->
<g id="edge11" class="edge">
<title>Node10&#45;&gt;Node12</title>
<path fill="none" stroke="#63b8ff" d="M117.74,-108.42C178.49,-98.42 270.53,-83.27 327.45,-73.9"/>
<polygon fill="#63b8ff" stroke="#63b8ff" points="116.82,-105.02 107.52,-110.1 117.96,-111.93 116.82,-105.02"/>
</g>
<!-- Node13&#45;&gt;Node8 -->
<g id="edge13" class="edge">
<title>Node13&#45;&gt;Node8</title>
<path fill="none" stroke="#63b8ff" d="M365.43,-111.13C431.35,-101.4 547.18,-84.3 616.78,-74.02"/>
<polygon fill="#63b8ff" stroke="#63b8ff" points="364.67,-107.7 355.29,-112.63 365.69,-114.63 364.67,-107.7"/>
</g>
<!-- Node13&#45;&gt;Node12 -->
<g id="edge15" class="edge">
<title>Node13&#45;&gt;Node12</title>
<path fill="none" stroke="#63b8ff" d="M333.54,-103.32C344.77,-93.87 358.82,-82.06 368.19,-74.17"/>
<polygon fill="#63b8ff" stroke="#63b8ff" points="331.02,-100.87 325.62,-109.98 335.53,-106.23 331.02,-100.87"/>
</g>
<!-- Node14 -->
<g id="node14" class="node">
<title>Node14</title>
<g id="a_node14"><a xlink:href="PSO_8cpp.html" target="_top" xlink:title=" ">
<polygon fill="white" stroke="#666666" points="309.5,-74 219.5,-74 219.5,-55 309.5,-55 309.5,-74"/>
<text text-anchor="middle" x="264.5" y="-62" font-family="Helvetica,sans-Serif" font-size="10.00">Fitters/PSO.cpp</text>
</a>
</g>
</g>
<!-- Node13&#45;&gt;Node14 -->
<g id="edge14" class="edge">
<title>Node13&#45;&gt;Node14</title>
<path fill="none" stroke="#63b8ff" d="M300.12,-102.52C291.13,-93.18 280.14,-81.75 272.76,-74.09"/>
<polygon fill="#63b8ff" stroke="#63b8ff" points="297.62,-104.97 307.08,-109.75 302.67,-100.12 297.62,-104.97"/>
</g>
<!-- Node16 -->
<g id="node16" class="node">
<title>Node16</title>
<g id="a_node16"><a xlink:href="MCMCBase_8cpp.html" target="_top" xlink:title=" ">
<polygon fill="white" stroke="#666666" points="781.5,-184 655.5,-184 655.5,-165 781.5,-165 781.5,-184"/>
<text text-anchor="middle" x="718.5" y="-172" font-family="Helvetica,sans-Serif" font-size="10.00">Fitters/MCMCBase.cpp</text>
</a>
</g>
</g>
<!-- Node15&#45;&gt;Node16 -->
<g id="edge17" class="edge">
<title>Node15&#45;&gt;Node16</title>
<path fill="none" stroke="#63b8ff" d="M718.5,-209.66C718.5,-200.93 718.5,-190.99 718.5,-184.09"/>
<polygon fill="#63b8ff" stroke="#63b8ff" points="715,-209.75 718.5,-219.75 722,-209.75 715,-209.75"/>
</g>
<!-- Node17 -->
<g id="node17" class="node">
<title>Node17</title>
<g id="a_node17"><a xlink:href="MR2T2_8h.html" target="_top" xlink:title=" ">
<polygon fill="white" stroke="#666666" points="637,-184 544,-184 544,-165 637,-165 637,-184"/>
<text text-anchor="middle" x="590.5" y="-172" font-family="Helvetica,sans-Serif" font-size="10.00">Fitters/MR2T2.h</text>
</a>
</g>
</g>
<!-- Node15&#45;&gt;Node17 -->
<g id="edge18" class="edge">
<title>Node15&#45;&gt;Node17</title>
<path fill="none" stroke="#63b8ff" d="M688.38,-216.03C664.71,-206.23 632.35,-192.83 611.44,-184.17"/>
<polygon fill="#63b8ff" stroke="#63b8ff" points="687.36,-219.39 697.93,-219.98 690.03,-212.93 687.36,-219.39"/>
</g>
<!-- Node17&#45;&gt;Node8 -->
<g id="edge24" class="edge">
<title>Node17&#45;&gt;Node8</title>
<path fill="none" stroke="#63b8ff" d="M641.23,-162.79C686.11,-152.8 745.55,-138.11 752.5,-129 770.55,-105.32 729.96,-85.02 700.83,-74.1"/>
<polygon fill="#63b8ff" stroke="#63b8ff" points="640.34,-159.4 631.32,-164.97 641.84,-166.24 640.34,-159.4"/>
</g>
<!-- Node17&#45;&gt;Node12 -->
<g id="edge25" class="edge">
<title>Node17&#45;&gt;Node12</title>
<path fill="none" stroke="#63b8ff" d="M533.63,-163.78C504.33,-157.05 468.9,-146.13 440.5,-129 416.23,-114.35 394.82,-87.96 384.69,-74.27"/>
<polygon fill="#63b8ff" stroke="#63b8ff" points="533.2,-167.26 543.71,-165.98 534.69,-160.43 533.2,-167.26"/>
</g>
<!-- Node18 -->
<g id="node18" class="node">
<title>Node18</title>
<g id="a_node18"><a xlink:href="DelayedMR2T2_8h.html" target="_top" xlink:title="Implementation of delayed rejection for MR2T2.">
<polygon fill="white" stroke="#666666" points="583.5,-129 449.5,-129 449.5,-110 583.5,-110 583.5,-129"/>
<text text-anchor="middle" x="516.5" y="-117" font-family="Helvetica,sans-Serif" font-size="10.00">Fitters/DelayedMR2T2.h</text>
</a>
</g>
</g>
<!-- Node17&#45;&gt;Node18 -->
<g id="edge19" class="edge">
<title>Node17&#45;&gt;Node18</title>
<path fill="none" stroke="#63b8ff" d="M570.47,-159.15C557.09,-149.57 539.94,-137.29 528.61,-129.17"/>
<polygon fill="#63b8ff" stroke="#63b8ff" points="568.44,-162.01 578.61,-164.98 572.52,-156.32 568.44,-162.01"/>
</g>
<!-- Node20 -->
<g id="node20" class="node">
<title>Node20</title>
<g id="a_node20"><a xlink:href="MR2T2_8cpp.html" target="_top" xlink:title=" ">
<polygon fill="white" stroke="#666666" points="743.5,-129 639.5,-129 639.5,-110 743.5,-110 743.5,-129"/>
<text text-anchor="middle" x="691.5" y="-117" font-family="Helvetica,sans-Serif" font-size="10.00">Fitters/MR2T2.cpp</text>
</a>
</g>
</g>
<!-- Node17&#45;&gt;Node20 -->
<g id="edge23" class="edge">
<title>Node17&#45;&gt;Node20</title>
<path fill="none" stroke="#63b8ff" d="M615.78,-160.23C634.3,-150.51 658.92,-137.6 674.98,-129.17"/>
<polygon fill="#63b8ff" stroke="#63b8ff" points="613.96,-157.24 606.73,-164.98 617.21,-163.44 613.96,-157.24"/>
</g>
<!-- Node18&#45;&gt;Node8 -->
<g id="edge21" class="edge">
<title>Node18&#45;&gt;Node8</title>
<path fill="none" stroke="#63b8ff" d="M551.38,-106.8C580.87,-96.91 622.43,-82.97 648.92,-74.08"/>
<polygon fill="#63b8ff" stroke="#63b8ff" points="550.25,-103.49 541.89,-109.98 552.48,-110.12 550.25,-103.49"/>
</g>
<!-- Node18&#45;&gt;Node12 -->
<g id="edge22" class="edge">
<title>Node18&#45;&gt;Node12</title>
<path fill="none" stroke="#63b8ff" d="M484.71,-106.29C459.13,-96.47 423.83,-82.91 401.08,-74.17"/>
<polygon fill="#63b8ff" stroke="#63b8ff" points="483.74,-109.67 494.33,-109.98 486.25,-103.13 483.74,-109.67"/>
</g>
<!-- Node19 -->
<g id="node19" class="node">
<title>Node19</title>
<g id="a_node19"><a xlink:href="DelayedMR2T2_8cpp.html" target="_top" xlink:title=" ">
<polygon fill="white" stroke="#666666" points="593,-74 448,-74 448,-55 593,-55 593,-74"/>
<text text-anchor="middle" x="520.5" y="-62" font-family="Helvetica,sans-Serif" font-size="10.00">Fitters/DelayedMR2T2.cpp</text>
</a>
</g>
</g>
<!-- Node18&#45;&gt;Node19 -->
<g id="edge20" class="edge">
<title>Node18&#45;&gt;Node19</title>
<path fill="none" stroke="#63b8ff" d="M517.92,-99.66C518.58,-90.93 519.33,-80.99 519.85,-74.09"/>
<polygon fill="#63b8ff" stroke="#63b8ff" points="514.42,-99.51 517.16,-109.75 521.4,-100.04 514.42,-99.51"/>
</g>
<!-- Node22 -->
<g id="node22" class="node">
<title>Node22</title>
<g id="a_node22"><a xlink:href="PredictiveThrower_8cpp.html" target="_top" xlink:title=" ">
<polygon fill="white" stroke="#666666" points="1178.5,-184 1020.5,-184 1020.5,-165 1178.5,-165 1178.5,-184"/>
<text text-anchor="middle" x="1099.5" y="-172" font-family="Helvetica,sans-Serif" font-size="10.00">Fitters/PredictiveThrower.cpp</text>
</a>
</g>
</g>
<!-- Node21&#45;&gt;Node22 -->
<g id="edge28" class="edge">
<title>Node21&#45;&gt;Node22</title>
<path fill="none" stroke="#63b8ff" d="M949.28,-217.18C985,-207.27 1036.13,-193.08 1068.57,-184.08"/>
<polygon fill="#63b8ff" stroke="#63b8ff" points="947.89,-213.94 939.19,-219.98 949.76,-220.68 947.89,-213.94"/>
</g>
<!-- Node24 -->
<g id="node24" class="node">
<title>Node24</title>
<g id="a_node24"><a xlink:href="SampleSummary_8cpp.html" target="_top" xlink:title=" ">
<polygon fill="white" stroke="#666666" points="317,-239 164,-239 164,-220 317,-220 317,-239"/>
<text text-anchor="middle" x="240.5" y="-227" font-family="Helvetica,sans-Serif" font-size="10.00">Fitters/SampleSummary.cpp</text>
</a>
</g>
</g>
<!-- Node23&#45;&gt;Node24 -->
<g id="edge31" class="edge">
<title>Node23&#45;&gt;Node24</title>
<path fill="none" stroke="#63b8ff" d="M326.07,-270.63C305.25,-260.87 277.2,-247.71 258.99,-239.17"/>
<polygon fill="#63b8ff" stroke="#63b8ff" points="324.8,-273.91 335.34,-274.98 327.78,-267.57 324.8,-273.91"/>
</g>
<!-- Node26&#45;&gt;Node5 -->
<g id="edge34" class="edge">
<title>Node26&#45;&gt;Node5</title>
<path fill="none" stroke="#63b8ff" d="M1109.38,-268.6C1097.2,-259.11 1081.84,-247.13 1071.62,-239.17"/>
<polygon fill="#63b8ff" stroke="#63b8ff" points="1107.54,-271.6 1117.57,-274.98 1111.84,-266.08 1107.54,-271.6"/>
</g>
<!-- Node26&#45;&gt;Node22 -->
<g id="edge35" class="edge">
<title>Node26&#45;&gt;Node22</title>
<path fill="none" stroke="#63b8ff" d="M1204.98,-272.91C1246.21,-263.84 1284.7,-247.71 1263.5,-220 1250.69,-203.24 1201.01,-191.32 1159.66,-184.06"/>
<polygon fill="#63b8ff" stroke="#63b8ff" points="1204.13,-269.51 1195.04,-274.95 1205.54,-276.36 1204.13,-269.51"/>
</g>
<!-- Node27 -->
<g id="node27" class="node">
<title>Node27</title>
<g id="a_node27"><a xlink:href="SampleHandlerFD_8cpp.html" target="_top" xlink:title=" ">
<polygon fill="white" stroke="#666666" points="1480.5,-239 1310.5,-239 1310.5,-220 1480.5,-220 1480.5,-239"/>
<text text-anchor="middle" x="1395.5" y="-227" font-family="Helvetica,sans-Serif" font-size="10.00">Samples/SampleHandlerFD.cpp</text>
</a>
</g>
</g>
<!-- Node26&#45;&gt;Node27 -->
<g id="edge36" class="edge">
<title>Node26&#45;&gt;Node27</title>
<path fill="none" stroke="#63b8ff" d="M1181.38,-273C1231.43,-263.07 1305.66,-248.33 1352.27,-239.08"/>
<polygon fill="#63b8ff" stroke="#63b8ff" points="1180.53,-269.6 1171.4,-274.98 1181.89,-276.47 1180.53,-269.6"/>
</g>
<!-- Node28 -->
<g id="node28" class="node">
<title>Node28</title>
<g id="a_node28"><a xlink:href="samples_8cpp.html" target="_top" xlink:title=" ">
<polygon fill="white" stroke="#666666" points="1254,-239 1139,-239 1139,-220 1254,-220 1254,-239"/>
<text text-anchor="middle" x="1196.5" y="-227" font-family="Helvetica,sans-Serif" font-size="10.00">python/samples.cpp</text>
</a>
</g>
</g>
<!-- Node26&#45;&gt;Node28 -->
<g id="edge37" class="edge">
<title>Node26&#45;&gt;Node28</title>
<path fill="none" stroke="#63b8ff" d="M1147.62,-268.6C1159.8,-259.11 1175.16,-247.13 1185.38,-239.17"/>
<polygon fill="#63b8ff" stroke="#63b8ff" points="1145.16,-266.08 1139.43,-274.98 1149.46,-271.6 1145.16,-266.08"/>
</g>
<!-- Node29&#45;&gt;Node26 -->
<g id="edge39" class="edge">
<title>Node29&#45;&gt;Node26</title>
<path fill="none" stroke="#63b8ff" d="M1128.5,-319.66C1128.5,-310.93 1128.5,-300.99 1128.5,-294.09"/>
<polygon fill="#63b8ff" stroke="#63b8ff" points="1125,-319.75 1128.5,-329.75 1132,-319.75 1125,-319.75"/>
</g>
<!-- Node30 -->
<g id="node30" class="node">
<title>Node30</title>
<g id="a_node30"><a xlink:href="BinnedSplineHandler_8cpp.html" target="_top" xlink:title=" ">
<polygon fill="white" stroke="#666666" points="1401.5,-294 1225.5,-294 1225.5,-275 1401.5,-275 1401.5,-294"/>
<text text-anchor="middle" x="1313.5" y="-282" font-family="Helvetica,sans-Serif" font-size="10.00">Splines/BinnedSplineHandler.cpp</text>
</a>
</g>
</g>
<!-- Node29&#45;&gt;Node30 -->
<g id="edge40" class="edge">
<title>Node29&#45;&gt;Node30</title>
<path fill="none" stroke="#63b8ff" d="M1168,-327.18C1202.6,-317.27 1252.13,-303.08 1283.54,-294.08"/>
<polygon fill="#63b8ff" stroke="#63b8ff" points="1166.87,-323.87 1158.22,-329.98 1168.8,-330.6 1166.87,-323.87"/>
</g>
</g>
</svg>
        <g id="navigator" transform="translate(0 0)" fill="#404254">
                <rect fill="#f2f5e9" fill-opacity="0.5" stroke="#606060" stroke-width=".5" x="0" y="0" width="60" height="60"/>
                <use id="zoomplus" xlink:href="#zoomPlus" x="17" y="9" onmousedown="handleZoom(evt,'in')"/>
                <use id="zoomminus" xlink:href="#zoomMin" x="42" y="9" onmousedown="handleZoom(evt,'out')"/>
                <use id="reset" xlink:href="#resetDef" x="30" y="36" onmousedown="handleReset()"/>
                <g id="arrowUp" xlink:href="#dirArrow" transform="translate(30 24)" onmousedown="handlePan(0,-1)">
                  <use xlink:href="#rim" fill="#404040">
                        <set attributeName="fill" to="#808080" begin="arrowUp.mouseover" end="arrowUp.mouseout"/>
                  </use>
                  <path fill="none" stroke="white" stroke-width="1.5" d="M0,-3.0v7 M-2.5,-0.5L0,-3.0L2.5,-0.5"/>
                </g>
                <g id="arrowRight" xlink:href="#dirArrow" transform="rotate(90) translate(36 -43)" onmousedown="handlePan(1,0)">
                  <use xlink:href="#rim" fill="#404040">
                        <set attributeName="fill" to="#808080" begin="arrowRight.mouseover" end="arrowRight.mouseout"/>
                  </use>
                  <path fill="none" stroke="white" stroke-width="1.5" d="M0,-3.0v7 M-2.5,-0.5L0,-3.0L2.5,-0.5"/>
                </g>
                <g id="arrowDown" xlink:href="#dirArrow" transform="rotate(180) translate(-30 -48)" onmousedown="handlePan(0,1)">
                  <use xlink:href="#rim" fill="#404040">
                        <set attributeName="fill" to="#808080" begin="arrowDown.mouseover" end="arrowDown.mouseout"/>
                  </use>
                  <path fill="none" stroke="white" stroke-width="1.5" d="M0,-3.0v7 M-2.5,-0.5L0,-3.0L2.5,-0.5"/>
                </g>
                <g id="arrowLeft" xlink:href="#dirArrow" transform="rotate(270) translate(-36 17)" onmousedown="handlePan(-1,0)">
                  <use xlink:href="#rim" fill="#404040">
                        <set attributeName="fill" to="#808080" begin="arrowLeft.mouseover" end="arrowLeft.mouseout"/>
                  </use>
                  <path fill="none" stroke="white" stroke-width="1.5" d="M0,-3.0v7 M-2.5,-0.5L0,-3.0L2.5,-0.5"/>
                </g>
        </g>
        <svg viewBox="0 0 15 15" width="100%" height="30px" preserveAspectRatio="xMaxYMin meet">
         <g id="arrow_out" transform="scale(0.3 0.3)">
          <a xlink:href="MaCh3Modes_8h__dep__incl_org.svg" target="_base">
           <rect id="button" ry="5" rx="5" y="6" x="6" height="38" width="38"
                fill="#f2f5e9" fill-opacity="0.5" stroke="#606060" stroke-width="1.0"/>
           <path id="arrow"
             d="M 11.500037,31.436501 C 11.940474,20.09759 22.043105,11.32322 32.158766,21.979434 L 37.068811,17.246167 C 37.068811,17.246167 37.088388,32 37.088388,32 L 22.160133,31.978069 C 22.160133,31.978069 26.997745,27.140456 26.997745,27.140456 C 18.528582,18.264221 13.291696,25.230495 11.500037,31.436501 z"
             style="fill:#404040;"/>
          </a>
         </g>
        </svg>
</svg>
