<?xml version="1.0" encoding="UTF-8" standalone="no"?>
<!DOCTYPE svg PUBLIC "-//W3C//DTD SVG 1.1//EN"
 "http://www.w3.org/Graphics/SVG/1.1/DTD/svg11.dtd">
<!-- Generated by graphviz version 2.44.0 (0)
 -->
<!-- Title: Manager/Manager.h Pages: 1 -->
<!--zoomable 364 -->
<svg id="main" version="1.1" xmlns="http://www.w3.org/2000/svg" xmlns:xlink="http://www.w3.org/1999/xlink" xml:space="preserve" onload="init(evt)">
<style type="text/css"><![CDATA[
.edge:hover path { stroke: red; }
.edge:hover polygon { stroke: red; fill: red; }
]]></style>
<script type="text/javascript"><![CDATA[
var edges = document.getElementsByTagName('g');
if (edges && edges.length) {
  for (var i=0;i<edges.length;i++) {
    if (edges[i].id.substr(0,4)=='edge') {
      edges[i].setAttribute('class','edge');
    }
  }
}
]]></script>
        <defs>
                <circle id="rim" cx="0" cy="0" r="7"/>
                <circle id="rim2" cx="0" cy="0" r="3.5"/>
                <g id="zoomPlus">
                        <use xlink:href="#rim" fill="#404040">
                                <set attributeName="fill" to="#808080" begin="zoomplus.mouseover" end="zoomplus.mouseout"/>
                        </use>
                        <path d="M-4,0h8M0,-4v8" fill="none" stroke="white" stroke-width="1.5" pointer-events="none"/>
                </g>
                <g id="zoomMin">
                        <use xlink:href="#rim" fill="#404040">
                                <set attributeName="fill" to="#808080" begin="zoomminus.mouseover" end="zoomminus.mouseout"/>
                        </use>
                        <path d="M-4,0h8" fill="none" stroke="white" stroke-width="1.5" pointer-events="none"/>
                </g>
                <g id="dirArrow">
                        <path fill="none" stroke="white" stroke-width="1.5" d="M0,-3.0v7 M-2.5,-0.5L0,-3.0L2.5,-0.5"/>
                </g>
               <g id="resetDef">
                       <use xlink:href="#rim2" fill="#404040">
                               <set attributeName="fill" to="#808080" begin="reset.mouseover" end="reset.mouseout"/>
                       </use>
               </g>
        </defs>

<script type="text/javascript">
var viewWidth = 1844;
var viewHeight = 364;
var sectionId = 'dynsection-0';
</script>
<script xlink:href="svgpan.js"/>
<svg id="graph" class="graph">
<g id="viewport">
<title>Manager/Manager.h</title>
<polygon fill="white" stroke="transparent" points="-4,4 -4,-360 1839.74,-360 1839.74,4 -4,4"/>
<!-- Node1 -->
<g id="node1" class="node">
<title>Node1</title>
<g id="a_node1"><a xlink:title=" ">
<polygon fill="#bfbfbf" stroke="black" points="942.26,-336.5 942.26,-355.5 1045.26,-355.5 1045.26,-336.5 942.26,-336.5"/>
<text text-anchor="middle" x="993.76" y="-343.5" font-family="Helvetica" font-size="10.00">Manager/Manager.h</text>
</a>
</g>
</g>
<!-- Node2 -->
<g id="node2" class="node">
<title>Node2</title>
<g id="a_node2"><a xlink:href="SampleStructs_8h.html" target="_top" xlink:title=" ">
<polygon fill="white" stroke="black" points="389.26,-280.5 389.26,-299.5 520.26,-299.5 520.26,-280.5 389.26,-280.5"/>
<text text-anchor="middle" x="454.76" y="-287.5" font-family="Helvetica" font-size="10.00">Samples/SampleStructs.h</text>
</a>
</g>
</g>
<!-- Node1&#45;&gt;Node2 -->
<g id="edge1" class="edge">
<title>Node1&#45;&gt;Node2</title>
<path fill="none" stroke="midnightblue" d="M942.08,-339.82C846.52,-330.25 641.82,-309.74 530.55,-298.59"/>
<polygon fill="midnightblue" stroke="midnightblue" points="530.71,-295.09 520.41,-297.58 530.01,-302.06 530.71,-295.09"/>
</g>
<!-- Node6 -->
<g id="node6" class="node">
<title>Node6</title>
<g id="a_node6"><a xlink:href="MaCh3Exception_8h.html" target="_top" xlink:title="Defines the custom exception class used throughout MaCh3.">
<polygon fill="white" stroke="black" points="801.76,-168.5 801.76,-187.5 941.76,-187.5 941.76,-168.5 801.76,-168.5"/>
<text text-anchor="middle" x="871.76" y="-175.5" font-family="Helvetica" font-size="10.00">Manager/MaCh3Exception.h</text>
</a>
</g>
</g>
<!-- Node1&#45;&gt;Node6 -->
<g id="edge74" class="edge">
<title>Node1&#45;&gt;Node6</title>
<path fill="none" stroke="midnightblue" d="M987.2,-336.08C967.67,-309.49 909.64,-230.54 884.08,-195.76"/>
<polygon fill="midnightblue" stroke="midnightblue" points="886.8,-193.55 878.06,-187.57 881.16,-197.7 886.8,-193.55"/>
</g>
<!-- Node30 -->
<g id="node30" class="node">
<title>Node30</title>
<g id="a_node30"><a xlink:href="YamlHelper_8h.html" target="_top" xlink:title="Utility functions for handling YAML nodes.">
<polygon fill="white" stroke="black" points="1069.76,-224.5 1069.76,-243.5 1185.76,-243.5 1185.76,-224.5 1069.76,-224.5"/>
<text text-anchor="middle" x="1127.76" y="-231.5" font-family="Helvetica" font-size="10.00">Manager/YamlHelper.h</text>
</a>
</g>
</g>
<!-- Node1&#45;&gt;Node30 -->
<g id="edge48" class="edge">
<title>Node1&#45;&gt;Node30</title>
<path fill="none" stroke="midnightblue" d="M1004.28,-336.37C1026.98,-317.73 1080.82,-273.53 1109.33,-250.13"/>
<polygon fill="midnightblue" stroke="midnightblue" points="1111.79,-252.64 1117.29,-243.59 1107.34,-247.23 1111.79,-252.64"/>
</g>
<!-- Node36 -->
<g id="node36" class="node">
<title>Node36</title>
<g id="a_node36"><a xlink:href="Monitor_8h.html" target="_top" xlink:title="System and monitoring utilities for printing system information and status updates.">
<polygon fill="white" stroke="black" points="1410.76,-280.5 1410.76,-299.5 1508.76,-299.5 1508.76,-280.5 1410.76,-280.5"/>
<text text-anchor="middle" x="1459.76" y="-287.5" font-family="Helvetica" font-size="10.00">Manager/Monitor.h</text>
</a>
</g>
</g>
<!-- Node1&#45;&gt;Node36 -->
<g id="edge60" class="edge">
<title>Node1&#45;&gt;Node36</title>
<path fill="none" stroke="midnightblue" d="M1045.41,-339.01C1132.66,-328.9 1308.71,-308.5 1400.71,-297.84"/>
<polygon fill="midnightblue" stroke="midnightblue" points="1401.17,-301.31 1410.7,-296.69 1400.36,-294.36 1401.17,-301.31"/>
</g>
<!-- Node3 -->
<g id="node3" class="node">
<title>Node3</title>
<g id="a_node3"><a xlink:title=" ">
<polygon fill="white" stroke="#bfbfbf" points="18.76,-168.5 18.76,-187.5 48.76,-187.5 48.76,-168.5 18.76,-168.5"/>
<text text-anchor="middle" x="33.76" y="-175.5" font-family="Helvetica" font-size="10.00">set</text>
</a>
</g>
</g>
<!-- Node2&#45;&gt;Node3 -->
<g id="edge2" class="edge">
<title>Node2&#45;&gt;Node3</title>
<path fill="none" stroke="midnightblue" d="M389.12,-285.54C327.53,-280.8 233.51,-269.72 155.76,-244 118.15,-231.56 78.31,-208.13 54.76,-193.06"/>
<polygon fill="midnightblue" stroke="midnightblue" points="56.58,-190.07 46.29,-187.55 52.76,-195.94 56.58,-190.07"/>
</g>
<!-- Node4 -->
<g id="node4" class="node">
<title>Node4</title>
<g id="a_node4"><a xlink:title=" ">
<polygon fill="white" stroke="#bfbfbf" points="67.26,-168.5 67.26,-187.5 96.26,-187.5 96.26,-168.5 67.26,-168.5"/>
<text text-anchor="middle" x="81.76" y="-175.5" font-family="Helvetica" font-size="10.00">list</text>
</a>
</g>
</g>
<!-- Node2&#45;&gt;Node4 -->
<g id="edge3" class="edge">
<title>Node2&#45;&gt;Node4</title>
<path fill="none" stroke="midnightblue" d="M389.14,-282.78C337.89,-276.6 265.42,-264.92 204.76,-244 167.27,-231.07 127.27,-207.98 103.4,-193.09"/>
<polygon fill="midnightblue" stroke="midnightblue" points="105.12,-190.03 94.8,-187.64 101.37,-195.95 105.12,-190.03"/>
</g>
<!-- Node5 -->
<g id="node5" class="node">
<title>Node5</title>
<g id="a_node5"><a xlink:title=" ">
<polygon fill="white" stroke="#bfbfbf" points="114.26,-168.5 114.26,-187.5 197.26,-187.5 197.26,-168.5 114.26,-168.5"/>
<text text-anchor="middle" x="155.76" y="-175.5" font-family="Helvetica" font-size="10.00">unordered_map</text>
</a>
</g>
</g>
<!-- Node2&#45;&gt;Node5 -->
<g id="edge4" class="edge">
<title>Node2&#45;&gt;Node5</title>
<path fill="none" stroke="midnightblue" d="M389.2,-282.86C345.58,-276.96 287.86,-265.61 240.76,-244 214.02,-231.73 187.83,-209.76 171.74,-194.79"/>
<polygon fill="midnightblue" stroke="midnightblue" points="173.96,-192.06 164.31,-187.69 169.12,-197.13 173.96,-192.06"/>
</g>
<!-- Node2&#45;&gt;Node6 -->
<g id="edge5" class="edge">
<title>Node2&#45;&gt;Node6</title>
<path fill="none" stroke="midnightblue" d="M520.42,-285.02C606.04,-279.04 750.56,-266.04 798.76,-244 823.24,-232.81 845.41,-210.53 858.74,-195.2"/>
<polygon fill="midnightblue" stroke="midnightblue" points="861.44,-197.42 865.19,-187.51 856.08,-192.92 861.44,-197.42"/>
</g>
<!-- Node10 -->
<g id="node10" class="node">
<title>Node10</title>
<g id="a_node10"><a xlink:href="MaCh3Logger_8h.html" target="_top" xlink:title="MaCh3 Logging utilities built on top of SPDLOG.">
<polygon fill="white" stroke="black" points="447.76,-112.5 447.76,-131.5 573.76,-131.5 573.76,-112.5 447.76,-112.5"/>
<text text-anchor="middle" x="510.76" y="-119.5" font-family="Helvetica" font-size="10.00">Manager/MaCh3Logger.h</text>
</a>
</g>
</g>
<!-- Node2&#45;&gt;Node10 -->
<g id="edge26" class="edge">
<title>Node2&#45;&gt;Node10</title>
<path fill="none" stroke="midnightblue" d="M389.23,-288.15C317.96,-285.5 201.55,-276.05 106.76,-244 54.88,-226.46 -27.19,-208.42 9.76,-168 38.01,-137.1 305.03,-127.24 437.28,-124.24"/>
<polygon fill="midnightblue" stroke="midnightblue" points="437.41,-127.74 447.33,-124.02 437.26,-120.74 437.41,-127.74"/>
</g>
<!-- Node14 -->
<g id="node14" class="node">
<title>Node14</title>
<g id="a_node14"><a xlink:href="Core_8h.html" target="_top" xlink:title="KS: Core MaCh3 definitions and compile&#45;time configuration utilities.">
<polygon fill="white" stroke="black" points="752.76,-56.5 752.76,-75.5 838.76,-75.5 838.76,-56.5 752.76,-56.5"/>
<text text-anchor="middle" x="795.76" y="-63.5" font-family="Helvetica" font-size="10.00">Manager/Core.h</text>
</a>
</g>
</g>
<!-- Node2&#45;&gt;Node14 -->
<g id="edge27" class="edge">
<title>Node2&#45;&gt;Node14</title>
<path fill="none" stroke="midnightblue" d="M520.29,-288.29C601.08,-285.98 731.89,-277.06 765.76,-244 788.04,-222.26 793.81,-126.68 795.28,-85.73"/>
<polygon fill="midnightblue" stroke="midnightblue" points="798.78,-85.63 795.59,-75.53 791.79,-85.42 798.78,-85.63"/>
</g>
<!-- Node22 -->
<g id="node22" class="node">
<title>Node22</title>
<g id="a_node22"><a xlink:href="ParameterStructs_8h.html" target="_top" xlink:title="Definitions of generic parameter structs and utility templates for MaCh3.">
<polygon fill="white" stroke="black" points="271.26,-224.5 271.26,-243.5 426.26,-243.5 426.26,-224.5 271.26,-224.5"/>
<text text-anchor="middle" x="348.76" y="-231.5" font-family="Helvetica" font-size="10.00">Parameters/ParameterStructs.h</text>
</a>
</g>
</g>
<!-- Node2&#45;&gt;Node22 -->
<g id="edge28" class="edge">
<title>Node2&#45;&gt;Node22</title>
<path fill="none" stroke="midnightblue" d="M437.73,-280.32C420.73,-271.66 394.38,-258.24 374.77,-248.25"/>
<polygon fill="midnightblue" stroke="midnightblue" points="376.25,-245.08 365.75,-243.65 373.07,-251.31 376.25,-245.08"/>
</g>
<!-- Node23 -->
<g id="node23" class="node">
<title>Node23</title>
<g id="a_node23"><a xlink:title=" ">
<polygon fill="white" stroke="#bfbfbf" points="215.76,-168.5 215.76,-187.5 273.76,-187.5 273.76,-168.5 215.76,-168.5"/>
<text text-anchor="middle" x="244.76" y="-175.5" font-family="Helvetica" font-size="10.00">TSpline.h</text>
</a>
</g>
</g>
<!-- Node2&#45;&gt;Node23 -->
<g id="edge41" class="edge">
<title>Node2&#45;&gt;Node23</title>
<path fill="none" stroke="midnightblue" d="M389.26,-282.39C337.81,-275.79 271.93,-263.73 253.76,-244 242.56,-231.83 241.17,-212.56 242.06,-198.15"/>
<polygon fill="midnightblue" stroke="midnightblue" points="245.58,-198.18 243.13,-187.87 238.62,-197.46 245.58,-198.18"/>
</g>
<!-- Node24 -->
<g id="node24" class="node">
<title>Node24</title>
<g id="a_node24"><a xlink:title=" ">
<polygon fill="white" stroke="#bfbfbf" points="636.26,-168.5 636.26,-187.5 707.26,-187.5 707.26,-168.5 636.26,-168.5"/>
<text text-anchor="middle" x="671.76" y="-175.5" font-family="Helvetica" font-size="10.00">TObjString.h</text>
</a>
</g>
</g>
<!-- Node2&#45;&gt;Node24 -->
<g id="edge42" class="edge">
<title>Node2&#45;&gt;Node24</title>
<path fill="none" stroke="midnightblue" d="M471.79,-280.37C509.58,-261.21 600.67,-215.04 645.69,-192.22"/>
<polygon fill="midnightblue" stroke="midnightblue" points="647.48,-195.23 654.81,-187.59 644.31,-188.99 647.48,-195.23"/>
</g>
<!-- Node25 -->
<g id="node25" class="node">
<title>Node25</title>
<g id="a_node25"><a xlink:title=" ">
<polygon fill="white" stroke="#bfbfbf" points="292.26,-168.5 292.26,-187.5 339.26,-187.5 339.26,-168.5 292.26,-168.5"/>
<text text-anchor="middle" x="315.76" y="-175.5" font-family="Helvetica" font-size="10.00">TFile.h</text>
</a>
</g>
</g>
<!-- Node2&#45;&gt;Node25 -->
<g id="edge43" class="edge">
<title>Node2&#45;&gt;Node25</title>
<path fill="none" stroke="midnightblue" d="M389.14,-282.38C339.62,-275.87 277.59,-263.94 261.76,-244 247.54,-226.08 270.68,-205.88 290.94,-192.82"/>
<polygon fill="midnightblue" stroke="midnightblue" points="292.9,-195.72 299.61,-187.52 289.25,-189.75 292.9,-195.72"/>
</g>
<!-- Node26 -->
<g id="node26" class="node">
<title>Node26</title>
<g id="a_node26"><a xlink:title=" ">
<polygon fill="white" stroke="#bfbfbf" points="433.76,-168.5 433.76,-187.5 475.76,-187.5 475.76,-168.5 433.76,-168.5"/>
<text text-anchor="middle" x="454.76" y="-175.5" font-family="Helvetica" font-size="10.00">TF1.h</text>
</a>
</g>
</g>
<!-- Node2&#45;&gt;Node26 -->
<g id="edge44" class="edge">
<title>Node2&#45;&gt;Node26</title>
<path fill="none" stroke="midnightblue" d="M454.76,-280.37C454.76,-262.62 454.76,-221.67 454.76,-197.6"/>
<polygon fill="midnightblue" stroke="midnightblue" points="458.26,-197.59 454.76,-187.59 451.26,-197.59 458.26,-197.59"/>
</g>
<!-- Node27 -->
<g id="node27" class="node">
<title>Node27</title>
<g id="a_node27"><a xlink:title=" ">
<polygon fill="white" stroke="#bfbfbf" points="493.76,-168.5 493.76,-187.5 555.76,-187.5 555.76,-168.5 493.76,-168.5"/>
<text text-anchor="middle" x="524.76" y="-175.5" font-family="Helvetica" font-size="10.00">TH2Poly.h</text>
</a>
</g>
</g>
<!-- Node2&#45;&gt;Node27 -->
<g id="edge45" class="edge">
<title>Node2&#45;&gt;Node27</title>
<path fill="none" stroke="midnightblue" d="M460.25,-280.37C471.75,-262.3 498.56,-220.18 513.75,-196.31"/>
<polygon fill="midnightblue" stroke="midnightblue" points="516.88,-197.91 519.29,-187.59 510.97,-194.15 516.88,-197.91"/>
</g>
<!-- Node28 -->
<g id="node28" class="node">
<title>Node28</title>
<g id="a_node28"><a xlink:title=" ">
<polygon fill="white" stroke="#bfbfbf" points="573.76,-168.5 573.76,-187.5 617.76,-187.5 617.76,-168.5 573.76,-168.5"/>
<text text-anchor="middle" x="595.76" y="-175.5" font-family="Helvetica" font-size="10.00">TH1.h</text>
</a>
</g>
</g>
<!-- Node2&#45;&gt;Node28 -->
<g id="edge46" class="edge">
<title>Node2&#45;&gt;Node28</title>
<path fill="none" stroke="midnightblue" d="M465.82,-280.37C489.81,-261.65 546.86,-217.15 576.75,-193.83"/>
<polygon fill="midnightblue" stroke="midnightblue" points="579.02,-196.5 584.75,-187.59 574.71,-190.98 579.02,-196.5"/>
</g>
<!-- Node29 -->
<g id="node29" class="node">
<title>Node29</title>
<g id="a_node29"><a xlink:title=" ">
<polygon fill="white" stroke="#bfbfbf" points="597.26,-224.5 597.26,-243.5 756.26,-243.5 756.26,-224.5 597.26,-224.5"/>
<text text-anchor="middle" x="676.76" y="-231.5" font-family="Helvetica" font-size="10.00">Constants/OscillatorConstants.h</text>
</a>
</g>
</g>
<!-- Node2&#45;&gt;Node29 -->
<g id="edge47" class="edge">
<title>Node2&#45;&gt;Node29</title>
<path fill="none" stroke="midnightblue" d="M489.94,-280.44C528.34,-271.1 589.94,-256.12 631.82,-245.93"/>
<polygon fill="midnightblue" stroke="midnightblue" points="632.86,-249.28 641.75,-243.52 631.2,-242.48 632.86,-249.28"/>
</g>
<!-- Node7 -->
<g id="node7" class="node">
<title>Node7</title>
<g id="a_node7"><a xlink:title=" ">
<polygon fill="white" stroke="#bfbfbf" points="920.76,-0.5 920.76,-19.5 974.76,-19.5 974.76,-0.5 920.76,-0.5"/>
<text text-anchor="middle" x="947.76" y="-7.5" font-family="Helvetica" font-size="10.00">iostream</text>
</a>
</g>
</g>
<!-- Node6&#45;&gt;Node7 -->
<g id="edge6" class="edge">
<title>Node6&#45;&gt;Node7</title>
<path fill="none" stroke="midnightblue" d="M875.81,-168.39C880.06,-159.34 886.92,-144.69 892.76,-132 909.59,-95.47 929,-52.59 939.67,-28.94"/>
<polygon fill="midnightblue" stroke="midnightblue" points="943,-30.08 943.92,-19.52 936.62,-27.2 943,-30.08"/>
</g>
<!-- Node8 -->
<g id="node8" class="node">
<title>Node8</title>
<g id="a_node8"><a xlink:title=" ">
<polygon fill="white" stroke="#bfbfbf" points="986.26,-56.5 986.26,-75.5 1027.26,-75.5 1027.26,-56.5 986.26,-56.5"/>
<text text-anchor="middle" x="1006.76" y="-63.5" font-family="Helvetica" font-size="10.00">string</text>
</a>
</g>
</g>
<!-- Node6&#45;&gt;Node8 -->
<g id="edge7" class="edge">
<title>Node6&#45;&gt;Node8</title>
<path fill="none" stroke="midnightblue" d="M882.35,-168.37C905.22,-149.73 959.47,-105.53 988.19,-82.13"/>
<polygon fill="midnightblue" stroke="midnightblue" points="990.68,-84.62 996.22,-75.59 986.25,-79.19 990.68,-84.62"/>
</g>
<!-- Node9 -->
<g id="node9" class="node">
<title>Node9</title>
<g id="a_node9"><a xlink:title=" ">
<polygon fill="white" stroke="#bfbfbf" points="824.26,-112.5 824.26,-131.5 883.26,-131.5 883.26,-112.5 824.26,-112.5"/>
<text text-anchor="middle" x="853.76" y="-119.5" font-family="Helvetica" font-size="10.00">stdexcept</text>
</a>
</g>
</g>
<!-- Node6&#45;&gt;Node9 -->
<g id="edge8" class="edge">
<title>Node6&#45;&gt;Node9</title>
<path fill="none" stroke="midnightblue" d="M868.79,-168.08C866.38,-160.85 862.9,-150.41 859.89,-141.4"/>
<polygon fill="midnightblue" stroke="midnightblue" points="863.16,-140.13 856.68,-131.75 856.52,-142.34 863.16,-140.13"/>
</g>
<!-- Node6&#45;&gt;Node10 -->
<g id="edge9" class="edge">
<title>Node6&#45;&gt;Node10</title>
<path fill="none" stroke="midnightblue" d="M814.56,-168.44C750.26,-158.83 645.99,-143.23 577.89,-133.04"/>
<polygon fill="midnightblue" stroke="midnightblue" points="578.1,-129.53 567.69,-131.52 577.07,-136.46 578.1,-129.53"/>
</g>
<!-- Node6&#45;&gt;Node14 -->
<g id="edge25" class="edge">
<title>Node6&#45;&gt;Node14</title>
<path fill="none" stroke="midnightblue" d="M856.56,-168.36C843.92,-160.44 826.34,-147.58 815.76,-132 806.33,-118.11 801.21,-99.6 798.52,-85.88"/>
<polygon fill="midnightblue" stroke="midnightblue" points="801.91,-84.97 796.78,-75.7 795.01,-86.14 801.91,-84.97"/>
</g>
<!-- Node10&#45;&gt;Node7 -->
<g id="edge10" class="edge">
<title>Node10&#45;&gt;Node7</title>
<path fill="none" stroke="midnightblue" d="M539.31,-112.43C583.09,-99.42 669.55,-74.29 743.76,-56 814.86,-38.48 835.69,-37.33 910.72,-20.17"/>
<polygon fill="midnightblue" stroke="midnightblue" points="911.7,-23.54 920.66,-17.88 910.13,-16.72 911.7,-23.54"/>
</g>
<!-- Node10&#45;&gt;Node8 -->
<g id="edge13" class="edge">
<title>Node10&#45;&gt;Node8</title>
<path fill="none" stroke="midnightblue" d="M573.83,-114.13C681.24,-102.44 895.78,-79.08 975.76,-70.38"/>
<polygon fill="midnightblue" stroke="midnightblue" points="976.56,-73.81 986.13,-69.25 975.81,-66.85 976.56,-73.81"/>
</g>
<!-- Node11 -->
<g id="node11" class="node">
<title>Node11</title>
<g id="a_node11"><a xlink:title=" ">
<polygon fill="white" stroke="#bfbfbf" points="600.76,-0.5 600.76,-19.5 652.76,-19.5 652.76,-0.5 600.76,-0.5"/>
<text text-anchor="middle" x="626.76" y="-7.5" font-family="Helvetica" font-size="10.00">sstream</text>
</a>
</g>
</g>
<!-- Node10&#45;&gt;Node11 -->
<g id="edge11" class="edge">
<title>Node10&#45;&gt;Node11</title>
<path fill="none" stroke="midnightblue" d="M546.21,-112.48C566.87,-105.79 591.9,-94.44 607.76,-76 618.89,-63.06 623.51,-43.89 625.42,-29.72"/>
<polygon fill="midnightblue" stroke="midnightblue" points="628.92,-29.94 626.45,-19.64 621.95,-29.24 628.92,-29.94"/>
</g>
<!-- Node12 -->
<g id="node12" class="node">
<title>Node12</title>
<g id="a_node12"><a xlink:title=" ">
<polygon fill="white" stroke="#bfbfbf" points="359.26,-56.5 359.26,-75.5 418.26,-75.5 418.26,-56.5 359.26,-56.5"/>
<text text-anchor="middle" x="388.76" y="-63.5" font-family="Helvetica" font-size="10.00">functional</text>
</a>
</g>
</g>
<!-- Node10&#45;&gt;Node12 -->
<g id="edge12" class="edge">
<title>Node10&#45;&gt;Node12</title>
<path fill="none" stroke="midnightblue" d="M491.43,-112.44C471.44,-103.6 440.02,-89.69 417.2,-79.59"/>
<polygon fill="midnightblue" stroke="midnightblue" points="418.56,-76.36 408,-75.52 415.73,-82.76 418.56,-76.36"/>
</g>
<!-- Node13 -->
<g id="node13" class="node">
<title>Node13</title>
<g id="a_node13"><a xlink:title=" ">
<polygon fill="white" stroke="#bfbfbf" points="436.76,-56.5 436.76,-75.5 494.76,-75.5 494.76,-56.5 436.76,-56.5"/>
<text text-anchor="middle" x="465.76" y="-63.5" font-family="Helvetica" font-size="10.00">exception</text>
</a>
</g>
</g>
<!-- Node10&#45;&gt;Node13 -->
<g id="edge14" class="edge">
<title>Node10&#45;&gt;Node13</title>
<path fill="none" stroke="midnightblue" d="M503.33,-112.08C496.91,-104.38 487.46,-93.03 479.64,-83.65"/>
<polygon fill="midnightblue" stroke="midnightblue" points="482.14,-81.19 473.05,-75.75 476.77,-85.67 482.14,-81.19"/>
</g>
<!-- Node10&#45;&gt;Node14 -->
<g id="edge15" class="edge">
<title>Node10&#45;&gt;Node14</title>
<path fill="none" stroke="midnightblue" d="M555.92,-112.44C606.64,-102.83 688.89,-87.25 742.65,-77.06"/>
<polygon fill="midnightblue" stroke="midnightblue" points="743.51,-80.46 752.68,-75.16 742.2,-73.59 743.51,-80.46"/>
</g>
<!-- Node21 -->
<g id="node21" class="node">
<title>Node21</title>
<g id="a_node21"><a xlink:title=" ">
<polygon fill="white" stroke="#bfbfbf" points="513.26,-56.5 513.26,-75.5 598.26,-75.5 598.26,-56.5 513.26,-56.5"/>
<text text-anchor="middle" x="555.76" y="-63.5" font-family="Helvetica" font-size="10.00">spdlog/spdlog.h</text>
</a>
</g>
</g>
<!-- Node10&#45;&gt;Node21 -->
<g id="edge24" class="edge">
<title>Node10&#45;&gt;Node21</title>
<path fill="none" stroke="midnightblue" d="M518.19,-112.08C524.61,-104.38 534.07,-93.03 541.88,-83.65"/>
<polygon fill="midnightblue" stroke="midnightblue" points="544.76,-85.67 548.47,-75.75 539.38,-81.19 544.76,-85.67"/>
</g>
<!-- Node14&#45;&gt;Node7 -->
<g id="edge18" class="edge">
<title>Node14&#45;&gt;Node7</title>
<path fill="none" stroke="midnightblue" d="M819.85,-56.44C845.31,-47.4 885.65,-33.06 914.22,-22.92"/>
<polygon fill="midnightblue" stroke="midnightblue" points="915.54,-26.16 923.79,-19.52 913.19,-19.57 915.54,-26.16"/>
</g>
<!-- Node14&#45;&gt;Node11 -->
<g id="edge16" class="edge">
<title>Node14&#45;&gt;Node11</title>
<path fill="none" stroke="midnightblue" d="M768.98,-56.44C740.26,-47.27 694.49,-32.64 662.66,-22.47"/>
<polygon fill="midnightblue" stroke="midnightblue" points="663.45,-19.05 652.86,-19.34 661.32,-25.72 663.45,-19.05"/>
</g>
<!-- Node15 -->
<g id="node15" class="node">
<title>Node15</title>
<g id="a_node15"><a xlink:title=" ">
<polygon fill="white" stroke="#bfbfbf" points="1397.76,-0.5 1397.76,-19.5 1447.76,-19.5 1447.76,-0.5 1397.76,-0.5"/>
<text text-anchor="middle" x="1422.76" y="-7.5" font-family="Helvetica" font-size="10.00">fstream</text>
</a>
</g>
</g>
<!-- Node14&#45;&gt;Node15 -->
<g id="edge17" class="edge">
<title>Node14&#45;&gt;Node15</title>
<path fill="none" stroke="midnightblue" d="M838.86,-61.29C956.27,-51.18 1280.18,-23.28 1387.62,-14.03"/>
<polygon fill="midnightblue" stroke="midnightblue" points="1387.95,-17.51 1397.62,-13.17 1387.35,-10.54 1387.95,-17.51"/>
</g>
<!-- Node16 -->
<g id="node16" class="node">
<title>Node16</title>
<g id="a_node16"><a xlink:title=" ">
<polygon fill="white" stroke="#bfbfbf" points="1164.26,-0.5 1164.26,-19.5 1207.26,-19.5 1207.26,-0.5 1164.26,-0.5"/>
<text text-anchor="middle" x="1185.76" y="-7.5" font-family="Helvetica" font-size="10.00">vector</text>
</a>
</g>
</g>
<!-- Node14&#45;&gt;Node16 -->
<g id="edge19" class="edge">
<title>Node14&#45;&gt;Node16</title>
<path fill="none" stroke="midnightblue" d="M838.99,-59.01C918.03,-48.07 1084.13,-25.07 1153.87,-15.42"/>
<polygon fill="midnightblue" stroke="midnightblue" points="1154.39,-18.88 1163.82,-14.04 1153.43,-11.94 1154.39,-18.88"/>
</g>
<!-- Node17 -->
<g id="node17" class="node">
<title>Node17</title>
<g id="a_node17"><a xlink:title=" ">
<polygon fill="white" stroke="#bfbfbf" points="790.76,-0.5 790.76,-19.5 840.76,-19.5 840.76,-0.5 790.76,-0.5"/>
<text text-anchor="middle" x="815.76" y="-7.5" font-family="Helvetica" font-size="10.00">iomanip</text>
</a>
</g>
</g>
<!-- Node14&#45;&gt;Node17 -->
<g id="edge20" class="edge">
<title>Node14&#45;&gt;Node17</title>
<path fill="none" stroke="midnightblue" d="M799.06,-56.08C801.74,-48.85 805.61,-38.41 808.95,-29.4"/>
<polygon fill="midnightblue" stroke="midnightblue" points="812.33,-30.34 812.52,-19.75 805.76,-27.91 812.33,-30.34"/>
</g>
<!-- Node18 -->
<g id="node18" class="node">
<title>Node18</title>
<g id="a_node18"><a xlink:title=" ">
<polygon fill="white" stroke="#bfbfbf" points="858.76,-0.5 858.76,-19.5 902.76,-19.5 902.76,-0.5 858.76,-0.5"/>
<text text-anchor="middle" x="880.76" y="-7.5" font-family="Helvetica" font-size="10.00">cmath</text>
</a>
</g>
</g>
<!-- Node14&#45;&gt;Node18 -->
<g id="edge21" class="edge">
<title>Node14&#45;&gt;Node18</title>
<path fill="none" stroke="midnightblue" d="M809.42,-56.32C822.68,-47.9 843.03,-34.97 858.61,-25.07"/>
<polygon fill="midnightblue" stroke="midnightblue" points="860.57,-27.97 867.14,-19.65 856.82,-22.06 860.57,-27.97"/>
</g>
<!-- Node19 -->
<g id="node19" class="node">
<title>Node19</title>
<g id="a_node19"><a xlink:title=" ">
<polygon fill="white" stroke="#bfbfbf" points="670.76,-0.5 670.76,-19.5 710.76,-19.5 710.76,-0.5 670.76,-0.5"/>
<text text-anchor="middle" x="690.76" y="-7.5" font-family="Helvetica" font-size="10.00">limits</text>
</a>
</g>
</g>
<!-- Node14&#45;&gt;Node19 -->
<g id="edge22" class="edge">
<title>Node14&#45;&gt;Node19</title>
<path fill="none" stroke="midnightblue" d="M778.89,-56.32C762.05,-47.66 735.95,-34.24 716.52,-24.25"/>
<polygon fill="midnightblue" stroke="midnightblue" points="718.08,-21.12 707.59,-19.65 714.88,-27.34 718.08,-21.12"/>
</g>
<!-- Node20 -->
<g id="node20" class="node">
<title>Node20</title>
<g id="a_node20"><a xlink:title=" ">
<polygon fill="white" stroke="#bfbfbf" points="728.76,-0.5 728.76,-19.5 772.76,-19.5 772.76,-0.5 728.76,-0.5"/>
<text text-anchor="middle" x="750.76" y="-7.5" font-family="Helvetica" font-size="10.00">omp.h</text>
</a>
</g>
</g>
<!-- Node14&#45;&gt;Node20 -->
<g id="edge23" class="edge">
<title>Node14&#45;&gt;Node20</title>
<path fill="none" stroke="midnightblue" d="M788.33,-56.08C781.91,-48.38 772.46,-37.03 764.64,-27.65"/>
<polygon fill="midnightblue" stroke="midnightblue" points="767.14,-25.19 758.05,-19.75 761.77,-29.67 767.14,-25.19"/>
</g>
<!-- Node22&#45;&gt;Node3 -->
<g id="edge29" class="edge">
<title>Node22&#45;&gt;Node3</title>
<path fill="none" stroke="midnightblue" d="M270.98,-225.37C214.28,-218.79 135.62,-207.58 58.7,-187.78"/>
<polygon fill="midnightblue" stroke="midnightblue" points="59.41,-184.35 48.84,-185.19 57.63,-191.12 59.41,-184.35"/>
</g>
<!-- Node22&#45;&gt;Node4 -->
<g id="edge30" class="edge">
<title>Node22&#45;&gt;Node4</title>
<path fill="none" stroke="midnightblue" d="M284.03,-224.5C236.83,-217.52 171.29,-206.21 106.66,-188.16"/>
<polygon fill="midnightblue" stroke="midnightblue" points="107.29,-184.7 96.71,-185.32 105.37,-191.43 107.29,-184.7"/>
</g>
<!-- Node22&#45;&gt;Node5 -->
<g id="edge31" class="edge">
<title>Node22&#45;&gt;Node5</title>
<path fill="none" stroke="midnightblue" d="M318.18,-224.44C285.15,-215.2 232.37,-200.44 195.99,-190.26"/>
<polygon fill="midnightblue" stroke="midnightblue" points="196.77,-186.84 186.2,-187.52 194.89,-193.58 196.77,-186.84"/>
</g>
<!-- Node22&#45;&gt;Node6 -->
<g id="edge32" class="edge">
<title>Node22&#45;&gt;Node6</title>
<path fill="none" stroke="midnightblue" d="M426.49,-224.97C524.57,-214.85 692.38,-197.52 791.59,-187.28"/>
<polygon fill="midnightblue" stroke="midnightblue" points="791.98,-190.76 801.57,-186.25 791.26,-183.79 791.98,-190.76"/>
</g>
<!-- Node22&#45;&gt;Node10 -->
<g id="edge33" class="edge">
<title>Node22&#45;&gt;Node10</title>
<path fill="none" stroke="midnightblue" d="M352.44,-224.15C358.6,-210.32 372.31,-183.54 391.76,-168 411.68,-152.09 437.83,-141.38 460.54,-134.41"/>
<polygon fill="midnightblue" stroke="midnightblue" points="461.73,-137.71 470.36,-131.56 459.78,-130.99 461.73,-137.71"/>
</g>
<!-- Node22&#45;&gt;Node14 -->
<g id="edge34" class="edge">
<title>Node22&#45;&gt;Node14</title>
<path fill="none" stroke="midnightblue" d="M356.23,-224.33C368.86,-210.24 395.91,-182.5 424.76,-168 489.11,-135.65 513.16,-150.52 582.76,-132 645.75,-115.24 718.16,-92.36 760.26,-78.69"/>
<polygon fill="midnightblue" stroke="midnightblue" points="761.61,-81.94 770.03,-75.51 759.44,-75.28 761.61,-81.94"/>
</g>
<!-- Node22&#45;&gt;Node23 -->
<g id="edge35" class="edge">
<title>Node22&#45;&gt;Node23</title>
<path fill="none" stroke="midnightblue" d="M332.05,-224.32C315.45,-215.7 289.76,-202.36 270.54,-192.39"/>
<polygon fill="midnightblue" stroke="midnightblue" points="271.92,-189.16 261.43,-187.65 268.69,-195.37 271.92,-189.16"/>
</g>
<!-- Node22&#45;&gt;Node24 -->
<g id="edge36" class="edge">
<title>Node22&#45;&gt;Node24</title>
<path fill="none" stroke="midnightblue" d="M405.3,-224.47C459.35,-216.18 543.38,-202.92 625.87,-188.11"/>
<polygon fill="midnightblue" stroke="midnightblue" points="626.7,-191.51 635.92,-186.29 625.46,-184.62 626.7,-191.51"/>
</g>
<!-- Node22&#45;&gt;Node25 -->
<g id="edge37" class="edge">
<title>Node22&#45;&gt;Node25</title>
<path fill="none" stroke="midnightblue" d="M343.31,-224.08C338.75,-216.61 332.09,-205.72 326.47,-196.52"/>
<polygon fill="midnightblue" stroke="midnightblue" points="329.31,-194.46 321.11,-187.75 323.34,-198.11 329.31,-194.46"/>
</g>
<!-- Node22&#45;&gt;Node26 -->
<g id="edge38" class="edge">
<title>Node22&#45;&gt;Node26</title>
<path fill="none" stroke="midnightblue" d="M365.79,-224.32C382.79,-215.66 409.14,-202.24 428.75,-192.25"/>
<polygon fill="midnightblue" stroke="midnightblue" points="430.45,-195.31 437.77,-187.65 427.27,-189.08 430.45,-195.31"/>
</g>
<!-- Node22&#45;&gt;Node27 -->
<g id="edge39" class="edge">
<title>Node22&#45;&gt;Node27</title>
<path fill="none" stroke="midnightblue" d="M376.65,-224.44C406.51,-215.28 454.08,-200.69 487.22,-190.52"/>
<polygon fill="midnightblue" stroke="midnightblue" points="488.47,-193.8 497,-187.52 486.42,-187.1 488.47,-193.8"/>
</g>
<!-- Node22&#45;&gt;Node28 -->
<g id="edge40" class="edge">
<title>Node22&#45;&gt;Node28</title>
<path fill="none" stroke="midnightblue" d="M394.92,-224.45C436.67,-216.48 500.03,-203.8 563.67,-188.13"/>
<polygon fill="midnightblue" stroke="midnightblue" points="564.61,-191.5 573.47,-185.7 562.92,-184.71 564.61,-191.5"/>
</g>
<!-- Node30&#45;&gt;Node6 -->
<g id="edge54" class="edge">
<title>Node30&#45;&gt;Node6</title>
<path fill="none" stroke="midnightblue" d="M1087.2,-224.44C1042.44,-215 970.38,-199.8 922.07,-189.61"/>
<polygon fill="midnightblue" stroke="midnightblue" points="922.64,-186.16 912.14,-187.52 921.2,-193.01 922.64,-186.16"/>
</g>
<!-- Node30&#45;&gt;Node7 -->
<g id="edge49" class="edge">
<title>Node30&#45;&gt;Node7</title>
<path fill="none" stroke="midnightblue" d="M1185.83,-233.55C1256.78,-231.98 1363.28,-221.11 1327.76,-168 1249.05,-50.32 1064.2,-20.75 984.93,-13.4"/>
<polygon fill="midnightblue" stroke="midnightblue" points="985.17,-9.9 974.91,-12.53 984.57,-16.88 985.17,-9.9"/>
</g>
<!-- Node30&#45;&gt;Node8 -->
<g id="edge51" class="edge">
<title>Node30&#45;&gt;Node8</title>
<path fill="none" stroke="midnightblue" d="M1087.46,-224.48C1066.53,-217.97 1042.35,-206.8 1027.76,-188 1004.64,-158.2 1003.44,-111.8 1004.91,-85.98"/>
<polygon fill="midnightblue" stroke="midnightblue" points="1008.43,-85.94 1005.71,-75.7 1001.45,-85.4 1008.43,-85.94"/>
</g>
<!-- Node30&#45;&gt;Node14 -->
<g id="edge55" class="edge">
<title>Node30&#45;&gt;Node14</title>
<path fill="none" stroke="midnightblue" d="M1101.57,-224.37C1077.85,-216.17 1042.22,-202.92 1012.76,-188 956.44,-159.48 948.18,-142.24 892.76,-112 870.73,-99.98 844.93,-88.11 825.47,-79.58"/>
<polygon fill="midnightblue" stroke="midnightblue" points="826.77,-76.33 816.2,-75.56 823.98,-82.75 826.77,-76.33"/>
</g>
<!-- Node30&#45;&gt;Node15 -->
<g id="edge50" class="edge">
<title>Node30&#45;&gt;Node15</title>
<path fill="none" stroke="midnightblue" d="M1185.8,-226.99C1241.55,-220.18 1320.75,-207.42 1344.76,-188 1395.41,-147.03 1414.09,-66.51 1420.17,-29.91"/>
<polygon fill="midnightblue" stroke="midnightblue" points="1423.68,-30.08 1421.72,-19.67 1416.76,-29.03 1423.68,-30.08"/>
</g>
<!-- Node30&#45;&gt;Node24 -->
<g id="edge58" class="edge">
<title>Node30&#45;&gt;Node24</title>
<path fill="none" stroke="midnightblue" d="M1069.54,-226.11C977.67,-215.23 800.95,-194.3 717.52,-184.42"/>
<polygon fill="midnightblue" stroke="midnightblue" points="717.68,-180.91 707.34,-183.21 716.86,-187.86 717.68,-180.91"/>
</g>
<!-- Node31 -->
<g id="node31" class="node">
<title>Node31</title>
<g id="a_node31"><a xlink:title=" ">
<polygon fill="white" stroke="#bfbfbf" points="1036.26,-168.5 1036.26,-187.5 1089.26,-187.5 1089.26,-168.5 1036.26,-168.5"/>
<text text-anchor="middle" x="1062.76" y="-175.5" font-family="Helvetica" font-size="10.00">cxxabi.h</text>
</a>
</g>
</g>
<!-- Node30&#45;&gt;Node31 -->
<g id="edge52" class="edge">
<title>Node30&#45;&gt;Node31</title>
<path fill="none" stroke="midnightblue" d="M1117.32,-224.32C1107.61,-216.26 1092.95,-204.08 1081.26,-194.37"/>
<polygon fill="midnightblue" stroke="midnightblue" points="1083.32,-191.53 1073.39,-187.83 1078.85,-196.92 1083.32,-191.53"/>
</g>
<!-- Node32 -->
<g id="node32" class="node">
<title>Node32</title>
<g id="a_node32"><a xlink:title=" ">
<polygon fill="white" stroke="#bfbfbf" points="1107.26,-168.5 1107.26,-187.5 1148.26,-187.5 1148.26,-168.5 1107.26,-168.5"/>
<text text-anchor="middle" x="1127.76" y="-175.5" font-family="Helvetica" font-size="10.00">regex</text>
</a>
</g>
</g>
<!-- Node30&#45;&gt;Node32 -->
<g id="edge53" class="edge">
<title>Node30&#45;&gt;Node32</title>
<path fill="none" stroke="midnightblue" d="M1127.76,-224.08C1127.76,-217.01 1127.76,-206.86 1127.76,-197.99"/>
<polygon fill="midnightblue" stroke="midnightblue" points="1131.26,-197.75 1127.76,-187.75 1124.26,-197.75 1131.26,-197.75"/>
</g>
<!-- Node33 -->
<g id="node33" class="node">
<title>Node33</title>
<g id="a_node33"><a xlink:title=" ">
<polygon fill="white" stroke="#bfbfbf" points="1412.76,-168.5 1412.76,-187.5 1470.76,-187.5 1470.76,-168.5 1412.76,-168.5"/>
<text text-anchor="middle" x="1441.76" y="-175.5" font-family="Helvetica" font-size="10.00">TMacro.h</text>
</a>
</g>
</g>
<!-- Node30&#45;&gt;Node33 -->
<g id="edge56" class="edge">
<title>Node30&#45;&gt;Node33</title>
<path fill="none" stroke="midnightblue" d="M1183.16,-224.5C1238.01,-215.91 1324.35,-201.96 1398.76,-188 1400.03,-187.76 1401.31,-187.52 1402.61,-187.27"/>
<polygon fill="midnightblue" stroke="midnightblue" points="1403.53,-190.65 1412.65,-185.26 1402.16,-183.79 1403.53,-190.65"/>
</g>
<!-- Node34 -->
<g id="node34" class="node">
<title>Node34</title>
<g id="a_node34"><a xlink:title=" ">
<polygon fill="white" stroke="#bfbfbf" points="1166.76,-168.5 1166.76,-187.5 1212.76,-187.5 1212.76,-168.5 1166.76,-168.5"/>
<text text-anchor="middle" x="1189.76" y="-175.5" font-family="Helvetica" font-size="10.00">TList.h</text>
</a>
</g>
</g>
<!-- Node30&#45;&gt;Node34 -->
<g id="edge57" class="edge">
<title>Node30&#45;&gt;Node34</title>
<path fill="none" stroke="midnightblue" d="M1137.72,-224.32C1146.89,-216.34 1160.7,-204.31 1171.79,-194.65"/>
<polygon fill="midnightblue" stroke="midnightblue" points="1174.38,-197.04 1179.62,-187.83 1169.78,-191.76 1174.38,-197.04"/>
</g>
<!-- Node35 -->
<g id="node35" class="node">
<title>Node35</title>
<g id="a_node35"><a xlink:title=" ">
<polygon fill="white" stroke="#bfbfbf" points="1231.26,-168.5 1231.26,-187.5 1318.26,-187.5 1318.26,-168.5 1231.26,-168.5"/>
<text text-anchor="middle" x="1274.76" y="-175.5" font-family="Helvetica" font-size="10.00">yaml&#45;cpp/yaml.h</text>
</a>
</g>
</g>
<!-- Node30&#45;&gt;Node35 -->
<g id="edge59" class="edge">
<title>Node30&#45;&gt;Node35</title>
<path fill="none" stroke="midnightblue" d="M1151.05,-224.44C1175.57,-215.44 1214.36,-201.19 1241.96,-191.05"/>
<polygon fill="midnightblue" stroke="midnightblue" points="1243.4,-194.25 1251.58,-187.52 1240.98,-187.68 1243.4,-194.25"/>
</g>
<!-- Node36&#45;&gt;Node6 -->
<g id="edge67" class="edge">
<title>Node36&#45;&gt;Node6</title>
<path fill="none" stroke="midnightblue" d="M1410.67,-286.92C1334.8,-282.94 1184.87,-271.98 1060.76,-244 1002.9,-230.95 938.05,-206.35 901.33,-191.44"/>
<polygon fill="midnightblue" stroke="midnightblue" points="902.34,-188.07 891.76,-187.51 899.68,-194.54 902.34,-188.07"/>
</g>
<!-- Node36&#45;&gt;Node7 -->
<g id="edge61" class="edge">
<title>Node36&#45;&gt;Node7</title>
<path fill="none" stroke="midnightblue" d="M1478.15,-280.47C1491.86,-273 1509.58,-260.71 1517.76,-244 1521.67,-236.02 1519.41,-232.73 1517.76,-224 1512.79,-197.73 1512.92,-188.51 1495.76,-168 1465.29,-131.58 1448.18,-131.24 1404.76,-112 1257.76,-46.88 1064.99,-22.09 985.02,-14.19"/>
<polygon fill="midnightblue" stroke="midnightblue" points="985.23,-10.69 974.94,-13.22 984.56,-17.66 985.23,-10.69"/>
</g>
<!-- Node36&#45;&gt;Node8 -->
<g id="edge63" class="edge">
<title>Node36&#45;&gt;Node8</title>
<path fill="none" stroke="midnightblue" d="M1457.09,-280.36C1453.62,-267.68 1448.67,-243.44 1454.76,-224 1462.91,-197.99 1496.9,-189.19 1479.76,-168 1423.5,-98.46 1133.31,-74.72 1037.5,-68.7"/>
<polygon fill="midnightblue" stroke="midnightblue" points="1037.51,-65.2 1027.31,-68.09 1037.08,-72.18 1037.51,-65.2"/>
</g>
<!-- Node36&#45;&gt;Node10 -->
<g id="edge66" class="edge">
<title>Node36&#45;&gt;Node10</title>
<path fill="none" stroke="midnightblue" d="M1410.44,-287.19C1324.11,-283.39 1140.3,-272.43 987.76,-244 864.79,-221.08 838.14,-198.25 716.76,-168 664.75,-155.04 604.84,-142.18 563.09,-133.55"/>
<polygon fill="midnightblue" stroke="midnightblue" points="563.64,-130.09 553.14,-131.5 562.23,-136.95 563.64,-130.09"/>
</g>
<!-- Node36&#45;&gt;Node15 -->
<g id="edge62" class="edge">
<title>Node36&#45;&gt;Node15</title>
<path fill="none" stroke="midnightblue" d="M1508.88,-289.23C1595.52,-288.62 1770.61,-282.5 1815.76,-244 1838.66,-224.47 1834.76,-209.1 1834.76,-179 1834.76,-179 1834.76,-179 1834.76,-121 1834.76,-43.32 1557.91,-19.08 1458.1,-12.86"/>
<polygon fill="midnightblue" stroke="midnightblue" points="1458.1,-9.36 1447.91,-12.25 1457.69,-16.34 1458.1,-9.36"/>
</g>
<!-- Node36&#45;&gt;Node16 -->
<g id="edge64" class="edge">
<title>Node36&#45;&gt;Node16</title>
<path fill="none" stroke="midnightblue" d="M1490.43,-280.35C1510.05,-273.41 1534.73,-261.82 1550.76,-244 1571.36,-221.11 1574.76,-209.8 1574.76,-179 1574.76,-179 1574.76,-179 1574.76,-121 1574.76,-46.99 1310.75,-20.27 1217.73,-13.15"/>
<polygon fill="midnightblue" stroke="midnightblue" points="1217.74,-9.64 1207.51,-12.39 1217.22,-16.62 1217.74,-9.64"/>
</g>
<!-- Node36&#45;&gt;Node30 -->
<g id="edge68" class="edge">
<title>Node36&#45;&gt;Node30</title>
<path fill="none" stroke="midnightblue" d="M1410.42,-280.97C1351.78,-271.44 1253.86,-255.51 1190.06,-245.13"/>
<polygon fill="midnightblue" stroke="midnightblue" points="1190.55,-241.67 1180.12,-243.52 1189.43,-248.58 1190.55,-241.67"/>
</g>
<!-- Node36&#45;&gt;Node33 -->
<g id="edge71" class="edge">
<title>Node36&#45;&gt;Node33</title>
<path fill="none" stroke="midnightblue" d="M1448.77,-280.37C1439.31,-272.17 1426.33,-258.92 1420.76,-244 1414.82,-228.09 1422.1,-209.63 1429.67,-196.46"/>
<polygon fill="midnightblue" stroke="midnightblue" points="1432.68,-198.25 1435.05,-187.92 1426.76,-194.52 1432.68,-198.25"/>
</g>
<!-- Node37 -->
<g id="node37" class="node">
<title>Node37</title>
<g id="a_node37"><a xlink:title=" ">
<polygon fill="white" stroke="#bfbfbf" points="1463.26,-224.5 1463.26,-243.5 1508.26,-243.5 1508.26,-224.5 1463.26,-224.5"/>
<text text-anchor="middle" x="1485.76" y="-231.5" font-family="Helvetica" font-size="10.00">cstdlib</text>
</a>
</g>
</g>
<!-- Node36&#45;&gt;Node37 -->
<g id="edge65" class="edge">
<title>Node36&#45;&gt;Node37</title>
<path fill="none" stroke="midnightblue" d="M1464.05,-280.08C1467.61,-272.69 1472.78,-261.95 1477.19,-252.81"/>
<polygon fill="midnightblue" stroke="midnightblue" points="1480.36,-254.28 1481.55,-243.75 1474.06,-251.24 1480.36,-254.28"/>
</g>
<!-- Node38 -->
<g id="node38" class="node">
<title>Node38</title>
<g id="a_node38"><a xlink:title=" ">
<polygon fill="white" stroke="#bfbfbf" points="1602.76,-224.5 1602.76,-243.5 1652.76,-243.5 1652.76,-224.5 1602.76,-224.5"/>
<text text-anchor="middle" x="1627.76" y="-231.5" font-family="Helvetica" font-size="10.00">TTree.h</text>
</a>
</g>
</g>
<!-- Node36&#45;&gt;Node38 -->
<g id="edge69" class="edge">
<title>Node36&#45;&gt;Node38</title>
<path fill="none" stroke="midnightblue" d="M1486.38,-280.44C1515.18,-271.19 1561.23,-256.39 1592.9,-246.21"/>
<polygon fill="midnightblue" stroke="midnightblue" points="1594.19,-249.47 1602.64,-243.08 1592.05,-242.8 1594.19,-249.47"/>
</g>
<!-- Node39 -->
<g id="node39" class="node">
<title>Node39</title>
<g id="a_node39"><a xlink:title=" ">
<polygon fill="white" stroke="#bfbfbf" points="1670.76,-224.5 1670.76,-243.5 1732.76,-243.5 1732.76,-224.5 1670.76,-224.5"/>
<text text-anchor="middle" x="1701.76" y="-231.5" font-family="Helvetica" font-size="10.00">TBranch.h</text>
</a>
</g>
</g>
<!-- Node36&#45;&gt;Node39 -->
<g id="edge70" class="edge">
<title>Node36&#45;&gt;Node39</title>
<path fill="none" stroke="midnightblue" d="M1498.12,-280.48C1536.69,-271.91 1598.15,-258.23 1660.71,-244.23"/>
<polygon fill="midnightblue" stroke="midnightblue" points="1661.76,-247.58 1670.75,-241.98 1660.23,-240.75 1661.76,-247.58"/>
</g>
<!-- Node40 -->
<g id="node40" class="node">
<title>Node40</title>
<g id="a_node40"><a xlink:title=" ">
<polygon fill="white" stroke="#bfbfbf" points="1750.76,-224.5 1750.76,-243.5 1806.76,-243.5 1806.76,-224.5 1750.76,-224.5"/>
<text text-anchor="middle" x="1778.76" y="-231.5" font-family="Helvetica" font-size="10.00">TChain.h</text>
</a>
</g>
</g>
<!-- Node36&#45;&gt;Node40 -->
<g id="edge72" class="edge">
<title>Node36&#45;&gt;Node40</title>
<path fill="none" stroke="midnightblue" d="M1508.88,-282.38C1563.22,-274.79 1653.57,-261.36 1740.5,-244.12"/>
<polygon fill="midnightblue" stroke="midnightblue" points="1741.41,-247.51 1750.53,-242.11 1740.04,-240.65 1741.41,-247.51"/>
</g>
<!-- Node41 -->
<g id="node41" class="node">
<title>Node41</title>
<g id="a_node41"><a xlink:title=" ">
<polygon fill="white" stroke="#bfbfbf" points="1291.26,-224.5 1291.26,-243.5 1368.26,-243.5 1368.26,-224.5 1291.26,-224.5"/>
<text text-anchor="middle" x="1329.76" y="-231.5" font-family="Helvetica" font-size="10.00">TStopwatch.h</text>
</a>
</g>
</g>
<!-- Node36&#45;&gt;Node41 -->
<g id="edge73" class="edge">
<title>Node36&#45;&gt;Node41</title>
<path fill="none" stroke="midnightblue" d="M1439.16,-280.44C1417.77,-271.56 1384.08,-257.56 1359.74,-247.45"/>
<polygon fill="midnightblue" stroke="midnightblue" points="1360.84,-244.12 1350.26,-243.52 1358.16,-250.58 1360.84,-244.12"/>
</g>
</g>
</svg>
        <g id="navigator" transform="translate(0 0)" fill="#404254">
                <rect fill="#f2f5e9" fill-opacity="0.5" stroke="#606060" stroke-width=".5" x="0" y="0" width="60" height="60"/>
                <use id="zoomplus" xlink:href="#zoomPlus" x="17" y="9" onmousedown="handleZoom(evt,'in')"/>
                <use id="zoomminus" xlink:href="#zoomMin" x="42" y="9" onmousedown="handleZoom(evt,'out')"/>
                <use id="reset" xlink:href="#resetDef" x="30" y="36" onmousedown="handleReset()"/>
                <g id="arrowUp" xlink:href="#dirArrow" transform="translate(30 24)" onmousedown="handlePan(0,-1)">
                  <use xlink:href="#rim" fill="#404040">
                        <set attributeName="fill" to="#808080" begin="arrowUp.mouseover" end="arrowUp.mouseout"/>
                  </use>
                  <path fill="none" stroke="white" stroke-width="1.5" d="M0,-3.0v7 M-2.5,-0.5L0,-3.0L2.5,-0.5"/>
                </g>
                <g id="arrowRight" xlink:href="#dirArrow" transform="rotate(90) translate(36 -43)" onmousedown="handlePan(1,0)">
                  <use xlink:href="#rim" fill="#404040">
                        <set attributeName="fill" to="#808080" begin="arrowRight.mouseover" end="arrowRight.mouseout"/>
                  </use>
                  <path fill="none" stroke="white" stroke-width="1.5" d="M0,-3.0v7 M-2.5,-0.5L0,-3.0L2.5,-0.5"/>
                </g>
                <g id="arrowDown" xlink:href="#dirArrow" transform="rotate(180) translate(-30 -48)" onmousedown="handlePan(0,1)">
                  <use xlink:href="#rim" fill="#404040">
                        <set attributeName="fill" to="#808080" begin="arrowDown.mouseover" end="arrowDown.mouseout"/>
                  </use>
                  <path fill="none" stroke="white" stroke-width="1.5" d="M0,-3.0v7 M-2.5,-0.5L0,-3.0L2.5,-0.5"/>
                </g>
                <g id="arrowLeft" xlink:href="#dirArrow" transform="rotate(270) translate(-36 17)" onmousedown="handlePan(-1,0)">
                  <use xlink:href="#rim" fill="#404040">
                        <set attributeName="fill" to="#808080" begin="arrowLeft.mouseover" end="arrowLeft.mouseout"/>
                  </use>
                  <path fill="none" stroke="white" stroke-width="1.5" d="M0,-3.0v7 M-2.5,-0.5L0,-3.0L2.5,-0.5"/>
                </g>
        </g>
        <svg viewBox="0 0 15 15" width="100%" height="30px" preserveAspectRatio="xMaxYMin meet">
         <g id="arrow_out" transform="scale(0.3 0.3)">
          <a xlink:href="Manager_8h__incl_org.svg" target="_base">
           <rect id="button" ry="5" rx="5" y="6" x="6" height="38" width="38"
                fill="#f2f5e9" fill-opacity="0.5" stroke="#606060" stroke-width="1.0"/>
           <path id="arrow"
             d="M 11.500037,31.436501 C 11.940474,20.09759 22.043105,11.32322 32.158766,21.979434 L 37.068811,17.246167 C 37.068811,17.246167 37.088388,32 37.088388,32 L 22.160133,31.978069 C 22.160133,31.978069 26.997745,27.140456 26.997745,27.140456 C 18.528582,18.264221 13.291696,25.230495 11.500037,31.436501 z"
             style="fill:#404040;"/>
          </a>
         </g>
        </svg>
</svg>
