<?xml version="1.0" encoding="UTF-8" standalone="no"?>
<!DOCTYPE svg PUBLIC "-//W3C//DTD SVG 1.1//EN"
 "http://www.w3.org/Graphics/SVG/1.1/DTD/svg11.dtd">
<!-- Generated by graphviz version 2.43.0 (0)
 -->
<!-- Title: Fitters/MCMCProcessor.cpp Pages: 1 -->
<!--zoomable 313 -->
<svg id="main" version="1.1" xmlns="http://www.w3.org/2000/svg" xmlns:xlink="http://www.w3.org/1999/xlink" xml:space="preserve" onload="init(evt)">
<style type="text/css"><![CDATA[
.edge:hover path { stroke: red; }
.edge:hover polygon { stroke: red; fill: red; }
]]></style>
<script type="text/javascript"><![CDATA[
var edges = document.getElementsByTagName('g');
if (edges && edges.length) {
  for (var i=0;i<edges.length;i++) {
    if (edges[i].id.substr(0,4)=='edge') {
      edges[i].setAttribute('class','edge');
    }
  }
}
]]></script>
        <defs>
                <circle id="rim" cx="0" cy="0" r="7"/>
                <circle id="rim2" cx="0" cy="0" r="3.5"/>
                <g id="zoomPlus">
                        <use xlink:href="#rim" fill="#404040">
                                <set attributeName="fill" to="#808080" begin="zoomplus.mouseover" end="zoomplus.mouseout"/>
                        </use>
                        <path d="M-4,0h8M0,-4v8" fill="none" stroke="white" stroke-width="1.5" pointer-events="none"/>
                </g>
                <g id="zoomMin">
                        <use xlink:href="#rim" fill="#404040">
                                <set attributeName="fill" to="#808080" begin="zoomminus.mouseover" end="zoomminus.mouseout"/>
                        </use>
                        <path d="M-4,0h8" fill="none" stroke="white" stroke-width="1.5" pointer-events="none"/>
                </g>
                <g id="dirArrow">
                        <path fill="none" stroke="white" stroke-width="1.5" d="M0,-3.0v7 M-2.5,-0.5L0,-3.0L2.5,-0.5"/>
                </g>
               <g id="resetDef">
                       <use xlink:href="#rim2" fill="#404040">
                               <set attributeName="fill" to="#808080" begin="reset.mouseover" end="reset.mouseout"/>
                       </use>
               </g>
        </defs>

<script type="text/javascript">
var viewWidth = 2714;
var viewHeight = 313;
var sectionId = 'dynsection-0';
</script>
<script xlink:href="svgpan.js"/>
<svg id="graph" class="graph">
<g id="viewport">
<title>Fitters/MCMCProcessor.cpp</title>
<!-- Node1 -->
<g id="node1" class="node">
<title>Node1</title>
<g id="a_node1"><a xlink:title=" ">
<polygon fill="#999999" stroke="#666666" points="1651.11,-305 1502.11,-305 1502.11,-286 1651.11,-286 1651.11,-305"/>
<text text-anchor="middle" x="1576.61" y="-293" font-family="Helvetica,sans-Serif" font-size="10.00">Fitters/MCMCProcessor.cpp</text>
</a>
</g>
</g>
<!-- Node2 -->
<g id="node2" class="node">
<title>Node2</title>
<g id="a_node2"><a xlink:href="MCMCProcessor_8h.html" target="_top" xlink:title=" ">
<polygon fill="white" stroke="#666666" points="1628.61,-250 1524.61,-250 1524.61,-231 1628.61,-231 1628.61,-250"/>
<text text-anchor="middle" x="1576.61" y="-238" font-family="Helvetica,sans-Serif" font-size="10.00">MCMCProcessor.h</text>
</a>
</g>
</g>
<!-- Node1&#45;&gt;Node2 -->
<g id="edge1" class="edge">
<title>Node1&#45;&gt;Node2</title>
<path fill="none" stroke="#63b8ff" d="M1576.61,-285.75C1576.61,-278.8 1576.61,-268.85 1576.61,-260.13"/>
<polygon fill="#63b8ff" stroke="#63b8ff" points="1580.11,-260.09 1576.61,-250.09 1573.11,-260.09 1580.11,-260.09"/>
</g>
<!-- Node30 -->
<g id="node16" class="node">
<title>Node30</title>
<g id="a_node16"><a xlink:title=" ">
<polygon fill="#e0e0e0" stroke="#999999" points="1131.61,-19 1087.61,-19 1087.61,0 1131.61,0 1131.61,-19"/>
<text text-anchor="middle" x="1109.61" y="-7" font-family="Helvetica,sans-Serif" font-size="10.00">TF1.h</text>
</a>
</g>
</g>
<!-- Node1&#45;&gt;Node30 -->
<g id="edge71" class="edge">
<title>Node1&#45;&gt;Node30</title>
<path fill="none" stroke="#63b8ff" d="M1501.94,-293.5C1213.78,-289.09 183.91,-268.32 58.61,-195 28.39,-177.32 25.58,-162.56 15.61,-129 -28.63,19.94 13.25,-90.62 304.61,-55 603.44,-18.47 968.38,-11.91 1077.4,-10.75"/>
<polygon fill="#63b8ff" stroke="#63b8ff" points="1077.46,-14.25 1087.42,-10.65 1077.39,-7.25 1077.46,-14.25"/>
</g>
<!-- Node44 -->
<g id="node50" class="node">
<title>Node44</title>
<g id="a_node50"><a xlink:title=" ">
<polygon fill="#e0e0e0" stroke="#999999" points="1706.11,-250 1647.11,-250 1647.11,-231 1706.11,-231 1706.11,-250"/>
<text text-anchor="middle" x="1676.61" y="-238" font-family="Helvetica,sans-Serif" font-size="10.00">TChain.h</text>
</a>
</g>
</g>
<!-- Node1&#45;&gt;Node44 -->
<g id="edge70" class="edge">
<title>Node1&#45;&gt;Node44</title>
<path fill="none" stroke="#63b8ff" d="M1592.67,-285.98C1608.47,-277.61 1632.83,-264.7 1651.24,-254.95"/>
<polygon fill="#63b8ff" stroke="#63b8ff" points="1653.05,-257.95 1660.25,-250.17 1649.77,-251.76 1653.05,-257.95"/>
</g>
<!-- Node3 -->
<g id="node3" class="node">
<title>Node3</title>
<g id="a_node3"><a xlink:title=" ">
<polygon fill="#e0e0e0" stroke="#999999" points="2626.11,-189.5 2567.11,-189.5 2567.11,-170.5 2626.11,-170.5 2626.11,-189.5"/>
<text text-anchor="middle" x="2596.61" y="-177.5" font-family="Helvetica,sans-Serif" font-size="10.00">complex</text>
</a>
</g>
</g>
<!-- Node2&#45;&gt;Node3 -->
<g id="edge2" class="edge">
<title>Node2&#45;&gt;Node3</title>
<path fill="none" stroke="#63b8ff" d="M1628.66,-231.99C1632.02,-231.62 1635.36,-231.29 1638.61,-231 1842.2,-213.1 2356.98,-233.98 2557.61,-195 2560.62,-194.42 2563.71,-193.64 2566.76,-192.75"/>
<polygon fill="#63b8ff" stroke="#63b8ff" points="2567.89,-196.06 2576.29,-189.61 2565.7,-189.41 2567.89,-196.06"/>
</g>
<!-- Node4 -->
<g id="node4" class="node">
<title>Node4</title>
<g id="a_node4"><a xlink:title=" ">
<polygon fill="#e0e0e0" stroke="#999999" points="2690.61,-189.5 2644.61,-189.5 2644.61,-170.5 2690.61,-170.5 2690.61,-189.5"/>
<text text-anchor="middle" x="2667.61" y="-177.5" font-family="Helvetica,sans-Serif" font-size="10.00">cstdio</text>
</a>
</g>
</g>
<!-- Node2&#45;&gt;Node4 -->
<g id="edge3" class="edge">
<title>Node2&#45;&gt;Node4</title>
<path fill="none" stroke="#63b8ff" d="M1628.66,-231.98C1632.02,-231.61 1635.36,-231.28 1638.61,-231 1859.49,-211.92 2419.46,-244.3 2635.61,-195 2637.56,-194.55 2639.54,-193.99 2641.51,-193.35"/>
<polygon fill="#63b8ff" stroke="#63b8ff" points="2643.01,-196.52 2651.07,-189.64 2640.48,-189.99 2643.01,-196.52"/>
</g>
<!-- Node5 -->
<g id="node5" class="node">
<title>Node5</title>
<g id="a_node5"><a xlink:href="StatisticalUtils_8h.html" target="_top" xlink:title="Utility functions for statistical interpretations in MaCh3.">
<polygon fill="white" stroke="#666666" points="1689.11,-189.5 1558.11,-189.5 1558.11,-170.5 1689.11,-170.5 1689.11,-189.5"/>
<text text-anchor="middle" x="1623.61" y="-177.5" font-family="Helvetica,sans-Serif" font-size="10.00">Fitters/StatisticalUtils.h</text>
</a>
</g>
</g>
<!-- Node2&#45;&gt;Node5 -->
<g id="edge4" class="edge">
<title>Node2&#45;&gt;Node5</title>
<path fill="none" stroke="#63b8ff" d="M1583.54,-230.87C1590.55,-222.14 1601.57,-208.43 1610.28,-197.59"/>
<polygon fill="#63b8ff" stroke="#63b8ff" points="1613.11,-199.66 1616.64,-189.67 1607.65,-195.27 1613.11,-199.66"/>
</g>
<!-- Node29 -->
<g id="node15" class="node">
<title>Node29</title>
<g id="a_node15"><a xlink:title=" ">
<polygon fill="#e0e0e0" stroke="#999999" points="696.11,-19 647.11,-19 647.11,0 696.11,0 696.11,-19"/>
<text text-anchor="middle" x="671.61" y="-7" font-family="Helvetica,sans-Serif" font-size="10.00">TFile.h</text>
</a>
</g>
</g>
<!-- Node2&#45;&gt;Node29 -->
<g id="edge48" class="edge">
<title>Node2&#45;&gt;Node29</title>
<path fill="none" stroke="#63b8ff" d="M1524.24,-239.32C1264.43,-238.27 123.78,-231.57 58.61,-195 21.69,-174.28 -9.63,-143.99 15.61,-110 65.98,-42.15 114.68,-71.25 197.61,-55 359.71,-23.23 557.59,-13.94 636.6,-11.4"/>
<polygon fill="#63b8ff" stroke="#63b8ff" points="637.05,-14.89 646.94,-11.08 636.84,-7.89 637.05,-14.89"/>
</g>
<!-- Node46 -->
<g id="node17" class="node">
<title>Node46</title>
<g id="a_node17"><a xlink:href="HistogramUtils_8h.html" target="_top" xlink:title=" ">
<polygon fill="white" stroke="#666666" points="2443.61,-129 2299.61,-129 2299.61,-110 2443.61,-110 2443.61,-129"/>
<text text-anchor="middle" x="2371.61" y="-117" font-family="Helvetica,sans-Serif" font-size="10.00">Samples/HistogramUtils.h</text>
</a>
</g>
</g>
<!-- Node2&#45;&gt;Node46 -->
<g id="edge29" class="edge">
<title>Node2&#45;&gt;Node46</title>
<path fill="none" stroke="#63b8ff" d="M1628.66,-231.97C1632.02,-231.61 1635.36,-231.28 1638.61,-231 1697.37,-225.99 2658.62,-237.41 2699.61,-195 2708.87,-185.41 2708.38,-175.04 2699.61,-165 2668.33,-129.2 2540.48,-121.08 2453.95,-119.83"/>
<polygon fill="#63b8ff" stroke="#63b8ff" points="2453.92,-116.33 2443.87,-119.71 2453.83,-123.32 2453.92,-116.33"/>
</g>
<!-- Node49 -->
<g id="node20" class="node">
<title>Node49</title>
<g id="a_node20"><a xlink:title=" ">
<polygon fill="#e0e0e0" stroke="#999999" points="391.61,-74 313.61,-74 313.61,-55 391.61,-55 391.61,-74"/>
<text text-anchor="middle" x="352.61" y="-62" font-family="Helvetica,sans-Serif" font-size="10.00">TRandom3.h</text>
</a>
</g>
</g>
<!-- Node2&#45;&gt;Node49 -->
<g id="edge64" class="edge">
<title>Node2&#45;&gt;Node49</title>
<path fill="none" stroke="#63b8ff" d="M1524.29,-238.63C1322.99,-235.11 598.41,-220.89 369.61,-195 214.05,-177.4 123.4,-249.62 23.61,-129 18.23,-122.49 18.05,-116.36 23.61,-110 41.72,-89.28 215.92,-74.71 303.23,-68.64"/>
<polygon fill="#63b8ff" stroke="#63b8ff" points="303.69,-72.12 313.43,-67.95 303.22,-65.14 303.69,-72.12"/>
</g>
<!-- Node50 -->
<g id="node21" class="node">
<title>Node50</title>
<g id="a_node21"><a xlink:title=" ">
<polygon fill="#e0e0e0" stroke="#999999" points="1487.11,-129 1420.11,-129 1420.11,-110 1487.11,-110 1487.11,-129"/>
<text text-anchor="middle" x="1453.61" y="-117" font-family="Helvetica,sans-Serif" font-size="10.00">TCanvas.h</text>
</a>
</g>
</g>
<!-- Node2&#45;&gt;Node50 -->
<g id="edge50" class="edge">
<title>Node2&#45;&gt;Node50</title>
<path fill="none" stroke="#63b8ff" d="M1555.15,-230.87C1538.3,-223.3 1515.01,-211 1498.61,-195 1481.93,-178.73 1469.01,-155.03 1461.38,-138.75"/>
<polygon fill="#63b8ff" stroke="#63b8ff" points="1464.42,-136.98 1457.14,-129.28 1458.03,-139.84 1464.42,-136.98"/>
</g>
<!-- Node51 -->
<g id="node22" class="node">
<title>Node51</title>
<g id="a_node22"><a xlink:title=" ">
<polygon fill="#e0e0e0" stroke="#999999" points="1557.61,-129 1505.61,-129 1505.61,-110 1557.61,-110 1557.61,-129"/>
<text text-anchor="middle" x="1531.61" y="-117" font-family="Helvetica,sans-Serif" font-size="10.00">TLine.h</text>
</a>
</g>
</g>
<!-- Node2&#45;&gt;Node51 -->
<g id="edge51" class="edge">
<title>Node2&#45;&gt;Node51</title>
<path fill="none" stroke="#63b8ff" d="M1551.8,-230.95C1535.77,-223.99 1516.17,-212.42 1506.61,-195 1496.4,-176.41 1507.81,-152.92 1518.35,-137.34"/>
<polygon fill="#63b8ff" stroke="#63b8ff" points="1521.23,-139.32 1524.28,-129.18 1515.57,-135.21 1521.23,-139.32"/>
</g>
<!-- Node52 -->
<g id="node23" class="node">
<title>Node52</title>
<g id="a_node23"><a xlink:title=" ">
<polygon fill="#e0e0e0" stroke="#999999" points="1635.11,-129 1576.11,-129 1576.11,-110 1635.11,-110 1635.11,-129"/>
<text text-anchor="middle" x="1605.61" y="-117" font-family="Helvetica,sans-Serif" font-size="10.00">TROOT.h</text>
</a>
</g>
</g>
<!-- Node2&#45;&gt;Node52 -->
<g id="edge62" class="edge">
<title>Node2&#45;&gt;Node52</title>
<path fill="none" stroke="#63b8ff" d="M1556.41,-230.91C1542.14,-223.64 1524.1,-211.71 1515.61,-195 1509.57,-183.11 1508.57,-176.33 1515.61,-165 1526.73,-147.1 1547.42,-136.18 1566.17,-129.64"/>
<polygon fill="#63b8ff" stroke="#63b8ff" points="1567.26,-132.97 1575.73,-126.61 1565.14,-126.29 1567.26,-132.97"/>
</g>
<!-- Node53 -->
<g id="node24" class="node">
<title>Node53</title>
<g id="a_node24"><a xlink:title=" ">
<polygon fill="#e0e0e0" stroke="#999999" points="1709.61,-129 1653.61,-129 1653.61,-110 1709.61,-110 1709.61,-129"/>
<text text-anchor="middle" x="1681.61" y="-117" font-family="Helvetica,sans-Serif" font-size="10.00">TStyle.h</text>
</a>
</g>
</g>
<!-- Node2&#45;&gt;Node53 -->
<g id="edge57" class="edge">
<title>Node2&#45;&gt;Node53</title>
<path fill="none" stroke="#63b8ff" d="M1568.71,-230.97C1556.15,-216.34 1534.52,-186.01 1549.61,-165 1555.31,-157.05 1606.53,-141.38 1643.45,-130.92"/>
<polygon fill="#63b8ff" stroke="#63b8ff" points="1644.76,-134.19 1653.44,-128.11 1642.86,-127.45 1644.76,-134.19"/>
</g>
<!-- Node54 -->
<g id="node25" class="node">
<title>Node54</title>
<g id="a_node25"><a xlink:href="ParameterHandlerUtils_8h.html" target="_top" xlink:title=" ">
<polygon fill="#fff0f0" stroke="red" points="841.61,-195 677.61,-195 677.61,-165 841.61,-165 841.61,-195"/>
<text text-anchor="start" x="685.61" y="-183" font-family="Helvetica,sans-Serif" font-size="10.00">Parameters/ParameterHandler</text>
<text text-anchor="middle" x="759.61" y="-172" font-family="Helvetica,sans-Serif" font-size="10.00">Utils.h</text>
</a>
</g>
</g>
<!-- Node2&#45;&gt;Node54 -->
<g id="edge30" class="edge">
<title>Node2&#45;&gt;Node54</title>
<path fill="none" stroke="#63b8ff" d="M1524.57,-235.77C1389.05,-226.07 1023.83,-199.92 851.72,-187.6"/>
<polygon fill="#63b8ff" stroke="#63b8ff" points="851.89,-184.1 841.66,-186.88 851.39,-191.08 851.89,-184.1"/>
</g>
<!-- Node58 -->
<g id="node29" class="node">
<title>Node58</title>
<g id="a_node29"><a xlink:title=" ">
<polygon fill="#e0e0e0" stroke="#999999" points="102.61,-129 32.61,-129 32.61,-110 102.61,-110 102.61,-129"/>
<text text-anchor="middle" x="67.61" y="-117" font-family="Helvetica,sans-Serif" font-size="10.00">TVectorD.h</text>
</a>
</g>
</g>
<!-- Node2&#45;&gt;Node58 -->
<g id="edge55" class="edge">
<title>Node2&#45;&gt;Node58</title>
<path fill="none" stroke="#63b8ff" d="M1524.57,-238.23C1385.48,-234.54 993.57,-222.36 668.61,-195 422.4,-174.27 361.08,-164.79 116.61,-129 115.33,-128.81 114.04,-128.62 112.74,-128.42"/>
<polygon fill="#63b8ff" stroke="#63b8ff" points="113.06,-124.93 102.64,-126.81 111.96,-131.84 113.06,-124.93"/>
</g>
<!-- Node42 -->
<g id="node32" class="node">
<title>Node42</title>
<g id="a_node32"><a xlink:title=" ">
<polygon fill="#e0e0e0" stroke="#999999" points="1022.61,-129 970.61,-129 970.61,-110 1022.61,-110 1022.61,-129"/>
<text text-anchor="middle" x="996.61" y="-117" font-family="Helvetica,sans-Serif" font-size="10.00">TTree.h</text>
</a>
</g>
</g>
<!-- Node2&#45;&gt;Node42 -->
<g id="edge61" class="edge">
<title>Node2&#45;&gt;Node42</title>
<path fill="none" stroke="#63b8ff" d="M1524.35,-238.46C1446.83,-235.86 1297.31,-226.76 1174.61,-195 1117.93,-180.33 1055.69,-150.97 1021.89,-133.82"/>
<polygon fill="#63b8ff" stroke="#63b8ff" points="1023.24,-130.57 1012.75,-129.12 1020.04,-136.8 1023.24,-130.57"/>
</g>
<!-- Node61 -->
<g id="node33" class="node">
<title>Node61</title>
<g id="a_node33"><a xlink:title=" ">
<polygon fill="#e0e0e0" stroke="#999999" points="1096.61,-129 1040.61,-129 1040.61,-110 1096.61,-110 1096.61,-129"/>
<text text-anchor="middle" x="1068.61" y="-117" font-family="Helvetica,sans-Serif" font-size="10.00">TMath.h</text>
</a>
</g>
</g>
<!-- Node2&#45;&gt;Node61 -->
<g id="edge67" class="edge">
<title>Node2&#45;&gt;Node61</title>
<path fill="none" stroke="#63b8ff" d="M1524.37,-235.49C1462.2,-229.92 1355.61,-217.84 1266.61,-195 1204.23,-178.99 1134.42,-149.97 1096.62,-133.26"/>
<polygon fill="#63b8ff" stroke="#63b8ff" points="1097.84,-129.97 1087.28,-129.1 1094.99,-136.37 1097.84,-129.97"/>
</g>
<!-- Node45 -->
<g id="node35" class="node">
<title>Node45</title>
<g id="a_node35"><a xlink:title=" ">
<polygon fill="#e0e0e0" stroke="#999999" points="1198.11,-129 1115.11,-129 1115.11,-110 1198.11,-110 1198.11,-129"/>
<text text-anchor="middle" x="1156.61" y="-117" font-family="Helvetica,sans-Serif" font-size="10.00">TStopwatch.h</text>
</a>
</g>
</g>
<!-- Node2&#45;&gt;Node45 -->
<g id="edge58" class="edge">
<title>Node2&#45;&gt;Node45</title>
<path fill="none" stroke="#63b8ff" d="M1524.59,-231C1480.52,-223.27 1415.86,-210.69 1360.61,-195 1297.24,-177.01 1225.36,-148.88 1186.09,-132.83"/>
<polygon fill="#63b8ff" stroke="#63b8ff" points="1187.42,-129.59 1176.84,-129.02 1184.76,-136.06 1187.42,-129.59"/>
</g>
<!-- Node64 -->
<g id="node37" class="node">
<title>Node64</title>
<g id="a_node37"><a xlink:title=" ">
<polygon fill="#e0e0e0" stroke="#999999" points="1335.11,-129 1216.11,-129 1216.11,-110 1335.11,-110 1335.11,-129"/>
<text text-anchor="middle" x="1275.61" y="-117" font-family="Helvetica,sans-Serif" font-size="10.00">TMatrixDSymEigen.h</text>
</a>
</g>
</g>
<!-- Node2&#45;&gt;Node64 -->
<g id="edge68" class="edge">
<title>Node2&#45;&gt;Node64</title>
<path fill="none" stroke="#63b8ff" d="M1542.34,-231C1511.78,-223.01 1466.07,-210.05 1427.61,-195 1381.18,-176.83 1329.54,-150.03 1299.98,-134.01"/>
<polygon fill="#63b8ff" stroke="#63b8ff" points="1301.65,-130.94 1291.19,-129.22 1298.29,-137.08 1301.65,-130.94"/>
</g>
<!-- Node67 -->
<g id="node39" class="node">
<title>Node67</title>
<g id="a_node39"><a xlink:title=" ">
<polygon fill="#e0e0e0" stroke="#999999" points="1401.61,-129 1353.61,-129 1353.61,-110 1401.61,-110 1401.61,-129"/>
<text text-anchor="middle" x="1377.61" y="-117" font-family="Helvetica,sans-Serif" font-size="10.00">TKey.h</text>
</a>
</g>
</g>
<!-- Node2&#45;&gt;Node67 -->
<g id="edge63" class="edge">
<title>Node2&#45;&gt;Node67</title>
<path fill="none" stroke="#63b8ff" d="M1551.08,-230.88C1529.23,-223 1497.32,-210.26 1471.61,-195 1442.52,-177.74 1412.5,-152.39 1394.45,-136.17"/>
<polygon fill="#63b8ff" stroke="#63b8ff" points="1396.35,-133.16 1386.6,-129.01 1391.63,-138.34 1396.35,-133.16"/>
</g>
<!-- Node43 -->
<g id="node40" class="node">
<title>Node43</title>
<g id="a_node40"><a xlink:title=" ">
<polygon fill="#e0e0e0" stroke="#999999" points="1772.11,-189.5 1707.11,-189.5 1707.11,-170.5 1772.11,-170.5 1772.11,-189.5"/>
<text text-anchor="middle" x="1739.61" y="-177.5" font-family="Helvetica,sans-Serif" font-size="10.00">TBranch.h</text>
</a>
</g>
</g>
<!-- Node2&#45;&gt;Node43 -->
<g id="edge49" class="edge">
<title>Node2&#45;&gt;Node43</title>
<path fill="none" stroke="#63b8ff" d="M1600.31,-230.99C1628.2,-220.99 1674.68,-204.3 1706.21,-192.99"/>
<polygon fill="#63b8ff" stroke="#63b8ff" points="1707.65,-196.19 1715.88,-189.52 1705.28,-189.6 1707.65,-196.19"/>
</g>
<!-- Node68 -->
<g id="node41" class="node">
<title>Node68</title>
<g id="a_node41"><a xlink:title=" ">
<polygon fill="#e0e0e0" stroke="#999999" points="1857.11,-189.5 1790.11,-189.5 1790.11,-170.5 1857.11,-170.5 1857.11,-189.5"/>
<text text-anchor="middle" x="1823.61" y="-177.5" font-family="Helvetica,sans-Serif" font-size="10.00">TLegend.h</text>
</a>
</g>
</g>
<!-- Node2&#45;&gt;Node68 -->
<g id="edge52" class="edge">
<title>Node2&#45;&gt;Node68</title>
<path fill="none" stroke="#63b8ff" d="M1622.96,-230.92C1664.73,-222.84 1727.7,-209.79 1781.61,-195 1784.23,-194.28 1786.92,-193.49 1789.63,-192.67"/>
<polygon fill="#63b8ff" stroke="#63b8ff" points="1790.84,-195.96 1799.31,-189.59 1788.72,-189.29 1790.84,-195.96"/>
</g>
<!-- Node69 -->
<g id="node42" class="node">
<title>Node69</title>
<g id="a_node42"><a xlink:title=" ">
<polygon fill="#e0e0e0" stroke="#999999" points="1935.61,-189.5 1875.61,-189.5 1875.61,-170.5 1935.61,-170.5 1935.61,-189.5"/>
<text text-anchor="middle" x="1905.61" y="-177.5" font-family="Helvetica,sans-Serif" font-size="10.00">TString.h</text>
</a>
</g>
</g>
<!-- Node2&#45;&gt;Node69 -->
<g id="edge53" class="edge">
<title>Node2&#45;&gt;Node69</title>
<path fill="none" stroke="#63b8ff" d="M1628.71,-232.06C1705.91,-220.95 1844.05,-200.72 1866.61,-195 1869.11,-194.37 1871.68,-193.63 1874.24,-192.84"/>
<polygon fill="#63b8ff" stroke="#63b8ff" points="1875.59,-196.08 1883.97,-189.6 1873.38,-189.44 1875.59,-196.08"/>
</g>
<!-- Node70 -->
<g id="node43" class="node">
<title>Node70</title>
<g id="a_node43"><a xlink:title=" ">
<polygon fill="#e0e0e0" stroke="#999999" points="2043.11,-189.5 1954.11,-189.5 1954.11,-170.5 2043.11,-170.5 2043.11,-189.5"/>
<text text-anchor="middle" x="1998.61" y="-177.5" font-family="Helvetica,sans-Serif" font-size="10.00">TGraphErrors.h</text>
</a>
</g>
</g>
<!-- Node2&#45;&gt;Node70 -->
<g id="edge54" class="edge">
<title>Node2&#45;&gt;Node70</title>
<path fill="none" stroke="#63b8ff" d="M1628.69,-232.29C1632.05,-231.84 1635.37,-231.41 1638.61,-231 1774.45,-213.7 1810.02,-220.24 1944.61,-195 1949.3,-194.12 1954.18,-193.06 1959.02,-191.92"/>
<polygon fill="#63b8ff" stroke="#63b8ff" points="1959.91,-195.31 1968.78,-189.51 1958.23,-188.51 1959.91,-195.31"/>
</g>
<!-- Node71 -->
<g id="node44" class="node">
<title>Node71</title>
<g id="a_node44"><a xlink:title=" ">
<polygon fill="#e0e0e0" stroke="#999999" points="2116.61,-189.5 2060.61,-189.5 2060.61,-170.5 2116.61,-170.5 2116.61,-189.5"/>
<text text-anchor="middle" x="2088.61" y="-177.5" font-family="Helvetica,sans-Serif" font-size="10.00">TColor.h</text>
</a>
</g>
</g>
<!-- Node2&#45;&gt;Node71 -->
<g id="edge56" class="edge">
<title>Node2&#45;&gt;Node71</title>
<path fill="none" stroke="#63b8ff" d="M1628.68,-232.17C1632.04,-231.76 1635.37,-231.36 1638.61,-231 1822.16,-210.45 1872.73,-236.89 2052.61,-195 2054.98,-194.45 2057.4,-193.77 2059.81,-193.02"/>
<polygon fill="#63b8ff" stroke="#63b8ff" points="2061.24,-196.22 2069.5,-189.59 2058.9,-189.62 2061.24,-196.22"/>
</g>
<!-- Node72 -->
<g id="node45" class="node">
<title>Node72</title>
<g id="a_node45"><a xlink:title=" ">
<polygon fill="#e0e0e0" stroke="#999999" points="2186.61,-189.5 2134.61,-189.5 2134.61,-170.5 2186.61,-170.5 2186.61,-189.5"/>
<text text-anchor="middle" x="2160.61" y="-177.5" font-family="Helvetica,sans-Serif" font-size="10.00">TText.h</text>
</a>
</g>
</g>
<!-- Node2&#45;&gt;Node72 -->
<g id="edge59" class="edge">
<title>Node2&#45;&gt;Node72</title>
<path fill="none" stroke="#63b8ff" d="M1628.67,-232.12C1632.03,-231.72 1635.37,-231.34 1638.61,-231 1854.45,-208.25 1914.15,-243.88 2125.61,-195 2127.92,-194.47 2130.28,-193.8 2132.63,-193.05"/>
<polygon fill="#63b8ff" stroke="#63b8ff" points="2133.84,-196.34 2142.06,-189.64 2131.46,-189.75 2133.84,-196.34"/>
</g>
<!-- Node73 -->
<g id="node46" class="node">
<title>Node73</title>
<g id="a_node46"><a xlink:title=" ">
<polygon fill="#e0e0e0" stroke="#999999" points="2264.11,-189.5 2205.11,-189.5 2205.11,-170.5 2264.11,-170.5 2264.11,-189.5"/>
<text text-anchor="middle" x="2234.61" y="-177.5" font-family="Helvetica,sans-Serif" font-size="10.00">TGaxis.h</text>
</a>
</g>
</g>
<!-- Node2&#45;&gt;Node73 -->
<g id="edge60" class="edge">
<title>Node2&#45;&gt;Node73</title>
<path fill="none" stroke="#63b8ff" d="M1628.67,-232.09C1632.03,-231.69 1635.36,-231.33 1638.61,-231 1885.43,-206.14 1952.71,-245.4 2195.61,-195 2198.61,-194.38 2201.69,-193.57 2204.75,-192.67"/>
<polygon fill="#63b8ff" stroke="#63b8ff" points="2205.88,-195.98 2214.27,-189.51 2203.68,-189.33 2205.88,-195.98"/>
</g>
<!-- Node74 -->
<g id="node47" class="node">
<title>Node74</title>
<g id="a_node47"><a xlink:title=" ">
<polygon fill="#e0e0e0" stroke="#999999" points="2367.11,-189.5 2282.11,-189.5 2282.11,-170.5 2367.11,-170.5 2367.11,-189.5"/>
<text text-anchor="middle" x="2324.61" y="-177.5" font-family="Helvetica,sans-Serif" font-size="10.00">TGraphPolar.h</text>
</a>
</g>
</g>
<!-- Node2&#45;&gt;Node74 -->
<g id="edge65" class="edge">
<title>Node2&#45;&gt;Node74</title>
<path fill="none" stroke="#63b8ff" d="M1628.67,-232.06C1632.03,-231.67 1635.36,-231.31 1638.61,-231 1919.97,-203.78 1994.65,-240.67 2273.61,-195 2278.17,-194.25 2282.9,-193.26 2287.57,-192.15"/>
<polygon fill="#63b8ff" stroke="#63b8ff" points="2288.77,-195.45 2297.58,-189.56 2287.02,-188.67 2288.77,-195.45"/>
</g>
<!-- Node75 -->
<g id="node48" class="node">
<title>Node75</title>
<g id="a_node48"><a xlink:title=" ">
<polygon fill="#e0e0e0" stroke="#999999" points="2450.11,-189.5 2385.11,-189.5 2385.11,-170.5 2450.11,-170.5 2450.11,-189.5"/>
<text text-anchor="middle" x="2417.61" y="-177.5" font-family="Helvetica,sans-Serif" font-size="10.00">TCandle.h</text>
</a>
</g>
</g>
<!-- Node2&#45;&gt;Node75 -->
<g id="edge66" class="edge">
<title>Node2&#45;&gt;Node75</title>
<path fill="none" stroke="#63b8ff" d="M1628.66,-232.03C1632.03,-231.65 1635.36,-231.3 1638.61,-231 1965.59,-200.67 2054.06,-256.66 2376.61,-195 2379.86,-194.38 2383.2,-193.56 2386.51,-192.62"/>
<polygon fill="#63b8ff" stroke="#63b8ff" points="2387.72,-195.91 2396.21,-189.57 2385.62,-189.23 2387.72,-195.91"/>
</g>
<!-- Node76 -->
<g id="node49" class="node">
<title>Node76</title>
<g id="a_node49"><a xlink:title=" ">
<polygon fill="#e0e0e0" stroke="#999999" points="2548.61,-189.5 2468.61,-189.5 2468.61,-170.5 2548.61,-170.5 2548.61,-189.5"/>
<text text-anchor="middle" x="2508.61" y="-177.5" font-family="Helvetica,sans-Serif" font-size="10.00">TVirtualFFT.h</text>
</a>
</g>
</g>
<!-- Node2&#45;&gt;Node76 -->
<g id="edge69" class="edge">
<title>Node2&#45;&gt;Node76</title>
<path fill="none" stroke="#63b8ff" d="M1628.66,-232.01C1632.02,-231.63 1635.36,-231.29 1638.61,-231 2002.37,-198.16 2099.1,-253.57 2459.61,-195 2464.05,-194.28 2468.66,-193.29 2473.2,-192.17"/>
<polygon fill="#63b8ff" stroke="#63b8ff" points="2474.17,-195.53 2482.93,-189.56 2472.36,-188.77 2474.17,-195.53"/>
</g>
<!-- Node6 -->
<g id="node6" class="node">
<title>Node6</title>
<g id="a_node6"><a xlink:title=" ">
<polygon fill="#e0e0e0" stroke="#999999" points="1919.61,-129 1859.61,-129 1859.61,-110 1919.61,-110 1919.61,-129"/>
<text text-anchor="middle" x="1889.61" y="-117" font-family="Helvetica,sans-Serif" font-size="10.00">iostream</text>
</a>
</g>
</g>
<!-- Node5&#45;&gt;Node6 -->
<g id="edge5" class="edge">
<title>Node5&#45;&gt;Node6</title>
<path fill="none" stroke="#63b8ff" d="M1662.29,-170.49C1712.3,-159.49 1798.97,-140.43 1849.62,-129.3"/>
<polygon fill="#63b8ff" stroke="#63b8ff" points="1850.53,-132.68 1859.55,-127.11 1849.03,-125.84 1850.53,-132.68"/>
</g>
<!-- Node7 -->
<g id="node7" class="node">
<title>Node7</title>
<g id="a_node7"><a xlink:title=" ">
<polygon fill="#e0e0e0" stroke="#999999" points="1993.61,-129 1937.61,-129 1937.61,-110 1993.61,-110 1993.61,-129"/>
<text text-anchor="middle" x="1965.61" y="-117" font-family="Helvetica,sans-Serif" font-size="10.00">sstream</text>
</a>
</g>
</g>
<!-- Node5&#45;&gt;Node7 -->
<g id="edge6" class="edge">
<title>Node5&#45;&gt;Node7</title>
<path fill="none" stroke="#63b8ff" d="M1667.99,-170.49C1678.05,-168.63 1688.69,-166.7 1698.61,-165 1797.4,-148.05 1825.29,-148.55 1927.26,-129.14"/>
<polygon fill="#63b8ff" stroke="#63b8ff" points="1928.21,-132.53 1937.37,-127.2 1926.89,-125.65 1928.21,-132.53"/>
</g>
<!-- Node8 -->
<g id="node8" class="node">
<title>Node8</title>
<g id="a_node8"><a xlink:title=" ">
<polygon fill="#e0e0e0" stroke="#999999" points="2067.61,-129 2011.61,-129 2011.61,-110 2067.61,-110 2067.61,-129"/>
<text text-anchor="middle" x="2039.61" y="-117" font-family="Helvetica,sans-Serif" font-size="10.00">iomanip</text>
</a>
</g>
</g>
<!-- Node5&#45;&gt;Node8 -->
<g id="edge7" class="edge">
<title>Node5&#45;&gt;Node8</title>
<path fill="none" stroke="#63b8ff" d="M1666.75,-170.44C1677.16,-168.51 1688.26,-166.58 1698.61,-165 1829.96,-144.99 1866.84,-151.92 2001.52,-129.01"/>
<polygon fill="#63b8ff" stroke="#63b8ff" points="2002.13,-132.46 2011.39,-127.31 2000.94,-125.56 2002.13,-132.46"/>
</g>
<!-- Node9 -->
<g id="node9" class="node">
<title>Node9</title>
<g id="a_node9"><a xlink:title=" ">
<polygon fill="#e0e0e0" stroke="#999999" points="2133.11,-129 2086.11,-129 2086.11,-110 2133.11,-110 2133.11,-129"/>
<text text-anchor="middle" x="2109.61" y="-117" font-family="Helvetica,sans-Serif" font-size="10.00">vector</text>
</a>
</g>
</g>
<!-- Node5&#45;&gt;Node9 -->
<g id="edge8" class="edge">
<title>Node5&#45;&gt;Node9</title>
<path fill="none" stroke="#63b8ff" d="M1665.55,-170.49C1676.29,-168.49 1687.85,-166.51 1698.61,-165 1862.54,-141.94 1908.64,-157.52 2076.02,-128.8"/>
<polygon fill="#63b8ff" stroke="#63b8ff" points="2076.66,-132.24 2085.91,-127.08 2075.46,-125.35 2076.66,-132.24"/>
</g>
<!-- Node10 -->
<g id="node10" class="node">
<title>Node10</title>
<g id="a_node10"><a xlink:title=" ">
<polygon fill="#e0e0e0" stroke="#999999" points="2215.61,-129 2151.61,-129 2151.61,-110 2215.61,-110 2215.61,-129"/>
<text text-anchor="middle" x="2183.61" y="-117" font-family="Helvetica,sans-Serif" font-size="10.00">algorithm</text>
</a>
</g>
</g>
<!-- Node5&#45;&gt;Node10 -->
<g id="edge9" class="edge">
<title>Node5&#45;&gt;Node10</title>
<path fill="none" stroke="#63b8ff" d="M1665.14,-170.45C1676,-168.44 1687.71,-166.45 1698.61,-165 1891.59,-139.24 1944.88,-156.55 2141.37,-128.99"/>
<polygon fill="#63b8ff" stroke="#63b8ff" points="2142.04,-132.43 2151.45,-127.56 2141.05,-125.5 2142.04,-132.43"/>
</g>
<!-- Node11 -->
<g id="node11" class="node">
<title>Node11</title>
<g id="a_node11"><a xlink:title=" ">
<polygon fill="#e0e0e0" stroke="#999999" points="2281.11,-129 2234.11,-129 2234.11,-110 2281.11,-110 2281.11,-129"/>
<text text-anchor="middle" x="2257.61" y="-117" font-family="Helvetica,sans-Serif" font-size="10.00">cmath</text>
</a>
</g>
</g>
<!-- Node5&#45;&gt;Node11 -->
<g id="edge10" class="edge">
<title>Node5&#45;&gt;Node11</title>
<path fill="none" stroke="#63b8ff" d="M1664.73,-170.43C1675.7,-168.39 1687.57,-166.4 1698.61,-165 1927.77,-135.87 1991.49,-165.52 2223.81,-128.78"/>
<polygon fill="#63b8ff" stroke="#63b8ff" points="2224.61,-132.2 2233.92,-127.16 2223.5,-125.29 2224.61,-132.2"/>
</g>
<!-- Node12 -->
<g id="node12" class="node">
<title>Node12</title>
<g id="a_node12"><a xlink:href="Manager_8h.html" target="_top" xlink:title=" ">
<polygon fill="#fff0f0" stroke="red" points="1841.11,-129 1728.11,-129 1728.11,-110 1841.11,-110 1841.11,-129"/>
<text text-anchor="middle" x="1784.61" y="-117" font-family="Helvetica,sans-Serif" font-size="10.00">Manager/Manager.h</text>
</a>
</g>
</g>
<!-- Node5&#45;&gt;Node12 -->
<g id="edge11" class="edge">
<title>Node5&#45;&gt;Node12</title>
<path fill="none" stroke="#63b8ff" d="M1647.02,-170.49C1674.56,-160.49 1720.48,-143.8 1751.62,-132.49"/>
<polygon fill="#63b8ff" stroke="#63b8ff" points="1752.97,-135.72 1761.17,-129.02 1750.57,-129.14 1752.97,-135.72"/>
</g>
<!-- Node5&#45;&gt;Node46 -->
<g id="edge16" class="edge">
<title>Node5&#45;&gt;Node46</title>
<path fill="none" stroke="#63b8ff" d="M1664.34,-170.45C1675.41,-168.38 1687.43,-166.38 1698.61,-165 1956.9,-133.16 2026.16,-150.31 2288.96,-129.09"/>
<polygon fill="#63b8ff" stroke="#63b8ff" points="2289.52,-132.56 2299.2,-128.26 2288.95,-125.58 2289.52,-132.56"/>
</g>
<!-- Node5&#45;&gt;Node50 -->
<g id="edge25" class="edge">
<title>Node5&#45;&gt;Node50</title>
<path fill="none" stroke="#63b8ff" d="M1598.89,-170.49C1569.68,-160.44 1520.9,-143.66 1488.01,-132.34"/>
<polygon fill="#63b8ff" stroke="#63b8ff" points="1488.95,-128.96 1478.36,-129.02 1486.67,-135.58 1488.95,-128.96"/>
</g>
<!-- Node5&#45;&gt;Node51 -->
<g id="edge26" class="edge">
<title>Node5&#45;&gt;Node51</title>
<path fill="none" stroke="#63b8ff" d="M1610.03,-170.37C1595.22,-160.95 1571.28,-145.73 1553.74,-134.58"/>
<polygon fill="#63b8ff" stroke="#63b8ff" points="1555.55,-131.58 1545.24,-129.17 1551.8,-137.49 1555.55,-131.58"/>
</g>
<!-- Node5&#45;&gt;Node52 -->
<g id="edge27" class="edge">
<title>Node5&#45;&gt;Node52</title>
<path fill="none" stroke="#63b8ff" d="M1620.95,-170.37C1618.43,-162.16 1614.54,-149.54 1611.32,-139.05"/>
<polygon fill="#63b8ff" stroke="#63b8ff" points="1614.56,-137.7 1608.27,-129.17 1607.87,-139.75 1614.56,-137.7"/>
</g>
<!-- Node5&#45;&gt;Node53 -->
<g id="edge28" class="edge">
<title>Node5&#45;&gt;Node53</title>
<path fill="none" stroke="#63b8ff" d="M1632.17,-170.37C1640.99,-161.47 1654.95,-147.39 1665.79,-136.45"/>
<polygon fill="#63b8ff" stroke="#63b8ff" points="1668.46,-138.73 1673.01,-129.17 1663.49,-133.8 1668.46,-138.73"/>
</g>
<!-- Node13 -->
<g id="node13" class="node">
<title>Node13</title>
<g id="a_node13"><a xlink:href="SampleStructs_8h.html" target="_top" xlink:title=" ">
<polygon fill="#fff0f0" stroke="red" points="1687.11,-74 1546.11,-74 1546.11,-55 1687.11,-55 1687.11,-74"/>
<text text-anchor="middle" x="1616.61" y="-62" font-family="Helvetica,sans-Serif" font-size="10.00">Samples/SampleStructs.h</text>
</a>
</g>
</g>
<!-- Node12&#45;&gt;Node13 -->
<g id="edge12" class="edge">
<title>Node12&#45;&gt;Node13</title>
<path fill="none" stroke="#63b8ff" d="M1757.62,-109.98C1729.41,-101.09 1684.97,-87.07 1653.53,-77.15"/>
<polygon fill="#63b8ff" stroke="#63b8ff" points="1654.4,-73.75 1643.81,-74.08 1652.3,-80.43 1654.4,-73.75"/>
</g>
<!-- Node28 -->
<g id="node14" class="node">
<title>Node28</title>
<g id="a_node14"><a xlink:title=" ">
<polygon fill="#e0e0e0" stroke="#999999" points="1655.11,-19 1578.11,-19 1578.11,0 1655.11,0 1655.11,-19"/>
<text text-anchor="middle" x="1616.61" y="-7" font-family="Helvetica,sans-Serif" font-size="10.00">TObjString.h</text>
</a>
</g>
</g>
<!-- Node13&#45;&gt;Node28 -->
<g id="edge13" class="edge">
<title>Node13&#45;&gt;Node28</title>
<path fill="none" stroke="#63b8ff" d="M1616.61,-54.75C1616.61,-47.8 1616.61,-37.85 1616.61,-29.13"/>
<polygon fill="#63b8ff" stroke="#63b8ff" points="1620.11,-29.09 1616.61,-19.09 1613.11,-29.09 1620.11,-29.09"/>
</g>
<!-- Node13&#45;&gt;Node29 -->
<g id="edge14" class="edge">
<title>Node13&#45;&gt;Node29</title>
<path fill="none" stroke="#63b8ff" d="M1545.97,-59.54C1357,-48.94 844.86,-20.22 706.47,-12.46"/>
<polygon fill="#63b8ff" stroke="#63b8ff" points="706.61,-8.96 696.43,-11.89 706.22,-15.95 706.61,-8.96"/>
</g>
<!-- Node13&#45;&gt;Node30 -->
<g id="edge15" class="edge">
<title>Node13&#45;&gt;Node30</title>
<path fill="none" stroke="#63b8ff" d="M1545.84,-56.1C1434.44,-44.46 1222.52,-22.3 1141.87,-13.87"/>
<polygon fill="#63b8ff" stroke="#63b8ff" points="1142.13,-10.38 1131.82,-12.82 1141.4,-17.34 1142.13,-10.38"/>
</g>
<!-- Node46&#45;&gt;Node13 -->
<g id="edge17" class="edge">
<title>Node46&#45;&gt;Node13</title>
<path fill="none" stroke="#63b8ff" d="M2299.2,-110.76C2296.3,-110.5 2293.43,-110.24 2290.61,-110 2076.74,-91.72 1824.13,-76.83 1697.52,-69.83"/>
<polygon fill="#63b8ff" stroke="#63b8ff" points="1697.69,-66.33 1687.51,-69.28 1697.31,-73.32 1697.69,-66.33"/>
</g>
<!-- Node46&#45;&gt;Node28 -->
<g id="edge23" class="edge">
<title>Node46&#45;&gt;Node28</title>
<path fill="none" stroke="#63b8ff" d="M2371.89,-109.84C2371.81,-95.79 2369.38,-68.3 2352.61,-55 2298.98,-12.49 1821.42,-9.95 1665.56,-10.26"/>
<polygon fill="#63b8ff" stroke="#63b8ff" points="1665.33,-6.76 1655.34,-10.29 1665.35,-13.76 1665.33,-6.76"/>
</g>
<!-- Node47 -->
<g id="node18" class="node">
<title>Node47</title>
<g id="a_node18"><a xlink:href="ParameterStructs_8h.html" target="_top" xlink:title=" ">
<polygon fill="#fff0f0" stroke="red" points="1193.61,-74 1025.61,-74 1025.61,-55 1193.61,-55 1193.61,-74"/>
<text text-anchor="middle" x="1109.61" y="-62" font-family="Helvetica,sans-Serif" font-size="10.00">Parameters/ParameterStructs.h</text>
</a>
</g>
</g>
<!-- Node46&#45;&gt;Node47 -->
<g id="edge18" class="edge">
<title>Node46&#45;&gt;Node47</title>
<path fill="none" stroke="#63b8ff" d="M2299.21,-110.66C2296.3,-110.42 2293.43,-110.2 2290.61,-110 1887.02,-81.25 1404.44,-70.39 1204.04,-66.91"/>
<polygon fill="#63b8ff" stroke="#63b8ff" points="1203.9,-63.41 1193.84,-66.74 1203.78,-70.41 1203.9,-63.41"/>
</g>
<!-- Node48 -->
<g id="node19" class="node">
<title>Node48</title>
<g id="a_node19"><a xlink:title=" ">
<polygon fill="#e0e0e0" stroke="#999999" points="2343.11,-74 2216.11,-74 2216.11,-55 2343.11,-55 2343.11,-74"/>
<text text-anchor="middle" x="2279.61" y="-62" font-family="Helvetica,sans-Serif" font-size="10.00">TGraphAsymmErrors.h</text>
</a>
</g>
</g>
<!-- Node46&#45;&gt;Node48 -->
<g id="edge22" class="edge">
<title>Node46&#45;&gt;Node48</title>
<path fill="none" stroke="#63b8ff" d="M2356.83,-109.98C2342.43,-101.69 2320.3,-88.94 2303.42,-79.22"/>
<polygon fill="#63b8ff" stroke="#63b8ff" points="2305.07,-76.13 2294.66,-74.17 2301.58,-82.19 2305.07,-76.13"/>
</g>
<!-- Node46&#45;&gt;Node49 -->
<g id="edge24" class="edge">
<title>Node46&#45;&gt;Node49</title>
<path fill="none" stroke="#63b8ff" d="M2299.21,-110.61C2296.31,-110.38 2293.43,-110.18 2290.61,-110 1906.97,-85.51 664.74,-69.29 401.79,-66.08"/>
<polygon fill="#63b8ff" stroke="#63b8ff" points="401.82,-62.58 391.78,-65.96 401.74,-69.58 401.82,-62.58"/>
</g>
<!-- Node47&#45;&gt;Node28 -->
<g id="edge19" class="edge">
<title>Node47&#45;&gt;Node28</title>
<path fill="none" stroke="#63b8ff" d="M1191.07,-54.98C1297.58,-43.85 1480.83,-24.69 1567.91,-15.59"/>
<polygon fill="#63b8ff" stroke="#63b8ff" points="1568.46,-19.05 1578.05,-14.53 1567.74,-12.09 1568.46,-19.05"/>
</g>
<!-- Node47&#45;&gt;Node29 -->
<g id="edge20" class="edge">
<title>Node47&#45;&gt;Node29</title>
<path fill="none" stroke="#63b8ff" d="M1039.24,-54.98C944.24,-43.49 778.6,-23.45 706.64,-14.74"/>
<polygon fill="#63b8ff" stroke="#63b8ff" points="706.67,-11.22 696.32,-13.49 705.83,-18.17 706.67,-11.22"/>
</g>
<!-- Node47&#45;&gt;Node30 -->
<g id="edge21" class="edge">
<title>Node47&#45;&gt;Node30</title>
<path fill="none" stroke="#63b8ff" d="M1109.61,-54.75C1109.61,-47.8 1109.61,-37.85 1109.61,-29.13"/>
<polygon fill="#63b8ff" stroke="#63b8ff" points="1113.11,-29.09 1109.61,-19.09 1106.11,-29.09 1113.11,-29.09"/>
</g>
<!-- Node54&#45;&gt;Node29 -->
<g id="edge39" class="edge">
<title>Node54&#45;&gt;Node29</title>
<path fill="none" stroke="#63b8ff" d="M677.5,-173.71C513.12,-162.92 158.45,-138.6 149.61,-129 80.85,-54.37 509.27,-20.83 636.66,-12.59"/>
<polygon fill="#63b8ff" stroke="#63b8ff" points="637.25,-16.06 647.01,-11.93 636.81,-9.07 637.25,-16.06"/>
</g>
<!-- Node54&#45;&gt;Node47 -->
<g id="edge31" class="edge">
<title>Node54&#45;&gt;Node47</title>
<path fill="none" stroke="#63b8ff" d="M812.81,-164.95C845.02,-155.88 886.67,-143.17 922.61,-129 940.55,-121.93 943.65,-117.02 961.61,-110 995.96,-96.57 1036.09,-84.73 1065.89,-76.65"/>
<polygon fill="#63b8ff" stroke="#63b8ff" points="1066.82,-80.02 1075.58,-74.05 1065.01,-73.26 1066.82,-80.02"/>
</g>
<!-- Node54&#45;&gt;Node49 -->
<g id="edge40" class="edge">
<title>Node54&#45;&gt;Node49</title>
<path fill="none" stroke="#63b8ff" d="M677.38,-178.62C577.37,-176.47 416.32,-166.98 371.61,-129 358.74,-118.07 354.38,-98.8 353,-84.35"/>
<polygon fill="#63b8ff" stroke="#63b8ff" points="356.48,-83.83 352.43,-74.04 349.49,-84.22 356.48,-83.83"/>
</g>
<!-- Node55 -->
<g id="node26" class="node">
<title>Node55</title>
<g id="a_node26"><a xlink:title=" ">
<polygon fill="#e0e0e0" stroke="#999999" points="646.61,-129 578.61,-129 578.61,-110 646.61,-110 646.61,-129"/>
<text text-anchor="middle" x="612.61" y="-117" font-family="Helvetica,sans-Serif" font-size="10.00">TMatrixT.h</text>
</a>
</g>
</g>
<!-- Node54&#45;&gt;Node55 -->
<g id="edge32" class="edge">
<title>Node54&#45;&gt;Node55</title>
<path fill="none" stroke="#63b8ff" d="M724.4,-164.99C699.87,-155.23 667.45,-142.33 643.85,-132.93"/>
<polygon fill="#63b8ff" stroke="#63b8ff" points="644.9,-129.58 634.32,-129.14 642.31,-136.09 644.9,-129.58"/>
</g>
<!-- Node56 -->
<g id="node27" class="node">
<title>Node56</title>
<g id="a_node27"><a xlink:title=" ">
<polygon fill="#e0e0e0" stroke="#999999" points="756.61,-129 664.61,-129 664.61,-110 756.61,-110 756.61,-129"/>
<text text-anchor="middle" x="710.61" y="-117" font-family="Helvetica,sans-Serif" font-size="10.00">TMatrixDSym.h</text>
</a>
</g>
</g>
<!-- Node54&#45;&gt;Node56 -->
<g id="edge33" class="edge">
<title>Node54&#45;&gt;Node56</title>
<path fill="none" stroke="#63b8ff" d="M747.75,-164.84C740.71,-156.43 731.75,-145.74 724.39,-136.96"/>
<polygon fill="#63b8ff" stroke="#63b8ff" points="727.05,-134.68 717.95,-129.27 721.69,-139.18 727.05,-134.68"/>
</g>
<!-- Node57 -->
<g id="node28" class="node">
<title>Node57</title>
<g id="a_node28"><a xlink:title=" ">
<polygon fill="#e0e0e0" stroke="#999999" points="842.61,-129 774.61,-129 774.61,-110 842.61,-110 842.61,-129"/>
<text text-anchor="middle" x="808.61" y="-117" font-family="Helvetica,sans-Serif" font-size="10.00">TVectorT.h</text>
</a>
</g>
</g>
<!-- Node54&#45;&gt;Node57 -->
<g id="edge34" class="edge">
<title>Node54&#45;&gt;Node57</title>
<path fill="none" stroke="#63b8ff" d="M771.47,-164.84C778.51,-156.43 787.47,-145.74 794.82,-136.96"/>
<polygon fill="#63b8ff" stroke="#63b8ff" points="797.53,-139.18 801.27,-129.27 792.16,-134.68 797.53,-139.18"/>
</g>
<!-- Node54&#45;&gt;Node58 -->
<g id="edge35" class="edge">
<title>Node54&#45;&gt;Node58</title>
<path fill="none" stroke="#63b8ff" d="M677.4,-175.09C554.88,-168.7 317.28,-154.15 116.61,-129 115.33,-128.84 114.04,-128.67 112.73,-128.49"/>
<polygon fill="#63b8ff" stroke="#63b8ff" points="113.02,-125 102.61,-126.98 111.99,-131.92 113.02,-125"/>
</g>
<!-- Node59 -->
<g id="node30" class="node">
<title>Node59</title>
<g id="a_node30"><a xlink:title=" ">
<polygon fill="#e0e0e0" stroke="#999999" points="914.11,-129 861.11,-129 861.11,-110 914.11,-110 914.11,-129"/>
<text text-anchor="middle" x="887.61" y="-117" font-family="Helvetica,sans-Serif" font-size="10.00">TH1D.h</text>
</a>
</g>
</g>
<!-- Node54&#45;&gt;Node59 -->
<g id="edge36" class="edge">
<title>Node54&#45;&gt;Node59</title>
<path fill="none" stroke="#63b8ff" d="M790.27,-164.99C811.34,-155.36 839.1,-142.67 859.58,-133.31"/>
<polygon fill="#63b8ff" stroke="#63b8ff" points="861.06,-136.48 868.7,-129.14 858.15,-130.11 861.06,-136.48"/>
</g>
<!-- Node60 -->
<g id="node31" class="node">
<title>Node60</title>
<g id="a_node31"><a xlink:title=" ">
<polygon fill="#e0e0e0" stroke="#999999" points="212.11,-129 159.11,-129 159.11,-110 212.11,-110 212.11,-129"/>
<text text-anchor="middle" x="185.61" y="-117" font-family="Helvetica,sans-Serif" font-size="10.00">TH2D.h</text>
</a>
</g>
</g>
<!-- Node54&#45;&gt;Node60 -->
<g id="edge37" class="edge">
<title>Node54&#45;&gt;Node60</title>
<path fill="none" stroke="#63b8ff" d="M677.58,-174.93C573.77,-168.99 389.37,-155.78 222.23,-128.86"/>
<polygon fill="#63b8ff" stroke="#63b8ff" points="222.69,-125.38 212.26,-127.23 221.57,-132.29 222.69,-125.38"/>
</g>
<!-- Node54&#45;&gt;Node42 -->
<g id="edge38" class="edge">
<title>Node54&#45;&gt;Node42</title>
<path fill="none" stroke="#63b8ff" d="M816.38,-164.99C861.06,-153.96 922,-138.92 960.32,-129.46"/>
<polygon fill="#63b8ff" stroke="#63b8ff" points="961.63,-132.74 970.5,-126.95 959.95,-125.94 961.63,-132.74"/>
</g>
<!-- Node54&#45;&gt;Node61 -->
<g id="edge41" class="edge">
<title>Node54&#45;&gt;Node61</title>
<path fill="none" stroke="#63b8ff" d="M841.02,-165C892.62,-155.9 961.01,-143.43 1030.15,-129.23"/>
<polygon fill="#63b8ff" stroke="#63b8ff" points="1031.27,-132.58 1040.35,-127.13 1029.85,-125.72 1031.27,-132.58"/>
</g>
<!-- Node62 -->
<g id="node34" class="node">
<title>Node62</title>
<g id="a_node34"><a xlink:title=" ">
<polygon fill="#e0e0e0" stroke="#999999" points="324.61,-129 230.61,-129 230.61,-110 324.61,-110 324.61,-129"/>
<text text-anchor="middle" x="277.61" y="-117" font-family="Helvetica,sans-Serif" font-size="10.00">TDecompChol.h</text>
</a>
</g>
</g>
<!-- Node54&#45;&gt;Node62 -->
<g id="edge42" class="edge">
<title>Node54&#45;&gt;Node62</title>
<path fill="none" stroke="#63b8ff" d="M677.26,-169.72C592.35,-160.03 456.14,-144.17 338.61,-129 337.36,-128.84 336.09,-128.67 334.81,-128.51"/>
<polygon fill="#63b8ff" stroke="#63b8ff" points="335.26,-125.03 324.88,-127.18 334.33,-131.97 335.26,-125.03"/>
</g>
<!-- Node54&#45;&gt;Node45 -->
<g id="edge43" class="edge">
<title>Node54&#45;&gt;Node45</title>
<path fill="none" stroke="#63b8ff" d="M841.83,-167.63C909.65,-158.13 1008.66,-143.99 1104.96,-129.07"/>
<polygon fill="#63b8ff" stroke="#63b8ff" points="1105.53,-132.53 1114.87,-127.53 1104.45,-125.61 1105.53,-132.53"/>
</g>
<!-- Node63 -->
<g id="node36" class="node">
<title>Node63</title>
<g id="a_node36"><a xlink:title=" ">
<polygon fill="#e0e0e0" stroke="#999999" points="444.11,-129 381.11,-129 381.11,-110 444.11,-110 444.11,-129"/>
<text text-anchor="middle" x="412.61" y="-117" font-family="Helvetica,sans-Serif" font-size="10.00">TMatrix.h</text>
</a>
</g>
</g>
<!-- Node54&#45;&gt;Node63 -->
<g id="edge44" class="edge">
<title>Node54&#45;&gt;Node63</title>
<path fill="none" stroke="#63b8ff" d="M677.3,-166.52C618.01,-157.31 535.88,-144.08 454.31,-129.06"/>
<polygon fill="#63b8ff" stroke="#63b8ff" points="454.84,-125.6 444.37,-127.22 453.56,-132.48 454.84,-125.6"/>
</g>
<!-- Node54&#45;&gt;Node64 -->
<g id="edge45" class="edge">
<title>Node54&#45;&gt;Node64</title>
<path fill="none" stroke="#63b8ff" d="M841.62,-170.1C929.1,-160.55 1072.04,-144.76 1205.75,-129.09"/>
<polygon fill="#63b8ff" stroke="#63b8ff" points="1206.25,-132.55 1215.77,-127.91 1205.43,-125.6 1206.25,-132.55"/>
</g>
<!-- Node65 -->
<g id="node38" class="node">
<title>Node65</title>
<g id="a_node38"><a xlink:title=" ">
<polygon fill="#e0e0e0" stroke="#999999" points="560.61,-129 462.61,-129 462.61,-110 560.61,-110 560.61,-129"/>
<text text-anchor="middle" x="511.61" y="-117" font-family="Helvetica,sans-Serif" font-size="10.00">TMatrixDEigen.h</text>
</a>
</g>
</g>
<!-- Node54&#45;&gt;Node65 -->
<g id="edge46" class="edge">
<title>Node54&#45;&gt;Node65</title>
<path fill="none" stroke="#63b8ff" d="M700.21,-164.99C656.48,-154.67 597.89,-140.85 557.68,-131.37"/>
<polygon fill="#63b8ff" stroke="#63b8ff" points="558.41,-127.94 547.87,-129.05 556.8,-134.76 558.41,-127.94"/>
</g>
<!-- Node54&#45;&gt;Node67 -->
<g id="edge47" class="edge">
<title>Node54&#45;&gt;Node67</title>
<path fill="none" stroke="#63b8ff" d="M841.85,-176.1C955.38,-171.15 1166.2,-158.58 1343.61,-129 1343.71,-128.98 1343.81,-128.97 1343.91,-128.95"/>
<polygon fill="#63b8ff" stroke="#63b8ff" points="1344.44,-132.41 1353.56,-127.02 1343.07,-125.55 1344.44,-132.41"/>
</g>
</g>
</svg>
        <g id="navigator" transform="translate(0 0)" fill="#404254">
                <rect fill="#f2f5e9" fill-opacity="0.5" stroke="#606060" stroke-width=".5" x="0" y="0" width="60" height="60"/>
                <use id="zoomplus" xlink:href="#zoomPlus" x="17" y="9" onmousedown="handleZoom(evt,'in')"/>
                <use id="zoomminus" xlink:href="#zoomMin" x="42" y="9" onmousedown="handleZoom(evt,'out')"/>
                <use id="reset" xlink:href="#resetDef" x="30" y="36" onmousedown="handleReset()"/>
                <g id="arrowUp" xlink:href="#dirArrow" transform="translate(30 24)" onmousedown="handlePan(0,-1)">
                  <use xlink:href="#rim" fill="#404040">
                        <set attributeName="fill" to="#808080" begin="arrowUp.mouseover" end="arrowUp.mouseout"/>
                  </use>
                  <path fill="none" stroke="white" stroke-width="1.5" d="M0,-3.0v7 M-2.5,-0.5L0,-3.0L2.5,-0.5"/>
                </g>
                <g id="arrowRight" xlink:href="#dirArrow" transform="rotate(90) translate(36 -43)" onmousedown="handlePan(1,0)">
                  <use xlink:href="#rim" fill="#404040">
                        <set attributeName="fill" to="#808080" begin="arrowRight.mouseover" end="arrowRight.mouseout"/>
                  </use>
                  <path fill="none" stroke="white" stroke-width="1.5" d="M0,-3.0v7 M-2.5,-0.5L0,-3.0L2.5,-0.5"/>
                </g>
                <g id="arrowDown" xlink:href="#dirArrow" transform="rotate(180) translate(-30 -48)" onmousedown="handlePan(0,1)">
                  <use xlink:href="#rim" fill="#404040">
                        <set attributeName="fill" to="#808080" begin="arrowDown.mouseover" end="arrowDown.mouseout"/>
                  </use>
                  <path fill="none" stroke="white" stroke-width="1.5" d="M0,-3.0v7 M-2.5,-0.5L0,-3.0L2.5,-0.5"/>
                </g>
                <g id="arrowLeft" xlink:href="#dirArrow" transform="rotate(270) translate(-36 17)" onmousedown="handlePan(-1,0)">
                  <use xlink:href="#rim" fill="#404040">
                        <set attributeName="fill" to="#808080" begin="arrowLeft.mouseover" end="arrowLeft.mouseout"/>
                  </use>
                  <path fill="none" stroke="white" stroke-width="1.5" d="M0,-3.0v7 M-2.5,-0.5L0,-3.0L2.5,-0.5"/>
                </g>
        </g>
        <svg viewBox="0 0 15 15" width="100%" height="30px" preserveAspectRatio="xMaxYMin meet">
         <g id="arrow_out" transform="scale(0.3 0.3)">
          <a xlink:href="MCMCProcessor_8cpp__incl_org.svg" target="_base">
           <rect id="button" ry="5" rx="5" y="6" x="6" height="38" width="38"
                fill="#f2f5e9" fill-opacity="0.5" stroke="#606060" stroke-width="1.0"/>
           <path id="arrow"
             d="M 11.500037,31.436501 C 11.940474,20.09759 22.043105,11.32322 32.158766,21.979434 L 37.068811,17.246167 C 37.068811,17.246167 37.088388,32 37.088388,32 L 22.160133,31.978069 C 22.160133,31.978069 26.997745,27.140456 26.997745,27.140456 C 18.528582,18.264221 13.291696,25.230495 11.500037,31.436501 z"
             style="fill:#404040;"/>
          </a>
         </g>
        </svg>
</svg>
