<?xml version="1.0" encoding="UTF-8" standalone="no"?>
<!DOCTYPE svg PUBLIC "-//W3C//DTD SVG 1.1//EN"
 "http://www.w3.org/Graphics/SVG/1.1/DTD/svg11.dtd">
<!-- Generated by graphviz version 2.44.0 (0)
 -->
<!-- Title: /__w/MaCh3/MaCh3/Fitters/MCMCProcessor.h Pages: 1 -->
<svg width="2609pt" height="441pt"
 viewBox="0.00 0.00 2608.50 441.00" xmlns="http://www.w3.org/2000/svg" xmlns:xlink="http://www.w3.org/1999/xlink">
<g id="graph0" class="graph" transform="scale(1 1) rotate(0) translate(4 437)">
<title>/__w/MaCh3/MaCh3/Fitters/MCMCProcessor.h</title>
<polygon fill="white" stroke="transparent" points="-4,4 -4,-437 2604.5,-437 2604.5,4 -4,4"/>
<!-- Node1 -->
<g id="node1" class="node">
<title>Node1</title>
<g id="a_node1"><a xlink:title=" ">
<polygon fill="#bfbfbf" stroke="black" points="1606,-402.5 1606,-432.5 1744,-432.5 1744,-402.5 1606,-402.5"/>
<text text-anchor="start" x="1614" y="-420.5" font-family="Helvetica" font-size="10.00">/__w/MaCh3/MaCh3/Fitters</text>
<text text-anchor="middle" x="1675" y="-409.5" font-family="Helvetica" font-size="10.00">/MCMCProcessor.h</text>
</a>
</g>
</g>
<!-- Node2 -->
<g id="node2" class="node">
<title>Node2</title>
<g id="a_node2"><a xlink:href="FitterBase_8h.html" target="_top" xlink:title=" ">
<polygon fill="white" stroke="black" points="797,-335.5 797,-365.5 935,-365.5 935,-335.5 797,-335.5"/>
<text text-anchor="start" x="805" y="-353.5" font-family="Helvetica" font-size="10.00">/__w/MaCh3/MaCh3/Fitters</text>
<text text-anchor="middle" x="866" y="-342.5" font-family="Helvetica" font-size="10.00">/FitterBase.h</text>
</a>
</g>
</g>
<!-- Node1&#45;&gt;Node2 -->
<g id="edge1" class="edge">
<title>Node1&#45;&gt;Node2</title>
<path fill="none" stroke="midnightblue" d="M1595.53,-410.11C1437.11,-397.39 1084.42,-369.05 935.01,-357.04"/>
<polygon fill="midnightblue" stroke="midnightblue" points="1595.43,-413.62 1605.68,-410.93 1595.99,-406.64 1595.43,-413.62"/>
</g>
<!-- Node21 -->
<g id="node21" class="node">
<title>Node21</title>
<g id="a_node21"><a xlink:href="MCMCProcessor_8cpp.html" target="_top" xlink:title=" ">
<polygon fill="white" stroke="black" points="1210,-335.5 1210,-365.5 1348,-365.5 1348,-335.5 1210,-335.5"/>
<text text-anchor="start" x="1218" y="-353.5" font-family="Helvetica" font-size="10.00">/__w/MaCh3/MaCh3/Fitters</text>
<text text-anchor="middle" x="1279" y="-342.5" font-family="Helvetica" font-size="10.00">/MCMCProcessor.cpp</text>
</a>
</g>
</g>
<!-- Node1&#45;&gt;Node21 -->
<g id="edge28" class="edge">
<title>Node1&#45;&gt;Node21</title>
<path fill="none" stroke="midnightblue" d="M1595.67,-404.49C1531.28,-394.61 1438.18,-379.99 1357,-366 1354.15,-365.51 1351.24,-365 1348.31,-364.48"/>
<polygon fill="midnightblue" stroke="midnightblue" points="1595.33,-407.98 1605.75,-406.04 1596.39,-401.06 1595.33,-407.98"/>
</g>
<!-- Node22 -->
<g id="node22" class="node">
<title>Node22</title>
<g id="a_node22"><a xlink:href="OscProcessor_8h.html" target="_top" xlink:title=" ">
<polygon fill="white" stroke="black" points="1366,-335.5 1366,-365.5 1504,-365.5 1504,-335.5 1366,-335.5"/>
<text text-anchor="start" x="1374" y="-353.5" font-family="Helvetica" font-size="10.00">/__w/MaCh3/MaCh3/Fitters</text>
<text text-anchor="middle" x="1435" y="-342.5" font-family="Helvetica" font-size="10.00">/OscProcessor.h</text>
</a>
</g>
</g>
<!-- Node1&#45;&gt;Node22 -->
<g id="edge29" class="edge">
<title>Node1&#45;&gt;Node22</title>
<path fill="none" stroke="midnightblue" d="M1613.52,-399.85C1574.39,-389.25 1524.27,-375.68 1487.1,-365.61"/>
<polygon fill="midnightblue" stroke="midnightblue" points="1612.65,-403.24 1623.22,-402.48 1614.48,-396.48 1612.65,-403.24"/>
</g>
<!-- Node25 -->
<g id="node25" class="node">
<title>Node25</title>
<g id="a_node25"><a xlink:href="SampleSummary_8h.html" target="_top" xlink:title=" ">
<polygon fill="white" stroke="black" points="1522,-335.5 1522,-365.5 1660,-365.5 1660,-335.5 1522,-335.5"/>
<text text-anchor="start" x="1530" y="-353.5" font-family="Helvetica" font-size="10.00">/__w/MaCh3/MaCh3/Fitters</text>
<text text-anchor="middle" x="1591" y="-342.5" font-family="Helvetica" font-size="10.00">/SampleSummary.h</text>
</a>
</g>
</g>
<!-- Node1&#45;&gt;Node25 -->
<g id="edge32" class="edge">
<title>Node1&#45;&gt;Node25</title>
<path fill="none" stroke="midnightblue" d="M1648.72,-396.17C1635.88,-386.23 1620.74,-374.51 1609.19,-365.58"/>
<polygon fill="midnightblue" stroke="midnightblue" points="1646.72,-399.04 1656.77,-402.4 1651.01,-393.51 1646.72,-399.04"/>
</g>
<!-- Node27 -->
<g id="node27" class="node">
<title>Node27</title>
<g id="a_node27"><a xlink:href="DiagMCMC_8cpp.html" target="_top" xlink:title=" ">
<polygon fill="white" stroke="black" points="1678.5,-335.5 1678.5,-365.5 1839.5,-365.5 1839.5,-335.5 1678.5,-335.5"/>
<text text-anchor="start" x="1686.5" y="-353.5" font-family="Helvetica" font-size="10.00">/__w/MaCh3/MaCh3/Diagnostics</text>
<text text-anchor="middle" x="1759" y="-342.5" font-family="Helvetica" font-size="10.00">/DiagMCMC.cpp</text>
</a>
</g>
</g>
<!-- Node1&#45;&gt;Node27 -->
<g id="edge34" class="edge">
<title>Node1&#45;&gt;Node27</title>
<path fill="none" stroke="midnightblue" d="M1701.28,-396.17C1714.12,-386.23 1729.26,-374.51 1740.81,-365.58"/>
<polygon fill="midnightblue" stroke="midnightblue" points="1698.99,-393.51 1693.23,-402.4 1703.28,-399.04 1698.99,-393.51"/>
</g>
<!-- Node28 -->
<g id="node28" class="node">
<title>Node28</title>
<g id="a_node28"><a xlink:href="PlotMCMCDiag_8cpp.html" target="_top" xlink:title="KS: This script is used to analyse output form DiagMCMC.">
<polygon fill="white" stroke="black" points="1857.5,-335.5 1857.5,-365.5 2018.5,-365.5 2018.5,-335.5 1857.5,-335.5"/>
<text text-anchor="start" x="1865.5" y="-353.5" font-family="Helvetica" font-size="10.00">/__w/MaCh3/MaCh3/Diagnostics</text>
<text text-anchor="middle" x="1938" y="-342.5" font-family="Helvetica" font-size="10.00">/PlotMCMCDiag.cpp</text>
</a>
</g>
</g>
<!-- Node1&#45;&gt;Node28 -->
<g id="edge35" class="edge">
<title>Node1&#45;&gt;Node28</title>
<path fill="none" stroke="midnightblue" d="M1741.55,-400.05C1784.55,-389.43 1839.92,-375.74 1880.91,-365.61"/>
<polygon fill="midnightblue" stroke="midnightblue" points="1740.61,-396.68 1731.74,-402.48 1742.29,-403.47 1740.61,-396.68"/>
</g>
<!-- Node29 -->
<g id="node29" class="node">
<title>Node29</title>
<g id="a_node29"><a xlink:href="SmearChain_8cpp.html" target="_top" xlink:title=" ">
<polygon fill="white" stroke="black" points="2036.5,-335.5 2036.5,-365.5 2197.5,-365.5 2197.5,-335.5 2036.5,-335.5"/>
<text text-anchor="start" x="2044.5" y="-353.5" font-family="Helvetica" font-size="10.00">/__w/MaCh3/MaCh3/Diagnostics</text>
<text text-anchor="middle" x="2117" y="-342.5" font-family="Helvetica" font-size="10.00">/SmearChain.cpp</text>
</a>
</g>
</g>
<!-- Node1&#45;&gt;Node29 -->
<g id="edge36" class="edge">
<title>Node1&#45;&gt;Node29</title>
<path fill="none" stroke="midnightblue" d="M1754.44,-405.5C1825.82,-395.52 1933.49,-380.24 2027,-366 2029.97,-365.55 2033,-365.08 2036.06,-364.61"/>
<polygon fill="midnightblue" stroke="midnightblue" points="1753.6,-402.08 1744.18,-406.93 1754.57,-409.02 1753.6,-402.08"/>
</g>
<!-- Node30 -->
<g id="node30" class="node">
<title>Node30</title>
<g id="a_node30"><a xlink:href="inputManager_8h.html" target="_top" xlink:title=" ">
<polygon fill="white" stroke="black" points="2215.5,-335.5 2215.5,-365.5 2358.5,-365.5 2358.5,-335.5 2215.5,-335.5"/>
<text text-anchor="start" x="2223.5" y="-353.5" font-family="Helvetica" font-size="10.00">/__w/MaCh3/MaCh3/Plotting</text>
<text text-anchor="middle" x="2287" y="-342.5" font-family="Helvetica" font-size="10.00">/plottingUtils/inputManager.h</text>
</a>
</g>
</g>
<!-- Node1&#45;&gt;Node30 -->
<g id="edge37" class="edge">
<title>Node1&#45;&gt;Node30</title>
<path fill="none" stroke="midnightblue" d="M1754.48,-410.99C1858.51,-403.32 2046.4,-387.84 2206,-366 2209.11,-365.57 2212.29,-365.11 2215.5,-364.63"/>
<polygon fill="midnightblue" stroke="midnightblue" points="1754.09,-407.51 1744.37,-411.73 1754.6,-414.49 1754.09,-407.51"/>
</g>
<!-- Node3 -->
<g id="node3" class="node">
<title>Node3</title>
<g id="a_node3"><a xlink:href="FitterBase_8cpp.html" target="_top" xlink:title=" ">
<polygon fill="white" stroke="black" points="0,-268.5 0,-298.5 138,-298.5 138,-268.5 0,-268.5"/>
<text text-anchor="start" x="8" y="-286.5" font-family="Helvetica" font-size="10.00">/__w/MaCh3/MaCh3/Fitters</text>
<text text-anchor="middle" x="69" y="-275.5" font-family="Helvetica" font-size="10.00">/FitterBase.cpp</text>
</a>
</g>
</g>
<!-- Node2&#45;&gt;Node3 -->
<g id="edge2" class="edge">
<title>Node2&#45;&gt;Node3</title>
<path fill="none" stroke="midnightblue" d="M786.82,-346.55C654.82,-341.04 381.61,-327.1 152,-299 147.5,-298.45 142.87,-297.82 138.21,-297.14"/>
<polygon fill="midnightblue" stroke="midnightblue" points="786.71,-350.05 796.85,-346.96 787,-343.05 786.71,-350.05"/>
</g>
<!-- Node4 -->
<g id="node4" class="node">
<title>Node4</title>
<g id="a_node4"><a xlink:href="LikelihoodFit_8h.html" target="_top" xlink:title=" ">
<polygon fill="white" stroke="black" points="544,-201.5 544,-231.5 682,-231.5 682,-201.5 544,-201.5"/>
<text text-anchor="start" x="552" y="-219.5" font-family="Helvetica" font-size="10.00">/__w/MaCh3/MaCh3/Fitters</text>
<text text-anchor="middle" x="613" y="-208.5" font-family="Helvetica" font-size="10.00">/LikelihoodFit.h</text>
</a>
</g>
</g>
<!-- Node2&#45;&gt;Node4 -->
<g id="edge3" class="edge">
<title>Node2&#45;&gt;Node4</title>
<path fill="none" stroke="midnightblue" d="M829.84,-330.63C778.48,-303.84 685.59,-255.37 639.88,-231.52"/>
<polygon fill="midnightblue" stroke="midnightblue" points="828.44,-333.85 838.92,-335.37 831.68,-327.64 828.44,-333.85"/>
</g>
<!-- Node6 -->
<g id="node6" class="node">
<title>Node6</title>
<g id="a_node6"><a xlink:href="MaCh3Factory_8h.html" target="_top" xlink:title="Factory methods for MaCh3 software which streamline initialisation of different objects.">
<polygon fill="white" stroke="black" points="856,-67.5 856,-97.5 994,-97.5 994,-67.5 856,-67.5"/>
<text text-anchor="start" x="864" y="-85.5" font-family="Helvetica" font-size="10.00">/__w/MaCh3/MaCh3/Fitters</text>
<text text-anchor="middle" x="925" y="-74.5" font-family="Helvetica" font-size="10.00">/MaCh3Factory.h</text>
</a>
</g>
</g>
<!-- Node2&#45;&gt;Node6 -->
<g id="edge14" class="edge">
<title>Node2&#45;&gt;Node6</title>
<path fill="none" stroke="midnightblue" d="M903.48,-330.52C953.46,-302.47 1037.98,-244.56 1058,-165 1061.36,-151.64 1065.82,-145.34 1058,-134 1043.34,-112.76 1018.49,-100.44 994.21,-93.3"/>
<polygon fill="midnightblue" stroke="midnightblue" points="901.65,-327.53 894.57,-335.41 905.02,-333.67 901.65,-327.53"/>
</g>
<!-- Node10 -->
<g id="node10" class="node">
<title>Node10</title>
<g id="a_node10"><a xlink:href="fitters_8cpp.html" target="_top" xlink:title=" ">
<polygon fill="white" stroke="black" points="386.5,-67.5 386.5,-97.5 525.5,-97.5 525.5,-67.5 386.5,-67.5"/>
<text text-anchor="start" x="394.5" y="-85.5" font-family="Helvetica" font-size="10.00">/__w/MaCh3/MaCh3/python</text>
<text text-anchor="middle" x="456" y="-74.5" font-family="Helvetica" font-size="10.00">/fitters.cpp</text>
</a>
</g>
</g>
<!-- Node2&#45;&gt;Node10 -->
<g id="edge27" class="edge">
<title>Node2&#45;&gt;Node10</title>
<path fill="none" stroke="midnightblue" d="M786.76,-340.01C623.43,-318.64 258.45,-261 185,-165 176.63,-154.06 176.2,-144.6 185,-134 197.83,-118.56 310.21,-101.67 386.16,-91.86"/>
<polygon fill="midnightblue" stroke="midnightblue" points="786.38,-343.49 796.74,-341.3 787.28,-336.54 786.38,-343.49"/>
</g>
<!-- Node13 -->
<g id="node13" class="node">
<title>Node13</title>
<g id="a_node13"><a xlink:href="MCMCBase_8h.html" target="_top" xlink:title=" ">
<polygon fill="white" stroke="black" points="797,-268.5 797,-298.5 935,-298.5 935,-268.5 797,-268.5"/>
<text text-anchor="start" x="805" y="-286.5" font-family="Helvetica" font-size="10.00">/__w/MaCh3/MaCh3/Fitters</text>
<text text-anchor="middle" x="866" y="-275.5" font-family="Helvetica" font-size="10.00">/MCMCBase.h</text>
</a>
</g>
</g>
<!-- Node2&#45;&gt;Node13 -->
<g id="edge15" class="edge">
<title>Node2&#45;&gt;Node13</title>
<path fill="none" stroke="midnightblue" d="M866,-325.11C866,-316.15 866,-306.32 866,-298.58"/>
<polygon fill="midnightblue" stroke="midnightblue" points="862.5,-325.4 866,-335.4 869.5,-325.4 862.5,-325.4"/>
</g>
<!-- Node19 -->
<g id="node19" class="node">
<title>Node19</title>
<g id="a_node19"><a xlink:href="PredictiveThrower_8h.html" target="_top" xlink:title=" ">
<polygon fill="white" stroke="black" points="1126,-268.5 1126,-298.5 1264,-298.5 1264,-268.5 1126,-268.5"/>
<text text-anchor="start" x="1134" y="-286.5" font-family="Helvetica" font-size="10.00">/__w/MaCh3/MaCh3/Fitters</text>
<text text-anchor="middle" x="1195" y="-275.5" font-family="Helvetica" font-size="10.00">/PredictiveThrower.h</text>
</a>
</g>
</g>
<!-- Node2&#45;&gt;Node19 -->
<g id="edge25" class="edge">
<title>Node2&#45;&gt;Node19</title>
<path fill="none" stroke="midnightblue" d="M945.43,-333.81C1000.47,-322.93 1073.04,-308.6 1125.72,-298.19"/>
<polygon fill="midnightblue" stroke="midnightblue" points="944.5,-330.42 935.37,-335.79 945.86,-337.29 944.5,-330.42"/>
</g>
<!-- Node5 -->
<g id="node5" class="node">
<title>Node5</title>
<g id="a_node5"><a xlink:href="LikelihoodFit_8cpp.html" target="_top" xlink:title=" ">
<polygon fill="white" stroke="black" points="350,-134.5 350,-164.5 488,-164.5 488,-134.5 350,-134.5"/>
<text text-anchor="start" x="358" y="-152.5" font-family="Helvetica" font-size="10.00">/__w/MaCh3/MaCh3/Fitters</text>
<text text-anchor="middle" x="419" y="-141.5" font-family="Helvetica" font-size="10.00">/LikelihoodFit.cpp</text>
</a>
</g>
</g>
<!-- Node4&#45;&gt;Node5 -->
<g id="edge4" class="edge">
<title>Node4&#45;&gt;Node5</title>
<path fill="none" stroke="midnightblue" d="M561.04,-198.09C529.73,-187.6 490.36,-174.41 461.01,-164.58"/>
<polygon fill="midnightblue" stroke="midnightblue" points="560.31,-201.54 570.9,-201.4 562.53,-194.9 560.31,-201.54"/>
</g>
<!-- Node4&#45;&gt;Node6 -->
<g id="edge5" class="edge">
<title>Node4&#45;&gt;Node6</title>
<path fill="none" stroke="midnightblue" d="M692.23,-203.51C749.32,-193.92 820.74,-179.69 847,-165 862.55,-156.3 895.42,-118.78 913.11,-97.81"/>
<polygon fill="midnightblue" stroke="midnightblue" points="691.4,-200.1 682.11,-205.18 692.55,-207 691.4,-200.1"/>
</g>
<!-- Node8 -->
<g id="node8" class="node">
<title>Node8</title>
<g id="a_node8"><a xlink:href="MinuitFit_8h.html" target="_top" xlink:title=" ">
<polygon fill="white" stroke="black" points="194,-134.5 194,-164.5 332,-164.5 332,-134.5 194,-134.5"/>
<text text-anchor="start" x="202" y="-152.5" font-family="Helvetica" font-size="10.00">/__w/MaCh3/MaCh3/Fitters</text>
<text text-anchor="middle" x="263" y="-141.5" font-family="Helvetica" font-size="10.00">/MinuitFit.h</text>
</a>
</g>
</g>
<!-- Node4&#45;&gt;Node8 -->
<g id="edge7" class="edge">
<title>Node4&#45;&gt;Node8</title>
<path fill="none" stroke="midnightblue" d="M534.06,-200.85C479.77,-190.77 406.01,-177.08 341,-165 338.16,-164.47 335.25,-163.93 332.32,-163.39"/>
<polygon fill="midnightblue" stroke="midnightblue" points="533.5,-204.3 543.97,-202.69 534.77,-197.42 533.5,-204.3"/>
</g>
<!-- Node11 -->
<g id="node11" class="node">
<title>Node11</title>
<g id="a_node11"><a xlink:href="PSO_8h.html" target="_top" xlink:title=" ">
<polygon fill="white" stroke="black" points="544,-134.5 544,-164.5 682,-164.5 682,-134.5 544,-134.5"/>
<text text-anchor="start" x="552" y="-152.5" font-family="Helvetica" font-size="10.00">/__w/MaCh3/MaCh3/Fitters</text>
<text text-anchor="middle" x="613" y="-141.5" font-family="Helvetica" font-size="10.00">/PSO.h</text>
</a>
</g>
</g>
<!-- Node4&#45;&gt;Node11 -->
<g id="edge10" class="edge">
<title>Node4&#45;&gt;Node11</title>
<path fill="none" stroke="midnightblue" d="M613,-191.11C613,-182.15 613,-172.32 613,-164.58"/>
<polygon fill="midnightblue" stroke="midnightblue" points="609.5,-191.4 613,-201.4 616.5,-191.4 609.5,-191.4"/>
</g>
<!-- Node7 -->
<g id="node7" class="node">
<title>Node7</title>
<g id="a_node7"><a xlink:href="MaCh3Factory_8cpp.html" target="_top" xlink:title=" ">
<polygon fill="white" stroke="black" points="856,-0.5 856,-30.5 994,-30.5 994,-0.5 856,-0.5"/>
<text text-anchor="start" x="864" y="-18.5" font-family="Helvetica" font-size="10.00">/__w/MaCh3/MaCh3/Fitters</text>
<text text-anchor="middle" x="925" y="-7.5" font-family="Helvetica" font-size="10.00">/MaCh3Factory.cpp</text>
</a>
</g>
</g>
<!-- Node6&#45;&gt;Node7 -->
<g id="edge6" class="edge">
<title>Node6&#45;&gt;Node7</title>
<path fill="none" stroke="midnightblue" d="M925,-57.11C925,-48.15 925,-38.32 925,-30.58"/>
<polygon fill="midnightblue" stroke="midnightblue" points="921.5,-57.4 925,-67.4 928.5,-57.4 921.5,-57.4"/>
</g>
<!-- Node9 -->
<g id="node9" class="node">
<title>Node9</title>
<g id="a_node9"><a xlink:href="MinuitFit_8cpp.html" target="_top" xlink:title=" ">
<polygon fill="white" stroke="black" points="194,-67.5 194,-97.5 332,-97.5 332,-67.5 194,-67.5"/>
<text text-anchor="start" x="202" y="-85.5" font-family="Helvetica" font-size="10.00">/__w/MaCh3/MaCh3/Fitters</text>
<text text-anchor="middle" x="263" y="-74.5" font-family="Helvetica" font-size="10.00">/MinuitFit.cpp</text>
</a>
</g>
</g>
<!-- Node8&#45;&gt;Node9 -->
<g id="edge8" class="edge">
<title>Node8&#45;&gt;Node9</title>
<path fill="none" stroke="midnightblue" d="M263,-124.11C263,-115.15 263,-105.32 263,-97.58"/>
<polygon fill="midnightblue" stroke="midnightblue" points="259.5,-124.4 263,-134.4 266.5,-124.4 259.5,-124.4"/>
</g>
<!-- Node8&#45;&gt;Node10 -->
<g id="edge9" class="edge">
<title>Node8&#45;&gt;Node10</title>
<path fill="none" stroke="midnightblue" d="M314.69,-131.09C345.84,-120.6 385.01,-107.41 414.2,-97.58"/>
<polygon fill="midnightblue" stroke="midnightblue" points="313.24,-127.89 304.88,-134.4 315.47,-134.52 313.24,-127.89"/>
</g>
<!-- Node11&#45;&gt;Node6 -->
<g id="edge11" class="edge">
<title>Node11&#45;&gt;Node6</title>
<path fill="none" stroke="midnightblue" d="M690.36,-132.38C741.68,-121.69 808.38,-107.8 857.54,-97.55"/>
<polygon fill="midnightblue" stroke="midnightblue" points="689.39,-129.01 680.32,-134.48 690.82,-135.86 689.39,-129.01"/>
</g>
<!-- Node11&#45;&gt;Node10 -->
<g id="edge13" class="edge">
<title>Node11&#45;&gt;Node10</title>
<path fill="none" stroke="midnightblue" d="M569.63,-130.54C544.51,-120.14 513.34,-107.24 490,-97.58"/>
<polygon fill="midnightblue" stroke="midnightblue" points="568.36,-133.8 578.93,-134.4 571.03,-127.34 568.36,-133.8"/>
</g>
<!-- Node12 -->
<g id="node12" class="node">
<title>Node12</title>
<g id="a_node12"><a xlink:href="PSO_8cpp.html" target="_top" xlink:title=" ">
<polygon fill="white" stroke="black" points="544,-67.5 544,-97.5 682,-97.5 682,-67.5 544,-67.5"/>
<text text-anchor="start" x="552" y="-85.5" font-family="Helvetica" font-size="10.00">/__w/MaCh3/MaCh3/Fitters</text>
<text text-anchor="middle" x="613" y="-74.5" font-family="Helvetica" font-size="10.00">/PSO.cpp</text>
</a>
</g>
</g>
<!-- Node11&#45;&gt;Node12 -->
<g id="edge12" class="edge">
<title>Node11&#45;&gt;Node12</title>
<path fill="none" stroke="midnightblue" d="M613,-124.11C613,-115.15 613,-105.32 613,-97.58"/>
<polygon fill="midnightblue" stroke="midnightblue" points="609.5,-124.4 613,-134.4 616.5,-124.4 609.5,-124.4"/>
</g>
<!-- Node14 -->
<g id="node14" class="node">
<title>Node14</title>
<g id="a_node14"><a xlink:href="MCMCBase_8cpp.html" target="_top" xlink:title=" ">
<polygon fill="white" stroke="black" points="719,-201.5 719,-231.5 857,-231.5 857,-201.5 719,-201.5"/>
<text text-anchor="start" x="727" y="-219.5" font-family="Helvetica" font-size="10.00">/__w/MaCh3/MaCh3/Fitters</text>
<text text-anchor="middle" x="788" y="-208.5" font-family="Helvetica" font-size="10.00">/MCMCBase.cpp</text>
</a>
</g>
</g>
<!-- Node13&#45;&gt;Node14 -->
<g id="edge16" class="edge">
<title>Node13&#45;&gt;Node14</title>
<path fill="none" stroke="midnightblue" d="M841.26,-261.88C829.41,-252.01 815.52,-240.43 804.89,-231.58"/>
<polygon fill="midnightblue" stroke="midnightblue" points="839.15,-264.68 849.08,-268.4 843.63,-259.31 839.15,-264.68"/>
</g>
<!-- Node15 -->
<g id="node15" class="node">
<title>Node15</title>
<g id="a_node15"><a xlink:href="MR2T2_8h.html" target="_top" xlink:title=" ">
<polygon fill="white" stroke="black" points="875,-201.5 875,-231.5 1013,-231.5 1013,-201.5 875,-201.5"/>
<text text-anchor="start" x="883" y="-219.5" font-family="Helvetica" font-size="10.00">/__w/MaCh3/MaCh3/Fitters</text>
<text text-anchor="middle" x="944" y="-208.5" font-family="Helvetica" font-size="10.00">/MR2T2.h</text>
</a>
</g>
</g>
<!-- Node13&#45;&gt;Node15 -->
<g id="edge17" class="edge">
<title>Node13&#45;&gt;Node15</title>
<path fill="none" stroke="midnightblue" d="M890.74,-261.88C902.59,-252.01 916.48,-240.43 927.11,-231.58"/>
<polygon fill="midnightblue" stroke="midnightblue" points="888.37,-259.31 882.92,-268.4 892.85,-264.68 888.37,-259.31"/>
</g>
<!-- Node15&#45;&gt;Node6 -->
<g id="edge22" class="edge">
<title>Node15&#45;&gt;Node6</title>
<path fill="none" stroke="midnightblue" d="M1003.62,-197.09C1018.37,-189.56 1032.4,-179.18 1041,-165 1048.15,-153.22 1048.55,-145.52 1041,-134 1029.56,-116.55 1010.64,-105.09 991.36,-97.59"/>
<polygon fill="midnightblue" stroke="midnightblue" points="1001.95,-194 994.38,-201.42 1004.92,-200.34 1001.95,-194"/>
</g>
<!-- Node15&#45;&gt;Node10 -->
<g id="edge24" class="edge">
<title>Node15&#45;&gt;Node10</title>
<path fill="none" stroke="midnightblue" d="M864.42,-200.91C717.24,-181.67 664.96,-228.53 535,-165 518.8,-157.08 485.39,-118.84 467.66,-97.67"/>
<polygon fill="midnightblue" stroke="midnightblue" points="864.34,-204.43 874.72,-202.34 865.3,-197.5 864.34,-204.43"/>
</g>
<!-- Node16 -->
<g id="node16" class="node">
<title>Node16</title>
<g id="a_node16"><a xlink:href="DelayedMR2T2_8h.html" target="_top" xlink:title=" ">
<polygon fill="white" stroke="black" points="700,-134.5 700,-164.5 838,-164.5 838,-134.5 700,-134.5"/>
<text text-anchor="start" x="708" y="-152.5" font-family="Helvetica" font-size="10.00">/__w/MaCh3/MaCh3/Fitters</text>
<text text-anchor="middle" x="769" y="-141.5" font-family="Helvetica" font-size="10.00">/DelayedMR2T2.h</text>
</a>
</g>
</g>
<!-- Node15&#45;&gt;Node16 -->
<g id="edge18" class="edge">
<title>Node15&#45;&gt;Node16</title>
<path fill="none" stroke="midnightblue" d="M896.4,-197.82C868.27,-187.37 833.14,-174.32 806.9,-164.58"/>
<polygon fill="midnightblue" stroke="midnightblue" points="895.43,-201.2 906.03,-201.4 897.87,-194.63 895.43,-201.2"/>
</g>
<!-- Node18 -->
<g id="node18" class="node">
<title>Node18</title>
<g id="a_node18"><a xlink:href="MR2T2_8cpp.html" target="_top" xlink:title=" ">
<polygon fill="white" stroke="black" points="894,-134.5 894,-164.5 1032,-164.5 1032,-134.5 894,-134.5"/>
<text text-anchor="start" x="902" y="-152.5" font-family="Helvetica" font-size="10.00">/__w/MaCh3/MaCh3/Fitters</text>
<text text-anchor="middle" x="963" y="-141.5" font-family="Helvetica" font-size="10.00">/MR2T2.cpp</text>
</a>
</g>
</g>
<!-- Node15&#45;&gt;Node18 -->
<g id="edge23" class="edge">
<title>Node15&#45;&gt;Node18</title>
<path fill="none" stroke="midnightblue" d="M950.96,-191.7C953.62,-182.59 956.57,-172.49 958.89,-164.58"/>
<polygon fill="midnightblue" stroke="midnightblue" points="947.57,-190.82 948.12,-201.4 954.29,-192.78 947.57,-190.82"/>
</g>
<!-- Node16&#45;&gt;Node6 -->
<g id="edge20" class="edge">
<title>Node16&#45;&gt;Node6</title>
<path fill="none" stroke="midnightblue" d="M812.09,-130.54C837.06,-120.14 868.03,-107.24 891.22,-97.58"/>
<polygon fill="midnightblue" stroke="midnightblue" points="810.73,-127.32 802.85,-134.4 813.43,-133.78 810.73,-127.32"/>
</g>
<!-- Node16&#45;&gt;Node10 -->
<g id="edge21" class="edge">
<title>Node16&#45;&gt;Node10</title>
<path fill="none" stroke="midnightblue" d="M691.39,-132.38C639.9,-121.69 573,-107.8 523.68,-97.55"/>
<polygon fill="midnightblue" stroke="midnightblue" points="690.97,-135.87 701.47,-134.48 692.39,-129.02 690.97,-135.87"/>
</g>
<!-- Node17 -->
<g id="node17" class="node">
<title>Node17</title>
<g id="a_node17"><a xlink:href="DelayedMR2T2_8cpp.html" target="_top" xlink:title=" ">
<polygon fill="white" stroke="black" points="700,-67.5 700,-97.5 838,-97.5 838,-67.5 700,-67.5"/>
<text text-anchor="start" x="708" y="-85.5" font-family="Helvetica" font-size="10.00">/__w/MaCh3/MaCh3/Fitters</text>
<text text-anchor="middle" x="769" y="-74.5" font-family="Helvetica" font-size="10.00">/DelayedMR2T2.cpp</text>
</a>
</g>
</g>
<!-- Node16&#45;&gt;Node17 -->
<g id="edge19" class="edge">
<title>Node16&#45;&gt;Node17</title>
<path fill="none" stroke="midnightblue" d="M769,-124.11C769,-115.15 769,-105.32 769,-97.58"/>
<polygon fill="midnightblue" stroke="midnightblue" points="765.5,-124.4 769,-134.4 772.5,-124.4 765.5,-124.4"/>
</g>
<!-- Node20 -->
<g id="node20" class="node">
<title>Node20</title>
<g id="a_node20"><a xlink:href="PredictiveThrower_8cpp.html" target="_top" xlink:title=" ">
<polygon fill="white" stroke="black" points="1126,-201.5 1126,-231.5 1264,-231.5 1264,-201.5 1126,-201.5"/>
<text text-anchor="start" x="1134" y="-219.5" font-family="Helvetica" font-size="10.00">/__w/MaCh3/MaCh3/Fitters</text>
<text text-anchor="middle" x="1195" y="-208.5" font-family="Helvetica" font-size="10.00">/PredictiveThrower.cpp</text>
</a>
</g>
</g>
<!-- Node19&#45;&gt;Node20 -->
<g id="edge26" class="edge">
<title>Node19&#45;&gt;Node20</title>
<path fill="none" stroke="midnightblue" d="M1195,-258.11C1195,-249.15 1195,-239.32 1195,-231.58"/>
<polygon fill="midnightblue" stroke="midnightblue" points="1191.5,-258.4 1195,-268.4 1198.5,-258.4 1191.5,-258.4"/>
</g>
<!-- Node23 -->
<g id="node23" class="node">
<title>Node23</title>
<g id="a_node23"><a xlink:href="OscProcessor_8cpp.html" target="_top" xlink:title=" ">
<polygon fill="white" stroke="black" points="1282,-268.5 1282,-298.5 1420,-298.5 1420,-268.5 1282,-268.5"/>
<text text-anchor="start" x="1290" y="-286.5" font-family="Helvetica" font-size="10.00">/__w/MaCh3/MaCh3/Fitters</text>
<text text-anchor="middle" x="1351" y="-275.5" font-family="Helvetica" font-size="10.00">/OscProcessor.cpp</text>
</a>
</g>
</g>
<!-- Node22&#45;&gt;Node23 -->
<g id="edge30" class="edge">
<title>Node22&#45;&gt;Node23</title>
<path fill="none" stroke="midnightblue" d="M1408.72,-329.17C1395.88,-319.23 1380.74,-307.51 1369.19,-298.58"/>
<polygon fill="midnightblue" stroke="midnightblue" points="1406.72,-332.04 1416.77,-335.4 1411.01,-326.51 1406.72,-332.04"/>
</g>
<!-- Node24 -->
<g id="node24" class="node">
<title>Node24</title>
<g id="a_node24"><a xlink:href="ProcessMCMC_8cpp.html" target="_top" xlink:title="Main exectable responsible for different types of MCMC processing like drawing posteriors,...">
<polygon fill="white" stroke="black" points="1438.5,-268.5 1438.5,-298.5 1599.5,-298.5 1599.5,-268.5 1438.5,-268.5"/>
<text text-anchor="start" x="1446.5" y="-286.5" font-family="Helvetica" font-size="10.00">/__w/MaCh3/MaCh3/Diagnostics</text>
<text text-anchor="middle" x="1519" y="-275.5" font-family="Helvetica" font-size="10.00">/ProcessMCMC.cpp</text>
</a>
</g>
</g>
<!-- Node22&#45;&gt;Node24 -->
<g id="edge31" class="edge">
<title>Node22&#45;&gt;Node24</title>
<path fill="none" stroke="midnightblue" d="M1461.28,-329.17C1474.12,-319.23 1489.26,-307.51 1500.81,-298.58"/>
<polygon fill="midnightblue" stroke="midnightblue" points="1458.99,-326.51 1453.23,-335.4 1463.28,-332.04 1458.99,-326.51"/>
</g>
<!-- Node26 -->
<g id="node26" class="node">
<title>Node26</title>
<g id="a_node26"><a xlink:href="SampleSummary_8cpp.html" target="_top" xlink:title=" ">
<polygon fill="white" stroke="black" points="1618,-268.5 1618,-298.5 1756,-298.5 1756,-268.5 1618,-268.5"/>
<text text-anchor="start" x="1626" y="-286.5" font-family="Helvetica" font-size="10.00">/__w/MaCh3/MaCh3/Fitters</text>
<text text-anchor="middle" x="1687" y="-275.5" font-family="Helvetica" font-size="10.00">/SampleSummary.cpp</text>
</a>
</g>
</g>
<!-- Node25&#45;&gt;Node26 -->
<g id="edge33" class="edge">
<title>Node25&#45;&gt;Node26</title>
<path fill="none" stroke="midnightblue" d="M1620.19,-329.73C1635.05,-319.68 1652.76,-307.68 1666.21,-298.58"/>
<polygon fill="midnightblue" stroke="midnightblue" points="1618.15,-326.89 1611.83,-335.4 1622.07,-332.69 1618.15,-326.89"/>
</g>
<!-- Node31 -->
<g id="node31" class="node">
<title>Node31</title>
<g id="a_node31"><a xlink:href="inputManager_8cpp.html" target="_top" xlink:title=" ">
<polygon fill="white" stroke="black" points="2041,-268.5 2041,-298.5 2193,-298.5 2193,-268.5 2041,-268.5"/>
<text text-anchor="start" x="2049" y="-286.5" font-family="Helvetica" font-size="10.00">/__w/MaCh3/MaCh3/Plotting</text>
<text text-anchor="middle" x="2117" y="-275.5" font-family="Helvetica" font-size="10.00">/plottingUtils/inputManager.cpp</text>
</a>
</g>
</g>
<!-- Node30&#45;&gt;Node31 -->
<g id="edge38" class="edge">
<title>Node30&#45;&gt;Node31</title>
<path fill="none" stroke="midnightblue" d="M2240.76,-331.82C2213.43,-321.37 2179.31,-308.32 2153.82,-298.58"/>
<polygon fill="midnightblue" stroke="midnightblue" points="2239.52,-335.09 2250.11,-335.4 2242.02,-328.56 2239.52,-335.09"/>
</g>
<!-- Node32 -->
<g id="node32" class="node">
<title>Node32</title>
<g id="a_node32"><a xlink:href="plottingManager_8h.html" target="_top" xlink:title=" ">
<polygon fill="white" stroke="black" points="2211,-268.5 2211,-298.5 2363,-298.5 2363,-268.5 2211,-268.5"/>
<text text-anchor="start" x="2219" y="-286.5" font-family="Helvetica" font-size="10.00">/__w/MaCh3/MaCh3/Plotting</text>
<text text-anchor="middle" x="2287" y="-275.5" font-family="Helvetica" font-size="10.00">/plottingUtils/plottingManager.h</text>
</a>
</g>
</g>
<!-- Node30&#45;&gt;Node32 -->
<g id="edge39" class="edge">
<title>Node30&#45;&gt;Node32</title>
<path fill="none" stroke="midnightblue" d="M2287,-325.11C2287,-316.15 2287,-306.32 2287,-298.58"/>
<polygon fill="midnightblue" stroke="midnightblue" points="2283.5,-325.4 2287,-335.4 2290.5,-325.4 2283.5,-325.4"/>
</g>
<!-- Node37 -->
<g id="node37" class="node">
<title>Node37</title>
<g id="a_node37"><a xlink:href="plotting_8cpp.html" target="_top" xlink:title=" ">
<polygon fill="white" stroke="black" points="2461.5,-201.5 2461.5,-231.5 2600.5,-231.5 2600.5,-201.5 2461.5,-201.5"/>
<text text-anchor="start" x="2469.5" y="-219.5" font-family="Helvetica" font-size="10.00">/__w/MaCh3/MaCh3/python</text>
<text text-anchor="middle" x="2531" y="-208.5" font-family="Helvetica" font-size="10.00">/plotting.cpp</text>
</a>
</g>
</g>
<!-- Node30&#45;&gt;Node37 -->
<g id="edge45" class="edge">
<title>Node30&#45;&gt;Node37</title>
<path fill="none" stroke="midnightblue" d="M2322.18,-330.47C2371.78,-303.64 2461.08,-255.32 2505.08,-231.52"/>
<polygon fill="midnightblue" stroke="midnightblue" points="2320.24,-327.54 2313.11,-335.37 2323.57,-333.69 2320.24,-327.54"/>
</g>
<!-- Node33 -->
<g id="node33" class="node">
<title>Node33</title>
<g id="a_node33"><a xlink:href="GetPostfitParamPlots_8cpp.html" target="_top" xlink:title=" ">
<polygon fill="white" stroke="black" points="2300.5,-201.5 2300.5,-231.5 2443.5,-231.5 2443.5,-201.5 2300.5,-201.5"/>
<text text-anchor="start" x="2308.5" y="-219.5" font-family="Helvetica" font-size="10.00">/__w/MaCh3/MaCh3/Plotting</text>
<text text-anchor="middle" x="2372" y="-208.5" font-family="Helvetica" font-size="10.00">/GetPostfitParamPlots.cpp</text>
</a>
</g>
</g>
<!-- Node32&#45;&gt;Node33 -->
<g id="edge40" class="edge">
<title>Node32&#45;&gt;Node33</title>
<path fill="none" stroke="midnightblue" d="M2313.59,-262.17C2326.59,-252.23 2341.9,-240.51 2353.59,-231.58"/>
<polygon fill="midnightblue" stroke="midnightblue" points="2311.26,-259.54 2305.44,-268.4 2315.51,-265.1 2311.26,-259.54"/>
</g>
<!-- Node34 -->
<g id="node34" class="node">
<title>Node34</title>
<g id="a_node34"><a xlink:href="MatrixPlotter_8cpp.html" target="_top" xlink:title=" ">
<polygon fill="white" stroke="black" points="1797.5,-201.5 1797.5,-231.5 1940.5,-231.5 1940.5,-201.5 1797.5,-201.5"/>
<text text-anchor="start" x="1805.5" y="-219.5" font-family="Helvetica" font-size="10.00">/__w/MaCh3/MaCh3/Plotting</text>
<text text-anchor="middle" x="1869" y="-208.5" font-family="Helvetica" font-size="10.00">/MatrixPlotter.cpp</text>
</a>
</g>
</g>
<!-- Node32&#45;&gt;Node34 -->
<g id="edge41" class="edge">
<title>Node32&#45;&gt;Node34</title>
<path fill="none" stroke="midnightblue" d="M2200.52,-267.8C2088.1,-250.42 2057.95,-249.62 1949,-232 1946.21,-231.55 1943.37,-231.08 1940.51,-230.6"/>
<polygon fill="midnightblue" stroke="midnightblue" points="2200.14,-271.28 2210.56,-269.36 2201.22,-264.36 2200.14,-271.28"/>
</g>
<!-- Node35 -->
<g id="node35" class="node">
<title>Node35</title>
<g id="a_node35"><a xlink:href="PlotLLH_8cpp.html" target="_top" xlink:title=" ">
<polygon fill="white" stroke="black" points="1958.5,-201.5 1958.5,-231.5 2101.5,-231.5 2101.5,-201.5 1958.5,-201.5"/>
<text text-anchor="start" x="1966.5" y="-219.5" font-family="Helvetica" font-size="10.00">/__w/MaCh3/MaCh3/Plotting</text>
<text text-anchor="middle" x="2030" y="-208.5" font-family="Helvetica" font-size="10.00">/PlotLLH.cpp</text>
</a>
</g>
</g>
<!-- Node32&#45;&gt;Node35 -->
<g id="edge42" class="edge">
<title>Node32&#45;&gt;Node35</title>
<path fill="none" stroke="midnightblue" d="M2221.7,-265.98C2179.72,-255.37 2125.76,-241.72 2085.79,-231.61"/>
<polygon fill="midnightblue" stroke="midnightblue" points="2221,-269.42 2231.55,-268.48 2222.71,-262.63 2221,-269.42"/>
</g>
<!-- Node36 -->
<g id="node36" class="node">
<title>Node36</title>
<g id="a_node36"><a xlink:href="plottingManager_8cpp.html" target="_top" xlink:title=" ">
<polygon fill="white" stroke="black" points="2120,-201.5 2120,-231.5 2282,-231.5 2282,-201.5 2120,-201.5"/>
<text text-anchor="start" x="2128" y="-219.5" font-family="Helvetica" font-size="10.00">/__w/MaCh3/MaCh3/Plotting</text>
<text text-anchor="middle" x="2201" y="-208.5" font-family="Helvetica" font-size="10.00">/plottingUtils/plottingManager.cpp</text>
</a>
</g>
</g>
<!-- Node32&#45;&gt;Node36 -->
<g id="edge43" class="edge">
<title>Node32&#45;&gt;Node36</title>
<path fill="none" stroke="midnightblue" d="M2260.1,-262.17C2246.95,-252.23 2231.45,-240.51 2219.62,-231.58"/>
<polygon fill="midnightblue" stroke="midnightblue" points="2258.25,-265.16 2268.34,-268.4 2262.47,-259.57 2258.25,-265.16"/>
</g>
<!-- Node32&#45;&gt;Node37 -->
<g id="edge44" class="edge">
<title>Node32&#45;&gt;Node37</title>
<path fill="none" stroke="midnightblue" d="M2349.5,-265.85C2389.28,-255.25 2440.24,-241.68 2478.03,-231.61"/>
<polygon fill="midnightblue" stroke="midnightblue" points="2348.41,-262.52 2339.64,-268.48 2350.21,-269.28 2348.41,-262.52"/>
</g>
</g>
</svg>
