<?xml version="1.0" encoding="UTF-8" standalone="no"?>
<!DOCTYPE svg PUBLIC "-//W3C//DTD SVG 1.1//EN"
 "http://www.w3.org/Graphics/SVG/1.1/DTD/svg11.dtd">
<!-- Generated by graphviz version 2.44.0 (0)
 -->
<!-- Title: Fitters/OscProcessor.cpp Pages: 1 -->
<svg width="2287pt" height="431pt"
 viewBox="0.00 0.00 2287.00 431.00" xmlns="http://www.w3.org/2000/svg" xmlns:xlink="http://www.w3.org/1999/xlink">
<g id="graph0" class="graph" transform="scale(1 1) rotate(0) translate(4 427)">
<title>Fitters/OscProcessor.cpp</title>
<polygon fill="white" stroke="transparent" points="-4,4 -4,-427 2283,-427 2283,4 -4,4"/>
<!-- Node1 -->
<g id="node1" class="node">
<title>Node1</title>
<g id="a_node1"><a xlink:title=" ">
<polygon fill="#bfbfbf" stroke="black" points="763,-403.5 763,-422.5 892,-422.5 892,-403.5 763,-403.5"/>
<text text-anchor="middle" x="827.5" y="-410.5" font-family="Helvetica" font-size="10.00">Fitters/OscProcessor.cpp</text>
</a>
</g>
</g>
<!-- Node2 -->
<g id="node2" class="node">
<title>Node2</title>
<g id="a_node2"><a xlink:href="OscProcessor_8h.html" target="_top" xlink:title=" ">
<polygon fill="white" stroke="black" points="619,-347.5 619,-366.5 706,-366.5 706,-347.5 619,-347.5"/>
<text text-anchor="middle" x="662.5" y="-354.5" font-family="Helvetica" font-size="10.00">OscProcessor.h</text>
</a>
</g>
</g>
<!-- Node1&#45;&gt;Node2 -->
<g id="edge1" class="edge">
<title>Node1&#45;&gt;Node2</title>
<path fill="none" stroke="midnightblue" d="M801.36,-403.44C773.48,-394.32 729.15,-379.81 698.1,-369.65"/>
<polygon fill="midnightblue" stroke="midnightblue" points="699.12,-366.3 688.52,-366.52 696.94,-372.95 699.12,-366.3"/>
</g>
<!-- Node76 -->
<g id="node47" class="node">
<title>Node76</title>
<g id="a_node47"><a xlink:title=" ">
<polygon fill="white" stroke="#bfbfbf" points="724,-347.5 724,-366.5 779,-366.5 779,-347.5 724,-347.5"/>
<text text-anchor="middle" x="751.5" y="-354.5" font-family="Helvetica" font-size="10.00">TArrow.h</text>
</a>
</g>
</g>
<!-- Node1&#45;&gt;Node76 -->
<g id="edge68" class="edge">
<title>Node1&#45;&gt;Node76</title>
<path fill="none" stroke="midnightblue" d="M815.29,-403.32C803.72,-395.11 786.12,-382.6 772.34,-372.81"/>
<polygon fill="midnightblue" stroke="midnightblue" points="774.11,-369.77 763.93,-366.83 770.06,-375.48 774.11,-369.77"/>
</g>
<!-- Node77 -->
<g id="node48" class="node">
<title>Node77</title>
<g id="a_node48"><a xlink:title=" ">
<polygon fill="white" stroke="#bfbfbf" points="797.5,-347.5 797.5,-366.5 857.5,-366.5 857.5,-347.5 797.5,-347.5"/>
<text text-anchor="middle" x="827.5" y="-354.5" font-family="Helvetica" font-size="10.00">TEllipse.h</text>
</a>
</g>
</g>
<!-- Node1&#45;&gt;Node77 -->
<g id="edge69" class="edge">
<title>Node1&#45;&gt;Node77</title>
<path fill="none" stroke="midnightblue" d="M827.5,-403.08C827.5,-396.01 827.5,-385.86 827.5,-376.99"/>
<polygon fill="midnightblue" stroke="midnightblue" points="831,-376.75 827.5,-366.75 824,-376.75 831,-376.75"/>
</g>
<!-- Node78 -->
<g id="node49" class="node">
<title>Node78</title>
<g id="a_node49"><a xlink:title=" ">
<polygon fill="white" stroke="#bfbfbf" points="875.5,-347.5 875.5,-366.5 929.5,-366.5 929.5,-347.5 875.5,-347.5"/>
<text text-anchor="middle" x="902.5" y="-354.5" font-family="Helvetica" font-size="10.00">TLatex.h</text>
</a>
</g>
</g>
<!-- Node1&#45;&gt;Node78 -->
<g id="edge70" class="edge">
<title>Node1&#45;&gt;Node78</title>
<path fill="none" stroke="midnightblue" d="M839.55,-403.32C850.96,-395.11 868.33,-382.6 881.93,-372.81"/>
<polygon fill="midnightblue" stroke="midnightblue" points="884.16,-375.52 890.23,-366.83 880.07,-369.84 884.16,-375.52"/>
</g>
<!-- Node79 -->
<g id="node50" class="node">
<title>Node79</title>
<g id="a_node50"><a xlink:title=" ">
<polygon fill="white" stroke="#bfbfbf" points="947.5,-347.5 947.5,-366.5 1011.5,-366.5 1011.5,-347.5 947.5,-347.5"/>
<text text-anchor="middle" x="979.5" y="-354.5" font-family="Helvetica" font-size="10.00">TVector2.h</text>
</a>
</g>
</g>
<!-- Node1&#45;&gt;Node79 -->
<g id="edge71" class="edge">
<title>Node1&#45;&gt;Node79</title>
<path fill="none" stroke="midnightblue" d="M851.58,-403.44C877.04,-394.4 917.39,-380.06 945.96,-369.92"/>
<polygon fill="midnightblue" stroke="midnightblue" points="947.28,-373.16 955.53,-366.52 944.93,-366.57 947.28,-373.16"/>
</g>
<!-- Node3 -->
<g id="node3" class="node">
<title>Node3</title>
<g id="a_node3"><a xlink:href="MCMCProcessor_8h.html" target="_top" xlink:title=" ">
<polygon fill="white" stroke="black" points="1287.5,-291.5 1287.5,-310.5 1419.5,-310.5 1419.5,-291.5 1287.5,-291.5"/>
<text text-anchor="middle" x="1353.5" y="-298.5" font-family="Helvetica" font-size="10.00">Fitters/MCMCProcessor.h</text>
</a>
</g>
</g>
<!-- Node2&#45;&gt;Node3 -->
<g id="edge2" class="edge">
<title>Node2&#45;&gt;Node3</title>
<path fill="none" stroke="midnightblue" d="M706.15,-348.12C708.97,-347.71 711.77,-347.33 714.5,-347 916.71,-322.44 1156.68,-309.99 1276.86,-304.89"/>
<polygon fill="midnightblue" stroke="midnightblue" points="1277.21,-308.38 1287.06,-304.46 1276.92,-301.39 1277.21,-308.38"/>
</g>
<!-- Node48 -->
<g id="node18" class="node">
<title>Node48</title>
<g id="a_node18"><a xlink:href="HistogramUtils_8h.html" target="_top" xlink:title=" ">
<polygon fill="white" stroke="black" points="0,-168.5 0,-187.5 131,-187.5 131,-168.5 0,-168.5"/>
<text text-anchor="middle" x="65.5" y="-175.5" font-family="Helvetica" font-size="10.00">Samples/HistogramUtils.h</text>
</a>
</g>
</g>
<!-- Node2&#45;&gt;Node48 -->
<g id="edge67" class="edge">
<title>Node2&#45;&gt;Node48</title>
<path fill="none" stroke="midnightblue" d="M633.71,-347.46C535.79,-318.43 215.62,-223.51 104.17,-190.46"/>
<polygon fill="midnightblue" stroke="midnightblue" points="104.94,-187.04 94.35,-187.55 102.95,-193.75 104.94,-187.04"/>
</g>
<!-- Node4 -->
<g id="node4" class="node">
<title>Node4</title>
<g id="a_node4"><a xlink:title=" ">
<polygon fill="white" stroke="#bfbfbf" points="2148,-230 2148,-249 2201,-249 2201,-230 2148,-230"/>
<text text-anchor="middle" x="2174.5" y="-237" font-family="Helvetica" font-size="10.00">complex</text>
</a>
</g>
</g>
<!-- Node3&#45;&gt;Node4 -->
<g id="edge3" class="edge">
<title>Node3&#45;&gt;Node4</title>
<path fill="none" stroke="midnightblue" d="M1419.59,-299.05C1583.12,-296.26 2003.26,-286.18 2139.5,-255 2142.17,-254.39 2144.9,-253.59 2147.6,-252.69"/>
<polygon fill="midnightblue" stroke="midnightblue" points="2148.98,-255.91 2157.07,-249.07 2146.48,-249.37 2148.98,-255.91"/>
</g>
<!-- Node5 -->
<g id="node5" class="node">
<title>Node5</title>
<g id="a_node5"><a xlink:title=" ">
<polygon fill="white" stroke="#bfbfbf" points="440,-230 440,-249 483,-249 483,-230 440,-230"/>
<text text-anchor="middle" x="461.5" y="-237" font-family="Helvetica" font-size="10.00">cstdio</text>
</a>
</g>
</g>
<!-- Node3&#45;&gt;Node5 -->
<g id="edge4" class="edge">
<title>Node3&#45;&gt;Node5</title>
<path fill="none" stroke="midnightblue" d="M1287.32,-299.33C1113.62,-297.14 647.71,-288.23 497.5,-255 494.66,-254.37 491.76,-253.54 488.89,-252.6"/>
<polygon fill="midnightblue" stroke="midnightblue" points="490.03,-249.29 479.44,-249.08 487.59,-255.85 490.03,-249.29"/>
</g>
<!-- Node6 -->
<g id="node6" class="node">
<title>Node6</title>
<g id="a_node6"><a xlink:href="StatisticalUtils_8h.html" target="_top" xlink:title="Utility functions for statistical interpretations in MaCh3.">
<polygon fill="white" stroke="black" points="539.5,-230 539.5,-249 659.5,-249 659.5,-230 539.5,-230"/>
<text text-anchor="middle" x="599.5" y="-237" font-family="Helvetica" font-size="10.00">Fitters/StatisticalUtils.h</text>
</a>
</g>
</g>
<!-- Node3&#45;&gt;Node6 -->
<g id="edge5" class="edge">
<title>Node3&#45;&gt;Node6</title>
<path fill="none" stroke="midnightblue" d="M1287.27,-296.51C1171.26,-290.13 923.82,-275.35 715.5,-255 700.73,-253.56 684.93,-251.76 669.9,-249.92"/>
<polygon fill="midnightblue" stroke="midnightblue" points="669.99,-246.4 659.64,-248.64 669.13,-253.35 669.99,-246.4"/>
</g>
<!-- Node31 -->
<g id="node17" class="node">
<title>Node31</title>
<g id="a_node17"><a xlink:title=" ">
<polygon fill="white" stroke="#bfbfbf" points="651,-0.5 651,-19.5 698,-19.5 698,-0.5 651,-0.5"/>
<text text-anchor="middle" x="674.5" y="-7.5" font-family="Helvetica" font-size="10.00">TFile.h</text>
</a>
</g>
</g>
<!-- Node3&#45;&gt;Node31 -->
<g id="edge46" class="edge">
<title>Node3&#45;&gt;Node31</title>
<path fill="none" stroke="midnightblue" d="M1287.37,-299.26C1233.69,-296.16 1157.51,-285.97 1098.5,-255 1056.48,-232.95 1023.5,-226.46 1023.5,-179 1023.5,-179 1023.5,-179 1023.5,-121 1023.5,-55.3 795.66,-23.96 708.16,-14.34"/>
<polygon fill="midnightblue" stroke="midnightblue" points="708.53,-10.86 698.21,-13.28 707.78,-17.82 708.53,-10.86"/>
</g>
<!-- Node3&#45;&gt;Node48 -->
<g id="edge28" class="edge">
<title>Node3&#45;&gt;Node48</title>
<path fill="none" stroke="midnightblue" d="M1287.2,-298.68C1104.11,-294.73 600.35,-281.54 530.5,-255 509.8,-247.14 512.01,-232.35 491.5,-224 348.84,-165.9 297.88,-203.86 141.24,-188.12"/>
<polygon fill="midnightblue" stroke="midnightblue" points="141.57,-184.64 131.26,-187.06 140.83,-191.6 141.57,-184.64"/>
</g>
<!-- Node49 -->
<g id="node19" class="node">
<title>Node49</title>
<g id="a_node19"><a xlink:title=" ">
<polygon fill="white" stroke="#bfbfbf" points="923.5,-112.5 923.5,-131.5 995.5,-131.5 995.5,-112.5 923.5,-112.5"/>
<text text-anchor="middle" x="959.5" y="-119.5" font-family="Helvetica" font-size="10.00">TRandom3.h</text>
</a>
</g>
</g>
<!-- Node3&#45;&gt;Node49 -->
<g id="edge62" class="edge">
<title>Node3&#45;&gt;Node49</title>
<path fill="none" stroke="midnightblue" d="M1287.38,-299.24C1199.75,-296.93 1051.3,-288.08 1009.5,-255 991.19,-240.51 972.44,-174.47 964.05,-141.64"/>
<polygon fill="midnightblue" stroke="midnightblue" points="967.34,-140.4 961.53,-131.55 960.55,-142.1 967.34,-140.4"/>
</g>
<!-- Node50 -->
<g id="node20" class="node">
<title>Node50</title>
<g id="a_node20"><a xlink:title=" ">
<polygon fill="white" stroke="#bfbfbf" points="679,-168.5 679,-187.5 742,-187.5 742,-168.5 679,-168.5"/>
<text text-anchor="middle" x="710.5" y="-175.5" font-family="Helvetica" font-size="10.00">TCanvas.h</text>
</a>
</g>
</g>
<!-- Node3&#45;&gt;Node50 -->
<g id="edge48" class="edge">
<title>Node3&#45;&gt;Node50</title>
<path fill="none" stroke="midnightblue" d="M1287.2,-297.96C1167.13,-293.64 918.53,-281.71 836.5,-255 794.71,-241.39 752.19,-211.76 728.79,-193.78"/>
<polygon fill="midnightblue" stroke="midnightblue" points="730.83,-190.93 720.8,-187.51 726.51,-196.44 730.83,-190.93"/>
</g>
<!-- Node51 -->
<g id="node21" class="node">
<title>Node51</title>
<g id="a_node21"><a xlink:title=" ">
<polygon fill="white" stroke="#bfbfbf" points="760,-168.5 760,-187.5 809,-187.5 809,-168.5 760,-168.5"/>
<text text-anchor="middle" x="784.5" y="-175.5" font-family="Helvetica" font-size="10.00">TLine.h</text>
</a>
</g>
</g>
<!-- Node3&#45;&gt;Node51 -->
<g id="edge49" class="edge">
<title>Node3&#45;&gt;Node51</title>
<path fill="none" stroke="midnightblue" d="M1287.48,-297.65C1178.04,-293.07 964.08,-281.02 893.5,-255 856.95,-241.52 821.19,-212.76 801.08,-194.73"/>
<polygon fill="midnightblue" stroke="midnightblue" points="803.2,-191.93 793.46,-187.74 798.47,-197.09 803.2,-191.93"/>
</g>
<!-- Node52 -->
<g id="node22" class="node">
<title>Node52</title>
<g id="a_node22"><a xlink:title=" ">
<polygon fill="white" stroke="#bfbfbf" points="827.5,-168.5 827.5,-187.5 885.5,-187.5 885.5,-168.5 827.5,-168.5"/>
<text text-anchor="middle" x="856.5" y="-175.5" font-family="Helvetica" font-size="10.00">TROOT.h</text>
</a>
</g>
</g>
<!-- Node3&#45;&gt;Node52 -->
<g id="edge60" class="edge">
<title>Node3&#45;&gt;Node52</title>
<path fill="none" stroke="midnightblue" d="M1287.18,-297.66C1186.83,-293.31 1001.72,-281.83 941.5,-255 911.67,-241.71 884.98,-213.98 869.78,-195.94"/>
<polygon fill="midnightblue" stroke="midnightblue" points="872.31,-193.51 863.27,-187.97 866.88,-197.93 872.31,-193.51"/>
</g>
<!-- Node53 -->
<g id="node23" class="node">
<title>Node53</title>
<g id="a_node23"><a xlink:title=" ">
<polygon fill="white" stroke="#bfbfbf" points="904,-168.5 904,-187.5 957,-187.5 957,-168.5 904,-168.5"/>
<text text-anchor="middle" x="930.5" y="-175.5" font-family="Helvetica" font-size="10.00">TStyle.h</text>
</a>
</g>
</g>
<!-- Node3&#45;&gt;Node53 -->
<g id="edge55" class="edge">
<title>Node3&#45;&gt;Node53</title>
<path fill="none" stroke="midnightblue" d="M1287.22,-299.42C1191.75,-297.39 1021.49,-288.96 971.5,-255 951.78,-241.61 940.74,-215.53 935.21,-197.7"/>
<polygon fill="midnightblue" stroke="midnightblue" points="938.51,-196.53 932.44,-187.84 931.77,-198.42 938.51,-196.53"/>
</g>
<!-- Node54 -->
<g id="node24" class="node">
<title>Node54</title>
<g id="a_node24"><a xlink:href="ParameterHandlerUtils_8h.html" target="_top" xlink:title=" ">
<polygon fill="white" stroke="red" points="1138,-224.5 1138,-254.5 1287,-254.5 1287,-224.5 1138,-224.5"/>
<text text-anchor="start" x="1146" y="-242.5" font-family="Helvetica" font-size="10.00">Parameters/ParameterHandler</text>
<text text-anchor="middle" x="1212.5" y="-231.5" font-family="Helvetica" font-size="10.00">Utils.h</text>
</a>
</g>
</g>
<!-- Node3&#45;&gt;Node54 -->
<g id="edge29" class="edge">
<title>Node3&#45;&gt;Node54</title>
<path fill="none" stroke="midnightblue" d="M1333.3,-291.48C1312.95,-282.89 1280.94,-269.38 1254.99,-258.43"/>
<polygon fill="midnightblue" stroke="midnightblue" points="1256.3,-255.19 1245.73,-254.52 1253.58,-261.64 1256.3,-255.19"/>
</g>
<!-- Node58 -->
<g id="node28" class="node">
<title>Node58</title>
<g id="a_node28"><a xlink:title=" ">
<polygon fill="white" stroke="#bfbfbf" points="1051.5,-168.5 1051.5,-187.5 1117.5,-187.5 1117.5,-168.5 1051.5,-168.5"/>
<text text-anchor="middle" x="1084.5" y="-175.5" font-family="Helvetica" font-size="10.00">TVectorD.h</text>
</a>
</g>
</g>
<!-- Node3&#45;&gt;Node58 -->
<g id="edge53" class="edge">
<title>Node3&#45;&gt;Node58</title>
<path fill="none" stroke="midnightblue" d="M1287.29,-292.72C1230.66,-285.41 1154.45,-272.71 1129.5,-255 1109.62,-240.89 1097.07,-214.99 1090.42,-197.39"/>
<polygon fill="midnightblue" stroke="midnightblue" points="1093.63,-195.97 1087.03,-187.68 1087.03,-198.27 1093.63,-195.97"/>
</g>
<!-- Node44 -->
<g id="node31" class="node">
<title>Node44</title>
<g id="a_node31"><a xlink:title=" ">
<polygon fill="white" stroke="#bfbfbf" points="1838.5,-168.5 1838.5,-187.5 1888.5,-187.5 1888.5,-168.5 1838.5,-168.5"/>
<text text-anchor="middle" x="1863.5" y="-175.5" font-family="Helvetica" font-size="10.00">TTree.h</text>
</a>
</g>
</g>
<!-- Node3&#45;&gt;Node44 -->
<g id="edge59" class="edge">
<title>Node3&#45;&gt;Node44</title>
<path fill="none" stroke="midnightblue" d="M1347.88,-291.42C1338.44,-275.84 1322.06,-242.77 1339.5,-224 1375.03,-185.77 1741.29,-195.98 1828.21,-187.5"/>
<polygon fill="midnightblue" stroke="midnightblue" points="1828.89,-190.95 1838.36,-186.21 1828,-184 1828.89,-190.95"/>
</g>
<!-- Node61 -->
<g id="node32" class="node">
<title>Node61</title>
<g id="a_node32"><a xlink:title=" ">
<polygon fill="white" stroke="#bfbfbf" points="1907,-168.5 1907,-187.5 1960,-187.5 1960,-168.5 1907,-168.5"/>
<text text-anchor="middle" x="1933.5" y="-175.5" font-family="Helvetica" font-size="10.00">TMath.h</text>
</a>
</g>
</g>
<!-- Node3&#45;&gt;Node61 -->
<g id="edge65" class="edge">
<title>Node3&#45;&gt;Node61</title>
<path fill="none" stroke="midnightblue" d="M1353.34,-291.21C1353.56,-274.97 1356.63,-240.44 1377.5,-224 1421.09,-189.67 1805.91,-196.39 1896.68,-187.48"/>
<polygon fill="midnightblue" stroke="midnightblue" points="1897.38,-190.92 1906.87,-186.21 1896.52,-183.97 1897.38,-190.92"/>
</g>
<!-- Node47 -->
<g id="node34" class="node">
<title>Node47</title>
<g id="a_node34"><a xlink:title=" ">
<polygon fill="white" stroke="#bfbfbf" points="1978,-168.5 1978,-187.5 2055,-187.5 2055,-168.5 1978,-168.5"/>
<text text-anchor="middle" x="2016.5" y="-175.5" font-family="Helvetica" font-size="10.00">TStopwatch.h</text>
</a>
</g>
</g>
<!-- Node3&#45;&gt;Node47 -->
<g id="edge56" class="edge">
<title>Node3&#45;&gt;Node47</title>
<path fill="none" stroke="midnightblue" d="M1358.74,-291.26C1369.89,-272.98 1396.14,-231.77 1410.5,-224 1517.32,-166.23 1830.23,-201.89 1967.84,-187.94"/>
<polygon fill="midnightblue" stroke="midnightblue" points="1968.29,-191.41 1977.83,-186.8 1967.5,-184.46 1968.29,-191.41"/>
</g>
<!-- Node64 -->
<g id="node36" class="node">
<title>Node64</title>
<g id="a_node36"><a xlink:title=" ">
<polygon fill="white" stroke="#bfbfbf" points="2086.5,-168.5 2086.5,-187.5 2196.5,-187.5 2196.5,-168.5 2086.5,-168.5"/>
<text text-anchor="middle" x="2141.5" y="-175.5" font-family="Helvetica" font-size="10.00">TMatrixDSymEigen.h</text>
</a>
</g>
</g>
<!-- Node3&#45;&gt;Node64 -->
<g id="edge66" class="edge">
<title>Node3&#45;&gt;Node64</title>
<path fill="none" stroke="midnightblue" d="M1419.73,-298.98C1616.12,-295.65 2183.39,-283.57 2210.5,-255 2219.98,-245.01 2217.06,-236.11 2210.5,-224 2202.75,-209.7 2188.27,-199.22 2174.56,-191.99"/>
<polygon fill="midnightblue" stroke="midnightblue" points="2175.81,-188.71 2165.29,-187.5 2172.76,-195.01 2175.81,-188.71"/>
</g>
<!-- Node67 -->
<g id="node37" class="node">
<title>Node67</title>
<g id="a_node37"><a xlink:title=" ">
<polygon fill="white" stroke="#bfbfbf" points="2232,-168.5 2232,-187.5 2279,-187.5 2279,-168.5 2232,-168.5"/>
<text text-anchor="middle" x="2255.5" y="-175.5" font-family="Helvetica" font-size="10.00">TKey.h</text>
</a>
</g>
</g>
<!-- Node3&#45;&gt;Node67 -->
<g id="edge61" class="edge">
<title>Node3&#45;&gt;Node67</title>
<path fill="none" stroke="midnightblue" d="M1419.56,-298.58C1617.65,-294.05 2195.1,-278.86 2227.5,-255 2245.42,-241.81 2251.88,-215.88 2254.21,-198.01"/>
<polygon fill="midnightblue" stroke="midnightblue" points="2257.71,-198.17 2255.2,-187.87 2250.74,-197.48 2257.71,-198.17"/>
</g>
<!-- Node45 -->
<g id="node38" class="node">
<title>Node45</title>
<g id="a_node38"><a xlink:title=" ">
<polygon fill="white" stroke="#bfbfbf" points="1419.5,-230 1419.5,-249 1481.5,-249 1481.5,-230 1419.5,-230"/>
<text text-anchor="middle" x="1450.5" y="-237" font-family="Helvetica" font-size="10.00">TBranch.h</text>
</a>
</g>
</g>
<!-- Node3&#45;&gt;Node45 -->
<g id="edge47" class="edge">
<title>Node3&#45;&gt;Node45</title>
<path fill="none" stroke="midnightblue" d="M1367.4,-291.48C1383.17,-281.8 1409.14,-265.87 1427.85,-254.39"/>
<polygon fill="midnightblue" stroke="midnightblue" points="1429.93,-257.22 1436.63,-249.01 1426.27,-251.25 1429.93,-257.22"/>
</g>
<!-- Node68 -->
<g id="node39" class="node">
<title>Node68</title>
<g id="a_node39"><a xlink:title=" ">
<polygon fill="white" stroke="#bfbfbf" points="1499.5,-230 1499.5,-249 1561.5,-249 1561.5,-230 1499.5,-230"/>
<text text-anchor="middle" x="1530.5" y="-237" font-family="Helvetica" font-size="10.00">TLegend.h</text>
</a>
</g>
</g>
<!-- Node3&#45;&gt;Node68 -->
<g id="edge50" class="edge">
<title>Node3&#45;&gt;Node68</title>
<path fill="none" stroke="midnightblue" d="M1380.36,-291.44C1408.04,-282.56 1452.4,-268.16 1490.5,-255 1492.88,-254.18 1495.34,-253.32 1497.81,-252.44"/>
<polygon fill="midnightblue" stroke="midnightblue" points="1499.04,-255.72 1507.28,-249.05 1496.68,-249.13 1499.04,-255.72"/>
</g>
<!-- Node69 -->
<g id="node40" class="node">
<title>Node69</title>
<g id="a_node40"><a xlink:title=" ">
<polygon fill="white" stroke="#bfbfbf" points="1579.5,-230 1579.5,-249 1635.5,-249 1635.5,-230 1579.5,-230"/>
<text text-anchor="middle" x="1607.5" y="-237" font-family="Helvetica" font-size="10.00">TString.h</text>
</a>
</g>
</g>
<!-- Node3&#45;&gt;Node69 -->
<g id="edge51" class="edge">
<title>Node3&#45;&gt;Node69</title>
<path fill="none" stroke="midnightblue" d="M1407.19,-291.47C1451.49,-283.82 1515.73,-271.28 1570.5,-255 1572.93,-254.28 1575.43,-253.46 1577.92,-252.6"/>
<polygon fill="midnightblue" stroke="midnightblue" points="1579.2,-255.86 1587.36,-249.1 1576.77,-249.29 1579.2,-255.86"/>
</g>
<!-- Node70 -->
<g id="node41" class="node">
<title>Node70</title>
<g id="a_node41"><a xlink:title=" ">
<polygon fill="white" stroke="#bfbfbf" points="1653.5,-230 1653.5,-249 1737.5,-249 1737.5,-230 1653.5,-230"/>
<text text-anchor="middle" x="1695.5" y="-237" font-family="Helvetica" font-size="10.00">TGraphErrors.h</text>
</a>
</g>
</g>
<!-- Node3&#45;&gt;Node70 -->
<g id="edge52" class="edge">
<title>Node3&#45;&gt;Node70</title>
<path fill="none" stroke="midnightblue" d="M1419.52,-292.16C1478.78,-284.56 1567.96,-271.73 1644.5,-255 1648.92,-254.03 1653.52,-252.9 1658.07,-251.71"/>
<polygon fill="midnightblue" stroke="midnightblue" points="1659.14,-255.05 1667.87,-249.03 1657.3,-248.29 1659.14,-255.05"/>
</g>
<!-- Node71 -->
<g id="node42" class="node">
<title>Node71</title>
<g id="a_node42"><a xlink:title=" ">
<polygon fill="white" stroke="#bfbfbf" points="1755.5,-230 1755.5,-249 1809.5,-249 1809.5,-230 1755.5,-230"/>
<text text-anchor="middle" x="1782.5" y="-237" font-family="Helvetica" font-size="10.00">TColor.h</text>
</a>
</g>
</g>
<!-- Node3&#45;&gt;Node71 -->
<g id="edge54" class="edge">
<title>Node3&#45;&gt;Node71</title>
<path fill="none" stroke="midnightblue" d="M1419.84,-297.83C1498.77,-294.01 1634,-283.54 1746.5,-255 1749.16,-254.32 1751.89,-253.5 1754.6,-252.58"/>
<polygon fill="midnightblue" stroke="midnightblue" points="1756,-255.79 1764.13,-249 1753.54,-249.24 1756,-255.79"/>
</g>
<!-- Node72 -->
<g id="node43" class="node">
<title>Node72</title>
<g id="a_node43"><a xlink:title=" ">
<polygon fill="white" stroke="#bfbfbf" points="1828,-230 1828,-249 1877,-249 1877,-230 1828,-230"/>
<text text-anchor="middle" x="1852.5" y="-237" font-family="Helvetica" font-size="10.00">TText.h</text>
</a>
</g>
</g>
<!-- Node3&#45;&gt;Node72 -->
<g id="edge57" class="edge">
<title>Node3&#45;&gt;Node72</title>
<path fill="none" stroke="midnightblue" d="M1419.66,-299.92C1510.84,-298.39 1679.59,-290.44 1818.5,-255 1820.86,-254.4 1823.27,-253.66 1825.66,-252.83"/>
<polygon fill="midnightblue" stroke="midnightblue" points="1827.18,-255.99 1835.21,-249.08 1824.62,-249.47 1827.18,-255.99"/>
</g>
<!-- Node73 -->
<g id="node44" class="node">
<title>Node73</title>
<g id="a_node44"><a xlink:title=" ">
<polygon fill="white" stroke="#bfbfbf" points="1895,-230 1895,-249 1952,-249 1952,-230 1895,-230"/>
<text text-anchor="middle" x="1923.5" y="-237" font-family="Helvetica" font-size="10.00">TGaxis.h</text>
</a>
</g>
</g>
<!-- Node3&#45;&gt;Node73 -->
<g id="edge58" class="edge">
<title>Node3&#45;&gt;Node73</title>
<path fill="none" stroke="midnightblue" d="M1419.68,-300.51C1521.39,-299.93 1721.67,-293.4 1886.5,-255 1889.33,-254.34 1892.24,-253.5 1895.12,-252.57"/>
<polygon fill="midnightblue" stroke="midnightblue" points="1896.43,-255.81 1904.63,-249.11 1894.04,-249.23 1896.43,-255.81"/>
</g>
<!-- Node74 -->
<g id="node45" class="node">
<title>Node74</title>
<g id="a_node45"><a xlink:title=" ">
<polygon fill="white" stroke="#bfbfbf" points="1970.5,-230 1970.5,-249 2050.5,-249 2050.5,-230 1970.5,-230"/>
<text text-anchor="middle" x="2010.5" y="-237" font-family="Helvetica" font-size="10.00">TGraphPolar.h</text>
</a>
</g>
</g>
<!-- Node3&#45;&gt;Node74 -->
<g id="edge63" class="edge">
<title>Node3&#45;&gt;Node74</title>
<path fill="none" stroke="midnightblue" d="M1419.76,-299.71C1532.12,-298.2 1766.8,-290.59 1961.5,-255 1966.04,-254.17 1970.76,-253.08 1975.4,-251.87"/>
<polygon fill="midnightblue" stroke="midnightblue" points="1976.64,-255.15 1985.32,-249.07 1974.74,-248.41 1976.64,-255.15"/>
</g>
<!-- Node75 -->
<g id="node46" class="node">
<title>Node75</title>
<g id="a_node46"><a xlink:title=" ">
<polygon fill="white" stroke="#bfbfbf" points="2069,-230 2069,-249 2130,-249 2130,-230 2069,-230"/>
<text text-anchor="middle" x="2099.5" y="-237" font-family="Helvetica" font-size="10.00">TCandle.h</text>
</a>
</g>
</g>
<!-- Node3&#45;&gt;Node75 -->
<g id="edge64" class="edge">
<title>Node3&#45;&gt;Node75</title>
<path fill="none" stroke="midnightblue" d="M1419.68,-298.18C1570.99,-293.62 1938.44,-280.26 2059.5,-255 2062.93,-254.28 2066.46,-253.34 2069.94,-252.27"/>
<polygon fill="midnightblue" stroke="midnightblue" points="2071.14,-255.56 2079.48,-249.02 2068.88,-248.93 2071.14,-255.56"/>
</g>
<!-- Node7 -->
<g id="node7" class="node">
<title>Node7</title>
<g id="a_node7"><a xlink:title=" ">
<polygon fill="white" stroke="#bfbfbf" points="536.5,-168.5 536.5,-187.5 590.5,-187.5 590.5,-168.5 536.5,-168.5"/>
<text text-anchor="middle" x="563.5" y="-175.5" font-family="Helvetica" font-size="10.00">iostream</text>
</a>
</g>
</g>
<!-- Node6&#45;&gt;Node7 -->
<g id="edge6" class="edge">
<title>Node6&#45;&gt;Node7</title>
<path fill="none" stroke="midnightblue" d="M594.34,-229.98C589.05,-221.23 580.66,-207.37 573.97,-196.31"/>
<polygon fill="midnightblue" stroke="midnightblue" points="576.82,-194.25 568.65,-187.51 570.83,-197.88 576.82,-194.25"/>
</g>
<!-- Node8 -->
<g id="node8" class="node">
<title>Node8</title>
<g id="a_node8"><a xlink:title=" ">
<polygon fill="white" stroke="#bfbfbf" points="608.5,-168.5 608.5,-187.5 660.5,-187.5 660.5,-168.5 608.5,-168.5"/>
<text text-anchor="middle" x="634.5" y="-175.5" font-family="Helvetica" font-size="10.00">sstream</text>
</a>
</g>
</g>
<!-- Node6&#45;&gt;Node8 -->
<g id="edge7" class="edge">
<title>Node6&#45;&gt;Node8</title>
<path fill="none" stroke="midnightblue" d="M604.51,-229.98C609.66,-221.23 617.81,-207.37 624.32,-196.31"/>
<polygon fill="midnightblue" stroke="midnightblue" points="627.44,-197.9 629.49,-187.51 621.41,-194.35 627.44,-197.9"/>
</g>
<!-- Node9 -->
<g id="node9" class="node">
<title>Node9</title>
<g id="a_node9"><a xlink:title=" ">
<polygon fill="white" stroke="#bfbfbf" points="270.5,-168.5 270.5,-187.5 320.5,-187.5 320.5,-168.5 270.5,-168.5"/>
<text text-anchor="middle" x="295.5" y="-175.5" font-family="Helvetica" font-size="10.00">iomanip</text>
</a>
</g>
</g>
<!-- Node6&#45;&gt;Node9 -->
<g id="edge8" class="edge">
<title>Node6&#45;&gt;Node9</title>
<path fill="none" stroke="midnightblue" d="M556.47,-229.98C546.32,-227.99 535.53,-225.9 525.5,-224 441.54,-208.06 417.6,-207.38 330.48,-188.09"/>
<polygon fill="midnightblue" stroke="midnightblue" points="331.22,-184.67 320.7,-185.9 329.69,-191.5 331.22,-184.67"/>
</g>
<!-- Node10 -->
<g id="node10" class="node">
<title>Node10</title>
<g id="a_node10"><a xlink:title=" ">
<polygon fill="white" stroke="#bfbfbf" points="339,-168.5 339,-187.5 382,-187.5 382,-168.5 339,-168.5"/>
<text text-anchor="middle" x="360.5" y="-175.5" font-family="Helvetica" font-size="10.00">vector</text>
</a>
</g>
</g>
<!-- Node6&#45;&gt;Node10 -->
<g id="edge9" class="edge">
<title>Node6&#45;&gt;Node10</title>
<path fill="none" stroke="midnightblue" d="M562.18,-229.96C522.4,-220.75 457.38,-205.36 391.82,-187.99"/>
<polygon fill="midnightblue" stroke="midnightblue" points="392.71,-184.61 382.15,-185.42 390.91,-191.37 392.71,-184.61"/>
</g>
<!-- Node11 -->
<g id="node11" class="node">
<title>Node11</title>
<g id="a_node11"><a xlink:title=" ">
<polygon fill="white" stroke="#bfbfbf" points="400.5,-168.5 400.5,-187.5 456.5,-187.5 456.5,-168.5 400.5,-168.5"/>
<text text-anchor="middle" x="428.5" y="-175.5" font-family="Helvetica" font-size="10.00">algorithm</text>
</a>
</g>
</g>
<!-- Node6&#45;&gt;Node11 -->
<g id="edge10" class="edge">
<title>Node6&#45;&gt;Node11</title>
<path fill="none" stroke="midnightblue" d="M575,-229.98C545.54,-219.72 495.92,-202.46 462.7,-190.9"/>
<polygon fill="midnightblue" stroke="midnightblue" points="463.55,-187.49 452.95,-187.51 461.25,-194.1 463.55,-187.49"/>
</g>
<!-- Node12 -->
<g id="node12" class="node">
<title>Node12</title>
<g id="a_node12"><a xlink:title=" ">
<polygon fill="white" stroke="#bfbfbf" points="474.5,-168.5 474.5,-187.5 518.5,-187.5 518.5,-168.5 474.5,-168.5"/>
<text text-anchor="middle" x="496.5" y="-175.5" font-family="Helvetica" font-size="10.00">cmath</text>
</a>
</g>
</g>
<!-- Node6&#45;&gt;Node12 -->
<g id="edge11" class="edge">
<title>Node6&#45;&gt;Node12</title>
<path fill="none" stroke="midnightblue" d="M584.74,-229.98C567.84,-220.21 539.92,-204.08 520.01,-192.58"/>
<polygon fill="midnightblue" stroke="midnightblue" points="521.64,-189.48 511.23,-187.51 518.14,-195.54 521.64,-189.48"/>
</g>
<!-- Node13 -->
<g id="node13" class="node">
<title>Node13</title>
<g id="a_node13"><a xlink:href="Manager_8h.html" target="_top" xlink:title=" ">
<polygon fill="white" stroke="red" points="149,-168.5 149,-187.5 252,-187.5 252,-168.5 149,-168.5"/>
<text text-anchor="middle" x="200.5" y="-175.5" font-family="Helvetica" font-size="10.00">Manager/Manager.h</text>
</a>
</g>
</g>
<!-- Node6&#45;&gt;Node13 -->
<g id="edge12" class="edge">
<title>Node6&#45;&gt;Node13</title>
<path fill="none" stroke="midnightblue" d="M558.09,-229.95C547.49,-227.88 536.09,-225.76 525.5,-224 411.87,-205.14 380.45,-204.66 262.26,-188.09"/>
<polygon fill="midnightblue" stroke="midnightblue" points="262.47,-184.58 252.08,-186.65 261.49,-191.51 262.47,-184.58"/>
</g>
<!-- Node6&#45;&gt;Node48 -->
<g id="edge19" class="edge">
<title>Node6&#45;&gt;Node48</title>
<path fill="none" stroke="midnightblue" d="M559.68,-229.94C548.65,-227.77 536.64,-225.61 525.5,-224 358.21,-199.87 312.54,-206.15 141.37,-188.17"/>
<polygon fill="midnightblue" stroke="midnightblue" points="141.57,-184.67 131.26,-187.09 140.83,-191.63 141.57,-184.67"/>
</g>
<!-- Node6&#45;&gt;Node50 -->
<g id="edge24" class="edge">
<title>Node6&#45;&gt;Node50</title>
<path fill="none" stroke="midnightblue" d="M615.4,-229.98C633.78,-220.12 664.26,-203.79 685.74,-192.27"/>
<polygon fill="midnightblue" stroke="midnightblue" points="687.47,-195.32 694.63,-187.51 684.16,-189.15 687.47,-195.32"/>
</g>
<!-- Node6&#45;&gt;Node51 -->
<g id="edge25" class="edge">
<title>Node6&#45;&gt;Node51</title>
<path fill="none" stroke="midnightblue" d="M626.01,-229.98C658.7,-219.46 714.35,-201.56 750.25,-190.02"/>
<polygon fill="midnightblue" stroke="midnightblue" points="751.37,-193.33 759.82,-186.94 749.23,-186.67 751.37,-193.33"/>
</g>
<!-- Node6&#45;&gt;Node52 -->
<g id="edge26" class="edge">
<title>Node6&#45;&gt;Node52</title>
<path fill="none" stroke="midnightblue" d="M636.32,-229.98C684.4,-218.85 768.19,-199.45 817.37,-188.06"/>
<polygon fill="midnightblue" stroke="midnightblue" points="818.36,-191.42 827.32,-185.76 816.79,-184.6 818.36,-191.42"/>
</g>
<!-- Node6&#45;&gt;Node53 -->
<g id="edge27" class="edge">
<title>Node6&#45;&gt;Node53</title>
<path fill="none" stroke="midnightblue" d="M656.85,-230C714.31,-221.18 805.5,-206.39 893.89,-187.99"/>
<polygon fill="midnightblue" stroke="midnightblue" points="894.75,-191.39 903.82,-185.91 893.31,-184.54 894.75,-191.39"/>
</g>
<!-- Node14 -->
<g id="node14" class="node">
<title>Node14</title>
<g id="a_node14"><a xlink:href="SampleStructs_8h.html" target="_top" xlink:title=" ">
<polygon fill="white" stroke="red" points="135,-112.5 135,-131.5 266,-131.5 266,-112.5 135,-112.5"/>
<text text-anchor="middle" x="200.5" y="-119.5" font-family="Helvetica" font-size="10.00">Samples/SampleStructs.h</text>
</a>
</g>
</g>
<!-- Node13&#45;&gt;Node14 -->
<g id="edge13" class="edge">
<title>Node13&#45;&gt;Node14</title>
<path fill="none" stroke="midnightblue" d="M200.5,-168.08C200.5,-161.01 200.5,-150.86 200.5,-141.99"/>
<polygon fill="midnightblue" stroke="midnightblue" points="204,-141.75 200.5,-131.75 197,-141.75 204,-141.75"/>
</g>
<!-- Node28 -->
<g id="node15" class="node">
<title>Node28</title>
<g id="a_node15"><a xlink:href="ParameterStructs_8h.html" target="_top" xlink:title="Definitions of generic parameter structs and utility templates for MaCh3.">
<polygon fill="white" stroke="red" points="248,-56.5 248,-75.5 403,-75.5 403,-56.5 248,-56.5"/>
<text text-anchor="middle" x="325.5" y="-63.5" font-family="Helvetica" font-size="10.00">Parameters/ParameterStructs.h</text>
</a>
</g>
</g>
<!-- Node14&#45;&gt;Node28 -->
<g id="edge14" class="edge">
<title>Node14&#45;&gt;Node28</title>
<path fill="none" stroke="midnightblue" d="M220.31,-112.44C240.79,-103.6 272.98,-89.69 296.36,-79.59"/>
<polygon fill="midnightblue" stroke="midnightblue" points="297.99,-82.7 305.79,-75.52 295.22,-76.27 297.99,-82.7"/>
</g>
<!-- Node30 -->
<g id="node16" class="node">
<title>Node30</title>
<g id="a_node16"><a xlink:title=" ">
<polygon fill="white" stroke="#bfbfbf" points="146,-0.5 146,-19.5 217,-19.5 217,-0.5 146,-0.5"/>
<text text-anchor="middle" x="181.5" y="-7.5" font-family="Helvetica" font-size="10.00">TObjString.h</text>
</a>
</g>
</g>
<!-- Node14&#45;&gt;Node30 -->
<g id="edge17" class="edge">
<title>Node14&#45;&gt;Node30</title>
<path fill="none" stroke="midnightblue" d="M199.01,-112.37C195.94,-94.62 188.87,-53.67 184.71,-29.6"/>
<polygon fill="midnightblue" stroke="midnightblue" points="188.14,-28.85 182.98,-19.59 181.24,-30.04 188.14,-28.85"/>
</g>
<!-- Node14&#45;&gt;Node31 -->
<g id="edge18" class="edge">
<title>Node14&#45;&gt;Node31</title>
<path fill="none" stroke="midnightblue" d="M202.75,-112.49C207.03,-98.13 217.84,-69.31 238.5,-56 304.89,-13.23 550.24,-10.23 640.71,-10.63"/>
<polygon fill="midnightblue" stroke="midnightblue" points="640.93,-14.13 650.95,-10.69 640.97,-7.13 640.93,-14.13"/>
</g>
<!-- Node28&#45;&gt;Node30 -->
<g id="edge15" class="edge">
<title>Node28&#45;&gt;Node30</title>
<path fill="none" stroke="midnightblue" d="M302.68,-56.44C278.67,-47.44 240.67,-33.19 213.63,-23.05"/>
<polygon fill="midnightblue" stroke="midnightblue" points="214.8,-19.75 204.21,-19.52 212.34,-26.3 214.8,-19.75"/>
</g>
<!-- Node28&#45;&gt;Node31 -->
<g id="edge16" class="edge">
<title>Node28&#45;&gt;Node31</title>
<path fill="none" stroke="midnightblue" d="M380.8,-56.44C453.87,-45.14 580.36,-25.57 640.65,-16.24"/>
<polygon fill="midnightblue" stroke="midnightblue" points="641.42,-19.66 650.77,-14.67 640.35,-12.74 641.42,-19.66"/>
</g>
<!-- Node48&#45;&gt;Node14 -->
<g id="edge20" class="edge">
<title>Node48&#45;&gt;Node14</title>
<path fill="none" stroke="midnightblue" d="M86.89,-168.44C109.21,-159.52 144.4,-145.44 169.71,-135.32"/>
<polygon fill="midnightblue" stroke="midnightblue" points="171.22,-138.48 179.21,-131.52 168.62,-131.98 171.22,-138.48"/>
</g>
<!-- Node48&#45;&gt;Node28 -->
<g id="edge21" class="edge">
<title>Node48&#45;&gt;Node28</title>
<path fill="none" stroke="midnightblue" d="M127.06,-168.48C179.56,-160.36 250.27,-147.15 274.5,-132 293.06,-120.4 307.61,-99.54 316.34,-84.57"/>
<polygon fill="midnightblue" stroke="midnightblue" points="319.44,-86.19 321.22,-75.75 313.32,-82.81 319.44,-86.19"/>
</g>
<!-- Node48&#45;&gt;Node30 -->
<g id="edge22" class="edge">
<title>Node48&#45;&gt;Node30</title>
<path fill="none" stroke="midnightblue" d="M71.74,-168.08C90.23,-141.61 145.02,-63.21 169.47,-28.21"/>
<polygon fill="midnightblue" stroke="midnightblue" points="172.65,-29.77 175.51,-19.57 166.92,-25.76 172.65,-29.77"/>
</g>
<!-- Node48&#45;&gt;Node49 -->
<g id="edge23" class="edge">
<title>Node48&#45;&gt;Node49</title>
<path fill="none" stroke="midnightblue" d="M131.24,-168.78C134.03,-168.5 136.79,-168.24 139.5,-168 433.45,-142.09 788.07,-128.66 913.13,-124.47"/>
<polygon fill="midnightblue" stroke="midnightblue" points="913.59,-127.95 923.47,-124.13 913.36,-120.96 913.59,-127.95"/>
</g>
<!-- Node54&#45;&gt;Node28 -->
<g id="edge30" class="edge">
<title>Node54&#45;&gt;Node28</title>
<path fill="none" stroke="midnightblue" d="M1204.36,-224.42C1194.6,-208.67 1176.85,-183.34 1155.5,-168 1097.37,-126.24 1074.5,-126.97 1004.5,-112 894.14,-88.4 570.32,-74.96 413.12,-69.66"/>
<polygon fill="midnightblue" stroke="midnightblue" points="413.12,-66.16 403.01,-69.33 412.89,-73.16 413.12,-66.16"/>
</g>
<!-- Node54&#45;&gt;Node31 -->
<g id="edge38" class="edge">
<title>Node54&#45;&gt;Node31</title>
<path fill="none" stroke="midnightblue" d="M1208.11,-224.46C1202.94,-209.42 1193.27,-185.37 1179.5,-168 1129.56,-105.02 1111.67,-86.97 1037.5,-56 978.39,-31.31 786.98,-17.59 708.52,-12.88"/>
<polygon fill="midnightblue" stroke="midnightblue" points="708.41,-9.37 698.22,-12.27 708,-16.36 708.41,-9.37"/>
</g>
<!-- Node54&#45;&gt;Node49 -->
<g id="edge39" class="edge">
<title>Node54&#45;&gt;Node49</title>
<path fill="none" stroke="midnightblue" d="M1199.23,-224.49C1183.37,-208.56 1155.34,-182.83 1126.5,-168 1088.1,-148.25 1040.14,-136.49 1005.49,-129.98"/>
<polygon fill="midnightblue" stroke="midnightblue" points="1006.1,-126.53 995.63,-128.2 1004.85,-133.42 1006.1,-126.53"/>
</g>
<!-- Node55 -->
<g id="node25" class="node">
<title>Node55</title>
<g id="a_node25"><a xlink:title=" ">
<polygon fill="white" stroke="#bfbfbf" points="1250,-168.5 1250,-187.5 1313,-187.5 1313,-168.5 1250,-168.5"/>
<text text-anchor="middle" x="1281.5" y="-175.5" font-family="Helvetica" font-size="10.00">TMatrixT.h</text>
</a>
</g>
</g>
<!-- Node54&#45;&gt;Node55 -->
<g id="edge31" class="edge">
<title>Node54&#45;&gt;Node55</title>
<path fill="none" stroke="midnightblue" d="M1228.85,-224.4C1239.4,-215.31 1253.1,-203.49 1263.88,-194.19"/>
<polygon fill="midnightblue" stroke="midnightblue" points="1266.17,-196.84 1271.46,-187.66 1261.6,-191.54 1266.17,-196.84"/>
</g>
<!-- Node56 -->
<g id="node26" class="node">
<title>Node56</title>
<g id="a_node26"><a xlink:title=" ">
<polygon fill="white" stroke="#bfbfbf" points="1331.5,-168.5 1331.5,-187.5 1417.5,-187.5 1417.5,-168.5 1331.5,-168.5"/>
<text text-anchor="middle" x="1374.5" y="-175.5" font-family="Helvetica" font-size="10.00">TMatrixDSym.h</text>
</a>
</g>
</g>
<!-- Node54&#45;&gt;Node56 -->
<g id="edge32" class="edge">
<title>Node54&#45;&gt;Node56</title>
<path fill="none" stroke="midnightblue" d="M1250.89,-224.4C1278.44,-214.28 1315.17,-200.79 1341.42,-191.15"/>
<polygon fill="midnightblue" stroke="midnightblue" points="1342.75,-194.39 1350.93,-187.66 1340.33,-187.82 1342.75,-194.39"/>
</g>
<!-- Node57 -->
<g id="node27" class="node">
<title>Node57</title>
<g id="a_node27"><a xlink:title=" ">
<polygon fill="white" stroke="#bfbfbf" points="1435.5,-168.5 1435.5,-187.5 1499.5,-187.5 1499.5,-168.5 1435.5,-168.5"/>
<text text-anchor="middle" x="1467.5" y="-175.5" font-family="Helvetica" font-size="10.00">TVectorT.h</text>
</a>
</g>
</g>
<!-- Node54&#45;&gt;Node57 -->
<g id="edge33" class="edge">
<title>Node54&#45;&gt;Node57</title>
<path fill="none" stroke="midnightblue" d="M1272.61,-224.47C1319.67,-213.49 1383.93,-198.5 1425.57,-188.78"/>
<polygon fill="midnightblue" stroke="midnightblue" points="1426.45,-192.17 1435.39,-186.49 1424.86,-185.36 1426.45,-192.17"/>
</g>
<!-- Node54&#45;&gt;Node58 -->
<g id="edge34" class="edge">
<title>Node54&#45;&gt;Node58</title>
<path fill="none" stroke="midnightblue" d="M1182.17,-224.4C1160.98,-214.55 1132.91,-201.5 1112.3,-191.92"/>
<polygon fill="midnightblue" stroke="midnightblue" points="1113.67,-188.7 1103.13,-187.66 1110.72,-195.05 1113.67,-188.7"/>
</g>
<!-- Node59 -->
<g id="node29" class="node">
<title>Node59</title>
<g id="a_node29"><a xlink:title=" ">
<polygon fill="white" stroke="#bfbfbf" points="1518,-168.5 1518,-187.5 1569,-187.5 1569,-168.5 1518,-168.5"/>
<text text-anchor="middle" x="1543.5" y="-175.5" font-family="Helvetica" font-size="10.00">TH1D.h</text>
</a>
</g>
</g>
<!-- Node54&#45;&gt;Node59 -->
<g id="edge35" class="edge">
<title>Node54&#45;&gt;Node59</title>
<path fill="none" stroke="midnightblue" d="M1287.23,-226.08C1360.82,-213.8 1466.97,-195.95 1508.14,-187.85"/>
<polygon fill="midnightblue" stroke="midnightblue" points="1508.85,-191.27 1517.94,-185.83 1507.44,-184.42 1508.85,-191.27"/>
</g>
<!-- Node60 -->
<g id="node30" class="node">
<title>Node60</title>
<g id="a_node30"><a xlink:title=" ">
<polygon fill="white" stroke="#bfbfbf" points="1587,-168.5 1587,-187.5 1638,-187.5 1638,-168.5 1587,-168.5"/>
<text text-anchor="middle" x="1612.5" y="-175.5" font-family="Helvetica" font-size="10.00">TH2D.h</text>
</a>
</g>
</g>
<!-- Node54&#45;&gt;Node60 -->
<g id="edge36" class="edge">
<title>Node54&#45;&gt;Node60</title>
<path fill="none" stroke="midnightblue" d="M1287.25,-226.14C1292.07,-225.4 1296.85,-224.68 1301.5,-224 1421.1,-206.49 1454.91,-211.64 1576.86,-188.11"/>
<polygon fill="midnightblue" stroke="midnightblue" points="1577.82,-191.49 1586.96,-186.14 1576.48,-184.62 1577.82,-191.49"/>
</g>
<!-- Node54&#45;&gt;Node44 -->
<g id="edge37" class="edge">
<title>Node54&#45;&gt;Node44</title>
<path fill="none" stroke="midnightblue" d="M1287.21,-225.81C1292.04,-225.15 1296.83,-224.54 1301.5,-224 1531.85,-197.44 1595.62,-225.45 1828.24,-187.88"/>
<polygon fill="midnightblue" stroke="midnightblue" points="1829.06,-191.3 1838.36,-186.23 1827.93,-184.39 1829.06,-191.3"/>
</g>
<!-- Node54&#45;&gt;Node61 -->
<g id="edge40" class="edge">
<title>Node54&#45;&gt;Node61</title>
<path fill="none" stroke="midnightblue" d="M1287.32,-229.34C1304.45,-227.41 1322.59,-225.51 1339.5,-224 1583.77,-202.19 1650.21,-225.66 1896.89,-187.78"/>
<polygon fill="midnightblue" stroke="midnightblue" points="1897.53,-191.22 1906.87,-186.23 1896.45,-184.3 1897.53,-191.22"/>
</g>
<!-- Node62 -->
<g id="node33" class="node">
<title>Node62</title>
<g id="a_node33"><a xlink:title=" ">
<polygon fill="white" stroke="#bfbfbf" points="1656.5,-168.5 1656.5,-187.5 1744.5,-187.5 1744.5,-168.5 1656.5,-168.5"/>
<text text-anchor="middle" x="1700.5" y="-175.5" font-family="Helvetica" font-size="10.00">TDecompChol.h</text>
</a>
</g>
</g>
<!-- Node54&#45;&gt;Node62 -->
<g id="edge41" class="edge">
<title>Node54&#45;&gt;Node62</title>
<path fill="none" stroke="midnightblue" d="M1287.24,-226C1292.06,-225.3 1296.84,-224.62 1301.5,-224 1451.46,-204 1492.57,-208.73 1646.01,-188.12"/>
<polygon fill="midnightblue" stroke="midnightblue" points="1646.85,-191.54 1656.29,-186.73 1645.91,-184.6 1646.85,-191.54"/>
</g>
<!-- Node54&#45;&gt;Node47 -->
<g id="edge42" class="edge">
<title>Node54&#45;&gt;Node47</title>
<path fill="none" stroke="midnightblue" d="M1287.21,-231.51C1315.48,-228.97 1347.96,-226.2 1377.5,-224 1637.03,-204.71 1706.21,-220.44 1967.65,-188.08"/>
<polygon fill="midnightblue" stroke="midnightblue" points="1968.35,-191.53 1977.83,-186.81 1967.48,-184.58 1968.35,-191.53"/>
</g>
<!-- Node63 -->
<g id="node35" class="node">
<title>Node63</title>
<g id="a_node35"><a xlink:title=" ">
<polygon fill="white" stroke="#bfbfbf" points="1763,-168.5 1763,-187.5 1820,-187.5 1820,-168.5 1763,-168.5"/>
<text text-anchor="middle" x="1791.5" y="-175.5" font-family="Helvetica" font-size="10.00">TMatrix.h</text>
</a>
</g>
</g>
<!-- Node54&#45;&gt;Node63 -->
<g id="edge43" class="edge">
<title>Node54&#45;&gt;Node63</title>
<path fill="none" stroke="midnightblue" d="M1287.22,-225.87C1292.05,-225.2 1296.84,-224.56 1301.5,-224 1498.34,-200.17 1552.68,-218.7 1753,-187.81"/>
<polygon fill="midnightblue" stroke="midnightblue" points="1753.62,-191.26 1762.96,-186.25 1752.54,-184.34 1753.62,-191.26"/>
</g>
<!-- Node54&#45;&gt;Node64 -->
<g id="edge44" class="edge">
<title>Node54&#45;&gt;Node64</title>
<path fill="none" stroke="midnightblue" d="M1287.23,-232.71C1324.29,-229.91 1369.74,-226.61 1410.5,-224 1701.01,-205.37 1774.46,-212.91 2064.5,-188 2068.39,-187.67 2072.38,-187.29 2076.41,-186.89"/>
<polygon fill="midnightblue" stroke="midnightblue" points="2076.86,-190.36 2086.44,-185.85 2076.13,-183.4 2076.86,-190.36"/>
</g>
<!-- Node54&#45;&gt;Node67 -->
<g id="edge45" class="edge">
<title>Node54&#45;&gt;Node67</title>
<path fill="none" stroke="midnightblue" d="M1287.21,-232.53C1324.28,-229.7 1369.73,-226.42 1410.5,-224 1763.58,-203.08 1854.01,-227.42 2205.5,-188 2210.79,-187.41 2216.36,-186.59 2221.79,-185.7"/>
<polygon fill="midnightblue" stroke="midnightblue" points="2222.7,-189.09 2231.94,-183.91 2221.48,-182.2 2222.7,-189.09"/>
</g>
</g>
</svg>
