<?xml version="1.0" encoding="UTF-8" standalone="no"?>
<!DOCTYPE svg PUBLIC "-//W3C//DTD SVG 1.1//EN"
 "http://www.w3.org/Graphics/SVG/1.1/DTD/svg11.dtd">
<!-- Generated by graphviz version 2.43.0 (0)
 -->
<!-- Title: Parameters/ParameterHandlerGeneric.cpp Pages: 1 -->
<svg width="2200pt" height="621pt"
 viewBox="0.00 0.00 2200.17 621.00" xmlns="http://www.w3.org/2000/svg" xmlns:xlink="http://www.w3.org/1999/xlink">
<g id="graph0" class="graph" transform="scale(1 1) rotate(0) translate(4 617)">
<title>Parameters/ParameterHandlerGeneric.cpp</title>
<!-- Node1 -->
<g id="node1" class="node">
<title>Node1</title>
<g id="a_node1"><a xlink:title=" ">
<polygon fill="#999999" stroke="#666666" points="1281,-613 1117,-613 1117,-583 1281,-583 1281,-613"/>
<text text-anchor="start" x="1125" y="-601" font-family="Helvetica,sans-Serif" font-size="10.00">Parameters/ParameterHandler</text>
<text text-anchor="middle" x="1199" y="-590" font-family="Helvetica,sans-Serif" font-size="10.00">Generic.cpp</text>
</a>
</g>
</g>
<!-- Node2 -->
<g id="node2" class="node">
<title>Node2</title>
<g id="a_node2"><a xlink:href="ParameterHandlerGeneric_8h.html" target="_top" xlink:title=" ">
<polygon fill="white" stroke="#666666" points="1281,-547 1117,-547 1117,-517 1281,-517 1281,-547"/>
<text text-anchor="start" x="1125" y="-535" font-family="Helvetica,sans-Serif" font-size="10.00">Parameters/ParameterHandler</text>
<text text-anchor="middle" x="1199" y="-524" font-family="Helvetica,sans-Serif" font-size="10.00">Generic.h</text>
</a>
</g>
</g>
<!-- Node1&#45;&gt;Node2 -->
<g id="edge1" class="edge">
<title>Node1&#45;&gt;Node2</title>
<path fill="none" stroke="#63b8ff" d="M1199,-582.8C1199,-575.34 1199,-565.99 1199,-557.41"/>
<polygon fill="#63b8ff" stroke="#63b8ff" points="1202.5,-557.16 1199,-547.16 1195.5,-557.16 1202.5,-557.16"/>
</g>
<!-- Node3 -->
<g id="node3" class="node">
<title>Node3</title>
<g id="a_node3"><a xlink:href="ParameterHandlerBase_8h.html" target="_top" xlink:title=" ">
<polygon fill="white" stroke="#666666" points="1207,-481 1043,-481 1043,-451 1207,-451 1207,-481"/>
<text text-anchor="start" x="1051" y="-469" font-family="Helvetica,sans-Serif" font-size="10.00">Parameters/ParameterHandler</text>
<text text-anchor="middle" x="1125" y="-458" font-family="Helvetica,sans-Serif" font-size="10.00">Base.h</text>
</a>
</g>
</g>
<!-- Node2&#45;&gt;Node3 -->
<g id="edge2" class="edge">
<title>Node2&#45;&gt;Node3</title>
<path fill="none" stroke="#63b8ff" d="M1182.58,-516.8C1172.71,-508.26 1159.98,-497.25 1149,-487.75"/>
<polygon fill="#63b8ff" stroke="#63b8ff" points="1151.23,-485.06 1141.38,-481.16 1146.65,-490.35 1151.23,-485.06"/>
</g>
<!-- Node5 -->
<g id="node5" class="node">
<title>Node5</title>
<g id="a_node5"><a xlink:href="SampleStructs_8h.html" target="_top" xlink:title=" ">
<polygon fill="white" stroke="#666666" points="2177.5,-239 2036.5,-239 2036.5,-220 2177.5,-220 2177.5,-239"/>
<text text-anchor="middle" x="2107" y="-227" font-family="Helvetica,sans-Serif" font-size="10.00">Samples/SampleStructs.h</text>
</a>
</g>
</g>
<!-- Node2&#45;&gt;Node5 -->
<g id="edge92" class="edge">
<title>Node2&#45;&gt;Node5</title>
<path fill="none" stroke="#63b8ff" d="M1281.1,-526.43C1481.62,-514.19 1980,-476.7 1980,-406.5 1980,-406.5 1980,-406.5 1980,-349.5 1980,-297.22 2038.02,-261.24 2075.63,-243.42"/>
<polygon fill="#63b8ff" stroke="#63b8ff" points="2077.52,-246.41 2085.17,-239.08 2074.62,-240.04 2077.52,-246.41"/>
</g>
<!-- Node4 -->
<g id="node4" class="node">
<title>Node4</title>
<g id="a_node4"><a xlink:href="Manager_8h.html" target="_top" xlink:title=" ">
<polygon fill="white" stroke="#666666" points="803.5,-360 690.5,-360 690.5,-341 803.5,-341 803.5,-360"/>
<text text-anchor="middle" x="747" y="-348" font-family="Helvetica,sans-Serif" font-size="10.00">Manager/Manager.h</text>
</a>
</g>
</g>
<!-- Node3&#45;&gt;Node4 -->
<g id="edge3" class="edge">
<title>Node3&#45;&gt;Node4</title>
<path fill="none" stroke="#63b8ff" d="M1042.97,-459.88C937.17,-452.43 764.33,-437.04 745,-415 734.34,-402.84 736.54,-383.78 740.38,-369.71"/>
<polygon fill="#63b8ff" stroke="#63b8ff" points="743.73,-370.71 743.44,-360.12 737.06,-368.58 743.73,-370.71"/>
</g>
<!-- Node43 -->
<g id="node33" class="node">
<title>Node43</title>
<g id="a_node33"><a xlink:href="ParameterHandlerUtils_8h.html" target="_top" xlink:title=" ">
<polygon fill="white" stroke="#666666" points="1292,-305 1128,-305 1128,-275 1292,-275 1292,-305"/>
<text text-anchor="start" x="1136" y="-293" font-family="Helvetica,sans-Serif" font-size="10.00">Parameters/ParameterHandler</text>
<text text-anchor="middle" x="1210" y="-282" font-family="Helvetica,sans-Serif" font-size="10.00">Utils.h</text>
</a>
</g>
</g>
<!-- Node3&#45;&gt;Node43 -->
<g id="edge53" class="edge">
<title>Node3&#45;&gt;Node43</title>
<path fill="none" stroke="#63b8ff" d="M1207.19,-451.3C1246.78,-442.86 1288.2,-430.64 1300,-415 1327.39,-378.68 1278.03,-335.55 1242.23,-310.92"/>
<polygon fill="#63b8ff" stroke="#63b8ff" points="1243.74,-307.72 1233.48,-305.07 1239.85,-313.54 1243.74,-307.72"/>
</g>
<!-- Node58 -->
<g id="node48" class="node">
<title>Node58</title>
<g id="a_node48"><a xlink:href="AdaptiveMCMCHandler_8h.html" target="_top" xlink:title=" ">
<polygon fill="white" stroke="#666666" points="951.5,-415 754.5,-415 754.5,-396 951.5,-396 951.5,-415"/>
<text text-anchor="middle" x="853" y="-403" font-family="Helvetica,sans-Serif" font-size="10.00">Parameters/AdaptiveMCMCHandler.h</text>
</a>
</g>
</g>
<!-- Node3&#45;&gt;Node58 -->
<g id="edge83" class="edge">
<title>Node3&#45;&gt;Node58</title>
<path fill="none" stroke="#63b8ff" d="M1059.85,-450.99C1011.59,-440.61 946.81,-426.68 902.69,-417.19"/>
<polygon fill="#63b8ff" stroke="#63b8ff" points="903.28,-413.73 892.77,-415.05 901.81,-420.58 903.28,-413.73"/>
</g>
<!-- Node59 -->
<g id="node49" class="node">
<title>Node59</title>
<g id="a_node49"><a xlink:href="PCAHandler_8h.html" target="_top" xlink:title=" ">
<polygon fill="white" stroke="#666666" points="1110.5,-415 969.5,-415 969.5,-396 1110.5,-396 1110.5,-415"/>
<text text-anchor="middle" x="1040" y="-403" font-family="Helvetica,sans-Serif" font-size="10.00">Parameters/PCAHandler.h</text>
</a>
</g>
</g>
<!-- Node3&#45;&gt;Node59 -->
<g id="edge86" class="edge">
<title>Node3&#45;&gt;Node59</title>
<path fill="none" stroke="#63b8ff" d="M1104.42,-450.84C1091.33,-441.83 1074.41,-430.18 1061.2,-421.09"/>
<polygon fill="#63b8ff" stroke="#63b8ff" points="1062.96,-418.05 1052.74,-415.27 1058.99,-423.82 1062.96,-418.05"/>
</g>
<!-- Node60 -->
<g id="node50" class="node">
<title>Node60</title>
<g id="a_node50"><a xlink:href="ParameterTunes_8h.html" target="_top" xlink:title=" ">
<polygon fill="white" stroke="#666666" points="1291,-415 1129,-415 1129,-396 1291,-396 1291,-415"/>
<text text-anchor="middle" x="1210" y="-403" font-family="Helvetica,sans-Serif" font-size="10.00">Parameters/ParameterTunes.h</text>
</a>
</g>
</g>
<!-- Node3&#45;&gt;Node60 -->
<g id="edge89" class="edge">
<title>Node3&#45;&gt;Node60</title>
<path fill="none" stroke="#63b8ff" d="M1145.58,-450.84C1158.67,-441.83 1175.59,-430.18 1188.8,-421.09"/>
<polygon fill="#63b8ff" stroke="#63b8ff" points="1191.01,-423.82 1197.26,-415.27 1187.04,-418.05 1191.01,-423.82"/>
</g>
<!-- Node4&#45;&gt;Node5 -->
<g id="edge4" class="edge">
<title>Node4&#45;&gt;Node5</title>
<path fill="none" stroke="#63b8ff" d="M803.64,-345.15C903.93,-337.4 1119.3,-320.56 1301,-305 1620.51,-277.65 1702.88,-270.92 2026.21,-239.07"/>
<polygon fill="#63b8ff" stroke="#63b8ff" points="2026.73,-242.53 2036.34,-238.07 2026.04,-235.56 2026.73,-242.53"/>
</g>
<!-- Node9 -->
<g id="node9" class="node">
<title>Node9</title>
<g id="a_node9"><a xlink:href="MaCh3Exception_8h.html" target="_top" xlink:title=" ">
<polygon fill="white" stroke="#666666" points="503.5,-184 350.5,-184 350.5,-165 503.5,-165 503.5,-184"/>
<text text-anchor="middle" x="427" y="-172" font-family="Helvetica,sans-Serif" font-size="10.00">Manager/MaCh3Exception.h</text>
</a>
</g>
</g>
<!-- Node4&#45;&gt;Node9 -->
<g id="edge52" class="edge">
<title>Node4&#45;&gt;Node9</title>
<path fill="none" stroke="#63b8ff" d="M721.07,-340.9C674.46,-324.82 574.35,-287.4 499,-239 477.66,-225.3 456.26,-205.45 442.4,-191.61"/>
<polygon fill="#63b8ff" stroke="#63b8ff" points="444.67,-188.93 435.17,-184.24 439.68,-193.83 444.67,-188.93"/>
</g>
<!-- Node31 -->
<g id="node29" class="node">
<title>Node31</title>
<g id="a_node29"><a xlink:href="YamlHelper_8h.html" target="_top" xlink:title="Utility functions for handling YAML nodes.">
<polygon fill="#fff0f0" stroke="red" points="268,-239 142,-239 142,-220 268,-220 268,-239"/>
<text text-anchor="middle" x="205" y="-227" font-family="Helvetica,sans-Serif" font-size="10.00">Manager/YamlHelper.h</text>
</a>
</g>
</g>
<!-- Node4&#45;&gt;Node31 -->
<g id="edge35" class="edge">
<title>Node4&#45;&gt;Node31</title>
<path fill="none" stroke="#63b8ff" d="M690.23,-350.11C577.76,-350.39 331.28,-346.12 259,-305 236.72,-292.32 221.15,-266.26 212.63,-248.57"/>
<polygon fill="#63b8ff" stroke="#63b8ff" points="215.75,-246.97 208.44,-239.3 209.37,-249.85 215.75,-246.97"/>
</g>
<!-- Node37 -->
<g id="node30" class="node">
<title>Node37</title>
<g id="a_node30"><a xlink:href="Monitor_8h.html" target="_top" xlink:title="System and monitoring utilities for printing system information and status updates.">
<polygon fill="#fff0f0" stroke="red" points="376,-299.5 268,-299.5 268,-280.5 376,-280.5 376,-299.5"/>
<text text-anchor="middle" x="322" y="-287.5" font-family="Helvetica,sans-Serif" font-size="10.00">Manager/Monitor.h</text>
</a>
</g>
</g>
<!-- Node4&#45;&gt;Node37 -->
<g id="edge42" class="edge">
<title>Node4&#45;&gt;Node37</title>
<path fill="none" stroke="#63b8ff" d="M690.12,-341.67C611.2,-330.81 468.86,-311.22 386.21,-299.84"/>
<polygon fill="#63b8ff" stroke="#63b8ff" points="386.57,-296.36 376.19,-298.46 385.62,-303.29 386.57,-296.36"/>
</g>
<!-- Node6 -->
<g id="node6" class="node">
<title>Node6</title>
<g id="a_node6"><a xlink:title=" ">
<polygon fill="#e0e0e0" stroke="#999999" points="1545,-184 1513,-184 1513,-165 1545,-165 1545,-184"/>
<text text-anchor="middle" x="1529" y="-172" font-family="Helvetica,sans-Serif" font-size="10.00">set</text>
</a>
</g>
</g>
<!-- Node5&#45;&gt;Node6 -->
<g id="edge5" class="edge">
<title>Node5&#45;&gt;Node6</title>
<path fill="none" stroke="#63b8ff" d="M2036.34,-220.88C2033.18,-220.57 2030.06,-220.28 2027,-220 1819.25,-200.98 1764.38,-220.62 1559,-184 1557.71,-183.77 1556.4,-183.51 1555.08,-183.22"/>
<polygon fill="#63b8ff" stroke="#63b8ff" points="1555.61,-179.75 1545.05,-180.69 1553.89,-186.53 1555.61,-179.75"/>
</g>
<!-- Node7 -->
<g id="node7" class="node">
<title>Node7</title>
<g id="a_node7"><a xlink:title=" ">
<polygon fill="#e0e0e0" stroke="#999999" points="1383,-184 1351,-184 1351,-165 1383,-165 1383,-184"/>
<text text-anchor="middle" x="1367" y="-172" font-family="Helvetica,sans-Serif" font-size="10.00">list</text>
</a>
</g>
</g>
<!-- Node5&#45;&gt;Node7 -->
<g id="edge6" class="edge">
<title>Node5&#45;&gt;Node7</title>
<path fill="none" stroke="#63b8ff" d="M2036.35,-220.8C2033.19,-220.52 2030.06,-220.25 2027,-220 1748.56,-197.33 1671.28,-237.04 1393.21,-183.66"/>
<polygon fill="#63b8ff" stroke="#63b8ff" points="1393.72,-180.2 1383.23,-181.73 1392.38,-187.07 1393.72,-180.2"/>
</g>
<!-- Node8 -->
<g id="node8" class="node">
<title>Node8</title>
<g id="a_node8"><a xlink:title=" ">
<polygon fill="#e0e0e0" stroke="#999999" points="1494.5,-184 1401.5,-184 1401.5,-165 1494.5,-165 1494.5,-184"/>
<text text-anchor="middle" x="1448" y="-172" font-family="Helvetica,sans-Serif" font-size="10.00">unordered_map</text>
</a>
</g>
</g>
<!-- Node5&#45;&gt;Node8 -->
<g id="edge7" class="edge">
<title>Node5&#45;&gt;Node8</title>
<path fill="none" stroke="#63b8ff" d="M2036.34,-220.85C2033.19,-220.55 2030.06,-220.27 2027,-220 1798.18,-199.98 1737.31,-209.23 1504.84,-183.99"/>
<polygon fill="#63b8ff" stroke="#63b8ff" points="1505.04,-180.49 1494.71,-182.88 1504.27,-187.45 1505.04,-180.49"/>
</g>
<!-- Node5&#45;&gt;Node9 -->
<g id="edge8" class="edge">
<title>Node5&#45;&gt;Node9</title>
<path fill="none" stroke="#63b8ff" d="M2036.36,-220.69C2033.2,-220.44 2030.07,-220.21 2027,-220 1728.98,-200.05 803.26,-182.23 514.17,-177.03"/>
<polygon fill="#63b8ff" stroke="#63b8ff" points="513.8,-173.52 503.74,-176.84 513.68,-180.52 513.8,-173.52"/>
</g>
<!-- Node13 -->
<g id="node13" class="node">
<title>Node13</title>
<g id="a_node13"><a xlink:href="MaCh3Logger_8h.html" target="_top" xlink:title="KS: Based on this https://github.com/gabime/spdlog/blob/a2b4262090fd3f005c2315dcb5be2f0f1774a005/incl...">
<polygon fill="white" stroke="#666666" points="806.5,-129 669.5,-129 669.5,-110 806.5,-110 806.5,-129"/>
<text text-anchor="middle" x="738" y="-117" font-family="Helvetica,sans-Serif" font-size="10.00">Manager/MaCh3Logger.h</text>
</a>
</g>
</g>
<!-- Node5&#45;&gt;Node13 -->
<g id="edge26" class="edge">
<title>Node5&#45;&gt;Node13</title>
<path fill="none" stroke="#63b8ff" d="M2103.65,-219.98C2097.47,-205.62 2082.83,-176.99 2060,-165 2004.86,-136.04 1093.65,-124.2 817.01,-121.27"/>
<polygon fill="#63b8ff" stroke="#63b8ff" points="816.69,-117.77 806.66,-121.16 816.62,-124.76 816.69,-117.77"/>
</g>
<!-- Node17 -->
<g id="node17" class="node">
<title>Node17</title>
<g id="a_node17"><a xlink:href="Core_8h.html" target="_top" xlink:title=" ">
<polygon fill="#fff0f0" stroke="red" points="518,-74 424,-74 424,-55 518,-55 518,-74"/>
<text text-anchor="middle" x="471" y="-62" font-family="Helvetica,sans-Serif" font-size="10.00">Manager/Core.h</text>
</a>
</g>
</g>
<!-- Node5&#45;&gt;Node17 -->
<g id="edge27" class="edge">
<title>Node5&#45;&gt;Node17</title>
<path fill="none" stroke="#63b8ff" d="M2045.77,-219.97C1943.93,-206.11 1733.21,-178.88 1554,-165 1355.77,-149.65 854.04,-172.37 660,-129 638.81,-124.26 635.4,-117.44 615,-110 580.47,-97.41 540.49,-85.24 511.43,-76.82"/>
<polygon fill="#63b8ff" stroke="#63b8ff" points="512.21,-73.4 501.63,-74 510.28,-80.13 512.21,-73.4"/>
</g>
<!-- Node24 -->
<g id="node22" class="node">
<title>Node24</title>
<g id="a_node22"><a xlink:title=" ">
<polygon fill="#e0e0e0" stroke="#999999" points="1124,-184 1062,-184 1062,-165 1124,-165 1124,-184"/>
<text text-anchor="middle" x="1093" y="-172" font-family="Helvetica,sans-Serif" font-size="10.00">TSpline.h</text>
</a>
</g>
</g>
<!-- Node5&#45;&gt;Node24 -->
<g id="edge28" class="edge">
<title>Node5&#45;&gt;Node24</title>
<path fill="none" stroke="#63b8ff" d="M2036.35,-220.74C2033.19,-220.47 2030.06,-220.22 2027,-220 1633.7,-191.22 1529.29,-232.8 1134.34,-183.93"/>
<polygon fill="#63b8ff" stroke="#63b8ff" points="1134.71,-180.45 1124.36,-182.69 1133.85,-187.4 1134.71,-180.45"/>
</g>
<!-- Node25 -->
<g id="node23" class="node">
<title>Node25</title>
<g id="a_node23"><a xlink:title=" ">
<polygon fill="#e0e0e0" stroke="#999999" points="1043.5,-184 966.5,-184 966.5,-165 1043.5,-165 1043.5,-184"/>
<text text-anchor="middle" x="1005" y="-172" font-family="Helvetica,sans-Serif" font-size="10.00">TObjString.h</text>
</a>
</g>
</g>
<!-- Node5&#45;&gt;Node25 -->
<g id="edge29" class="edge">
<title>Node5&#45;&gt;Node25</title>
<path fill="none" stroke="#63b8ff" d="M2036.35,-220.73C2033.19,-220.46 2030.06,-220.22 2027,-220 1598.29,-189.34 1485.5,-229.24 1053.96,-183.91"/>
<polygon fill="#63b8ff" stroke="#63b8ff" points="1054.02,-180.4 1043.71,-182.83 1053.28,-187.36 1054.02,-180.4"/>
</g>
<!-- Node26 -->
<g id="node24" class="node">
<title>Node26</title>
<g id="a_node24"><a xlink:title=" ">
<polygon fill="#e0e0e0" stroke="#999999" points="2157.5,-184 2108.5,-184 2108.5,-165 2157.5,-165 2157.5,-184"/>
<text text-anchor="middle" x="2133" y="-172" font-family="Helvetica,sans-Serif" font-size="10.00">TFile.h</text>
</a>
</g>
</g>
<!-- Node5&#45;&gt;Node26 -->
<g id="edge30" class="edge">
<title>Node5&#45;&gt;Node26</title>
<path fill="none" stroke="#63b8ff" d="M2111.29,-219.75C2114.81,-212.57 2119.91,-202.18 2124.28,-193.27"/>
<polygon fill="#63b8ff" stroke="#63b8ff" points="2127.52,-194.61 2128.79,-184.09 2121.24,-191.53 2127.52,-194.61"/>
</g>
<!-- Node27 -->
<g id="node25" class="node">
<title>Node27</title>
<g id="a_node25"><a xlink:title=" ">
<polygon fill="#e0e0e0" stroke="#999999" points="1186,-184 1142,-184 1142,-165 1186,-165 1186,-184"/>
<text text-anchor="middle" x="1164" y="-172" font-family="Helvetica,sans-Serif" font-size="10.00">TF1.h</text>
</a>
</g>
</g>
<!-- Node5&#45;&gt;Node27 -->
<g id="edge31" class="edge">
<title>Node5&#45;&gt;Node27</title>
<path fill="none" stroke="#63b8ff" d="M2036.35,-220.75C2033.19,-220.48 2030.06,-220.23 2027,-220 1661.24,-192.68 1562.44,-240.42 1196.3,-183.81"/>
<polygon fill="#63b8ff" stroke="#63b8ff" points="1196.64,-180.32 1186.22,-182.23 1195.56,-187.24 1196.64,-180.32"/>
</g>
<!-- Node28 -->
<g id="node26" class="node">
<title>Node28</title>
<g id="a_node26"><a xlink:title=" ">
<polygon fill="#e0e0e0" stroke="#999999" points="1269.5,-184 1204.5,-184 1204.5,-165 1269.5,-165 1269.5,-184"/>
<text text-anchor="middle" x="1237" y="-172" font-family="Helvetica,sans-Serif" font-size="10.00">TH2Poly.h</text>
</a>
</g>
</g>
<!-- Node5&#45;&gt;Node28 -->
<g id="edge32" class="edge">
<title>Node5&#45;&gt;Node28</title>
<path fill="none" stroke="#63b8ff" d="M2036.35,-220.77C2033.19,-220.49 2030.06,-220.24 2027,-220 1698.12,-194.65 1610.41,-225.31 1279.95,-184.04"/>
<polygon fill="#63b8ff" stroke="#63b8ff" points="1279.96,-180.52 1269.6,-182.74 1279.08,-187.46 1279.96,-180.52"/>
</g>
<!-- Node29 -->
<g id="node27" class="node">
<title>Node29</title>
<g id="a_node27"><a xlink:title=" ">
<polygon fill="#e0e0e0" stroke="#999999" points="1332.5,-184 1287.5,-184 1287.5,-165 1332.5,-165 1332.5,-184"/>
<text text-anchor="middle" x="1310" y="-172" font-family="Helvetica,sans-Serif" font-size="10.00">TH1.h</text>
</a>
</g>
</g>
<!-- Node5&#45;&gt;Node29 -->
<g id="edge33" class="edge">
<title>Node5&#45;&gt;Node29</title>
<path fill="none" stroke="#63b8ff" d="M2036.35,-220.79C2033.19,-220.51 2030.06,-220.24 2027,-220 1726.36,-196.15 1644.9,-230.63 1342.53,-183.68"/>
<polygon fill="#63b8ff" stroke="#63b8ff" points="1343.02,-180.22 1332.6,-182.12 1341.94,-187.13 1343.02,-180.22"/>
</g>
<!-- Node30 -->
<g id="node28" class="node">
<title>Node30</title>
<g id="a_node28"><a xlink:title=" ">
<polygon fill="#e0e0e0" stroke="#999999" points="2051.5,-184 1878.5,-184 1878.5,-165 2051.5,-165 2051.5,-184"/>
<text text-anchor="middle" x="1965" y="-172" font-family="Helvetica,sans-Serif" font-size="10.00">Constants/OscillatorConstants.h</text>
</a>
</g>
</g>
<!-- Node5&#45;&gt;Node30 -->
<g id="edge34" class="edge">
<title>Node5&#45;&gt;Node30</title>
<path fill="none" stroke="#63b8ff" d="M2084.19,-219.98C2060.83,-211.27 2024.3,-197.63 1997.83,-187.75"/>
<polygon fill="#63b8ff" stroke="#63b8ff" points="1998.82,-184.39 1988.23,-184.17 1996.37,-190.95 1998.82,-184.39"/>
</g>
<!-- Node10 -->
<g id="node10" class="node">
<title>Node10</title>
<g id="a_node10"><a xlink:title=" ">
<polygon fill="#e0e0e0" stroke="#999999" points="402,-19 342,-19 342,0 402,0 402,-19"/>
<text text-anchor="middle" x="372" y="-7" font-family="Helvetica,sans-Serif" font-size="10.00">iostream</text>
</a>
</g>
</g>
<!-- Node9&#45;&gt;Node10 -->
<g id="edge9" class="edge">
<title>Node9&#45;&gt;Node10</title>
<path fill="none" stroke="#63b8ff" d="M417.7,-164.92C409.3,-156.58 397.32,-143.16 391,-129 376.34,-96.13 372.81,-53.67 372.07,-29.52"/>
<polygon fill="#63b8ff" stroke="#63b8ff" points="375.56,-29.2 371.89,-19.26 368.57,-29.32 375.56,-29.2"/>
</g>
<!-- Node11 -->
<g id="node11" class="node">
<title>Node11</title>
<g id="a_node11"><a xlink:title=" ">
<polygon fill="#e0e0e0" stroke="#999999" points="331,-74 287,-74 287,-55 331,-55 331,-74"/>
<text text-anchor="middle" x="309" y="-62" font-family="Helvetica,sans-Serif" font-size="10.00">string</text>
</a>
</g>
</g>
<!-- Node9&#45;&gt;Node11 -->
<g id="edge10" class="edge">
<title>Node9&#45;&gt;Node11</title>
<path fill="none" stroke="#63b8ff" d="M410.28,-164.85C395.57,-156.77 374.06,-143.76 358,-129 342.84,-115.07 328.84,-96.04 319.73,-82.46"/>
<polygon fill="#63b8ff" stroke="#63b8ff" points="322.64,-80.51 314.24,-74.05 316.77,-84.34 322.64,-80.51"/>
</g>
<!-- Node12 -->
<g id="node12" class="node">
<title>Node12</title>
<g id="a_node12"><a xlink:title=" ">
<polygon fill="#e0e0e0" stroke="#999999" points="465.5,-129 400.5,-129 400.5,-110 465.5,-110 465.5,-129"/>
<text text-anchor="middle" x="433" y="-117" font-family="Helvetica,sans-Serif" font-size="10.00">stdexcept</text>
</a>
</g>
</g>
<!-- Node9&#45;&gt;Node12 -->
<g id="edge11" class="edge">
<title>Node9&#45;&gt;Node12</title>
<path fill="none" stroke="#63b8ff" d="M427.99,-164.75C428.78,-157.8 429.9,-147.85 430.89,-139.13"/>
<polygon fill="#63b8ff" stroke="#63b8ff" points="434.38,-139.42 432.03,-129.09 427.42,-138.63 434.38,-139.42"/>
</g>
<!-- Node9&#45;&gt;Node13 -->
<g id="edge12" class="edge">
<title>Node9&#45;&gt;Node13</title>
<path fill="none" stroke="#63b8ff" d="M476.97,-164.98C531.64,-155.67 619.25,-140.74 677.7,-130.78"/>
<polygon fill="#63b8ff" stroke="#63b8ff" points="678.63,-134.17 687.9,-129.04 677.45,-127.27 678.63,-134.17"/>
</g>
<!-- Node9&#45;&gt;Node17 -->
<g id="edge25" class="edge">
<title>Node9&#45;&gt;Node17</title>
<path fill="none" stroke="#63b8ff" d="M441.07,-164.89C452.35,-157.1 467.34,-144.48 474,-129 480.13,-114.74 478.62,-96.99 476.02,-83.88"/>
<polygon fill="#63b8ff" stroke="#63b8ff" points="479.42,-83.07 473.71,-74.14 472.61,-84.68 479.42,-83.07"/>
</g>
<!-- Node13&#45;&gt;Node10 -->
<g id="edge13" class="edge">
<title>Node13&#45;&gt;Node10</title>
<path fill="none" stroke="#63b8ff" d="M694.2,-109.93C658.75,-102.35 607.85,-90.02 565,-74 547.31,-67.39 544.59,-61.86 527,-55 488.87,-40.14 443.74,-27.74 412.05,-19.84"/>
<polygon fill="#63b8ff" stroke="#63b8ff" points="412.8,-16.42 402.25,-17.43 411.13,-23.22 412.8,-16.42"/>
</g>
<!-- Node13&#45;&gt;Node11 -->
<g id="edge16" class="edge">
<title>Node13&#45;&gt;Node11</title>
<path fill="none" stroke="#63b8ff" d="M669.07,-109.98C575.32,-98.4 411.32,-78.14 341.72,-69.54"/>
<polygon fill="#63b8ff" stroke="#63b8ff" points="341.74,-66.02 331.39,-68.27 340.88,-72.97 341.74,-66.02"/>
</g>
<!-- Node14 -->
<g id="node14" class="node">
<title>Node14</title>
<g id="a_node14"><a xlink:title=" ">
<polygon fill="#e0e0e0" stroke="#999999" points="731,-19 675,-19 675,0 731,0 731,-19"/>
<text text-anchor="middle" x="703" y="-7" font-family="Helvetica,sans-Serif" font-size="10.00">sstream</text>
</a>
</g>
</g>
<!-- Node13&#45;&gt;Node14 -->
<g id="edge14" class="edge">
<title>Node13&#45;&gt;Node14</title>
<path fill="none" stroke="#63b8ff" d="M779.32,-109.94C816.34,-100.31 861.95,-82.34 842,-55 819.15,-23.7 773.99,-13.91 741.33,-11.11"/>
<polygon fill="#63b8ff" stroke="#63b8ff" points="741.43,-7.61 731.21,-10.43 740.95,-14.59 741.43,-7.61"/>
</g>
<!-- Node15 -->
<g id="node15" class="node">
<title>Node15</title>
<g id="a_node15"><a xlink:title=" ">
<polygon fill="#e0e0e0" stroke="#999999" points="639.5,-74 574.5,-74 574.5,-55 639.5,-55 639.5,-74"/>
<text text-anchor="middle" x="607" y="-62" font-family="Helvetica,sans-Serif" font-size="10.00">functional</text>
</a>
</g>
</g>
<!-- Node13&#45;&gt;Node15 -->
<g id="edge15" class="edge">
<title>Node13&#45;&gt;Node15</title>
<path fill="none" stroke="#63b8ff" d="M716.95,-109.98C695.59,-101.34 662.3,-87.87 637.94,-78.02"/>
<polygon fill="#63b8ff" stroke="#63b8ff" points="639.01,-74.68 628.43,-74.17 636.39,-81.17 639.01,-74.68"/>
</g>
<!-- Node16 -->
<g id="node16" class="node">
<title>Node16</title>
<g id="a_node16"><a xlink:title=" ">
<polygon fill="#e0e0e0" stroke="#999999" points="722.5,-74 657.5,-74 657.5,-55 722.5,-55 722.5,-74"/>
<text text-anchor="middle" x="690" y="-62" font-family="Helvetica,sans-Serif" font-size="10.00">exception</text>
</a>
</g>
</g>
<!-- Node13&#45;&gt;Node16 -->
<g id="edge17" class="edge">
<title>Node13&#45;&gt;Node16</title>
<path fill="none" stroke="#63b8ff" d="M730.07,-109.75C723.15,-102.11 712.93,-90.82 704.55,-81.56"/>
<polygon fill="#63b8ff" stroke="#63b8ff" points="707.09,-79.15 697.78,-74.09 701.9,-83.85 707.09,-79.15"/>
</g>
<!-- Node13&#45;&gt;Node17 -->
<g id="edge18" class="edge">
<title>Node13&#45;&gt;Node17</title>
<path fill="none" stroke="#63b8ff" d="M695.1,-109.98C648.63,-100.76 574.41,-86.03 524.24,-76.07"/>
<polygon fill="#63b8ff" stroke="#63b8ff" points="524.72,-72.6 514.23,-74.08 523.36,-79.46 524.72,-72.6"/>
</g>
<!-- Node23 -->
<g id="node21" class="node">
<title>Node23</title>
<g id="a_node21"><a xlink:title=" ">
<polygon fill="#e0e0e0" stroke="#999999" points="833.5,-74 740.5,-74 740.5,-55 833.5,-55 833.5,-74"/>
<text text-anchor="middle" x="787" y="-62" font-family="Helvetica,sans-Serif" font-size="10.00">spdlog/spdlog.h</text>
</a>
</g>
</g>
<!-- Node13&#45;&gt;Node23 -->
<g id="edge24" class="edge">
<title>Node13&#45;&gt;Node23</title>
<path fill="none" stroke="#63b8ff" d="M746.09,-109.75C753.16,-102.11 763.59,-90.82 772.15,-81.56"/>
<polygon fill="#63b8ff" stroke="#63b8ff" points="774.84,-83.81 779.06,-74.09 769.7,-79.06 774.84,-83.81"/>
</g>
<!-- Node17&#45;&gt;Node10 -->
<g id="edge21" class="edge">
<title>Node17&#45;&gt;Node10</title>
<path fill="none" stroke="#63b8ff" d="M455.09,-54.98C439.45,-46.61 415.34,-33.7 397.12,-23.95"/>
<polygon fill="#63b8ff" stroke="#63b8ff" points="398.66,-20.8 388.2,-19.17 395.36,-26.98 398.66,-20.8"/>
</g>
<!-- Node17&#45;&gt;Node14 -->
<g id="edge19" class="edge">
<title>Node17&#45;&gt;Node14</title>
<path fill="none" stroke="#63b8ff" d="M508.27,-54.98C551.32,-45.15 621.75,-29.06 665.07,-19.17"/>
<polygon fill="#63b8ff" stroke="#63b8ff" points="665.97,-22.55 674.94,-16.91 664.41,-15.73 665.97,-22.55"/>
</g>
<!-- Node18 -->
<g id="node18" class="node">
<title>Node18</title>
<g id="a_node18"><a xlink:title=" ">
<polygon fill="#e0e0e0" stroke="#999999" points="65.5,-19 10.5,-19 10.5,0 65.5,0 65.5,-19"/>
<text text-anchor="middle" x="38" y="-7" font-family="Helvetica,sans-Serif" font-size="10.00">fstream</text>
</a>
</g>
</g>
<!-- Node17&#45;&gt;Node18 -->
<g id="edge20" class="edge">
<title>Node17&#45;&gt;Node18</title>
<path fill="none" stroke="#63b8ff" d="M423.84,-57.73C337.2,-47.12 154.39,-24.75 75.52,-15.09"/>
<polygon fill="#63b8ff" stroke="#63b8ff" points="75.9,-11.61 65.54,-13.87 75.05,-18.56 75.9,-11.61"/>
</g>
<!-- Node19 -->
<g id="node19" class="node">
<title>Node19</title>
<g id="a_node19"><a xlink:title=" ">
<polygon fill="#e0e0e0" stroke="#999999" points="227.5,-19 180.5,-19 180.5,0 227.5,0 227.5,-19"/>
<text text-anchor="middle" x="204" y="-7" font-family="Helvetica,sans-Serif" font-size="10.00">vector</text>
</a>
</g>
</g>
<!-- Node17&#45;&gt;Node19 -->
<g id="edge22" class="edge">
<title>Node17&#45;&gt;Node19</title>
<path fill="none" stroke="#63b8ff" d="M428.1,-54.98C375.09,-44.46 285.99,-26.78 237.65,-17.18"/>
<polygon fill="#63b8ff" stroke="#63b8ff" points="238.19,-13.72 227.7,-15.2 236.83,-20.58 238.19,-13.72"/>
</g>
<!-- Node20 -->
<g id="node20" class="node">
<title>Node20</title>
<g id="a_node20"><a xlink:title=" ">
<polygon fill="#e0e0e0" stroke="#999999" points="499,-19 443,-19 443,0 499,0 499,-19"/>
<text text-anchor="middle" x="471" y="-7" font-family="Helvetica,sans-Serif" font-size="10.00">iomanip</text>
</a>
</g>
</g>
<!-- Node17&#45;&gt;Node20 -->
<g id="edge23" class="edge">
<title>Node17&#45;&gt;Node20</title>
<path fill="none" stroke="#63b8ff" d="M471,-54.75C471,-47.8 471,-37.85 471,-29.13"/>
<polygon fill="#63b8ff" stroke="#63b8ff" points="474.5,-29.09 471,-19.09 467.5,-29.09 474.5,-29.09"/>
</g>
<!-- Node31&#45;&gt;Node9 -->
<g id="edge39" class="edge">
<title>Node31&#45;&gt;Node9</title>
<path fill="none" stroke="#63b8ff" d="M240.67,-219.98C278.83,-210.87 339.47,-196.4 381.15,-186.45"/>
<polygon fill="#63b8ff" stroke="#63b8ff" points="382.14,-189.81 391.05,-184.08 380.51,-183 382.14,-189.81"/>
</g>
<!-- Node31&#45;&gt;Node10 -->
<g id="edge36" class="edge">
<title>Node31&#45;&gt;Node10</title>
<path fill="none" stroke="#63b8ff" d="M204.77,-219.77C204.62,-207.43 204.98,-184.25 209,-165 214.32,-139.54 215.67,-132.33 229,-110 245.78,-81.89 251.79,-74.62 278,-55 296.22,-41.36 319.28,-30.37 338,-22.72"/>
<polygon fill="#63b8ff" stroke="#63b8ff" points="339.33,-25.96 347.35,-19.03 336.76,-19.45 339.33,-25.96"/>
</g>
<!-- Node31&#45;&gt;Node11 -->
<g id="edge38" class="edge">
<title>Node31&#45;&gt;Node11</title>
<path fill="none" stroke="#63b8ff" d="M205.93,-219.89C208.54,-199.07 217.6,-145.15 244,-110 253.72,-97.07 268.33,-86.58 281.24,-79.05"/>
<polygon fill="#63b8ff" stroke="#63b8ff" points="283.18,-81.98 290.25,-74.09 279.8,-75.85 283.18,-81.98"/>
</g>
<!-- Node31&#45;&gt;Node17 -->
<g id="edge40" class="edge">
<title>Node31&#45;&gt;Node17</title>
<path fill="none" stroke="#63b8ff" d="M217.91,-219.9C247.93,-199.98 324.89,-149.4 391,-110 409.09,-99.22 429.88,-87.68 445.74,-79.05"/>
<polygon fill="#63b8ff" stroke="#63b8ff" points="447.78,-81.93 454.9,-74.09 444.44,-75.77 447.78,-81.93"/>
</g>
<!-- Node31&#45;&gt;Node18 -->
<g id="edge37" class="edge">
<title>Node31&#45;&gt;Node18</title>
<path fill="none" stroke="#63b8ff" d="M194.55,-219.81C168.74,-197.87 101.23,-137.41 62,-74 53.28,-59.91 46.9,-42.14 42.92,-28.98"/>
<polygon fill="#63b8ff" stroke="#63b8ff" points="46.24,-27.86 40.14,-19.2 39.5,-29.77 46.24,-27.86"/>
</g>
<!-- Node31&#45;&gt;Node25 -->
<g id="edge41" class="edge">
<title>Node31&#45;&gt;Node25</title>
<path fill="none" stroke="#63b8ff" d="M268.11,-224.32C422.55,-214.09 817.01,-187.95 955.79,-178.76"/>
<polygon fill="#63b8ff" stroke="#63b8ff" points="956.36,-182.23 966.11,-178.08 955.9,-175.25 956.36,-182.23"/>
</g>
<!-- Node37&#45;&gt;Node9 -->
<g id="edge48" class="edge">
<title>Node37&#45;&gt;Node9</title>
<path fill="none" stroke="#63b8ff" d="M324.97,-280.06C329.98,-265.98 341.25,-238.37 358,-220 369.63,-207.25 385.69,-196.61 399.39,-188.93"/>
<polygon fill="#63b8ff" stroke="#63b8ff" points="401.25,-191.9 408.42,-184.1 397.95,-185.73 401.25,-191.9"/>
</g>
<!-- Node37&#45;&gt;Node10 -->
<g id="edge43" class="edge">
<title>Node37&#45;&gt;Node10</title>
<path fill="none" stroke="#63b8ff" d="M267.88,-288.4C225.84,-285.04 168.84,-273.71 133,-239 111.84,-218.51 114,-204.96 114,-175.5 114,-175.5 114,-175.5 114,-118.5 114,-25.24 259.21,-11.13 331.75,-9.89"/>
<polygon fill="#63b8ff" stroke="#63b8ff" points="331.93,-13.39 341.9,-9.8 331.87,-6.39 331.93,-13.39"/>
</g>
<!-- Node37&#45;&gt;Node11 -->
<g id="edge45" class="edge">
<title>Node37&#45;&gt;Node11</title>
<path fill="none" stroke="#63b8ff" d="M321.49,-280.24C319.58,-247.35 312.8,-130.8 310.11,-84.59"/>
<polygon fill="#63b8ff" stroke="#63b8ff" points="313.6,-84.22 309.52,-74.44 306.61,-84.63 313.6,-84.22"/>
</g>
<!-- Node37&#45;&gt;Node13 -->
<g id="edge47" class="edge">
<title>Node37&#45;&gt;Node13</title>
<path fill="none" stroke="#63b8ff" d="M328.21,-280.4C339.21,-265.8 363.56,-236.16 391,-220 397.78,-216.01 607.33,-157.08 697.45,-131.84"/>
<polygon fill="#63b8ff" stroke="#63b8ff" points="698.64,-135.14 707.32,-129.08 696.75,-128.4 698.64,-135.14"/>
</g>
<!-- Node37&#45;&gt;Node18 -->
<g id="edge44" class="edge">
<title>Node37&#45;&gt;Node18</title>
<path fill="none" stroke="#63b8ff" d="M267.74,-281.31C175.97,-266.78 0,-231.59 0,-175.5 0,-175.5 0,-175.5 0,-118.5 0,-85.02 16.45,-48.84 27.7,-28.01"/>
<polygon fill="#63b8ff" stroke="#63b8ff" points="30.87,-29.53 32.72,-19.1 24.76,-26.1 30.87,-29.53"/>
</g>
<!-- Node37&#45;&gt;Node19 -->
<g id="edge46" class="edge">
<title>Node37&#45;&gt;Node19</title>
<path fill="none" stroke="#63b8ff" d="M267.71,-287.15C195.27,-281.45 76,-259.34 76,-175.5 76,-175.5 76,-175.5 76,-118.5 76,-68.99 132.63,-37.56 170.56,-22.06"/>
<polygon fill="#63b8ff" stroke="#63b8ff" points="172.18,-25.19 180.22,-18.29 169.64,-18.67 172.18,-25.19"/>
</g>
<!-- Node37&#45;&gt;Node31 -->
<g id="edge49" class="edge">
<title>Node37&#45;&gt;Node31</title>
<path fill="none" stroke="#63b8ff" d="M304.99,-280.49C285.58,-270.79 253.61,-254.81 231.06,-243.53"/>
<polygon fill="#63b8ff" stroke="#63b8ff" points="232.54,-240.36 222.03,-239.02 229.41,-246.62 232.54,-240.36"/>
</g>
<!-- Node39 -->
<g id="node31" class="node">
<title>Node39</title>
<g id="a_node31"><a xlink:title=" ">
<polygon fill="#e0e0e0" stroke="#999999" points="452,-239 400,-239 400,-220 452,-220 452,-239"/>
<text text-anchor="middle" x="426" y="-227" font-family="Helvetica,sans-Serif" font-size="10.00">TTree.h</text>
</a>
</g>
</g>
<!-- Node37&#45;&gt;Node39 -->
<g id="edge50" class="edge">
<title>Node37&#45;&gt;Node39</title>
<path fill="none" stroke="#63b8ff" d="M337.35,-280.37C354.32,-270.82 381.9,-255.31 401.79,-244.12"/>
<polygon fill="#63b8ff" stroke="#63b8ff" points="403.59,-247.12 410.59,-239.17 400.16,-241.02 403.59,-247.12"/>
</g>
<!-- Node42 -->
<g id="node32" class="node">
<title>Node42</title>
<g id="a_node32"><a xlink:title=" ">
<polygon fill="#e0e0e0" stroke="#999999" points="591.5,-239 508.5,-239 508.5,-220 591.5,-220 591.5,-239"/>
<text text-anchor="middle" x="550" y="-227" font-family="Helvetica,sans-Serif" font-size="10.00">TStopwatch.h</text>
</a>
</g>
</g>
<!-- Node37&#45;&gt;Node42 -->
<g id="edge51" class="edge">
<title>Node37&#45;&gt;Node42</title>
<path fill="none" stroke="#63b8ff" d="M355.15,-280.49C395.26,-270.2 462.86,-252.86 506.95,-241.54"/>
<polygon fill="#63b8ff" stroke="#63b8ff" points="507.99,-244.89 516.81,-239.02 506.25,-238.11 507.99,-244.89"/>
</g>
<!-- Node43&#45;&gt;Node26 -->
<g id="edge74" class="edge">
<title>Node43&#45;&gt;Node26</title>
<path fill="none" stroke="#63b8ff" d="M1292.37,-287.84C1522.32,-284.18 2156.38,-271.22 2187,-239 2202.61,-222.57 2178.91,-202.47 2158.15,-189.35"/>
<polygon fill="#63b8ff" stroke="#63b8ff" points="2159.93,-186.34 2149.56,-184.18 2156.33,-192.33 2159.93,-186.34"/>
</g>
<!-- Node43&#45;&gt;Node39 -->
<g id="edge73" class="edge">
<title>Node43&#45;&gt;Node39</title>
<path fill="none" stroke="#63b8ff" d="M1127.79,-284.44C995.28,-276.82 726.32,-260.22 499,-239 487.13,-237.89 474.21,-236.46 462.58,-235.09"/>
<polygon fill="#63b8ff" stroke="#63b8ff" points="462.67,-231.58 452.33,-233.86 461.84,-238.53 462.67,-231.58"/>
</g>
<!-- Node43&#45;&gt;Node42 -->
<g id="edge78" class="edge">
<title>Node43&#45;&gt;Node42</title>
<path fill="none" stroke="#63b8ff" d="M1127.87,-284.53C1012.52,-277.75 795.76,-263.17 601.8,-239.13"/>
<polygon fill="#63b8ff" stroke="#63b8ff" points="602.06,-235.64 591.7,-237.87 601.19,-242.58 602.06,-235.64"/>
</g>
<!-- Node44 -->
<g id="node34" class="node">
<title>Node44</title>
<g id="a_node34"><a xlink:href="ParameterStructs_8h.html" target="_top" xlink:title=" ">
<polygon fill="white" stroke="#666666" points="1213,-239 1045,-239 1045,-220 1213,-220 1213,-239"/>
<text text-anchor="middle" x="1129" y="-227" font-family="Helvetica,sans-Serif" font-size="10.00">Parameters/ParameterStructs.h</text>
</a>
</g>
</g>
<!-- Node43&#45;&gt;Node44 -->
<g id="edge54" class="edge">
<title>Node43&#45;&gt;Node44</title>
<path fill="none" stroke="#63b8ff" d="M1190.39,-274.84C1178.03,-265.91 1162.1,-254.41 1149.57,-245.35"/>
<polygon fill="#63b8ff" stroke="#63b8ff" points="1151.29,-242.28 1141.14,-239.27 1147.2,-247.96 1151.29,-242.28"/>
</g>
<!-- Node45 -->
<g id="node35" class="node">
<title>Node45</title>
<g id="a_node35"><a xlink:title=" ">
<polygon fill="#e0e0e0" stroke="#999999" points="1663,-239 1595,-239 1595,-220 1663,-220 1663,-239"/>
<text text-anchor="middle" x="1629" y="-227" font-family="Helvetica,sans-Serif" font-size="10.00">TMatrixT.h</text>
</a>
</g>
</g>
<!-- Node43&#45;&gt;Node45 -->
<g id="edge67" class="edge">
<title>Node43&#45;&gt;Node45</title>
<path fill="none" stroke="#63b8ff" d="M1292,-279.6C1366.01,-270.78 1478.1,-256.55 1584.79,-239.11"/>
<polygon fill="#63b8ff" stroke="#63b8ff" points="1585.47,-242.55 1594.77,-237.47 1584.33,-235.64 1585.47,-242.55"/>
</g>
<!-- Node46 -->
<g id="node36" class="node">
<title>Node46</title>
<g id="a_node36"><a xlink:title=" ">
<polygon fill="#e0e0e0" stroke="#999999" points="1773,-239 1681,-239 1681,-220 1773,-220 1773,-239"/>
<text text-anchor="middle" x="1727" y="-227" font-family="Helvetica,sans-Serif" font-size="10.00">TMatrixDSym.h</text>
</a>
</g>
</g>
<!-- Node43&#45;&gt;Node46 -->
<g id="edge68" class="edge">
<title>Node43&#45;&gt;Node46</title>
<path fill="none" stroke="#63b8ff" d="M1292.34,-281.23C1382.68,-272.45 1532.21,-257.15 1670.85,-239.1"/>
<polygon fill="#63b8ff" stroke="#63b8ff" points="1671.35,-242.56 1680.81,-237.79 1670.44,-235.62 1671.35,-242.56"/>
</g>
<!-- Node47 -->
<g id="node37" class="node">
<title>Node47</title>
<g id="a_node37"><a xlink:title=" ">
<polygon fill="#e0e0e0" stroke="#999999" points="1859,-239 1791,-239 1791,-220 1859,-220 1859,-239"/>
<text text-anchor="middle" x="1825" y="-227" font-family="Helvetica,sans-Serif" font-size="10.00">TVectorT.h</text>
</a>
</g>
</g>
<!-- Node43&#45;&gt;Node47 -->
<g id="edge69" class="edge">
<title>Node43&#45;&gt;Node47</title>
<path fill="none" stroke="#63b8ff" d="M1292.25,-284.61C1401.59,-278.14 1600.98,-264.18 1780.62,-239.05"/>
<polygon fill="#63b8ff" stroke="#63b8ff" points="1781.38,-242.47 1790.79,-237.61 1780.4,-235.54 1781.38,-242.47"/>
</g>
<!-- Node48 -->
<g id="node38" class="node">
<title>Node48</title>
<g id="a_node38"><a xlink:title=" ">
<polygon fill="#e0e0e0" stroke="#999999" points="1947,-239 1877,-239 1877,-220 1947,-220 1947,-239"/>
<text text-anchor="middle" x="1912" y="-227" font-family="Helvetica,sans-Serif" font-size="10.00">TVectorD.h</text>
</a>
</g>
</g>
<!-- Node43&#45;&gt;Node48 -->
<g id="edge70" class="edge">
<title>Node43&#45;&gt;Node48</title>
<path fill="none" stroke="#63b8ff" d="M1292.12,-285.8C1415.01,-280.33 1654.15,-267.08 1866.89,-238.99"/>
<polygon fill="#63b8ff" stroke="#63b8ff" points="1867.55,-242.43 1877,-237.64 1866.62,-235.49 1867.55,-242.43"/>
</g>
<!-- Node49 -->
<g id="node39" class="node">
<title>Node49</title>
<g id="a_node39"><a xlink:title=" ">
<polygon fill="#e0e0e0" stroke="#999999" points="2018.5,-239 1965.5,-239 1965.5,-220 2018.5,-220 2018.5,-239"/>
<text text-anchor="middle" x="1992" y="-227" font-family="Helvetica,sans-Serif" font-size="10.00">TH1D.h</text>
</a>
</g>
</g>
<!-- Node43&#45;&gt;Node49 -->
<g id="edge71" class="edge">
<title>Node43&#45;&gt;Node49</title>
<path fill="none" stroke="#63b8ff" d="M1292.16,-287.91C1428.21,-285.14 1708.8,-275.31 1955.14,-238.84"/>
<polygon fill="#63b8ff" stroke="#63b8ff" points="1955.99,-242.25 1965.36,-237.31 1954.95,-235.33 1955.99,-242.25"/>
</g>
<!-- Node50 -->
<g id="node40" class="node">
<title>Node50</title>
<g id="a_node40"><a xlink:title=" ">
<polygon fill="#e0e0e0" stroke="#999999" points="662.5,-239 609.5,-239 609.5,-220 662.5,-220 662.5,-239"/>
<text text-anchor="middle" x="636" y="-227" font-family="Helvetica,sans-Serif" font-size="10.00">TH2D.h</text>
</a>
</g>
</g>
<!-- Node43&#45;&gt;Node50 -->
<g id="edge72" class="edge">
<title>Node43&#45;&gt;Node50</title>
<path fill="none" stroke="#63b8ff" d="M1127.97,-284.93C1024.16,-278.99 839.76,-265.78 672.62,-238.86"/>
<polygon fill="#63b8ff" stroke="#63b8ff" points="673.09,-235.38 662.65,-237.23 671.96,-242.29 673.09,-235.38"/>
</g>
<!-- Node51 -->
<g id="node41" class="node">
<title>Node51</title>
<g id="a_node41"><a xlink:title=" ">
<polygon fill="#e0e0e0" stroke="#999999" points="759,-239 681,-239 681,-220 759,-220 759,-239"/>
<text text-anchor="middle" x="720" y="-227" font-family="Helvetica,sans-Serif" font-size="10.00">TRandom3.h</text>
</a>
</g>
</g>
<!-- Node43&#45;&gt;Node51 -->
<g id="edge75" class="edge">
<title>Node43&#45;&gt;Node51</title>
<path fill="none" stroke="#63b8ff" d="M1127.93,-281.27C1041.3,-272.75 900.52,-257.92 769.48,-239.13"/>
<polygon fill="#63b8ff" stroke="#63b8ff" points="769.66,-235.62 759.26,-237.66 768.66,-242.55 769.66,-235.62"/>
</g>
<!-- Node52 -->
<g id="node42" class="node">
<title>Node52</title>
<g id="a_node42"><a xlink:title=" ">
<polygon fill="#e0e0e0" stroke="#999999" points="833,-239 777,-239 777,-220 833,-220 833,-239"/>
<text text-anchor="middle" x="805" y="-227" font-family="Helvetica,sans-Serif" font-size="10.00">TMath.h</text>
</a>
</g>
</g>
<!-- Node43&#45;&gt;Node52 -->
<g id="edge76" class="edge">
<title>Node43&#45;&gt;Node52</title>
<path fill="none" stroke="#63b8ff" d="M1127.81,-280C1055.35,-271.56 946.73,-257.72 843.23,-239.08"/>
<polygon fill="#63b8ff" stroke="#63b8ff" points="843.69,-235.61 833.23,-237.26 842.44,-242.5 843.69,-235.61"/>
</g>
<!-- Node53 -->
<g id="node43" class="node">
<title>Node53</title>
<g id="a_node43"><a xlink:title=" ">
<polygon fill="#e0e0e0" stroke="#999999" points="945,-239 851,-239 851,-220 945,-220 945,-239"/>
<text text-anchor="middle" x="898" y="-227" font-family="Helvetica,sans-Serif" font-size="10.00">TDecompChol.h</text>
</a>
</g>
</g>
<!-- Node43&#45;&gt;Node53 -->
<g id="edge77" class="edge">
<title>Node43&#45;&gt;Node53</title>
<path fill="none" stroke="#63b8ff" d="M1135.27,-274.99C1079.44,-264.52 1004.35,-250.44 953.72,-240.95"/>
<polygon fill="#63b8ff" stroke="#63b8ff" points="954.09,-237.46 943.62,-239.05 952.8,-244.34 954.09,-237.46"/>
</g>
<!-- Node54 -->
<g id="node44" class="node">
<title>Node54</title>
<g id="a_node44"><a xlink:title=" ">
<polygon fill="#e0e0e0" stroke="#999999" points="1026.5,-239 963.5,-239 963.5,-220 1026.5,-220 1026.5,-239"/>
<text text-anchor="middle" x="995" y="-227" font-family="Helvetica,sans-Serif" font-size="10.00">TMatrix.h</text>
</a>
</g>
</g>
<!-- Node43&#45;&gt;Node54 -->
<g id="edge79" class="edge">
<title>Node43&#45;&gt;Node54</title>
<path fill="none" stroke="#63b8ff" d="M1158.5,-274.99C1121.08,-264.8 1071.09,-251.2 1036.27,-241.73"/>
<polygon fill="#63b8ff" stroke="#63b8ff" points="1037,-238.3 1026.44,-239.05 1035.17,-245.06 1037,-238.3"/>
</g>
<!-- Node55 -->
<g id="node45" class="node">
<title>Node55</title>
<g id="a_node45"><a xlink:title=" ">
<polygon fill="#e0e0e0" stroke="#999999" points="1350.5,-239 1231.5,-239 1231.5,-220 1350.5,-220 1350.5,-239"/>
<text text-anchor="middle" x="1291" y="-227" font-family="Helvetica,sans-Serif" font-size="10.00">TMatrixDSymEigen.h</text>
</a>
</g>
</g>
<!-- Node43&#45;&gt;Node55 -->
<g id="edge80" class="edge">
<title>Node43&#45;&gt;Node55</title>
<path fill="none" stroke="#63b8ff" d="M1229.61,-274.84C1241.97,-265.91 1257.9,-254.41 1270.43,-245.35"/>
<polygon fill="#63b8ff" stroke="#63b8ff" points="1272.8,-247.96 1278.86,-239.27 1268.71,-242.28 1272.8,-247.96"/>
</g>
<!-- Node56 -->
<g id="node46" class="node">
<title>Node56</title>
<g id="a_node46"><a xlink:title=" ">
<polygon fill="#e0e0e0" stroke="#999999" points="1467,-239 1369,-239 1369,-220 1467,-220 1467,-239"/>
<text text-anchor="middle" x="1418" y="-227" font-family="Helvetica,sans-Serif" font-size="10.00">TMatrixDEigen.h</text>
</a>
</g>
</g>
<!-- Node43&#45;&gt;Node56 -->
<g id="edge81" class="edge">
<title>Node43&#45;&gt;Node56</title>
<path fill="none" stroke="#63b8ff" d="M1259.82,-274.99C1295.87,-264.85 1343.98,-251.32 1377.63,-241.85"/>
<polygon fill="#63b8ff" stroke="#63b8ff" points="1378.91,-245.13 1387.59,-239.05 1377.01,-238.39 1378.91,-245.13"/>
</g>
<!-- Node57 -->
<g id="node47" class="node">
<title>Node57</title>
<g id="a_node47"><a xlink:title=" ">
<polygon fill="#e0e0e0" stroke="#999999" points="1577,-239 1485,-239 1485,-220 1577,-220 1577,-239"/>
<text text-anchor="middle" x="1531" y="-227" font-family="Helvetica,sans-Serif" font-size="10.00">TDecompSVD.h</text>
</a>
</g>
</g>
<!-- Node43&#45;&gt;Node57 -->
<g id="edge82" class="edge">
<title>Node43&#45;&gt;Node57</title>
<path fill="none" stroke="#63b8ff" d="M1286.89,-274.99C1344.79,-264.44 1422.84,-250.21 1474.94,-240.72"/>
<polygon fill="#63b8ff" stroke="#63b8ff" points="1475.79,-244.12 1485,-238.88 1474.53,-237.23 1475.79,-244.12"/>
</g>
<!-- Node44&#45;&gt;Node6 -->
<g id="edge55" class="edge">
<title>Node44&#45;&gt;Node6</title>
<path fill="none" stroke="#63b8ff" d="M1213.01,-220.45C1305.92,-211.21 1449.52,-195.8 1503,-184 1503.1,-183.98 1503.2,-183.95 1503.3,-183.93"/>
<polygon fill="#63b8ff" stroke="#63b8ff" points="1504.19,-187.32 1512.91,-181.31 1502.34,-180.57 1504.19,-187.32"/>
</g>
<!-- Node44&#45;&gt;Node7 -->
<g id="edge56" class="edge">
<title>Node44&#45;&gt;Node7</title>
<path fill="none" stroke="#63b8ff" d="M1176.92,-219.99C1220.12,-211.95 1285.23,-198.92 1341,-184 1341.1,-183.97 1341.2,-183.95 1341.3,-183.92"/>
<polygon fill="#63b8ff" stroke="#63b8ff" points="1342.27,-187.28 1350.85,-181.08 1340.27,-180.57 1342.27,-187.28"/>
</g>
<!-- Node44&#45;&gt;Node8 -->
<g id="edge57" class="edge">
<title>Node44&#45;&gt;Node8</title>
<path fill="none" stroke="#63b8ff" d="M1180.25,-219.98C1237.94,-210.4 1331.4,-194.87 1391.25,-184.93"/>
<polygon fill="#63b8ff" stroke="#63b8ff" points="1392,-188.35 1401.29,-183.26 1390.85,-181.45 1392,-188.35"/>
</g>
<!-- Node44&#45;&gt;Node9 -->
<g id="edge58" class="edge">
<title>Node44&#45;&gt;Node9</title>
<path fill="none" stroke="#63b8ff" d="M1044.96,-220.81C1041.6,-220.53 1038.27,-220.26 1035,-220 805.4,-201.63 747.57,-202.71 518,-184 516.71,-183.89 515.41,-183.79 514.1,-183.68"/>
<polygon fill="#63b8ff" stroke="#63b8ff" points="514.2,-180.18 503.94,-182.82 513.61,-187.15 514.2,-180.18"/>
</g>
<!-- Node44&#45;&gt;Node13 -->
<g id="edge59" class="edge">
<title>Node44&#45;&gt;Node13</title>
<path fill="none" stroke="#63b8ff" d="M1094.66,-219.93C1059.88,-211.17 1004.59,-197.05 957,-184 893.42,-166.56 819.89,-144.94 776.26,-131.96"/>
<polygon fill="#63b8ff" stroke="#63b8ff" points="777.21,-128.59 766.62,-129.09 775.21,-135.3 777.21,-128.59"/>
</g>
<!-- Node44&#45;&gt;Node17 -->
<g id="edge60" class="edge">
<title>Node44&#45;&gt;Node17</title>
<path fill="none" stroke="#63b8ff" d="M1064.17,-219.97C967.52,-206.28 780.54,-176.08 627,-129 580.58,-114.77 528.76,-92.29 498.06,-78.24"/>
<polygon fill="#63b8ff" stroke="#63b8ff" points="499.42,-75.01 488.87,-74 496.48,-81.37 499.42,-75.01"/>
</g>
<!-- Node44&#45;&gt;Node24 -->
<g id="edge61" class="edge">
<title>Node44&#45;&gt;Node24</title>
<path fill="none" stroke="#63b8ff" d="M1123.06,-219.75C1118.02,-212.34 1110.66,-201.5 1104.49,-192.41"/>
<polygon fill="#63b8ff" stroke="#63b8ff" points="1107.35,-190.39 1098.83,-184.09 1101.56,-194.33 1107.35,-190.39"/>
</g>
<!-- Node44&#45;&gt;Node25 -->
<g id="edge62" class="edge">
<title>Node44&#45;&gt;Node25</title>
<path fill="none" stroke="#63b8ff" d="M1109.08,-219.98C1088.95,-211.38 1057.62,-197.99 1034.59,-188.15"/>
<polygon fill="#63b8ff" stroke="#63b8ff" points="1035.86,-184.88 1025.29,-184.17 1033.1,-191.32 1035.86,-184.88"/>
</g>
<!-- Node44&#45;&gt;Node26 -->
<g id="edge63" class="edge">
<title>Node44&#45;&gt;Node26</title>
<path fill="none" stroke="#63b8ff" d="M1213.14,-220.63C1216.13,-220.41 1219.09,-220.2 1222,-220 1593.95,-195.03 1688.39,-213.58 2060,-184 2072.49,-183.01 2086.15,-181.52 2098.23,-180.07"/>
<polygon fill="#63b8ff" stroke="#63b8ff" points="2098.88,-183.52 2108.38,-178.82 2098.02,-176.57 2098.88,-183.52"/>
</g>
<!-- Node44&#45;&gt;Node27 -->
<g id="edge64" class="edge">
<title>Node44&#45;&gt;Node27</title>
<path fill="none" stroke="#63b8ff" d="M1134.78,-219.75C1139.62,-212.42 1146.68,-201.73 1152.64,-192.7"/>
<polygon fill="#63b8ff" stroke="#63b8ff" points="1155.74,-194.36 1158.33,-184.09 1149.9,-190.5 1155.74,-194.36"/>
</g>
<!-- Node44&#45;&gt;Node28 -->
<g id="edge65" class="edge">
<title>Node44&#45;&gt;Node28</title>
<path fill="none" stroke="#63b8ff" d="M1146.35,-219.98C1163.57,-211.54 1190.2,-198.47 1210.15,-188.68"/>
<polygon fill="#63b8ff" stroke="#63b8ff" points="1211.9,-191.72 1219.33,-184.17 1208.81,-185.43 1211.9,-191.72"/>
</g>
<!-- Node44&#45;&gt;Node29 -->
<g id="edge66" class="edge">
<title>Node44&#45;&gt;Node29</title>
<path fill="none" stroke="#63b8ff" d="M1158.08,-219.98C1190.68,-210.44 1243.42,-195 1277.4,-185.05"/>
<polygon fill="#63b8ff" stroke="#63b8ff" points="1278.68,-188.32 1287.29,-182.15 1276.71,-181.6 1278.68,-188.32"/>
</g>
<!-- Node58&#45;&gt;Node4 -->
<g id="edge84" class="edge">
<title>Node58&#45;&gt;Node4</title>
<path fill="none" stroke="#63b8ff" d="M835.97,-395.98C819.07,-387.54 792.94,-374.47 773.36,-364.68"/>
<polygon fill="#63b8ff" stroke="#63b8ff" points="774.85,-361.51 764.34,-360.17 771.72,-367.77 774.85,-361.51"/>
</g>
<!-- Node58&#45;&gt;Node43 -->
<g id="edge85" class="edge">
<title>Node58&#45;&gt;Node43</title>
<path fill="none" stroke="#63b8ff" d="M879.83,-395.97C938.38,-377.36 1078.54,-332.79 1156.1,-308.14"/>
<polygon fill="#63b8ff" stroke="#63b8ff" points="1157.22,-311.45 1165.69,-305.09 1155.1,-304.78 1157.22,-311.45"/>
</g>
<!-- Node59&#45;&gt;Node4 -->
<g id="edge87" class="edge">
<title>Node59&#45;&gt;Node4</title>
<path fill="none" stroke="#63b8ff" d="M992.92,-395.98C941.6,-386.7 859.46,-371.84 804.4,-361.88"/>
<polygon fill="#63b8ff" stroke="#63b8ff" points="804.91,-358.42 794.44,-360.08 803.66,-365.31 804.91,-358.42"/>
</g>
<!-- Node59&#45;&gt;Node43 -->
<g id="edge88" class="edge">
<title>Node59&#45;&gt;Node43</title>
<path fill="none" stroke="#63b8ff" d="M1052.78,-395.97C1079.66,-378.02 1142.66,-335.96 1180.24,-310.87"/>
<polygon fill="#63b8ff" stroke="#63b8ff" points="1182.39,-313.64 1188.76,-305.18 1178.5,-307.82 1182.39,-313.64"/>
</g>
<!-- Node60&#45;&gt;Node4 -->
<g id="edge90" class="edge">
<title>Node60&#45;&gt;Node4</title>
<path fill="none" stroke="#63b8ff" d="M1135.61,-395.98C1046.69,-385.81 899.21,-368.92 813.79,-359.15"/>
<polygon fill="#63b8ff" stroke="#63b8ff" points="814.03,-355.65 803.69,-357.99 813.23,-362.6 814.03,-355.65"/>
</g>
<!-- Node60&#45;&gt;Node43 -->
<g id="edge91" class="edge">
<title>Node60&#45;&gt;Node43</title>
<path fill="none" stroke="#63b8ff" d="M1210,-395.97C1210,-379.08 1210,-340.85 1210,-315.48"/>
<polygon fill="#63b8ff" stroke="#63b8ff" points="1213.5,-315.18 1210,-305.18 1206.5,-315.18 1213.5,-315.18"/>
</g>
</g>
</svg>
