<?xml version="1.0" encoding="UTF-8" standalone="no"?>
<!DOCTYPE svg PUBLIC "-//W3C//DTD SVG 1.1//EN"
 "http://www.w3.org/Graphics/SVG/1.1/DTD/svg11.dtd">
<!-- Generated by graphviz version 2.44.0 (0)
 -->
<!-- Title: Parameters/ParameterHandlerUtils.h Pages: 1 -->
<svg width="2366pt" height="464pt"
 viewBox="0.00 0.00 2366.00 464.00" xmlns="http://www.w3.org/2000/svg" xmlns:xlink="http://www.w3.org/1999/xlink">
<g id="graph0" class="graph" transform="scale(1 1) rotate(0) translate(4 460)">
<title>Parameters/ParameterHandlerUtils.h</title>
<polygon fill="white" stroke="transparent" points="-4,4 -4,-460 2362,-460 2362,4 -4,4"/>
<!-- Node1 -->
<g id="node1" class="node">
<title>Node1</title>
<g id="a_node1"><a xlink:title=" ">
<polygon fill="#bfbfbf" stroke="black" points="653,-425.5 653,-455.5 802,-455.5 802,-425.5 653,-425.5"/>
<text text-anchor="start" x="661" y="-443.5" font-family="Helvetica" font-size="10.00">Parameters/ParameterHandler</text>
<text text-anchor="middle" x="727.5" y="-432.5" font-family="Helvetica" font-size="10.00">Utils.h</text>
</a>
</g>
</g>
<!-- Node2 -->
<g id="node2" class="node">
<title>Node2</title>
<g id="a_node2"><a xlink:href="MCMCProcessor_8h.html" target="_top" xlink:title=" ">
<polygon fill="white" stroke="black" points="1296.5,-369.5 1296.5,-388.5 1428.5,-388.5 1428.5,-369.5 1296.5,-369.5"/>
<text text-anchor="middle" x="1362.5" y="-376.5" font-family="Helvetica" font-size="10.00">Fitters/MCMCProcessor.h</text>
</a>
</g>
</g>
<!-- Node1&#45;&gt;Node2 -->
<g id="edge1" class="edge">
<title>Node1&#45;&gt;Node2</title>
<path fill="none" stroke="midnightblue" d="M812.36,-431.55C940.36,-419.55 1180.18,-397.08 1296.23,-386.21"/>
<polygon fill="midnightblue" stroke="midnightblue" points="811.84,-428.08 802.21,-432.5 812.49,-435.05 811.84,-428.08"/>
</g>
<!-- Node41 -->
<g id="node36" class="node">
<title>Node41</title>
<g id="a_node36"><a xlink:href="GetPenaltyTerm_8cpp.html" target="_top" xlink:title="KS: This file contains the implementation of the function to extract specific penalty terms from syst...">
<polygon fill="white" stroke="black" points="1446.5,-369.5 1446.5,-388.5 1606.5,-388.5 1606.5,-369.5 1446.5,-369.5"/>
<text text-anchor="middle" x="1526.5" y="-376.5" font-family="Helvetica" font-size="10.00">Diagnostics/GetPenaltyTerm.cpp</text>
</a>
</g>
</g>
<!-- Node1&#45;&gt;Node41 -->
<g id="edge42" class="edge">
<title>Node1&#45;&gt;Node41</title>
<path fill="none" stroke="midnightblue" d="M812.32,-434.29C945.53,-425.91 1211.91,-408.42 1437.5,-389 1440.44,-388.75 1443.43,-388.48 1446.46,-388.21"/>
<polygon fill="midnightblue" stroke="midnightblue" points="811.94,-430.8 802.18,-434.92 812.38,-437.79 811.94,-430.8"/>
</g>
<!-- Node42 -->
<g id="node37" class="node">
<title>Node42</title>
<g id="a_node37"><a xlink:href="AdaptiveMCMCHandler_8h.html" target="_top" xlink:title=" ">
<polygon fill="white" stroke="black" points="335,-369.5 335,-388.5 516,-388.5 516,-369.5 335,-369.5"/>
<text text-anchor="middle" x="425.5" y="-376.5" font-family="Helvetica" font-size="10.00">Parameters/AdaptiveMCMCHandler.h</text>
</a>
</g>
</g>
<!-- Node1&#45;&gt;Node42 -->
<g id="edge43" class="edge">
<title>Node1&#45;&gt;Node42</title>
<path fill="none" stroke="midnightblue" d="M646.21,-423.48C589.05,-412.22 514.82,-397.6 468.68,-388.51"/>
<polygon fill="midnightblue" stroke="midnightblue" points="645.82,-426.98 656.31,-425.47 647.18,-420.11 645.82,-426.98"/>
</g>
<!-- Node44 -->
<g id="node39" class="node">
<title>Node44</title>
<g id="a_node39"><a xlink:href="ParameterHandlerBase_8h.html" target="_top" xlink:title=" ">
<polygon fill="white" stroke="black" points="400,-302.5 400,-332.5 549,-332.5 549,-302.5 400,-302.5"/>
<text text-anchor="start" x="408" y="-320.5" font-family="Helvetica" font-size="10.00">Parameters/ParameterHandler</text>
<text text-anchor="middle" x="474.5" y="-309.5" font-family="Helvetica" font-size="10.00">Base.h</text>
</a>
</g>
</g>
<!-- Node1&#45;&gt;Node44 -->
<g id="edge59" class="edge">
<title>Node1&#45;&gt;Node44</title>
<path fill="none" stroke="midnightblue" d="M652.62,-422.74C623.81,-414.7 591.21,-403.58 563.5,-389 534.37,-373.67 505.37,-348.34 488.73,-332.58"/>
<polygon fill="midnightblue" stroke="midnightblue" points="652.07,-426.22 662.64,-425.46 653.9,-419.47 652.07,-426.22"/>
</g>
<!-- Node60 -->
<g id="node47" class="node">
<title>Node60</title>
<g id="a_node47"><a xlink:href="ParameterTunes_8h.html" target="_top" xlink:title=" ">
<polygon fill="white" stroke="black" points="572.5,-369.5 572.5,-388.5 722.5,-388.5 722.5,-369.5 572.5,-369.5"/>
<text text-anchor="middle" x="647.5" y="-376.5" font-family="Helvetica" font-size="10.00">Parameters/ParameterTunes.h</text>
</a>
</g>
</g>
<!-- Node1&#45;&gt;Node60 -->
<g id="edge60" class="edge">
<title>Node1&#45;&gt;Node60</title>
<path fill="none" stroke="midnightblue" d="M700.19,-419.19C686.18,-408.77 669.86,-396.63 659.14,-388.66"/>
<polygon fill="midnightblue" stroke="midnightblue" points="698.43,-422.24 708.54,-425.4 702.61,-416.62 698.43,-422.24"/>
</g>
<!-- Node62 -->
<g id="node49" class="node">
<title>Node62</title>
<g id="a_node49"><a xlink:href="PCAHandler_8h.html" target="_top" xlink:title=" ">
<polygon fill="white" stroke="black" points="741,-369.5 741,-388.5 874,-388.5 874,-369.5 741,-369.5"/>
<text text-anchor="middle" x="807.5" y="-376.5" font-family="Helvetica" font-size="10.00">Parameters/PCAHandler.h</text>
</a>
</g>
</g>
<!-- Node1&#45;&gt;Node62 -->
<g id="edge63" class="edge">
<title>Node1&#45;&gt;Node62</title>
<path fill="none" stroke="midnightblue" d="M754.81,-419.19C768.82,-408.77 785.14,-396.63 795.86,-388.66"/>
<polygon fill="midnightblue" stroke="midnightblue" points="752.39,-416.62 746.46,-425.4 756.57,-422.24 752.39,-416.62"/>
</g>
<!-- Node3 -->
<g id="node3" class="node">
<title>Node3</title>
<g id="a_node3"><a xlink:href="FitterBase_8h.html" target="_top" xlink:title=" ">
<polygon fill="white" stroke="black" points="839,-241 839,-260 940,-260 940,-241 839,-241"/>
<text text-anchor="middle" x="889.5" y="-248" font-family="Helvetica" font-size="10.00">Fitters/FitterBase.h</text>
</a>
</g>
</g>
<!-- Node2&#45;&gt;Node3 -->
<g id="edge2" class="edge">
<title>Node2&#45;&gt;Node3</title>
<path fill="none" stroke="midnightblue" d="M1286.03,-378.09C1179.3,-376.86 992.45,-369.37 936.5,-333 909.8,-315.64 896.5,-277.44 891.69,-260.22"/>
<polygon fill="midnightblue" stroke="midnightblue" points="1286.07,-381.59 1296.11,-378.19 1286.14,-374.59 1286.07,-381.59"/>
</g>
<!-- Node22 -->
<g id="node17" class="node">
<title>Node22</title>
<g id="a_node17"><a xlink:href="MCMCProcessor_8cpp.html" target="_top" xlink:title=" ">
<polygon fill="white" stroke="black" points="1896,-308 1896,-327 2039,-327 2039,-308 1896,-308"/>
<text text-anchor="middle" x="1967.5" y="-315" font-family="Helvetica" font-size="10.00">Fitters/MCMCProcessor.cpp</text>
</a>
</g>
</g>
<!-- Node2&#45;&gt;Node22 -->
<g id="edge22" class="edge">
<title>Node2&#45;&gt;Node22</title>
<path fill="none" stroke="midnightblue" d="M1438.97,-368.89C1638.44,-349.38 1691.25,-358.24 1886.5,-333 1898.83,-331.41 1912.13,-329.22 1924.32,-327.03"/>
<polygon fill="midnightblue" stroke="midnightblue" points="1438.34,-365.44 1428.74,-369.91 1439.03,-372.41 1438.34,-365.44"/>
</g>
<!-- Node23 -->
<g id="node18" class="node">
<title>Node23</title>
<g id="a_node18"><a xlink:href="OscProcessor_8h.html" target="_top" xlink:title=" ">
<polygon fill="white" stroke="black" points="2059,-308 2059,-327 2178,-327 2178,-308 2059,-308"/>
<text text-anchor="middle" x="2118.5" y="-315" font-family="Helvetica" font-size="10.00">Fitters/OscProcessor.h</text>
</a>
</g>
</g>
<!-- Node2&#45;&gt;Node23 -->
<g id="edge23" class="edge">
<title>Node2&#45;&gt;Node23</title>
<path fill="none" stroke="midnightblue" d="M1438.88,-368.94C1710.19,-345.36 1782.12,-368.25 2048.5,-333 2059.57,-331.53 2071.51,-329.31 2082.34,-327.04"/>
<polygon fill="midnightblue" stroke="midnightblue" points="1438.38,-365.47 1428.73,-369.83 1439,-372.44 1438.38,-365.47"/>
</g>
<!-- Node26 -->
<g id="node21" class="node">
<title>Node26</title>
<g id="a_node21"><a xlink:href="SampleSummary_8h.html" target="_top" xlink:title=" ">
<polygon fill="white" stroke="black" points="1624,-308 1624,-327 1755,-327 1755,-308 1624,-308"/>
<text text-anchor="middle" x="1689.5" y="-315" font-family="Helvetica" font-size="10.00">Fitters/SampleSummary.h</text>
</a>
</g>
</g>
<!-- Node2&#45;&gt;Node26 -->
<g id="edge26" class="edge">
<title>Node2&#45;&gt;Node26</title>
<path fill="none" stroke="midnightblue" d="M1421.2,-367.76C1472.3,-358.79 1548.35,-345.3 1614.5,-333 1624.67,-331.11 1635.61,-329.02 1645.9,-327.04"/>
<polygon fill="midnightblue" stroke="midnightblue" points="1420.56,-364.32 1411.32,-369.5 1421.77,-371.22 1420.56,-364.32"/>
</g>
<!-- Node28 -->
<g id="node23" class="node">
<title>Node28</title>
<g id="a_node23"><a xlink:href="DiagMCMC_8cpp.html" target="_top" xlink:title=" ">
<polygon fill="white" stroke="black" points="946,-308 946,-327 1087,-327 1087,-308 946,-308"/>
<text text-anchor="middle" x="1016.5" y="-315" font-family="Helvetica" font-size="10.00">Diagnostics/DiagMCMC.cpp</text>
</a>
</g>
</g>
<!-- Node2&#45;&gt;Node28 -->
<g id="edge28" class="edge">
<title>Node2&#45;&gt;Node28</title>
<path fill="none" stroke="midnightblue" d="M1300.89,-367.79C1246.96,-358.8 1166.5,-345.26 1096.5,-333 1085.66,-331.1 1073.99,-329.01 1063.02,-327.03"/>
<polygon fill="midnightblue" stroke="midnightblue" points="1300.54,-371.28 1310.98,-369.47 1301.69,-364.37 1300.54,-371.28"/>
</g>
<!-- Node29 -->
<g id="node24" class="node">
<title>Node29</title>
<g id="a_node24"><a xlink:href="PlotMCMCDiag_8cpp.html" target="_top" xlink:title="KS: This script is used to analyse output form DiagMCMC.">
<polygon fill="white" stroke="black" points="1105.5,-308 1105.5,-327 1263.5,-327 1263.5,-308 1105.5,-308"/>
<text text-anchor="middle" x="1184.5" y="-315" font-family="Helvetica" font-size="10.00">Diagnostics/PlotMCMCDiag.cpp</text>
</a>
</g>
</g>
<!-- Node2&#45;&gt;Node29 -->
<g id="edge29" class="edge">
<title>Node2&#45;&gt;Node29</title>
<path fill="none" stroke="midnightblue" d="M1327.29,-366.23C1292.69,-354.67 1240.73,-337.3 1209.96,-327.01"/>
<polygon fill="midnightblue" stroke="midnightblue" points="1326.4,-369.62 1337,-369.48 1328.62,-362.99 1326.4,-369.62"/>
</g>
<!-- Node30 -->
<g id="node25" class="node">
<title>Node30</title>
<g id="a_node25"><a xlink:href="ReweightMCMC_8cpp.html" target="_top" xlink:title=" ">
<polygon fill="white" stroke="black" points="1282,-308 1282,-327 1443,-327 1443,-308 1282,-308"/>
<text text-anchor="middle" x="1362.5" y="-315" font-family="Helvetica" font-size="10.00">Diagnostics/ReweightMCMC.cpp</text>
</a>
</g>
</g>
<!-- Node2&#45;&gt;Node30 -->
<g id="edge30" class="edge">
<title>Node2&#45;&gt;Node30</title>
<path fill="none" stroke="midnightblue" d="M1362.5,-359.32C1362.5,-348.5 1362.5,-335.4 1362.5,-327.01"/>
<polygon fill="midnightblue" stroke="midnightblue" points="1359,-359.48 1362.5,-369.48 1366,-359.48 1359,-359.48"/>
</g>
<!-- Node31 -->
<g id="node26" class="node">
<title>Node31</title>
<g id="a_node26"><a xlink:href="SmearChain_8cpp.html" target="_top" xlink:title=" ">
<polygon fill="white" stroke="black" points="1461.5,-308 1461.5,-327 1605.5,-327 1605.5,-308 1461.5,-308"/>
<text text-anchor="middle" x="1533.5" y="-315" font-family="Helvetica" font-size="10.00">Diagnostics/SmearChain.cpp</text>
</a>
</g>
</g>
<!-- Node2&#45;&gt;Node31 -->
<g id="edge31" class="edge">
<title>Node2&#45;&gt;Node31</title>
<path fill="none" stroke="midnightblue" d="M1396.75,-366.08C1429.99,-354.52 1479.61,-337.25 1509.05,-327.01"/>
<polygon fill="midnightblue" stroke="midnightblue" points="1395.29,-362.88 1387,-369.48 1397.59,-369.49 1395.29,-362.88"/>
</g>
<!-- Node32 -->
<g id="node27" class="node">
<title>Node32</title>
<g id="a_node27"><a xlink:href="inputManager_8h.html" target="_top" xlink:title=" ">
<polygon fill="white" stroke="black" points="1773.5,-302.5 1773.5,-332.5 1877.5,-332.5 1877.5,-302.5 1773.5,-302.5"/>
<text text-anchor="start" x="1781.5" y="-320.5" font-family="Helvetica" font-size="10.00">Plotting/plottingUtils</text>
<text text-anchor="middle" x="1825.5" y="-309.5" font-family="Helvetica" font-size="10.00">/inputManager.h</text>
</a>
</g>
</g>
<!-- Node2&#45;&gt;Node32 -->
<g id="edge32" class="edge">
<title>Node2&#45;&gt;Node32</title>
<path fill="none" stroke="midnightblue" d="M1438.92,-368.86C1584.05,-352.54 1623.06,-357.09 1763.5,-333 1766.77,-332.44 1770.12,-331.81 1773.5,-331.14"/>
<polygon fill="midnightblue" stroke="midnightblue" points="1438.29,-365.41 1428.75,-370.02 1439.08,-372.36 1438.29,-365.41"/>
</g>
<!-- Node4 -->
<g id="node4" class="node">
<title>Node4</title>
<g id="a_node4"><a xlink:href="FitterBase_8cpp.html" target="_top" xlink:title=" ">
<polygon fill="white" stroke="black" points="582.5,-112.5 582.5,-131.5 694.5,-131.5 694.5,-112.5 582.5,-112.5"/>
<text text-anchor="middle" x="638.5" y="-119.5" font-family="Helvetica" font-size="10.00">Fitters/FitterBase.cpp</text>
</a>
</g>
</g>
<!-- Node3&#45;&gt;Node4 -->
<g id="edge3" class="edge">
<title>Node3&#45;&gt;Node4</title>
<path fill="none" stroke="midnightblue" d="M880.07,-232.09C869.01,-213.35 848.91,-184.09 823.5,-168 784.68,-143.42 733.47,-132.27 694.78,-127.21"/>
<polygon fill="midnightblue" stroke="midnightblue" points="877.04,-233.83 885.01,-240.8 883.12,-230.37 877.04,-233.83"/>
</g>
<!-- Node5 -->
<g id="node5" class="node">
<title>Node5</title>
<g id="a_node5"><a xlink:href="LikelihoodFit_8h.html" target="_top" xlink:title=" ">
<polygon fill="white" stroke="black" points="908.5,-174 908.5,-193 1018.5,-193 1018.5,-174 908.5,-174"/>
<text text-anchor="middle" x="963.5" y="-181" font-family="Helvetica" font-size="10.00">Fitters/LikelihoodFit.h</text>
</a>
</g>
</g>
<!-- Node3&#45;&gt;Node5 -->
<g id="edge4" class="edge">
<title>Node3&#45;&gt;Node5</title>
<path fill="none" stroke="midnightblue" d="M907.31,-233.86C921.86,-221.08 941.88,-203.49 953.68,-193.13"/>
<polygon fill="midnightblue" stroke="midnightblue" points="904.68,-231.5 899.48,-240.73 909.3,-236.76 904.68,-231.5"/>
</g>
<!-- Node7 -->
<g id="node7" class="node">
<title>Node7</title>
<g id="a_node7"><a xlink:href="MaCh3Factory_8h.html" target="_top" xlink:title="Factory methods for MaCh3 software which streamline initialisation of different objects.">
<polygon fill="white" stroke="black" points="777,-56.5 777,-75.5 898,-75.5 898,-56.5 777,-56.5"/>
<text text-anchor="middle" x="837.5" y="-63.5" font-family="Helvetica" font-size="10.00">Fitters/MaCh3Factory.h</text>
</a>
</g>
</g>
<!-- Node3&#45;&gt;Node7 -->
<g id="edge13" class="edge">
<title>Node3&#45;&gt;Node7</title>
<path fill="none" stroke="midnightblue" d="M881.44,-231.31C869.25,-203.52 847.07,-151.64 842.5,-132 837.88,-112.16 837.29,-88.08 837.34,-75.54"/>
<polygon fill="midnightblue" stroke="midnightblue" points="878.32,-232.93 885.56,-240.67 884.73,-230.11 878.32,-232.93"/>
</g>
<!-- Node11 -->
<g id="node10" class="node">
<title>Node11</title>
<g id="a_node10"><a xlink:href="fitters_8cpp.html" target="_top" xlink:title=" ">
<polygon fill="white" stroke="black" points="1153,-56.5 1153,-75.5 1246,-75.5 1246,-56.5 1153,-56.5"/>
<text text-anchor="middle" x="1199.5" y="-63.5" font-family="Helvetica" font-size="10.00">python/fitters.cpp</text>
</a>
</g>
</g>
<!-- Node3&#45;&gt;Node11 -->
<g id="edge21" class="edge">
<title>Node3&#45;&gt;Node11</title>
<path fill="none" stroke="midnightblue" d="M950.38,-247.23C1084.03,-240.72 1395.32,-216.56 1446.5,-132 1451.1,-124.4 1452.19,-118.83 1446.5,-112 1421.47,-82 1310.4,-71.95 1246.04,-68.62"/>
<polygon fill="midnightblue" stroke="midnightblue" points="950.12,-243.74 940.3,-247.71 950.45,-250.73 950.12,-243.74"/>
</g>
<!-- Node14 -->
<g id="node12" class="node">
<title>Node14</title>
<g id="a_node12"><a xlink:href="MCMCBase_8h.html" target="_top" xlink:title=" ">
<polygon fill="white" stroke="black" points="1199.5,-174 1199.5,-193 1309.5,-193 1309.5,-174 1199.5,-174"/>
<text text-anchor="middle" x="1254.5" y="-181" font-family="Helvetica" font-size="10.00">Fitters/MCMCBase.h</text>
</a>
</g>
</g>
<!-- Node3&#45;&gt;Node14 -->
<g id="edge14" class="edge">
<title>Node3&#45;&gt;Node14</title>
<path fill="none" stroke="midnightblue" d="M947.81,-239.12C1019.55,-226.34 1139.99,-204.89 1206.59,-193.03"/>
<polygon fill="midnightblue" stroke="midnightblue" points="946.82,-235.74 937.59,-240.94 948.05,-242.63 946.82,-235.74"/>
</g>
<!-- Node20 -->
<g id="node15" class="node">
<title>Node20</title>
<g id="a_node15"><a xlink:href="PredictiveThrower_8h.html" target="_top" xlink:title=" ">
<polygon fill="white" stroke="black" points="680.5,-174 680.5,-193 814.5,-193 814.5,-174 680.5,-174"/>
<text text-anchor="middle" x="747.5" y="-181" font-family="Helvetica" font-size="10.00">Fitters/PredictiveThrower.h</text>
</a>
</g>
</g>
<!-- Node3&#45;&gt;Node20 -->
<g id="edge19" class="edge">
<title>Node3&#45;&gt;Node20</title>
<path fill="none" stroke="midnightblue" d="M861.35,-236.61C833.22,-223.74 790.77,-204.31 766.43,-193.17"/>
<polygon fill="midnightblue" stroke="midnightblue" points="860.09,-239.89 870.64,-240.87 863.01,-233.52 860.09,-239.89"/>
</g>
<!-- Node6 -->
<g id="node6" class="node">
<title>Node6</title>
<g id="a_node6"><a xlink:href="LikelihoodFit_8cpp.html" target="_top" xlink:title=" ">
<polygon fill="white" stroke="black" points="865.5,-112.5 865.5,-131.5 985.5,-131.5 985.5,-112.5 865.5,-112.5"/>
<text text-anchor="middle" x="925.5" y="-119.5" font-family="Helvetica" font-size="10.00">Fitters/LikelihoodFit.cpp</text>
</a>
</g>
</g>
<!-- Node5&#45;&gt;Node6 -->
<g id="edge5" class="edge">
<title>Node5&#45;&gt;Node6</title>
<path fill="none" stroke="midnightblue" d="M952.65,-165.51C945.55,-154.39 936.57,-140.34 930.93,-131.51"/>
<polygon fill="midnightblue" stroke="midnightblue" points="949.72,-167.43 958.06,-173.98 955.62,-163.66 949.72,-167.43"/>
</g>
<!-- Node5&#45;&gt;Node7 -->
<g id="edge6" class="edge">
<title>Node5&#45;&gt;Node7</title>
<path fill="none" stroke="midnightblue" d="M918.37,-170.69C896.89,-162.94 872.47,-150.69 856.5,-132 842.45,-115.55 838.78,-89.17 837.83,-75.63"/>
<polygon fill="midnightblue" stroke="midnightblue" points="917.4,-174.05 927.99,-173.94 919.64,-167.42 917.4,-174.05"/>
</g>
<!-- Node9 -->
<g id="node9" class="node">
<title>Node9</title>
<g id="a_node9"><a xlink:href="MinuitFit_8h.html" target="_top" xlink:title=" ">
<polygon fill="white" stroke="red" points="1099,-112.5 1099,-131.5 1192,-131.5 1192,-112.5 1099,-112.5"/>
<text text-anchor="middle" x="1145.5" y="-119.5" font-family="Helvetica" font-size="10.00">Fitters/MinuitFit.h</text>
</a>
</g>
</g>
<!-- Node5&#45;&gt;Node9 -->
<g id="edge8" class="edge">
<title>Node5&#45;&gt;Node9</title>
<path fill="none" stroke="midnightblue" d="M999.5,-170.73C1034.87,-159.17 1088,-141.8 1119.47,-131.51"/>
<polygon fill="midnightblue" stroke="midnightblue" points="997.99,-167.54 989.58,-173.98 1000.17,-174.19 997.99,-167.54"/>
</g>
<!-- Node12 -->
<g id="node11" class="node">
<title>Node12</title>
<g id="a_node11"><a xlink:href="PSO_8h.html" target="_top" xlink:title=" ">
<polygon fill="white" stroke="red" points="1004,-112.5 1004,-131.5 1081,-131.5 1081,-112.5 1004,-112.5"/>
<text text-anchor="middle" x="1042.5" y="-119.5" font-family="Helvetica" font-size="10.00">Fitters/PSO.h</text>
</a>
</g>
</g>
<!-- Node5&#45;&gt;Node12 -->
<g id="edge10" class="edge">
<title>Node5&#45;&gt;Node12</title>
<path fill="none" stroke="midnightblue" d="M983.03,-167.79C998.18,-156.38 1018.66,-140.96 1031.2,-131.51"/>
<polygon fill="midnightblue" stroke="midnightblue" points="980.7,-165.16 974.82,-173.98 984.91,-170.75 980.7,-165.16"/>
</g>
<!-- Node8 -->
<g id="node8" class="node">
<title>Node8</title>
<g id="a_node8"><a xlink:href="MaCh3Factory_8cpp.html" target="_top" xlink:title=" ">
<polygon fill="white" stroke="black" points="772,-0.5 772,-19.5 903,-19.5 903,-0.5 772,-0.5"/>
<text text-anchor="middle" x="837.5" y="-7.5" font-family="Helvetica" font-size="10.00">Fitters/MaCh3Factory.cpp</text>
</a>
</g>
</g>
<!-- Node7&#45;&gt;Node8 -->
<g id="edge7" class="edge">
<title>Node7&#45;&gt;Node8</title>
<path fill="none" stroke="midnightblue" d="M837.5,-45.8C837.5,-36.91 837.5,-26.78 837.5,-19.75"/>
<polygon fill="midnightblue" stroke="midnightblue" points="834,-46.08 837.5,-56.08 841,-46.08 834,-46.08"/>
</g>
<!-- Node9&#45;&gt;Node11 -->
<g id="edge9" class="edge">
<title>Node9&#45;&gt;Node11</title>
<path fill="none" stroke="midnightblue" d="M1161.5,-105C1171.07,-95.43 1182.86,-83.64 1190.75,-75.75"/>
<polygon fill="midnightblue" stroke="midnightblue" points="1159.01,-102.54 1154.42,-112.08 1163.96,-107.49 1159.01,-102.54"/>
</g>
<!-- Node12&#45;&gt;Node7 -->
<g id="edge11" class="edge">
<title>Node12&#45;&gt;Node7</title>
<path fill="none" stroke="midnightblue" d="M1000.09,-109.83C961.39,-99.63 905.01,-84.78 869.83,-75.52"/>
<polygon fill="midnightblue" stroke="midnightblue" points="999.46,-113.28 1010.02,-112.44 1001.24,-106.51 999.46,-113.28"/>
</g>
<!-- Node12&#45;&gt;Node11 -->
<g id="edge12" class="edge">
<title>Node12&#45;&gt;Node11</title>
<path fill="none" stroke="midnightblue" d="M1076.89,-109.17C1106.45,-99 1148.37,-84.59 1174.74,-75.52"/>
<polygon fill="midnightblue" stroke="midnightblue" points="1075.7,-105.88 1067.38,-112.44 1077.97,-112.5 1075.7,-105.88"/>
</g>
<!-- Node15 -->
<g id="node13" class="node">
<title>Node15</title>
<g id="a_node13"><a xlink:href="MCMCBase_8cpp.html" target="_top" xlink:title=" ">
<polygon fill="white" stroke="black" points="1317,-112.5 1317,-131.5 1438,-131.5 1438,-112.5 1317,-112.5"/>
<text text-anchor="middle" x="1377.5" y="-119.5" font-family="Helvetica" font-size="10.00">Fitters/MCMCBase.cpp</text>
</a>
</g>
</g>
<!-- Node14&#45;&gt;Node15 -->
<g id="edge15" class="edge">
<title>Node14&#45;&gt;Node15</title>
<path fill="none" stroke="midnightblue" d="M1281.33,-169.52C1305.19,-157.98 1339.37,-141.44 1359.91,-131.51"/>
<polygon fill="midnightblue" stroke="midnightblue" points="1279.6,-166.47 1272.12,-173.98 1282.65,-172.77 1279.6,-166.47"/>
</g>
<!-- Node16 -->
<g id="node14" class="node">
<title>Node16</title>
<g id="a_node14"><a xlink:href="MR2T2_8h.html" target="_top" xlink:title=" ">
<polygon fill="white" stroke="red" points="1210,-112.5 1210,-131.5 1299,-131.5 1299,-112.5 1210,-112.5"/>
<text text-anchor="middle" x="1254.5" y="-119.5" font-family="Helvetica" font-size="10.00">Fitters/MR2T2.h</text>
</a>
</g>
</g>
<!-- Node14&#45;&gt;Node16 -->
<g id="edge16" class="edge">
<title>Node14&#45;&gt;Node16</title>
<path fill="none" stroke="midnightblue" d="M1254.5,-163.82C1254.5,-153 1254.5,-139.9 1254.5,-131.51"/>
<polygon fill="midnightblue" stroke="midnightblue" points="1251,-163.98 1254.5,-173.98 1258,-163.98 1251,-163.98"/>
</g>
<!-- Node16&#45;&gt;Node7 -->
<g id="edge17" class="edge">
<title>Node16&#45;&gt;Node7</title>
<path fill="none" stroke="midnightblue" d="M1199.58,-111.92C1087.23,-95.74 968.37,-81.71 898.3,-73.75"/>
<polygon fill="midnightblue" stroke="midnightblue" points="1199.33,-115.42 1209.73,-113.39 1200.34,-108.49 1199.33,-115.42"/>
</g>
<!-- Node16&#45;&gt;Node11 -->
<g id="edge18" class="edge">
<title>Node16&#45;&gt;Node11</title>
<path fill="none" stroke="midnightblue" d="M1238.21,-105C1228.46,-95.43 1216.45,-83.64 1208.41,-75.75"/>
<polygon fill="midnightblue" stroke="midnightblue" points="1235.83,-107.57 1245.42,-112.08 1240.73,-102.58 1235.83,-107.57"/>
</g>
<!-- Node21 -->
<g id="node16" class="node">
<title>Node21</title>
<g id="a_node16"><a xlink:href="PredictiveThrower_8cpp.html" target="_top" xlink:title=" ">
<polygon fill="white" stroke="black" points="381.5,-112.5 381.5,-131.5 525.5,-131.5 525.5,-112.5 381.5,-112.5"/>
<text text-anchor="middle" x="453.5" y="-119.5" font-family="Helvetica" font-size="10.00">Fitters/PredictiveThrower.cpp</text>
</a>
</g>
</g>
<!-- Node20&#45;&gt;Node21 -->
<g id="edge20" class="edge">
<title>Node20&#45;&gt;Node21</title>
<path fill="none" stroke="midnightblue" d="M695.49,-171.97C638.51,-160.44 548.23,-142.17 495.54,-131.51"/>
<polygon fill="midnightblue" stroke="midnightblue" points="694.88,-175.42 705.38,-173.98 696.27,-168.56 694.88,-175.42"/>
</g>
<!-- Node24 -->
<g id="node19" class="node">
<title>Node24</title>
<g id="a_node19"><a xlink:href="OscProcessor_8cpp.html" target="_top" xlink:title=" ">
<polygon fill="white" stroke="black" points="2054,-241 2054,-260 2183,-260 2183,-241 2054,-241"/>
<text text-anchor="middle" x="2118.5" y="-248" font-family="Helvetica" font-size="10.00">Fitters/OscProcessor.cpp</text>
</a>
</g>
</g>
<!-- Node23&#45;&gt;Node24 -->
<g id="edge24" class="edge">
<title>Node23&#45;&gt;Node24</title>
<path fill="none" stroke="midnightblue" d="M2118.5,-297.54C2118.5,-285.17 2118.5,-269.62 2118.5,-260.13"/>
<polygon fill="midnightblue" stroke="midnightblue" points="2115,-297.73 2118.5,-307.73 2122,-297.73 2115,-297.73"/>
</g>
<!-- Node25 -->
<g id="node20" class="node">
<title>Node25</title>
<g id="a_node20"><a xlink:href="ProcessMCMC_8cpp.html" target="_top" xlink:title="Main exectable responsible for different types of MCMC processing like drawing posteriors,...">
<polygon fill="white" stroke="black" points="2201,-241 2201,-260 2358,-260 2358,-241 2201,-241"/>
<text text-anchor="middle" x="2279.5" y="-248" font-family="Helvetica" font-size="10.00">Diagnostics/ProcessMCMC.cpp</text>
</a>
</g>
</g>
<!-- Node23&#45;&gt;Node25 -->
<g id="edge25" class="edge">
<title>Node23&#45;&gt;Node25</title>
<path fill="none" stroke="midnightblue" d="M2149.2,-304.1C2181.17,-291.2 2230.39,-271.33 2258.29,-260.06"/>
<polygon fill="midnightblue" stroke="midnightblue" points="2147.84,-300.88 2139.88,-307.87 2150.46,-307.37 2147.84,-300.88"/>
</g>
<!-- Node27 -->
<g id="node22" class="node">
<title>Node27</title>
<g id="a_node22"><a xlink:href="SampleSummary_8cpp.html" target="_top" xlink:title=" ">
<polygon fill="white" stroke="black" points="1611.5,-241 1611.5,-260 1753.5,-260 1753.5,-241 1611.5,-241"/>
<text text-anchor="middle" x="1682.5" y="-248" font-family="Helvetica" font-size="10.00">Fitters/SampleSummary.cpp</text>
</a>
</g>
</g>
<!-- Node26&#45;&gt;Node27 -->
<g id="edge27" class="edge">
<title>Node26&#45;&gt;Node27</title>
<path fill="none" stroke="midnightblue" d="M1687.46,-297.54C1686.13,-285.17 1684.45,-269.62 1683.43,-260.13"/>
<polygon fill="midnightblue" stroke="midnightblue" points="1684.01,-298.17 1688.56,-307.73 1690.97,-297.42 1684.01,-298.17"/>
</g>
<!-- Node33 -->
<g id="node28" class="node">
<title>Node33</title>
<g id="a_node28"><a xlink:href="inputManager_8cpp.html" target="_top" xlink:title=" ">
<polygon fill="white" stroke="black" points="1771.5,-235.5 1771.5,-265.5 1875.5,-265.5 1875.5,-235.5 1771.5,-235.5"/>
<text text-anchor="start" x="1779.5" y="-253.5" font-family="Helvetica" font-size="10.00">Plotting/plottingUtils</text>
<text text-anchor="middle" x="1823.5" y="-242.5" font-family="Helvetica" font-size="10.00">/inputManager.cpp</text>
</a>
</g>
</g>
<!-- Node32&#45;&gt;Node33 -->
<g id="edge33" class="edge">
<title>Node32&#45;&gt;Node33</title>
<path fill="none" stroke="midnightblue" d="M1824.75,-292.11C1824.47,-283.15 1824.17,-273.32 1823.93,-265.58"/>
<polygon fill="midnightblue" stroke="midnightblue" points="1821.26,-292.51 1825.07,-302.4 1828.26,-292.29 1821.26,-292.51"/>
</g>
<!-- Node34 -->
<g id="node29" class="node">
<title>Node34</title>
<g id="a_node29"><a xlink:href="plottingManager_8h.html" target="_top" xlink:title=" ">
<polygon fill="white" stroke="black" points="1893.5,-235.5 1893.5,-265.5 1997.5,-265.5 1997.5,-235.5 1893.5,-235.5"/>
<text text-anchor="start" x="1901.5" y="-253.5" font-family="Helvetica" font-size="10.00">Plotting/plottingUtils</text>
<text text-anchor="middle" x="1945.5" y="-242.5" font-family="Helvetica" font-size="10.00">/plottingManager.h</text>
</a>
</g>
</g>
<!-- Node32&#45;&gt;Node34 -->
<g id="edge34" class="edge">
<title>Node32&#45;&gt;Node34</title>
<path fill="none" stroke="midnightblue" d="M1860.44,-297.57C1879.32,-287.35 1902.23,-274.94 1919.51,-265.58"/>
<polygon fill="midnightblue" stroke="midnightblue" points="1858.66,-294.56 1851.54,-302.4 1862,-300.71 1858.66,-294.56"/>
</g>
<!-- Node40 -->
<g id="node35" class="node">
<title>Node40</title>
<g id="a_node35"><a xlink:href="plotting_8cpp.html" target="_top" xlink:title=" ">
<polygon fill="white" stroke="black" points="2205,-174 2205,-193 2304,-193 2304,-174 2205,-174"/>
<text text-anchor="middle" x="2254.5" y="-181" font-family="Helvetica" font-size="10.00">python/plotting.cpp</text>
</a>
</g>
</g>
<!-- Node32&#45;&gt;Node40 -->
<g id="edge41" class="edge">
<title>Node32&#45;&gt;Node40</title>
<path fill="none" stroke="midnightblue" d="M1887.59,-300.48C1935.59,-287.87 1995.63,-271.55 2006.5,-266 2026.22,-255.94 2025.59,-244.69 2045.5,-235 2107.54,-204.82 2129.48,-215.37 2196.5,-199 2204.26,-197.1 2212.6,-195.04 2220.47,-193.07"/>
<polygon fill="midnightblue" stroke="midnightblue" points="1886.65,-297.1 1877.87,-303.02 1888.43,-303.88 1886.65,-297.1"/>
</g>
<!-- Node35 -->
<g id="node30" class="node">
<title>Node35</title>
<g id="a_node30"><a xlink:href="GetPostfitParamPlots_8cpp.html" target="_top" xlink:title=" ">
<polygon fill="white" stroke="black" points="1792,-168.5 1792,-198.5 1917,-198.5 1917,-168.5 1792,-168.5"/>
<text text-anchor="start" x="1800" y="-186.5" font-family="Helvetica" font-size="10.00">Plotting/GetPostfitParam</text>
<text text-anchor="middle" x="1854.5" y="-175.5" font-family="Helvetica" font-size="10.00">Plots.cpp</text>
</a>
</g>
</g>
<!-- Node34&#45;&gt;Node35 -->
<g id="edge35" class="edge">
<title>Node34&#45;&gt;Node35</title>
<path fill="none" stroke="midnightblue" d="M1917.43,-229.45C1903.43,-219.45 1886.84,-207.6 1874.21,-198.58"/>
<polygon fill="midnightblue" stroke="midnightblue" points="1915.58,-232.43 1925.75,-235.4 1919.65,-226.74 1915.58,-232.43"/>
</g>
<!-- Node36 -->
<g id="node31" class="node">
<title>Node36</title>
<g id="a_node31"><a xlink:href="MatrixPlotter_8cpp.html" target="_top" xlink:title=" ">
<polygon fill="white" stroke="black" points="1935,-174 1935,-193 2062,-193 2062,-174 1935,-174"/>
<text text-anchor="middle" x="1998.5" y="-181" font-family="Helvetica" font-size="10.00">Plotting/MatrixPlotter.cpp</text>
</a>
</g>
</g>
<!-- Node34&#45;&gt;Node36 -->
<g id="edge36" class="edge">
<title>Node34&#45;&gt;Node36</title>
<path fill="none" stroke="midnightblue" d="M1963.59,-227.32C1973.14,-215.6 1984.33,-201.88 1991.41,-193.19"/>
<polygon fill="midnightblue" stroke="midnightblue" points="1960.61,-225.43 1957,-235.4 1966.03,-229.86 1960.61,-225.43"/>
</g>
<!-- Node37 -->
<g id="node32" class="node">
<title>Node37</title>
<g id="a_node32"><a xlink:href="PlotLLH_8cpp.html" target="_top" xlink:title=" ">
<polygon fill="white" stroke="black" points="2080,-174 2080,-193 2187,-193 2187,-174 2080,-174"/>
<text text-anchor="middle" x="2133.5" y="-181" font-family="Helvetica" font-size="10.00">Plotting/PlotLLH.cpp</text>
</a>
</g>
</g>
<!-- Node34&#45;&gt;Node37 -->
<g id="edge37" class="edge">
<title>Node34&#45;&gt;Node37</title>
<path fill="none" stroke="midnightblue" d="M1995.8,-232.11C2032.38,-219.46 2080.3,-202.89 2108.9,-193.01"/>
<polygon fill="midnightblue" stroke="midnightblue" points="1994.6,-228.82 1986.29,-235.4 1996.89,-235.44 1994.6,-228.82"/>
</g>
<!-- Node38 -->
<g id="node33" class="node">
<title>Node38</title>
<g id="a_node33"><a xlink:href="PlotSigmaVariation_8cpp.html" target="_top" xlink:title=" ">
<polygon fill="white" stroke="black" points="1494.5,-174 1494.5,-193 1648.5,-193 1648.5,-174 1494.5,-174"/>
<text text-anchor="middle" x="1571.5" y="-181" font-family="Helvetica" font-size="10.00">Plotting/PlotSigmaVariation.cpp</text>
</a>
</g>
</g>
<!-- Node34&#45;&gt;Node38 -->
<g id="edge38" class="edge">
<title>Node34&#45;&gt;Node38</title>
<path fill="none" stroke="midnightblue" d="M1883.33,-234.85C1782.6,-215.18 1755.16,-214.98 1657.5,-199 1645.84,-197.09 1633.31,-195 1621.51,-193.02"/>
<polygon fill="midnightblue" stroke="midnightblue" points="1882.83,-238.32 1893.31,-236.82 1884.18,-231.45 1882.83,-238.32"/>
</g>
<!-- Node39 -->
<g id="node34" class="node">
<title>Node39</title>
<g id="a_node34"><a xlink:href="plottingManager_8cpp.html" target="_top" xlink:title=" ">
<polygon fill="white" stroke="black" points="1667,-168.5 1667,-198.5 1774,-198.5 1774,-168.5 1667,-168.5"/>
<text text-anchor="start" x="1675" y="-186.5" font-family="Helvetica" font-size="10.00">Plotting/plottingUtils</text>
<text text-anchor="middle" x="1720.5" y="-175.5" font-family="Helvetica" font-size="10.00">/plottingManager.cpp</text>
</a>
</g>
</g>
<!-- Node34&#45;&gt;Node39 -->
<g id="edge39" class="edge">
<title>Node34&#45;&gt;Node39</title>
<path fill="none" stroke="midnightblue" d="M1886.93,-232.58C1850.39,-222.02 1803.9,-208.59 1769.35,-198.61"/>
<polygon fill="midnightblue" stroke="midnightblue" points="1886.38,-236.06 1896.96,-235.48 1888.32,-229.34 1886.38,-236.06"/>
</g>
<!-- Node34&#45;&gt;Node40 -->
<g id="edge40" class="edge">
<title>Node34&#45;&gt;Node40</title>
<path fill="none" stroke="midnightblue" d="M2007.68,-235.79C2008.97,-235.53 2010.24,-235.26 2011.5,-235 2093.52,-218.01 2114.73,-217.16 2196.5,-199 2204.71,-197.18 2213.53,-195.06 2221.75,-193.01"/>
<polygon fill="midnightblue" stroke="midnightblue" points="2006.77,-232.41 1997.71,-237.91 2008.22,-239.26 2006.77,-232.41"/>
</g>
<!-- Node43 -->
<g id="node38" class="node">
<title>Node43</title>
<g id="a_node38"><a xlink:href="AdaptiveMCMCHandler_8cpp.html" target="_top" xlink:title=" ">
<polygon fill="white" stroke="black" points="191,-308 191,-327 382,-327 382,-308 191,-308"/>
<text text-anchor="middle" x="286.5" y="-315" font-family="Helvetica" font-size="10.00">Parameters/AdaptiveMCMCHandler.cpp</text>
</a>
</g>
</g>
<!-- Node42&#45;&gt;Node43 -->
<g id="edge44" class="edge">
<title>Node42&#45;&gt;Node43</title>
<path fill="none" stroke="midnightblue" d="M396.25,-365.48C369.25,-353.92 329.9,-337.08 306.38,-327.01"/>
<polygon fill="midnightblue" stroke="midnightblue" points="395.01,-368.76 405.58,-369.48 397.77,-362.32 395.01,-368.76"/>
</g>
<!-- Node42&#45;&gt;Node44 -->
<g id="edge45" class="edge">
<title>Node42&#45;&gt;Node44</title>
<path fill="none" stroke="midnightblue" d="M439.06,-361.53C446.57,-352.42 455.79,-341.21 462.95,-332.52"/>
<polygon fill="midnightblue" stroke="midnightblue" points="436.18,-359.53 432.52,-369.48 441.58,-363.98 436.18,-359.53"/>
</g>
<!-- Node44&#45;&gt;Node3 -->
<g id="edge46" class="edge">
<title>Node44&#45;&gt;Node3</title>
<path fill="none" stroke="midnightblue" d="M559.28,-301.73C664.28,-284.66 775.7,-268.09 838.82,-258.85"/>
<polygon fill="midnightblue" stroke="midnightblue" points="558.45,-298.32 549.14,-303.38 559.58,-305.23 558.45,-298.32"/>
</g>
<!-- Node45 -->
<g id="node40" class="node">
<title>Node45</title>
<g id="a_node40"><a xlink:href="ParameterHandlerBase_8cpp.html" target="_top" xlink:title=" ">
<polygon fill="white" stroke="black" points="158,-235.5 158,-265.5 307,-265.5 307,-235.5 158,-235.5"/>
<text text-anchor="start" x="166" y="-253.5" font-family="Helvetica" font-size="10.00">Parameters/ParameterHandler</text>
<text text-anchor="middle" x="232.5" y="-242.5" font-family="Helvetica" font-size="10.00">Base.cpp</text>
</a>
</g>
</g>
<!-- Node44&#45;&gt;Node45 -->
<g id="edge47" class="edge">
<title>Node44&#45;&gt;Node45</title>
<path fill="none" stroke="midnightblue" d="M412.51,-299.85C373.05,-289.25 322.51,-275.68 285.04,-265.61"/>
<polygon fill="midnightblue" stroke="midnightblue" points="411.72,-303.26 422.29,-302.48 413.54,-296.5 411.72,-303.26"/>
</g>
<!-- Node46 -->
<g id="node41" class="node">
<title>Node46</title>
<g id="a_node41"><a xlink:href="ParameterHandlerGeneric_8h.html" target="_top" xlink:title=" ">
<polygon fill="white" stroke="black" points="325,-235.5 325,-265.5 474,-265.5 474,-235.5 325,-235.5"/>
<text text-anchor="start" x="333" y="-253.5" font-family="Helvetica" font-size="10.00">Parameters/ParameterHandler</text>
<text text-anchor="middle" x="399.5" y="-242.5" font-family="Helvetica" font-size="10.00">Generic.h</text>
</a>
</g>
</g>
<!-- Node44&#45;&gt;Node46 -->
<g id="edge48" class="edge">
<title>Node44&#45;&gt;Node46</title>
<path fill="none" stroke="midnightblue" d="M450.38,-295.6C439.06,-285.78 425.86,-274.34 415.74,-265.58"/>
<polygon fill="midnightblue" stroke="midnightblue" points="448.38,-298.49 458.23,-302.4 452.96,-293.2 448.38,-298.49"/>
</g>
<!-- Node59 -->
<g id="node46" class="node">
<title>Node59</title>
<g id="a_node46"><a xlink:href="parameters_8cpp.html" target="_top" xlink:title=" ">
<polygon fill="white" stroke="black" points="545,-174 545,-193 662,-193 662,-174 545,-174"/>
<text text-anchor="middle" x="603.5" y="-181" font-family="Helvetica" font-size="10.00">python/parameters.cpp</text>
</a>
</g>
</g>
<!-- Node44&#45;&gt;Node59 -->
<g id="edge58" class="edge">
<title>Node44&#45;&gt;Node59</title>
<path fill="none" stroke="midnightblue" d="M495.49,-295.02C524.4,-265.44 575.14,-213.52 595.1,-193.1"/>
<polygon fill="midnightblue" stroke="midnightblue" points="492.79,-292.78 488.31,-302.37 497.8,-297.67 492.79,-292.78"/>
</g>
<!-- Node46&#45;&gt;Node7 -->
<g id="edge54" class="edge">
<title>Node46&#45;&gt;Node7</title>
<path fill="none" stroke="midnightblue" d="M379.24,-227.38C372.92,-219.1 366.76,-209.2 363.5,-199 351.65,-161.98 344.16,-138.61 372.5,-112 401.4,-84.86 657.34,-72.93 776.7,-68.81"/>
<polygon fill="midnightblue" stroke="midnightblue" points="376.73,-229.85 385.76,-235.39 382.16,-225.42 376.73,-229.85"/>
</g>
<!-- Node46&#45;&gt;Node21 -->
<g id="edge55" class="edge">
<title>Node46&#45;&gt;Node21</title>
<path fill="none" stroke="midnightblue" d="M381.99,-227.27C370.87,-210.26 360.47,-186.64 371.5,-168 382.34,-149.69 403.55,-138.34 421.69,-131.62"/>
<polygon fill="midnightblue" stroke="midnightblue" points="379.15,-229.32 387.76,-235.5 384.88,-225.3 379.15,-229.32"/>
</g>
<!-- Node47 -->
<g id="node42" class="node">
<title>Node47</title>
<g id="a_node42"><a xlink:href="SplineStructs_8h.html" target="_top" xlink:title="Contains structures and helper functions for handling spline representations of systematic parameters...">
<polygon fill="white" stroke="red" points="167,-174 167,-193 286,-193 286,-174 167,-174"/>
<text text-anchor="middle" x="226.5" y="-181" font-family="Helvetica" font-size="10.00">Splines/SplineStructs.h</text>
</a>
</g>
</g>
<!-- Node46&#45;&gt;Node47 -->
<g id="edge49" class="edge">
<title>Node46&#45;&gt;Node47</title>
<path fill="none" stroke="midnightblue" d="M352.35,-231.78C318.8,-219.18 275.23,-202.81 249.14,-193.01"/>
<polygon fill="midnightblue" stroke="midnightblue" points="351.37,-235.16 361.96,-235.4 353.83,-228.6 351.37,-235.16"/>
</g>
<!-- Node51 -->
<g id="node44" class="node">
<title>Node51</title>
<g id="a_node44"><a xlink:href="SampleHandlerFD_8h.html" target="_top" xlink:title=" ">
<polygon fill="white" stroke="red" points="380.5,-174 380.5,-193 526.5,-193 526.5,-174 380.5,-174"/>
<text text-anchor="middle" x="453.5" y="-181" font-family="Helvetica" font-size="10.00">Samples/SampleHandlerFD.h</text>
</a>
</g>
</g>
<!-- Node46&#45;&gt;Node51 -->
<g id="edge51" class="edge">
<title>Node46&#45;&gt;Node51</title>
<path fill="none" stroke="midnightblue" d="M417.65,-227.66C427.44,-215.86 438.99,-201.97 446.28,-193.19"/>
<polygon fill="midnightblue" stroke="midnightblue" points="414.92,-225.47 411.22,-235.4 420.3,-229.94 414.92,-225.47"/>
</g>
<!-- Node58 -->
<g id="node45" class="node">
<title>Node58</title>
<g id="a_node45"><a xlink:href="ParameterHandlerGeneric_8cpp.html" target="_top" xlink:title=" ">
<polygon fill="white" stroke="black" points="0,-168.5 0,-198.5 149,-198.5 149,-168.5 0,-168.5"/>
<text text-anchor="start" x="8" y="-186.5" font-family="Helvetica" font-size="10.00">Parameters/ParameterHandler</text>
<text text-anchor="middle" x="74.5" y="-175.5" font-family="Helvetica" font-size="10.00">Generic.cpp</text>
</a>
</g>
</g>
<!-- Node46&#45;&gt;Node58 -->
<g id="edge56" class="edge">
<title>Node46&#45;&gt;Node58</title>
<path fill="none" stroke="midnightblue" d="M319.25,-233.45C265.74,-222.75 196.09,-208.82 144.77,-198.55"/>
<polygon fill="midnightblue" stroke="midnightblue" points="318.89,-236.95 329.38,-235.48 320.26,-230.08 318.89,-236.95"/>
</g>
<!-- Node46&#45;&gt;Node59 -->
<g id="edge57" class="edge">
<title>Node46&#45;&gt;Node59</title>
<path fill="none" stroke="midnightblue" d="M453.07,-232.43C492.86,-219.75 545.44,-203 576.73,-193.03"/>
<polygon fill="midnightblue" stroke="midnightblue" points="451.98,-229.11 443.51,-235.48 454.1,-235.77 451.98,-229.11"/>
</g>
<!-- Node48 -->
<g id="node43" class="node">
<title>Node48</title>
<g id="a_node43"><a xlink:href="SplineBase_8h.html" target="_top" xlink:title=" ">
<polygon fill="white" stroke="red" points="171.5,-112.5 171.5,-131.5 281.5,-131.5 281.5,-112.5 171.5,-112.5"/>
<text text-anchor="middle" x="226.5" y="-119.5" font-family="Helvetica" font-size="10.00">Splines/SplineBase.h</text>
</a>
</g>
</g>
<!-- Node47&#45;&gt;Node48 -->
<g id="edge50" class="edge">
<title>Node47&#45;&gt;Node48</title>
<path fill="none" stroke="midnightblue" d="M226.5,-163.82C226.5,-153 226.5,-139.9 226.5,-131.51"/>
<polygon fill="midnightblue" stroke="midnightblue" points="223,-163.98 226.5,-173.98 230,-163.98 223,-163.98"/>
</g>
<!-- Node51&#45;&gt;Node4 -->
<g id="edge52" class="edge">
<title>Node51&#45;&gt;Node4</title>
<path fill="none" stroke="midnightblue" d="M489.63,-170.88C525.59,-159.32 579.92,-141.84 612.04,-131.51"/>
<polygon fill="midnightblue" stroke="midnightblue" points="488.45,-167.58 480.01,-173.98 490.6,-174.25 488.45,-167.58"/>
</g>
<!-- Node51&#45;&gt;Node21 -->
<g id="edge53" class="edge">
<title>Node51&#45;&gt;Node21</title>
<path fill="none" stroke="midnightblue" d="M453.5,-163.82C453.5,-153 453.5,-139.9 453.5,-131.51"/>
<polygon fill="midnightblue" stroke="midnightblue" points="450,-163.98 453.5,-173.98 457,-163.98 450,-163.98"/>
</g>
<!-- Node60&#45;&gt;Node44 -->
<g id="edge61" class="edge">
<title>Node60&#45;&gt;Node44</title>
<path fill="none" stroke="midnightblue" d="M612.91,-366.1C584.76,-356.42 544.97,-342.74 515.27,-332.52"/>
<polygon fill="midnightblue" stroke="midnightblue" points="612.12,-369.53 622.71,-369.48 614.4,-362.91 612.12,-369.53"/>
</g>
<!-- Node61 -->
<g id="node48" class="node">
<title>Node61</title>
<g id="a_node48"><a xlink:href="ParameterTunes_8cpp.html" target="_top" xlink:title=" ">
<polygon fill="white" stroke="black" points="567,-308 567,-327 728,-327 728,-308 567,-308"/>
<text text-anchor="middle" x="647.5" y="-315" font-family="Helvetica" font-size="10.00">Parameters/ParameterTunes.cpp</text>
</a>
</g>
</g>
<!-- Node60&#45;&gt;Node61 -->
<g id="edge62" class="edge">
<title>Node60&#45;&gt;Node61</title>
<path fill="none" stroke="midnightblue" d="M647.5,-359.32C647.5,-348.5 647.5,-335.4 647.5,-327.01"/>
<polygon fill="midnightblue" stroke="midnightblue" points="644,-359.48 647.5,-369.48 651,-359.48 644,-359.48"/>
</g>
<!-- Node62&#45;&gt;Node44 -->
<g id="edge64" class="edge">
<title>Node62&#45;&gt;Node44</title>
<path fill="none" stroke="midnightblue" d="M749.76,-367.68C694.17,-357.75 609.83,-342.68 549.16,-331.84"/>
<polygon fill="midnightblue" stroke="midnightblue" points="749.33,-371.16 759.79,-369.48 750.56,-364.27 749.33,-371.16"/>
</g>
<!-- Node63 -->
<g id="node50" class="node">
<title>Node63</title>
<g id="a_node50"><a xlink:href="PCAHandler_8cpp.html" target="_top" xlink:title=" ">
<polygon fill="white" stroke="black" points="746,-308 746,-327 889,-327 889,-308 746,-308"/>
<text text-anchor="middle" x="817.5" y="-315" font-family="Helvetica" font-size="10.00">Parameters/PCAHandler.cpp</text>
</a>
</g>
</g>
<!-- Node62&#45;&gt;Node63 -->
<g id="edge65" class="edge">
<title>Node62&#45;&gt;Node63</title>
<path fill="none" stroke="midnightblue" d="M810.64,-359.32C812.46,-348.5 814.66,-335.4 816.07,-327.01"/>
<polygon fill="midnightblue" stroke="midnightblue" points="807.14,-359.03 808.93,-369.48 814.04,-360.19 807.14,-359.03"/>
</g>
</g>
</svg>
