<?xml version="1.0" encoding="UTF-8" standalone="no"?>
<!DOCTYPE svg PUBLIC "-//W3C//DTD SVG 1.1//EN"
 "http://www.w3.org/Graphics/SVG/1.1/DTD/svg11.dtd">
<!-- Generated by graphviz version 2.44.0 (0)
 -->
<!-- Title: Parameters/ParameterHandlerGeneric.h Pages: 1 -->
<!--zoomable 330 -->
<svg id="main" version="1.1" xmlns="http://www.w3.org/2000/svg" xmlns:xlink="http://www.w3.org/1999/xlink" xml:space="preserve" onload="init(evt)">
<style type="text/css"><![CDATA[
.edge:hover path { stroke: red; }
.edge:hover polygon { stroke: red; fill: red; }
]]></style>
<script type="text/javascript"><![CDATA[
var edges = document.getElementsByTagName('g');
if (edges && edges.length) {
  for (var i=0;i<edges.length;i++) {
    if (edges[i].id.substr(0,4)=='edge') {
      edges[i].setAttribute('class','edge');
    }
  }
}
]]></script>
        <defs>
                <circle id="rim" cx="0" cy="0" r="7"/>
                <circle id="rim2" cx="0" cy="0" r="3.5"/>
                <g id="zoomPlus">
                        <use xlink:href="#rim" fill="#404040">
                                <set attributeName="fill" to="#808080" begin="zoomplus.mouseover" end="zoomplus.mouseout"/>
                        </use>
                        <path d="M-4,0h8M0,-4v8" fill="none" stroke="white" stroke-width="1.5" pointer-events="none"/>
                </g>
                <g id="zoomMin">
                        <use xlink:href="#rim" fill="#404040">
                                <set attributeName="fill" to="#808080" begin="zoomminus.mouseover" end="zoomminus.mouseout"/>
                        </use>
                        <path d="M-4,0h8" fill="none" stroke="white" stroke-width="1.5" pointer-events="none"/>
                </g>
                <g id="dirArrow">
                        <path fill="none" stroke="white" stroke-width="1.5" d="M0,-3.0v7 M-2.5,-0.5L0,-3.0L2.5,-0.5"/>
                </g>
               <g id="resetDef">
                       <use xlink:href="#rim2" fill="#404040">
                               <set attributeName="fill" to="#808080" begin="reset.mouseover" end="reset.mouseout"/>
                       </use>
               </g>
        </defs>

<script type="text/javascript">
var viewWidth = 1162;
var viewHeight = 330;
var sectionId = 'dynsection-1';
</script>
<script xlink:href="svgpan.js"/>
<svg id="graph" class="graph">
<g id="viewport">
<title>Parameters/ParameterHandlerGeneric.h</title>
<polygon fill="white" stroke="transparent" points="-4,4 -4,-326 1157.5,-326 1157.5,4 -4,4"/>
<!-- Node1 -->
<g id="node1" class="node">
<title>Node1</title>
<g id="a_node1"><a xlink:title=" ">
<polygon fill="#bfbfbf" stroke="black" points="671.5,-291.5 671.5,-321.5 820.5,-321.5 820.5,-291.5 671.5,-291.5"/>
<text text-anchor="start" x="679.5" y="-309.5" font-family="Helvetica" font-size="10.00">Parameters/ParameterHandler</text>
<text text-anchor="middle" x="746" y="-298.5" font-family="Helvetica" font-size="10.00">Generic.h</text>
</a>
</g>
</g>
<!-- Node2 -->
<g id="node2" class="node">
<title>Node2</title>
<g id="a_node2"><a xlink:href="SplineStructs_8h.html" target="_top" xlink:title="Contains structures and helper functions for handling spline representations of systematic parameters...">
<polygon fill="white" stroke="black" points="554.5,-230 554.5,-249 673.5,-249 673.5,-230 554.5,-230"/>
<text text-anchor="middle" x="614" y="-237" font-family="Helvetica" font-size="10.00">Splines/SplineStructs.h</text>
</a>
</g>
</g>
<!-- Node1&#45;&gt;Node2 -->
<g id="edge1" class="edge">
<title>Node1&#45;&gt;Node2</title>
<path fill="none" stroke="midnightblue" d="M708.36,-286.97C683.01,-274.48 650.75,-258.6 631.28,-249.01"/>
<polygon fill="midnightblue" stroke="midnightblue" points="706.84,-290.12 717.36,-291.4 709.93,-283.84 706.84,-290.12"/>
</g>
<!-- Node6 -->
<g id="node6" class="node">
<title>Node6</title>
<g id="a_node6"><a xlink:href="SampleHandlerFD_8h.html" target="_top" xlink:title=" ">
<polygon fill="white" stroke="black" points="42,-56.5 42,-75.5 188,-75.5 188,-56.5 42,-56.5"/>
<text text-anchor="middle" x="115" y="-63.5" font-family="Helvetica" font-size="10.00">Samples/SampleHandlerFD.h</text>
</a>
</g>
</g>
<!-- Node1&#45;&gt;Node6 -->
<g id="edge17" class="edge">
<title>Node1&#45;&gt;Node6</title>
<path fill="none" stroke="midnightblue" d="M677.51,-288.98C638.81,-279.44 589.58,-267 546,-255 361.76,-204.26 268.74,-267.51 134,-132 118.75,-116.66 115.6,-89.79 115.04,-75.89"/>
<polygon fill="midnightblue" stroke="midnightblue" points="677.08,-292.47 687.63,-291.46 678.75,-285.68 677.08,-292.47"/>
</g>
<!-- Node9 -->
<g id="node9" class="node">
<title>Node9</title>
<g id="a_node9"><a xlink:href="PredictiveThrower_8cpp.html" target="_top" xlink:title=" ">
<polygon fill="white" stroke="black" points="545,-0.5 545,-19.5 689,-19.5 689,-0.5 545,-0.5"/>
<text text-anchor="middle" x="617" y="-7.5" font-family="Helvetica" font-size="10.00">Fitters/PredictiveThrower.cpp</text>
</a>
</g>
</g>
<!-- Node1&#45;&gt;Node9 -->
<g id="edge20" class="edge">
<title>Node1&#45;&gt;Node9</title>
<path fill="none" stroke="midnightblue" d="M732.66,-282.3C719.72,-257.54 702,-216.77 702,-179 702,-179 702,-179 702,-121 702,-90.9 700.69,-80.35 683,-56 671.02,-39.51 651.03,-27.12 636.19,-19.56"/>
<polygon fill="midnightblue" stroke="midnightblue" points="729.68,-284.13 737.52,-291.26 735.84,-280.8 729.68,-284.13"/>
</g>
<!-- Node15 -->
<g id="node15" class="node">
<title>Node15</title>
<g id="a_node15"><a xlink:href="MaCh3Factory_8h.html" target="_top" xlink:title="Factory methods for MaCh3 software which streamline initialisation of different objects.">
<polygon fill="white" stroke="black" points="730.5,-230 730.5,-249 851.5,-249 851.5,-230 730.5,-230"/>
<text text-anchor="middle" x="791" y="-237" font-family="Helvetica" font-size="10.00">Fitters/MaCh3Factory.h</text>
</a>
</g>
</g>
<!-- Node1&#45;&gt;Node15 -->
<g id="edge18" class="edge">
<title>Node1&#45;&gt;Node15</title>
<path fill="none" stroke="midnightblue" d="M761.59,-282.97C769.65,-271.33 779.02,-257.8 784.98,-249.19"/>
<polygon fill="midnightblue" stroke="midnightblue" points="758.58,-281.18 755.76,-291.4 764.33,-285.17 758.58,-281.18"/>
</g>
<!-- Node17 -->
<g id="node17" class="node">
<title>Node17</title>
<g id="a_node17"><a xlink:href="ParameterHandlerGeneric_8cpp.html" target="_top" xlink:title=" ">
<polygon fill="white" stroke="black" points="869.5,-224.5 869.5,-254.5 1018.5,-254.5 1018.5,-224.5 869.5,-224.5"/>
<text text-anchor="start" x="877.5" y="-242.5" font-family="Helvetica" font-size="10.00">Parameters/ParameterHandler</text>
<text text-anchor="middle" x="944" y="-231.5" font-family="Helvetica" font-size="10.00">Generic.cpp</text>
</a>
</g>
</g>
<!-- Node1&#45;&gt;Node17 -->
<g id="edge21" class="edge">
<title>Node1&#45;&gt;Node17</title>
<path fill="none" stroke="midnightblue" d="M798.61,-288.23C830.64,-277.71 871.04,-264.45 901.12,-254.58"/>
<polygon fill="midnightblue" stroke="midnightblue" points="797.37,-284.95 788.96,-291.4 799.56,-291.6 797.37,-284.95"/>
</g>
<!-- Node18 -->
<g id="node18" class="node">
<title>Node18</title>
<g id="a_node18"><a xlink:href="parameters_8cpp.html" target="_top" xlink:title=" ">
<polygon fill="white" stroke="black" points="1036.5,-230 1036.5,-249 1153.5,-249 1153.5,-230 1036.5,-230"/>
<text text-anchor="middle" x="1095" y="-237" font-family="Helvetica" font-size="10.00">python/parameters.cpp</text>
</a>
</g>
</g>
<!-- Node1&#45;&gt;Node18 -->
<g id="edge22" class="edge">
<title>Node1&#45;&gt;Node18</title>
<path fill="none" stroke="midnightblue" d="M830.54,-291.18C886.64,-281.47 961.83,-268.08 1028,-255 1037.34,-253.15 1047.39,-251.05 1056.78,-249.02"/>
<polygon fill="midnightblue" stroke="midnightblue" points="829.91,-287.73 820.65,-292.88 831.1,-294.63 829.91,-287.73"/>
</g>
<!-- Node3 -->
<g id="node3" class="node">
<title>Node3</title>
<g id="a_node3"><a xlink:href="SplineBase_8h.html" target="_top" xlink:title=" ">
<polygon fill="white" stroke="black" points="458,-168.5 458,-187.5 568,-187.5 568,-168.5 458,-168.5"/>
<text text-anchor="middle" x="513" y="-175.5" font-family="Helvetica" font-size="10.00">Splines/SplineBase.h</text>
</a>
</g>
</g>
<!-- Node2&#45;&gt;Node3 -->
<g id="edge2" class="edge">
<title>Node2&#45;&gt;Node3</title>
<path fill="none" stroke="midnightblue" d="M590.65,-224.74C571.14,-213.25 543.93,-197.22 527.44,-187.51"/>
<polygon fill="midnightblue" stroke="midnightblue" points="589.14,-227.91 599.53,-229.98 592.69,-221.88 589.14,-227.91"/>
</g>
<!-- Node14 -->
<g id="node14" class="node">
<title>Node14</title>
<g id="a_node14"><a xlink:href="splines_8cpp.html" target="_top" xlink:title=" ">
<polygon fill="white" stroke="black" points="576,-56.5 576,-75.5 674,-75.5 674,-56.5 576,-56.5"/>
<text text-anchor="middle" x="625" y="-63.5" font-family="Helvetica" font-size="10.00">python/splines.cpp</text>
</a>
</g>
</g>
<!-- Node2&#45;&gt;Node14 -->
<g id="edge16" class="edge">
<title>Node2&#45;&gt;Node14</title>
<path fill="none" stroke="midnightblue" d="M615.23,-219.35C617.61,-182.23 622.77,-101.83 624.45,-75.52"/>
<polygon fill="midnightblue" stroke="midnightblue" points="611.71,-219.56 614.56,-229.76 618.69,-220 611.71,-219.56"/>
</g>
<!-- Node4 -->
<g id="node4" class="node">
<title>Node4</title>
<g id="a_node4"><a xlink:href="BinnedSplineHandler_8h.html" target="_top" xlink:title=" ">
<polygon fill="white" stroke="black" points="143.5,-112.5 143.5,-131.5 294.5,-131.5 294.5,-112.5 143.5,-112.5"/>
<text text-anchor="middle" x="219" y="-119.5" font-family="Helvetica" font-size="10.00">Splines/BinnedSplineHandler.h</text>
</a>
</g>
</g>
<!-- Node3&#45;&gt;Node4 -->
<g id="edge3" class="edge">
<title>Node3&#45;&gt;Node4</title>
<path fill="none" stroke="midnightblue" d="M456.38,-166.6C400.82,-156.4 317.1,-141.02 265.37,-131.52"/>
<polygon fill="midnightblue" stroke="midnightblue" points="455.95,-170.08 466.41,-168.44 457.21,-163.19 455.95,-170.08"/>
</g>
<!-- Node11 -->
<g id="node11" class="node">
<title>Node11</title>
<g id="a_node11"><a xlink:href="SplineBase_8cpp.html" target="_top" xlink:title=" ">
<polygon fill="white" stroke="black" points="313,-112.5 313,-131.5 433,-131.5 433,-112.5 313,-112.5"/>
<text text-anchor="middle" x="373" y="-119.5" font-family="Helvetica" font-size="10.00">Splines/SplineBase.cpp</text>
</a>
</g>
</g>
<!-- Node3&#45;&gt;Node11 -->
<g id="edge10" class="edge">
<title>Node3&#45;&gt;Node11</title>
<path fill="none" stroke="midnightblue" d="M481.3,-164.77C455,-154.63 418.28,-140.47 395.08,-131.52"/>
<polygon fill="midnightblue" stroke="midnightblue" points="480.23,-168.11 490.82,-168.44 482.75,-161.58 480.23,-168.11"/>
</g>
<!-- Node12 -->
<g id="node12" class="node">
<title>Node12</title>
<g id="a_node12"><a xlink:href="SplineMonolith_8h.html" target="_top" xlink:title=" ">
<polygon fill="white" stroke="black" points="451,-112.5 451,-131.5 575,-131.5 575,-112.5 451,-112.5"/>
<text text-anchor="middle" x="513" y="-119.5" font-family="Helvetica" font-size="10.00">Splines/SplineMonolith.h</text>
</a>
</g>
</g>
<!-- Node3&#45;&gt;Node12 -->
<g id="edge11" class="edge">
<title>Node3&#45;&gt;Node12</title>
<path fill="none" stroke="midnightblue" d="M513,-157.8C513,-148.91 513,-138.78 513,-131.75"/>
<polygon fill="midnightblue" stroke="midnightblue" points="509.5,-158.08 513,-168.08 516.5,-158.08 509.5,-158.08"/>
</g>
<!-- Node3&#45;&gt;Node14 -->
<g id="edge15" class="edge">
<title>Node3&#45;&gt;Node14</title>
<path fill="none" stroke="midnightblue" d="M540.01,-163.64C554.2,-155.74 571.23,-144.8 584,-132 601.15,-114.81 614.64,-89.21 621,-75.84"/>
<polygon fill="midnightblue" stroke="midnightblue" points="538.34,-160.56 531.18,-168.37 541.65,-166.73 538.34,-160.56"/>
</g>
<!-- Node5 -->
<g id="node5" class="node">
<title>Node5</title>
<g id="a_node5"><a xlink:href="BinnedSplineHandler_8cpp.html" target="_top" xlink:title=" ">
<polygon fill="white" stroke="black" points="206.5,-56.5 206.5,-75.5 367.5,-75.5 367.5,-56.5 206.5,-56.5"/>
<text text-anchor="middle" x="287" y="-63.5" font-family="Helvetica" font-size="10.00">Splines/BinnedSplineHandler.cpp</text>
</a>
</g>
</g>
<!-- Node4&#45;&gt;Node5 -->
<g id="edge4" class="edge">
<title>Node4&#45;&gt;Node5</title>
<path fill="none" stroke="midnightblue" d="M237.76,-106.1C250,-96.38 265.56,-84.03 275.88,-75.83"/>
<polygon fill="midnightblue" stroke="midnightblue" points="235.58,-103.36 229.93,-112.32 239.93,-108.85 235.58,-103.36"/>
</g>
<!-- Node4&#45;&gt;Node6 -->
<g id="edge5" class="edge">
<title>Node4&#45;&gt;Node6</title>
<path fill="none" stroke="midnightblue" d="M193.17,-107.59C173.94,-97.61 148.26,-84.27 131.67,-75.65"/>
<polygon fill="midnightblue" stroke="midnightblue" points="191.8,-110.82 202.29,-112.32 195.03,-104.61 191.8,-110.82"/>
</g>
<!-- Node7 -->
<g id="node7" class="node">
<title>Node7</title>
<g id="a_node7"><a xlink:href="SampleHandlerFD_8cpp.html" target="_top" xlink:title=" ">
<polygon fill="white" stroke="black" points="284.5,-0.5 284.5,-19.5 441.5,-19.5 441.5,-0.5 284.5,-0.5"/>
<text text-anchor="middle" x="363" y="-7.5" font-family="Helvetica" font-size="10.00">Samples/SampleHandlerFD.cpp</text>
</a>
</g>
</g>
<!-- Node6&#45;&gt;Node7 -->
<g id="edge6" class="edge">
<title>Node6&#45;&gt;Node7</title>
<path fill="none" stroke="midnightblue" d="M164.23,-54.28C211.09,-44.08 280.7,-28.92 323.89,-19.52"/>
<polygon fill="midnightblue" stroke="midnightblue" points="163.32,-50.9 154.3,-56.44 164.81,-57.74 163.32,-50.9"/>
</g>
<!-- Node8 -->
<g id="node8" class="node">
<title>Node8</title>
<g id="a_node8"><a xlink:href="FitterBase_8cpp.html" target="_top" xlink:title=" ">
<polygon fill="white" stroke="black" points="122,-0.5 122,-19.5 234,-19.5 234,-0.5 122,-0.5"/>
<text text-anchor="middle" x="178" y="-7.5" font-family="Helvetica" font-size="10.00">Fitters/FitterBase.cpp</text>
</a>
</g>
</g>
<!-- Node6&#45;&gt;Node8 -->
<g id="edge7" class="edge">
<title>Node6&#45;&gt;Node8</title>
<path fill="none" stroke="midnightblue" d="M133.04,-49.54C144.27,-39.91 158.32,-27.87 167.69,-19.83"/>
<polygon fill="midnightblue" stroke="midnightblue" points="130.44,-47.16 125.12,-56.32 134.99,-52.47 130.44,-47.16"/>
</g>
<!-- Node6&#45;&gt;Node9 -->
<g id="edge8" class="edge">
<title>Node6&#45;&gt;Node9</title>
<path fill="none" stroke="midnightblue" d="M198.3,-55.86C326.3,-41.99 463.36,-27.35 544.9,-18.67"/>
<polygon fill="midnightblue" stroke="midnightblue" points="197.88,-52.39 188.32,-56.94 198.64,-59.35 197.88,-52.39"/>
</g>
<!-- Node10 -->
<g id="node10" class="node">
<title>Node10</title>
<g id="a_node10"><a xlink:href="samples_8cpp.html" target="_top" xlink:title=" ">
<polygon fill="white" stroke="black" points="0,-0.5 0,-19.5 104,-19.5 104,-0.5 0,-0.5"/>
<text text-anchor="middle" x="52" y="-7.5" font-family="Helvetica" font-size="10.00">python/samples.cpp</text>
</a>
</g>
</g>
<!-- Node6&#45;&gt;Node10 -->
<g id="edge9" class="edge">
<title>Node6&#45;&gt;Node10</title>
<path fill="none" stroke="midnightblue" d="M96.96,-49.54C85.73,-39.91 71.68,-27.87 62.31,-19.83"/>
<polygon fill="midnightblue" stroke="midnightblue" points="95.01,-52.47 104.88,-56.32 99.56,-47.16 95.01,-52.47"/>
</g>
<!-- Node12&#45;&gt;Node7 -->
<g id="edge13" class="edge">
<title>Node12&#45;&gt;Node7</title>
<path fill="none" stroke="midnightblue" d="M476.31,-108.85C456.87,-101.31 433.3,-90.3 415,-76 394.05,-59.63 376.35,-33.21 368.05,-19.65"/>
<polygon fill="midnightblue" stroke="midnightblue" points="475.18,-112.16 485.77,-112.38 477.62,-105.61 475.18,-112.16"/>
</g>
<!-- Node13 -->
<g id="node13" class="node">
<title>Node13</title>
<g id="a_node13"><a xlink:href="SplineMonolith_8cpp.html" target="_top" xlink:title=" ">
<polygon fill="white" stroke="black" points="424,-56.5 424,-75.5 558,-75.5 558,-56.5 424,-56.5"/>
<text text-anchor="middle" x="491" y="-63.5" font-family="Helvetica" font-size="10.00">Splines/SplineMonolith.cpp</text>
</a>
</g>
</g>
<!-- Node12&#45;&gt;Node13 -->
<g id="edge12" class="edge">
<title>Node12&#45;&gt;Node13</title>
<path fill="none" stroke="midnightblue" d="M505.54,-102.69C501.83,-93.59 497.52,-83.01 494.57,-75.75"/>
<polygon fill="midnightblue" stroke="midnightblue" points="502.35,-104.14 509.37,-112.08 508.84,-101.5 502.35,-104.14"/>
</g>
<!-- Node12&#45;&gt;Node14 -->
<g id="edge14" class="edge">
<title>Node12&#45;&gt;Node14</title>
<path fill="none" stroke="midnightblue" d="M540.25,-107.86C561.02,-97.85 589.02,-84.35 607.05,-75.65"/>
<polygon fill="midnightblue" stroke="midnightblue" points="538.48,-104.83 530.99,-112.32 541.52,-111.13 538.48,-104.83"/>
</g>
<!-- Node16 -->
<g id="node16" class="node">
<title>Node16</title>
<g id="a_node16"><a xlink:href="MaCh3Factory_8cpp.html" target="_top" xlink:title=" ">
<polygon fill="white" stroke="black" points="730.5,-168.5 730.5,-187.5 861.5,-187.5 861.5,-168.5 730.5,-168.5"/>
<text text-anchor="middle" x="796" y="-175.5" font-family="Helvetica" font-size="10.00">Fitters/MaCh3Factory.cpp</text>
</a>
</g>
</g>
<!-- Node15&#45;&gt;Node16 -->
<g id="edge19" class="edge">
<title>Node15&#45;&gt;Node16</title>
<path fill="none" stroke="midnightblue" d="M792.57,-219.82C793.48,-209 794.58,-195.9 795.28,-187.51"/>
<polygon fill="midnightblue" stroke="midnightblue" points="789.07,-219.72 791.72,-229.98 796.04,-220.3 789.07,-219.72"/>
</g>
</g>
</svg>
        <g id="navigator" transform="translate(0 0)" fill="#404254">
                <rect fill="#f2f5e9" fill-opacity="0.5" stroke="#606060" stroke-width=".5" x="0" y="0" width="60" height="60"/>
                <use id="zoomplus" xlink:href="#zoomPlus" x="17" y="9" onmousedown="handleZoom(evt,'in')"/>
                <use id="zoomminus" xlink:href="#zoomMin" x="42" y="9" onmousedown="handleZoom(evt,'out')"/>
                <use id="reset" xlink:href="#resetDef" x="30" y="36" onmousedown="handleReset()"/>
                <g id="arrowUp" xlink:href="#dirArrow" transform="translate(30 24)" onmousedown="handlePan(0,-1)">
                  <use xlink:href="#rim" fill="#404040">
                        <set attributeName="fill" to="#808080" begin="arrowUp.mouseover" end="arrowUp.mouseout"/>
                  </use>
                  <path fill="none" stroke="white" stroke-width="1.5" d="M0,-3.0v7 M-2.5,-0.5L0,-3.0L2.5,-0.5"/>
                </g>
                <g id="arrowRight" xlink:href="#dirArrow" transform="rotate(90) translate(36 -43)" onmousedown="handlePan(1,0)">
                  <use xlink:href="#rim" fill="#404040">
                        <set attributeName="fill" to="#808080" begin="arrowRight.mouseover" end="arrowRight.mouseout"/>
                  </use>
                  <path fill="none" stroke="white" stroke-width="1.5" d="M0,-3.0v7 M-2.5,-0.5L0,-3.0L2.5,-0.5"/>
                </g>
                <g id="arrowDown" xlink:href="#dirArrow" transform="rotate(180) translate(-30 -48)" onmousedown="handlePan(0,1)">
                  <use xlink:href="#rim" fill="#404040">
                        <set attributeName="fill" to="#808080" begin="arrowDown.mouseover" end="arrowDown.mouseout"/>
                  </use>
                  <path fill="none" stroke="white" stroke-width="1.5" d="M0,-3.0v7 M-2.5,-0.5L0,-3.0L2.5,-0.5"/>
                </g>
                <g id="arrowLeft" xlink:href="#dirArrow" transform="rotate(270) translate(-36 17)" onmousedown="handlePan(-1,0)">
                  <use xlink:href="#rim" fill="#404040">
                        <set attributeName="fill" to="#808080" begin="arrowLeft.mouseover" end="arrowLeft.mouseout"/>
                  </use>
                  <path fill="none" stroke="white" stroke-width="1.5" d="M0,-3.0v7 M-2.5,-0.5L0,-3.0L2.5,-0.5"/>
                </g>
        </g>
        <svg viewBox="0 0 15 15" width="100%" height="30px" preserveAspectRatio="xMaxYMin meet">
         <g id="arrow_out" transform="scale(0.3 0.3)">
          <a xlink:href="ParameterHandlerGeneric_8h__dep__incl_org.svg" target="_base">
           <rect id="button" ry="5" rx="5" y="6" x="6" height="38" width="38"
                fill="#f2f5e9" fill-opacity="0.5" stroke="#606060" stroke-width="1.0"/>
           <path id="arrow"
             d="M 11.500037,31.436501 C 11.940474,20.09759 22.043105,11.32322 32.158766,21.979434 L 37.068811,17.246167 C 37.068811,17.246167 37.088388,32 37.088388,32 L 22.160133,31.978069 C 22.160133,31.978069 26.997745,27.140456 26.997745,27.140456 C 18.528582,18.264221 13.291696,25.230495 11.500037,31.436501 z"
             style="fill:#404040;"/>
          </a>
         </g>
        </svg>
</svg>
