<?xml version="1.0" encoding="UTF-8" standalone="no"?>
<!DOCTYPE svg PUBLIC "-//W3C//DTD SVG 1.1//EN"
 "http://www.w3.org/Graphics/SVG/1.1/DTD/svg11.dtd">
<!-- Generated by graphviz version 2.43.0 (0)
 -->
<!-- Title: Parameters/ParameterHandlerUtils.h Pages: 1 -->
<svg width="2164pt" height="313pt"
 viewBox="0.00 0.00 2164.00 313.00" xmlns="http://www.w3.org/2000/svg" xmlns:xlink="http://www.w3.org/1999/xlink">
<g id="graph0" class="graph" transform="scale(1 1) rotate(0) translate(4 309)">
<title>Parameters/ParameterHandlerUtils.h</title>
<!-- Node1 -->
<g id="node1" class="node">
<title>Node1</title>
<g id="a_node1"><a xlink:title=" ">
<polygon fill="#999999" stroke="#666666" points="1384,-305 1220,-305 1220,-275 1384,-275 1384,-305"/>
<text text-anchor="start" x="1228" y="-293" font-family="Helvetica,sans-Serif" font-size="10.00">Parameters/ParameterHandler</text>
<text text-anchor="middle" x="1302" y="-282" font-family="Helvetica,sans-Serif" font-size="10.00">Utils.h</text>
</a>
</g>
</g>
<!-- Node2 -->
<g id="node2" class="node">
<title>Node2</title>
<g id="a_node2"><a xlink:href="ParameterStructs_8h.html" target="_top" xlink:title=" ">
<polygon fill="white" stroke="#666666" points="574,-239 406,-239 406,-220 574,-220 574,-239"/>
<text text-anchor="middle" x="490" y="-227" font-family="Helvetica,sans-Serif" font-size="10.00">Parameters/ParameterStructs.h</text>
</a>
</g>
</g>
<!-- Node1&#45;&gt;Node2 -->
<g id="edge1" class="edge">
<title>Node1&#45;&gt;Node2</title>
<path fill="none" stroke="#63b8ff" d="M1219.67,-283.07C1067.88,-272.13 744.79,-248.86 584.39,-237.3"/>
<polygon fill="#63b8ff" stroke="#63b8ff" points="584.29,-233.78 574.06,-236.56 583.79,-240.77 584.29,-233.78"/>
</g>
<!-- Node23 -->
<g id="node23" class="node">
<title>Node23</title>
<g id="a_node23"><a xlink:title=" ">
<polygon fill="#e0e0e0" stroke="#999999" points="892.5,-184 843.5,-184 843.5,-165 892.5,-165 892.5,-184"/>
<text text-anchor="middle" x="868" y="-172" font-family="Helvetica,sans-Serif" font-size="10.00">TFile.h</text>
</a>
</g>
</g>
<!-- Node1&#45;&gt;Node23 -->
<g id="edge40" class="edge">
<title>Node1&#45;&gt;Node23</title>
<path fill="none" stroke="#63b8ff" d="M1219.9,-287.48C1074.67,-283.94 784.76,-272.69 754,-239 748.31,-232.76 749.24,-226.97 754,-220 763.34,-206.33 803.57,-192.81 833.61,-184.32"/>
<polygon fill="#63b8ff" stroke="#63b8ff" points="834.64,-187.67 843.35,-181.64 832.78,-180.92 834.64,-187.67"/>
</g>
<!-- Node27 -->
<g id="node27" class="node">
<title>Node27</title>
<g id="a_node27"><a xlink:title=" ">
<polygon fill="#e0e0e0" stroke="#999999" points="831,-239 763,-239 763,-220 831,-220 831,-239"/>
<text text-anchor="middle" x="797" y="-227" font-family="Helvetica,sans-Serif" font-size="10.00">TMatrixT.h</text>
</a>
</g>
</g>
<!-- Node1&#45;&gt;Node27 -->
<g id="edge33" class="edge">
<title>Node1&#45;&gt;Node27</title>
<path fill="none" stroke="#63b8ff" d="M1219.93,-282.3C1129.51,-274.42 979.62,-259.91 841.17,-239.06"/>
<polygon fill="#63b8ff" stroke="#63b8ff" points="841.63,-235.59 831.22,-237.54 840.58,-242.51 841.63,-235.59"/>
</g>
<!-- Node28 -->
<g id="node28" class="node">
<title>Node28</title>
<g id="a_node28"><a xlink:title=" ">
<polygon fill="#e0e0e0" stroke="#999999" points="941,-239 849,-239 849,-220 941,-220 941,-239"/>
<text text-anchor="middle" x="895" y="-227" font-family="Helvetica,sans-Serif" font-size="10.00">TMatrixDSym.h</text>
</a>
</g>
</g>
<!-- Node1&#45;&gt;Node28 -->
<g id="edge34" class="edge">
<title>Node1&#45;&gt;Node28</title>
<path fill="none" stroke="#63b8ff" d="M1219.81,-277.62C1150.82,-267.99 1049.36,-253.68 951.3,-239.18"/>
<polygon fill="#63b8ff" stroke="#63b8ff" points="951.61,-235.69 941.21,-237.68 950.59,-242.61 951.61,-235.69"/>
</g>
<!-- Node29 -->
<g id="node29" class="node">
<title>Node29</title>
<g id="a_node29"><a xlink:title=" ">
<polygon fill="#e0e0e0" stroke="#999999" points="1027,-239 959,-239 959,-220 1027,-220 1027,-239"/>
<text text-anchor="middle" x="993" y="-227" font-family="Helvetica,sans-Serif" font-size="10.00">TVectorT.h</text>
</a>
</g>
</g>
<!-- Node1&#45;&gt;Node29 -->
<g id="edge35" class="edge">
<title>Node1&#45;&gt;Node29</title>
<path fill="none" stroke="#63b8ff" d="M1226.29,-274.96C1175.54,-265.51 1106.93,-252.64 1037.51,-239.28"/>
<polygon fill="#63b8ff" stroke="#63b8ff" points="1037.74,-235.76 1027.26,-237.3 1036.42,-242.63 1037.74,-235.76"/>
</g>
<!-- Node30 -->
<g id="node30" class="node">
<title>Node30</title>
<g id="a_node30"><a xlink:title=" ">
<polygon fill="#e0e0e0" stroke="#999999" points="1115,-239 1045,-239 1045,-220 1115,-220 1115,-239"/>
<text text-anchor="middle" x="1080" y="-227" font-family="Helvetica,sans-Serif" font-size="10.00">TVectorD.h</text>
</a>
</g>
</g>
<!-- Node1&#45;&gt;Node30 -->
<g id="edge36" class="edge">
<title>Node1&#45;&gt;Node30</title>
<path fill="none" stroke="#63b8ff" d="M1248.83,-274.99C1210.02,-264.76 1158.12,-251.09 1122.16,-241.61"/>
<polygon fill="#63b8ff" stroke="#63b8ff" points="1123.02,-238.22 1112.46,-239.05 1121.24,-244.99 1123.02,-238.22"/>
</g>
<!-- Node31 -->
<g id="node31" class="node">
<title>Node31</title>
<g id="a_node31"><a xlink:title=" ">
<polygon fill="#e0e0e0" stroke="#999999" points="1186.5,-239 1133.5,-239 1133.5,-220 1186.5,-220 1186.5,-239"/>
<text text-anchor="middle" x="1160" y="-227" font-family="Helvetica,sans-Serif" font-size="10.00">TH1D.h</text>
</a>
</g>
</g>
<!-- Node1&#45;&gt;Node31 -->
<g id="edge37" class="edge">
<title>Node1&#45;&gt;Node31</title>
<path fill="none" stroke="#63b8ff" d="M1267.99,-274.99C1244.4,-265.27 1213.26,-252.44 1190.48,-243.06"/>
<polygon fill="#63b8ff" stroke="#63b8ff" points="1191.55,-239.71 1180.97,-239.14 1188.88,-246.18 1191.55,-239.71"/>
</g>
<!-- Node32 -->
<g id="node32" class="node">
<title>Node32</title>
<g id="a_node32"><a xlink:title=" ">
<polygon fill="#e0e0e0" stroke="#999999" points="1257.5,-239 1204.5,-239 1204.5,-220 1257.5,-220 1257.5,-239"/>
<text text-anchor="middle" x="1231" y="-227" font-family="Helvetica,sans-Serif" font-size="10.00">TH2D.h</text>
</a>
</g>
</g>
<!-- Node1&#45;&gt;Node32 -->
<g id="edge38" class="edge">
<title>Node1&#45;&gt;Node32</title>
<path fill="none" stroke="#63b8ff" d="M1284.81,-274.84C1274.19,-266.09 1260.56,-254.85 1249.67,-245.88"/>
<polygon fill="#63b8ff" stroke="#63b8ff" points="1251.58,-242.92 1241.64,-239.27 1247.13,-248.33 1251.58,-242.92"/>
</g>
<!-- Node33 -->
<g id="node33" class="node">
<title>Node33</title>
<g id="a_node33"><a xlink:title=" ">
<polygon fill="#e0e0e0" stroke="#999999" points="1328,-239 1276,-239 1276,-220 1328,-220 1328,-239"/>
<text text-anchor="middle" x="1302" y="-227" font-family="Helvetica,sans-Serif" font-size="10.00">TTree.h</text>
</a>
</g>
</g>
<!-- Node1&#45;&gt;Node33 -->
<g id="edge39" class="edge">
<title>Node1&#45;&gt;Node33</title>
<path fill="none" stroke="#63b8ff" d="M1302,-274.84C1302,-267.21 1302,-257.7 1302,-249.45"/>
<polygon fill="#63b8ff" stroke="#63b8ff" points="1305.5,-249.27 1302,-239.27 1298.5,-249.27 1305.5,-249.27"/>
</g>
<!-- Node34 -->
<g id="node34" class="node">
<title>Node34</title>
<g id="a_node34"><a xlink:title=" ">
<polygon fill="#e0e0e0" stroke="#999999" points="1424,-239 1346,-239 1346,-220 1424,-220 1424,-239"/>
<text text-anchor="middle" x="1385" y="-227" font-family="Helvetica,sans-Serif" font-size="10.00">TRandom3.h</text>
</a>
</g>
</g>
<!-- Node1&#45;&gt;Node34 -->
<g id="edge41" class="edge">
<title>Node1&#45;&gt;Node34</title>
<path fill="none" stroke="#63b8ff" d="M1322.09,-274.84C1334.88,-265.83 1351.4,-254.18 1364.3,-245.09"/>
<polygon fill="#63b8ff" stroke="#63b8ff" points="1366.41,-247.89 1372.56,-239.27 1362.37,-242.17 1366.41,-247.89"/>
</g>
<!-- Node35 -->
<g id="node35" class="node">
<title>Node35</title>
<g id="a_node35"><a xlink:title=" ">
<polygon fill="#e0e0e0" stroke="#999999" points="1498,-239 1442,-239 1442,-220 1498,-220 1498,-239"/>
<text text-anchor="middle" x="1470" y="-227" font-family="Helvetica,sans-Serif" font-size="10.00">TMath.h</text>
</a>
</g>
</g>
<!-- Node1&#45;&gt;Node35 -->
<g id="edge42" class="edge">
<title>Node1&#45;&gt;Node35</title>
<path fill="none" stroke="#63b8ff" d="M1342.24,-274.99C1370.77,-265.05 1408.65,-251.86 1435.73,-242.43"/>
<polygon fill="#63b8ff" stroke="#63b8ff" points="1436.9,-245.73 1445.19,-239.14 1434.6,-239.12 1436.9,-245.73"/>
</g>
<!-- Node36 -->
<g id="node36" class="node">
<title>Node36</title>
<g id="a_node36"><a xlink:title=" ">
<polygon fill="#e0e0e0" stroke="#999999" points="1610,-239 1516,-239 1516,-220 1610,-220 1610,-239"/>
<text text-anchor="middle" x="1563" y="-227" font-family="Helvetica,sans-Serif" font-size="10.00">TDecompChol.h</text>
</a>
</g>
</g>
<!-- Node1&#45;&gt;Node36 -->
<g id="edge43" class="edge">
<title>Node1&#45;&gt;Node36</title>
<path fill="none" stroke="#63b8ff" d="M1364.52,-274.99C1410.73,-264.63 1472.72,-250.73 1515.05,-241.25"/>
<polygon fill="#63b8ff" stroke="#63b8ff" points="1515.85,-244.66 1524.84,-239.05 1514.31,-237.83 1515.85,-244.66"/>
</g>
<!-- Node37 -->
<g id="node37" class="node">
<title>Node37</title>
<g id="a_node37"><a xlink:title=" ">
<polygon fill="#e0e0e0" stroke="#999999" points="1711.5,-239 1628.5,-239 1628.5,-220 1711.5,-220 1711.5,-239"/>
<text text-anchor="middle" x="1670" y="-227" font-family="Helvetica,sans-Serif" font-size="10.00">TStopwatch.h</text>
</a>
</g>
</g>
<!-- Node1&#45;&gt;Node37 -->
<g id="edge44" class="edge">
<title>Node1&#45;&gt;Node37</title>
<path fill="none" stroke="#63b8ff" d="M1384.13,-276.25C1445.77,-266.63 1532.53,-252.99 1618.34,-239.1"/>
<polygon fill="#63b8ff" stroke="#63b8ff" points="1618.95,-242.54 1628.26,-237.49 1617.83,-235.63 1618.95,-242.54"/>
</g>
<!-- Node38 -->
<g id="node38" class="node">
<title>Node38</title>
<g id="a_node38"><a xlink:title=" ">
<polygon fill="#e0e0e0" stroke="#999999" points="1792.5,-239 1729.5,-239 1729.5,-220 1792.5,-220 1792.5,-239"/>
<text text-anchor="middle" x="1761" y="-227" font-family="Helvetica,sans-Serif" font-size="10.00">TMatrix.h</text>
</a>
</g>
</g>
<!-- Node1&#45;&gt;Node38 -->
<g id="edge45" class="edge">
<title>Node1&#45;&gt;Node38</title>
<path fill="none" stroke="#63b8ff" d="M1384.2,-281.41C1466.68,-273.29 1597.51,-259.04 1719.3,-239.16"/>
<polygon fill="#63b8ff" stroke="#63b8ff" points="1719.88,-242.61 1729.17,-237.54 1718.74,-235.71 1719.88,-242.61"/>
</g>
<!-- Node39 -->
<g id="node39" class="node">
<title>Node39</title>
<g id="a_node39"><a xlink:title=" ">
<polygon fill="#e0e0e0" stroke="#999999" points="1929.5,-239 1810.5,-239 1810.5,-220 1929.5,-220 1929.5,-239"/>
<text text-anchor="middle" x="1870" y="-227" font-family="Helvetica,sans-Serif" font-size="10.00">TMatrixDSymEigen.h</text>
</a>
</g>
</g>
<!-- Node1&#45;&gt;Node39 -->
<g id="edge46" class="edge">
<title>Node1&#45;&gt;Node39</title>
<path fill="none" stroke="#63b8ff" d="M1384.35,-281.39C1481.37,-272.29 1647.72,-256.24 1800.28,-239.17"/>
<polygon fill="#63b8ff" stroke="#63b8ff" points="1800.76,-242.64 1810.31,-238.05 1799.98,-235.68 1800.76,-242.64"/>
</g>
<!-- Node40 -->
<g id="node40" class="node">
<title>Node40</title>
<g id="a_node40"><a xlink:title=" ">
<polygon fill="#e0e0e0" stroke="#999999" points="2046,-239 1948,-239 1948,-220 2046,-220 2046,-239"/>
<text text-anchor="middle" x="1997" y="-227" font-family="Helvetica,sans-Serif" font-size="10.00">TMatrixDEigen.h</text>
</a>
</g>
</g>
<!-- Node1&#45;&gt;Node40 -->
<g id="edge47" class="edge">
<title>Node1&#45;&gt;Node40</title>
<path fill="none" stroke="#63b8ff" d="M1384.12,-284.32C1503.65,-277.12 1732.77,-261.84 1937.92,-239.05"/>
<polygon fill="#63b8ff" stroke="#63b8ff" points="1938.43,-242.51 1947.98,-237.92 1937.66,-235.55 1938.43,-242.51"/>
</g>
<!-- Node41 -->
<g id="node41" class="node">
<title>Node41</title>
<g id="a_node41"><a xlink:title=" ">
<polygon fill="#e0e0e0" stroke="#999999" points="2156,-239 2064,-239 2064,-220 2156,-220 2156,-239"/>
<text text-anchor="middle" x="2110" y="-227" font-family="Helvetica,sans-Serif" font-size="10.00">TDecompSVD.h</text>
</a>
</g>
</g>
<!-- Node1&#45;&gt;Node41 -->
<g id="edge48" class="edge">
<title>Node1&#45;&gt;Node41</title>
<path fill="none" stroke="#63b8ff" d="M1384.1,-285.89C1520.88,-280.19 1804.2,-266.19 2053.84,-239.03"/>
<polygon fill="#63b8ff" stroke="#63b8ff" points="2054.27,-242.5 2063.83,-237.93 2053.5,-235.55 2054.27,-242.5"/>
</g>
<!-- Node3 -->
<g id="node3" class="node">
<title>Node3</title>
<g id="a_node3"><a xlink:title=" ">
<polygon fill="#e0e0e0" stroke="#999999" points="32,-184 0,-184 0,-165 32,-165 32,-184"/>
<text text-anchor="middle" x="16" y="-172" font-family="Helvetica,sans-Serif" font-size="10.00">set</text>
</a>
</g>
</g>
<!-- Node2&#45;&gt;Node3 -->
<g id="edge2" class="edge">
<title>Node2&#45;&gt;Node3</title>
<path fill="none" stroke="#63b8ff" d="M405.94,-225.91C317.28,-221.87 173.59,-211.66 42.1,-183.75"/>
<polygon fill="#63b8ff" stroke="#63b8ff" points="42.77,-180.32 32.25,-181.62 41.29,-187.16 42.77,-180.32"/>
</g>
<!-- Node4 -->
<g id="node4" class="node">
<title>Node4</title>
<g id="a_node4"><a xlink:title=" ">
<polygon fill="#e0e0e0" stroke="#999999" points="82,-184 50,-184 50,-165 82,-165 82,-184"/>
<text text-anchor="middle" x="66" y="-172" font-family="Helvetica,sans-Serif" font-size="10.00">list</text>
</a>
</g>
</g>
<!-- Node2&#45;&gt;Node4 -->
<g id="edge3" class="edge">
<title>Node2&#45;&gt;Node4</title>
<path fill="none" stroke="#63b8ff" d="M405.83,-224.42C326.78,-219.38 205.27,-208.53 92.13,-183.79"/>
<polygon fill="#63b8ff" stroke="#63b8ff" points="92.78,-180.35 82.26,-181.59 91.26,-187.18 92.78,-180.35"/>
</g>
<!-- Node5 -->
<g id="node5" class="node">
<title>Node5</title>
<g id="a_node5"><a xlink:title=" ">
<polygon fill="#e0e0e0" stroke="#999999" points="193.5,-184 100.5,-184 100.5,-165 193.5,-165 193.5,-184"/>
<text text-anchor="middle" x="147" y="-172" font-family="Helvetica,sans-Serif" font-size="10.00">unordered_map</text>
</a>
</g>
</g>
<!-- Node2&#45;&gt;Node5 -->
<g id="edge4" class="edge">
<title>Node2&#45;&gt;Node5</title>
<path fill="none" stroke="#63b8ff" d="M434.89,-219.98C371.44,-210.18 267.74,-194.16 203.64,-184.25"/>
<polygon fill="#63b8ff" stroke="#63b8ff" points="204.12,-180.79 193.71,-182.72 203.06,-187.7 204.12,-180.79"/>
</g>
<!-- Node6 -->
<g id="node6" class="node">
<title>Node6</title>
<g id="a_node6"><a xlink:href="MaCh3Exception_8h.html" target="_top" xlink:title=" ">
<polygon fill="white" stroke="#666666" points="364.5,-184 211.5,-184 211.5,-165 364.5,-165 364.5,-184"/>
<text text-anchor="middle" x="288" y="-172" font-family="Helvetica,sans-Serif" font-size="10.00">Manager/MaCh3Exception.h</text>
</a>
</g>
</g>
<!-- Node2&#45;&gt;Node6 -->
<g id="edge5" class="edge">
<title>Node2&#45;&gt;Node6</title>
<path fill="none" stroke="#63b8ff" d="M457.55,-219.98C423.04,-210.93 368.34,-196.58 330.44,-186.64"/>
<polygon fill="#63b8ff" stroke="#63b8ff" points="331.27,-183.23 320.71,-184.08 329.49,-190.01 331.27,-183.23"/>
</g>
<!-- Node10 -->
<g id="node10" class="node">
<title>Node10</title>
<g id="a_node10"><a xlink:href="MaCh3Logger_8h.html" target="_top" xlink:title="KS: Based on this https://github.com/gabime/spdlog/blob/a2b4262090fd3f005c2315dcb5be2f0f1774a005/incl...">
<polygon fill="white" stroke="#666666" points="364.5,-129 227.5,-129 227.5,-110 364.5,-110 364.5,-129"/>
<text text-anchor="middle" x="296" y="-117" font-family="Helvetica,sans-Serif" font-size="10.00">Manager/MaCh3Logger.h</text>
</a>
</g>
</g>
<!-- Node2&#45;&gt;Node10 -->
<g id="edge25" class="edge">
<title>Node2&#45;&gt;Node10</title>
<path fill="none" stroke="#63b8ff" d="M474.45,-219.84C440.74,-201.08 360.7,-156.52 320.27,-134.01"/>
<polygon fill="#63b8ff" stroke="#63b8ff" points="321.79,-130.85 311.35,-129.05 318.39,-136.97 321.79,-130.85"/>
</g>
<!-- Node14 -->
<g id="node14" class="node">
<title>Node14</title>
<g id="a_node14"><a xlink:href="Core_8h.html" target="_top" xlink:title=" ">
<polygon fill="white" stroke="#666666" points="604,-74 510,-74 510,-55 604,-55 604,-74"/>
<text text-anchor="middle" x="557" y="-62" font-family="Helvetica,sans-Serif" font-size="10.00">Manager/Core.h</text>
</a>
</g>
</g>
<!-- Node2&#45;&gt;Node14 -->
<g id="edge26" class="edge">
<title>Node2&#45;&gt;Node14</title>
<path fill="none" stroke="#63b8ff" d="M478.04,-219.93C463.18,-208.15 440.84,-186.02 450,-165 466.86,-126.31 507,-95.88 533.04,-79.32"/>
<polygon fill="#63b8ff" stroke="#63b8ff" points="534.92,-82.27 541.6,-74.05 531.25,-76.31 534.92,-82.27"/>
</g>
<!-- Node21 -->
<g id="node21" class="node">
<title>Node21</title>
<g id="a_node21"><a xlink:title=" ">
<polygon fill="#e0e0e0" stroke="#999999" points="521,-184 459,-184 459,-165 521,-165 521,-184"/>
<text text-anchor="middle" x="490" y="-172" font-family="Helvetica,sans-Serif" font-size="10.00">TSpline.h</text>
</a>
</g>
</g>
<!-- Node2&#45;&gt;Node21 -->
<g id="edge27" class="edge">
<title>Node2&#45;&gt;Node21</title>
<path fill="none" stroke="#63b8ff" d="M490,-219.75C490,-212.8 490,-202.85 490,-194.13"/>
<polygon fill="#63b8ff" stroke="#63b8ff" points="493.5,-194.09 490,-184.09 486.5,-194.09 493.5,-194.09"/>
</g>
<!-- Node22 -->
<g id="node22" class="node">
<title>Node22</title>
<g id="a_node22"><a xlink:title=" ">
<polygon fill="#e0e0e0" stroke="#999999" points="616.5,-184 539.5,-184 539.5,-165 616.5,-165 616.5,-184"/>
<text text-anchor="middle" x="578" y="-172" font-family="Helvetica,sans-Serif" font-size="10.00">TObjString.h</text>
</a>
</g>
</g>
<!-- Node2&#45;&gt;Node22 -->
<g id="edge28" class="edge">
<title>Node2&#45;&gt;Node22</title>
<path fill="none" stroke="#63b8ff" d="M504.14,-219.98C517.79,-211.77 538.69,-199.18 554.78,-189.49"/>
<polygon fill="#63b8ff" stroke="#63b8ff" points="556.84,-192.33 563.6,-184.17 553.23,-186.33 556.84,-192.33"/>
</g>
<!-- Node2&#45;&gt;Node23 -->
<g id="edge29" class="edge">
<title>Node2&#45;&gt;Node23</title>
<path fill="none" stroke="#63b8ff" d="M574.2,-220.37C641.72,-213.22 739.05,-201.47 833.21,-183.94"/>
<polygon fill="#63b8ff" stroke="#63b8ff" points="834.01,-187.35 843.19,-182.06 832.72,-180.47 834.01,-187.35"/>
</g>
<!-- Node24 -->
<g id="node24" class="node">
<title>Node24</title>
<g id="a_node24"><a xlink:title=" ">
<polygon fill="#e0e0e0" stroke="#999999" points="679,-184 635,-184 635,-165 679,-165 679,-184"/>
<text text-anchor="middle" x="657" y="-172" font-family="Helvetica,sans-Serif" font-size="10.00">TF1.h</text>
</a>
</g>
</g>
<!-- Node2&#45;&gt;Node24 -->
<g id="edge30" class="edge">
<title>Node2&#45;&gt;Node24</title>
<path fill="none" stroke="#63b8ff" d="M516.83,-219.98C546.37,-210.61 593.81,-195.55 625.19,-185.59"/>
<polygon fill="#63b8ff" stroke="#63b8ff" points="626.3,-188.91 634.78,-182.55 624.19,-182.24 626.3,-188.91"/>
</g>
<!-- Node25 -->
<g id="node25" class="node">
<title>Node25</title>
<g id="a_node25"><a xlink:title=" ">
<polygon fill="#e0e0e0" stroke="#999999" points="762.5,-184 697.5,-184 697.5,-165 762.5,-165 762.5,-184"/>
<text text-anchor="middle" x="730" y="-172" font-family="Helvetica,sans-Serif" font-size="10.00">TH2Poly.h</text>
</a>
</g>
</g>
<!-- Node2&#45;&gt;Node25 -->
<g id="edge31" class="edge">
<title>Node2&#45;&gt;Node25</title>
<path fill="none" stroke="#63b8ff" d="M528.56,-219.98C571.95,-210.4 642.25,-194.88 687.28,-184.93"/>
<polygon fill="#63b8ff" stroke="#63b8ff" points="688.31,-188.29 697.32,-182.72 686.8,-181.46 688.31,-188.29"/>
</g>
<!-- Node26 -->
<g id="node26" class="node">
<title>Node26</title>
<g id="a_node26"><a xlink:title=" ">
<polygon fill="#e0e0e0" stroke="#999999" points="825.5,-184 780.5,-184 780.5,-165 825.5,-165 825.5,-184"/>
<text text-anchor="middle" x="803" y="-172" font-family="Helvetica,sans-Serif" font-size="10.00">TH1.h</text>
</a>
</g>
</g>
<!-- Node2&#45;&gt;Node26 -->
<g id="edge32" class="edge">
<title>Node2&#45;&gt;Node26</title>
<path fill="none" stroke="#63b8ff" d="M556.21,-219.97C611.03,-212.46 691.13,-200.46 770.21,-183.97"/>
<polygon fill="#63b8ff" stroke="#63b8ff" points="771.28,-187.32 780.34,-181.83 769.84,-180.47 771.28,-187.32"/>
</g>
<!-- Node7 -->
<g id="node7" class="node">
<title>Node7</title>
<g id="a_node7"><a xlink:title=" ">
<polygon fill="#e0e0e0" stroke="#999999" points="196,-19 136,-19 136,0 196,0 196,-19"/>
<text text-anchor="middle" x="166" y="-7" font-family="Helvetica,sans-Serif" font-size="10.00">iostream</text>
</a>
</g>
</g>
<!-- Node6&#45;&gt;Node7 -->
<g id="edge6" class="edge">
<title>Node6&#45;&gt;Node7</title>
<path fill="none" stroke="#63b8ff" d="M211.27,-165.45C180.63,-159.26 146.42,-148.33 120,-129 90.63,-107.52 66.48,-86.31 85,-55 94.07,-39.68 110.49,-29.28 126.19,-22.41"/>
<polygon fill="#63b8ff" stroke="#63b8ff" points="127.81,-25.53 135.8,-18.58 125.22,-19.03 127.81,-25.53"/>
</g>
<!-- Node8 -->
<g id="node8" class="node">
<title>Node8</title>
<g id="a_node8"><a xlink:title=" ">
<polygon fill="#e0e0e0" stroke="#999999" points="138,-74 94,-74 94,-55 138,-55 138,-74"/>
<text text-anchor="middle" x="116" y="-62" font-family="Helvetica,sans-Serif" font-size="10.00">string</text>
</a>
</g>
</g>
<!-- Node6&#45;&gt;Node8 -->
<g id="edge7" class="edge">
<title>Node6&#45;&gt;Node8</title>
<path fill="none" stroke="#63b8ff" d="M211.44,-166.41C184.22,-160.3 155.32,-149.17 135,-129 123.14,-117.23 118.62,-98.39 116.93,-84.28"/>
<polygon fill="#63b8ff" stroke="#63b8ff" points="120.41,-83.88 116.1,-74.2 113.44,-84.46 120.41,-83.88"/>
</g>
<!-- Node9 -->
<g id="node9" class="node">
<title>Node9</title>
<g id="a_node9"><a xlink:title=" ">
<polygon fill="#e0e0e0" stroke="#999999" points="209.5,-129 144.5,-129 144.5,-110 209.5,-110 209.5,-129"/>
<text text-anchor="middle" x="177" y="-117" font-family="Helvetica,sans-Serif" font-size="10.00">stdexcept</text>
</a>
</g>
</g>
<!-- Node6&#45;&gt;Node9 -->
<g id="edge8" class="edge">
<title>Node6&#45;&gt;Node9</title>
<path fill="none" stroke="#63b8ff" d="M270.17,-164.98C252.39,-156.5 224.85,-143.35 204.32,-133.54"/>
<polygon fill="#63b8ff" stroke="#63b8ff" points="205.69,-130.32 195.16,-129.17 202.67,-136.64 205.69,-130.32"/>
</g>
<!-- Node6&#45;&gt;Node10 -->
<g id="edge9" class="edge">
<title>Node6&#45;&gt;Node10</title>
<path fill="none" stroke="#63b8ff" d="M289.32,-164.75C290.37,-157.8 291.87,-147.85 293.19,-139.13"/>
<polygon fill="#63b8ff" stroke="#63b8ff" points="296.67,-139.5 294.7,-129.09 289.75,-138.45 296.67,-139.5"/>
</g>
<!-- Node6&#45;&gt;Node14 -->
<g id="edge24" class="edge">
<title>Node6&#45;&gt;Node14</title>
<path fill="none" stroke="#63b8ff" d="M303.54,-164.9C327.43,-151.9 374.85,-126.96 417,-110 449.56,-96.9 487.56,-85.02 515.75,-76.84"/>
<polygon fill="#63b8ff" stroke="#63b8ff" points="517.02,-80.12 525.67,-74 515.09,-73.39 517.02,-80.12"/>
</g>
<!-- Node10&#45;&gt;Node7 -->
<g id="edge10" class="edge">
<title>Node10&#45;&gt;Node7</title>
<path fill="none" stroke="#63b8ff" d="M275.54,-109.88C258.49,-102.08 234.15,-89.46 216,-74 200.21,-60.54 185.98,-41.44 176.77,-27.71"/>
<polygon fill="#63b8ff" stroke="#63b8ff" points="179.63,-25.68 171.25,-19.2 173.75,-29.49 179.63,-25.68"/>
</g>
<!-- Node10&#45;&gt;Node8 -->
<g id="edge13" class="edge">
<title>Node10&#45;&gt;Node8</title>
<path fill="none" stroke="#63b8ff" d="M267.08,-109.98C234.48,-100.39 181.63,-84.82 147.86,-74.88"/>
<polygon fill="#63b8ff" stroke="#63b8ff" points="148.62,-71.46 138.04,-71.99 146.64,-78.17 148.62,-71.46"/>
</g>
<!-- Node11 -->
<g id="node11" class="node">
<title>Node11</title>
<g id="a_node11"><a xlink:title=" ">
<polygon fill="#e0e0e0" stroke="#999999" points="321,-19 265,-19 265,0 321,0 321,-19"/>
<text text-anchor="middle" x="293" y="-7" font-family="Helvetica,sans-Serif" font-size="10.00">sstream</text>
</a>
</g>
</g>
<!-- Node10&#45;&gt;Node11 -->
<g id="edge11" class="edge">
<title>Node10&#45;&gt;Node11</title>
<path fill="none" stroke="#63b8ff" d="M269.43,-109.94C252.87,-103.06 232.88,-91.6 223,-74 211.01,-52.66 236.77,-34.62 260.35,-23.29"/>
<polygon fill="#63b8ff" stroke="#63b8ff" points="261.87,-26.45 269.54,-19.14 258.98,-20.07 261.87,-26.45"/>
</g>
<!-- Node12 -->
<g id="node12" class="node">
<title>Node12</title>
<g id="a_node12"><a xlink:title=" ">
<polygon fill="#e0e0e0" stroke="#999999" points="297.5,-74 232.5,-74 232.5,-55 297.5,-55 297.5,-74"/>
<text text-anchor="middle" x="265" y="-62" font-family="Helvetica,sans-Serif" font-size="10.00">functional</text>
</a>
</g>
</g>
<!-- Node10&#45;&gt;Node12 -->
<g id="edge12" class="edge">
<title>Node10&#45;&gt;Node12</title>
<path fill="none" stroke="#63b8ff" d="M290.88,-109.75C286.64,-102.49 280.47,-91.95 275.22,-82.98"/>
<polygon fill="#63b8ff" stroke="#63b8ff" points="278.09,-80.95 270.02,-74.09 272.05,-84.49 278.09,-80.95"/>
</g>
<!-- Node13 -->
<g id="node13" class="node">
<title>Node13</title>
<g id="a_node13"><a xlink:title=" ">
<polygon fill="#e0e0e0" stroke="#999999" points="380.5,-74 315.5,-74 315.5,-55 380.5,-55 380.5,-74"/>
<text text-anchor="middle" x="348" y="-62" font-family="Helvetica,sans-Serif" font-size="10.00">exception</text>
</a>
</g>
</g>
<!-- Node10&#45;&gt;Node13 -->
<g id="edge14" class="edge">
<title>Node10&#45;&gt;Node13</title>
<path fill="none" stroke="#63b8ff" d="M304.59,-109.75C312.16,-102.03 323.38,-90.6 332.51,-81.28"/>
<polygon fill="#63b8ff" stroke="#63b8ff" points="335.07,-83.68 339.57,-74.09 330.07,-78.78 335.07,-83.68"/>
</g>
<!-- Node10&#45;&gt;Node14 -->
<g id="edge15" class="edge">
<title>Node10&#45;&gt;Node14</title>
<path fill="none" stroke="#63b8ff" d="M337.93,-109.98C383.27,-100.78 455.61,-86.09 504.65,-76.13"/>
<polygon fill="#63b8ff" stroke="#63b8ff" points="505.63,-79.5 514.74,-74.08 504.24,-72.64 505.63,-79.5"/>
</g>
<!-- Node20 -->
<g id="node20" class="node">
<title>Node20</title>
<g id="a_node20"><a xlink:title=" ">
<polygon fill="#e0e0e0" stroke="#999999" points="491.5,-74 398.5,-74 398.5,-55 491.5,-55 491.5,-74"/>
<text text-anchor="middle" x="445" y="-62" font-family="Helvetica,sans-Serif" font-size="10.00">spdlog/spdlog.h</text>
</a>
</g>
</g>
<!-- Node10&#45;&gt;Node20 -->
<g id="edge23" class="edge">
<title>Node10&#45;&gt;Node20</title>
<path fill="none" stroke="#63b8ff" d="M319.94,-109.98C344.56,-101.23 383.12,-87.51 410.92,-77.62"/>
<polygon fill="#63b8ff" stroke="#63b8ff" points="412.38,-80.82 420.62,-74.17 410.03,-74.22 412.38,-80.82"/>
</g>
<!-- Node14&#45;&gt;Node7 -->
<g id="edge18" class="edge">
<title>Node14&#45;&gt;Node7</title>
<path fill="none" stroke="#63b8ff" d="M509.73,-56.39C506.44,-55.92 503.17,-55.45 500,-55 394.32,-40.08 269.63,-23.83 206.7,-15.72"/>
<polygon fill="#63b8ff" stroke="#63b8ff" points="206.78,-12.2 196.42,-14.39 205.89,-19.14 206.78,-12.2"/>
</g>
<!-- Node14&#45;&gt;Node11 -->
<g id="edge16" class="edge">
<title>Node14&#45;&gt;Node11</title>
<path fill="none" stroke="#63b8ff" d="M514.58,-54.98C463.83,-44.79 379.61,-27.89 330.93,-18.11"/>
<polygon fill="#63b8ff" stroke="#63b8ff" points="331.6,-14.68 321.11,-16.14 330.22,-21.54 331.6,-14.68"/>
</g>
<!-- Node15 -->
<g id="node15" class="node">
<title>Node15</title>
<g id="a_node15"><a xlink:title=" ">
<polygon fill="#e0e0e0" stroke="#999999" points="445.5,-19 390.5,-19 390.5,0 445.5,0 445.5,-19"/>
<text text-anchor="middle" x="418" y="-7" font-family="Helvetica,sans-Serif" font-size="10.00">fstream</text>
</a>
</g>
</g>
<!-- Node14&#45;&gt;Node15 -->
<g id="edge17" class="edge">
<title>Node14&#45;&gt;Node15</title>
<path fill="none" stroke="#63b8ff" d="M534.67,-54.98C511.8,-46.27 476.04,-32.63 450.14,-22.75"/>
<polygon fill="#63b8ff" stroke="#63b8ff" points="451.33,-19.46 440.74,-19.17 448.84,-26 451.33,-19.46"/>
</g>
<!-- Node16 -->
<g id="node16" class="node">
<title>Node16</title>
<g id="a_node16"><a xlink:title=" ">
<polygon fill="#e0e0e0" stroke="#999999" points="510.5,-19 463.5,-19 463.5,0 510.5,0 510.5,-19"/>
<text text-anchor="middle" x="487" y="-7" font-family="Helvetica,sans-Serif" font-size="10.00">vector</text>
</a>
</g>
</g>
<!-- Node14&#45;&gt;Node16 -->
<g id="edge19" class="edge">
<title>Node14&#45;&gt;Node16</title>
<path fill="none" stroke="#63b8ff" d="M545.75,-54.98C535.2,-47 519.2,-34.88 506.56,-25.31"/>
<polygon fill="#63b8ff" stroke="#63b8ff" points="508.54,-22.42 498.45,-19.17 504.31,-28 508.54,-22.42"/>
</g>
<!-- Node17 -->
<g id="node17" class="node">
<title>Node17</title>
<g id="a_node17"><a xlink:title=" ">
<polygon fill="#e0e0e0" stroke="#999999" points="585,-19 529,-19 529,0 585,0 585,-19"/>
<text text-anchor="middle" x="557" y="-7" font-family="Helvetica,sans-Serif" font-size="10.00">iomanip</text>
</a>
</g>
</g>
<!-- Node14&#45;&gt;Node17 -->
<g id="edge20" class="edge">
<title>Node14&#45;&gt;Node17</title>
<path fill="none" stroke="#63b8ff" d="M557,-54.75C557,-47.8 557,-37.85 557,-29.13"/>
<polygon fill="#63b8ff" stroke="#63b8ff" points="560.5,-29.09 557,-19.09 553.5,-29.09 560.5,-29.09"/>
</g>
<!-- Node18 -->
<g id="node18" class="node">
<title>Node18</title>
<g id="a_node18"><a xlink:title=" ">
<polygon fill="#e0e0e0" stroke="#999999" points="650.5,-19 603.5,-19 603.5,0 650.5,0 650.5,-19"/>
<text text-anchor="middle" x="627" y="-7" font-family="Helvetica,sans-Serif" font-size="10.00">cmath</text>
</a>
</g>
</g>
<!-- Node14&#45;&gt;Node18 -->
<g id="edge21" class="edge">
<title>Node14&#45;&gt;Node18</title>
<path fill="none" stroke="#63b8ff" d="M568.25,-54.98C578.8,-47 594.8,-34.88 607.44,-25.31"/>
<polygon fill="#63b8ff" stroke="#63b8ff" points="609.69,-28 615.55,-19.17 605.46,-22.42 609.69,-28"/>
</g>
<!-- Node19 -->
<g id="node19" class="node">
<title>Node19</title>
<g id="a_node19"><a xlink:title=" ">
<polygon fill="#e0e0e0" stroke="#999999" points="713,-19 669,-19 669,0 713,0 713,-19"/>
<text text-anchor="middle" x="691" y="-7" font-family="Helvetica,sans-Serif" font-size="10.00">limits</text>
</a>
</g>
</g>
<!-- Node14&#45;&gt;Node19 -->
<g id="edge22" class="edge">
<title>Node14&#45;&gt;Node19</title>
<path fill="none" stroke="#63b8ff" d="M578.53,-54.98C600.47,-46.3 634.74,-32.75 659.69,-22.88"/>
<polygon fill="#63b8ff" stroke="#63b8ff" points="661.07,-26.1 669.08,-19.17 658.49,-19.59 661.07,-26.1"/>
</g>
</g>
</svg>
