<?xml version="1.0" encoding="UTF-8" standalone="no"?>
<!DOCTYPE svg PUBLIC "-//W3C//DTD SVG 1.1//EN"
 "http://www.w3.org/Graphics/SVG/1.1/DTD/svg11.dtd">
<!-- Generated by graphviz version 2.43.0 (0)
 -->
<!-- Title: Parameters/ParameterHandlerGeneric.h Pages: 1 -->
<svg width="1810pt" height="555pt"
 viewBox="0.00 0.00 1810.00 555.00" xmlns="http://www.w3.org/2000/svg" xmlns:xlink="http://www.w3.org/1999/xlink">
<g id="graph0" class="graph" transform="scale(1 1) rotate(0) translate(4 551)">
<title>Parameters/ParameterHandlerGeneric.h</title>
<!-- Node1 -->
<g id="node1" class="node">
<title>Node1</title>
<g id="a_node1"><a xlink:title=" ">
<polygon fill="#999999" stroke="#666666" points="1021,-547 857,-547 857,-517 1021,-517 1021,-547"/>
<text text-anchor="start" x="865" y="-535" font-family="Helvetica,sans-Serif" font-size="10.00">Parameters/ParameterHandler</text>
<text text-anchor="middle" x="939" y="-524" font-family="Helvetica,sans-Serif" font-size="10.00">Generic.h</text>
</a>
</g>
</g>
<!-- Node2 -->
<g id="node2" class="node">
<title>Node2</title>
<g id="a_node2"><a xlink:href="ParameterHandlerBase_8h.html" target="_top" xlink:title=" ">
<polygon fill="white" stroke="#666666" points="953,-481 789,-481 789,-451 953,-451 953,-481"/>
<text text-anchor="start" x="797" y="-469" font-family="Helvetica,sans-Serif" font-size="10.00">Parameters/ParameterHandler</text>
<text text-anchor="middle" x="871" y="-458" font-family="Helvetica,sans-Serif" font-size="10.00">Base.h</text>
</a>
</g>
</g>
<!-- Node1&#45;&gt;Node2 -->
<g id="edge1" class="edge">
<title>Node1&#45;&gt;Node2</title>
<path fill="none" stroke="#63b8ff" d="M923.91,-516.8C914.93,-508.34 903.37,-497.46 893.35,-488.03"/>
<polygon fill="#63b8ff" stroke="#63b8ff" points="895.73,-485.47 886.05,-481.16 890.93,-490.57 895.73,-485.47"/>
</g>
<!-- Node4 -->
<g id="node4" class="node">
<title>Node4</title>
<g id="a_node4"><a xlink:href="Structs_8h.html" target="_top" xlink:title=" ">
<polygon fill="white" stroke="#666666" points="1568,-294 1464,-294 1464,-275 1568,-275 1568,-294"/>
<text text-anchor="middle" x="1516" y="-282" font-family="Helvetica,sans-Serif" font-size="10.00">Samples/Structs.h</text>
</a>
</g>
</g>
<!-- Node1&#45;&gt;Node4 -->
<g id="edge81" class="edge">
<title>Node1&#45;&gt;Node4</title>
<path fill="none" stroke="#63b8ff" d="M972.09,-516.92C1075.12,-473.09 1389.04,-339.52 1486.69,-297.97"/>
<polygon fill="#63b8ff" stroke="#63b8ff" points="1488.14,-301.16 1495.97,-294.02 1485.4,-294.72 1488.14,-301.16"/>
</g>
<!-- Node3 -->
<g id="node3" class="node">
<title>Node3</title>
<g id="a_node3"><a xlink:href="Manager_8h.html" target="_top" xlink:title=" ">
<polygon fill="white" stroke="#666666" points="580.5,-354.5 467.5,-354.5 467.5,-335.5 580.5,-335.5 580.5,-354.5"/>
<text text-anchor="middle" x="524" y="-342.5" font-family="Helvetica,sans-Serif" font-size="10.00">Manager/Manager.h</text>
</a>
</g>
</g>
<!-- Node2&#45;&gt;Node3 -->
<g id="edge2" class="edge">
<title>Node2&#45;&gt;Node3</title>
<path fill="none" stroke="#63b8ff" d="M788.99,-459.95C682.67,-452.54 508.47,-437.18 489,-415 475.12,-399.18 491.34,-376.88 506.02,-361.95"/>
<polygon fill="#63b8ff" stroke="#63b8ff" points="508.58,-364.34 513.38,-354.9 503.74,-359.29 508.58,-364.34"/>
</g>
<!-- Node42 -->
<g id="node34" class="node">
<title>Node42</title>
<g id="a_node34"><a xlink:href="ParameterHandlerUtils_8h.html" target="_top" xlink:title=" ">
<polygon fill="white" stroke="#666666" points="1046,-360 882,-360 882,-330 1046,-330 1046,-360"/>
<text text-anchor="start" x="890" y="-348" font-family="Helvetica,sans-Serif" font-size="10.00">Parameters/ParameterHandler</text>
<text text-anchor="middle" x="964" y="-337" font-family="Helvetica,sans-Serif" font-size="10.00">Utils.h</text>
</a>
</g>
</g>
<!-- Node2&#45;&gt;Node42 -->
<g id="edge54" class="edge">
<title>Node2&#45;&gt;Node42</title>
<path fill="none" stroke="#63b8ff" d="M952.74,-450.92C991.36,-442.43 1031.52,-430.29 1043,-415 1057.75,-395.35 1035.01,-377.25 1010.19,-364.52"/>
<polygon fill="#63b8ff" stroke="#63b8ff" points="1011.55,-361.28 1001.02,-360.08 1008.5,-367.58 1011.55,-361.28"/>
</g>
<!-- Node56 -->
<g id="node48" class="node">
<title>Node56</title>
<g id="a_node48"><a xlink:href="AdaptiveMCMCHandler_8h.html" target="_top" xlink:title=" ">
<polygon fill="white" stroke="#666666" points="875.5,-415 678.5,-415 678.5,-396 875.5,-396 875.5,-415"/>
<text text-anchor="middle" x="777" y="-403" font-family="Helvetica,sans-Serif" font-size="10.00">Parameters/AdaptiveMCMCHandler.h</text>
</a>
</g>
</g>
<!-- Node2&#45;&gt;Node56 -->
<g id="edge72" class="edge">
<title>Node2&#45;&gt;Node56</title>
<path fill="none" stroke="#63b8ff" d="M848.25,-450.84C833.4,-441.6 814.1,-429.59 799.34,-420.4"/>
<polygon fill="#63b8ff" stroke="#63b8ff" points="801.15,-417.41 790.81,-415.09 797.45,-423.35 801.15,-417.41"/>
</g>
<!-- Node57 -->
<g id="node49" class="node">
<title>Node57</title>
<g id="a_node49"><a xlink:href="PCAHandler_8h.html" target="_top" xlink:title=" ">
<polygon fill="white" stroke="#666666" points="1034.5,-415 893.5,-415 893.5,-396 1034.5,-396 1034.5,-415"/>
<text text-anchor="middle" x="964" y="-403" font-family="Helvetica,sans-Serif" font-size="10.00">Parameters/PCAHandler.h</text>
</a>
</g>
</g>
<!-- Node2&#45;&gt;Node57 -->
<g id="edge75" class="edge">
<title>Node2&#45;&gt;Node57</title>
<path fill="none" stroke="#63b8ff" d="M893.51,-450.84C908.06,-441.68 926.93,-429.82 941.49,-420.66"/>
<polygon fill="#63b8ff" stroke="#63b8ff" points="943.74,-423.38 950.34,-415.09 940.01,-417.46 943.74,-423.38"/>
</g>
<!-- Node58 -->
<g id="node50" class="node">
<title>Node58</title>
<g id="a_node50"><a xlink:href="ParameterTunes_8h.html" target="_top" xlink:title=" ">
<polygon fill="white" stroke="#666666" points="660,-415 498,-415 498,-396 660,-396 660,-415"/>
<text text-anchor="middle" x="579" y="-403" font-family="Helvetica,sans-Serif" font-size="10.00">Parameters/ParameterTunes.h</text>
</a>
</g>
</g>
<!-- Node2&#45;&gt;Node58 -->
<g id="edge78" class="edge">
<title>Node2&#45;&gt;Node58</title>
<path fill="none" stroke="#63b8ff" d="M801.06,-450.99C749.03,-440.56 679.12,-426.56 631.74,-417.07"/>
<polygon fill="#63b8ff" stroke="#63b8ff" points="632.19,-413.59 621.69,-415.05 630.81,-420.45 632.19,-413.59"/>
</g>
<!-- Node3&#45;&gt;Node4 -->
<g id="edge3" class="edge">
<title>Node3&#45;&gt;Node4</title>
<path fill="none" stroke="#63b8ff" d="M580.72,-341.41C722.04,-334.83 1101.22,-316.39 1417,-294 1428.9,-293.16 1441.59,-292.15 1453.78,-291.13"/>
<polygon fill="#63b8ff" stroke="#63b8ff" points="1454.21,-294.6 1463.87,-290.27 1453.61,-287.63 1454.21,-294.6"/>
</g>
<!-- Node8 -->
<g id="node8" class="node">
<title>Node8</title>
<g id="a_node8"><a xlink:href="MaCh3Exception_8h.html" target="_top" xlink:title=" ">
<polygon fill="white" stroke="#666666" points="479.5,-184 326.5,-184 326.5,-165 479.5,-165 479.5,-184"/>
<text text-anchor="middle" x="403" y="-172" font-family="Helvetica,sans-Serif" font-size="10.00">Manager/MaCh3Exception.h</text>
</a>
</g>
</g>
<!-- Node3&#45;&gt;Node8 -->
<g id="edge53" class="edge">
<title>Node3&#45;&gt;Node8</title>
<path fill="none" stroke="#63b8ff" d="M467.44,-341.03C434.12,-336.01 394.42,-323.66 373,-294 340.08,-248.42 421.42,-297.96 461,-239 473.69,-220.1 450.7,-201.19 430.02,-188.99"/>
<polygon fill="#63b8ff" stroke="#63b8ff" points="431.56,-185.84 421.12,-184.03 428.15,-191.96 431.56,-185.84"/>
</g>
<!-- Node30 -->
<g id="node30" class="node">
<title>Node30</title>
<g id="a_node30"><a xlink:href="YamlHelper_8h.html" target="_top" xlink:title="Utility functions for handling YAML nodes.">
<polygon fill="#fff0f0" stroke="red" points="344,-239 218,-239 218,-220 344,-220 344,-239"/>
<text text-anchor="middle" x="281" y="-227" font-family="Helvetica,sans-Serif" font-size="10.00">Manager/YamlHelper.h</text>
</a>
</g>
</g>
<!-- Node3&#45;&gt;Node30 -->
<g id="edge36" class="edge">
<title>Node3&#45;&gt;Node30</title>
<path fill="none" stroke="#63b8ff" d="M467.37,-337.63C409.85,-330.07 325.93,-315.69 302,-294 289.51,-282.68 284.43,-263.77 282.38,-249.53"/>
<polygon fill="#63b8ff" stroke="#63b8ff" points="285.83,-248.91 281.29,-239.34 278.87,-249.65 285.83,-248.91"/>
</g>
<!-- Node36 -->
<g id="node31" class="node">
<title>Node36</title>
<g id="a_node31"><a xlink:href="Monitor_8h.html" target="_top" xlink:title="System and monitoring utilities for printing system information and status updates.">
<polygon fill="#fff0f0" stroke="red" points="248,-294 140,-294 140,-275 248,-275 248,-294"/>
<text text-anchor="middle" x="194" y="-282" font-family="Helvetica,sans-Serif" font-size="10.00">Manager/Monitor.h</text>
</a>
</g>
</g>
<!-- Node3&#45;&gt;Node36 -->
<g id="edge43" class="edge">
<title>Node3&#45;&gt;Node36</title>
<path fill="none" stroke="#63b8ff" d="M476.02,-335.49C416.63,-324.97 315.57,-307.05 251.92,-295.77"/>
<polygon fill="#63b8ff" stroke="#63b8ff" points="252.5,-292.32 242.04,-294.02 251.28,-299.21 252.5,-292.32"/>
</g>
<!-- Node5 -->
<g id="node5" class="node">
<title>Node5</title>
<g id="a_node5"><a xlink:title=" ">
<polygon fill="#e0e0e0" stroke="#999999" points="1237,-239 1205,-239 1205,-220 1237,-220 1237,-239"/>
<text text-anchor="middle" x="1221" y="-227" font-family="Helvetica,sans-Serif" font-size="10.00">set</text>
</a>
</g>
</g>
<!-- Node4&#45;&gt;Node5 -->
<g id="edge4" class="edge">
<title>Node4&#45;&gt;Node5</title>
<path fill="none" stroke="#63b8ff" d="M1463.84,-275.95C1401.52,-266.75 1299.98,-251.19 1246.95,-238.81"/>
<polygon fill="#63b8ff" stroke="#63b8ff" points="1247.57,-235.36 1237.02,-236.38 1245.9,-242.16 1247.57,-235.36"/>
</g>
<!-- Node6 -->
<g id="node6" class="node">
<title>Node6</title>
<g id="a_node6"><a xlink:title=" ">
<polygon fill="#e0e0e0" stroke="#999999" points="1287,-239 1255,-239 1255,-220 1287,-220 1287,-239"/>
<text text-anchor="middle" x="1271" y="-227" font-family="Helvetica,sans-Serif" font-size="10.00">list</text>
</a>
</g>
</g>
<!-- Node4&#45;&gt;Node6 -->
<g id="edge5" class="edge">
<title>Node4&#45;&gt;Node6</title>
<path fill="none" stroke="#63b8ff" d="M1464.44,-275C1421.77,-267.53 1359.45,-255.62 1296.71,-238.91"/>
<polygon fill="#63b8ff" stroke="#63b8ff" points="1297.61,-235.52 1287.04,-236.29 1295.78,-242.28 1297.61,-235.52"/>
</g>
<!-- Node7 -->
<g id="node7" class="node">
<title>Node7</title>
<g id="a_node7"><a xlink:title=" ">
<polygon fill="#e0e0e0" stroke="#999999" points="1398.5,-239 1305.5,-239 1305.5,-220 1398.5,-220 1398.5,-239"/>
<text text-anchor="middle" x="1352" y="-227" font-family="Helvetica,sans-Serif" font-size="10.00">unordered_map</text>
</a>
</g>
</g>
<!-- Node4&#45;&gt;Node7 -->
<g id="edge6" class="edge">
<title>Node4&#45;&gt;Node7</title>
<path fill="none" stroke="#63b8ff" d="M1489.65,-274.98C1462.24,-266.13 1419.11,-252.19 1388.44,-242.28"/>
<polygon fill="#63b8ff" stroke="#63b8ff" points="1389.15,-238.83 1378.56,-239.08 1387,-245.49 1389.15,-238.83"/>
</g>
<!-- Node4&#45;&gt;Node8 -->
<g id="edge7" class="edge">
<title>Node4&#45;&gt;Node8</title>
<path fill="none" stroke="#63b8ff" d="M1463.75,-277.56C1454.2,-276.61 1444.31,-275.7 1435,-275 1089.39,-248.9 996.01,-306.23 656,-239 631.45,-234.15 627.04,-226.95 603,-220 554.96,-206.1 499.37,-194.05 459.01,-186.01"/>
<polygon fill="#63b8ff" stroke="#63b8ff" points="459.58,-182.55 449.09,-184.05 458.22,-189.42 459.58,-182.55"/>
</g>
<!-- Node12 -->
<g id="node12" class="node">
<title>Node12</title>
<g id="a_node12"><a xlink:href="MaCh3Logger_8h.html" target="_top" xlink:title="KS: Based on this https://github.com/gabime/spdlog/blob/a2b4262090fd3f005c2315dcb5be2f0f1774a005/incl...">
<polygon fill="white" stroke="#666666" points="590.5,-129 453.5,-129 453.5,-110 590.5,-110 590.5,-129"/>
<text text-anchor="middle" x="522" y="-117" font-family="Helvetica,sans-Serif" font-size="10.00">Manager/MaCh3Logger.h</text>
</a>
</g>
</g>
<!-- Node4&#45;&gt;Node12 -->
<g id="edge27" class="edge">
<title>Node4&#45;&gt;Node12</title>
<path fill="none" stroke="#63b8ff" d="M1463.74,-277.77C1454.18,-276.79 1444.3,-275.83 1435,-275 1215.73,-255.51 1157.81,-277.15 941,-239 794.46,-213.21 625.58,-157.03 555.33,-132.44"/>
<polygon fill="#63b8ff" stroke="#63b8ff" points="556.29,-129.06 545.69,-129.04 553.96,-135.67 556.29,-129.06"/>
</g>
<!-- Node16 -->
<g id="node16" class="node">
<title>Node16</title>
<g id="a_node16"><a xlink:href="Core_8h.html" target="_top" xlink:title=" ">
<polygon fill="white" stroke="#666666" points="788,-74 694,-74 694,-55 788,-55 788,-74"/>
<text text-anchor="middle" x="741" y="-62" font-family="Helvetica,sans-Serif" font-size="10.00">Manager/Core.h</text>
</a>
</g>
</g>
<!-- Node4&#45;&gt;Node16 -->
<g id="edge28" class="edge">
<title>Node4&#45;&gt;Node16</title>
<path fill="none" stroke="#63b8ff" d="M1521.26,-274.58C1528.4,-261.16 1538.9,-235.69 1526,-220 1433.3,-107.28 963.86,-75.51 798.63,-67.75"/>
<polygon fill="#63b8ff" stroke="#63b8ff" points="798.35,-64.23 788.2,-67.27 798.03,-71.22 798.35,-64.23"/>
</g>
<!-- Node23 -->
<g id="node23" class="node">
<title>Node23</title>
<g id="a_node23"><a xlink:title=" ">
<polygon fill="#e0e0e0" stroke="#999999" points="1517,-239 1455,-239 1455,-220 1517,-220 1517,-239"/>
<text text-anchor="middle" x="1486" y="-227" font-family="Helvetica,sans-Serif" font-size="10.00">TSpline.h</text>
</a>
</g>
</g>
<!-- Node4&#45;&gt;Node23 -->
<g id="edge29" class="edge">
<title>Node4&#45;&gt;Node23</title>
<path fill="none" stroke="#63b8ff" d="M1511.05,-274.75C1506.94,-267.49 1500.97,-256.95 1495.9,-247.98"/>
<polygon fill="#63b8ff" stroke="#63b8ff" points="1498.83,-246.07 1490.86,-239.09 1492.74,-249.52 1498.83,-246.07"/>
</g>
<!-- Node24 -->
<g id="node24" class="node">
<title>Node24</title>
<g id="a_node24"><a xlink:title=" ">
<polygon fill="#e0e0e0" stroke="#999999" points="1160.5,-184 1083.5,-184 1083.5,-165 1160.5,-165 1160.5,-184"/>
<text text-anchor="middle" x="1122" y="-172" font-family="Helvetica,sans-Serif" font-size="10.00">TObjString.h</text>
</a>
</g>
</g>
<!-- Node4&#45;&gt;Node24 -->
<g id="edge30" class="edge">
<title>Node4&#45;&gt;Node24</title>
<path fill="none" stroke="#63b8ff" d="M1502.68,-274.9C1478.22,-259.24 1426.81,-227.04 1407,-220 1327.48,-191.76 1229.16,-181.42 1171.24,-177.65"/>
<polygon fill="#63b8ff" stroke="#63b8ff" points="1171.11,-174.13 1160.91,-177.01 1170.68,-181.12 1171.11,-174.13"/>
</g>
<!-- Node25 -->
<g id="node25" class="node">
<title>Node25</title>
<g id="a_node25"><a xlink:title=" ">
<polygon fill="#e0e0e0" stroke="#999999" points="1767.5,-239 1718.5,-239 1718.5,-220 1767.5,-220 1767.5,-239"/>
<text text-anchor="middle" x="1743" y="-227" font-family="Helvetica,sans-Serif" font-size="10.00">TFile.h</text>
</a>
</g>
</g>
<!-- Node4&#45;&gt;Node25 -->
<g id="edge31" class="edge">
<title>Node4&#45;&gt;Node25</title>
<path fill="none" stroke="#63b8ff" d="M1554.72,-274.94C1591.86,-266.65 1649.77,-253.55 1708.36,-239.36"/>
<polygon fill="#63b8ff" stroke="#63b8ff" points="1709.26,-242.74 1718.15,-236.98 1707.61,-235.94 1709.26,-242.74"/>
</g>
<!-- Node26 -->
<g id="node26" class="node">
<title>Node26</title>
<g id="a_node26"><a xlink:title=" ">
<polygon fill="#e0e0e0" stroke="#999999" points="1617,-239 1573,-239 1573,-220 1617,-220 1617,-239"/>
<text text-anchor="middle" x="1595" y="-227" font-family="Helvetica,sans-Serif" font-size="10.00">TF1.h</text>
</a>
</g>
</g>
<!-- Node4&#45;&gt;Node26 -->
<g id="edge32" class="edge">
<title>Node4&#45;&gt;Node26</title>
<path fill="none" stroke="#63b8ff" d="M1528.69,-274.98C1540.83,-266.84 1559.36,-254.41 1573.75,-244.76"/>
<polygon fill="#63b8ff" stroke="#63b8ff" points="1575.72,-247.65 1582.08,-239.17 1571.82,-241.84 1575.72,-247.65"/>
</g>
<!-- Node27 -->
<g id="node27" class="node">
<title>Node27</title>
<g id="a_node27"><a xlink:title=" ">
<polygon fill="#e0e0e0" stroke="#999999" points="1700.5,-239 1635.5,-239 1635.5,-220 1700.5,-220 1700.5,-239"/>
<text text-anchor="middle" x="1668" y="-227" font-family="Helvetica,sans-Serif" font-size="10.00">TH2Poly.h</text>
</a>
</g>
</g>
<!-- Node4&#45;&gt;Node27 -->
<g id="edge33" class="edge">
<title>Node4&#45;&gt;Node27</title>
<path fill="none" stroke="#63b8ff" d="M1540.42,-274.98C1565.72,-266.16 1605.45,-252.31 1633.86,-242.41"/>
<polygon fill="#63b8ff" stroke="#63b8ff" points="1635.1,-245.68 1643.39,-239.08 1632.79,-239.07 1635.1,-245.68"/>
</g>
<!-- Node28 -->
<g id="node28" class="node">
<title>Node28</title>
<g id="a_node28"><a xlink:title=" ">
<polygon fill="#e0e0e0" stroke="#999999" points="995.5,-239 950.5,-239 950.5,-220 995.5,-220 995.5,-239"/>
<text text-anchor="middle" x="973" y="-227" font-family="Helvetica,sans-Serif" font-size="10.00">TH1.h</text>
</a>
</g>
</g>
<!-- Node4&#45;&gt;Node28 -->
<g id="edge34" class="edge">
<title>Node4&#45;&gt;Node28</title>
<path fill="none" stroke="#63b8ff" d="M1463.79,-276.54C1459.13,-275.99 1454.48,-275.47 1450,-275 1255.5,-254.64 1201.64,-272.82 1005.63,-238.97"/>
<polygon fill="#63b8ff" stroke="#63b8ff" points="1006.03,-235.49 995.58,-237.22 1004.82,-242.39 1006.03,-235.49"/>
</g>
<!-- Node29 -->
<g id="node29" class="node">
<title>Node29</title>
<g id="a_node29"><a xlink:title=" ">
<polygon fill="#e0e0e0" stroke="#999999" points="1186.5,-239 1013.5,-239 1013.5,-220 1186.5,-220 1186.5,-239"/>
<text text-anchor="middle" x="1100" y="-227" font-family="Helvetica,sans-Serif" font-size="10.00">Constants/OscillatorConstants.h</text>
</a>
</g>
</g>
<!-- Node4&#45;&gt;Node29 -->
<g id="edge35" class="edge">
<title>Node4&#45;&gt;Node29</title>
<path fill="none" stroke="#63b8ff" d="M1463.76,-276.76C1459.11,-276.17 1454.47,-275.57 1450,-275 1356.33,-263.01 1248.55,-249.33 1177.62,-240.33"/>
<polygon fill="#63b8ff" stroke="#63b8ff" points="1177.79,-236.83 1167.43,-239.04 1176.91,-243.77 1177.79,-236.83"/>
</g>
<!-- Node9 -->
<g id="node9" class="node">
<title>Node9</title>
<g id="a_node9"><a xlink:title=" ">
<polygon fill="#e0e0e0" stroke="#999999" points="342,-19 282,-19 282,0 342,0 342,-19"/>
<text text-anchor="middle" x="312" y="-7" font-family="Helvetica,sans-Serif" font-size="10.00">iostream</text>
</a>
</g>
</g>
<!-- Node8&#45;&gt;Node9 -->
<g id="edge8" class="edge">
<title>Node8&#45;&gt;Node9</title>
<path fill="none" stroke="#63b8ff" d="M392.9,-164.8C383.63,-156.39 370,-142.91 361,-129 339.81,-96.26 324.68,-52.84 317.23,-28.69"/>
<polygon fill="#63b8ff" stroke="#63b8ff" points="320.57,-27.64 314.36,-19.05 313.86,-29.64 320.57,-27.64"/>
</g>
<!-- Node10 -->
<g id="node10" class="node">
<title>Node10</title>
<g id="a_node10"><a xlink:title=" ">
<polygon fill="#e0e0e0" stroke="#999999" points="284,-74 240,-74 240,-55 284,-55 284,-74"/>
<text text-anchor="middle" x="262" y="-62" font-family="Helvetica,sans-Serif" font-size="10.00">string</text>
</a>
</g>
</g>
<!-- Node8&#45;&gt;Node10 -->
<g id="edge9" class="edge">
<title>Node8&#45;&gt;Node10</title>
<path fill="none" stroke="#63b8ff" d="M386.21,-164.98C370.53,-156.7 346.79,-143.31 328,-129 309.14,-114.64 289.87,-95.47 277.06,-81.97"/>
<polygon fill="#63b8ff" stroke="#63b8ff" points="279.36,-79.3 269.98,-74.38 274.24,-84.08 279.36,-79.3"/>
</g>
<!-- Node11 -->
<g id="node11" class="node">
<title>Node11</title>
<g id="a_node11"><a xlink:title=" ">
<polygon fill="#e0e0e0" stroke="#999999" points="435.5,-129 370.5,-129 370.5,-110 435.5,-110 435.5,-129"/>
<text text-anchor="middle" x="403" y="-117" font-family="Helvetica,sans-Serif" font-size="10.00">stdexcept</text>
</a>
</g>
</g>
<!-- Node8&#45;&gt;Node11 -->
<g id="edge10" class="edge">
<title>Node8&#45;&gt;Node11</title>
<path fill="none" stroke="#63b8ff" d="M403,-164.75C403,-157.8 403,-147.85 403,-139.13"/>
<polygon fill="#63b8ff" stroke="#63b8ff" points="406.5,-139.09 403,-129.09 399.5,-139.09 406.5,-139.09"/>
</g>
<!-- Node8&#45;&gt;Node12 -->
<g id="edge11" class="edge">
<title>Node8&#45;&gt;Node12</title>
<path fill="none" stroke="#63b8ff" d="M422.12,-164.98C441.35,-156.42 471.23,-143.11 493.31,-133.28"/>
<polygon fill="#63b8ff" stroke="#63b8ff" points="494.82,-136.44 502.53,-129.17 491.97,-130.04 494.82,-136.44"/>
</g>
<!-- Node8&#45;&gt;Node16 -->
<g id="edge26" class="edge">
<title>Node8&#45;&gt;Node16</title>
<path fill="none" stroke="#63b8ff" d="M452.88,-164.99C492.94,-157.49 550.34,-145.23 599,-129 641.17,-114.94 687.81,-92.71 715.74,-78.63"/>
<polygon fill="#63b8ff" stroke="#63b8ff" points="717.48,-81.67 724.81,-74.01 714.31,-75.43 717.48,-81.67"/>
</g>
<!-- Node12&#45;&gt;Node9 -->
<g id="edge12" class="edge">
<title>Node12&#45;&gt;Node9</title>
<path fill="none" stroke="#63b8ff" d="M465.81,-109.92C435.44,-103.44 398.28,-92.4 369,-74 350.07,-62.1 333.65,-42.16 323.36,-27.79"/>
<polygon fill="#63b8ff" stroke="#63b8ff" points="326.06,-25.56 317.51,-19.3 320.3,-29.52 326.06,-25.56"/>
</g>
<!-- Node12&#45;&gt;Node10 -->
<g id="edge15" class="edge">
<title>Node12&#45;&gt;Node10</title>
<path fill="none" stroke="#63b8ff" d="M480.23,-109.98C428.31,-99.4 340.86,-81.58 293.97,-72.02"/>
<polygon fill="#63b8ff" stroke="#63b8ff" points="294.56,-68.57 284.06,-70 293.16,-75.42 294.56,-68.57"/>
</g>
<!-- Node13 -->
<g id="node13" class="node">
<title>Node13</title>
<g id="a_node13"><a xlink:title=" ">
<polygon fill="#e0e0e0" stroke="#999999" points="694,-19 638,-19 638,0 694,0 694,-19"/>
<text text-anchor="middle" x="666" y="-7" font-family="Helvetica,sans-Serif" font-size="10.00">sstream</text>
</a>
</g>
</g>
<!-- Node12&#45;&gt;Node13 -->
<g id="edge13" class="edge">
<title>Node12&#45;&gt;Node13</title>
<path fill="none" stroke="#63b8ff" d="M577.45,-109.96C601.36,-103.68 627.93,-92.8 646,-74 657.63,-61.9 662.5,-43.1 664.54,-29.09"/>
<polygon fill="#63b8ff" stroke="#63b8ff" points="668.02,-29.43 665.64,-19.11 661.07,-28.66 668.02,-29.43"/>
</g>
<!-- Node14 -->
<g id="node14" class="node">
<title>Node14</title>
<g id="a_node14"><a xlink:title=" ">
<polygon fill="#e0e0e0" stroke="#999999" points="554.5,-74 489.5,-74 489.5,-55 554.5,-55 554.5,-74"/>
<text text-anchor="middle" x="522" y="-62" font-family="Helvetica,sans-Serif" font-size="10.00">functional</text>
</a>
</g>
</g>
<!-- Node12&#45;&gt;Node14 -->
<g id="edge14" class="edge">
<title>Node12&#45;&gt;Node14</title>
<path fill="none" stroke="#63b8ff" d="M522,-109.75C522,-102.8 522,-92.85 522,-84.13"/>
<polygon fill="#63b8ff" stroke="#63b8ff" points="525.5,-84.09 522,-74.09 518.5,-84.09 525.5,-84.09"/>
</g>
<!-- Node15 -->
<g id="node15" class="node">
<title>Node15</title>
<g id="a_node15"><a xlink:title=" ">
<polygon fill="#e0e0e0" stroke="#999999" points="637.5,-74 572.5,-74 572.5,-55 637.5,-55 637.5,-74"/>
<text text-anchor="middle" x="605" y="-62" font-family="Helvetica,sans-Serif" font-size="10.00">exception</text>
</a>
</g>
</g>
<!-- Node12&#45;&gt;Node15 -->
<g id="edge16" class="edge">
<title>Node12&#45;&gt;Node15</title>
<path fill="none" stroke="#63b8ff" d="M535.34,-109.98C548.09,-101.84 567.55,-89.41 582.67,-79.76"/>
<polygon fill="#63b8ff" stroke="#63b8ff" points="584.88,-82.5 591.42,-74.17 581.11,-76.6 584.88,-82.5"/>
</g>
<!-- Node12&#45;&gt;Node16 -->
<g id="edge17" class="edge">
<title>Node12&#45;&gt;Node16</title>
<path fill="none" stroke="#63b8ff" d="M557.19,-109.98C594.83,-100.87 654.66,-86.4 695.77,-76.45"/>
<polygon fill="#63b8ff" stroke="#63b8ff" points="696.64,-79.84 705.54,-74.08 695,-73.03 696.64,-79.84"/>
</g>
<!-- Node22 -->
<g id="node22" class="node">
<title>Node22</title>
<g id="a_node22"><a xlink:title=" ">
<polygon fill="#e0e0e0" stroke="#999999" points="471.5,-74 378.5,-74 378.5,-55 471.5,-55 471.5,-74"/>
<text text-anchor="middle" x="425" y="-62" font-family="Helvetica,sans-Serif" font-size="10.00">spdlog/spdlog.h</text>
</a>
</g>
</g>
<!-- Node12&#45;&gt;Node22 -->
<g id="edge25" class="edge">
<title>Node12&#45;&gt;Node22</title>
<path fill="none" stroke="#63b8ff" d="M506.42,-109.98C491.23,-101.69 467.9,-88.94 450.1,-79.22"/>
<polygon fill="#63b8ff" stroke="#63b8ff" points="451.32,-75.89 440.87,-74.17 447.97,-82.04 451.32,-75.89"/>
</g>
<!-- Node16&#45;&gt;Node9 -->
<g id="edge20" class="edge">
<title>Node16&#45;&gt;Node9</title>
<path fill="none" stroke="#63b8ff" d="M693.86,-57.68C608.98,-47.19 431.85,-25.31 352.26,-15.47"/>
<polygon fill="#63b8ff" stroke="#63b8ff" points="352.5,-11.98 342.14,-14.22 351.64,-18.92 352.5,-11.98"/>
</g>
<!-- Node16&#45;&gt;Node13 -->
<g id="edge18" class="edge">
<title>Node16&#45;&gt;Node13</title>
<path fill="none" stroke="#63b8ff" d="M728.95,-54.98C717.54,-46.92 700.17,-34.65 686.57,-25.03"/>
<polygon fill="#63b8ff" stroke="#63b8ff" points="688.46,-22.08 678.27,-19.17 684.42,-27.8 688.46,-22.08"/>
</g>
<!-- Node17 -->
<g id="node17" class="node">
<title>Node17</title>
<g id="a_node17"><a xlink:title=" ">
<polygon fill="#e0e0e0" stroke="#999999" points="141.5,-19 86.5,-19 86.5,0 141.5,0 141.5,-19"/>
<text text-anchor="middle" x="114" y="-7" font-family="Helvetica,sans-Serif" font-size="10.00">fstream</text>
</a>
</g>
</g>
<!-- Node16&#45;&gt;Node17 -->
<g id="edge19" class="edge">
<title>Node16&#45;&gt;Node17</title>
<path fill="none" stroke="#63b8ff" d="M693.65,-59.21C678.44,-57.84 661.51,-56.34 646,-55 460.74,-38.96 239.1,-20.73 151.89,-13.59"/>
<polygon fill="#63b8ff" stroke="#63b8ff" points="151.95,-10.09 141.7,-12.76 151.38,-17.06 151.95,-10.09"/>
</g>
<!-- Node18 -->
<g id="node18" class="node">
<title>Node18</title>
<g id="a_node18"><a xlink:title=" ">
<polygon fill="#e0e0e0" stroke="#999999" points="513.5,-19 466.5,-19 466.5,0 513.5,0 513.5,-19"/>
<text text-anchor="middle" x="490" y="-7" font-family="Helvetica,sans-Serif" font-size="10.00">vector</text>
</a>
</g>
</g>
<!-- Node16&#45;&gt;Node18 -->
<g id="edge21" class="edge">
<title>Node16&#45;&gt;Node18</title>
<path fill="none" stroke="#63b8ff" d="M700.67,-54.98C651.56,-44.61 569.5,-27.29 523.64,-17.6"/>
<polygon fill="#63b8ff" stroke="#63b8ff" points="524.12,-14.13 513.61,-15.49 522.67,-20.98 524.12,-14.13"/>
</g>
<!-- Node19 -->
<g id="node19" class="node">
<title>Node19</title>
<g id="a_node19"><a xlink:title=" ">
<polygon fill="#e0e0e0" stroke="#999999" points="896,-19 840,-19 840,0 896,0 896,-19"/>
<text text-anchor="middle" x="868" y="-7" font-family="Helvetica,sans-Serif" font-size="10.00">iomanip</text>
</a>
</g>
</g>
<!-- Node16&#45;&gt;Node19 -->
<g id="edge22" class="edge">
<title>Node16&#45;&gt;Node19</title>
<path fill="none" stroke="#63b8ff" d="M761.4,-54.98C782.02,-46.38 814.11,-32.99 837.69,-23.15"/>
<polygon fill="#63b8ff" stroke="#63b8ff" points="839.34,-26.25 847.22,-19.17 836.65,-19.79 839.34,-26.25"/>
</g>
<!-- Node20 -->
<g id="node20" class="node">
<title>Node20</title>
<g id="a_node20"><a xlink:title=" ">
<polygon fill="#e0e0e0" stroke="#999999" points="759.5,-19 712.5,-19 712.5,0 759.5,0 759.5,-19"/>
<text text-anchor="middle" x="736" y="-7" font-family="Helvetica,sans-Serif" font-size="10.00">cmath</text>
</a>
</g>
</g>
<!-- Node16&#45;&gt;Node20 -->
<g id="edge23" class="edge">
<title>Node16&#45;&gt;Node20</title>
<path fill="none" stroke="#63b8ff" d="M740.17,-54.75C739.52,-47.8 738.58,-37.85 737.76,-29.13"/>
<polygon fill="#63b8ff" stroke="#63b8ff" points="741.23,-28.72 736.81,-19.09 734.27,-29.37 741.23,-28.72"/>
</g>
<!-- Node21 -->
<g id="node21" class="node">
<title>Node21</title>
<g id="a_node21"><a xlink:title=" ">
<polygon fill="#e0e0e0" stroke="#999999" points="822,-19 778,-19 778,0 822,0 822,-19"/>
<text text-anchor="middle" x="800" y="-7" font-family="Helvetica,sans-Serif" font-size="10.00">limits</text>
</a>
</g>
</g>
<!-- Node16&#45;&gt;Node21 -->
<g id="edge24" class="edge">
<title>Node16&#45;&gt;Node21</title>
<path fill="none" stroke="#63b8ff" d="M750.48,-54.98C759.2,-47.15 772.34,-35.34 782.9,-25.86"/>
<polygon fill="#63b8ff" stroke="#63b8ff" points="785.25,-28.46 790.35,-19.17 780.57,-23.25 785.25,-28.46"/>
</g>
<!-- Node30&#45;&gt;Node8 -->
<g id="edge40" class="edge">
<title>Node30&#45;&gt;Node8</title>
<path fill="none" stroke="#63b8ff" d="M300.6,-219.98C320.32,-211.42 350.95,-198.11 373.58,-188.28"/>
<polygon fill="#63b8ff" stroke="#63b8ff" points="375.26,-191.37 383.04,-184.17 372.48,-184.94 375.26,-191.37"/>
</g>
<!-- Node30&#45;&gt;Node9 -->
<g id="edge37" class="edge">
<title>Node30&#45;&gt;Node9</title>
<path fill="none" stroke="#63b8ff" d="M274.08,-219.95C253.66,-193.65 197.16,-112.2 231,-55 240.07,-39.68 256.49,-29.28 272.19,-22.41"/>
<polygon fill="#63b8ff" stroke="#63b8ff" points="273.81,-25.53 281.8,-18.58 271.22,-19.03 273.81,-25.53"/>
</g>
<!-- Node30&#45;&gt;Node10 -->
<g id="edge39" class="edge">
<title>Node30&#45;&gt;Node10</title>
<path fill="none" stroke="#63b8ff" d="M279.98,-219.74C277.01,-194.31 268.36,-120.08 264.24,-84.69"/>
<polygon fill="#63b8ff" stroke="#63b8ff" points="267.66,-83.83 263.03,-74.31 260.71,-84.64 267.66,-83.83"/>
</g>
<!-- Node30&#45;&gt;Node16 -->
<g id="edge41" class="edge">
<title>Node30&#45;&gt;Node16</title>
<path fill="none" stroke="#63b8ff" d="M333.18,-219.95C404.46,-206.95 535.05,-178.36 637,-129 667.05,-114.45 699.58,-93.71 720.11,-79.93"/>
<polygon fill="#63b8ff" stroke="#63b8ff" points="722.33,-82.65 728.64,-74.14 718.4,-76.86 722.33,-82.65"/>
</g>
<!-- Node30&#45;&gt;Node17 -->
<g id="edge38" class="edge">
<title>Node30&#45;&gt;Node17</title>
<path fill="none" stroke="#63b8ff" d="M271.19,-219.76C261.72,-211.1 247.21,-197.26 236,-184 190.54,-130.23 144.92,-59.99 124.75,-27.88"/>
<polygon fill="#63b8ff" stroke="#63b8ff" points="127.6,-25.83 119.33,-19.2 121.66,-29.54 127.6,-25.83"/>
</g>
<!-- Node30&#45;&gt;Node24 -->
<g id="edge42" class="edge">
<title>Node30&#45;&gt;Node24</title>
<path fill="none" stroke="#63b8ff" d="M344.1,-223.45C359.44,-222.27 375.81,-221.05 391,-220 647.72,-202.27 955.42,-184.76 1073.03,-178.2"/>
<polygon fill="#63b8ff" stroke="#63b8ff" points="1073.36,-181.69 1083.15,-177.64 1072.98,-174.7 1073.36,-181.69"/>
</g>
<!-- Node36&#45;&gt;Node8 -->
<g id="edge49" class="edge">
<title>Node36&#45;&gt;Node8</title>
<path fill="none" stroke="#63b8ff" d="M248.36,-276.94C280.86,-271 321.76,-259.84 353,-239 370.45,-227.36 384.57,-207.66 393.3,-193.28"/>
<polygon fill="#63b8ff" stroke="#63b8ff" points="396.49,-194.75 398.46,-184.34 390.43,-191.26 396.49,-194.75"/>
</g>
<!-- Node36&#45;&gt;Node9 -->
<g id="edge44" class="edge">
<title>Node36&#45;&gt;Node9</title>
<path fill="none" stroke="#63b8ff" d="M139.84,-276.3C113.45,-270.27 82.98,-259.23 62,-239 40.28,-218.06 38,-205.67 38,-175.5 38,-175.5 38,-175.5 38,-118.5 38,-88.33 38.78,-74.27 62,-55 93.26,-29.05 209.13,-17.4 271.55,-12.91"/>
<polygon fill="#63b8ff" stroke="#63b8ff" points="272.08,-16.38 281.81,-12.2 271.6,-9.4 272.08,-16.38"/>
</g>
<!-- Node36&#45;&gt;Node10 -->
<g id="edge46" class="edge">
<title>Node36&#45;&gt;Node10</title>
<path fill="none" stroke="#63b8ff" d="M193.26,-274.75C192.45,-262.38 191.76,-239.17 196,-220 207.55,-167.75 236.45,-111.04 251.89,-83.1"/>
<polygon fill="#63b8ff" stroke="#63b8ff" points="255.06,-84.6 256.91,-74.16 248.96,-81.16 255.06,-84.6"/>
</g>
<!-- Node36&#45;&gt;Node12 -->
<g id="edge48" class="edge">
<title>Node36&#45;&gt;Node12</title>
<path fill="none" stroke="#63b8ff" d="M193.84,-274.71C194.06,-261.47 196.26,-236.21 209,-220 242.28,-177.64 266.26,-183.08 317,-165 361.43,-149.16 413.38,-137.96 453.87,-130.76"/>
<polygon fill="#63b8ff" stroke="#63b8ff" points="454.65,-134.17 463.9,-129.01 453.45,-127.28 454.65,-134.17"/>
</g>
<!-- Node36&#45;&gt;Node17 -->
<g id="edge45" class="edge">
<title>Node36&#45;&gt;Node17</title>
<path fill="none" stroke="#63b8ff" d="M139.68,-281.89C102.93,-278.05 55.52,-267.37 24,-239 1.57,-218.82 0,-205.67 0,-175.5 0,-175.5 0,-175.5 0,-118.5 0,-88.33 3.73,-77.35 24,-55 38.03,-39.53 58.64,-28.79 76.6,-21.75"/>
<polygon fill="#63b8ff" stroke="#63b8ff" points="78.06,-24.94 86.24,-18.21 75.65,-18.37 78.06,-24.94"/>
</g>
<!-- Node36&#45;&gt;Node18 -->
<g id="edge47" class="edge">
<title>Node36&#45;&gt;Node18</title>
<path fill="none" stroke="#63b8ff" d="M171.53,-274.92C137.29,-260.22 76,-226.74 76,-175.5 76,-175.5 76,-175.5 76,-118.5 76,-40.11 357.4,-17.57 456.2,-12.07"/>
<polygon fill="#63b8ff" stroke="#63b8ff" points="456.45,-15.56 466.25,-11.53 456.08,-8.57 456.45,-15.56"/>
</g>
<!-- Node36&#45;&gt;Node30 -->
<g id="edge50" class="edge">
<title>Node36&#45;&gt;Node30</title>
<path fill="none" stroke="#63b8ff" d="M207.98,-274.98C221.47,-266.77 242.13,-254.18 258.04,-244.49"/>
<polygon fill="#63b8ff" stroke="#63b8ff" points="260.05,-247.36 266.77,-239.17 256.41,-241.38 260.05,-247.36"/>
</g>
<!-- Node38 -->
<g id="node32" class="node">
<title>Node38</title>
<g id="a_node32"><a xlink:title=" ">
<polygon fill="#e0e0e0" stroke="#999999" points="452,-239 400,-239 400,-220 452,-220 452,-239"/>
<text text-anchor="middle" x="426" y="-227" font-family="Helvetica,sans-Serif" font-size="10.00">TTree.h</text>
</a>
</g>
</g>
<!-- Node36&#45;&gt;Node38 -->
<g id="edge51" class="edge">
<title>Node36&#45;&gt;Node38</title>
<path fill="none" stroke="#63b8ff" d="M231.27,-274.98C275.03,-264.99 347.08,-248.53 390.2,-238.68"/>
<polygon fill="#63b8ff" stroke="#63b8ff" points="391.01,-242.08 399.98,-236.45 389.45,-235.26 391.01,-242.08"/>
</g>
<!-- Node41 -->
<g id="node33" class="node">
<title>Node41</title>
<g id="a_node33"><a xlink:title=" ">
<polygon fill="#e0e0e0" stroke="#999999" points="594.5,-239 511.5,-239 511.5,-220 594.5,-220 594.5,-239"/>
<text text-anchor="middle" x="553" y="-227" font-family="Helvetica,sans-Serif" font-size="10.00">TStopwatch.h</text>
</a>
</g>
</g>
<!-- Node36&#45;&gt;Node41 -->
<g id="edge52" class="edge">
<title>Node36&#45;&gt;Node41</title>
<path fill="none" stroke="#63b8ff" d="M248.13,-275.51C316.7,-265.39 434,-248.07 501.36,-238.12"/>
<polygon fill="#63b8ff" stroke="#63b8ff" points="501.94,-241.58 511.32,-236.65 500.92,-234.65 501.94,-241.58"/>
</g>
<!-- Node42&#45;&gt;Node4 -->
<g id="edge55" class="edge">
<title>Node42&#45;&gt;Node4</title>
<path fill="none" stroke="#63b8ff" d="M1046.19,-336.19C1142.89,-326.85 1308.24,-310.42 1450,-294 1451.26,-293.85 1452.53,-293.71 1453.81,-293.55"/>
<polygon fill="#63b8ff" stroke="#63b8ff" points="1454.27,-297.02 1463.78,-292.35 1453.43,-290.07 1454.27,-297.02"/>
</g>
<!-- Node42&#45;&gt;Node25 -->
<g id="edge63" class="edge">
<title>Node42&#45;&gt;Node25</title>
<path fill="none" stroke="#63b8ff" d="M1046.03,-341.18C1189.34,-335.6 1479.37,-321.28 1577,-294 1595.19,-288.92 1597.6,-282.34 1615,-275 1646,-261.92 1682.31,-249.57 1708.33,-241.21"/>
<polygon fill="#63b8ff" stroke="#63b8ff" points="1709.64,-244.47 1718.1,-238.1 1707.51,-237.8 1709.64,-244.47"/>
</g>
<!-- Node42&#45;&gt;Node38 -->
<g id="edge62" class="edge">
<title>Node42&#45;&gt;Node38</title>
<path fill="none" stroke="#63b8ff" d="M881.91,-339.97C723.57,-331.79 389.97,-312.47 373,-294 357.85,-277.51 380.82,-257.55 401.09,-244.47"/>
<polygon fill="#63b8ff" stroke="#63b8ff" points="403.08,-247.35 409.78,-239.14 399.42,-241.38 403.08,-247.35"/>
</g>
<!-- Node42&#45;&gt;Node41 -->
<g id="edge67" class="edge">
<title>Node42&#45;&gt;Node41</title>
<path fill="none" stroke="#63b8ff" d="M1046.09,-343.55C1190.4,-341.34 1469.61,-330.02 1417,-275 1386.18,-242.76 659.42,-243.03 615,-239 611.6,-238.69 608.09,-238.33 604.57,-237.93"/>
<polygon fill="#63b8ff" stroke="#63b8ff" points="604.97,-234.46 594.63,-236.74 604.14,-241.41 604.97,-234.46"/>
</g>
<!-- Node43 -->
<g id="node35" class="node">
<title>Node43</title>
<g id="a_node35"><a xlink:title=" ">
<polygon fill="#e0e0e0" stroke="#999999" points="1692,-294 1624,-294 1624,-275 1692,-275 1692,-294"/>
<text text-anchor="middle" x="1658" y="-282" font-family="Helvetica,sans-Serif" font-size="10.00">TMatrixT.h</text>
</a>
</g>
</g>
<!-- Node42&#45;&gt;Node43 -->
<g id="edge56" class="edge">
<title>Node42&#45;&gt;Node43</title>
<path fill="none" stroke="#63b8ff" d="M1046.1,-340.23C1169.05,-334 1408.16,-319.62 1610,-294 1611.28,-293.84 1612.57,-293.67 1613.87,-293.48"/>
<polygon fill="#63b8ff" stroke="#63b8ff" points="1614.61,-296.91 1623.97,-291.95 1613.56,-289.99 1614.61,-296.91"/>
</g>
<!-- Node44 -->
<g id="node36" class="node">
<title>Node44</title>
<g id="a_node36"><a xlink:title=" ">
<polygon fill="#e0e0e0" stroke="#999999" points="1802,-294 1710,-294 1710,-275 1802,-275 1802,-294"/>
<text text-anchor="middle" x="1756" y="-282" font-family="Helvetica,sans-Serif" font-size="10.00">TMatrixDSym.h</text>
</a>
</g>
</g>
<!-- Node42&#45;&gt;Node44 -->
<g id="edge57" class="edge">
<title>Node42&#45;&gt;Node44</title>
<path fill="none" stroke="#63b8ff" d="M1046.27,-340.72C1180.8,-334.85 1456.41,-320.69 1699.73,-294.04"/>
<polygon fill="#63b8ff" stroke="#63b8ff" points="1700.27,-297.51 1709.82,-292.93 1699.5,-290.55 1700.27,-297.51"/>
</g>
<!-- Node45 -->
<g id="node37" class="node">
<title>Node45</title>
<g id="a_node37"><a xlink:title=" ">
<polygon fill="#e0e0e0" stroke="#999999" points="450,-294 382,-294 382,-275 450,-275 450,-294"/>
<text text-anchor="middle" x="416" y="-282" font-family="Helvetica,sans-Serif" font-size="10.00">TVectorT.h</text>
</a>
</g>
</g>
<!-- Node42&#45;&gt;Node45 -->
<g id="edge58" class="edge">
<title>Node42&#45;&gt;Node45</title>
<path fill="none" stroke="#63b8ff" d="M881.92,-338.32C783.9,-330.99 614.84,-316.59 460.37,-294.07"/>
<polygon fill="#63b8ff" stroke="#63b8ff" points="460.62,-290.57 450.22,-292.57 459.6,-297.49 460.62,-290.57"/>
</g>
<!-- Node46 -->
<g id="node38" class="node">
<title>Node46</title>
<g id="a_node38"><a xlink:title=" ">
<polygon fill="#e0e0e0" stroke="#999999" points="538,-294 468,-294 468,-275 538,-275 538,-294"/>
<text text-anchor="middle" x="503" y="-282" font-family="Helvetica,sans-Serif" font-size="10.00">TVectorD.h</text>
</a>
</g>
</g>
<!-- Node42&#45;&gt;Node46 -->
<g id="edge59" class="edge">
<title>Node42&#45;&gt;Node46</title>
<path fill="none" stroke="#63b8ff" d="M881.87,-335.9C799.82,-327.42 669.88,-312.9 547.91,-294.04"/>
<polygon fill="#63b8ff" stroke="#63b8ff" points="548.44,-290.58 538.02,-292.5 547.37,-297.5 548.44,-290.58"/>
</g>
<!-- Node47 -->
<g id="node39" class="node">
<title>Node47</title>
<g id="a_node39"><a xlink:title=" ">
<polygon fill="#e0e0e0" stroke="#999999" points="609.5,-294 556.5,-294 556.5,-275 609.5,-275 609.5,-294"/>
<text text-anchor="middle" x="583" y="-282" font-family="Helvetica,sans-Serif" font-size="10.00">TH1D.h</text>
</a>
</g>
</g>
<!-- Node42&#45;&gt;Node47 -->
<g id="edge60" class="edge">
<title>Node42&#45;&gt;Node47</title>
<path fill="none" stroke="#63b8ff" d="M881.84,-334.35C813.91,-325.86 714.74,-312.3 619.76,-294.2"/>
<polygon fill="#63b8ff" stroke="#63b8ff" points="620.18,-290.71 609.7,-292.26 618.85,-297.59 620.18,-290.71"/>
</g>
<!-- Node48 -->
<g id="node40" class="node">
<title>Node48</title>
<g id="a_node40"><a xlink:title=" ">
<polygon fill="#e0e0e0" stroke="#999999" points="680.5,-294 627.5,-294 627.5,-275 680.5,-275 680.5,-294"/>
<text text-anchor="middle" x="654" y="-282" font-family="Helvetica,sans-Serif" font-size="10.00">TH2D.h</text>
</a>
</g>
</g>
<!-- Node42&#45;&gt;Node48 -->
<g id="edge61" class="edge">
<title>Node42&#45;&gt;Node48</title>
<path fill="none" stroke="#63b8ff" d="M881.96,-330.16C829.86,-321.11 760.79,-308.62 690.61,-294.04"/>
<polygon fill="#63b8ff" stroke="#63b8ff" points="691.21,-290.59 680.7,-291.97 689.77,-297.44 691.21,-290.59"/>
</g>
<!-- Node49 -->
<g id="node41" class="node">
<title>Node49</title>
<g id="a_node41"><a xlink:title=" ">
<polygon fill="#e0e0e0" stroke="#999999" points="777,-294 699,-294 699,-275 777,-275 777,-294"/>
<text text-anchor="middle" x="738" y="-282" font-family="Helvetica,sans-Serif" font-size="10.00">TRandom3.h</text>
</a>
</g>
</g>
<!-- Node42&#45;&gt;Node49 -->
<g id="edge64" class="edge">
<title>Node42&#45;&gt;Node49</title>
<path fill="none" stroke="#63b8ff" d="M909.87,-329.99C870.36,-319.76 817.53,-306.09 780.92,-296.61"/>
<polygon fill="#63b8ff" stroke="#63b8ff" points="781.6,-293.17 771.04,-294.05 779.85,-299.95 781.6,-293.17"/>
</g>
<!-- Node50 -->
<g id="node42" class="node">
<title>Node50</title>
<g id="a_node42"><a xlink:title=" ">
<polygon fill="#e0e0e0" stroke="#999999" points="851,-294 795,-294 795,-275 851,-275 851,-294"/>
<text text-anchor="middle" x="823" y="-282" font-family="Helvetica,sans-Serif" font-size="10.00">TMath.h</text>
</a>
</g>
</g>
<!-- Node42&#45;&gt;Node50 -->
<g id="edge65" class="edge">
<title>Node42&#45;&gt;Node50</title>
<path fill="none" stroke="#63b8ff" d="M930.23,-329.99C906.81,-320.27 875.88,-307.44 853.27,-298.06"/>
<polygon fill="#63b8ff" stroke="#63b8ff" points="854.4,-294.74 843.82,-294.14 851.72,-301.2 854.4,-294.74"/>
</g>
<!-- Node51 -->
<g id="node43" class="node">
<title>Node51</title>
<g id="a_node43"><a xlink:title=" ">
<polygon fill="#e0e0e0" stroke="#999999" points="963,-294 869,-294 869,-275 963,-275 963,-294"/>
<text text-anchor="middle" x="916" y="-282" font-family="Helvetica,sans-Serif" font-size="10.00">TDecompChol.h</text>
</a>
</g>
</g>
<!-- Node42&#45;&gt;Node51 -->
<g id="edge66" class="edge">
<title>Node42&#45;&gt;Node51</title>
<path fill="none" stroke="#63b8ff" d="M952.38,-329.84C945.56,-321.52 936.89,-310.96 929.73,-302.23"/>
<polygon fill="#63b8ff" stroke="#63b8ff" points="932.24,-299.78 923.19,-294.27 926.83,-304.22 932.24,-299.78"/>
</g>
<!-- Node52 -->
<g id="node44" class="node">
<title>Node52</title>
<g id="a_node44"><a xlink:title=" ">
<polygon fill="#e0e0e0" stroke="#999999" points="1044.5,-294 981.5,-294 981.5,-275 1044.5,-275 1044.5,-294"/>
<text text-anchor="middle" x="1013" y="-282" font-family="Helvetica,sans-Serif" font-size="10.00">TMatrix.h</text>
</a>
</g>
</g>
<!-- Node42&#45;&gt;Node52 -->
<g id="edge68" class="edge">
<title>Node42&#45;&gt;Node52</title>
<path fill="none" stroke="#63b8ff" d="M975.86,-329.84C982.9,-321.43 991.86,-310.74 999.21,-301.96"/>
<polygon fill="#63b8ff" stroke="#63b8ff" points="1001.92,-304.18 1005.66,-294.27 996.55,-299.68 1001.92,-304.18"/>
</g>
<!-- Node53 -->
<g id="node45" class="node">
<title>Node53</title>
<g id="a_node45"><a xlink:title=" ">
<polygon fill="#e0e0e0" stroke="#999999" points="1181.5,-294 1062.5,-294 1062.5,-275 1181.5,-275 1181.5,-294"/>
<text text-anchor="middle" x="1122" y="-282" font-family="Helvetica,sans-Serif" font-size="10.00">TMatrixDSymEigen.h</text>
</a>
</g>
</g>
<!-- Node42&#45;&gt;Node53 -->
<g id="edge69" class="edge">
<title>Node42&#45;&gt;Node53</title>
<path fill="none" stroke="#63b8ff" d="M1001.84,-329.99C1028.44,-320.14 1063.67,-307.1 1089.1,-297.68"/>
<polygon fill="#63b8ff" stroke="#63b8ff" points="1090.5,-300.89 1098.67,-294.14 1088.07,-294.33 1090.5,-300.89"/>
</g>
<!-- Node54 -->
<g id="node46" class="node">
<title>Node54</title>
<g id="a_node46"><a xlink:title=" ">
<polygon fill="#e0e0e0" stroke="#999999" points="1298,-294 1200,-294 1200,-275 1298,-275 1298,-294"/>
<text text-anchor="middle" x="1249" y="-282" font-family="Helvetica,sans-Serif" font-size="10.00">TMatrixDEigen.h</text>
</a>
</g>
</g>
<!-- Node42&#45;&gt;Node54 -->
<g id="edge70" class="edge">
<title>Node42&#45;&gt;Node54</title>
<path fill="none" stroke="#63b8ff" d="M1032.26,-329.99C1083.05,-319.56 1151.28,-305.56 1197.52,-296.07"/>
<polygon fill="#63b8ff" stroke="#63b8ff" points="1198.24,-299.49 1207.33,-294.05 1196.83,-292.64 1198.24,-299.49"/>
</g>
<!-- Node55 -->
<g id="node47" class="node">
<title>Node55</title>
<g id="a_node47"><a xlink:title=" ">
<polygon fill="#e0e0e0" stroke="#999999" points="1408,-294 1316,-294 1316,-275 1408,-275 1408,-294"/>
<text text-anchor="middle" x="1362" y="-282" font-family="Helvetica,sans-Serif" font-size="10.00">TDecompSVD.h</text>
</a>
</g>
</g>
<!-- Node42&#45;&gt;Node55 -->
<g id="edge71" class="edge">
<title>Node42&#45;&gt;Node55</title>
<path fill="none" stroke="#63b8ff" d="M1046.15,-332.23C1113.28,-322.56 1210.93,-308.39 1305.74,-294.18"/>
<polygon fill="#63b8ff" stroke="#63b8ff" points="1306.42,-297.62 1315.79,-292.67 1305.38,-290.69 1306.42,-297.62"/>
</g>
<!-- Node56&#45;&gt;Node3 -->
<g id="edge73" class="edge">
<title>Node56&#45;&gt;Node3</title>
<path fill="none" stroke="#63b8ff" d="M740.21,-395.99C695.43,-385.64 619.74,-368.14 570.84,-356.83"/>
<polygon fill="#63b8ff" stroke="#63b8ff" points="571.36,-353.36 560.83,-354.52 569.79,-360.18 571.36,-353.36"/>
</g>
<!-- Node56&#45;&gt;Node42 -->
<g id="edge74" class="edge">
<title>Node56&#45;&gt;Node42</title>
<path fill="none" stroke="#63b8ff" d="M804.19,-395.99C831.57,-387.43 874.59,-373.97 909.1,-363.18"/>
<polygon fill="#63b8ff" stroke="#63b8ff" points="910.54,-366.39 919.04,-360.06 908.45,-359.71 910.54,-366.39"/>
</g>
<!-- Node57&#45;&gt;Node3 -->
<g id="edge76" class="edge">
<title>Node57&#45;&gt;Node3</title>
<path fill="none" stroke="#63b8ff" d="M900.02,-395.99C817.45,-385.02 674.48,-366.01 590.64,-354.86"/>
<polygon fill="#63b8ff" stroke="#63b8ff" points="591.09,-351.39 580.72,-353.54 590.17,-358.33 591.09,-351.39"/>
</g>
<!-- Node57&#45;&gt;Node42 -->
<g id="edge77" class="edge">
<title>Node57&#45;&gt;Node42</title>
<path fill="none" stroke="#63b8ff" d="M964,-395.87C964,-389.11 964,-379.35 964,-370.26"/>
<polygon fill="#63b8ff" stroke="#63b8ff" points="967.5,-370.11 964,-360.11 960.5,-370.11 967.5,-370.11"/>
</g>
<!-- Node58&#45;&gt;Node3 -->
<g id="edge79" class="edge">
<title>Node58&#45;&gt;Node3</title>
<path fill="none" stroke="#63b8ff" d="M570.88,-395.87C562.6,-387.05 549.53,-373.16 539.3,-362.27"/>
<polygon fill="#63b8ff" stroke="#63b8ff" points="541.55,-359.56 532.15,-354.67 536.45,-364.35 541.55,-359.56"/>
</g>
<!-- Node58&#45;&gt;Node42 -->
<g id="edge80" class="edge">
<title>Node58&#45;&gt;Node42</title>
<path fill="none" stroke="#63b8ff" d="M634.98,-395.99C696.93,-386.58 797.73,-371.26 871.46,-360.06"/>
<polygon fill="#63b8ff" stroke="#63b8ff" points="872.32,-363.47 881.68,-358.51 871.27,-356.55 872.32,-363.47"/>
</g>
</g>
</svg>
