<?xml version="1.0" encoding="UTF-8" standalone="no"?>
<!DOCTYPE svg PUBLIC "-//W3C//DTD SVG 1.1//EN"
 "http://www.w3.org/Graphics/SVG/1.1/DTD/svg11.dtd">
<!-- Generated by graphviz version 2.44.0 (0)
 -->
<!-- Title: Parameters/ParameterHandlerUtils.h Pages: 1 -->
<!--zoomable 464 -->
<svg id="main" version="1.1" xmlns="http://www.w3.org/2000/svg" xmlns:xlink="http://www.w3.org/1999/xlink" xml:space="preserve" onload="init(evt)">
<style type="text/css"><![CDATA[
.edge:hover path { stroke: red; }
.edge:hover polygon { stroke: red; fill: red; }
]]></style>
<script type="text/javascript"><![CDATA[
var edges = document.getElementsByTagName('g');
if (edges && edges.length) {
  for (var i=0;i<edges.length;i++) {
    if (edges[i].id.substr(0,4)=='edge') {
      edges[i].setAttribute('class','edge');
    }
  }
}
]]></script>
        <defs>
                <circle id="rim" cx="0" cy="0" r="7"/>
                <circle id="rim2" cx="0" cy="0" r="3.5"/>
                <g id="zoomPlus">
                        <use xlink:href="#rim" fill="#404040">
                                <set attributeName="fill" to="#808080" begin="zoomplus.mouseover" end="zoomplus.mouseout"/>
                        </use>
                        <path d="M-4,0h8M0,-4v8" fill="none" stroke="white" stroke-width="1.5" pointer-events="none"/>
                </g>
                <g id="zoomMin">
                        <use xlink:href="#rim" fill="#404040">
                                <set attributeName="fill" to="#808080" begin="zoomminus.mouseover" end="zoomminus.mouseout"/>
                        </use>
                        <path d="M-4,0h8" fill="none" stroke="white" stroke-width="1.5" pointer-events="none"/>
                </g>
                <g id="dirArrow">
                        <path fill="none" stroke="white" stroke-width="1.5" d="M0,-3.0v7 M-2.5,-0.5L0,-3.0L2.5,-0.5"/>
                </g>
               <g id="resetDef">
                       <use xlink:href="#rim2" fill="#404040">
                               <set attributeName="fill" to="#808080" begin="reset.mouseover" end="reset.mouseout"/>
                       </use>
               </g>
        </defs>

<script type="text/javascript">
var viewWidth = 2346;
var viewHeight = 464;
var sectionId = 'dynsection-1';
</script>
<script xlink:href="svgpan.js"/>
<svg id="graph" class="graph">
<g id="viewport">
<title>Parameters/ParameterHandlerUtils.h</title>
<polygon fill="white" stroke="transparent" points="-4,4 -4,-460 2342,-460 2342,4 -4,4"/>
<!-- Node1 -->
<g id="node1" class="node">
<title>Node1</title>
<g id="a_node1"><a xlink:title=" ">
<polygon fill="#bfbfbf" stroke="black" points="553,-425.5 553,-455.5 702,-455.5 702,-425.5 553,-425.5"/>
<text text-anchor="start" x="561" y="-443.5" font-family="Helvetica" font-size="10.00">Parameters/ParameterHandler</text>
<text text-anchor="middle" x="627.5" y="-432.5" font-family="Helvetica" font-size="10.00">Utils.h</text>
</a>
</g>
</g>
<!-- Node2 -->
<g id="node2" class="node">
<title>Node2</title>
<g id="a_node2"><a xlink:href="MCMCProcessor_8h.html" target="_top" xlink:title=" ">
<polygon fill="white" stroke="black" points="1198.5,-369.5 1198.5,-388.5 1330.5,-388.5 1330.5,-369.5 1198.5,-369.5"/>
<text text-anchor="middle" x="1264.5" y="-376.5" font-family="Helvetica" font-size="10.00">Fitters/MCMCProcessor.h</text>
</a>
</g>
</g>
<!-- Node1&#45;&gt;Node2 -->
<g id="edge1" class="edge">
<title>Node1&#45;&gt;Node2</title>
<path fill="none" stroke="midnightblue" d="M712.32,-431.58C840.79,-419.58 1082.06,-397.04 1198.42,-386.17"/>
<polygon fill="midnightblue" stroke="midnightblue" points="711.76,-428.11 702.13,-432.53 712.41,-435.08 711.76,-428.11"/>
</g>
<!-- Node40 -->
<g id="node35" class="node">
<title>Node40</title>
<g id="a_node35"><a xlink:href="GetPenaltyTerm_8cpp.html" target="_top" xlink:title="KS: This file contains the implementation of the function to extract specific penalty terms from syst...">
<polygon fill="white" stroke="black" points="1348.5,-369.5 1348.5,-388.5 1508.5,-388.5 1508.5,-369.5 1348.5,-369.5"/>
<text text-anchor="middle" x="1428.5" y="-376.5" font-family="Helvetica" font-size="10.00">Diagnostics/GetPenaltyTerm.cpp</text>
</a>
</g>
</g>
<!-- Node1&#45;&gt;Node40 -->
<g id="edge41" class="edge">
<title>Node1&#45;&gt;Node40</title>
<path fill="none" stroke="midnightblue" d="M712.29,-434.31C845.79,-425.95 1113.13,-408.47 1339.5,-389 1342.44,-388.75 1345.43,-388.48 1348.46,-388.21"/>
<polygon fill="midnightblue" stroke="midnightblue" points="711.89,-430.83 702.13,-434.95 712.33,-437.82 711.89,-430.83"/>
</g>
<!-- Node41 -->
<g id="node36" class="node">
<title>Node41</title>
<g id="a_node36"><a xlink:href="AdaptiveMCMCHandler_8h.html" target="_top" xlink:title=" ">
<polygon fill="white" stroke="black" points="235,-369.5 235,-388.5 416,-388.5 416,-369.5 235,-369.5"/>
<text text-anchor="middle" x="325.5" y="-376.5" font-family="Helvetica" font-size="10.00">Parameters/AdaptiveMCMCHandler.h</text>
</a>
</g>
</g>
<!-- Node1&#45;&gt;Node41 -->
<g id="edge42" class="edge">
<title>Node1&#45;&gt;Node41</title>
<path fill="none" stroke="midnightblue" d="M546.21,-423.48C489.05,-412.22 414.82,-397.6 368.68,-388.51"/>
<polygon fill="midnightblue" stroke="midnightblue" points="545.82,-426.98 556.31,-425.47 547.18,-420.11 545.82,-426.98"/>
</g>
<!-- Node43 -->
<g id="node38" class="node">
<title>Node43</title>
<g id="a_node38"><a xlink:href="ParameterHandlerBase_8h.html" target="_top" xlink:title=" ">
<polygon fill="white" stroke="black" points="300,-302.5 300,-332.5 449,-332.5 449,-302.5 300,-302.5"/>
<text text-anchor="start" x="308" y="-320.5" font-family="Helvetica" font-size="10.00">Parameters/ParameterHandler</text>
<text text-anchor="middle" x="374.5" y="-309.5" font-family="Helvetica" font-size="10.00">Base.h</text>
</a>
</g>
</g>
<!-- Node1&#45;&gt;Node43 -->
<g id="edge60" class="edge">
<title>Node1&#45;&gt;Node43</title>
<path fill="none" stroke="midnightblue" d="M552.62,-422.74C523.81,-414.7 491.21,-403.58 463.5,-389 434.37,-373.67 405.37,-348.34 388.73,-332.58"/>
<polygon fill="midnightblue" stroke="midnightblue" points="552.07,-426.22 562.64,-425.46 553.9,-419.47 552.07,-426.22"/>
</g>
<!-- Node59 -->
<g id="node47" class="node">
<title>Node59</title>
<g id="a_node47"><a xlink:href="ParameterTunes_8h.html" target="_top" xlink:title=" ">
<polygon fill="white" stroke="black" points="472.5,-369.5 472.5,-388.5 622.5,-388.5 622.5,-369.5 472.5,-369.5"/>
<text text-anchor="middle" x="547.5" y="-376.5" font-family="Helvetica" font-size="10.00">Parameters/ParameterTunes.h</text>
</a>
</g>
</g>
<!-- Node1&#45;&gt;Node59 -->
<g id="edge61" class="edge">
<title>Node1&#45;&gt;Node59</title>
<path fill="none" stroke="midnightblue" d="M600.19,-419.19C586.18,-408.77 569.86,-396.63 559.14,-388.66"/>
<polygon fill="midnightblue" stroke="midnightblue" points="598.43,-422.24 608.54,-425.4 602.61,-416.62 598.43,-422.24"/>
</g>
<!-- Node61 -->
<g id="node49" class="node">
<title>Node61</title>
<g id="a_node49"><a xlink:href="PCAHandler_8h.html" target="_top" xlink:title=" ">
<polygon fill="white" stroke="black" points="641,-369.5 641,-388.5 774,-388.5 774,-369.5 641,-369.5"/>
<text text-anchor="middle" x="707.5" y="-376.5" font-family="Helvetica" font-size="10.00">Parameters/PCAHandler.h</text>
</a>
</g>
</g>
<!-- Node1&#45;&gt;Node61 -->
<g id="edge64" class="edge">
<title>Node1&#45;&gt;Node61</title>
<path fill="none" stroke="midnightblue" d="M654.81,-419.19C668.82,-408.77 685.14,-396.63 695.86,-388.66"/>
<polygon fill="midnightblue" stroke="midnightblue" points="652.39,-416.62 646.46,-425.4 656.57,-422.24 652.39,-416.62"/>
</g>
<!-- Node3 -->
<g id="node3" class="node">
<title>Node3</title>
<g id="a_node3"><a xlink:href="FitterBase_8h.html" target="_top" xlink:title=" ">
<polygon fill="white" stroke="black" points="871,-241 871,-260 972,-260 972,-241 871,-241"/>
<text text-anchor="middle" x="921.5" y="-248" font-family="Helvetica" font-size="10.00">Fitters/FitterBase.h</text>
</a>
</g>
</g>
<!-- Node2&#45;&gt;Node3 -->
<g id="edge2" class="edge">
<title>Node2&#45;&gt;Node3</title>
<path fill="none" stroke="midnightblue" d="M1280.61,-361.22C1294.63,-344.59 1310.51,-319.18 1295.5,-302 1274.53,-278.01 1069.54,-261.32 972.25,-254.69"/>
<polygon fill="midnightblue" stroke="midnightblue" points="1277.69,-359.24 1273.63,-369.03 1282.91,-363.91 1277.69,-359.24"/>
</g>
<!-- Node22 -->
<g id="node17" class="node">
<title>Node22</title>
<g id="a_node17"><a xlink:href="MCMCProcessor_8cpp.html" target="_top" xlink:title=" ">
<polygon fill="white" stroke="black" points="1492,-308 1492,-327 1635,-327 1635,-308 1492,-308"/>
<text text-anchor="middle" x="1563.5" y="-315" font-family="Helvetica" font-size="10.00">Fitters/MCMCProcessor.cpp</text>
</a>
</g>
</g>
<!-- Node2&#45;&gt;Node22 -->
<g id="edge22" class="edge">
<title>Node2&#45;&gt;Node22</title>
<path fill="none" stroke="midnightblue" d="M1317.4,-367.47C1375.34,-355.94 1467.16,-337.67 1520.74,-327.01"/>
<polygon fill="midnightblue" stroke="midnightblue" points="1316.46,-364.09 1307.34,-369.48 1317.83,-370.96 1316.46,-364.09"/>
</g>
<!-- Node23 -->
<g id="node18" class="node">
<title>Node23</title>
<g id="a_node18"><a xlink:href="OscProcessor_8h.html" target="_top" xlink:title=" ">
<polygon fill="white" stroke="black" points="1912,-308 1912,-327 2031,-327 2031,-308 1912,-308"/>
<text text-anchor="middle" x="1971.5" y="-315" font-family="Helvetica" font-size="10.00">Fitters/OscProcessor.h</text>
</a>
</g>
</g>
<!-- Node2&#45;&gt;Node23 -->
<g id="edge23" class="edge">
<title>Node2&#45;&gt;Node23</title>
<path fill="none" stroke="midnightblue" d="M1340.94,-368.9C1467.3,-356.65 1780.11,-332.86 1911.76,-322.97"/>
<polygon fill="midnightblue" stroke="midnightblue" points="1340.35,-365.44 1330.74,-369.91 1341.03,-372.41 1340.35,-365.44"/>
</g>
<!-- Node26 -->
<g id="node21" class="node">
<title>Node26</title>
<g id="a_node21"><a xlink:href="SampleSummary_8h.html" target="_top" xlink:title=" ">
<polygon fill="white" stroke="black" points="1343,-308 1343,-327 1474,-327 1474,-308 1343,-308"/>
<text text-anchor="middle" x="1408.5" y="-315" font-family="Helvetica" font-size="10.00">Fitters/SampleSummary.h</text>
</a>
</g>
</g>
<!-- Node2&#45;&gt;Node26 -->
<g id="edge26" class="edge">
<title>Node2&#45;&gt;Node26</title>
<path fill="none" stroke="midnightblue" d="M1294.43,-365.63C1322.41,-354.07 1363.44,-337.12 1387.91,-327.01"/>
<polygon fill="midnightblue" stroke="midnightblue" points="1293.04,-362.42 1285.13,-369.48 1295.71,-368.89 1293.04,-362.42"/>
</g>
<!-- Node28 -->
<g id="node23" class="node">
<title>Node28</title>
<g id="a_node23"><a xlink:href="DiagMCMC_8cpp.html" target="_top" xlink:title=" ">
<polygon fill="white" stroke="black" points="807,-308 807,-327 948,-327 948,-308 807,-308"/>
<text text-anchor="middle" x="877.5" y="-315" font-family="Helvetica" font-size="10.00">Diagnostics/DiagMCMC.cpp</text>
</a>
</g>
</g>
<!-- Node2&#45;&gt;Node28 -->
<g id="edge28" class="edge">
<title>Node2&#45;&gt;Node28</title>
<path fill="none" stroke="midnightblue" d="M1191.96,-368.07C1129.69,-359.38 1037.57,-346.12 957.5,-333 946.36,-331.17 934.37,-329.07 923.14,-327.05"/>
<polygon fill="midnightblue" stroke="midnightblue" points="1191.69,-371.57 1202.08,-369.48 1192.66,-364.63 1191.69,-371.57"/>
</g>
<!-- Node29 -->
<g id="node24" class="node">
<title>Node29</title>
<g id="a_node24"><a xlink:href="PlotMCMCDiag_8cpp.html" target="_top" xlink:title="KS: This script is used to analyse output form DiagMCMC.">
<polygon fill="white" stroke="black" points="966.5,-308 966.5,-327 1124.5,-327 1124.5,-308 966.5,-308"/>
<text text-anchor="middle" x="1045.5" y="-315" font-family="Helvetica" font-size="10.00">Diagnostics/PlotMCMCDiag.cpp</text>
</a>
</g>
</g>
<!-- Node2&#45;&gt;Node29 -->
<g id="edge29" class="edge">
<title>Node2&#45;&gt;Node29</title>
<path fill="none" stroke="midnightblue" d="M1223.36,-366.82C1180.82,-355.26 1115.33,-337.47 1076.82,-327.01"/>
<polygon fill="midnightblue" stroke="midnightblue" points="1222.55,-370.23 1233.12,-369.48 1224.39,-363.48 1222.55,-370.23"/>
</g>
<!-- Node30 -->
<g id="node25" class="node">
<title>Node30</title>
<g id="a_node25"><a xlink:href="SmearChain_8cpp.html" target="_top" xlink:title=" ">
<polygon fill="white" stroke="black" points="1142.5,-308 1142.5,-327 1286.5,-327 1286.5,-308 1142.5,-308"/>
<text text-anchor="middle" x="1214.5" y="-315" font-family="Helvetica" font-size="10.00">Diagnostics/SmearChain.cpp</text>
</a>
</g>
</g>
<!-- Node2&#45;&gt;Node30 -->
<g id="edge30" class="edge">
<title>Node2&#45;&gt;Node30</title>
<path fill="none" stroke="midnightblue" d="M1250.78,-361.67C1241.35,-350.45 1229.22,-336.02 1221.65,-327.01"/>
<polygon fill="midnightblue" stroke="midnightblue" points="1248.22,-364.07 1257.34,-369.48 1253.58,-359.57 1248.22,-364.07"/>
</g>
<!-- Node31 -->
<g id="node26" class="node">
<title>Node31</title>
<g id="a_node26"><a xlink:href="inputManager_8h.html" target="_top" xlink:title=" ">
<polygon fill="white" stroke="black" points="1653.5,-302.5 1653.5,-332.5 1757.5,-332.5 1757.5,-302.5 1653.5,-302.5"/>
<text text-anchor="start" x="1661.5" y="-320.5" font-family="Helvetica" font-size="10.00">Plotting/plottingUtils</text>
<text text-anchor="middle" x="1705.5" y="-309.5" font-family="Helvetica" font-size="10.00">/inputManager.h</text>
</a>
</g>
</g>
<!-- Node2&#45;&gt;Node31 -->
<g id="edge31" class="edge">
<title>Node2&#45;&gt;Node31</title>
<path fill="none" stroke="midnightblue" d="M1340.69,-368.87C1476.29,-353.05 1512.64,-355.98 1643.5,-333 1646.77,-332.43 1650.12,-331.79 1653.49,-331.11"/>
<polygon fill="midnightblue" stroke="midnightblue" points="1340.27,-365.4 1330.75,-370.04 1341.09,-372.35 1340.27,-365.4"/>
</g>
<!-- Node4 -->
<g id="node4" class="node">
<title>Node4</title>
<g id="a_node4"><a xlink:href="FitterBase_8cpp.html" target="_top" xlink:title=" ">
<polygon fill="white" stroke="black" points="620.5,-112.5 620.5,-131.5 732.5,-131.5 732.5,-112.5 620.5,-112.5"/>
<text text-anchor="middle" x="676.5" y="-119.5" font-family="Helvetica" font-size="10.00">Fitters/FitterBase.cpp</text>
</a>
</g>
</g>
<!-- Node3&#45;&gt;Node4 -->
<g id="edge3" class="edge">
<title>Node3&#45;&gt;Node4</title>
<path fill="none" stroke="midnightblue" d="M904.28,-233.75C881.09,-212.8 840.75,-177.32 823.5,-168 790.86,-150.36 750.33,-138.61 720.1,-131.56"/>
<polygon fill="midnightblue" stroke="midnightblue" points="902.21,-236.6 911.97,-240.73 906.92,-231.42 902.21,-236.6"/>
</g>
<!-- Node5 -->
<g id="node5" class="node">
<title>Node5</title>
<g id="a_node5"><a xlink:href="LikelihoodFit_8h.html" target="_top" xlink:title=" ">
<polygon fill="white" stroke="black" points="908.5,-174 908.5,-193 1018.5,-193 1018.5,-174 908.5,-174"/>
<text text-anchor="middle" x="963.5" y="-181" font-family="Helvetica" font-size="10.00">Fitters/LikelihoodFit.h</text>
</a>
</g>
</g>
<!-- Node3&#45;&gt;Node5 -->
<g id="edge4" class="edge">
<title>Node3&#45;&gt;Node5</title>
<path fill="none" stroke="midnightblue" d="M932.79,-232.03C940.92,-219.45 951.54,-203.01 957.93,-193.13"/>
<polygon fill="midnightblue" stroke="midnightblue" points="929.65,-230.44 927.16,-240.73 935.53,-234.23 929.65,-230.44"/>
</g>
<!-- Node7 -->
<g id="node7" class="node">
<title>Node7</title>
<g id="a_node7"><a xlink:href="MaCh3Factory_8h.html" target="_top" xlink:title="Factory methods for MaCh3 software which streamline initialisation of different objects.">
<polygon fill="white" stroke="black" points="810,-56.5 810,-75.5 931,-75.5 931,-56.5 810,-56.5"/>
<text text-anchor="middle" x="870.5" y="-63.5" font-family="Helvetica" font-size="10.00">Fitters/MaCh3Factory.h</text>
</a>
</g>
</g>
<!-- Node3&#45;&gt;Node7 -->
<g id="edge13" class="edge">
<title>Node3&#45;&gt;Node7</title>
<path fill="none" stroke="midnightblue" d="M913.4,-231.71C909.11,-222.09 903.85,-209.97 899.5,-199 887.84,-169.6 882.11,-162.93 875.5,-132 871.25,-112.08 870.5,-88.04 870.44,-75.52"/>
<polygon fill="midnightblue" stroke="midnightblue" points="910.29,-233.32 917.59,-241 916.67,-230.44 910.29,-233.32"/>
</g>
<!-- Node11 -->
<g id="node10" class="node">
<title>Node11</title>
<g id="a_node10"><a xlink:href="fitters_8cpp.html" target="_top" xlink:title=" ">
<polygon fill="white" stroke="black" points="1186,-56.5 1186,-75.5 1279,-75.5 1279,-56.5 1186,-56.5"/>
<text text-anchor="middle" x="1232.5" y="-63.5" font-family="Helvetica" font-size="10.00">python/fitters.cpp</text>
</a>
</g>
</g>
<!-- Node3&#45;&gt;Node11 -->
<g id="edge21" class="edge">
<title>Node3&#45;&gt;Node11</title>
<path fill="none" stroke="midnightblue" d="M982.49,-247.25C1116.38,-240.78 1428.23,-216.71 1479.5,-132 1484.1,-124.4 1485.19,-118.83 1479.5,-112 1454.47,-82 1343.4,-71.95 1279.04,-68.62"/>
<polygon fill="midnightblue" stroke="midnightblue" points="982.22,-243.76 972.39,-247.73 982.54,-250.76 982.22,-243.76"/>
</g>
<!-- Node14 -->
<g id="node12" class="node">
<title>Node14</title>
<g id="a_node12"><a xlink:href="MCMCBase_8h.html" target="_top" xlink:title=" ">
<polygon fill="white" stroke="black" points="1232.5,-174 1232.5,-193 1342.5,-193 1342.5,-174 1232.5,-174"/>
<text text-anchor="middle" x="1287.5" y="-181" font-family="Helvetica" font-size="10.00">Fitters/MCMCBase.h</text>
</a>
</g>
</g>
<!-- Node3&#45;&gt;Node14 -->
<g id="edge14" class="edge">
<title>Node3&#45;&gt;Node14</title>
<path fill="none" stroke="midnightblue" d="M979.97,-239.12C1051.91,-226.34 1172.68,-204.89 1239.46,-193.03"/>
<polygon fill="midnightblue" stroke="midnightblue" points="978.96,-235.74 969.72,-240.94 980.18,-242.63 978.96,-235.74"/>
</g>
<!-- Node20 -->
<g id="node15" class="node">
<title>Node20</title>
<g id="a_node15"><a xlink:href="PredictiveThrower_8h.html" target="_top" xlink:title=" ">
<polygon fill="white" stroke="black" points="680.5,-174 680.5,-193 814.5,-193 814.5,-174 680.5,-174"/>
<text text-anchor="middle" x="747.5" y="-181" font-family="Helvetica" font-size="10.00">Fitters/PredictiveThrower.h</text>
</a>
</g>
</g>
<!-- Node3&#45;&gt;Node20 -->
<g id="edge19" class="edge">
<title>Node3&#45;&gt;Node20</title>
<path fill="none" stroke="midnightblue" d="M888.76,-237.27C854.23,-224.37 800.71,-204.38 770.42,-193.06"/>
<polygon fill="midnightblue" stroke="midnightblue" points="887.8,-240.65 898.39,-240.87 890.25,-234.09 887.8,-240.65"/>
</g>
<!-- Node6 -->
<g id="node6" class="node">
<title>Node6</title>
<g id="a_node6"><a xlink:href="LikelihoodFit_8cpp.html" target="_top" xlink:title=" ">
<polygon fill="white" stroke="black" points="898.5,-112.5 898.5,-131.5 1018.5,-131.5 1018.5,-112.5 898.5,-112.5"/>
<text text-anchor="middle" x="958.5" y="-119.5" font-family="Helvetica" font-size="10.00">Fitters/LikelihoodFit.cpp</text>
</a>
</g>
</g>
<!-- Node5&#45;&gt;Node6 -->
<g id="edge5" class="edge">
<title>Node5&#45;&gt;Node6</title>
<path fill="none" stroke="midnightblue" d="M961.93,-163.82C961.02,-153 959.92,-139.9 959.22,-131.51"/>
<polygon fill="midnightblue" stroke="midnightblue" points="958.46,-164.3 962.78,-173.98 965.43,-163.72 958.46,-164.3"/>
</g>
<!-- Node5&#45;&gt;Node7 -->
<g id="edge6" class="edge">
<title>Node5&#45;&gt;Node7</title>
<path fill="none" stroke="midnightblue" d="M934.8,-169.07C919.33,-160.48 901.08,-147.95 889.5,-132 876.93,-114.69 872.63,-89.14 871.19,-75.81"/>
<polygon fill="midnightblue" stroke="midnightblue" points="933.51,-172.35 943.99,-173.9 936.77,-166.15 933.51,-172.35"/>
</g>
<!-- Node9 -->
<g id="node9" class="node">
<title>Node9</title>
<g id="a_node9"><a xlink:href="MinuitFit_8h.html" target="_top" xlink:title=" ">
<polygon fill="white" stroke="red" points="1132,-112.5 1132,-131.5 1225,-131.5 1225,-112.5 1132,-112.5"/>
<text text-anchor="middle" x="1178.5" y="-119.5" font-family="Helvetica" font-size="10.00">Fitters/MinuitFit.h</text>
</a>
</g>
</g>
<!-- Node5&#45;&gt;Node9 -->
<g id="edge8" class="edge">
<title>Node5&#45;&gt;Node9</title>
<path fill="none" stroke="midnightblue" d="M1004.15,-171.25C1045.92,-159.69 1110.02,-141.95 1147.75,-131.51"/>
<polygon fill="midnightblue" stroke="midnightblue" points="1003.01,-167.93 994.3,-173.98 1004.88,-174.68 1003.01,-167.93"/>
</g>
<!-- Node12 -->
<g id="node11" class="node">
<title>Node12</title>
<g id="a_node11"><a xlink:href="PSO_8h.html" target="_top" xlink:title=" ">
<polygon fill="white" stroke="red" points="1037,-112.5 1037,-131.5 1114,-131.5 1114,-112.5 1037,-112.5"/>
<text text-anchor="middle" x="1075.5" y="-119.5" font-family="Helvetica" font-size="10.00">Fitters/PSO.h</text>
</a>
</g>
</g>
<!-- Node5&#45;&gt;Node12 -->
<g id="edge10" class="edge">
<title>Node5&#45;&gt;Node12</title>
<path fill="none" stroke="midnightblue" d="M988.51,-169.21C1010.2,-157.69 1040.95,-141.36 1059.48,-131.51"/>
<polygon fill="midnightblue" stroke="midnightblue" points="986.74,-166.19 979.55,-173.98 990.02,-172.37 986.74,-166.19"/>
</g>
<!-- Node8 -->
<g id="node8" class="node">
<title>Node8</title>
<g id="a_node8"><a xlink:href="MaCh3Factory_8cpp.html" target="_top" xlink:title=" ">
<polygon fill="white" stroke="black" points="805,-0.5 805,-19.5 936,-19.5 936,-0.5 805,-0.5"/>
<text text-anchor="middle" x="870.5" y="-7.5" font-family="Helvetica" font-size="10.00">Fitters/MaCh3Factory.cpp</text>
</a>
</g>
</g>
<!-- Node7&#45;&gt;Node8 -->
<g id="edge7" class="edge">
<title>Node7&#45;&gt;Node8</title>
<path fill="none" stroke="midnightblue" d="M870.5,-45.8C870.5,-36.91 870.5,-26.78 870.5,-19.75"/>
<polygon fill="midnightblue" stroke="midnightblue" points="867,-46.08 870.5,-56.08 874,-46.08 867,-46.08"/>
</g>
<!-- Node9&#45;&gt;Node11 -->
<g id="edge9" class="edge">
<title>Node9&#45;&gt;Node11</title>
<path fill="none" stroke="midnightblue" d="M1194.5,-105C1204.07,-95.43 1215.86,-83.64 1223.75,-75.75"/>
<polygon fill="midnightblue" stroke="midnightblue" points="1192.01,-102.54 1187.42,-112.08 1196.96,-107.49 1192.01,-102.54"/>
</g>
<!-- Node12&#45;&gt;Node7 -->
<g id="edge11" class="edge">
<title>Node12&#45;&gt;Node7</title>
<path fill="none" stroke="midnightblue" d="M1033.09,-109.83C994.39,-99.63 938.01,-84.78 902.83,-75.52"/>
<polygon fill="midnightblue" stroke="midnightblue" points="1032.46,-113.28 1043.02,-112.44 1034.24,-106.51 1032.46,-113.28"/>
</g>
<!-- Node12&#45;&gt;Node11 -->
<g id="edge12" class="edge">
<title>Node12&#45;&gt;Node11</title>
<path fill="none" stroke="midnightblue" d="M1109.89,-109.17C1139.45,-99 1181.37,-84.59 1207.74,-75.52"/>
<polygon fill="midnightblue" stroke="midnightblue" points="1108.7,-105.88 1100.38,-112.44 1110.97,-112.5 1108.7,-105.88"/>
</g>
<!-- Node15 -->
<g id="node13" class="node">
<title>Node15</title>
<g id="a_node13"><a xlink:href="MCMCBase_8cpp.html" target="_top" xlink:title=" ">
<polygon fill="white" stroke="black" points="1350,-112.5 1350,-131.5 1471,-131.5 1471,-112.5 1350,-112.5"/>
<text text-anchor="middle" x="1410.5" y="-119.5" font-family="Helvetica" font-size="10.00">Fitters/MCMCBase.cpp</text>
</a>
</g>
</g>
<!-- Node14&#45;&gt;Node15 -->
<g id="edge15" class="edge">
<title>Node14&#45;&gt;Node15</title>
<path fill="none" stroke="midnightblue" d="M1314.33,-169.52C1338.19,-157.98 1372.37,-141.44 1392.91,-131.51"/>
<polygon fill="midnightblue" stroke="midnightblue" points="1312.6,-166.47 1305.12,-173.98 1315.65,-172.77 1312.6,-166.47"/>
</g>
<!-- Node16 -->
<g id="node14" class="node">
<title>Node16</title>
<g id="a_node14"><a xlink:href="MR2T2_8h.html" target="_top" xlink:title=" ">
<polygon fill="white" stroke="red" points="1243,-112.5 1243,-131.5 1332,-131.5 1332,-112.5 1243,-112.5"/>
<text text-anchor="middle" x="1287.5" y="-119.5" font-family="Helvetica" font-size="10.00">Fitters/MR2T2.h</text>
</a>
</g>
</g>
<!-- Node14&#45;&gt;Node16 -->
<g id="edge16" class="edge">
<title>Node14&#45;&gt;Node16</title>
<path fill="none" stroke="midnightblue" d="M1287.5,-163.82C1287.5,-153 1287.5,-139.9 1287.5,-131.51"/>
<polygon fill="midnightblue" stroke="midnightblue" points="1284,-163.98 1287.5,-173.98 1291,-163.98 1284,-163.98"/>
</g>
<!-- Node16&#45;&gt;Node7 -->
<g id="edge17" class="edge">
<title>Node16&#45;&gt;Node7</title>
<path fill="none" stroke="midnightblue" d="M1232.58,-111.92C1120.23,-95.74 1001.37,-81.71 931.3,-73.75"/>
<polygon fill="midnightblue" stroke="midnightblue" points="1232.33,-115.42 1242.73,-113.39 1233.34,-108.49 1232.33,-115.42"/>
</g>
<!-- Node16&#45;&gt;Node11 -->
<g id="edge18" class="edge">
<title>Node16&#45;&gt;Node11</title>
<path fill="none" stroke="midnightblue" d="M1271.21,-105C1261.46,-95.43 1249.45,-83.64 1241.41,-75.75"/>
<polygon fill="midnightblue" stroke="midnightblue" points="1268.83,-107.57 1278.42,-112.08 1273.73,-102.58 1268.83,-107.57"/>
</g>
<!-- Node21 -->
<g id="node16" class="node">
<title>Node21</title>
<g id="a_node16"><a xlink:href="PredictiveThrower_8cpp.html" target="_top" xlink:title=" ">
<polygon fill="white" stroke="black" points="381.5,-112.5 381.5,-131.5 525.5,-131.5 525.5,-112.5 381.5,-112.5"/>
<text text-anchor="middle" x="453.5" y="-119.5" font-family="Helvetica" font-size="10.00">Fitters/PredictiveThrower.cpp</text>
</a>
</g>
</g>
<!-- Node20&#45;&gt;Node21 -->
<g id="edge20" class="edge">
<title>Node20&#45;&gt;Node21</title>
<path fill="none" stroke="midnightblue" d="M695.49,-171.97C638.51,-160.44 548.23,-142.17 495.54,-131.51"/>
<polygon fill="midnightblue" stroke="midnightblue" points="694.88,-175.42 705.38,-173.98 696.27,-168.56 694.88,-175.42"/>
</g>
<!-- Node24 -->
<g id="node19" class="node">
<title>Node24</title>
<g id="a_node19"><a xlink:href="OscProcessor_8cpp.html" target="_top" xlink:title=" ">
<polygon fill="white" stroke="black" points="1907,-241 1907,-260 2036,-260 2036,-241 1907,-241"/>
<text text-anchor="middle" x="1971.5" y="-248" font-family="Helvetica" font-size="10.00">Fitters/OscProcessor.cpp</text>
</a>
</g>
</g>
<!-- Node23&#45;&gt;Node24 -->
<g id="edge24" class="edge">
<title>Node23&#45;&gt;Node24</title>
<path fill="none" stroke="midnightblue" d="M1971.5,-297.54C1971.5,-285.17 1971.5,-269.62 1971.5,-260.13"/>
<polygon fill="midnightblue" stroke="midnightblue" points="1968,-297.73 1971.5,-307.73 1975,-297.73 1968,-297.73"/>
</g>
<!-- Node25 -->
<g id="node20" class="node">
<title>Node25</title>
<g id="a_node20"><a xlink:href="ProcessMCMC_8cpp.html" target="_top" xlink:title="Main exectable responsible for different types of MCMC processing like drawing posteriors,...">
<polygon fill="white" stroke="black" points="2054,-241 2054,-260 2211,-260 2211,-241 2054,-241"/>
<text text-anchor="middle" x="2132.5" y="-248" font-family="Helvetica" font-size="10.00">Diagnostics/ProcessMCMC.cpp</text>
</a>
</g>
</g>
<!-- Node23&#45;&gt;Node25 -->
<g id="edge25" class="edge">
<title>Node23&#45;&gt;Node25</title>
<path fill="none" stroke="midnightblue" d="M2002.2,-304.1C2034.17,-291.2 2083.39,-271.33 2111.29,-260.06"/>
<polygon fill="midnightblue" stroke="midnightblue" points="2000.84,-300.88 1992.88,-307.87 2003.46,-307.37 2000.84,-300.88"/>
</g>
<!-- Node27 -->
<g id="node22" class="node">
<title>Node27</title>
<g id="a_node22"><a xlink:href="SampleSummary_8cpp.html" target="_top" xlink:title=" ">
<polygon fill="white" stroke="black" points="1337.5,-241 1337.5,-260 1479.5,-260 1479.5,-241 1337.5,-241"/>
<text text-anchor="middle" x="1408.5" y="-248" font-family="Helvetica" font-size="10.00">Fitters/SampleSummary.cpp</text>
</a>
</g>
</g>
<!-- Node26&#45;&gt;Node27 -->
<g id="edge27" class="edge">
<title>Node26&#45;&gt;Node27</title>
<path fill="none" stroke="midnightblue" d="M1408.5,-297.54C1408.5,-285.17 1408.5,-269.62 1408.5,-260.13"/>
<polygon fill="midnightblue" stroke="midnightblue" points="1405,-297.73 1408.5,-307.73 1412,-297.73 1405,-297.73"/>
</g>
<!-- Node32 -->
<g id="node27" class="node">
<title>Node32</title>
<g id="a_node27"><a xlink:href="inputManager_8cpp.html" target="_top" xlink:title=" ">
<polygon fill="white" stroke="black" points="1653.5,-235.5 1653.5,-265.5 1757.5,-265.5 1757.5,-235.5 1653.5,-235.5"/>
<text text-anchor="start" x="1661.5" y="-253.5" font-family="Helvetica" font-size="10.00">Plotting/plottingUtils</text>
<text text-anchor="middle" x="1705.5" y="-242.5" font-family="Helvetica" font-size="10.00">/inputManager.cpp</text>
</a>
</g>
</g>
<!-- Node31&#45;&gt;Node32 -->
<g id="edge32" class="edge">
<title>Node31&#45;&gt;Node32</title>
<path fill="none" stroke="midnightblue" d="M1705.5,-292.11C1705.5,-283.15 1705.5,-273.32 1705.5,-265.58"/>
<polygon fill="midnightblue" stroke="midnightblue" points="1702,-292.4 1705.5,-302.4 1709,-292.4 1702,-292.4"/>
</g>
<!-- Node33 -->
<g id="node28" class="node">
<title>Node33</title>
<g id="a_node28"><a xlink:href="plottingManager_8h.html" target="_top" xlink:title=" ">
<polygon fill="white" stroke="black" points="1784.5,-235.5 1784.5,-265.5 1888.5,-265.5 1888.5,-235.5 1784.5,-235.5"/>
<text text-anchor="start" x="1792.5" y="-253.5" font-family="Helvetica" font-size="10.00">Plotting/plottingUtils</text>
<text text-anchor="middle" x="1836.5" y="-242.5" font-family="Helvetica" font-size="10.00">/plottingManager.h</text>
</a>
</g>
</g>
<!-- Node31&#45;&gt;Node33 -->
<g id="edge33" class="edge">
<title>Node31&#45;&gt;Node33</title>
<path fill="none" stroke="midnightblue" d="M1743.08,-297.85C1763.79,-287.58 1789.09,-275.03 1808.13,-265.58"/>
<polygon fill="midnightblue" stroke="midnightblue" points="1741.33,-294.82 1733.93,-302.4 1744.44,-301.09 1741.33,-294.82"/>
</g>
<!-- Node39 -->
<g id="node34" class="node">
<title>Node39</title>
<g id="a_node34"><a xlink:href="plotting_8cpp.html" target="_top" xlink:title=" ">
<polygon fill="white" stroke="black" points="1528,-174 1528,-193 1627,-193 1627,-174 1528,-174"/>
<text text-anchor="middle" x="1577.5" y="-181" font-family="Helvetica" font-size="10.00">python/plotting.cpp</text>
</a>
</g>
</g>
<!-- Node31&#45;&gt;Node39 -->
<g id="edge40" class="edge">
<title>Node31&#45;&gt;Node39</title>
<path fill="none" stroke="midnightblue" d="M1678.53,-296.02C1667.56,-287.22 1655.02,-276.55 1644.5,-266 1619.93,-241.35 1594.93,-208.4 1583.67,-193.04"/>
<polygon fill="midnightblue" stroke="midnightblue" points="1676.54,-298.9 1686.56,-302.34 1680.87,-293.4 1676.54,-298.9"/>
</g>
<!-- Node34 -->
<g id="node29" class="node">
<title>Node34</title>
<g id="a_node29"><a xlink:href="GetPostfitParamPlots_8cpp.html" target="_top" xlink:title=" ">
<polygon fill="white" stroke="black" points="1943,-168.5 1943,-198.5 2068,-198.5 2068,-168.5 1943,-168.5"/>
<text text-anchor="start" x="1951" y="-186.5" font-family="Helvetica" font-size="10.00">Plotting/GetPostfitParam</text>
<text text-anchor="middle" x="2005.5" y="-175.5" font-family="Helvetica" font-size="10.00">Plots.cpp</text>
</a>
</g>
</g>
<!-- Node33&#45;&gt;Node34 -->
<g id="edge34" class="edge">
<title>Node33&#45;&gt;Node34</title>
<path fill="none" stroke="midnightblue" d="M1882.83,-231.68C1909.93,-221.26 1943.67,-208.28 1968.9,-198.58"/>
<polygon fill="midnightblue" stroke="midnightblue" points="1881.25,-228.54 1873.17,-235.4 1883.76,-235.07 1881.25,-228.54"/>
</g>
<!-- Node35 -->
<g id="node30" class="node">
<title>Node35</title>
<g id="a_node30"><a xlink:href="MatrixPlotter_8cpp.html" target="_top" xlink:title=" ">
<polygon fill="white" stroke="black" points="2086,-174 2086,-193 2213,-193 2213,-174 2086,-174"/>
<text text-anchor="middle" x="2149.5" y="-181" font-family="Helvetica" font-size="10.00">Plotting/MatrixPlotter.cpp</text>
</a>
</g>
</g>
<!-- Node33&#45;&gt;Node35 -->
<g id="edge35" class="edge">
<title>Node33&#45;&gt;Node35</title>
<path fill="none" stroke="midnightblue" d="M1898.2,-235.07C1898.3,-235.04 1898.4,-235.02 1898.5,-235 1977.8,-217.76 1997.95,-215.01 2077.5,-199 2087.13,-197.06 2097.47,-194.98 2107.24,-193.01"/>
<polygon fill="midnightblue" stroke="midnightblue" points="1897.58,-231.62 1888.57,-237.2 1899.09,-238.45 1897.58,-231.62"/>
</g>
<!-- Node36 -->
<g id="node31" class="node">
<title>Node36</title>
<g id="a_node31"><a xlink:href="PlotLLH_8cpp.html" target="_top" xlink:title=" ">
<polygon fill="white" stroke="black" points="2231,-174 2231,-193 2338,-193 2338,-174 2231,-174"/>
<text text-anchor="middle" x="2284.5" y="-181" font-family="Helvetica" font-size="10.00">Plotting/PlotLLH.cpp</text>
</a>
</g>
</g>
<!-- Node33&#45;&gt;Node36 -->
<g id="edge36" class="edge">
<title>Node33&#45;&gt;Node36</title>
<path fill="none" stroke="midnightblue" d="M1898.19,-235.05C1898.3,-235.04 1898.4,-235.02 1898.5,-235 2041.29,-210.46 2079.71,-223.54 2222.5,-199 2231.87,-197.39 2241.94,-195.23 2251.18,-193.06"/>
<polygon fill="midnightblue" stroke="midnightblue" points="1897.69,-231.59 1888.5,-236.86 1898.98,-238.47 1897.69,-231.59"/>
</g>
<!-- Node37 -->
<g id="node32" class="node">
<title>Node37</title>
<g id="a_node32"><a xlink:href="PlotSigmaVariation_8cpp.html" target="_top" xlink:title=" ">
<polygon fill="white" stroke="black" points="1645.5,-174 1645.5,-193 1799.5,-193 1799.5,-174 1645.5,-174"/>
<text text-anchor="middle" x="1722.5" y="-181" font-family="Helvetica" font-size="10.00">Plotting/PlotSigmaVariation.cpp</text>
</a>
</g>
</g>
<!-- Node33&#45;&gt;Node37 -->
<g id="edge37" class="edge">
<title>Node33&#45;&gt;Node37</title>
<path fill="none" stroke="midnightblue" d="M1802.84,-230.31C1781.12,-217.93 1753.95,-202.43 1737.42,-193.01"/>
<polygon fill="midnightblue" stroke="midnightblue" points="1801.34,-233.48 1811.76,-235.4 1804.81,-227.4 1801.34,-233.48"/>
</g>
<!-- Node38 -->
<g id="node33" class="node">
<title>Node38</title>
<g id="a_node33"><a xlink:href="plottingManager_8cpp.html" target="_top" xlink:title=" ">
<polygon fill="white" stroke="black" points="1818,-168.5 1818,-198.5 1925,-198.5 1925,-168.5 1818,-168.5"/>
<text text-anchor="start" x="1826" y="-186.5" font-family="Helvetica" font-size="10.00">Plotting/plottingUtils</text>
<text text-anchor="middle" x="1871.5" y="-175.5" font-family="Helvetica" font-size="10.00">/plottingManager.cpp</text>
</a>
</g>
</g>
<!-- Node33&#45;&gt;Node38 -->
<g id="edge38" class="edge">
<title>Node33&#45;&gt;Node38</title>
<path fill="none" stroke="midnightblue" d="M1848.84,-226.58C1853.87,-217.24 1859.52,-206.75 1863.92,-198.58"/>
<polygon fill="midnightblue" stroke="midnightblue" points="1845.75,-224.93 1844.09,-235.4 1851.92,-228.25 1845.75,-224.93"/>
</g>
<!-- Node33&#45;&gt;Node39 -->
<g id="edge39" class="edge">
<title>Node33&#45;&gt;Node39</title>
<path fill="none" stroke="midnightblue" d="M1774.44,-233.93C1723.3,-221.09 1652.69,-203.37 1611.38,-193"/>
<polygon fill="midnightblue" stroke="midnightblue" points="1773.85,-237.38 1784.4,-236.42 1775.55,-230.6 1773.85,-237.38"/>
</g>
<!-- Node42 -->
<g id="node37" class="node">
<title>Node42</title>
<g id="a_node37"><a xlink:href="AdaptiveMCMCHandler_8cpp.html" target="_top" xlink:title=" ">
<polygon fill="white" stroke="black" points="91,-308 91,-327 282,-327 282,-308 91,-308"/>
<text text-anchor="middle" x="186.5" y="-315" font-family="Helvetica" font-size="10.00">Parameters/AdaptiveMCMCHandler.cpp</text>
</a>
</g>
</g>
<!-- Node41&#45;&gt;Node42 -->
<g id="edge43" class="edge">
<title>Node41&#45;&gt;Node42</title>
<path fill="none" stroke="midnightblue" d="M296.25,-365.48C269.25,-353.92 229.9,-337.08 206.38,-327.01"/>
<polygon fill="midnightblue" stroke="midnightblue" points="295.01,-368.76 305.58,-369.48 297.77,-362.32 295.01,-368.76"/>
</g>
<!-- Node41&#45;&gt;Node43 -->
<g id="edge44" class="edge">
<title>Node41&#45;&gt;Node43</title>
<path fill="none" stroke="midnightblue" d="M339.06,-361.53C346.57,-352.42 355.79,-341.21 362.95,-332.52"/>
<polygon fill="midnightblue" stroke="midnightblue" points="336.18,-359.53 332.52,-369.48 341.58,-363.98 336.18,-359.53"/>
</g>
<!-- Node43&#45;&gt;Node3 -->
<g id="edge45" class="edge">
<title>Node43&#45;&gt;Node3</title>
<path fill="none" stroke="midnightblue" d="M459.34,-301.79C614.94,-280.05 787.32,-263.48 870.9,-255.93"/>
<polygon fill="midnightblue" stroke="midnightblue" points="458.53,-298.37 449.12,-303.23 459.51,-305.3 458.53,-298.37"/>
</g>
<!-- Node44 -->
<g id="node39" class="node">
<title>Node44</title>
<g id="a_node39"><a xlink:href="ParameterHandlerBase_8cpp.html" target="_top" xlink:title=" ">
<polygon fill="white" stroke="black" points="115,-235.5 115,-265.5 264,-265.5 264,-235.5 115,-235.5"/>
<text text-anchor="start" x="123" y="-253.5" font-family="Helvetica" font-size="10.00">Parameters/ParameterHandler</text>
<text text-anchor="middle" x="189.5" y="-242.5" font-family="Helvetica" font-size="10.00">Base.cpp</text>
</a>
</g>
</g>
<!-- Node43&#45;&gt;Node44 -->
<g id="edge46" class="edge">
<title>Node43&#45;&gt;Node44</title>
<path fill="none" stroke="midnightblue" d="M324.56,-298.96C294.76,-288.48 257.43,-275.37 229.56,-265.58"/>
<polygon fill="midnightblue" stroke="midnightblue" points="323.76,-302.38 334.36,-302.4 326.08,-295.78 323.76,-302.38"/>
</g>
<!-- Node45 -->
<g id="node40" class="node">
<title>Node45</title>
<g id="a_node40"><a xlink:href="ParameterHandlerGeneric_8h.html" target="_top" xlink:title=" ">
<polygon fill="white" stroke="black" points="282,-235.5 282,-265.5 431,-265.5 431,-235.5 282,-235.5"/>
<text text-anchor="start" x="290" y="-253.5" font-family="Helvetica" font-size="10.00">Parameters/ParameterHandler</text>
<text text-anchor="middle" x="356.5" y="-242.5" font-family="Helvetica" font-size="10.00">Generic.h</text>
</a>
</g>
</g>
<!-- Node43&#45;&gt;Node45 -->
<g id="edge47" class="edge">
<title>Node43&#45;&gt;Node45</title>
<path fill="none" stroke="midnightblue" d="M367.91,-292.7C365.39,-283.59 362.59,-273.49 360.4,-265.58"/>
<polygon fill="midnightblue" stroke="midnightblue" points="364.55,-293.69 370.59,-302.4 371.3,-291.82 364.55,-293.69"/>
</g>
<!-- Node58 -->
<g id="node46" class="node">
<title>Node58</title>
<g id="a_node46"><a xlink:href="parameters_8cpp.html" target="_top" xlink:title=" ">
<polygon fill="white" stroke="black" points="545,-174 545,-193 662,-193 662,-174 545,-174"/>
<text text-anchor="middle" x="603.5" y="-181" font-family="Helvetica" font-size="10.00">python/parameters.cpp</text>
</a>
</g>
</g>
<!-- Node43&#45;&gt;Node58 -->
<g id="edge59" class="edge">
<title>Node43&#45;&gt;Node58</title>
<path fill="none" stroke="midnightblue" d="M407.91,-297.24C458.44,-268.11 552.25,-214.04 588.59,-193.1"/>
<polygon fill="midnightblue" stroke="midnightblue" points="405.92,-294.35 399.01,-302.37 409.42,-300.41 405.92,-294.35"/>
</g>
<!-- Node45&#45;&gt;Node7 -->
<g id="edge55" class="edge">
<title>Node45&#45;&gt;Node7</title>
<path fill="none" stroke="midnightblue" d="M350.61,-225.48C344.44,-193.73 339.68,-138.71 372.5,-112 405.75,-84.95 684.1,-72.85 809.58,-68.74"/>
<polygon fill="midnightblue" stroke="midnightblue" points="347.19,-226.23 352.7,-235.28 354.04,-224.77 347.19,-226.23"/>
</g>
<!-- Node45&#45;&gt;Node21 -->
<g id="edge56" class="edge">
<title>Node45&#45;&gt;Node21</title>
<path fill="none" stroke="midnightblue" d="M355.67,-224.93C356.27,-207.53 359.62,-184.46 371.5,-168 384.43,-150.1 406.76,-138.51 424.86,-131.59"/>
<polygon fill="midnightblue" stroke="midnightblue" points="352.17,-225.39 355.61,-235.41 359.17,-225.44 352.17,-225.39"/>
</g>
<!-- Node46 -->
<g id="node41" class="node">
<title>Node46</title>
<g id="a_node41"><a xlink:href="SplineStructs_8h.html" target="_top" xlink:title="Contains structures and helper functions for handling spline representations of systematic parameters...">
<polygon fill="white" stroke="black" points="167,-174 167,-193 286,-193 286,-174 167,-174"/>
<text text-anchor="middle" x="226.5" y="-181" font-family="Helvetica" font-size="10.00">Splines/SplineStructs.h</text>
</a>
</g>
</g>
<!-- Node45&#45;&gt;Node46 -->
<g id="edge48" class="edge">
<title>Node45&#45;&gt;Node46</title>
<path fill="none" stroke="midnightblue" d="M319.11,-230.8C294.18,-218.34 262.61,-202.56 243.51,-193.01"/>
<polygon fill="midnightblue" stroke="midnightblue" points="317.78,-234.05 328.29,-235.4 320.91,-227.79 317.78,-234.05"/>
</g>
<!-- Node50 -->
<g id="node44" class="node">
<title>Node50</title>
<g id="a_node44"><a xlink:href="SampleHandlerFD_8h.html" target="_top" xlink:title=" ">
<polygon fill="white" stroke="red" points="380.5,-174 380.5,-193 526.5,-193 526.5,-174 380.5,-174"/>
<text text-anchor="middle" x="453.5" y="-181" font-family="Helvetica" font-size="10.00">Samples/SampleHandlerFD.h</text>
</a>
</g>
</g>
<!-- Node45&#45;&gt;Node50 -->
<g id="edge52" class="edge">
<title>Node45&#45;&gt;Node50</title>
<path fill="none" stroke="midnightblue" d="M386.14,-229.64C404.44,-217.37 426.99,-202.26 440.8,-193.01"/>
<polygon fill="midnightblue" stroke="midnightblue" points="383.91,-226.92 377.55,-235.4 387.8,-232.74 383.91,-226.92"/>
</g>
<!-- Node57 -->
<g id="node45" class="node">
<title>Node57</title>
<g id="a_node45"><a xlink:href="ParameterHandlerGeneric_8cpp.html" target="_top" xlink:title=" ">
<polygon fill="white" stroke="black" points="0,-168.5 0,-198.5 149,-198.5 149,-168.5 0,-168.5"/>
<text text-anchor="start" x="8" y="-186.5" font-family="Helvetica" font-size="10.00">Parameters/ParameterHandler</text>
<text text-anchor="middle" x="74.5" y="-175.5" font-family="Helvetica" font-size="10.00">Generic.cpp</text>
</a>
</g>
</g>
<!-- Node45&#45;&gt;Node57 -->
<g id="edge57" class="edge">
<title>Node45&#45;&gt;Node57</title>
<path fill="none" stroke="midnightblue" d="M285.72,-233.19C239.54,-222.54 179.86,-208.78 135.72,-198.61"/>
<polygon fill="midnightblue" stroke="midnightblue" points="285.13,-236.64 295.66,-235.48 286.7,-229.82 285.13,-236.64"/>
</g>
<!-- Node45&#45;&gt;Node58 -->
<g id="edge58" class="edge">
<title>Node45&#45;&gt;Node58</title>
<path fill="none" stroke="midnightblue" d="M419.54,-232.91C467.91,-220.18 532.72,-203.13 571.09,-193.03"/>
<polygon fill="midnightblue" stroke="midnightblue" points="418.57,-229.55 409.79,-235.48 420.35,-236.32 418.57,-229.55"/>
</g>
<!-- Node47 -->
<g id="node42" class="node">
<title>Node47</title>
<g id="a_node42"><a xlink:href="SplineBase_8h.html" target="_top" xlink:title=" ">
<polygon fill="white" stroke="red" points="174.5,-112.5 174.5,-131.5 284.5,-131.5 284.5,-112.5 174.5,-112.5"/>
<text text-anchor="middle" x="229.5" y="-119.5" font-family="Helvetica" font-size="10.00">Splines/SplineBase.h</text>
</a>
</g>
</g>
<!-- Node46&#45;&gt;Node47 -->
<g id="edge49" class="edge">
<title>Node46&#45;&gt;Node47</title>
<path fill="none" stroke="midnightblue" d="M227.44,-163.82C227.99,-153 228.65,-139.9 229.07,-131.51"/>
<polygon fill="midnightblue" stroke="midnightblue" points="223.94,-163.81 226.93,-173.98 230.93,-164.16 223.94,-163.81"/>
</g>
<!-- Node56 -->
<g id="node43" class="node">
<title>Node56</title>
<g id="a_node43"><a xlink:href="splines_8cpp.html" target="_top" xlink:title=" ">
<polygon fill="white" stroke="black" points="139.5,-56.5 139.5,-75.5 237.5,-75.5 237.5,-56.5 139.5,-56.5"/>
<text text-anchor="middle" x="188.5" y="-63.5" font-family="Helvetica" font-size="10.00">python/splines.cpp</text>
</a>
</g>
</g>
<!-- Node46&#45;&gt;Node56 -->
<g id="edge51" class="edge">
<title>Node46&#45;&gt;Node56</title>
<path fill="none" stroke="midnightblue" d="M200.71,-168.6C187.56,-159.98 172.82,-147.57 165.5,-132 156.33,-112.5 171.43,-88.29 181.2,-75.63"/>
<polygon fill="midnightblue" stroke="midnightblue" points="199.1,-171.72 209.46,-173.96 202.76,-165.75 199.1,-171.72"/>
</g>
<!-- Node47&#45;&gt;Node56 -->
<g id="edge50" class="edge">
<title>Node47&#45;&gt;Node56</title>
<path fill="none" stroke="midnightblue" d="M216.48,-103.86C209.38,-94.5 200.9,-83.33 195.14,-75.75"/>
<polygon fill="midnightblue" stroke="midnightblue" points="213.89,-106.24 222.73,-112.08 219.47,-102 213.89,-106.24"/>
</g>
<!-- Node50&#45;&gt;Node4 -->
<g id="edge53" class="edge">
<title>Node50&#45;&gt;Node4</title>
<path fill="none" stroke="midnightblue" d="M495.12,-171.4C538.43,-159.84 605.31,-142 644.61,-131.51"/>
<polygon fill="midnightblue" stroke="midnightblue" points="494.21,-168.02 485.45,-173.98 496.01,-174.78 494.21,-168.02"/>
</g>
<!-- Node50&#45;&gt;Node21 -->
<g id="edge54" class="edge">
<title>Node50&#45;&gt;Node21</title>
<path fill="none" stroke="midnightblue" d="M453.5,-163.82C453.5,-153 453.5,-139.9 453.5,-131.51"/>
<polygon fill="midnightblue" stroke="midnightblue" points="450,-163.98 453.5,-173.98 457,-163.98 450,-163.98"/>
</g>
<!-- Node59&#45;&gt;Node43 -->
<g id="edge62" class="edge">
<title>Node59&#45;&gt;Node43</title>
<path fill="none" stroke="midnightblue" d="M512.91,-366.1C484.76,-356.42 444.97,-342.74 415.27,-332.52"/>
<polygon fill="midnightblue" stroke="midnightblue" points="512.12,-369.53 522.71,-369.48 514.4,-362.91 512.12,-369.53"/>
</g>
<!-- Node60 -->
<g id="node48" class="node">
<title>Node60</title>
<g id="a_node48"><a xlink:href="ParameterTunes_8cpp.html" target="_top" xlink:title=" ">
<polygon fill="white" stroke="black" points="467,-308 467,-327 628,-327 628,-308 467,-308"/>
<text text-anchor="middle" x="547.5" y="-315" font-family="Helvetica" font-size="10.00">Parameters/ParameterTunes.cpp</text>
</a>
</g>
</g>
<!-- Node59&#45;&gt;Node60 -->
<g id="edge63" class="edge">
<title>Node59&#45;&gt;Node60</title>
<path fill="none" stroke="midnightblue" d="M547.5,-359.32C547.5,-348.5 547.5,-335.4 547.5,-327.01"/>
<polygon fill="midnightblue" stroke="midnightblue" points="544,-359.48 547.5,-369.48 551,-359.48 544,-359.48"/>
</g>
<!-- Node61&#45;&gt;Node43 -->
<g id="edge65" class="edge">
<title>Node61&#45;&gt;Node43</title>
<path fill="none" stroke="midnightblue" d="M649.76,-367.68C594.17,-357.75 509.83,-342.68 449.16,-331.84"/>
<polygon fill="midnightblue" stroke="midnightblue" points="649.33,-371.16 659.79,-369.48 650.56,-364.27 649.33,-371.16"/>
</g>
<!-- Node62 -->
<g id="node50" class="node">
<title>Node62</title>
<g id="a_node50"><a xlink:href="PCAHandler_8cpp.html" target="_top" xlink:title=" ">
<polygon fill="white" stroke="black" points="646,-308 646,-327 789,-327 789,-308 646,-308"/>
<text text-anchor="middle" x="717.5" y="-315" font-family="Helvetica" font-size="10.00">Parameters/PCAHandler.cpp</text>
</a>
</g>
</g>
<!-- Node61&#45;&gt;Node62 -->
<g id="edge66" class="edge">
<title>Node61&#45;&gt;Node62</title>
<path fill="none" stroke="midnightblue" d="M710.64,-359.32C712.46,-348.5 714.66,-335.4 716.07,-327.01"/>
<polygon fill="midnightblue" stroke="midnightblue" points="707.14,-359.03 708.93,-369.48 714.04,-360.19 707.14,-359.03"/>
</g>
</g>
</svg>
        <g id="navigator" transform="translate(0 0)" fill="#404254">
                <rect fill="#f2f5e9" fill-opacity="0.5" stroke="#606060" stroke-width=".5" x="0" y="0" width="60" height="60"/>
                <use id="zoomplus" xlink:href="#zoomPlus" x="17" y="9" onmousedown="handleZoom(evt,'in')"/>
                <use id="zoomminus" xlink:href="#zoomMin" x="42" y="9" onmousedown="handleZoom(evt,'out')"/>
                <use id="reset" xlink:href="#resetDef" x="30" y="36" onmousedown="handleReset()"/>
                <g id="arrowUp" xlink:href="#dirArrow" transform="translate(30 24)" onmousedown="handlePan(0,-1)">
                  <use xlink:href="#rim" fill="#404040">
                        <set attributeName="fill" to="#808080" begin="arrowUp.mouseover" end="arrowUp.mouseout"/>
                  </use>
                  <path fill="none" stroke="white" stroke-width="1.5" d="M0,-3.0v7 M-2.5,-0.5L0,-3.0L2.5,-0.5"/>
                </g>
                <g id="arrowRight" xlink:href="#dirArrow" transform="rotate(90) translate(36 -43)" onmousedown="handlePan(1,0)">
                  <use xlink:href="#rim" fill="#404040">
                        <set attributeName="fill" to="#808080" begin="arrowRight.mouseover" end="arrowRight.mouseout"/>
                  </use>
                  <path fill="none" stroke="white" stroke-width="1.5" d="M0,-3.0v7 M-2.5,-0.5L0,-3.0L2.5,-0.5"/>
                </g>
                <g id="arrowDown" xlink:href="#dirArrow" transform="rotate(180) translate(-30 -48)" onmousedown="handlePan(0,1)">
                  <use xlink:href="#rim" fill="#404040">
                        <set attributeName="fill" to="#808080" begin="arrowDown.mouseover" end="arrowDown.mouseout"/>
                  </use>
                  <path fill="none" stroke="white" stroke-width="1.5" d="M0,-3.0v7 M-2.5,-0.5L0,-3.0L2.5,-0.5"/>
                </g>
                <g id="arrowLeft" xlink:href="#dirArrow" transform="rotate(270) translate(-36 17)" onmousedown="handlePan(-1,0)">
                  <use xlink:href="#rim" fill="#404040">
                        <set attributeName="fill" to="#808080" begin="arrowLeft.mouseover" end="arrowLeft.mouseout"/>
                  </use>
                  <path fill="none" stroke="white" stroke-width="1.5" d="M0,-3.0v7 M-2.5,-0.5L0,-3.0L2.5,-0.5"/>
                </g>
        </g>
        <svg viewBox="0 0 15 15" width="100%" height="30px" preserveAspectRatio="xMaxYMin meet">
         <g id="arrow_out" transform="scale(0.3 0.3)">
          <a xlink:href="ParameterHandlerUtils_8h__dep__incl_org.svg" target="_base">
           <rect id="button" ry="5" rx="5" y="6" x="6" height="38" width="38"
                fill="#f2f5e9" fill-opacity="0.5" stroke="#606060" stroke-width="1.0"/>
           <path id="arrow"
             d="M 11.500037,31.436501 C 11.940474,20.09759 22.043105,11.32322 32.158766,21.979434 L 37.068811,17.246167 C 37.068811,17.246167 37.088388,32 37.088388,32 L 22.160133,31.978069 C 22.160133,31.978069 26.997745,27.140456 26.997745,27.140456 C 18.528582,18.264221 13.291696,25.230495 11.500037,31.436501 z"
             style="fill:#404040;"/>
          </a>
         </g>
        </svg>
</svg>
