<?xml version="1.0" encoding="UTF-8" standalone="no"?>
<!DOCTYPE svg PUBLIC "-//W3C//DTD SVG 1.1//EN"
 "http://www.w3.org/Graphics/SVG/1.1/DTD/svg11.dtd">
<!-- Generated by graphviz version 2.43.0 (0)
 -->
<!-- Title: Parameters/ParameterStructs.h Pages: 1 -->
<svg width="2210pt" height="566pt"
 viewBox="0.00 0.00 2210.20 566.00" xmlns="http://www.w3.org/2000/svg" xmlns:xlink="http://www.w3.org/1999/xlink">
<g id="graph0" class="graph" transform="scale(1 1) rotate(0) translate(4 562)">
<title>Parameters/ParameterStructs.h</title>
<!-- Node1 -->
<g id="node1" class="node">
<title>Node1</title>
<g id="a_node1"><a xlink:title=" ">
<polygon fill="#999999" stroke="#666666" points="1487,-558 1319,-558 1319,-539 1487,-539 1487,-558"/>
<text text-anchor="middle" x="1403" y="-546" font-family="Helvetica,sans-Serif" font-size="10.00">Parameters/ParameterStructs.h</text>
</a>
</g>
</g>
<!-- Node2 -->
<g id="node2" class="node">
<title>Node2</title>
<g id="a_node2"><a xlink:href="ParameterHandlerUtils_8h.html" target="_top" xlink:title=" ">
<polygon fill="white" stroke="#666666" points="1485,-503 1321,-503 1321,-473 1485,-473 1485,-503"/>
<text text-anchor="start" x="1329" y="-491" font-family="Helvetica,sans-Serif" font-size="10.00">Parameters/ParameterHandler</text>
<text text-anchor="middle" x="1403" y="-480" font-family="Helvetica,sans-Serif" font-size="10.00">Utils.h</text>
</a>
</g>
</g>
<!-- Node1&#45;&gt;Node2 -->
<g id="edge1" class="edge">
<title>Node1&#45;&gt;Node2</title>
<path fill="none" stroke="#63b8ff" d="M1403,-528.65C1403,-520.36 1403,-510.78 1403,-503.11"/>
<polygon fill="#63b8ff" stroke="#63b8ff" points="1399.5,-528.87 1403,-538.87 1406.5,-528.87 1399.5,-528.87"/>
</g>
<!-- Node45 -->
<g id="node34" class="node">
<title>Node45</title>
<g id="a_node34"><a xlink:href="SplineStructs_8h.html" target="_top" xlink:title="Contains structures and helper functions for handling spline representations of systematic parameters...">
<polygon fill="white" stroke="#666666" points="1994,-244.5 1866,-244.5 1866,-225.5 1994,-225.5 1994,-244.5"/>
<text text-anchor="middle" x="1930" y="-232.5" font-family="Helvetica,sans-Serif" font-size="10.00">Splines/SplineStructs.h</text>
</a>
</g>
</g>
<!-- Node1&#45;&gt;Node45 -->
<g id="edge73" class="edge">
<title>Node1&#45;&gt;Node45</title>
<path fill="none" stroke="#63b8ff" d="M1497.33,-545.33C1648.94,-539.26 1930,-516.18 1930,-428.5 1930,-428.5 1930,-428.5 1930,-366 1930,-320.18 1930,-265.29 1930,-244.52"/>
<polygon fill="#63b8ff" stroke="#63b8ff" points="1496.95,-541.85 1487.09,-545.73 1497.21,-548.84 1496.95,-541.85"/>
</g>
<!-- Node58 -->
<g id="node45" class="node">
<title>Node58</title>
<g id="a_node45"><a xlink:href="HistogramUtils_8h.html" target="_top" xlink:title=" ">
<polygon fill="white" stroke="#666666" points="707,-497.5 563,-497.5 563,-478.5 707,-478.5 707,-497.5"/>
<text text-anchor="middle" x="635" y="-485.5" font-family="Helvetica,sans-Serif" font-size="10.00">Samples/HistogramUtils.h</text>
</a>
</g>
</g>
<!-- Node1&#45;&gt;Node58 -->
<g id="edge59" class="edge">
<title>Node1&#45;&gt;Node58</title>
<path fill="none" stroke="#63b8ff" d="M1308.97,-540.34C1153.63,-528.51 846.72,-505.13 707.14,-494.5"/>
<polygon fill="#63b8ff" stroke="#63b8ff" points="1308.74,-543.83 1318.98,-541.1 1309.28,-536.85 1308.74,-543.83"/>
</g>
<!-- Node3 -->
<g id="node3" class="node">
<title>Node3</title>
<g id="a_node3"><a xlink:href="GetPenaltyTerm_8cpp.html" target="_top" xlink:title="KS: This file contains the implementation of the function to extract specific penalty terms from syst...">
<polygon fill="white" stroke="#666666" points="1716.5,-437 1541.5,-437 1541.5,-418 1716.5,-418 1716.5,-437"/>
<text text-anchor="middle" x="1629" y="-425" font-family="Helvetica,sans-Serif" font-size="10.00">Diagnostics/GetPenaltyTerm.cpp</text>
</a>
</g>
</g>
<!-- Node2&#45;&gt;Node3 -->
<g id="edge2" class="edge">
<title>Node2&#45;&gt;Node3</title>
<path fill="none" stroke="#63b8ff" d="M1467,-470.43C1509.01,-459.56 1562.23,-445.78 1595.96,-437.05"/>
<polygon fill="#63b8ff" stroke="#63b8ff" points="1465.94,-467.09 1457.13,-472.99 1467.69,-473.87 1465.94,-467.09"/>
</g>
<!-- Node4 -->
<g id="node4" class="node">
<title>Node4</title>
<g id="a_node4"><a xlink:href="MCMCProcessor_8h.html" target="_top" xlink:title=" ">
<polygon fill="white" stroke="#666666" points="712.5,-376.5 575.5,-376.5 575.5,-357.5 712.5,-357.5 712.5,-376.5"/>
<text text-anchor="middle" x="644" y="-364.5" font-family="Helvetica,sans-Serif" font-size="10.00">Fitters/MCMCProcessor.h</text>
</a>
</g>
</g>
<!-- Node2&#45;&gt;Node4 -->
<g id="edge3" class="edge">
<title>Node2&#45;&gt;Node4</title>
<path fill="none" stroke="#63b8ff" d="M1310.46,-484.87C1130.33,-480.08 745.54,-466.52 693,-437 668.66,-423.33 653.46,-391.94 647.24,-376.67"/>
<polygon fill="#63b8ff" stroke="#63b8ff" points="1310.63,-488.37 1320.72,-485.14 1310.81,-481.38 1310.63,-488.37"/>
</g>
<!-- Node36 -->
<g id="node25" class="node">
<title>Node36</title>
<g id="a_node25"><a xlink:href="AdaptiveMCMCHandler_8h.html" target="_top" xlink:title=" ">
<polygon fill="white" stroke="#666666" points="1325.5,-437 1128.5,-437 1128.5,-418 1325.5,-418 1325.5,-437"/>
<text text-anchor="middle" x="1227" y="-425" font-family="Helvetica,sans-Serif" font-size="10.00">Parameters/AdaptiveMCMCHandler.h</text>
</a>
</g>
</g>
<!-- Node2&#45;&gt;Node36 -->
<g id="edge28" class="edge">
<title>Node2&#45;&gt;Node36</title>
<path fill="none" stroke="#63b8ff" d="M1351.07,-469.74C1318.7,-458.98 1278.45,-445.6 1252.73,-437.05"/>
<polygon fill="#63b8ff" stroke="#63b8ff" points="1350.25,-473.15 1360.84,-472.99 1352.46,-466.51 1350.25,-473.15"/>
</g>
<!-- Node38 -->
<g id="node27" class="node">
<title>Node38</title>
<g id="a_node27"><a xlink:href="ParameterHandlerBase_8h.html" target="_top" xlink:title=" ">
<polygon fill="white" stroke="#666666" points="1524,-382 1360,-382 1360,-352 1524,-352 1524,-382"/>
<text text-anchor="start" x="1368" y="-370" font-family="Helvetica,sans-Serif" font-size="10.00">Parameters/ParameterHandler</text>
<text text-anchor="middle" x="1442" y="-359" font-family="Helvetica,sans-Serif" font-size="10.00">Base.h</text>
</a>
</g>
</g>
<!-- Node2&#45;&gt;Node38 -->
<g id="edge55" class="edge">
<title>Node2&#45;&gt;Node38</title>
<path fill="none" stroke="#63b8ff" d="M1383.57,-464.65C1374.12,-450.97 1366.3,-433.22 1374,-418 1381.94,-402.31 1397.38,-390.34 1411.54,-382.06"/>
<polygon fill="#63b8ff" stroke="#63b8ff" points="1381.05,-467.12 1389.86,-472.99 1386.63,-462.9 1381.05,-467.12"/>
</g>
<!-- Node54 -->
<g id="node41" class="node">
<title>Node54</title>
<g id="a_node41"><a xlink:href="PCAHandler_8h.html" target="_top" xlink:title=" ">
<polygon fill="white" stroke="#666666" points="1523.5,-437 1382.5,-437 1382.5,-418 1523.5,-418 1523.5,-437"/>
<text text-anchor="middle" x="1453" y="-425" font-family="Helvetica,sans-Serif" font-size="10.00">Parameters/PCAHandler.h</text>
</a>
</g>
</g>
<!-- Node2&#45;&gt;Node54 -->
<g id="edge52" class="edge">
<title>Node2&#45;&gt;Node54</title>
<path fill="none" stroke="#63b8ff" d="M1421.73,-465.09C1429.99,-455.42 1439.23,-444.61 1445.51,-437.27"/>
<polygon fill="#63b8ff" stroke="#63b8ff" points="1418.94,-462.96 1415.1,-472.84 1424.26,-467.51 1418.94,-462.96"/>
</g>
<!-- Node56 -->
<g id="node43" class="node">
<title>Node56</title>
<g id="a_node43"><a xlink:href="ParameterTunes_8h.html" target="_top" xlink:title=" ">
<polygon fill="white" stroke="#666666" points="1897,-437 1735,-437 1735,-418 1897,-418 1897,-437"/>
<text text-anchor="middle" x="1816" y="-425" font-family="Helvetica,sans-Serif" font-size="10.00">Parameters/ParameterTunes.h</text>
</a>
</g>
</g>
<!-- Node2&#45;&gt;Node56 -->
<g id="edge56" class="edge">
<title>Node2&#45;&gt;Node56</title>
<path fill="none" stroke="#63b8ff" d="M1495.11,-473.95C1574.67,-462.68 1687.33,-446.73 1755.82,-437.02"/>
<polygon fill="#63b8ff" stroke="#63b8ff" points="1494.5,-470.5 1485.09,-475.37 1495.48,-477.44 1494.5,-470.5"/>
</g>
<!-- Node5 -->
<g id="node5" class="node">
<title>Node5</title>
<g id="a_node5"><a xlink:href="DiagMCMC_8cpp.html" target="_top" xlink:title=" ">
<polygon fill="white" stroke="#666666" points="481.5,-310.5 330.5,-310.5 330.5,-291.5 481.5,-291.5 481.5,-310.5"/>
<text text-anchor="middle" x="406" y="-298.5" font-family="Helvetica,sans-Serif" font-size="10.00">Diagnostics/DiagMCMC.cpp</text>
</a>
</g>
</g>
<!-- Node4&#45;&gt;Node5 -->
<g id="edge4" class="edge">
<title>Node4&#45;&gt;Node5</title>
<path fill="none" stroke="#63b8ff" d="M602.06,-354.72C555.19,-342.12 480.34,-321.99 437.97,-310.6"/>
<polygon fill="#63b8ff" stroke="#63b8ff" points="601.34,-358.15 611.9,-357.37 603.15,-351.39 601.34,-358.15"/>
</g>
<!-- Node6 -->
<g id="node6" class="node">
<title>Node6</title>
<g id="a_node6"><a xlink:href="PlotMCMCDiag_8cpp.html" target="_top" xlink:title="KS: This script is used to analyse output form DiagMCMC.">
<polygon fill="white" stroke="#666666" points="170,-310.5 0,-310.5 0,-291.5 170,-291.5 170,-310.5"/>
<text text-anchor="middle" x="85" y="-298.5" font-family="Helvetica,sans-Serif" font-size="10.00">Diagnostics/PlotMCMCDiag.cpp</text>
</a>
</g>
</g>
<!-- Node4&#45;&gt;Node6 -->
<g id="edge5" class="edge">
<title>Node4&#45;&gt;Node6</title>
<path fill="none" stroke="#63b8ff" d="M565.22,-358.52C472.64,-349.49 314.46,-333.36 179,-316 166.23,-314.36 152.52,-312.42 139.62,-310.52"/>
<polygon fill="#63b8ff" stroke="#63b8ff" points="565.06,-362.02 575.35,-359.5 565.74,-355.05 565.06,-362.02"/>
</g>
<!-- Node7 -->
<g id="node7" class="node">
<title>Node7</title>
<g id="a_node7"><a xlink:href="FitterBase_8h.html" target="_top" xlink:title=" ">
<polygon fill="white" stroke="#666666" points="1270.5,-310.5 1161.5,-310.5 1161.5,-291.5 1270.5,-291.5 1270.5,-310.5"/>
<text text-anchor="middle" x="1216" y="-298.5" font-family="Helvetica,sans-Serif" font-size="10.00">Fitters/FitterBase.h</text>
</a>
</g>
</g>
<!-- Node4&#45;&gt;Node7 -->
<g id="edge6" class="edge">
<title>Node4&#45;&gt;Node7</title>
<path fill="none" stroke="#63b8ff" d="M723,-357.56C740.76,-355.7 759.52,-353.76 777,-352 944.03,-335.21 987.19,-342.26 1153,-316 1162.19,-314.55 1172.04,-312.56 1181.16,-310.55"/>
<polygon fill="#63b8ff" stroke="#63b8ff" points="722.25,-354.12 712.67,-358.65 722.99,-361.08 722.25,-354.12"/>
</g>
<!-- Node22 -->
<g id="node15" class="node">
<title>Node22</title>
<g id="a_node15"><a xlink:href="MCMCProcessor_8cpp.html" target="_top" xlink:title=" ">
<polygon fill="white" stroke="#666666" points="783.5,-310.5 634.5,-310.5 634.5,-291.5 783.5,-291.5 783.5,-310.5"/>
<text text-anchor="middle" x="709" y="-298.5" font-family="Helvetica,sans-Serif" font-size="10.00">Fitters/MCMCProcessor.cpp</text>
</a>
</g>
</g>
<!-- Node4&#45;&gt;Node22 -->
<g id="edge17" class="edge">
<title>Node4&#45;&gt;Node22</title>
<path fill="none" stroke="#63b8ff" d="M659.92,-350.33C672.5,-337.94 689.62,-321.09 699.96,-310.91"/>
<polygon fill="#63b8ff" stroke="#63b8ff" points="657.44,-347.86 652.77,-357.37 662.35,-352.85 657.44,-347.86"/>
</g>
<!-- Node23 -->
<g id="node16" class="node">
<title>Node23</title>
<g id="a_node16"><a xlink:href="OscProcessor_8h.html" target="_top" xlink:title=" ">
<polygon fill="white" stroke="#666666" points="312,-310.5 188,-310.5 188,-291.5 312,-291.5 312,-310.5"/>
<text text-anchor="middle" x="250" y="-298.5" font-family="Helvetica,sans-Serif" font-size="10.00">Fitters/OscProcessor.h</text>
</a>
</g>
</g>
<!-- Node4&#45;&gt;Node23 -->
<g id="edge18" class="edge">
<title>Node4&#45;&gt;Node23</title>
<path fill="none" stroke="#63b8ff" d="M573.84,-355.99C508.32,-346.44 407.87,-331.28 321,-316 311.47,-314.32 301.25,-312.39 291.62,-310.5"/>
<polygon fill="#63b8ff" stroke="#63b8ff" points="573.65,-359.5 584.05,-357.47 574.66,-352.57 573.65,-359.5"/>
</g>
<!-- Node26 -->
<g id="node19" class="node">
<title>Node26</title>
<g id="a_node19"><a xlink:href="SampleSummary_8h.html" target="_top" xlink:title=" ">
<polygon fill="white" stroke="#666666" points="944,-310.5 802,-310.5 802,-291.5 944,-291.5 944,-310.5"/>
<text text-anchor="middle" x="873" y="-298.5" font-family="Helvetica,sans-Serif" font-size="10.00">Fitters/SampleSummary.h</text>
</a>
</g>
</g>
<!-- Node4&#45;&gt;Node26 -->
<g id="edge21" class="edge">
<title>Node4&#45;&gt;Node26</title>
<path fill="none" stroke="#63b8ff" d="M684.64,-354.64C729.75,-342.03 801.56,-321.97 842.24,-310.6"/>
<polygon fill="#63b8ff" stroke="#63b8ff" points="683.57,-351.31 674.88,-357.37 685.46,-358.05 683.57,-351.31"/>
</g>
<!-- Node28 -->
<g id="node21" class="node">
<title>Node28</title>
<g id="a_node21"><a xlink:href="inputManager_8h.html" target="_top" xlink:title=" ">
<polygon fill="white" stroke="#666666" points="616.5,-316 499.5,-316 499.5,-286 616.5,-286 616.5,-316"/>
<text text-anchor="start" x="507.5" y="-304" font-family="Helvetica,sans-Serif" font-size="10.00">Plotting/plottingUtils</text>
<text text-anchor="middle" x="558" y="-293" font-family="Helvetica,sans-Serif" font-size="10.00">/inputManager.h</text>
</a>
</g>
</g>
<!-- Node4&#45;&gt;Node28 -->
<g id="edge23" class="edge">
<title>Node4&#45;&gt;Node28</title>
<path fill="none" stroke="#63b8ff" d="M624.27,-351.32C610.06,-340.74 591,-326.56 576.97,-316.12"/>
<polygon fill="#63b8ff" stroke="#63b8ff" points="622.29,-354.21 632.4,-357.37 626.47,-348.59 622.29,-354.21"/>
</g>
<!-- Node8 -->
<g id="node8" class="node">
<title>Node8</title>
<g id="a_node8"><a xlink:href="FitterBase_8cpp.html" target="_top" xlink:title=" ">
<polygon fill="white" stroke="#666666" points="1041,-244.5 921,-244.5 921,-225.5 1041,-225.5 1041,-244.5"/>
<text text-anchor="middle" x="981" y="-232.5" font-family="Helvetica,sans-Serif" font-size="10.00">Fitters/FitterBase.cpp</text>
</a>
</g>
</g>
<!-- Node7&#45;&gt;Node8 -->
<g id="edge7" class="edge">
<title>Node7&#45;&gt;Node8</title>
<path fill="none" stroke="#63b8ff" d="M1174.59,-288.72C1128.31,-276.12 1054.4,-255.99 1012.57,-244.6"/>
<polygon fill="#63b8ff" stroke="#63b8ff" points="1173.74,-292.12 1184.31,-291.37 1175.58,-285.36 1173.74,-292.12"/>
</g>
<!-- Node9 -->
<g id="node9" class="node">
<title>Node9</title>
<g id="a_node9"><a xlink:href="LikelihoodFit_8h.html" target="_top" xlink:title=" ">
<polygon fill="#fff0f0" stroke="red" points="1287.5,-244.5 1166.5,-244.5 1166.5,-225.5 1287.5,-225.5 1287.5,-244.5"/>
<text text-anchor="middle" x="1227" y="-232.5" font-family="Helvetica,sans-Serif" font-size="10.00">Fitters/LikelihoodFit.h</text>
</a>
</g>
</g>
<!-- Node7&#45;&gt;Node9 -->
<g id="edge8" class="edge">
<title>Node7&#45;&gt;Node9</title>
<path fill="none" stroke="#63b8ff" d="M1219.19,-281.45C1221.25,-269.43 1223.85,-254.32 1225.47,-244.91"/>
<polygon fill="#63b8ff" stroke="#63b8ff" points="1215.73,-280.92 1217.48,-291.37 1222.63,-282.11 1215.73,-280.92"/>
</g>
<!-- Node11 -->
<g id="node10" class="node">
<title>Node11</title>
<g id="a_node10"><a xlink:href="MaCh3Factory_8h.html" target="_top" xlink:title="Factory methods for MaCh3 software which streamline initialisation of different objects.">
<polygon fill="#fff0f0" stroke="red" points="1307.5,-184 1180.5,-184 1180.5,-165 1307.5,-165 1307.5,-184"/>
<text text-anchor="middle" x="1244" y="-172" font-family="Helvetica,sans-Serif" font-size="10.00">Fitters/MaCh3Factory.h</text>
</a>
</g>
</g>
<!-- Node7&#45;&gt;Node11 -->
<g id="edge10" class="edge">
<title>Node7&#45;&gt;Node11</title>
<path fill="none" stroke="#63b8ff" d="M1252.31,-287.23C1269.08,-279.29 1287.38,-267.25 1297,-250 1303.5,-238.36 1302.63,-232.08 1297,-220 1289.54,-203.99 1273.17,-191.7 1260.58,-184.13"/>
<polygon fill="#63b8ff" stroke="#63b8ff" points="1250.44,-284.22 1242.68,-291.44 1253.25,-290.64 1250.44,-284.22"/>
</g>
<!-- Node18 -->
<g id="node11" class="node">
<title>Node18</title>
<g id="a_node11"><a xlink:href="PredictiveThrower_8h.html" target="_top" xlink:title=" ">
<polygon fill="white" stroke="#666666" points="1450.5,-74 1303.5,-74 1303.5,-55 1450.5,-55 1450.5,-74"/>
<text text-anchor="middle" x="1377" y="-62" font-family="Helvetica,sans-Serif" font-size="10.00">Fitters/PredictiveThrower.h</text>
</a>
</g>
</g>
<!-- Node7&#45;&gt;Node18 -->
<g id="edge11" class="edge">
<title>Node7&#45;&gt;Node18</title>
<path fill="none" stroke="#63b8ff" d="M1254.62,-287.94C1274.46,-279.99 1297.64,-267.71 1313,-250 1360.53,-195.19 1373.32,-103.09 1376.24,-74.34"/>
<polygon fill="#63b8ff" stroke="#63b8ff" points="1253.31,-284.69 1245.19,-291.5 1255.78,-291.24 1253.31,-284.69"/>
</g>
<!-- Node20 -->
<g id="node13" class="node">
<title>Node20</title>
<g id="a_node13"><a xlink:href="mcmc_8h.html" target="_top" xlink:title=" ">
<polygon fill="#fff0f0" stroke="red" points="1148.5,-244.5 1059.5,-244.5 1059.5,-225.5 1148.5,-225.5 1148.5,-244.5"/>
<text text-anchor="middle" x="1104" y="-232.5" font-family="Helvetica,sans-Serif" font-size="10.00">Fitters/mcmc.h</text>
</a>
</g>
</g>
<!-- Node7&#45;&gt;Node20 -->
<g id="edge13" class="edge">
<title>Node7&#45;&gt;Node20</title>
<path fill="none" stroke="#63b8ff" d="M1192.13,-286.36C1170.08,-273.76 1137.98,-255.42 1119.22,-244.7"/>
<polygon fill="#63b8ff" stroke="#63b8ff" points="1190.48,-289.45 1200.9,-291.37 1193.95,-283.37 1190.48,-289.45"/>
</g>
<!-- Node15 -->
<g id="node14" class="node">
<title>Node15</title>
<g id="a_node14"><a xlink:href="fitters_8cpp.html" target="_top" xlink:title=" ">
<polygon fill="white" stroke="#666666" points="1049,-184 947,-184 947,-165 1049,-165 1049,-184"/>
<text text-anchor="middle" x="998" y="-172" font-family="Helvetica,sans-Serif" font-size="10.00">python/fitters.cpp</text>
</a>
</g>
</g>
<!-- Node7&#45;&gt;Node15 -->
<g id="edge16" class="edge">
<title>Node7&#45;&gt;Node15</title>
<path fill="none" stroke="#63b8ff" d="M1169.76,-289.33C1164.12,-288.15 1158.44,-287.01 1153,-286 1099.76,-276.12 947.35,-291.02 912,-250 903.3,-239.9 905.07,-231.39 912,-220 923.1,-201.76 944.35,-190.67 962.95,-184.12"/>
<polygon fill="#63b8ff" stroke="#63b8ff" points="1169.26,-292.81 1179.78,-291.49 1170.74,-285.97 1169.26,-292.81"/>
</g>
<!-- Node9&#45;&gt;Node11 -->
<g id="edge9" class="edge">
<title>Node9&#45;&gt;Node11</title>
<path fill="none" stroke="#63b8ff" d="M1232.38,-215.49C1235.42,-205.01 1239.09,-192.39 1241.48,-184.17"/>
<polygon fill="#63b8ff" stroke="#63b8ff" points="1228.94,-214.79 1229.51,-225.37 1235.66,-216.74 1228.94,-214.79"/>
</g>
<!-- Node19 -->
<g id="node12" class="node">
<title>Node19</title>
<g id="a_node12"><a xlink:href="PredictiveThrower_8cpp.html" target="_top" xlink:title=" ">
<polygon fill="white" stroke="#666666" points="1579,-19 1421,-19 1421,0 1579,0 1579,-19"/>
<text text-anchor="middle" x="1500" y="-7" font-family="Helvetica,sans-Serif" font-size="10.00">Fitters/PredictiveThrower.cpp</text>
</a>
</g>
</g>
<!-- Node18&#45;&gt;Node19 -->
<g id="edge12" class="edge">
<title>Node18&#45;&gt;Node19</title>
<path fill="none" stroke="#63b8ff" d="M1406.25,-50.9C1428.97,-41.11 1459.87,-27.79 1479.88,-19.17"/>
<polygon fill="#63b8ff" stroke="#63b8ff" points="1404.56,-47.81 1396.76,-54.98 1407.33,-54.24 1404.56,-47.81"/>
</g>
<!-- Node20&#45;&gt;Node11 -->
<g id="edge14" class="edge">
<title>Node20&#45;&gt;Node11</title>
<path fill="none" stroke="#63b8ff" d="M1133.72,-221.58C1160.76,-210.28 1199.97,-193.9 1223.62,-184.02"/>
<polygon fill="#63b8ff" stroke="#63b8ff" points="1132.23,-218.41 1124.36,-225.49 1134.93,-224.87 1132.23,-218.41"/>
</g>
<!-- Node20&#45;&gt;Node15 -->
<g id="edge15" class="edge">
<title>Node20&#45;&gt;Node15</title>
<path fill="none" stroke="#63b8ff" d="M1079.4,-220.42C1059.14,-209.24 1031.03,-193.73 1013.7,-184.17"/>
<polygon fill="#63b8ff" stroke="#63b8ff" points="1077.91,-223.6 1088.36,-225.37 1081.3,-217.47 1077.91,-223.6"/>
</g>
<!-- Node24 -->
<g id="node17" class="node">
<title>Node24</title>
<g id="a_node17"><a xlink:href="ProcessMCMC_8cpp.html" target="_top" xlink:title="Main exectable responsible for different types of MCMC processing like drawing posteriors,...">
<polygon fill="white" stroke="#666666" points="193,-244.5 27,-244.5 27,-225.5 193,-225.5 193,-244.5"/>
<text text-anchor="middle" x="110" y="-232.5" font-family="Helvetica,sans-Serif" font-size="10.00">Diagnostics/ProcessMCMC.cpp</text>
</a>
</g>
</g>
<!-- Node23&#45;&gt;Node24 -->
<g id="edge19" class="edge">
<title>Node23&#45;&gt;Node24</title>
<path fill="none" stroke="#63b8ff" d="M221.99,-287.19C194.4,-274.58 153,-255.66 129.03,-244.7"/>
<polygon fill="#63b8ff" stroke="#63b8ff" points="220.57,-290.39 231.12,-291.37 223.48,-284.03 220.57,-290.39"/>
</g>
<!-- Node25 -->
<g id="node18" class="node">
<title>Node25</title>
<g id="a_node18"><a xlink:href="OscProcessor_8cpp.html" target="_top" xlink:title=" ">
<polygon fill="white" stroke="#666666" points="346.5,-244.5 211.5,-244.5 211.5,-225.5 346.5,-225.5 346.5,-244.5"/>
<text text-anchor="middle" x="279" y="-232.5" font-family="Helvetica,sans-Serif" font-size="10.00">Fitters/OscProcessor.cpp</text>
</a>
</g>
</g>
<!-- Node23&#45;&gt;Node25 -->
<g id="edge20" class="edge">
<title>Node23&#45;&gt;Node25</title>
<path fill="none" stroke="#63b8ff" d="M258.07,-282.18C263.57,-270.05 270.61,-254.51 274.96,-244.91"/>
<polygon fill="#63b8ff" stroke="#63b8ff" points="254.85,-280.82 253.91,-291.37 261.23,-283.7 254.85,-280.82"/>
</g>
<!-- Node27 -->
<g id="node20" class="node">
<title>Node27</title>
<g id="a_node20"><a xlink:href="SampleSummary_8cpp.html" target="_top" xlink:title=" ">
<polygon fill="white" stroke="#666666" points="864.5,-244.5 711.5,-244.5 711.5,-225.5 864.5,-225.5 864.5,-244.5"/>
<text text-anchor="middle" x="788" y="-232.5" font-family="Helvetica,sans-Serif" font-size="10.00">Fitters/SampleSummary.cpp</text>
</a>
</g>
</g>
<!-- Node26&#45;&gt;Node27 -->
<g id="edge22" class="edge">
<title>Node26&#45;&gt;Node27</title>
<path fill="none" stroke="#63b8ff" d="M853.52,-285.33C836.85,-272.78 813.41,-255.13 799.55,-244.7"/>
<polygon fill="#63b8ff" stroke="#63b8ff" points="851.44,-288.15 861.54,-291.37 855.65,-282.56 851.44,-288.15"/>
</g>
<!-- Node29 -->
<g id="node22" class="node">
<title>Node29</title>
<g id="a_node22"><a xlink:href="inputManager_8cpp.html" target="_top" xlink:title=" ">
<polygon fill="white" stroke="#666666" points="519.5,-250 402.5,-250 402.5,-220 519.5,-220 519.5,-250"/>
<text text-anchor="start" x="410.5" y="-238" font-family="Helvetica,sans-Serif" font-size="10.00">Plotting/plottingUtils</text>
<text text-anchor="middle" x="461" y="-227" font-family="Helvetica,sans-Serif" font-size="10.00">/inputManager.cpp</text>
</a>
</g>
</g>
<!-- Node28&#45;&gt;Node29 -->
<g id="edge24" class="edge">
<title>Node28&#45;&gt;Node29</title>
<path fill="none" stroke="#63b8ff" d="M527.73,-280.03C513.05,-270.34 495.77,-258.94 482.47,-250.16"/>
<polygon fill="#63b8ff" stroke="#63b8ff" points="526.2,-283.21 536.47,-285.8 530.05,-277.37 526.2,-283.21"/>
</g>
<!-- Node30 -->
<g id="node23" class="node">
<title>Node30</title>
<g id="a_node23"><a xlink:href="plottingManager_8h.html" target="_top" xlink:title=" ">
<polygon fill="#fff0f0" stroke="red" points="693.5,-250 576.5,-250 576.5,-220 693.5,-220 693.5,-250"/>
<text text-anchor="start" x="584.5" y="-238" font-family="Helvetica,sans-Serif" font-size="10.00">Plotting/plottingUtils</text>
<text text-anchor="middle" x="635" y="-227" font-family="Helvetica,sans-Serif" font-size="10.00">/plottingManager.h</text>
</a>
</g>
</g>
<!-- Node28&#45;&gt;Node30 -->
<g id="edge25" class="edge">
<title>Node28&#45;&gt;Node30</title>
<path fill="none" stroke="#63b8ff" d="M583.02,-279.2C594.45,-269.7 607.7,-258.69 617.96,-250.16"/>
<polygon fill="#63b8ff" stroke="#63b8ff" points="580.54,-276.71 575.09,-285.8 585.02,-282.1 580.54,-276.71"/>
</g>
<!-- Node35 -->
<g id="node24" class="node">
<title>Node35</title>
<g id="a_node24"><a xlink:href="plotting_8cpp.html" target="_top" xlink:title=" ">
<polygon fill="white" stroke="#666666" points="647.5,-184 536.5,-184 536.5,-165 647.5,-165 647.5,-184"/>
<text text-anchor="middle" x="592" y="-172" font-family="Helvetica,sans-Serif" font-size="10.00">python/plotting.cpp</text>
</a>
</g>
</g>
<!-- Node28&#45;&gt;Node35 -->
<g id="edge27" class="edge">
<title>Node28&#45;&gt;Node35</title>
<path fill="none" stroke="#63b8ff" d="M558.72,-275.59C559.75,-259.48 562.22,-238.09 568,-220 572.22,-206.79 580.38,-192.94 586,-184.26"/>
<polygon fill="#63b8ff" stroke="#63b8ff" points="555.21,-275.63 558.2,-285.79 562.2,-275.98 555.21,-275.63"/>
</g>
<!-- Node30&#45;&gt;Node35 -->
<g id="edge26" class="edge">
<title>Node30&#45;&gt;Node35</title>
<path fill="none" stroke="#63b8ff" d="M618.47,-211.51C611.47,-201.99 603.74,-191.47 598.44,-184.27"/>
<polygon fill="#63b8ff" stroke="#63b8ff" points="615.85,-213.85 624.59,-219.84 621.49,-209.71 615.85,-213.85"/>
</g>
<!-- Node37 -->
<g id="node26" class="node">
<title>Node37</title>
<g id="a_node26"><a xlink:href="AdaptiveMCMCHandler_8cpp.html" target="_top" xlink:title=" ">
<polygon fill="white" stroke="#666666" points="1342,-376.5 1134,-376.5 1134,-357.5 1342,-357.5 1342,-376.5"/>
<text text-anchor="middle" x="1238" y="-364.5" font-family="Helvetica,sans-Serif" font-size="10.00">Parameters/AdaptiveMCMCHandler.cpp</text>
</a>
</g>
</g>
<!-- Node36&#45;&gt;Node37 -->
<g id="edge29" class="edge">
<title>Node36&#45;&gt;Node37</title>
<path fill="none" stroke="#63b8ff" d="M1230.48,-407.99C1232.45,-397.51 1234.82,-384.89 1236.37,-376.67"/>
<polygon fill="#63b8ff" stroke="#63b8ff" points="1227.03,-407.39 1228.62,-417.87 1233.91,-408.69 1227.03,-407.39"/>
</g>
<!-- Node36&#45;&gt;Node38 -->
<g id="edge30" class="edge">
<title>Node36&#45;&gt;Node38</title>
<path fill="none" stroke="#63b8ff" d="M1268.08,-415.32C1302.84,-405.86 1352.84,-392.26 1390.31,-382.06"/>
<polygon fill="#63b8ff" stroke="#63b8ff" points="1266.99,-411.99 1258.26,-417.99 1268.83,-418.75 1266.99,-411.99"/>
</g>
<!-- Node38&#45;&gt;Node7 -->
<g id="edge31" class="edge">
<title>Node38&#45;&gt;Node7</title>
<path fill="none" stroke="#63b8ff" d="M1382.7,-349.21C1338.8,-336.78 1280.81,-320.35 1246.08,-310.52"/>
<polygon fill="#63b8ff" stroke="#63b8ff" points="1381.83,-352.6 1392.4,-351.95 1383.74,-345.86 1381.83,-352.6"/>
</g>
<!-- Node39 -->
<g id="node28" class="node">
<title>Node39</title>
<g id="a_node28"><a xlink:href="ParameterHandlerBase_8cpp.html" target="_top" xlink:title=" ">
<polygon fill="white" stroke="#666666" points="1622,-316 1458,-316 1458,-286 1622,-286 1622,-316"/>
<text text-anchor="start" x="1466" y="-304" font-family="Helvetica,sans-Serif" font-size="10.00">Parameters/ParameterHandler</text>
<text text-anchor="middle" x="1540" y="-293" font-family="Helvetica,sans-Serif" font-size="10.00">Base.cpp</text>
</a>
</g>
</g>
<!-- Node38&#45;&gt;Node39 -->
<g id="edge32" class="edge">
<title>Node38&#45;&gt;Node39</title>
<path fill="none" stroke="#63b8ff" d="M1472.16,-346.3C1487.08,-336.56 1504.75,-325.02 1518.31,-316.16"/>
<polygon fill="#63b8ff" stroke="#63b8ff" points="1470.21,-343.4 1463.75,-351.8 1474.04,-349.26 1470.21,-343.4"/>
</g>
<!-- Node40 -->
<g id="node29" class="node">
<title>Node40</title>
<g id="a_node29"><a xlink:href="ParameterHandlerGeneric_8h.html" target="_top" xlink:title=" ">
<polygon fill="white" stroke="#666666" points="1804,-316 1640,-316 1640,-286 1804,-286 1804,-316"/>
<text text-anchor="start" x="1648" y="-304" font-family="Helvetica,sans-Serif" font-size="10.00">Parameters/ParameterHandler</text>
<text text-anchor="middle" x="1722" y="-293" font-family="Helvetica,sans-Serif" font-size="10.00">Generic.h</text>
</a>
</g>
</g>
<!-- Node38&#45;&gt;Node40 -->
<g id="edge33" class="edge">
<title>Node38&#45;&gt;Node40</title>
<path fill="none" stroke="#63b8ff" d="M1513.25,-349.71C1558.79,-339.31 1617.24,-325.95 1660.7,-316.01"/>
<polygon fill="#63b8ff" stroke="#63b8ff" points="1512.42,-346.31 1503.45,-351.95 1513.98,-353.14 1512.42,-346.31"/>
</g>
<!-- Node53 -->
<g id="node40" class="node">
<title>Node53</title>
<g id="a_node40"><a xlink:href="parameters_8cpp.html" target="_top" xlink:title=" ">
<polygon fill="white" stroke="#666666" points="1550,-244.5 1420,-244.5 1420,-225.5 1550,-225.5 1550,-244.5"/>
<text text-anchor="middle" x="1485" y="-232.5" font-family="Helvetica,sans-Serif" font-size="10.00">python/parameters.cpp</text>
</a>
</g>
</g>
<!-- Node38&#45;&gt;Node53 -->
<g id="edge51" class="edge">
<title>Node38&#45;&gt;Node53</title>
<path fill="none" stroke="#63b8ff" d="M1440.82,-341.64C1440.82,-325.4 1442.37,-303.84 1449,-286 1455.03,-269.76 1467.85,-254.05 1476.44,-244.7"/>
<polygon fill="#63b8ff" stroke="#63b8ff" points="1437.33,-341.99 1441.02,-351.92 1444.32,-341.86 1437.33,-341.99"/>
</g>
<!-- Node40&#45;&gt;Node11 -->
<g id="edge34" class="edge">
<title>Node40&#45;&gt;Node11</title>
<path fill="none" stroke="#63b8ff" d="M1672.83,-282.27C1650.67,-273.59 1624.49,-262.34 1602,-250 1581.57,-238.79 1580.69,-228.53 1559,-220 1476.25,-187.45 1372.99,-178.24 1307.75,-175.89"/>
<polygon fill="#63b8ff" stroke="#63b8ff" points="1671.78,-285.62 1682.37,-285.95 1674.3,-279.09 1671.78,-285.62"/>
</g>
<!-- Node40&#45;&gt;Node19 -->
<g id="edge35" class="edge">
<title>Node40&#45;&gt;Node19</title>
<path fill="none" stroke="#63b8ff" d="M1692.01,-279.73C1680.66,-271.28 1668.06,-260.9 1658,-250 1584.01,-169.84 1520.98,-51.56 1504.31,-19.04"/>
<polygon fill="#63b8ff" stroke="#63b8ff" points="1690.23,-282.77 1700.38,-285.8 1694.34,-277.1 1690.23,-282.77"/>
</g>
<!-- Node41 -->
<g id="node30" class="node">
<title>Node41</title>
<g id="a_node30"><a xlink:href="ParameterHandlerGeneric_8cpp.html" target="_top" xlink:title=" ">
<polygon fill="white" stroke="#666666" points="1846,-250 1682,-250 1682,-220 1846,-220 1846,-250"/>
<text text-anchor="start" x="1690" y="-238" font-family="Helvetica,sans-Serif" font-size="10.00">Parameters/ParameterHandler</text>
<text text-anchor="middle" x="1764" y="-227" font-family="Helvetica,sans-Serif" font-size="10.00">Generic.cpp</text>
</a>
</g>
</g>
<!-- Node40&#45;&gt;Node41 -->
<g id="edge36" class="edge">
<title>Node40&#45;&gt;Node41</title>
<path fill="none" stroke="#63b8ff" d="M1736.93,-277.24C1742.86,-268.21 1749.49,-258.11 1754.7,-250.16"/>
<polygon fill="#63b8ff" stroke="#63b8ff" points="1733.88,-275.52 1731.32,-285.8 1739.73,-279.36 1733.88,-275.52"/>
</g>
<!-- Node42 -->
<g id="node31" class="node">
<title>Node42</title>
<g id="a_node31"><a xlink:href="SampleHandlerFD_8h.html" target="_top" xlink:title=" ">
<polygon fill="white" stroke="#666666" points="1733.5,-74 1574.5,-74 1574.5,-55 1733.5,-55 1733.5,-74"/>
<text text-anchor="middle" x="1654" y="-62" font-family="Helvetica,sans-Serif" font-size="10.00">Samples/SampleHandlerFD.h</text>
</a>
</g>
</g>
<!-- Node40&#45;&gt;Node42 -->
<g id="edge37" class="edge">
<title>Node40&#45;&gt;Node42</title>
<path fill="none" stroke="#63b8ff" d="M1695.48,-279.32C1686.87,-271.15 1678.19,-261.06 1673,-250 1643.85,-187.92 1650.05,-101.42 1652.96,-74.11"/>
<polygon fill="#63b8ff" stroke="#63b8ff" points="1693.16,-281.94 1702.95,-285.98 1697.82,-276.71 1693.16,-281.94"/>
</g>
<!-- Node40&#45;&gt;Node45 -->
<g id="edge41" class="edge">
<title>Node40&#45;&gt;Node45</title>
<path fill="none" stroke="#63b8ff" d="M1777.34,-282.97C1817.65,-270.57 1870.55,-254.29 1902.32,-244.52"/>
<polygon fill="#63b8ff" stroke="#63b8ff" points="1776.17,-279.67 1767.65,-285.95 1778.23,-286.36 1776.17,-279.67"/>
</g>
<!-- Node40&#45;&gt;Node53 -->
<g id="edge50" class="edge">
<title>Node40&#45;&gt;Node53</title>
<path fill="none" stroke="#63b8ff" d="M1660.1,-283.29C1614.03,-270.84 1553.04,-254.37 1516.54,-244.52"/>
<polygon fill="#63b8ff" stroke="#63b8ff" points="1659.42,-286.73 1669.99,-285.95 1661.25,-279.97 1659.42,-286.73"/>
</g>
<!-- Node42&#45;&gt;Node19 -->
<g id="edge38" class="edge">
<title>Node42&#45;&gt;Node19</title>
<path fill="none" stroke="#63b8ff" d="M1619.62,-51.67C1590.91,-41.79 1550.64,-27.93 1524.94,-19.08"/>
<polygon fill="#63b8ff" stroke="#63b8ff" points="1618.66,-55.04 1629.26,-54.98 1620.94,-48.42 1618.66,-55.04"/>
</g>
<!-- Node43 -->
<g id="node32" class="node">
<title>Node43</title>
<g id="a_node32"><a xlink:href="SampleHandlerFD_8cpp.html" target="_top" xlink:title=" ">
<polygon fill="white" stroke="#666666" points="1900,-19 1730,-19 1730,0 1900,0 1900,-19"/>
<text text-anchor="middle" x="1815" y="-7" font-family="Helvetica,sans-Serif" font-size="10.00">Samples/SampleHandlerFD.cpp</text>
</a>
</g>
</g>
<!-- Node42&#45;&gt;Node43 -->
<g id="edge39" class="edge">
<title>Node42&#45;&gt;Node43</title>
<path fill="none" stroke="#63b8ff" d="M1689.55,-51.8C1719.59,-41.91 1761.94,-27.97 1788.93,-19.08"/>
<polygon fill="#63b8ff" stroke="#63b8ff" points="1688.27,-48.53 1679.87,-54.98 1690.46,-55.18 1688.27,-48.53"/>
</g>
<!-- Node44 -->
<g id="node33" class="node">
<title>Node44</title>
<g id="a_node33"><a xlink:href="samples_8cpp.html" target="_top" xlink:title=" ">
<polygon fill="white" stroke="#666666" points="1711.5,-19 1596.5,-19 1596.5,0 1711.5,0 1711.5,-19"/>
<text text-anchor="middle" x="1654" y="-7" font-family="Helvetica,sans-Serif" font-size="10.00">python/samples.cpp</text>
</a>
</g>
</g>
<!-- Node42&#45;&gt;Node44 -->
<g id="edge40" class="edge">
<title>Node42&#45;&gt;Node44</title>
<path fill="none" stroke="#63b8ff" d="M1654,-44.66C1654,-35.93 1654,-25.99 1654,-19.09"/>
<polygon fill="#63b8ff" stroke="#63b8ff" points="1650.5,-44.75 1654,-54.75 1657.5,-44.75 1650.5,-44.75"/>
</g>
<!-- Node46 -->
<g id="node35" class="node">
<title>Node46</title>
<g id="a_node35"><a xlink:href="SplineBase_8h.html" target="_top" xlink:title=" ">
<polygon fill="white" stroke="#666666" points="1989,-184 1871,-184 1871,-165 1989,-165 1989,-184"/>
<text text-anchor="middle" x="1930" y="-172" font-family="Helvetica,sans-Serif" font-size="10.00">Splines/SplineBase.h</text>
</a>
</g>
</g>
<!-- Node45&#45;&gt;Node46 -->
<g id="edge42" class="edge">
<title>Node45&#45;&gt;Node46</title>
<path fill="none" stroke="#63b8ff" d="M1930,-215.16C1930,-204.74 1930,-192.3 1930,-184.17"/>
<polygon fill="#63b8ff" stroke="#63b8ff" points="1926.5,-215.37 1930,-225.37 1933.5,-215.37 1926.5,-215.37"/>
</g>
<!-- Node52 -->
<g id="node39" class="node">
<title>Node52</title>
<g id="a_node39"><a xlink:href="splines_8cpp.html" target="_top" xlink:title=" ">
<polygon fill="white" stroke="#666666" points="2174,-74 2066,-74 2066,-55 2174,-55 2174,-74"/>
<text text-anchor="middle" x="2120" y="-62" font-family="Helvetica,sans-Serif" font-size="10.00">python/splines.cpp</text>
</a>
</g>
</g>
<!-- Node45&#45;&gt;Node52 -->
<g id="edge49" class="edge">
<title>Node45&#45;&gt;Node52</title>
<path fill="none" stroke="#63b8ff" d="M2003.95,-227.42C2067.26,-217.43 2154.83,-192.28 2198,-129 2214.63,-104.62 2175.31,-84.76 2146.66,-74.07"/>
<polygon fill="#63b8ff" stroke="#63b8ff" points="2003.38,-223.96 1994,-228.89 2004.41,-230.89 2003.38,-223.96"/>
</g>
<!-- Node47 -->
<g id="node36" class="node">
<title>Node47</title>
<g id="a_node36"><a xlink:href="BinnedSplineHandler_8h.html" target="_top" xlink:title=" ">
<polygon fill="#fff0f0" stroke="red" points="1847.5,-129 1682.5,-129 1682.5,-110 1847.5,-110 1847.5,-129"/>
<text text-anchor="middle" x="1765" y="-117" font-family="Helvetica,sans-Serif" font-size="10.00">Splines/BinnedSplineHandler.h</text>
</a>
</g>
</g>
<!-- Node46&#45;&gt;Node47 -->
<g id="edge43" class="edge">
<title>Node46&#45;&gt;Node47</title>
<path fill="none" stroke="#63b8ff" d="M1893.57,-161.8C1862.78,-151.91 1819.38,-137.97 1791.72,-129.08"/>
<polygon fill="#63b8ff" stroke="#63b8ff" points="1892.9,-165.26 1903.49,-164.98 1895.04,-158.59 1892.9,-165.26"/>
</g>
<!-- Node49 -->
<g id="node37" class="node">
<title>Node49</title>
<g id="a_node37"><a xlink:href="SplineBase_8cpp.html" target="_top" xlink:title=" ">
<polygon fill="white" stroke="#666666" points="1994.5,-129 1865.5,-129 1865.5,-110 1994.5,-110 1994.5,-129"/>
<text text-anchor="middle" x="1930" y="-117" font-family="Helvetica,sans-Serif" font-size="10.00">Splines/SplineBase.cpp</text>
</a>
</g>
</g>
<!-- Node46&#45;&gt;Node49 -->
<g id="edge45" class="edge">
<title>Node46&#45;&gt;Node49</title>
<path fill="none" stroke="#63b8ff" d="M1930,-154.66C1930,-145.93 1930,-135.99 1930,-129.09"/>
<polygon fill="#63b8ff" stroke="#63b8ff" points="1926.5,-154.75 1930,-164.75 1933.5,-154.75 1926.5,-154.75"/>
</g>
<!-- Node50 -->
<g id="node38" class="node">
<title>Node50</title>
<g id="a_node38"><a xlink:href="SplineMonolith_8h.html" target="_top" xlink:title=" ">
<polygon fill="#fff0f0" stroke="red" points="2188.5,-129 2051.5,-129 2051.5,-110 2188.5,-110 2188.5,-129"/>
<text text-anchor="middle" x="2120" y="-117" font-family="Helvetica,sans-Serif" font-size="10.00">Splines/SplineMonolith.h</text>
</a>
</g>
</g>
<!-- Node46&#45;&gt;Node50 -->
<g id="edge46" class="edge">
<title>Node46&#45;&gt;Node50</title>
<path fill="none" stroke="#63b8ff" d="M1970.57,-162.18C2006.1,-152.27 2056.97,-138.08 2089.23,-129.08"/>
<polygon fill="#63b8ff" stroke="#63b8ff" points="1969.22,-158.93 1960.53,-164.98 1971.1,-165.67 1969.22,-158.93"/>
</g>
<!-- Node46&#45;&gt;Node52 -->
<g id="edge48" class="edge">
<title>Node46&#45;&gt;Node52</title>
<path fill="none" stroke="#63b8ff" d="M1954,-159.86C1993.75,-137.26 2072.12,-92.71 2104.96,-74.05"/>
<polygon fill="#63b8ff" stroke="#63b8ff" points="1952.19,-156.86 1945.23,-164.84 1955.65,-162.95 1952.19,-156.86"/>
</g>
<!-- Node47&#45;&gt;Node42 -->
<g id="edge44" class="edge">
<title>Node47&#45;&gt;Node42</title>
<path fill="none" stroke="#63b8ff" d="M1738.05,-105.63C1717.61,-95.87 1690.05,-82.71 1672.16,-74.17"/>
<polygon fill="#63b8ff" stroke="#63b8ff" points="1736.63,-108.83 1747.17,-109.98 1739.65,-102.52 1736.63,-108.83"/>
</g>
<!-- Node50&#45;&gt;Node52 -->
<g id="edge47" class="edge">
<title>Node50&#45;&gt;Node52</title>
<path fill="none" stroke="#63b8ff" d="M2120,-99.66C2120,-90.93 2120,-80.99 2120,-74.09"/>
<polygon fill="#63b8ff" stroke="#63b8ff" points="2116.5,-99.75 2120,-109.75 2123.5,-99.75 2116.5,-99.75"/>
</g>
<!-- Node54&#45;&gt;Node38 -->
<g id="edge54" class="edge">
<title>Node54&#45;&gt;Node38</title>
<path fill="none" stroke="#63b8ff" d="M1449.51,-407.93C1447.94,-399.58 1446.11,-389.87 1444.65,-382.11"/>
<polygon fill="#63b8ff" stroke="#63b8ff" points="1446.09,-408.69 1451.38,-417.87 1452.97,-407.39 1446.09,-408.69"/>
</g>
<!-- Node55 -->
<g id="node42" class="node">
<title>Node55</title>
<g id="a_node42"><a xlink:href="PCAHandler_8cpp.html" target="_top" xlink:title=" ">
<polygon fill="white" stroke="#666666" points="1694,-376.5 1542,-376.5 1542,-357.5 1694,-357.5 1694,-376.5"/>
<text text-anchor="middle" x="1618" y="-364.5" font-family="Helvetica,sans-Serif" font-size="10.00">Parameters/PCAHandler.cpp</text>
</a>
</g>
</g>
<!-- Node54&#45;&gt;Node55 -->
<g id="edge53" class="edge">
<title>Node54&#45;&gt;Node55</title>
<path fill="none" stroke="#63b8ff" d="M1486.78,-414.52C1518.68,-403.21 1565.74,-386.53 1593.98,-376.52"/>
<polygon fill="#63b8ff" stroke="#63b8ff" points="1485.25,-411.35 1476.99,-417.99 1487.59,-417.95 1485.25,-411.35"/>
</g>
<!-- Node56&#45;&gt;Node38 -->
<g id="edge57" class="edge">
<title>Node56&#45;&gt;Node38</title>
<path fill="none" stroke="#63b8ff" d="M1751.42,-416.4C1688.44,-406.55 1592.43,-391.53 1524.07,-380.84"/>
<polygon fill="#63b8ff" stroke="#63b8ff" points="1751.2,-419.91 1761.62,-417.99 1752.28,-412.99 1751.2,-419.91"/>
</g>
<!-- Node57 -->
<g id="node44" class="node">
<title>Node57</title>
<g id="a_node44"><a xlink:href="ParameterTunes_8cpp.html" target="_top" xlink:title=" ">
<polygon fill="white" stroke="#666666" points="1901.5,-376.5 1728.5,-376.5 1728.5,-357.5 1901.5,-357.5 1901.5,-376.5"/>
<text text-anchor="middle" x="1815" y="-364.5" font-family="Helvetica,sans-Serif" font-size="10.00">Parameters/ParameterTunes.cpp</text>
</a>
</g>
</g>
<!-- Node56&#45;&gt;Node57 -->
<g id="edge58" class="edge">
<title>Node56&#45;&gt;Node57</title>
<path fill="none" stroke="#63b8ff" d="M1815.68,-407.66C1815.5,-397.24 1815.29,-384.8 1815.15,-376.67"/>
<polygon fill="#63b8ff" stroke="#63b8ff" points="1812.18,-407.93 1815.85,-417.87 1819.18,-407.81 1812.18,-407.93"/>
</g>
<!-- Node58&#45;&gt;Node4 -->
<g id="edge61" class="edge">
<title>Node58&#45;&gt;Node4</title>
<path fill="none" stroke="#63b8ff" d="M636.41,-468.36C638.38,-442.31 641.88,-396.06 643.33,-376.8"/>
<polygon fill="#63b8ff" stroke="#63b8ff" points="632.91,-468.21 635.65,-478.44 639.89,-468.73 632.91,-468.21"/>
</g>
<!-- Node58&#45;&gt;Node6 -->
<g id="edge60" class="edge">
<title>Node58&#45;&gt;Node6</title>
<path fill="none" stroke="#63b8ff" d="M570.93,-476.66C523.64,-468.21 458.03,-454.76 402,-437 283.68,-399.49 148.9,-334.09 102.08,-310.66"/>
<polygon fill="#63b8ff" stroke="#63b8ff" points="570.58,-480.15 581.03,-478.44 571.79,-473.26 570.58,-480.15"/>
</g>
<!-- Node58&#45;&gt;Node23 -->
<g id="edge62" class="edge">
<title>Node58&#45;&gt;Node23</title>
<path fill="none" stroke="#63b8ff" d="M571.16,-476.46C532.59,-468.64 483.1,-456 442,-437 365.07,-401.42 286.4,-334.54 259.61,-310.71"/>
<polygon fill="#63b8ff" stroke="#63b8ff" points="570.74,-479.94 581.23,-478.44 572.09,-473.07 570.74,-479.94"/>
</g>
<!-- Node59 -->
<g id="node46" class="node">
<title>Node59</title>
<g id="a_node46"><a xlink:href="StatisticalUtils_8h.html" target="_top" xlink:title="Utility functions for statistical interpretations in MaCh3.">
<polygon fill="white" stroke="#666666" points="832.5,-437 701.5,-437 701.5,-418 832.5,-418 832.5,-437"/>
<text text-anchor="middle" x="767" y="-425" font-family="Helvetica,sans-Serif" font-size="10.00">Fitters/StatisticalUtils.h</text>
</a>
</g>
</g>
<!-- Node58&#45;&gt;Node59 -->
<g id="edge63" class="edge">
<title>Node58&#45;&gt;Node59</title>
<path fill="none" stroke="#63b8ff" d="M663.36,-474.43C688.84,-463.14 725.58,-446.86 747.78,-437.02"/>
<polygon fill="#63b8ff" stroke="#63b8ff" points="661.92,-471.24 654.19,-478.49 664.75,-477.64 661.92,-471.24"/>
</g>
<!-- Node61 -->
<g id="node48" class="node">
<title>Node61</title>
<g id="a_node48"><a xlink:href="HistogramUtils_8cpp.html" target="_top" xlink:title=" ">
<polygon fill="white" stroke="#666666" points="606.5,-437 451.5,-437 451.5,-418 606.5,-418 606.5,-437"/>
<text text-anchor="middle" x="529" y="-425" font-family="Helvetica,sans-Serif" font-size="10.00">Samples/HistogramUtils.cpp</text>
</a>
</g>
</g>
<!-- Node58&#45;&gt;Node61 -->
<g id="edge67" class="edge">
<title>Node58&#45;&gt;Node61</title>
<path fill="none" stroke="#63b8ff" d="M610.4,-473.42C590.14,-462.24 562.03,-446.73 544.7,-437.17"/>
<polygon fill="#63b8ff" stroke="#63b8ff" points="608.91,-476.6 619.36,-478.37 612.3,-470.47 608.91,-476.6"/>
</g>
<!-- Node62 -->
<g id="node49" class="node">
<title>Node62</title>
<g id="a_node49"><a xlink:href="SampleHandlerBase_8h.html" target="_top" xlink:title=" ">
<polygon fill="white" stroke="#666666" points="1116,-376.5 946,-376.5 946,-357.5 1116,-357.5 1116,-376.5"/>
<text text-anchor="middle" x="1031" y="-364.5" font-family="Helvetica,sans-Serif" font-size="10.00">Samples/SampleHandlerBase.h</text>
</a>
</g>
</g>
<!-- Node58&#45;&gt;Node62 -->
<g id="edge68" class="edge">
<title>Node58&#45;&gt;Node62</title>
<path fill="none" stroke="#63b8ff" d="M686.24,-476.32C728.4,-467.12 789.53,-452.86 842,-437 904.03,-418.25 975.4,-390.45 1010.01,-376.55"/>
<polygon fill="#63b8ff" stroke="#63b8ff" points="685.25,-472.95 676.21,-478.48 686.73,-479.79 685.25,-472.95"/>
</g>
<!-- Node59&#45;&gt;Node4 -->
<g id="edge64" class="edge">
<title>Node59&#45;&gt;Node4</title>
<path fill="none" stroke="#63b8ff" d="M739.95,-413.63C716.22,-402.35 682.41,-386.27 661.91,-376.52"/>
<polygon fill="#63b8ff" stroke="#63b8ff" points="738.58,-416.86 749.11,-417.99 741.59,-410.54 738.58,-416.86"/>
</g>
<!-- Node59&#45;&gt;Node26 -->
<g id="edge65" class="edge">
<title>Node59&#45;&gt;Node26</title>
<path fill="none" stroke="#63b8ff" d="M764.96,-407.41C764.23,-391.24 765.66,-368.16 777,-352 791.9,-330.77 818.63,-317.9 840.11,-310.55"/>
<polygon fill="#63b8ff" stroke="#63b8ff" points="761.5,-408.07 765.76,-417.77 768.48,-407.53 761.5,-408.07"/>
</g>
<!-- Node60 -->
<g id="node47" class="node">
<title>Node60</title>
<g id="a_node47"><a xlink:href="StatisticalUtils_8cpp.html" target="_top" xlink:title=" ">
<polygon fill="white" stroke="#666666" points="928,-376.5 786,-376.5 786,-357.5 928,-357.5 928,-376.5"/>
<text text-anchor="middle" x="857" y="-364.5" font-family="Helvetica,sans-Serif" font-size="10.00">Fitters/StatisticalUtils.cpp</text>
</a>
</g>
</g>
<!-- Node59&#45;&gt;Node60 -->
<g id="edge66" class="edge">
<title>Node59&#45;&gt;Node60</title>
<path fill="none" stroke="#63b8ff" d="M789.06,-412.16C806.16,-401.05 829.29,-386.01 843.67,-376.67"/>
<polygon fill="#63b8ff" stroke="#63b8ff" points="786.76,-409.48 780.28,-417.87 790.57,-415.35 786.76,-409.48"/>
</g>
<!-- Node62&#45;&gt;Node7 -->
<g id="edge69" class="edge">
<title>Node62&#45;&gt;Node7</title>
<path fill="none" stroke="#63b8ff" d="M1065.68,-354C1102.22,-341.36 1158.84,-321.78 1191.15,-310.6"/>
<polygon fill="#63b8ff" stroke="#63b8ff" points="1064.26,-350.79 1055.95,-357.37 1066.54,-357.41 1064.26,-350.79"/>
</g>
<!-- Node62&#45;&gt;Node26 -->
<g id="edge70" class="edge">
<title>Node62&#45;&gt;Node26</title>
<path fill="none" stroke="#63b8ff" d="M1000.17,-353.51C968.94,-340.86 921.47,-321.63 894.22,-310.6"/>
<polygon fill="#63b8ff" stroke="#63b8ff" points="999.11,-356.86 1009.69,-357.37 1001.74,-350.37 999.11,-356.86"/>
</g>
<!-- Node62&#45;&gt;Node42 -->
<g id="edge72" class="edge">
<title>Node62&#45;&gt;Node42</title>
<path fill="none" stroke="#63b8ff" d="M1098.29,-355.84C1160.53,-345.84 1248.09,-330.07 1280,-316 1346.05,-286.88 1351.4,-260.72 1411,-220 1496.24,-161.76 1602.08,-96.95 1639.82,-74.06"/>
<polygon fill="#63b8ff" stroke="#63b8ff" points="1097.47,-352.43 1088.15,-357.46 1098.57,-359.34 1097.47,-352.43"/>
</g>
<!-- Node63 -->
<g id="node50" class="node">
<title>Node63</title>
<g id="a_node50"><a xlink:href="SampleHandlerBase_8cpp.html" target="_top" xlink:title=" ">
<polygon fill="white" stroke="#666666" points="1143.5,-310.5 962.5,-310.5 962.5,-291.5 1143.5,-291.5 1143.5,-310.5"/>
<text text-anchor="middle" x="1053" y="-298.5" font-family="Helvetica,sans-Serif" font-size="10.00">Samples/SampleHandlerBase.cpp</text>
</a>
</g>
</g>
<!-- Node62&#45;&gt;Node63 -->
<g id="edge71" class="edge">
<title>Node62&#45;&gt;Node63</title>
<path fill="none" stroke="#63b8ff" d="M1037.25,-347.82C1041.4,-335.74 1046.67,-320.41 1049.94,-310.91"/>
<polygon fill="#63b8ff" stroke="#63b8ff" points="1033.91,-346.77 1033.97,-357.37 1040.53,-349.05 1033.91,-346.77"/>
</g>
</g>
</svg>
