<?xml version="1.0" encoding="UTF-8" standalone="no"?>
<!DOCTYPE svg PUBLIC "-//W3C//DTD SVG 1.1//EN"
 "http://www.w3.org/Graphics/SVG/1.1/DTD/svg11.dtd">
<!-- Generated by graphviz version 2.43.0 (0)
 -->
<!-- Title: Parameters/ParameterHandlerUtils.h Pages: 1 -->
<svg width="1700pt" height="511pt"
 viewBox="0.00 0.00 1699.50 511.00" xmlns="http://www.w3.org/2000/svg" xmlns:xlink="http://www.w3.org/1999/xlink">
<g id="graph0" class="graph" transform="scale(1 1) rotate(0) translate(4 507)">
<title>Parameters/ParameterHandlerUtils.h</title>
<!-- Node1 -->
<g id="node1" class="node">
<title>Node1</title>
<g id="a_node1"><a xlink:title=" ">
<polygon fill="#999999" stroke="#666666" points="1379,-503 1215,-503 1215,-473 1379,-473 1379,-503"/>
<text text-anchor="start" x="1223" y="-491" font-family="Helvetica,sans-Serif" font-size="10.00">Parameters/ParameterHandler</text>
<text text-anchor="middle" x="1297" y="-480" font-family="Helvetica,sans-Serif" font-size="10.00">Utils.h</text>
</a>
</g>
</g>
<!-- Node2 -->
<g id="node2" class="node">
<title>Node2</title>
<g id="a_node2"><a xlink:href="AdaptiveMCMCHandler_8h.html" target="_top" xlink:title=" ">
<polygon fill="white" stroke="#666666" points="1219.5,-437 1022.5,-437 1022.5,-418 1219.5,-418 1219.5,-437"/>
<text text-anchor="middle" x="1121" y="-425" font-family="Helvetica,sans-Serif" font-size="10.00">Parameters/AdaptiveMCMCHandler.h</text>
</a>
</g>
</g>
<!-- Node1&#45;&gt;Node2 -->
<g id="edge1" class="edge">
<title>Node1&#45;&gt;Node2</title>
<path fill="none" stroke="#63b8ff" d="M1245.07,-469.74C1212.7,-458.98 1172.45,-445.6 1146.73,-437.05"/>
<polygon fill="#63b8ff" stroke="#63b8ff" points="1244.25,-473.15 1254.84,-472.99 1246.46,-466.51 1244.25,-473.15"/>
</g>
<!-- Node4 -->
<g id="node4" class="node">
<title>Node4</title>
<g id="a_node4"><a xlink:href="ParameterHandlerBase_8h.html" target="_top" xlink:title=" ">
<polygon fill="white" stroke="#666666" points="1330,-382 1166,-382 1166,-352 1330,-352 1330,-382"/>
<text text-anchor="start" x="1174" y="-370" font-family="Helvetica,sans-Serif" font-size="10.00">Parameters/ParameterHandler</text>
<text text-anchor="middle" x="1248" y="-359" font-family="Helvetica,sans-Serif" font-size="10.00">Base.h</text>
</a>
</g>
</g>
<!-- Node1&#45;&gt;Node4 -->
<g id="edge46" class="edge">
<title>Node1&#45;&gt;Node4</title>
<path fill="none" stroke="#63b8ff" d="M1281.58,-464.26C1276.42,-455.95 1270.98,-446.29 1267,-437 1259.17,-418.72 1253.71,-396.34 1250.71,-382.12"/>
<polygon fill="#63b8ff" stroke="#63b8ff" points="1278.63,-466.16 1286.98,-472.68 1284.52,-462.38 1278.63,-466.16"/>
</g>
<!-- Node33 -->
<g id="node33" class="node">
<title>Node33</title>
<g id="a_node33"><a xlink:href="PCAHandler_8h.html" target="_top" xlink:title=" ">
<polygon fill="white" stroke="#666666" points="1417.5,-437 1276.5,-437 1276.5,-418 1417.5,-418 1417.5,-437"/>
<text text-anchor="middle" x="1347" y="-425" font-family="Helvetica,sans-Serif" font-size="10.00">Parameters/PCAHandler.h</text>
</a>
</g>
</g>
<!-- Node1&#45;&gt;Node33 -->
<g id="edge43" class="edge">
<title>Node1&#45;&gt;Node33</title>
<path fill="none" stroke="#63b8ff" d="M1315.73,-465.09C1323.99,-455.42 1333.23,-444.61 1339.51,-437.27"/>
<polygon fill="#63b8ff" stroke="#63b8ff" points="1312.94,-462.96 1309.1,-472.84 1318.26,-467.51 1312.94,-462.96"/>
</g>
<!-- Node35 -->
<g id="node35" class="node">
<title>Node35</title>
<g id="a_node35"><a xlink:href="ParameterTunes_8h.html" target="_top" xlink:title=" ">
<polygon fill="white" stroke="#666666" points="1598,-437 1436,-437 1436,-418 1598,-418 1598,-437"/>
<text text-anchor="middle" x="1517" y="-425" font-family="Helvetica,sans-Serif" font-size="10.00">Parameters/ParameterTunes.h</text>
</a>
</g>
</g>
<!-- Node1&#45;&gt;Node35 -->
<g id="edge47" class="edge">
<title>Node1&#45;&gt;Node35</title>
<path fill="none" stroke="#63b8ff" d="M1359.56,-470.36C1400.42,-459.5 1452.07,-445.77 1484.83,-437.05"/>
<polygon fill="#63b8ff" stroke="#63b8ff" points="1358.46,-467.04 1349.7,-472.99 1360.26,-473.8 1358.46,-467.04"/>
</g>
<!-- Node3 -->
<g id="node3" class="node">
<title>Node3</title>
<g id="a_node3"><a xlink:href="AdaptiveMCMCHandler_8cpp.html" target="_top" xlink:title=" ">
<polygon fill="white" stroke="#666666" points="1148,-376.5 940,-376.5 940,-357.5 1148,-357.5 1148,-376.5"/>
<text text-anchor="middle" x="1044" y="-364.5" font-family="Helvetica,sans-Serif" font-size="10.00">Parameters/AdaptiveMCMCHandler.cpp</text>
</a>
</g>
</g>
<!-- Node2&#45;&gt;Node3 -->
<g id="edge2" class="edge">
<title>Node2&#45;&gt;Node3</title>
<path fill="none" stroke="#63b8ff" d="M1101.31,-411.54C1086.77,-400.49 1067.48,-385.84 1055.41,-376.67"/>
<polygon fill="#63b8ff" stroke="#63b8ff" points="1099.56,-414.61 1109.64,-417.87 1103.79,-409.03 1099.56,-414.61"/>
</g>
<!-- Node2&#45;&gt;Node4 -->
<g id="edge3" class="edge">
<title>Node2&#45;&gt;Node4</title>
<path fill="none" stroke="#63b8ff" d="M1148.75,-413.72C1168.96,-404.41 1196.34,-391.8 1217.22,-382.18"/>
<polygon fill="#63b8ff" stroke="#63b8ff" points="1147.09,-410.63 1139.47,-417.99 1150.01,-416.99 1147.09,-410.63"/>
</g>
<!-- Node5 -->
<g id="node5" class="node">
<title>Node5</title>
<g id="a_node5"><a xlink:href="FitterBase_8h.html" target="_top" xlink:title=" ">
<polygon fill="white" stroke="#666666" points="580.5,-310.5 471.5,-310.5 471.5,-291.5 580.5,-291.5 580.5,-310.5"/>
<text text-anchor="middle" x="526" y="-298.5" font-family="Helvetica,sans-Serif" font-size="10.00">Fitters/FitterBase.h</text>
</a>
</g>
</g>
<!-- Node4&#45;&gt;Node5 -->
<g id="edge4" class="edge">
<title>Node4&#45;&gt;Node5</title>
<path fill="none" stroke="#63b8ff" d="M1155.63,-351.9C936.75,-326.78 688.44,-311.13 580.57,-304.97"/>
<polygon fill="#63b8ff" stroke="#63b8ff" points="1155.36,-355.39 1165.7,-353.06 1156.17,-348.43 1155.36,-355.39"/>
</g>
<!-- Node18 -->
<g id="node18" class="node">
<title>Node18</title>
<g id="a_node18"><a xlink:href="ParameterHandlerBase_8cpp.html" target="_top" xlink:title=" ">
<polygon fill="white" stroke="#666666" points="1239,-316 1075,-316 1075,-286 1239,-286 1239,-316"/>
<text text-anchor="start" x="1083" y="-304" font-family="Helvetica,sans-Serif" font-size="10.00">Parameters/ParameterHandler</text>
<text text-anchor="middle" x="1157" y="-293" font-family="Helvetica,sans-Serif" font-size="10.00">Base.cpp</text>
</a>
</g>
</g>
<!-- Node4&#45;&gt;Node18 -->
<g id="edge23" class="edge">
<title>Node4&#45;&gt;Node18</title>
<path fill="none" stroke="#63b8ff" d="M1219.6,-346.03C1205.83,-336.34 1189.62,-324.94 1177.14,-316.16"/>
<polygon fill="#63b8ff" stroke="#63b8ff" points="1217.61,-348.91 1227.8,-351.8 1221.64,-343.18 1217.61,-348.91"/>
</g>
<!-- Node19 -->
<g id="node19" class="node">
<title>Node19</title>
<g id="a_node19"><a xlink:href="ParameterHandlerGeneric_8h.html" target="_top" xlink:title=" ">
<polygon fill="white" stroke="#666666" points="1421,-316 1257,-316 1257,-286 1421,-286 1421,-316"/>
<text text-anchor="start" x="1265" y="-304" font-family="Helvetica,sans-Serif" font-size="10.00">Parameters/ParameterHandler</text>
<text text-anchor="middle" x="1339" y="-293" font-family="Helvetica,sans-Serif" font-size="10.00">Generic.h</text>
</a>
</g>
</g>
<!-- Node4&#45;&gt;Node19 -->
<g id="edge24" class="edge">
<title>Node4&#45;&gt;Node19</title>
<path fill="none" stroke="#63b8ff" d="M1276.4,-346.03C1290.17,-336.34 1306.38,-324.94 1318.86,-316.16"/>
<polygon fill="#63b8ff" stroke="#63b8ff" points="1274.36,-343.18 1268.2,-351.8 1278.39,-348.91 1274.36,-343.18"/>
</g>
<!-- Node32 -->
<g id="node32" class="node">
<title>Node32</title>
<g id="a_node32"><a xlink:href="parameters_8cpp.html" target="_top" xlink:title=" ">
<polygon fill="white" stroke="#666666" points="1679,-244.5 1549,-244.5 1549,-225.5 1679,-225.5 1679,-244.5"/>
<text text-anchor="middle" x="1614" y="-232.5" font-family="Helvetica,sans-Serif" font-size="10.00">python/parameters.cpp</text>
</a>
</g>
</g>
<!-- Node4&#45;&gt;Node32 -->
<g id="edge42" class="edge">
<title>Node4&#45;&gt;Node32</title>
<path fill="none" stroke="#63b8ff" d="M1317.18,-349.46C1351.47,-340.64 1393.3,-328.95 1430,-316 1492.74,-293.87 1564.29,-260.23 1596.57,-244.57"/>
<polygon fill="#63b8ff" stroke="#63b8ff" points="1316.09,-346.13 1307.26,-351.99 1317.81,-352.91 1316.09,-346.13"/>
</g>
<!-- Node6 -->
<g id="node6" class="node">
<title>Node6</title>
<g id="a_node6"><a xlink:href="FitterBase_8cpp.html" target="_top" xlink:title=" ">
<polygon fill="white" stroke="#666666" points="120,-244.5 0,-244.5 0,-225.5 120,-225.5 120,-244.5"/>
<text text-anchor="middle" x="60" y="-232.5" font-family="Helvetica,sans-Serif" font-size="10.00">Fitters/FitterBase.cpp</text>
</a>
</g>
</g>
<!-- Node5&#45;&gt;Node6 -->
<g id="edge5" class="edge">
<title>Node5&#45;&gt;Node6</title>
<path fill="none" stroke="#63b8ff" d="M461.18,-292.94C383.3,-284.18 248.79,-268.16 134,-250 123.8,-248.39 112.84,-246.43 102.58,-244.51"/>
<polygon fill="#63b8ff" stroke="#63b8ff" points="460.99,-296.44 471.32,-294.08 461.77,-289.48 460.99,-296.44"/>
</g>
<!-- Node7 -->
<g id="node7" class="node">
<title>Node7</title>
<g id="a_node7"><a xlink:href="LikelihoodFit_8h.html" target="_top" xlink:title=" ">
<polygon fill="white" stroke="#666666" points="520.5,-244.5 399.5,-244.5 399.5,-225.5 520.5,-225.5 520.5,-244.5"/>
<text text-anchor="middle" x="460" y="-232.5" font-family="Helvetica,sans-Serif" font-size="10.00">Fitters/LikelihoodFit.h</text>
</a>
</g>
</g>
<!-- Node5&#45;&gt;Node7 -->
<g id="edge6" class="edge">
<title>Node5&#45;&gt;Node7</title>
<path fill="none" stroke="#63b8ff" d="M509.84,-284.33C497.06,-271.94 479.68,-255.09 469.18,-244.91"/>
<polygon fill="#63b8ff" stroke="#63b8ff" points="507.48,-286.92 517.1,-291.37 512.36,-281.89 507.48,-286.92"/>
</g>
<!-- Node9 -->
<g id="node9" class="node">
<title>Node9</title>
<g id="a_node9"><a xlink:href="MaCh3Factory_8h.html" target="_top" xlink:title="Factory methods for MaCh3 software which streamline initialisation of different objects.">
<polygon fill="white" stroke="#666666" points="622.5,-129 495.5,-129 495.5,-110 622.5,-110 622.5,-129"/>
<text text-anchor="middle" x="559" y="-117" font-family="Helvetica,sans-Serif" font-size="10.00">Fitters/MaCh3Factory.h</text>
</a>
</g>
</g>
<!-- Node5&#45;&gt;Node9 -->
<g id="edge17" class="edge">
<title>Node5&#45;&gt;Node9</title>
<path fill="none" stroke="#63b8ff" d="M531.67,-281.73C538.44,-259.06 549.56,-219.08 555,-184 558.01,-164.57 558.77,-141.46 558.95,-129.18"/>
<polygon fill="#63b8ff" stroke="#63b8ff" points="528.29,-280.79 528.73,-291.38 534.99,-282.83 528.29,-280.79"/>
</g>
<!-- Node13 -->
<g id="node13" class="node">
<title>Node13</title>
<g id="a_node13"><a xlink:href="fitters_8cpp.html" target="_top" xlink:title=" ">
<polygon fill="white" stroke="#666666" points="326,-129 224,-129 224,-110 326,-110 326,-129"/>
<text text-anchor="middle" x="275" y="-117" font-family="Helvetica,sans-Serif" font-size="10.00">python/fitters.cpp</text>
</a>
</g>
</g>
<!-- Node5&#45;&gt;Node13 -->
<g id="edge22" class="edge">
<title>Node5&#45;&gt;Node13</title>
<path fill="none" stroke="#63b8ff" d="M461.11,-300.34C377.37,-296.84 234.43,-276.65 167,-184 146.78,-156.21 192.66,-138.54 230.75,-129.08"/>
<polygon fill="#63b8ff" stroke="#63b8ff" points="461.16,-303.85 471.27,-300.7 461.4,-296.85 461.16,-303.85"/>
</g>
<!-- Node16 -->
<g id="node16" class="node">
<title>Node16</title>
<g id="a_node16"><a xlink:href="mcmc_8h.html" target="_top" xlink:title=" ">
<polygon fill="white" stroke="#666666" points="709.5,-184 620.5,-184 620.5,-165 709.5,-165 709.5,-184"/>
<text text-anchor="middle" x="665" y="-172" font-family="Helvetica,sans-Serif" font-size="10.00">Fitters/mcmc.h</text>
</a>
</g>
</g>
<!-- Node5&#45;&gt;Node16 -->
<g id="edge18" class="edge">
<title>Node5&#45;&gt;Node16</title>
<path fill="none" stroke="#63b8ff" d="M552.45,-286.5C568.83,-277.43 589.78,-264.51 606,-250 629.12,-229.32 650.1,-198.84 659.62,-184.1"/>
<polygon fill="#63b8ff" stroke="#63b8ff" points="550.54,-283.56 543.39,-291.38 553.86,-289.72 550.54,-283.56"/>
</g>
<!-- Node8 -->
<g id="node8" class="node">
<title>Node8</title>
<g id="a_node8"><a xlink:href="LikelihoodFit_8cpp.html" target="_top" xlink:title=" ">
<polygon fill="white" stroke="#666666" points="526,-184 394,-184 394,-165 526,-165 526,-184"/>
<text text-anchor="middle" x="460" y="-172" font-family="Helvetica,sans-Serif" font-size="10.00">Fitters/LikelihoodFit.cpp</text>
</a>
</g>
</g>
<!-- Node7&#45;&gt;Node8 -->
<g id="edge7" class="edge">
<title>Node7&#45;&gt;Node8</title>
<path fill="none" stroke="#63b8ff" d="M460,-215.16C460,-204.74 460,-192.3 460,-184.17"/>
<polygon fill="#63b8ff" stroke="#63b8ff" points="456.5,-215.37 460,-225.37 463.5,-215.37 456.5,-215.37"/>
</g>
<!-- Node7&#45;&gt;Node9 -->
<g id="edge8" class="edge">
<title>Node7&#45;&gt;Node9</title>
<path fill="none" stroke="#63b8ff" d="M488.32,-220.66C503.92,-212.08 522.57,-199.62 535,-184 548.35,-167.22 554.85,-142.2 557.49,-129.14"/>
<polygon fill="#63b8ff" stroke="#63b8ff" points="486.32,-217.76 479.09,-225.49 489.57,-223.96 486.32,-217.76"/>
</g>
<!-- Node11 -->
<g id="node11" class="node">
<title>Node11</title>
<g id="a_node11"><a xlink:href="MinuitFit_8h.html" target="_top" xlink:title=" ">
<polygon fill="white" stroke="#666666" points="278,-184 176,-184 176,-165 278,-165 278,-184"/>
<text text-anchor="middle" x="227" y="-172" font-family="Helvetica,sans-Serif" font-size="10.00">Fitters/MinuitFit.h</text>
</a>
</g>
</g>
<!-- Node7&#45;&gt;Node11 -->
<g id="edge10" class="edge">
<title>Node7&#45;&gt;Node11</title>
<path fill="none" stroke="#63b8ff" d="M416.34,-223.04C371.3,-211.73 302.01,-194.33 260.92,-184.02"/>
<polygon fill="#63b8ff" stroke="#63b8ff" points="415.57,-226.45 426.12,-225.49 417.27,-219.66 415.57,-226.45"/>
</g>
<!-- Node14 -->
<g id="node14" class="node">
<title>Node14</title>
<g id="a_node14"><a xlink:href="PSO_8h.html" target="_top" xlink:title=" ">
<polygon fill="white" stroke="#666666" points="375.5,-184 296.5,-184 296.5,-165 375.5,-165 375.5,-184"/>
<text text-anchor="middle" x="336" y="-172" font-family="Helvetica,sans-Serif" font-size="10.00">Fitters/PSO.h</text>
</a>
</g>
</g>
<!-- Node7&#45;&gt;Node14 -->
<g id="edge13" class="edge">
<title>Node7&#45;&gt;Node14</title>
<path fill="none" stroke="#63b8ff" d="M432.73,-221.13C408.81,-209.85 374.72,-193.77 354.05,-184.02"/>
<polygon fill="#63b8ff" stroke="#63b8ff" points="431.43,-224.39 441.97,-225.49 434.42,-218.06 431.43,-224.39"/>
</g>
<!-- Node10 -->
<g id="node10" class="node">
<title>Node10</title>
<g id="a_node10"><a xlink:href="MaCh3Factory_8cpp.html" target="_top" xlink:title=" ">
<polygon fill="white" stroke="#666666" points="628,-74 490,-74 490,-55 628,-55 628,-74"/>
<text text-anchor="middle" x="559" y="-62" font-family="Helvetica,sans-Serif" font-size="10.00">Fitters/MaCh3Factory.cpp</text>
</a>
</g>
</g>
<!-- Node9&#45;&gt;Node10 -->
<g id="edge9" class="edge">
<title>Node9&#45;&gt;Node10</title>
<path fill="none" stroke="#63b8ff" d="M559,-99.66C559,-90.93 559,-80.99 559,-74.09"/>
<polygon fill="#63b8ff" stroke="#63b8ff" points="555.5,-99.75 559,-109.75 562.5,-99.75 555.5,-99.75"/>
</g>
<!-- Node12 -->
<g id="node12" class="node">
<title>Node12</title>
<g id="a_node12"><a xlink:href="MinuitFit_8cpp.html" target="_top" xlink:title=" ">
<polygon fill="white" stroke="#666666" points="205.5,-129 92.5,-129 92.5,-110 205.5,-110 205.5,-129"/>
<text text-anchor="middle" x="149" y="-117" font-family="Helvetica,sans-Serif" font-size="10.00">Fitters/MinuitFit.cpp</text>
</a>
</g>
</g>
<!-- Node11&#45;&gt;Node12 -->
<g id="edge11" class="edge">
<title>Node11&#45;&gt;Node12</title>
<path fill="none" stroke="#63b8ff" d="M205.88,-159.15C191.79,-149.57 173.71,-137.29 161.76,-129.17"/>
<polygon fill="#63b8ff" stroke="#63b8ff" points="204.23,-162.26 214.47,-164.98 208.16,-156.47 204.23,-162.26"/>
</g>
<!-- Node11&#45;&gt;Node13 -->
<g id="edge12" class="edge">
<title>Node11&#45;&gt;Node13</title>
<path fill="none" stroke="#63b8ff" d="M241.73,-157.24C250.14,-147.95 260.35,-136.68 267.22,-129.09"/>
<polygon fill="#63b8ff" stroke="#63b8ff" points="239.04,-154.99 234.93,-164.75 244.23,-159.69 239.04,-154.99"/>
</g>
<!-- Node14&#45;&gt;Node9 -->
<g id="edge14" class="edge">
<title>Node14&#45;&gt;Node9</title>
<path fill="none" stroke="#63b8ff" d="M381.75,-162.63C423.52,-152.7 484.45,-138.22 522.89,-129.08"/>
<polygon fill="#63b8ff" stroke="#63b8ff" points="380.75,-159.27 371.83,-164.98 382.37,-166.08 380.75,-159.27"/>
</g>
<!-- Node14&#45;&gt;Node13 -->
<g id="edge16" class="edge">
<title>Node14&#45;&gt;Node13</title>
<path fill="none" stroke="#63b8ff" d="M318.53,-158.32C307.66,-148.87 294.06,-137.06 284.98,-129.17"/>
<polygon fill="#63b8ff" stroke="#63b8ff" points="316.35,-161.07 326.2,-164.98 320.95,-155.78 316.35,-161.07"/>
</g>
<!-- Node15 -->
<g id="node15" class="node">
<title>Node15</title>
<g id="a_node15"><a xlink:href="PSO_8cpp.html" target="_top" xlink:title=" ">
<polygon fill="white" stroke="#666666" points="434,-129 344,-129 344,-110 434,-110 434,-129"/>
<text text-anchor="middle" x="389" y="-117" font-family="Helvetica,sans-Serif" font-size="10.00">Fitters/PSO.cpp</text>
</a>
</g>
</g>
<!-- Node14&#45;&gt;Node15 -->
<g id="edge15" class="edge">
<title>Node14&#45;&gt;Node15</title>
<path fill="none" stroke="#63b8ff" d="M351.98,-157.52C361.32,-148.18 372.75,-136.75 380.41,-129.09"/>
<polygon fill="#63b8ff" stroke="#63b8ff" points="349.35,-155.2 344.75,-164.75 354.3,-160.15 349.35,-155.2"/>
</g>
<!-- Node16&#45;&gt;Node9 -->
<g id="edge19" class="edge">
<title>Node16&#45;&gt;Node9</title>
<path fill="none" stroke="#63b8ff" d="M639,-160.5C619.5,-150.75 593.35,-137.68 576.34,-129.17"/>
<polygon fill="#63b8ff" stroke="#63b8ff" points="637.46,-163.64 647.97,-164.98 640.59,-157.38 637.46,-163.64"/>
</g>
<!-- Node16&#45;&gt;Node13 -->
<g id="edge21" class="edge">
<title>Node16&#45;&gt;Node13</title>
<path fill="none" stroke="#63b8ff" d="M610.33,-166.24C544.86,-157.52 431.89,-142.4 335,-129 332.08,-128.6 329.08,-128.18 326.06,-127.76"/>
<polygon fill="#63b8ff" stroke="#63b8ff" points="610.04,-169.73 620.42,-167.58 610.97,-162.8 610.04,-169.73"/>
</g>
<!-- Node17 -->
<g id="node17" class="node">
<title>Node17</title>
<g id="a_node17"><a xlink:href="mcmc_8cpp.html" target="_top" xlink:title=" ">
<polygon fill="white" stroke="#666666" points="741.5,-129 640.5,-129 640.5,-110 741.5,-110 741.5,-129"/>
<text text-anchor="middle" x="691" y="-117" font-family="Helvetica,sans-Serif" font-size="10.00">Fitters/mcmc.cpp</text>
</a>
</g>
</g>
<!-- Node16&#45;&gt;Node17 -->
<g id="edge20" class="edge">
<title>Node16&#45;&gt;Node17</title>
<path fill="none" stroke="#63b8ff" d="M673.82,-155.53C678.2,-146.6 683.29,-136.22 686.79,-129.09"/>
<polygon fill="#63b8ff" stroke="#63b8ff" points="670.56,-154.23 669.29,-164.75 676.84,-157.31 670.56,-154.23"/>
</g>
<!-- Node19&#45;&gt;Node9 -->
<g id="edge25" class="edge">
<title>Node19&#45;&gt;Node9</title>
<path fill="none" stroke="#63b8ff" d="M1246.67,-285.83C1134.79,-269.69 1103.89,-273.8 997,-250 870.47,-221.83 842.42,-201.36 718,-165 673.84,-152.1 622.55,-137.88 590.44,-129.07"/>
<polygon fill="#63b8ff" stroke="#63b8ff" points="1246.26,-289.31 1256.67,-287.29 1247.28,-282.38 1246.26,-289.31"/>
</g>
<!-- Node20 -->
<g id="node20" class="node">
<title>Node20</title>
<g id="a_node20"><a xlink:href="ParameterHandlerGeneric_8cpp.html" target="_top" xlink:title=" ">
<polygon fill="white" stroke="#666666" points="1531,-250 1367,-250 1367,-220 1531,-220 1531,-250"/>
<text text-anchor="start" x="1375" y="-238" font-family="Helvetica,sans-Serif" font-size="10.00">Parameters/ParameterHandler</text>
<text text-anchor="middle" x="1449" y="-227" font-family="Helvetica,sans-Serif" font-size="10.00">Generic.cpp</text>
</a>
</g>
</g>
<!-- Node19&#45;&gt;Node20 -->
<g id="edge26" class="edge">
<title>Node19&#45;&gt;Node20</title>
<path fill="none" stroke="#63b8ff" d="M1372.18,-280.69C1389.16,-270.82 1409.45,-259.01 1424.92,-250.01"/>
<polygon fill="#63b8ff" stroke="#63b8ff" points="1370.02,-277.9 1363.14,-285.95 1373.54,-283.95 1370.02,-277.9"/>
</g>
<!-- Node21 -->
<g id="node21" class="node">
<title>Node21</title>
<g id="a_node21"><a xlink:href="SampleHandlerFD_8h.html" target="_top" xlink:title=" ">
<polygon fill="white" stroke="#666666" points="1418.5,-74 1259.5,-74 1259.5,-55 1418.5,-55 1418.5,-74"/>
<text text-anchor="middle" x="1339" y="-62" font-family="Helvetica,sans-Serif" font-size="10.00">Samples/SampleHandlerFD.h</text>
</a>
</g>
</g>
<!-- Node19&#45;&gt;Node21 -->
<g id="edge27" class="edge">
<title>Node19&#45;&gt;Node21</title>
<path fill="none" stroke="#63b8ff" d="M1339,-275.49C1339,-224.12 1339,-107.16 1339,-74.26"/>
<polygon fill="#63b8ff" stroke="#63b8ff" points="1335.5,-275.68 1339,-285.68 1342.5,-275.68 1335.5,-275.68"/>
</g>
<!-- Node24 -->
<g id="node24" class="node">
<title>Node24</title>
<g id="a_node24"><a xlink:href="SplineStructs_8h.html" target="_top" xlink:title="Contains structures and helper functions for handling spline representations of systematic parameters...">
<polygon fill="white" stroke="#666666" points="1134,-244.5 1006,-244.5 1006,-225.5 1134,-225.5 1134,-244.5"/>
<text text-anchor="middle" x="1070" y="-232.5" font-family="Helvetica,sans-Serif" font-size="10.00">Splines/SplineStructs.h</text>
</a>
</g>
</g>
<!-- Node19&#45;&gt;Node24 -->
<g id="edge30" class="edge">
<title>Node19&#45;&gt;Node24</title>
<path fill="none" stroke="#63b8ff" d="M1270.06,-283.6C1217.62,-271.12 1147.58,-254.46 1105.8,-244.52"/>
<polygon fill="#63b8ff" stroke="#63b8ff" points="1269.43,-287.05 1279.97,-285.95 1271.05,-280.24 1269.43,-287.05"/>
</g>
<!-- Node19&#45;&gt;Node32 -->
<g id="edge41" class="edge">
<title>Node19&#45;&gt;Node32</title>
<path fill="none" stroke="#63b8ff" d="M1409.14,-283.68C1462.79,-271.19 1534.6,-254.48 1577.4,-244.52"/>
<polygon fill="#63b8ff" stroke="#63b8ff" points="1408.3,-280.28 1399.35,-285.95 1409.88,-287.1 1408.3,-280.28"/>
</g>
<!-- Node22 -->
<g id="node22" class="node">
<title>Node22</title>
<g id="a_node22"><a xlink:href="SampleHandlerFD_8cpp.html" target="_top" xlink:title=" ">
<polygon fill="white" stroke="#666666" points="1343,-19 1173,-19 1173,0 1343,0 1343,-19"/>
<text text-anchor="middle" x="1258" y="-7" font-family="Helvetica,sans-Serif" font-size="10.00">Samples/SampleHandlerFD.cpp</text>
</a>
</g>
</g>
<!-- Node21&#45;&gt;Node22 -->
<g id="edge28" class="edge">
<title>Node21&#45;&gt;Node22</title>
<path fill="none" stroke="#63b8ff" d="M1317.49,-49.42C1302.79,-39.81 1283.78,-27.37 1271.25,-19.17"/>
<polygon fill="#63b8ff" stroke="#63b8ff" points="1315.7,-52.44 1325.99,-54.98 1319.53,-46.58 1315.7,-52.44"/>
</g>
<!-- Node23 -->
<g id="node23" class="node">
<title>Node23</title>
<g id="a_node23"><a xlink:href="samples_8cpp.html" target="_top" xlink:title=" ">
<polygon fill="white" stroke="#666666" points="1476.5,-19 1361.5,-19 1361.5,0 1476.5,0 1476.5,-19"/>
<text text-anchor="middle" x="1419" y="-7" font-family="Helvetica,sans-Serif" font-size="10.00">python/samples.cpp</text>
</a>
</g>
</g>
<!-- Node21&#45;&gt;Node23 -->
<g id="edge29" class="edge">
<title>Node21&#45;&gt;Node23</title>
<path fill="none" stroke="#63b8ff" d="M1360.25,-49.42C1374.76,-39.81 1393.54,-27.37 1405.91,-19.17"/>
<polygon fill="#63b8ff" stroke="#63b8ff" points="1358.26,-46.54 1351.85,-54.98 1362.12,-52.38 1358.26,-46.54"/>
</g>
<!-- Node25 -->
<g id="node25" class="node">
<title>Node25</title>
<g id="a_node25"><a xlink:href="SplineBase_8h.html" target="_top" xlink:title=" ">
<polygon fill="white" stroke="#666666" points="1129,-184 1011,-184 1011,-165 1129,-165 1129,-184"/>
<text text-anchor="middle" x="1070" y="-172" font-family="Helvetica,sans-Serif" font-size="10.00">Splines/SplineBase.h</text>
</a>
</g>
</g>
<!-- Node24&#45;&gt;Node25 -->
<g id="edge31" class="edge">
<title>Node24&#45;&gt;Node25</title>
<path fill="none" stroke="#63b8ff" d="M1070,-215.16C1070,-204.74 1070,-192.3 1070,-184.17"/>
<polygon fill="#63b8ff" stroke="#63b8ff" points="1066.5,-215.37 1070,-225.37 1073.5,-215.37 1066.5,-215.37"/>
</g>
<!-- Node31 -->
<g id="node31" class="node">
<title>Node31</title>
<g id="a_node31"><a xlink:href="splines_8cpp.html" target="_top" xlink:title=" ">
<polygon fill="white" stroke="#666666" points="856,-74 748,-74 748,-55 856,-55 856,-74"/>
<text text-anchor="middle" x="802" y="-62" font-family="Helvetica,sans-Serif" font-size="10.00">python/splines.cpp</text>
</a>
</g>
</g>
<!-- Node24&#45;&gt;Node31 -->
<g id="edge40" class="edge">
<title>Node24&#45;&gt;Node31</title>
<path fill="none" stroke="#63b8ff" d="M995.69,-228.24C930.66,-218.81 839.78,-194.02 795,-129 783.55,-112.37 791.92,-87.29 797.71,-74.18"/>
<polygon fill="#63b8ff" stroke="#63b8ff" points="995.51,-231.74 1005.89,-229.62 996.46,-224.81 995.51,-231.74"/>
</g>
<!-- Node26 -->
<g id="node26" class="node">
<title>Node26</title>
<g id="a_node26"><a xlink:href="BinnedSplineHandler_8h.html" target="_top" xlink:title=" ">
<polygon fill="white" stroke="#666666" points="1310.5,-129 1145.5,-129 1145.5,-110 1310.5,-110 1310.5,-129"/>
<text text-anchor="middle" x="1228" y="-117" font-family="Helvetica,sans-Serif" font-size="10.00">Splines/BinnedSplineHandler.h</text>
</a>
</g>
</g>
<!-- Node25&#45;&gt;Node26 -->
<g id="edge32" class="edge">
<title>Node25&#45;&gt;Node26</title>
<path fill="none" stroke="#63b8ff" d="M1104.88,-161.8C1134.37,-151.91 1175.93,-137.97 1202.42,-129.08"/>
<polygon fill="#63b8ff" stroke="#63b8ff" points="1103.75,-158.49 1095.39,-164.98 1105.98,-165.12 1103.75,-158.49"/>
</g>
<!-- Node28 -->
<g id="node28" class="node">
<title>Node28</title>
<g id="a_node28"><a xlink:href="SplineBase_8cpp.html" target="_top" xlink:title=" ">
<polygon fill="white" stroke="#666666" points="1088.5,-129 959.5,-129 959.5,-110 1088.5,-110 1088.5,-129"/>
<text text-anchor="middle" x="1024" y="-117" font-family="Helvetica,sans-Serif" font-size="10.00">Splines/SplineBase.cpp</text>
</a>
</g>
</g>
<!-- Node25&#45;&gt;Node28 -->
<g id="edge35" class="edge">
<title>Node25&#45;&gt;Node28</title>
<path fill="none" stroke="#63b8ff" d="M1055.64,-156.96C1047.63,-147.72 1037.97,-136.6 1031.45,-129.09"/>
<polygon fill="#63b8ff" stroke="#63b8ff" points="1053.21,-159.49 1062.4,-164.75 1058.49,-154.9 1053.21,-159.49"/>
</g>
<!-- Node29 -->
<g id="node29" class="node">
<title>Node29</title>
<g id="a_node29"><a xlink:href="SplineMonolith_8h.html" target="_top" xlink:title=" ">
<polygon fill="white" stroke="#666666" points="941.5,-129 804.5,-129 804.5,-110 941.5,-110 941.5,-129"/>
<text text-anchor="middle" x="873" y="-117" font-family="Helvetica,sans-Serif" font-size="10.00">Splines/SplineMonolith.h</text>
</a>
</g>
</g>
<!-- Node25&#45;&gt;Node29 -->
<g id="edge36" class="edge">
<title>Node25&#45;&gt;Node29</title>
<path fill="none" stroke="#63b8ff" d="M1028.41,-162.31C991.55,-152.39 938.5,-138.12 904.9,-129.08"/>
<polygon fill="#63b8ff" stroke="#63b8ff" points="1027.78,-165.77 1038.35,-164.98 1029.6,-159.01 1027.78,-165.77"/>
</g>
<!-- Node25&#45;&gt;Node31 -->
<g id="edge39" class="edge">
<title>Node25&#45;&gt;Node31</title>
<path fill="none" stroke="#63b8ff" d="M1085.92,-157.06C1097.33,-143.27 1108.78,-123.69 1097,-110 1095.04,-107.72 940.61,-85.32 856.01,-73.2"/>
<polygon fill="#63b8ff" stroke="#63b8ff" points="1083.07,-155 1079.03,-164.79 1088.29,-159.65 1083.07,-155"/>
</g>
<!-- Node26&#45;&gt;Node21 -->
<g id="edge33" class="edge">
<title>Node26&#45;&gt;Node21</title>
<path fill="none" stroke="#63b8ff" d="M1254.95,-105.63C1275.39,-95.87 1302.95,-82.71 1320.84,-74.17"/>
<polygon fill="#63b8ff" stroke="#63b8ff" points="1253.35,-102.52 1245.83,-109.98 1256.37,-108.83 1253.35,-102.52"/>
</g>
<!-- Node27 -->
<g id="node27" class="node">
<title>Node27</title>
<g id="a_node27"><a xlink:href="BinnedSplineHandler_8cpp.html" target="_top" xlink:title=" ">
<polygon fill="white" stroke="#666666" points="1242,-74 1066,-74 1066,-55 1242,-55 1242,-74"/>
<text text-anchor="middle" x="1154" y="-62" font-family="Helvetica,sans-Serif" font-size="10.00">Splines/BinnedSplineHandler.cpp</text>
</a>
</g>
</g>
<!-- Node26&#45;&gt;Node27 -->
<g id="edge34" class="edge">
<title>Node26&#45;&gt;Node27</title>
<path fill="none" stroke="#63b8ff" d="M1207.97,-104.15C1194.59,-94.57 1177.44,-82.29 1166.11,-74.17"/>
<polygon fill="#63b8ff" stroke="#63b8ff" points="1205.94,-107.01 1216.11,-109.98 1210.02,-101.32 1205.94,-107.01"/>
</g>
<!-- Node30 -->
<g id="node30" class="node">
<title>Node30</title>
<g id="a_node30"><a xlink:href="SplineMonolith_8cpp.html" target="_top" xlink:title=" ">
<polygon fill="white" stroke="#666666" points="1022,-74 874,-74 874,-55 1022,-55 1022,-74"/>
<text text-anchor="middle" x="948" y="-62" font-family="Helvetica,sans-Serif" font-size="10.00">Splines/SplineMonolith.cpp</text>
</a>
</g>
</g>
<!-- Node29&#45;&gt;Node30 -->
<g id="edge37" class="edge">
<title>Node29&#45;&gt;Node30</title>
<path fill="none" stroke="#63b8ff" d="M893.31,-104.15C906.86,-94.57 924.24,-82.29 935.73,-74.17"/>
<polygon fill="#63b8ff" stroke="#63b8ff" points="891.2,-101.36 885.05,-109.98 895.24,-107.07 891.2,-101.36"/>
</g>
<!-- Node29&#45;&gt;Node31 -->
<g id="edge38" class="edge">
<title>Node29&#45;&gt;Node31</title>
<path fill="none" stroke="#63b8ff" d="M853.41,-103.88C840.63,-94.34 824.39,-82.21 813.61,-74.17"/>
<polygon fill="#63b8ff" stroke="#63b8ff" points="851.49,-106.81 861.59,-109.98 855.67,-101.2 851.49,-106.81"/>
</g>
<!-- Node33&#45;&gt;Node4 -->
<g id="edge45" class="edge">
<title>Node33&#45;&gt;Node4</title>
<path fill="none" stroke="#63b8ff" d="M1323.4,-412.55C1307.83,-403.36 1287.51,-391.35 1271.89,-382.11"/>
<polygon fill="#63b8ff" stroke="#63b8ff" points="1322,-415.79 1332.39,-417.87 1325.56,-409.77 1322,-415.79"/>
</g>
<!-- Node34 -->
<g id="node34" class="node">
<title>Node34</title>
<g id="a_node34"><a xlink:href="PCAHandler_8cpp.html" target="_top" xlink:title=" ">
<polygon fill="white" stroke="#666666" points="1500,-376.5 1348,-376.5 1348,-357.5 1500,-357.5 1500,-376.5"/>
<text text-anchor="middle" x="1424" y="-364.5" font-family="Helvetica,sans-Serif" font-size="10.00">Parameters/PCAHandler.cpp</text>
</a>
</g>
</g>
<!-- Node33&#45;&gt;Node34 -->
<g id="edge44" class="edge">
<title>Node33&#45;&gt;Node34</title>
<path fill="none" stroke="#63b8ff" d="M1366.69,-411.54C1381.23,-400.49 1400.52,-385.84 1412.59,-376.67"/>
<polygon fill="#63b8ff" stroke="#63b8ff" points="1364.21,-409.03 1358.36,-417.87 1368.44,-414.61 1364.21,-409.03"/>
</g>
<!-- Node35&#45;&gt;Node4 -->
<g id="edge48" class="edge">
<title>Node35&#45;&gt;Node4</title>
<path fill="none" stroke="#63b8ff" d="M1468.08,-415.86C1424.43,-406.37 1360.22,-392.41 1312.41,-382.01"/>
<polygon fill="#63b8ff" stroke="#63b8ff" points="1467.37,-419.29 1477.89,-417.99 1468.86,-412.45 1467.37,-419.29"/>
</g>
<!-- Node36 -->
<g id="node36" class="node">
<title>Node36</title>
<g id="a_node36"><a xlink:href="ParameterTunes_8cpp.html" target="_top" xlink:title=" ">
<polygon fill="white" stroke="#666666" points="1691.5,-376.5 1518.5,-376.5 1518.5,-357.5 1691.5,-357.5 1691.5,-376.5"/>
<text text-anchor="middle" x="1605" y="-364.5" font-family="Helvetica,sans-Serif" font-size="10.00">Parameters/ParameterTunes.cpp</text>
</a>
</g>
</g>
<!-- Node35&#45;&gt;Node36 -->
<g id="edge49" class="edge">
<title>Node35&#45;&gt;Node36</title>
<path fill="none" stroke="#63b8ff" d="M1538.57,-412.16C1555.29,-401.05 1577.9,-386.01 1591.96,-376.67"/>
<polygon fill="#63b8ff" stroke="#63b8ff" points="1536.37,-409.42 1529.98,-417.87 1540.25,-415.25 1536.37,-409.42"/>
</g>
</g>
</svg>
