<?xml version="1.0" encoding="UTF-8" standalone="no"?>
<!DOCTYPE svg PUBLIC "-//W3C//DTD SVG 1.1//EN"
 "http://www.w3.org/Graphics/SVG/1.1/DTD/svg11.dtd">
<!-- Generated by graphviz version 2.43.0 (0)
 -->
<!-- Title: Parameters/ParameterHandlerUtils.h Pages: 1 -->
<svg width="2357pt" height="456pt"
 viewBox="0.00 0.00 2357.00 456.00" xmlns="http://www.w3.org/2000/svg" xmlns:xlink="http://www.w3.org/1999/xlink">
<g id="graph0" class="graph" transform="scale(1 1) rotate(0) translate(4 452)">
<title>Parameters/ParameterHandlerUtils.h</title>
<!-- Node1 -->
<g id="node1" class="node">
<title>Node1</title>
<g id="a_node1"><a xlink:title=" ">
<polygon fill="#999999" stroke="#666666" points="829.5,-448 665.5,-448 665.5,-418 829.5,-418 829.5,-448"/>
<text text-anchor="start" x="673.5" y="-436" font-family="Helvetica,sans-Serif" font-size="10.00">Parameters/ParameterHandler</text>
<text text-anchor="middle" x="747.5" y="-425" font-family="Helvetica,sans-Serif" font-size="10.00">Utils.h</text>
</a>
</g>
</g>
<!-- Node2 -->
<g id="node2" class="node">
<title>Node2</title>
<g id="a_node2"><a xlink:href="GetPenaltyTerm_8cpp.html" target="_top" xlink:title="KS: This file contains the implementation of the function to extract specific penalty terms from syst...">
<polygon fill="white" stroke="#666666" points="455,-382 280,-382 280,-363 455,-363 455,-382"/>
<text text-anchor="middle" x="367.5" y="-370" font-family="Helvetica,sans-Serif" font-size="10.00">Diagnostics/GetPenaltyTerm.cpp</text>
</a>
</g>
</g>
<!-- Node1&#45;&gt;Node2 -->
<g id="edge1" class="edge">
<title>Node1&#45;&gt;Node2</title>
<path fill="none" stroke="#63b8ff" d="M654.98,-417.76C582.33,-406.57 483.62,-391.38 422.81,-382.01"/>
<polygon fill="#63b8ff" stroke="#63b8ff" points="654.63,-421.24 665.05,-419.31 655.69,-414.33 654.63,-421.24"/>
</g>
<!-- Node3 -->
<g id="node3" class="node">
<title>Node3</title>
<g id="a_node3"><a xlink:href="MCMCProcessor_8h.html" target="_top" xlink:title=" ">
<polygon fill="white" stroke="#666666" points="1536,-382 1399,-382 1399,-363 1536,-363 1536,-382"/>
<text text-anchor="middle" x="1467.5" y="-370" font-family="Helvetica,sans-Serif" font-size="10.00">Fitters/MCMCProcessor.h</text>
</a>
</g>
</g>
<!-- Node1&#45;&gt;Node3 -->
<g id="edge2" class="edge">
<title>Node1&#45;&gt;Node3</title>
<path fill="none" stroke="#63b8ff" d="M840.06,-424.48C986.63,-412.57 1268.84,-389.64 1398.85,-379.08"/>
<polygon fill="#63b8ff" stroke="#63b8ff" points="839.43,-421.02 829.74,-425.32 839.99,-428 839.43,-421.02"/>
</g>
<!-- Node35 -->
<g id="node34" class="node">
<title>Node35</title>
<g id="a_node34"><a xlink:href="AdaptiveMCMCHandler_8h.html" target="_top" xlink:title=" ">
<polygon fill="white" stroke="#666666" points="670,-382 473,-382 473,-363 670,-363 670,-382"/>
<text text-anchor="middle" x="571.5" y="-370" font-family="Helvetica,sans-Serif" font-size="10.00">Parameters/AdaptiveMCMCHandler.h</text>
</a>
</g>
</g>
<!-- Node1&#45;&gt;Node35 -->
<g id="edge40" class="edge">
<title>Node1&#45;&gt;Node35</title>
<path fill="none" stroke="#63b8ff" d="M695.57,-414.74C663.2,-403.98 622.95,-390.6 597.23,-382.05"/>
<polygon fill="#63b8ff" stroke="#63b8ff" points="694.75,-418.15 705.34,-417.99 696.96,-411.51 694.75,-418.15"/>
</g>
<!-- Node37 -->
<g id="node36" class="node">
<title>Node37</title>
<g id="a_node36"><a xlink:href="ParameterHandlerBase_8h.html" target="_top" xlink:title=" ">
<polygon fill="white" stroke="#666666" points="742.5,-327 578.5,-327 578.5,-297 742.5,-297 742.5,-327"/>
<text text-anchor="start" x="586.5" y="-315" font-family="Helvetica,sans-Serif" font-size="10.00">Parameters/ParameterHandler</text>
<text text-anchor="middle" x="660.5" y="-304" font-family="Helvetica,sans-Serif" font-size="10.00">Base.h</text>
</a>
</g>
</g>
<!-- Node1&#45;&gt;Node37 -->
<g id="edge62" class="edge">
<title>Node1&#45;&gt;Node37</title>
<path fill="none" stroke="#63b8ff" d="M731.15,-409.63C713.43,-385.4 685.71,-347.49 670.81,-327.1"/>
<polygon fill="#63b8ff" stroke="#63b8ff" points="728.45,-411.87 737.18,-417.88 734.1,-407.74 728.45,-411.87"/>
</g>
<!-- Node53 -->
<g id="node47" class="node">
<title>Node53</title>
<g id="a_node47"><a xlink:href="PCAHandler_8h.html" target="_top" xlink:title=" ">
<polygon fill="white" stroke="#666666" points="868,-382 727,-382 727,-363 868,-363 868,-382"/>
<text text-anchor="middle" x="797.5" y="-370" font-family="Helvetica,sans-Serif" font-size="10.00">Parameters/PCAHandler.h</text>
</a>
</g>
</g>
<!-- Node1&#45;&gt;Node53 -->
<g id="edge59" class="edge">
<title>Node1&#45;&gt;Node53</title>
<path fill="none" stroke="#63b8ff" d="M766.23,-410.09C774.49,-400.42 783.73,-389.61 790.01,-382.27"/>
<polygon fill="#63b8ff" stroke="#63b8ff" points="763.44,-407.96 759.6,-417.84 768.76,-412.51 763.44,-407.96"/>
</g>
<!-- Node55 -->
<g id="node49" class="node">
<title>Node55</title>
<g id="a_node49"><a xlink:href="ParameterTunes_8h.html" target="_top" xlink:title=" ">
<polygon fill="white" stroke="#666666" points="1048.5,-382 886.5,-382 886.5,-363 1048.5,-363 1048.5,-382"/>
<text text-anchor="middle" x="967.5" y="-370" font-family="Helvetica,sans-Serif" font-size="10.00">Parameters/ParameterTunes.h</text>
</a>
</g>
</g>
<!-- Node1&#45;&gt;Node55 -->
<g id="edge63" class="edge">
<title>Node1&#45;&gt;Node55</title>
<path fill="none" stroke="#63b8ff" d="M810.06,-415.36C850.92,-404.5 902.57,-390.77 935.33,-382.05"/>
<polygon fill="#63b8ff" stroke="#63b8ff" points="808.96,-412.04 800.2,-417.99 810.76,-418.8 808.96,-412.04"/>
</g>
<!-- Node4 -->
<g id="node4" class="node">
<title>Node4</title>
<g id="a_node4"><a xlink:href="DiagMCMC_8cpp.html" target="_top" xlink:title=" ">
<polygon fill="white" stroke="#666666" points="1454,-321.5 1303,-321.5 1303,-302.5 1454,-302.5 1454,-321.5"/>
<text text-anchor="middle" x="1378.5" y="-309.5" font-family="Helvetica,sans-Serif" font-size="10.00">Diagnostics/DiagMCMC.cpp</text>
</a>
</g>
</g>
<!-- Node3&#45;&gt;Node4 -->
<g id="edge3" class="edge">
<title>Node3&#45;&gt;Node4</title>
<path fill="none" stroke="#63b8ff" d="M1445.68,-357.16C1428.77,-346.05 1405.91,-331.01 1391.69,-321.67"/>
<polygon fill="#63b8ff" stroke="#63b8ff" points="1444.09,-360.3 1454.37,-362.87 1447.93,-354.45 1444.09,-360.3"/>
</g>
<!-- Node5 -->
<g id="node5" class="node">
<title>Node5</title>
<g id="a_node5"><a xlink:href="PlotMCMCDiag_8cpp.html" target="_top" xlink:title="KS: This script is used to analyse output form DiagMCMC.">
<polygon fill="white" stroke="#666666" points="1642.5,-321.5 1472.5,-321.5 1472.5,-302.5 1642.5,-302.5 1642.5,-321.5"/>
<text text-anchor="middle" x="1557.5" y="-309.5" font-family="Helvetica,sans-Serif" font-size="10.00">Diagnostics/PlotMCMCDiag.cpp</text>
</a>
</g>
</g>
<!-- Node3&#45;&gt;Node5 -->
<g id="edge4" class="edge">
<title>Node3&#45;&gt;Node5</title>
<path fill="none" stroke="#63b8ff" d="M1489.56,-357.16C1506.66,-346.05 1529.79,-331.01 1544.17,-321.67"/>
<polygon fill="#63b8ff" stroke="#63b8ff" points="1487.26,-354.48 1480.78,-362.87 1491.07,-360.35 1487.26,-354.48"/>
</g>
<!-- Node6 -->
<g id="node6" class="node">
<title>Node6</title>
<g id="a_node6"><a xlink:href="FitterBase_8h.html" target="_top" xlink:title=" ">
<polygon fill="white" stroke="#666666" points="1137,-255.5 1028,-255.5 1028,-236.5 1137,-236.5 1137,-255.5"/>
<text text-anchor="middle" x="1082.5" y="-243.5" font-family="Helvetica,sans-Serif" font-size="10.00">Fitters/FitterBase.h</text>
</a>
</g>
</g>
<!-- Node3&#45;&gt;Node6 -->
<g id="edge5" class="edge">
<title>Node3&#45;&gt;Node6</title>
<path fill="none" stroke="#63b8ff" d="M1388.78,-366.74C1308.79,-360.79 1191.2,-348.66 1151.5,-327 1120.1,-309.87 1096.5,-272.42 1087.04,-255.54"/>
<polygon fill="#63b8ff" stroke="#63b8ff" points="1388.6,-370.24 1398.82,-367.47 1389.1,-363.25 1388.6,-370.24"/>
</g>
<!-- Node21 -->
<g id="node20" class="node">
<title>Node21</title>
<g id="a_node20"><a xlink:href="MCMCProcessor_8cpp.html" target="_top" xlink:title=" ">
<polygon fill="white" stroke="#666666" points="1970,-321.5 1821,-321.5 1821,-302.5 1970,-302.5 1970,-321.5"/>
<text text-anchor="middle" x="1895.5" y="-309.5" font-family="Helvetica,sans-Serif" font-size="10.00">Fitters/MCMCProcessor.cpp</text>
</a>
</g>
</g>
<!-- Node3&#45;&gt;Node21 -->
<g id="edge25" class="edge">
<title>Node3&#45;&gt;Node21</title>
<path fill="none" stroke="#63b8ff" d="M1546.17,-362.15C1615.97,-353.66 1720.65,-340.44 1811.5,-327 1822.76,-325.33 1834.85,-323.4 1846.24,-321.52"/>
<polygon fill="#63b8ff" stroke="#63b8ff" points="1545.64,-358.69 1536.13,-363.37 1546.48,-365.64 1545.64,-358.69"/>
</g>
<!-- Node22 -->
<g id="node21" class="node">
<title>Node22</title>
<g id="a_node21"><a xlink:href="OscProcessor_8h.html" target="_top" xlink:title=" ">
<polygon fill="white" stroke="#666666" points="1284.5,-321.5 1160.5,-321.5 1160.5,-302.5 1284.5,-302.5 1284.5,-321.5"/>
<text text-anchor="middle" x="1222.5" y="-309.5" font-family="Helvetica,sans-Serif" font-size="10.00">Fitters/OscProcessor.h</text>
</a>
</g>
</g>
<!-- Node3&#45;&gt;Node22 -->
<g id="edge26" class="edge">
<title>Node3&#45;&gt;Node22</title>
<path fill="none" stroke="#63b8ff" d="M1421.89,-360.61C1374.54,-349.3 1301.46,-331.85 1258.17,-321.52"/>
<polygon fill="#63b8ff" stroke="#63b8ff" points="1421.34,-364.08 1431.87,-362.99 1422.96,-357.27 1421.34,-364.08"/>
</g>
<!-- Node25 -->
<g id="node24" class="node">
<title>Node25</title>
<g id="a_node24"><a xlink:href="SampleSummary_8h.html" target="_top" xlink:title=" ">
<polygon fill="white" stroke="#666666" points="1802.5,-321.5 1660.5,-321.5 1660.5,-302.5 1802.5,-302.5 1802.5,-321.5"/>
<text text-anchor="middle" x="1731.5" y="-309.5" font-family="Helvetica,sans-Serif" font-size="10.00">Fitters/SampleSummary.h</text>
</a>
</g>
</g>
<!-- Node3&#45;&gt;Node25 -->
<g id="edge29" class="edge">
<title>Node3&#45;&gt;Node25</title>
<path fill="none" stroke="#63b8ff" d="M1515.69,-360.82C1566.68,-349.52 1646.12,-331.92 1693.07,-321.52"/>
<polygon fill="#63b8ff" stroke="#63b8ff" points="1514.89,-357.41 1505.89,-362.99 1516.41,-364.25 1514.89,-357.41"/>
</g>
<!-- Node27 -->
<g id="node26" class="node">
<title>Node27</title>
<g id="a_node26"><a xlink:href="inputManager_8h.html" target="_top" xlink:title=" ">
<polygon fill="white" stroke="#666666" points="2105,-327 1988,-327 1988,-297 2105,-297 2105,-327"/>
<text text-anchor="start" x="1996" y="-315" font-family="Helvetica,sans-Serif" font-size="10.00">Plotting/plottingUtils</text>
<text text-anchor="middle" x="2046.5" y="-304" font-family="Helvetica,sans-Serif" font-size="10.00">/inputManager.h</text>
</a>
</g>
</g>
<!-- Node3&#45;&gt;Node27 -->
<g id="edge31" class="edge">
<title>Node3&#45;&gt;Node27</title>
<path fill="none" stroke="#63b8ff" d="M1546.49,-367.47C1647.17,-361.69 1826.43,-349.2 1978.5,-327 1981.6,-326.55 1984.77,-326.04 1987.97,-325.5"/>
<polygon fill="#63b8ff" stroke="#63b8ff" points="1546.18,-363.99 1536.4,-368.05 1546.58,-370.98 1546.18,-363.99"/>
</g>
<!-- Node7 -->
<g id="node7" class="node">
<title>Node7</title>
<g id="a_node7"><a xlink:href="FitterBase_8cpp.html" target="_top" xlink:title=" ">
<polygon fill="white" stroke="#666666" points="1392.5,-189.5 1272.5,-189.5 1272.5,-170.5 1392.5,-170.5 1392.5,-189.5"/>
<text text-anchor="middle" x="1332.5" y="-177.5" font-family="Helvetica,sans-Serif" font-size="10.00">Fitters/FitterBase.cpp</text>
</a>
</g>
</g>
<!-- Node6&#45;&gt;Node7 -->
<g id="edge6" class="edge">
<title>Node6&#45;&gt;Node7</title>
<path fill="none" stroke="#63b8ff" d="M1125.69,-233.94C1174.98,-221.32 1254.53,-200.96 1299.24,-189.51"/>
<polygon fill="#63b8ff" stroke="#63b8ff" points="1124.78,-230.56 1115.96,-236.44 1126.51,-237.35 1124.78,-230.56"/>
</g>
<!-- Node8 -->
<g id="node8" class="node">
<title>Node8</title>
<g id="a_node8"><a xlink:href="LikelihoodFit_8h.html" target="_top" xlink:title=" ">
<polygon fill="white" stroke="#666666" points="1254,-189.5 1133,-189.5 1133,-170.5 1254,-170.5 1254,-189.5"/>
<text text-anchor="middle" x="1193.5" y="-177.5" font-family="Helvetica,sans-Serif" font-size="10.00">Fitters/LikelihoodFit.h</text>
</a>
</g>
</g>
<!-- Node6&#45;&gt;Node8 -->
<g id="edge7" class="edge">
<title>Node6&#45;&gt;Node8</title>
<path fill="none" stroke="#63b8ff" d="M1106.16,-231.36C1128.01,-218.76 1159.82,-200.42 1178.41,-189.7"/>
<polygon fill="#63b8ff" stroke="#63b8ff" points="1104.38,-228.34 1097.47,-236.37 1107.88,-234.41 1104.38,-228.34"/>
</g>
<!-- Node10 -->
<g id="node10" class="node">
<title>Node10</title>
<g id="a_node10"><a xlink:href="MaCh3Factory_8h.html" target="_top" xlink:title="Factory methods for MaCh3 software which streamline initialisation of different objects.">
<polygon fill="white" stroke="#666666" points="1165,-74 1038,-74 1038,-55 1165,-55 1165,-74"/>
<text text-anchor="middle" x="1101.5" y="-62" font-family="Helvetica,sans-Serif" font-size="10.00">Fitters/MaCh3Factory.h</text>
</a>
</g>
</g>
<!-- Node6&#45;&gt;Node10 -->
<g id="edge17" class="edge">
<title>Node6&#45;&gt;Node10</title>
<path fill="none" stroke="#63b8ff" d="M1084.51,-226.03C1088.58,-187.52 1097.69,-101.49 1100.59,-74.07"/>
<polygon fill="#63b8ff" stroke="#63b8ff" points="1080.99,-226.03 1083.42,-236.34 1087.95,-226.77 1080.99,-226.03"/>
</g>
<!-- Node14 -->
<g id="node14" class="node">
<title>Node14</title>
<g id="a_node14"><a xlink:href="fitters_8cpp.html" target="_top" xlink:title=" ">
<polygon fill="white" stroke="#666666" points="1389.5,-74 1287.5,-74 1287.5,-55 1389.5,-55 1389.5,-74"/>
<text text-anchor="middle" x="1338.5" y="-62" font-family="Helvetica,sans-Serif" font-size="10.00">python/fitters.cpp</text>
</a>
</g>
</g>
<!-- Node6&#45;&gt;Node14 -->
<g id="edge24" class="edge">
<title>Node6&#45;&gt;Node14</title>
<path fill="none" stroke="#63b8ff" d="M1128.73,-234.29C1134.37,-233.11 1140.06,-231.99 1145.5,-231 1309.56,-201.28 1425.86,-274.93 1506.5,-129 1510.58,-121.61 1511.65,-116.69 1506.5,-110 1498.75,-99.93 1428.42,-83.84 1381.25,-74.01"/>
<polygon fill="#63b8ff" stroke="#63b8ff" points="1127.76,-230.92 1118.71,-236.44 1129.23,-237.76 1127.76,-230.92"/>
</g>
<!-- Node17 -->
<g id="node16" class="node">
<title>Node17</title>
<g id="a_node16"><a xlink:href="PredictiveThrower_8h.html" target="_top" xlink:title=" ">
<polygon fill="white" stroke="#666666" points="1016,-189.5 869,-189.5 869,-170.5 1016,-170.5 1016,-189.5"/>
<text text-anchor="middle" x="942.5" y="-177.5" font-family="Helvetica,sans-Serif" font-size="10.00">Fitters/PredictiveThrower.h</text>
</a>
</g>
</g>
<!-- Node6&#45;&gt;Node17 -->
<g id="edge18" class="edge">
<title>Node6&#45;&gt;Node17</title>
<path fill="none" stroke="#63b8ff" d="M1054.49,-232.19C1026.9,-219.58 985.5,-200.66 961.53,-189.7"/>
<polygon fill="#63b8ff" stroke="#63b8ff" points="1053.07,-235.39 1063.62,-236.37 1055.98,-229.03 1053.07,-235.39"/>
</g>
<!-- Node19 -->
<g id="node18" class="node">
<title>Node19</title>
<g id="a_node18"><a xlink:href="mcmc_8h.html" target="_top" xlink:title=" ">
<polygon fill="white" stroke="#666666" points="1054,-129 965,-129 965,-110 1054,-110 1054,-129"/>
<text text-anchor="middle" x="1009.5" y="-117" font-family="Helvetica,sans-Serif" font-size="10.00">Fitters/mcmc.h</text>
</a>
</g>
</g>
<!-- Node6&#45;&gt;Node19 -->
<g id="edge20" class="edge">
<title>Node6&#45;&gt;Node19</title>
<path fill="none" stroke="#63b8ff" d="M1072.35,-227.68C1056.5,-200.65 1026.47,-149.43 1014.55,-129.12"/>
<polygon fill="#63b8ff" stroke="#63b8ff" points="1069.41,-229.59 1077.48,-236.44 1075.44,-226.05 1069.41,-229.59"/>
</g>
<!-- Node9 -->
<g id="node9" class="node">
<title>Node9</title>
<g id="a_node9"><a xlink:href="LikelihoodFit_8cpp.html" target="_top" xlink:title=" ">
<polygon fill="white" stroke="#666666" points="1280.5,-129 1148.5,-129 1148.5,-110 1280.5,-110 1280.5,-129"/>
<text text-anchor="middle" x="1214.5" y="-117" font-family="Helvetica,sans-Serif" font-size="10.00">Fitters/LikelihoodFit.cpp</text>
</a>
</g>
</g>
<!-- Node8&#45;&gt;Node9 -->
<g id="edge8" class="edge">
<title>Node8&#45;&gt;Node9</title>
<path fill="none" stroke="#63b8ff" d="M1200.03,-160.82C1203.81,-150.28 1208.41,-137.48 1211.39,-129.17"/>
<polygon fill="#63b8ff" stroke="#63b8ff" points="1196.68,-159.77 1196.6,-170.37 1203.27,-162.14 1196.68,-159.77"/>
</g>
<!-- Node8&#45;&gt;Node10 -->
<g id="edge9" class="edge">
<title>Node8&#45;&gt;Node10</title>
<path fill="none" stroke="#63b8ff" d="M1174.51,-163.76C1163.53,-154.41 1149.89,-141.81 1139.5,-129 1124.93,-111.04 1112.06,-86.94 1105.71,-74.22"/>
<polygon fill="#63b8ff" stroke="#63b8ff" points="1172.35,-166.52 1182.28,-170.23 1176.83,-161.14 1172.35,-166.52"/>
</g>
<!-- Node12 -->
<g id="node12" class="node">
<title>Node12</title>
<g id="a_node12"><a xlink:href="MinuitFit_8h.html" target="_top" xlink:title=" ">
<polygon fill="white" stroke="#666666" points="1497.5,-129 1395.5,-129 1395.5,-110 1497.5,-110 1497.5,-129"/>
<text text-anchor="middle" x="1446.5" y="-117" font-family="Helvetica,sans-Serif" font-size="10.00">Fitters/MinuitFit.h</text>
</a>
</g>
</g>
<!-- Node8&#45;&gt;Node12 -->
<g id="edge11" class="edge">
<title>Node8&#45;&gt;Node12</title>
<path fill="none" stroke="#63b8ff" d="M1240.29,-168.18C1289.18,-156.88 1364.87,-139.38 1409.67,-129.02"/>
<polygon fill="#63b8ff" stroke="#63b8ff" points="1239.24,-164.83 1230.29,-170.49 1240.82,-171.65 1239.24,-164.83"/>
</g>
<!-- Node15 -->
<g id="node15" class="node">
<title>Node15</title>
<g id="a_node15"><a xlink:href="PSO_8h.html" target="_top" xlink:title=" ">
<polygon fill="#fff0f0" stroke="red" points="1378,-129 1299,-129 1299,-110 1378,-110 1378,-129"/>
<text text-anchor="middle" x="1338.5" y="-117" font-family="Helvetica,sans-Serif" font-size="10.00">Fitters/PSO.h</text>
</a>
</g>
</g>
<!-- Node8&#45;&gt;Node15 -->
<g id="edge14" class="edge">
<title>Node8&#45;&gt;Node15</title>
<path fill="none" stroke="#63b8ff" d="M1223.91,-166.73C1251.93,-155.42 1292.79,-138.94 1317.39,-129.02"/>
<polygon fill="#63b8ff" stroke="#63b8ff" points="1222.55,-163.51 1214.58,-170.49 1225.17,-170 1222.55,-163.51"/>
</g>
<!-- Node11 -->
<g id="node11" class="node">
<title>Node11</title>
<g id="a_node11"><a xlink:href="MaCh3Factory_8cpp.html" target="_top" xlink:title=" ">
<polygon fill="white" stroke="#666666" points="1170.5,-19 1032.5,-19 1032.5,0 1170.5,0 1170.5,-19"/>
<text text-anchor="middle" x="1101.5" y="-7" font-family="Helvetica,sans-Serif" font-size="10.00">Fitters/MaCh3Factory.cpp</text>
</a>
</g>
</g>
<!-- Node10&#45;&gt;Node11 -->
<g id="edge10" class="edge">
<title>Node10&#45;&gt;Node11</title>
<path fill="none" stroke="#63b8ff" d="M1101.5,-44.66C1101.5,-35.93 1101.5,-25.99 1101.5,-19.09"/>
<polygon fill="#63b8ff" stroke="#63b8ff" points="1098,-44.75 1101.5,-54.75 1105,-44.75 1098,-44.75"/>
</g>
<!-- Node13 -->
<g id="node13" class="node">
<title>Node13</title>
<g id="a_node13"><a xlink:href="MinuitFit_8cpp.html" target="_top" xlink:title=" ">
<polygon fill="white" stroke="#666666" points="1521,-74 1408,-74 1408,-55 1521,-55 1521,-74"/>
<text text-anchor="middle" x="1464.5" y="-62" font-family="Helvetica,sans-Serif" font-size="10.00">Fitters/MinuitFit.cpp</text>
</a>
</g>
</g>
<!-- Node12&#45;&gt;Node13 -->
<g id="edge12" class="edge">
<title>Node12&#45;&gt;Node13</title>
<path fill="none" stroke="#63b8ff" d="M1452.7,-100.24C1455.71,-91.37 1459.19,-81.14 1461.58,-74.09"/>
<polygon fill="#63b8ff" stroke="#63b8ff" points="1449.37,-99.15 1449.47,-109.75 1456,-101.4 1449.37,-99.15"/>
</g>
<!-- Node12&#45;&gt;Node14 -->
<g id="edge13" class="edge">
<title>Node12&#45;&gt;Node14</title>
<path fill="none" stroke="#63b8ff" d="M1420.01,-105.5C1400.14,-95.75 1373.5,-82.68 1356.17,-74.17"/>
<polygon fill="#63b8ff" stroke="#63b8ff" points="1418.63,-108.72 1429.15,-109.98 1421.71,-102.44 1418.63,-108.72"/>
</g>
<!-- Node15&#45;&gt;Node10 -->
<g id="edge15" class="edge">
<title>Node15&#45;&gt;Node10</title>
<path fill="none" stroke="#63b8ff" d="M1290.44,-107.75C1246.03,-97.82 1180.9,-83.26 1139.88,-74.08"/>
<polygon fill="#63b8ff" stroke="#63b8ff" points="1289.9,-111.22 1300.42,-109.98 1291.43,-104.39 1289.9,-111.22"/>
</g>
<!-- Node15&#45;&gt;Node14 -->
<g id="edge16" class="edge">
<title>Node15&#45;&gt;Node14</title>
<path fill="none" stroke="#63b8ff" d="M1338.5,-99.66C1338.5,-90.93 1338.5,-80.99 1338.5,-74.09"/>
<polygon fill="#63b8ff" stroke="#63b8ff" points="1335,-99.75 1338.5,-109.75 1342,-99.75 1335,-99.75"/>
</g>
<!-- Node18 -->
<g id="node17" class="node">
<title>Node18</title>
<g id="a_node17"><a xlink:href="PredictiveThrower_8cpp.html" target="_top" xlink:title=" ">
<polygon fill="white" stroke="#666666" points="653.5,-129 495.5,-129 495.5,-110 653.5,-110 653.5,-129"/>
<text text-anchor="middle" x="574.5" y="-117" font-family="Helvetica,sans-Serif" font-size="10.00">Fitters/PredictiveThrower.cpp</text>
</a>
</g>
</g>
<!-- Node17&#45;&gt;Node18 -->
<g id="edge19" class="edge">
<title>Node17&#45;&gt;Node18</title>
<path fill="none" stroke="#63b8ff" d="M882.43,-168.78C874.71,-167.49 866.92,-166.21 859.5,-165 780.04,-152.1 688,-137.85 630.5,-129.04"/>
<polygon fill="#63b8ff" stroke="#63b8ff" points="882.04,-172.26 892.48,-170.46 883.2,-165.36 882.04,-172.26"/>
</g>
<!-- Node19&#45;&gt;Node10 -->
<g id="edge21" class="edge">
<title>Node19&#45;&gt;Node10</title>
<path fill="none" stroke="#63b8ff" d="M1032.99,-104.97C1049.81,-95.28 1071.95,-82.52 1086.45,-74.17"/>
<polygon fill="#63b8ff" stroke="#63b8ff" points="1031.2,-101.96 1024.28,-109.98 1034.69,-108.03 1031.2,-101.96"/>
</g>
<!-- Node19&#45;&gt;Node14 -->
<g id="edge23" class="edge">
<title>Node19&#45;&gt;Node14</title>
<path fill="none" stroke="#63b8ff" d="M1064.21,-109.69C1126.32,-99.68 1226.83,-83.49 1287.4,-73.73"/>
<polygon fill="#63b8ff" stroke="#63b8ff" points="1063.53,-106.25 1054.21,-111.3 1064.64,-113.16 1063.53,-106.25"/>
</g>
<!-- Node20 -->
<g id="node19" class="node">
<title>Node20</title>
<g id="a_node19"><a xlink:href="mcmc_8cpp.html" target="_top" xlink:title=" ">
<polygon fill="white" stroke="#666666" points="1020,-74 919,-74 919,-55 1020,-55 1020,-74"/>
<text text-anchor="middle" x="969.5" y="-62" font-family="Helvetica,sans-Serif" font-size="10.00">Fitters/mcmc.cpp</text>
</a>
</g>
</g>
<!-- Node19&#45;&gt;Node20 -->
<g id="edge22" class="edge">
<title>Node19&#45;&gt;Node20</title>
<path fill="none" stroke="#63b8ff" d="M996.8,-101.67C989.87,-92.5 981.59,-81.52 975.98,-74.09"/>
<polygon fill="#63b8ff" stroke="#63b8ff" points="994.08,-103.87 1002.89,-109.75 999.66,-99.66 994.08,-103.87"/>
</g>
<!-- Node23 -->
<g id="node22" class="node">
<title>Node23</title>
<g id="a_node22"><a xlink:href="ProcessMCMC_8cpp.html" target="_top" xlink:title="Main exectable responsible for different types of MCMC processing like drawing posteriors,...">
<polygon fill="white" stroke="#666666" points="1474.5,-255.5 1308.5,-255.5 1308.5,-236.5 1474.5,-236.5 1474.5,-255.5"/>
<text text-anchor="middle" x="1391.5" y="-243.5" font-family="Helvetica,sans-Serif" font-size="10.00">Diagnostics/ProcessMCMC.cpp</text>
</a>
</g>
</g>
<!-- Node22&#45;&gt;Node23 -->
<g id="edge27" class="edge">
<title>Node22&#45;&gt;Node23</title>
<path fill="none" stroke="#63b8ff" d="M1255.04,-298.68C1288.44,-286.03 1339.53,-266.68 1368.8,-255.6"/>
<polygon fill="#63b8ff" stroke="#63b8ff" points="1253.4,-295.55 1245.29,-302.37 1255.88,-302.1 1253.4,-295.55"/>
</g>
<!-- Node24 -->
<g id="node23" class="node">
<title>Node24</title>
<g id="a_node23"><a xlink:href="OscProcessor_8cpp.html" target="_top" xlink:title=" ">
<polygon fill="white" stroke="#666666" points="1290,-255.5 1155,-255.5 1155,-236.5 1290,-236.5 1290,-255.5"/>
<text text-anchor="middle" x="1222.5" y="-243.5" font-family="Helvetica,sans-Serif" font-size="10.00">Fitters/OscProcessor.cpp</text>
</a>
</g>
</g>
<!-- Node22&#45;&gt;Node24 -->
<g id="edge28" class="edge">
<title>Node22&#45;&gt;Node24</title>
<path fill="none" stroke="#63b8ff" d="M1222.5,-292.08C1222.5,-280.13 1222.5,-265.22 1222.5,-255.91"/>
<polygon fill="#63b8ff" stroke="#63b8ff" points="1219,-292.37 1222.5,-302.37 1226,-292.37 1219,-292.37"/>
</g>
<!-- Node26 -->
<g id="node25" class="node">
<title>Node26</title>
<g id="a_node25"><a xlink:href="SampleSummary_8cpp.html" target="_top" xlink:title=" ">
<polygon fill="white" stroke="#666666" points="1808,-255.5 1655,-255.5 1655,-236.5 1808,-236.5 1808,-255.5"/>
<text text-anchor="middle" x="1731.5" y="-243.5" font-family="Helvetica,sans-Serif" font-size="10.00">Fitters/SampleSummary.cpp</text>
</a>
</g>
</g>
<!-- Node25&#45;&gt;Node26 -->
<g id="edge30" class="edge">
<title>Node25&#45;&gt;Node26</title>
<path fill="none" stroke="#63b8ff" d="M1731.5,-292.08C1731.5,-280.13 1731.5,-265.22 1731.5,-255.91"/>
<polygon fill="#63b8ff" stroke="#63b8ff" points="1728,-292.37 1731.5,-302.37 1735,-292.37 1728,-292.37"/>
</g>
<!-- Node28 -->
<g id="node27" class="node">
<title>Node28</title>
<g id="a_node27"><a xlink:href="inputManager_8cpp.html" target="_top" xlink:title=" ">
<polygon fill="white" stroke="#666666" points="1970,-261 1853,-261 1853,-231 1970,-231 1970,-261"/>
<text text-anchor="start" x="1861" y="-249" font-family="Helvetica,sans-Serif" font-size="10.00">Plotting/plottingUtils</text>
<text text-anchor="middle" x="1911.5" y="-238" font-family="Helvetica,sans-Serif" font-size="10.00">/inputManager.cpp</text>
</a>
</g>
</g>
<!-- Node27&#45;&gt;Node28 -->
<g id="edge32" class="edge">
<title>Node27&#45;&gt;Node28</title>
<path fill="none" stroke="#63b8ff" d="M2007.79,-292.65C1986.56,-282.58 1960.65,-270.3 1941.06,-261.01"/>
<polygon fill="#63b8ff" stroke="#63b8ff" points="2006.34,-295.83 2016.87,-296.95 2009.34,-289.51 2006.34,-295.83"/>
</g>
<!-- Node29 -->
<g id="node28" class="node">
<title>Node29</title>
<g id="a_node28"><a xlink:href="plottingManager_8h.html" target="_top" xlink:title=" ">
<polygon fill="white" stroke="#666666" points="2105,-261 1988,-261 1988,-231 2105,-231 2105,-261"/>
<text text-anchor="start" x="1996" y="-249" font-family="Helvetica,sans-Serif" font-size="10.00">Plotting/plottingUtils</text>
<text text-anchor="middle" x="2046.5" y="-238" font-family="Helvetica,sans-Serif" font-size="10.00">/plottingManager.h</text>
</a>
</g>
</g>
<!-- Node27&#45;&gt;Node29 -->
<g id="edge33" class="edge">
<title>Node27&#45;&gt;Node29</title>
<path fill="none" stroke="#63b8ff" d="M2046.5,-286.54C2046.5,-277.96 2046.5,-268.61 2046.5,-261.16"/>
<polygon fill="#63b8ff" stroke="#63b8ff" points="2043,-286.8 2046.5,-296.8 2050,-286.8 2043,-286.8"/>
</g>
<!-- Node34 -->
<g id="node33" class="node">
<title>Node34</title>
<g id="a_node33"><a xlink:href="plotting_8cpp.html" target="_top" xlink:title=" ">
<polygon fill="white" stroke="#666666" points="2349,-189.5 2238,-189.5 2238,-170.5 2349,-170.5 2349,-189.5"/>
<text text-anchor="middle" x="2293.5" y="-177.5" font-family="Helvetica,sans-Serif" font-size="10.00">python/plotting.cpp</text>
</a>
</g>
</g>
<!-- Node27&#45;&gt;Node34 -->
<g id="edge39" class="edge">
<title>Node27&#45;&gt;Node34</title>
<path fill="none" stroke="#63b8ff" d="M2082.35,-292.13C2136.69,-263.53 2237.78,-210.32 2277.18,-189.59"/>
<polygon fill="#63b8ff" stroke="#63b8ff" points="2080.62,-289.09 2073.4,-296.84 2083.88,-295.28 2080.62,-289.09"/>
</g>
<!-- Node30 -->
<g id="node29" class="node">
<title>Node30</title>
<g id="a_node29"><a xlink:href="GetPostfitParamPlots_8cpp.html" target="_top" xlink:title=" ">
<polygon fill="white" stroke="#666666" points="2061.5,-195 1925.5,-195 1925.5,-165 2061.5,-165 2061.5,-195"/>
<text text-anchor="start" x="1933.5" y="-183" font-family="Helvetica,sans-Serif" font-size="10.00">Plotting/GetPostfitParam</text>
<text text-anchor="middle" x="1993.5" y="-172" font-family="Helvetica,sans-Serif" font-size="10.00">Plots.cpp</text>
</a>
</g>
</g>
<!-- Node29&#45;&gt;Node30 -->
<g id="edge34" class="edge">
<title>Node29&#45;&gt;Node30</title>
<path fill="none" stroke="#63b8ff" d="M2028.35,-223.09C2020.7,-213.85 2012.02,-203.36 2005.23,-195.16"/>
<polygon fill="#63b8ff" stroke="#63b8ff" points="2025.66,-225.33 2034.74,-230.8 2031.06,-220.86 2025.66,-225.33"/>
</g>
<!-- Node31 -->
<g id="node30" class="node">
<title>Node31</title>
<g id="a_node30"><a xlink:href="MatrixPlotter_8cpp.html" target="_top" xlink:title=" ">
<polygon fill="white" stroke="#666666" points="2219.5,-189.5 2079.5,-189.5 2079.5,-170.5 2219.5,-170.5 2219.5,-189.5"/>
<text text-anchor="middle" x="2149.5" y="-177.5" font-family="Helvetica,sans-Serif" font-size="10.00">Plotting/MatrixPlotter.cpp</text>
</a>
</g>
</g>
<!-- Node29&#45;&gt;Node31 -->
<g id="edge35" class="edge">
<title>Node29&#45;&gt;Node31</title>
<path fill="none" stroke="#63b8ff" d="M2077.64,-225.65C2097.04,-213.6 2121.03,-198.69 2135.79,-189.52"/>
<polygon fill="#63b8ff" stroke="#63b8ff" points="2075.75,-222.7 2069.1,-230.95 2079.44,-228.65 2075.75,-222.7"/>
</g>
<!-- Node32 -->
<g id="node31" class="node">
<title>Node32</title>
<g id="a_node31"><a xlink:href="PlotLLH_8cpp.html" target="_top" xlink:title=" ">
<polygon fill="white" stroke="#666666" points="1769.5,-189.5 1655.5,-189.5 1655.5,-170.5 1769.5,-170.5 1769.5,-189.5"/>
<text text-anchor="middle" x="1712.5" y="-177.5" font-family="Helvetica,sans-Serif" font-size="10.00">Plotting/PlotLLH.cpp</text>
</a>
</g>
</g>
<!-- Node29&#45;&gt;Node32 -->
<g id="edge36" class="edge">
<title>Node29&#45;&gt;Node32</title>
<path fill="none" stroke="#63b8ff" d="M1977.84,-230.91C1888.14,-213.77 1864.01,-211.76 1778.5,-195 1769.88,-193.31 1760.64,-191.41 1751.9,-189.57"/>
<polygon fill="#63b8ff" stroke="#63b8ff" points="1977.43,-234.39 1987.91,-232.84 1978.75,-227.52 1977.43,-234.39"/>
</g>
<!-- Node33 -->
<g id="node32" class="node">
<title>Node33</title>
<g id="a_node32"><a xlink:href="plottingManager_8cpp.html" target="_top" xlink:title=" ">
<polygon fill="white" stroke="#666666" points="1907,-195 1788,-195 1788,-165 1907,-165 1907,-195"/>
<text text-anchor="start" x="1796" y="-183" font-family="Helvetica,sans-Serif" font-size="10.00">Plotting/plottingUtils</text>
<text text-anchor="middle" x="1847.5" y="-172" font-family="Helvetica,sans-Serif" font-size="10.00">/plottingManager.cpp</text>
</a>
</g>
</g>
<!-- Node29&#45;&gt;Node33 -->
<g id="edge37" class="edge">
<title>Node29&#45;&gt;Node33</title>
<path fill="none" stroke="#63b8ff" d="M1993.19,-227.86C1961.24,-217.58 1921.12,-204.68 1891.07,-195.01"/>
<polygon fill="#63b8ff" stroke="#63b8ff" points="1992.24,-231.23 2002.83,-230.95 1994.38,-224.56 1992.24,-231.23"/>
</g>
<!-- Node29&#45;&gt;Node34 -->
<g id="edge38" class="edge">
<title>Node29&#45;&gt;Node34</title>
<path fill="none" stroke="#63b8ff" d="M2110.4,-228.44C2158.49,-215.98 2222.43,-199.42 2260.63,-189.52"/>
<polygon fill="#63b8ff" stroke="#63b8ff" points="2109.51,-225.06 2100.71,-230.95 2111.26,-231.83 2109.51,-225.06"/>
</g>
<!-- Node36 -->
<g id="node35" class="node">
<title>Node36</title>
<g id="a_node35"><a xlink:href="AdaptiveMCMCHandler_8cpp.html" target="_top" xlink:title=" ">
<polygon fill="white" stroke="#666666" points="560.5,-321.5 352.5,-321.5 352.5,-302.5 560.5,-302.5 560.5,-321.5"/>
<text text-anchor="middle" x="456.5" y="-309.5" font-family="Helvetica,sans-Serif" font-size="10.00">Parameters/AdaptiveMCMCHandler.cpp</text>
</a>
</g>
</g>
<!-- Node35&#45;&gt;Node36 -->
<g id="edge41" class="edge">
<title>Node35&#45;&gt;Node36</title>
<path fill="none" stroke="#63b8ff" d="M545.41,-358.23C523.39,-347.03 492.51,-331.32 473.54,-321.67"/>
<polygon fill="#63b8ff" stroke="#63b8ff" points="544.03,-361.45 554.53,-362.87 547.21,-355.21 544.03,-361.45"/>
</g>
<!-- Node35&#45;&gt;Node37 -->
<g id="edge42" class="edge">
<title>Node35&#45;&gt;Node37</title>
<path fill="none" stroke="#63b8ff" d="M593.11,-357.29C607.05,-348.13 625.11,-336.26 639.03,-327.11"/>
<polygon fill="#63b8ff" stroke="#63b8ff" points="591.07,-354.45 584.63,-362.87 594.91,-360.3 591.07,-354.45"/>
</g>
<!-- Node37&#45;&gt;Node6 -->
<g id="edge43" class="edge">
<title>Node37&#45;&gt;Node6</title>
<path fill="none" stroke="#63b8ff" d="M752.79,-296.81C855.78,-281.12 964.13,-264.79 1027.73,-255.23"/>
<polygon fill="#63b8ff" stroke="#63b8ff" points="752.2,-293.36 742.84,-298.32 753.25,-300.28 752.2,-293.36"/>
</g>
<!-- Node38 -->
<g id="node37" class="node">
<title>Node38</title>
<g id="a_node37"><a xlink:href="ParameterHandlerBase_8cpp.html" target="_top" xlink:title=" ">
<polygon fill="white" stroke="#666666" points="505.5,-261 341.5,-261 341.5,-231 505.5,-231 505.5,-261"/>
<text text-anchor="start" x="349.5" y="-249" font-family="Helvetica,sans-Serif" font-size="10.00">Parameters/ParameterHandler</text>
<text text-anchor="middle" x="423.5" y="-238" font-family="Helvetica,sans-Serif" font-size="10.00">Base.cpp</text>
</a>
</g>
</g>
<!-- Node37&#45;&gt;Node38 -->
<g id="edge44" class="edge">
<title>Node37&#45;&gt;Node38</title>
<path fill="none" stroke="#63b8ff" d="M598.49,-294.25C560.2,-283.91 511.64,-270.8 475.39,-261.01"/>
<polygon fill="#63b8ff" stroke="#63b8ff" points="597.92,-297.73 608.49,-296.95 599.75,-290.97 597.92,-297.73"/>
</g>
<!-- Node39 -->
<g id="node38" class="node">
<title>Node39</title>
<g id="a_node38"><a xlink:href="ParameterHandlerGeneric_8h.html" target="_top" xlink:title=" ">
<polygon fill="white" stroke="#666666" points="687.5,-261 523.5,-261 523.5,-231 687.5,-231 687.5,-261"/>
<text text-anchor="start" x="531.5" y="-249" font-family="Helvetica,sans-Serif" font-size="10.00">Parameters/ParameterHandler</text>
<text text-anchor="middle" x="605.5" y="-238" font-family="Helvetica,sans-Serif" font-size="10.00">Generic.h</text>
</a>
</g>
</g>
<!-- Node37&#45;&gt;Node39 -->
<g id="edge45" class="edge">
<title>Node37&#45;&gt;Node39</title>
<path fill="none" stroke="#63b8ff" d="M641.67,-289.09C633.73,-279.85 624.72,-269.36 617.67,-261.16"/>
<polygon fill="#63b8ff" stroke="#63b8ff" points="639.12,-291.49 648.29,-296.8 644.43,-286.93 639.12,-291.49"/>
</g>
<!-- Node52 -->
<g id="node46" class="node">
<title>Node52</title>
<g id="a_node46"><a xlink:href="parameters_8cpp.html" target="_top" xlink:title=" ">
<polygon fill="white" stroke="#666666" points="850.5,-189.5 720.5,-189.5 720.5,-170.5 850.5,-170.5 850.5,-189.5"/>
<text text-anchor="middle" x="785.5" y="-177.5" font-family="Helvetica,sans-Serif" font-size="10.00">python/parameters.cpp</text>
</a>
</g>
</g>
<!-- Node37&#45;&gt;Node52 -->
<g id="edge58" class="edge">
<title>Node37&#45;&gt;Node52</title>
<path fill="none" stroke="#63b8ff" d="M681.07,-289.61C708.98,-260.58 757.62,-210 777.09,-189.75"/>
<polygon fill="#63b8ff" stroke="#63b8ff" points="678.52,-287.21 674.12,-296.84 683.57,-292.06 678.52,-287.21"/>
</g>
<!-- Node39&#45;&gt;Node10 -->
<g id="edge46" class="edge">
<title>Node39&#45;&gt;Node10</title>
<path fill="none" stroke="#63b8ff" d="M633.14,-225.01C645.55,-215.94 660.34,-205.03 673.5,-195 690.61,-181.96 692.21,-174.53 711.5,-165 819.25,-111.75 958.26,-85.14 1037.89,-73.41"/>
<polygon fill="#63b8ff" stroke="#63b8ff" points="631,-222.23 624.98,-230.95 635.12,-227.89 631,-222.23"/>
</g>
<!-- Node39&#45;&gt;Node18 -->
<g id="edge47" class="edge">
<title>Node39&#45;&gt;Node18</title>
<path fill="none" stroke="#63b8ff" d="M531,-226.96C515.42,-219.63 500.89,-209.37 491.5,-195 484.21,-183.84 484.65,-176.44 491.5,-165 502.33,-146.9 523.32,-135.74 541.48,-129.13"/>
<polygon fill="#63b8ff" stroke="#63b8ff" points="529.7,-230.21 540.27,-230.94 532.46,-223.78 529.7,-230.21"/>
</g>
<!-- Node40 -->
<g id="node39" class="node">
<title>Node40</title>
<g id="a_node39"><a xlink:href="ParameterHandlerGeneric_8cpp.html" target="_top" xlink:title=" ">
<polygon fill="white" stroke="#666666" points="664.5,-195 500.5,-195 500.5,-165 664.5,-165 664.5,-195"/>
<text text-anchor="start" x="508.5" y="-183" font-family="Helvetica,sans-Serif" font-size="10.00">Parameters/ParameterHandler</text>
<text text-anchor="middle" x="582.5" y="-172" font-family="Helvetica,sans-Serif" font-size="10.00">Generic.cpp</text>
</a>
</g>
</g>
<!-- Node39&#45;&gt;Node40 -->
<g id="edge48" class="edge">
<title>Node39&#45;&gt;Node40</title>
<path fill="none" stroke="#63b8ff" d="M596.91,-221.11C593.78,-212.38 590.33,-202.78 587.59,-195.16"/>
<polygon fill="#63b8ff" stroke="#63b8ff" points="593.72,-222.57 600.4,-230.8 600.31,-220.2 593.72,-222.57"/>
</g>
<!-- Node41 -->
<g id="node40" class="node">
<title>Node41</title>
<g id="a_node40"><a xlink:href="SampleHandlerFD_8h.html" target="_top" xlink:title=" ">
<polygon fill="white" stroke="#666666" points="298,-189.5 139,-189.5 139,-170.5 298,-170.5 298,-189.5"/>
<text text-anchor="middle" x="218.5" y="-177.5" font-family="Helvetica,sans-Serif" font-size="10.00">Samples/SampleHandlerFD.h</text>
</a>
</g>
</g>
<!-- Node39&#45;&gt;Node41 -->
<g id="edge49" class="edge">
<title>Node39&#45;&gt;Node41</title>
<path fill="none" stroke="#63b8ff" d="M513.36,-229.76C437.23,-217.17 331.93,-199.76 269.95,-189.51"/>
<polygon fill="#63b8ff" stroke="#63b8ff" points="512.99,-233.25 523.43,-231.43 514.13,-226.34 512.99,-233.25"/>
</g>
<!-- Node44 -->
<g id="node43" class="node">
<title>Node44</title>
<g id="a_node43"><a xlink:href="SplineStructs_8h.html" target="_top" xlink:title="Contains structures and helper functions for handling spline representations of systematic parameters...">
<polygon fill="white" stroke="#666666" points="444.5,-189.5 316.5,-189.5 316.5,-170.5 444.5,-170.5 444.5,-189.5"/>
<text text-anchor="middle" x="380.5" y="-177.5" font-family="Helvetica,sans-Serif" font-size="10.00">Splines/SplineStructs.h</text>
</a>
</g>
</g>
<!-- Node39&#45;&gt;Node44 -->
<g id="edge53" class="edge">
<title>Node39&#45;&gt;Node44</title>
<path fill="none" stroke="#63b8ff" d="M546.46,-228.21C502.76,-215.78 445.03,-199.35 410.44,-189.52"/>
<polygon fill="#63b8ff" stroke="#63b8ff" points="545.55,-231.59 556.12,-230.95 547.46,-224.85 545.55,-231.59"/>
</g>
<!-- Node39&#45;&gt;Node52 -->
<g id="edge57" class="edge">
<title>Node39&#45;&gt;Node52</title>
<path fill="none" stroke="#63b8ff" d="M654.5,-227.58C689.24,-215.23 734.34,-199.19 761.55,-189.52"/>
<polygon fill="#63b8ff" stroke="#63b8ff" points="653.25,-224.31 645,-230.95 655.6,-230.9 653.25,-224.31"/>
</g>
<!-- Node41&#45;&gt;Node18 -->
<g id="edge50" class="edge">
<title>Node41&#45;&gt;Node18</title>
<path fill="none" stroke="#63b8ff" d="M280.5,-168.81C349.11,-157.54 458.44,-139.57 522.67,-129.02"/>
<polygon fill="#63b8ff" stroke="#63b8ff" points="279.57,-165.42 270.27,-170.49 280.7,-172.33 279.57,-165.42"/>
</g>
<!-- Node42 -->
<g id="node41" class="node">
<title>Node42</title>
<g id="a_node41"><a xlink:href="SampleHandlerFD_8cpp.html" target="_top" xlink:title=" ">
<polygon fill="white" stroke="#666666" points="303.5,-129 133.5,-129 133.5,-110 303.5,-110 303.5,-129"/>
<text text-anchor="middle" x="218.5" y="-117" font-family="Helvetica,sans-Serif" font-size="10.00">Samples/SampleHandlerFD.cpp</text>
</a>
</g>
</g>
<!-- Node41&#45;&gt;Node42 -->
<g id="edge51" class="edge">
<title>Node41&#45;&gt;Node42</title>
<path fill="none" stroke="#63b8ff" d="M218.5,-160.16C218.5,-149.74 218.5,-137.3 218.5,-129.17"/>
<polygon fill="#63b8ff" stroke="#63b8ff" points="215,-160.37 218.5,-170.37 222,-160.37 215,-160.37"/>
</g>
<!-- Node43 -->
<g id="node42" class="node">
<title>Node43</title>
<g id="a_node42"><a xlink:href="samples_8cpp.html" target="_top" xlink:title=" ">
<polygon fill="white" stroke="#666666" points="115,-129 0,-129 0,-110 115,-110 115,-129"/>
<text text-anchor="middle" x="57.5" y="-117" font-family="Helvetica,sans-Serif" font-size="10.00">python/samples.cpp</text>
</a>
</g>
</g>
<!-- Node41&#45;&gt;Node43 -->
<g id="edge52" class="edge">
<title>Node41&#45;&gt;Node43</title>
<path fill="none" stroke="#63b8ff" d="M185.54,-167.02C154.41,-155.71 108.5,-139.03 80.94,-129.02"/>
<polygon fill="#63b8ff" stroke="#63b8ff" points="184.5,-170.37 195.09,-170.49 186.89,-163.79 184.5,-170.37"/>
</g>
<!-- Node45 -->
<g id="node44" class="node">
<title>Node45</title>
<g id="a_node44"><a xlink:href="SplineBase_8h.html" target="_top" xlink:title=" ">
<polygon fill="#fff0f0" stroke="red" points="439.5,-129 321.5,-129 321.5,-110 439.5,-110 439.5,-129"/>
<text text-anchor="middle" x="380.5" y="-117" font-family="Helvetica,sans-Serif" font-size="10.00">Splines/SplineBase.h</text>
</a>
</g>
</g>
<!-- Node44&#45;&gt;Node45 -->
<g id="edge54" class="edge">
<title>Node44&#45;&gt;Node45</title>
<path fill="none" stroke="#63b8ff" d="M380.5,-160.16C380.5,-149.74 380.5,-137.3 380.5,-129.17"/>
<polygon fill="#63b8ff" stroke="#63b8ff" points="377,-160.37 380.5,-170.37 384,-160.37 377,-160.37"/>
</g>
<!-- Node51 -->
<g id="node45" class="node">
<title>Node51</title>
<g id="a_node45"><a xlink:href="splines_8cpp.html" target="_top" xlink:title=" ">
<polygon fill="white" stroke="#666666" points="478.5,-74 370.5,-74 370.5,-55 478.5,-55 478.5,-74"/>
<text text-anchor="middle" x="424.5" y="-62" font-family="Helvetica,sans-Serif" font-size="10.00">python/splines.cpp</text>
</a>
</g>
</g>
<!-- Node44&#45;&gt;Node51 -->
<g id="edge56" class="edge">
<title>Node44&#45;&gt;Node51</title>
<path fill="none" stroke="#63b8ff" d="M409.89,-165.57C424.34,-157.26 440.36,-145.09 448.5,-129 457.97,-110.28 442.67,-86.89 432.46,-74.38"/>
<polygon fill="#63b8ff" stroke="#63b8ff" points="407.89,-162.67 400.72,-170.47 411.19,-168.84 407.89,-162.67"/>
</g>
<!-- Node45&#45;&gt;Node51 -->
<g id="edge55" class="edge">
<title>Node45&#45;&gt;Node51</title>
<path fill="none" stroke="#63b8ff" d="M394.23,-101.96C401.9,-92.72 411.13,-81.6 417.37,-74.09"/>
<polygon fill="#63b8ff" stroke="#63b8ff" points="391.46,-99.82 387.77,-109.75 396.85,-104.29 391.46,-99.82"/>
</g>
<!-- Node53&#45;&gt;Node37 -->
<g id="edge61" class="edge">
<title>Node53&#45;&gt;Node37</title>
<path fill="none" stroke="#63b8ff" d="M768.12,-358.95C746.18,-349.59 716.19,-336.78 693.44,-327.06"/>
<polygon fill="#63b8ff" stroke="#63b8ff" points="767.01,-362.29 777.58,-362.99 769.76,-355.85 767.01,-362.29"/>
</g>
<!-- Node54 -->
<g id="node48" class="node">
<title>Node54</title>
<g id="a_node48"><a xlink:href="PCAHandler_8cpp.html" target="_top" xlink:title=" ">
<polygon fill="white" stroke="#666666" points="912.5,-321.5 760.5,-321.5 760.5,-302.5 912.5,-302.5 912.5,-321.5"/>
<text text-anchor="middle" x="836.5" y="-309.5" font-family="Helvetica,sans-Serif" font-size="10.00">Parameters/PCAHandler.cpp</text>
</a>
</g>
</g>
<!-- Node53&#45;&gt;Node54 -->
<g id="edge60" class="edge">
<title>Node53&#45;&gt;Node54</title>
<path fill="none" stroke="#63b8ff" d="M808.96,-354.3C816.11,-343.58 825.01,-330.23 830.72,-321.67"/>
<polygon fill="#63b8ff" stroke="#63b8ff" points="805.89,-352.61 803.25,-362.87 811.71,-356.49 805.89,-352.61"/>
</g>
<!-- Node55&#45;&gt;Node37 -->
<g id="edge64" class="edge">
<title>Node55&#45;&gt;Node37</title>
<path fill="none" stroke="#63b8ff" d="M912.92,-361.1C863.09,-351.6 789.04,-337.49 734.01,-327.01"/>
<polygon fill="#63b8ff" stroke="#63b8ff" points="912.38,-364.56 922.86,-362.99 913.69,-357.68 912.38,-364.56"/>
</g>
<!-- Node56 -->
<g id="node50" class="node">
<title>Node56</title>
<g id="a_node50"><a xlink:href="ParameterTunes_8cpp.html" target="_top" xlink:title=" ">
<polygon fill="white" stroke="#666666" points="1104,-321.5 931,-321.5 931,-302.5 1104,-302.5 1104,-321.5"/>
<text text-anchor="middle" x="1017.5" y="-309.5" font-family="Helvetica,sans-Serif" font-size="10.00">Parameters/ParameterTunes.cpp</text>
</a>
</g>
</g>
<!-- Node55&#45;&gt;Node56 -->
<g id="edge65" class="edge">
<title>Node55&#45;&gt;Node56</title>
<path fill="none" stroke="#63b8ff" d="M981.64,-354.95C990.9,-344.12 1002.62,-330.41 1010.09,-321.67"/>
<polygon fill="#63b8ff" stroke="#63b8ff" points="978.71,-352.99 974.88,-362.87 984.04,-357.54 978.71,-352.99"/>
</g>
</g>
</svg>
