<?xml version="1.0" encoding="UTF-8" standalone="no"?>
<!DOCTYPE svg PUBLIC "-//W3C//DTD SVG 1.1//EN"
 "http://www.w3.org/Graphics/SVG/1.1/DTD/svg11.dtd">
<!-- Generated by graphviz version 2.43.0 (0)
 -->
<!-- Title: Diagnostics/PlotMCMCDiag.cpp Pages: 1 -->
<!--zoomable 313 -->
<svg id="main" version="1.1" xmlns="http://www.w3.org/2000/svg" xmlns:xlink="http://www.w3.org/1999/xlink" xml:space="preserve" onload="init(evt)">
<style type="text/css"><![CDATA[
.edge:hover path { stroke: red; }
.edge:hover polygon { stroke: red; fill: red; }
]]></style>
<script type="text/javascript"><![CDATA[
var edges = document.getElementsByTagName('g');
if (edges && edges.length) {
  for (var i=0;i<edges.length;i++) {
    if (edges[i].id.substr(0,4)=='edge') {
      edges[i].setAttribute('class','edge');
    }
  }
}
]]></script>
        <defs>
                <circle id="rim" cx="0" cy="0" r="7"/>
                <circle id="rim2" cx="0" cy="0" r="3.5"/>
                <g id="zoomPlus">
                        <use xlink:href="#rim" fill="#404040">
                                <set attributeName="fill" to="#808080" begin="zoomplus.mouseover" end="zoomplus.mouseout"/>
                        </use>
                        <path d="M-4,0h8M0,-4v8" fill="none" stroke="white" stroke-width="1.5" pointer-events="none"/>
                </g>
                <g id="zoomMin">
                        <use xlink:href="#rim" fill="#404040">
                                <set attributeName="fill" to="#808080" begin="zoomminus.mouseover" end="zoomminus.mouseout"/>
                        </use>
                        <path d="M-4,0h8" fill="none" stroke="white" stroke-width="1.5" pointer-events="none"/>
                </g>
                <g id="dirArrow">
                        <path fill="none" stroke="white" stroke-width="1.5" d="M0,-3.0v7 M-2.5,-0.5L0,-3.0L2.5,-0.5"/>
                </g>
               <g id="resetDef">
                       <use xlink:href="#rim2" fill="#404040">
                               <set attributeName="fill" to="#808080" begin="reset.mouseover" end="reset.mouseout"/>
                       </use>
               </g>
        </defs>

<script type="text/javascript">
var viewWidth = 2969;
var viewHeight = 313;
var sectionId = 'dynsection-0';
</script>
<script xlink:href="svgpan.js"/>
<svg id="graph" class="graph">
<g id="viewport">
<title>Diagnostics/PlotMCMCDiag.cpp</title>
<!-- Node1 -->
<g id="node1" class="node">
<title>Node1</title>
<g id="a_node1"><a xlink:title="KS: This script is used to analyse output form DiagMCMC.">
<polygon fill="#999999" stroke="#666666" points="2847.3,-305 2677.3,-305 2677.3,-286 2847.3,-286 2847.3,-305"/>
<text text-anchor="middle" x="2762.3" y="-293" font-family="Helvetica,sans-Serif" font-size="10.00">Diagnostics/PlotMCMCDiag.cpp</text>
</a>
</g>
</g>
<!-- Node2 -->
<g id="node2" class="node">
<title>Node2</title>
<g id="a_node2"><a xlink:href="MCMCProcessor_8h.html" target="_top" xlink:title=" ">
<polygon fill="white" stroke="#666666" points="1735.8,-250 1598.8,-250 1598.8,-231 1735.8,-231 1735.8,-250"/>
<text text-anchor="middle" x="1667.3" y="-238" font-family="Helvetica,sans-Serif" font-size="10.00">Fitters/MCMCProcessor.h</text>
</a>
</g>
</g>
<!-- Node1&#45;&gt;Node2 -->
<g id="edge1" class="edge">
<title>Node1&#45;&gt;Node2</title>
<path fill="none" stroke="#63b8ff" d="M2677.29,-290.39C2470.96,-280.4 1945.98,-254.99 1746.16,-245.32"/>
<polygon fill="#63b8ff" stroke="#63b8ff" points="1746.19,-241.81 1736.03,-244.83 1745.85,-248.81 1746.19,-241.81"/>
</g>
<!-- Node46 -->
<g id="node16" class="node">
<title>Node46</title>
<g id="a_node16"><a xlink:href="HistogramUtils_8h.html" target="_top" xlink:title=" ">
<polygon fill="white" stroke="#666666" points="2438.3,-129 2294.3,-129 2294.3,-110 2438.3,-110 2438.3,-129"/>
<text text-anchor="middle" x="2366.3" y="-117" font-family="Helvetica,sans-Serif" font-size="10.00">Samples/HistogramUtils.h</text>
</a>
</g>
</g>
<!-- Node1&#45;&gt;Node46 -->
<g id="edge68" class="edge">
<title>Node1&#45;&gt;Node46</title>
<path fill="none" stroke="#63b8ff" d="M2762.63,-285.87C2763.04,-262.3 2760.61,-196.51 2723.3,-165 2683.05,-131.02 2540.85,-122.5 2448.52,-120.64"/>
<polygon fill="#63b8ff" stroke="#63b8ff" points="2448.42,-117.14 2438.36,-120.46 2448.29,-124.14 2448.42,-117.14"/>
</g>
<!-- Node48 -->
<g id="node18" class="node">
<title>Node48</title>
<g id="a_node18"><a xlink:title=" ">
<polygon fill="#e0e0e0" stroke="#999999" points="2574.8,-74 2447.8,-74 2447.8,-55 2574.8,-55 2574.8,-74"/>
<text text-anchor="middle" x="2511.3" y="-62" font-family="Helvetica,sans-Serif" font-size="10.00">TGraphAsymmErrors.h</text>
</a>
</g>
</g>
<!-- Node1&#45;&gt;Node48 -->
<g id="edge70" class="edge">
<title>Node1&#45;&gt;Node48</title>
<path fill="none" stroke="#63b8ff" d="M2764.37,-285.93C2769.36,-263.06 2779.4,-199.98 2748.3,-165 2703.17,-114.25 2627.93,-88.67 2574.34,-76.28"/>
<polygon fill="#63b8ff" stroke="#63b8ff" points="2574.78,-72.79 2564.26,-74.04 2573.27,-79.62 2574.78,-72.79"/>
</g>
<!-- Node68 -->
<g id="node40" class="node">
<title>Node68</title>
<g id="a_node40"><a xlink:title=" ">
<polygon fill="#e0e0e0" stroke="#999999" points="2714.8,-189.5 2647.8,-189.5 2647.8,-170.5 2714.8,-170.5 2714.8,-189.5"/>
<text text-anchor="middle" x="2681.3" y="-177.5" font-family="Helvetica,sans-Serif" font-size="10.00">TLegend.h</text>
</a>
</g>
</g>
<!-- Node1&#45;&gt;Node68 -->
<g id="edge71" class="edge">
<title>Node1&#45;&gt;Node68</title>
<path fill="none" stroke="#63b8ff" d="M2755.64,-285.69C2748.92,-276.76 2738.28,-262.5 2729.3,-250 2716.71,-232.47 2702.65,-212.17 2693.01,-198.15"/>
<polygon fill="#63b8ff" stroke="#63b8ff" points="2695.67,-195.83 2687.13,-189.56 2689.89,-199.78 2695.67,-195.83"/>
</g>
<!-- Node77 -->
<g id="node49" class="node">
<title>Node77</title>
<g id="a_node49"><a xlink:title=" ">
<polygon fill="#e0e0e0" stroke="#999999" points="2875.3,-250 2809.3,-250 2809.3,-231 2875.3,-231 2875.3,-250"/>
<text text-anchor="middle" x="2842.3" y="-238" font-family="Helvetica,sans-Serif" font-size="10.00">THStack.h</text>
</a>
</g>
</g>
<!-- Node1&#45;&gt;Node77 -->
<g id="edge69" class="edge">
<title>Node1&#45;&gt;Node77</title>
<path fill="none" stroke="#63b8ff" d="M2775.15,-285.98C2787.44,-277.84 2806.2,-265.41 2820.77,-255.76"/>
<polygon fill="#63b8ff" stroke="#63b8ff" points="2822.81,-258.61 2829.21,-250.17 2818.94,-252.78 2822.81,-258.61"/>
</g>
<!-- Node78 -->
<g id="node50" class="node">
<title>Node78</title>
<g id="a_node50"><a xlink:title=" ">
<polygon fill="#e0e0e0" stroke="#999999" points="2961.3,-250 2893.3,-250 2893.3,-231 2961.3,-231 2961.3,-250"/>
<text text-anchor="middle" x="2927.3" y="-238" font-family="Helvetica,sans-Serif" font-size="10.00">TSystem.h</text>
</a>
</g>
</g>
<!-- Node1&#45;&gt;Node78 -->
<g id="edge72" class="edge">
<title>Node1&#45;&gt;Node78</title>
<path fill="none" stroke="#63b8ff" d="M2788.81,-285.98C2816.51,-277.09 2860.16,-263.07 2891.04,-253.15"/>
<polygon fill="#63b8ff" stroke="#63b8ff" points="2892.13,-256.47 2900.58,-250.08 2889.99,-249.81 2892.13,-256.47"/>
</g>
<!-- Node3 -->
<g id="node3" class="node">
<title>Node3</title>
<g id="a_node3"><a xlink:title=" ">
<polygon fill="#e0e0e0" stroke="#999999" points="2526.8,-189.5 2467.8,-189.5 2467.8,-170.5 2526.8,-170.5 2526.8,-189.5"/>
<text text-anchor="middle" x="2497.3" y="-177.5" font-family="Helvetica,sans-Serif" font-size="10.00">complex</text>
</a>
</g>
</g>
<!-- Node2&#45;&gt;Node3 -->
<g id="edge2" class="edge">
<title>Node2&#45;&gt;Node3</title>
<path fill="none" stroke="#63b8ff" d="M1735.84,-238.18C1901.7,-234.56 2321.06,-222.88 2458.3,-195 2461.3,-194.39 2464.39,-193.59 2467.44,-192.69"/>
<polygon fill="#63b8ff" stroke="#63b8ff" points="2468.57,-196.01 2476.97,-189.55 2466.38,-189.36 2468.57,-196.01"/>
</g>
<!-- Node4 -->
<g id="node4" class="node">
<title>Node4</title>
<g id="a_node4"><a xlink:title=" ">
<polygon fill="#e0e0e0" stroke="#999999" points="2591.3,-189.5 2545.3,-189.5 2545.3,-170.5 2591.3,-170.5 2591.3,-189.5"/>
<text text-anchor="middle" x="2568.3" y="-177.5" font-family="Helvetica,sans-Serif" font-size="10.00">cstdio</text>
</a>
</g>
</g>
<!-- Node2&#45;&gt;Node4 -->
<g id="edge3" class="edge">
<title>Node2&#45;&gt;Node4</title>
<path fill="none" stroke="#63b8ff" d="M1736.04,-239.06C1913.51,-237.44 2383.75,-229.88 2535.3,-195 2537.46,-194.5 2539.67,-193.87 2541.86,-193.15"/>
<polygon fill="#63b8ff" stroke="#63b8ff" points="2543.11,-196.42 2551.21,-189.59 2540.62,-189.88 2543.11,-196.42"/>
</g>
<!-- Node5 -->
<g id="node5" class="node">
<title>Node5</title>
<g id="a_node5"><a xlink:href="StatisticalUtils_8h.html" target="_top" xlink:title="Utility functions for statistical interpretations in MaCh3.">
<polygon fill="white" stroke="#666666" points="1674.8,-189.5 1543.8,-189.5 1543.8,-170.5 1674.8,-170.5 1674.8,-189.5"/>
<text text-anchor="middle" x="1609.3" y="-177.5" font-family="Helvetica,sans-Serif" font-size="10.00">Fitters/StatisticalUtils.h</text>
</a>
</g>
</g>
<!-- Node2&#45;&gt;Node5 -->
<g id="edge4" class="edge">
<title>Node2&#45;&gt;Node5</title>
<path fill="none" stroke="#63b8ff" d="M1658.74,-230.87C1649.91,-221.97 1635.95,-207.89 1625.11,-196.95"/>
<polygon fill="#63b8ff" stroke="#63b8ff" points="1627.42,-194.3 1617.89,-189.67 1622.45,-199.23 1627.42,-194.3"/>
</g>
<!-- Node29 -->
<g id="node15" class="node">
<title>Node29</title>
<g id="a_node15"><a xlink:title=" ">
<polygon fill="#e0e0e0" stroke="#999999" points="723.8,-19 674.8,-19 674.8,0 723.8,0 723.8,-19"/>
<text text-anchor="middle" x="699.3" y="-7" font-family="Helvetica,sans-Serif" font-size="10.00">TFile.h</text>
</a>
</g>
</g>
<!-- Node2&#45;&gt;Node29 -->
<g id="edge46" class="edge">
<title>Node2&#45;&gt;Node29</title>
<path fill="none" stroke="#63b8ff" d="M1598.68,-239.34C1299.64,-238.44 121.99,-232.52 53.3,-195 15.78,-174.51 -15.32,-145.63 8.3,-110 42.95,-57.71 77.35,-69.89 138.3,-55 239,-30.39 558.25,-16 664.51,-11.8"/>
<polygon fill="#63b8ff" stroke="#63b8ff" points="664.83,-15.29 674.69,-11.4 664.56,-8.3 664.83,-15.29"/>
</g>
<!-- Node2&#45;&gt;Node46 -->
<g id="edge27" class="edge">
<title>Node2&#45;&gt;Node46</title>
<path fill="none" stroke="#63b8ff" d="M1736.01,-238.79C1946.6,-236.27 2570.56,-226.19 2600.3,-195 2649.61,-143.28 2534.04,-127.35 2448.35,-122.51"/>
<polygon fill="#63b8ff" stroke="#63b8ff" points="2448.5,-119.02 2438.33,-121.99 2448.13,-126.01 2448.5,-119.02"/>
</g>
<!-- Node49 -->
<g id="node19" class="node">
<title>Node49</title>
<g id="a_node19"><a xlink:title=" ">
<polygon fill="#e0e0e0" stroke="#999999" points="232.3,-74 154.3,-74 154.3,-55 232.3,-55 232.3,-74"/>
<text text-anchor="middle" x="193.3" y="-62" font-family="Helvetica,sans-Serif" font-size="10.00">TRandom3.h</text>
</a>
</g>
</g>
<!-- Node2&#45;&gt;Node49 -->
<g id="edge62" class="edge">
<title>Node2&#45;&gt;Node49</title>
<path fill="none" stroke="#63b8ff" d="M1598.77,-238.62C1365.1,-235.38 600.52,-222.88 356.3,-195 204.66,-177.69 116.29,-246.84 19.3,-129 -16.9,-85.02 80.3,-71.5 143.63,-67.34"/>
<polygon fill="#63b8ff" stroke="#63b8ff" points="144.09,-70.82 153.86,-66.73 143.67,-63.84 144.09,-70.82"/>
</g>
<!-- Node50 -->
<g id="node20" class="node">
<title>Node50</title>
<g id="a_node20"><a xlink:title=" ">
<polygon fill="#e0e0e0" stroke="#999999" points="1481.8,-129 1414.8,-129 1414.8,-110 1481.8,-110 1481.8,-129"/>
<text text-anchor="middle" x="1448.3" y="-117" font-family="Helvetica,sans-Serif" font-size="10.00">TCanvas.h</text>
</a>
</g>
</g>
<!-- Node2&#45;&gt;Node50 -->
<g id="edge48" class="edge">
<title>Node2&#45;&gt;Node50</title>
<path fill="none" stroke="#63b8ff" d="M1599.32,-230.93C1568.63,-224.63 1533.11,-213.74 1505.3,-195 1483.73,-180.47 1466.89,-155.09 1457.28,-138.04"/>
<polygon fill="#63b8ff" stroke="#63b8ff" points="1460.29,-136.25 1452.47,-129.11 1454.13,-139.57 1460.29,-136.25"/>
</g>
<!-- Node51 -->
<g id="node21" class="node">
<title>Node51</title>
<g id="a_node21"><a xlink:title=" ">
<polygon fill="#e0e0e0" stroke="#999999" points="1552.3,-129 1500.3,-129 1500.3,-110 1552.3,-110 1552.3,-129"/>
<text text-anchor="middle" x="1526.3" y="-117" font-family="Helvetica,sans-Serif" font-size="10.00">TLine.h</text>
</a>
</g>
</g>
<!-- Node2&#45;&gt;Node51 -->
<g id="edge49" class="edge">
<title>Node2&#45;&gt;Node51</title>
<path fill="none" stroke="#63b8ff" d="M1614.68,-230.96C1575.73,-223.45 1527.41,-211.17 1515.3,-195 1503.09,-178.71 1509.8,-154.68 1516.93,-138.35"/>
<polygon fill="#63b8ff" stroke="#63b8ff" points="1520.1,-139.84 1521.26,-129.31 1513.78,-136.82 1520.1,-139.84"/>
</g>
<!-- Node52 -->
<g id="node22" class="node">
<title>Node52</title>
<g id="a_node22"><a xlink:title=" ">
<polygon fill="#e0e0e0" stroke="#999999" points="1629.8,-129 1570.8,-129 1570.8,-110 1629.8,-110 1629.8,-129"/>
<text text-anchor="middle" x="1600.3" y="-117" font-family="Helvetica,sans-Serif" font-size="10.00">TROOT.h</text>
</a>
</g>
</g>
<!-- Node2&#45;&gt;Node52 -->
<g id="edge60" class="edge">
<title>Node2&#45;&gt;Node52</title>
<path fill="none" stroke="#63b8ff" d="M1598.48,-235.29C1570.83,-229.8 1541.48,-218.35 1524.3,-195 1516.39,-184.26 1517.67,-176.57 1524.3,-165 1532.66,-150.42 1547.85,-140.16 1562.46,-133.19"/>
<polygon fill="#63b8ff" stroke="#63b8ff" points="1564.14,-136.28 1571.91,-129.08 1561.34,-129.86 1564.14,-136.28"/>
</g>
<!-- Node53 -->
<g id="node23" class="node">
<title>Node53</title>
<g id="a_node23"><a xlink:title=" ">
<polygon fill="#e0e0e0" stroke="#999999" points="1704.3,-129 1648.3,-129 1648.3,-110 1704.3,-110 1704.3,-129"/>
<text text-anchor="middle" x="1676.3" y="-117" font-family="Helvetica,sans-Serif" font-size="10.00">TStyle.h</text>
</a>
</g>
</g>
<!-- Node2&#45;&gt;Node53 -->
<g id="edge55" class="edge">
<title>Node2&#45;&gt;Node53</title>
<path fill="none" stroke="#63b8ff" d="M1617.28,-230.91C1569.66,-220.46 1508.76,-199.77 1534.3,-165 1540.64,-156.36 1598.42,-140.23 1638.29,-129.94"/>
<polygon fill="#63b8ff" stroke="#63b8ff" points="1639.18,-133.33 1648,-127.46 1637.45,-126.54 1639.18,-133.33"/>
</g>
<!-- Node54 -->
<g id="node24" class="node">
<title>Node54</title>
<g id="a_node24"><a xlink:href="ParameterHandlerUtils_8h.html" target="_top" xlink:title=" ">
<polygon fill="#fff0f0" stroke="red" points="816.3,-195 652.3,-195 652.3,-165 816.3,-165 816.3,-195"/>
<text text-anchor="start" x="660.3" y="-183" font-family="Helvetica,sans-Serif" font-size="10.00">Parameters/ParameterHandler</text>
<text text-anchor="middle" x="734.3" y="-172" font-family="Helvetica,sans-Serif" font-size="10.00">Utils.h</text>
</a>
</g>
</g>
<!-- Node2&#45;&gt;Node54 -->
<g id="edge28" class="edge">
<title>Node2&#45;&gt;Node54</title>
<path fill="none" stroke="#63b8ff" d="M1598.69,-235.2C1433.5,-224.84 1013.54,-198.51 826.55,-186.78"/>
<polygon fill="#63b8ff" stroke="#63b8ff" points="826.66,-183.28 816.46,-186.15 826.23,-190.27 826.66,-183.28"/>
</g>
<!-- Node58 -->
<g id="node28" class="node">
<title>Node58</title>
<g id="a_node28"><a xlink:title=" ">
<polygon fill="#e0e0e0" stroke="#999999" points="98.3,-129 28.3,-129 28.3,-110 98.3,-110 98.3,-129"/>
<text text-anchor="middle" x="63.3" y="-117" font-family="Helvetica,sans-Serif" font-size="10.00">TVectorD.h</text>
</a>
</g>
</g>
<!-- Node2&#45;&gt;Node58 -->
<g id="edge53" class="edge">
<title>Node2&#45;&gt;Node58</title>
<path fill="none" stroke="#63b8ff" d="M1598.56,-238.42C1433.57,-235.4 1002.16,-225.05 643.3,-195 406.31,-175.15 347.52,-164 112.3,-129 111.02,-128.81 109.73,-128.61 108.43,-128.41"/>
<polygon fill="#63b8ff" stroke="#63b8ff" points="108.76,-124.92 98.33,-126.79 107.64,-131.83 108.76,-124.92"/>
</g>
<!-- Node42 -->
<g id="node31" class="node">
<title>Node42</title>
<g id="a_node31"><a xlink:title=" ">
<polygon fill="#e0e0e0" stroke="#999999" points="1017.3,-129 965.3,-129 965.3,-110 1017.3,-110 1017.3,-129"/>
<text text-anchor="middle" x="991.3" y="-117" font-family="Helvetica,sans-Serif" font-size="10.00">TTree.h</text>
</a>
</g>
</g>
<!-- Node2&#45;&gt;Node42 -->
<g id="edge59" class="edge">
<title>Node2&#45;&gt;Node42</title>
<path fill="none" stroke="#63b8ff" d="M1598.74,-240.4C1500.52,-240.13 1314.75,-233.83 1162.3,-195 1107.41,-181.02 1047.7,-151.37 1015.38,-133.98"/>
<polygon fill="#63b8ff" stroke="#63b8ff" points="1016.72,-130.73 1006.26,-129.01 1013.37,-136.87 1016.72,-130.73"/>
</g>
<!-- Node61 -->
<g id="node32" class="node">
<title>Node61</title>
<g id="a_node32"><a xlink:title=" ">
<polygon fill="#e0e0e0" stroke="#999999" points="1091.3,-129 1035.3,-129 1035.3,-110 1091.3,-110 1091.3,-129"/>
<text text-anchor="middle" x="1063.3" y="-117" font-family="Helvetica,sans-Serif" font-size="10.00">TMath.h</text>
</a>
</g>
</g>
<!-- Node2&#45;&gt;Node61 -->
<g id="edge65" class="edge">
<title>Node2&#45;&gt;Node61</title>
<path fill="none" stroke="#63b8ff" d="M1598.71,-237.4C1516.72,-233.66 1375.82,-223.34 1258.3,-195 1196.2,-180.02 1127.18,-150.36 1090.2,-133.33"/>
<polygon fill="#63b8ff" stroke="#63b8ff" points="1091.63,-130.13 1081.08,-129.08 1088.67,-136.47 1091.63,-130.13"/>
</g>
<!-- Node45 -->
<g id="node34" class="node">
<title>Node45</title>
<g id="a_node34"><a xlink:title=" ">
<polygon fill="#e0e0e0" stroke="#999999" points="1192.8,-129 1109.8,-129 1109.8,-110 1192.8,-110 1192.8,-129"/>
<text text-anchor="middle" x="1151.3" y="-117" font-family="Helvetica,sans-Serif" font-size="10.00">TStopwatch.h</text>
</a>
</g>
</g>
<!-- Node2&#45;&gt;Node45 -->
<g id="edge56" class="edge">
<title>Node2&#45;&gt;Node45</title>
<path fill="none" stroke="#63b8ff" d="M1598.75,-234.24C1533.97,-228.24 1434.46,-216.39 1350.3,-195 1287.61,-179.07 1217.44,-150.01 1179.45,-133.29"/>
<polygon fill="#63b8ff" stroke="#63b8ff" points="1180.62,-129.98 1170.06,-129.11 1177.78,-136.37 1180.62,-129.98"/>
</g>
<!-- Node64 -->
<g id="node36" class="node">
<title>Node64</title>
<g id="a_node36"><a xlink:title=" ">
<polygon fill="#e0e0e0" stroke="#999999" points="1329.8,-129 1210.8,-129 1210.8,-110 1329.8,-110 1329.8,-129"/>
<text text-anchor="middle" x="1270.3" y="-117" font-family="Helvetica,sans-Serif" font-size="10.00">TMatrixDSymEigen.h</text>
</a>
</g>
</g>
<!-- Node2&#45;&gt;Node64 -->
<g id="edge66" class="edge">
<title>Node2&#45;&gt;Node64</title>
<path fill="none" stroke="#63b8ff" d="M1598.71,-232.19C1548.89,-225.65 1480.3,-214.07 1422.3,-195 1374.39,-179.25 1322.41,-151.14 1293.35,-134.32"/>
<polygon fill="#63b8ff" stroke="#63b8ff" points="1294.8,-131.11 1284.41,-129.08 1291.26,-137.15 1294.8,-131.11"/>
</g>
<!-- Node67 -->
<g id="node38" class="node">
<title>Node67</title>
<g id="a_node38"><a xlink:title=" ">
<polygon fill="#e0e0e0" stroke="#999999" points="1396.3,-129 1348.3,-129 1348.3,-110 1396.3,-110 1396.3,-129"/>
<text text-anchor="middle" x="1372.3" y="-117" font-family="Helvetica,sans-Serif" font-size="10.00">TKey.h</text>
</a>
</g>
</g>
<!-- Node2&#45;&gt;Node67 -->
<g id="edge61" class="edge">
<title>Node2&#45;&gt;Node67</title>
<path fill="none" stroke="#63b8ff" d="M1598.7,-230.99C1560.26,-224.49 1512.18,-213.4 1472.3,-195 1439.59,-179.91 1407.16,-152.96 1388.46,-135.95"/>
<polygon fill="#63b8ff" stroke="#63b8ff" points="1390.81,-133.36 1381.1,-129.12 1386.05,-138.49 1390.81,-133.36"/>
</g>
<!-- Node43 -->
<g id="node39" class="node">
<title>Node43</title>
<g id="a_node39"><a xlink:title=" ">
<polygon fill="#e0e0e0" stroke="#999999" points="1757.8,-189.5 1692.8,-189.5 1692.8,-170.5 1757.8,-170.5 1757.8,-189.5"/>
<text text-anchor="middle" x="1725.3" y="-177.5" font-family="Helvetica,sans-Serif" font-size="10.00">TBranch.h</text>
</a>
</g>
</g>
<!-- Node2&#45;&gt;Node43 -->
<g id="edge47" class="edge">
<title>Node2&#45;&gt;Node43</title>
<path fill="none" stroke="#63b8ff" d="M1675.85,-230.87C1684.68,-221.97 1698.64,-207.89 1709.48,-196.95"/>
<polygon fill="#63b8ff" stroke="#63b8ff" points="1712.15,-199.23 1716.7,-189.67 1707.18,-194.3 1712.15,-199.23"/>
</g>
<!-- Node2&#45;&gt;Node68 -->
<g id="edge50" class="edge">
<title>Node2&#45;&gt;Node68</title>
<path fill="none" stroke="#63b8ff" d="M1735.86,-238.46C1926.53,-235.22 2460.34,-223.78 2633.3,-195 2637.54,-194.29 2641.93,-193.34 2646.26,-192.26"/>
<polygon fill="#63b8ff" stroke="#63b8ff" points="2647.42,-195.57 2656.15,-189.55 2645.58,-188.81 2647.42,-195.57"/>
</g>
<!-- Node69 -->
<g id="node41" class="node">
<title>Node69</title>
<g id="a_node41"><a xlink:title=" ">
<polygon fill="#e0e0e0" stroke="#999999" points="1836.3,-189.5 1776.3,-189.5 1776.3,-170.5 1836.3,-170.5 1836.3,-189.5"/>
<text text-anchor="middle" x="1806.3" y="-177.5" font-family="Helvetica,sans-Serif" font-size="10.00">TString.h</text>
</a>
</g>
</g>
<!-- Node2&#45;&gt;Node69 -->
<g id="edge51" class="edge">
<title>Node2&#45;&gt;Node69</title>
<path fill="none" stroke="#63b8ff" d="M1687.51,-230.99C1710.98,-221.12 1749.9,-204.73 1776.76,-193.43"/>
<polygon fill="#63b8ff" stroke="#63b8ff" points="1778.2,-196.62 1786.06,-189.52 1775.49,-190.17 1778.2,-196.62"/>
</g>
<!-- Node70 -->
<g id="node42" class="node">
<title>Node70</title>
<g id="a_node42"><a xlink:title=" ">
<polygon fill="#e0e0e0" stroke="#999999" points="1943.8,-189.5 1854.8,-189.5 1854.8,-170.5 1943.8,-170.5 1943.8,-189.5"/>
<text text-anchor="middle" x="1899.3" y="-177.5" font-family="Helvetica,sans-Serif" font-size="10.00">TGraphErrors.h</text>
</a>
</g>
</g>
<!-- Node2&#45;&gt;Node70 -->
<g id="edge52" class="edge">
<title>Node2&#45;&gt;Node70</title>
<path fill="none" stroke="#63b8ff" d="M1701.78,-230.97C1737.65,-222.08 1795.44,-207.69 1845.3,-195 1848.94,-194.07 1852.71,-193.11 1856.5,-192.13"/>
<polygon fill="#63b8ff" stroke="#63b8ff" points="1857.66,-195.45 1866.47,-189.56 1855.91,-188.67 1857.66,-195.45"/>
</g>
<!-- Node71 -->
<g id="node43" class="node">
<title>Node71</title>
<g id="a_node43"><a xlink:title=" ">
<polygon fill="#e0e0e0" stroke="#999999" points="2017.3,-189.5 1961.3,-189.5 1961.3,-170.5 2017.3,-170.5 2017.3,-189.5"/>
<text text-anchor="middle" x="1989.3" y="-177.5" font-family="Helvetica,sans-Serif" font-size="10.00">TColor.h</text>
</a>
</g>
</g>
<!-- Node2&#45;&gt;Node71 -->
<g id="edge54" class="edge">
<title>Node2&#45;&gt;Node71</title>
<path fill="none" stroke="#63b8ff" d="M1736.07,-232.8C1794.31,-226.17 1879.67,-214.19 1952.3,-195 1954.59,-194.39 1956.95,-193.69 1959.3,-192.94"/>
<polygon fill="#63b8ff" stroke="#63b8ff" points="1960.52,-196.22 1968.8,-189.62 1958.2,-189.61 1960.52,-196.22"/>
</g>
<!-- Node72 -->
<g id="node44" class="node">
<title>Node72</title>
<g id="a_node44"><a xlink:title=" ">
<polygon fill="#e0e0e0" stroke="#999999" points="2087.3,-189.5 2035.3,-189.5 2035.3,-170.5 2087.3,-170.5 2087.3,-189.5"/>
<text text-anchor="middle" x="2061.3" y="-177.5" font-family="Helvetica,sans-Serif" font-size="10.00">TText.h</text>
</a>
</g>
</g>
<!-- Node2&#45;&gt;Node72 -->
<g id="edge57" class="edge">
<title>Node2&#45;&gt;Node72</title>
<path fill="none" stroke="#63b8ff" d="M1736.09,-236.23C1809.09,-231.55 1927.31,-220.48 2026.3,-195 2028.46,-194.44 2030.67,-193.79 2032.87,-193.07"/>
<polygon fill="#63b8ff" stroke="#63b8ff" points="2034.14,-196.33 2042.34,-189.61 2031.74,-189.75 2034.14,-196.33"/>
</g>
<!-- Node73 -->
<g id="node45" class="node">
<title>Node73</title>
<g id="a_node45"><a xlink:title=" ">
<polygon fill="#e0e0e0" stroke="#999999" points="2164.8,-189.5 2105.8,-189.5 2105.8,-170.5 2164.8,-170.5 2164.8,-189.5"/>
<text text-anchor="middle" x="2135.3" y="-177.5" font-family="Helvetica,sans-Serif" font-size="10.00">TGaxis.h</text>
</a>
</g>
</g>
<!-- Node2&#45;&gt;Node73 -->
<g id="edge58" class="edge">
<title>Node2&#45;&gt;Node73</title>
<path fill="none" stroke="#63b8ff" d="M1736.11,-237.46C1821.54,-233.77 1971.27,-223.48 2096.3,-195 2099.12,-194.36 2102.03,-193.57 2104.91,-192.7"/>
<polygon fill="#63b8ff" stroke="#63b8ff" points="2106.14,-195.98 2114.52,-189.5 2103.93,-189.34 2106.14,-195.98"/>
</g>
<!-- Node74 -->
<g id="node46" class="node">
<title>Node74</title>
<g id="a_node46"><a xlink:title=" ">
<polygon fill="#e0e0e0" stroke="#999999" points="2267.8,-189.5 2182.8,-189.5 2182.8,-170.5 2267.8,-170.5 2267.8,-189.5"/>
<text text-anchor="middle" x="2225.3" y="-177.5" font-family="Helvetica,sans-Serif" font-size="10.00">TGraphPolar.h</text>
</a>
</g>
</g>
<!-- Node2&#45;&gt;Node74 -->
<g id="edge63" class="edge">
<title>Node2&#45;&gt;Node74</title>
<path fill="none" stroke="#63b8ff" d="M1736.14,-237.27C1833.96,-233.23 2018.52,-222.42 2173.3,-195 2177.82,-194.2 2182.52,-193.19 2187.17,-192.08"/>
<polygon fill="#63b8ff" stroke="#63b8ff" points="2188.33,-195.4 2197.16,-189.54 2186.61,-188.61 2188.33,-195.4"/>
</g>
<!-- Node75 -->
<g id="node47" class="node">
<title>Node75</title>
<g id="a_node47"><a xlink:title=" ">
<polygon fill="#e0e0e0" stroke="#999999" points="2350.8,-189.5 2285.8,-189.5 2285.8,-170.5 2350.8,-170.5 2350.8,-189.5"/>
<text text-anchor="middle" x="2318.3" y="-177.5" font-family="Helvetica,sans-Serif" font-size="10.00">TCandle.h</text>
</a>
</g>
</g>
<!-- Node2&#45;&gt;Node75 -->
<g id="edge64" class="edge">
<title>Node2&#45;&gt;Node75</title>
<path fill="none" stroke="#63b8ff" d="M1736.08,-240.01C1849.7,-239.62 2083.2,-233.61 2276.3,-195 2279.54,-194.35 2282.87,-193.53 2286.18,-192.6"/>
<polygon fill="#63b8ff" stroke="#63b8ff" points="2287.38,-195.9 2295.91,-189.61 2285.32,-189.21 2287.38,-195.9"/>
</g>
<!-- Node76 -->
<g id="node48" class="node">
<title>Node76</title>
<g id="a_node48"><a xlink:title=" ">
<polygon fill="#e0e0e0" stroke="#999999" points="2449.3,-189.5 2369.3,-189.5 2369.3,-170.5 2449.3,-170.5 2449.3,-189.5"/>
<text text-anchor="middle" x="2409.3" y="-177.5" font-family="Helvetica,sans-Serif" font-size="10.00">TVirtualFFT.h</text>
</a>
</g>
</g>
<!-- Node2&#45;&gt;Node76 -->
<g id="edge67" class="edge">
<title>Node2&#45;&gt;Node76</title>
<path fill="none" stroke="#63b8ff" d="M1736.11,-239.81C1861.13,-239.32 2133.51,-233.44 2359.3,-195 2363.77,-194.24 2368.41,-193.24 2372.99,-192.12"/>
<polygon fill="#63b8ff" stroke="#63b8ff" points="2374.03,-195.46 2382.8,-189.53 2372.24,-188.69 2374.03,-195.46"/>
</g>
<!-- Node6 -->
<g id="node6" class="node">
<title>Node6</title>
<g id="a_node6"><a xlink:title=" ">
<polygon fill="#e0e0e0" stroke="#999999" points="1914.3,-129 1854.3,-129 1854.3,-110 1914.3,-110 1914.3,-129"/>
<text text-anchor="middle" x="1884.3" y="-117" font-family="Helvetica,sans-Serif" font-size="10.00">iostream</text>
</a>
</g>
</g>
<!-- Node5&#45;&gt;Node6 -->
<g id="edge5" class="edge">
<title>Node5&#45;&gt;Node6</title>
<path fill="none" stroke="#63b8ff" d="M1649.28,-170.49C1701.38,-159.41 1791.94,-140.15 1844.12,-129.05"/>
<polygon fill="#63b8ff" stroke="#63b8ff" points="1844.97,-132.44 1854.02,-126.94 1843.51,-125.6 1844.97,-132.44"/>
</g>
<!-- Node7 -->
<g id="node7" class="node">
<title>Node7</title>
<g id="a_node7"><a xlink:title=" ">
<polygon fill="#e0e0e0" stroke="#999999" points="1988.3,-129 1932.3,-129 1932.3,-110 1988.3,-110 1988.3,-129"/>
<text text-anchor="middle" x="1960.3" y="-117" font-family="Helvetica,sans-Serif" font-size="10.00">sstream</text>
</a>
</g>
</g>
<!-- Node5&#45;&gt;Node7 -->
<g id="edge6" class="edge">
<title>Node5&#45;&gt;Node7</title>
<path fill="none" stroke="#63b8ff" d="M1653.07,-170.43C1663,-168.57 1673.5,-166.66 1683.3,-165 1786.52,-147.5 1815.63,-148.98 1922.2,-129.08"/>
<polygon fill="#63b8ff" stroke="#63b8ff" points="1922.88,-132.52 1932.06,-127.22 1921.59,-125.64 1922.88,-132.52"/>
</g>
<!-- Node8 -->
<g id="node8" class="node">
<title>Node8</title>
<g id="a_node8"><a xlink:title=" ">
<polygon fill="#e0e0e0" stroke="#999999" points="2062.3,-129 2006.3,-129 2006.3,-110 2062.3,-110 2062.3,-129"/>
<text text-anchor="middle" x="2034.3" y="-117" font-family="Helvetica,sans-Serif" font-size="10.00">iomanip</text>
</a>
</g>
</g>
<!-- Node5&#45;&gt;Node8 -->
<g id="edge7" class="edge">
<title>Node5&#45;&gt;Node8</title>
<path fill="none" stroke="#63b8ff" d="M1651.47,-170.47C1661.85,-168.52 1672.95,-166.57 1683.3,-165 1818.92,-144.42 1857.08,-152.36 1995.91,-129.06"/>
<polygon fill="#63b8ff" stroke="#63b8ff" points="1996.81,-132.45 2006.08,-127.32 1995.63,-125.55 1996.81,-132.45"/>
</g>
<!-- Node9 -->
<g id="node9" class="node">
<title>Node9</title>
<g id="a_node9"><a xlink:title=" ">
<polygon fill="#e0e0e0" stroke="#999999" points="2127.8,-129 2080.8,-129 2080.8,-110 2127.8,-110 2127.8,-129"/>
<text text-anchor="middle" x="2104.3" y="-117" font-family="Helvetica,sans-Serif" font-size="10.00">vector</text>
</a>
</g>
</g>
<!-- Node5&#45;&gt;Node9 -->
<g id="edge8" class="edge">
<title>Node5&#45;&gt;Node9</title>
<path fill="none" stroke="#63b8ff" d="M1650.67,-170.46C1661.27,-168.47 1672.68,-166.49 1683.3,-165 1851.61,-141.32 1898.93,-158.05 2070.72,-128.79"/>
<polygon fill="#63b8ff" stroke="#63b8ff" points="2071.35,-132.24 2080.6,-127.09 2070.15,-125.34 2071.35,-132.24"/>
</g>
<!-- Node10 -->
<g id="node10" class="node">
<title>Node10</title>
<g id="a_node10"><a xlink:title=" ">
<polygon fill="#e0e0e0" stroke="#999999" points="2210.3,-129 2146.3,-129 2146.3,-110 2210.3,-110 2210.3,-129"/>
<text text-anchor="middle" x="2178.3" y="-117" font-family="Helvetica,sans-Serif" font-size="10.00">algorithm</text>
</a>
</g>
</g>
<!-- Node5&#45;&gt;Node10 -->
<g id="edge9" class="edge">
<title>Node5&#45;&gt;Node10</title>
<path fill="none" stroke="#63b8ff" d="M1650.27,-170.43C1660.98,-168.42 1672.54,-166.44 1683.3,-165 1883.48,-138.19 1936.29,-157.08 2136.3,-129 2136.4,-128.99 2136.5,-128.97 2136.6,-128.96"/>
<polygon fill="#63b8ff" stroke="#63b8ff" points="2136.95,-132.45 2146.26,-127.4 2135.83,-125.54 2136.95,-132.45"/>
</g>
<!-- Node11 -->
<g id="node11" class="node">
<title>Node11</title>
<g id="a_node11"><a xlink:title=" ">
<polygon fill="#e0e0e0" stroke="#999999" points="2275.8,-129 2228.8,-129 2228.8,-110 2275.8,-110 2275.8,-129"/>
<text text-anchor="middle" x="2252.3" y="-117" font-family="Helvetica,sans-Serif" font-size="10.00">cmath</text>
</a>
</g>
</g>
<!-- Node5&#45;&gt;Node11 -->
<g id="edge10" class="edge">
<title>Node5&#45;&gt;Node11</title>
<path fill="none" stroke="#63b8ff" d="M1649.48,-170.49C1660.41,-168.42 1672.27,-166.41 1683.3,-165 1916.89,-135.17 1981.8,-166.07 2218.66,-128.75"/>
<polygon fill="#63b8ff" stroke="#63b8ff" points="2219.29,-132.19 2228.61,-127.16 2218.19,-125.28 2219.29,-132.19"/>
</g>
<!-- Node12 -->
<g id="node12" class="node">
<title>Node12</title>
<g id="a_node12"><a xlink:href="Manager_8h.html" target="_top" xlink:title=" ">
<polygon fill="#fff0f0" stroke="red" points="1835.8,-129 1722.8,-129 1722.8,-110 1835.8,-110 1835.8,-129"/>
<text text-anchor="middle" x="1779.3" y="-117" font-family="Helvetica,sans-Serif" font-size="10.00">Manager/Manager.h</text>
</a>
</g>
</g>
<!-- Node5&#45;&gt;Node12 -->
<g id="edge11" class="edge">
<title>Node5&#45;&gt;Node12</title>
<path fill="none" stroke="#63b8ff" d="M1634.02,-170.49C1663.23,-160.44 1712,-143.66 1744.89,-132.34"/>
<polygon fill="#63b8ff" stroke="#63b8ff" points="1746.23,-135.58 1754.55,-129.02 1743.95,-128.96 1746.23,-135.58"/>
</g>
<!-- Node5&#45;&gt;Node46 -->
<g id="edge15" class="edge">
<title>Node5&#45;&gt;Node46</title>
<path fill="none" stroke="#63b8ff" d="M1649.48,-170.44C1660.4,-168.37 1672.27,-166.37 1683.3,-165 1945.61,-132.46 2015.89,-150.35 2283.85,-128.99"/>
<polygon fill="#63b8ff" stroke="#63b8ff" points="2284.19,-132.47 2293.88,-128.18 2283.63,-125.5 2284.19,-132.47"/>
</g>
<!-- Node5&#45;&gt;Node50 -->
<g id="edge23" class="edge">
<title>Node5&#45;&gt;Node50</title>
<path fill="none" stroke="#63b8ff" d="M1585.89,-170.49C1558.34,-160.49 1512.43,-143.8 1481.29,-132.49"/>
<polygon fill="#63b8ff" stroke="#63b8ff" points="1482.33,-129.14 1471.74,-129.02 1479.94,-135.72 1482.33,-129.14"/>
</g>
<!-- Node5&#45;&gt;Node51 -->
<g id="edge24" class="edge">
<title>Node5&#45;&gt;Node51</title>
<path fill="none" stroke="#63b8ff" d="M1597.05,-170.37C1583.93,-161.12 1562.88,-146.28 1547.14,-135.19"/>
<polygon fill="#63b8ff" stroke="#63b8ff" points="1548.78,-132.07 1538.59,-129.17 1544.75,-137.79 1548.78,-132.07"/>
</g>
<!-- Node5&#45;&gt;Node52 -->
<g id="edge25" class="edge">
<title>Node5&#45;&gt;Node52</title>
<path fill="none" stroke="#63b8ff" d="M1607.97,-170.37C1606.71,-162.16 1604.76,-149.54 1603.15,-139.05"/>
<polygon fill="#63b8ff" stroke="#63b8ff" points="1606.61,-138.52 1601.63,-129.17 1599.69,-139.58 1606.61,-138.52"/>
</g>
<!-- Node5&#45;&gt;Node53 -->
<g id="edge26" class="edge">
<title>Node5&#45;&gt;Node53</title>
<path fill="none" stroke="#63b8ff" d="M1619.18,-170.37C1629.57,-161.3 1646.13,-146.84 1658.75,-135.82"/>
<polygon fill="#63b8ff" stroke="#63b8ff" points="1661.14,-138.38 1666.37,-129.17 1656.54,-133.11 1661.14,-138.38"/>
</g>
<!-- Node13 -->
<g id="node13" class="node">
<title>Node13</title>
<g id="a_node13"><a xlink:href="SampleStructs_8h.html" target="_top" xlink:title=" ">
<polygon fill="#fff0f0" stroke="red" points="1849.8,-74 1708.8,-74 1708.8,-55 1849.8,-55 1849.8,-74"/>
<text text-anchor="middle" x="1779.3" y="-62" font-family="Helvetica,sans-Serif" font-size="10.00">Samples/SampleStructs.h</text>
</a>
</g>
</g>
<!-- Node12&#45;&gt;Node13 -->
<g id="edge12" class="edge">
<title>Node12&#45;&gt;Node13</title>
<path fill="none" stroke="#63b8ff" d="M1779.3,-109.75C1779.3,-102.8 1779.3,-92.85 1779.3,-84.13"/>
<polygon fill="#63b8ff" stroke="#63b8ff" points="1782.8,-84.09 1779.3,-74.09 1775.8,-84.09 1782.8,-84.09"/>
</g>
<!-- Node28 -->
<g id="node14" class="node">
<title>Node28</title>
<g id="a_node14"><a xlink:title=" ">
<polygon fill="#e0e0e0" stroke="#999999" points="1817.8,-19 1740.8,-19 1740.8,0 1817.8,0 1817.8,-19"/>
<text text-anchor="middle" x="1779.3" y="-7" font-family="Helvetica,sans-Serif" font-size="10.00">TObjString.h</text>
</a>
</g>
</g>
<!-- Node13&#45;&gt;Node28 -->
<g id="edge13" class="edge">
<title>Node13&#45;&gt;Node28</title>
<path fill="none" stroke="#63b8ff" d="M1779.3,-54.75C1779.3,-47.8 1779.3,-37.85 1779.3,-29.13"/>
<polygon fill="#63b8ff" stroke="#63b8ff" points="1782.8,-29.09 1779.3,-19.09 1775.8,-29.09 1782.8,-29.09"/>
</g>
<!-- Node13&#45;&gt;Node29 -->
<g id="edge14" class="edge">
<title>Node13&#45;&gt;Node29</title>
<path fill="none" stroke="#63b8ff" d="M1708.43,-60.02C1498.77,-49.73 886.61,-19.69 734.05,-12.21"/>
<polygon fill="#63b8ff" stroke="#63b8ff" points="734.03,-8.7 723.87,-11.71 733.68,-15.69 734.03,-8.7"/>
</g>
<!-- Node46&#45;&gt;Node13 -->
<g id="edge16" class="edge">
<title>Node46&#45;&gt;Node13</title>
<path fill="none" stroke="#63b8ff" d="M2293.87,-110.93C2290.63,-110.61 2287.43,-110.3 2284.3,-110 2134.58,-95.65 1959.73,-80.63 1860.01,-72.23"/>
<polygon fill="#63b8ff" stroke="#63b8ff" points="1860.26,-68.74 1850,-71.38 1859.67,-75.71 1860.26,-68.74"/>
</g>
<!-- Node46&#45;&gt;Node28 -->
<g id="edge21" class="edge">
<title>Node46&#45;&gt;Node28</title>
<path fill="none" stroke="#63b8ff" d="M2319.75,-109.94C2210.62,-89.86 1939.15,-39.91 1827.96,-19.45"/>
<polygon fill="#63b8ff" stroke="#63b8ff" points="1828.49,-15.99 1818.02,-17.63 1827.22,-22.88 1828.49,-15.99"/>
</g>
<!-- Node47 -->
<g id="node17" class="node">
<title>Node47</title>
<g id="a_node17"><a xlink:href="ParameterStructs_8h.html" target="_top" xlink:title=" ">
<polygon fill="#fff0f0" stroke="red" points="1356.3,-74 1188.3,-74 1188.3,-55 1356.3,-55 1356.3,-74"/>
<text text-anchor="middle" x="1272.3" y="-62" font-family="Helvetica,sans-Serif" font-size="10.00">Parameters/ParameterStructs.h</text>
</a>
</g>
</g>
<!-- Node46&#45;&gt;Node47 -->
<g id="edge17" class="edge">
<title>Node46&#45;&gt;Node47</title>
<path fill="none" stroke="#63b8ff" d="M2293.88,-110.76C2290.64,-110.49 2287.44,-110.23 2284.3,-110 1947.08,-85.13 1545.56,-72.52 1366.53,-67.78"/>
<polygon fill="#63b8ff" stroke="#63b8ff" points="1366.45,-64.27 1356.36,-67.51 1366.27,-71.27 1366.45,-64.27"/>
</g>
<!-- Node46&#45;&gt;Node48 -->
<g id="edge20" class="edge">
<title>Node46&#45;&gt;Node48</title>
<path fill="none" stroke="#63b8ff" d="M2389.59,-109.98C2413.55,-101.23 2451.08,-87.51 2478.13,-77.62"/>
<polygon fill="#63b8ff" stroke="#63b8ff" points="2479.39,-80.89 2487.58,-74.17 2476.98,-74.32 2479.39,-80.89"/>
</g>
<!-- Node46&#45;&gt;Node49 -->
<g id="edge22" class="edge">
<title>Node46&#45;&gt;Node49</title>
<path fill="none" stroke="#63b8ff" d="M2293.89,-110.67C2290.65,-110.42 2287.44,-110.2 2284.3,-110 1868.58,-84.07 518.58,-68.88 242.78,-66"/>
<polygon fill="#63b8ff" stroke="#63b8ff" points="242.71,-62.5 232.68,-65.9 242.64,-69.5 242.71,-62.5"/>
</g>
<!-- Node47&#45;&gt;Node28 -->
<g id="edge18" class="edge">
<title>Node47&#45;&gt;Node28</title>
<path fill="none" stroke="#63b8ff" d="M1353.76,-54.98C1460.27,-43.85 1643.52,-24.69 1730.6,-15.59"/>
<polygon fill="#63b8ff" stroke="#63b8ff" points="1731.15,-19.05 1740.73,-14.53 1730.42,-12.09 1731.15,-19.05"/>
</g>
<!-- Node47&#45;&gt;Node29 -->
<g id="edge19" class="edge">
<title>Node47&#45;&gt;Node29</title>
<path fill="none" stroke="#63b8ff" d="M1188.06,-55.71C1060.26,-43.89 822.9,-21.93 734.05,-13.71"/>
<polygon fill="#63b8ff" stroke="#63b8ff" points="734.25,-10.22 723.97,-12.78 733.61,-17.19 734.25,-10.22"/>
</g>
<!-- Node54&#45;&gt;Node29 -->
<g id="edge37" class="edge">
<title>Node54&#45;&gt;Node29</title>
<path fill="none" stroke="#63b8ff" d="M652.06,-173.77C500.97,-163.86 192.82,-142.19 173.3,-129 150.57,-113.64 151.7,-100.67 145.3,-74 143.33,-65.79 139.57,-61.21 145.3,-55 180.52,-16.84 548.27,-11.39 664.38,-10.62"/>
<polygon fill="#63b8ff" stroke="#63b8ff" points="664.52,-14.12 674.5,-10.56 664.48,-7.12 664.52,-14.12"/>
</g>
<!-- Node54&#45;&gt;Node47 -->
<g id="edge29" class="edge">
<title>Node54&#45;&gt;Node47</title>
<path fill="none" stroke="#63b8ff" d="M798.31,-164.92C834.14,-156.21 879.33,-143.87 918.3,-129 935.94,-122.27 938.27,-115.61 956.3,-110 1028.85,-87.41 1114.37,-76.26 1178.14,-70.76"/>
<polygon fill="#63b8ff" stroke="#63b8ff" points="1178.5,-74.25 1188.18,-69.93 1177.92,-67.27 1178.5,-74.25"/>
</g>
<!-- Node54&#45;&gt;Node49 -->
<g id="edge38" class="edge">
<title>Node54&#45;&gt;Node49</title>
<path fill="none" stroke="#63b8ff" d="M652.04,-177.52C506.1,-174.04 214.25,-162.89 183.3,-129 172.15,-116.8 177.24,-97.47 183.52,-83.34"/>
<polygon fill="#63b8ff" stroke="#63b8ff" points="186.77,-84.66 188.08,-74.15 180.5,-81.55 186.77,-84.66"/>
</g>
<!-- Node55 -->
<g id="node25" class="node">
<title>Node55</title>
<g id="a_node25"><a xlink:title=" ">
<polygon fill="#e0e0e0" stroke="#999999" points="458.3,-129 390.3,-129 390.3,-110 458.3,-110 458.3,-129"/>
<text text-anchor="middle" x="424.3" y="-117" font-family="Helvetica,sans-Serif" font-size="10.00">TMatrixT.h</text>
</a>
</g>
</g>
<!-- Node54&#45;&gt;Node55 -->
<g id="edge30" class="edge">
<title>Node54&#45;&gt;Node55</title>
<path fill="none" stroke="#63b8ff" d="M658.3,-164.98C607.25,-155.51 538.2,-142.61 468.41,-129.2"/>
<polygon fill="#63b8ff" stroke="#63b8ff" points="469.04,-125.76 458.56,-127.3 467.72,-132.63 469.04,-125.76"/>
</g>
<!-- Node56 -->
<g id="node26" class="node">
<title>Node56</title>
<g id="a_node26"><a xlink:title=" ">
<polygon fill="#e0e0e0" stroke="#999999" points="568.3,-129 476.3,-129 476.3,-110 568.3,-110 568.3,-129"/>
<text text-anchor="middle" x="522.3" y="-117" font-family="Helvetica,sans-Serif" font-size="10.00">TMatrixDSym.h</text>
</a>
</g>
</g>
<!-- Node54&#45;&gt;Node56 -->
<g id="edge31" class="edge">
<title>Node54&#45;&gt;Node56</title>
<path fill="none" stroke="#63b8ff" d="M683.52,-164.99C646.61,-154.8 597.32,-141.2 563,-131.73"/>
<polygon fill="#63b8ff" stroke="#63b8ff" points="563.87,-128.34 553.29,-129.05 562,-135.09 563.87,-128.34"/>
</g>
<!-- Node57 -->
<g id="node27" class="node">
<title>Node57</title>
<g id="a_node27"><a xlink:title=" ">
<polygon fill="#e0e0e0" stroke="#999999" points="654.3,-129 586.3,-129 586.3,-110 654.3,-110 654.3,-129"/>
<text text-anchor="middle" x="620.3" y="-117" font-family="Helvetica,sans-Serif" font-size="10.00">TVectorT.h</text>
</a>
</g>
</g>
<!-- Node54&#45;&gt;Node57 -->
<g id="edge32" class="edge">
<title>Node54&#45;&gt;Node57</title>
<path fill="none" stroke="#63b8ff" d="M706.99,-164.99C688.65,-155.58 664.62,-143.24 646.51,-133.95"/>
<polygon fill="#63b8ff" stroke="#63b8ff" points="647.63,-130.59 637.13,-129.14 644.43,-136.82 647.63,-130.59"/>
</g>
<!-- Node54&#45;&gt;Node58 -->
<g id="edge33" class="edge">
<title>Node54&#45;&gt;Node58</title>
<path fill="none" stroke="#63b8ff" d="M652.05,-174.79C532.76,-168.14 304.95,-153.4 112.3,-129 111.02,-128.84 109.73,-128.67 108.42,-128.49"/>
<polygon fill="#63b8ff" stroke="#63b8ff" points="108.71,-124.99 98.3,-126.97 107.67,-131.91 108.71,-124.99"/>
</g>
<!-- Node59 -->
<g id="node29" class="node">
<title>Node59</title>
<g id="a_node29"><a xlink:title=" ">
<polygon fill="#e0e0e0" stroke="#999999" points="725.8,-129 672.8,-129 672.8,-110 725.8,-110 725.8,-129"/>
<text text-anchor="middle" x="699.3" y="-117" font-family="Helvetica,sans-Serif" font-size="10.00">TH1D.h</text>
</a>
</g>
</g>
<!-- Node54&#45;&gt;Node59 -->
<g id="edge34" class="edge">
<title>Node54&#45;&gt;Node59</title>
<path fill="none" stroke="#63b8ff" d="M725.82,-164.84C721,-156.78 714.92,-146.62 709.8,-138.06"/>
<polygon fill="#63b8ff" stroke="#63b8ff" points="712.68,-136.05 704.54,-129.27 706.67,-139.64 712.68,-136.05"/>
</g>
<!-- Node60 -->
<g id="node30" class="node">
<title>Node60</title>
<g id="a_node30"><a xlink:title=" ">
<polygon fill="#e0e0e0" stroke="#999999" points="796.8,-129 743.8,-129 743.8,-110 796.8,-110 796.8,-129"/>
<text text-anchor="middle" x="770.3" y="-117" font-family="Helvetica,sans-Serif" font-size="10.00">TH2D.h</text>
</a>
</g>
</g>
<!-- Node54&#45;&gt;Node60 -->
<g id="edge35" class="edge">
<title>Node54&#45;&gt;Node60</title>
<path fill="none" stroke="#63b8ff" d="M743.01,-164.84C747.97,-156.78 754.22,-146.62 759.49,-138.06"/>
<polygon fill="#63b8ff" stroke="#63b8ff" points="762.64,-139.62 764.9,-129.27 756.68,-135.95 762.64,-139.62"/>
</g>
<!-- Node54&#45;&gt;Node42 -->
<g id="edge36" class="edge">
<title>Node54&#45;&gt;Node42</title>
<path fill="none" stroke="#63b8ff" d="M795.85,-164.99C845.69,-153.65 914.15,-138.06 955.42,-128.67"/>
<polygon fill="#63b8ff" stroke="#63b8ff" points="956.32,-132.05 965.3,-126.42 954.77,-125.23 956.32,-132.05"/>
</g>
<!-- Node54&#45;&gt;Node61 -->
<g id="edge39" class="edge">
<title>Node54&#45;&gt;Node61</title>
<path fill="none" stroke="#63b8ff" d="M816.34,-166.22C872.46,-157.18 948.8,-144.31 1024.82,-129.21"/>
<polygon fill="#63b8ff" stroke="#63b8ff" points="1025.93,-132.55 1035.05,-127.16 1024.56,-125.69 1025.93,-132.55"/>
</g>
<!-- Node62 -->
<g id="node33" class="node">
<title>Node62</title>
<g id="a_node33"><a xlink:title=" ">
<polygon fill="#e0e0e0" stroke="#999999" points="909.3,-129 815.3,-129 815.3,-110 909.3,-110 909.3,-129"/>
<text text-anchor="middle" x="862.3" y="-117" font-family="Helvetica,sans-Serif" font-size="10.00">TDecompChol.h</text>
</a>
</g>
</g>
<!-- Node54&#45;&gt;Node62 -->
<g id="edge40" class="edge">
<title>Node54&#45;&gt;Node62</title>
<path fill="none" stroke="#63b8ff" d="M764.96,-164.99C786.03,-155.36 813.78,-142.67 834.27,-133.31"/>
<polygon fill="#63b8ff" stroke="#63b8ff" points="835.75,-136.48 843.39,-129.14 832.84,-130.11 835.75,-136.48"/>
</g>
<!-- Node54&#45;&gt;Node45 -->
<g id="edge41" class="edge">
<title>Node54&#45;&gt;Node45</title>
<path fill="none" stroke="#63b8ff" d="M816.52,-168.47C888.45,-159.1 995.99,-144.69 1099.56,-129.07"/>
<polygon fill="#63b8ff" stroke="#63b8ff" points="1100.2,-132.52 1109.56,-127.56 1099.15,-125.59 1100.2,-132.52"/>
</g>
<!-- Node63 -->
<g id="node35" class="node">
<title>Node63</title>
<g id="a_node35"><a xlink:title=" ">
<polygon fill="#e0e0e0" stroke="#999999" points="255.8,-129 192.8,-129 192.8,-110 255.8,-110 255.8,-129"/>
<text text-anchor="middle" x="224.3" y="-117" font-family="Helvetica,sans-Serif" font-size="10.00">TMatrix.h</text>
</a>
</g>
</g>
<!-- Node54&#45;&gt;Node63 -->
<g id="edge42" class="edge">
<title>Node54&#45;&gt;Node63</title>
<path fill="none" stroke="#63b8ff" d="M652.22,-172.71C560.54,-165.12 407.57,-150.81 266.18,-128.98"/>
<polygon fill="#63b8ff" stroke="#63b8ff" points="266.44,-125.48 256.02,-127.4 265.37,-132.4 266.44,-125.48"/>
</g>
<!-- Node54&#45;&gt;Node64 -->
<g id="edge43" class="edge">
<title>Node54&#45;&gt;Node64</title>
<path fill="none" stroke="#63b8ff" d="M816.59,-170.59C907.73,-161.18 1059.32,-145.27 1200.33,-129.09"/>
<polygon fill="#63b8ff" stroke="#63b8ff" points="1200.93,-132.55 1210.46,-127.93 1200.13,-125.59 1200.93,-132.55"/>
</g>
<!-- Node65 -->
<g id="node37" class="node">
<title>Node65</title>
<g id="a_node37"><a xlink:title=" ">
<polygon fill="#e0e0e0" stroke="#999999" points="372.3,-129 274.3,-129 274.3,-110 372.3,-110 372.3,-129"/>
<text text-anchor="middle" x="323.3" y="-117" font-family="Helvetica,sans-Serif" font-size="10.00">TMatrixDEigen.h</text>
</a>
</g>
</g>
<!-- Node54&#45;&gt;Node65 -->
<g id="edge44" class="edge">
<title>Node54&#45;&gt;Node65</title>
<path fill="none" stroke="#63b8ff" d="M652.25,-167.49C583.08,-157.76 481.15,-143.37 382.49,-129.17"/>
<polygon fill="#63b8ff" stroke="#63b8ff" points="382.74,-125.67 372.34,-127.7 381.74,-132.59 382.74,-125.67"/>
</g>
<!-- Node54&#45;&gt;Node67 -->
<g id="edge45" class="edge">
<title>Node54&#45;&gt;Node67</title>
<path fill="none" stroke="#63b8ff" d="M816.39,-176.43C933.07,-171.82 1153.25,-159.58 1338.3,-129 1338.4,-128.98 1338.5,-128.97 1338.6,-128.95"/>
<polygon fill="#63b8ff" stroke="#63b8ff" points="1339.13,-132.41 1348.25,-127.02 1337.76,-125.55 1339.13,-132.41"/>
</g>
</g>
</svg>
        <g id="navigator" transform="translate(0 0)" fill="#404254">
                <rect fill="#f2f5e9" fill-opacity="0.5" stroke="#606060" stroke-width=".5" x="0" y="0" width="60" height="60"/>
                <use id="zoomplus" xlink:href="#zoomPlus" x="17" y="9" onmousedown="handleZoom(evt,'in')"/>
                <use id="zoomminus" xlink:href="#zoomMin" x="42" y="9" onmousedown="handleZoom(evt,'out')"/>
                <use id="reset" xlink:href="#resetDef" x="30" y="36" onmousedown="handleReset()"/>
                <g id="arrowUp" xlink:href="#dirArrow" transform="translate(30 24)" onmousedown="handlePan(0,-1)">
                  <use xlink:href="#rim" fill="#404040">
                        <set attributeName="fill" to="#808080" begin="arrowUp.mouseover" end="arrowUp.mouseout"/>
                  </use>
                  <path fill="none" stroke="white" stroke-width="1.5" d="M0,-3.0v7 M-2.5,-0.5L0,-3.0L2.5,-0.5"/>
                </g>
                <g id="arrowRight" xlink:href="#dirArrow" transform="rotate(90) translate(36 -43)" onmousedown="handlePan(1,0)">
                  <use xlink:href="#rim" fill="#404040">
                        <set attributeName="fill" to="#808080" begin="arrowRight.mouseover" end="arrowRight.mouseout"/>
                  </use>
                  <path fill="none" stroke="white" stroke-width="1.5" d="M0,-3.0v7 M-2.5,-0.5L0,-3.0L2.5,-0.5"/>
                </g>
                <g id="arrowDown" xlink:href="#dirArrow" transform="rotate(180) translate(-30 -48)" onmousedown="handlePan(0,1)">
                  <use xlink:href="#rim" fill="#404040">
                        <set attributeName="fill" to="#808080" begin="arrowDown.mouseover" end="arrowDown.mouseout"/>
                  </use>
                  <path fill="none" stroke="white" stroke-width="1.5" d="M0,-3.0v7 M-2.5,-0.5L0,-3.0L2.5,-0.5"/>
                </g>
                <g id="arrowLeft" xlink:href="#dirArrow" transform="rotate(270) translate(-36 17)" onmousedown="handlePan(-1,0)">
                  <use xlink:href="#rim" fill="#404040">
                        <set attributeName="fill" to="#808080" begin="arrowLeft.mouseover" end="arrowLeft.mouseout"/>
                  </use>
                  <path fill="none" stroke="white" stroke-width="1.5" d="M0,-3.0v7 M-2.5,-0.5L0,-3.0L2.5,-0.5"/>
                </g>
        </g>
        <svg viewBox="0 0 15 15" width="100%" height="30px" preserveAspectRatio="xMaxYMin meet">
         <g id="arrow_out" transform="scale(0.3 0.3)">
          <a xlink:href="PlotMCMCDiag_8cpp__incl_org.svg" target="_base">
           <rect id="button" ry="5" rx="5" y="6" x="6" height="38" width="38"
                fill="#f2f5e9" fill-opacity="0.5" stroke="#606060" stroke-width="1.0"/>
           <path id="arrow"
             d="M 11.500037,31.436501 C 11.940474,20.09759 22.043105,11.32322 32.158766,21.979434 L 37.068811,17.246167 C 37.068811,17.246167 37.088388,32 37.088388,32 L 22.160133,31.978069 C 22.160133,31.978069 26.997745,27.140456 26.997745,27.140456 C 18.528582,18.264221 13.291696,25.230495 11.500037,31.436501 z"
             style="fill:#404040;"/>
          </a>
         </g>
        </svg>
</svg>
