<?xml version="1.0" encoding="UTF-8" standalone="no"?>
<!DOCTYPE svg PUBLIC "-//W3C//DTD SVG 1.1//EN"
 "http://www.w3.org/Graphics/SVG/1.1/DTD/svg11.dtd">
<!-- Generated by graphviz version 2.44.0 (0)
 -->
<!-- Title: Diagnostics/PlotMCMCDiag.cpp Pages: 1 -->
<!--zoomable 319 -->
<svg id="main" version="1.1" xmlns="http://www.w3.org/2000/svg" xmlns:xlink="http://www.w3.org/1999/xlink" xml:space="preserve" onload="init(evt)">
<style type="text/css"><![CDATA[
.edge:hover path { stroke: red; }
.edge:hover polygon { stroke: red; fill: red; }
]]></style>
<script type="text/javascript"><![CDATA[
var edges = document.getElementsByTagName('g');
if (edges && edges.length) {
  for (var i=0;i<edges.length;i++) {
    if (edges[i].id.substr(0,4)=='edge') {
      edges[i].setAttribute('class','edge');
    }
  }
}
]]></script>
        <defs>
                <circle id="rim" cx="0" cy="0" r="7"/>
                <circle id="rim2" cx="0" cy="0" r="3.5"/>
                <g id="zoomPlus">
                        <use xlink:href="#rim" fill="#404040">
                                <set attributeName="fill" to="#808080" begin="zoomplus.mouseover" end="zoomplus.mouseout"/>
                        </use>
                        <path d="M-4,0h8M0,-4v8" fill="none" stroke="white" stroke-width="1.5" pointer-events="none"/>
                </g>
                <g id="zoomMin">
                        <use xlink:href="#rim" fill="#404040">
                                <set attributeName="fill" to="#808080" begin="zoomminus.mouseover" end="zoomminus.mouseout"/>
                        </use>
                        <path d="M-4,0h8" fill="none" stroke="white" stroke-width="1.5" pointer-events="none"/>
                </g>
                <g id="dirArrow">
                        <path fill="none" stroke="white" stroke-width="1.5" d="M0,-3.0v7 M-2.5,-0.5L0,-3.0L2.5,-0.5"/>
                </g>
               <g id="resetDef">
                       <use xlink:href="#rim2" fill="#404040">
                               <set attributeName="fill" to="#808080" begin="reset.mouseover" end="reset.mouseout"/>
                       </use>
               </g>
        </defs>

<script type="text/javascript">
var viewWidth = 2839;
var viewHeight = 319;
var sectionId = 'dynsection-0';
</script>
<script xlink:href="svgpan.js"/>
<svg id="graph" class="graph">
<g id="viewport">
<title>Diagnostics/PlotMCMCDiag.cpp</title>
<polygon fill="white" stroke="transparent" points="-4,4 -4,-315 2835.33,-315 2835.33,4 -4,4"/>
<!-- Node1 -->
<g id="node1" class="node">
<title>Node1</title>
<g id="a_node1"><a xlink:title="KS: This script is used to analyse output form DiagMCMC.">
<polygon fill="#bfbfbf" stroke="black" points="2559.33,-291.5 2559.33,-310.5 2717.33,-310.5 2717.33,-291.5 2559.33,-291.5"/>
<text text-anchor="middle" x="2638.33" y="-298.5" font-family="Helvetica" font-size="10.00">Diagnostics/PlotMCMCDiag.cpp</text>
</a>
</g>
</g>
<!-- Node2 -->
<g id="node2" class="node">
<title>Node2</title>
<g id="a_node2"><a xlink:href="MCMCProcessor_8h.html" target="_top" xlink:title=" ">
<polygon fill="white" stroke="black" points="1526.33,-235.5 1526.33,-254.5 1658.33,-254.5 1658.33,-235.5 1526.33,-235.5"/>
<text text-anchor="middle" x="1592.33" y="-242.5" font-family="Helvetica" font-size="10.00">Fitters/MCMCProcessor.h</text>
</a>
</g>
</g>
<!-- Node1&#45;&gt;Node2 -->
<g id="edge1" class="edge">
<title>Node1&#45;&gt;Node2</title>
<path fill="none" stroke="midnightblue" d="M2559.28,-295.92C2363.95,-285.84 1860.48,-259.84 1668.36,-249.93"/>
<polygon fill="midnightblue" stroke="midnightblue" points="1668.52,-246.43 1658.35,-249.41 1668.16,-253.42 1668.52,-246.43"/>
</g>
<!-- Node46 -->
<g id="node16" class="node">
<title>Node46</title>
<g id="a_node16"><a xlink:href="HistogramUtils_8h.html" target="_top" xlink:title=" ">
<polygon fill="white" stroke="black" points="2175.83,-112.5 2175.83,-131.5 2306.83,-131.5 2306.83,-112.5 2175.83,-112.5"/>
<text text-anchor="middle" x="2241.33" y="-119.5" font-family="Helvetica" font-size="10.00">Samples/HistogramUtils.h</text>
</a>
</g>
</g>
<!-- Node1&#45;&gt;Node46 -->
<g id="edge68" class="edge">
<title>Node1&#45;&gt;Node46</title>
<path fill="none" stroke="midnightblue" d="M2638.8,-291.22C2639.55,-267.23 2638.02,-200.24 2600.33,-168 2559.04,-132.68 2409.58,-124.55 2317.03,-122.99"/>
<polygon fill="midnightblue" stroke="midnightblue" points="2316.92,-119.48 2306.87,-122.84 2316.82,-126.48 2316.92,-119.48"/>
</g>
<!-- Node48 -->
<g id="node18" class="node">
<title>Node48</title>
<g id="a_node18"><a xlink:title=" ">
<polygon fill="white" stroke="#bfbfbf" points="2316.83,-56.5 2316.83,-75.5 2433.83,-75.5 2433.83,-56.5 2316.83,-56.5"/>
<text text-anchor="middle" x="2375.33" y="-63.5" font-family="Helvetica" font-size="10.00">TGraphAsymmErrors.h</text>
</a>
</g>
</g>
<!-- Node1&#45;&gt;Node48 -->
<g id="edge70" class="edge">
<title>Node1&#45;&gt;Node48</title>
<path fill="none" stroke="midnightblue" d="M2640.56,-291.27C2645.93,-267.97 2656.93,-203.69 2625.33,-168 2578.64,-115.26 2500.47,-89.63 2443.96,-77.45"/>
<polygon fill="midnightblue" stroke="midnightblue" points="2444.52,-74 2434.02,-75.4 2443.11,-80.85 2444.52,-74"/>
</g>
<!-- Node68 -->
<g id="node40" class="node">
<title>Node68</title>
<g id="a_node40"><a xlink:title=" ">
<polygon fill="white" stroke="#bfbfbf" points="2529.33,-174 2529.33,-193 2591.33,-193 2591.33,-174 2529.33,-174"/>
<text text-anchor="middle" x="2560.33" y="-181" font-family="Helvetica" font-size="10.00">TLegend.h</text>
</a>
</g>
</g>
<!-- Node1&#45;&gt;Node68 -->
<g id="edge71" class="edge">
<title>Node1&#45;&gt;Node68</title>
<path fill="none" stroke="midnightblue" d="M2631.84,-291.49C2625.06,-282.53 2614.2,-267.95 2605.33,-255 2593.2,-237.28 2580.07,-216.51 2571.14,-202.12"/>
<polygon fill="midnightblue" stroke="midnightblue" points="2573.92,-199.97 2565.69,-193.3 2567.97,-203.65 2573.92,-199.97"/>
</g>
<!-- Node77 -->
<g id="node49" class="node">
<title>Node77</title>
<g id="a_node49"><a xlink:title=" ">
<polygon fill="white" stroke="#bfbfbf" points="2685.33,-235.5 2685.33,-254.5 2749.33,-254.5 2749.33,-235.5 2685.33,-235.5"/>
<text text-anchor="middle" x="2717.33" y="-242.5" font-family="Helvetica" font-size="10.00">THStack.h</text>
</a>
</g>
</g>
<!-- Node1&#45;&gt;Node77 -->
<g id="edge69" class="edge">
<title>Node1&#45;&gt;Node77</title>
<path fill="none" stroke="midnightblue" d="M2651.02,-291.32C2663.23,-282.98 2681.91,-270.21 2696.33,-260.35"/>
<polygon fill="midnightblue" stroke="midnightblue" points="2698.39,-263.19 2704.67,-254.65 2694.44,-257.41 2698.39,-263.19"/>
</g>
<!-- Node78 -->
<g id="node50" class="node">
<title>Node78</title>
<g id="a_node50"><a xlink:title=" ">
<polygon fill="white" stroke="#bfbfbf" points="2767.33,-235.5 2767.33,-254.5 2831.33,-254.5 2831.33,-235.5 2767.33,-235.5"/>
<text text-anchor="middle" x="2799.33" y="-242.5" font-family="Helvetica" font-size="10.00">TSystem.h</text>
</a>
</g>
</g>
<!-- Node1&#45;&gt;Node78 -->
<g id="edge72" class="edge">
<title>Node1&#45;&gt;Node78</title>
<path fill="none" stroke="midnightblue" d="M2663.84,-291.44C2690.93,-282.36 2733.92,-267.94 2764.2,-257.78"/>
<polygon fill="midnightblue" stroke="midnightblue" points="2765.57,-261.01 2773.94,-254.52 2763.35,-254.38 2765.57,-261.01"/>
</g>
<!-- Node3 -->
<g id="node3" class="node">
<title>Node3</title>
<g id="a_node3"><a xlink:title=" ">
<polygon fill="white" stroke="#bfbfbf" points="2358.83,-174 2358.83,-193 2411.83,-193 2411.83,-174 2358.83,-174"/>
<text text-anchor="middle" x="2385.33" y="-181" font-family="Helvetica" font-size="10.00">complex</text>
</a>
</g>
</g>
<!-- Node2&#45;&gt;Node3 -->
<g id="edge2" class="edge">
<title>Node2&#45;&gt;Node3</title>
<path fill="none" stroke="midnightblue" d="M1658.59,-242.8C1817.87,-239.47 2218.71,-228.36 2349.33,-199 2352.17,-198.36 2355.07,-197.53 2357.93,-196.58"/>
<polygon fill="midnightblue" stroke="midnightblue" points="2359.24,-199.83 2367.38,-193.05 2356.79,-193.27 2359.24,-199.83"/>
</g>
<!-- Node4 -->
<g id="node4" class="node">
<title>Node4</title>
<g id="a_node4"><a xlink:title=" ">
<polygon fill="white" stroke="#bfbfbf" points="2429.83,-174 2429.83,-193 2472.83,-193 2472.83,-174 2429.83,-174"/>
<text text-anchor="middle" x="2451.33" y="-181" font-family="Helvetica" font-size="10.00">cstdio</text>
</a>
</g>
</g>
<!-- Node2&#45;&gt;Node4 -->
<g id="edge3" class="edge">
<title>Node2&#45;&gt;Node4</title>
<path fill="none" stroke="midnightblue" d="M1658.6,-243.65C1828.55,-242.23 2276.6,-235.07 2420.33,-199 2422.32,-198.5 2424.33,-197.87 2426.33,-197.16"/>
<polygon fill="midnightblue" stroke="midnightblue" points="2428.14,-200.2 2435.99,-193.09 2425.42,-193.75 2428.14,-200.2"/>
</g>
<!-- Node5 -->
<g id="node5" class="node">
<title>Node5</title>
<g id="a_node5"><a xlink:href="StatisticalUtils_8h.html" target="_top" xlink:title="Utility functions for statistical interpretations in MaCh3.">
<polygon fill="white" stroke="black" points="1477.33,-174 1477.33,-193 1597.33,-193 1597.33,-174 1477.33,-174"/>
<text text-anchor="middle" x="1537.33" y="-181" font-family="Helvetica" font-size="10.00">Fitters/StatisticalUtils.h</text>
</a>
</g>
</g>
<!-- Node2&#45;&gt;Node5 -->
<g id="edge4" class="edge">
<title>Node2&#45;&gt;Node5</title>
<path fill="none" stroke="midnightblue" d="M1584.45,-235.48C1576.04,-226.37 1562.51,-211.74 1552.1,-200.48"/>
<polygon fill="midnightblue" stroke="midnightblue" points="1554.55,-197.98 1545.2,-193.01 1549.41,-202.73 1554.55,-197.98"/>
</g>
<!-- Node29 -->
<g id="node15" class="node">
<title>Node29</title>
<g id="a_node15"><a xlink:title=" ">
<polygon fill="white" stroke="#bfbfbf" points="645.83,-0.5 645.83,-19.5 692.83,-19.5 692.83,-0.5 645.83,-0.5"/>
<text text-anchor="middle" x="669.33" y="-7.5" font-family="Helvetica" font-size="10.00">TFile.h</text>
</a>
</g>
</g>
<!-- Node2&#45;&gt;Node29 -->
<g id="edge46" class="edge">
<title>Node2&#45;&gt;Node29</title>
<path fill="none" stroke="midnightblue" d="M1526.04,-243.71C1239.76,-242.25 120.88,-234.31 55.33,-199 16.64,-178.16 -15.62,-148.85 8.33,-112 41.72,-60.62 74.97,-71.22 134.33,-56 229.93,-31.48 533.43,-16.74 635.48,-12.37"/>
<polygon fill="midnightblue" stroke="midnightblue" points="635.7,-15.86 645.54,-11.95 635.4,-8.87 635.7,-15.86"/>
</g>
<!-- Node2&#45;&gt;Node46 -->
<g id="edge27" class="edge">
<title>Node2&#45;&gt;Node46</title>
<path fill="none" stroke="midnightblue" d="M1658.52,-243.12C1859.87,-240.1 2453.06,-228.73 2481.33,-199 2533.45,-144.17 2405.39,-128.74 2316.96,-124.5"/>
<polygon fill="midnightblue" stroke="midnightblue" points="2317.07,-121 2306.93,-124.06 2316.76,-127.99 2317.07,-121"/>
</g>
<!-- Node49 -->
<g id="node19" class="node">
<title>Node49</title>
<g id="a_node19"><a xlink:title=" ">
<polygon fill="white" stroke="#bfbfbf" points="150.33,-56.5 150.33,-75.5 222.33,-75.5 222.33,-56.5 150.33,-56.5"/>
<text text-anchor="middle" x="186.33" y="-63.5" font-family="Helvetica" font-size="10.00">TRandom3.h</text>
</a>
</g>
</g>
<!-- Node2&#45;&gt;Node49 -->
<g id="edge62" class="edge">
<title>Node2&#45;&gt;Node49</title>
<path fill="none" stroke="midnightblue" d="M1526.1,-243.1C1301.98,-239.84 573.11,-227.27 340.33,-199 195.65,-181.43 111.26,-245.09 19.33,-132 -15.64,-88.98 78.99,-74.36 139.74,-69.44"/>
<polygon fill="midnightblue" stroke="midnightblue" points="140.2,-72.92 149.91,-68.68 139.67,-65.94 140.2,-72.92"/>
</g>
<!-- Node50 -->
<g id="node20" class="node">
<title>Node50</title>
<g id="a_node20"><a xlink:title=" ">
<polygon fill="white" stroke="#bfbfbf" points="1349.83,-112.5 1349.83,-131.5 1412.83,-131.5 1412.83,-112.5 1349.83,-112.5"/>
<text text-anchor="middle" x="1381.33" y="-119.5" font-family="Helvetica" font-size="10.00">TCanvas.h</text>
</a>
</g>
</g>
<!-- Node2&#45;&gt;Node50 -->
<g id="edge48" class="edge">
<title>Node2&#45;&gt;Node50</title>
<path fill="none" stroke="midnightblue" d="M1532.59,-235.5C1502.62,-229.08 1466.93,-217.99 1439.33,-199 1417.5,-183.98 1400.34,-158.13 1390.51,-140.81"/>
<polygon fill="midnightblue" stroke="midnightblue" points="1393.44,-138.86 1385.6,-131.74 1387.28,-142.2 1393.44,-138.86"/>
</g>
<!-- Node51 -->
<g id="node21" class="node">
<title>Node51</title>
<g id="a_node21"><a xlink:title=" ">
<polygon fill="white" stroke="#bfbfbf" points="1430.83,-112.5 1430.83,-131.5 1479.83,-131.5 1479.83,-112.5 1430.83,-112.5"/>
<text text-anchor="middle" x="1455.33" y="-119.5" font-family="Helvetica" font-size="10.00">TLine.h</text>
</a>
</g>
</g>
<!-- Node2&#45;&gt;Node51 -->
<g id="edge49" class="edge">
<title>Node2&#45;&gt;Node51</title>
<path fill="none" stroke="midnightblue" d="M1526.17,-239.85C1498.07,-234.41 1467.82,-222.89 1450.33,-199 1438.16,-182.37 1442.66,-157.82 1448.05,-141.16"/>
<polygon fill="midnightblue" stroke="midnightblue" points="1451.43,-142.1 1451.55,-131.51 1444.85,-139.71 1451.43,-142.1"/>
</g>
<!-- Node52 -->
<g id="node22" class="node">
<title>Node52</title>
<g id="a_node22"><a xlink:title=" ">
<polygon fill="white" stroke="#bfbfbf" points="1498.33,-112.5 1498.33,-131.5 1556.33,-131.5 1556.33,-112.5 1498.33,-112.5"/>
<text text-anchor="middle" x="1527.33" y="-119.5" font-family="Helvetica" font-size="10.00">TROOT.h</text>
</a>
</g>
</g>
<!-- Node2&#45;&gt;Node52 -->
<g id="edge60" class="edge">
<title>Node2&#45;&gt;Node52</title>
<path fill="none" stroke="midnightblue" d="M1526.11,-237.8C1500.99,-231.85 1474.75,-220.49 1459.33,-199 1451.3,-187.8 1452.81,-180.14 1459.33,-168 1466.95,-153.82 1481.23,-143.35 1494.74,-136.1"/>
<polygon fill="midnightblue" stroke="midnightblue" points="1496.46,-139.16 1503.88,-131.59 1493.36,-132.88 1496.46,-139.16"/>
</g>
<!-- Node53 -->
<g id="node23" class="node">
<title>Node53</title>
<g id="a_node23"><a xlink:title=" ">
<polygon fill="white" stroke="#bfbfbf" points="1574.83,-112.5 1574.83,-131.5 1627.83,-131.5 1627.83,-112.5 1574.83,-112.5"/>
<text text-anchor="middle" x="1601.33" y="-119.5" font-family="Helvetica" font-size="10.00">TStyle.h</text>
</a>
</g>
</g>
<!-- Node2&#45;&gt;Node53 -->
<g id="edge55" class="edge">
<title>Node2&#45;&gt;Node53</title>
<path fill="none" stroke="midnightblue" d="M1526.26,-235.51C1504.15,-229.16 1481.74,-218.13 1468.33,-199 1460.42,-187.72 1460.3,-179.2 1468.33,-168 1474.17,-159.85 1527.44,-143.59 1564.76,-133.01"/>
<polygon fill="midnightblue" stroke="midnightblue" points="1566.13,-136.26 1574.82,-130.19 1564.24,-129.52 1566.13,-136.26"/>
</g>
<!-- Node54 -->
<g id="node24" class="node">
<title>Node54</title>
<g id="a_node24"><a xlink:href="ParameterHandlerUtils_8h.html" target="_top" xlink:title=" ">
<polygon fill="white" stroke="red" points="623.83,-168.5 623.83,-198.5 772.83,-198.5 772.83,-168.5 623.83,-168.5"/>
<text text-anchor="start" x="631.83" y="-186.5" font-family="Helvetica" font-size="10.00">Parameters/ParameterHandler</text>
<text text-anchor="middle" x="698.33" y="-175.5" font-family="Helvetica" font-size="10.00">Utils.h</text>
</a>
</g>
</g>
<!-- Node2&#45;&gt;Node54 -->
<g id="edge28" class="edge">
<title>Node2&#45;&gt;Node54</title>
<path fill="none" stroke="midnightblue" d="M1526.23,-239.6C1366.64,-228.98 960.38,-201.94 783.16,-190.15"/>
<polygon fill="midnightblue" stroke="midnightblue" points="783.32,-186.65 773.11,-189.48 782.85,-193.63 783.32,-186.65"/>
</g>
<!-- Node58 -->
<g id="node28" class="node">
<title>Node58</title>
<g id="a_node28"><a xlink:title=" ">
<polygon fill="white" stroke="#bfbfbf" points="28.33,-112.5 28.33,-131.5 94.33,-131.5 94.33,-112.5 28.33,-112.5"/>
<text text-anchor="middle" x="61.33" y="-119.5" font-family="Helvetica" font-size="10.00">TVectorD.h</text>
</a>
</g>
</g>
<!-- Node2&#45;&gt;Node58 -->
<g id="edge53" class="edge">
<title>Node2&#45;&gt;Node58</title>
<path fill="none" stroke="midnightblue" d="M1526.09,-242.91C1368.04,-239.88 956.53,-229.47 614.33,-199 388.37,-178.88 332.27,-168.24 108.33,-132 107.06,-131.79 105.78,-131.58 104.48,-131.36"/>
<polygon fill="midnightblue" stroke="midnightblue" points="104.87,-127.88 94.41,-129.58 103.65,-134.77 104.87,-127.88"/>
</g>
<!-- Node42 -->
<g id="node31" class="node">
<title>Node42</title>
<g id="a_node31"><a xlink:title=" ">
<polygon fill="white" stroke="#bfbfbf" points="921.33,-112.5 921.33,-131.5 971.33,-131.5 971.33,-112.5 921.33,-112.5"/>
<text text-anchor="middle" x="946.33" y="-119.5" font-family="Helvetica" font-size="10.00">TTree.h</text>
</a>
</g>
</g>
<!-- Node2&#45;&gt;Node42 -->
<g id="edge59" class="edge">
<title>Node2&#45;&gt;Node42</title>
<path fill="none" stroke="midnightblue" d="M1526.21,-240.75C1412.25,-234.66 1183.65,-220.22 1106.33,-199 1054.69,-184.82 999.26,-154.76 969.1,-136.99"/>
<polygon fill="midnightblue" stroke="midnightblue" points="970.61,-133.82 960.23,-131.69 967.02,-139.82 970.61,-133.82"/>
</g>
<!-- Node61 -->
<g id="node32" class="node">
<title>Node61</title>
<g id="a_node32"><a xlink:title=" ">
<polygon fill="white" stroke="#bfbfbf" points="989.83,-112.5 989.83,-131.5 1042.83,-131.5 1042.83,-112.5 989.83,-112.5"/>
<text text-anchor="middle" x="1016.33" y="-119.5" font-family="Helvetica" font-size="10.00">TMath.h</text>
</a>
</g>
</g>
<!-- Node2&#45;&gt;Node61 -->
<g id="edge65" class="edge">
<title>Node2&#45;&gt;Node61</title>
<path fill="none" stroke="midnightblue" d="M1526.28,-242.32C1446.62,-238.97 1309.2,-228.95 1195.33,-199 1137.98,-183.91 1075.05,-153.75 1041.21,-136.3"/>
<polygon fill="midnightblue" stroke="midnightblue" points="1042.55,-133.05 1032.07,-131.53 1039.31,-139.26 1042.55,-133.05"/>
</g>
<!-- Node45 -->
<g id="node34" class="node">
<title>Node45</title>
<g id="a_node34"><a xlink:title=" ">
<polygon fill="white" stroke="#bfbfbf" points="1060.83,-112.5 1060.83,-131.5 1137.83,-131.5 1137.83,-112.5 1060.83,-112.5"/>
<text text-anchor="middle" x="1099.33" y="-119.5" font-family="Helvetica" font-size="10.00">TStopwatch.h</text>
</a>
</g>
</g>
<!-- Node2&#45;&gt;Node45 -->
<g id="edge56" class="edge">
<title>Node2&#45;&gt;Node45</title>
<path fill="none" stroke="midnightblue" d="M1526.18,-238.73C1463.98,-232.72 1368.66,-220.77 1288.33,-199 1228.42,-182.77 1161.83,-153.07 1125.87,-136"/>
<polygon fill="midnightblue" stroke="midnightblue" points="1127.1,-132.71 1116.57,-131.54 1124.08,-139.02 1127.1,-132.71"/>
</g>
<!-- Node64 -->
<g id="node36" class="node">
<title>Node64</title>
<g id="a_node36"><a xlink:title=" ">
<polygon fill="white" stroke="#bfbfbf" points="1156.33,-112.5 1156.33,-131.5 1266.33,-131.5 1266.33,-112.5 1156.33,-112.5"/>
<text text-anchor="middle" x="1211.33" y="-119.5" font-family="Helvetica" font-size="10.00">TMatrixDSymEigen.h</text>
</a>
</g>
</g>
<!-- Node2&#45;&gt;Node64 -->
<g id="edge66" class="edge">
<title>Node2&#45;&gt;Node64</title>
<path fill="none" stroke="midnightblue" d="M1526.16,-236.56C1478.32,-229.93 1412.65,-218.23 1357.33,-199 1311.01,-182.9 1261.19,-154.23 1233.37,-137.08"/>
<polygon fill="midnightblue" stroke="midnightblue" points="1235.15,-134.07 1224.82,-131.74 1231.45,-140.01 1235.15,-134.07"/>
</g>
<!-- Node67 -->
<g id="node38" class="node">
<title>Node67</title>
<g id="a_node38"><a xlink:title=" ">
<polygon fill="white" stroke="#bfbfbf" points="1284.83,-112.5 1284.83,-131.5 1331.83,-131.5 1331.83,-112.5 1284.83,-112.5"/>
<text text-anchor="middle" x="1308.33" y="-119.5" font-family="Helvetica" font-size="10.00">TKey.h</text>
</a>
</g>
</g>
<!-- Node2&#45;&gt;Node67 -->
<g id="edge61" class="edge">
<title>Node2&#45;&gt;Node67</title>
<path fill="none" stroke="midnightblue" d="M1528.93,-235.48C1491.88,-228.87 1444.95,-217.58 1406.33,-199 1374.03,-183.46 1342.29,-155.98 1324.05,-138.67"/>
<polygon fill="midnightblue" stroke="midnightblue" points="1326.28,-135.96 1316.66,-131.51 1321.4,-140.99 1326.28,-135.96"/>
</g>
<!-- Node43 -->
<g id="node39" class="node">
<title>Node43</title>
<g id="a_node39"><a xlink:title=" ">
<polygon fill="white" stroke="#bfbfbf" points="1615.33,-174 1615.33,-193 1677.33,-193 1677.33,-174 1615.33,-174"/>
<text text-anchor="middle" x="1646.33" y="-181" font-family="Helvetica" font-size="10.00">TBranch.h</text>
</a>
</g>
</g>
<!-- Node2&#45;&gt;Node43 -->
<g id="edge47" class="edge">
<title>Node2&#45;&gt;Node43</title>
<path fill="none" stroke="midnightblue" d="M1600.07,-235.48C1608.33,-226.37 1621.61,-211.74 1631.83,-200.48"/>
<polygon fill="midnightblue" stroke="midnightblue" points="1634.48,-202.77 1638.61,-193.01 1629.3,-198.06 1634.48,-202.77"/>
</g>
<!-- Node2&#45;&gt;Node68 -->
<g id="edge50" class="edge">
<title>Node2&#45;&gt;Node68</title>
<path fill="none" stroke="midnightblue" d="M1658.55,-243.03C1841.4,-239.99 2350.69,-229 2515.33,-199 2519.51,-198.24 2523.84,-197.19 2528.08,-196.01"/>
<polygon fill="midnightblue" stroke="midnightblue" points="2529.19,-199.33 2537.74,-193.06 2527.15,-192.63 2529.19,-199.33"/>
</g>
<!-- Node69 -->
<g id="node41" class="node">
<title>Node69</title>
<g id="a_node41"><a xlink:title=" ">
<polygon fill="white" stroke="#bfbfbf" points="1695.33,-174 1695.33,-193 1751.33,-193 1751.33,-174 1695.33,-174"/>
<text text-anchor="middle" x="1723.33" y="-181" font-family="Helvetica" font-size="10.00">TString.h</text>
</a>
</g>
</g>
<!-- Node2&#45;&gt;Node69 -->
<g id="edge51" class="edge">
<title>Node2&#45;&gt;Node69</title>
<path fill="none" stroke="midnightblue" d="M1611.1,-235.48C1633.18,-225.45 1670.05,-208.7 1695.47,-197.15"/>
<polygon fill="midnightblue" stroke="midnightblue" points="1696.94,-200.33 1704.6,-193.01 1694.04,-193.96 1696.94,-200.33"/>
</g>
<!-- Node70 -->
<g id="node42" class="node">
<title>Node70</title>
<g id="a_node42"><a xlink:title=" ">
<polygon fill="white" stroke="#bfbfbf" points="1769.33,-174 1769.33,-193 1853.33,-193 1853.33,-174 1769.33,-174"/>
<text text-anchor="middle" x="1811.33" y="-181" font-family="Helvetica" font-size="10.00">TGraphErrors.h</text>
</a>
</g>
</g>
<!-- Node2&#45;&gt;Node70 -->
<g id="edge52" class="edge">
<title>Node2&#45;&gt;Node70</title>
<path fill="none" stroke="midnightblue" d="M1624.89,-235.44C1658.77,-226.49 1713.32,-211.98 1760.33,-199 1764.12,-197.96 1768.06,-196.86 1771.99,-195.75"/>
<polygon fill="midnightblue" stroke="midnightblue" points="1773.02,-199.1 1781.69,-193.01 1771.11,-192.36 1773.02,-199.1"/>
</g>
<!-- Node71 -->
<g id="node43" class="node">
<title>Node71</title>
<g id="a_node43"><a xlink:title=" ">
<polygon fill="white" stroke="#bfbfbf" points="1871.33,-174 1871.33,-193 1925.33,-193 1925.33,-174 1871.33,-174"/>
<text text-anchor="middle" x="1898.33" y="-181" font-family="Helvetica" font-size="10.00">TColor.h</text>
</a>
</g>
</g>
<!-- Node2&#45;&gt;Node71 -->
<g id="edge54" class="edge">
<title>Node2&#45;&gt;Node71</title>
<path fill="none" stroke="midnightblue" d="M1658.4,-237.06C1713.61,-230.3 1794.05,-218.19 1862.33,-199 1864.77,-198.31 1867.27,-197.52 1869.76,-196.65"/>
<polygon fill="midnightblue" stroke="midnightblue" points="1871.04,-199.91 1879.17,-193.12 1868.58,-193.36 1871.04,-199.91"/>
</g>
<!-- Node72 -->
<g id="node44" class="node">
<title>Node72</title>
<g id="a_node44"><a xlink:title=" ">
<polygon fill="white" stroke="#bfbfbf" points="1943.83,-174 1943.83,-193 1992.83,-193 1992.83,-174 1943.83,-174"/>
<text text-anchor="middle" x="1968.33" y="-181" font-family="Helvetica" font-size="10.00">TText.h</text>
</a>
</g>
</g>
<!-- Node2&#45;&gt;Node72 -->
<g id="edge57" class="edge">
<title>Node2&#45;&gt;Node72</title>
<path fill="none" stroke="midnightblue" d="M1658.63,-240.63C1728.31,-235.85 1840.61,-224.63 1934.33,-199 1936.63,-198.37 1938.98,-197.62 1941.31,-196.8"/>
<polygon fill="midnightblue" stroke="midnightblue" points="1942.64,-200.03 1950.66,-193.11 1940.07,-193.52 1942.64,-200.03"/>
</g>
<!-- Node73 -->
<g id="node45" class="node">
<title>Node73</title>
<g id="a_node45"><a xlink:title=" ">
<polygon fill="white" stroke="#bfbfbf" points="2010.83,-174 2010.83,-193 2067.83,-193 2067.83,-174 2010.83,-174"/>
<text text-anchor="middle" x="2039.33" y="-181" font-family="Helvetica" font-size="10.00">TGaxis.h</text>
</a>
</g>
</g>
<!-- Node2&#45;&gt;Node73 -->
<g id="edge58" class="edge">
<title>Node2&#45;&gt;Node73</title>
<path fill="none" stroke="midnightblue" d="M1658.39,-241.9C1739.99,-238.13 1882.59,-227.69 2001.33,-199 2004.32,-198.28 2007.4,-197.38 2010.44,-196.39"/>
<polygon fill="midnightblue" stroke="midnightblue" points="2011.67,-199.66 2019.91,-193 2009.32,-193.07 2011.67,-199.66"/>
</g>
<!-- Node74 -->
<g id="node46" class="node">
<title>Node74</title>
<g id="a_node46"><a xlink:title=" ">
<polygon fill="white" stroke="#bfbfbf" points="2086.33,-174 2086.33,-193 2166.33,-193 2166.33,-174 2086.33,-174"/>
<text text-anchor="middle" x="2126.33" y="-181" font-family="Helvetica" font-size="10.00">TGraphPolar.h</text>
</a>
</g>
</g>
<!-- Node2&#45;&gt;Node74 -->
<g id="edge63" class="edge">
<title>Node2&#45;&gt;Node74</title>
<path fill="none" stroke="midnightblue" d="M1658.64,-241.81C1752.4,-237.82 1928.75,-227 2076.33,-199 2081.02,-198.11 2085.91,-196.97 2090.71,-195.72"/>
<polygon fill="midnightblue" stroke="midnightblue" points="2091.65,-199.09 2100.35,-193.05 2089.78,-192.35 2091.65,-199.09"/>
</g>
<!-- Node75 -->
<g id="node47" class="node">
<title>Node75</title>
<g id="a_node47"><a xlink:title=" ">
<polygon fill="white" stroke="#bfbfbf" points="2184.83,-174 2184.83,-193 2245.83,-193 2245.83,-174 2184.83,-174"/>
<text text-anchor="middle" x="2215.33" y="-181" font-family="Helvetica" font-size="10.00">TCandle.h</text>
</a>
</g>
</g>
<!-- Node2&#45;&gt;Node75 -->
<g id="edge64" class="edge">
<title>Node2&#45;&gt;Node75</title>
<path fill="none" stroke="midnightblue" d="M1658.74,-244.67C1767.83,-244.49 1991.25,-238.7 2175.33,-199 2178.58,-198.3 2181.92,-197.4 2185.23,-196.39"/>
<polygon fill="midnightblue" stroke="midnightblue" points="2186.53,-199.64 2194.88,-193.12 2184.29,-193.01 2186.53,-199.64"/>
</g>
<!-- Node76 -->
<g id="node48" class="node">
<title>Node76</title>
<g id="a_node48"><a xlink:title=" ">
<polygon fill="white" stroke="#bfbfbf" points="2263.83,-174 2263.83,-193 2340.83,-193 2340.83,-174 2263.83,-174"/>
<text text-anchor="middle" x="2302.33" y="-181" font-family="Helvetica" font-size="10.00">TVirtualFFT.h</text>
</a>
</g>
</g>
<!-- Node2&#45;&gt;Node76 -->
<g id="edge67" class="edge">
<title>Node2&#45;&gt;Node76</title>
<path fill="none" stroke="midnightblue" d="M1658.71,-244.41C1778.65,-244.06 2039.02,-238.32 2254.33,-199 2258.79,-198.19 2263.41,-197.1 2267.96,-195.9"/>
<polygon fill="midnightblue" stroke="midnightblue" points="2269.03,-199.23 2277.68,-193.11 2267.1,-192.5 2269.03,-199.23"/>
</g>
<!-- Node6 -->
<g id="node6" class="node">
<title>Node6</title>
<g id="a_node6"><a xlink:title=" ">
<polygon fill="white" stroke="#bfbfbf" points="1767.33,-112.5 1767.33,-131.5 1821.33,-131.5 1821.33,-112.5 1767.33,-112.5"/>
<text text-anchor="middle" x="1794.33" y="-119.5" font-family="Helvetica" font-size="10.00">iostream</text>
</a>
</g>
</g>
<!-- Node5&#45;&gt;Node6 -->
<g id="edge5" class="edge">
<title>Node5&#45;&gt;Node6</title>
<path fill="none" stroke="midnightblue" d="M1575.13,-173.98C1618.98,-164.06 1693.45,-147.1 1757.33,-132 1757.43,-131.98 1757.53,-131.95 1757.63,-131.93"/>
<polygon fill="midnightblue" stroke="midnightblue" points="1758.35,-135.36 1767.26,-129.63 1756.72,-128.55 1758.35,-135.36"/>
</g>
<!-- Node7 -->
<g id="node7" class="node">
<title>Node7</title>
<g id="a_node7"><a xlink:title=" ">
<polygon fill="white" stroke="#bfbfbf" points="1839.33,-112.5 1839.33,-131.5 1891.33,-131.5 1891.33,-112.5 1839.33,-112.5"/>
<text text-anchor="middle" x="1865.33" y="-119.5" font-family="Helvetica" font-size="10.00">sstream</text>
</a>
</g>
</g>
<!-- Node5&#45;&gt;Node7 -->
<g id="edge6" class="edge">
<title>Node5&#45;&gt;Node7</title>
<path fill="none" stroke="midnightblue" d="M1576.31,-173.97C1586.09,-171.92 1596.58,-169.81 1606.33,-168 1702.38,-150.2 1729.91,-152.41 1829.18,-132.08"/>
<polygon fill="midnightblue" stroke="midnightblue" points="1829.94,-135.5 1839.02,-130.04 1828.52,-128.65 1829.94,-135.5"/>
</g>
<!-- Node8 -->
<g id="node8" class="node">
<title>Node8</title>
<g id="a_node8"><a xlink:title=" ">
<polygon fill="white" stroke="#bfbfbf" points="1909.33,-112.5 1909.33,-131.5 1959.33,-131.5 1959.33,-112.5 1909.33,-112.5"/>
<text text-anchor="middle" x="1934.33" y="-119.5" font-family="Helvetica" font-size="10.00">iomanip</text>
</a>
</g>
</g>
<!-- Node5&#45;&gt;Node8 -->
<g id="edge7" class="edge">
<title>Node5&#45;&gt;Node8</title>
<path fill="none" stroke="midnightblue" d="M1575.18,-173.94C1585.27,-171.82 1596.19,-169.68 1606.33,-168 1733.03,-146.97 1769.31,-156.41 1899.23,-131.97"/>
<polygon fill="midnightblue" stroke="midnightblue" points="1900,-135.39 1909.17,-130.07 1898.69,-128.51 1900,-135.39"/>
</g>
<!-- Node9 -->
<g id="node9" class="node">
<title>Node9</title>
<g id="a_node9"><a xlink:title=" ">
<polygon fill="white" stroke="#bfbfbf" points="1977.83,-112.5 1977.83,-131.5 2020.83,-131.5 2020.83,-112.5 1977.83,-112.5"/>
<text text-anchor="middle" x="1999.33" y="-119.5" font-family="Helvetica" font-size="10.00">vector</text>
</a>
</g>
</g>
<!-- Node5&#45;&gt;Node9 -->
<g id="edge8" class="edge">
<title>Node5&#45;&gt;Node9</title>
<path fill="none" stroke="midnightblue" d="M1574.44,-173.93C1584.73,-171.77 1595.93,-169.61 1606.33,-168 1762.84,-143.84 1807.75,-161.89 1967.58,-131.76"/>
<polygon fill="midnightblue" stroke="midnightblue" points="1968.61,-135.13 1977.77,-129.81 1967.29,-128.25 1968.61,-135.13"/>
</g>
<!-- Node10 -->
<g id="node10" class="node">
<title>Node10</title>
<g id="a_node10"><a xlink:title=" ">
<polygon fill="white" stroke="#bfbfbf" points="2039.33,-112.5 2039.33,-131.5 2095.33,-131.5 2095.33,-112.5 2039.33,-112.5"/>
<text text-anchor="middle" x="2067.33" y="-119.5" font-family="Helvetica" font-size="10.00">algorithm</text>
</a>
</g>
</g>
<!-- Node5&#45;&gt;Node10 -->
<g id="edge9" class="edge">
<title>Node5&#45;&gt;Node10</title>
<path fill="none" stroke="midnightblue" d="M1573.71,-173.99C1584.19,-171.77 1595.67,-169.57 1606.33,-168 1793,-140.55 1843.02,-161.82 2029.33,-132 2029.43,-131.98 2029.53,-131.97 2029.63,-131.95"/>
<polygon fill="midnightblue" stroke="midnightblue" points="2030.02,-135.44 2039.2,-130.15 2028.73,-128.56 2030.02,-135.44"/>
</g>
<!-- Node11 -->
<g id="node11" class="node">
<title>Node11</title>
<g id="a_node11"><a xlink:title=" ">
<polygon fill="white" stroke="#bfbfbf" points="2113.33,-112.5 2113.33,-131.5 2157.33,-131.5 2157.33,-112.5 2113.33,-112.5"/>
<text text-anchor="middle" x="2135.33" y="-119.5" font-family="Helvetica" font-size="10.00">cmath</text>
</a>
</g>
</g>
<!-- Node5&#45;&gt;Node11 -->
<g id="edge10" class="edge">
<title>Node5&#45;&gt;Node11</title>
<path fill="none" stroke="midnightblue" d="M1573.34,-173.98C1583.92,-171.73 1595.54,-169.52 1606.33,-168 1822.86,-137.56 1884.11,-170.17 2103.23,-131.82"/>
<polygon fill="midnightblue" stroke="midnightblue" points="2103.88,-135.26 2113.11,-130.06 2102.65,-128.36 2103.88,-135.26"/>
</g>
<!-- Node12 -->
<g id="node12" class="node">
<title>Node12</title>
<g id="a_node12"><a xlink:href="Manager_8h.html" target="_top" xlink:title=" ">
<polygon fill="white" stroke="red" points="1645.83,-112.5 1645.83,-131.5 1748.83,-131.5 1748.83,-112.5 1645.83,-112.5"/>
<text text-anchor="middle" x="1697.33" y="-119.5" font-family="Helvetica" font-size="10.00">Manager/Manager.h</text>
</a>
</g>
</g>
<!-- Node5&#45;&gt;Node12 -->
<g id="edge11" class="edge">
<title>Node5&#45;&gt;Node12</title>
<path fill="none" stroke="midnightblue" d="M1560.25,-173.98C1587.7,-163.77 1633.85,-146.61 1664.93,-135.05"/>
<polygon fill="midnightblue" stroke="midnightblue" points="1666.3,-138.28 1674.45,-131.51 1663.86,-131.71 1666.3,-138.28"/>
</g>
<!-- Node5&#45;&gt;Node46 -->
<g id="edge15" class="edge">
<title>Node5&#45;&gt;Node46</title>
<path fill="none" stroke="midnightblue" d="M1572.97,-174C1583.65,-171.72 1595.42,-169.49 1606.33,-168 1850.18,-134.71 1916.25,-154.33 2165.42,-132.02"/>
<polygon fill="midnightblue" stroke="midnightblue" points="2165.86,-135.5 2175.5,-131.11 2165.23,-128.53 2165.86,-135.5"/>
</g>
<!-- Node5&#45;&gt;Node50 -->
<g id="edge23" class="edge">
<title>Node5&#45;&gt;Node50</title>
<path fill="none" stroke="midnightblue" d="M1514.98,-173.98C1488.34,-163.81 1443.62,-146.76 1413.32,-135.2"/>
<polygon fill="midnightblue" stroke="midnightblue" points="1414.23,-131.8 1403.64,-131.51 1411.74,-138.34 1414.23,-131.8"/>
</g>
<!-- Node5&#45;&gt;Node51 -->
<g id="edge24" class="edge">
<title>Node5&#45;&gt;Node51</title>
<path fill="none" stroke="midnightblue" d="M1525.58,-173.98C1512.55,-164.52 1491.3,-149.1 1475.57,-137.69"/>
<polygon fill="midnightblue" stroke="midnightblue" points="1477.21,-134.55 1467.06,-131.51 1473.1,-140.21 1477.21,-134.55"/>
</g>
<!-- Node5&#45;&gt;Node52 -->
<g id="edge25" class="edge">
<title>Node5&#45;&gt;Node52</title>
<path fill="none" stroke="midnightblue" d="M1535.9,-173.98C1534.49,-165.58 1532.29,-152.48 1530.47,-141.66"/>
<polygon fill="midnightblue" stroke="midnightblue" points="1533.87,-140.79 1528.76,-131.51 1526.97,-141.95 1533.87,-140.79"/>
</g>
<!-- Node5&#45;&gt;Node53 -->
<g id="edge26" class="edge">
<title>Node5&#45;&gt;Node53</title>
<path fill="none" stroke="midnightblue" d="M1546.5,-173.98C1556.48,-164.7 1572.64,-149.67 1584.84,-138.33"/>
<polygon fill="midnightblue" stroke="midnightblue" points="1587.24,-140.88 1592.18,-131.51 1582.47,-135.75 1587.24,-140.88"/>
</g>
<!-- Node13 -->
<g id="node13" class="node">
<title>Node13</title>
<g id="a_node13"><a xlink:href="SampleStructs_8h.html" target="_top" xlink:title=" ">
<polygon fill="white" stroke="red" points="1631.83,-56.5 1631.83,-75.5 1762.83,-75.5 1762.83,-56.5 1631.83,-56.5"/>
<text text-anchor="middle" x="1697.33" y="-63.5" font-family="Helvetica" font-size="10.00">Samples/SampleStructs.h</text>
</a>
</g>
</g>
<!-- Node12&#45;&gt;Node13 -->
<g id="edge12" class="edge">
<title>Node12&#45;&gt;Node13</title>
<path fill="none" stroke="midnightblue" d="M1697.33,-112.08C1697.33,-105.01 1697.33,-94.86 1697.33,-85.99"/>
<polygon fill="midnightblue" stroke="midnightblue" points="1700.83,-85.75 1697.33,-75.75 1693.83,-85.75 1700.83,-85.75"/>
</g>
<!-- Node28 -->
<g id="node14" class="node">
<title>Node28</title>
<g id="a_node14"><a xlink:title=" ">
<polygon fill="white" stroke="#bfbfbf" points="1661.83,-0.5 1661.83,-19.5 1732.83,-19.5 1732.83,-0.5 1661.83,-0.5"/>
<text text-anchor="middle" x="1697.33" y="-7.5" font-family="Helvetica" font-size="10.00">TObjString.h</text>
</a>
</g>
</g>
<!-- Node13&#45;&gt;Node28 -->
<g id="edge13" class="edge">
<title>Node13&#45;&gt;Node28</title>
<path fill="none" stroke="midnightblue" d="M1697.33,-56.08C1697.33,-49.01 1697.33,-38.86 1697.33,-29.99"/>
<polygon fill="midnightblue" stroke="midnightblue" points="1700.83,-29.75 1697.33,-19.75 1693.83,-29.75 1700.83,-29.75"/>
</g>
<!-- Node13&#45;&gt;Node29 -->
<g id="edge14" class="edge">
<title>Node13&#45;&gt;Node29</title>
<path fill="none" stroke="midnightblue" d="M1631.46,-61.54C1433.89,-51.16 850.85,-20.53 703.47,-12.79"/>
<polygon fill="midnightblue" stroke="midnightblue" points="703.41,-9.29 693.24,-12.26 703.04,-16.28 703.41,-9.29"/>
</g>
<!-- Node46&#45;&gt;Node13 -->
<g id="edge16" class="edge">
<title>Node46&#45;&gt;Node13</title>
<path fill="none" stroke="midnightblue" d="M2175.49,-113.01C2172.39,-112.66 2169.33,-112.32 2166.33,-112 2027.78,-97.04 1865.93,-82.06 1773.15,-73.72"/>
<polygon fill="midnightblue" stroke="midnightblue" points="1773.29,-70.21 1763.01,-72.81 1772.66,-77.19 1773.29,-70.21"/>
</g>
<!-- Node46&#45;&gt;Node28 -->
<g id="edge21" class="edge">
<title>Node46&#45;&gt;Node28</title>
<path fill="none" stroke="midnightblue" d="M2199.1,-112.46C2098.71,-92.16 1846.51,-41.17 1742.88,-20.21"/>
<polygon fill="midnightblue" stroke="midnightblue" points="1743.53,-16.77 1733.03,-18.22 1742.14,-23.63 1743.53,-16.77"/>
</g>
<!-- Node47 -->
<g id="node17" class="node">
<title>Node47</title>
<g id="a_node17"><a xlink:href="ParameterStructs_8h.html" target="_top" xlink:title=" ">
<polygon fill="white" stroke="red" points="1137.83,-56.5 1137.83,-75.5 1292.83,-75.5 1292.83,-56.5 1137.83,-56.5"/>
<text text-anchor="middle" x="1215.33" y="-63.5" font-family="Helvetica" font-size="10.00">Parameters/ParameterStructs.h</text>
</a>
</g>
</g>
<!-- Node46&#45;&gt;Node47 -->
<g id="edge17" class="edge">
<title>Node46&#45;&gt;Node47</title>
<path fill="none" stroke="midnightblue" d="M2175.51,-112.83C2172.41,-112.53 2169.34,-112.25 2166.33,-112 1849.15,-85.5 1471.04,-73.4 1303.14,-69.04"/>
<polygon fill="midnightblue" stroke="midnightblue" points="1303.2,-65.54 1293.12,-68.78 1303.02,-72.54 1303.2,-65.54"/>
</g>
<!-- Node46&#45;&gt;Node48 -->
<g id="edge20" class="edge">
<title>Node46&#45;&gt;Node48</title>
<path fill="none" stroke="midnightblue" d="M2262.56,-112.44C2284.71,-103.52 2319.65,-89.44 2344.77,-79.32"/>
<polygon fill="midnightblue" stroke="midnightblue" points="2346.23,-82.5 2354.2,-75.52 2343.61,-76.01 2346.23,-82.5"/>
</g>
<!-- Node46&#45;&gt;Node49 -->
<g id="edge22" class="edge">
<title>Node46&#45;&gt;Node49</title>
<path fill="none" stroke="midnightblue" d="M2175.52,-112.74C2172.41,-112.46 2169.34,-112.21 2166.33,-112 1772.66,-83.97 492.8,-70.02 232.71,-67.44"/>
<polygon fill="midnightblue" stroke="midnightblue" points="232.52,-63.94 222.48,-67.34 232.45,-70.94 232.52,-63.94"/>
</g>
<!-- Node47&#45;&gt;Node28 -->
<g id="edge18" class="edge">
<title>Node47&#45;&gt;Node28</title>
<path fill="none" stroke="midnightblue" d="M1291.44,-56.47C1392.69,-45.13 1568.54,-25.43 1651.51,-16.13"/>
<polygon fill="midnightblue" stroke="midnightblue" points="1652.08,-19.59 1661.63,-15 1651.3,-12.64 1652.08,-19.59"/>
</g>
<!-- Node47&#45;&gt;Node29 -->
<g id="edge19" class="edge">
<title>Node47&#45;&gt;Node29</title>
<path fill="none" stroke="midnightblue" d="M1137.68,-57.32C1016.84,-45.37 788.76,-22.81 703.04,-14.33"/>
<polygon fill="midnightblue" stroke="midnightblue" points="703.13,-10.83 692.84,-13.32 702.45,-17.79 703.13,-10.83"/>
</g>
<!-- Node54&#45;&gt;Node29 -->
<g id="edge37" class="edge">
<title>Node54&#45;&gt;Node29</title>
<path fill="none" stroke="midnightblue" d="M623.64,-177.32C481.99,-167.23 186.74,-144.82 168.33,-132 145.66,-116.21 147.49,-102.94 141.33,-76 139.35,-67.33 135.32,-62.55 141.33,-56 174.76,-19.61 523.96,-12.6 635.37,-11.29"/>
<polygon fill="midnightblue" stroke="midnightblue" points="635.73,-14.79 645.69,-11.18 635.65,-7.79 635.73,-14.79"/>
</g>
<!-- Node54&#45;&gt;Node47 -->
<g id="edge29" class="edge">
<title>Node54&#45;&gt;Node47</title>
<path fill="none" stroke="midnightblue" d="M758.82,-168.42C793.26,-159.59 836.87,-147.05 874.33,-132 892.04,-124.89 894.19,-117.93 912.33,-112 982.72,-88.99 1066.18,-77.7 1127.67,-72.18"/>
<polygon fill="midnightblue" stroke="midnightblue" points="1128.07,-75.66 1137.73,-71.32 1127.46,-68.69 1128.07,-75.66"/>
</g>
<!-- Node54&#45;&gt;Node49 -->
<g id="edge38" class="edge">
<title>Node54&#45;&gt;Node49</title>
<path fill="none" stroke="midnightblue" d="M623.78,-180.68C487.31,-176.56 208.61,-164.26 179.33,-132 168.04,-119.55 172.15,-99.76 177.62,-85.28"/>
<polygon fill="midnightblue" stroke="midnightblue" points="180.94,-86.43 181.65,-75.86 174.5,-83.68 180.94,-86.43"/>
</g>
<!-- Node55 -->
<g id="node25" class="node">
<title>Node55</title>
<g id="a_node25"><a xlink:title=" ">
<polygon fill="white" stroke="#bfbfbf" points="370.83,-112.5 370.83,-131.5 433.83,-131.5 433.83,-112.5 370.83,-112.5"/>
<text text-anchor="middle" x="402.33" y="-119.5" font-family="Helvetica" font-size="10.00">TMatrixT.h</text>
</a>
</g>
</g>
<!-- Node54&#45;&gt;Node55 -->
<g id="edge30" class="edge">
<title>Node54&#45;&gt;Node55</title>
<path fill="none" stroke="midnightblue" d="M625.43,-168.48C576.78,-159.02 511.13,-146.08 444.01,-132.11"/>
<polygon fill="midnightblue" stroke="midnightblue" points="444.61,-128.66 434.1,-130.04 443.18,-135.51 444.61,-128.66"/>
</g>
<!-- Node56 -->
<g id="node26" class="node">
<title>Node56</title>
<g id="a_node26"><a xlink:title=" ">
<polygon fill="white" stroke="#bfbfbf" points="452.33,-112.5 452.33,-131.5 538.33,-131.5 538.33,-112.5 452.33,-112.5"/>
<text text-anchor="middle" x="495.33" y="-119.5" font-family="Helvetica" font-size="10.00">TMatrixDSym.h</text>
</a>
</g>
</g>
<!-- Node54&#45;&gt;Node56 -->
<g id="edge31" class="edge">
<title>Node54&#45;&gt;Node56</title>
<path fill="none" stroke="midnightblue" d="M650.48,-168.47C615,-158.08 567.25,-144.08 534.13,-134.37"/>
<polygon fill="midnightblue" stroke="midnightblue" points="534.93,-130.96 524.35,-131.51 532.96,-137.68 534.93,-130.96"/>
</g>
<!-- Node57 -->
<g id="node27" class="node">
<title>Node57</title>
<g id="a_node27"><a xlink:title=" ">
<polygon fill="white" stroke="#bfbfbf" points="556.33,-112.5 556.33,-131.5 620.33,-131.5 620.33,-112.5 556.33,-112.5"/>
<text text-anchor="middle" x="588.33" y="-119.5" font-family="Helvetica" font-size="10.00">TVectorT.h</text>
</a>
</g>
</g>
<!-- Node54&#45;&gt;Node57 -->
<g id="edge32" class="edge">
<title>Node54&#45;&gt;Node57</title>
<path fill="none" stroke="midnightblue" d="M672.26,-168.4C654.47,-158.77 631.02,-146.09 613.43,-136.58"/>
<polygon fill="midnightblue" stroke="midnightblue" points="614.8,-133.34 604.34,-131.66 611.47,-139.49 614.8,-133.34"/>
</g>
<!-- Node54&#45;&gt;Node58 -->
<g id="edge33" class="edge">
<title>Node54&#45;&gt;Node58</title>
<path fill="none" stroke="midnightblue" d="M623.54,-178.59C511.27,-172.17 292.66,-157.47 108.33,-132 107.06,-131.82 105.77,-131.64 104.47,-131.44"/>
<polygon fill="midnightblue" stroke="midnightblue" points="104.82,-127.95 94.38,-129.78 103.68,-134.86 104.82,-127.95"/>
</g>
<!-- Node59 -->
<g id="node29" class="node">
<title>Node59</title>
<g id="a_node29"><a xlink:title=" ">
<polygon fill="white" stroke="#bfbfbf" points="638.83,-112.5 638.83,-131.5 689.83,-131.5 689.83,-112.5 638.83,-112.5"/>
<text text-anchor="middle" x="664.33" y="-119.5" font-family="Helvetica" font-size="10.00">TH1D.h</text>
</a>
</g>
</g>
<!-- Node54&#45;&gt;Node59 -->
<g id="edge34" class="edge">
<title>Node54&#45;&gt;Node59</title>
<path fill="none" stroke="midnightblue" d="M690.27,-168.4C685.49,-160.02 679.37,-149.33 674.29,-140.42"/>
<polygon fill="midnightblue" stroke="midnightblue" points="677.28,-138.6 669.28,-131.66 671.2,-142.08 677.28,-138.6"/>
</g>
<!-- Node60 -->
<g id="node30" class="node">
<title>Node60</title>
<g id="a_node30"><a xlink:title=" ">
<polygon fill="white" stroke="#bfbfbf" points="707.83,-112.5 707.83,-131.5 758.83,-131.5 758.83,-112.5 707.83,-112.5"/>
<text text-anchor="middle" x="733.33" y="-119.5" font-family="Helvetica" font-size="10.00">TH2D.h</text>
</a>
</g>
</g>
<!-- Node54&#45;&gt;Node60 -->
<g id="edge35" class="edge">
<title>Node54&#45;&gt;Node60</title>
<path fill="none" stroke="midnightblue" d="M706.63,-168.4C711.55,-160.02 717.84,-149.33 723.08,-140.42"/>
<polygon fill="midnightblue" stroke="midnightblue" points="726.18,-142.05 728.24,-131.66 720.15,-138.5 726.18,-142.05"/>
</g>
<!-- Node54&#45;&gt;Node42 -->
<g id="edge36" class="edge">
<title>Node54&#45;&gt;Node42</title>
<path fill="none" stroke="midnightblue" d="M756.79,-168.47C804.74,-156.97 871.04,-141.06 911.18,-131.43"/>
<polygon fill="midnightblue" stroke="midnightblue" points="912.13,-134.8 921.04,-129.07 910.5,-128 912.13,-134.8"/>
</g>
<!-- Node54&#45;&gt;Node61 -->
<g id="edge39" class="edge">
<title>Node54&#45;&gt;Node61</title>
<path fill="none" stroke="midnightblue" d="M773.11,-170.53C827.66,-161.47 903.56,-148.18 979.43,-132.07"/>
<polygon fill="midnightblue" stroke="midnightblue" points="980.6,-135.4 989.64,-129.89 979.13,-128.56 980.6,-135.4"/>
</g>
<!-- Node62 -->
<g id="node33" class="node">
<title>Node62</title>
<g id="a_node33"><a xlink:title=" ">
<polygon fill="white" stroke="#bfbfbf" points="777.33,-112.5 777.33,-131.5 865.33,-131.5 865.33,-112.5 777.33,-112.5"/>
<text text-anchor="middle" x="821.33" y="-119.5" font-family="Helvetica" font-size="10.00">TDecompChol.h</text>
</a>
</g>
</g>
<!-- Node54&#45;&gt;Node62 -->
<g id="edge40" class="edge">
<title>Node54&#45;&gt;Node62</title>
<path fill="none" stroke="midnightblue" d="M727.48,-168.4C747.75,-158.59 774.57,-145.62 794.35,-136.05"/>
<polygon fill="midnightblue" stroke="midnightblue" points="795.96,-139.16 803.43,-131.66 792.91,-132.86 795.96,-139.16"/>
</g>
<!-- Node54&#45;&gt;Node45 -->
<g id="edge41" class="edge">
<title>Node54&#45;&gt;Node45</title>
<path fill="none" stroke="midnightblue" d="M772.85,-172.79C842.16,-163.54 948.53,-148.8 1050.71,-132.04"/>
<polygon fill="midnightblue" stroke="midnightblue" points="1051.29,-135.49 1060.58,-130.41 1050.15,-128.59 1051.29,-135.49"/>
</g>
<!-- Node63 -->
<g id="node35" class="node">
<title>Node63</title>
<g id="a_node35"><a xlink:title=" ">
<polygon fill="white" stroke="#bfbfbf" points="188.83,-112.5 188.83,-131.5 245.83,-131.5 245.83,-112.5 188.83,-112.5"/>
<text text-anchor="middle" x="217.33" y="-119.5" font-family="Helvetica" font-size="10.00">TMatrix.h</text>
</a>
</g>
</g>
<!-- Node54&#45;&gt;Node63 -->
<g id="edge42" class="edge">
<title>Node54&#45;&gt;Node63</title>
<path fill="none" stroke="midnightblue" d="M623.68,-176.89C537.28,-169.74 390.61,-155.62 256.02,-132.12"/>
<polygon fill="midnightblue" stroke="midnightblue" points="256.4,-128.63 245.94,-130.33 255.18,-135.52 256.4,-128.63"/>
</g>
<!-- Node54&#45;&gt;Node64 -->
<g id="edge43" class="edge">
<title>Node54&#45;&gt;Node64</title>
<path fill="none" stroke="midnightblue" d="M772.91,-174.68C859.8,-165.43 1007.94,-149.26 1146.1,-132"/>
<polygon fill="midnightblue" stroke="midnightblue" points="1146.54,-135.47 1156.02,-130.75 1145.67,-128.53 1146.54,-135.47"/>
</g>
<!-- Node65 -->
<g id="node37" class="node">
<title>Node65</title>
<g id="a_node37"><a xlink:title=" ">
<polygon fill="white" stroke="#bfbfbf" points="263.83,-112.5 263.83,-131.5 352.83,-131.5 352.83,-112.5 263.83,-112.5"/>
<text text-anchor="middle" x="308.33" y="-119.5" font-family="Helvetica" font-size="10.00">TMatrixDEigen.h</text>
</a>
</g>
</g>
<!-- Node54&#45;&gt;Node65 -->
<g id="edge44" class="edge">
<title>Node54&#45;&gt;Node65</title>
<path fill="none" stroke="midnightblue" d="M623.64,-171.73C557.65,-162.12 458.5,-147.45 362.98,-132.24"/>
<polygon fill="midnightblue" stroke="midnightblue" points="363.28,-128.74 352.85,-130.63 362.18,-135.66 363.28,-128.74"/>
</g>
<!-- Node54&#45;&gt;Node67 -->
<g id="edge45" class="edge">
<title>Node54&#45;&gt;Node67</title>
<path fill="none" stroke="midnightblue" d="M773.13,-180.22C881.74,-175.98 1089.44,-164.29 1274.73,-131.77"/>
<polygon fill="midnightblue" stroke="midnightblue" points="1275.42,-135.2 1284.65,-130 1274.19,-128.31 1275.42,-135.2"/>
</g>
</g>
</svg>
        <g id="navigator" transform="translate(0 0)" fill="#404254">
                <rect fill="#f2f5e9" fill-opacity="0.5" stroke="#606060" stroke-width=".5" x="0" y="0" width="60" height="60"/>
                <use id="zoomplus" xlink:href="#zoomPlus" x="17" y="9" onmousedown="handleZoom(evt,'in')"/>
                <use id="zoomminus" xlink:href="#zoomMin" x="42" y="9" onmousedown="handleZoom(evt,'out')"/>
                <use id="reset" xlink:href="#resetDef" x="30" y="36" onmousedown="handleReset()"/>
                <g id="arrowUp" xlink:href="#dirArrow" transform="translate(30 24)" onmousedown="handlePan(0,-1)">
                  <use xlink:href="#rim" fill="#404040">
                        <set attributeName="fill" to="#808080" begin="arrowUp.mouseover" end="arrowUp.mouseout"/>
                  </use>
                  <path fill="none" stroke="white" stroke-width="1.5" d="M0,-3.0v7 M-2.5,-0.5L0,-3.0L2.5,-0.5"/>
                </g>
                <g id="arrowRight" xlink:href="#dirArrow" transform="rotate(90) translate(36 -43)" onmousedown="handlePan(1,0)">
                  <use xlink:href="#rim" fill="#404040">
                        <set attributeName="fill" to="#808080" begin="arrowRight.mouseover" end="arrowRight.mouseout"/>
                  </use>
                  <path fill="none" stroke="white" stroke-width="1.5" d="M0,-3.0v7 M-2.5,-0.5L0,-3.0L2.5,-0.5"/>
                </g>
                <g id="arrowDown" xlink:href="#dirArrow" transform="rotate(180) translate(-30 -48)" onmousedown="handlePan(0,1)">
                  <use xlink:href="#rim" fill="#404040">
                        <set attributeName="fill" to="#808080" begin="arrowDown.mouseover" end="arrowDown.mouseout"/>
                  </use>
                  <path fill="none" stroke="white" stroke-width="1.5" d="M0,-3.0v7 M-2.5,-0.5L0,-3.0L2.5,-0.5"/>
                </g>
                <g id="arrowLeft" xlink:href="#dirArrow" transform="rotate(270) translate(-36 17)" onmousedown="handlePan(-1,0)">
                  <use xlink:href="#rim" fill="#404040">
                        <set attributeName="fill" to="#808080" begin="arrowLeft.mouseover" end="arrowLeft.mouseout"/>
                  </use>
                  <path fill="none" stroke="white" stroke-width="1.5" d="M0,-3.0v7 M-2.5,-0.5L0,-3.0L2.5,-0.5"/>
                </g>
        </g>
        <svg viewBox="0 0 15 15" width="100%" height="30px" preserveAspectRatio="xMaxYMin meet">
         <g id="arrow_out" transform="scale(0.3 0.3)">
          <a xlink:href="PlotMCMCDiag_8cpp__incl_org.svg" target="_base">
           <rect id="button" ry="5" rx="5" y="6" x="6" height="38" width="38"
                fill="#f2f5e9" fill-opacity="0.5" stroke="#606060" stroke-width="1.0"/>
           <path id="arrow"
             d="M 11.500037,31.436501 C 11.940474,20.09759 22.043105,11.32322 32.158766,21.979434 L 37.068811,17.246167 C 37.068811,17.246167 37.088388,32 37.088388,32 L 22.160133,31.978069 C 22.160133,31.978069 26.997745,27.140456 26.997745,27.140456 C 18.528582,18.264221 13.291696,25.230495 11.500037,31.436501 z"
             style="fill:#404040;"/>
          </a>
         </g>
        </svg>
</svg>
