<?xml version="1.0" encoding="UTF-8" standalone="no"?>
<!DOCTYPE svg PUBLIC "-//W3C//DTD SVG 1.1//EN"
 "http://www.w3.org/Graphics/SVG/1.1/DTD/svg11.dtd">
<!-- Generated by graphviz version 2.44.0 (0)
 -->
<!-- Title: python/plotting.cpp Pages: 1 -->
<svg width="826pt" height="95pt"
 viewBox="0.00 0.00 826.00 95.00" xmlns="http://www.w3.org/2000/svg" xmlns:xlink="http://www.w3.org/1999/xlink">
<g id="graph0" class="graph" transform="scale(1 1) rotate(0) translate(4 91)">
<title>python/plotting.cpp</title>
<polygon fill="white" stroke="transparent" points="-4,4 -4,-91 822,-91 822,4 -4,4"/>
<!-- Node1 -->
<g id="node1" class="node">
<title>Node1</title>
<g id="a_node1"><a xlink:title=" ">
<polygon fill="#bfbfbf" stroke="black" points="297.5,-67.5 297.5,-86.5 396.5,-86.5 396.5,-67.5 297.5,-67.5"/>
<text text-anchor="middle" x="347" y="-74.5" font-family="Helvetica" font-size="10.00">python/plotting.cpp</text>
</a>
</g>
</g>
<!-- Node2 -->
<g id="node2" class="node">
<title>Node2</title>
<g id="a_node2"><a xlink:title=" ">
<polygon fill="white" stroke="#bfbfbf" points="0,-6 0,-25 106,-25 106,-6 0,-6"/>
<text text-anchor="middle" x="53" y="-13" font-family="Helvetica" font-size="10.00">pybind11/pybind11.h</text>
</a>
</g>
</g>
<!-- Node1&#45;&gt;Node2 -->
<g id="edge1" class="edge">
<title>Node1&#45;&gt;Node2</title>
<path fill="none" stroke="midnightblue" d="M300.24,-67.47C253.3,-58.79 178.99,-44.68 115,-31 109.6,-29.84 103.94,-28.59 98.33,-27.31"/>
<polygon fill="midnightblue" stroke="midnightblue" points="98.89,-23.85 88.36,-25.01 97.32,-30.67 98.89,-23.85"/>
</g>
<!-- Node3 -->
<g id="node3" class="node">
<title>Node3</title>
<g id="a_node3"><a xlink:title=" ">
<polygon fill="white" stroke="#bfbfbf" points="124.5,-6 124.5,-25 201.5,-25 201.5,-6 124.5,-6"/>
<text text-anchor="middle" x="163" y="-13" font-family="Helvetica" font-size="10.00">pybind11/stl.h</text>
</a>
</g>
</g>
<!-- Node1&#45;&gt;Node3 -->
<g id="edge2" class="edge">
<title>Node1&#45;&gt;Node3</title>
<path fill="none" stroke="midnightblue" d="M320.64,-67.48C288.66,-57.14 234.62,-39.66 198.88,-28.1"/>
<polygon fill="midnightblue" stroke="midnightblue" points="199.91,-24.76 189.31,-25.01 197.75,-31.42 199.91,-24.76"/>
</g>
<!-- Node4 -->
<g id="node4" class="node">
<title>Node4</title>
<g id="a_node4"><a xlink:title=" ">
<polygon fill="white" stroke="#bfbfbf" points="219.5,-6 219.5,-25 262.5,-25 262.5,-6 219.5,-6"/>
<text text-anchor="middle" x="241" y="-13" font-family="Helvetica" font-size="10.00">vector</text>
</a>
</g>
</g>
<!-- Node1&#45;&gt;Node4 -->
<g id="edge3" class="edge">
<title>Node1&#45;&gt;Node4</title>
<path fill="none" stroke="midnightblue" d="M331.81,-67.48C314.34,-57.67 285.42,-41.43 264.92,-29.92"/>
<polygon fill="midnightblue" stroke="midnightblue" points="266.59,-26.85 256.16,-25.01 263.17,-32.96 266.59,-26.85"/>
</g>
<!-- Node5 -->
<g id="node5" class="node">
<title>Node5</title>
<g id="a_node5"><a xlink:title=" ">
<polygon fill="white" stroke="#bfbfbf" points="280.5,-6 280.5,-25 321.5,-25 321.5,-6 280.5,-6"/>
<text text-anchor="middle" x="301" y="-13" font-family="Helvetica" font-size="10.00">string</text>
</a>
</g>
</g>
<!-- Node1&#45;&gt;Node5 -->
<g id="edge4" class="edge">
<title>Node1&#45;&gt;Node5</title>
<path fill="none" stroke="midnightblue" d="M340.41,-67.48C333.51,-58.55 322.5,-44.31 313.87,-33.14"/>
<polygon fill="midnightblue" stroke="midnightblue" points="316.46,-30.78 307.58,-25.01 310.93,-35.06 316.46,-30.78"/>
</g>
<!-- Node6 -->
<g id="node6" class="node">
<title>Node6</title>
<g id="a_node6"><a xlink:title=" ">
<polygon fill="white" stroke="#bfbfbf" points="340,-0.5 340,-30.5 446,-30.5 446,-0.5 340,-0.5"/>
<text text-anchor="start" x="348" y="-18.5" font-family="Helvetica" font-size="10.00">Plotting/PlottingUtils</text>
<text text-anchor="middle" x="393" y="-7.5" font-family="Helvetica" font-size="10.00">/PlottingUtils.h</text>
</a>
</g>
</g>
<!-- Node1&#45;&gt;Node6 -->
<g id="edge5" class="edge">
<title>Node1&#45;&gt;Node6</title>
<path fill="none" stroke="midnightblue" d="M353.59,-67.48C359.41,-59.94 368.16,-48.63 375.94,-38.57"/>
<polygon fill="midnightblue" stroke="midnightblue" points="378.81,-40.58 382.16,-30.52 373.27,-36.29 378.81,-40.58"/>
</g>
<!-- Node7 -->
<g id="node7" class="node">
<title>Node7</title>
<g id="a_node7"><a xlink:title=" ">
<polygon fill="white" stroke="#bfbfbf" points="464,-0.5 464,-30.5 570,-30.5 570,-0.5 464,-0.5"/>
<text text-anchor="start" x="472" y="-18.5" font-family="Helvetica" font-size="10.00">Plotting/PlottingUtils</text>
<text text-anchor="middle" x="517" y="-7.5" font-family="Helvetica" font-size="10.00">/PlottingManager.h</text>
</a>
</g>
</g>
<!-- Node1&#45;&gt;Node7 -->
<g id="edge6" class="edge">
<title>Node1&#45;&gt;Node7</title>
<path fill="none" stroke="midnightblue" d="M371.36,-67.48C396.32,-58.74 435.84,-44.91 467.41,-33.86"/>
<polygon fill="midnightblue" stroke="midnightblue" points="468.65,-37.13 476.93,-30.52 466.34,-30.52 468.65,-37.13"/>
</g>
<!-- Node8 -->
<g id="node8" class="node">
<title>Node8</title>
<g id="a_node8"><a xlink:title=" ">
<polygon fill="white" stroke="#bfbfbf" points="588,-0.5 588,-30.5 694,-30.5 694,-0.5 588,-0.5"/>
<text text-anchor="start" x="596" y="-18.5" font-family="Helvetica" font-size="10.00">Plotting/PlottingUtils</text>
<text text-anchor="middle" x="641" y="-7.5" font-family="Helvetica" font-size="10.00">/StyleManager.h</text>
</a>
</g>
</g>
<!-- Node1&#45;&gt;Node8 -->
<g id="edge7" class="edge">
<title>Node1&#45;&gt;Node8</title>
<path fill="none" stroke="midnightblue" d="M393.76,-67.47C438.59,-59.18 508.39,-45.94 578.1,-31.15"/>
<polygon fill="midnightblue" stroke="midnightblue" points="578.88,-34.56 587.93,-29.05 577.42,-27.71 578.88,-34.56"/>
</g>
<!-- Node9 -->
<g id="node9" class="node">
<title>Node9</title>
<g id="a_node9"><a xlink:title=" ">
<polygon fill="white" stroke="#bfbfbf" points="712,-0.5 712,-30.5 818,-30.5 818,-0.5 712,-0.5"/>
<text text-anchor="start" x="720" y="-18.5" font-family="Helvetica" font-size="10.00">Plotting/PlottingUtils</text>
<text text-anchor="middle" x="765" y="-7.5" font-family="Helvetica" font-size="10.00">/InputManager.h</text>
</a>
</g>
</g>
<!-- Node1&#45;&gt;Node9 -->
<g id="edge8" class="edge">
<title>Node1&#45;&gt;Node9</title>
<path fill="none" stroke="midnightblue" d="M396.78,-71.36C463.88,-64.74 587.23,-51.29 701.97,-31.07"/>
<polygon fill="midnightblue" stroke="midnightblue" points="702.75,-34.48 711.98,-29.28 701.52,-27.59 702.75,-34.48"/>
</g>
</g>
</svg>
