<?xml version="1.0" encoding="UTF-8" standalone="no"?>
<!DOCTYPE svg PUBLIC "-//W3C//DTD SVG 1.1//EN"
 "http://www.w3.org/Graphics/SVG/1.1/DTD/svg11.dtd">
<!-- Generated by graphviz version 2.43.0 (0)
 -->
<!-- Title: Plotting/plottingUtils/plottingManager.h Pages: 1 -->
<svg width="701pt" height="104pt"
 viewBox="0.00 0.00 700.50 104.00" xmlns="http://www.w3.org/2000/svg" xmlns:xlink="http://www.w3.org/1999/xlink">
<g id="graph0" class="graph" transform="scale(1 1) rotate(0) translate(4 100)">
<title>Plotting/plottingUtils/plottingManager.h</title>
<!-- Node1 -->
<g id="node1" class="node">
<title>Node1</title>
<g id="a_node1"><a xlink:title=" ">
<polygon fill="#999999" stroke="#666666" points="427.5,-96 310.5,-96 310.5,-66 427.5,-66 427.5,-96"/>
<text text-anchor="start" x="318.5" y="-84" font-family="Helvetica,sans-Serif" font-size="10.00">Plotting/plottingUtils</text>
<text text-anchor="middle" x="369" y="-73" font-family="Helvetica,sans-Serif" font-size="10.00">/plottingManager.h</text>
</a>
</g>
</g>
<!-- Node2 -->
<g id="node2" class="node">
<title>Node2</title>
<g id="a_node2"><a xlink:href="GetPostfitParamPlots_8cpp.html" target="_top" xlink:title=" ">
<polygon fill="white" stroke="#666666" points="136,-30 0,-30 0,0 136,0 136,-30"/>
<text text-anchor="start" x="8" y="-18" font-family="Helvetica,sans-Serif" font-size="10.00">Plotting/GetPostfitParam</text>
<text text-anchor="middle" x="68" y="-7" font-family="Helvetica,sans-Serif" font-size="10.00">Plots.cpp</text>
</a>
</g>
</g>
<!-- Node1&#45;&gt;Node2 -->
<g id="edge1" class="edge">
<title>Node1&#45;&gt;Node2</title>
<path fill="none" stroke="#63b8ff" d="M300.19,-65.37C250.28,-54.76 183.16,-40.49 133.93,-30.02"/>
<polygon fill="#63b8ff" stroke="#63b8ff" points="299.74,-68.85 310.25,-67.51 301.2,-62 299.74,-68.85"/>
</g>
<!-- Node3 -->
<g id="node3" class="node">
<title>Node3</title>
<g id="a_node3"><a xlink:href="MatrixPlotter_8cpp.html" target="_top" xlink:title=" ">
<polygon fill="white" stroke="#666666" points="294,-24.5 154,-24.5 154,-5.5 294,-5.5 294,-24.5"/>
<text text-anchor="middle" x="224" y="-12.5" font-family="Helvetica,sans-Serif" font-size="10.00">Plotting/MatrixPlotter.cpp</text>
</a>
</g>
</g>
<!-- Node1&#45;&gt;Node3 -->
<g id="edge2" class="edge">
<title>Node1&#45;&gt;Node3</title>
<path fill="none" stroke="#63b8ff" d="M327.72,-61.78C300,-49.54 264.74,-33.98 243.3,-24.52"/>
<polygon fill="#63b8ff" stroke="#63b8ff" points="326.62,-65.12 337.18,-65.95 329.44,-58.71 326.62,-65.12"/>
</g>
<!-- Node4 -->
<g id="node4" class="node">
<title>Node4</title>
<g id="a_node4"><a xlink:href="PlotLLH_8cpp.html" target="_top" xlink:title=" ">
<polygon fill="white" stroke="#666666" points="426,-24.5 312,-24.5 312,-5.5 426,-5.5 426,-24.5"/>
<text text-anchor="middle" x="369" y="-12.5" font-family="Helvetica,sans-Serif" font-size="10.00">Plotting/PlotLLH.cpp</text>
</a>
</g>
</g>
<!-- Node1&#45;&gt;Node4 -->
<g id="edge3" class="edge">
<title>Node1&#45;&gt;Node4</title>
<path fill="none" stroke="#63b8ff" d="M369,-55.6C369,-44.8 369,-32.78 369,-24.84"/>
<polygon fill="#63b8ff" stroke="#63b8ff" points="365.5,-55.8 369,-65.8 372.5,-55.8 365.5,-55.8"/>
</g>
<!-- Node5 -->
<g id="node5" class="node">
<title>Node5</title>
<g id="a_node5"><a xlink:href="plottingManager_8cpp.html" target="_top" xlink:title=" ">
<polygon fill="white" stroke="#666666" points="563.5,-30 444.5,-30 444.5,0 563.5,0 563.5,-30"/>
<text text-anchor="start" x="452.5" y="-18" font-family="Helvetica,sans-Serif" font-size="10.00">Plotting/plottingUtils</text>
<text text-anchor="middle" x="504" y="-7" font-family="Helvetica,sans-Serif" font-size="10.00">/plottingManager.cpp</text>
</a>
</g>
</g>
<!-- Node1&#45;&gt;Node5 -->
<g id="edge4" class="edge">
<title>Node1&#45;&gt;Node5</title>
<path fill="none" stroke="#63b8ff" d="M407.71,-61.65C428.94,-51.58 454.85,-39.3 474.44,-30.01"/>
<polygon fill="#63b8ff" stroke="#63b8ff" points="406.16,-58.51 398.63,-65.95 409.16,-64.83 406.16,-58.51"/>
</g>
<!-- Node6 -->
<g id="node6" class="node">
<title>Node6</title>
<g id="a_node6"><a xlink:href="plotting_8cpp.html" target="_top" xlink:title=" ">
<polygon fill="white" stroke="#666666" points="692.5,-24.5 581.5,-24.5 581.5,-5.5 692.5,-5.5 692.5,-24.5"/>
<text text-anchor="middle" x="637" y="-12.5" font-family="Helvetica,sans-Serif" font-size="10.00">python/plotting.cpp</text>
</a>
</g>
</g>
<!-- Node1&#45;&gt;Node6 -->
<g id="edge5" class="edge">
<title>Node1&#45;&gt;Node6</title>
<path fill="none" stroke="#63b8ff" d="M437.68,-63.6C489.93,-51.12 559.71,-34.46 601.33,-24.52"/>
<polygon fill="#63b8ff" stroke="#63b8ff" points="436.73,-60.23 427.81,-65.95 438.35,-67.04 436.73,-60.23"/>
</g>
</g>
</svg>
