<?xml version="1.0" encoding="UTF-8" standalone="no"?>
<!DOCTYPE svg PUBLIC "-//W3C//DTD SVG 1.1//EN"
 "http://www.w3.org/Graphics/SVG/1.1/DTD/svg11.dtd">
<!-- Generated by graphviz version 2.44.0 (0)
 -->
<!-- Title: Fitters/PSO.h Pages: 1 -->
<svg width="356pt" height="196pt"
 viewBox="0.00 0.00 355.50 196.00" xmlns="http://www.w3.org/2000/svg" xmlns:xlink="http://www.w3.org/1999/xlink">
<g id="graph0" class="graph" transform="scale(1 1) rotate(0) translate(4 192)">
<title>Fitters/PSO.h</title>
<polygon fill="white" stroke="transparent" points="-4,4 -4,-192 351.5,-192 351.5,4 -4,4"/>
<!-- Node1 -->
<g id="node1" class="node">
<title>Node1</title>
<g id="a_node1"><a xlink:title=" ">
<polygon fill="#bfbfbf" stroke="black" points="150,-168.5 150,-187.5 227,-187.5 227,-168.5 150,-168.5"/>
<text text-anchor="middle" x="188.5" y="-175.5" font-family="Helvetica" font-size="10.00">Fitters/PSO.h</text>
</a>
</g>
</g>
<!-- Node2 -->
<g id="node2" class="node">
<title>Node2</title>
<g id="a_node2"><a xlink:href="MaCh3Factory_8h.html" target="_top" xlink:title="Factory methods for MaCh3 software which streamline initialisation of different objects.">
<polygon fill="white" stroke="black" points="5,-112.5 5,-131.5 126,-131.5 126,-112.5 5,-112.5"/>
<text text-anchor="middle" x="65.5" y="-119.5" font-family="Helvetica" font-size="10.00">Fitters/MaCh3Factory.h</text>
</a>
</g>
</g>
<!-- Node1&#45;&gt;Node2 -->
<g id="edge1" class="edge">
<title>Node1&#45;&gt;Node2</title>
<path fill="none" stroke="midnightblue" d="M159.73,-164.37C136.69,-154.26 105.02,-140.35 84.9,-131.52"/>
<polygon fill="midnightblue" stroke="midnightblue" points="158.45,-167.63 169.01,-168.44 161.26,-161.22 158.45,-167.63"/>
</g>
<!-- Node4 -->
<g id="node4" class="node">
<title>Node4</title>
<g id="a_node4"><a xlink:href="PSO_8cpp.html" target="_top" xlink:title=" ">
<polygon fill="white" stroke="black" points="144.5,-112.5 144.5,-131.5 232.5,-131.5 232.5,-112.5 144.5,-112.5"/>
<text text-anchor="middle" x="188.5" y="-119.5" font-family="Helvetica" font-size="10.00">Fitters/PSO.cpp</text>
</a>
</g>
</g>
<!-- Node1&#45;&gt;Node4 -->
<g id="edge3" class="edge">
<title>Node1&#45;&gt;Node4</title>
<path fill="none" stroke="midnightblue" d="M188.5,-157.8C188.5,-148.91 188.5,-138.78 188.5,-131.75"/>
<polygon fill="midnightblue" stroke="midnightblue" points="185,-158.08 188.5,-168.08 192,-158.08 185,-158.08"/>
</g>
<!-- Node5 -->
<g id="node5" class="node">
<title>Node5</title>
<g id="a_node5"><a xlink:href="fitters_8h.html" target="_top" xlink:title=" ">
<polygon fill="white" stroke="black" points="251,-112.5 251,-131.5 334,-131.5 334,-112.5 251,-112.5"/>
<text text-anchor="middle" x="292.5" y="-119.5" font-family="Helvetica" font-size="10.00">python/fitters.h</text>
</a>
</g>
</g>
<!-- Node1&#45;&gt;Node5 -->
<g id="edge4" class="edge">
<title>Node1&#45;&gt;Node5</title>
<path fill="none" stroke="midnightblue" d="M214.33,-163.59C233.56,-153.61 259.24,-140.27 275.83,-131.65"/>
<polygon fill="midnightblue" stroke="midnightblue" points="212.47,-160.61 205.21,-168.32 215.7,-166.82 212.47,-160.61"/>
</g>
<!-- Node3 -->
<g id="node3" class="node">
<title>Node3</title>
<g id="a_node3"><a xlink:href="MaCh3Factory_8cpp.html" target="_top" xlink:title=" ">
<polygon fill="white" stroke="black" points="0,-56.5 0,-75.5 131,-75.5 131,-56.5 0,-56.5"/>
<text text-anchor="middle" x="65.5" y="-63.5" font-family="Helvetica" font-size="10.00">Fitters/MaCh3Factory.cpp</text>
</a>
</g>
</g>
<!-- Node2&#45;&gt;Node3 -->
<g id="edge2" class="edge">
<title>Node2&#45;&gt;Node3</title>
<path fill="none" stroke="midnightblue" d="M65.5,-101.8C65.5,-92.91 65.5,-82.78 65.5,-75.75"/>
<polygon fill="midnightblue" stroke="midnightblue" points="62,-102.08 65.5,-112.08 69,-102.08 62,-102.08"/>
</g>
<!-- Node6 -->
<g id="node6" class="node">
<title>Node6</title>
<g id="a_node6"><a xlink:href="pyMaCh3_8h.html" target="_top" xlink:title=" ">
<polygon fill="white" stroke="black" points="243,-56.5 243,-75.5 342,-75.5 342,-56.5 243,-56.5"/>
<text text-anchor="middle" x="292.5" y="-63.5" font-family="Helvetica" font-size="10.00">python/pyMaCh3.h</text>
</a>
</g>
</g>
<!-- Node5&#45;&gt;Node6 -->
<g id="edge5" class="edge">
<title>Node5&#45;&gt;Node6</title>
<path fill="none" stroke="midnightblue" d="M292.5,-101.8C292.5,-92.91 292.5,-82.78 292.5,-75.75"/>
<polygon fill="midnightblue" stroke="midnightblue" points="289,-102.08 292.5,-112.08 296,-102.08 289,-102.08"/>
</g>
<!-- Node7 -->
<g id="node7" class="node">
<title>Node7</title>
<g id="a_node7"><a xlink:href="pyMaCh3_8cpp.html" target="_top" xlink:title=" ">
<polygon fill="white" stroke="black" points="237.5,-0.5 237.5,-19.5 347.5,-19.5 347.5,-0.5 237.5,-0.5"/>
<text text-anchor="middle" x="292.5" y="-7.5" font-family="Helvetica" font-size="10.00">python/pyMaCh3.cpp</text>
</a>
</g>
</g>
<!-- Node6&#45;&gt;Node7 -->
<g id="edge6" class="edge">
<title>Node6&#45;&gt;Node7</title>
<path fill="none" stroke="midnightblue" d="M292.5,-45.8C292.5,-36.91 292.5,-26.78 292.5,-19.75"/>
<polygon fill="midnightblue" stroke="midnightblue" points="289,-46.08 292.5,-56.08 296,-46.08 289,-46.08"/>
</g>
</g>
</svg>
