<?xml version="1.0" encoding="UTF-8" standalone="no"?>
<!DOCTYPE svg PUBLIC "-//W3C//DTD SVG 1.1//EN"
 "http://www.w3.org/Graphics/SVG/1.1/DTD/svg11.dtd">
<!-- Generated by graphviz version 2.44.0 (0)
 -->
<!-- Title: Samples/SampleHandlerFD.h Pages: 1 -->
<svg width="580pt" height="84pt"
 viewBox="0.00 0.00 579.50 84.00" xmlns="http://www.w3.org/2000/svg" xmlns:xlink="http://www.w3.org/1999/xlink">
<g id="graph0" class="graph" transform="scale(1 1) rotate(0) translate(4 80)">
<title>Samples/SampleHandlerFD.h</title>
<polygon fill="white" stroke="transparent" points="-4,4 -4,-80 575.5,-80 575.5,4 -4,4"/>
<!-- Node1 -->
<g id="node1" class="node">
<title>Node1</title>
<g id="a_node1"><a xlink:title=" ">
<polygon fill="#bfbfbf" stroke="black" points="231.5,-56.5 231.5,-75.5 377.5,-75.5 377.5,-56.5 231.5,-56.5"/>
<text text-anchor="middle" x="304.5" y="-63.5" font-family="Helvetica" font-size="10.00">Samples/SampleHandlerFD.h</text>
</a>
</g>
</g>
<!-- Node2 -->
<g id="node2" class="node">
<title>Node2</title>
<g id="a_node2"><a xlink:href="SampleHandlerFD_8cpp.html" target="_top" xlink:title=" ">
<polygon fill="white" stroke="black" points="0,-0.5 0,-19.5 157,-19.5 157,-0.5 0,-0.5"/>
<text text-anchor="middle" x="78.5" y="-7.5" font-family="Helvetica" font-size="10.00">Samples/SampleHandlerFD.cpp</text>
</a>
</g>
</g>
<!-- Node1&#45;&gt;Node2 -->
<g id="edge1" class="edge">
<title>Node1&#45;&gt;Node2</title>
<path fill="none" stroke="midnightblue" d="M258.83,-54.09C216.14,-43.89 153.25,-28.86 114.14,-19.52"/>
<polygon fill="midnightblue" stroke="midnightblue" points="258.15,-57.52 268.69,-56.44 259.78,-50.72 258.15,-57.52"/>
</g>
<!-- Node3 -->
<g id="node3" class="node">
<title>Node3</title>
<g id="a_node3"><a xlink:href="FitterBase_8cpp.html" target="_top" xlink:title=" ">
<polygon fill="white" stroke="black" points="175.5,-0.5 175.5,-19.5 287.5,-19.5 287.5,-0.5 175.5,-0.5"/>
<text text-anchor="middle" x="231.5" y="-7.5" font-family="Helvetica" font-size="10.00">Fitters/FitterBase.cpp</text>
</a>
</g>
</g>
<!-- Node1&#45;&gt;Node3 -->
<g id="edge2" class="edge">
<title>Node1&#45;&gt;Node3</title>
<path fill="none" stroke="midnightblue" d="M284.36,-50.1C271.22,-40.38 254.52,-28.03 243.44,-19.83"/>
<polygon fill="midnightblue" stroke="midnightblue" points="282.65,-53.19 292.77,-56.32 286.81,-47.56 282.65,-53.19"/>
</g>
<!-- Node4 -->
<g id="node4" class="node">
<title>Node4</title>
<g id="a_node4"><a xlink:href="PredictiveThrower_8cpp.html" target="_top" xlink:title=" ">
<polygon fill="white" stroke="black" points="305.5,-0.5 305.5,-19.5 449.5,-19.5 449.5,-0.5 305.5,-0.5"/>
<text text-anchor="middle" x="377.5" y="-7.5" font-family="Helvetica" font-size="10.00">Fitters/PredictiveThrower.cpp</text>
</a>
</g>
</g>
<!-- Node1&#45;&gt;Node4 -->
<g id="edge3" class="edge">
<title>Node1&#45;&gt;Node4</title>
<path fill="none" stroke="midnightblue" d="M324.64,-50.1C337.78,-40.38 354.48,-28.03 365.56,-19.83"/>
<polygon fill="midnightblue" stroke="midnightblue" points="322.19,-47.56 316.23,-56.32 326.35,-53.19 322.19,-47.56"/>
</g>
<!-- Node5 -->
<g id="node5" class="node">
<title>Node5</title>
<g id="a_node5"><a xlink:href="samples_8cpp.html" target="_top" xlink:title=" ">
<polygon fill="white" stroke="black" points="467.5,-0.5 467.5,-19.5 571.5,-19.5 571.5,-0.5 467.5,-0.5"/>
<text text-anchor="middle" x="519.5" y="-7.5" font-family="Helvetica" font-size="10.00">python/samples.cpp</text>
</a>
</g>
</g>
<!-- Node1&#45;&gt;Node5 -->
<g id="edge4" class="edge">
<title>Node1&#45;&gt;Node5</title>
<path fill="none" stroke="midnightblue" d="M348.46,-53.96C389.07,-43.76 448.54,-28.82 485.59,-19.52"/>
<polygon fill="midnightblue" stroke="midnightblue" points="347.41,-50.61 338.57,-56.44 349.12,-57.4 347.41,-50.61"/>
</g>
</g>
</svg>
