<?xml version="1.0" encoding="UTF-8" standalone="no"?>
<!DOCTYPE svg PUBLIC "-//W3C//DTD SVG 1.1//EN"
 "http://www.w3.org/Graphics/SVG/1.1/DTD/svg11.dtd">
<!-- Generated by graphviz version 2.43.0 (0)
 -->
<!-- Title: Samples/SampleHandlerBase.cpp Pages: 1 -->
<svg width="1822pt" height="467pt"
 viewBox="0.00 0.00 1821.67 467.00" xmlns="http://www.w3.org/2000/svg" xmlns:xlink="http://www.w3.org/1999/xlink">
<g id="graph0" class="graph" transform="scale(1 1) rotate(0) translate(4 463)">
<title>Samples/SampleHandlerBase.cpp</title>
<!-- Node1 -->
<g id="node1" class="node">
<title>Node1</title>
<g id="a_node1"><a xlink:title=" ">
<polygon fill="#999999" stroke="#666666" points="1424.17,-459 1243.17,-459 1243.17,-440 1424.17,-440 1424.17,-459"/>
<text text-anchor="middle" x="1333.67" y="-447" font-family="Helvetica,sans-Serif" font-size="10.00">Samples/SampleHandlerBase.cpp</text>
</a>
</g>
</g>
<!-- Node2 -->
<g id="node2" class="node">
<title>Node2</title>
<g id="a_node2"><a xlink:href="SampleHandlerBase_8h.html" target="_top" xlink:title=" ">
<polygon fill="white" stroke="#666666" points="1396.17,-404 1271.17,-404 1271.17,-385 1396.17,-385 1396.17,-404"/>
<text text-anchor="middle" x="1333.67" y="-392" font-family="Helvetica,sans-Serif" font-size="10.00">SampleHandlerBase.h</text>
</a>
</g>
</g>
<!-- Node1&#45;&gt;Node2 -->
<g id="edge1" class="edge">
<title>Node1&#45;&gt;Node2</title>
<path fill="none" stroke="#63b8ff" d="M1333.67,-439.75C1333.67,-432.8 1333.67,-422.85 1333.67,-414.13"/>
<polygon fill="#63b8ff" stroke="#63b8ff" points="1337.17,-414.09 1333.67,-404.09 1330.17,-414.09 1337.17,-414.09"/>
</g>
<!-- Node3 -->
<g id="node3" class="node">
<title>Node3</title>
<g id="a_node3"><a xlink:title=" ">
<polygon fill="#e0e0e0" stroke="#999999" points="329.67,-349 273.67,-349 273.67,-330 329.67,-330 329.67,-349"/>
<text text-anchor="middle" x="301.67" y="-337" font-family="Helvetica,sans-Serif" font-size="10.00">assert.h</text>
</a>
</g>
</g>
<!-- Node2&#45;&gt;Node3 -->
<g id="edge2" class="edge">
<title>Node2&#45;&gt;Node3</title>
<path fill="none" stroke="#63b8ff" d="M1271.13,-394.04C1114.37,-394.66 692.24,-391.84 343.67,-349 342.57,-348.86 341.44,-348.71 340.31,-348.55"/>
<polygon fill="#63b8ff" stroke="#63b8ff" points="340.48,-345.03 330.04,-346.86 339.34,-351.94 340.48,-345.03"/>
</g>
<!-- Node4 -->
<g id="node4" class="node">
<title>Node4</title>
<g id="a_node4"><a xlink:href="Structs_8h.html" target="_top" xlink:title=" ">
<polygon fill="white" stroke="#666666" points="731.67,-294 627.67,-294 627.67,-275 731.67,-275 731.67,-294"/>
<text text-anchor="middle" x="679.67" y="-282" font-family="Helvetica,sans-Serif" font-size="10.00">Samples/Structs.h</text>
</a>
</g>
</g>
<!-- Node2&#45;&gt;Node4 -->
<g id="edge3" class="edge">
<title>Node2&#45;&gt;Node4</title>
<path fill="none" stroke="#63b8ff" d="M1278.72,-384.99C1222.06,-376.17 1131.14,-361.89 1052.67,-349 941.55,-330.74 811.98,-308.46 738.51,-295.73"/>
<polygon fill="#63b8ff" stroke="#63b8ff" points="738.97,-292.26 728.52,-294 737.78,-299.16 738.97,-292.26"/>
</g>
<!-- Node25 -->
<g id="node25" class="node">
<title>Node25</title>
<g id="a_node25"><a xlink:title=" ">
<polygon fill="#e0e0e0" stroke="#999999" points="64.17,-239 15.17,-239 15.17,-220 64.17,-220 64.17,-239"/>
<text text-anchor="middle" x="39.67" y="-227" font-family="Helvetica,sans-Serif" font-size="10.00">TFile.h</text>
</a>
</g>
</g>
<!-- Node2&#45;&gt;Node25 -->
<g id="edge79" class="edge">
<title>Node2&#45;&gt;Node25</title>
<path fill="none" stroke="#63b8ff" d="M1271.08,-391.86C1102.27,-387.18 640.26,-372.54 489.67,-349 331.49,-324.27 148.54,-266.81 73.96,-242.12"/>
<polygon fill="#63b8ff" stroke="#63b8ff" points="74.77,-238.7 64.18,-238.86 72.56,-245.34 74.77,-238.7"/>
</g>
<!-- Node30 -->
<g id="node30" class="node">
<title>Node30</title>
<g id="a_node30"><a xlink:href="HistogramUtils_8h.html" target="_top" xlink:title=" ">
<polygon fill="white" stroke="#666666" points="642.67,-349 498.67,-349 498.67,-330 642.67,-330 642.67,-349"/>
<text text-anchor="middle" x="570.67" y="-337" font-family="Helvetica,sans-Serif" font-size="10.00">Samples/HistogramUtils.h</text>
</a>
</g>
</g>
<!-- Node2&#45;&gt;Node30 -->
<g id="edge36" class="edge">
<title>Node2&#45;&gt;Node30</title>
<path fill="none" stroke="#63b8ff" d="M1270.91,-389.14C1133.61,-379.6 806.63,-356.89 653.04,-346.22"/>
<polygon fill="#63b8ff" stroke="#63b8ff" points="652.95,-342.71 642.73,-345.51 652.46,-349.69 652.95,-342.71"/>
</g>
<!-- Node32 -->
<g id="node32" class="node">
<title>Node32</title>
<g id="a_node32"><a xlink:title=" ">
<polygon fill="#e0e0e0" stroke="#999999" points="609.67,-294 531.67,-294 531.67,-275 609.67,-275 609.67,-294"/>
<text text-anchor="middle" x="570.67" y="-282" font-family="Helvetica,sans-Serif" font-size="10.00">TRandom3.h</text>
</a>
</g>
</g>
<!-- Node2&#45;&gt;Node32 -->
<g id="edge81" class="edge">
<title>Node2&#45;&gt;Node32</title>
<path fill="none" stroke="#63b8ff" d="M1271.14,-387.69C1192.63,-380.12 1053.89,-365.85 935.67,-349 797.29,-329.28 761.13,-319.15 619.63,-294.17"/>
<polygon fill="#63b8ff" stroke="#63b8ff" points="620.16,-290.71 609.7,-292.42 618.95,-297.6 620.16,-290.71"/>
</g>
<!-- Node33 -->
<g id="node33" class="node">
<title>Node33</title>
<g id="a_node33"><a xlink:href="Manager_8h.html" target="_top" xlink:title=" ">
<polygon fill="white" stroke="#666666" points="1174.17,-349 1061.17,-349 1061.17,-330 1174.17,-330 1174.17,-349"/>
<text text-anchor="middle" x="1117.67" y="-337" font-family="Helvetica,sans-Serif" font-size="10.00">Manager/Manager.h</text>
</a>
</g>
</g>
<!-- Node2&#45;&gt;Node33 -->
<g id="edge41" class="edge">
<title>Node2&#45;&gt;Node33</title>
<path fill="none" stroke="#63b8ff" d="M1298.97,-384.98C1261.92,-375.89 1203.08,-361.46 1162.54,-351.51"/>
<polygon fill="#63b8ff" stroke="#63b8ff" points="1163.2,-348.07 1152.65,-349.08 1161.53,-354.86 1163.2,-348.07"/>
</g>
<!-- Node42 -->
<g id="node42" class="node">
<title>Node42</title>
<g id="a_node42"><a xlink:title=" ">
<polygon fill="#e0e0e0" stroke="#999999" points="1720.67,-239 1668.67,-239 1668.67,-220 1720.67,-220 1720.67,-239"/>
<text text-anchor="middle" x="1694.67" y="-227" font-family="Helvetica,sans-Serif" font-size="10.00">TTree.h</text>
</a>
</g>
</g>
<!-- Node2&#45;&gt;Node42 -->
<g id="edge75" class="edge">
<title>Node2&#45;&gt;Node42</title>
<path fill="none" stroke="#63b8ff" d="M1349.07,-384.75C1378.33,-368.17 1440.03,-333.52 1450.67,-330 1504.38,-312.23 1665.61,-336.73 1702.67,-294 1713.45,-281.57 1709.09,-262.28 1703.49,-248.22"/>
<polygon fill="#63b8ff" stroke="#63b8ff" points="1706.68,-246.77 1699.4,-239.08 1700.29,-249.64 1706.68,-246.77"/>
</g>
<!-- Node46 -->
<g id="node44" class="node">
<title>Node46</title>
<g id="a_node44"><a xlink:href="MaCh3Modes_8h.html" target="_top" xlink:title=" ">
<polygon fill="white" stroke="#666666" points="1402.17,-349 1265.17,-349 1265.17,-330 1402.17,-330 1402.17,-349"/>
<text text-anchor="middle" x="1333.67" y="-337" font-family="Helvetica,sans-Serif" font-size="10.00">Manager/MaCh3Modes.h</text>
</a>
</g>
</g>
<!-- Node2&#45;&gt;Node46 -->
<g id="edge68" class="edge">
<title>Node2&#45;&gt;Node46</title>
<path fill="none" stroke="#63b8ff" d="M1333.67,-384.75C1333.67,-377.8 1333.67,-367.85 1333.67,-359.13"/>
<polygon fill="#63b8ff" stroke="#63b8ff" points="1337.17,-359.09 1333.67,-349.09 1330.17,-359.09 1337.17,-359.09"/>
</g>
<!-- Node48 -->
<g id="node46" class="node">
<title>Node48</title>
<g id="a_node46"><a xlink:title=" ">
<polygon fill="#e0e0e0" stroke="#999999" points="1512.17,-349 1459.17,-349 1459.17,-330 1512.17,-330 1512.17,-349"/>
<text text-anchor="middle" x="1485.67" y="-337" font-family="Helvetica,sans-Serif" font-size="10.00">TH1D.h</text>
</a>
</g>
</g>
<!-- Node2&#45;&gt;Node48 -->
<g id="edge76" class="edge">
<title>Node2&#45;&gt;Node48</title>
<path fill="none" stroke="#63b8ff" d="M1358.1,-384.98C1383.39,-376.16 1423.13,-362.31 1451.53,-352.41"/>
<polygon fill="#63b8ff" stroke="#63b8ff" points="1452.77,-355.68 1461.06,-349.08 1450.47,-349.07 1452.77,-355.68"/>
</g>
<!-- Node49 -->
<g id="node47" class="node">
<title>Node49</title>
<g id="a_node47"><a xlink:title=" ">
<polygon fill="#e0e0e0" stroke="#999999" points="1583.17,-349 1530.17,-349 1530.17,-330 1583.17,-330 1583.17,-349"/>
<text text-anchor="middle" x="1556.67" y="-337" font-family="Helvetica,sans-Serif" font-size="10.00">TH2D.h</text>
</a>
</g>
</g>
<!-- Node2&#45;&gt;Node49 -->
<g id="edge77" class="edge">
<title>Node2&#45;&gt;Node49</title>
<path fill="none" stroke="#63b8ff" d="M1370.08,-384.95C1405.89,-376.52 1462.39,-363.19 1519.93,-349.41"/>
<polygon fill="#63b8ff" stroke="#63b8ff" points="1521.02,-352.75 1529.92,-347.01 1519.38,-345.94 1521.02,-352.75"/>
</g>
<!-- Node50 -->
<g id="node48" class="node">
<title>Node50</title>
<g id="a_node48"><a xlink:title=" ">
<polygon fill="#e0e0e0" stroke="#999999" points="1657.67,-349 1601.67,-349 1601.67,-330 1657.67,-330 1657.67,-349"/>
<text text-anchor="middle" x="1629.67" y="-337" font-family="Helvetica,sans-Serif" font-size="10.00">TMath.h</text>
</a>
</g>
</g>
<!-- Node2&#45;&gt;Node50 -->
<g id="edge78" class="edge">
<title>Node2&#45;&gt;Node50</title>
<path fill="none" stroke="#63b8ff" d="M1388.66,-384.96C1438.94,-376.95 1515.62,-364.22 1591.25,-349.2"/>
<polygon fill="#63b8ff" stroke="#63b8ff" points="1592.31,-352.55 1601.43,-347.16 1590.93,-345.69 1592.31,-352.55"/>
</g>
<!-- Node51 -->
<g id="node49" class="node">
<title>Node51</title>
<g id="a_node49"><a xlink:title=" ">
<polygon fill="#e0e0e0" stroke="#999999" points="1735.17,-349 1676.17,-349 1676.17,-330 1735.17,-330 1735.17,-349"/>
<text text-anchor="middle" x="1705.67" y="-337" font-family="Helvetica,sans-Serif" font-size="10.00">TROOT.h</text>
</a>
</g>
</g>
<!-- Node2&#45;&gt;Node51 -->
<g id="edge80" class="edge">
<title>Node2&#45;&gt;Node51</title>
<path fill="none" stroke="#63b8ff" d="M1396.2,-386.69C1461.14,-379.27 1565.87,-366.33 1665.93,-348.99"/>
<polygon fill="#63b8ff" stroke="#63b8ff" points="1666.67,-352.42 1675.91,-347.25 1665.46,-345.52 1666.67,-352.42"/>
</g>
<!-- Node52 -->
<g id="node50" class="node">
<title>Node52</title>
<g id="a_node50"><a xlink:title=" ">
<polygon fill="#e0e0e0" stroke="#999999" points="1813.67,-349 1753.67,-349 1753.67,-330 1813.67,-330 1813.67,-349"/>
<text text-anchor="middle" x="1783.67" y="-337" font-family="Helvetica,sans-Serif" font-size="10.00">TString.h</text>
</a>
</g>
</g>
<!-- Node2&#45;&gt;Node52 -->
<g id="edge82" class="edge">
<title>Node2&#45;&gt;Node52</title>
<path fill="none" stroke="#63b8ff" d="M1396.27,-388.81C1475.04,-382.45 1614.63,-369.63 1743.46,-349.03"/>
<polygon fill="#63b8ff" stroke="#63b8ff" points="1744.19,-352.46 1753.5,-347.41 1743.07,-345.55 1744.19,-352.46"/>
</g>
<!-- Node5 -->
<g id="node5" class="node">
<title>Node5</title>
<g id="a_node5"><a xlink:title=" ">
<polygon fill="#e0e0e0" stroke="#999999" points="489.67,-239 457.67,-239 457.67,-220 489.67,-220 489.67,-239"/>
<text text-anchor="middle" x="473.67" y="-227" font-family="Helvetica,sans-Serif" font-size="10.00">set</text>
</a>
</g>
</g>
<!-- Node4&#45;&gt;Node5 -->
<g id="edge4" class="edge">
<title>Node4&#45;&gt;Node5</title>
<path fill="none" stroke="#63b8ff" d="M640.93,-275C606.19,-267.15 553.65,-254.72 499.51,-239.05"/>
<polygon fill="#63b8ff" stroke="#63b8ff" points="500.33,-235.64 489.75,-236.19 498.36,-242.36 500.33,-235.64"/>
</g>
<!-- Node6 -->
<g id="node6" class="node">
<title>Node6</title>
<g id="a_node6"><a xlink:title=" ">
<polygon fill="#e0e0e0" stroke="#999999" points="539.67,-239 507.67,-239 507.67,-220 539.67,-220 539.67,-239"/>
<text text-anchor="middle" x="523.67" y="-227" font-family="Helvetica,sans-Serif" font-size="10.00">list</text>
</a>
</g>
</g>
<!-- Node4&#45;&gt;Node6 -->
<g id="edge5" class="edge">
<title>Node4&#45;&gt;Node6</title>
<path fill="none" stroke="#63b8ff" d="M654.61,-274.98C625.8,-265.2 578.73,-249.21 549.57,-239.3"/>
<polygon fill="#63b8ff" stroke="#63b8ff" points="550.66,-235.97 540.06,-236.07 548.41,-242.6 550.66,-235.97"/>
</g>
<!-- Node7 -->
<g id="node7" class="node">
<title>Node7</title>
<g id="a_node7"><a xlink:title=" ">
<polygon fill="#e0e0e0" stroke="#999999" points="651.17,-239 558.17,-239 558.17,-220 651.17,-220 651.17,-239"/>
<text text-anchor="middle" x="604.67" y="-227" font-family="Helvetica,sans-Serif" font-size="10.00">unordered_map</text>
</a>
</g>
</g>
<!-- Node4&#45;&gt;Node7 -->
<g id="edge6" class="edge">
<title>Node4&#45;&gt;Node7</title>
<path fill="none" stroke="#63b8ff" d="M667.62,-274.98C656.21,-266.92 638.84,-254.65 625.24,-245.03"/>
<polygon fill="#63b8ff" stroke="#63b8ff" points="627.13,-242.08 616.94,-239.17 623.09,-247.8 627.13,-242.08"/>
</g>
<!-- Node8 -->
<g id="node8" class="node">
<title>Node8</title>
<g id="a_node8"><a xlink:href="MaCh3Exception_8h.html" target="_top" xlink:title=" ">
<polygon fill="white" stroke="#666666" points="1050.17,-184 897.17,-184 897.17,-165 1050.17,-165 1050.17,-184"/>
<text text-anchor="middle" x="973.67" y="-172" font-family="Helvetica,sans-Serif" font-size="10.00">Manager/MaCh3Exception.h</text>
</a>
</g>
</g>
<!-- Node4&#45;&gt;Node8 -->
<g id="edge7" class="edge">
<title>Node4&#45;&gt;Node8</title>
<path fill="none" stroke="#63b8ff" d="M731.8,-276.48C771.73,-269.94 827.6,-258.24 873.67,-239 904.12,-226.29 935.68,-204.57 955,-190.13"/>
<polygon fill="#63b8ff" stroke="#63b8ff" points="957.13,-192.9 962.97,-184.06 952.89,-187.33 957.13,-192.9"/>
</g>
<!-- Node12 -->
<g id="node12" class="node">
<title>Node12</title>
<g id="a_node12"><a xlink:href="MaCh3Logger_8h.html" target="_top" xlink:title="KS: Based on this https://github.com/gabime/spdlog/blob/a2b4262090fd3f005c2315dcb5be2f0f1774a005/incl...">
<polygon fill="white" stroke="#666666" points="882.17,-129 745.17,-129 745.17,-110 882.17,-110 882.17,-129"/>
<text text-anchor="middle" x="813.67" y="-117" font-family="Helvetica,sans-Serif" font-size="10.00">Manager/MaCh3Logger.h</text>
</a>
</g>
</g>
<!-- Node4&#45;&gt;Node12 -->
<g id="edge27" class="edge">
<title>Node4&#45;&gt;Node12</title>
<path fill="none" stroke="#63b8ff" d="M680.73,-274.63C682.6,-261.72 687.42,-237.39 698.67,-220 722.79,-182.72 764.85,-151.48 790.87,-134.43"/>
<polygon fill="#63b8ff" stroke="#63b8ff" points="792.81,-137.35 799.35,-129.01 789.04,-131.45 792.81,-137.35"/>
</g>
<!-- Node16 -->
<g id="node16" class="node">
<title>Node16</title>
<g id="a_node16"><a xlink:href="Core_8h.html" target="_top" xlink:title=" ">
<polygon fill="white" stroke="#666666" points="1230.67,-74 1136.67,-74 1136.67,-55 1230.67,-55 1230.67,-74"/>
<text text-anchor="middle" x="1183.67" y="-62" font-family="Helvetica,sans-Serif" font-size="10.00">Manager/Core.h</text>
</a>
</g>
</g>
<!-- Node4&#45;&gt;Node16 -->
<g id="edge28" class="edge">
<title>Node4&#45;&gt;Node16</title>
<path fill="none" stroke="#63b8ff" d="M732.04,-278.64C765.73,-273.34 808.98,-262.23 840.67,-239 897.06,-197.67 870.94,-146.32 930.67,-110 947.18,-99.96 1057.19,-83.13 1126.61,-73.3"/>
<polygon fill="#63b8ff" stroke="#63b8ff" points="1127.13,-76.76 1136.54,-71.9 1126.15,-69.83 1127.13,-76.76"/>
</g>
<!-- Node23 -->
<g id="node23" class="node">
<title>Node23</title>
<g id="a_node23"><a xlink:title=" ">
<polygon fill="#e0e0e0" stroke="#999999" points="769.67,-239 707.67,-239 707.67,-220 769.67,-220 769.67,-239"/>
<text text-anchor="middle" x="738.67" y="-227" font-family="Helvetica,sans-Serif" font-size="10.00">TSpline.h</text>
</a>
</g>
</g>
<!-- Node4&#45;&gt;Node23 -->
<g id="edge29" class="edge">
<title>Node4&#45;&gt;Node23</title>
<path fill="none" stroke="#63b8ff" d="M689.15,-274.98C697.88,-267.15 711.02,-255.34 721.57,-245.86"/>
<polygon fill="#63b8ff" stroke="#63b8ff" points="723.92,-248.46 729.02,-239.17 719.24,-243.25 723.92,-248.46"/>
</g>
<!-- Node24 -->
<g id="node24" class="node">
<title>Node24</title>
<g id="a_node24"><a xlink:title=" ">
<polygon fill="#e0e0e0" stroke="#999999" points="468.17,-184 391.17,-184 391.17,-165 468.17,-165 468.17,-184"/>
<text text-anchor="middle" x="429.67" y="-172" font-family="Helvetica,sans-Serif" font-size="10.00">TObjString.h</text>
</a>
</g>
</g>
<!-- Node4&#45;&gt;Node24 -->
<g id="edge30" class="edge">
<title>Node4&#45;&gt;Node24</title>
<path fill="none" stroke="#63b8ff" d="M628.33,-274.99C562.33,-263.85 455.35,-245.04 448.67,-239 436.28,-227.79 431.83,-208.87 430.31,-194.59"/>
<polygon fill="#63b8ff" stroke="#63b8ff" points="433.78,-194.11 429.61,-184.37 426.8,-194.59 433.78,-194.11"/>
</g>
<!-- Node4&#45;&gt;Node25 -->
<g id="edge31" class="edge">
<title>Node4&#45;&gt;Node25</title>
<path fill="none" stroke="#63b8ff" d="M627.46,-275.97C624.49,-275.62 621.55,-275.29 618.67,-275 380.06,-250.54 314.58,-276.76 74.52,-239.01"/>
<polygon fill="#63b8ff" stroke="#63b8ff" points="74.86,-235.52 64.44,-237.41 73.76,-242.44 74.86,-235.52"/>
</g>
<!-- Node26 -->
<g id="node26" class="node">
<title>Node26</title>
<g id="a_node26"><a xlink:title=" ">
<polygon fill="#e0e0e0" stroke="#999999" points="831.67,-239 787.67,-239 787.67,-220 831.67,-220 831.67,-239"/>
<text text-anchor="middle" x="809.67" y="-227" font-family="Helvetica,sans-Serif" font-size="10.00">TF1.h</text>
</a>
</g>
</g>
<!-- Node4&#45;&gt;Node26 -->
<g id="edge32" class="edge">
<title>Node4&#45;&gt;Node26</title>
<path fill="none" stroke="#63b8ff" d="M700.56,-274.98C721.76,-266.34 754.8,-252.87 778.97,-243.02"/>
<polygon fill="#63b8ff" stroke="#63b8ff" points="780.47,-246.19 788.41,-239.17 777.83,-239.7 780.47,-246.19"/>
</g>
<!-- Node27 -->
<g id="node27" class="node">
<title>Node27</title>
<g id="a_node27"><a xlink:title=" ">
<polygon fill="#e0e0e0" stroke="#999999" points="147.17,-239 82.17,-239 82.17,-220 147.17,-220 147.17,-239"/>
<text text-anchor="middle" x="114.67" y="-227" font-family="Helvetica,sans-Serif" font-size="10.00">TH2Poly.h</text>
</a>
</g>
</g>
<!-- Node4&#45;&gt;Node27 -->
<g id="edge33" class="edge">
<title>Node4&#45;&gt;Node27</title>
<path fill="none" stroke="#63b8ff" d="M627.46,-276.01C624.49,-275.65 621.54,-275.31 618.67,-275 416.78,-253.11 361.79,-267.53 157.44,-239.08"/>
<polygon fill="#63b8ff" stroke="#63b8ff" points="157.67,-235.58 147.28,-237.65 156.7,-242.51 157.67,-235.58"/>
</g>
<!-- Node28 -->
<g id="node28" class="node">
<title>Node28</title>
<g id="a_node28"><a xlink:title=" ">
<polygon fill="#e0e0e0" stroke="#999999" points="210.17,-239 165.17,-239 165.17,-220 210.17,-220 210.17,-239"/>
<text text-anchor="middle" x="187.67" y="-227" font-family="Helvetica,sans-Serif" font-size="10.00">TH1.h</text>
</a>
</g>
</g>
<!-- Node4&#45;&gt;Node28 -->
<g id="edge34" class="edge">
<title>Node4&#45;&gt;Node28</title>
<path fill="none" stroke="#63b8ff" d="M627.45,-276.05C624.48,-275.68 621.54,-275.33 618.67,-275 444.54,-255.04 396.07,-270.16 220.1,-238.96"/>
<polygon fill="#63b8ff" stroke="#63b8ff" points="220.72,-235.52 210.25,-237.19 219.48,-242.4 220.72,-235.52"/>
</g>
<!-- Node29 -->
<g id="node29" class="node">
<title>Node29</title>
<g id="a_node29"><a xlink:title=" ">
<polygon fill="#e0e0e0" stroke="#999999" points="401.17,-239 228.17,-239 228.17,-220 401.17,-220 401.17,-239"/>
<text text-anchor="middle" x="314.67" y="-227" font-family="Helvetica,sans-Serif" font-size="10.00">Constants/OscillatorConstants.h</text>
</a>
</g>
</g>
<!-- Node4&#45;&gt;Node29 -->
<g id="edge35" class="edge">
<title>Node4&#45;&gt;Node29</title>
<path fill="none" stroke="#63b8ff" d="M627.38,-275.91C563.22,-266.59 454.25,-250.77 383.38,-240.48"/>
<polygon fill="#63b8ff" stroke="#63b8ff" points="383.61,-236.97 373.21,-239 382.61,-243.9 383.61,-236.97"/>
</g>
<!-- Node9 -->
<g id="node9" class="node">
<title>Node9</title>
<g id="a_node9"><a xlink:title=" ">
<polygon fill="#e0e0e0" stroke="#999999" points="1323.67,-19 1263.67,-19 1263.67,0 1323.67,0 1323.67,-19"/>
<text text-anchor="middle" x="1293.67" y="-7" font-family="Helvetica,sans-Serif" font-size="10.00">iostream</text>
</a>
</g>
</g>
<!-- Node8&#45;&gt;Node9 -->
<g id="edge8" class="edge">
<title>Node8&#45;&gt;Node9</title>
<path fill="none" stroke="#63b8ff" d="M1015.03,-164.92C1070.12,-152.03 1168.85,-123.71 1239.67,-74 1257.55,-61.45 1273.12,-41.63 1282.89,-27.47"/>
<polygon fill="#63b8ff" stroke="#63b8ff" points="1285.82,-29.38 1288.43,-19.11 1279.99,-25.51 1285.82,-29.38"/>
</g>
<!-- Node10 -->
<g id="node10" class="node">
<title>Node10</title>
<g id="a_node10"><a xlink:title=" ">
<polygon fill="#e0e0e0" stroke="#999999" points="1488.67,-74 1444.67,-74 1444.67,-55 1488.67,-55 1488.67,-74"/>
<text text-anchor="middle" x="1466.67" y="-62" font-family="Helvetica,sans-Serif" font-size="10.00">string</text>
</a>
</g>
</g>
<!-- Node8&#45;&gt;Node10 -->
<g id="edge9" class="edge">
<title>Node8&#45;&gt;Node10</title>
<path fill="none" stroke="#63b8ff" d="M1012.77,-164.94C1107.53,-144.18 1348.05,-91.49 1434.83,-72.48"/>
<polygon fill="#63b8ff" stroke="#63b8ff" points="1435.61,-75.89 1444.63,-70.33 1434.12,-69.05 1435.61,-75.89"/>
</g>
<!-- Node11 -->
<g id="node11" class="node">
<title>Node11</title>
<g id="a_node11"><a xlink:title=" ">
<polygon fill="#e0e0e0" stroke="#999999" points="1004.17,-129 939.17,-129 939.17,-110 1004.17,-110 1004.17,-129"/>
<text text-anchor="middle" x="971.67" y="-117" font-family="Helvetica,sans-Serif" font-size="10.00">stdexcept</text>
</a>
</g>
</g>
<!-- Node8&#45;&gt;Node11 -->
<g id="edge10" class="edge">
<title>Node8&#45;&gt;Node11</title>
<path fill="none" stroke="#63b8ff" d="M973.34,-164.75C973.08,-157.8 972.71,-147.85 972.38,-139.13"/>
<polygon fill="#63b8ff" stroke="#63b8ff" points="975.87,-138.95 972,-129.09 968.88,-139.21 975.87,-138.95"/>
</g>
<!-- Node8&#45;&gt;Node12 -->
<g id="edge11" class="edge">
<title>Node8&#45;&gt;Node12</title>
<path fill="none" stroke="#63b8ff" d="M947.97,-164.98C921.22,-156.13 879.15,-142.19 849.22,-132.28"/>
<polygon fill="#63b8ff" stroke="#63b8ff" points="850.18,-128.9 839.58,-129.08 847.97,-135.55 850.18,-128.9"/>
</g>
<!-- Node8&#45;&gt;Node16 -->
<g id="edge26" class="edge">
<title>Node8&#45;&gt;Node16</title>
<path fill="none" stroke="#63b8ff" d="M983.19,-164.58C997.93,-151.16 1027.62,-125.69 1056.67,-110 1083.26,-95.65 1115.4,-84.44 1140.69,-76.86"/>
<polygon fill="#63b8ff" stroke="#63b8ff" points="1141.76,-80.2 1150.38,-74.04 1139.8,-73.48 1141.76,-80.2"/>
</g>
<!-- Node12&#45;&gt;Node9 -->
<g id="edge12" class="edge">
<title>Node12&#45;&gt;Node9</title>
<path fill="none" stroke="#63b8ff" d="M865.43,-109.93C913.78,-101.66 987.89,-88.31 1051.67,-74 1090.06,-65.39 1195.27,-37.18 1253.53,-21.41"/>
<polygon fill="#63b8ff" stroke="#63b8ff" points="1254.75,-24.7 1263.49,-18.71 1252.92,-17.95 1254.75,-24.7"/>
</g>
<!-- Node12&#45;&gt;Node10 -->
<g id="edge15" class="edge">
<title>Node12&#45;&gt;Node10</title>
<path fill="none" stroke="#63b8ff" d="M882.32,-112.93C1021.65,-101.62 1332.98,-76.35 1434.2,-68.14"/>
<polygon fill="#63b8ff" stroke="#63b8ff" points="1434.73,-71.6 1444.41,-67.31 1434.16,-64.63 1434.73,-71.6"/>
</g>
<!-- Node13 -->
<g id="node13" class="node">
<title>Node13</title>
<g id="a_node13"><a xlink:title=" ">
<polygon fill="#e0e0e0" stroke="#999999" points="1109.67,-19 1053.67,-19 1053.67,0 1109.67,0 1109.67,-19"/>
<text text-anchor="middle" x="1081.67" y="-7" font-family="Helvetica,sans-Serif" font-size="10.00">sstream</text>
</a>
</g>
</g>
<!-- Node12&#45;&gt;Node13 -->
<g id="edge13" class="edge">
<title>Node12&#45;&gt;Node13</title>
<path fill="none" stroke="#63b8ff" d="M801.62,-109.88C785.13,-97.07 759.25,-72.62 774.67,-55 812.68,-11.59 969.41,-28.03 1043.19,-18.82"/>
<polygon fill="#63b8ff" stroke="#63b8ff" points="1044.09,-22.23 1053.45,-17.27 1043.04,-15.31 1044.09,-22.23"/>
</g>
<!-- Node14 -->
<g id="node14" class="node">
<title>Node14</title>
<g id="a_node14"><a xlink:title=" ">
<polygon fill="#e0e0e0" stroke="#999999" points="959.17,-74 894.17,-74 894.17,-55 959.17,-55 959.17,-74"/>
<text text-anchor="middle" x="926.67" y="-62" font-family="Helvetica,sans-Serif" font-size="10.00">functional</text>
</a>
</g>
</g>
<!-- Node12&#45;&gt;Node14 -->
<g id="edge14" class="edge">
<title>Node12&#45;&gt;Node14</title>
<path fill="none" stroke="#63b8ff" d="M831.83,-109.98C849.93,-101.5 877.96,-88.35 898.86,-78.54"/>
<polygon fill="#63b8ff" stroke="#63b8ff" points="900.62,-81.59 908.19,-74.17 897.65,-75.25 900.62,-81.59"/>
</g>
<!-- Node15 -->
<g id="node15" class="node">
<title>Node15</title>
<g id="a_node15"><a xlink:title=" ">
<polygon fill="#e0e0e0" stroke="#999999" points="1042.17,-74 977.17,-74 977.17,-55 1042.17,-55 1042.17,-74"/>
<text text-anchor="middle" x="1009.67" y="-62" font-family="Helvetica,sans-Serif" font-size="10.00">exception</text>
</a>
</g>
</g>
<!-- Node12&#45;&gt;Node15 -->
<g id="edge16" class="edge">
<title>Node12&#45;&gt;Node15</title>
<path fill="none" stroke="#63b8ff" d="M845.16,-109.98C878.5,-100.97 931.27,-86.7 968.02,-76.76"/>
<polygon fill="#63b8ff" stroke="#63b8ff" points="969.2,-80.07 977.94,-74.08 967.37,-73.31 969.2,-80.07"/>
</g>
<!-- Node12&#45;&gt;Node16 -->
<g id="edge17" class="edge">
<title>Node12&#45;&gt;Node16</title>
<path fill="none" stroke="#63b8ff" d="M873.12,-109.98C942.78,-100.01 1057.4,-83.59 1126.2,-73.73"/>
<polygon fill="#63b8ff" stroke="#63b8ff" points="1127.02,-77.15 1136.42,-72.27 1126.02,-70.22 1127.02,-77.15"/>
</g>
<!-- Node22 -->
<g id="node22" class="node">
<title>Node22</title>
<g id="a_node22"><a xlink:title=" ">
<polygon fill="#e0e0e0" stroke="#999999" points="876.17,-74 783.17,-74 783.17,-55 876.17,-55 876.17,-74"/>
<text text-anchor="middle" x="829.67" y="-62" font-family="Helvetica,sans-Serif" font-size="10.00">spdlog/spdlog.h</text>
</a>
</g>
</g>
<!-- Node12&#45;&gt;Node22 -->
<g id="edge25" class="edge">
<title>Node12&#45;&gt;Node22</title>
<path fill="none" stroke="#63b8ff" d="M816.32,-109.75C818.44,-102.72 821.49,-92.62 824.14,-83.84"/>
<polygon fill="#63b8ff" stroke="#63b8ff" points="827.54,-84.67 827.08,-74.09 820.84,-82.65 827.54,-84.67"/>
</g>
<!-- Node16&#45;&gt;Node9 -->
<g id="edge20" class="edge">
<title>Node16&#45;&gt;Node9</title>
<path fill="none" stroke="#63b8ff" d="M1201.35,-54.98C1218.96,-46.5 1246.25,-33.35 1266.6,-23.54"/>
<polygon fill="#63b8ff" stroke="#63b8ff" points="1268.19,-26.66 1275.68,-19.17 1265.15,-20.36 1268.19,-26.66"/>
</g>
<!-- Node16&#45;&gt;Node13 -->
<g id="edge18" class="edge">
<title>Node16&#45;&gt;Node13</title>
<path fill="none" stroke="#63b8ff" d="M1167.29,-54.98C1151.1,-46.57 1126.1,-33.59 1107.29,-23.81"/>
<polygon fill="#63b8ff" stroke="#63b8ff" points="1108.85,-20.68 1098.36,-19.17 1105.62,-26.89 1108.85,-20.68"/>
</g>
<!-- Node17 -->
<g id="node17" class="node">
<title>Node17</title>
<g id="a_node17"><a xlink:title=" ">
<polygon fill="#e0e0e0" stroke="#999999" points="1035.17,-19 980.17,-19 980.17,0 1035.17,0 1035.17,-19"/>
<text text-anchor="middle" x="1007.67" y="-7" font-family="Helvetica,sans-Serif" font-size="10.00">fstream</text>
</a>
</g>
</g>
<!-- Node16&#45;&gt;Node17 -->
<g id="edge19" class="edge">
<title>Node16&#45;&gt;Node17</title>
<path fill="none" stroke="#63b8ff" d="M1155.4,-54.98C1125.46,-45.97 1078.05,-31.69 1045.05,-21.75"/>
<polygon fill="#63b8ff" stroke="#63b8ff" points="1045.89,-18.35 1035.3,-18.82 1043.87,-25.05 1045.89,-18.35"/>
</g>
<!-- Node18 -->
<g id="node18" class="node">
<title>Node18</title>
<g id="a_node18"><a xlink:title=" ">
<polygon fill="#e0e0e0" stroke="#999999" points="1584.17,-19 1537.17,-19 1537.17,0 1584.17,0 1584.17,-19"/>
<text text-anchor="middle" x="1560.67" y="-7" font-family="Helvetica,sans-Serif" font-size="10.00">vector</text>
</a>
</g>
</g>
<!-- Node16&#45;&gt;Node18 -->
<g id="edge21" class="edge">
<title>Node16&#45;&gt;Node18</title>
<path fill="none" stroke="#63b8ff" d="M1231.04,-56.84C1308.19,-45.99 1459.15,-24.77 1526.65,-15.28"/>
<polygon fill="#63b8ff" stroke="#63b8ff" points="1527.33,-18.72 1536.74,-13.86 1526.35,-11.79 1527.33,-18.72"/>
</g>
<!-- Node19 -->
<g id="node19" class="node">
<title>Node19</title>
<g id="a_node19"><a xlink:title=" ">
<polygon fill="#e0e0e0" stroke="#999999" points="1245.67,-19 1189.67,-19 1189.67,0 1245.67,0 1245.67,-19"/>
<text text-anchor="middle" x="1217.67" y="-7" font-family="Helvetica,sans-Serif" font-size="10.00">iomanip</text>
</a>
</g>
</g>
<!-- Node16&#45;&gt;Node19 -->
<g id="edge22" class="edge">
<title>Node16&#45;&gt;Node19</title>
<path fill="none" stroke="#63b8ff" d="M1189.29,-54.75C1193.99,-47.42 1200.85,-36.73 1206.64,-27.7"/>
<polygon fill="#63b8ff" stroke="#63b8ff" points="1209.71,-29.4 1212.16,-19.09 1203.82,-25.62 1209.71,-29.4"/>
</g>
<!-- Node20 -->
<g id="node20" class="node">
<title>Node20</title>
<g id="a_node20"><a xlink:title=" ">
<polygon fill="#e0e0e0" stroke="#999999" points="1746.17,-19 1699.17,-19 1699.17,0 1746.17,0 1746.17,-19"/>
<text text-anchor="middle" x="1722.67" y="-7" font-family="Helvetica,sans-Serif" font-size="10.00">cmath</text>
</a>
</g>
</g>
<!-- Node16&#45;&gt;Node20 -->
<g id="edge23" class="edge">
<title>Node16&#45;&gt;Node20</title>
<path fill="none" stroke="#63b8ff" d="M1231.03,-58.84C1338.03,-48.32 1596.3,-22.93 1688.91,-13.82"/>
<polygon fill="#63b8ff" stroke="#63b8ff" points="1689.51,-17.28 1699.12,-12.82 1688.82,-10.31 1689.51,-17.28"/>
</g>
<!-- Node21 -->
<g id="node21" class="node">
<title>Node21</title>
<g id="a_node21"><a xlink:title=" ">
<polygon fill="#e0e0e0" stroke="#999999" points="1171.67,-19 1127.67,-19 1127.67,0 1171.67,0 1171.67,-19"/>
<text text-anchor="middle" x="1149.67" y="-7" font-family="Helvetica,sans-Serif" font-size="10.00">limits</text>
</a>
</g>
</g>
<!-- Node16&#45;&gt;Node21 -->
<g id="edge24" class="edge">
<title>Node16&#45;&gt;Node21</title>
<path fill="none" stroke="#63b8ff" d="M1178.06,-54.75C1173.36,-47.42 1166.5,-36.73 1160.71,-27.7"/>
<polygon fill="#63b8ff" stroke="#63b8ff" points="1163.53,-25.62 1155.18,-19.09 1157.64,-29.4 1163.53,-25.62"/>
</g>
<!-- Node30&#45;&gt;Node4 -->
<g id="edge37" class="edge">
<title>Node30&#45;&gt;Node4</title>
<path fill="none" stroke="#63b8ff" d="M588.19,-329.98C605.64,-321.5 632.68,-308.35 652.85,-298.54"/>
<polygon fill="#63b8ff" stroke="#63b8ff" points="654.38,-301.69 661.84,-294.17 651.32,-295.4 654.38,-301.69"/>
</g>
<!-- Node30&#45;&gt;Node24 -->
<g id="edge39" class="edge">
<title>Node30&#45;&gt;Node24</title>
<path fill="none" stroke="#63b8ff" d="M498.5,-336.85C360.6,-332.01 67.82,-313.05 5.67,-239 -43.49,-180.42 259.52,-174.97 380.96,-175.1"/>
<polygon fill="#63b8ff" stroke="#63b8ff" points="381.1,-178.6 391.11,-175.12 381.11,-171.6 381.1,-178.6"/>
</g>
<!-- Node31 -->
<g id="node31" class="node">
<title>Node31</title>
<g id="a_node31"><a xlink:title=" ">
<polygon fill="#e0e0e0" stroke="#999999" points="513.17,-294 386.17,-294 386.17,-275 513.17,-275 513.17,-294"/>
<text text-anchor="middle" x="449.67" y="-282" font-family="Helvetica,sans-Serif" font-size="10.00">TGraphAsymmErrors.h</text>
</a>
</g>
</g>
<!-- Node30&#45;&gt;Node31 -->
<g id="edge38" class="edge">
<title>Node30&#45;&gt;Node31</title>
<path fill="none" stroke="#63b8ff" d="M551.23,-329.98C531.68,-321.42 501.29,-308.11 478.85,-298.28"/>
<polygon fill="#63b8ff" stroke="#63b8ff" points="480.03,-294.98 469.47,-294.17 477.22,-301.39 480.03,-294.98"/>
</g>
<!-- Node30&#45;&gt;Node32 -->
<g id="edge40" class="edge">
<title>Node30&#45;&gt;Node32</title>
<path fill="none" stroke="#63b8ff" d="M570.67,-329.75C570.67,-322.8 570.67,-312.85 570.67,-304.13"/>
<polygon fill="#63b8ff" stroke="#63b8ff" points="574.17,-304.09 570.67,-294.09 567.17,-304.09 574.17,-304.09"/>
</g>
<!-- Node33&#45;&gt;Node4 -->
<g id="edge42" class="edge">
<title>Node33&#45;&gt;Node4</title>
<path fill="none" stroke="#63b8ff" d="M1060.86,-331.63C978.68,-321.68 827.16,-303.35 741.99,-293.04"/>
<polygon fill="#63b8ff" stroke="#63b8ff" points="742.29,-289.55 731.95,-291.83 741.45,-296.5 742.29,-289.55"/>
</g>
<!-- Node33&#45;&gt;Node8 -->
<g id="edge67" class="edge">
<title>Node33&#45;&gt;Node8</title>
<path fill="none" stroke="#63b8ff" d="M1109.93,-329.74C1086.88,-303.65 1018.44,-226.17 988.25,-192"/>
<polygon fill="#63b8ff" stroke="#63b8ff" points="990.7,-189.48 981.45,-184.31 985.45,-194.12 990.7,-189.48"/>
</g>
<!-- Node34 -->
<g id="node34" class="node">
<title>Node34</title>
<g id="a_node34"><a xlink:href="YamlHelper_8h.html" target="_top" xlink:title="Utility functions for handling YAML nodes.">
<polygon fill="white" stroke="#666666" points="1347.67,-239 1221.67,-239 1221.67,-220 1347.67,-220 1347.67,-239"/>
<text text-anchor="middle" x="1284.67" y="-227" font-family="Helvetica,sans-Serif" font-size="10.00">Manager/YamlHelper.h</text>
</a>
</g>
</g>
<!-- Node33&#45;&gt;Node34 -->
<g id="edge43" class="edge">
<title>Node33&#45;&gt;Node34</title>
<path fill="none" stroke="#63b8ff" d="M1131.06,-329.84C1159.76,-311.28 1227.48,-267.49 1262.63,-244.75"/>
<polygon fill="#63b8ff" stroke="#63b8ff" points="1264.73,-247.57 1271.23,-239.2 1260.93,-241.69 1264.73,-247.57"/>
</g>
<!-- Node40 -->
<g id="node40" class="node">
<title>Node40</title>
<g id="a_node40"><a xlink:href="Monitor_8h.html" target="_top" xlink:title="System and monitoring utilities for printing system information and status updates.">
<polygon fill="#fff0f0" stroke="red" points="1429.67,-294 1321.67,-294 1321.67,-275 1429.67,-275 1429.67,-294"/>
<text text-anchor="middle" x="1375.67" y="-282" font-family="Helvetica,sans-Serif" font-size="10.00">Manager/Monitor.h</text>
</a>
</g>
</g>
<!-- Node33&#45;&gt;Node40 -->
<g id="edge55" class="edge">
<title>Node33&#45;&gt;Node40</title>
<path fill="none" stroke="#63b8ff" d="M1159.13,-329.98C1203.94,-320.78 1275.45,-306.09 1323.92,-296.13"/>
<polygon fill="#63b8ff" stroke="#63b8ff" points="1324.81,-299.52 1333.9,-294.08 1323.4,-292.67 1324.81,-299.52"/>
</g>
<!-- Node34&#45;&gt;Node8 -->
<g id="edge49" class="edge">
<title>Node34&#45;&gt;Node8</title>
<path fill="none" stroke="#63b8ff" d="M1234.71,-219.98C1180.04,-210.67 1092.42,-195.74 1033.97,-185.78"/>
<polygon fill="#63b8ff" stroke="#63b8ff" points="1034.22,-182.27 1023.78,-184.04 1033.05,-189.17 1034.22,-182.27"/>
</g>
<!-- Node34&#45;&gt;Node9 -->
<g id="edge44" class="edge">
<title>Node34&#45;&gt;Node9</title>
<path fill="none" stroke="#63b8ff" d="M1348.12,-221.42C1397.53,-214.58 1460.67,-202.52 1478.67,-184 1519.07,-142.45 1534.02,-100.13 1497.67,-55 1477.53,-29.99 1387.54,-18.28 1334.05,-13.44"/>
<polygon fill="#63b8ff" stroke="#63b8ff" points="1334.13,-9.94 1323.86,-12.57 1333.53,-16.91 1334.13,-9.94"/>
</g>
<!-- Node34&#45;&gt;Node10 -->
<g id="edge46" class="edge">
<title>Node34&#45;&gt;Node10</title>
<path fill="none" stroke="#63b8ff" d="M1348.06,-220.32C1392.1,-213.22 1445.35,-201.34 1459.67,-184 1483,-155.76 1477.31,-109.63 1471.66,-84.05"/>
<polygon fill="#63b8ff" stroke="#63b8ff" points="1475.01,-83.05 1469.24,-74.17 1468.21,-84.71 1475.01,-83.05"/>
</g>
<!-- Node34&#45;&gt;Node16 -->
<g id="edge50" class="edge">
<title>Node34&#45;&gt;Node16</title>
<path fill="none" stroke="#63b8ff" d="M1256.69,-219.94C1239.01,-213.06 1217.22,-201.6 1204.67,-184 1183.32,-154.05 1181.41,-109.26 1182.29,-84.19"/>
<polygon fill="#63b8ff" stroke="#63b8ff" points="1185.79,-84.37 1182.84,-74.19 1178.8,-83.99 1185.79,-84.37"/>
</g>
<!-- Node34&#45;&gt;Node17 -->
<g id="edge45" class="edge">
<title>Node34&#45;&gt;Node17</title>
<path fill="none" stroke="#63b8ff" d="M1221.66,-219.92C1175.12,-212.42 1116.83,-200.18 1098.67,-184 1053.13,-143.39 1084.32,-106.55 1051.67,-55 1044.73,-44.04 1034.69,-33.62 1025.95,-25.62"/>
<polygon fill="#63b8ff" stroke="#63b8ff" points="1028.24,-22.98 1018.42,-19.01 1023.63,-28.24 1028.24,-22.98"/>
</g>
<!-- Node34&#45;&gt;Node24 -->
<g id="edge53" class="edge">
<title>Node34&#45;&gt;Node24</title>
<path fill="none" stroke="#63b8ff" d="M1221.46,-224.58C1058.1,-214.45 624.51,-187.58 478.47,-178.52"/>
<polygon fill="#63b8ff" stroke="#63b8ff" points="478.66,-175.03 468.46,-177.9 478.22,-182.02 478.66,-175.03"/>
</g>
<!-- Node35 -->
<g id="node35" class="node">
<title>Node35</title>
<g id="a_node35"><a xlink:title=" ">
<polygon fill="#e0e0e0" stroke="#999999" points="1388.67,-184 1330.67,-184 1330.67,-165 1388.67,-165 1388.67,-184"/>
<text text-anchor="middle" x="1359.67" y="-172" font-family="Helvetica,sans-Serif" font-size="10.00">cxxabi.h</text>
</a>
</g>
</g>
<!-- Node34&#45;&gt;Node35 -->
<g id="edge47" class="edge">
<title>Node34&#45;&gt;Node35</title>
<path fill="none" stroke="#63b8ff" d="M1296.72,-219.98C1308.14,-211.92 1325.51,-199.65 1339.11,-190.03"/>
<polygon fill="#63b8ff" stroke="#63b8ff" points="1341.26,-192.8 1347.4,-184.17 1337.22,-187.08 1341.26,-192.8"/>
</g>
<!-- Node36 -->
<g id="node36" class="node">
<title>Node36</title>
<g id="a_node36"><a xlink:title=" ">
<polygon fill="#e0e0e0" stroke="#999999" points="1450.67,-184 1406.67,-184 1406.67,-165 1450.67,-165 1450.67,-184"/>
<text text-anchor="middle" x="1428.67" y="-172" font-family="Helvetica,sans-Serif" font-size="10.00">regex</text>
</a>
</g>
</g>
<!-- Node34&#45;&gt;Node36 -->
<g id="edge48" class="edge">
<title>Node34&#45;&gt;Node36</title>
<path fill="none" stroke="#63b8ff" d="M1307.81,-219.98C1331.92,-211.11 1369.87,-197.14 1396.81,-187.23"/>
<polygon fill="#63b8ff" stroke="#63b8ff" points="1398.37,-190.38 1406.54,-183.65 1395.95,-183.82 1398.37,-190.38"/>
</g>
<!-- Node37 -->
<g id="node37" class="node">
<title>Node37</title>
<g id="a_node37"><a xlink:title=" ">
<polygon fill="#e0e0e0" stroke="#999999" points="1606.67,-184 1544.67,-184 1544.67,-165 1606.67,-165 1606.67,-184"/>
<text text-anchor="middle" x="1575.67" y="-172" font-family="Helvetica,sans-Serif" font-size="10.00">TMacro.h</text>
</a>
</g>
</g>
<!-- Node34&#45;&gt;Node37 -->
<g id="edge51" class="edge">
<title>Node34&#45;&gt;Node37</title>
<path fill="none" stroke="#63b8ff" d="M1332.31,-219.99C1381.88,-211.12 1461.75,-196.74 1530.67,-184 1531.77,-183.8 1532.88,-183.59 1534,-183.38"/>
<polygon fill="#63b8ff" stroke="#63b8ff" points="1535.02,-186.75 1544.21,-181.48 1533.74,-179.87 1535.02,-186.75"/>
</g>
<!-- Node38 -->
<g id="node38" class="node">
<title>Node38</title>
<g id="a_node38"><a xlink:title=" ">
<polygon fill="#e0e0e0" stroke="#999999" points="1156.17,-184 1107.17,-184 1107.17,-165 1156.17,-165 1156.17,-184"/>
<text text-anchor="middle" x="1131.67" y="-172" font-family="Helvetica,sans-Serif" font-size="10.00">TList.h</text>
</a>
</g>
</g>
<!-- Node34&#45;&gt;Node38 -->
<g id="edge52" class="edge">
<title>Node34&#45;&gt;Node38</title>
<path fill="none" stroke="#63b8ff" d="M1260.09,-219.98C1234.55,-211.14 1194.39,-197.23 1165.79,-187.32"/>
<polygon fill="#63b8ff" stroke="#63b8ff" points="1166.79,-183.96 1156.2,-183.99 1164.5,-190.57 1166.79,-183.96"/>
</g>
<!-- Node39 -->
<g id="node39" class="node">
<title>Node39</title>
<g id="a_node39"><a xlink:title=" ">
<polygon fill="#e0e0e0" stroke="#999999" points="1312.17,-184 1213.17,-184 1213.17,-165 1312.17,-165 1312.17,-184"/>
<text text-anchor="middle" x="1262.67" y="-172" font-family="Helvetica,sans-Serif" font-size="10.00">yaml&#45;cpp/yaml.h</text>
</a>
</g>
</g>
<!-- Node34&#45;&gt;Node39 -->
<g id="edge54" class="edge">
<title>Node34&#45;&gt;Node39</title>
<path fill="none" stroke="#63b8ff" d="M1281.04,-219.75C1278.09,-212.65 1273.84,-202.4 1270.17,-193.56"/>
<polygon fill="#63b8ff" stroke="#63b8ff" points="1273.31,-191.98 1266.24,-184.09 1266.84,-194.67 1273.31,-191.98"/>
</g>
<!-- Node40&#45;&gt;Node8 -->
<g id="edge62" class="edge">
<title>Node40&#45;&gt;Node8</title>
<path fill="none" stroke="#63b8ff" d="M1338.29,-274.98C1304.93,-266.98 1254.97,-254.02 1212.67,-239 1192.99,-232.01 1189.51,-226.57 1169.67,-220 1124.88,-205.17 1072.72,-193.59 1033.47,-185.97"/>
<polygon fill="#63b8ff" stroke="#63b8ff" points="1034.01,-182.51 1023.53,-184.07 1032.69,-189.38 1034.01,-182.51"/>
</g>
<!-- Node40&#45;&gt;Node9 -->
<g id="edge56" class="edge">
<title>Node40&#45;&gt;Node9</title>
<path fill="none" stroke="#63b8ff" d="M1429.95,-281.64C1511.54,-275.97 1654.22,-253.46 1633.67,-165 1604.67,-40.08 1417.52,-15.97 1333.92,-11.46"/>
<polygon fill="#63b8ff" stroke="#63b8ff" points="1333.93,-7.95 1323.78,-10.98 1333.6,-14.95 1333.93,-7.95"/>
</g>
<!-- Node40&#45;&gt;Node10 -->
<g id="edge58" class="edge">
<title>Node40&#45;&gt;Node10</title>
<path fill="none" stroke="#63b8ff" d="M1375.72,-274.56C1376.3,-260.64 1379.6,-233.93 1395.67,-220 1470.56,-155.12 1551.52,-259.5 1615.67,-184 1656.57,-135.87 1553.38,-93.56 1498.43,-75.2"/>
<polygon fill="#63b8ff" stroke="#63b8ff" points="1499.37,-71.83 1488.78,-72.06 1497.2,-78.49 1499.37,-71.83"/>
</g>
<!-- Node40&#45;&gt;Node12 -->
<g id="edge61" class="edge">
<title>Node40&#45;&gt;Node12</title>
<path fill="none" stroke="#63b8ff" d="M1321.37,-281.15C1228.33,-275.25 1034.42,-254.77 888.67,-184 864.59,-172.3 841.85,-151.08 827.85,-136.41"/>
<polygon fill="#63b8ff" stroke="#63b8ff" points="830.39,-134 821.03,-129.04 825.25,-138.75 830.39,-134"/>
</g>
<!-- Node40&#45;&gt;Node17 -->
<g id="edge57" class="edge">
<title>Node40&#45;&gt;Node17</title>
<path fill="none" stroke="#63b8ff" d="M1321.36,-282.35C1244.66,-279.61 1100.81,-270.34 982.67,-239 922.83,-223.12 911.19,-209.3 854.67,-184 801.86,-160.35 767.77,-177.8 736.67,-129 680.78,-41.28 882.99,-18.19 969.86,-12.37"/>
<polygon fill="#63b8ff" stroke="#63b8ff" points="970.34,-15.85 980.1,-11.73 969.9,-8.86 970.34,-15.85"/>
</g>
<!-- Node40&#45;&gt;Node18 -->
<g id="edge59" class="edge">
<title>Node40&#45;&gt;Node18</title>
<path fill="none" stroke="#63b8ff" d="M1429.83,-279.83C1493.83,-274.49 1595.34,-262.52 1624.67,-239 1690.83,-185.96 1609.24,-70.51 1574.71,-27.28"/>
<polygon fill="#63b8ff" stroke="#63b8ff" points="1577.34,-24.97 1568.31,-19.42 1571.91,-29.39 1577.34,-24.97"/>
</g>
<!-- Node40&#45;&gt;Node34 -->
<g id="edge63" class="edge">
<title>Node40&#45;&gt;Node34</title>
<path fill="none" stroke="#63b8ff" d="M1361.05,-274.98C1346.81,-266.69 1324.92,-253.94 1308.22,-244.22"/>
<polygon fill="#63b8ff" stroke="#63b8ff" points="1309.96,-241.18 1299.56,-239.17 1306.44,-247.23 1309.96,-241.18"/>
</g>
<!-- Node40&#45;&gt;Node37 -->
<g id="edge66" class="edge">
<title>Node40&#45;&gt;Node37</title>
<path fill="none" stroke="#63b8ff" d="M1429.69,-281.04C1466.07,-276.8 1513.16,-265.99 1545.67,-239 1559.43,-227.58 1567.27,-208.41 1571.46,-194.12"/>
<polygon fill="#63b8ff" stroke="#63b8ff" points="1574.87,-194.9 1573.99,-184.34 1568.09,-193.15 1574.87,-194.9"/>
</g>
<!-- Node41 -->
<g id="node41" class="node">
<title>Node41</title>
<g id="a_node41"><a xlink:title=" ">
<polygon fill="#e0e0e0" stroke="#999999" points="1536.17,-239 1487.17,-239 1487.17,-220 1536.17,-220 1536.17,-239"/>
<text text-anchor="middle" x="1511.67" y="-227" font-family="Helvetica,sans-Serif" font-size="10.00">cstdlib</text>
</a>
</g>
</g>
<!-- Node40&#45;&gt;Node41 -->
<g id="edge60" class="edge">
<title>Node40&#45;&gt;Node41</title>
<path fill="none" stroke="#63b8ff" d="M1397.52,-274.98C1419.8,-266.3 1454.58,-252.75 1479.89,-242.88"/>
<polygon fill="#63b8ff" stroke="#63b8ff" points="1481.38,-246.06 1489.43,-239.17 1478.84,-239.54 1481.38,-246.06"/>
</g>
<!-- Node40&#45;&gt;Node42 -->
<g id="edge64" class="edge">
<title>Node40&#45;&gt;Node42</title>
<path fill="none" stroke="#63b8ff" d="M1429.82,-275.7C1486.14,-267.4 1576.79,-253.48 1654.67,-239 1655.93,-238.77 1657.21,-238.52 1658.5,-238.27"/>
<polygon fill="#63b8ff" stroke="#63b8ff" points="1659.35,-241.67 1668.46,-236.27 1657.97,-234.81 1659.35,-241.67"/>
</g>
<!-- Node43 -->
<g id="node43" class="node">
<title>Node43</title>
<g id="a_node43"><a xlink:title=" ">
<polygon fill="#e0e0e0" stroke="#999999" points="1469.17,-239 1404.17,-239 1404.17,-220 1469.17,-220 1469.17,-239"/>
<text text-anchor="middle" x="1436.67" y="-227" font-family="Helvetica,sans-Serif" font-size="10.00">TBranch.h</text>
</a>
</g>
</g>
<!-- Node40&#45;&gt;Node43 -->
<g id="edge65" class="edge">
<title>Node40&#45;&gt;Node43</title>
<path fill="none" stroke="#63b8ff" d="M1385.47,-274.98C1394.49,-267.15 1408.08,-255.34 1418.99,-245.86"/>
<polygon fill="#63b8ff" stroke="#63b8ff" points="1421.44,-248.37 1426.7,-239.17 1416.85,-243.09 1421.44,-248.37"/>
</g>
<!-- Node46&#45;&gt;Node8 -->
<g id="edge74" class="edge">
<title>Node46&#45;&gt;Node8</title>
<path fill="none" stroke="#63b8ff" d="M1314.83,-329.97C1255.55,-303.13 1072.67,-220.32 1001.98,-188.31"/>
<polygon fill="#63b8ff" stroke="#63b8ff" points="1003.32,-185.08 992.77,-184.15 1000.44,-191.46 1003.32,-185.08"/>
</g>
<!-- Node46&#45;&gt;Node10 -->
<g id="edge71" class="edge">
<title>Node46&#45;&gt;Node10</title>
<path fill="none" stroke="#63b8ff" d="M1380.98,-329.96C1481.3,-311.4 1708.01,-266.78 1729.67,-239 1799.58,-149.35 1582.64,-90.91 1498.53,-72.09"/>
<polygon fill="#63b8ff" stroke="#63b8ff" points="1499.24,-68.67 1488.73,-69.95 1497.75,-75.51 1499.24,-68.67"/>
</g>
<!-- Node46&#45;&gt;Node20 -->
<g id="edge69" class="edge">
<title>Node46&#45;&gt;Node20</title>
<path fill="none" stroke="#63b8ff" d="M1402.29,-332.97C1501.73,-324.54 1676.9,-307.98 1702.67,-294 1759.42,-263.21 1786.67,-240.06 1786.67,-175.5 1786.67,-175.5 1786.67,-175.5 1786.67,-118.5 1786.67,-81.53 1758.57,-46.14 1739.61,-26.46"/>
<polygon fill="#63b8ff" stroke="#63b8ff" points="1741.95,-23.84 1732.39,-19.26 1737,-28.8 1741.95,-23.84"/>
</g>
<!-- Node46&#45;&gt;Node34 -->
<g id="edge72" class="edge">
<title>Node46&#45;&gt;Node34</title>
<path fill="none" stroke="#63b8ff" d="M1329.58,-330C1325.3,-321.07 1318.42,-306.59 1312.67,-294 1305.72,-278.76 1298.06,-261.34 1292.51,-248.6"/>
<polygon fill="#63b8ff" stroke="#63b8ff" points="1295.6,-246.94 1288.41,-239.16 1289.18,-249.73 1295.6,-246.94"/>
</g>
<!-- Node46&#45;&gt;Node40 -->
<g id="edge73" class="edge">
<title>Node46&#45;&gt;Node40</title>
<path fill="none" stroke="#63b8ff" d="M1340.61,-329.75C1346.54,-322.26 1355.25,-311.28 1362.5,-302.13"/>
<polygon fill="#63b8ff" stroke="#63b8ff" points="1365.4,-304.1 1368.87,-294.09 1359.91,-299.75 1365.4,-304.1"/>
</g>
<!-- Node47 -->
<g id="node45" class="node">
<title>Node47</title>
<g id="a_node45"><a xlink:title=" ">
<polygon fill="#e0e0e0" stroke="#999999" points="1693.67,-294 1655.67,-294 1655.67,-275 1693.67,-275 1693.67,-294"/>
<text text-anchor="middle" x="1674.67" y="-282" font-family="Helvetica,sans-Serif" font-size="10.00">map</text>
</a>
</g>
</g>
<!-- Node46&#45;&gt;Node47 -->
<g id="edge70" class="edge">
<title>Node46&#45;&gt;Node47</title>
<path fill="none" stroke="#63b8ff" d="M1402.24,-330.76C1464.9,-323.17 1559.96,-310.38 1641.67,-294 1642.95,-293.74 1644.24,-293.47 1645.55,-293.18"/>
<polygon fill="#63b8ff" stroke="#63b8ff" points="1646.64,-296.52 1655.56,-290.8 1645.02,-289.71 1646.64,-296.52"/>
</g>
</g>
</svg>
