<?xml version="1.0" encoding="UTF-8" standalone="no"?>
<!DOCTYPE svg PUBLIC "-//W3C//DTD SVG 1.1//EN"
 "http://www.w3.org/Graphics/SVG/1.1/DTD/svg11.dtd">
<!-- Generated by graphviz version 2.43.0 (0)
 -->
<!-- Title: Fitters/SampleSummary.cpp Pages: 1 -->
<svg width="2670pt" height="522pt"
 viewBox="0.00 0.00 2669.63 522.00" xmlns="http://www.w3.org/2000/svg" xmlns:xlink="http://www.w3.org/1999/xlink">
<g id="graph0" class="graph" transform="scale(1 1) rotate(0) translate(4 518)">
<title>Fitters/SampleSummary.cpp</title>
<!-- Node1 -->
<g id="node1" class="node">
<title>Node1</title>
<g id="a_node1"><a xlink:title=" ">
<polygon fill="#999999" stroke="#666666" points="1188.84,-514 1035.84,-514 1035.84,-495 1188.84,-495 1188.84,-514"/>
<text text-anchor="middle" x="1112.34" y="-502" font-family="Helvetica,sans-Serif" font-size="10.00">Fitters/SampleSummary.cpp</text>
</a>
</g>
</g>
<!-- Node2 -->
<g id="node2" class="node">
<title>Node2</title>
<g id="a_node2"><a xlink:href="SampleSummary_8h.html" target="_top" xlink:title=" ">
<polygon fill="white" stroke="#666666" points="1183.34,-459 1041.34,-459 1041.34,-440 1183.34,-440 1183.34,-459"/>
<text text-anchor="middle" x="1112.34" y="-447" font-family="Helvetica,sans-Serif" font-size="10.00">Fitters/SampleSummary.h</text>
</a>
</g>
</g>
<!-- Node1&#45;&gt;Node2 -->
<g id="edge1" class="edge">
<title>Node1&#45;&gt;Node2</title>
<path fill="none" stroke="#63b8ff" d="M1112.34,-494.75C1112.34,-487.8 1112.34,-477.85 1112.34,-469.13"/>
<polygon fill="#63b8ff" stroke="#63b8ff" points="1115.84,-469.09 1112.34,-459.09 1108.84,-469.09 1115.84,-469.09"/>
</g>
<!-- Node3 -->
<g id="node3" class="node">
<title>Node3</title>
<g id="a_node3"><a xlink:href="SampleHandlerBase_8h.html" target="_top" xlink:title=" ">
<polygon fill="white" stroke="#666666" points="520.34,-349 350.34,-349 350.34,-330 520.34,-330 520.34,-349"/>
<text text-anchor="middle" x="435.34" y="-337" font-family="Helvetica,sans-Serif" font-size="10.00">Samples/SampleHandlerBase.h</text>
</a>
</g>
</g>
<!-- Node2&#45;&gt;Node3 -->
<g id="edge2" class="edge">
<title>Node2&#45;&gt;Node3</title>
<path fill="none" stroke="#63b8ff" d="M1058.94,-439.98C935.54,-420.3 631.1,-371.73 498.62,-350.6"/>
<polygon fill="#63b8ff" stroke="#63b8ff" points="499.05,-347.12 488.63,-349 497.95,-354.03 499.05,-347.12"/>
</g>
<!-- Node55 -->
<g id="node30" class="node">
<title>Node55</title>
<g id="a_node30"><a xlink:href="StatisticalUtils_8h.html" target="_top" xlink:title="Utility functions for statistical interpretations in MaCh3.">
<polygon fill="white" stroke="#666666" points="1177.84,-349 1046.84,-349 1046.84,-330 1177.84,-330 1177.84,-349"/>
<text text-anchor="middle" x="1112.34" y="-337" font-family="Helvetica,sans-Serif" font-size="10.00">Fitters/StatisticalUtils.h</text>
</a>
</g>
</g>
<!-- Node2&#45;&gt;Node55 -->
<g id="edge43" class="edge">
<title>Node2&#45;&gt;Node55</title>
<path fill="none" stroke="#63b8ff" d="M1112.34,-439.66C1112.34,-422.17 1112.34,-382.8 1112.34,-359.27"/>
<polygon fill="#63b8ff" stroke="#63b8ff" points="1115.84,-359.16 1112.34,-349.16 1108.84,-359.16 1115.84,-359.16"/>
</g>
<!-- Node60 -->
<g id="node35" class="node">
<title>Node60</title>
<g id="a_node35"><a xlink:href="MCMCProcessor_8h.html" target="_top" xlink:title=" ">
<polygon fill="white" stroke="#666666" points="1659.84,-404 1522.84,-404 1522.84,-385 1659.84,-385 1659.84,-404"/>
<text text-anchor="middle" x="1591.34" y="-392" font-family="Helvetica,sans-Serif" font-size="10.00">Fitters/MCMCProcessor.h</text>
</a>
</g>
</g>
<!-- Node2&#45;&gt;Node60 -->
<g id="edge56" class="edge">
<title>Node2&#45;&gt;Node60</title>
<path fill="none" stroke="#63b8ff" d="M1183.54,-440.62C1271.58,-430.88 1420.99,-414.35 1512.44,-404.23"/>
<polygon fill="#63b8ff" stroke="#63b8ff" points="1512.92,-407.7 1522.48,-403.12 1512.15,-400.74 1512.92,-407.7"/>
</g>
<!-- Node4 -->
<g id="node4" class="node">
<title>Node4</title>
<g id="a_node4"><a xlink:title=" ">
<polygon fill="#e0e0e0" stroke="#999999" points="218.34,-294 162.34,-294 162.34,-275 218.34,-275 218.34,-294"/>
<text text-anchor="middle" x="190.34" y="-282" font-family="Helvetica,sans-Serif" font-size="10.00">assert.h</text>
</a>
</g>
</g>
<!-- Node3&#45;&gt;Node4 -->
<g id="edge3" class="edge">
<title>Node3&#45;&gt;Node4</title>
<path fill="none" stroke="#63b8ff" d="M394.65,-329.98C354.74,-321.59 291.9,-308.26 228.4,-294.21"/>
<polygon fill="#63b8ff" stroke="#63b8ff" points="229.13,-290.79 218.61,-292.04 227.62,-297.62 229.13,-290.79"/>
</g>
<!-- Node5 -->
<g id="node5" class="node">
<title>Node5</title>
<g id="a_node5"><a xlink:href="SampleStructs_8h.html" target="_top" xlink:title=" ">
<polygon fill="#fff0f0" stroke="red" points="691.84,-239 550.84,-239 550.84,-220 691.84,-220 691.84,-239"/>
<text text-anchor="middle" x="621.34" y="-227" font-family="Helvetica,sans-Serif" font-size="10.00">Samples/SampleStructs.h</text>
</a>
</g>
</g>
<!-- Node3&#45;&gt;Node5 -->
<g id="edge4" class="edge">
<title>Node3&#45;&gt;Node5</title>
<path fill="none" stroke="#63b8ff" d="M424.6,-329.61C410.25,-316.67 388.19,-292.32 402.34,-275 419.82,-253.61 485.61,-242.25 540.55,-236.38"/>
<polygon fill="#63b8ff" stroke="#63b8ff" points="541.08,-239.84 550.67,-235.34 540.37,-232.88 541.08,-239.84"/>
</g>
<!-- Node26 -->
<g id="node19" class="node">
<title>Node26</title>
<g id="a_node19"><a xlink:title=" ">
<polygon fill="#e0e0e0" stroke="#999999" points="925.84,-184 876.84,-184 876.84,-165 925.84,-165 925.84,-184"/>
<text text-anchor="middle" x="901.34" y="-172" font-family="Helvetica,sans-Serif" font-size="10.00">TFile.h</text>
</a>
</g>
</g>
<!-- Node3&#45;&gt;Node26 -->
<g id="edge39" class="edge">
<title>Node3&#45;&gt;Node26</title>
<path fill="none" stroke="#63b8ff" d="M434.74,-329.58C434.34,-315.68 435.81,-289.01 451.34,-275 492.86,-237.56 645.84,-251.46 700.34,-239 760.89,-225.15 829.5,-201.76 868.87,-187.56"/>
<polygon fill="#63b8ff" stroke="#63b8ff" points="870.26,-190.78 878.47,-184.07 867.87,-184.2 870.26,-190.78"/>
</g>
<!-- Node31 -->
<g id="node20" class="node">
<title>Node31</title>
<g id="a_node20"><a xlink:href="HistogramUtils_8h.html" target="_top" xlink:title=" ">
<polygon fill="#fff0f0" stroke="red" points="926.34,-294 782.34,-294 782.34,-275 926.34,-275 926.34,-294"/>
<text text-anchor="middle" x="854.34" y="-282" font-family="Helvetica,sans-Serif" font-size="10.00">Samples/HistogramUtils.h</text>
</a>
</g>
</g>
<!-- Node3&#45;&gt;Node31 -->
<g id="edge25" class="edge">
<title>Node3&#45;&gt;Node31</title>
<path fill="none" stroke="#63b8ff" d="M502.66,-329.98C577.38,-320.53 697.79,-305.3 776.5,-295.35"/>
<polygon fill="#63b8ff" stroke="#63b8ff" points="777.36,-298.77 786.84,-294.04 776.48,-291.82 777.36,-298.77"/>
</g>
<!-- Node34 -->
<g id="node21" class="node">
<title>Node34</title>
<g id="a_node21"><a xlink:title=" ">
<polygon fill="#e0e0e0" stroke="#999999" points="888.34,-239 810.34,-239 810.34,-220 888.34,-220 888.34,-239"/>
<text text-anchor="middle" x="849.34" y="-227" font-family="Helvetica,sans-Serif" font-size="10.00">TRandom3.h</text>
</a>
</g>
</g>
<!-- Node3&#45;&gt;Node34 -->
<g id="edge41" class="edge">
<title>Node3&#45;&gt;Node34</title>
<path fill="none" stroke="#63b8ff" d="M437.81,-329.77C442.31,-315.62 453.28,-287.99 473.34,-275 476.75,-272.79 699.16,-247.45 800.27,-236.03"/>
<polygon fill="#63b8ff" stroke="#63b8ff" points="800.7,-239.5 810.24,-234.9 799.91,-232.55 800.7,-239.5"/>
</g>
<!-- Node35 -->
<g id="node22" class="node">
<title>Node35</title>
<g id="a_node22"><a xlink:href="Manager_8h.html" target="_top" xlink:title=" ">
<polygon fill="#fff0f0" stroke="red" points="349.84,-294 236.84,-294 236.84,-275 349.84,-275 349.84,-294"/>
<text text-anchor="middle" x="293.34" y="-282" font-family="Helvetica,sans-Serif" font-size="10.00">Manager/Manager.h</text>
</a>
</g>
</g>
<!-- Node3&#45;&gt;Node35 -->
<g id="edge29" class="edge">
<title>Node3&#45;&gt;Node35</title>
<path fill="none" stroke="#63b8ff" d="M412.53,-329.98C389.17,-321.27 352.64,-307.63 326.17,-297.75"/>
<polygon fill="#63b8ff" stroke="#63b8ff" points="327.16,-294.39 316.57,-294.17 324.72,-300.95 327.16,-294.39"/>
</g>
<!-- Node48 -->
<g id="node23" class="node">
<title>Node48</title>
<g id="a_node23"><a xlink:href="MaCh3Modes_8h.html" target="_top" xlink:title=" ">
<polygon fill="#fff0f0" stroke="red" points="282.84,-239 145.84,-239 145.84,-220 282.84,-220 282.84,-239"/>
<text text-anchor="middle" x="214.34" y="-227" font-family="Helvetica,sans-Serif" font-size="10.00">Manager/MaCh3Modes.h</text>
</a>
</g>
</g>
<!-- Node3&#45;&gt;Node48 -->
<g id="edge32" class="edge">
<title>Node3&#45;&gt;Node48</title>
<path fill="none" stroke="#63b8ff" d="M350.14,-335.58C232.61,-330.66 32.62,-318.74 10.34,-294 -29.85,-249.38 62.37,-235.8 135.6,-231.85"/>
<polygon fill="#63b8ff" stroke="#63b8ff" points="135.98,-235.33 145.8,-231.35 135.64,-228.34 135.98,-235.33"/>
</g>
<!-- Node44 -->
<g id="node24" class="node">
<title>Node44</title>
<g id="a_node24"><a xlink:title=" ">
<polygon fill="#e0e0e0" stroke="#999999" points="534.34,-294 482.34,-294 482.34,-275 534.34,-275 534.34,-294"/>
<text text-anchor="middle" x="508.34" y="-282" font-family="Helvetica,sans-Serif" font-size="10.00">TTree.h</text>
</a>
</g>
</g>
<!-- Node3&#45;&gt;Node44 -->
<g id="edge35" class="edge">
<title>Node3&#45;&gt;Node44</title>
<path fill="none" stroke="#63b8ff" d="M447.07,-329.98C458.07,-322 474.76,-309.88 487.95,-300.31"/>
<polygon fill="#63b8ff" stroke="#63b8ff" points="490.36,-302.88 496.4,-294.17 486.25,-297.21 490.36,-302.88"/>
</g>
<!-- Node50 -->
<g id="node25" class="node">
<title>Node50</title>
<g id="a_node25"><a xlink:title=" ">
<polygon fill="#e0e0e0" stroke="#999999" points="72.84,-294 19.84,-294 19.84,-275 72.84,-275 72.84,-294"/>
<text text-anchor="middle" x="46.34" y="-282" font-family="Helvetica,sans-Serif" font-size="10.00">TH1D.h</text>
</a>
</g>
</g>
<!-- Node3&#45;&gt;Node50 -->
<g id="edge36" class="edge">
<title>Node3&#45;&gt;Node50</title>
<path fill="none" stroke="#63b8ff" d="M350.17,-330.53C280.59,-323.38 179.55,-311.57 82.96,-294.13"/>
<polygon fill="#63b8ff" stroke="#63b8ff" points="83.49,-290.67 73.03,-292.31 82.23,-297.55 83.49,-290.67"/>
</g>
<!-- Node51 -->
<g id="node26" class="node">
<title>Node51</title>
<g id="a_node26"><a xlink:title=" ">
<polygon fill="#e0e0e0" stroke="#999999" points="143.84,-294 90.84,-294 90.84,-275 143.84,-275 143.84,-294"/>
<text text-anchor="middle" x="117.34" y="-282" font-family="Helvetica,sans-Serif" font-size="10.00">TH2D.h</text>
</a>
</g>
</g>
<!-- Node3&#45;&gt;Node51 -->
<g id="edge37" class="edge">
<title>Node3&#45;&gt;Node51</title>
<path fill="none" stroke="#63b8ff" d="M372.66,-329.99C317.59,-322.2 235.11,-309.77 153.92,-293.98"/>
<polygon fill="#63b8ff" stroke="#63b8ff" points="154.52,-290.53 144.03,-292.04 153.17,-297.4 154.52,-290.53"/>
</g>
<!-- Node52 -->
<g id="node27" class="node">
<title>Node52</title>
<g id="a_node27"><a xlink:title=" ">
<polygon fill="#e0e0e0" stroke="#999999" points="608.34,-294 552.34,-294 552.34,-275 608.34,-275 608.34,-294"/>
<text text-anchor="middle" x="580.34" y="-282" font-family="Helvetica,sans-Serif" font-size="10.00">TMath.h</text>
</a>
</g>
</g>
<!-- Node3&#45;&gt;Node52 -->
<g id="edge38" class="edge">
<title>Node3&#45;&gt;Node52</title>
<path fill="none" stroke="#63b8ff" d="M458.64,-329.98C482.59,-321.23 520.12,-307.51 547.17,-297.62"/>
<polygon fill="#63b8ff" stroke="#63b8ff" points="548.43,-300.89 556.62,-294.17 546.03,-294.32 548.43,-300.89"/>
</g>
<!-- Node53 -->
<g id="node28" class="node">
<title>Node53</title>
<g id="a_node28"><a xlink:title=" ">
<polygon fill="#e0e0e0" stroke="#999999" points="763.84,-294 704.84,-294 704.84,-275 763.84,-275 763.84,-294"/>
<text text-anchor="middle" x="734.34" y="-282" font-family="Helvetica,sans-Serif" font-size="10.00">TROOT.h</text>
</a>
</g>
</g>
<!-- Node3&#45;&gt;Node53 -->
<g id="edge40" class="edge">
<title>Node3&#45;&gt;Node53</title>
<path fill="none" stroke="#63b8ff" d="M489.5,-329.96C540.02,-321.83 617.73,-308.9 694.69,-294.05"/>
<polygon fill="#63b8ff" stroke="#63b8ff" points="695.41,-297.48 704.56,-292.14 694.08,-290.61 695.41,-297.48"/>
</g>
<!-- Node54 -->
<g id="node29" class="node">
<title>Node54</title>
<g id="a_node29"><a xlink:title=" ">
<polygon fill="#e0e0e0" stroke="#999999" points="686.34,-294 626.34,-294 626.34,-275 686.34,-275 686.34,-294"/>
<text text-anchor="middle" x="656.34" y="-282" font-family="Helvetica,sans-Serif" font-size="10.00">TString.h</text>
</a>
</g>
</g>
<!-- Node3&#45;&gt;Node54 -->
<g id="edge42" class="edge">
<title>Node3&#45;&gt;Node54</title>
<path fill="none" stroke="#63b8ff" d="M470.85,-329.98C510.64,-320.44 574.99,-305.01 616.48,-295.06"/>
<polygon fill="#63b8ff" stroke="#63b8ff" points="617.34,-298.45 626.25,-292.72 615.71,-291.65 617.34,-298.45"/>
</g>
<!-- Node6 -->
<g id="node6" class="node">
<title>Node6</title>
<g id="a_node6"><a xlink:title=" ">
<polygon fill="#e0e0e0" stroke="#999999" points="637.34,-184 605.34,-184 605.34,-165 637.34,-165 637.34,-184"/>
<text text-anchor="middle" x="621.34" y="-172" font-family="Helvetica,sans-Serif" font-size="10.00">set</text>
</a>
</g>
</g>
<!-- Node5&#45;&gt;Node6 -->
<g id="edge5" class="edge">
<title>Node5&#45;&gt;Node6</title>
<path fill="none" stroke="#63b8ff" d="M621.34,-219.75C621.34,-212.8 621.34,-202.85 621.34,-194.13"/>
<polygon fill="#63b8ff" stroke="#63b8ff" points="624.84,-194.09 621.34,-184.09 617.84,-194.09 624.84,-194.09"/>
</g>
<!-- Node7 -->
<g id="node7" class="node">
<title>Node7</title>
<g id="a_node7"><a xlink:title=" ">
<polygon fill="#e0e0e0" stroke="#999999" points="687.34,-184 655.34,-184 655.34,-165 687.34,-165 687.34,-184"/>
<text text-anchor="middle" x="671.34" y="-172" font-family="Helvetica,sans-Serif" font-size="10.00">list</text>
</a>
</g>
</g>
<!-- Node5&#45;&gt;Node7 -->
<g id="edge6" class="edge">
<title>Node5&#45;&gt;Node7</title>
<path fill="none" stroke="#63b8ff" d="M629.6,-219.75C636.81,-212.11 647.45,-200.82 656.19,-191.56"/>
<polygon fill="#63b8ff" stroke="#63b8ff" points="658.92,-193.76 663.24,-184.09 653.83,-188.96 658.92,-193.76"/>
</g>
<!-- Node8 -->
<g id="node8" class="node">
<title>Node8</title>
<g id="a_node8"><a xlink:title=" ">
<polygon fill="#e0e0e0" stroke="#999999" points="506.84,-184 413.84,-184 413.84,-165 506.84,-165 506.84,-184"/>
<text text-anchor="middle" x="460.34" y="-172" font-family="Helvetica,sans-Serif" font-size="10.00">unordered_map</text>
</a>
</g>
</g>
<!-- Node5&#45;&gt;Node8 -->
<g id="edge7" class="edge">
<title>Node5&#45;&gt;Node8</title>
<path fill="none" stroke="#63b8ff" d="M595.47,-219.98C568.56,-211.13 526.22,-197.19 496.11,-187.28"/>
<polygon fill="#63b8ff" stroke="#63b8ff" points="497,-183.88 486.41,-184.08 494.82,-190.53 497,-183.88"/>
</g>
<!-- Node9 -->
<g id="node9" class="node">
<title>Node9</title>
<g id="a_node9"><a xlink:href="MaCh3Exception_8h.html" target="_top" xlink:title=" ">
<polygon fill="#fff0f0" stroke="red" points="395.84,-184 242.84,-184 242.84,-165 395.84,-165 395.84,-184"/>
<text text-anchor="middle" x="319.34" y="-172" font-family="Helvetica,sans-Serif" font-size="10.00">Manager/MaCh3Exception.h</text>
</a>
</g>
</g>
<!-- Node5&#45;&gt;Node9 -->
<g id="edge8" class="edge">
<title>Node5&#45;&gt;Node9</title>
<path fill="none" stroke="#63b8ff" d="M572.82,-219.98C519.73,-210.67 434.65,-195.74 377.9,-185.78"/>
<polygon fill="#63b8ff" stroke="#63b8ff" points="378.45,-182.32 367.99,-184.04 377.24,-189.21 378.45,-182.32"/>
</g>
<!-- Node13 -->
<g id="node11" class="node">
<title>Node13</title>
<g id="a_node11"><a xlink:href="MaCh3Logger_8h.html" target="_top" xlink:title="KS: Based on this https://github.com/gabime/spdlog/blob/a2b4262090fd3f005c2315dcb5be2f0f1774a005/incl...">
<polygon fill="#fff0f0" stroke="red" points="686.84,-129 549.84,-129 549.84,-110 686.84,-110 686.84,-129"/>
<text text-anchor="middle" x="618.34" y="-117" font-family="Helvetica,sans-Serif" font-size="10.00">Manager/MaCh3Logger.h</text>
</a>
</g>
</g>
<!-- Node5&#45;&gt;Node13 -->
<g id="edge20" class="edge">
<title>Node5&#45;&gt;Node13</title>
<path fill="none" stroke="#63b8ff" d="M646.94,-219.93C673.94,-209.39 710.74,-189.79 696.34,-165 687.8,-150.29 672.37,-140.04 657.48,-133.11"/>
<polygon fill="#63b8ff" stroke="#63b8ff" points="658.42,-129.71 647.85,-129.03 655.69,-136.15 658.42,-129.71"/>
</g>
<!-- Node17 -->
<g id="node13" class="node">
<title>Node17</title>
<g id="a_node13"><a xlink:href="Core_8h.html" target="_top" xlink:title=" ">
<polygon fill="#fff0f0" stroke="red" points="964.34,-74 870.34,-74 870.34,-55 964.34,-55 964.34,-74"/>
<text text-anchor="middle" x="917.34" y="-62" font-family="Helvetica,sans-Serif" font-size="10.00">Manager/Core.h</text>
</a>
</g>
</g>
<!-- Node5&#45;&gt;Node17 -->
<g id="edge21" class="edge">
<title>Node5&#45;&gt;Node17</title>
<path fill="none" stroke="#63b8ff" d="M640.01,-219.84C658.54,-211.13 687.66,-197.15 712.34,-184 779.57,-148.19 856.88,-102.13 894.45,-79.43"/>
<polygon fill="#63b8ff" stroke="#63b8ff" points="896.38,-82.35 903.12,-74.18 892.75,-76.37 896.38,-82.35"/>
</g>
<!-- Node24 -->
<g id="node17" class="node">
<title>Node24</title>
<g id="a_node17"><a xlink:title=" ">
<polygon fill="#e0e0e0" stroke="#999999" points="587.34,-184 525.34,-184 525.34,-165 587.34,-165 587.34,-184"/>
<text text-anchor="middle" x="556.34" y="-172" font-family="Helvetica,sans-Serif" font-size="10.00">TSpline.h</text>
</a>
</g>
</g>
<!-- Node5&#45;&gt;Node24 -->
<g id="edge22" class="edge">
<title>Node5&#45;&gt;Node24</title>
<path fill="none" stroke="#63b8ff" d="M610.9,-219.98C601.2,-212.07 586.53,-200.11 574.84,-190.58"/>
<polygon fill="#63b8ff" stroke="#63b8ff" points="576.94,-187.78 566.97,-184.17 572.51,-193.2 576.94,-187.78"/>
</g>
<!-- Node25 -->
<g id="node18" class="node">
<title>Node25</title>
<g id="a_node18"><a xlink:title=" ">
<polygon fill="#e0e0e0" stroke="#999999" points="858.84,-184 781.84,-184 781.84,-165 858.84,-165 858.84,-184"/>
<text text-anchor="middle" x="820.34" y="-172" font-family="Helvetica,sans-Serif" font-size="10.00">TObjString.h</text>
</a>
</g>
</g>
<!-- Node5&#45;&gt;Node25 -->
<g id="edge23" class="edge">
<title>Node5&#45;&gt;Node25</title>
<path fill="none" stroke="#63b8ff" d="M653.31,-219.98C687.16,-210.97 740.74,-196.7 778.05,-186.76"/>
<polygon fill="#63b8ff" stroke="#63b8ff" points="779.36,-190.04 788.12,-184.08 777.55,-183.27 779.36,-190.04"/>
</g>
<!-- Node5&#45;&gt;Node26 -->
<g id="edge24" class="edge">
<title>Node5&#45;&gt;Node26</title>
<path fill="none" stroke="#63b8ff" d="M675.05,-220C722.98,-212.15 795.29,-199.65 866.49,-184.29"/>
<polygon fill="#63b8ff" stroke="#63b8ff" points="867.5,-187.65 876.52,-182.1 866.01,-180.81 867.5,-187.65"/>
</g>
<!-- Node10 -->
<g id="node10" class="node">
<title>Node10</title>
<g id="a_node10"><a xlink:title=" ">
<polygon fill="#e0e0e0" stroke="#999999" points="612.34,-19 552.34,-19 552.34,0 612.34,0 612.34,-19"/>
<text text-anchor="middle" x="582.34" y="-7" font-family="Helvetica,sans-Serif" font-size="10.00">iostream</text>
</a>
</g>
</g>
<!-- Node9&#45;&gt;Node10 -->
<g id="edge9" class="edge">
<title>Node9&#45;&gt;Node10</title>
<path fill="none" stroke="#63b8ff" d="M333.11,-164.97C375.88,-138.46 506.75,-57.35 559.73,-24.52"/>
<polygon fill="#63b8ff" stroke="#63b8ff" points="561.73,-27.39 568.39,-19.15 558.05,-21.44 561.73,-27.39"/>
</g>
<!-- Node9&#45;&gt;Node13 -->
<g id="edge10" class="edge">
<title>Node9&#45;&gt;Node13</title>
<path fill="none" stroke="#63b8ff" d="M367.38,-164.98C419.75,-155.7 503.58,-140.84 559.77,-130.88"/>
<polygon fill="#63b8ff" stroke="#63b8ff" points="560.69,-134.27 569.93,-129.08 559.47,-127.38 560.69,-134.27"/>
</g>
<!-- Node9&#45;&gt;Node17 -->
<g id="edge19" class="edge">
<title>Node9&#45;&gt;Node17</title>
<path fill="none" stroke="#63b8ff" d="M396.21,-165.61C497.78,-154.99 667.21,-136.56 695.34,-129 715.91,-123.47 719.16,-116.83 739.34,-110 780.81,-95.97 829.05,-84.18 864.85,-76.26"/>
<polygon fill="#63b8ff" stroke="#63b8ff" points="866.04,-79.59 875.07,-74.04 864.55,-72.75 866.04,-79.59"/>
</g>
<!-- Node13&#45;&gt;Node10 -->
<g id="edge11" class="edge">
<title>Node13&#45;&gt;Node10</title>
<path fill="none" stroke="#63b8ff" d="M615.4,-109.66C609.54,-92.09 596.32,-52.45 588.49,-28.95"/>
<polygon fill="#63b8ff" stroke="#63b8ff" points="591.71,-27.54 585.23,-19.16 585.07,-29.75 591.71,-27.54"/>
</g>
<!-- Node14 -->
<g id="node12" class="node">
<title>Node14</title>
<g id="a_node12"><a xlink:title=" ">
<polygon fill="#e0e0e0" stroke="#999999" points="961.34,-19 905.34,-19 905.34,0 961.34,0 961.34,-19"/>
<text text-anchor="middle" x="933.34" y="-7" font-family="Helvetica,sans-Serif" font-size="10.00">sstream</text>
</a>
</g>
</g>
<!-- Node13&#45;&gt;Node14 -->
<g id="edge12" class="edge">
<title>Node13&#45;&gt;Node14</title>
<path fill="none" stroke="#63b8ff" d="M643.32,-109.94C699.26,-90.76 834.7,-44.32 898.72,-22.37"/>
<polygon fill="#63b8ff" stroke="#63b8ff" points="900.03,-25.62 908.36,-19.07 897.76,-19 900.03,-25.62"/>
</g>
<!-- Node13&#45;&gt;Node17 -->
<g id="edge13" class="edge">
<title>Node13&#45;&gt;Node17</title>
<path fill="none" stroke="#63b8ff" d="M666.38,-109.98C719.06,-100.65 803.57,-85.67 859.77,-75.71"/>
<polygon fill="#63b8ff" stroke="#63b8ff" points="860.68,-79.1 869.92,-73.91 859.46,-72.21 860.68,-79.1"/>
</g>
<!-- Node17&#45;&gt;Node10 -->
<g id="edge15" class="edge">
<title>Node17&#45;&gt;Node10</title>
<path fill="none" stroke="#63b8ff" d="M870.05,-56.02C803.9,-45.55 684.88,-26.72 622.68,-16.88"/>
<polygon fill="#63b8ff" stroke="#63b8ff" points="622.91,-13.37 612.48,-15.27 621.81,-20.29 622.91,-13.37"/>
</g>
<!-- Node17&#45;&gt;Node14 -->
<g id="edge14" class="edge">
<title>Node17&#45;&gt;Node14</title>
<path fill="none" stroke="#63b8ff" d="M919.98,-54.75C922.1,-47.72 925.15,-37.62 927.8,-28.84"/>
<polygon fill="#63b8ff" stroke="#63b8ff" points="931.21,-29.67 930.75,-19.09 924.51,-27.65 931.21,-29.67"/>
</g>
<!-- Node19 -->
<g id="node14" class="node">
<title>Node19</title>
<g id="a_node14"><a xlink:title=" ">
<polygon fill="#e0e0e0" stroke="#999999" points="1091.84,-19 1044.84,-19 1044.84,0 1091.84,0 1091.84,-19"/>
<text text-anchor="middle" x="1068.34" y="-7" font-family="Helvetica,sans-Serif" font-size="10.00">vector</text>
</a>
</g>
</g>
<!-- Node17&#45;&gt;Node19 -->
<g id="edge16" class="edge">
<title>Node17&#45;&gt;Node19</title>
<path fill="none" stroke="#63b8ff" d="M941.6,-54.98C966.96,-46.09 1006.91,-32.06 1035.17,-22.14"/>
<polygon fill="#63b8ff" stroke="#63b8ff" points="1036.36,-25.43 1044.64,-18.82 1034.04,-18.83 1036.36,-25.43"/>
</g>
<!-- Node20 -->
<g id="node15" class="node">
<title>Node20</title>
<g id="a_node15"><a xlink:title=" ">
<polygon fill="#e0e0e0" stroke="#999999" points="1199.34,-19 1143.34,-19 1143.34,0 1199.34,0 1199.34,-19"/>
<text text-anchor="middle" x="1171.34" y="-7" font-family="Helvetica,sans-Serif" font-size="10.00">iomanip</text>
</a>
</g>
</g>
<!-- Node17&#45;&gt;Node20 -->
<g id="edge17" class="edge">
<title>Node17&#45;&gt;Node20</title>
<path fill="none" stroke="#63b8ff" d="M958.15,-54.98C1006.49,-44.9 1086.37,-28.23 1133.42,-18.41"/>
<polygon fill="#63b8ff" stroke="#63b8ff" points="1134.14,-21.84 1143.22,-16.37 1132.71,-14.99 1134.14,-21.84"/>
</g>
<!-- Node21 -->
<g id="node16" class="node">
<title>Node21</title>
<g id="a_node16"><a xlink:title=" ">
<polygon fill="#e0e0e0" stroke="#999999" points="886.84,-19 839.84,-19 839.84,0 886.84,0 886.84,-19"/>
<text text-anchor="middle" x="863.34" y="-7" font-family="Helvetica,sans-Serif" font-size="10.00">cmath</text>
</a>
</g>
</g>
<!-- Node17&#45;&gt;Node21 -->
<g id="edge18" class="edge">
<title>Node17&#45;&gt;Node21</title>
<path fill="none" stroke="#63b8ff" d="M908.42,-54.75C900.56,-47.03 888.91,-35.6 879.42,-26.28"/>
<polygon fill="#63b8ff" stroke="#63b8ff" points="881.68,-23.6 872.09,-19.09 876.78,-28.59 881.68,-23.6"/>
</g>
<!-- Node31&#45;&gt;Node5 -->
<g id="edge26" class="edge">
<title>Node31&#45;&gt;Node5</title>
<path fill="none" stroke="#63b8ff" d="M816.91,-274.98C776.69,-265.84 712.66,-251.27 668.91,-241.32"/>
<polygon fill="#63b8ff" stroke="#63b8ff" points="669.6,-237.89 659.07,-239.08 668.05,-244.71 669.6,-237.89"/>
</g>
<!-- Node31&#45;&gt;Node25 -->
<g id="edge27" class="edge">
<title>Node31&#45;&gt;Node25</title>
<path fill="none" stroke="#63b8ff" d="M837.76,-274.87C825.17,-267.3 808.8,-255.01 801.34,-239 794.37,-224.04 801.17,-205.91 808.51,-192.86"/>
<polygon fill="#63b8ff" stroke="#63b8ff" points="811.7,-194.35 814,-184 805.75,-190.66 811.7,-194.35"/>
</g>
<!-- Node31&#45;&gt;Node34 -->
<g id="edge28" class="edge">
<title>Node31&#45;&gt;Node34</title>
<path fill="none" stroke="#63b8ff" d="M853.52,-274.75C852.86,-267.8 851.92,-257.85 851.1,-249.13"/>
<polygon fill="#63b8ff" stroke="#63b8ff" points="854.58,-248.72 850.15,-239.09 847.61,-249.37 854.58,-248.72"/>
</g>
<!-- Node35&#45;&gt;Node5 -->
<g id="edge30" class="edge">
<title>Node35&#45;&gt;Node5</title>
<path fill="none" stroke="#63b8ff" d="M346.04,-274.98C403.94,-265.63 496.87,-250.61 558.51,-240.65"/>
<polygon fill="#63b8ff" stroke="#63b8ff" points="559.19,-244.09 568.5,-239.04 558.07,-237.18 559.19,-244.09"/>
</g>
<!-- Node35&#45;&gt;Node9 -->
<g id="edge31" class="edge">
<title>Node35&#45;&gt;Node9</title>
<path fill="none" stroke="#63b8ff" d="M295.47,-274.66C299.7,-257.09 309.24,-217.45 314.9,-193.95"/>
<polygon fill="#63b8ff" stroke="#63b8ff" points="318.32,-194.7 317.26,-184.16 311.51,-193.06 318.32,-194.7"/>
</g>
<!-- Node48&#45;&gt;Node9 -->
<g id="edge34" class="edge">
<title>Node48&#45;&gt;Node9</title>
<path fill="none" stroke="#63b8ff" d="M231.21,-219.98C247.95,-211.54 273.84,-198.47 293.23,-188.68"/>
<polygon fill="#63b8ff" stroke="#63b8ff" points="294.81,-191.8 302.16,-184.17 291.66,-185.55 294.81,-191.8"/>
</g>
<!-- Node48&#45;&gt;Node21 -->
<g id="edge33" class="edge">
<title>Node48&#45;&gt;Node21</title>
<path fill="none" stroke="#63b8ff" d="M214.36,-219.72C214.9,-206.01 218,-179.59 233.34,-165 321.68,-80.99 711.16,-28.58 829.27,-14.4"/>
<polygon fill="#63b8ff" stroke="#63b8ff" points="830,-17.84 839.52,-13.19 829.18,-10.89 830,-17.84"/>
</g>
<!-- Node55&#45;&gt;Node10 -->
<g id="edge44" class="edge">
<title>Node55&#45;&gt;Node10</title>
<path fill="none" stroke="#63b8ff" d="M1065.39,-329.97C1041.38,-323.55 1013.14,-312.55 993.34,-294 947.48,-251.01 980.01,-209.23 935.34,-165 844.95,-75.5 694.09,-33.72 622.45,-18.14"/>
<polygon fill="#63b8ff" stroke="#63b8ff" points="622.98,-14.68 612.48,-16.03 621.54,-21.53 622.98,-14.68"/>
</g>
<!-- Node55&#45;&gt;Node14 -->
<g id="edge45" class="edge">
<title>Node55&#45;&gt;Node14</title>
<path fill="none" stroke="#63b8ff" d="M1112.34,-329.82C1112.34,-311.48 1112.34,-267.44 1112.34,-230.5 1112.34,-230.5 1112.34,-230.5 1112.34,-118.5 1112.34,-53.34 1024.31,-26.46 971.71,-16.21"/>
<polygon fill="#63b8ff" stroke="#63b8ff" points="972.17,-12.74 961.7,-14.38 970.91,-19.62 972.17,-12.74"/>
</g>
<!-- Node55&#45;&gt;Node19 -->
<g id="edge47" class="edge">
<title>Node55&#45;&gt;Node19</title>
<path fill="none" stroke="#63b8ff" d="M1117.63,-329.9C1128.07,-312.07 1150.34,-269.46 1150.34,-230.5 1150.34,-230.5 1150.34,-230.5 1150.34,-118.5 1150.34,-88.33 1144.33,-79.22 1126.34,-55 1117.32,-42.86 1104.14,-32.38 1092.61,-24.65"/>
<polygon fill="#63b8ff" stroke="#63b8ff" points="1094.16,-21.48 1083.84,-19.05 1090.39,-27.38 1094.16,-21.48"/>
</g>
<!-- Node55&#45;&gt;Node20 -->
<g id="edge46" class="edge">
<title>Node55&#45;&gt;Node20</title>
<path fill="none" stroke="#63b8ff" d="M1124.22,-329.88C1145.59,-313.26 1188.34,-274.52 1188.34,-230.5 1188.34,-230.5 1188.34,-230.5 1188.34,-118.5 1188.34,-86.8 1181.11,-50.51 1176.08,-29.09"/>
<polygon fill="#63b8ff" stroke="#63b8ff" points="1179.41,-27.99 1173.63,-19.11 1172.61,-29.65 1179.41,-27.99"/>
</g>
<!-- Node55&#45;&gt;Node21 -->
<g id="edge49" class="edge">
<title>Node55&#45;&gt;Node21</title>
<path fill="none" stroke="#63b8ff" d="M1073.52,-329.89C1052.43,-323.34 1027.45,-312.24 1011.34,-294 991.84,-271.92 992.34,-259.96 992.34,-230.5 992.34,-230.5 992.34,-230.5 992.34,-118.5 992.34,-89.04 993.17,-76.78 973.34,-55 962.67,-43.28 925.09,-29.57 896.81,-20.5"/>
<polygon fill="#63b8ff" stroke="#63b8ff" points="897.84,-17.16 887.25,-17.5 895.74,-23.84 897.84,-17.16"/>
</g>
<!-- Node55&#45;&gt;Node31 -->
<g id="edge51" class="edge">
<title>Node55&#45;&gt;Node31</title>
<path fill="none" stroke="#63b8ff" d="M1070.89,-329.98C1026.07,-320.78 954.57,-306.09 906.09,-296.13"/>
<polygon fill="#63b8ff" stroke="#63b8ff" points="906.62,-292.67 896.12,-294.08 905.21,-299.52 906.62,-292.67"/>
</g>
<!-- Node55&#45;&gt;Node35 -->
<g id="edge50" class="edge">
<title>Node55&#45;&gt;Node35</title>
<path fill="none" stroke="#63b8ff" d="M1046.7,-334.25C893.64,-324.35 514.39,-299.8 360.17,-289.82"/>
<polygon fill="#63b8ff" stroke="#63b8ff" points="360.1,-286.31 349.9,-289.16 359.65,-293.3 360.1,-286.31"/>
</g>
<!-- Node55&#45;&gt;Node53 -->
<g id="edge54" class="edge">
<title>Node55&#45;&gt;Node53</title>
<path fill="none" stroke="#63b8ff" d="M1046.79,-331.55C980.53,-324.15 875,-311.34 774.16,-294"/>
<polygon fill="#63b8ff" stroke="#63b8ff" points="774.55,-290.52 764.1,-292.26 773.35,-297.42 774.55,-290.52"/>
</g>
<!-- Node56 -->
<g id="node31" class="node">
<title>Node56</title>
<g id="a_node31"><a xlink:title=" ">
<polygon fill="#e0e0e0" stroke="#999999" points="1084.34,-294 1020.34,-294 1020.34,-275 1084.34,-275 1084.34,-294"/>
<text text-anchor="middle" x="1052.34" y="-282" font-family="Helvetica,sans-Serif" font-size="10.00">algorithm</text>
</a>
</g>
</g>
<!-- Node55&#45;&gt;Node56 -->
<g id="edge48" class="edge">
<title>Node55&#45;&gt;Node56</title>
<path fill="none" stroke="#63b8ff" d="M1102.7,-329.98C1093.83,-322.15 1080.47,-310.34 1069.73,-300.86"/>
<polygon fill="#63b8ff" stroke="#63b8ff" points="1071.97,-298.17 1062.16,-294.17 1067.33,-303.41 1071.97,-298.17"/>
</g>
<!-- Node57 -->
<g id="node32" class="node">
<title>Node57</title>
<g id="a_node32"><a xlink:title=" ">
<polygon fill="#e0e0e0" stroke="#999999" points="1283.84,-294 1216.84,-294 1216.84,-275 1283.84,-275 1283.84,-294"/>
<text text-anchor="middle" x="1250.34" y="-282" font-family="Helvetica,sans-Serif" font-size="10.00">TCanvas.h</text>
</a>
</g>
</g>
<!-- Node55&#45;&gt;Node57 -->
<g id="edge52" class="edge">
<title>Node55&#45;&gt;Node57</title>
<path fill="none" stroke="#63b8ff" d="M1134.51,-329.98C1157.11,-321.3 1192.4,-307.75 1218.09,-297.88"/>
<polygon fill="#63b8ff" stroke="#63b8ff" points="1219.69,-301.02 1227.77,-294.17 1217.18,-294.49 1219.69,-301.02"/>
</g>
<!-- Node58 -->
<g id="node33" class="node">
<title>Node58</title>
<g id="a_node33"><a xlink:title=" ">
<polygon fill="#e0e0e0" stroke="#999999" points="2041.34,-294 1989.34,-294 1989.34,-275 2041.34,-275 2041.34,-294"/>
<text text-anchor="middle" x="2015.34" y="-282" font-family="Helvetica,sans-Serif" font-size="10.00">TLine.h</text>
</a>
</g>
</g>
<!-- Node55&#45;&gt;Node58 -->
<g id="edge53" class="edge">
<title>Node55&#45;&gt;Node58</title>
<path fill="none" stroke="#63b8ff" d="M1178.01,-334.65C1355.63,-324.22 1841.39,-295.71 1978.73,-287.65"/>
<polygon fill="#63b8ff" stroke="#63b8ff" points="1979.33,-291.12 1989.11,-287.04 1978.92,-284.13 1979.33,-291.12"/>
</g>
<!-- Node59 -->
<g id="node34" class="node">
<title>Node59</title>
<g id="a_node34"><a xlink:title=" ">
<polygon fill="#e0e0e0" stroke="#999999" points="2420.34,-294 2364.34,-294 2364.34,-275 2420.34,-275 2420.34,-294"/>
<text text-anchor="middle" x="2392.34" y="-282" font-family="Helvetica,sans-Serif" font-size="10.00">TStyle.h</text>
</a>
</g>
</g>
<!-- Node55&#45;&gt;Node59 -->
<g id="edge55" class="edge">
<title>Node55&#45;&gt;Node59</title>
<path fill="none" stroke="#63b8ff" d="M1178.02,-335.78C1408.23,-326.25 2174.33,-294.53 2354.27,-287.08"/>
<polygon fill="#63b8ff" stroke="#63b8ff" points="2354.47,-290.57 2364.32,-286.66 2354.18,-283.58 2354.47,-290.57"/>
</g>
<!-- Node60&#45;&gt;Node26 -->
<g id="edge61" class="edge">
<title>Node60&#45;&gt;Node26</title>
<path fill="none" stroke="#63b8ff" d="M1522.71,-390.79C1453.1,-386.57 1351.8,-375.87 1324.34,-349 1300.42,-325.59 1333.39,-299.27 1310.34,-275 1258.48,-220.39 1024.98,-189.21 935.96,-179.14"/>
<polygon fill="#63b8ff" stroke="#63b8ff" points="936.17,-175.64 925.85,-178.02 935.4,-182.6 936.17,-175.64"/>
</g>
<!-- Node60&#45;&gt;Node31 -->
<g id="edge60" class="edge">
<title>Node60&#45;&gt;Node31</title>
<path fill="none" stroke="#63b8ff" d="M1522.44,-393.5C1417.04,-392.25 1209.92,-384.91 1038.34,-349 981.8,-337.17 918.74,-312.83 883.06,-297.96"/>
<polygon fill="#63b8ff" stroke="#63b8ff" points="884.33,-294.69 873.76,-294.03 881.61,-301.14 884.33,-294.69"/>
</g>
<!-- Node60&#45;&gt;Node34 -->
<g id="edge77" class="edge">
<title>Node60&#45;&gt;Node34</title>
<path fill="none" stroke="#63b8ff" d="M1522.54,-393.32C1443.15,-391.49 1319.72,-383.04 1290.34,-349 1268.84,-324.08 1315.52,-299.32 1293.34,-275 1263.94,-242.77 945.63,-244.46 902.34,-239 901.07,-238.84 899.78,-238.67 898.48,-238.5"/>
<polygon fill="#63b8ff" stroke="#63b8ff" points="898.77,-235 888.37,-237.06 897.78,-241.93 898.77,-235"/>
</g>
<!-- Node60&#45;&gt;Node44 -->
<g id="edge74" class="edge">
<title>Node60&#45;&gt;Node44</title>
<path fill="none" stroke="#63b8ff" d="M1522.71,-392.15C1344.93,-388.31 872.53,-375.83 718.34,-349 653.48,-337.71 580.47,-312.72 539.88,-297.67"/>
<polygon fill="#63b8ff" stroke="#63b8ff" points="540.88,-294.31 530.29,-294.08 538.42,-300.86 540.88,-294.31"/>
</g>
<!-- Node60&#45;&gt;Node52 -->
<g id="edge80" class="edge">
<title>Node60&#45;&gt;Node52</title>
<path fill="none" stroke="#63b8ff" d="M1522.55,-391.57C1357.16,-386.6 940.74,-372.15 803.34,-349 734.44,-337.39 656.45,-312.33 613.37,-297.4"/>
<polygon fill="#63b8ff" stroke="#63b8ff" points="614.3,-294.01 603.71,-294.01 611.99,-300.62 614.3,-294.01"/>
</g>
<!-- Node60&#45;&gt;Node53 -->
<g id="edge75" class="edge">
<title>Node60&#45;&gt;Node53</title>
<path fill="none" stroke="#63b8ff" d="M1522.38,-392.99C1406.64,-391.16 1166.32,-383.15 966.34,-349 947.33,-345.75 834.97,-314.13 773.87,-296.77"/>
<polygon fill="#63b8ff" stroke="#63b8ff" points="774.74,-293.38 764.16,-294.01 772.82,-300.12 774.74,-293.38"/>
</g>
<!-- Node60&#45;&gt;Node54 -->
<g id="edge66" class="edge">
<title>Node60&#45;&gt;Node54</title>
<path fill="none" stroke="#63b8ff" d="M1522.57,-393.58C1396.95,-392.74 1122.3,-386.31 894.34,-349 820.97,-336.99 737.49,-312.01 691.47,-297.21"/>
<polygon fill="#63b8ff" stroke="#63b8ff" points="692.28,-293.79 681.69,-294.04 690.12,-300.45 692.28,-293.79"/>
</g>
<!-- Node60&#45;&gt;Node55 -->
<g id="edge59" class="edge">
<title>Node60&#45;&gt;Node55</title>
<path fill="none" stroke="#63b8ff" d="M1522.71,-385.91C1434.07,-376.1 1280.27,-359.08 1188.23,-348.9"/>
<polygon fill="#63b8ff" stroke="#63b8ff" points="1188.47,-345.4 1178.15,-347.78 1187.7,-352.36 1188.47,-345.4"/>
</g>
<!-- Node60&#45;&gt;Node57 -->
<g id="edge63" class="edge">
<title>Node60&#45;&gt;Node57</title>
<path fill="none" stroke="#63b8ff" d="M1522.62,-389.19C1428.81,-382.6 1270.17,-368.69 1252.34,-349 1241.59,-337.13 1242.39,-318.3 1245.1,-304.22"/>
<polygon fill="#63b8ff" stroke="#63b8ff" points="1248.58,-304.71 1247.49,-294.17 1241.77,-303.09 1248.58,-304.71"/>
</g>
<!-- Node60&#45;&gt;Node58 -->
<g id="edge64" class="edge">
<title>Node60&#45;&gt;Node58</title>
<path fill="none" stroke="#63b8ff" d="M1660.1,-393.17C1888.2,-391.74 2607.37,-384.44 2641.34,-349 2647.18,-342.9 2647.1,-336.18 2641.34,-330 2621.14,-308.31 2182.87,-291.34 2051.95,-286.74"/>
<polygon fill="#63b8ff" stroke="#63b8ff" points="2051.77,-283.23 2041.65,-286.38 2051.53,-290.23 2051.77,-283.23"/>
</g>
<!-- Node60&#45;&gt;Node59 -->
<g id="edge70" class="edge">
<title>Node60&#45;&gt;Node59</title>
<path fill="none" stroke="#63b8ff" d="M1659.95,-393.22C1890.17,-391.94 2622.78,-385.03 2657.34,-349 2663.19,-342.91 2662.8,-336.45 2657.34,-330 2628.74,-296.19 2496.83,-288.06 2430.56,-286.11"/>
<polygon fill="#63b8ff" stroke="#63b8ff" points="2430.6,-282.61 2420.51,-285.84 2430.42,-289.6 2430.6,-282.61"/>
</g>
<!-- Node61 -->
<g id="node36" class="node">
<title>Node61</title>
<g id="a_node36"><a xlink:title=" ">
<polygon fill="#e0e0e0" stroke="#999999" points="1391.84,-349 1332.84,-349 1332.84,-330 1391.84,-330 1391.84,-349"/>
<text text-anchor="middle" x="1362.34" y="-337" font-family="Helvetica,sans-Serif" font-size="10.00">complex</text>
</a>
</g>
</g>
<!-- Node60&#45;&gt;Node61 -->
<g id="edge57" class="edge">
<title>Node60&#45;&gt;Node61</title>
<path fill="none" stroke="#63b8ff" d="M1554.55,-384.98C1512.76,-375.31 1444.83,-359.59 1401.92,-349.66"/>
<polygon fill="#63b8ff" stroke="#63b8ff" points="1402.64,-346.24 1392.11,-347.39 1401.07,-353.05 1402.64,-346.24"/>
</g>
<!-- Node62 -->
<g id="node37" class="node">
<title>Node62</title>
<g id="a_node37"><a xlink:title=" ">
<polygon fill="#e0e0e0" stroke="#999999" points="1456.34,-349 1410.34,-349 1410.34,-330 1456.34,-330 1456.34,-349"/>
<text text-anchor="middle" x="1433.34" y="-337" font-family="Helvetica,sans-Serif" font-size="10.00">cstdio</text>
</a>
</g>
</g>
<!-- Node60&#45;&gt;Node62 -->
<g id="edge58" class="edge">
<title>Node60&#45;&gt;Node62</title>
<path fill="none" stroke="#63b8ff" d="M1565.96,-384.98C1538.76,-375.86 1495.52,-361.36 1465.85,-351.4"/>
<polygon fill="#63b8ff" stroke="#63b8ff" points="1466.95,-348.08 1456.35,-348.22 1464.72,-354.72 1466.95,-348.08"/>
</g>
<!-- Node45 -->
<g id="node38" class="node">
<title>Node45</title>
<g id="a_node38"><a xlink:title=" ">
<polygon fill="#e0e0e0" stroke="#999999" points="1539.84,-349 1474.84,-349 1474.84,-330 1539.84,-330 1539.84,-349"/>
<text text-anchor="middle" x="1507.34" y="-337" font-family="Helvetica,sans-Serif" font-size="10.00">TBranch.h</text>
</a>
</g>
</g>
<!-- Node60&#45;&gt;Node45 -->
<g id="edge62" class="edge">
<title>Node60&#45;&gt;Node45</title>
<path fill="none" stroke="#63b8ff" d="M1577.85,-384.98C1564.94,-376.84 1545.24,-364.41 1529.94,-354.76"/>
<polygon fill="#63b8ff" stroke="#63b8ff" points="1531.41,-351.55 1521.08,-349.17 1527.67,-357.47 1531.41,-351.55"/>
</g>
<!-- Node63 -->
<g id="node39" class="node">
<title>Node63</title>
<g id="a_node39"><a xlink:title=" ">
<polygon fill="#e0e0e0" stroke="#999999" points="1624.84,-349 1557.84,-349 1557.84,-330 1624.84,-330 1624.84,-349"/>
<text text-anchor="middle" x="1591.34" y="-337" font-family="Helvetica,sans-Serif" font-size="10.00">TLegend.h</text>
</a>
</g>
</g>
<!-- Node60&#45;&gt;Node63 -->
<g id="edge65" class="edge">
<title>Node60&#45;&gt;Node63</title>
<path fill="none" stroke="#63b8ff" d="M1591.34,-384.75C1591.34,-377.8 1591.34,-367.85 1591.34,-359.13"/>
<polygon fill="#63b8ff" stroke="#63b8ff" points="1594.84,-359.09 1591.34,-349.09 1587.84,-359.09 1594.84,-359.09"/>
</g>
<!-- Node64 -->
<g id="node40" class="node">
<title>Node64</title>
<g id="a_node40"><a xlink:title=" ">
<polygon fill="#e0e0e0" stroke="#999999" points="1731.84,-349 1642.84,-349 1642.84,-330 1731.84,-330 1731.84,-349"/>
<text text-anchor="middle" x="1687.34" y="-337" font-family="Helvetica,sans-Serif" font-size="10.00">TGraphErrors.h</text>
</a>
</g>
</g>
<!-- Node60&#45;&gt;Node64 -->
<g id="edge67" class="edge">
<title>Node60&#45;&gt;Node64</title>
<path fill="none" stroke="#63b8ff" d="M1606.77,-384.98C1621.79,-376.69 1644.88,-363.94 1662.5,-354.22"/>
<polygon fill="#63b8ff" stroke="#63b8ff" points="1664.57,-357.07 1671.64,-349.17 1661.19,-350.94 1664.57,-357.07"/>
</g>
<!-- Node65 -->
<g id="node41" class="node">
<title>Node65</title>
<g id="a_node41"><a xlink:title=" ">
<polygon fill="#e0e0e0" stroke="#999999" points="1820.34,-349 1750.34,-349 1750.34,-330 1820.34,-330 1820.34,-349"/>
<text text-anchor="middle" x="1785.34" y="-337" font-family="Helvetica,sans-Serif" font-size="10.00">TVectorD.h</text>
</a>
</g>
</g>
<!-- Node60&#45;&gt;Node65 -->
<g id="edge68" class="edge">
<title>Node60&#45;&gt;Node65</title>
<path fill="none" stroke="#63b8ff" d="M1622.51,-384.98C1655.5,-375.97 1707.74,-361.7 1744.12,-351.76"/>
<polygon fill="#63b8ff" stroke="#63b8ff" points="1745.2,-355.09 1753.93,-349.08 1743.36,-348.34 1745.2,-355.09"/>
</g>
<!-- Node66 -->
<g id="node42" class="node">
<title>Node66</title>
<g id="a_node42"><a xlink:title=" ">
<polygon fill="#e0e0e0" stroke="#999999" points="1894.34,-349 1838.34,-349 1838.34,-330 1894.34,-330 1894.34,-349"/>
<text text-anchor="middle" x="1866.34" y="-337" font-family="Helvetica,sans-Serif" font-size="10.00">TColor.h</text>
</a>
</g>
</g>
<!-- Node60&#45;&gt;Node66 -->
<g id="edge69" class="edge">
<title>Node60&#45;&gt;Node66</title>
<path fill="none" stroke="#63b8ff" d="M1640.23,-384.96C1686.26,-376.79 1757.37,-363.82 1828.11,-349.19"/>
<polygon fill="#63b8ff" stroke="#63b8ff" points="1829.01,-352.58 1838.09,-347.12 1827.58,-345.73 1829.01,-352.58"/>
</g>
<!-- Node47 -->
<g id="node43" class="node">
<title>Node47</title>
<g id="a_node43"><a xlink:title=" ">
<polygon fill="#e0e0e0" stroke="#999999" points="1995.84,-349 1912.84,-349 1912.84,-330 1995.84,-330 1995.84,-349"/>
<text text-anchor="middle" x="1954.34" y="-337" font-family="Helvetica,sans-Serif" font-size="10.00">TStopwatch.h</text>
</a>
</g>
</g>
<!-- Node60&#45;&gt;Node47 -->
<g id="edge71" class="edge">
<title>Node60&#45;&gt;Node47</title>
<path fill="none" stroke="#63b8ff" d="M1654.15,-384.98C1714.99,-376.63 1810.12,-363.31 1902.52,-349.1"/>
<polygon fill="#63b8ff" stroke="#63b8ff" points="1903.26,-352.52 1912.61,-347.54 1902.19,-345.6 1903.26,-352.52"/>
</g>
<!-- Node67 -->
<g id="node44" class="node">
<title>Node67</title>
<g id="a_node44"><a xlink:title=" ">
<polygon fill="#e0e0e0" stroke="#999999" points="2066.34,-349 2014.34,-349 2014.34,-330 2066.34,-330 2066.34,-349"/>
<text text-anchor="middle" x="2040.34" y="-337" font-family="Helvetica,sans-Serif" font-size="10.00">TText.h</text>
</a>
</g>
</g>
<!-- Node60&#45;&gt;Node67 -->
<g id="edge72" class="edge">
<title>Node60&#45;&gt;Node67</title>
<path fill="none" stroke="#63b8ff" d="M1659.86,-388.9C1740.18,-382.89 1877.44,-370.69 2004.16,-348.99"/>
<polygon fill="#63b8ff" stroke="#63b8ff" points="2004.79,-352.44 2014.05,-347.28 2003.59,-345.54 2004.79,-352.44"/>
</g>
<!-- Node68 -->
<g id="node45" class="node">
<title>Node68</title>
<g id="a_node45"><a xlink:title=" ">
<polygon fill="#e0e0e0" stroke="#999999" points="2143.84,-349 2084.84,-349 2084.84,-330 2143.84,-330 2143.84,-349"/>
<text text-anchor="middle" x="2114.34" y="-337" font-family="Helvetica,sans-Serif" font-size="10.00">TGaxis.h</text>
</a>
</g>
</g>
<!-- Node60&#45;&gt;Node68 -->
<g id="edge73" class="edge">
<title>Node60&#45;&gt;Node68</title>
<path fill="none" stroke="#63b8ff" d="M1660.2,-389.84C1752.33,-384.35 1920.92,-372.22 2074.51,-348.93"/>
<polygon fill="#63b8ff" stroke="#63b8ff" points="2075.25,-352.35 2084.6,-347.38 2074.19,-345.44 2075.25,-352.35"/>
</g>
<!-- Node69 -->
<g id="node46" class="node">
<title>Node69</title>
<g id="a_node46"><a xlink:title=" ">
<polygon fill="#e0e0e0" stroke="#999999" points="2210.34,-349 2162.34,-349 2162.34,-330 2210.34,-330 2210.34,-349"/>
<text text-anchor="middle" x="2186.34" y="-337" font-family="Helvetica,sans-Serif" font-size="10.00">TKey.h</text>
</a>
</g>
</g>
<!-- Node60&#45;&gt;Node69 -->
<g id="edge76" class="edge">
<title>Node60&#45;&gt;Node69</title>
<path fill="none" stroke="#63b8ff" d="M1660.15,-391.88C1764.64,-388.58 1969.59,-378.8 2152.24,-348.88"/>
<polygon fill="#63b8ff" stroke="#63b8ff" points="2153,-352.3 2162.29,-347.21 2151.86,-345.39 2153,-352.3"/>
</g>
<!-- Node70 -->
<g id="node47" class="node">
<title>Node70</title>
<g id="a_node47"><a xlink:title=" ">
<polygon fill="#e0e0e0" stroke="#999999" points="2313.84,-349 2228.84,-349 2228.84,-330 2313.84,-330 2313.84,-349"/>
<text text-anchor="middle" x="2271.34" y="-337" font-family="Helvetica,sans-Serif" font-size="10.00">TGraphPolar.h</text>
</a>
</g>
</g>
<!-- Node60&#45;&gt;Node70 -->
<g id="edge78" class="edge">
<title>Node60&#45;&gt;Node70</title>
<path fill="none" stroke="#63b8ff" d="M1660.3,-390.68C1774.3,-385.55 2009.38,-373.07 2218.86,-348.93"/>
<polygon fill="#63b8ff" stroke="#63b8ff" points="2219.29,-352.41 2228.82,-347.78 2218.48,-345.45 2219.29,-352.41"/>
</g>
<!-- Node71 -->
<g id="node48" class="node">
<title>Node71</title>
<g id="a_node48"><a xlink:title=" ">
<polygon fill="#e0e0e0" stroke="#999999" points="2396.84,-349 2331.84,-349 2331.84,-330 2396.84,-330 2396.84,-349"/>
<text text-anchor="middle" x="2364.34" y="-337" font-family="Helvetica,sans-Serif" font-size="10.00">TCandle.h</text>
</a>
</g>
</g>
<!-- Node60&#45;&gt;Node71 -->
<g id="edge79" class="edge">
<title>Node60&#45;&gt;Node71</title>
<path fill="none" stroke="#63b8ff" d="M1660.03,-392.61C1788.35,-390.23 2073.24,-381.57 2321.8,-349.02"/>
<polygon fill="#63b8ff" stroke="#63b8ff" points="2322.29,-352.48 2331.74,-347.7 2321.37,-345.54 2322.29,-352.48"/>
</g>
<!-- Node72 -->
<g id="node49" class="node">
<title>Node72</title>
<g id="a_node49"><a xlink:title=" ">
<polygon fill="#e0e0e0" stroke="#999999" points="2533.84,-349 2414.84,-349 2414.84,-330 2533.84,-330 2533.84,-349"/>
<text text-anchor="middle" x="2474.34" y="-337" font-family="Helvetica,sans-Serif" font-size="10.00">TMatrixDSymEigen.h</text>
</a>
</g>
</g>
<!-- Node60&#45;&gt;Node72 -->
<g id="edge81" class="edge">
<title>Node60&#45;&gt;Node72</title>
<path fill="none" stroke="#63b8ff" d="M1659.88,-391.37C1798.55,-386.72 2122.53,-374.06 2404.65,-349.09"/>
<polygon fill="#63b8ff" stroke="#63b8ff" points="2405.01,-352.57 2414.66,-348.2 2404.39,-345.6 2405.01,-352.57"/>
</g>
<!-- Node73 -->
<g id="node50" class="node">
<title>Node73</title>
<g id="a_node50"><a xlink:title=" ">
<polygon fill="#e0e0e0" stroke="#999999" points="2632.34,-349 2552.34,-349 2552.34,-330 2632.34,-330 2632.34,-349"/>
<text text-anchor="middle" x="2592.34" y="-337" font-family="Helvetica,sans-Serif" font-size="10.00">TVirtualFFT.h</text>
</a>
</g>
</g>
<!-- Node60&#45;&gt;Node73 -->
<g id="edge82" class="edge">
<title>Node60&#45;&gt;Node73</title>
<path fill="none" stroke="#63b8ff" d="M1659.97,-393.23C1815.28,-391.98 2205.67,-385.28 2541.86,-349.01"/>
<polygon fill="#63b8ff" stroke="#63b8ff" points="2542.73,-352.43 2552.29,-347.87 2541.97,-345.47 2542.73,-352.43"/>
</g>
</g>
</svg>
