<?xml version="1.0" encoding="UTF-8" standalone="no"?>
<!DOCTYPE svg PUBLIC "-//W3C//DTD SVG 1.1//EN"
 "http://www.w3.org/Graphics/SVG/1.1/DTD/svg11.dtd">
<!-- Generated by graphviz version 2.43.0 (0)
 -->
<!-- Title: Splines/SplineCommon.h Pages: 1 -->
<svg width="895pt" height="247pt"
 viewBox="0.00 0.00 895.00 247.00" xmlns="http://www.w3.org/2000/svg" xmlns:xlink="http://www.w3.org/1999/xlink">
<g id="graph0" class="graph" transform="scale(1 1) rotate(0) translate(4 243)">
<title>Splines/SplineCommon.h</title>
<!-- Node1 -->
<g id="node1" class="node">
<title>Node1</title>
<g id="a_node1"><a xlink:title="Contains definitions for spline coefficients and structure used in both CPU and GPU code.">
<polygon fill="#999999" stroke="#666666" points="766,-239 628,-239 628,-220 766,-220 766,-239"/>
<text text-anchor="middle" x="697" y="-227" font-family="Helvetica,sans-Serif" font-size="10.00">Splines/SplineCommon.h</text>
</a>
</g>
</g>
<!-- Node2 -->
<g id="node2" class="node">
<title>Node2</title>
<g id="a_node2"><a xlink:href="SplineBase_8h.html" target="_top" xlink:title=" ">
<polygon fill="white" stroke="#666666" points="681,-184 563,-184 563,-165 681,-165 681,-184"/>
<text text-anchor="middle" x="622" y="-172" font-family="Helvetica,sans-Serif" font-size="10.00">Splines/SplineBase.h</text>
</a>
</g>
</g>
<!-- Node1&#45;&gt;Node2 -->
<g id="edge1" class="edge">
<title>Node1&#45;&gt;Node2</title>
<path fill="none" stroke="#63b8ff" d="M676.69,-214.15C663.14,-204.57 645.76,-192.29 634.27,-184.17"/>
<polygon fill="#63b8ff" stroke="#63b8ff" points="674.76,-217.07 684.95,-219.98 678.8,-211.36 674.76,-217.07"/>
</g>
<!-- Node12 -->
<g id="node12" class="node">
<title>Node12</title>
<g id="a_node12"><a xlink:href="gpuSplineUtils_8cuh.html" target="_top" xlink:title="MaCh3 event&#45;by&#45;event cross&#45;section spline code.">
<polygon fill="white" stroke="#666666" points="867,-184 721,-184 721,-165 867,-165 867,-184"/>
<text text-anchor="middle" x="794" y="-172" font-family="Helvetica,sans-Serif" font-size="10.00">Splines/gpuSplineUtils.cuh</text>
</a>
</g>
</g>
<!-- Node1&#45;&gt;Node12 -->
<g id="edge12" class="edge">
<title>Node1&#45;&gt;Node12</title>
<path fill="none" stroke="#63b8ff" d="M721.77,-214.97C739.5,-205.28 762.85,-192.52 778.13,-184.17"/>
<polygon fill="#63b8ff" stroke="#63b8ff" points="719.68,-212.12 712.58,-219.98 723.04,-218.26 719.68,-212.12"/>
</g>
<!-- Node3 -->
<g id="node3" class="node">
<title>Node3</title>
<g id="a_node3"><a xlink:href="BinnedSplineHandler_8h.html" target="_top" xlink:title=" ">
<polygon fill="white" stroke="#666666" points="388.5,-129 223.5,-129 223.5,-110 388.5,-110 388.5,-129"/>
<text text-anchor="middle" x="306" y="-117" font-family="Helvetica,sans-Serif" font-size="10.00">Splines/BinnedSplineHandler.h</text>
</a>
</g>
</g>
<!-- Node2&#45;&gt;Node3 -->
<g id="edge2" class="edge">
<title>Node2&#45;&gt;Node3</title>
<path fill="none" stroke="#63b8ff" d="M561.24,-163.31C501.9,-153.36 412.62,-138.38 356.91,-129.04"/>
<polygon fill="#63b8ff" stroke="#63b8ff" points="560.79,-166.78 571.23,-164.98 561.95,-159.88 560.79,-166.78"/>
</g>
<!-- Node8 -->
<g id="node8" class="node">
<title>Node8</title>
<g id="a_node8"><a xlink:href="SplineBase_8cpp.html" target="_top" xlink:title=" ">
<polygon fill="white" stroke="#666666" points="535.5,-129 406.5,-129 406.5,-110 535.5,-110 535.5,-129"/>
<text text-anchor="middle" x="471" y="-117" font-family="Helvetica,sans-Serif" font-size="10.00">Splines/SplineBase.cpp</text>
</a>
</g>
</g>
<!-- Node2&#45;&gt;Node8 -->
<g id="edge7" class="edge">
<title>Node2&#45;&gt;Node8</title>
<path fill="none" stroke="#63b8ff" d="M587.95,-161.55C559.91,-151.71 520.82,-137.98 495.7,-129.17"/>
<polygon fill="#63b8ff" stroke="#63b8ff" points="587.14,-164.98 597.74,-164.98 589.46,-158.37 587.14,-164.98"/>
</g>
<!-- Node9 -->
<g id="node9" class="node">
<title>Node9</title>
<g id="a_node9"><a xlink:href="SplineMonolith_8h.html" target="_top" xlink:title=" ">
<polygon fill="white" stroke="#666666" points="690.5,-129 553.5,-129 553.5,-110 690.5,-110 690.5,-129"/>
<text text-anchor="middle" x="622" y="-117" font-family="Helvetica,sans-Serif" font-size="10.00">Splines/SplineMonolith.h</text>
</a>
</g>
</g>
<!-- Node2&#45;&gt;Node9 -->
<g id="edge8" class="edge">
<title>Node2&#45;&gt;Node9</title>
<path fill="none" stroke="#63b8ff" d="M622,-154.66C622,-145.93 622,-135.99 622,-129.09"/>
<polygon fill="#63b8ff" stroke="#63b8ff" points="618.5,-154.75 622,-164.75 625.5,-154.75 618.5,-154.75"/>
</g>
<!-- Node11 -->
<g id="node11" class="node">
<title>Node11</title>
<g id="a_node11"><a xlink:href="splines_8cpp.html" target="_top" xlink:title=" ">
<polygon fill="white" stroke="#666666" points="773,-74 665,-74 665,-55 773,-55 773,-74"/>
<text text-anchor="middle" x="719" y="-62" font-family="Helvetica,sans-Serif" font-size="10.00">python/splines.cpp</text>
</a>
</g>
</g>
<!-- Node2&#45;&gt;Node11 -->
<g id="edge11" class="edge">
<title>Node2&#45;&gt;Node11</title>
<path fill="none" stroke="#63b8ff" d="M655.55,-160.81C670.71,-153.56 687.72,-143.06 699,-129 712.16,-112.59 716.72,-87.42 718.25,-74.24"/>
<polygon fill="#63b8ff" stroke="#63b8ff" points="654.1,-157.62 646.41,-164.91 656.97,-164.01 654.1,-157.62"/>
</g>
<!-- Node4 -->
<g id="node4" class="node">
<title>Node4</title>
<g id="a_node4"><a xlink:href="SampleHandlerFD_8h.html" target="_top" xlink:title=" ">
<polygon fill="white" stroke="#666666" points="244.5,-74 85.5,-74 85.5,-55 244.5,-55 244.5,-74"/>
<text text-anchor="middle" x="165" y="-62" font-family="Helvetica,sans-Serif" font-size="10.00">Samples/SampleHandlerFD.h</text>
</a>
</g>
</g>
<!-- Node3&#45;&gt;Node4 -->
<g id="edge3" class="edge">
<title>Node3&#45;&gt;Node4</title>
<path fill="none" stroke="#63b8ff" d="M273.86,-106.42C247.71,-96.59 211.41,-82.95 188.07,-74.17"/>
<polygon fill="#63b8ff" stroke="#63b8ff" points="272.75,-109.74 283.35,-109.98 275.22,-103.19 272.75,-109.74"/>
</g>
<!-- Node7 -->
<g id="node7" class="node">
<title>Node7</title>
<g id="a_node7"><a xlink:href="BinnedSplineHandler_8cpp.html" target="_top" xlink:title=" ">
<polygon fill="white" stroke="#666666" points="438,-74 262,-74 262,-55 438,-55 438,-74"/>
<text text-anchor="middle" x="350" y="-62" font-family="Helvetica,sans-Serif" font-size="10.00">Splines/BinnedSplineHandler.cpp</text>
</a>
</g>
</g>
<!-- Node3&#45;&gt;Node7 -->
<g id="edge6" class="edge">
<title>Node3&#45;&gt;Node7</title>
<path fill="none" stroke="#63b8ff" d="M319.73,-101.96C327.4,-92.72 336.63,-81.6 342.87,-74.09"/>
<polygon fill="#63b8ff" stroke="#63b8ff" points="316.96,-99.82 313.27,-109.75 322.35,-104.29 316.96,-99.82"/>
</g>
<!-- Node5 -->
<g id="node5" class="node">
<title>Node5</title>
<g id="a_node5"><a xlink:href="SampleHandlerFD_8cpp.html" target="_top" xlink:title=" ">
<polygon fill="white" stroke="#666666" points="170,-19 0,-19 0,0 170,0 170,-19"/>
<text text-anchor="middle" x="85" y="-7" font-family="Helvetica,sans-Serif" font-size="10.00">Samples/SampleHandlerFD.cpp</text>
</a>
</g>
</g>
<!-- Node4&#45;&gt;Node5 -->
<g id="edge4" class="edge">
<title>Node4&#45;&gt;Node5</title>
<path fill="none" stroke="#63b8ff" d="M143.75,-49.42C129.24,-39.81 110.46,-27.37 98.09,-19.17"/>
<polygon fill="#63b8ff" stroke="#63b8ff" points="141.88,-52.38 152.15,-54.98 145.74,-46.54 141.88,-52.38"/>
</g>
<!-- Node6 -->
<g id="node6" class="node">
<title>Node6</title>
<g id="a_node6"><a xlink:href="samples_8cpp.html" target="_top" xlink:title=" ">
<polygon fill="white" stroke="#666666" points="303.5,-19 188.5,-19 188.5,0 303.5,0 303.5,-19"/>
<text text-anchor="middle" x="246" y="-7" font-family="Helvetica,sans-Serif" font-size="10.00">python/samples.cpp</text>
</a>
</g>
</g>
<!-- Node4&#45;&gt;Node6 -->
<g id="edge5" class="edge">
<title>Node4&#45;&gt;Node6</title>
<path fill="none" stroke="#63b8ff" d="M186.51,-49.42C201.21,-39.81 220.22,-27.37 232.75,-19.17"/>
<polygon fill="#63b8ff" stroke="#63b8ff" points="184.47,-46.58 178.01,-54.98 188.3,-52.44 184.47,-46.58"/>
</g>
<!-- Node10 -->
<g id="node10" class="node">
<title>Node10</title>
<g id="a_node10"><a xlink:href="SplineMonolith_8cpp.html" target="_top" xlink:title=" ">
<polygon fill="white" stroke="#666666" points="647,-74 499,-74 499,-55 647,-55 647,-74"/>
<text text-anchor="middle" x="573" y="-62" font-family="Helvetica,sans-Serif" font-size="10.00">Splines/SplineMonolith.cpp</text>
</a>
</g>
</g>
<!-- Node9&#45;&gt;Node10 -->
<g id="edge9" class="edge">
<title>Node9&#45;&gt;Node10</title>
<path fill="none" stroke="#63b8ff" d="M606.97,-102.24C598.38,-92.95 587.96,-81.68 580.94,-74.09"/>
<polygon fill="#63b8ff" stroke="#63b8ff" points="604.55,-104.78 613.91,-109.75 609.69,-100.03 604.55,-104.78"/>
</g>
<!-- Node9&#45;&gt;Node11 -->
<g id="edge10" class="edge">
<title>Node9&#45;&gt;Node11</title>
<path fill="none" stroke="#63b8ff" d="M646.77,-104.97C664.5,-95.28 687.85,-82.52 703.13,-74.17"/>
<polygon fill="#63b8ff" stroke="#63b8ff" points="644.68,-102.12 637.58,-109.98 648.04,-108.26 644.68,-102.12"/>
</g>
<!-- Node13 -->
<g id="node13" class="node">
<title>Node13</title>
<g id="a_node13"><a xlink:href="gpuSplineUtils_8cu.html" target="_top" xlink:title=" ">
<polygon fill="white" stroke="#666666" points="887,-129 747,-129 747,-110 887,-110 887,-129"/>
<text text-anchor="middle" x="817" y="-117" font-family="Helvetica,sans-Serif" font-size="10.00">Splines/gpuSplineUtils.cu</text>
</a>
</g>
</g>
<!-- Node12&#45;&gt;Node13 -->
<g id="edge13" class="edge">
<title>Node12&#45;&gt;Node13</title>
<path fill="none" stroke="#63b8ff" d="M801.8,-155.53C805.68,-146.6 810.18,-136.22 813.27,-129.09"/>
<polygon fill="#63b8ff" stroke="#63b8ff" points="798.57,-154.18 797.8,-164.75 804.99,-156.97 798.57,-154.18"/>
</g>
</g>
</svg>
