<?xml version="1.0" encoding="UTF-8" standalone="no"?>
<!DOCTYPE svg PUBLIC "-//W3C//DTD SVG 1.1//EN"
 "http://www.w3.org/Graphics/SVG/1.1/DTD/svg11.dtd">
<!-- Generated by graphviz version 2.43.0 (0)
 -->
<!-- Title: Splines/SplineStructs.h Pages: 1 -->
<svg width="2552pt" height="610pt"
 viewBox="0.00 0.00 2552.27 610.00" xmlns="http://www.w3.org/2000/svg" xmlns:xlink="http://www.w3.org/1999/xlink">
<g id="graph0" class="graph" transform="scale(1 1) rotate(0) translate(4 606)">
<title>Splines/SplineStructs.h</title>
<!-- Node1 -->
<g id="node1" class="node">
<title>Node1</title>
<g id="a_node1"><a xlink:title="Contains structures and helper functions for handling spline representations of systematic parameters...">
<polygon fill="#999999" stroke="#666666" points="2049.27,-602 1921.27,-602 1921.27,-583 2049.27,-583 2049.27,-602"/>
<text text-anchor="middle" x="1985.27" y="-590" font-family="Helvetica,sans-Serif" font-size="10.00">Splines/SplineStructs.h</text>
</a>
</g>
</g>
<!-- Node2 -->
<g id="node2" class="node">
<title>Node2</title>
<g id="a_node2"><a xlink:href="ParameterHandlerGeneric_8h.html" target="_top" xlink:title=" ">
<polygon fill="white" stroke="#666666" points="2067.27,-547 1903.27,-547 1903.27,-517 2067.27,-517 2067.27,-547"/>
<text text-anchor="start" x="1911.27" y="-535" font-family="Helvetica,sans-Serif" font-size="10.00">Parameters/ParameterHandler</text>
<text text-anchor="middle" x="1985.27" y="-524" font-family="Helvetica,sans-Serif" font-size="10.00">Generic.h</text>
</a>
</g>
</g>
<!-- Node1&#45;&gt;Node2 -->
<g id="edge1" class="edge">
<title>Node1&#45;&gt;Node2</title>
<path fill="none" stroke="#63b8ff" d="M1985.27,-582.87C1985.27,-576.11 1985.27,-566.35 1985.27,-557.26"/>
<polygon fill="#63b8ff" stroke="#63b8ff" points="1988.77,-557.11 1985.27,-547.11 1981.77,-557.11 1988.77,-557.11"/>
</g>
<!-- Node5 -->
<g id="node5" class="node">
<title>Node5</title>
<g id="a_node5"><a xlink:href="Structs_8h.html" target="_top" xlink:title=" ">
<polygon fill="white" stroke="#666666" points="1964.27,-294 1860.27,-294 1860.27,-275 1964.27,-275 1964.27,-294"/>
<text text-anchor="middle" x="1912.27" y="-282" font-family="Helvetica,sans-Serif" font-size="10.00">Samples/Structs.h</text>
</a>
</g>
</g>
<!-- Node1&#45;&gt;Node5 -->
<g id="edge80" class="edge">
<title>Node1&#45;&gt;Node5</title>
<path fill="none" stroke="#63b8ff" d="M1951.67,-582.9C1932.16,-576.22 1908.66,-564.99 1894.27,-547 1871.45,-518.46 1875.27,-503.54 1875.27,-467 1875.27,-467 1875.27,-467 1875.27,-404.5 1875.27,-367.16 1892.09,-326.09 1903.05,-303.28"/>
<polygon fill="#63b8ff" stroke="#63b8ff" points="1906.26,-304.68 1907.59,-294.17 1900,-301.56 1906.26,-304.68"/>
</g>
<!-- Node21 -->
<g id="node21" class="node">
<title>Node21</title>
<g id="a_node21"><a xlink:title=" ">
<polygon fill="#e0e0e0" stroke="#999999" points="2366.77,-19 2319.77,-19 2319.77,0 2366.77,0 2366.77,-19"/>
<text text-anchor="middle" x="2343.27" y="-7" font-family="Helvetica,sans-Serif" font-size="10.00">cmath</text>
</a>
</g>
</g>
<!-- Node1&#45;&gt;Node21 -->
<g id="edge81" class="edge">
<title>Node1&#45;&gt;Node21</title>
<path fill="none" stroke="#63b8ff" d="M2049.4,-590.62C2196.23,-586.88 2544.27,-567.42 2544.27,-467 2544.27,-467 2544.27,-467 2544.27,-118.5 2544.27,-43.54 2434.46,-20.39 2377.17,-13.41"/>
<polygon fill="#63b8ff" stroke="#63b8ff" points="2377.45,-9.92 2367.12,-12.29 2376.67,-16.88 2377.45,-9.92"/>
</g>
<!-- Node3 -->
<g id="node3" class="node">
<title>Node3</title>
<g id="a_node3"><a xlink:href="ParameterHandlerBase_8h.html" target="_top" xlink:title=" ">
<polygon fill="white" stroke="#666666" points="1318.27,-481 1154.27,-481 1154.27,-451 1318.27,-451 1318.27,-481"/>
<text text-anchor="start" x="1162.27" y="-469" font-family="Helvetica,sans-Serif" font-size="10.00">Parameters/ParameterHandler</text>
<text text-anchor="middle" x="1236.27" y="-458" font-family="Helvetica,sans-Serif" font-size="10.00">Base.h</text>
</a>
</g>
</g>
<!-- Node2&#45;&gt;Node3 -->
<g id="edge2" class="edge">
<title>Node2&#45;&gt;Node3</title>
<path fill="none" stroke="#63b8ff" d="M1902.98,-523.97C1762.23,-511.94 1476.25,-487.51 1328.8,-474.91"/>
<polygon fill="#63b8ff" stroke="#63b8ff" points="1328.69,-471.38 1318.42,-474.02 1328.09,-478.36 1328.69,-471.38"/>
</g>
<!-- Node2&#45;&gt;Node5 -->
<g id="edge79" class="edge">
<title>Node2&#45;&gt;Node5</title>
<path fill="none" stroke="#63b8ff" d="M1981.03,-516.74C1968.53,-474.68 1931.78,-351.11 1917.78,-304.02"/>
<polygon fill="#63b8ff" stroke="#63b8ff" points="1921.08,-302.84 1914.88,-294.25 1914.37,-304.83 1921.08,-302.84"/>
</g>
<!-- Node4 -->
<g id="node4" class="node">
<title>Node4</title>
<g id="a_node4"><a xlink:href="Manager_8h.html" target="_top" xlink:title=" ">
<polygon fill="white" stroke="#666666" points="1419.77,-354.5 1306.77,-354.5 1306.77,-335.5 1419.77,-335.5 1419.77,-354.5"/>
<text text-anchor="middle" x="1363.27" y="-342.5" font-family="Helvetica,sans-Serif" font-size="10.00">Manager/Manager.h</text>
</a>
</g>
</g>
<!-- Node3&#45;&gt;Node4 -->
<g id="edge3" class="edge">
<title>Node3&#45;&gt;Node4</title>
<path fill="none" stroke="#63b8ff" d="M1288.05,-450.95C1307.78,-443.25 1328.94,-431.75 1343.27,-415 1355.3,-400.96 1360.1,-380.04 1362.02,-364.93"/>
<polygon fill="#63b8ff" stroke="#63b8ff" points="1365.53,-364.99 1362.99,-354.7 1358.56,-364.33 1365.53,-364.99"/>
</g>
<!-- Node43 -->
<g id="node35" class="node">
<title>Node43</title>
<g id="a_node35"><a xlink:href="ParameterHandlerUtils_8h.html" target="_top" xlink:title=" ">
<polygon fill="white" stroke="#666666" points="794.27,-360 630.27,-360 630.27,-330 794.27,-330 794.27,-360"/>
<text text-anchor="start" x="638.27" y="-348" font-family="Helvetica,sans-Serif" font-size="10.00">Parameters/ParameterHandler</text>
<text text-anchor="middle" x="712.27" y="-337" font-family="Helvetica,sans-Serif" font-size="10.00">Utils.h</text>
</a>
</g>
</g>
<!-- Node3&#45;&gt;Node43 -->
<g id="edge55" class="edge">
<title>Node3&#45;&gt;Node43</title>
<path fill="none" stroke="#63b8ff" d="M1154.14,-451.31C1101.16,-442.06 1030.89,-429.02 969.27,-415 900.29,-399.31 821.88,-377.7 770,-362.87"/>
<polygon fill="#63b8ff" stroke="#63b8ff" points="770.89,-359.48 760.31,-360.09 768.96,-366.21 770.89,-359.48"/>
</g>
<!-- Node57 -->
<g id="node49" class="node">
<title>Node57</title>
<g id="a_node49"><a xlink:href="AdaptiveMCMCHandler_8h.html" target="_top" xlink:title=" ">
<polygon fill="white" stroke="#666666" points="1334.77,-415 1137.77,-415 1137.77,-396 1334.77,-396 1334.77,-415"/>
<text text-anchor="middle" x="1236.27" y="-403" font-family="Helvetica,sans-Serif" font-size="10.00">Parameters/AdaptiveMCMCHandler.h</text>
</a>
</g>
</g>
<!-- Node3&#45;&gt;Node57 -->
<g id="edge73" class="edge">
<title>Node3&#45;&gt;Node57</title>
<path fill="none" stroke="#63b8ff" d="M1236.27,-450.84C1236.27,-443.21 1236.27,-433.7 1236.27,-425.45"/>
<polygon fill="#63b8ff" stroke="#63b8ff" points="1239.77,-425.27 1236.27,-415.27 1232.77,-425.27 1239.77,-425.27"/>
</g>
<!-- Node58 -->
<g id="node50" class="node">
<title>Node58</title>
<g id="a_node50"><a xlink:href="PCAHandler_8h.html" target="_top" xlink:title=" ">
<polygon fill="white" stroke="#666666" points="1119.77,-415 978.77,-415 978.77,-396 1119.77,-396 1119.77,-415"/>
<text text-anchor="middle" x="1049.27" y="-403" font-family="Helvetica,sans-Serif" font-size="10.00">Parameters/PCAHandler.h</text>
</a>
</g>
</g>
<!-- Node3&#45;&gt;Node58 -->
<g id="edge76" class="edge">
<title>Node3&#45;&gt;Node58</title>
<path fill="none" stroke="#63b8ff" d="M1191.48,-450.99C1159.35,-440.94 1116.57,-427.55 1086.35,-418.1"/>
<polygon fill="#63b8ff" stroke="#63b8ff" points="1087.21,-414.7 1076.62,-415.05 1085.12,-421.38 1087.21,-414.7"/>
</g>
<!-- Node4&#45;&gt;Node5 -->
<g id="edge4" class="edge">
<title>Node4&#45;&gt;Node5</title>
<path fill="none" stroke="#63b8ff" d="M1419.96,-337.96C1523.47,-326.93 1742.29,-303.61 1849.88,-292.15"/>
<polygon fill="#63b8ff" stroke="#63b8ff" points="1850.36,-295.62 1859.94,-291.08 1849.62,-288.66 1850.36,-295.62"/>
</g>
<!-- Node9 -->
<g id="node9" class="node">
<title>Node9</title>
<g id="a_node9"><a xlink:href="MaCh3Exception_8h.html" target="_top" xlink:title=" ">
<polygon fill="white" stroke="#666666" points="1541.77,-184 1388.77,-184 1388.77,-165 1541.77,-165 1541.77,-184"/>
<text text-anchor="middle" x="1465.27" y="-172" font-family="Helvetica,sans-Serif" font-size="10.00">Manager/MaCh3Exception.h</text>
</a>
</g>
</g>
<!-- Node4&#45;&gt;Node9 -->
<g id="edge54" class="edge">
<title>Node4&#45;&gt;Node9</title>
<path fill="none" stroke="#63b8ff" d="M1368.01,-335.45C1373.17,-325.72 1381.21,-309.21 1385.27,-294 1393.81,-262.04 1375.63,-247.98 1393.27,-220 1402.21,-205.83 1417.47,-195.45 1431.65,-188.3"/>
<polygon fill="#63b8ff" stroke="#63b8ff" points="1433.15,-191.46 1440.73,-184.06 1430.19,-185.12 1433.15,-191.46"/>
</g>
<!-- Node31 -->
<g id="node31" class="node">
<title>Node31</title>
<g id="a_node31"><a xlink:href="YamlHelper_8h.html" target="_top" xlink:title="Utility functions for handling YAML nodes.">
<polygon fill="#fff0f0" stroke="red" points="1528.27,-239 1402.27,-239 1402.27,-220 1528.27,-220 1528.27,-239"/>
<text text-anchor="middle" x="1465.27" y="-227" font-family="Helvetica,sans-Serif" font-size="10.00">Manager/YamlHelper.h</text>
</a>
</g>
</g>
<!-- Node4&#45;&gt;Node31 -->
<g id="edge37" class="edge">
<title>Node4&#45;&gt;Node31</title>
<path fill="none" stroke="#63b8ff" d="M1373.98,-335.35C1385.5,-325.8 1404.08,-309.7 1418.27,-294 1431.6,-279.26 1444.89,-260.87 1453.92,-247.68"/>
<polygon fill="#63b8ff" stroke="#63b8ff" points="1457,-249.37 1459.68,-239.12 1451.2,-245.47 1457,-249.37"/>
</g>
<!-- Node37 -->
<g id="node32" class="node">
<title>Node37</title>
<g id="a_node32"><a xlink:href="Monitor_8h.html" target="_top" xlink:title="System and monitoring utilities for printing system information and status updates.">
<polygon fill="#fff0f0" stroke="red" points="1376.27,-294 1268.27,-294 1268.27,-275 1376.27,-275 1376.27,-294"/>
<text text-anchor="middle" x="1322.27" y="-282" font-family="Helvetica,sans-Serif" font-size="10.00">Manager/Monitor.h</text>
</a>
</g>
</g>
<!-- Node4&#45;&gt;Node37 -->
<g id="edge44" class="edge">
<title>Node4&#45;&gt;Node37</title>
<path fill="none" stroke="#63b8ff" d="M1357.22,-335.37C1351.17,-326.73 1341.69,-313.2 1334.13,-302.42"/>
<polygon fill="#63b8ff" stroke="#63b8ff" points="1336.95,-300.35 1328.35,-294.17 1331.22,-304.37 1336.95,-300.35"/>
</g>
<!-- Node6 -->
<g id="node6" class="node">
<title>Node6</title>
<g id="a_node6"><a xlink:title=" ">
<polygon fill="#e0e0e0" stroke="#999999" points="1722.27,-239 1690.27,-239 1690.27,-220 1722.27,-220 1722.27,-239"/>
<text text-anchor="middle" x="1706.27" y="-227" font-family="Helvetica,sans-Serif" font-size="10.00">set</text>
</a>
</g>
</g>
<!-- Node5&#45;&gt;Node6 -->
<g id="edge5" class="edge">
<title>Node5&#45;&gt;Node6</title>
<path fill="none" stroke="#63b8ff" d="M1873.53,-275C1838.79,-267.15 1786.26,-254.72 1732.11,-239.05"/>
<polygon fill="#63b8ff" stroke="#63b8ff" points="1732.93,-235.64 1722.35,-236.19 1730.96,-242.36 1732.93,-235.64"/>
</g>
<!-- Node7 -->
<g id="node7" class="node">
<title>Node7</title>
<g id="a_node7"><a xlink:title=" ">
<polygon fill="#e0e0e0" stroke="#999999" points="1772.27,-239 1740.27,-239 1740.27,-220 1772.27,-220 1772.27,-239"/>
<text text-anchor="middle" x="1756.27" y="-227" font-family="Helvetica,sans-Serif" font-size="10.00">list</text>
</a>
</g>
</g>
<!-- Node5&#45;&gt;Node7 -->
<g id="edge6" class="edge">
<title>Node5&#45;&gt;Node7</title>
<path fill="none" stroke="#63b8ff" d="M1887.21,-274.98C1858.4,-265.2 1811.33,-249.21 1782.17,-239.3"/>
<polygon fill="#63b8ff" stroke="#63b8ff" points="1783.26,-235.97 1772.66,-236.07 1781.01,-242.6 1783.26,-235.97"/>
</g>
<!-- Node8 -->
<g id="node8" class="node">
<title>Node8</title>
<g id="a_node8"><a xlink:title=" ">
<polygon fill="#e0e0e0" stroke="#999999" points="1883.77,-239 1790.77,-239 1790.77,-220 1883.77,-220 1883.77,-239"/>
<text text-anchor="middle" x="1837.27" y="-227" font-family="Helvetica,sans-Serif" font-size="10.00">unordered_map</text>
</a>
</g>
</g>
<!-- Node5&#45;&gt;Node8 -->
<g id="edge7" class="edge">
<title>Node5&#45;&gt;Node8</title>
<path fill="none" stroke="#63b8ff" d="M1900.22,-274.98C1888.81,-266.92 1871.44,-254.65 1857.84,-245.03"/>
<polygon fill="#63b8ff" stroke="#63b8ff" points="1859.73,-242.08 1849.54,-239.17 1855.69,-247.8 1859.73,-242.08"/>
</g>
<!-- Node5&#45;&gt;Node9 -->
<g id="edge8" class="edge">
<title>Node5&#45;&gt;Node9</title>
<path fill="none" stroke="#63b8ff" d="M1860.13,-274.92C1813.11,-266.84 1742.2,-253.79 1681.27,-239 1617.1,-223.42 1543.55,-200.75 1500.95,-187.13"/>
<polygon fill="#63b8ff" stroke="#63b8ff" points="1501.91,-183.76 1491.32,-184.04 1499.77,-190.43 1501.91,-183.76"/>
</g>
<!-- Node13 -->
<g id="node13" class="node">
<title>Node13</title>
<g id="a_node13"><a xlink:href="MaCh3Logger_8h.html" target="_top" xlink:title="KS: Based on this https://github.com/gabime/spdlog/blob/a2b4262090fd3f005c2315dcb5be2f0f1774a005/incl...">
<polygon fill="white" stroke="#666666" points="1779.77,-129 1642.77,-129 1642.77,-110 1779.77,-110 1779.77,-129"/>
<text text-anchor="middle" x="1711.27" y="-117" font-family="Helvetica,sans-Serif" font-size="10.00">Manager/MaCh3Logger.h</text>
</a>
</g>
</g>
<!-- Node5&#45;&gt;Node13 -->
<g id="edge28" class="edge">
<title>Node5&#45;&gt;Node13</title>
<path fill="none" stroke="#63b8ff" d="M1911.57,-274.73C1910.09,-261.5 1905.61,-236.27 1892.27,-220 1855.1,-174.65 1791.57,-146.64 1750.52,-132.32"/>
<polygon fill="#63b8ff" stroke="#63b8ff" points="1751.45,-128.94 1740.85,-129.05 1749.21,-135.57 1751.45,-128.94"/>
</g>
<!-- Node17 -->
<g id="node17" class="node">
<title>Node17</title>
<g id="a_node17"><a xlink:href="Core_8h.html" target="_top" xlink:title=" ">
<polygon fill="white" stroke="#666666" points="2052.27,-74 1958.27,-74 1958.27,-55 2052.27,-55 2052.27,-74"/>
<text text-anchor="middle" x="2005.27" y="-62" font-family="Helvetica,sans-Serif" font-size="10.00">Manager/Core.h</text>
</a>
</g>
</g>
<!-- Node5&#45;&gt;Node17 -->
<g id="edge29" class="edge">
<title>Node5&#45;&gt;Node17</title>
<path fill="none" stroke="#63b8ff" d="M1964.65,-277.27C2010.56,-270.61 2072.27,-258.3 2087.27,-239 2127.41,-187.38 2057.81,-112.93 2023.14,-81"/>
<polygon fill="#63b8ff" stroke="#63b8ff" points="2025.33,-78.26 2015.55,-74.17 2020.65,-83.46 2025.33,-78.26"/>
</g>
<!-- Node24 -->
<g id="node24" class="node">
<title>Node24</title>
<g id="a_node24"><a xlink:title=" ">
<polygon fill="#e0e0e0" stroke="#999999" points="2078.27,-239 2016.27,-239 2016.27,-220 2078.27,-220 2078.27,-239"/>
<text text-anchor="middle" x="2047.27" y="-227" font-family="Helvetica,sans-Serif" font-size="10.00">TSpline.h</text>
</a>
</g>
</g>
<!-- Node5&#45;&gt;Node24 -->
<g id="edge30" class="edge">
<title>Node5&#45;&gt;Node24</title>
<path fill="none" stroke="#63b8ff" d="M1933.96,-274.98C1956.07,-266.3 1990.6,-252.75 2015.73,-242.88"/>
<polygon fill="#63b8ff" stroke="#63b8ff" points="2017.16,-246.08 2025.19,-239.17 2014.6,-239.57 2017.16,-246.08"/>
</g>
<!-- Node25 -->
<g id="node25" class="node">
<title>Node25</title>
<g id="a_node25"><a xlink:title=" ">
<polygon fill="#e0e0e0" stroke="#999999" points="2077.77,-184 2000.77,-184 2000.77,-165 2077.77,-165 2077.77,-184"/>
<text text-anchor="middle" x="2039.27" y="-172" font-family="Helvetica,sans-Serif" font-size="10.00">TObjString.h</text>
</a>
</g>
</g>
<!-- Node5&#45;&gt;Node25 -->
<g id="edge31" class="edge">
<title>Node5&#45;&gt;Node25</title>
<path fill="none" stroke="#63b8ff" d="M1922.67,-274.66C1944.26,-256.3 1994.22,-213.81 2021.2,-190.87"/>
<polygon fill="#63b8ff" stroke="#63b8ff" points="2023.74,-193.3 2029.09,-184.16 2019.21,-187.97 2023.74,-193.3"/>
</g>
<!-- Node26 -->
<g id="node26" class="node">
<title>Node26</title>
<g id="a_node26"><a xlink:title=" ">
<polygon fill="#e0e0e0" stroke="#999999" points="1595.77,-239 1546.77,-239 1546.77,-220 1595.77,-220 1595.77,-239"/>
<text text-anchor="middle" x="1571.27" y="-227" font-family="Helvetica,sans-Serif" font-size="10.00">TFile.h</text>
</a>
</g>
</g>
<!-- Node5&#45;&gt;Node26 -->
<g id="edge32" class="edge">
<title>Node5&#45;&gt;Node26</title>
<path fill="none" stroke="#63b8ff" d="M1860.26,-276.93C1799.94,-269.07 1697.6,-254.93 1610.27,-239 1608.83,-238.74 1607.35,-238.46 1605.86,-238.17"/>
<polygon fill="#63b8ff" stroke="#63b8ff" points="1606.48,-234.72 1595.98,-236.15 1605.08,-241.58 1606.48,-234.72"/>
</g>
<!-- Node27 -->
<g id="node27" class="node">
<title>Node27</title>
<g id="a_node27"><a xlink:title=" ">
<polygon fill="#e0e0e0" stroke="#999999" points="2178.27,-239 2134.27,-239 2134.27,-220 2178.27,-220 2178.27,-239"/>
<text text-anchor="middle" x="2156.27" y="-227" font-family="Helvetica,sans-Serif" font-size="10.00">TF1.h</text>
</a>
</g>
</g>
<!-- Node5&#45;&gt;Node27 -->
<g id="edge33" class="edge">
<title>Node5&#45;&gt;Node27</title>
<path fill="none" stroke="#63b8ff" d="M1953.38,-274.97C1995.37,-266.2 2062.45,-252.01 2120.27,-239 2121.54,-238.71 2122.84,-238.42 2124.14,-238.12"/>
<polygon fill="#63b8ff" stroke="#63b8ff" points="2125.26,-241.46 2134.21,-235.79 2123.67,-234.64 2125.26,-241.46"/>
</g>
<!-- Node28 -->
<g id="node28" class="node">
<title>Node28</title>
<g id="a_node28"><a xlink:title=" ">
<polygon fill="#e0e0e0" stroke="#999999" points="2261.77,-239 2196.77,-239 2196.77,-220 2261.77,-220 2261.77,-239"/>
<text text-anchor="middle" x="2229.27" y="-227" font-family="Helvetica,sans-Serif" font-size="10.00">TH2Poly.h</text>
</a>
</g>
</g>
<!-- Node5&#45;&gt;Node28 -->
<g id="edge34" class="edge">
<title>Node5&#45;&gt;Node28</title>
<path fill="none" stroke="#63b8ff" d="M1964.33,-275.7C2017.6,-267.58 2103.02,-254.17 2186.8,-239.02"/>
<polygon fill="#63b8ff" stroke="#63b8ff" points="2187.53,-242.45 2196.74,-237.22 2186.27,-235.56 2187.53,-242.45"/>
</g>
<!-- Node29 -->
<g id="node29" class="node">
<title>Node29</title>
<g id="a_node29"><a xlink:title=" ">
<polygon fill="#e0e0e0" stroke="#999999" points="2324.77,-239 2279.77,-239 2279.77,-220 2324.77,-220 2324.77,-239"/>
<text text-anchor="middle" x="2302.27" y="-227" font-family="Helvetica,sans-Serif" font-size="10.00">TH1.h</text>
</a>
</g>
</g>
<!-- Node5&#45;&gt;Node29 -->
<g id="edge35" class="edge">
<title>Node5&#45;&gt;Node29</title>
<path fill="none" stroke="#63b8ff" d="M1964.37,-279.42C2032.57,-273.55 2155.92,-261.14 2269.75,-239.06"/>
<polygon fill="#63b8ff" stroke="#63b8ff" points="2270.54,-242.47 2279.68,-237.1 2269.19,-235.6 2270.54,-242.47"/>
</g>
<!-- Node30 -->
<g id="node30" class="node">
<title>Node30</title>
<g id="a_node30"><a xlink:title=" ">
<polygon fill="#e0e0e0" stroke="#999999" points="2515.77,-239 2342.77,-239 2342.77,-220 2515.77,-220 2515.77,-239"/>
<text text-anchor="middle" x="2429.27" y="-227" font-family="Helvetica,sans-Serif" font-size="10.00">Constants/OscillatorConstants.h</text>
</a>
</g>
</g>
<!-- Node5&#45;&gt;Node30 -->
<g id="edge36" class="edge">
<title>Node5&#45;&gt;Node30</title>
<path fill="none" stroke="#63b8ff" d="M1964.69,-278.13C2051.82,-269.19 2227.59,-251.18 2336.19,-240.04"/>
<polygon fill="#63b8ff" stroke="#63b8ff" points="2336.57,-243.52 2346.16,-239.02 2335.86,-236.56 2336.57,-243.52"/>
</g>
<!-- Node10 -->
<g id="node10" class="node">
<title>Node10</title>
<g id="a_node10"><a xlink:title=" ">
<polygon fill="#e0e0e0" stroke="#999999" points="1530.27,-19 1470.27,-19 1470.27,0 1530.27,0 1530.27,-19"/>
<text text-anchor="middle" x="1500.27" y="-7" font-family="Helvetica,sans-Serif" font-size="10.00">iostream</text>
</a>
</g>
</g>
<!-- Node9&#45;&gt;Node10 -->
<g id="edge9" class="edge">
<title>Node9&#45;&gt;Node10</title>
<path fill="none" stroke="#63b8ff" d="M1468.68,-164.76C1472.03,-155.87 1477.1,-141.65 1480.27,-129 1489.01,-94.22 1495.03,-52.73 1498.05,-29.21"/>
<polygon fill="#63b8ff" stroke="#63b8ff" points="1501.53,-29.57 1499.28,-19.22 1494.58,-28.72 1501.53,-29.57"/>
</g>
<!-- Node11 -->
<g id="node11" class="node">
<title>Node11</title>
<g id="a_node11"><a xlink:title=" ">
<polygon fill="#e0e0e0" stroke="#999999" points="1381.27,-74 1337.27,-74 1337.27,-55 1381.27,-55 1381.27,-74"/>
<text text-anchor="middle" x="1359.27" y="-62" font-family="Helvetica,sans-Serif" font-size="10.00">string</text>
</a>
</g>
</g>
<!-- Node9&#45;&gt;Node11 -->
<g id="edge10" class="edge">
<title>Node9&#45;&gt;Node11</title>
<path fill="none" stroke="#63b8ff" d="M1447.79,-164.94C1433.04,-157.09 1412.03,-144.36 1397.27,-129 1384.37,-115.56 1373.89,-96.97 1367.23,-83.38"/>
<polygon fill="#63b8ff" stroke="#63b8ff" points="1370.31,-81.7 1362.9,-74.12 1363.97,-84.66 1370.31,-81.7"/>
</g>
<!-- Node12 -->
<g id="node12" class="node">
<title>Node12</title>
<g id="a_node12"><a xlink:title=" ">
<polygon fill="#e0e0e0" stroke="#999999" points="1471.77,-129 1406.77,-129 1406.77,-110 1471.77,-110 1471.77,-129"/>
<text text-anchor="middle" x="1439.27" y="-117" font-family="Helvetica,sans-Serif" font-size="10.00">stdexcept</text>
</a>
</g>
</g>
<!-- Node9&#45;&gt;Node12 -->
<g id="edge11" class="edge">
<title>Node9&#45;&gt;Node12</title>
<path fill="none" stroke="#63b8ff" d="M1460.98,-164.75C1457.46,-157.57 1452.36,-147.18 1447.99,-138.27"/>
<polygon fill="#63b8ff" stroke="#63b8ff" points="1451.03,-136.53 1443.49,-129.09 1444.75,-139.61 1451.03,-136.53"/>
</g>
<!-- Node9&#45;&gt;Node13 -->
<g id="edge12" class="edge">
<title>Node9&#45;&gt;Node13</title>
<path fill="none" stroke="#63b8ff" d="M1504.8,-164.98C1547.44,-155.8 1615.43,-141.15 1661.64,-131.19"/>
<polygon fill="#63b8ff" stroke="#63b8ff" points="1662.4,-134.61 1671.44,-129.08 1660.93,-127.77 1662.4,-134.61"/>
</g>
<!-- Node9&#45;&gt;Node17 -->
<g id="edge27" class="edge">
<title>Node9&#45;&gt;Node17</title>
<path fill="none" stroke="#63b8ff" d="M1541.86,-166.17C1607.66,-159.11 1704.83,-146.85 1788.27,-129 1853.84,-114.97 1928.51,-91.39 1970.96,-77.26"/>
<polygon fill="#63b8ff" stroke="#63b8ff" points="1972.15,-80.55 1980.52,-74.05 1969.93,-73.91 1972.15,-80.55"/>
</g>
<!-- Node13&#45;&gt;Node10 -->
<g id="edge13" class="edge">
<title>Node13&#45;&gt;Node10</title>
<path fill="none" stroke="#63b8ff" d="M1683.81,-109.9C1659.83,-101.94 1624.39,-89.07 1595.27,-74 1567.72,-59.73 1538.37,-39.2 1519.71,-25.38"/>
<polygon fill="#63b8ff" stroke="#63b8ff" points="1521.56,-22.39 1511.46,-19.19 1517.36,-27.99 1521.56,-22.39"/>
</g>
<!-- Node13&#45;&gt;Node11 -->
<g id="edge16" class="edge">
<title>Node13&#45;&gt;Node11</title>
<path fill="none" stroke="#63b8ff" d="M1654.72,-109.98C1580.1,-98.75 1451.25,-79.35 1391.47,-70.35"/>
<polygon fill="#63b8ff" stroke="#63b8ff" points="1391.88,-66.87 1381.48,-68.84 1390.84,-73.79 1391.88,-66.87"/>
</g>
<!-- Node14 -->
<g id="node14" class="node">
<title>Node14</title>
<g id="a_node14"><a xlink:title=" ">
<polygon fill="#e0e0e0" stroke="#999999" points="1965.27,-19 1909.27,-19 1909.27,0 1965.27,0 1965.27,-19"/>
<text text-anchor="middle" x="1937.27" y="-7" font-family="Helvetica,sans-Serif" font-size="10.00">sstream</text>
</a>
</g>
</g>
<!-- Node13&#45;&gt;Node14 -->
<g id="edge14" class="edge">
<title>Node13&#45;&gt;Node14</title>
<path fill="none" stroke="#63b8ff" d="M1768.39,-109.97C1800.47,-103.45 1840.34,-92.35 1872.27,-74 1893.12,-62.02 1912.18,-41.8 1924.19,-27.4"/>
<polygon fill="#63b8ff" stroke="#63b8ff" points="1927.16,-29.29 1930.71,-19.31 1921.71,-24.9 1927.16,-29.29"/>
</g>
<!-- Node15 -->
<g id="node15" class="node">
<title>Node15</title>
<g id="a_node15"><a xlink:title=" ">
<polygon fill="#e0e0e0" stroke="#999999" points="1780.77,-74 1715.77,-74 1715.77,-55 1780.77,-55 1780.77,-74"/>
<text text-anchor="middle" x="1748.27" y="-62" font-family="Helvetica,sans-Serif" font-size="10.00">functional</text>
</a>
</g>
</g>
<!-- Node13&#45;&gt;Node15 -->
<g id="edge15" class="edge">
<title>Node13&#45;&gt;Node15</title>
<path fill="none" stroke="#63b8ff" d="M1717.38,-109.75C1722.56,-102.34 1730.12,-91.5 1736.47,-82.41"/>
<polygon fill="#63b8ff" stroke="#63b8ff" points="1739.42,-84.29 1742.28,-74.09 1733.68,-80.29 1739.42,-84.29"/>
</g>
<!-- Node16 -->
<g id="node16" class="node">
<title>Node16</title>
<g id="a_node16"><a xlink:title=" ">
<polygon fill="#e0e0e0" stroke="#999999" points="1863.77,-74 1798.77,-74 1798.77,-55 1863.77,-55 1863.77,-74"/>
<text text-anchor="middle" x="1831.27" y="-62" font-family="Helvetica,sans-Serif" font-size="10.00">exception</text>
</a>
</g>
</g>
<!-- Node13&#45;&gt;Node16 -->
<g id="edge17" class="edge">
<title>Node13&#45;&gt;Node16</title>
<path fill="none" stroke="#63b8ff" d="M1730.55,-109.98C1749.95,-101.42 1780.08,-88.11 1802.34,-78.28"/>
<polygon fill="#63b8ff" stroke="#63b8ff" points="1803.91,-81.41 1811.64,-74.17 1801.08,-75.01 1803.91,-81.41"/>
</g>
<!-- Node13&#45;&gt;Node17 -->
<g id="edge18" class="edge">
<title>Node13&#45;&gt;Node17</title>
<path fill="none" stroke="#63b8ff" d="M1758.51,-109.98C1810.16,-100.67 1892.92,-85.75 1948.17,-75.79"/>
<polygon fill="#63b8ff" stroke="#63b8ff" points="1948.94,-79.21 1958.16,-73.99 1947.69,-72.32 1948.94,-79.21"/>
</g>
<!-- Node23 -->
<g id="node23" class="node">
<title>Node23</title>
<g id="a_node23"><a xlink:title=" ">
<polygon fill="#e0e0e0" stroke="#999999" points="1697.77,-74 1604.77,-74 1604.77,-55 1697.77,-55 1697.77,-74"/>
<text text-anchor="middle" x="1651.27" y="-62" font-family="Helvetica,sans-Serif" font-size="10.00">spdlog/spdlog.h</text>
</a>
</g>
</g>
<!-- Node13&#45;&gt;Node23 -->
<g id="edge26" class="edge">
<title>Node13&#45;&gt;Node23</title>
<path fill="none" stroke="#63b8ff" d="M1701.63,-109.98C1692.77,-102.15 1679.4,-90.34 1668.67,-80.86"/>
<polygon fill="#63b8ff" stroke="#63b8ff" points="1670.9,-78.17 1661.09,-74.17 1666.27,-83.41 1670.9,-78.17"/>
</g>
<!-- Node17&#45;&gt;Node10 -->
<g id="edge21" class="edge">
<title>Node17&#45;&gt;Node10</title>
<path fill="none" stroke="#63b8ff" d="M1958.22,-58.56C1859.67,-48.22 1633.07,-24.44 1540.64,-14.74"/>
<polygon fill="#63b8ff" stroke="#63b8ff" points="1540.88,-11.24 1530.56,-13.68 1540.14,-18.2 1540.88,-11.24"/>
</g>
<!-- Node17&#45;&gt;Node14 -->
<g id="edge19" class="edge">
<title>Node17&#45;&gt;Node14</title>
<path fill="none" stroke="#63b8ff" d="M1994.35,-54.98C1984.2,-47.07 1968.85,-35.11 1956.63,-25.58"/>
<polygon fill="#63b8ff" stroke="#63b8ff" points="1958.44,-22.56 1948.4,-19.17 1954.13,-28.08 1958.44,-22.56"/>
</g>
<!-- Node18 -->
<g id="node18" class="node">
<title>Node18</title>
<g id="a_node18"><a xlink:title=" ">
<polygon fill="#e0e0e0" stroke="#999999" points="1890.77,-19 1835.77,-19 1835.77,0 1890.77,0 1890.77,-19"/>
<text text-anchor="middle" x="1863.27" y="-7" font-family="Helvetica,sans-Serif" font-size="10.00">fstream</text>
</a>
</g>
</g>
<!-- Node17&#45;&gt;Node18 -->
<g id="edge20" class="edge">
<title>Node17&#45;&gt;Node18</title>
<path fill="none" stroke="#63b8ff" d="M1982.46,-54.98C1959.1,-46.27 1922.57,-32.63 1896.11,-22.75"/>
<polygon fill="#63b8ff" stroke="#63b8ff" points="1897.1,-19.39 1886.5,-19.17 1894.65,-25.95 1897.1,-19.39"/>
</g>
<!-- Node19 -->
<g id="node19" class="node">
<title>Node19</title>
<g id="a_node19"><a xlink:title=" ">
<polygon fill="#e0e0e0" stroke="#999999" points="1329.77,-19 1282.77,-19 1282.77,0 1329.77,0 1329.77,-19"/>
<text text-anchor="middle" x="1306.27" y="-7" font-family="Helvetica,sans-Serif" font-size="10.00">vector</text>
</a>
</g>
</g>
<!-- Node17&#45;&gt;Node19 -->
<g id="edge22" class="edge">
<title>Node17&#45;&gt;Node19</title>
<path fill="none" stroke="#63b8ff" d="M1958.05,-59.92C1825.84,-49.89 1454.2,-21.72 1340.05,-13.06"/>
<polygon fill="#63b8ff" stroke="#63b8ff" points="1340.06,-9.55 1329.83,-12.29 1339.53,-16.53 1340.06,-9.55"/>
</g>
<!-- Node20 -->
<g id="node20" class="node">
<title>Node20</title>
<g id="a_node20"><a xlink:title=" ">
<polygon fill="#e0e0e0" stroke="#999999" points="2101.27,-19 2045.27,-19 2045.27,0 2101.27,0 2101.27,-19"/>
<text text-anchor="middle" x="2073.27" y="-7" font-family="Helvetica,sans-Serif" font-size="10.00">iomanip</text>
</a>
</g>
</g>
<!-- Node17&#45;&gt;Node20 -->
<g id="edge23" class="edge">
<title>Node17&#45;&gt;Node20</title>
<path fill="none" stroke="#63b8ff" d="M2016.2,-54.98C2026.35,-47.07 2041.7,-35.11 2053.92,-25.58"/>
<polygon fill="#63b8ff" stroke="#63b8ff" points="2056.41,-28.08 2062.15,-19.17 2052.11,-22.56 2056.41,-28.08"/>
</g>
<!-- Node17&#45;&gt;Node21 -->
<g id="edge24" class="edge">
<title>Node17&#45;&gt;Node21</title>
<path fill="none" stroke="#63b8ff" d="M2052.63,-56.07C2121.87,-45.22 2249.07,-25.27 2309.58,-15.78"/>
<polygon fill="#63b8ff" stroke="#63b8ff" points="2310.39,-19.2 2319.73,-14.19 2309.31,-12.28 2310.39,-19.2"/>
</g>
<!-- Node22 -->
<g id="node22" class="node">
<title>Node22</title>
<g id="a_node22"><a xlink:title=" ">
<polygon fill="#e0e0e0" stroke="#999999" points="2027.27,-19 1983.27,-19 1983.27,0 2027.27,0 2027.27,-19"/>
<text text-anchor="middle" x="2005.27" y="-7" font-family="Helvetica,sans-Serif" font-size="10.00">limits</text>
</a>
</g>
</g>
<!-- Node17&#45;&gt;Node22 -->
<g id="edge25" class="edge">
<title>Node17&#45;&gt;Node22</title>
<path fill="none" stroke="#63b8ff" d="M2005.27,-54.75C2005.27,-47.8 2005.27,-37.85 2005.27,-29.13"/>
<polygon fill="#63b8ff" stroke="#63b8ff" points="2008.77,-29.09 2005.27,-19.09 2001.77,-29.09 2008.77,-29.09"/>
</g>
<!-- Node31&#45;&gt;Node9 -->
<g id="edge41" class="edge">
<title>Node31&#45;&gt;Node9</title>
<path fill="none" stroke="#63b8ff" d="M1465.27,-219.75C1465.27,-212.8 1465.27,-202.85 1465.27,-194.13"/>
<polygon fill="#63b8ff" stroke="#63b8ff" points="1468.77,-194.09 1465.27,-184.09 1461.77,-194.09 1468.77,-194.09"/>
</g>
<!-- Node31&#45;&gt;Node10 -->
<g id="edge38" class="edge">
<title>Node31&#45;&gt;Node10</title>
<path fill="none" stroke="#63b8ff" d="M1436.12,-219.99C1362.98,-197.23 1182,-131.51 1246.27,-55 1273.07,-23.1 1395.19,-14.06 1459.84,-11.51"/>
<polygon fill="#63b8ff" stroke="#63b8ff" points="1460.21,-14.99 1470.07,-11.14 1459.95,-8 1460.21,-14.99"/>
</g>
<!-- Node31&#45;&gt;Node11 -->
<g id="edge40" class="edge">
<title>Node31&#45;&gt;Node11</title>
<path fill="none" stroke="#63b8ff" d="M1433.49,-219.91C1414.81,-213.2 1392.35,-201.93 1379.27,-184 1357.63,-154.33 1356.3,-109.43 1357.57,-84.28"/>
<polygon fill="#63b8ff" stroke="#63b8ff" points="1361.07,-84.46 1358.28,-74.23 1354.09,-83.96 1361.07,-84.46"/>
</g>
<!-- Node31&#45;&gt;Node17 -->
<g id="edge42" class="edge">
<title>Node31&#45;&gt;Node17</title>
<path fill="none" stroke="#63b8ff" d="M1502.54,-219.96C1570.24,-204.15 1717.65,-168.32 1839.27,-129 1887.7,-113.34 1942.63,-91.5 1975.59,-77.95"/>
<polygon fill="#63b8ff" stroke="#63b8ff" points="1977.17,-81.08 1985.08,-74.02 1974.5,-74.61 1977.17,-81.08"/>
</g>
<!-- Node31&#45;&gt;Node18 -->
<g id="edge39" class="edge">
<title>Node31&#45;&gt;Node18</title>
<path fill="none" stroke="#63b8ff" d="M1493.23,-219.94C1511.73,-212.97 1535.26,-201.4 1550.27,-184 1589.95,-138.03 1548.83,-94.11 1595.27,-55 1629.45,-26.22 1759.82,-15.67 1825.29,-12.12"/>
<polygon fill="#63b8ff" stroke="#63b8ff" points="1825.78,-15.6 1835.59,-11.6 1825.43,-8.61 1825.78,-15.6"/>
</g>
<!-- Node31&#45;&gt;Node25 -->
<g id="edge43" class="edge">
<title>Node31&#45;&gt;Node25</title>
<path fill="none" stroke="#63b8ff" d="M1528.48,-220.9C1531.45,-220.59 1534.39,-220.29 1537.27,-220 1736.5,-200.26 1787.51,-207.87 1986.27,-184 1987.58,-183.84 1988.89,-183.68 1990.22,-183.51"/>
<polygon fill="#63b8ff" stroke="#63b8ff" points="1991.11,-186.92 2000.54,-182.07 1990.15,-179.98 1991.11,-186.92"/>
</g>
<!-- Node37&#45;&gt;Node9 -->
<g id="edge50" class="edge">
<title>Node37&#45;&gt;Node9</title>
<path fill="none" stroke="#63b8ff" d="M1325.37,-274.94C1330.61,-261.53 1342.44,-235.52 1360.27,-220 1377.73,-204.81 1401.13,-194.21 1421.41,-187.18"/>
<polygon fill="#63b8ff" stroke="#63b8ff" points="1422.67,-190.46 1431.08,-184.01 1420.49,-183.8 1422.67,-190.46"/>
</g>
<!-- Node37&#45;&gt;Node10 -->
<g id="edge45" class="edge">
<title>Node37&#45;&gt;Node10</title>
<path fill="none" stroke="#63b8ff" d="M1313.13,-274.94C1295.88,-257.84 1260.27,-217.44 1260.27,-175.5 1260.27,-175.5 1260.27,-175.5 1260.27,-118.5 1260.27,-32.01 1391.48,-14.38 1459.87,-11.06"/>
<polygon fill="#63b8ff" stroke="#63b8ff" points="1460.03,-14.56 1469.88,-10.66 1459.75,-7.56 1460.03,-14.56"/>
</g>
<!-- Node37&#45;&gt;Node11 -->
<g id="edge47" class="edge">
<title>Node37&#45;&gt;Node11</title>
<path fill="none" stroke="#63b8ff" d="M1323.73,-274.95C1329.17,-242.88 1348.46,-129.2 1356.12,-84.12"/>
<polygon fill="#63b8ff" stroke="#63b8ff" points="1359.57,-84.67 1357.79,-74.22 1352.67,-83.5 1359.57,-84.67"/>
</g>
<!-- Node37&#45;&gt;Node13 -->
<g id="edge49" class="edge">
<title>Node37&#45;&gt;Node13</title>
<path fill="none" stroke="#63b8ff" d="M1376.44,-279.27C1447.02,-273.02 1565.92,-259.77 1604.27,-239 1648.99,-214.78 1684.57,-164.41 1701.14,-137.81"/>
<polygon fill="#63b8ff" stroke="#63b8ff" points="1704.18,-139.55 1706.37,-129.18 1698.2,-135.92 1704.18,-139.55"/>
</g>
<!-- Node37&#45;&gt;Node18 -->
<g id="edge46" class="edge">
<title>Node37&#45;&gt;Node18</title>
<path fill="none" stroke="#63b8ff" d="M1376.52,-283.36C1512.16,-282.43 1857.69,-276.39 1892.27,-239 1947.33,-179.48 1896.99,-70.92 1873.66,-28.32"/>
<polygon fill="#63b8ff" stroke="#63b8ff" points="1876.6,-26.41 1868.64,-19.41 1870.5,-29.84 1876.6,-26.41"/>
</g>
<!-- Node37&#45;&gt;Node19 -->
<g id="edge48" class="edge">
<title>Node37&#45;&gt;Node19</title>
<path fill="none" stroke="#63b8ff" d="M1292.67,-274.96C1252.12,-261.24 1184.27,-230.11 1184.27,-175.5 1184.27,-175.5 1184.27,-175.5 1184.27,-118.5 1184.27,-70.72 1237.38,-38.98 1273.52,-22.9"/>
<polygon fill="#63b8ff" stroke="#63b8ff" points="1274.92,-26.11 1282.75,-18.97 1272.18,-19.67 1274.92,-26.11"/>
</g>
<!-- Node37&#45;&gt;Node31 -->
<g id="edge51" class="edge">
<title>Node37&#45;&gt;Node31</title>
<path fill="none" stroke="#63b8ff" d="M1345.25,-274.98C1368.77,-266.27 1405.56,-252.63 1432.21,-242.75"/>
<polygon fill="#63b8ff" stroke="#63b8ff" points="1433.72,-245.93 1441.88,-239.17 1431.29,-239.36 1433.72,-245.93"/>
</g>
<!-- Node39 -->
<g id="node33" class="node">
<title>Node39</title>
<g id="a_node33"><a xlink:title=" ">
<polygon fill="#e0e0e0" stroke="#999999" points="265.27,-239 213.27,-239 213.27,-220 265.27,-220 265.27,-239"/>
<text text-anchor="middle" x="239.27" y="-227" font-family="Helvetica,sans-Serif" font-size="10.00">TTree.h</text>
</a>
</g>
</g>
<!-- Node37&#45;&gt;Node39 -->
<g id="edge52" class="edge">
<title>Node37&#45;&gt;Node39</title>
<path fill="none" stroke="#63b8ff" d="M1268.01,-275.86C1265.06,-275.55 1262.13,-275.25 1259.27,-275 875.47,-240.81 407.98,-232.6 275.69,-230.9"/>
<polygon fill="#63b8ff" stroke="#63b8ff" points="275.38,-227.39 265.34,-230.77 275.3,-234.39 275.38,-227.39"/>
</g>
<!-- Node42 -->
<g id="node34" class="node">
<title>Node42</title>
<g id="a_node34"><a xlink:title=" ">
<polygon fill="#e0e0e0" stroke="#999999" points="892.77,-239 809.77,-239 809.77,-220 892.77,-220 892.77,-239"/>
<text text-anchor="middle" x="851.27" y="-227" font-family="Helvetica,sans-Serif" font-size="10.00">TStopwatch.h</text>
</a>
</g>
</g>
<!-- Node37&#45;&gt;Node42 -->
<g id="edge53" class="edge">
<title>Node37&#45;&gt;Node42</title>
<path fill="none" stroke="#63b8ff" d="M1267.99,-276.09C1265.04,-275.71 1262.12,-275.35 1259.27,-275 1131.34,-259.4 980.51,-243.63 903,-235.72"/>
<polygon fill="#63b8ff" stroke="#63b8ff" points="903.32,-232.23 893.02,-234.7 902.61,-239.19 903.32,-232.23"/>
</g>
<!-- Node43&#45;&gt;Node5 -->
<g id="edge56" class="edge">
<title>Node43&#45;&gt;Node5</title>
<path fill="none" stroke="#63b8ff" d="M794.28,-340C1020.52,-328.97 1649.92,-298.29 1850.22,-288.53"/>
<polygon fill="#63b8ff" stroke="#63b8ff" points="1850.45,-292.02 1860.27,-288.04 1850.11,-285.03 1850.45,-292.02"/>
</g>
<!-- Node43&#45;&gt;Node26 -->
<g id="edge64" class="edge">
<title>Node43&#45;&gt;Node26</title>
<path fill="none" stroke="#63b8ff" d="M794.52,-344.59C922.26,-344.01 1175.5,-336.87 1385.27,-294 1442.42,-282.32 1506.17,-257.93 1542.24,-243.01"/>
<polygon fill="#63b8ff" stroke="#63b8ff" points="1543.77,-246.16 1551.65,-239.07 1541.07,-239.7 1543.77,-246.16"/>
</g>
<!-- Node43&#45;&gt;Node39 -->
<g id="edge63" class="edge">
<title>Node43&#45;&gt;Node39</title>
<path fill="none" stroke="#63b8ff" d="M629.98,-344.27C453.79,-344 52.67,-338.45 11.27,-294 -44.62,-233.98 125.27,-228.95 202.83,-229.65"/>
<polygon fill="#63b8ff" stroke="#63b8ff" points="203.08,-233.15 213.12,-229.78 203.17,-226.15 203.08,-233.15"/>
</g>
<!-- Node43&#45;&gt;Node42 -->
<g id="edge68" class="edge">
<title>Node43&#45;&gt;Node42</title>
<path fill="none" stroke="#63b8ff" d="M630.26,-344.2C455.74,-343.77 60.13,-337.91 19.27,-294 13.52,-287.82 13.47,-281.13 19.27,-275 46.18,-246.61 621.66,-234.43 799.43,-231.33"/>
<polygon fill="#63b8ff" stroke="#63b8ff" points="799.64,-234.83 809.58,-231.16 799.52,-227.83 799.64,-234.83"/>
</g>
<!-- Node44 -->
<g id="node36" class="node">
<title>Node44</title>
<g id="a_node36"><a xlink:title=" ">
<polygon fill="#e0e0e0" stroke="#999999" points="96.27,-294 28.27,-294 28.27,-275 96.27,-275 96.27,-294"/>
<text text-anchor="middle" x="62.27" y="-282" font-family="Helvetica,sans-Serif" font-size="10.00">TMatrixT.h</text>
</a>
</g>
</g>
<!-- Node43&#45;&gt;Node44 -->
<g id="edge57" class="edge">
<title>Node43&#45;&gt;Node44</title>
<path fill="none" stroke="#63b8ff" d="M629.97,-340.17C514.95,-334.17 299.47,-320.53 106.53,-294.02"/>
<polygon fill="#63b8ff" stroke="#63b8ff" points="106.87,-290.53 96.48,-292.62 105.91,-297.47 106.87,-290.53"/>
</g>
<!-- Node45 -->
<g id="node37" class="node">
<title>Node45</title>
<g id="a_node37"><a xlink:title=" ">
<polygon fill="#e0e0e0" stroke="#999999" points="206.27,-294 114.27,-294 114.27,-275 206.27,-275 206.27,-294"/>
<text text-anchor="middle" x="160.27" y="-282" font-family="Helvetica,sans-Serif" font-size="10.00">TMatrixDSym.h</text>
</a>
</g>
</g>
<!-- Node43&#45;&gt;Node45 -->
<g id="edge58" class="edge">
<title>Node43&#45;&gt;Node45</title>
<path fill="none" stroke="#63b8ff" d="M629.9,-337.06C533.31,-328.62 368.16,-313.24 216.44,-294.09"/>
<polygon fill="#63b8ff" stroke="#63b8ff" points="216.82,-290.61 206.46,-292.82 215.94,-297.55 216.82,-290.61"/>
</g>
<!-- Node46 -->
<g id="node38" class="node">
<title>Node46</title>
<g id="a_node38"><a xlink:title=" ">
<polygon fill="#e0e0e0" stroke="#999999" points="292.27,-294 224.27,-294 224.27,-275 292.27,-275 292.27,-294"/>
<text text-anchor="middle" x="258.27" y="-282" font-family="Helvetica,sans-Serif" font-size="10.00">TVectorT.h</text>
</a>
</g>
</g>
<!-- Node43&#45;&gt;Node46 -->
<g id="edge59" class="edge">
<title>Node43&#45;&gt;Node46</title>
<path fill="none" stroke="#63b8ff" d="M630.15,-335.82C549.28,-327.35 422.04,-312.92 302.56,-294.1"/>
<polygon fill="#63b8ff" stroke="#63b8ff" points="302.93,-290.62 292.5,-292.5 301.83,-297.53 302.93,-290.62"/>
</g>
<!-- Node47 -->
<g id="node39" class="node">
<title>Node47</title>
<g id="a_node39"><a xlink:title=" ">
<polygon fill="#e0e0e0" stroke="#999999" points="380.27,-294 310.27,-294 310.27,-275 380.27,-275 380.27,-294"/>
<text text-anchor="middle" x="345.27" y="-282" font-family="Helvetica,sans-Serif" font-size="10.00">TVectorD.h</text>
</a>
</g>
</g>
<!-- Node43&#45;&gt;Node47 -->
<g id="edge60" class="edge">
<title>Node43&#45;&gt;Node47</title>
<path fill="none" stroke="#63b8ff" d="M630.16,-332.15C567.22,-322.87 477.96,-309.27 390.43,-294.15"/>
<polygon fill="#63b8ff" stroke="#63b8ff" points="390.77,-290.65 380.32,-292.39 389.57,-297.55 390.77,-290.65"/>
</g>
<!-- Node48 -->
<g id="node40" class="node">
<title>Node48</title>
<g id="a_node40"><a xlink:title=" ">
<polygon fill="#e0e0e0" stroke="#999999" points="451.77,-294 398.77,-294 398.77,-275 451.77,-275 451.77,-294"/>
<text text-anchor="middle" x="425.27" y="-282" font-family="Helvetica,sans-Serif" font-size="10.00">TH1D.h</text>
</a>
</g>
</g>
<!-- Node43&#45;&gt;Node48 -->
<g id="edge61" class="edge">
<title>Node43&#45;&gt;Node48</title>
<path fill="none" stroke="#63b8ff" d="M637.12,-329.95C589.38,-320.83 526.05,-308.35 461.89,-294.29"/>
<polygon fill="#63b8ff" stroke="#63b8ff" points="462.52,-290.85 452,-292.11 461.01,-297.68 462.52,-290.85"/>
</g>
<!-- Node49 -->
<g id="node41" class="node">
<title>Node49</title>
<g id="a_node41"><a xlink:title=" ">
<polygon fill="#e0e0e0" stroke="#999999" points="522.77,-294 469.77,-294 469.77,-275 522.77,-275 522.77,-294"/>
<text text-anchor="middle" x="496.27" y="-282" font-family="Helvetica,sans-Serif" font-size="10.00">TH2D.h</text>
</a>
</g>
</g>
<!-- Node43&#45;&gt;Node49 -->
<g id="edge62" class="edge">
<title>Node43&#45;&gt;Node49</title>
<path fill="none" stroke="#63b8ff" d="M660.54,-329.99C621.12,-319.31 567.83,-304.88 532.78,-295.39"/>
<polygon fill="#63b8ff" stroke="#63b8ff" points="533.53,-291.96 522.96,-292.73 531.7,-298.72 533.53,-291.96"/>
</g>
<!-- Node50 -->
<g id="node42" class="node">
<title>Node50</title>
<g id="a_node42"><a xlink:title=" ">
<polygon fill="#e0e0e0" stroke="#999999" points="619.27,-294 541.27,-294 541.27,-275 619.27,-275 619.27,-294"/>
<text text-anchor="middle" x="580.27" y="-282" font-family="Helvetica,sans-Serif" font-size="10.00">TRandom3.h</text>
</a>
</g>
</g>
<!-- Node43&#45;&gt;Node50 -->
<g id="edge65" class="edge">
<title>Node43&#45;&gt;Node50</title>
<path fill="none" stroke="#63b8ff" d="M680.66,-329.99C658.93,-320.36 630.3,-307.67 609.18,-298.31"/>
<polygon fill="#63b8ff" stroke="#63b8ff" points="610.33,-294.99 599.77,-294.14 607.49,-301.39 610.33,-294.99"/>
</g>
<!-- Node51 -->
<g id="node43" class="node">
<title>Node51</title>
<g id="a_node43"><a xlink:title=" ">
<polygon fill="#e0e0e0" stroke="#999999" points="693.27,-294 637.27,-294 637.27,-275 693.27,-275 693.27,-294"/>
<text text-anchor="middle" x="665.27" y="-282" font-family="Helvetica,sans-Serif" font-size="10.00">TMath.h</text>
</a>
</g>
</g>
<!-- Node43&#45;&gt;Node51 -->
<g id="edge66" class="edge">
<title>Node43&#45;&gt;Node51</title>
<path fill="none" stroke="#63b8ff" d="M700.9,-329.84C694.21,-321.52 685.73,-310.96 678.72,-302.23"/>
<polygon fill="#63b8ff" stroke="#63b8ff" points="681.31,-299.87 672.32,-294.27 675.85,-304.25 681.31,-299.87"/>
</g>
<!-- Node52 -->
<g id="node44" class="node">
<title>Node52</title>
<g id="a_node44"><a xlink:title=" ">
<polygon fill="#e0e0e0" stroke="#999999" points="805.27,-294 711.27,-294 711.27,-275 805.27,-275 805.27,-294"/>
<text text-anchor="middle" x="758.27" y="-282" font-family="Helvetica,sans-Serif" font-size="10.00">TDecompChol.h</text>
</a>
</g>
</g>
<!-- Node43&#45;&gt;Node52 -->
<g id="edge67" class="edge">
<title>Node43&#45;&gt;Node52</title>
<path fill="none" stroke="#63b8ff" d="M723.41,-329.84C729.95,-321.52 738.26,-310.96 745.12,-302.23"/>
<polygon fill="#63b8ff" stroke="#63b8ff" points="747.95,-304.29 751.38,-294.27 742.45,-299.96 747.95,-304.29"/>
</g>
<!-- Node53 -->
<g id="node45" class="node">
<title>Node53</title>
<g id="a_node45"><a xlink:title=" ">
<polygon fill="#e0e0e0" stroke="#999999" points="886.77,-294 823.77,-294 823.77,-275 886.77,-275 886.77,-294"/>
<text text-anchor="middle" x="855.27" y="-282" font-family="Helvetica,sans-Serif" font-size="10.00">TMatrix.h</text>
</a>
</g>
</g>
<!-- Node43&#45;&gt;Node53 -->
<g id="edge69" class="edge">
<title>Node43&#45;&gt;Node53</title>
<path fill="none" stroke="#63b8ff" d="M746.53,-329.99C770.39,-320.23 801.92,-307.33 824.89,-297.93"/>
<polygon fill="#63b8ff" stroke="#63b8ff" points="826.23,-301.17 834.16,-294.14 823.58,-294.69 826.23,-301.17"/>
</g>
<!-- Node54 -->
<g id="node46" class="node">
<title>Node54</title>
<g id="a_node46"><a xlink:title=" ">
<polygon fill="#e0e0e0" stroke="#999999" points="1023.77,-294 904.77,-294 904.77,-275 1023.77,-275 1023.77,-294"/>
<text text-anchor="middle" x="964.27" y="-282" font-family="Helvetica,sans-Serif" font-size="10.00">TMatrixDSymEigen.h</text>
</a>
</g>
</g>
<!-- Node43&#45;&gt;Node54 -->
<g id="edge70" class="edge">
<title>Node43&#45;&gt;Node54</title>
<path fill="none" stroke="#63b8ff" d="M772.63,-329.99C817.07,-319.67 876.61,-305.85 917.46,-296.37"/>
<polygon fill="#63b8ff" stroke="#63b8ff" points="918.48,-299.72 927.43,-294.05 916.9,-292.91 918.48,-299.72"/>
</g>
<!-- Node55 -->
<g id="node47" class="node">
<title>Node55</title>
<g id="a_node47"><a xlink:title=" ">
<polygon fill="#e0e0e0" stroke="#999999" points="1140.27,-294 1042.27,-294 1042.27,-275 1140.27,-275 1140.27,-294"/>
<text text-anchor="middle" x="1091.27" y="-282" font-family="Helvetica,sans-Serif" font-size="10.00">TMatrixDEigen.h</text>
</a>
</g>
</g>
<!-- Node43&#45;&gt;Node55 -->
<g id="edge71" class="edge">
<title>Node43&#45;&gt;Node55</title>
<path fill="none" stroke="#63b8ff" d="M794.51,-331.31C866.22,-320.24 968.48,-304.45 1032.31,-294.6"/>
<polygon fill="#63b8ff" stroke="#63b8ff" points="1032.87,-298.06 1042.22,-293.07 1031.8,-291.14 1032.87,-298.06"/>
</g>
<!-- Node56 -->
<g id="node48" class="node">
<title>Node56</title>
<g id="a_node48"><a xlink:title=" ">
<polygon fill="#e0e0e0" stroke="#999999" points="1250.27,-294 1158.27,-294 1158.27,-275 1250.27,-275 1250.27,-294"/>
<text text-anchor="middle" x="1204.27" y="-282" font-family="Helvetica,sans-Serif" font-size="10.00">TDecompSVD.h</text>
</a>
</g>
</g>
<!-- Node43&#45;&gt;Node56 -->
<g id="edge72" class="edge">
<title>Node43&#45;&gt;Node56</title>
<path fill="none" stroke="#63b8ff" d="M794.55,-335.56C880.25,-326.55 1018.66,-311.38 1147.99,-294.13"/>
<polygon fill="#63b8ff" stroke="#63b8ff" points="1148.63,-297.57 1158.08,-292.77 1147.7,-290.63 1148.63,-297.57"/>
</g>
<!-- Node57&#45;&gt;Node4 -->
<g id="edge74" class="edge">
<title>Node57&#45;&gt;Node4</title>
<path fill="none" stroke="#63b8ff" d="M1254.74,-395.99C1276,-386.2 1311.13,-370.02 1335.64,-358.73"/>
<polygon fill="#63b8ff" stroke="#63b8ff" points="1337.17,-361.88 1344.79,-354.52 1334.24,-355.52 1337.17,-361.88"/>
</g>
<!-- Node57&#45;&gt;Node43 -->
<g id="edge75" class="edge">
<title>Node57&#45;&gt;Node43</title>
<path fill="none" stroke="#63b8ff" d="M1160.08,-395.99C1065.95,-385.49 905.91,-367.62 804.81,-356.33"/>
<polygon fill="#63b8ff" stroke="#63b8ff" points="804.94,-352.82 794.61,-355.19 804.16,-359.78 804.94,-352.82"/>
</g>
<!-- Node58&#45;&gt;Node4 -->
<g id="edge77" class="edge">
<title>Node58&#45;&gt;Node4</title>
<path fill="none" stroke="#63b8ff" d="M1094.93,-395.99C1151.21,-385.51 1246.81,-367.7 1307.41,-356.41"/>
<polygon fill="#63b8ff" stroke="#63b8ff" points="1308.37,-359.79 1317.56,-354.52 1307.09,-352.91 1308.37,-359.79"/>
</g>
<!-- Node58&#45;&gt;Node43 -->
<g id="edge78" class="edge">
<title>Node58&#45;&gt;Node43</title>
<path fill="none" stroke="#63b8ff" d="M1000.27,-395.99C948.72,-387.04 866.43,-372.76 802.98,-361.75"/>
<polygon fill="#63b8ff" stroke="#63b8ff" points="803.42,-358.27 792.97,-360.01 802.22,-365.17 803.42,-358.27"/>
</g>
</g>
</svg>
