<?xml version="1.0" encoding="UTF-8" standalone="no"?>
<!DOCTYPE svg PUBLIC "-//W3C//DTD SVG 1.1//EN"
 "http://www.w3.org/Graphics/SVG/1.1/DTD/svg11.dtd">
<!-- Generated by graphviz version 2.44.0 (0)
 -->
<!-- Title: Splines/SplineCommon.h Pages: 1 -->
<!--zoomable 252 -->
<svg id="main" version="1.1" xmlns="http://www.w3.org/2000/svg" xmlns:xlink="http://www.w3.org/1999/xlink" xml:space="preserve" onload="init(evt)">
<style type="text/css"><![CDATA[
.edge:hover path { stroke: red; }
.edge:hover polygon { stroke: red; fill: red; }
]]></style>
<script type="text/javascript"><![CDATA[
var edges = document.getElementsByTagName('g');
if (edges && edges.length) {
  for (var i=0;i<edges.length;i++) {
    if (edges[i].id.substr(0,4)=='edge') {
      edges[i].setAttribute('class','edge');
    }
  }
}
]]></script>
        <defs>
                <circle id="rim" cx="0" cy="0" r="7"/>
                <circle id="rim2" cx="0" cy="0" r="3.5"/>
                <g id="zoomPlus">
                        <use xlink:href="#rim" fill="#404040">
                                <set attributeName="fill" to="#808080" begin="zoomplus.mouseover" end="zoomplus.mouseout"/>
                        </use>
                        <path d="M-4,0h8M0,-4v8" fill="none" stroke="white" stroke-width="1.5" pointer-events="none"/>
                </g>
                <g id="zoomMin">
                        <use xlink:href="#rim" fill="#404040">
                                <set attributeName="fill" to="#808080" begin="zoomminus.mouseover" end="zoomminus.mouseout"/>
                        </use>
                        <path d="M-4,0h8" fill="none" stroke="white" stroke-width="1.5" pointer-events="none"/>
                </g>
                <g id="dirArrow">
                        <path fill="none" stroke="white" stroke-width="1.5" d="M0,-3.0v7 M-2.5,-0.5L0,-3.0L2.5,-0.5"/>
                </g>
               <g id="resetDef">
                       <use xlink:href="#rim2" fill="#404040">
                               <set attributeName="fill" to="#808080" begin="reset.mouseover" end="reset.mouseout"/>
                       </use>
               </g>
        </defs>

<script type="text/javascript">
var viewWidth = 847;
var viewHeight = 252;
var sectionId = 'dynsection-0';
</script>
<script xlink:href="svgpan.js"/>
<svg id="graph" class="graph">
<g id="viewport">
<title>Splines/SplineCommon.h</title>
<polygon fill="white" stroke="transparent" points="-4,4 -4,-248 843,-248 843,4 -4,4"/>
<!-- Node1 -->
<g id="node1" class="node">
<title>Node1</title>
<g id="a_node1"><a xlink:title="Contains definitions for spline coefficients and structure used in both CPU and GPU code.">
<polygon fill="#bfbfbf" stroke="black" points="141.5,-224.5 141.5,-243.5 268.5,-243.5 268.5,-224.5 141.5,-224.5"/>
<text text-anchor="middle" x="205" y="-231.5" font-family="Helvetica" font-size="10.00">Splines/SplineCommon.h</text>
</a>
</g>
</g>
<!-- Node2 -->
<g id="node2" class="node">
<title>Node2</title>
<g id="a_node2"><a xlink:href="gpuSplineUtils_8cuh.html" target="_top" xlink:title="MaCh3 event&#45;by&#45;event cross&#45;section spline code.">
<polygon fill="white" stroke="black" points="68,-168.5 68,-187.5 202,-187.5 202,-168.5 68,-168.5"/>
<text text-anchor="middle" x="135" y="-175.5" font-family="Helvetica" font-size="10.00">Splines/gpuSplineUtils.cuh</text>
</a>
</g>
</g>
<!-- Node1&#45;&gt;Node2 -->
<g id="edge1" class="edge">
<title>Node1&#45;&gt;Node2</title>
<path fill="none" stroke="midnightblue" d="M185.69,-218.1C173.09,-208.38 157.07,-196.03 146.45,-187.83"/>
<polygon fill="midnightblue" stroke="midnightblue" points="183.7,-220.99 193.75,-224.32 187.97,-215.44 183.7,-220.99"/>
</g>
<!-- Node4 -->
<g id="node4" class="node">
<title>Node4</title>
<g id="a_node4"><a xlink:href="SplineBase_8h.html" target="_top" xlink:title=" ">
<polygon fill="white" stroke="black" points="291,-168.5 291,-187.5 401,-187.5 401,-168.5 291,-168.5"/>
<text text-anchor="middle" x="346" y="-175.5" font-family="Helvetica" font-size="10.00">Splines/SplineBase.h</text>
</a>
</g>
</g>
<!-- Node1&#45;&gt;Node4 -->
<g id="edge3" class="edge">
<title>Node1&#45;&gt;Node4</title>
<path fill="none" stroke="midnightblue" d="M236.93,-220.77C263.41,-210.63 300.39,-196.47 323.76,-187.52"/>
<polygon fill="midnightblue" stroke="midnightblue" points="235.43,-217.6 227.34,-224.44 237.93,-224.14 235.43,-217.6"/>
</g>
<!-- Node3 -->
<g id="node3" class="node">
<title>Node3</title>
<g id="a_node3"><a xlink:href="gpuSplineUtils_8cu.html" target="_top" xlink:title=" ">
<polygon fill="white" stroke="black" points="0,-112.5 0,-131.5 128,-131.5 128,-112.5 0,-112.5"/>
<text text-anchor="middle" x="64" y="-119.5" font-family="Helvetica" font-size="10.00">Splines/gpuSplineUtils.cu</text>
</a>
</g>
</g>
<!-- Node2&#45;&gt;Node3 -->
<g id="edge2" class="edge">
<title>Node2&#45;&gt;Node3</title>
<path fill="none" stroke="midnightblue" d="M115.41,-162.1C102.63,-152.38 86.39,-140.03 75.61,-131.83"/>
<polygon fill="midnightblue" stroke="midnightblue" points="113.51,-165.06 123.59,-168.32 117.75,-159.48 113.51,-165.06"/>
</g>
<!-- Node5 -->
<g id="node5" class="node">
<title>Node5</title>
<g id="a_node5"><a xlink:href="BinnedSplineHandler_8h.html" target="_top" xlink:title=" ">
<polygon fill="white" stroke="black" points="487.5,-112.5 487.5,-131.5 638.5,-131.5 638.5,-112.5 487.5,-112.5"/>
<text text-anchor="middle" x="563" y="-119.5" font-family="Helvetica" font-size="10.00">Splines/BinnedSplineHandler.h</text>
</a>
</g>
</g>
<!-- Node4&#45;&gt;Node5 -->
<g id="edge4" class="edge">
<title>Node4&#45;&gt;Node5</title>
<path fill="none" stroke="midnightblue" d="M390.11,-166.02C431.1,-155.82 491.3,-140.84 528.78,-131.52"/>
<polygon fill="midnightblue" stroke="midnightblue" points="389.24,-162.63 380.38,-168.44 390.93,-169.43 389.24,-162.63"/>
</g>
<!-- Node12 -->
<g id="node12" class="node">
<title>Node12</title>
<g id="a_node12"><a xlink:href="SplineBase_8cpp.html" target="_top" xlink:title=" ">
<polygon fill="white" stroke="black" points="146,-112.5 146,-131.5 266,-131.5 266,-112.5 146,-112.5"/>
<text text-anchor="middle" x="206" y="-119.5" font-family="Helvetica" font-size="10.00">Splines/SplineBase.cpp</text>
</a>
</g>
</g>
<!-- Node4&#45;&gt;Node12 -->
<g id="edge11" class="edge">
<title>Node4&#45;&gt;Node12</title>
<path fill="none" stroke="midnightblue" d="M314.3,-164.77C288,-154.63 251.28,-140.47 228.08,-131.52"/>
<polygon fill="midnightblue" stroke="midnightblue" points="313.23,-168.11 323.82,-168.44 315.75,-161.58 313.23,-168.11"/>
</g>
<!-- Node13 -->
<g id="node13" class="node">
<title>Node13</title>
<g id="a_node13"><a xlink:href="SplineMonolith_8h.html" target="_top" xlink:title=" ">
<polygon fill="white" stroke="black" points="284,-112.5 284,-131.5 408,-131.5 408,-112.5 284,-112.5"/>
<text text-anchor="middle" x="346" y="-119.5" font-family="Helvetica" font-size="10.00">Splines/SplineMonolith.h</text>
</a>
</g>
</g>
<!-- Node4&#45;&gt;Node13 -->
<g id="edge12" class="edge">
<title>Node4&#45;&gt;Node13</title>
<path fill="none" stroke="midnightblue" d="M346,-157.8C346,-148.91 346,-138.78 346,-131.75"/>
<polygon fill="midnightblue" stroke="midnightblue" points="342.5,-158.08 346,-168.08 349.5,-158.08 342.5,-158.08"/>
</g>
<!-- Node15 -->
<g id="node15" class="node">
<title>Node15</title>
<g id="a_node15"><a xlink:href="splines_8cpp.html" target="_top" xlink:title=" ">
<polygon fill="white" stroke="black" points="374,-56.5 374,-75.5 472,-75.5 472,-56.5 374,-56.5"/>
<text text-anchor="middle" x="423" y="-63.5" font-family="Helvetica" font-size="10.00">python/splines.cpp</text>
</a>
</g>
</g>
<!-- Node4&#45;&gt;Node15 -->
<g id="edge16" class="edge">
<title>Node4&#45;&gt;Node15</title>
<path fill="none" stroke="midnightblue" d="M379.38,-163.88C393.36,-156.62 408.34,-146.16 417,-132 427.76,-114.41 426.25,-88.97 424.48,-75.74"/>
<polygon fill="midnightblue" stroke="midnightblue" points="377.46,-160.91 369.96,-168.39 380.49,-167.23 377.46,-160.91"/>
</g>
<!-- Node6 -->
<g id="node6" class="node">
<title>Node6</title>
<g id="a_node6"><a xlink:href="BinnedSplineHandler_8cpp.html" target="_top" xlink:title=" ">
<polygon fill="white" stroke="black" points="654.5,-56.5 654.5,-75.5 815.5,-75.5 815.5,-56.5 654.5,-56.5"/>
<text text-anchor="middle" x="735" y="-63.5" font-family="Helvetica" font-size="10.00">Splines/BinnedSplineHandler.cpp</text>
</a>
</g>
</g>
<!-- Node5&#45;&gt;Node6 -->
<g id="edge5" class="edge">
<title>Node5&#45;&gt;Node6</title>
<path fill="none" stroke="midnightblue" d="M599.83,-109.44C632.26,-99.26 678.74,-84.66 707.87,-75.52"/>
<polygon fill="midnightblue" stroke="midnightblue" points="598.75,-106.11 590.25,-112.44 600.84,-112.79 598.75,-106.11"/>
</g>
<!-- Node7 -->
<g id="node7" class="node">
<title>Node7</title>
<g id="a_node7"><a xlink:href="SampleHandlerFD_8h.html" target="_top" xlink:title=" ">
<polygon fill="white" stroke="black" points="490,-56.5 490,-75.5 636,-75.5 636,-56.5 490,-56.5"/>
<text text-anchor="middle" x="563" y="-63.5" font-family="Helvetica" font-size="10.00">Samples/SampleHandlerFD.h</text>
</a>
</g>
</g>
<!-- Node5&#45;&gt;Node7 -->
<g id="edge6" class="edge">
<title>Node5&#45;&gt;Node7</title>
<path fill="none" stroke="midnightblue" d="M563,-101.8C563,-92.91 563,-82.78 563,-75.75"/>
<polygon fill="midnightblue" stroke="midnightblue" points="559.5,-102.08 563,-112.08 566.5,-102.08 559.5,-102.08"/>
</g>
<!-- Node8 -->
<g id="node8" class="node">
<title>Node8</title>
<g id="a_node8"><a xlink:href="SampleHandlerFD_8cpp.html" target="_top" xlink:title=" ">
<polygon fill="white" stroke="black" points="267.5,-0.5 267.5,-19.5 424.5,-19.5 424.5,-0.5 267.5,-0.5"/>
<text text-anchor="middle" x="346" y="-7.5" font-family="Helvetica" font-size="10.00">Samples/SampleHandlerFD.cpp</text>
</a>
</g>
</g>
<!-- Node7&#45;&gt;Node8 -->
<g id="edge7" class="edge">
<title>Node7&#45;&gt;Node8</title>
<path fill="none" stroke="midnightblue" d="M518.89,-54.02C477.9,-43.82 417.7,-28.84 380.22,-19.52"/>
<polygon fill="midnightblue" stroke="midnightblue" points="518.07,-57.43 528.62,-56.44 519.76,-50.63 518.07,-57.43"/>
</g>
<!-- Node9 -->
<g id="node9" class="node">
<title>Node9</title>
<g id="a_node9"><a xlink:href="FitterBase_8cpp.html" target="_top" xlink:title=" ">
<polygon fill="white" stroke="black" points="727,-0.5 727,-19.5 839,-19.5 839,-0.5 727,-0.5"/>
<text text-anchor="middle" x="783" y="-7.5" font-family="Helvetica" font-size="10.00">Fitters/FitterBase.cpp</text>
</a>
</g>
</g>
<!-- Node7&#45;&gt;Node9 -->
<g id="edge8" class="edge">
<title>Node7&#45;&gt;Node9</title>
<path fill="none" stroke="midnightblue" d="M607.72,-54.02C649.28,-43.82 710.31,-28.84 748.3,-19.52"/>
<polygon fill="midnightblue" stroke="midnightblue" points="606.74,-50.66 597.86,-56.44 608.41,-57.46 606.74,-50.66"/>
</g>
<!-- Node10 -->
<g id="node10" class="node">
<title>Node10</title>
<g id="a_node10"><a xlink:href="PredictiveThrower_8cpp.html" target="_top" xlink:title=" ">
<polygon fill="white" stroke="black" points="443,-0.5 443,-19.5 587,-19.5 587,-0.5 443,-0.5"/>
<text text-anchor="middle" x="515" y="-7.5" font-family="Helvetica" font-size="10.00">Fitters/PredictiveThrower.cpp</text>
</a>
</g>
</g>
<!-- Node7&#45;&gt;Node10 -->
<g id="edge9" class="edge">
<title>Node7&#45;&gt;Node10</title>
<path fill="none" stroke="midnightblue" d="M548.27,-48.43C539.86,-38.97 529.65,-27.48 522.78,-19.75"/>
<polygon fill="midnightblue" stroke="midnightblue" points="545.81,-50.93 555.07,-56.08 551.05,-46.28 545.81,-50.93"/>
</g>
<!-- Node11 -->
<g id="node11" class="node">
<title>Node11</title>
<g id="a_node11"><a xlink:href="samples_8cpp.html" target="_top" xlink:title=" ">
<polygon fill="white" stroke="black" points="605,-0.5 605,-19.5 709,-19.5 709,-0.5 605,-0.5"/>
<text text-anchor="middle" x="657" y="-7.5" font-family="Helvetica" font-size="10.00">python/samples.cpp</text>
</a>
</g>
</g>
<!-- Node7&#45;&gt;Node11 -->
<g id="edge10" class="edge">
<title>Node7&#45;&gt;Node11</title>
<path fill="none" stroke="midnightblue" d="M587.06,-51.18C604.36,-41.24 627.15,-28.15 641.93,-19.65"/>
<polygon fill="midnightblue" stroke="midnightblue" points="585.03,-48.31 578.1,-56.32 588.52,-54.38 585.03,-48.31"/>
</g>
<!-- Node13&#45;&gt;Node8 -->
<g id="edge14" class="edge">
<title>Node13&#45;&gt;Node8</title>
<path fill="none" stroke="midnightblue" d="M346,-102.35C346,-78.25 346,-37.31 346,-19.59"/>
<polygon fill="midnightblue" stroke="midnightblue" points="342.5,-102.37 346,-112.37 349.5,-102.37 342.5,-102.37"/>
</g>
<!-- Node14 -->
<g id="node14" class="node">
<title>Node14</title>
<g id="a_node14"><a xlink:href="SplineMonolith_8cpp.html" target="_top" xlink:title=" ">
<polygon fill="white" stroke="black" points="184,-56.5 184,-75.5 318,-75.5 318,-56.5 184,-56.5"/>
<text text-anchor="middle" x="251" y="-63.5" font-family="Helvetica" font-size="10.00">Splines/SplineMonolith.cpp</text>
</a>
</g>
</g>
<!-- Node13&#45;&gt;Node14 -->
<g id="edge13" class="edge">
<title>Node13&#45;&gt;Node14</title>
<path fill="none" stroke="midnightblue" d="M321.68,-107.18C304.2,-97.24 281.17,-84.15 266.23,-75.65"/>
<polygon fill="midnightblue" stroke="midnightblue" points="320.31,-110.43 330.74,-112.32 323.77,-104.34 320.31,-110.43"/>
</g>
<!-- Node13&#45;&gt;Node15 -->
<g id="edge15" class="edge">
<title>Node13&#45;&gt;Node15</title>
<path fill="none" stroke="midnightblue" d="M366.9,-106.34C380.91,-96.52 398.88,-83.91 410.66,-75.65"/>
<polygon fill="midnightblue" stroke="midnightblue" points="364.55,-103.72 358.37,-112.32 368.57,-109.45 364.55,-103.72"/>
</g>
</g>
</svg>
        <g id="navigator" transform="translate(0 0)" fill="#404254">
                <rect fill="#f2f5e9" fill-opacity="0.5" stroke="#606060" stroke-width=".5" x="0" y="0" width="60" height="60"/>
                <use id="zoomplus" xlink:href="#zoomPlus" x="17" y="9" onmousedown="handleZoom(evt,'in')"/>
                <use id="zoomminus" xlink:href="#zoomMin" x="42" y="9" onmousedown="handleZoom(evt,'out')"/>
                <use id="reset" xlink:href="#resetDef" x="30" y="36" onmousedown="handleReset()"/>
                <g id="arrowUp" xlink:href="#dirArrow" transform="translate(30 24)" onmousedown="handlePan(0,-1)">
                  <use xlink:href="#rim" fill="#404040">
                        <set attributeName="fill" to="#808080" begin="arrowUp.mouseover" end="arrowUp.mouseout"/>
                  </use>
                  <path fill="none" stroke="white" stroke-width="1.5" d="M0,-3.0v7 M-2.5,-0.5L0,-3.0L2.5,-0.5"/>
                </g>
                <g id="arrowRight" xlink:href="#dirArrow" transform="rotate(90) translate(36 -43)" onmousedown="handlePan(1,0)">
                  <use xlink:href="#rim" fill="#404040">
                        <set attributeName="fill" to="#808080" begin="arrowRight.mouseover" end="arrowRight.mouseout"/>
                  </use>
                  <path fill="none" stroke="white" stroke-width="1.5" d="M0,-3.0v7 M-2.5,-0.5L0,-3.0L2.5,-0.5"/>
                </g>
                <g id="arrowDown" xlink:href="#dirArrow" transform="rotate(180) translate(-30 -48)" onmousedown="handlePan(0,1)">
                  <use xlink:href="#rim" fill="#404040">
                        <set attributeName="fill" to="#808080" begin="arrowDown.mouseover" end="arrowDown.mouseout"/>
                  </use>
                  <path fill="none" stroke="white" stroke-width="1.5" d="M0,-3.0v7 M-2.5,-0.5L0,-3.0L2.5,-0.5"/>
                </g>
                <g id="arrowLeft" xlink:href="#dirArrow" transform="rotate(270) translate(-36 17)" onmousedown="handlePan(-1,0)">
                  <use xlink:href="#rim" fill="#404040">
                        <set attributeName="fill" to="#808080" begin="arrowLeft.mouseover" end="arrowLeft.mouseout"/>
                  </use>
                  <path fill="none" stroke="white" stroke-width="1.5" d="M0,-3.0v7 M-2.5,-0.5L0,-3.0L2.5,-0.5"/>
                </g>
        </g>
        <svg viewBox="0 0 15 15" width="100%" height="30px" preserveAspectRatio="xMaxYMin meet">
         <g id="arrow_out" transform="scale(0.3 0.3)">
          <a xlink:href="SplineCommon_8h__dep__incl_org.svg" target="_base">
           <rect id="button" ry="5" rx="5" y="6" x="6" height="38" width="38"
                fill="#f2f5e9" fill-opacity="0.5" stroke="#606060" stroke-width="1.0"/>
           <path id="arrow"
             d="M 11.500037,31.436501 C 11.940474,20.09759 22.043105,11.32322 32.158766,21.979434 L 37.068811,17.246167 C 37.068811,17.246167 37.088388,32 37.088388,32 L 22.160133,31.978069 C 22.160133,31.978069 26.997745,27.140456 26.997745,27.140456 C 18.528582,18.264221 13.291696,25.230495 11.500037,31.436501 z"
             style="fill:#404040;"/>
          </a>
         </g>
        </svg>
</svg>
