<?xml version="1.0" encoding="UTF-8" standalone="no"?>
<!DOCTYPE svg PUBLIC "-//W3C//DTD SVG 1.1//EN"
 "http://www.w3.org/Graphics/SVG/1.1/DTD/svg11.dtd">
<!-- Generated by graphviz version 2.44.0 (0)
 -->
<!-- Title: /__w/MaCh3/MaCh3/Splines/SplineMonolith.h Pages: 1 -->
<svg width="308pt" height="106pt"
 viewBox="0.00 0.00 307.50 106.00" xmlns="http://www.w3.org/2000/svg" xmlns:xlink="http://www.w3.org/1999/xlink">
<g id="graph0" class="graph" transform="scale(1 1) rotate(0) translate(4 102)">
<title>/__w/MaCh3/MaCh3/Splines/SplineMonolith.h</title>
<polygon fill="white" stroke="transparent" points="-4,4 -4,-102 303.5,-102 303.5,4 -4,4"/>
<!-- Node1 -->
<g id="node1" class="node">
<title>Node1</title>
<g id="a_node1"><a xlink:title=" ">
<polygon fill="#bfbfbf" stroke="black" points="79,-67.5 79,-97.5 221,-97.5 221,-67.5 79,-67.5"/>
<text text-anchor="start" x="87" y="-85.5" font-family="Helvetica" font-size="10.00">/__w/MaCh3/MaCh3/Splines</text>
<text text-anchor="middle" x="150" y="-74.5" font-family="Helvetica" font-size="10.00">/SplineMonolith.h</text>
</a>
</g>
</g>
<!-- Node2 -->
<g id="node2" class="node">
<title>Node2</title>
<g id="a_node2"><a xlink:href="SplineMonolith_8cpp.html" target="_top" xlink:title=" ">
<polygon fill="white" stroke="black" points="0,-0.5 0,-30.5 142,-30.5 142,-0.5 0,-0.5"/>
<text text-anchor="start" x="8" y="-18.5" font-family="Helvetica" font-size="10.00">/__w/MaCh3/MaCh3/Splines</text>
<text text-anchor="middle" x="71" y="-7.5" font-family="Helvetica" font-size="10.00">/SplineMonolith.cpp</text>
</a>
</g>
</g>
<!-- Node1&#45;&gt;Node2 -->
<g id="edge1" class="edge">
<title>Node1&#45;&gt;Node2</title>
<path fill="none" stroke="midnightblue" d="M124.94,-60.88C112.94,-51.01 98.87,-39.43 88.11,-30.58"/>
<polygon fill="midnightblue" stroke="midnightblue" points="122.91,-63.75 132.86,-67.4 127.36,-58.34 122.91,-63.75"/>
</g>
<!-- Node3 -->
<g id="node3" class="node">
<title>Node3</title>
<g id="a_node3"><a xlink:href="splines_8cpp.html" target="_top" xlink:title=" ">
<polygon fill="white" stroke="black" points="160.5,-0.5 160.5,-30.5 299.5,-30.5 299.5,-0.5 160.5,-0.5"/>
<text text-anchor="start" x="168.5" y="-18.5" font-family="Helvetica" font-size="10.00">/__w/MaCh3/MaCh3/python</text>
<text text-anchor="middle" x="230" y="-7.5" font-family="Helvetica" font-size="10.00">/splines.cpp</text>
</a>
</g>
</g>
<!-- Node1&#45;&gt;Node3 -->
<g id="edge2" class="edge">
<title>Node1&#45;&gt;Node3</title>
<path fill="none" stroke="midnightblue" d="M175.37,-60.88C187.53,-51.01 201.78,-39.43 212.68,-30.58"/>
<polygon fill="midnightblue" stroke="midnightblue" points="172.91,-58.37 167.36,-67.4 177.33,-63.81 172.91,-58.37"/>
</g>
</g>
</svg>
