<?xml version="1.0" encoding="UTF-8" standalone="no"?>
<!DOCTYPE svg PUBLIC "-//W3C//DTD SVG 1.1//EN"
 "http://www.w3.org/Graphics/SVG/1.1/DTD/svg11.dtd">
<!-- Generated by graphviz version 2.44.0 (0)
 -->
<!-- Title: Splines/SplineStructs.h Pages: 1 -->
<!--zoomable 252 -->
<svg id="main" version="1.1" xmlns="http://www.w3.org/2000/svg" xmlns:xlink="http://www.w3.org/1999/xlink" xml:space="preserve" onload="init(evt)">
<style type="text/css"><![CDATA[
.edge:hover path { stroke: red; }
.edge:hover polygon { stroke: red; fill: red; }
]]></style>
<script type="text/javascript"><![CDATA[
var edges = document.getElementsByTagName('g');
if (edges && edges.length) {
  for (var i=0;i<edges.length;i++) {
    if (edges[i].id.substr(0,4)=='edge') {
      edges[i].setAttribute('class','edge');
    }
  }
}
]]></script>
        <defs>
                <circle id="rim" cx="0" cy="0" r="7"/>
                <circle id="rim2" cx="0" cy="0" r="3.5"/>
                <g id="zoomPlus">
                        <use xlink:href="#rim" fill="#404040">
                                <set attributeName="fill" to="#808080" begin="zoomplus.mouseover" end="zoomplus.mouseout"/>
                        </use>
                        <path d="M-4,0h8M0,-4v8" fill="none" stroke="white" stroke-width="1.5" pointer-events="none"/>
                </g>
                <g id="zoomMin">
                        <use xlink:href="#rim" fill="#404040">
                                <set attributeName="fill" to="#808080" begin="zoomminus.mouseover" end="zoomminus.mouseout"/>
                        </use>
                        <path d="M-4,0h8" fill="none" stroke="white" stroke-width="1.5" pointer-events="none"/>
                </g>
                <g id="dirArrow">
                        <path fill="none" stroke="white" stroke-width="1.5" d="M0,-3.0v7 M-2.5,-0.5L0,-3.0L2.5,-0.5"/>
                </g>
               <g id="resetDef">
                       <use xlink:href="#rim2" fill="#404040">
                               <set attributeName="fill" to="#808080" begin="reset.mouseover" end="reset.mouseout"/>
                       </use>
               </g>
        </defs>

<script type="text/javascript">
var viewWidth = 670;
var viewHeight = 252;
var sectionId = 'dynsection-1';
</script>
<script xlink:href="svgpan.js"/>
<svg id="graph" class="graph">
<g id="viewport">
<title>Splines/SplineStructs.h</title>
<polygon fill="white" stroke="transparent" points="-4,4 -4,-248 665.5,-248 665.5,4 -4,4"/>
<!-- Node1 -->
<g id="node1" class="node">
<title>Node1</title>
<g id="a_node1"><a xlink:title="Contains structures and helper functions for handling spline representations of systematic parameters...">
<polygon fill="#bfbfbf" stroke="black" points="527,-224.5 527,-243.5 646,-243.5 646,-224.5 527,-224.5"/>
<text text-anchor="middle" x="586.5" y="-231.5" font-family="Helvetica" font-size="10.00">Splines/SplineStructs.h</text>
</a>
</g>
</g>
<!-- Node2 -->
<g id="node2" class="node">
<title>Node2</title>
<g id="a_node2"><a xlink:href="SplineBase_8h.html" target="_top" xlink:title=" ">
<polygon fill="white" stroke="black" points="467.5,-168.5 467.5,-187.5 577.5,-187.5 577.5,-168.5 467.5,-168.5"/>
<text text-anchor="middle" x="522.5" y="-175.5" font-family="Helvetica" font-size="10.00">Splines/SplineBase.h</text>
</a>
</g>
</g>
<!-- Node1&#45;&gt;Node2 -->
<g id="edge1" class="edge">
<title>Node1&#45;&gt;Node2</title>
<path fill="none" stroke="midnightblue" d="M568.51,-217.82C557.04,-208.15 542.59,-195.95 532.97,-187.83"/>
<polygon fill="midnightblue" stroke="midnightblue" points="566.32,-220.55 576.22,-224.32 570.83,-215.2 566.32,-220.55"/>
</g>
<!-- Node13 -->
<g id="node13" class="node">
<title>Node13</title>
<g id="a_node13"><a xlink:href="splines_8cpp.html" target="_top" xlink:title=" ">
<polygon fill="white" stroke="black" points="563.5,-56.5 563.5,-75.5 661.5,-75.5 661.5,-56.5 563.5,-56.5"/>
<text text-anchor="middle" x="612.5" y="-63.5" font-family="Helvetica" font-size="10.00">python/splines.cpp</text>
</a>
</g>
</g>
<!-- Node1&#45;&gt;Node13 -->
<g id="edge15" class="edge">
<title>Node1&#45;&gt;Node13</title>
<path fill="none" stroke="midnightblue" d="M592.65,-214.85C599.09,-194.84 608.76,-161.55 612.5,-132 615.02,-112.07 614.04,-88.43 613.2,-75.88"/>
<polygon fill="midnightblue" stroke="midnightblue" points="589.28,-213.9 589.47,-224.5 595.93,-216.1 589.28,-213.9"/>
</g>
<!-- Node3 -->
<g id="node3" class="node">
<title>Node3</title>
<g id="a_node3"><a xlink:href="BinnedSplineHandler_8h.html" target="_top" xlink:title=" ">
<polygon fill="white" stroke="black" points="153,-112.5 153,-131.5 304,-131.5 304,-112.5 153,-112.5"/>
<text text-anchor="middle" x="228.5" y="-119.5" font-family="Helvetica" font-size="10.00">Splines/BinnedSplineHandler.h</text>
</a>
</g>
</g>
<!-- Node2&#45;&gt;Node3 -->
<g id="edge2" class="edge">
<title>Node2&#45;&gt;Node3</title>
<path fill="none" stroke="midnightblue" d="M465.88,-166.6C410.32,-156.4 326.6,-141.02 274.87,-131.52"/>
<polygon fill="midnightblue" stroke="midnightblue" points="465.45,-170.08 475.91,-168.44 466.71,-163.19 465.45,-170.08"/>
</g>
<!-- Node10 -->
<g id="node10" class="node">
<title>Node10</title>
<g id="a_node10"><a xlink:href="SplineBase_8cpp.html" target="_top" xlink:title=" ">
<polygon fill="white" stroke="black" points="322.5,-112.5 322.5,-131.5 442.5,-131.5 442.5,-112.5 322.5,-112.5"/>
<text text-anchor="middle" x="382.5" y="-119.5" font-family="Helvetica" font-size="10.00">Splines/SplineBase.cpp</text>
</a>
</g>
</g>
<!-- Node2&#45;&gt;Node10 -->
<g id="edge9" class="edge">
<title>Node2&#45;&gt;Node10</title>
<path fill="none" stroke="midnightblue" d="M490.8,-164.77C464.5,-154.63 427.78,-140.47 404.58,-131.52"/>
<polygon fill="midnightblue" stroke="midnightblue" points="489.73,-168.11 500.32,-168.44 492.25,-161.58 489.73,-168.11"/>
</g>
<!-- Node11 -->
<g id="node11" class="node">
<title>Node11</title>
<g id="a_node11"><a xlink:href="SplineMonolith_8h.html" target="_top" xlink:title=" ">
<polygon fill="white" stroke="black" points="460.5,-112.5 460.5,-131.5 584.5,-131.5 584.5,-112.5 460.5,-112.5"/>
<text text-anchor="middle" x="522.5" y="-119.5" font-family="Helvetica" font-size="10.00">Splines/SplineMonolith.h</text>
</a>
</g>
</g>
<!-- Node2&#45;&gt;Node11 -->
<g id="edge10" class="edge">
<title>Node2&#45;&gt;Node11</title>
<path fill="none" stroke="midnightblue" d="M522.5,-157.8C522.5,-148.91 522.5,-138.78 522.5,-131.75"/>
<polygon fill="midnightblue" stroke="midnightblue" points="519,-158.08 522.5,-168.08 526,-158.08 519,-158.08"/>
</g>
<!-- Node2&#45;&gt;Node13 -->
<g id="edge14" class="edge">
<title>Node2&#45;&gt;Node13</title>
<path fill="none" stroke="midnightblue" d="M552.79,-164.04C567,-156.57 583.06,-145.87 593.5,-132 606.37,-114.9 610.54,-89.26 611.88,-75.87"/>
<polygon fill="midnightblue" stroke="midnightblue" points="551.2,-160.92 543.79,-168.49 554.31,-167.19 551.2,-160.92"/>
</g>
<!-- Node4 -->
<g id="node4" class="node">
<title>Node4</title>
<g id="a_node4"><a xlink:href="BinnedSplineHandler_8cpp.html" target="_top" xlink:title=" ">
<polygon fill="white" stroke="black" points="0,-56.5 0,-75.5 161,-75.5 161,-56.5 0,-56.5"/>
<text text-anchor="middle" x="80.5" y="-63.5" font-family="Helvetica" font-size="10.00">Splines/BinnedSplineHandler.cpp</text>
</a>
</g>
</g>
<!-- Node3&#45;&gt;Node4 -->
<g id="edge3" class="edge">
<title>Node3&#45;&gt;Node4</title>
<path fill="none" stroke="midnightblue" d="M195.35,-108.91C167.53,-98.75 128.48,-84.51 103.84,-75.52"/>
<polygon fill="midnightblue" stroke="midnightblue" points="194.46,-112.3 205.05,-112.44 196.85,-105.73 194.46,-112.3"/>
</g>
<!-- Node5 -->
<g id="node5" class="node">
<title>Node5</title>
<g id="a_node5"><a xlink:href="SampleHandlerFD_8h.html" target="_top" xlink:title=" ">
<polygon fill="white" stroke="black" points="179.5,-56.5 179.5,-75.5 325.5,-75.5 325.5,-56.5 179.5,-56.5"/>
<text text-anchor="middle" x="252.5" y="-63.5" font-family="Helvetica" font-size="10.00">Samples/SampleHandlerFD.h</text>
</a>
</g>
</g>
<!-- Node3&#45;&gt;Node5 -->
<g id="edge4" class="edge">
<title>Node3&#45;&gt;Node5</title>
<path fill="none" stroke="midnightblue" d="M236.64,-102.69C240.68,-93.59 245.38,-83.01 248.61,-75.75"/>
<polygon fill="midnightblue" stroke="midnightblue" points="233.33,-101.52 232.46,-112.08 239.72,-104.37 233.33,-101.52"/>
</g>
<!-- Node6 -->
<g id="node6" class="node">
<title>Node6</title>
<g id="a_node6"><a xlink:href="SampleHandlerFD_8cpp.html" target="_top" xlink:title=" ">
<polygon fill="white" stroke="black" points="451,-0.5 451,-19.5 608,-19.5 608,-0.5 451,-0.5"/>
<text text-anchor="middle" x="529.5" y="-7.5" font-family="Helvetica" font-size="10.00">Samples/SampleHandlerFD.cpp</text>
</a>
</g>
</g>
<!-- Node5&#45;&gt;Node6 -->
<g id="edge5" class="edge">
<title>Node5&#45;&gt;Node6</title>
<path fill="none" stroke="midnightblue" d="M306.5,-54.47C358.85,-44.27 437.27,-28.98 485.81,-19.52"/>
<polygon fill="midnightblue" stroke="midnightblue" points="305.54,-51.09 296.39,-56.44 306.88,-57.97 305.54,-51.09"/>
</g>
<!-- Node7 -->
<g id="node7" class="node">
<title>Node7</title>
<g id="a_node7"><a xlink:href="FitterBase_8cpp.html" target="_top" xlink:title=" ">
<polygon fill="white" stroke="black" points="158.5,-0.5 158.5,-19.5 270.5,-19.5 270.5,-0.5 158.5,-0.5"/>
<text text-anchor="middle" x="214.5" y="-7.5" font-family="Helvetica" font-size="10.00">Fitters/FitterBase.cpp</text>
</a>
</g>
</g>
<!-- Node5&#45;&gt;Node7 -->
<g id="edge6" class="edge">
<title>Node5&#45;&gt;Node7</title>
<path fill="none" stroke="midnightblue" d="M240.44,-47.86C233.86,-38.5 225.99,-27.33 220.66,-19.75"/>
<polygon fill="midnightblue" stroke="midnightblue" points="237.61,-49.92 246.23,-56.08 243.33,-45.89 237.61,-49.92"/>
</g>
<!-- Node8 -->
<g id="node8" class="node">
<title>Node8</title>
<g id="a_node8"><a xlink:href="PredictiveThrower_8cpp.html" target="_top" xlink:title=" ">
<polygon fill="white" stroke="black" points="288.5,-0.5 288.5,-19.5 432.5,-19.5 432.5,-0.5 288.5,-0.5"/>
<text text-anchor="middle" x="360.5" y="-7.5" font-family="Helvetica" font-size="10.00">Fitters/PredictiveThrower.cpp</text>
</a>
</g>
</g>
<!-- Node5&#45;&gt;Node8 -->
<g id="edge7" class="edge">
<title>Node5&#45;&gt;Node8</title>
<path fill="none" stroke="midnightblue" d="M279.05,-51.73C299.05,-41.73 325.89,-28.31 343.19,-19.65"/>
<polygon fill="midnightblue" stroke="midnightblue" points="277.23,-48.72 269.85,-56.32 280.36,-54.98 277.23,-48.72"/>
</g>
<!-- Node9 -->
<g id="node9" class="node">
<title>Node9</title>
<g id="a_node9"><a xlink:href="samples_8cpp.html" target="_top" xlink:title=" ">
<polygon fill="white" stroke="black" points="36.5,-0.5 36.5,-19.5 140.5,-19.5 140.5,-0.5 36.5,-0.5"/>
<text text-anchor="middle" x="88.5" y="-7.5" font-family="Helvetica" font-size="10.00">python/samples.cpp</text>
</a>
</g>
</g>
<!-- Node5&#45;&gt;Node9 -->
<g id="edge8" class="edge">
<title>Node5&#45;&gt;Node9</title>
<path fill="none" stroke="midnightblue" d="M216.98,-53.3C186.08,-43.13 142.03,-28.62 114.36,-19.52"/>
<polygon fill="midnightblue" stroke="midnightblue" points="215.92,-56.64 226.51,-56.44 218.11,-49.99 215.92,-56.64"/>
</g>
<!-- Node11&#45;&gt;Node6 -->
<g id="edge12" class="edge">
<title>Node11&#45;&gt;Node6</title>
<path fill="none" stroke="midnightblue" d="M523.69,-102.35C525.22,-78.25 527.83,-37.31 528.95,-19.59"/>
<polygon fill="midnightblue" stroke="midnightblue" points="520.19,-102.17 523.05,-112.37 527.18,-102.61 520.19,-102.17"/>
</g>
<!-- Node12 -->
<g id="node12" class="node">
<title>Node12</title>
<g id="a_node12"><a xlink:href="SplineMonolith_8cpp.html" target="_top" xlink:title=" ">
<polygon fill="white" stroke="black" points="367.5,-56.5 367.5,-75.5 501.5,-75.5 501.5,-56.5 367.5,-56.5"/>
<text text-anchor="middle" x="434.5" y="-63.5" font-family="Helvetica" font-size="10.00">Splines/SplineMonolith.cpp</text>
</a>
</g>
</g>
<!-- Node11&#45;&gt;Node12 -->
<g id="edge11" class="edge">
<title>Node11&#45;&gt;Node12</title>
<path fill="none" stroke="midnightblue" d="M499.52,-106.9C483.39,-97 462.32,-84.07 448.6,-75.65"/>
<polygon fill="midnightblue" stroke="midnightblue" points="498.01,-110.08 508.36,-112.32 501.67,-104.11 498.01,-110.08"/>
</g>
<!-- Node11&#45;&gt;Node13 -->
<g id="edge13" class="edge">
<title>Node11&#45;&gt;Node13</title>
<path fill="none" stroke="midnightblue" d="M545.54,-107.18C562.1,-97.24 583.92,-84.15 598.08,-75.65"/>
<polygon fill="midnightblue" stroke="midnightblue" points="543.73,-104.18 536.96,-112.32 547.34,-110.18 543.73,-104.18"/>
</g>
</g>
</svg>
        <g id="navigator" transform="translate(0 0)" fill="#404254">
                <rect fill="#f2f5e9" fill-opacity="0.5" stroke="#606060" stroke-width=".5" x="0" y="0" width="60" height="60"/>
                <use id="zoomplus" xlink:href="#zoomPlus" x="17" y="9" onmousedown="handleZoom(evt,'in')"/>
                <use id="zoomminus" xlink:href="#zoomMin" x="42" y="9" onmousedown="handleZoom(evt,'out')"/>
                <use id="reset" xlink:href="#resetDef" x="30" y="36" onmousedown="handleReset()"/>
                <g id="arrowUp" xlink:href="#dirArrow" transform="translate(30 24)" onmousedown="handlePan(0,-1)">
                  <use xlink:href="#rim" fill="#404040">
                        <set attributeName="fill" to="#808080" begin="arrowUp.mouseover" end="arrowUp.mouseout"/>
                  </use>
                  <path fill="none" stroke="white" stroke-width="1.5" d="M0,-3.0v7 M-2.5,-0.5L0,-3.0L2.5,-0.5"/>
                </g>
                <g id="arrowRight" xlink:href="#dirArrow" transform="rotate(90) translate(36 -43)" onmousedown="handlePan(1,0)">
                  <use xlink:href="#rim" fill="#404040">
                        <set attributeName="fill" to="#808080" begin="arrowRight.mouseover" end="arrowRight.mouseout"/>
                  </use>
                  <path fill="none" stroke="white" stroke-width="1.5" d="M0,-3.0v7 M-2.5,-0.5L0,-3.0L2.5,-0.5"/>
                </g>
                <g id="arrowDown" xlink:href="#dirArrow" transform="rotate(180) translate(-30 -48)" onmousedown="handlePan(0,1)">
                  <use xlink:href="#rim" fill="#404040">
                        <set attributeName="fill" to="#808080" begin="arrowDown.mouseover" end="arrowDown.mouseout"/>
                  </use>
                  <path fill="none" stroke="white" stroke-width="1.5" d="M0,-3.0v7 M-2.5,-0.5L0,-3.0L2.5,-0.5"/>
                </g>
                <g id="arrowLeft" xlink:href="#dirArrow" transform="rotate(270) translate(-36 17)" onmousedown="handlePan(-1,0)">
                  <use xlink:href="#rim" fill="#404040">
                        <set attributeName="fill" to="#808080" begin="arrowLeft.mouseover" end="arrowLeft.mouseout"/>
                  </use>
                  <path fill="none" stroke="white" stroke-width="1.5" d="M0,-3.0v7 M-2.5,-0.5L0,-3.0L2.5,-0.5"/>
                </g>
        </g>
        <svg viewBox="0 0 15 15" width="100%" height="30px" preserveAspectRatio="xMaxYMin meet">
         <g id="arrow_out" transform="scale(0.3 0.3)">
          <a xlink:href="SplineStructs_8h__dep__incl_org.svg" target="_base">
           <rect id="button" ry="5" rx="5" y="6" x="6" height="38" width="38"
                fill="#f2f5e9" fill-opacity="0.5" stroke="#606060" stroke-width="1.0"/>
           <path id="arrow"
             d="M 11.500037,31.436501 C 11.940474,20.09759 22.043105,11.32322 32.158766,21.979434 L 37.068811,17.246167 C 37.068811,17.246167 37.088388,32 37.088388,32 L 22.160133,31.978069 C 22.160133,31.978069 26.997745,27.140456 26.997745,27.140456 C 18.528582,18.264221 13.291696,25.230495 11.500037,31.436501 z"
             style="fill:#404040;"/>
          </a>
         </g>
        </svg>
</svg>
