<?xml version="1.0" encoding="UTF-8" standalone="no"?>
<!DOCTYPE svg PUBLIC "-//W3C//DTD SVG 1.1//EN"
 "http://www.w3.org/Graphics/SVG/1.1/DTD/svg11.dtd">
<!-- Generated by graphviz version 2.44.0 (0)
 -->
<!-- Title: python/splines.cpp Pages: 1 -->
<svg width="1813pt" height="733pt"
 viewBox="0.00 0.00 1812.50 733.00" xmlns="http://www.w3.org/2000/svg" xmlns:xlink="http://www.w3.org/1999/xlink">
<g id="graph0" class="graph" transform="scale(1 1) rotate(0) translate(4 729)">
<title>python/splines.cpp</title>
<polygon fill="white" stroke="transparent" points="-4,4 -4,-729 1808.5,-729 1808.5,4 -4,4"/>
<!-- Node1 -->
<g id="node1" class="node">
<title>Node1</title>
<g id="a_node1"><a xlink:title=" ">
<polygon fill="#bfbfbf" stroke="black" points="319,-705.5 319,-724.5 417,-724.5 417,-705.5 319,-705.5"/>
<text text-anchor="middle" x="368" y="-712.5" font-family="Helvetica" font-size="10.00">python/splines.cpp</text>
</a>
</g>
</g>
<!-- Node2 -->
<g id="node2" class="node">
<title>Node2</title>
<g id="a_node2"><a xlink:title=" ">
<polygon fill="white" stroke="#bfbfbf" points="0,-649.5 0,-668.5 106,-668.5 106,-649.5 0,-649.5"/>
<text text-anchor="middle" x="53" y="-656.5" font-family="Helvetica" font-size="10.00">pybind11/pybind11.h</text>
</a>
</g>
</g>
<!-- Node1&#45;&gt;Node2 -->
<g id="edge1" class="edge">
<title>Node1&#45;&gt;Node2</title>
<path fill="none" stroke="midnightblue" d="M318.78,-705.56C263.09,-696.01 172.37,-680.46 112.69,-670.23"/>
<polygon fill="midnightblue" stroke="midnightblue" points="113.1,-666.75 102.65,-668.51 111.92,-673.65 113.1,-666.75"/>
</g>
<!-- Node3 -->
<g id="node3" class="node">
<title>Node3</title>
<g id="a_node3"><a xlink:title=" ">
<polygon fill="white" stroke="#bfbfbf" points="124.5,-649.5 124.5,-668.5 201.5,-668.5 201.5,-649.5 124.5,-649.5"/>
<text text-anchor="middle" x="163" y="-656.5" font-family="Helvetica" font-size="10.00">pybind11/stl.h</text>
</a>
</g>
</g>
<!-- Node1&#45;&gt;Node3 -->
<g id="edge2" class="edge">
<title>Node1&#45;&gt;Node3</title>
<path fill="none" stroke="midnightblue" d="M335.52,-705.44C300.28,-696.16 243.9,-681.31 205.24,-671.13"/>
<polygon fill="midnightblue" stroke="midnightblue" points="205.89,-667.68 195.33,-668.52 204.11,-674.45 205.89,-667.68"/>
</g>
<!-- Node4 -->
<g id="node4" class="node">
<title>Node4</title>
<g id="a_node4"><a xlink:title=" ">
<polygon fill="white" stroke="#bfbfbf" points="219.5,-649.5 219.5,-668.5 314.5,-668.5 314.5,-649.5 219.5,-649.5"/>
<text text-anchor="middle" x="267" y="-656.5" font-family="Helvetica" font-size="10.00">pybind11/numpy.h</text>
</a>
</g>
</g>
<!-- Node1&#45;&gt;Node4 -->
<g id="edge3" class="edge">
<title>Node1&#45;&gt;Node4</title>
<path fill="none" stroke="midnightblue" d="M351.77,-705.32C335.65,-696.7 310.7,-683.36 292.04,-673.39"/>
<polygon fill="midnightblue" stroke="midnightblue" points="293.66,-670.28 283.19,-668.65 290.36,-676.46 293.66,-670.28"/>
</g>
<!-- Node5 -->
<g id="node5" class="node">
<title>Node5</title>
<g id="a_node5"><a xlink:href="SplineBase_8h.html" target="_top" xlink:title=" ">
<polygon fill="white" stroke="black" points="1215,-593.5 1215,-612.5 1325,-612.5 1325,-593.5 1215,-593.5"/>
<text text-anchor="middle" x="1270" y="-600.5" font-family="Helvetica" font-size="10.00">Splines/SplineBase.h</text>
</a>
</g>
</g>
<!-- Node1&#45;&gt;Node5 -->
<g id="edge4" class="edge">
<title>Node1&#45;&gt;Node5</title>
<path fill="none" stroke="midnightblue" d="M417.14,-708.01C569.26,-689.46 1032.57,-632.96 1204.7,-611.96"/>
<polygon fill="midnightblue" stroke="midnightblue" points="1205.38,-615.41 1214.88,-610.72 1204.53,-608.46 1205.38,-615.41"/>
</g>
<!-- Node8 -->
<g id="node8" class="node">
<title>Node8</title>
<g id="a_node8"><a xlink:href="SplineStructs_8h.html" target="_top" xlink:title="Contains structures and helper functions for handling spline representations of systematic parameters...">
<polygon fill="white" stroke="black" points="352.5,-537.5 352.5,-556.5 471.5,-556.5 471.5,-537.5 352.5,-537.5"/>
<text text-anchor="middle" x="412" y="-544.5" font-family="Helvetica" font-size="10.00">Splines/SplineStructs.h</text>
</a>
</g>
</g>
<!-- Node1&#45;&gt;Node8 -->
<g id="edge84" class="edge">
<title>Node1&#45;&gt;Node8</title>
<path fill="none" stroke="midnightblue" d="M370.37,-705.08C377.29,-678.95 397.63,-602.21 407.08,-566.58"/>
<polygon fill="midnightblue" stroke="midnightblue" points="410.55,-567.13 409.73,-556.57 403.78,-565.34 410.55,-567.13"/>
</g>
<!-- Node12 -->
<g id="node12" class="node">
<title>Node12</title>
<g id="a_node12"><a xlink:href="SampleStructs_8h.html" target="_top" xlink:title=" ">
<polygon fill="white" stroke="black" points="648.5,-224.5 648.5,-243.5 779.5,-243.5 779.5,-224.5 648.5,-224.5"/>
<text text-anchor="middle" x="714" y="-231.5" font-family="Helvetica" font-size="10.00">Samples/SampleStructs.h</text>
</a>
</g>
</g>
<!-- Node1&#45;&gt;Node12 -->
<g id="edge85" class="edge">
<title>Node1&#45;&gt;Node12</title>
<path fill="none" stroke="midnightblue" d="M417.17,-712.87C488.18,-708.32 611,-688.28 611,-604 611,-604 611,-604 611,-356 611,-307.75 659.08,-268.95 689.54,-249.21"/>
<polygon fill="midnightblue" stroke="midnightblue" points="691.73,-251.97 698.36,-243.7 688.02,-246.03 691.73,-251.97"/>
</g>
<!-- Node30 -->
<g id="node30" class="node">
<title>Node30</title>
<g id="a_node30"><a xlink:title=" ">
<polygon fill="white" stroke="#bfbfbf" points="295,-168.5 295,-187.5 353,-187.5 353,-168.5 295,-168.5"/>
<text text-anchor="middle" x="324" y="-175.5" font-family="Helvetica" font-size="10.00">TSpline.h</text>
</a>
</g>
</g>
<!-- Node1&#45;&gt;Node30 -->
<g id="edge86" class="edge">
<title>Node1&#45;&gt;Node30</title>
<path fill="none" stroke="midnightblue" d="M365.11,-705.44C355.32,-675.61 324,-573.39 324,-486.5 324,-486.5 324,-486.5 324,-294.5 324,-260.36 324,-220.55 324,-197.71"/>
<polygon fill="midnightblue" stroke="midnightblue" points="327.5,-197.69 324,-187.69 320.5,-197.69 327.5,-197.69"/>
</g>
<!-- Node74 -->
<g id="node50" class="node">
<title>Node74</title>
<g id="a_node50"><a xlink:href="SplineMonolith_8h.html" target="_top" xlink:title=" ">
<polygon fill="white" stroke="black" points="1075,-649.5 1075,-668.5 1199,-668.5 1199,-649.5 1075,-649.5"/>
<text text-anchor="middle" x="1137" y="-656.5" font-family="Helvetica" font-size="10.00">Splines/SplineMonolith.h</text>
</a>
</g>
</g>
<!-- Node1&#45;&gt;Node74 -->
<g id="edge82" class="edge">
<title>Node1&#45;&gt;Node74</title>
<path fill="none" stroke="midnightblue" d="M417.27,-710.54C548.92,-701.3 909.34,-675.99 1064.45,-665.09"/>
<polygon fill="midnightblue" stroke="midnightblue" points="1065.08,-668.56 1074.81,-664.37 1064.59,-661.58 1065.08,-668.56"/>
</g>
<!-- Node6 -->
<g id="node6" class="node">
<title>Node6</title>
<g id="a_node6"><a xlink:title=" ">
<polygon fill="white" stroke="#bfbfbf" points="1158.5,-537.5 1158.5,-556.5 1203.5,-556.5 1203.5,-537.5 1158.5,-537.5"/>
<text text-anchor="middle" x="1181" y="-544.5" font-family="Helvetica" font-size="10.00">cstdlib</text>
</a>
</g>
</g>
<!-- Node5&#45;&gt;Node6 -->
<g id="edge5" class="edge">
<title>Node5&#45;&gt;Node6</title>
<path fill="none" stroke="midnightblue" d="M1255.7,-593.32C1241.82,-584.9 1220.51,-571.97 1204.2,-562.07"/>
<polygon fill="midnightblue" stroke="midnightblue" points="1205.63,-558.85 1195.26,-556.65 1202,-564.83 1205.63,-558.85"/>
</g>
<!-- Node7 -->
<g id="node7" class="node">
<title>Node7</title>
<g id="a_node7"><a xlink:title=" ">
<polygon fill="white" stroke="#bfbfbf" points="1194,-0.5 1194,-19.5 1244,-19.5 1244,-0.5 1194,-0.5"/>
<text text-anchor="middle" x="1219" y="-7.5" font-family="Helvetica" font-size="10.00">iomanip</text>
</a>
</g>
</g>
<!-- Node5&#45;&gt;Node7 -->
<g id="edge6" class="edge">
<title>Node5&#45;&gt;Node7</title>
<path fill="none" stroke="midnightblue" d="M1280.89,-593.42C1301.9,-575.82 1346,-533.31 1346,-486.5 1346,-486.5 1346,-486.5 1346,-121 1346,-71.87 1291.01,-39.77 1253.4,-23.56"/>
<polygon fill="midnightblue" stroke="midnightblue" points="1254.37,-20.17 1243.79,-19.59 1251.7,-26.64 1254.37,-20.17"/>
</g>
<!-- Node5&#45;&gt;Node8 -->
<g id="edge7" class="edge">
<title>Node5&#45;&gt;Node8</title>
<path fill="none" stroke="midnightblue" d="M1214.69,-598.52C1064.23,-589.05 647.66,-562.83 481.62,-552.38"/>
<polygon fill="midnightblue" stroke="midnightblue" points="481.73,-548.88 471.53,-551.75 481.29,-555.87 481.73,-548.88"/>
</g>
<!-- Node32 -->
<g id="node32" class="node">
<title>Node32</title>
<g id="a_node32"><a xlink:title=" ">
<polygon fill="white" stroke="#bfbfbf" points="1270.5,-168.5 1270.5,-187.5 1317.5,-187.5 1317.5,-168.5 1270.5,-168.5"/>
<text text-anchor="middle" x="1294" y="-175.5" font-family="Helvetica" font-size="10.00">TFile.h</text>
</a>
</g>
</g>
<!-- Node5&#45;&gt;Node32 -->
<g id="edge73" class="edge">
<title>Node5&#45;&gt;Node32</title>
<path fill="none" stroke="midnightblue" d="M1274.97,-593.34C1285.27,-574.53 1308,-528.3 1308,-486.5 1308,-486.5 1308,-486.5 1308,-294.5 1308,-260.11 1301.81,-220.38 1297.66,-197.63"/>
<polygon fill="midnightblue" stroke="midnightblue" points="1301.07,-196.82 1295.77,-187.65 1294.19,-198.13 1301.07,-196.82"/>
</g>
<!-- Node44 -->
<g id="node39" class="node">
<title>Node44</title>
<g id="a_node39"><a xlink:title=" ">
<polygon fill="white" stroke="#bfbfbf" points="1221,-224.5 1221,-243.5 1271,-243.5 1271,-224.5 1221,-224.5"/>
<text text-anchor="middle" x="1246" y="-231.5" font-family="Helvetica" font-size="10.00">TTree.h</text>
</a>
</g>
</g>
<!-- Node5&#45;&gt;Node44 -->
<g id="edge81" class="edge">
<title>Node5&#45;&gt;Node44</title>
<path fill="none" stroke="midnightblue" d="M1270,-593.31C1270,-574.06 1270,-526.4 1270,-486.5 1270,-486.5 1270,-486.5 1270,-356 1270,-319.02 1259.08,-276.88 1251.97,-253.37"/>
<polygon fill="midnightblue" stroke="midnightblue" points="1255.27,-252.18 1248.94,-243.69 1248.59,-254.28 1255.27,-252.18"/>
</g>
<!-- Node47 -->
<g id="node40" class="node">
<title>Node47</title>
<g id="a_node40"><a xlink:title=" ">
<polygon fill="white" stroke="#bfbfbf" points="1028.5,-224.5 1028.5,-243.5 1105.5,-243.5 1105.5,-224.5 1028.5,-224.5"/>
<text text-anchor="middle" x="1067" y="-231.5" font-family="Helvetica" font-size="10.00">TStopwatch.h</text>
</a>
</g>
</g>
<!-- Node5&#45;&gt;Node47 -->
<g id="edge78" class="edge">
<title>Node5&#45;&gt;Node47</title>
<path fill="none" stroke="midnightblue" d="M1214.68,-596.46C1164.28,-590.15 1095.16,-577.91 1078,-557 1039.91,-510.6 1057.96,-315.6 1064.79,-253.84"/>
<polygon fill="midnightblue" stroke="midnightblue" points="1068.3,-253.97 1065.95,-243.64 1061.34,-253.18 1068.3,-253.97"/>
</g>
<!-- Node63 -->
<g id="node41" class="node">
<title>Node63</title>
<g id="a_node41"><a xlink:title=" ">
<polygon fill="white" stroke="#bfbfbf" points="1137.5,-224.5 1137.5,-243.5 1184.5,-243.5 1184.5,-224.5 1137.5,-224.5"/>
<text text-anchor="middle" x="1161" y="-231.5" font-family="Helvetica" font-size="10.00">TKey.h</text>
</a>
</g>
</g>
<!-- Node5&#45;&gt;Node63 -->
<g id="edge75" class="edge">
<title>Node5&#45;&gt;Node63</title>
<path fill="none" stroke="midnightblue" d="M1265.03,-593.34C1254.73,-574.53 1232,-528.3 1232,-486.5 1232,-486.5 1232,-486.5 1232,-356 1232,-313.45 1198.94,-272.63 1177.94,-250.99"/>
<polygon fill="midnightblue" stroke="midnightblue" points="1180.14,-248.24 1170.58,-243.67 1175.2,-253.2 1180.14,-248.24"/>
</g>
<!-- Node68 -->
<g id="node44" class="node">
<title>Node68</title>
<g id="a_node44"><a xlink:href="SplineCommon_8h.html" target="_top" xlink:title="Contains definitions for spline coefficients and structure used in both CPU and GPU code.">
<polygon fill="white" stroke="black" points="1374.5,-537.5 1374.5,-556.5 1501.5,-556.5 1501.5,-537.5 1374.5,-537.5"/>
<text text-anchor="middle" x="1438" y="-544.5" font-family="Helvetica" font-size="10.00">Splines/SplineCommon.h</text>
</a>
</g>
</g>
<!-- Node5&#45;&gt;Node68 -->
<g id="edge72" class="edge">
<title>Node5&#45;&gt;Node68</title>
<path fill="none" stroke="midnightblue" d="M1296.62,-593.44C1325.01,-584.32 1370.14,-569.81 1401.75,-559.65"/>
<polygon fill="midnightblue" stroke="midnightblue" points="1403.06,-562.91 1411.5,-556.52 1400.91,-556.24 1403.06,-562.91"/>
</g>
<!-- Node69 -->
<g id="node45" class="node">
<title>Node69</title>
<g id="a_node45"><a xlink:title=" ">
<polygon fill="white" stroke="#bfbfbf" points="1519.5,-537.5 1519.5,-556.5 1568.5,-556.5 1568.5,-537.5 1519.5,-537.5"/>
<text text-anchor="middle" x="1544" y="-544.5" font-family="Helvetica" font-size="10.00">TH1F.h</text>
</a>
</g>
</g>
<!-- Node5&#45;&gt;Node69 -->
<g id="edge74" class="edge">
<title>Node5&#45;&gt;Node69</title>
<path fill="none" stroke="midnightblue" d="M1322.44,-593.48C1369.23,-585.59 1439.8,-572.99 1509.38,-557.24"/>
<polygon fill="midnightblue" stroke="midnightblue" points="1510.22,-560.64 1519.19,-555 1508.66,-553.82 1510.22,-560.64"/>
</g>
<!-- Node70 -->
<g id="node46" class="node">
<title>Node70</title>
<g id="a_node46"><a xlink:title=" ">
<polygon fill="white" stroke="#bfbfbf" points="1587,-537.5 1587,-556.5 1643,-556.5 1643,-537.5 1587,-537.5"/>
<text text-anchor="middle" x="1615" y="-544.5" font-family="Helvetica" font-size="10.00">TString.h</text>
</a>
</g>
</g>
<!-- Node5&#45;&gt;Node70 -->
<g id="edge76" class="edge">
<title>Node5&#45;&gt;Node70</title>
<path fill="none" stroke="midnightblue" d="M1325.06,-595.53C1384.78,-588.17 1483.07,-575.02 1576.84,-557.08"/>
<polygon fill="midnightblue" stroke="midnightblue" points="1577.63,-560.49 1586.78,-555.15 1576.3,-553.62 1577.63,-560.49"/>
</g>
<!-- Node71 -->
<g id="node47" class="node">
<title>Node71</title>
<g id="a_node47"><a xlink:title=" ">
<polygon fill="white" stroke="#bfbfbf" points="1661,-537.5 1661,-556.5 1723,-556.5 1723,-537.5 1661,-537.5"/>
<text text-anchor="middle" x="1692" y="-544.5" font-family="Helvetica" font-size="10.00">TIterator.h</text>
</a>
</g>
</g>
<!-- Node5&#45;&gt;Node71 -->
<g id="edge77" class="edge">
<title>Node5&#45;&gt;Node71</title>
<path fill="none" stroke="midnightblue" d="M1325.29,-597.31C1397.78,-590.75 1529.05,-577.5 1650.41,-557.12"/>
<polygon fill="midnightblue" stroke="midnightblue" points="1651.35,-560.51 1660.62,-555.38 1650.17,-553.61 1651.35,-560.51"/>
</g>
<!-- Node72 -->
<g id="node48" class="node">
<title>Node72</title>
<g id="a_node48"><a xlink:title=" ">
<polygon fill="white" stroke="#bfbfbf" points="1741.5,-537.5 1741.5,-556.5 1804.5,-556.5 1804.5,-537.5 1741.5,-537.5"/>
<text text-anchor="middle" x="1773" y="-544.5" font-family="Helvetica" font-size="10.00">TCanvas.h</text>
</a>
</g>
</g>
<!-- Node5&#45;&gt;Node72 -->
<g id="edge79" class="edge">
<title>Node5&#45;&gt;Node72</title>
<path fill="none" stroke="midnightblue" d="M1325.03,-598.77C1410.02,-593.3 1578.49,-580.62 1731.25,-556.93"/>
<polygon fill="midnightblue" stroke="midnightblue" points="1731.95,-560.36 1741.29,-555.35 1730.86,-553.45 1731.95,-560.36"/>
</g>
<!-- Node73 -->
<g id="node49" class="node">
<title>Node73</title>
<g id="a_node49"><a xlink:title=" ">
<polygon fill="white" stroke="#bfbfbf" points="1087.5,-537.5 1087.5,-556.5 1140.5,-556.5 1140.5,-537.5 1087.5,-537.5"/>
<text text-anchor="middle" x="1114" y="-544.5" font-family="Helvetica" font-size="10.00">TStyle.h</text>
</a>
</g>
</g>
<!-- Node5&#45;&gt;Node73 -->
<g id="edge80" class="edge">
<title>Node5&#45;&gt;Node73</title>
<path fill="none" stroke="midnightblue" d="M1245.28,-593.44C1219.15,-584.4 1177.74,-570.06 1148.42,-559.92"/>
<polygon fill="midnightblue" stroke="midnightblue" points="1149.2,-556.48 1138.6,-556.52 1146.91,-563.1 1149.2,-556.48"/>
</g>
<!-- Node9 -->
<g id="node9" class="node">
<title>Node9</title>
<g id="a_node9"><a xlink:href="ParameterHandlerGeneric_8h.html" target="_top" xlink:title=" ">
<polygon fill="white" stroke="black" points="433.5,-470.5 433.5,-500.5 582.5,-500.5 582.5,-470.5 433.5,-470.5"/>
<text text-anchor="start" x="441.5" y="-488.5" font-family="Helvetica" font-size="10.00">Parameters/ParameterHandler</text>
<text text-anchor="middle" x="508" y="-477.5" font-family="Helvetica" font-size="10.00">Generic.h</text>
</a>
</g>
</g>
<!-- Node8&#45;&gt;Node9 -->
<g id="edge8" class="edge">
<title>Node8&#45;&gt;Node9</title>
<path fill="none" stroke="midnightblue" d="M425.75,-537.48C439,-529.27 459.5,-516.56 476.72,-505.88"/>
<polygon fill="midnightblue" stroke="midnightblue" points="478.72,-508.77 485.37,-500.52 475.03,-502.82 478.72,-508.77"/>
</g>
<!-- Node27 -->
<g id="node27" class="node">
<title>Node27</title>
<g id="a_node27"><a xlink:title=" ">
<polygon fill="white" stroke="#bfbfbf" points="340,-0.5 340,-19.5 384,-19.5 384,-0.5 340,-0.5"/>
<text text-anchor="middle" x="362" y="-7.5" font-family="Helvetica" font-size="10.00">cmath</text>
</a>
</g>
</g>
<!-- Node8&#45;&gt;Node27 -->
<g id="edge71" class="edge">
<title>Node8&#45;&gt;Node27</title>
<path fill="none" stroke="midnightblue" d="M407.07,-537.25C385.36,-498.14 298.05,-334.78 270,-188 257.53,-122.74 315.42,-55.88 345.22,-26.48"/>
<polygon fill="midnightblue" stroke="midnightblue" points="347.67,-28.97 352.46,-19.52 342.83,-23.92 347.67,-28.97"/>
</g>
<!-- Node49 -->
<g id="node38" class="node">
<title>Node49</title>
<g id="a_node38"><a xlink:href="ParameterStructs_8h.html" target="_top" xlink:title="Definitions of generic parameter structs and utility templates for MaCh3.">
<polygon fill="white" stroke="black" points="474.5,-224.5 474.5,-243.5 629.5,-243.5 629.5,-224.5 474.5,-224.5"/>
<text text-anchor="middle" x="552" y="-231.5" font-family="Helvetica" font-size="10.00">Parameters/ParameterStructs.h</text>
</a>
</g>
</g>
<!-- Node8&#45;&gt;Node49 -->
<g id="edge70" class="edge">
<title>Node8&#45;&gt;Node49</title>
<path fill="none" stroke="midnightblue" d="M411.2,-537.42C409.36,-517.01 405,-463.93 405,-419.5 405,-419.5 405,-419.5 405,-356 405,-299 471.71,-263.88 515.25,-247.04"/>
<polygon fill="midnightblue" stroke="midnightblue" points="516.54,-250.29 524.69,-243.52 514.1,-243.73 516.54,-250.29"/>
</g>
<!-- Node10 -->
<g id="node10" class="node">
<title>Node10</title>
<g id="a_node10"><a xlink:href="ParameterHandlerBase_8h.html" target="_top" xlink:title=" ">
<polygon fill="white" stroke="red" points="669.5,-403.5 669.5,-433.5 818.5,-433.5 818.5,-403.5 669.5,-403.5"/>
<text text-anchor="start" x="677.5" y="-421.5" font-family="Helvetica" font-size="10.00">Parameters/ParameterHandler</text>
<text text-anchor="middle" x="744" y="-410.5" font-family="Helvetica" font-size="10.00">Base.h</text>
</a>
</g>
</g>
<!-- Node9&#45;&gt;Node10 -->
<g id="edge9" class="edge">
<title>Node9&#45;&gt;Node10</title>
<path fill="none" stroke="midnightblue" d="M558.92,-470.48C595.24,-460.47 644.26,-446.97 682.72,-436.38"/>
<polygon fill="midnightblue" stroke="midnightblue" points="684.05,-439.64 692.77,-433.61 682.2,-432.89 684.05,-439.64"/>
</g>
<!-- Node9&#45;&gt;Node12 -->
<g id="edge69" class="edge">
<title>Node9&#45;&gt;Node12</title>
<path fill="none" stroke="midnightblue" d="M510.27,-470.46C516.87,-433.97 539.39,-335.17 597,-280 614.04,-263.68 637.63,-253.12 659.16,-246.36"/>
<polygon fill="midnightblue" stroke="midnightblue" points="660.27,-249.68 668.88,-243.51 658.3,-242.96 660.27,-249.68"/>
</g>
<!-- Node11 -->
<g id="node11" class="node">
<title>Node11</title>
<g id="a_node11"><a xlink:href="Manager_8h.html" target="_top" xlink:title=" ">
<polygon fill="white" stroke="red" points="692.5,-286 692.5,-305 795.5,-305 795.5,-286 692.5,-286"/>
<text text-anchor="middle" x="744" y="-293" font-family="Helvetica" font-size="10.00">Manager/Manager.h</text>
</a>
</g>
</g>
<!-- Node10&#45;&gt;Node11 -->
<g id="edge10" class="edge">
<title>Node10&#45;&gt;Node11</title>
<path fill="none" stroke="midnightblue" d="M708.86,-403.45C693.39,-395.29 676.76,-383.34 668,-367 654.82,-342.42 685.45,-321.76 711.67,-309.29"/>
<polygon fill="midnightblue" stroke="midnightblue" points="713.36,-312.37 721.05,-305.07 710.49,-305.98 713.36,-312.37"/>
</g>
<!-- Node48 -->
<g id="node37" class="node">
<title>Node48</title>
<g id="a_node37"><a xlink:href="ParameterHandlerUtils_8h.html" target="_top" xlink:title=" ">
<polygon fill="white" stroke="red" points="898.5,-280.5 898.5,-310.5 1047.5,-310.5 1047.5,-280.5 898.5,-280.5"/>
<text text-anchor="start" x="906.5" y="-298.5" font-family="Helvetica" font-size="10.00">Parameters/ParameterHandler</text>
<text text-anchor="middle" x="973" y="-287.5" font-family="Helvetica" font-size="10.00">Utils.h</text>
</a>
</g>
</g>
<!-- Node10&#45;&gt;Node48 -->
<g id="edge45" class="edge">
<title>Node10&#45;&gt;Node48</title>
<path fill="none" stroke="midnightblue" d="M818.56,-414.18C890.82,-409.22 993.05,-396.97 1018,-367 1030.93,-351.46 1016.49,-331.98 1000.62,-317.43"/>
<polygon fill="midnightblue" stroke="midnightblue" points="1002.7,-314.59 992.83,-310.72 998.13,-319.9 1002.7,-314.59"/>
</g>
<!-- Node64 -->
<g id="node42" class="node">
<title>Node64</title>
<g id="a_node42"><a xlink:href="AdaptiveMCMCHandler_8h.html" target="_top" xlink:title=" ">
<polygon fill="white" stroke="red" points="828.5,-347.5 828.5,-366.5 1009.5,-366.5 1009.5,-347.5 828.5,-347.5"/>
<text text-anchor="middle" x="919" y="-354.5" font-family="Helvetica" font-size="10.00">Parameters/AdaptiveMCMCHandler.h</text>
</a>
</g>
</g>
<!-- Node10&#45;&gt;Node64 -->
<g id="edge63" class="edge">
<title>Node10&#45;&gt;Node64</title>
<path fill="none" stroke="midnightblue" d="M785.47,-403.4C815.58,-393.16 855.85,-379.47 884.27,-369.81"/>
<polygon fill="midnightblue" stroke="midnightblue" points="885.45,-373.1 893.79,-366.57 883.2,-366.48 885.45,-373.1"/>
</g>
<!-- Node66 -->
<g id="node43" class="node">
<title>Node66</title>
<g id="a_node43"><a xlink:href="PCAHandler_8h.html" target="_top" xlink:title=" ">
<polygon fill="white" stroke="black" points="677.5,-347.5 677.5,-366.5 810.5,-366.5 810.5,-347.5 677.5,-347.5"/>
<text text-anchor="middle" x="744" y="-354.5" font-family="Helvetica" font-size="10.00">Parameters/PCAHandler.h</text>
</a>
</g>
</g>
<!-- Node10&#45;&gt;Node66 -->
<g id="edge66" class="edge">
<title>Node10&#45;&gt;Node66</title>
<path fill="none" stroke="midnightblue" d="M744,-403.4C744,-395.47 744,-385.46 744,-376.86"/>
<polygon fill="midnightblue" stroke="midnightblue" points="747.5,-376.66 744,-366.66 740.5,-376.66 747.5,-376.66"/>
</g>
<!-- Node11&#45;&gt;Node12 -->
<g id="edge11" class="edge">
<title>Node11&#45;&gt;Node12</title>
<path fill="none" stroke="midnightblue" d="M739.7,-285.98C735.34,-277.32 728.44,-263.65 722.9,-252.65"/>
<polygon fill="midnightblue" stroke="midnightblue" points="725.92,-250.86 718.29,-243.51 719.67,-254.01 725.92,-250.86"/>
</g>
<!-- Node16 -->
<g id="node16" class="node">
<title>Node16</title>
<g id="a_node16"><a xlink:href="MaCh3Exception_8h.html" target="_top" xlink:title="Defines the custom exception class used throughout MaCh3.">
<polygon fill="white" stroke="black" points="935,-168.5 935,-187.5 1075,-187.5 1075,-168.5 935,-168.5"/>
<text text-anchor="middle" x="1005" y="-175.5" font-family="Helvetica" font-size="10.00">Manager/MaCh3Exception.h</text>
</a>
</g>
</g>
<!-- Node11&#45;&gt;Node16 -->
<g id="edge44" class="edge">
<title>Node11&#45;&gt;Node16</title>
<path fill="none" stroke="midnightblue" d="M763.62,-285.82C809.26,-265.62 922.77,-215.39 976.25,-191.72"/>
<polygon fill="midnightblue" stroke="midnightblue" points="977.78,-194.87 985.51,-187.62 974.95,-188.47 977.78,-194.87"/>
</g>
<!-- Node13 -->
<g id="node13" class="node">
<title>Node13</title>
<g id="a_node13"><a xlink:title=" ">
<polygon fill="white" stroke="#bfbfbf" points="513,-168.5 513,-187.5 543,-187.5 543,-168.5 513,-168.5"/>
<text text-anchor="middle" x="528" y="-175.5" font-family="Helvetica" font-size="10.00">set</text>
</a>
</g>
</g>
<!-- Node12&#45;&gt;Node13 -->
<g id="edge12" class="edge">
<title>Node12&#45;&gt;Node13</title>
<path fill="none" stroke="midnightblue" d="M679.92,-224.46C648.95,-216.5 601.85,-203.88 552.69,-188.02"/>
<polygon fill="midnightblue" stroke="midnightblue" points="553.76,-184.69 543.16,-184.92 551.59,-191.34 553.76,-184.69"/>
</g>
<!-- Node14 -->
<g id="node14" class="node">
<title>Node14</title>
<g id="a_node14"><a xlink:title=" ">
<polygon fill="white" stroke="#bfbfbf" points="561.5,-168.5 561.5,-187.5 590.5,-187.5 590.5,-168.5 561.5,-168.5"/>
<text text-anchor="middle" x="576" y="-175.5" font-family="Helvetica" font-size="10.00">list</text>
</a>
</g>
</g>
<!-- Node12&#45;&gt;Node14 -->
<g id="edge13" class="edge">
<title>Node12&#45;&gt;Node14</title>
<path fill="none" stroke="midnightblue" d="M692.13,-224.44C667.04,-214.62 626.02,-198.57 600.04,-188.41"/>
<polygon fill="midnightblue" stroke="midnightblue" points="601.16,-185.09 590.57,-184.7 598.6,-191.6 601.16,-185.09"/>
</g>
<!-- Node15 -->
<g id="node15" class="node">
<title>Node15</title>
<g id="a_node15"><a xlink:title=" ">
<polygon fill="white" stroke="#bfbfbf" points="608.5,-168.5 608.5,-187.5 691.5,-187.5 691.5,-168.5 608.5,-168.5"/>
<text text-anchor="middle" x="650" y="-175.5" font-family="Helvetica" font-size="10.00">unordered_map</text>
</a>
</g>
</g>
<!-- Node12&#45;&gt;Node15 -->
<g id="edge14" class="edge">
<title>Node12&#45;&gt;Node15</title>
<path fill="none" stroke="midnightblue" d="M703.72,-224.32C694.16,-216.26 679.72,-204.08 668.22,-194.37"/>
<polygon fill="midnightblue" stroke="midnightblue" points="670.37,-191.61 660.47,-187.83 665.86,-196.96 670.37,-191.61"/>
</g>
<!-- Node12&#45;&gt;Node16 -->
<g id="edge15" class="edge">
<title>Node12&#45;&gt;Node16</title>
<path fill="none" stroke="midnightblue" d="M760.11,-224.44C811.41,-214.92 894.27,-199.55 949.19,-189.36"/>
<polygon fill="midnightblue" stroke="midnightblue" points="949.91,-192.78 959.11,-187.52 948.64,-185.9 949.91,-192.78"/>
</g>
<!-- Node20 -->
<g id="node20" class="node">
<title>Node20</title>
<g id="a_node20"><a xlink:href="MaCh3Logger_8h.html" target="_top" xlink:title="MaCh3 Logging utilities built on top of SPDLOG.">
<polygon fill="white" stroke="black" points="890,-112.5 890,-131.5 1016,-131.5 1016,-112.5 890,-112.5"/>
<text text-anchor="middle" x="953" y="-119.5" font-family="Helvetica" font-size="10.00">Manager/MaCh3Logger.h</text>
</a>
</g>
</g>
<!-- Node12&#45;&gt;Node20 -->
<g id="edge35" class="edge">
<title>Node12&#45;&gt;Node20</title>
<path fill="none" stroke="midnightblue" d="M773.77,-224.43C807.38,-217.85 849.24,-206.63 883,-188 905.58,-175.54 926.55,-154.24 939.54,-139.43"/>
<polygon fill="midnightblue" stroke="midnightblue" points="942.41,-141.46 946.22,-131.58 937.07,-136.93 942.41,-141.46"/>
</g>
<!-- Node24 -->
<g id="node24" class="node">
<title>Node24</title>
<g id="a_node24"><a xlink:href="Core_8h.html" target="_top" xlink:title="KS: Core MaCh3 definitions and compile&#45;time configuration utilities.">
<polygon fill="white" stroke="black" points="657,-56.5 657,-75.5 743,-75.5 743,-56.5 657,-56.5"/>
<text text-anchor="middle" x="700" y="-63.5" font-family="Helvetica" font-size="10.00">Manager/Core.h</text>
</a>
</g>
</g>
<!-- Node12&#45;&gt;Node24 -->
<g id="edge36" class="edge">
<title>Node12&#45;&gt;Node24</title>
<path fill="none" stroke="midnightblue" d="M779.93,-225.58C822.77,-217.56 867.64,-201.15 850,-168 825.93,-122.78 771.61,-94.18 735.38,-79.37"/>
<polygon fill="midnightblue" stroke="midnightblue" points="736.27,-75.96 725.68,-75.56 733.71,-82.48 736.27,-75.96"/>
</g>
<!-- Node12&#45;&gt;Node30 -->
<g id="edge37" class="edge">
<title>Node12&#45;&gt;Node30</title>
<path fill="none" stroke="midnightblue" d="M648.13,-224.96C561.02,-214.27 413.47,-195.97 363.46,-187.99"/>
<polygon fill="midnightblue" stroke="midnightblue" points="363.84,-184.51 353.39,-186.28 362.67,-191.41 363.84,-184.51"/>
</g>
<!-- Node31 -->
<g id="node31" class="node">
<title>Node31</title>
<g id="a_node31"><a xlink:title=" ">
<polygon fill="white" stroke="#bfbfbf" points="709.5,-168.5 709.5,-187.5 780.5,-187.5 780.5,-168.5 709.5,-168.5"/>
<text text-anchor="middle" x="745" y="-175.5" font-family="Helvetica" font-size="10.00">TObjString.h</text>
</a>
</g>
</g>
<!-- Node12&#45;&gt;Node31 -->
<g id="edge38" class="edge">
<title>Node12&#45;&gt;Node31</title>
<path fill="none" stroke="midnightblue" d="M719.12,-224.08C723.41,-216.61 729.66,-205.72 734.94,-196.52"/>
<polygon fill="midnightblue" stroke="midnightblue" points="738.03,-198.17 739.98,-187.75 731.96,-194.68 738.03,-198.17"/>
</g>
<!-- Node12&#45;&gt;Node32 -->
<g id="edge39" class="edge">
<title>Node12&#45;&gt;Node32</title>
<path fill="none" stroke="midnightblue" d="M779.9,-231.67C881.44,-228.72 1082.21,-219.34 1260.28,-188"/>
<polygon fill="midnightblue" stroke="midnightblue" points="1261.12,-191.4 1270.35,-186.2 1259.89,-184.51 1261.12,-191.4"/>
</g>
<!-- Node33 -->
<g id="node33" class="node">
<title>Node33</title>
<g id="a_node33"><a xlink:title=" ">
<polygon fill="white" stroke="#bfbfbf" points="799,-168.5 799,-187.5 841,-187.5 841,-168.5 799,-168.5"/>
<text text-anchor="middle" x="820" y="-175.5" font-family="Helvetica" font-size="10.00">TF1.h</text>
</a>
</g>
</g>
<!-- Node12&#45;&gt;Node33 -->
<g id="edge40" class="edge">
<title>Node12&#45;&gt;Node33</title>
<path fill="none" stroke="midnightblue" d="M731.03,-224.32C748.03,-215.66 774.38,-202.24 793.99,-192.25"/>
<polygon fill="midnightblue" stroke="midnightblue" points="795.69,-195.31 803.01,-187.65 792.51,-189.08 795.69,-195.31"/>
</g>
<!-- Node34 -->
<g id="node34" class="node">
<title>Node34</title>
<g id="a_node34"><a xlink:title=" ">
<polygon fill="white" stroke="#bfbfbf" points="371,-168.5 371,-187.5 433,-187.5 433,-168.5 371,-168.5"/>
<text text-anchor="middle" x="402" y="-175.5" font-family="Helvetica" font-size="10.00">TH2Poly.h</text>
</a>
</g>
</g>
<!-- Node12&#45;&gt;Node34 -->
<g id="edge41" class="edge">
<title>Node12&#45;&gt;Node34</title>
<path fill="none" stroke="midnightblue" d="M656.52,-224.47C603.61,-216.4 522.73,-203.5 443.55,-188.22"/>
<polygon fill="midnightblue" stroke="midnightblue" points="443.89,-184.72 433.41,-186.25 442.55,-191.59 443.89,-184.72"/>
</g>
<!-- Node35 -->
<g id="node35" class="node">
<title>Node35</title>
<g id="a_node35"><a xlink:title=" ">
<polygon fill="white" stroke="#bfbfbf" points="451,-168.5 451,-187.5 495,-187.5 495,-168.5 451,-168.5"/>
<text text-anchor="middle" x="473" y="-175.5" font-family="Helvetica" font-size="10.00">TH1.h</text>
</a>
</g>
</g>
<!-- Node12&#45;&gt;Node35 -->
<g id="edge42" class="edge">
<title>Node12&#45;&gt;Node35</title>
<path fill="none" stroke="midnightblue" d="M669.54,-224.43C629.05,-216.42 567.42,-203.68 505.27,-188.19"/>
<polygon fill="midnightblue" stroke="midnightblue" points="505.85,-184.73 495.3,-185.68 504.14,-191.51 505.85,-184.73"/>
</g>
<!-- Node36 -->
<g id="node36" class="node">
<title>Node36</title>
<g id="a_node36"><a xlink:title=" ">
<polygon fill="white" stroke="#bfbfbf" points="1093.5,-168.5 1093.5,-187.5 1252.5,-187.5 1252.5,-168.5 1093.5,-168.5"/>
<text text-anchor="middle" x="1173" y="-175.5" font-family="Helvetica" font-size="10.00">Constants/OscillatorConstants.h</text>
</a>
</g>
</g>
<!-- Node12&#45;&gt;Node36 -->
<g id="edge43" class="edge">
<title>Node12&#45;&gt;Node36</title>
<path fill="none" stroke="midnightblue" d="M779.76,-225.26C861.63,-215.63 1001.51,-199.18 1090.49,-188.71"/>
<polygon fill="midnightblue" stroke="midnightblue" points="1091.02,-192.17 1100.54,-187.52 1090.2,-185.22 1091.02,-192.17"/>
</g>
<!-- Node17 -->
<g id="node17" class="node">
<title>Node17</title>
<g id="a_node17"><a xlink:title=" ">
<polygon fill="white" stroke="#bfbfbf" points="1040,-0.5 1040,-19.5 1094,-19.5 1094,-0.5 1040,-0.5"/>
<text text-anchor="middle" x="1067" y="-7.5" font-family="Helvetica" font-size="10.00">iostream</text>
</a>
</g>
</g>
<!-- Node16&#45;&gt;Node17 -->
<g id="edge16" class="edge">
<title>Node16&#45;&gt;Node17</title>
<path fill="none" stroke="midnightblue" d="M1049.1,-168.49C1072.87,-161.95 1101.28,-150.76 1121,-132 1140.75,-113.21 1140.32,-102.66 1146,-76 1147.85,-67.31 1150.47,-63.69 1146,-56 1136.8,-40.18 1119.73,-29.46 1103.81,-22.46"/>
<polygon fill="midnightblue" stroke="midnightblue" points="1104.71,-19.05 1094.12,-18.58 1102.1,-25.55 1104.71,-19.05"/>
</g>
<!-- Node18 -->
<g id="node18" class="node">
<title>Node18</title>
<g id="a_node18"><a xlink:title=" ">
<polygon fill="white" stroke="#bfbfbf" points="1095.5,-56.5 1095.5,-75.5 1136.5,-75.5 1136.5,-56.5 1095.5,-56.5"/>
<text text-anchor="middle" x="1116" y="-63.5" font-family="Helvetica" font-size="10.00">string</text>
</a>
</g>
</g>
<!-- Node16&#45;&gt;Node18 -->
<g id="edge17" class="edge">
<title>Node16&#45;&gt;Node18</title>
<path fill="none" stroke="midnightblue" d="M1043.34,-168.45C1064.02,-161.87 1088.26,-150.65 1103,-132 1113.36,-118.89 1116.15,-99.74 1116.63,-85.63"/>
<polygon fill="midnightblue" stroke="midnightblue" points="1120.13,-85.58 1116.61,-75.59 1113.13,-85.6 1120.13,-85.58"/>
</g>
<!-- Node19 -->
<g id="node19" class="node">
<title>Node19</title>
<g id="a_node19"><a xlink:title=" ">
<polygon fill="white" stroke="#bfbfbf" points="1034.5,-112.5 1034.5,-131.5 1093.5,-131.5 1093.5,-112.5 1034.5,-112.5"/>
<text text-anchor="middle" x="1064" y="-119.5" font-family="Helvetica" font-size="10.00">stdexcept</text>
</a>
</g>
</g>
<!-- Node16&#45;&gt;Node19 -->
<g id="edge18" class="edge">
<title>Node16&#45;&gt;Node19</title>
<path fill="none" stroke="midnightblue" d="M1014.48,-168.32C1023.2,-160.34 1036.34,-148.31 1046.9,-138.65"/>
<polygon fill="midnightblue" stroke="midnightblue" points="1049.33,-141.17 1054.35,-131.83 1044.61,-136 1049.33,-141.17"/>
</g>
<!-- Node16&#45;&gt;Node20 -->
<g id="edge19" class="edge">
<title>Node16&#45;&gt;Node20</title>
<path fill="none" stroke="midnightblue" d="M996.41,-168.08C988.84,-160.22 977.62,-148.57 968.49,-139.08"/>
<polygon fill="midnightblue" stroke="midnightblue" points="970.88,-136.53 961.43,-131.75 965.84,-141.38 970.88,-136.53"/>
</g>
<!-- Node16&#45;&gt;Node24 -->
<g id="edge34" class="edge">
<title>Node16&#45;&gt;Node24</title>
<path fill="none" stroke="midnightblue" d="M979.1,-168.34C953.84,-159.72 914.44,-145.82 881,-132 861.52,-123.95 857.61,-119.73 838,-112 805.32,-99.13 767.32,-86.93 739.48,-78.49"/>
<polygon fill="midnightblue" stroke="midnightblue" points="740.29,-75.08 729.71,-75.56 738.28,-81.79 740.29,-75.08"/>
</g>
<!-- Node20&#45;&gt;Node17 -->
<g id="edge20" class="edge">
<title>Node20&#45;&gt;Node17</title>
<path fill="none" stroke="midnightblue" d="M971.4,-112.38C986.94,-104.47 1009.14,-91.62 1025,-76 1039.02,-62.19 1050.74,-42.91 1058.21,-28.94"/>
<polygon fill="midnightblue" stroke="midnightblue" points="1061.42,-30.35 1062.87,-19.85 1055.19,-27.15 1061.42,-30.35"/>
</g>
<!-- Node20&#45;&gt;Node18 -->
<g id="edge23" class="edge">
<title>Node20&#45;&gt;Node18</title>
<path fill="none" stroke="midnightblue" d="M978.83,-112.44C1007.86,-102.82 1054.95,-87.22 1085.7,-77.04"/>
<polygon fill="midnightblue" stroke="midnightblue" points="1087.06,-80.27 1095.45,-73.81 1084.86,-73.63 1087.06,-80.27"/>
</g>
<!-- Node21 -->
<g id="node21" class="node">
<title>Node21</title>
<g id="a_node21"><a xlink:title=" ">
<polygon fill="white" stroke="#bfbfbf" points="888,-0.5 888,-19.5 940,-19.5 940,-0.5 888,-0.5"/>
<text text-anchor="middle" x="914" y="-7.5" font-family="Helvetica" font-size="10.00">sstream</text>
</a>
</g>
</g>
<!-- Node20&#45;&gt;Node21 -->
<g id="edge21" class="edge">
<title>Node20&#45;&gt;Node21</title>
<path fill="none" stroke="midnightblue" d="M970.1,-112.41C991.29,-100.57 1023.02,-78.15 1009,-56 996.03,-35.5 970.91,-24.15 949.76,-17.99"/>
<polygon fill="midnightblue" stroke="midnightblue" points="950.63,-14.6 940.07,-15.43 948.84,-21.36 950.63,-14.6"/>
</g>
<!-- Node22 -->
<g id="node22" class="node">
<title>Node22</title>
<g id="a_node22"><a xlink:title=" ">
<polygon fill="white" stroke="#bfbfbf" points="761.5,-56.5 761.5,-75.5 820.5,-75.5 820.5,-56.5 761.5,-56.5"/>
<text text-anchor="middle" x="791" y="-63.5" font-family="Helvetica" font-size="10.00">functional</text>
</a>
</g>
</g>
<!-- Node20&#45;&gt;Node22 -->
<g id="edge22" class="edge">
<title>Node20&#45;&gt;Node22</title>
<path fill="none" stroke="midnightblue" d="M927.33,-112.44C900.08,-103.36 856.82,-88.94 826.35,-78.78"/>
<polygon fill="midnightblue" stroke="midnightblue" points="827.14,-75.36 816.55,-75.52 824.93,-82 827.14,-75.36"/>
</g>
<!-- Node23 -->
<g id="node23" class="node">
<title>Node23</title>
<g id="a_node23"><a xlink:title=" ">
<polygon fill="white" stroke="#bfbfbf" points="839,-56.5 839,-75.5 897,-75.5 897,-56.5 839,-56.5"/>
<text text-anchor="middle" x="868" y="-63.5" font-family="Helvetica" font-size="10.00">exception</text>
</a>
</g>
</g>
<!-- Node20&#45;&gt;Node23 -->
<g id="edge24" class="edge">
<title>Node20&#45;&gt;Node23</title>
<path fill="none" stroke="midnightblue" d="M939.34,-112.32C926.08,-103.9 905.73,-90.97 890.15,-81.07"/>
<polygon fill="midnightblue" stroke="midnightblue" points="891.94,-78.06 881.62,-75.65 888.19,-83.97 891.94,-78.06"/>
</g>
<!-- Node20&#45;&gt;Node24 -->
<g id="edge25" class="edge">
<title>Node20&#45;&gt;Node24</title>
<path fill="none" stroke="midnightblue" d="M912.91,-112.44C868.68,-103 797.46,-87.8 749.72,-77.61"/>
<polygon fill="midnightblue" stroke="midnightblue" points="750.41,-74.18 739.9,-75.52 748.95,-81.03 750.41,-74.18"/>
</g>
<!-- Node29 -->
<g id="node29" class="node">
<title>Node29</title>
<g id="a_node29"><a xlink:title=" ">
<polygon fill="white" stroke="#bfbfbf" points="915.5,-56.5 915.5,-75.5 1000.5,-75.5 1000.5,-56.5 915.5,-56.5"/>
<text text-anchor="middle" x="958" y="-63.5" font-family="Helvetica" font-size="10.00">spdlog/spdlog.h</text>
</a>
</g>
</g>
<!-- Node20&#45;&gt;Node29 -->
<g id="edge33" class="edge">
<title>Node20&#45;&gt;Node29</title>
<path fill="none" stroke="midnightblue" d="M953.83,-112.08C954.48,-105.01 955.42,-94.86 956.24,-85.99"/>
<polygon fill="midnightblue" stroke="midnightblue" points="959.75,-86.03 957.19,-75.75 952.78,-85.39 959.75,-86.03"/>
</g>
<!-- Node24&#45;&gt;Node7 -->
<g id="edge30" class="edge">
<title>Node24&#45;&gt;Node7</title>
<path fill="none" stroke="midnightblue" d="M743.09,-57.28C746.1,-56.82 749.09,-56.39 752,-56 835.66,-44.75 1089.96,-22.22 1183.76,-14.05"/>
<polygon fill="midnightblue" stroke="midnightblue" points="1184.21,-17.52 1193.87,-13.17 1183.61,-10.55 1184.21,-17.52"/>
</g>
<!-- Node24&#45;&gt;Node17 -->
<g id="edge28" class="edge">
<title>Node24&#45;&gt;Node17</title>
<path fill="none" stroke="midnightblue" d="M743.11,-57.44C746.12,-56.94 749.1,-56.46 752,-56 852.38,-40.15 971.15,-23.84 1030.05,-15.92"/>
<polygon fill="midnightblue" stroke="midnightblue" points="1030.55,-19.38 1039.99,-14.59 1029.62,-12.45 1030.55,-19.38"/>
</g>
<!-- Node24&#45;&gt;Node21 -->
<g id="edge26" class="edge">
<title>Node24&#45;&gt;Node21</title>
<path fill="none" stroke="midnightblue" d="M733.91,-56.44C773.26,-46.51 837.89,-30.21 878.08,-20.06"/>
<polygon fill="midnightblue" stroke="midnightblue" points="879.15,-23.4 887.99,-17.56 877.44,-16.62 879.15,-23.4"/>
</g>
<!-- Node25 -->
<g id="node25" class="node">
<title>Node25</title>
<g id="a_node25"><a xlink:title=" ">
<polygon fill="white" stroke="#bfbfbf" points="738,-0.5 738,-19.5 788,-19.5 788,-0.5 738,-0.5"/>
<text text-anchor="middle" x="763" y="-7.5" font-family="Helvetica" font-size="10.00">fstream</text>
</a>
</g>
</g>
<!-- Node24&#45;&gt;Node25 -->
<g id="edge27" class="edge">
<title>Node24&#45;&gt;Node25</title>
<path fill="none" stroke="midnightblue" d="M710.12,-56.32C719.53,-48.26 733.74,-36.08 745.07,-26.37"/>
<polygon fill="midnightblue" stroke="midnightblue" points="747.38,-29 752.69,-19.83 742.82,-23.68 747.38,-29"/>
</g>
<!-- Node26 -->
<g id="node26" class="node">
<title>Node26</title>
<g id="a_node26"><a xlink:title=" ">
<polygon fill="white" stroke="#bfbfbf" points="618.5,-0.5 618.5,-19.5 661.5,-19.5 661.5,-0.5 618.5,-0.5"/>
<text text-anchor="middle" x="640" y="-7.5" font-family="Helvetica" font-size="10.00">vector</text>
</a>
</g>
</g>
<!-- Node24&#45;&gt;Node26 -->
<g id="edge29" class="edge">
<title>Node24&#45;&gt;Node26</title>
<path fill="none" stroke="midnightblue" d="M690.36,-56.32C681.49,-48.34 668.13,-36.31 657.39,-26.65"/>
<polygon fill="midnightblue" stroke="midnightblue" points="659.59,-23.92 649.82,-19.83 654.91,-29.13 659.59,-23.92"/>
</g>
<!-- Node24&#45;&gt;Node27 -->
<g id="edge31" class="edge">
<title>Node24&#45;&gt;Node27</title>
<path fill="none" stroke="midnightblue" d="M656.85,-58.11C588.18,-47.14 455.57,-25.95 394.38,-16.17"/>
<polygon fill="midnightblue" stroke="midnightblue" points="394.59,-12.66 384.16,-14.54 393.48,-19.57 394.59,-12.66"/>
</g>
<!-- Node28 -->
<g id="node28" class="node">
<title>Node28</title>
<g id="a_node28"><a xlink:title=" ">
<polygon fill="white" stroke="#bfbfbf" points="680,-0.5 680,-19.5 720,-19.5 720,-0.5 680,-0.5"/>
<text text-anchor="middle" x="700" y="-7.5" font-family="Helvetica" font-size="10.00">limits</text>
</a>
</g>
</g>
<!-- Node24&#45;&gt;Node28 -->
<g id="edge32" class="edge">
<title>Node24&#45;&gt;Node28</title>
<path fill="none" stroke="midnightblue" d="M700,-56.08C700,-49.01 700,-38.86 700,-29.99"/>
<polygon fill="midnightblue" stroke="midnightblue" points="703.5,-29.75 700,-19.75 696.5,-29.75 703.5,-29.75"/>
</g>
<!-- Node48&#45;&gt;Node32 -->
<g id="edge60" class="edge">
<title>Node48&#45;&gt;Node32</title>
<path fill="none" stroke="midnightblue" d="M978.12,-280.22C984.82,-263.78 998.2,-237.33 1019,-224 1108.23,-166.82 1152.6,-208.24 1260.38,-188.03"/>
<polygon fill="midnightblue" stroke="midnightblue" points="1261.21,-191.43 1270.32,-186.02 1259.82,-184.57 1261.21,-191.43"/>
</g>
<!-- Node48&#45;&gt;Node49 -->
<g id="edge46" class="edge">
<title>Node48&#45;&gt;Node49</title>
<path fill="none" stroke="midnightblue" d="M898.22,-283.93C820.2,-272.91 698.83,-255.75 622.46,-244.96"/>
<polygon fill="midnightblue" stroke="midnightblue" points="622.85,-241.48 612.45,-243.54 621.87,-248.41 622.85,-241.48"/>
</g>
<!-- Node48&#45;&gt;Node44 -->
<g id="edge59" class="edge">
<title>Node48&#45;&gt;Node44</title>
<path fill="none" stroke="midnightblue" d="M1037.35,-280.47C1091.64,-268.64 1167.3,-252.15 1211.01,-242.63"/>
<polygon fill="midnightblue" stroke="midnightblue" points="1211.86,-246.02 1220.88,-240.47 1210.37,-239.18 1211.86,-246.02"/>
</g>
<!-- Node48&#45;&gt;Node47 -->
<g id="edge61" class="edge">
<title>Node48&#45;&gt;Node47</title>
<path fill="none" stroke="midnightblue" d="M995.28,-280.4C1010.2,-270.95 1029.78,-258.56 1044.71,-249.11"/>
<polygon fill="midnightblue" stroke="midnightblue" points="1046.74,-251.96 1053.32,-243.66 1043,-246.05 1046.74,-251.96"/>
</g>
<!-- Node48&#45;&gt;Node63 -->
<g id="edge62" class="edge">
<title>Node48&#45;&gt;Node63</title>
<path fill="none" stroke="midnightblue" d="M1017.55,-280.4C1051.31,-269.72 1096.95,-255.27 1127.61,-245.57"/>
<polygon fill="midnightblue" stroke="midnightblue" points="1128.91,-248.83 1137.39,-242.47 1126.8,-242.15 1128.91,-248.83"/>
</g>
<!-- Node49&#45;&gt;Node13 -->
<g id="edge47" class="edge">
<title>Node49&#45;&gt;Node13</title>
<path fill="none" stroke="midnightblue" d="M548.04,-224.08C544.79,-216.77 540.08,-206.18 536.05,-197.1"/>
<polygon fill="midnightblue" stroke="midnightblue" points="539.15,-195.47 531.89,-187.75 532.75,-198.31 539.15,-195.47"/>
</g>
<!-- Node49&#45;&gt;Node14 -->
<g id="edge48" class="edge">
<title>Node49&#45;&gt;Node14</title>
<path fill="none" stroke="midnightblue" d="M555.96,-224.08C559.21,-216.77 563.92,-206.18 567.95,-197.1"/>
<polygon fill="midnightblue" stroke="midnightblue" points="571.25,-198.31 572.11,-187.75 564.85,-195.47 571.25,-198.31"/>
</g>
<!-- Node49&#45;&gt;Node15 -->
<g id="edge49" class="edge">
<title>Node49&#45;&gt;Node15</title>
<path fill="none" stroke="midnightblue" d="M567.75,-224.32C583.32,-215.74 607.38,-202.49 625.46,-192.52"/>
<polygon fill="midnightblue" stroke="midnightblue" points="627.22,-195.55 634.29,-187.65 623.85,-189.42 627.22,-195.55"/>
</g>
<!-- Node49&#45;&gt;Node16 -->
<g id="edge50" class="edge">
<title>Node49&#45;&gt;Node16</title>
<path fill="none" stroke="midnightblue" d="M623.78,-224.44C705.65,-214.68 839.18,-198.77 924.51,-188.59"/>
<polygon fill="midnightblue" stroke="midnightblue" points="925.16,-192.04 934.67,-187.38 924.33,-185.09 925.16,-192.04"/>
</g>
<!-- Node49&#45;&gt;Node20 -->
<g id="edge51" class="edge">
<title>Node49&#45;&gt;Node20</title>
<path fill="none" stroke="midnightblue" d="M474.41,-230.63C404.7,-226.68 309.77,-216.13 286,-188 280.26,-181.21 279.93,-174.49 286,-168 325.86,-125.36 714.93,-121.95 879.78,-122.44"/>
<polygon fill="midnightblue" stroke="midnightblue" points="879.83,-125.94 889.84,-122.48 879.85,-118.94 879.83,-125.94"/>
</g>
<!-- Node49&#45;&gt;Node24 -->
<g id="edge52" class="edge">
<title>Node49&#45;&gt;Node24</title>
<path fill="none" stroke="midnightblue" d="M474.48,-231.1C402.5,-227.5 302.81,-217.21 278,-188 272.25,-181.22 272.49,-174.98 278,-168 323.39,-110.46 543.55,-82.04 646.6,-71.72"/>
<polygon fill="midnightblue" stroke="midnightblue" points="647.18,-75.18 656.79,-70.72 646.5,-68.21 647.18,-75.18"/>
</g>
<!-- Node49&#45;&gt;Node30 -->
<g id="edge53" class="edge">
<title>Node49&#45;&gt;Node30</title>
<path fill="none" stroke="midnightblue" d="M515.87,-224.44C474.14,-214.56 405.74,-198.36 362.87,-188.21"/>
<polygon fill="midnightblue" stroke="midnightblue" points="363.62,-184.79 353.09,-185.89 362.01,-191.6 363.62,-184.79"/>
</g>
<!-- Node49&#45;&gt;Node31 -->
<g id="edge54" class="edge">
<title>Node49&#45;&gt;Node31</title>
<path fill="none" stroke="midnightblue" d="M582.58,-224.44C615.61,-215.2 668.39,-200.44 704.77,-190.26"/>
<polygon fill="midnightblue" stroke="midnightblue" points="705.87,-193.58 714.56,-187.52 703.99,-186.84 705.87,-193.58"/>
</g>
<!-- Node49&#45;&gt;Node32 -->
<g id="edge55" class="edge">
<title>Node49&#45;&gt;Node32</title>
<path fill="none" stroke="midnightblue" d="M629.77,-224.78C632.89,-224.5 635.97,-224.24 639,-224 912.08,-202 986.65,-233.04 1260.13,-187.97"/>
<polygon fill="midnightblue" stroke="midnightblue" points="1261.08,-191.36 1270.36,-186.26 1259.92,-184.46 1261.08,-191.36"/>
</g>
<!-- Node49&#45;&gt;Node33 -->
<g id="edge56" class="edge">
<title>Node49&#45;&gt;Node33</title>
<path fill="none" stroke="midnightblue" d="M604.55,-224.5C652.78,-216.34 726.07,-203.07 789,-188 789.1,-187.98 789.2,-187.95 789.3,-187.93"/>
<polygon fill="midnightblue" stroke="midnightblue" points="789.94,-191.38 798.73,-185.46 788.17,-184.61 789.94,-191.38"/>
</g>
<!-- Node49&#45;&gt;Node34 -->
<g id="edge57" class="edge">
<title>Node49&#45;&gt;Node34</title>
<path fill="none" stroke="midnightblue" d="M528.23,-224.44C503.11,-215.4 463.29,-201.06 435.1,-190.92"/>
<polygon fill="midnightblue" stroke="midnightblue" points="436.25,-187.61 425.66,-187.52 433.88,-194.2 436.25,-187.61"/>
</g>
<!-- Node49&#45;&gt;Node35 -->
<g id="edge58" class="edge">
<title>Node49&#45;&gt;Node35</title>
<path fill="none" stroke="midnightblue" d="M539.31,-224.32C527.1,-215.98 508.42,-203.21 494,-193.35"/>
<polygon fill="midnightblue" stroke="midnightblue" points="495.89,-190.41 485.66,-187.65 491.94,-196.19 495.89,-190.41"/>
</g>
<!-- Node64&#45;&gt;Node11 -->
<g id="edge64" class="edge">
<title>Node64&#45;&gt;Node11</title>
<path fill="none" stroke="midnightblue" d="M893.93,-347.48C863.65,-337.18 812.56,-319.81 778.56,-308.25"/>
<polygon fill="midnightblue" stroke="midnightblue" points="779.62,-304.91 769.03,-305.01 777.37,-311.54 779.62,-304.91"/>
</g>
<!-- Node64&#45;&gt;Node48 -->
<g id="edge65" class="edge">
<title>Node64&#45;&gt;Node48</title>
<path fill="none" stroke="midnightblue" d="M926.74,-347.48C933.71,-339.79 944.26,-328.17 953.52,-317.96"/>
<polygon fill="midnightblue" stroke="midnightblue" points="956.14,-320.28 960.27,-310.52 950.96,-315.58 956.14,-320.28"/>
</g>
<!-- Node66&#45;&gt;Node11 -->
<g id="edge67" class="edge">
<title>Node66&#45;&gt;Node11</title>
<path fill="none" stroke="midnightblue" d="M744,-347.48C744,-339.08 744,-325.98 744,-315.16"/>
<polygon fill="midnightblue" stroke="midnightblue" points="747.5,-315.01 744,-305.01 740.5,-315.01 747.5,-315.01"/>
</g>
<!-- Node66&#45;&gt;Node48 -->
<g id="edge68" class="edge">
<title>Node66&#45;&gt;Node48</title>
<path fill="none" stroke="midnightblue" d="M776.81,-347.48C811.23,-338.53 866.2,-324.25 909.21,-313.07"/>
<polygon fill="midnightblue" stroke="midnightblue" points="910.23,-316.43 919.03,-310.52 908.47,-309.65 910.23,-316.43"/>
</g>
<!-- Node74&#45;&gt;Node5 -->
<g id="edge83" class="edge">
<title>Node74&#45;&gt;Node5</title>
<path fill="none" stroke="midnightblue" d="M1158.07,-649.44C1180.06,-640.52 1214.73,-626.44 1239.66,-616.32"/>
<polygon fill="midnightblue" stroke="midnightblue" points="1241.08,-619.52 1249.02,-612.52 1238.44,-613.04 1241.08,-619.52"/>
</g>
</g>
</svg>
