<?xml version="1.0" encoding="UTF-8" standalone="no"?>
<!DOCTYPE svg PUBLIC "-//W3C//DTD SVG 1.1//EN"
 "http://www.w3.org/Graphics/SVG/1.1/DTD/svg11.dtd">
<!-- Generated by graphviz version 2.43.0 (0)
 -->
<!-- Title: Splines/SplineBase.h Pages: 1 -->
<svg width="781pt" height="192pt"
 viewBox="0.00 0.00 781.00 192.00" xmlns="http://www.w3.org/2000/svg" xmlns:xlink="http://www.w3.org/1999/xlink">
<g id="graph0" class="graph" transform="scale(1 1) rotate(0) translate(4 188)">
<title>Splines/SplineBase.h</title>
<!-- Node1 -->
<g id="node1" class="node">
<title>Node1</title>
<g id="a_node1"><a xlink:title=" ">
<polygon fill="#999999" stroke="#666666" points="605,-184 487,-184 487,-165 605,-165 605,-184"/>
<text text-anchor="middle" x="546" y="-172" font-family="Helvetica,sans-Serif" font-size="10.00">Splines/SplineBase.h</text>
</a>
</g>
</g>
<!-- Node2 -->
<g id="node2" class="node">
<title>Node2</title>
<g id="a_node2"><a xlink:href="BinnedSplineHandler_8h.html" target="_top" xlink:title=" ">
<polygon fill="white" stroke="#666666" points="388.5,-129 223.5,-129 223.5,-110 388.5,-110 388.5,-129"/>
<text text-anchor="middle" x="306" y="-117" font-family="Helvetica,sans-Serif" font-size="10.00">Splines/BinnedSplineHandler.h</text>
</a>
</g>
</g>
<!-- Node1&#45;&gt;Node2 -->
<g id="edge1" class="edge">
<title>Node1&#45;&gt;Node2</title>
<path fill="none" stroke="#63b8ff" d="M497.62,-162.82C452.64,-152.88 386.5,-138.28 344.86,-129.08"/>
<polygon fill="#63b8ff" stroke="#63b8ff" points="496.92,-166.25 507.44,-164.98 498.43,-159.41 496.92,-166.25"/>
</g>
<!-- Node7 -->
<g id="node7" class="node">
<title>Node7</title>
<g id="a_node7"><a xlink:href="SplineBase_8cpp.html" target="_top" xlink:title=" ">
<polygon fill="white" stroke="#666666" points="535.5,-129 406.5,-129 406.5,-110 535.5,-110 535.5,-129"/>
<text text-anchor="middle" x="471" y="-117" font-family="Helvetica,sans-Serif" font-size="10.00">Splines/SplineBase.cpp</text>
</a>
</g>
</g>
<!-- Node1&#45;&gt;Node7 -->
<g id="edge6" class="edge">
<title>Node1&#45;&gt;Node7</title>
<path fill="none" stroke="#63b8ff" d="M525.69,-159.15C512.14,-149.57 494.76,-137.29 483.27,-129.17"/>
<polygon fill="#63b8ff" stroke="#63b8ff" points="523.76,-162.07 533.95,-164.98 527.8,-156.36 523.76,-162.07"/>
</g>
<!-- Node8 -->
<g id="node8" class="node">
<title>Node8</title>
<g id="a_node8"><a xlink:href="SplineMonolith_8h.html" target="_top" xlink:title=" ">
<polygon fill="white" stroke="#666666" points="690.5,-129 553.5,-129 553.5,-110 690.5,-110 690.5,-129"/>
<text text-anchor="middle" x="622" y="-117" font-family="Helvetica,sans-Serif" font-size="10.00">Splines/SplineMonolith.h</text>
</a>
</g>
</g>
<!-- Node1&#45;&gt;Node8 -->
<g id="edge7" class="edge">
<title>Node1&#45;&gt;Node8</title>
<path fill="none" stroke="#63b8ff" d="M566.58,-159.15C580.31,-149.57 597.93,-137.29 609.57,-129.17"/>
<polygon fill="#63b8ff" stroke="#63b8ff" points="564.41,-156.39 558.21,-164.98 568.42,-162.14 564.41,-156.39"/>
</g>
<!-- Node10 -->
<g id="node10" class="node">
<title>Node10</title>
<g id="a_node10"><a xlink:href="splines_8cpp.html" target="_top" xlink:title=" ">
<polygon fill="white" stroke="#666666" points="773,-74 665,-74 665,-55 773,-55 773,-74"/>
<text text-anchor="middle" x="719" y="-62" font-family="Helvetica,sans-Serif" font-size="10.00">python/splines.cpp</text>
</a>
</g>
</g>
<!-- Node1&#45;&gt;Node10 -->
<g id="edge10" class="edge">
<title>Node1&#45;&gt;Node10</title>
<path fill="none" stroke="#63b8ff" d="M615.05,-168.17C644.66,-162.53 677.53,-151.26 700,-129 715.04,-114.1 718.28,-87.81 718.91,-74.21"/>
<polygon fill="#63b8ff" stroke="#63b8ff" points="614.41,-164.73 605.15,-169.88 615.6,-171.63 614.41,-164.73"/>
</g>
<!-- Node3 -->
<g id="node3" class="node">
<title>Node3</title>
<g id="a_node3"><a xlink:href="SampleHandlerFD_8h.html" target="_top" xlink:title=" ">
<polygon fill="white" stroke="#666666" points="244.5,-74 85.5,-74 85.5,-55 244.5,-55 244.5,-74"/>
<text text-anchor="middle" x="165" y="-62" font-family="Helvetica,sans-Serif" font-size="10.00">Samples/SampleHandlerFD.h</text>
</a>
</g>
</g>
<!-- Node2&#45;&gt;Node3 -->
<g id="edge2" class="edge">
<title>Node2&#45;&gt;Node3</title>
<path fill="none" stroke="#63b8ff" d="M273.86,-106.42C247.71,-96.59 211.41,-82.95 188.07,-74.17"/>
<polygon fill="#63b8ff" stroke="#63b8ff" points="272.75,-109.74 283.35,-109.98 275.22,-103.19 272.75,-109.74"/>
</g>
<!-- Node6 -->
<g id="node6" class="node">
<title>Node6</title>
<g id="a_node6"><a xlink:href="BinnedSplineHandler_8cpp.html" target="_top" xlink:title=" ">
<polygon fill="white" stroke="#666666" points="438,-74 262,-74 262,-55 438,-55 438,-74"/>
<text text-anchor="middle" x="350" y="-62" font-family="Helvetica,sans-Serif" font-size="10.00">Splines/BinnedSplineHandler.cpp</text>
</a>
</g>
</g>
<!-- Node2&#45;&gt;Node6 -->
<g id="edge5" class="edge">
<title>Node2&#45;&gt;Node6</title>
<path fill="none" stroke="#63b8ff" d="M319.73,-101.96C327.4,-92.72 336.63,-81.6 342.87,-74.09"/>
<polygon fill="#63b8ff" stroke="#63b8ff" points="316.96,-99.82 313.27,-109.75 322.35,-104.29 316.96,-99.82"/>
</g>
<!-- Node4 -->
<g id="node4" class="node">
<title>Node4</title>
<g id="a_node4"><a xlink:href="SampleHandlerFD_8cpp.html" target="_top" xlink:title=" ">
<polygon fill="white" stroke="#666666" points="170,-19 0,-19 0,0 170,0 170,-19"/>
<text text-anchor="middle" x="85" y="-7" font-family="Helvetica,sans-Serif" font-size="10.00">Samples/SampleHandlerFD.cpp</text>
</a>
</g>
</g>
<!-- Node3&#45;&gt;Node4 -->
<g id="edge3" class="edge">
<title>Node3&#45;&gt;Node4</title>
<path fill="none" stroke="#63b8ff" d="M143.75,-49.42C129.24,-39.81 110.46,-27.37 98.09,-19.17"/>
<polygon fill="#63b8ff" stroke="#63b8ff" points="141.88,-52.38 152.15,-54.98 145.74,-46.54 141.88,-52.38"/>
</g>
<!-- Node5 -->
<g id="node5" class="node">
<title>Node5</title>
<g id="a_node5"><a xlink:href="samples_8cpp.html" target="_top" xlink:title=" ">
<polygon fill="white" stroke="#666666" points="303.5,-19 188.5,-19 188.5,0 303.5,0 303.5,-19"/>
<text text-anchor="middle" x="246" y="-7" font-family="Helvetica,sans-Serif" font-size="10.00">python/samples.cpp</text>
</a>
</g>
</g>
<!-- Node3&#45;&gt;Node5 -->
<g id="edge4" class="edge">
<title>Node3&#45;&gt;Node5</title>
<path fill="none" stroke="#63b8ff" d="M186.51,-49.42C201.21,-39.81 220.22,-27.37 232.75,-19.17"/>
<polygon fill="#63b8ff" stroke="#63b8ff" points="184.47,-46.58 178.01,-54.98 188.3,-52.44 184.47,-46.58"/>
</g>
<!-- Node9 -->
<g id="node9" class="node">
<title>Node9</title>
<g id="a_node9"><a xlink:href="SplineMonolith_8cpp.html" target="_top" xlink:title=" ">
<polygon fill="white" stroke="#666666" points="647,-74 499,-74 499,-55 647,-55 647,-74"/>
<text text-anchor="middle" x="573" y="-62" font-family="Helvetica,sans-Serif" font-size="10.00">Splines/SplineMonolith.cpp</text>
</a>
</g>
</g>
<!-- Node8&#45;&gt;Node9 -->
<g id="edge8" class="edge">
<title>Node8&#45;&gt;Node9</title>
<path fill="none" stroke="#63b8ff" d="M606.97,-102.24C598.38,-92.95 587.96,-81.68 580.94,-74.09"/>
<polygon fill="#63b8ff" stroke="#63b8ff" points="604.55,-104.78 613.91,-109.75 609.69,-100.03 604.55,-104.78"/>
</g>
<!-- Node8&#45;&gt;Node10 -->
<g id="edge9" class="edge">
<title>Node8&#45;&gt;Node10</title>
<path fill="none" stroke="#63b8ff" d="M646.77,-104.97C664.5,-95.28 687.85,-82.52 703.13,-74.17"/>
<polygon fill="#63b8ff" stroke="#63b8ff" points="644.68,-102.12 637.58,-109.98 648.04,-108.26 644.68,-102.12"/>
</g>
</g>
</svg>
