<?xml version="1.0" encoding="UTF-8" standalone="no"?>
<!DOCTYPE svg PUBLIC "-//W3C//DTD SVG 1.1//EN"
 "http://www.w3.org/Graphics/SVG/1.1/DTD/svg11.dtd">
<!-- Generated by graphviz version 2.44.0 (0)
 -->
<!-- Title: Fitters/StatisticalUtils.h Pages: 1 -->
<svg width="1777pt" height="453pt"
 viewBox="0.00 0.00 1777.00 453.00" xmlns="http://www.w3.org/2000/svg" xmlns:xlink="http://www.w3.org/1999/xlink">
<g id="graph0" class="graph" transform="scale(1 1) rotate(0) translate(4 449)">
<title>Fitters/StatisticalUtils.h</title>
<polygon fill="white" stroke="transparent" points="-4,4 -4,-449 1773,-449 1773,4 -4,4"/>
<!-- Node1 -->
<g id="node1" class="node">
<title>Node1</title>
<g id="a_node1"><a xlink:title="Utility functions for statistical interpretations in MaCh3.">
<polygon fill="#bfbfbf" stroke="black" points="725.5,-425.5 725.5,-444.5 845.5,-444.5 845.5,-425.5 725.5,-425.5"/>
<text text-anchor="middle" x="785.5" y="-432.5" font-family="Helvetica" font-size="10.00">Fitters/StatisticalUtils.h</text>
</a>
</g>
</g>
<!-- Node2 -->
<g id="node2" class="node">
<title>Node2</title>
<g id="a_node2"><a xlink:href="MCMCProcessor_8h.html" target="_top" xlink:title=" ">
<polygon fill="white" stroke="black" points="719.5,-369.5 719.5,-388.5 851.5,-388.5 851.5,-369.5 719.5,-369.5"/>
<text text-anchor="middle" x="785.5" y="-376.5" font-family="Helvetica" font-size="10.00">Fitters/MCMCProcessor.h</text>
</a>
</g>
</g>
<!-- Node1&#45;&gt;Node2 -->
<g id="edge1" class="edge">
<title>Node1&#45;&gt;Node2</title>
<path fill="none" stroke="midnightblue" d="M785.5,-414.8C785.5,-405.91 785.5,-395.78 785.5,-388.75"/>
<polygon fill="midnightblue" stroke="midnightblue" points="782,-415.08 785.5,-425.08 789,-415.08 782,-415.08"/>
</g>
<!-- Node26 -->
<g id="node26" class="node">
<title>Node26</title>
<g id="a_node26"><a xlink:href="SampleSummary_8h.html" target="_top" xlink:title=" ">
<polygon fill="white" stroke="black" points="246,-308 246,-327 377,-327 377,-308 246,-308"/>
<text text-anchor="middle" x="311.5" y="-315" font-family="Helvetica" font-size="10.00">Fitters/SampleSummary.h</text>
</a>
</g>
</g>
<!-- Node1&#45;&gt;Node26 -->
<g id="edge47" class="edge">
<title>Node1&#45;&gt;Node26</title>
<path fill="none" stroke="midnightblue" d="M740.49,-423.03C646.54,-400.14 431.33,-347.7 346.65,-327.06"/>
<polygon fill="midnightblue" stroke="midnightblue" points="739.72,-426.45 750.26,-425.41 741.37,-419.65 739.72,-426.45"/>
</g>
<!-- Node39 -->
<g id="node39" class="node">
<title>Node39</title>
<g id="a_node39"><a xlink:href="StatisticalUtils_8cpp.html" target="_top" xlink:title=" ">
<polygon fill="white" stroke="black" points="870,-369.5 870,-388.5 1001,-388.5 1001,-369.5 870,-369.5"/>
<text text-anchor="middle" x="935.5" y="-376.5" font-family="Helvetica" font-size="10.00">Fitters/StatisticalUtils.cpp</text>
</a>
</g>
</g>
<!-- Node1&#45;&gt;Node39 -->
<g id="edge48" class="edge">
<title>Node1&#45;&gt;Node39</title>
<path fill="none" stroke="midnightblue" d="M818.72,-422.04C846.95,-411.88 886.76,-397.55 911.84,-388.52"/>
<polygon fill="midnightblue" stroke="midnightblue" points="817.49,-418.76 809.27,-425.44 819.86,-425.35 817.49,-418.76"/>
</g>
<!-- Node3 -->
<g id="node3" class="node">
<title>Node3</title>
<g id="a_node3"><a xlink:href="FitterBase_8h.html" target="_top" xlink:title=" ">
<polygon fill="white" stroke="black" points="861,-308 861,-327 962,-327 962,-308 861,-308"/>
<text text-anchor="middle" x="911.5" y="-315" font-family="Helvetica" font-size="10.00">Fitters/FitterBase.h</text>
</a>
</g>
</g>
<!-- Node2&#45;&gt;Node3 -->
<g id="edge2" class="edge">
<title>Node2&#45;&gt;Node3</title>
<path fill="none" stroke="midnightblue" d="M812.66,-365.17C837.11,-353.63 872.35,-336.99 893.48,-327.01"/>
<polygon fill="midnightblue" stroke="midnightblue" points="811.1,-362.04 803.55,-369.48 814.09,-368.37 811.1,-362.04"/>
</g>
<!-- Node22 -->
<g id="node22" class="node">
<title>Node22</title>
<g id="a_node22"><a xlink:href="MCMCProcessor_8cpp.html" target="_top" xlink:title=" ">
<polygon fill="white" stroke="black" points="980,-308 980,-327 1123,-327 1123,-308 980,-308"/>
<text text-anchor="middle" x="1051.5" y="-315" font-family="Helvetica" font-size="10.00">Fitters/MCMCProcessor.cpp</text>
</a>
</g>
</g>
<!-- Node2&#45;&gt;Node22 -->
<g id="edge29" class="edge">
<title>Node2&#45;&gt;Node22</title>
<path fill="none" stroke="midnightblue" d="M833.52,-367.26C885.12,-355.72 966.09,-337.61 1013.46,-327.01"/>
<polygon fill="midnightblue" stroke="midnightblue" points="832.61,-363.88 823.61,-369.48 834.13,-370.71 832.61,-363.88"/>
</g>
<!-- Node23 -->
<g id="node23" class="node">
<title>Node23</title>
<g id="a_node23"><a xlink:href="OscProcessor_8h.html" target="_top" xlink:title=" ">
<polygon fill="white" stroke="black" points="1304,-308 1304,-327 1423,-327 1423,-308 1304,-308"/>
<text text-anchor="middle" x="1363.5" y="-315" font-family="Helvetica" font-size="10.00">Fitters/OscProcessor.h</text>
</a>
</g>
</g>
<!-- Node2&#45;&gt;Node23 -->
<g id="edge30" class="edge">
<title>Node2&#45;&gt;Node23</title>
<path fill="none" stroke="midnightblue" d="M861.76,-368.99C1028.61,-350.79 1211.76,-332.97 1303.96,-324.15"/>
<polygon fill="midnightblue" stroke="midnightblue" points="861.37,-365.51 851.81,-370.08 862.13,-372.47 861.37,-365.51"/>
</g>
<!-- Node2&#45;&gt;Node26 -->
<g id="edge33" class="edge">
<title>Node2&#45;&gt;Node26</title>
<path fill="none" stroke="midnightblue" d="M709.23,-371.2C628.76,-363.6 498.35,-350.09 386.5,-333 375.49,-331.32 363.63,-329.18 352.66,-327.06"/>
<polygon fill="midnightblue" stroke="midnightblue" points="708.99,-374.69 719.28,-372.14 709.65,-367.72 708.99,-374.69"/>
</g>
<!-- Node28 -->
<g id="node28" class="node">
<title>Node28</title>
<g id="a_node28"><a xlink:href="DiagMCMC_8cpp.html" target="_top" xlink:title=" ">
<polygon fill="white" stroke="black" points="1441,-308 1441,-327 1582,-327 1582,-308 1441,-308"/>
<text text-anchor="middle" x="1511.5" y="-315" font-family="Helvetica" font-size="10.00">Diagnostics/DiagMCMC.cpp</text>
</a>
</g>
</g>
<!-- Node2&#45;&gt;Node28 -->
<g id="edge35" class="edge">
<title>Node2&#45;&gt;Node28</title>
<path fill="none" stroke="midnightblue" d="M862.09,-369.01C1116.5,-346.5 1183.44,-363.6 1432.5,-333 1444.82,-331.49 1458.12,-329.27 1470.23,-327.03"/>
<polygon fill="midnightblue" stroke="midnightblue" points="861.44,-365.55 851.8,-369.93 862.07,-372.52 861.44,-365.55"/>
</g>
<!-- Node29 -->
<g id="node29" class="node">
<title>Node29</title>
<g id="a_node29"><a xlink:href="PlotMCMCDiag_8cpp.html" target="_top" xlink:title="KS: This script is used to analyse output form DiagMCMC.">
<polygon fill="white" stroke="black" points="395.5,-308 395.5,-327 553.5,-327 553.5,-308 395.5,-308"/>
<text text-anchor="middle" x="474.5" y="-315" font-family="Helvetica" font-size="10.00">Diagnostics/PlotMCMCDiag.cpp</text>
</a>
</g>
</g>
<!-- Node2&#45;&gt;Node29 -->
<g id="edge36" class="edge">
<title>Node2&#45;&gt;Node29</title>
<path fill="none" stroke="midnightblue" d="M730.86,-367.55C670.6,-356.02 574.82,-337.69 518.98,-327.01"/>
<polygon fill="midnightblue" stroke="midnightblue" points="730.46,-371.03 740.94,-369.48 731.78,-364.16 730.46,-371.03"/>
</g>
<!-- Node30 -->
<g id="node30" class="node">
<title>Node30</title>
<g id="a_node30"><a xlink:href="SmearChain_8cpp.html" target="_top" xlink:title=" ">
<polygon fill="white" stroke="black" points="571.5,-308 571.5,-327 715.5,-327 715.5,-308 571.5,-308"/>
<text text-anchor="middle" x="643.5" y="-315" font-family="Helvetica" font-size="10.00">Diagnostics/SmearChain.cpp</text>
</a>
</g>
</g>
<!-- Node2&#45;&gt;Node30 -->
<g id="edge37" class="edge">
<title>Node2&#45;&gt;Node30</title>
<path fill="none" stroke="midnightblue" d="M755.62,-365.48C728.04,-353.92 687.83,-337.08 663.81,-327.01"/>
<polygon fill="midnightblue" stroke="midnightblue" points="754.58,-368.84 765.15,-369.48 757.28,-362.38 754.58,-368.84"/>
</g>
<!-- Node31 -->
<g id="node31" class="node">
<title>Node31</title>
<g id="a_node31"><a xlink:href="inputManager_8h.html" target="_top" xlink:title=" ">
<polygon fill="white" stroke="black" points="733.5,-302.5 733.5,-332.5 837.5,-332.5 837.5,-302.5 733.5,-302.5"/>
<text text-anchor="start" x="741.5" y="-320.5" font-family="Helvetica" font-size="10.00">Plotting/plottingUtils</text>
<text text-anchor="middle" x="785.5" y="-309.5" font-family="Helvetica" font-size="10.00">/inputManager.h</text>
</a>
</g>
</g>
<!-- Node2&#45;&gt;Node31 -->
<g id="edge38" class="edge">
<title>Node2&#45;&gt;Node31</title>
<path fill="none" stroke="midnightblue" d="M785.5,-359.23C785.5,-350.59 785.5,-340.5 785.5,-332.52"/>
<polygon fill="midnightblue" stroke="midnightblue" points="782,-359.48 785.5,-369.48 789,-359.48 782,-359.48"/>
</g>
<!-- Node4 -->
<g id="node4" class="node">
<title>Node4</title>
<g id="a_node4"><a xlink:href="FitterBase_8cpp.html" target="_top" xlink:title=" ">
<polygon fill="white" stroke="black" points="861.5,-241 861.5,-260 973.5,-260 973.5,-241 861.5,-241"/>
<text text-anchor="middle" x="917.5" y="-248" font-family="Helvetica" font-size="10.00">Fitters/FitterBase.cpp</text>
</a>
</g>
</g>
<!-- Node3&#45;&gt;Node4 -->
<g id="edge3" class="edge">
<title>Node3&#45;&gt;Node4</title>
<path fill="none" stroke="midnightblue" d="M913.25,-297.54C914.39,-285.17 915.83,-269.62 916.7,-260.13"/>
<polygon fill="midnightblue" stroke="midnightblue" points="909.74,-297.45 912.31,-307.73 916.71,-298.1 909.74,-297.45"/>
</g>
<!-- Node5 -->
<g id="node5" class="node">
<title>Node5</title>
<g id="a_node5"><a xlink:href="LikelihoodFit_8h.html" target="_top" xlink:title=" ">
<polygon fill="white" stroke="black" points="921.5,-174 921.5,-193 1031.5,-193 1031.5,-174 921.5,-174"/>
<text text-anchor="middle" x="976.5" y="-181" font-family="Helvetica" font-size="10.00">Fitters/LikelihoodFit.h</text>
</a>
</g>
</g>
<!-- Node3&#45;&gt;Node5 -->
<g id="edge4" class="edge">
<title>Node3&#45;&gt;Node5</title>
<path fill="none" stroke="midnightblue" d="M942.03,-303.24C957.14,-294.92 973.94,-282.59 982.5,-266 994.86,-242.04 985.57,-208.75 979.96,-193.18"/>
<polygon fill="midnightblue" stroke="midnightblue" points="940.23,-300.23 932.93,-307.91 943.42,-306.46 940.23,-300.23"/>
</g>
<!-- Node7 -->
<g id="node7" class="node">
<title>Node7</title>
<g id="a_node7"><a xlink:href="MaCh3Factory_8h.html" target="_top" xlink:title="Factory methods for MaCh3 software which streamline initialisation of different objects.">
<polygon fill="white" stroke="black" points="1243,-56.5 1243,-75.5 1364,-75.5 1364,-56.5 1243,-56.5"/>
<text text-anchor="middle" x="1303.5" y="-63.5" font-family="Helvetica" font-size="10.00">Fitters/MaCh3Factory.h</text>
</a>
</g>
</g>
<!-- Node3&#45;&gt;Node7 -->
<g id="edge15" class="edge">
<title>Node3&#45;&gt;Node7</title>
<path fill="none" stroke="midnightblue" d="M955.14,-305.62C960.63,-304.35 966.19,-303.11 971.5,-302 1170.22,-260.41 1296.78,-309.41 1395.5,-132 1410.95,-104.23 1369.72,-85.52 1337.54,-75.57"/>
<polygon fill="midnightblue" stroke="midnightblue" points="954.3,-302.22 945.37,-307.93 955.91,-309.04 954.3,-302.22"/>
</g>
<!-- Node11 -->
<g id="node11" class="node">
<title>Node11</title>
<g id="a_node11"><a xlink:href="fitters_8cpp.html" target="_top" xlink:title=" ">
<polygon fill="white" stroke="black" points="873,-56.5 873,-75.5 966,-75.5 966,-56.5 873,-56.5"/>
<text text-anchor="middle" x="919.5" y="-63.5" font-family="Helvetica" font-size="10.00">python/fitters.cpp</text>
</a>
</g>
</g>
<!-- Node3&#45;&gt;Node11 -->
<g id="edge28" class="edge">
<title>Node3&#45;&gt;Node11</title>
<path fill="none" stroke="midnightblue" d="M863.54,-305.77C802.09,-291.92 703.14,-269.2 700.5,-266 656.91,-213.22 654.72,-164.62 698.5,-112 709.6,-98.66 811.27,-82.22 872.78,-73.37"/>
<polygon fill="midnightblue" stroke="midnightblue" points="862.9,-309.21 873.42,-307.99 864.44,-302.38 862.9,-309.21"/>
</g>
<!-- Node14 -->
<g id="node14" class="node">
<title>Node14</title>
<g id="a_node14"><a xlink:href="MCMCBase_8h.html" target="_top" xlink:title=" ">
<polygon fill="white" stroke="black" points="1055.5,-241 1055.5,-260 1165.5,-260 1165.5,-241 1055.5,-241"/>
<text text-anchor="middle" x="1110.5" y="-248" font-family="Helvetica" font-size="10.00">Fitters/MCMCBase.h</text>
</a>
</g>
</g>
<!-- Node3&#45;&gt;Node14 -->
<g id="edge16" class="edge">
<title>Node3&#45;&gt;Node14</title>
<path fill="none" stroke="midnightblue" d="M947.68,-304.68C987.12,-291.8 1049.28,-271.5 1084.28,-260.06"/>
<polygon fill="midnightblue" stroke="midnightblue" points="946.34,-301.44 937.93,-307.87 948.52,-308.09 946.34,-301.44"/>
</g>
<!-- Node20 -->
<g id="node20" class="node">
<title>Node20</title>
<g id="a_node20"><a xlink:href="PredictiveThrower_8h.html" target="_top" xlink:title=" ">
<polygon fill="white" stroke="black" points="709.5,-241 709.5,-260 843.5,-260 843.5,-241 709.5,-241"/>
<text text-anchor="middle" x="776.5" y="-248" font-family="Helvetica" font-size="10.00">Fitters/PredictiveThrower.h</text>
</a>
</g>
</g>
<!-- Node3&#45;&gt;Node20 -->
<g id="edge26" class="edge">
<title>Node3&#45;&gt;Node20</title>
<path fill="none" stroke="midnightblue" d="M884.38,-303.44C857.64,-290.57 817.53,-271.26 794.5,-260.17"/>
<polygon fill="midnightblue" stroke="midnightblue" points="883.04,-306.68 893.57,-307.87 886.08,-300.38 883.04,-306.68"/>
</g>
<!-- Node6 -->
<g id="node6" class="node">
<title>Node6</title>
<g id="a_node6"><a xlink:href="LikelihoodFit_8cpp.html" target="_top" xlink:title=" ">
<polygon fill="white" stroke="black" points="818.5,-112.5 818.5,-131.5 938.5,-131.5 938.5,-112.5 818.5,-112.5"/>
<text text-anchor="middle" x="878.5" y="-119.5" font-family="Helvetica" font-size="10.00">Fitters/LikelihoodFit.cpp</text>
</a>
</g>
</g>
<!-- Node5&#45;&gt;Node6 -->
<g id="edge5" class="edge">
<title>Node5&#45;&gt;Node6</title>
<path fill="none" stroke="midnightblue" d="M953.84,-168.74C934.91,-157.25 908.51,-141.22 892.51,-131.51"/>
<polygon fill="midnightblue" stroke="midnightblue" points="952.09,-171.78 962.46,-173.98 955.73,-165.79 952.09,-171.78"/>
</g>
<!-- Node5&#45;&gt;Node7 -->
<g id="edge6" class="edge">
<title>Node5&#45;&gt;Node7</title>
<path fill="none" stroke="midnightblue" d="M1023.83,-171.8C1029.77,-170.5 1035.77,-169.2 1041.5,-168 1122.19,-151.02 1148.86,-167.03 1223.5,-132 1253.63,-117.86 1282.21,-89.95 1295.59,-75.75"/>
<polygon fill="midnightblue" stroke="midnightblue" points="1022.94,-168.41 1013.93,-173.99 1024.45,-175.25 1022.94,-168.41"/>
</g>
<!-- Node9 -->
<g id="node9" class="node">
<title>Node9</title>
<g id="a_node9"><a xlink:href="MinuitFit_8h.html" target="_top" xlink:title=" ">
<polygon fill="white" stroke="black" points="707,-112.5 707,-131.5 800,-131.5 800,-112.5 707,-112.5"/>
<text text-anchor="middle" x="753.5" y="-119.5" font-family="Helvetica" font-size="10.00">Fitters/MinuitFit.h</text>
</a>
</g>
</g>
<!-- Node5&#45;&gt;Node9 -->
<g id="edge8" class="edge">
<title>Node5&#45;&gt;Node9</title>
<path fill="none" stroke="midnightblue" d="M934.88,-171.4C891.57,-159.84 824.69,-142 785.39,-131.51"/>
<polygon fill="midnightblue" stroke="midnightblue" points="933.99,-174.78 944.55,-173.98 935.79,-168.02 933.99,-174.78"/>
</g>
<!-- Node12 -->
<g id="node12" class="node">
<title>Node12</title>
<g id="a_node12"><a xlink:href="PSO_8h.html" target="_top" xlink:title=" ">
<polygon fill="white" stroke="black" points="995,-112.5 995,-131.5 1072,-131.5 1072,-112.5 995,-112.5"/>
<text text-anchor="middle" x="1033.5" y="-119.5" font-family="Helvetica" font-size="10.00">Fitters/PSO.h</text>
</a>
</g>
</g>
<!-- Node5&#45;&gt;Node12 -->
<g id="edge11" class="edge">
<title>Node5&#45;&gt;Node12</title>
<path fill="none" stroke="midnightblue" d="M991.83,-166.5C1002.62,-155.24 1016.64,-140.6 1025.35,-131.51"/>
<polygon fill="midnightblue" stroke="midnightblue" points="989.06,-164.33 984.67,-173.98 994.11,-169.18 989.06,-164.33"/>
</g>
<!-- Node8 -->
<g id="node8" class="node">
<title>Node8</title>
<g id="a_node8"><a xlink:href="MaCh3Factory_8cpp.html" target="_top" xlink:title=" ">
<polygon fill="white" stroke="black" points="1238,-0.5 1238,-19.5 1369,-19.5 1369,-0.5 1238,-0.5"/>
<text text-anchor="middle" x="1303.5" y="-7.5" font-family="Helvetica" font-size="10.00">Fitters/MaCh3Factory.cpp</text>
</a>
</g>
</g>
<!-- Node7&#45;&gt;Node8 -->
<g id="edge7" class="edge">
<title>Node7&#45;&gt;Node8</title>
<path fill="none" stroke="midnightblue" d="M1303.5,-45.8C1303.5,-36.91 1303.5,-26.78 1303.5,-19.75"/>
<polygon fill="midnightblue" stroke="midnightblue" points="1300,-46.08 1303.5,-56.08 1307,-46.08 1300,-46.08"/>
</g>
<!-- Node10 -->
<g id="node10" class="node">
<title>Node10</title>
<g id="a_node10"><a xlink:href="MinuitFit_8cpp.html" target="_top" xlink:title=" ">
<polygon fill="white" stroke="black" points="701.5,-56.5 701.5,-75.5 805.5,-75.5 805.5,-56.5 701.5,-56.5"/>
<text text-anchor="middle" x="753.5" y="-63.5" font-family="Helvetica" font-size="10.00">Fitters/MinuitFit.cpp</text>
</a>
</g>
</g>
<!-- Node9&#45;&gt;Node10 -->
<g id="edge9" class="edge">
<title>Node9&#45;&gt;Node10</title>
<path fill="none" stroke="midnightblue" d="M753.5,-101.8C753.5,-92.91 753.5,-82.78 753.5,-75.75"/>
<polygon fill="midnightblue" stroke="midnightblue" points="750,-102.08 753.5,-112.08 757,-102.08 750,-102.08"/>
</g>
<!-- Node9&#45;&gt;Node11 -->
<g id="edge10" class="edge">
<title>Node9&#45;&gt;Node11</title>
<path fill="none" stroke="midnightblue" d="M789.45,-109.3C820.73,-99.13 865.32,-84.62 893.32,-75.52"/>
<polygon fill="midnightblue" stroke="midnightblue" points="788.23,-106.02 779.8,-112.44 790.4,-112.68 788.23,-106.02"/>
</g>
<!-- Node12&#45;&gt;Node7 -->
<g id="edge12" class="edge">
<title>Node12&#45;&gt;Node7</title>
<path fill="none" stroke="midnightblue" d="M1082.29,-111.24C1133.24,-101.05 1212.36,-85.23 1260.88,-75.52"/>
<polygon fill="midnightblue" stroke="midnightblue" points="1081.3,-107.87 1072.18,-113.26 1082.68,-114.73 1081.3,-107.87"/>
</g>
<!-- Node12&#45;&gt;Node11 -->
<g id="edge14" class="edge">
<title>Node12&#45;&gt;Node11</title>
<path fill="none" stroke="midnightblue" d="M1006.26,-108.1C984.96,-98.01 955.96,-84.27 937.48,-75.52"/>
<polygon fill="midnightblue" stroke="midnightblue" points="1004.9,-111.33 1015.44,-112.44 1007.9,-105 1004.9,-111.33"/>
</g>
<!-- Node13 -->
<g id="node13" class="node">
<title>Node13</title>
<g id="a_node13"><a xlink:href="PSO_8cpp.html" target="_top" xlink:title=" ">
<polygon fill="white" stroke="black" points="984.5,-56.5 984.5,-75.5 1072.5,-75.5 1072.5,-56.5 984.5,-56.5"/>
<text text-anchor="middle" x="1028.5" y="-63.5" font-family="Helvetica" font-size="10.00">Fitters/PSO.cpp</text>
</a>
</g>
</g>
<!-- Node12&#45;&gt;Node13 -->
<g id="edge13" class="edge">
<title>Node12&#45;&gt;Node13</title>
<path fill="none" stroke="midnightblue" d="M1031.75,-102.1C1030.92,-93.14 1029.97,-82.86 1029.31,-75.75"/>
<polygon fill="midnightblue" stroke="midnightblue" points="1028.27,-102.45 1032.67,-112.08 1035.24,-101.8 1028.27,-102.45"/>
</g>
<!-- Node15 -->
<g id="node15" class="node">
<title>Node15</title>
<g id="a_node15"><a xlink:href="MCMCBase_8cpp.html" target="_top" xlink:title=" ">
<polygon fill="white" stroke="black" points="1050,-174 1050,-193 1171,-193 1171,-174 1050,-174"/>
<text text-anchor="middle" x="1110.5" y="-181" font-family="Helvetica" font-size="10.00">Fitters/MCMCBase.cpp</text>
</a>
</g>
</g>
<!-- Node14&#45;&gt;Node15 -->
<g id="edge17" class="edge">
<title>Node14&#45;&gt;Node15</title>
<path fill="none" stroke="midnightblue" d="M1110.5,-230.54C1110.5,-218.17 1110.5,-202.62 1110.5,-193.13"/>
<polygon fill="midnightblue" stroke="midnightblue" points="1107,-230.73 1110.5,-240.73 1114,-230.73 1107,-230.73"/>
</g>
<!-- Node16 -->
<g id="node16" class="node">
<title>Node16</title>
<g id="a_node16"><a xlink:href="MR2T2_8h.html" target="_top" xlink:title=" ">
<polygon fill="white" stroke="black" points="1189,-174 1189,-193 1278,-193 1278,-174 1189,-174"/>
<text text-anchor="middle" x="1233.5" y="-181" font-family="Helvetica" font-size="10.00">Fitters/MR2T2.h</text>
</a>
</g>
</g>
<!-- Node14&#45;&gt;Node16 -->
<g id="edge18" class="edge">
<title>Node14&#45;&gt;Node16</title>
<path fill="none" stroke="midnightblue" d="M1135.85,-236.1C1160.21,-223.23 1196.3,-204.16 1217.1,-193.17"/>
<polygon fill="midnightblue" stroke="midnightblue" points="1134.04,-233.1 1126.83,-240.87 1137.31,-239.29 1134.04,-233.1"/>
</g>
<!-- Node16&#45;&gt;Node7 -->
<g id="edge23" class="edge">
<title>Node16&#45;&gt;Node7</title>
<path fill="none" stroke="midnightblue" d="M1288.48,-178.75C1320.67,-173.4 1358.93,-160.88 1379.5,-132 1396.82,-107.68 1356.56,-86.7 1328.27,-75.55"/>
<polygon fill="midnightblue" stroke="midnightblue" points="1287.66,-175.34 1278.27,-180.25 1288.67,-182.26 1287.66,-175.34"/>
</g>
<!-- Node16&#45;&gt;Node11 -->
<g id="edge25" class="edge">
<title>Node16&#45;&gt;Node11</title>
<path fill="none" stroke="midnightblue" d="M1194.06,-171.32C1189.5,-170.14 1184.91,-169.01 1180.5,-168 1095.02,-148.41 1064.41,-172.25 986.5,-132 959.72,-118.16 936.49,-90.12 925.78,-75.82"/>
<polygon fill="midnightblue" stroke="midnightblue" points="1193.33,-174.75 1203.9,-173.93 1195.13,-167.98 1193.33,-174.75"/>
</g>
<!-- Node17 -->
<g id="node17" class="node">
<title>Node17</title>
<g id="a_node17"><a xlink:href="DelayedMR2T2_8h.html" target="_top" xlink:title=" ">
<polygon fill="white" stroke="black" points="1090.5,-112.5 1090.5,-131.5 1214.5,-131.5 1214.5,-112.5 1090.5,-112.5"/>
<text text-anchor="middle" x="1152.5" y="-119.5" font-family="Helvetica" font-size="10.00">Fitters/DelayedMR2T2.h</text>
</a>
</g>
</g>
<!-- Node16&#45;&gt;Node17 -->
<g id="edge19" class="edge">
<title>Node16&#45;&gt;Node17</title>
<path fill="none" stroke="midnightblue" d="M1213.48,-167.79C1197.94,-156.38 1176.95,-140.96 1164.08,-131.51"/>
<polygon fill="midnightblue" stroke="midnightblue" points="1211.76,-170.88 1221.89,-173.98 1215.91,-165.23 1211.76,-170.88"/>
</g>
<!-- Node19 -->
<g id="node19" class="node">
<title>Node19</title>
<g id="a_node19"><a xlink:href="MR2T2_8cpp.html" target="_top" xlink:title=" ">
<polygon fill="white" stroke="black" points="1271,-112.5 1271,-131.5 1370,-131.5 1370,-112.5 1271,-112.5"/>
<text text-anchor="middle" x="1320.5" y="-119.5" font-family="Helvetica" font-size="10.00">Fitters/MR2T2.cpp</text>
</a>
</g>
</g>
<!-- Node16&#45;&gt;Node19 -->
<g id="edge24" class="edge">
<title>Node16&#45;&gt;Node19</title>
<path fill="none" stroke="midnightblue" d="M1254.54,-168.11C1271.27,-156.67 1294.11,-141.05 1308.06,-131.51"/>
<polygon fill="midnightblue" stroke="midnightblue" points="1252.24,-165.44 1245.96,-173.98 1256.2,-171.22 1252.24,-165.44"/>
</g>
<!-- Node17&#45;&gt;Node7 -->
<g id="edge21" class="edge">
<title>Node17&#45;&gt;Node7</title>
<path fill="none" stroke="midnightblue" d="M1185.95,-109.04C1214.36,-98.88 1254.44,-84.55 1279.69,-75.52"/>
<polygon fill="midnightblue" stroke="midnightblue" points="1184.66,-105.78 1176.43,-112.44 1187.02,-112.37 1184.66,-105.78"/>
</g>
<!-- Node17&#45;&gt;Node11 -->
<g id="edge22" class="edge">
<title>Node17&#45;&gt;Node11</title>
<path fill="none" stroke="midnightblue" d="M1105.7,-110.15C1061.67,-99.95 996.65,-84.88 956.25,-75.52"/>
<polygon fill="midnightblue" stroke="midnightblue" points="1105.05,-113.6 1115.58,-112.44 1106.63,-106.78 1105.05,-113.6"/>
</g>
<!-- Node18 -->
<g id="node18" class="node">
<title>Node18</title>
<g id="a_node18"><a xlink:href="DelayedMR2T2_8cpp.html" target="_top" xlink:title=" ">
<polygon fill="white" stroke="black" points="1090.5,-56.5 1090.5,-75.5 1224.5,-75.5 1224.5,-56.5 1090.5,-56.5"/>
<text text-anchor="middle" x="1157.5" y="-63.5" font-family="Helvetica" font-size="10.00">Fitters/DelayedMR2T2.cpp</text>
</a>
</g>
</g>
<!-- Node17&#45;&gt;Node18 -->
<g id="edge20" class="edge">
<title>Node17&#45;&gt;Node18</title>
<path fill="none" stroke="midnightblue" d="M1154.25,-102.1C1155.08,-93.14 1156.03,-82.86 1156.69,-75.75"/>
<polygon fill="midnightblue" stroke="midnightblue" points="1150.76,-101.8 1153.33,-112.08 1157.73,-102.45 1150.76,-101.8"/>
</g>
<!-- Node21 -->
<g id="node21" class="node">
<title>Node21</title>
<g id="a_node21"><a xlink:href="PredictiveThrower_8cpp.html" target="_top" xlink:title=" ">
<polygon fill="white" stroke="black" points="706.5,-174 706.5,-193 850.5,-193 850.5,-174 706.5,-174"/>
<text text-anchor="middle" x="778.5" y="-181" font-family="Helvetica" font-size="10.00">Fitters/PredictiveThrower.cpp</text>
</a>
</g>
</g>
<!-- Node20&#45;&gt;Node21 -->
<g id="edge27" class="edge">
<title>Node20&#45;&gt;Node21</title>
<path fill="none" stroke="midnightblue" d="M777.08,-230.54C777.46,-218.17 777.94,-202.62 778.23,-193.13"/>
<polygon fill="midnightblue" stroke="midnightblue" points="773.58,-230.63 776.77,-240.73 780.58,-230.85 773.58,-230.63"/>
</g>
<!-- Node24 -->
<g id="node24" class="node">
<title>Node24</title>
<g id="a_node24"><a xlink:href="OscProcessor_8cpp.html" target="_top" xlink:title=" ">
<polygon fill="white" stroke="black" points="1465,-241 1465,-260 1594,-260 1594,-241 1465,-241"/>
<text text-anchor="middle" x="1529.5" y="-248" font-family="Helvetica" font-size="10.00">Fitters/OscProcessor.cpp</text>
</a>
</g>
</g>
<!-- Node23&#45;&gt;Node24 -->
<g id="edge31" class="edge">
<title>Node23&#45;&gt;Node24</title>
<path fill="none" stroke="midnightblue" d="M1395.16,-304.1C1428.12,-291.2 1478.86,-271.33 1507.63,-260.06"/>
<polygon fill="midnightblue" stroke="midnightblue" points="1393.58,-300.96 1385.54,-307.87 1396.13,-307.48 1393.58,-300.96"/>
</g>
<!-- Node25 -->
<g id="node25" class="node">
<title>Node25</title>
<g id="a_node25"><a xlink:href="ProcessMCMC_8cpp.html" target="_top" xlink:title="Main exectable responsible for different types of MCMC processing like drawing posteriors,...">
<polygon fill="white" stroke="black" points="1612,-241 1612,-260 1769,-260 1769,-241 1612,-241"/>
<text text-anchor="middle" x="1690.5" y="-248" font-family="Helvetica" font-size="10.00">Diagnostics/ProcessMCMC.cpp</text>
</a>
</g>
</g>
<!-- Node23&#45;&gt;Node25 -->
<g id="edge32" class="edge">
<title>Node23&#45;&gt;Node25</title>
<path fill="none" stroke="midnightblue" d="M1413.54,-305.9C1419.92,-304.57 1426.36,-303.25 1432.5,-302 1507.2,-286.84 1594.23,-269.97 1645.72,-260.07"/>
<polygon fill="midnightblue" stroke="midnightblue" points="1412.69,-302.5 1403.62,-307.97 1414.12,-309.35 1412.69,-302.5"/>
</g>
<!-- Node27 -->
<g id="node27" class="node">
<title>Node27</title>
<g id="a_node27"><a xlink:href="SampleSummary_8cpp.html" target="_top" xlink:title=" ">
<polygon fill="white" stroke="black" points="229.5,-241 229.5,-260 371.5,-260 371.5,-241 229.5,-241"/>
<text text-anchor="middle" x="300.5" y="-248" font-family="Helvetica" font-size="10.00">Fitters/SampleSummary.cpp</text>
</a>
</g>
</g>
<!-- Node26&#45;&gt;Node27 -->
<g id="edge34" class="edge">
<title>Node26&#45;&gt;Node27</title>
<path fill="none" stroke="midnightblue" d="M308.29,-297.54C306.2,-285.17 303.57,-269.62 301.96,-260.13"/>
<polygon fill="midnightblue" stroke="midnightblue" points="304.9,-298.46 310.02,-307.73 311.8,-297.29 304.9,-298.46"/>
</g>
<!-- Node32 -->
<g id="node32" class="node">
<title>Node32</title>
<g id="a_node32"><a xlink:href="inputManager_8cpp.html" target="_top" xlink:title=" ">
<polygon fill="white" stroke="black" points="549.5,-235.5 549.5,-265.5 653.5,-265.5 653.5,-235.5 549.5,-235.5"/>
<text text-anchor="start" x="557.5" y="-253.5" font-family="Helvetica" font-size="10.00">Plotting/plottingUtils</text>
<text text-anchor="middle" x="601.5" y="-242.5" font-family="Helvetica" font-size="10.00">/inputManager.cpp</text>
</a>
</g>
</g>
<!-- Node31&#45;&gt;Node32 -->
<g id="edge39" class="edge">
<title>Node31&#45;&gt;Node32</title>
<path fill="none" stroke="midnightblue" d="M735.83,-298.96C706.2,-288.48 669.06,-275.37 641.35,-265.58"/>
<polygon fill="midnightblue" stroke="midnightblue" points="734.98,-302.37 745.57,-302.4 737.31,-295.76 734.98,-302.37"/>
</g>
<!-- Node33 -->
<g id="node33" class="node">
<title>Node33</title>
<g id="a_node33"><a xlink:href="plottingManager_8h.html" target="_top" xlink:title=" ">
<polygon fill="white" stroke="black" points="389.5,-235.5 389.5,-265.5 493.5,-265.5 493.5,-235.5 389.5,-235.5"/>
<text text-anchor="start" x="397.5" y="-253.5" font-family="Helvetica" font-size="10.00">Plotting/plottingUtils</text>
<text text-anchor="middle" x="441.5" y="-242.5" font-family="Helvetica" font-size="10.00">/plottingManager.h</text>
</a>
</g>
</g>
<!-- Node31&#45;&gt;Node33 -->
<g id="edge40" class="edge">
<title>Node31&#45;&gt;Node33</title>
<path fill="none" stroke="midnightblue" d="M723.43,-301.87C626.97,-282.78 600.4,-283.9 507.5,-266 503.01,-265.13 498.35,-264.2 493.69,-263.23"/>
<polygon fill="midnightblue" stroke="midnightblue" points="722.82,-305.31 733.31,-303.84 724.19,-298.45 722.82,-305.31"/>
</g>
<!-- Node38 -->
<g id="node38" class="node">
<title>Node38</title>
<g id="a_node38"><a xlink:href="plotting_8cpp.html" target="_top" xlink:title=" ">
<polygon fill="white" stroke="black" points="538,-174 538,-193 637,-193 637,-174 538,-174"/>
<text text-anchor="middle" x="587.5" y="-181" font-family="Helvetica" font-size="10.00">python/plotting.cpp</text>
</a>
</g>
</g>
<!-- Node31&#45;&gt;Node38 -->
<g id="edge46" class="edge">
<title>Node31&#45;&gt;Node38</title>
<path fill="none" stroke="midnightblue" d="M723.41,-302.03C639.37,-287.62 591.5,-327.94 540.5,-266 520.77,-242.04 556.22,-208.75 575.81,-193.18"/>
<polygon fill="midnightblue" stroke="midnightblue" points="722.8,-305.47 733.29,-303.94 724.14,-298.6 722.8,-305.47"/>
</g>
<!-- Node34 -->
<g id="node34" class="node">
<title>Node34</title>
<g id="a_node34"><a xlink:href="GetPostfitParamPlots_8cpp.html" target="_top" xlink:title=" ">
<polygon fill="white" stroke="black" points="250,-168.5 250,-198.5 375,-198.5 375,-168.5 250,-168.5"/>
<text text-anchor="start" x="258" y="-186.5" font-family="Helvetica" font-size="10.00">Plotting/GetPostfitParam</text>
<text text-anchor="middle" x="312.5" y="-175.5" font-family="Helvetica" font-size="10.00">Plots.cpp</text>
</a>
</g>
</g>
<!-- Node33&#45;&gt;Node34 -->
<g id="edge41" class="edge">
<title>Node33&#45;&gt;Node34</title>
<path fill="none" stroke="midnightblue" d="M404.49,-230.85C384.1,-220.58 359.19,-208.03 340.44,-198.58"/>
<polygon fill="midnightblue" stroke="midnightblue" points="403,-234.02 413.51,-235.4 406.15,-227.77 403,-234.02"/>
</g>
<!-- Node35 -->
<g id="node35" class="node">
<title>Node35</title>
<g id="a_node35"><a xlink:href="MatrixPlotter_8cpp.html" target="_top" xlink:title=" ">
<polygon fill="white" stroke="black" points="393,-174 393,-193 520,-193 520,-174 393,-174"/>
<text text-anchor="middle" x="456.5" y="-181" font-family="Helvetica" font-size="10.00">Plotting/MatrixPlotter.cpp</text>
</a>
</g>
</g>
<!-- Node33&#45;&gt;Node35 -->
<g id="edge42" class="edge">
<title>Node33&#45;&gt;Node35</title>
<path fill="none" stroke="midnightblue" d="M447.02,-225.6C449.63,-214.28 452.59,-201.46 454.49,-193.19"/>
<polygon fill="midnightblue" stroke="midnightblue" points="443.59,-224.87 444.75,-235.4 450.41,-226.44 443.59,-224.87"/>
</g>
<!-- Node36 -->
<g id="node36" class="node">
<title>Node36</title>
<g id="a_node36"><a xlink:href="PlotLLH_8cpp.html" target="_top" xlink:title=" ">
<polygon fill="white" stroke="black" points="0,-174 0,-193 107,-193 107,-174 0,-174"/>
<text text-anchor="middle" x="53.5" y="-181" font-family="Helvetica" font-size="10.00">Plotting/PlotLLH.cpp</text>
</a>
</g>
</g>
<!-- Node33&#45;&gt;Node36 -->
<g id="edge43" class="edge">
<title>Node33&#45;&gt;Node36</title>
<path fill="none" stroke="midnightblue" d="M379.23,-234.88C261.88,-213.61 229.19,-219.97 115.5,-199 106.37,-197.32 96.55,-195.18 87.49,-193.06"/>
<polygon fill="midnightblue" stroke="midnightblue" points="378.86,-238.37 389.33,-236.74 380.13,-231.49 378.86,-238.37"/>
</g>
<!-- Node37 -->
<g id="node37" class="node">
<title>Node37</title>
<g id="a_node37"><a xlink:href="plottingManager_8cpp.html" target="_top" xlink:title=" ">
<polygon fill="white" stroke="black" points="125,-168.5 125,-198.5 232,-198.5 232,-168.5 125,-168.5"/>
<text text-anchor="start" x="133" y="-186.5" font-family="Helvetica" font-size="10.00">Plotting/plottingUtils</text>
<text text-anchor="middle" x="178.5" y="-175.5" font-family="Helvetica" font-size="10.00">/plottingManager.cpp</text>
</a>
</g>
</g>
<!-- Node33&#45;&gt;Node37 -->
<g id="edge44" class="edge">
<title>Node33&#45;&gt;Node37</title>
<path fill="none" stroke="midnightblue" d="M379.33,-234.14C334.54,-223.06 274.71,-208.28 232.03,-197.73"/>
<polygon fill="midnightblue" stroke="midnightblue" points="378.68,-237.58 389.23,-236.58 380.36,-230.78 378.68,-237.58"/>
</g>
<!-- Node33&#45;&gt;Node38 -->
<g id="edge45" class="edge">
<title>Node33&#45;&gt;Node38</title>
<path fill="none" stroke="midnightblue" d="M482.39,-231.3C510.55,-218.76 546.66,-202.68 568.39,-193.01"/>
<polygon fill="midnightblue" stroke="midnightblue" points="480.89,-228.13 473.18,-235.4 483.74,-234.53 480.89,-228.13"/>
</g>
</g>
</svg>
