<?xml version="1.0" encoding="UTF-8" standalone="no"?>
<!DOCTYPE svg PUBLIC "-//W3C//DTD SVG 1.1//EN"
 "http://www.w3.org/Graphics/SVG/1.1/DTD/svg11.dtd">
<!-- Generated by graphviz version 2.43.0 (0)
 -->
<!-- Title: Fitters/StatisticalUtils.h Pages: 1 -->
<!--zoomable 445 -->
<svg id="main" version="1.1" xmlns="http://www.w3.org/2000/svg" xmlns:xlink="http://www.w3.org/1999/xlink" xml:space="preserve" onload="init(evt)">
<style type="text/css"><![CDATA[
.edge:hover path { stroke: red; }
.edge:hover polygon { stroke: red; fill: red; }
]]></style>
<script type="text/javascript"><![CDATA[
var edges = document.getElementsByTagName('g');
if (edges && edges.length) {
  for (var i=0;i<edges.length;i++) {
    if (edges[i].id.substr(0,4)=='edge') {
      edges[i].setAttribute('class','edge');
    }
  }
}
]]></script>
        <defs>
                <circle id="rim" cx="0" cy="0" r="7"/>
                <circle id="rim2" cx="0" cy="0" r="3.5"/>
                <g id="zoomPlus">
                        <use xlink:href="#rim" fill="#404040">
                                <set attributeName="fill" to="#808080" begin="zoomplus.mouseover" end="zoomplus.mouseout"/>
                        </use>
                        <path d="M-4,0h8M0,-4v8" fill="none" stroke="white" stroke-width="1.5" pointer-events="none"/>
                </g>
                <g id="zoomMin">
                        <use xlink:href="#rim" fill="#404040">
                                <set attributeName="fill" to="#808080" begin="zoomminus.mouseover" end="zoomminus.mouseout"/>
                        </use>
                        <path d="M-4,0h8" fill="none" stroke="white" stroke-width="1.5" pointer-events="none"/>
                </g>
                <g id="dirArrow">
                        <path fill="none" stroke="white" stroke-width="1.5" d="M0,-3.0v7 M-2.5,-0.5L0,-3.0L2.5,-0.5"/>
                </g>
               <g id="resetDef">
                       <use xlink:href="#rim2" fill="#404040">
                               <set attributeName="fill" to="#808080" begin="reset.mouseover" end="reset.mouseout"/>
                       </use>
               </g>
        </defs>

<script type="text/javascript">
var viewWidth = 1819;
var viewHeight = 445;
var sectionId = 'dynsection-1';
</script>
<script xlink:href="svgpan.js"/>
<svg id="graph" class="graph">
<g id="viewport">
<title>Fitters/StatisticalUtils.h</title>
<!-- Node1 -->
<g id="node1" class="node">
<title>Node1</title>
<g id="a_node1"><a xlink:title="Utility functions for statistical interpretations in MaCh3.">
<polygon fill="#999999" stroke="#666666" points="952.5,-437 821.5,-437 821.5,-418 952.5,-418 952.5,-437"/>
<text text-anchor="middle" x="887" y="-425" font-family="Helvetica,sans-Serif" font-size="10.00">Fitters/StatisticalUtils.h</text>
</a>
</g>
</g>
<!-- Node2 -->
<g id="node2" class="node">
<title>Node2</title>
<g id="a_node2"><a xlink:href="MCMCProcessor_8h.html" target="_top" xlink:title=" ">
<polygon fill="white" stroke="#666666" points="714.5,-382 577.5,-382 577.5,-363 714.5,-363 714.5,-382"/>
<text text-anchor="middle" x="646" y="-370" font-family="Helvetica,sans-Serif" font-size="10.00">Fitters/MCMCProcessor.h</text>
</a>
</g>
</g>
<!-- Node1&#45;&gt;Node2 -->
<g id="edge1" class="edge">
<title>Node1&#45;&gt;Node2</title>
<path fill="none" stroke="#63b8ff" d="M838.42,-415.82C793.25,-405.88 726.83,-391.28 685.02,-382.08"/>
<polygon fill="#63b8ff" stroke="#63b8ff" points="837.76,-419.26 848.28,-417.98 839.26,-412.42 837.76,-419.26"/>
</g>
<!-- Node28 -->
<g id="node28" class="node">
<title>Node28</title>
<g id="a_node28"><a xlink:href="SampleSummary_8h.html" target="_top" xlink:title=" ">
<polygon fill="white" stroke="#666666" points="1102,-321.5 960,-321.5 960,-302.5 1102,-302.5 1102,-321.5"/>
<text text-anchor="middle" x="1031" y="-309.5" font-family="Helvetica,sans-Serif" font-size="10.00">Fitters/SampleSummary.h</text>
</a>
</g>
</g>
<!-- Node1&#45;&gt;Node28 -->
<g id="edge46" class="edge">
<title>Node1&#45;&gt;Node28</title>
<path fill="none" stroke="#63b8ff" d="M888.32,-407.62C890.22,-393.73 894.84,-375.21 906,-363 926.11,-341 957.19,-328.51 983.33,-321.52"/>
<polygon fill="#63b8ff" stroke="#63b8ff" points="884.8,-407.66 887.27,-417.97 891.76,-408.37 884.8,-407.66"/>
</g>
<!-- Node38 -->
<g id="node38" class="node">
<title>Node38</title>
<g id="a_node38"><a xlink:href="StatisticalUtils_8cpp.html" target="_top" xlink:title=" ">
<polygon fill="white" stroke="#666666" points="1057,-382 915,-382 915,-363 1057,-363 1057,-382"/>
<text text-anchor="middle" x="986" y="-370" font-family="Helvetica,sans-Serif" font-size="10.00">Fitters/StatisticalUtils.cpp</text>
</a>
</g>
</g>
<!-- Node1&#45;&gt;Node38 -->
<g id="edge47" class="edge">
<title>Node1&#45;&gt;Node38</title>
<path fill="none" stroke="#63b8ff" d="M911.78,-413.23C929.94,-403.51 954.06,-390.6 969.8,-382.17"/>
<polygon fill="#63b8ff" stroke="#63b8ff" points="910.07,-410.18 902.91,-417.98 913.37,-416.35 910.07,-410.18"/>
</g>
<!-- Node3 -->
<g id="node3" class="node">
<title>Node3</title>
<g id="a_node3"><a xlink:href="DiagMCMC_8cpp.html" target="_top" xlink:title=" ">
<polygon fill="white" stroke="#666666" points="488.5,-321.5 337.5,-321.5 337.5,-302.5 488.5,-302.5 488.5,-321.5"/>
<text text-anchor="middle" x="413" y="-309.5" font-family="Helvetica,sans-Serif" font-size="10.00">Diagnostics/DiagMCMC.cpp</text>
</a>
</g>
</g>
<!-- Node2&#45;&gt;Node3 -->
<g id="edge2" class="edge">
<title>Node2&#45;&gt;Node3</title>
<path fill="none" stroke="#63b8ff" d="M602.34,-360.54C557.3,-349.23 488.01,-331.83 446.92,-321.52"/>
<polygon fill="#63b8ff" stroke="#63b8ff" points="601.57,-363.95 612.12,-362.99 603.27,-357.16 601.57,-363.95"/>
</g>
<!-- Node4 -->
<g id="node4" class="node">
<title>Node4</title>
<g id="a_node4"><a xlink:href="PlotMCMCDiag_8cpp.html" target="_top" xlink:title="KS: This script is used to analyse output form DiagMCMC.">
<polygon fill="white" stroke="#666666" points="812,-321.5 642,-321.5 642,-302.5 812,-302.5 812,-321.5"/>
<text text-anchor="middle" x="727" y="-309.5" font-family="Helvetica,sans-Serif" font-size="10.00">Diagnostics/PlotMCMCDiag.cpp</text>
</a>
</g>
</g>
<!-- Node2&#45;&gt;Node4 -->
<g id="edge3" class="edge">
<title>Node2&#45;&gt;Node4</title>
<path fill="none" stroke="#63b8ff" d="M666.29,-356.85C681.63,-345.77 702.18,-330.93 715,-321.67"/>
<polygon fill="#63b8ff" stroke="#63b8ff" points="664.01,-354.18 657.95,-362.87 668.11,-359.85 664.01,-354.18"/>
</g>
<!-- Node5 -->
<g id="node5" class="node">
<title>Node5</title>
<g id="a_node5"><a xlink:href="FitterBase_8h.html" target="_top" xlink:title=" ">
<polygon fill="white" stroke="#666666" points="941.5,-321.5 832.5,-321.5 832.5,-302.5 941.5,-302.5 941.5,-321.5"/>
<text text-anchor="middle" x="887" y="-309.5" font-family="Helvetica,sans-Serif" font-size="10.00">Fitters/FitterBase.h</text>
</a>
</g>
</g>
<!-- Node2&#45;&gt;Node5 -->
<g id="edge4" class="edge">
<title>Node2&#45;&gt;Node5</title>
<path fill="none" stroke="#63b8ff" d="M690.87,-360.61C737.44,-349.3 809.33,-331.85 851.91,-321.52"/>
<polygon fill="#63b8ff" stroke="#63b8ff" points="689.94,-357.23 681.04,-362.99 691.59,-364.04 689.94,-357.23"/>
</g>
<!-- Node24 -->
<g id="node24" class="node">
<title>Node24</title>
<g id="a_node24"><a xlink:href="MCMCProcessor_8cpp.html" target="_top" xlink:title=" ">
<polygon fill="white" stroke="#666666" points="173.5,-321.5 24.5,-321.5 24.5,-302.5 173.5,-302.5 173.5,-321.5"/>
<text text-anchor="middle" x="99" y="-309.5" font-family="Helvetica,sans-Serif" font-size="10.00">Fitters/MCMCProcessor.cpp</text>
</a>
</g>
</g>
<!-- Node2&#45;&gt;Node24 -->
<g id="edge31" class="edge">
<title>Node2&#45;&gt;Node24</title>
<path fill="none" stroke="#63b8ff" d="M567.31,-365.68C474.86,-358.44 316.94,-344.83 182,-327 170.27,-325.45 157.65,-323.48 145.88,-321.51"/>
<polygon fill="#63b8ff" stroke="#63b8ff" points="567.19,-369.18 577.43,-366.47 567.73,-362.2 567.19,-369.18"/>
</g>
<!-- Node25 -->
<g id="node25" class="node">
<title>Node25</title>
<g id="a_node25"><a xlink:href="OscProcessor_8h.html" target="_top" xlink:title=" ">
<polygon fill="white" stroke="#666666" points="315,-321.5 191,-321.5 191,-302.5 315,-302.5 315,-321.5"/>
<text text-anchor="middle" x="253" y="-309.5" font-family="Helvetica,sans-Serif" font-size="10.00">Fitters/OscProcessor.h</text>
</a>
</g>
</g>
<!-- Node2&#45;&gt;Node25 -->
<g id="edge32" class="edge">
<title>Node2&#45;&gt;Node25</title>
<path fill="none" stroke="#63b8ff" d="M569.34,-361.67C505.05,-353.2 410.88,-340.28 329,-327 318.8,-325.35 307.86,-323.42 297.55,-321.54"/>
<polygon fill="#63b8ff" stroke="#63b8ff" points="569.02,-365.16 579.39,-362.99 569.93,-358.22 569.02,-365.16"/>
</g>
<!-- Node2&#45;&gt;Node28 -->
<g id="edge35" class="edge">
<title>Node2&#45;&gt;Node28</title>
<path fill="none" stroke="#63b8ff" d="M718.05,-361.58C779.91,-352.91 871.42,-339.77 951,-327 961.58,-325.3 972.93,-323.38 983.66,-321.51"/>
<polygon fill="#63b8ff" stroke="#63b8ff" points="717.42,-358.13 708,-362.98 718.39,-365.06 717.42,-358.13"/>
</g>
<!-- Node30 -->
<g id="node30" class="node">
<title>Node30</title>
<g id="a_node30"><a xlink:href="inputManager_8h.html" target="_top" xlink:title=" ">
<polygon fill="white" stroke="#666666" points="623.5,-327 506.5,-327 506.5,-297 623.5,-297 623.5,-327"/>
<text text-anchor="start" x="514.5" y="-315" font-family="Helvetica,sans-Serif" font-size="10.00">Plotting/plottingUtils</text>
<text text-anchor="middle" x="565" y="-304" font-family="Helvetica,sans-Serif" font-size="10.00">/inputManager.h</text>
</a>
</g>
</g>
<!-- Node2&#45;&gt;Node30 -->
<g id="edge37" class="edge">
<title>Node2&#45;&gt;Node30</title>
<path fill="none" stroke="#63b8ff" d="M625.6,-356.77C613.02,-347.68 596.96,-336.09 584.54,-327.11"/>
<polygon fill="#63b8ff" stroke="#63b8ff" points="623.89,-359.85 634.05,-362.87 627.99,-354.18 623.89,-359.85"/>
</g>
<!-- Node6 -->
<g id="node6" class="node">
<title>Node6</title>
<g id="a_node6"><a xlink:href="FitterBase_8cpp.html" target="_top" xlink:title=" ">
<polygon fill="white" stroke="#666666" points="772,-255.5 652,-255.5 652,-236.5 772,-236.5 772,-255.5"/>
<text text-anchor="middle" x="712" y="-243.5" font-family="Helvetica,sans-Serif" font-size="10.00">Fitters/FitterBase.cpp</text>
</a>
</g>
</g>
<!-- Node5&#45;&gt;Node6 -->
<g id="edge5" class="edge">
<title>Node5&#45;&gt;Node6</title>
<path fill="none" stroke="#63b8ff" d="M853.75,-298.84C819.17,-286.2 765.94,-266.73 735.51,-255.6"/>
<polygon fill="#63b8ff" stroke="#63b8ff" points="852.8,-302.22 863.4,-302.37 855.21,-295.65 852.8,-302.22"/>
</g>
<!-- Node7 -->
<g id="node7" class="node">
<title>Node7</title>
<g id="a_node7"><a xlink:href="LikelihoodFit_8h.html" target="_top" xlink:title=" ">
<polygon fill="white" stroke="#666666" points="949.5,-189.5 828.5,-189.5 828.5,-170.5 949.5,-170.5 949.5,-189.5"/>
<text text-anchor="middle" x="889" y="-177.5" font-family="Helvetica,sans-Serif" font-size="10.00">Fitters/LikelihoodFit.h</text>
</a>
</g>
</g>
<!-- Node5&#45;&gt;Node7 -->
<g id="edge6" class="edge">
<title>Node5&#45;&gt;Node7</title>
<path fill="none" stroke="#63b8ff" d="M887.29,-292.23C887.73,-263.72 888.54,-210.59 888.87,-189.73"/>
<polygon fill="#63b8ff" stroke="#63b8ff" points="883.79,-292.42 887.13,-302.47 890.78,-292.53 883.79,-292.42"/>
</g>
<!-- Node9 -->
<g id="node9" class="node">
<title>Node9</title>
<g id="a_node9"><a xlink:href="MaCh3Factory_8h.html" target="_top" xlink:title="Factory methods for MaCh3 software which streamline initialisation of different objects.">
<polygon fill="white" stroke="#666666" points="1393.5,-74 1266.5,-74 1266.5,-55 1393.5,-55 1393.5,-74"/>
<text text-anchor="middle" x="1330" y="-62" font-family="Helvetica,sans-Serif" font-size="10.00">Fitters/MaCh3Factory.h</text>
</a>
</g>
</g>
<!-- Node5&#45;&gt;Node9 -->
<g id="edge27" class="edge">
<title>Node5&#45;&gt;Node9</title>
<path fill="none" stroke="#63b8ff" d="M935.18,-300.23C993.58,-287.1 1086.21,-266.05 1102,-261 1248.94,-214.04 1337.13,-257.15 1423,-129 1440.74,-102.53 1398.18,-84.02 1364.93,-74.07"/>
<polygon fill="#63b8ff" stroke="#63b8ff" points="934.39,-296.82 925.4,-302.42 935.93,-303.65 934.39,-296.82"/>
</g>
<!-- Node13 -->
<g id="node13" class="node">
<title>Node13</title>
<g id="a_node13"><a xlink:href="fitters_8cpp.html" target="_top" xlink:title=" ">
<polygon fill="white" stroke="#666666" points="977,-74 875,-74 875,-55 977,-55 977,-74"/>
<text text-anchor="middle" x="926" y="-62" font-family="Helvetica,sans-Serif" font-size="10.00">python/fitters.cpp</text>
</a>
</g>
</g>
<!-- Node5&#45;&gt;Node13 -->
<g id="edge30" class="edge">
<title>Node5&#45;&gt;Node13</title>
<path fill="none" stroke="#63b8ff" d="M878.36,-293.12C862.87,-262.77 827.56,-200.98 781,-165 743.3,-135.87 658.58,-146.66 689,-110 700.78,-95.8 808.68,-80.06 874.76,-71.63"/>
<polygon fill="#63b8ff" stroke="#63b8ff" points="875.42,-295.05 883,-302.45 881.68,-291.94 875.42,-295.05"/>
</g>
<!-- Node16 -->
<g id="node16" class="node">
<title>Node16</title>
<g id="a_node16"><a xlink:href="MCMCBase_8h.html" target="_top" xlink:title=" ">
<polygon fill="white" stroke="#666666" points="1092.5,-255.5 977.5,-255.5 977.5,-236.5 1092.5,-236.5 1092.5,-255.5"/>
<text text-anchor="middle" x="1035" y="-243.5" font-family="Helvetica,sans-Serif" font-size="10.00">Fitters/MCMCBase.h</text>
</a>
</g>
</g>
<!-- Node5&#45;&gt;Node16 -->
<g id="edge17" class="edge">
<title>Node5&#45;&gt;Node16</title>
<path fill="none" stroke="#63b8ff" d="M916.23,-298.36C945.4,-285.75 989.43,-266.71 1014.88,-255.7"/>
<polygon fill="#63b8ff" stroke="#63b8ff" points="914.75,-295.19 906.96,-302.37 917.53,-301.61 914.75,-295.19"/>
</g>
<!-- Node22 -->
<g id="node22" class="node">
<title>Node22</title>
<g id="a_node22"><a xlink:href="PredictiveThrower_8h.html" target="_top" xlink:title=" ">
<polygon fill="white" stroke="#666666" points="1639.5,-255.5 1492.5,-255.5 1492.5,-236.5 1639.5,-236.5 1639.5,-255.5"/>
<text text-anchor="middle" x="1566" y="-243.5" font-family="Helvetica,sans-Serif" font-size="10.00">Fitters/PredictiveThrower.h</text>
</a>
</g>
</g>
<!-- Node5&#45;&gt;Node22 -->
<g id="edge28" class="edge">
<title>Node5&#45;&gt;Node22</title>
<path fill="none" stroke="#63b8ff" d="M931.68,-300.35C938.14,-299.07 944.72,-297.9 951,-297 1183.41,-263.83 1244.73,-287.47 1478,-261 1490.76,-259.55 1504.49,-257.57 1517.23,-255.56"/>
<polygon fill="#63b8ff" stroke="#63b8ff" points="930.78,-296.96 921.71,-302.43 932.21,-303.81 930.78,-296.96"/>
</g>
<!-- Node8 -->
<g id="node8" class="node">
<title>Node8</title>
<g id="a_node8"><a xlink:href="LikelihoodFit_8cpp.html" target="_top" xlink:title=" ">
<polygon fill="white" stroke="#666666" points="950,-129 818,-129 818,-110 950,-110 950,-129"/>
<text text-anchor="middle" x="884" y="-117" font-family="Helvetica,sans-Serif" font-size="10.00">Fitters/LikelihoodFit.cpp</text>
</a>
</g>
</g>
<!-- Node7&#45;&gt;Node8 -->
<g id="edge7" class="edge">
<title>Node7&#45;&gt;Node8</title>
<path fill="none" stroke="#63b8ff" d="M887.39,-160.16C886.5,-149.74 885.44,-137.3 884.74,-129.17"/>
<polygon fill="#63b8ff" stroke="#63b8ff" points="883.92,-160.7 888.26,-170.37 890.9,-160.11 883.92,-160.7"/>
</g>
<!-- Node7&#45;&gt;Node9 -->
<g id="edge8" class="edge">
<title>Node7&#45;&gt;Node9</title>
<path fill="none" stroke="#63b8ff" d="M941.85,-168.6C948.95,-167.32 956.14,-166.08 963,-165 1088.68,-145.17 1129.3,-177.32 1247,-129 1278.22,-116.18 1307.89,-88.47 1321.78,-74.27"/>
<polygon fill="#63b8ff" stroke="#63b8ff" points="940.78,-165.23 931.58,-170.49 942.04,-172.12 940.78,-165.23"/>
</g>
<!-- Node11 -->
<g id="node11" class="node">
<title>Node11</title>
<g id="a_node11"><a xlink:href="MinuitFit_8h.html" target="_top" xlink:title=" ">
<polygon fill="white" stroke="#666666" points="800,-129 698,-129 698,-110 800,-110 800,-129"/>
<text text-anchor="middle" x="749" y="-117" font-family="Helvetica,sans-Serif" font-size="10.00">Fitters/MinuitFit.h</text>
</a>
</g>
</g>
<!-- Node7&#45;&gt;Node11 -->
<g id="edge10" class="edge">
<title>Node7&#45;&gt;Node11</title>
<path fill="none" stroke="#63b8ff" d="M859.28,-166.58C832.24,-155.28 793.03,-138.9 769.38,-129.02"/>
<polygon fill="#63b8ff" stroke="#63b8ff" points="858.07,-169.87 868.64,-170.49 860.77,-163.41 858.07,-169.87"/>
</g>
<!-- Node14 -->
<g id="node14" class="node">
<title>Node14</title>
<g id="a_node14"><a xlink:href="PSO_8h.html" target="_top" xlink:title=" ">
<polygon fill="white" stroke="#666666" points="1085.5,-129 1006.5,-129 1006.5,-110 1085.5,-110 1085.5,-129"/>
<text text-anchor="middle" x="1046" y="-117" font-family="Helvetica,sans-Serif" font-size="10.00">Fitters/PSO.h</text>
</a>
</g>
</g>
<!-- Node7&#45;&gt;Node14 -->
<g id="edge13" class="edge">
<title>Node7&#45;&gt;Node14</title>
<path fill="none" stroke="#63b8ff" d="M921.53,-166.88C951.88,-155.57 996.39,-138.99 1023.14,-129.02"/>
<polygon fill="#63b8ff" stroke="#63b8ff" points="919.98,-163.72 911.83,-170.49 922.42,-170.28 919.98,-163.72"/>
</g>
<!-- Node10 -->
<g id="node10" class="node">
<title>Node10</title>
<g id="a_node10"><a xlink:href="MaCh3Factory_8cpp.html" target="_top" xlink:title=" ">
<polygon fill="white" stroke="#666666" points="1399,-19 1261,-19 1261,0 1399,0 1399,-19"/>
<text text-anchor="middle" x="1330" y="-7" font-family="Helvetica,sans-Serif" font-size="10.00">Fitters/MaCh3Factory.cpp</text>
</a>
</g>
</g>
<!-- Node9&#45;&gt;Node10 -->
<g id="edge9" class="edge">
<title>Node9&#45;&gt;Node10</title>
<path fill="none" stroke="#63b8ff" d="M1330,-44.66C1330,-35.93 1330,-25.99 1330,-19.09"/>
<polygon fill="#63b8ff" stroke="#63b8ff" points="1326.5,-44.75 1330,-54.75 1333.5,-44.75 1326.5,-44.75"/>
</g>
<!-- Node12 -->
<g id="node12" class="node">
<title>Node12</title>
<g id="a_node12"><a xlink:href="MinuitFit_8cpp.html" target="_top" xlink:title=" ">
<polygon fill="white" stroke="#666666" points="805.5,-74 692.5,-74 692.5,-55 805.5,-55 805.5,-74"/>
<text text-anchor="middle" x="749" y="-62" font-family="Helvetica,sans-Serif" font-size="10.00">Fitters/MinuitFit.cpp</text>
</a>
</g>
</g>
<!-- Node11&#45;&gt;Node12 -->
<g id="edge11" class="edge">
<title>Node11&#45;&gt;Node12</title>
<path fill="none" stroke="#63b8ff" d="M749,-99.66C749,-90.93 749,-80.99 749,-74.09"/>
<polygon fill="#63b8ff" stroke="#63b8ff" points="745.5,-99.75 749,-109.75 752.5,-99.75 745.5,-99.75"/>
</g>
<!-- Node11&#45;&gt;Node13 -->
<g id="edge12" class="edge">
<title>Node11&#45;&gt;Node13</title>
<path fill="none" stroke="#63b8ff" d="M787.22,-107.06C820.3,-97.15 867.41,-83.04 897.34,-74.08"/>
<polygon fill="#63b8ff" stroke="#63b8ff" points="786.01,-103.76 777.44,-109.98 788.02,-110.47 786.01,-103.76"/>
</g>
<!-- Node14&#45;&gt;Node9 -->
<g id="edge14" class="edge">
<title>Node14&#45;&gt;Node9</title>
<path fill="none" stroke="#63b8ff" d="M1095.69,-109.23C1148.93,-99.29 1232.75,-83.65 1284.38,-74.01"/>
<polygon fill="#63b8ff" stroke="#63b8ff" points="1094.98,-105.8 1085.79,-111.07 1096.26,-112.68 1094.98,-105.8"/>
</g>
<!-- Node14&#45;&gt;Node13 -->
<g id="edge16" class="edge">
<title>Node14&#45;&gt;Node13</title>
<path fill="none" stroke="#63b8ff" d="M1017.47,-105.9C995.3,-96.11 965.15,-82.79 945.63,-74.17"/>
<polygon fill="#63b8ff" stroke="#63b8ff" points="1016.16,-109.15 1026.72,-109.98 1018.99,-102.74 1016.16,-109.15"/>
</g>
<!-- Node15 -->
<g id="node15" class="node">
<title>Node15</title>
<g id="a_node15"><a xlink:href="PSO_8cpp.html" target="_top" xlink:title=" ">
<polygon fill="white" stroke="#666666" points="1085,-74 995,-74 995,-55 1085,-55 1085,-74"/>
<text text-anchor="middle" x="1040" y="-62" font-family="Helvetica,sans-Serif" font-size="10.00">Fitters/PSO.cpp</text>
</a>
</g>
</g>
<!-- Node14&#45;&gt;Node15 -->
<g id="edge15" class="edge">
<title>Node14&#45;&gt;Node15</title>
<path fill="none" stroke="#63b8ff" d="M1043.87,-99.66C1042.88,-90.93 1041.75,-80.99 1040.97,-74.09"/>
<polygon fill="#63b8ff" stroke="#63b8ff" points="1040.41,-100.21 1045.01,-109.75 1047.36,-99.42 1040.41,-100.21"/>
</g>
<!-- Node17 -->
<g id="node17" class="node">
<title>Node17</title>
<g id="a_node17"><a xlink:href="MCMCBase_8cpp.html" target="_top" xlink:title=" ">
<polygon fill="white" stroke="#666666" points="1098,-189.5 972,-189.5 972,-170.5 1098,-170.5 1098,-189.5"/>
<text text-anchor="middle" x="1035" y="-177.5" font-family="Helvetica,sans-Serif" font-size="10.00">Fitters/MCMCBase.cpp</text>
</a>
</g>
</g>
<!-- Node16&#45;&gt;Node17 -->
<g id="edge18" class="edge">
<title>Node16&#45;&gt;Node17</title>
<path fill="none" stroke="#63b8ff" d="M1035,-226.08C1035,-214.13 1035,-199.22 1035,-189.91"/>
<polygon fill="#63b8ff" stroke="#63b8ff" points="1031.5,-226.37 1035,-236.37 1038.5,-226.37 1031.5,-226.37"/>
</g>
<!-- Node18 -->
<g id="node18" class="node">
<title>Node18</title>
<g id="a_node18"><a xlink:href="MR2T2_8h.html" target="_top" xlink:title=" ">
<polygon fill="white" stroke="#666666" points="1217.5,-189.5 1124.5,-189.5 1124.5,-170.5 1217.5,-170.5 1217.5,-189.5"/>
<text text-anchor="middle" x="1171" y="-177.5" font-family="Helvetica,sans-Serif" font-size="10.00">Fitters/MR2T2.h</text>
</a>
</g>
</g>
<!-- Node16&#45;&gt;Node18 -->
<g id="edge19" class="edge">
<title>Node16&#45;&gt;Node18</title>
<path fill="none" stroke="#63b8ff" d="M1062.56,-232.03C1089.37,-219.42 1129.33,-200.61 1152.51,-189.7"/>
<polygon fill="#63b8ff" stroke="#63b8ff" points="1060.9,-228.94 1053.34,-236.37 1063.88,-235.28 1060.9,-228.94"/>
</g>
<!-- Node18&#45;&gt;Node9 -->
<g id="edge25" class="edge">
<title>Node18&#45;&gt;Node9</title>
<path fill="none" stroke="#63b8ff" d="M1227.74,-175.02C1290.25,-169.31 1384.86,-156.32 1407,-129 1425.76,-105.84 1384.55,-85.14 1355.49,-74.04"/>
<polygon fill="#63b8ff" stroke="#63b8ff" points="1227.28,-171.54 1217.62,-175.9 1227.89,-178.52 1227.28,-171.54"/>
</g>
<!-- Node18&#45;&gt;Node13 -->
<g id="edge26" class="edge">
<title>Node18&#45;&gt;Node13</title>
<path fill="none" stroke="#63b8ff" d="M1124.78,-168.08C1081.33,-157.37 1019.8,-140.97 998,-129 971.12,-114.24 945.68,-87.89 933.5,-74.24"/>
<polygon fill="#63b8ff" stroke="#63b8ff" points="1124.03,-171.5 1134.58,-170.47 1125.69,-164.7 1124.03,-171.5"/>
</g>
<!-- Node19 -->
<g id="node19" class="node">
<title>Node19</title>
<g id="a_node19"><a xlink:href="DelayedMR2T2_8h.html" target="_top" xlink:title=" ">
<polygon fill="white" stroke="#666666" points="1238,-129 1104,-129 1104,-110 1238,-110 1238,-129"/>
<text text-anchor="middle" x="1171" y="-117" font-family="Helvetica,sans-Serif" font-size="10.00">Fitters/DelayedMR2T2.h</text>
</a>
</g>
</g>
<!-- Node18&#45;&gt;Node19 -->
<g id="edge20" class="edge">
<title>Node18&#45;&gt;Node19</title>
<path fill="none" stroke="#63b8ff" d="M1171,-160.16C1171,-149.74 1171,-137.3 1171,-129.17"/>
<polygon fill="#63b8ff" stroke="#63b8ff" points="1167.5,-160.37 1171,-170.37 1174.5,-160.37 1167.5,-160.37"/>
</g>
<!-- Node21 -->
<g id="node21" class="node">
<title>Node21</title>
<g id="a_node21"><a xlink:href="MR2T2_8cpp.html" target="_top" xlink:title=" ">
<polygon fill="white" stroke="#666666" points="1398,-129 1294,-129 1294,-110 1398,-110 1398,-129"/>
<text text-anchor="middle" x="1346" y="-117" font-family="Helvetica,sans-Serif" font-size="10.00">Fitters/MR2T2.cpp</text>
</a>
</g>
</g>
<!-- Node18&#45;&gt;Node21 -->
<g id="edge24" class="edge">
<title>Node18&#45;&gt;Node21</title>
<path fill="none" stroke="#63b8ff" d="M1205.95,-167.32C1239.8,-156 1290.31,-139.12 1320.52,-129.02"/>
<polygon fill="#63b8ff" stroke="#63b8ff" points="1204.82,-164 1196.45,-170.49 1207.04,-170.64 1204.82,-164"/>
</g>
<!-- Node19&#45;&gt;Node9 -->
<g id="edge22" class="edge">
<title>Node19&#45;&gt;Node9</title>
<path fill="none" stroke="#63b8ff" d="M1206.1,-106.8C1235.78,-96.91 1277.6,-82.97 1304.25,-74.08"/>
<polygon fill="#63b8ff" stroke="#63b8ff" points="1204.93,-103.5 1196.55,-109.98 1207.14,-110.14 1204.93,-103.5"/>
</g>
<!-- Node19&#45;&gt;Node13 -->
<g id="edge23" class="edge">
<title>Node19&#45;&gt;Node13</title>
<path fill="none" stroke="#63b8ff" d="M1121.61,-107.82C1075.7,-97.88 1008.17,-83.28 965.67,-74.08"/>
<polygon fill="#63b8ff" stroke="#63b8ff" points="1121.12,-111.29 1131.64,-109.98 1122.6,-104.45 1121.12,-111.29"/>
</g>
<!-- Node20 -->
<g id="node20" class="node">
<title>Node20</title>
<g id="a_node20"><a xlink:href="DelayedMR2T2_8cpp.html" target="_top" xlink:title=" ">
<polygon fill="white" stroke="#666666" points="1248.5,-74 1103.5,-74 1103.5,-55 1248.5,-55 1248.5,-74"/>
<text text-anchor="middle" x="1176" y="-62" font-family="Helvetica,sans-Serif" font-size="10.00">Fitters/DelayedMR2T2.cpp</text>
</a>
</g>
</g>
<!-- Node19&#45;&gt;Node20 -->
<g id="edge21" class="edge">
<title>Node19&#45;&gt;Node20</title>
<path fill="none" stroke="#63b8ff" d="M1172.78,-99.66C1173.6,-90.93 1174.54,-80.99 1175.19,-74.09"/>
<polygon fill="#63b8ff" stroke="#63b8ff" points="1169.28,-99.46 1171.83,-109.75 1176.25,-100.12 1169.28,-99.46"/>
</g>
<!-- Node23 -->
<g id="node23" class="node">
<title>Node23</title>
<g id="a_node23"><a xlink:href="PredictiveThrower_8cpp.html" target="_top" xlink:title=" ">
<polygon fill="white" stroke="#666666" points="1650,-189.5 1492,-189.5 1492,-170.5 1650,-170.5 1650,-189.5"/>
<text text-anchor="middle" x="1571" y="-177.5" font-family="Helvetica,sans-Serif" font-size="10.00">Fitters/PredictiveThrower.cpp</text>
</a>
</g>
</g>
<!-- Node22&#45;&gt;Node23 -->
<g id="edge29" class="edge">
<title>Node22&#45;&gt;Node23</title>
<path fill="none" stroke="#63b8ff" d="M1567.48,-226.08C1568.41,-214.13 1569.58,-199.22 1570.3,-189.91"/>
<polygon fill="#63b8ff" stroke="#63b8ff" points="1563.96,-226.13 1566.67,-236.37 1570.94,-226.67 1563.96,-226.13"/>
</g>
<!-- Node26 -->
<g id="node26" class="node">
<title>Node26</title>
<g id="a_node26"><a xlink:href="ProcessMCMC_8cpp.html" target="_top" xlink:title="Main exectable responsible for different types of MCMC processing like drawing posteriors,...">
<polygon fill="white" stroke="#666666" points="166,-255.5 0,-255.5 0,-236.5 166,-236.5 166,-255.5"/>
<text text-anchor="middle" x="83" y="-243.5" font-family="Helvetica,sans-Serif" font-size="10.00">Diagnostics/ProcessMCMC.cpp</text>
</a>
</g>
</g>
<!-- Node25&#45;&gt;Node26 -->
<g id="edge33" class="edge">
<title>Node25&#45;&gt;Node26</title>
<path fill="none" stroke="#63b8ff" d="M220.7,-298.84C187.11,-286.2 135.4,-266.73 105.83,-255.6"/>
<polygon fill="#63b8ff" stroke="#63b8ff" points="219.48,-302.12 230.07,-302.37 221.95,-295.57 219.48,-302.12"/>
</g>
<!-- Node27 -->
<g id="node27" class="node">
<title>Node27</title>
<g id="a_node27"><a xlink:href="OscProcessor_8cpp.html" target="_top" xlink:title=" ">
<polygon fill="white" stroke="#666666" points="319.5,-255.5 184.5,-255.5 184.5,-236.5 319.5,-236.5 319.5,-255.5"/>
<text text-anchor="middle" x="252" y="-243.5" font-family="Helvetica,sans-Serif" font-size="10.00">Fitters/OscProcessor.cpp</text>
</a>
</g>
</g>
<!-- Node25&#45;&gt;Node27 -->
<g id="edge34" class="edge">
<title>Node25&#45;&gt;Node27</title>
<path fill="none" stroke="#63b8ff" d="M252.7,-292.08C252.52,-280.13 252.28,-265.22 252.14,-255.91"/>
<polygon fill="#63b8ff" stroke="#63b8ff" points="249.21,-292.42 252.87,-302.37 256.21,-292.32 249.21,-292.42"/>
</g>
<!-- Node29 -->
<g id="node29" class="node">
<title>Node29</title>
<g id="a_node29"><a xlink:href="SampleSummary_8cpp.html" target="_top" xlink:title=" ">
<polygon fill="white" stroke="#666666" points="1810.5,-255.5 1657.5,-255.5 1657.5,-236.5 1810.5,-236.5 1810.5,-255.5"/>
<text text-anchor="middle" x="1734" y="-243.5" font-family="Helvetica,sans-Serif" font-size="10.00">Fitters/SampleSummary.cpp</text>
</a>
</g>
</g>
<!-- Node28&#45;&gt;Node29 -->
<g id="edge36" class="edge">
<title>Node28&#45;&gt;Node29</title>
<path fill="none" stroke="#63b8ff" d="M1112.16,-306.57C1230.5,-299.64 1457.2,-284.51 1649,-261 1661.17,-259.51 1674.27,-257.54 1686.45,-255.54"/>
<polygon fill="#63b8ff" stroke="#63b8ff" points="1111.88,-303.09 1102.1,-307.16 1112.28,-310.07 1111.88,-303.09"/>
</g>
<!-- Node31 -->
<g id="node31" class="node">
<title>Node31</title>
<g id="a_node31"><a xlink:href="inputManager_8cpp.html" target="_top" xlink:title=" ">
<polygon fill="white" stroke="#666666" points="493.5,-261 376.5,-261 376.5,-231 493.5,-231 493.5,-261"/>
<text text-anchor="start" x="384.5" y="-249" font-family="Helvetica,sans-Serif" font-size="10.00">Plotting/plottingUtils</text>
<text text-anchor="middle" x="435" y="-238" font-family="Helvetica,sans-Serif" font-size="10.00">/inputManager.cpp</text>
</a>
</g>
</g>
<!-- Node30&#45;&gt;Node31 -->
<g id="edge38" class="edge">
<title>Node30&#45;&gt;Node31</title>
<path fill="none" stroke="#63b8ff" d="M527.45,-292.51C507.05,-282.47 482.24,-270.26 463.46,-261.01"/>
<polygon fill="#63b8ff" stroke="#63b8ff" points="525.95,-295.68 536.47,-296.95 529.05,-289.4 525.95,-295.68"/>
</g>
<!-- Node32 -->
<g id="node32" class="node">
<title>Node32</title>
<g id="a_node32"><a xlink:href="plottingManager_8h.html" target="_top" xlink:title=" ">
<polygon fill="white" stroke="#666666" points="628.5,-261 511.5,-261 511.5,-231 628.5,-231 628.5,-261"/>
<text text-anchor="start" x="519.5" y="-249" font-family="Helvetica,sans-Serif" font-size="10.00">Plotting/plottingUtils</text>
<text text-anchor="middle" x="570" y="-238" font-family="Helvetica,sans-Serif" font-size="10.00">/plottingManager.h</text>
</a>
</g>
</g>
<!-- Node30&#45;&gt;Node32 -->
<g id="edge39" class="edge">
<title>Node30&#45;&gt;Node32</title>
<path fill="none" stroke="#63b8ff" d="M566.89,-286.83C567.56,-278.17 568.3,-268.7 568.89,-261.16"/>
<polygon fill="#63b8ff" stroke="#63b8ff" points="563.4,-286.55 566.11,-296.8 570.38,-287.1 563.4,-286.55"/>
</g>
<!-- Node37 -->
<g id="node37" class="node">
<title>Node37</title>
<g id="a_node37"><a xlink:href="plotting_8cpp.html" target="_top" xlink:title=" ">
<polygon fill="white" stroke="#666666" points="190.5,-189.5 79.5,-189.5 79.5,-170.5 190.5,-170.5 190.5,-189.5"/>
<text text-anchor="middle" x="135" y="-177.5" font-family="Helvetica,sans-Serif" font-size="10.00">python/plotting.cpp</text>
</a>
</g>
</g>
<!-- Node30&#45;&gt;Node37 -->
<g id="edge45" class="edge">
<title>Node30&#45;&gt;Node37</title>
<path fill="none" stroke="#63b8ff" d="M496.37,-295.02C444.33,-282.67 379.8,-266.73 368,-261 348.33,-251.45 348.65,-240.59 329,-231 314.86,-224.1 223.73,-201.96 171.55,-189.58"/>
<polygon fill="#63b8ff" stroke="#63b8ff" points="495.72,-298.47 506.26,-297.36 497.34,-291.66 495.72,-298.47"/>
</g>
<!-- Node33 -->
<g id="node33" class="node">
<title>Node33</title>
<g id="a_node33"><a xlink:href="GetPostfitParamPlots_8cpp.html" target="_top" xlink:title=" ">
<polygon fill="white" stroke="#666666" points="482,-195 346,-195 346,-165 482,-165 482,-195"/>
<text text-anchor="start" x="354" y="-183" font-family="Helvetica,sans-Serif" font-size="10.00">Plotting/GetPostfitParam</text>
<text text-anchor="middle" x="414" y="-172" font-family="Helvetica,sans-Serif" font-size="10.00">Plots.cpp</text>
</a>
</g>
</g>
<!-- Node32&#45;&gt;Node33 -->
<g id="edge40" class="edge">
<title>Node32&#45;&gt;Node33</title>
<path fill="none" stroke="#63b8ff" d="M526.26,-227.05C501.54,-216.91 471.1,-204.43 448.16,-195.01"/>
<polygon fill="#63b8ff" stroke="#63b8ff" points="525.18,-230.4 535.77,-230.95 527.84,-223.92 525.18,-230.4"/>
</g>
<!-- Node34 -->
<g id="node34" class="node">
<title>Node34</title>
<g id="a_node34"><a xlink:href="MatrixPlotter_8cpp.html" target="_top" xlink:title=" ">
<polygon fill="white" stroke="#666666" points="640,-189.5 500,-189.5 500,-170.5 640,-170.5 640,-189.5"/>
<text text-anchor="middle" x="570" y="-177.5" font-family="Helvetica,sans-Serif" font-size="10.00">Plotting/MatrixPlotter.cpp</text>
</a>
</g>
</g>
<!-- Node32&#45;&gt;Node34 -->
<g id="edge41" class="edge">
<title>Node32&#45;&gt;Node34</title>
<path fill="none" stroke="#63b8ff" d="M570,-220.6C570,-209.8 570,-197.78 570,-189.84"/>
<polygon fill="#63b8ff" stroke="#63b8ff" points="566.5,-220.8 570,-230.8 573.5,-220.8 566.5,-220.8"/>
</g>
<!-- Node35 -->
<g id="node35" class="node">
<title>Node35</title>
<g id="a_node35"><a xlink:href="PlotLLH_8cpp.html" target="_top" xlink:title=" ">
<polygon fill="white" stroke="#666666" points="772,-189.5 658,-189.5 658,-170.5 772,-170.5 772,-189.5"/>
<text text-anchor="middle" x="715" y="-177.5" font-family="Helvetica,sans-Serif" font-size="10.00">Plotting/PlotLLH.cpp</text>
</a>
</g>
</g>
<!-- Node32&#45;&gt;Node35 -->
<g id="edge42" class="edge">
<title>Node32&#45;&gt;Node35</title>
<path fill="none" stroke="#63b8ff" d="M611.28,-226.78C639,-214.54 674.26,-198.98 695.7,-189.52"/>
<polygon fill="#63b8ff" stroke="#63b8ff" points="609.56,-223.71 601.82,-230.95 612.38,-230.12 609.56,-223.71"/>
</g>
<!-- Node36 -->
<g id="node36" class="node">
<title>Node36</title>
<g id="a_node36"><a xlink:href="plottingManager_8cpp.html" target="_top" xlink:title=" ">
<polygon fill="white" stroke="#666666" points="327.5,-195 208.5,-195 208.5,-165 327.5,-165 327.5,-195"/>
<text text-anchor="start" x="216.5" y="-183" font-family="Helvetica,sans-Serif" font-size="10.00">Plotting/plottingUtils</text>
<text text-anchor="middle" x="268" y="-172" font-family="Helvetica,sans-Serif" font-size="10.00">/plottingManager.cpp</text>
</a>
</g>
</g>
<!-- Node32&#45;&gt;Node36 -->
<g id="edge43" class="edge">
<title>Node32&#45;&gt;Node36</title>
<path fill="none" stroke="#63b8ff" d="M501.54,-230.49C449.2,-219.4 377.75,-204.26 327.71,-193.65"/>
<polygon fill="#63b8ff" stroke="#63b8ff" points="500.9,-233.93 511.41,-232.58 502.36,-227.09 500.9,-233.93"/>
</g>
<!-- Node32&#45;&gt;Node37 -->
<g id="edge44" class="edge">
<title>Node32&#45;&gt;Node37</title>
<path fill="none" stroke="#63b8ff" d="M500.98,-230.76C366.93,-209.46 329.9,-217.01 199,-195 189.91,-193.47 180.17,-191.51 171.1,-189.54"/>
<polygon fill="#63b8ff" stroke="#63b8ff" points="500.8,-234.28 511.23,-232.41 501.91,-227.37 500.8,-234.28"/>
</g>
</g>
</svg>
        <g id="navigator" transform="translate(0 0)" fill="#404254">
                <rect fill="#f2f5e9" fill-opacity="0.5" stroke="#606060" stroke-width=".5" x="0" y="0" width="60" height="60"/>
                <use id="zoomplus" xlink:href="#zoomPlus" x="17" y="9" onmousedown="handleZoom(evt,'in')"/>
                <use id="zoomminus" xlink:href="#zoomMin" x="42" y="9" onmousedown="handleZoom(evt,'out')"/>
                <use id="reset" xlink:href="#resetDef" x="30" y="36" onmousedown="handleReset()"/>
                <g id="arrowUp" xlink:href="#dirArrow" transform="translate(30 24)" onmousedown="handlePan(0,-1)">
                  <use xlink:href="#rim" fill="#404040">
                        <set attributeName="fill" to="#808080" begin="arrowUp.mouseover" end="arrowUp.mouseout"/>
                  </use>
                  <path fill="none" stroke="white" stroke-width="1.5" d="M0,-3.0v7 M-2.5,-0.5L0,-3.0L2.5,-0.5"/>
                </g>
                <g id="arrowRight" xlink:href="#dirArrow" transform="rotate(90) translate(36 -43)" onmousedown="handlePan(1,0)">
                  <use xlink:href="#rim" fill="#404040">
                        <set attributeName="fill" to="#808080" begin="arrowRight.mouseover" end="arrowRight.mouseout"/>
                  </use>
                  <path fill="none" stroke="white" stroke-width="1.5" d="M0,-3.0v7 M-2.5,-0.5L0,-3.0L2.5,-0.5"/>
                </g>
                <g id="arrowDown" xlink:href="#dirArrow" transform="rotate(180) translate(-30 -48)" onmousedown="handlePan(0,1)">
                  <use xlink:href="#rim" fill="#404040">
                        <set attributeName="fill" to="#808080" begin="arrowDown.mouseover" end="arrowDown.mouseout"/>
                  </use>
                  <path fill="none" stroke="white" stroke-width="1.5" d="M0,-3.0v7 M-2.5,-0.5L0,-3.0L2.5,-0.5"/>
                </g>
                <g id="arrowLeft" xlink:href="#dirArrow" transform="rotate(270) translate(-36 17)" onmousedown="handlePan(-1,0)">
                  <use xlink:href="#rim" fill="#404040">
                        <set attributeName="fill" to="#808080" begin="arrowLeft.mouseover" end="arrowLeft.mouseout"/>
                  </use>
                  <path fill="none" stroke="white" stroke-width="1.5" d="M0,-3.0v7 M-2.5,-0.5L0,-3.0L2.5,-0.5"/>
                </g>
        </g>
        <svg viewBox="0 0 15 15" width="100%" height="30px" preserveAspectRatio="xMaxYMin meet">
         <g id="arrow_out" transform="scale(0.3 0.3)">
          <a xlink:href="StatisticalUtils_8h__dep__incl_org.svg" target="_base">
           <rect id="button" ry="5" rx="5" y="6" x="6" height="38" width="38"
                fill="#f2f5e9" fill-opacity="0.5" stroke="#606060" stroke-width="1.0"/>
           <path id="arrow"
             d="M 11.500037,31.436501 C 11.940474,20.09759 22.043105,11.32322 32.158766,21.979434 L 37.068811,17.246167 C 37.068811,17.246167 37.088388,32 37.088388,32 L 22.160133,31.978069 C 22.160133,31.978069 26.997745,27.140456 26.997745,27.140456 C 18.528582,18.264221 13.291696,25.230495 11.500037,31.436501 z"
             style="fill:#404040;"/>
          </a>
         </g>
        </svg>
</svg>
