<?xml version="1.0" encoding="UTF-8" standalone="no"?>
<!DOCTYPE svg PUBLIC "-//W3C//DTD SVG 1.1//EN"
 "http://www.w3.org/Graphics/SVG/1.1/DTD/svg11.dtd">
<!-- Generated by graphviz version 2.43.0 (0)
 -->
<!-- Title: MaCh3Plotting::InputFile Pages: 1 -->
<svg width="925pt" height="892pt"
 viewBox="0.00 0.00 925.00 891.50" xmlns="http://www.w3.org/2000/svg" xmlns:xlink="http://www.w3.org/1999/xlink">
<g id="graph0" class="graph" transform="scale(1 1) rotate(0) translate(4 887.5)">
<title>MaCh3Plotting::InputFile</title>
<!-- Node1 -->
<g id="node1" class="node">
<title>Node1</title>
<g id="a_node1"><a xlink:title="Struct which wraps around the actual input file and also holds general information,...">
<polygon fill="#999999" stroke="#666666" points="917,-328 781,-328 781,-309 917,-309 917,-328"/>
<text text-anchor="middle" x="849" y="-316" font-family="Helvetica,sans-Serif" font-size="10.00">MaCh3Plotting::InputFile</text>
</a>
</g>
</g>
<!-- Node2 -->
<g id="node2" class="node">
<title>Node2</title>
<g id="a_node2"><a xlink:href="classMCMCProcessor.html" target="_top" xlink:title="Class responsible for processing MCMC chains, performing diagnostics, generating plots,...">
<polygon fill="white" stroke="#666666" points="574,-485 479,-485 479,-466 574,-466 574,-485"/>
<text text-anchor="middle" x="526.5" y="-473" font-family="Helvetica,sans-Serif" font-size="10.00">MCMCProcessor</text>
</a>
</g>
</g>
<!-- Node2&#45;&gt;Node1 -->
<g id="edge1" class="edge">
<title>Node2&#45;&gt;Node1</title>
<path fill="none" stroke="#9a32cd" stroke-dasharray="5,2" d="M584.3,-483.25C634.94,-487.23 709.15,-485.62 763,-452.5 811.57,-422.62 837.17,-353.45 845.19,-328.06"/>
<polygon fill="#9a32cd" stroke="#9a32cd" points="584.46,-479.75 574.19,-482.35 583.84,-486.72 584.46,-479.75"/>
<text text-anchor="middle" x="697" y="-487.5" font-family="Helvetica,sans-Serif" font-size="10.00"> mcmcProc</text>
</g>
<!-- Node3 -->
<g id="node3" class="node">
<title>Node3</title>
<g id="a_node3"><a xlink:title=" ">
<polygon fill="white" stroke="#666666" points="258,-826 193,-826 193,-807 258,-807 258,-826"/>
<text text-anchor="middle" x="225.5" y="-814" font-family="Helvetica,sans-Serif" font-size="10.00">std::string</text>
</a>
</g>
</g>
<!-- Node3&#45;&gt;Node1 -->
<g id="edge20" class="edge">
<title>Node3&#45;&gt;Node1</title>
<path fill="none" stroke="#9a32cd" stroke-dasharray="5,2" d="M264.26,-829.05C283.17,-834.69 306.54,-840.69 328,-843.5 456.63,-860.32 507.73,-856.31 613,-780.5 780.95,-659.54 836.8,-383.01 846.42,-328.09"/>
<polygon fill="#9a32cd" stroke="#9a32cd" points="265.13,-825.66 254.54,-826.07 263.08,-832.35 265.13,-825.66"/>
<text text-anchor="middle" x="526.5" y="-875.5" font-family="Helvetica,sans-Serif" font-size="10.00"> defaultErrorType</text>
<text text-anchor="middle" x="526.5" y="-864.5" font-family="Helvetica,sans-Serif" font-size="10.00">fileName</text>
<text text-anchor="middle" x="526.5" y="-853.5" font-family="Helvetica,sans-Serif" font-size="10.00">fitter</text>
</g>
<!-- Node3&#45;&gt;Node2 -->
<g id="edge2" class="edge">
<title>Node3&#45;&gt;Node2</title>
<path fill="none" stroke="#9a32cd" stroke-dasharray="5,2" d="M260.99,-803.32C316.3,-782.12 418.99,-742.51 422,-739.5 498.52,-662.86 519.96,-522.97 524.48,-485.15"/>
<polygon fill="#9a32cd" stroke="#9a32cd" points="259.65,-800.08 251.57,-806.93 262.16,-806.62 259.65,-800.08"/>
<text text-anchor="middle" x="375" y="-834.5" font-family="Helvetica,sans-Serif" font-size="10.00"> MCMCFile</text>
<text text-anchor="middle" x="375" y="-823.5" font-family="Helvetica,sans-Serif" font-size="10.00">OutputName</text>
<text text-anchor="middle" x="375" y="-812.5" font-family="Helvetica,sans-Serif" font-size="10.00">OutputSuffix</text>
<text text-anchor="middle" x="375" y="-801.5" font-family="Helvetica,sans-Serif" font-size="10.00">Posterior1DCut</text>
<text text-anchor="middle" x="375" y="-790.5" font-family="Helvetica,sans-Serif" font-size="10.00">ReweightName</text>
<text text-anchor="middle" x="375" y="-779.5" font-family="Helvetica,sans-Serif" font-size="10.00">StepCut</text>
</g>
<!-- Node4 -->
<g id="node4" class="node">
<title>Node4</title>
<g id="a_node4"><a xlink:title=" ">
<polygon fill="white" stroke="#666666" points="104,-831.5 0,-831.5 0,-801.5 104,-801.5 104,-831.5"/>
<text text-anchor="start" x="8" y="-819.5" font-family="Helvetica,sans-Serif" font-size="10.00">std::basic_string&lt;</text>
<text text-anchor="middle" x="52" y="-808.5" font-family="Helvetica,sans-Serif" font-size="10.00"> Char &gt;</text>
</a>
</g>
</g>
<!-- Node4&#45;&gt;Node3 -->
<g id="edge3" class="edge">
<title>Node4&#45;&gt;Node3</title>
<path fill="none" stroke="#63b8ff" d="M114.78,-816.5C141.2,-816.5 170.92,-816.5 192.76,-816.5"/>
<polygon fill="#63b8ff" stroke="#63b8ff" points="114.46,-813 104.46,-816.5 114.46,-820 114.46,-813"/>
</g>
<!-- Node5 -->
<g id="node5" class="node">
<title>Node5</title>
<g id="a_node5"><a xlink:title=" ">
<polygon fill="white" stroke="#666666" points="291,-470.5 160,-470.5 160,-440.5 291,-440.5 291,-470.5"/>
<text text-anchor="start" x="168" y="-458.5" font-family="Helvetica,sans-Serif" font-size="10.00">std::vector&lt; std::vector</text>
<text text-anchor="middle" x="225.5" y="-447.5" font-family="Helvetica,sans-Serif" font-size="10.00">&lt; std::string &gt; &gt;</text>
</a>
</g>
</g>
<!-- Node5&#45;&gt;Node2 -->
<g id="edge4" class="edge">
<title>Node5&#45;&gt;Node2</title>
<path fill="none" stroke="#9a32cd" stroke-dasharray="5,2" d="M301.4,-454.71C337.85,-454.91 382.28,-456.04 422,-459.5 440.66,-461.13 461.06,-464.03 478.77,-466.93"/>
<polygon fill="#9a32cd" stroke="#9a32cd" points="301.35,-451.21 291.34,-454.67 301.33,-458.21 301.35,-451.21"/>
<text text-anchor="middle" x="375" y="-462.5" font-family="Helvetica,sans-Serif" font-size="10.00"> CovPos</text>
</g>
<!-- Node6 -->
<g id="node6" class="node">
<title>Node6</title>
<g id="a_node6"><a xlink:title=" ">
<polygon fill="white" stroke="#666666" points="295.5,-679 155.5,-679 155.5,-660 295.5,-660 295.5,-679"/>
<text text-anchor="middle" x="225.5" y="-667" font-family="Helvetica,sans-Serif" font-size="10.00">std::vector&lt; std::string &gt;</text>
</a>
</g>
</g>
<!-- Node6&#45;&gt;Node1 -->
<g id="edge21" class="edge">
<title>Node6&#45;&gt;Node1</title>
<path fill="none" stroke="#9a32cd" stroke-dasharray="5,2" d="M279.64,-682.42C290.43,-686.67 301.16,-692.24 310,-699.5 322.02,-709.37 314.47,-721.84 328,-729.5 364.36,-750.08 382.05,-741.71 422,-729.5 596.82,-676.05 644.09,-638.35 763,-499.5 810.65,-443.86 837.5,-356.98 845.46,-328.15"/>
<polygon fill="#9a32cd" stroke="#9a32cd" points="280.78,-679.11 270.19,-679.01 278.41,-685.69 280.78,-679.11"/>
<text text-anchor="middle" x="526.5" y="-768.5" font-family="Helvetica,sans-Serif" font-size="10.00"> availableParams_1dPosteriors</text>
<text text-anchor="middle" x="526.5" y="-757.5" font-family="Helvetica,sans-Serif" font-size="10.00">availableParams_LLH</text>
<text text-anchor="middle" x="526.5" y="-746.5" font-family="Helvetica,sans-Serif" font-size="10.00">availableParams_MCMCchain</text>
<text text-anchor="middle" x="526.5" y="-735.5" font-family="Helvetica,sans-Serif" font-size="10.00">availableParams_postFitErrors</text>
<text text-anchor="middle" x="526.5" y="-724.5" font-family="Helvetica,sans-Serif" font-size="10.00">availableSamples_LLH</text>
</g>
<!-- Node6&#45;&gt;Node2 -->
<g id="edge5" class="edge">
<title>Node6&#45;&gt;Node2</title>
<path fill="none" stroke="#9a32cd" stroke-dasharray="5,2" d="M268.76,-656.78C282.19,-652.23 296.94,-646.67 310,-640.5 318.48,-636.49 319.34,-633.1 328,-629.5 367.71,-612.98 385.81,-629.75 422,-606.5 471.99,-574.38 508.29,-509.7 520.77,-485.2"/>
<polygon fill="#9a32cd" stroke="#9a32cd" points="267.66,-653.46 259.26,-659.92 269.85,-660.11 267.66,-653.46"/>
<text text-anchor="middle" x="375" y="-687.5" font-family="Helvetica,sans-Serif" font-size="10.00"> CovNamePos</text>
<text text-anchor="middle" x="375" y="-676.5" font-family="Helvetica,sans-Serif" font-size="10.00">ExcludedGroups</text>
<text text-anchor="middle" x="375" y="-665.5" font-family="Helvetica,sans-Serif" font-size="10.00">ExcludedNames</text>
<text text-anchor="middle" x="375" y="-654.5" font-family="Helvetica,sans-Serif" font-size="10.00">ExcludedTypes</text>
<text text-anchor="middle" x="375" y="-643.5" font-family="Helvetica,sans-Serif" font-size="10.00">NDSamplesNames</text>
<text text-anchor="middle" x="375" y="-632.5" font-family="Helvetica,sans-Serif" font-size="10.00">ParameterGroup</text>
</g>
<!-- Node7 -->
<g id="node7" class="node">
<title>Node7</title>
<g id="a_node7"><a xlink:title=" ">
<polygon fill="white" stroke="#666666" points="281.5,-384.5 169.5,-384.5 169.5,-354.5 281.5,-354.5 281.5,-384.5"/>
<text text-anchor="start" x="177.5" y="-372.5" font-family="Helvetica,sans-Serif" font-size="10.00">std::vector&lt; YAML::</text>
<text text-anchor="middle" x="225.5" y="-361.5" font-family="Helvetica,sans-Serif" font-size="10.00">Node &gt;</text>
</a>
</g>
</g>
<!-- Node7&#45;&gt;Node2 -->
<g id="edge6" class="edge">
<title>Node7&#45;&gt;Node2</title>
<path fill="none" stroke="#9a32cd" stroke-dasharray="5,2" d="M291.77,-368.05C340.87,-368.36 402.87,-372.18 422,-388.5 446.11,-409.07 417.06,-435.63 440,-457.5 450.43,-467.44 464.89,-472.49 478.96,-474.9"/>
<polygon fill="#9a32cd" stroke="#9a32cd" points="291.51,-364.55 281.5,-368.03 291.5,-371.55 291.51,-364.55"/>
<text text-anchor="middle" x="375" y="-391.5" font-family="Helvetica,sans-Serif" font-size="10.00"> CovConfig</text>
</g>
<!-- Node8 -->
<g id="node8" class="node">
<title>Node8</title>
<g id="a_node8"><a xlink:title=" ">
<polygon fill="white" stroke="#666666" points="288,-336 163,-336 163,-317 288,-317 288,-336"/>
<text text-anchor="middle" x="225.5" y="-324" font-family="Helvetica,sans-Serif" font-size="10.00">std::vector&lt; TString &gt;</text>
</a>
</g>
</g>
<!-- Node8&#45;&gt;Node2 -->
<g id="edge7" class="edge">
<title>Node8&#45;&gt;Node2</title>
<path fill="none" stroke="#9a32cd" stroke-dasharray="5,2" d="M298.14,-319.02C346.27,-315.69 404.06,-315.54 422,-331.5 464.26,-369.11 401.33,-416.21 440,-457.5 449.95,-468.13 464.47,-473.32 478.72,-475.65"/>
<polygon fill="#9a32cd" stroke="#9a32cd" points="297.74,-315.54 288.03,-319.77 298.26,-322.52 297.74,-315.54"/>
<text text-anchor="middle" x="375" y="-356.5" font-family="Helvetica,sans-Serif" font-size="10.00"> BranchNames</text>
<text text-anchor="middle" x="375" y="-345.5" font-family="Helvetica,sans-Serif" font-size="10.00">SampleName_v</text>
<text text-anchor="middle" x="375" y="-334.5" font-family="Helvetica,sans-Serif" font-size="10.00">SystName_v</text>
</g>
<!-- Node9 -->
<g id="node9" class="node">
<title>Node9</title>
<g id="a_node9"><a xlink:title=" ">
<polygon fill="white" stroke="#666666" points="281.5,-299 169.5,-299 169.5,-280 281.5,-280 281.5,-299"/>
<text text-anchor="middle" x="225.5" y="-287" font-family="Helvetica,sans-Serif" font-size="10.00">std::vector&lt; bool &gt;</text>
</a>
</g>
</g>
<!-- Node9&#45;&gt;Node2 -->
<g id="edge8" class="edge">
<title>Node9&#45;&gt;Node2</title>
<path fill="none" stroke="#9a32cd" stroke-dasharray="5,2" d="M270.14,-277.82C314.44,-268.86 382.04,-263.63 422,-301.5 472.66,-349.51 392.99,-405.92 440,-457.5 449.91,-468.37 464.59,-473.59 478.99,-475.88"/>
<polygon fill="#9a32cd" stroke="#9a32cd" points="269.27,-274.43 260.23,-279.96 270.75,-281.27 269.27,-274.43"/>
<text text-anchor="middle" x="375" y="-304.5" font-family="Helvetica,sans-Serif" font-size="10.00"> IamVaried</text>
</g>
<!-- Node10 -->
<g id="node10" class="node">
<title>Node10</title>
<g id="a_node10"><a xlink:title=" ">
<polygon fill="white" stroke="#666666" points="291,-261.5 160,-261.5 160,-231.5 291,-231.5 291,-261.5"/>
<text text-anchor="start" x="168" y="-249.5" font-family="Helvetica,sans-Serif" font-size="10.00">std::vector&lt; std::vector</text>
<text text-anchor="middle" x="225.5" y="-238.5" font-family="Helvetica,sans-Serif" font-size="10.00">&lt; TString &gt; &gt;</text>
</a>
</g>
</g>
<!-- Node10&#45;&gt;Node2 -->
<g id="edge9" class="edge">
<title>Node10&#45;&gt;Node2</title>
<path fill="none" stroke="#9a32cd" stroke-dasharray="5,2" d="M301.13,-240.18C348.88,-237.92 404.96,-239.18 422,-255.5 454.54,-286.68 410.08,-423.8 440,-457.5 449.77,-468.5 464.41,-473.75 478.83,-476.03"/>
<polygon fill="#9a32cd" stroke="#9a32cd" points="300.88,-236.69 291.08,-240.71 301.25,-243.68 300.88,-236.69"/>
<text text-anchor="middle" x="375" y="-258.5" font-family="Helvetica,sans-Serif" font-size="10.00"> ParamNames</text>
</g>
<!-- Node11 -->
<g id="node11" class="node">
<title>Node11</title>
<g id="a_node11"><a xlink:title=" ">
<polygon fill="white" stroke="#666666" points="291,-213.5 160,-213.5 160,-183.5 291,-183.5 291,-213.5"/>
<text text-anchor="start" x="168" y="-201.5" font-family="Helvetica,sans-Serif" font-size="10.00">std::vector&lt; std::vector</text>
<text text-anchor="middle" x="225.5" y="-190.5" font-family="Helvetica,sans-Serif" font-size="10.00">&lt; double &gt; &gt;</text>
</a>
</g>
</g>
<!-- Node11&#45;&gt;Node2 -->
<g id="edge10" class="edge">
<title>Node11&#45;&gt;Node2</title>
<path fill="none" stroke="#9a32cd" stroke-dasharray="5,2" d="M282.48,-181.11C326.27,-171.33 385.64,-167.08 422,-201.5 463.42,-240.7 402.54,-414.5 440,-457.5 449.67,-468.59 464.28,-473.86 478.71,-476.13"/>
<polygon fill="#9a32cd" stroke="#9a32cd" points="281.46,-177.76 272.55,-183.48 283.09,-184.57 281.46,-177.76"/>
<text text-anchor="middle" x="375" y="-226.5" font-family="Helvetica,sans-Serif" font-size="10.00"> ParamCentral</text>
<text text-anchor="middle" x="375" y="-215.5" font-family="Helvetica,sans-Serif" font-size="10.00">ParamErrors</text>
<text text-anchor="middle" x="375" y="-204.5" font-family="Helvetica,sans-Serif" font-size="10.00">ParamNom</text>
</g>
<!-- Node12 -->
<g id="node12" class="node">
<title>Node12</title>
<g id="a_node12"><a xlink:title=" ">
<polygon fill="white" stroke="#666666" points="291,-165.5 160,-165.5 160,-135.5 291,-135.5 291,-165.5"/>
<text text-anchor="start" x="168" y="-153.5" font-family="Helvetica,sans-Serif" font-size="10.00">std::vector&lt; std::vector</text>
<text text-anchor="middle" x="225.5" y="-142.5" font-family="Helvetica,sans-Serif" font-size="10.00">&lt; bool &gt; &gt;</text>
</a>
</g>
</g>
<!-- Node12&#45;&gt;Node2 -->
<g id="edge11" class="edge">
<title>Node12&#45;&gt;Node2</title>
<path fill="none" stroke="#9a32cd" stroke-dasharray="5,2" d="M301.25,-143.62C349.06,-141.03 405.16,-141.98 422,-158.5 469.52,-205.11 396.52,-407.09 440,-457.5 449.61,-468.64 464.21,-473.92 478.65,-476.19"/>
<polygon fill="#9a32cd" stroke="#9a32cd" points="300.97,-140.13 291.19,-144.22 301.38,-147.12 300.97,-140.13"/>
<text text-anchor="middle" x="375" y="-161.5" font-family="Helvetica,sans-Serif" font-size="10.00"> ParamFlat</text>
</g>
<!-- Node13 -->
<g id="node13" class="node">
<title>Node13</title>
<g id="a_node13"><a xlink:title=" ">
<polygon fill="white" stroke="#666666" points="277.5,-111 173.5,-111 173.5,-92 277.5,-92 277.5,-111"/>
<text text-anchor="middle" x="225.5" y="-99" font-family="Helvetica,sans-Serif" font-size="10.00">std::vector&lt; int &gt;</text>
</a>
</g>
</g>
<!-- Node13&#45;&gt;Node2 -->
<g id="edge12" class="edge">
<title>Node13&#45;&gt;Node2</title>
<path fill="none" stroke="#9a32cd" stroke-dasharray="5,2" d="M263.29,-89.1C307.35,-76.84 380.4,-65.16 422,-105.5 450.11,-132.76 414.56,-427.73 440,-457.5 449.56,-468.69 464.15,-473.98 478.59,-476.24"/>
<polygon fill="#9a32cd" stroke="#9a32cd" points="262.17,-85.78 253.55,-91.95 264.13,-92.5 262.17,-85.78"/>
<text text-anchor="middle" x="375" y="-130.5" font-family="Helvetica,sans-Serif" font-size="10.00"> NDSamplesBins</text>
<text text-anchor="middle" x="375" y="-119.5" font-family="Helvetica,sans-Serif" font-size="10.00">ParamTypeStartPos</text>
<text text-anchor="middle" x="375" y="-108.5" font-family="Helvetica,sans-Serif" font-size="10.00">nParam</text>
</g>
<!-- Node14 -->
<g id="node14" class="node">
<title>Node14</title>
<g id="a_node14"><a xlink:title=" ">
<polygon fill="white" stroke="#666666" points="310,-727 141,-727 141,-708 310,-708 310,-727"/>
<text text-anchor="middle" x="225.5" y="-715" font-family="Helvetica,sans-Serif" font-size="10.00">std::vector&lt; ParameterEnum &gt;</text>
</a>
</g>
</g>
<!-- Node14&#45;&gt;Node2 -->
<g id="edge13" class="edge">
<title>Node14&#45;&gt;Node2</title>
<path fill="none" stroke="#9a32cd" stroke-dasharray="5,2" d="M320.21,-725.35C354.96,-723.79 392.94,-716.32 422,-695.5 496.81,-641.92 519.26,-520.06 524.28,-485.06"/>
<polygon fill="#9a32cd" stroke="#9a32cd" points="319.92,-721.86 310.03,-725.65 320.13,-728.85 319.92,-721.86"/>
<text text-anchor="middle" x="375" y="-727.5" font-family="Helvetica,sans-Serif" font-size="10.00"> ParamType</text>
</g>
<!-- Node15 -->
<g id="node15" class="node">
<title>Node15</title>
<g id="a_node15"><a xlink:title=" ">
<polygon fill="white" stroke="#666666" points="290.5,-594 160.5,-594 160.5,-575 290.5,-575 290.5,-594"/>
<text text-anchor="middle" x="225.5" y="-582" font-family="Helvetica,sans-Serif" font-size="10.00">std::unique_ptr&lt; TF1 &gt;</text>
</a>
</g>
</g>
<!-- Node15&#45;&gt;Node2 -->
<g id="edge14" class="edge">
<title>Node15&#45;&gt;Node2</title>
<path fill="none" stroke="#9a32cd" stroke-dasharray="5,2" d="M279.43,-572.63C289.59,-570.31 300.13,-567.86 310,-565.5 334.95,-559.54 398.29,-547.31 422,-537.5 456.64,-523.16 493.44,-498.56 512.44,-485.06"/>
<polygon fill="#9a32cd" stroke="#9a32cd" points="278.42,-569.27 269.45,-574.91 279.98,-576.1 278.42,-569.27"/>
<text text-anchor="middle" x="375" y="-563.5" font-family="Helvetica,sans-Serif" font-size="10.00"> Gauss</text>
</g>
<!-- Node16 -->
<g id="node16" class="node">
<title>Node16</title>
<g id="a_node16"><a xlink:title=" ">
<polygon fill="white" stroke="#666666" points="302,-631 149,-631 149,-612 302,-612 302,-631"/>
<text text-anchor="middle" x="225.5" y="-619" font-family="Helvetica,sans-Serif" font-size="10.00">std::unique_ptr&lt; TCanvas &gt;</text>
</a>
</g>
</g>
<!-- Node16&#45;&gt;Node2 -->
<g id="edge15" class="edge">
<title>Node16&#45;&gt;Node2</title>
<path fill="none" stroke="#9a32cd" stroke-dasharray="5,2" d="M288.84,-609.55C296.03,-607.73 303.22,-605.71 310,-603.5 318.32,-600.79 319.72,-598.33 328,-595.5 368.7,-581.6 384.18,-592.99 422,-572.5 464.44,-549.51 502.56,-504.86 518.1,-485.2"/>
<polygon fill="#9a32cd" stroke="#9a32cd" points="287.96,-606.16 279.06,-611.9 289.6,-612.96 287.96,-606.16"/>
<text text-anchor="middle" x="375" y="-598.5" font-family="Helvetica,sans-Serif" font-size="10.00"> Posterior</text>
</g>
<!-- Node17 -->
<g id="node17" class="node">
<title>Node17</title>
<g id="a_node17"><a xlink:title=" ">
<polygon fill="white" stroke="#666666" points="288.5,-508 162.5,-508 162.5,-489 288.5,-489 288.5,-508"/>
<text text-anchor="middle" x="225.5" y="-496" font-family="Helvetica,sans-Serif" font-size="10.00">std::vector&lt; TH1D * &gt;</text>
</a>
</g>
</g>
<!-- Node17&#45;&gt;Node2 -->
<g id="edge16" class="edge">
<title>Node17&#45;&gt;Node2</title>
<path fill="none" stroke="#9a32cd" stroke-dasharray="5,2" d="M299.03,-492.92C355.01,-488.61 430.79,-482.79 478.92,-479.08"/>
<polygon fill="#9a32cd" stroke="#9a32cd" points="298.52,-489.45 288.82,-493.71 299.06,-496.43 298.52,-489.45"/>
<text text-anchor="middle" x="375" y="-492.5" font-family="Helvetica,sans-Serif" font-size="10.00"> hpost</text>
</g>
<!-- Node18 -->
<g id="node18" class="node">
<title>Node18</title>
<g id="a_node18"><a xlink:title=" ">
<polygon fill="white" stroke="#666666" points="291,-556.5 160,-556.5 160,-526.5 291,-526.5 291,-556.5"/>
<text text-anchor="start" x="168" y="-544.5" font-family="Helvetica,sans-Serif" font-size="10.00">std::vector&lt; std::vector</text>
<text text-anchor="middle" x="225.5" y="-533.5" font-family="Helvetica,sans-Serif" font-size="10.00">&lt; TH2D * &gt; &gt;</text>
</a>
</g>
</g>
<!-- Node18&#45;&gt;Node2 -->
<g id="edge17" class="edge">
<title>Node18&#45;&gt;Node2</title>
<path fill="none" stroke="#9a32cd" stroke-dasharray="5,2" d="M301.16,-528.93C337.74,-522.37 382.34,-513.79 422,-504.5 446.35,-498.8 473.56,-491.12 493.97,-485.1"/>
<polygon fill="#9a32cd" stroke="#9a32cd" points="300.3,-525.53 291.07,-530.72 301.53,-532.42 300.3,-525.53"/>
<text text-anchor="middle" x="375" y="-525.5" font-family="Helvetica,sans-Serif" font-size="10.00"> hpost2D</text>
</g>
<!-- Node19 -->
<g id="node19" class="node">
<title>Node19</title>
<g id="a_node19"><a xlink:title=" ">
<polygon fill="white" stroke="#666666" points="295,-422 156,-422 156,-403 295,-403 295,-422"/>
<text text-anchor="middle" x="225.5" y="-410" font-family="Helvetica,sans-Serif" font-size="10.00">std::unique_ptr&lt; TH2D &gt;</text>
</a>
</g>
</g>
<!-- Node19&#45;&gt;Node2 -->
<g id="edge18" class="edge">
<title>Node19&#45;&gt;Node2</title>
<path fill="none" stroke="#9a32cd" stroke-dasharray="5,2" d="M305.87,-403.17C343.56,-402.52 387.74,-407.56 422,-428.5 434.94,-436.41 427.58,-448.79 440,-457.5 451.3,-465.42 465.37,-469.99 478.82,-472.58"/>
<polygon fill="#9a32cd" stroke="#9a32cd" points="305.31,-399.68 295.43,-403.49 305.53,-406.68 305.31,-399.68"/>
<text text-anchor="middle" x="375" y="-442.5" font-family="Helvetica,sans-Serif" font-size="10.00"> hviolin</text>
<text text-anchor="middle" x="375" y="-431.5" font-family="Helvetica,sans-Serif" font-size="10.00">hviolin_prior</text>
</g>
<!-- Node20 -->
<g id="node20" class="node">
<title>Node20</title>
<g id="a_node20"><a xlink:title=" ">
<polygon fill="white" stroke="#666666" points="594,-448 459,-448 459,-429 594,-429 594,-448"/>
<text text-anchor="middle" x="526.5" y="-436" font-family="Helvetica,sans-Serif" font-size="10.00">std::shared_ptr&lt; TFile &gt;</text>
</a>
</g>
</g>
<!-- Node20&#45;&gt;Node1 -->
<g id="edge19" class="edge">
<title>Node20&#45;&gt;Node1</title>
<path fill="none" stroke="#9a32cd" stroke-dasharray="5,2" d="M604.46,-438.61C662.36,-437.54 736.17,-433.33 763,-419.5 803.54,-398.61 832.42,-349.17 843.26,-328.18"/>
<polygon fill="#9a32cd" stroke="#9a32cd" points="604.15,-435.12 594.21,-438.78 604.27,-442.12 604.15,-435.12"/>
<text text-anchor="middle" x="697" y="-440.5" font-family="Helvetica,sans-Serif" font-size="10.00"> file</text>
</g>
<!-- Node21 -->
<g id="node21" class="node">
<title>Node21</title>
<g id="a_node21"><a xlink:title=" ">
<polygon fill="white" stroke="#666666" points="584,-395.5 469,-395.5 469,-365.5 584,-365.5 584,-395.5"/>
<text text-anchor="start" x="477" y="-383.5" font-family="Helvetica,sans-Serif" font-size="10.00">std::unordered_map</text>
<text text-anchor="middle" x="526.5" y="-372.5" font-family="Helvetica,sans-Serif" font-size="10.00">&lt; std::string, bool &gt;</text>
</a>
</g>
</g>
<!-- Node21&#45;&gt;Node1 -->
<g id="edge22" class="edge">
<title>Node21&#45;&gt;Node1</title>
<path fill="none" stroke="#9a32cd" stroke-dasharray="5,2" d="M594.22,-370.22C652.2,-361.14 731.67,-348.31 763,-341.5 780.63,-337.67 800.06,-332.48 815.9,-328"/>
<polygon fill="#9a32cd" stroke="#9a32cd" points="593.36,-366.81 584.02,-371.81 594.44,-373.72 593.36,-366.81"/>
<text text-anchor="start" x="641" y="-410.5" font-family="Helvetica,sans-Serif" font-size="10.00"> availableParams_map</text>
<text text-anchor="middle" x="697" y="-399.5" font-family="Helvetica,sans-Serif" font-size="10.00">_1dPosteriors</text>
<text text-anchor="start" x="641" y="-388.5" font-family="Helvetica,sans-Serif" font-size="10.00">availableParams_map</text>
<text text-anchor="middle" x="697" y="-377.5" font-family="Helvetica,sans-Serif" font-size="10.00">_MCMCchain</text>
<text text-anchor="middle" x="697" y="-366.5" font-family="Helvetica,sans-Serif" font-size="10.00">hasLLHScans_map</text>
</g>
<!-- Node22 -->
<g id="node22" class="node">
<title>Node22</title>
<g id="a_node22"><a xlink:title=" ">
<polygon fill="white" stroke="#666666" points="613,-347.5 440,-347.5 440,-295.5 613,-295.5 613,-347.5"/>
<text text-anchor="start" x="448" y="-335.5" font-family="Helvetica,sans-Serif" font-size="10.00">std::unordered_map</text>
<text text-anchor="start" x="448" y="-324.5" font-family="Helvetica,sans-Serif" font-size="10.00">&lt; std::string, std::</text>
<text text-anchor="start" x="448" y="-313.5" font-family="Helvetica,sans-Serif" font-size="10.00">unordered_map&lt; std::string,</text>
<text text-anchor="middle" x="526.5" y="-302.5" font-family="Helvetica,sans-Serif" font-size="10.00"> std::shared_ptr&lt; TGraph &gt; &gt; &gt;</text>
</a>
</g>
</g>
<!-- Node22&#45;&gt;Node1 -->
<g id="edge23" class="edge">
<title>Node22&#45;&gt;Node1</title>
<path fill="none" stroke="#9a32cd" stroke-dasharray="5,2" d="M623.24,-319.6C625.85,-319.56 628.44,-319.53 631,-319.5 681.1,-318.9 737.72,-318.65 780.55,-318.56"/>
<polygon fill="#9a32cd" stroke="#9a32cd" points="623.01,-316.1 613.06,-319.75 623.11,-323.1 623.01,-316.1"/>
<text text-anchor="middle" x="697" y="-333.5" font-family="Helvetica,sans-Serif" font-size="10.00"> LLHScansBySample_map</text>
<text text-anchor="middle" x="697" y="-322.5" font-family="Helvetica,sans-Serif" font-size="10.00">LLHScans_map</text>
</g>
<!-- Node23 -->
<g id="node23" class="node">
<title>Node23</title>
<g id="a_node23"><a xlink:title=" ">
<polygon fill="white" stroke="#666666" points="604.5,-277.5 448.5,-277.5 448.5,-225.5 604.5,-225.5 604.5,-277.5"/>
<text text-anchor="start" x="456.5" y="-265.5" font-family="Helvetica,sans-Serif" font-size="10.00">std::unordered_map</text>
<text text-anchor="start" x="456.5" y="-254.5" font-family="Helvetica,sans-Serif" font-size="10.00">&lt; std::string, std::</text>
<text text-anchor="start" x="456.5" y="-243.5" font-family="Helvetica,sans-Serif" font-size="10.00">unordered_map&lt; std::string,</text>
<text text-anchor="middle" x="526.5" y="-232.5" font-family="Helvetica,sans-Serif" font-size="10.00"> bool &gt; &gt;</text>
</a>
</g>
</g>
<!-- Node23&#45;&gt;Node1 -->
<g id="edge24" class="edge">
<title>Node23&#45;&gt;Node1</title>
<path fill="none" stroke="#9a32cd" stroke-dasharray="5,2" d="M614.69,-249.63C659.83,-250.88 715.33,-255.89 763,-270.5 790.71,-278.99 819.33,-297.55 835.27,-308.95"/>
<polygon fill="#9a32cd" stroke="#9a32cd" points="614.71,-246.13 604.63,-249.41 614.55,-253.13 614.71,-246.13"/>
<text text-anchor="start" x="641" y="-306.5" font-family="Helvetica,sans-Serif" font-size="10.00"> availableParams_map</text>
<text text-anchor="middle" x="697" y="-295.5" font-family="Helvetica,sans-Serif" font-size="10.00">_LLH</text>
<text text-anchor="start" x="641" y="-284.5" font-family="Helvetica,sans-Serif" font-size="10.00">availableParams</text>
<text text-anchor="middle" x="697" y="-273.5" font-family="Helvetica,sans-Serif" font-size="10.00">_map_LLHBySample</text>
</g>
<!-- Node24 -->
<g id="node24" class="node">
<title>Node24</title>
<g id="a_node24"><a xlink:title=" ">
<polygon fill="white" stroke="#666666" points="604.5,-207.5 448.5,-207.5 448.5,-155.5 604.5,-155.5 604.5,-207.5"/>
<text text-anchor="start" x="456.5" y="-195.5" font-family="Helvetica,sans-Serif" font-size="10.00">std::unordered_map</text>
<text text-anchor="start" x="456.5" y="-184.5" font-family="Helvetica,sans-Serif" font-size="10.00">&lt; std::string, std::</text>
<text text-anchor="start" x="456.5" y="-173.5" font-family="Helvetica,sans-Serif" font-size="10.00">unordered_map&lt; std::string,</text>
<text text-anchor="middle" x="526.5" y="-162.5" font-family="Helvetica,sans-Serif" font-size="10.00"> double &gt; &gt;</text>
</a>
</g>
</g>
<!-- Node24&#45;&gt;Node1 -->
<g id="edge25" class="edge">
<title>Node24&#45;&gt;Node1</title>
<path fill="none" stroke="#9a32cd" stroke-dasharray="5,2" d="M614.7,-183.99C661.19,-188.53 717.92,-199.4 763,-224.5 800.68,-245.48 830.49,-289.44 842.39,-308.89"/>
<polygon fill="#9a32cd" stroke="#9a32cd" points="614.91,-180.5 604.64,-183.09 614.29,-187.47 614.91,-180.5"/>
<text text-anchor="middle" x="697" y="-238.5" font-family="Helvetica,sans-Serif" font-size="10.00"> postFitErrors</text>
<text text-anchor="middle" x="697" y="-227.5" font-family="Helvetica,sans-Serif" font-size="10.00">postFitValues</text>
</g>
<!-- Node25 -->
<g id="node25" class="node">
<title>Node25</title>
<g id="a_node25"><a xlink:title=" ">
<polygon fill="white" stroke="#666666" points="594,-137.5 459,-137.5 459,-107.5 594,-107.5 594,-137.5"/>
<text text-anchor="start" x="467" y="-125.5" font-family="Helvetica,sans-Serif" font-size="10.00">std::unordered_map</text>
<text text-anchor="middle" x="526.5" y="-114.5" font-family="Helvetica,sans-Serif" font-size="10.00">&lt; std::string, double * &gt;</text>
</a>
</g>
</g>
<!-- Node25&#45;&gt;Node1 -->
<g id="edge26" class="edge">
<title>Node25&#45;&gt;Node1</title>
<path fill="none" stroke="#9a32cd" stroke-dasharray="5,2" d="M604.02,-122.37C653.5,-125.83 717.03,-137.31 763,-170.5 812.97,-206.57 837.85,-281.73 845.43,-308.65"/>
<polygon fill="#9a32cd" stroke="#9a32cd" points="604.19,-118.87 594,-121.76 603.77,-125.86 604.19,-118.87"/>
<text text-anchor="middle" x="697" y="-173.5" font-family="Helvetica,sans-Serif" font-size="10.00"> MCMCstepParamsMap</text>
</g>
<!-- Node26 -->
<g id="node26" class="node">
<title>Node26</title>
<g id="a_node26"><a xlink:title=" ">
<polygon fill="white" stroke="#666666" points="583.5,-89.5 469.5,-89.5 469.5,-59.5 583.5,-59.5 583.5,-89.5"/>
<text text-anchor="start" x="477.5" y="-77.5" font-family="Helvetica,sans-Serif" font-size="10.00">std::unordered_map</text>
<text text-anchor="middle" x="526.5" y="-66.5" font-family="Helvetica,sans-Serif" font-size="10.00">&lt; std::string, int &gt;</text>
</a>
</g>
</g>
<!-- Node26&#45;&gt;Node1 -->
<g id="edge27" class="edge">
<title>Node26&#45;&gt;Node1</title>
<path fill="none" stroke="#9a32cd" stroke-dasharray="5,2" d="M593.55,-68.05C644.95,-66.61 715.33,-72.95 763,-110.5 829.19,-162.64 844.2,-274.87 847.27,-308.67"/>
<polygon fill="#9a32cd" stroke="#9a32cd" points="593.39,-64.55 583.53,-68.43 593.66,-71.55 593.39,-64.55"/>
<text text-anchor="middle" x="697" y="-113.5" font-family="Helvetica,sans-Serif" font-size="10.00"> MCMCstepTreeIndicesMap</text>
</g>
<!-- Node27 -->
<g id="node27" class="node">
<title>Node27</title>
<g id="a_node27"><a xlink:title=" ">
<polygon fill="white" stroke="#666666" points="595,-41 458,-41 458,0 595,0 595,-41"/>
<text text-anchor="start" x="466" y="-29" font-family="Helvetica,sans-Serif" font-size="10.00">std::unordered_map</text>
<text text-anchor="start" x="466" y="-18" font-family="Helvetica,sans-Serif" font-size="10.00">&lt; std::string, std::</text>
<text text-anchor="middle" x="526.5" y="-7" font-family="Helvetica,sans-Serif" font-size="10.00">shared_ptr&lt; TGraph &gt; &gt;</text>
</a>
</g>
</g>
<!-- Node27&#45;&gt;Node1 -->
<g id="edge28" class="edge">
<title>Node27&#45;&gt;Node1</title>
<path fill="none" stroke="#9a32cd" stroke-dasharray="5,2" d="M605.26,-11.63C655.72,-10.22 719.86,-17.18 763,-53.5 844.68,-122.27 848.68,-269.8 848.25,-308.85"/>
<polygon fill="#9a32cd" stroke="#9a32cd" points="604.89,-8.15 595.04,-12.04 605.17,-15.14 604.89,-8.15"/>
<text text-anchor="middle" x="697" y="-56.5" font-family="Helvetica,sans-Serif" font-size="10.00"> posteriors1d_map</text>
</g>
</g>
</svg>
