<?xml version="1.0" encoding="UTF-8" standalone="no"?>
<!DOCTYPE svg PUBLIC "-//W3C//DTD SVG 1.1//EN"
 "http://www.w3.org/Graphics/SVG/1.1/DTD/svg11.dtd">
<!-- Generated by graphviz version 2.43.0 (0)
 -->
<!-- Title: NormParameter Pages: 1 -->
<svg width="633pt" height="184pt"
 viewBox="0.00 0.00 633.00 183.50" xmlns="http://www.w3.org/2000/svg" xmlns:xlink="http://www.w3.org/1999/xlink">
<g id="graph0" class="graph" transform="scale(1 1) rotate(0) translate(4 179.5)">
<title>NormParameter</title>
<!-- Node1 -->
<g id="node1" class="node">
<title>Node1</title>
<g id="a_node1"><a xlink:title="ETA &#45; Normalisations for cross&#45;section parameters Carrier for whether you want to apply a systematic ...">
<polygon fill="#999999" stroke="#666666" points="625,-79 531,-79 531,-60 625,-60 625,-79"/>
<text text-anchor="middle" x="578" y="-67" font-family="Helvetica,sans-Serif" font-size="10.00">NormParameter</text>
</a>
</g>
</g>
<!-- Node2 -->
<g id="node2" class="node">
<title>Node2</title>
<g id="a_node2"><a xlink:href="structTypeParameterBase.html" target="_top" xlink:title="Base class storing info for parameters types, helping unify codebase.">
<polygon fill="white" stroke="#666666" points="399.5,-170 286.5,-170 286.5,-151 399.5,-151 399.5,-170"/>
<text text-anchor="middle" x="343" y="-158" font-family="Helvetica,sans-Serif" font-size="10.00">TypeParameterBase</text>
</a>
</g>
</g>
<!-- Node2&#45;&gt;Node1 -->
<g id="edge1" class="edge">
<title>Node2&#45;&gt;Node1</title>
<path fill="none" stroke="#63b8ff" d="M410.2,-165.56C442.81,-165.31 481.74,-160.75 513,-144.5 541.7,-129.58 562.91,-95.81 572.04,-79.16"/>
<polygon fill="#63b8ff" stroke="#63b8ff" points="409.88,-162.06 399.85,-165.5 409.83,-169.06 409.88,-162.06"/>
</g>
<!-- Node3 -->
<g id="node3" class="node">
<title>Node3</title>
<g id="a_node3"><a xlink:title=" ">
<polygon fill="white" stroke="#666666" points="206,-170 141,-170 141,-151 206,-151 206,-170"/>
<text text-anchor="middle" x="173.5" y="-158" font-family="Helvetica,sans-Serif" font-size="10.00">std::string</text>
</a>
</g>
</g>
<!-- Node3&#45;&gt;Node2 -->
<g id="edge2" class="edge">
<title>Node3&#45;&gt;Node2</title>
<path fill="none" stroke="#9a32cd" stroke-dasharray="5,2" d="M216.27,-160.5C237.42,-160.5 263.39,-160.5 286.22,-160.5"/>
<polygon fill="#9a32cd" stroke="#9a32cd" points="216.01,-157 206.01,-160.5 216.01,-164 216.01,-157"/>
<text text-anchor="middle" x="239.5" y="-163.5" font-family="Helvetica,sans-Serif" font-size="10.00"> name</text>
</g>
<!-- Node4 -->
<g id="node4" class="node">
<title>Node4</title>
<g id="a_node4"><a xlink:title=" ">
<polygon fill="white" stroke="#666666" points="104,-175.5 0,-175.5 0,-145.5 104,-145.5 104,-175.5"/>
<text text-anchor="start" x="8" y="-163.5" font-family="Helvetica,sans-Serif" font-size="10.00">std::basic_string&lt;</text>
<text text-anchor="middle" x="52" y="-152.5" font-family="Helvetica,sans-Serif" font-size="10.00"> Char &gt;</text>
</a>
</g>
</g>
<!-- Node4&#45;&gt;Node3 -->
<g id="edge3" class="edge">
<title>Node4&#45;&gt;Node3</title>
<path fill="none" stroke="#63b8ff" d="M114.1,-160.5C123.41,-160.5 132.68,-160.5 141,-160.5"/>
<polygon fill="#63b8ff" stroke="#63b8ff" points="114.03,-157 104.03,-160.5 114.03,-164 114.03,-157"/>
</g>
<!-- Node5 -->
<g id="node5" class="node">
<title>Node5</title>
<g id="a_node5"><a xlink:title=" ">
<polygon fill="white" stroke="#666666" points="395,-105 291,-105 291,-86 395,-86 395,-105"/>
<text text-anchor="middle" x="343" y="-93" font-family="Helvetica,sans-Serif" font-size="10.00">std::vector&lt; int &gt;</text>
</a>
</g>
</g>
<!-- Node5&#45;&gt;Node1 -->
<g id="edge4" class="edge">
<title>Node5&#45;&gt;Node1</title>
<path fill="none" stroke="#9a32cd" stroke-dasharray="5,2" d="M405.13,-88.68C444.45,-84.29 494.73,-78.68 530.73,-74.66"/>
<polygon fill="#9a32cd" stroke="#9a32cd" points="404.68,-85.21 395.13,-89.79 405.46,-92.16 404.68,-85.21"/>
<text text-anchor="middle" x="472" y="-132.5" font-family="Helvetica,sans-Serif" font-size="10.00"> horncurrents</text>
<text text-anchor="middle" x="472" y="-121.5" font-family="Helvetica,sans-Serif" font-size="10.00">modes</text>
<text text-anchor="middle" x="472" y="-110.5" font-family="Helvetica,sans-Serif" font-size="10.00">pdgs</text>
<text text-anchor="middle" x="472" y="-99.5" font-family="Helvetica,sans-Serif" font-size="10.00">preoscpdgs</text>
<text text-anchor="middle" x="472" y="-88.5" font-family="Helvetica,sans-Serif" font-size="10.00">targets</text>
</g>
<!-- Node6 -->
<g id="node6" class="node">
<title>Node6</title>
<g id="a_node6"><a xlink:title=" ">
<polygon fill="white" stroke="#666666" points="408.5,-67.5 277.5,-67.5 277.5,-37.5 408.5,-37.5 408.5,-67.5"/>
<text text-anchor="start" x="285.5" y="-55.5" font-family="Helvetica,sans-Serif" font-size="10.00">std::vector&lt; std::vector</text>
<text text-anchor="middle" x="343" y="-44.5" font-family="Helvetica,sans-Serif" font-size="10.00">&lt; double &gt; &gt;</text>
</a>
</g>
</g>
<!-- Node6&#45;&gt;Node1 -->
<g id="edge5" class="edge">
<title>Node6&#45;&gt;Node1</title>
<path fill="none" stroke="#9a32cd" stroke-dasharray="5,2" d="M418.96,-52.21C448.35,-52.76 482.33,-54.19 513,-57.5 518.84,-58.13 524.96,-59 530.98,-59.99"/>
<polygon fill="#9a32cd" stroke="#9a32cd" points="418.82,-48.71 408.76,-52.06 418.71,-55.71 418.82,-48.71"/>
<text text-anchor="middle" x="472" y="-60.5" font-family="Helvetica,sans-Serif" font-size="10.00"> Selection</text>
</g>
<!-- Node7 -->
<g id="node7" class="node">
<title>Node7</title>
<g id="a_node7"><a xlink:title=" ">
<polygon fill="white" stroke="#666666" points="413,-19 273,-19 273,0 413,0 413,-19"/>
<text text-anchor="middle" x="343" y="-7" font-family="Helvetica,sans-Serif" font-size="10.00">std::vector&lt; std::string &gt;</text>
</a>
</g>
</g>
<!-- Node7&#45;&gt;Node1 -->
<g id="edge6" class="edge">
<title>Node7&#45;&gt;Node1</title>
<path fill="none" stroke="#9a32cd" stroke-dasharray="5,2" d="M423.35,-17.65C452.05,-21.9 484.41,-28.22 513,-37.5 530.25,-43.1 548.64,-52.72 561.26,-59.95"/>
<polygon fill="#9a32cd" stroke="#9a32cd" points="423.76,-14.18 413.36,-16.24 422.77,-21.11 423.76,-14.18"/>
<text text-anchor="middle" x="472" y="-40.5" font-family="Helvetica,sans-Serif" font-size="10.00"> KinematicVarStr</text>
</g>
</g>
</svg>
