<?xml version="1.0" encoding="UTF-8" standalone="no"?>
<!DOCTYPE svg PUBLIC "-//W3C//DTD SVG 1.1//EN"
 "http://www.w3.org/Graphics/SVG/1.1/DTD/svg11.dtd">
<!-- Generated by graphviz version 2.44.0 (0)
 -->
<!-- Title: PredictiveSample Pages: 1 -->
<!--zoomable 1483 -->
<svg id="main" version="1.1" xmlns="http://www.w3.org/2000/svg" xmlns:xlink="http://www.w3.org/1999/xlink" xml:space="preserve" onload="init(evt)">
<style type="text/css"><![CDATA[
.edge:hover path { stroke: red; }
.edge:hover polygon { stroke: red; fill: red; }
]]></style>
<script type="text/javascript"><![CDATA[
var edges = document.getElementsByTagName('g');
if (edges && edges.length) {
  for (var i=0;i<edges.length;i++) {
    if (edges[i].id.substr(0,4)=='edge') {
      edges[i].setAttribute('class','edge');
    }
  }
}
]]></script>
        <defs>
                <circle id="rim" cx="0" cy="0" r="7"/>
                <circle id="rim2" cx="0" cy="0" r="3.5"/>
                <g id="zoomPlus">
                        <use xlink:href="#rim" fill="#404040">
                                <set attributeName="fill" to="#808080" begin="zoomplus.mouseover" end="zoomplus.mouseout"/>
                        </use>
                        <path d="M-4,0h8M0,-4v8" fill="none" stroke="white" stroke-width="1.5" pointer-events="none"/>
                </g>
                <g id="zoomMin">
                        <use xlink:href="#rim" fill="#404040">
                                <set attributeName="fill" to="#808080" begin="zoomminus.mouseover" end="zoomminus.mouseout"/>
                        </use>
                        <path d="M-4,0h8" fill="none" stroke="white" stroke-width="1.5" pointer-events="none"/>
                </g>
                <g id="dirArrow">
                        <path fill="none" stroke="white" stroke-width="1.5" d="M0,-3.0v7 M-2.5,-0.5L0,-3.0L2.5,-0.5"/>
                </g>
               <g id="resetDef">
                       <use xlink:href="#rim2" fill="#404040">
                               <set attributeName="fill" to="#808080" begin="reset.mouseover" end="reset.mouseout"/>
                       </use>
               </g>
        </defs>

<script type="text/javascript">
var viewWidth = 1392;
var viewHeight = 1483;
var sectionId = 'dynsection-0';
</script>
<script xlink:href="svgpan.js"/>
<svg id="graph" class="graph">
<g id="viewport">
<title>PredictiveSample</title>
<polygon fill="white" stroke="transparent" points="-4,4 -4,-1479.39 1388,-1479.39 1388,4 -4,4"/>
<!-- Node1 -->
<g id="node1" class="node">
<title>Node1</title>
<g id="a_node1"><a xlink:title="KS: Summary of sample info to be used by.">
<polygon fill="#bfbfbf" stroke="black" points="1292,-1405.39 1292,-1424.39 1384,-1424.39 1384,-1405.39 1292,-1405.39"/>
<text text-anchor="middle" x="1338" y="-1412.39" font-family="Helvetica" font-size="10.00">PredictiveSample</text>
</a>
</g>
</g>
<!-- Node2 -->
<g id="node2" class="node">
<title>Node2</title>
<g id="a_node2"><a xlink:href="classBinningHandler.html" target="_top" xlink:title="KS: Class handling binning for multiple samples.">
<polygon fill="white" stroke="black" points="1108,-1446.39 1108,-1465.39 1191,-1465.39 1191,-1446.39 1108,-1446.39"/>
<text text-anchor="middle" x="1149.5" y="-1453.39" font-family="Helvetica" font-size="10.00">BinningHandler</text>
</a>
</g>
</g>
<!-- Node2&#45;&gt;Node1 -->
<g id="edge1" class="edge">
<title>Node2&#45;&gt;Node1</title>
<path fill="none" stroke="#9a32cd" stroke-dasharray="5,2" d="M1201.33,-1444.71C1230.22,-1438.36 1266.01,-1430.5 1293.57,-1424.44"/>
<polygon fill="#9a32cd" stroke="#9a32cd" points="1200.44,-1441.32 1191.43,-1446.89 1201.95,-1448.16 1200.44,-1441.32"/>
<text text-anchor="middle" x="1245" y="-1443.89" font-family="Helvetica" font-size="10.00"> Binning</text>
</g>
<!-- Node3 -->
<g id="node3" class="node">
<title>Node3</title>
<g id="a_node3"><a xlink:title=" ">
<polygon fill="white" stroke="#bfbfbf" points="780.5,-1444.89 780.5,-1474.89 917.5,-1474.89 917.5,-1444.89 780.5,-1444.89"/>
<text text-anchor="start" x="788.5" y="-1462.89" font-family="Helvetica" font-size="10.00">std::vector&lt; SampleBinning</text>
<text text-anchor="middle" x="849" y="-1451.89" font-family="Helvetica" font-size="10.00">Info &gt;</text>
</a>
</g>
</g>
<!-- Node3&#45;&gt;Node2 -->
<g id="edge2" class="edge">
<title>Node3&#45;&gt;Node2</title>
<path fill="none" stroke="#9a32cd" stroke-dasharray="5,2" d="M927.89,-1458.84C985.46,-1458.07 1061.56,-1457.05 1107.67,-1456.44"/>
<polygon fill="#9a32cd" stroke="#9a32cd" points="927.69,-1455.35 917.73,-1458.98 927.78,-1462.35 927.69,-1455.35"/>
<text text-anchor="middle" x="1013.5" y="-1460.89" font-family="Helvetica" font-size="10.00"> SampleBinning</text>
</g>
<!-- Node4 -->
<g id="node4" class="node">
<title>Node4</title>
<g id="a_node4"><a xlink:title=" ">
<polygon fill="white" stroke="#bfbfbf" points="185,-1074.39 185,-1093.39 245,-1093.39 245,-1074.39 185,-1074.39"/>
<text text-anchor="middle" x="215" y="-1081.39" font-family="Helvetica" font-size="10.00">std::string</text>
</a>
</g>
</g>
<!-- Node4&#45;&gt;Node1 -->
<g id="edge3" class="edge">
<title>Node4&#45;&gt;Node1</title>
<path fill="none" stroke="#9a32cd" stroke-dasharray="5,2" d="M222.66,-1103.29C248.36,-1174.15 348.17,-1414.89 518,-1414.89 518,-1414.89 518,-1414.89 1150.5,-1414.89 1198.74,-1414.89 1254.01,-1414.89 1291.78,-1414.89"/>
<polygon fill="#9a32cd" stroke="#9a32cd" points="225.81,-1101.7 219.18,-1093.44 219.21,-1104.03 225.81,-1101.7"/>
<text text-anchor="middle" x="849" y="-1417.89" font-family="Helvetica" font-size="10.00"> Name</text>
</g>
<!-- Node6 -->
<g id="node6" class="node">
<title>Node6</title>
<g id="a_node6"><a xlink:href="classSampleHandlerFD.html" target="_top" xlink:title="Class responsible for handling implementation of samples used in analysis, reweighting and returning ...">
<polygon fill="white" stroke="black" points="1101,-968.39 1101,-987.39 1198,-987.39 1198,-968.39 1101,-968.39"/>
<text text-anchor="middle" x="1149.5" y="-975.39" font-family="Helvetica" font-size="10.00">SampleHandlerFD</text>
</a>
</g>
</g>
<!-- Node4&#45;&gt;Node6 -->
<g id="edge39" class="edge">
<title>Node4&#45;&gt;Node6</title>
<path fill="none" stroke="#9a32cd" stroke-dasharray="5,2" d="M255.24,-1084.81C362.8,-1086.91 671.27,-1090.07 926,-1064.89 996.46,-1057.92 1019.43,-1069.06 1083,-1037.89 1107.65,-1025.8 1129.69,-1001.52 1140.83,-987.84"/>
<polygon fill="#9a32cd" stroke="#9a32cd" points="255.24,-1081.31 245.17,-1084.6 255.1,-1088.31 255.24,-1081.31"/>
<text text-anchor="middle" x="688" y="-1085.89" font-family="Helvetica" font-size="10.00"> SampleHandlerName</text>
</g>
<!-- Node18 -->
<g id="node18" class="node">
<title>Node18</title>
<g id="a_node18"><a xlink:href="classParameterHandlerBase.html" target="_top" xlink:title="Base class responsible for handling of systematic error parameters. Capable of using PCA or using ada...">
<polygon fill="white" stroke="black" points="460,-387.39 460,-406.39 578,-406.39 578,-387.39 460,-387.39"/>
<text text-anchor="middle" x="519" y="-394.39" font-family="Helvetica" font-size="10.00">ParameterHandlerBase</text>
</a>
</g>
</g>
<!-- Node4&#45;&gt;Node18 -->
<g id="edge24" class="edge">
<title>Node4&#45;&gt;Node18</title>
<path fill="none" stroke="#9a32cd" stroke-dasharray="5,2" d="M224.62,-1065.03C255.56,-996.52 362.09,-753.75 416,-542.89 422.79,-516.34 415.94,-441.5 434,-420.89 440.8,-413.13 449.91,-407.8 459.63,-404.16"/>
<polygon fill="#9a32cd" stroke="#9a32cd" points="221.41,-1063.62 220.47,-1074.18 227.79,-1066.52 221.41,-1063.62"/>
<text text-anchor="middle" x="366" y="-854.89" font-family="Helvetica" font-size="10.00"> inputFile</text>
<text text-anchor="middle" x="366" y="-843.89" font-family="Helvetica" font-size="10.00">matrixName</text>
</g>
<!-- Node5 -->
<g id="node5" class="node">
<title>Node5</title>
<g id="a_node5"><a xlink:title=" ">
<polygon fill="white" stroke="#bfbfbf" points="0,-1068.89 0,-1098.89 95,-1098.89 95,-1068.89 0,-1068.89"/>
<text text-anchor="start" x="8" y="-1086.89" font-family="Helvetica" font-size="10.00">std::basic_string&lt;</text>
<text text-anchor="middle" x="47.5" y="-1075.89" font-family="Helvetica" font-size="10.00"> char &gt;</text>
</a>
</g>
</g>
<!-- Node5&#45;&gt;Node4 -->
<g id="edge4" class="edge">
<title>Node5&#45;&gt;Node4</title>
<path fill="none" stroke="midnightblue" d="M105.11,-1083.89C131.97,-1083.89 162.93,-1083.89 184.95,-1083.89"/>
<polygon fill="midnightblue" stroke="midnightblue" points="105.04,-1080.39 95.04,-1083.89 105.04,-1087.39 105.04,-1080.39"/>
</g>
<!-- Node6&#45;&gt;Node1 -->
<g id="edge5" class="edge">
<title>Node6&#45;&gt;Node1</title>
<path fill="none" stroke="#9a32cd" stroke-dasharray="5,2" d="M1158.5,-996.63C1190.54,-1071.7 1309.03,-1349.36 1332.82,-1405.1"/>
<polygon fill="#9a32cd" stroke="#9a32cd" points="1161.71,-995.25 1154.57,-987.42 1155.27,-997.99 1161.71,-995.25"/>
<text text-anchor="middle" x="1245" y="-1263.89" font-family="Helvetica" font-size="10.00"> SamHandler</text>
</g>
<!-- Node7 -->
<g id="node7" class="node">
<title>Node7</title>
<g id="a_node7"><a xlink:href="classSampleHandlerBase.html" target="_top" xlink:title="Class responsible for handling implementation of samples used in analysis, reweighting and returning ...">
<polygon fill="white" stroke="black" points="796,-1036.39 796,-1055.39 902,-1055.39 902,-1036.39 796,-1036.39"/>
<text text-anchor="middle" x="849" y="-1043.39" font-family="Helvetica" font-size="10.00">SampleHandlerBase</text>
</a>
</g>
</g>
<!-- Node7&#45;&gt;Node6 -->
<g id="edge6" class="edge">
<title>Node7&#45;&gt;Node6</title>
<path fill="none" stroke="midnightblue" d="M912.54,-1041.37C960.12,-1036.7 1026.78,-1027.52 1083,-1009.89 1100.63,-1004.36 1119.46,-994.73 1132.38,-987.47"/>
<polygon fill="midnightblue" stroke="midnightblue" points="912.01,-1037.9 902.38,-1042.32 912.66,-1044.87 912.01,-1037.9"/>
</g>
<!-- Node8 -->
<g id="node8" class="node">
<title>Node8</title>
<g id="a_node8"><a xlink:title=" ">
<polygon fill="white" stroke="#bfbfbf" points="439,-1036.39 439,-1055.39 599,-1055.39 599,-1036.39 439,-1036.39"/>
<text text-anchor="middle" x="519" y="-1043.39" font-family="Helvetica" font-size="10.00">std::unique_ptr&lt; MaCh3Modes &gt;</text>
</a>
</g>
</g>
<!-- Node8&#45;&gt;Node7 -->
<g id="edge7" class="edge">
<title>Node8&#45;&gt;Node7</title>
<path fill="none" stroke="#9a32cd" stroke-dasharray="5,2" d="M609.6,-1045.89C669.39,-1045.89 745.93,-1045.89 795.93,-1045.89"/>
<polygon fill="#9a32cd" stroke="#9a32cd" points="609.4,-1042.39 599.4,-1045.89 609.4,-1049.39 609.4,-1042.39"/>
<text text-anchor="middle" x="688" y="-1048.89" font-family="Helvetica" font-size="10.00"> Modes</text>
</g>
<!-- Node9 -->
<g id="node9" class="node">
<title>Node9</title>
<g id="a_node9"><a xlink:title=" ">
<polygon fill="white" stroke="#bfbfbf" points="792.5,-986.89 792.5,-1016.89 905.5,-1016.89 905.5,-986.89 792.5,-986.89"/>
<text text-anchor="start" x="800.5" y="-1004.89" font-family="Helvetica" font-size="10.00">std::unordered_map</text>
<text text-anchor="middle" x="849" y="-993.89" font-family="Helvetica" font-size="10.00">&lt; std::string, double &gt;</text>
</a>
</g>
</g>
<!-- Node9&#45;&gt;Node6 -->
<g id="edge8" class="edge">
<title>Node9&#45;&gt;Node6</title>
<path fill="none" stroke="#9a32cd" stroke-dasharray="5,2" d="M915.96,-996.58C971.93,-992.09 1050.86,-985.74 1100.85,-981.72"/>
<polygon fill="#9a32cd" stroke="#9a32cd" points="915.48,-993.11 905.8,-997.4 916.04,-1000.09 915.48,-993.11"/>
<text text-anchor="middle" x="1013.5" y="-997.89" font-family="Helvetica" font-size="10.00"> _modeNomWeightMap</text>
</g>
<!-- Node10 -->
<g id="node10" class="node">
<title>Node10</title>
<g id="a_node10"><a xlink:title=" ">
<polygon fill="white" stroke="#bfbfbf" points="787,-937.89 787,-967.89 911,-967.89 911,-937.89 787,-937.89"/>
<text text-anchor="start" x="795" y="-955.89" font-family="Helvetica" font-size="10.00">std::vector&lt; std::vector</text>
<text text-anchor="middle" x="849" y="-944.89" font-family="Helvetica" font-size="10.00">&lt; FunctionalShifter * &gt; &gt;</text>
</a>
</g>
</g>
<!-- Node10&#45;&gt;Node6 -->
<g id="edge9" class="edge">
<title>Node10&#45;&gt;Node6</title>
<path fill="none" stroke="#9a32cd" stroke-dasharray="5,2" d="M921.62,-956.54C967.76,-959.21 1029,-963.33 1083,-968.89 1088.82,-969.49 1094.93,-970.21 1100.97,-970.97"/>
<polygon fill="#9a32cd" stroke="#9a32cd" points="921.6,-953.04 911.42,-955.96 921.2,-960.03 921.6,-953.04"/>
<text text-anchor="middle" x="1013.5" y="-971.89" font-family="Helvetica" font-size="10.00"> funcParsGrid</text>
</g>
<!-- Node11 -->
<g id="node11" class="node">
<title>Node11</title>
<g id="a_node11"><a xlink:title=" ">
<polygon fill="white" stroke="#bfbfbf" points="772,-899.39 772,-918.39 926,-918.39 926,-899.39 772,-899.39"/>
<text text-anchor="middle" x="849" y="-906.39" font-family="Helvetica" font-size="10.00">std::vector&lt; FunctionalShifter &gt;</text>
</a>
</g>
</g>
<!-- Node11&#45;&gt;Node6 -->
<g id="edge10" class="edge">
<title>Node11&#45;&gt;Node6</title>
<path fill="none" stroke="#9a32cd" stroke-dasharray="5,2" d="M936.44,-915.03C981.02,-919.91 1035.81,-928.57 1083,-943.89 1101.28,-949.82 1120.62,-960.48 1133.51,-968.28"/>
<polygon fill="#9a32cd" stroke="#9a32cd" points="936.53,-911.52 926.22,-913.96 935.8,-918.49 936.53,-911.52"/>
<text text-anchor="middle" x="1013.5" y="-946.89" font-family="Helvetica" font-size="10.00"> funcParsMap</text>
</g>
<!-- Node12 -->
<g id="node12" class="node">
<title>Node12</title>
<g id="a_node12"><a xlink:title=" ">
<polygon fill="white" stroke="#bfbfbf" points="784,-849.89 784,-879.89 914,-879.89 914,-849.89 784,-849.89"/>
<text text-anchor="start" x="792" y="-867.89" font-family="Helvetica" font-size="10.00">std::unordered_map</text>
<text text-anchor="middle" x="849" y="-856.89" font-family="Helvetica" font-size="10.00">&lt; int, FuncParFuncType &gt;</text>
</a>
</g>
</g>
<!-- Node12&#45;&gt;Node6 -->
<g id="edge11" class="edge">
<title>Node12&#45;&gt;Node6</title>
<path fill="none" stroke="#9a32cd" stroke-dasharray="5,2" d="M924.19,-863.81C972.21,-866.1 1034.57,-874.89 1083,-901.89 1111.76,-917.92 1133.75,-951.7 1143.3,-968.29"/>
<polygon fill="#9a32cd" stroke="#9a32cd" points="924.3,-860.31 914.17,-863.42 924.02,-867.31 924.3,-860.31"/>
<text text-anchor="middle" x="1013.5" y="-904.89" font-family="Helvetica" font-size="10.00"> funcParsFuncMap</text>
</g>
<!-- Node13 -->
<g id="node13" class="node">
<title>Node13</title>
<g id="a_node13"><a xlink:title=" ">
<polygon fill="white" stroke="#bfbfbf" points="784,-811.39 784,-830.39 914,-830.39 914,-811.39 784,-811.39"/>
<text text-anchor="middle" x="849" y="-818.39" font-family="Helvetica" font-size="10.00">std::vector&lt; SampleInfo &gt;</text>
</a>
</g>
</g>
<!-- Node13&#45;&gt;Node6 -->
<g id="edge12" class="edge">
<title>Node13&#45;&gt;Node6</title>
<path fill="none" stroke="#9a32cd" stroke-dasharray="5,2" d="M924.32,-813.52C973.51,-812.46 1037.16,-818.76 1083,-850.89 1124.65,-880.08 1141.6,-943.96 1146.7,-968.25"/>
<polygon fill="#9a32cd" stroke="#9a32cd" points="923.93,-810.04 914.05,-813.86 924.16,-817.03 923.93,-810.04"/>
<text text-anchor="middle" x="1013.5" y="-853.89" font-family="Helvetica" font-size="10.00"> SampleDetails</text>
</g>
<!-- Node14 -->
<g id="node14" class="node">
<title>Node14</title>
<g id="a_node14"><a xlink:title=" ">
<polygon fill="white" stroke="#bfbfbf" points="797.5,-761.89 797.5,-791.89 900.5,-791.89 900.5,-761.89 797.5,-761.89"/>
<text text-anchor="start" x="805.5" y="-779.89" font-family="Helvetica" font-size="10.00">std::unordered_map</text>
<text text-anchor="middle" x="849" y="-768.89" font-family="Helvetica" font-size="10.00">&lt; std::string, int &gt;</text>
</a>
</g>
</g>
<!-- Node14&#45;&gt;Node6 -->
<g id="edge13" class="edge">
<title>Node14&#45;&gt;Node6</title>
<path fill="none" stroke="#9a32cd" stroke-dasharray="5,2" d="M907.73,-759.4C958.75,-747.7 1032.67,-740.35 1083,-776.89 1147.16,-823.46 1149.68,-934.54 1148.9,-968.11"/>
<polygon fill="#9a32cd" stroke="#9a32cd" points="906.75,-756.04 897.85,-761.79 908.39,-762.84 906.75,-756.04"/>
<text text-anchor="middle" x="1013.5" y="-801.89" font-family="Helvetica" font-size="10.00"> KinematicParameters</text>
<text text-anchor="middle" x="1013.5" y="-790.89" font-family="Helvetica" font-size="10.00">KinematicVectors</text>
<text text-anchor="middle" x="1013.5" y="-779.89" font-family="Helvetica" font-size="10.00">funcParsNamesMap</text>
</g>
<!-- Node15 -->
<g id="node15" class="node">
<title>Node15</title>
<g id="a_node15"><a xlink:title=" ">
<polygon fill="white" stroke="#bfbfbf" points="774.5,-723.39 774.5,-742.39 923.5,-742.39 923.5,-723.39 774.5,-723.39"/>
<text text-anchor="middle" x="849" y="-730.39" font-family="Helvetica" font-size="10.00">std::unique_ptr&lt; SplineBase &gt;</text>
</a>
</g>
</g>
<!-- Node15&#45;&gt;Node6 -->
<g id="edge14" class="edge">
<title>Node15&#45;&gt;Node6</title>
<path fill="none" stroke="#9a32cd" stroke-dasharray="5,2" d="M933.69,-723.3C990.87,-718.63 1060.24,-717.3 1083,-734.89 1121.55,-764.68 1142.64,-926.96 1147.44,-968.3"/>
<polygon fill="#9a32cd" stroke="#9a32cd" points="933.2,-719.82 923.53,-724.17 933.8,-726.8 933.2,-719.82"/>
<text text-anchor="middle" x="1013.5" y="-737.89" font-family="Helvetica" font-size="10.00"> SplineHandler</text>
</g>
<!-- Node16 -->
<g id="node16" class="node">
<title>Node16</title>
<g id="a_node16"><a xlink:title=" ">
<polygon fill="white" stroke="#bfbfbf" points="788,-685.39 788,-704.39 910,-704.39 910,-685.39 788,-685.39"/>
<text text-anchor="middle" x="849" y="-692.39" font-family="Helvetica" font-size="10.00">std::vector&lt; EventInfo &gt;</text>
</a>
</g>
</g>
<!-- Node16&#45;&gt;Node6 -->
<g id="edge15" class="edge">
<title>Node16&#45;&gt;Node6</title>
<path fill="none" stroke="#9a32cd" stroke-dasharray="5,2" d="M892.69,-683.05C943.97,-671.64 1029.75,-661.86 1083,-705.89 1125.02,-740.63 1143.71,-923.62 1147.68,-968.12"/>
<polygon fill="#9a32cd" stroke="#9a32cd" points="891.85,-679.65 882.91,-685.34 893.45,-686.47 891.85,-679.65"/>
<text text-anchor="middle" x="1013.5" y="-708.89" font-family="Helvetica" font-size="10.00"> MCSamples</text>
</g>
<!-- Node17 -->
<g id="node17" class="node">
<title>Node17</title>
<g id="a_node17"><a xlink:href="classParameterHandlerGeneric.html" target="_top" xlink:title="Class responsible for handling of systematic error parameters with different types defined in the con...">
<polygon fill="white" stroke="black" points="784.5,-489.39 784.5,-508.39 913.5,-508.39 913.5,-489.39 784.5,-489.39"/>
<text text-anchor="middle" x="849" y="-496.39" font-family="Helvetica" font-size="10.00">ParameterHandlerGeneric</text>
</a>
</g>
</g>
<!-- Node17&#45;&gt;Node6 -->
<g id="edge16" class="edge">
<title>Node17&#45;&gt;Node6</title>
<path fill="none" stroke="#9a32cd" stroke-dasharray="5,2" d="M894.39,-511.59C947.98,-529.34 1036.66,-566.92 1083,-631.89 1123.38,-688.5 1143.72,-917.74 1147.75,-968.08"/>
<polygon fill="#9a32cd" stroke="#9a32cd" points="895.4,-508.24 884.81,-508.5 893.26,-514.9 895.4,-508.24"/>
<text text-anchor="middle" x="1013.5" y="-634.89" font-family="Helvetica" font-size="10.00"> ParHandler</text>
</g>
<!-- Node18&#45;&gt;Node17 -->
<g id="edge17" class="edge">
<title>Node18&#45;&gt;Node17</title>
<path fill="none" stroke="midnightblue" d="M588.61,-397.3C636.53,-399.71 701.14,-407.28 754,-428.89 789.03,-443.21 822.78,-473.67 838.62,-489.26"/>
<polygon fill="midnightblue" stroke="midnightblue" points="588.48,-393.8 578.34,-396.85 588.17,-400.79 588.48,-393.8"/>
</g>
<!-- Node19 -->
<g id="node19" class="node">
<title>Node19</title>
<g id="a_node19"><a xlink:title=" ">
<polygon fill="white" stroke="#bfbfbf" points="132,-497.89 132,-527.89 298,-527.89 298,-497.89 132,-497.89"/>
<text text-anchor="start" x="140" y="-515.89" font-family="Helvetica" font-size="10.00">std::unique_ptr&lt; adaptive</text>
<text text-anchor="middle" x="215" y="-504.89" font-family="Helvetica" font-size="10.00">_mcmc::AdaptiveMCMCHandler &gt;</text>
</a>
</g>
</g>
<!-- Node19&#45;&gt;Node18 -->
<g id="edge18" class="edge">
<title>Node19&#45;&gt;Node18</title>
<path fill="none" stroke="#9a32cd" stroke-dasharray="5,2" d="M274.87,-494.88C291.66,-489.82 307.65,-485.1 316,-482.89 360.09,-471.22 380.6,-488.64 416,-459.89 430.82,-447.85 419.5,-433.31 434,-420.89 441.49,-414.47 450.59,-409.77 460,-406.32"/>
<polygon fill="#9a32cd" stroke="#9a32cd" points="273.51,-491.63 264.95,-497.88 275.54,-498.33 273.51,-491.63"/>
<text text-anchor="middle" x="366" y="-485.89" font-family="Helvetica" font-size="10.00"> AdaptiveHandler</text>
</g>
<!-- Node20 -->
<g id="node20" class="node">
<title>Node20</title>
<g id="a_node20"><a xlink:title=" ">
<polygon fill="white" stroke="#bfbfbf" points="138.5,-459.39 138.5,-478.39 291.5,-478.39 291.5,-459.39 138.5,-459.39"/>
<text text-anchor="middle" x="215" y="-466.39" font-family="Helvetica" font-size="10.00">std::unique_ptr&lt; PCAHandler &gt;</text>
</a>
</g>
</g>
<!-- Node20&#45;&gt;Node18 -->
<g id="edge19" class="edge">
<title>Node20&#45;&gt;Node18</title>
<path fill="none" stroke="#9a32cd" stroke-dasharray="5,2" d="M274.55,-457.35C314.55,-449.21 368.67,-437.69 416,-425.89 419.46,-425.03 456.12,-414.58 484.51,-406.47"/>
<polygon fill="#9a32cd" stroke="#9a32cd" points="273.81,-453.93 264.7,-459.34 275.2,-460.79 273.81,-453.93"/>
<text text-anchor="middle" x="366" y="-451.89" font-family="Helvetica" font-size="10.00"> PCAObj</text>
</g>
<!-- Node21 -->
<g id="node21" class="node">
<title>Node21</title>
<g id="a_node21"><a xlink:title=" ">
<polygon fill="white" stroke="#bfbfbf" points="147.5,-409.89 147.5,-439.89 282.5,-439.89 282.5,-409.89 147.5,-409.89"/>
<text text-anchor="start" x="155.5" y="-427.89" font-family="Helvetica" font-size="10.00">std::unique_ptr&lt; Parameter</text>
<text text-anchor="middle" x="215" y="-416.89" font-family="Helvetica" font-size="10.00">Tunes &gt;</text>
</a>
</g>
</g>
<!-- Node21&#45;&gt;Node18 -->
<g id="edge20" class="edge">
<title>Node21&#45;&gt;Node18</title>
<path fill="none" stroke="#9a32cd" stroke-dasharray="5,2" d="M292.65,-417.14C300.53,-416.37 308.43,-415.6 316,-414.89 364.37,-410.31 419.29,-405.44 459.64,-401.92"/>
<polygon fill="#9a32cd" stroke="#9a32cd" points="292.3,-413.66 282.69,-418.12 292.99,-420.62 292.3,-413.66"/>
<text text-anchor="middle" x="366" y="-417.89" font-family="Helvetica" font-size="10.00"> Tunes</text>
</g>
<!-- Node22 -->
<g id="node22" class="node">
<title>Node22</title>
<g id="a_node22"><a xlink:title=" ">
<polygon fill="white" stroke="#bfbfbf" points="156.5,-360.89 156.5,-390.89 273.5,-390.89 273.5,-360.89 156.5,-360.89"/>
<text text-anchor="start" x="164.5" y="-378.89" font-family="Helvetica" font-size="10.00">std::vector&lt; std::vector</text>
<text text-anchor="middle" x="215" y="-367.89" font-family="Helvetica" font-size="10.00">&lt; std::string &gt; &gt;</text>
</a>
</g>
</g>
<!-- Node22&#45;&gt;Node18 -->
<g id="edge21" class="edge">
<title>Node22&#45;&gt;Node18</title>
<path fill="none" stroke="#9a32cd" stroke-dasharray="5,2" d="M284,-375.39C322.75,-375.66 372.18,-376.92 416,-380.89 432.25,-382.36 449.83,-384.81 465.75,-387.35"/>
<polygon fill="#9a32cd" stroke="#9a32cd" points="283.9,-371.89 273.88,-375.34 283.86,-378.89 283.9,-371.89"/>
<text text-anchor="middle" x="366" y="-383.89" font-family="Helvetica" font-size="10.00"> _fSampleNames</text>
</g>
<!-- Node23 -->
<g id="node23" class="node">
<title>Node23</title>
<g id="a_node23"><a xlink:title=" ">
<polygon fill="white" stroke="#bfbfbf" points="156.5,-311.89 156.5,-341.89 273.5,-341.89 273.5,-311.89 156.5,-311.89"/>
<text text-anchor="start" x="164.5" y="-329.89" font-family="Helvetica" font-size="10.00">std::vector&lt; std::vector</text>
<text text-anchor="middle" x="215" y="-318.89" font-family="Helvetica" font-size="10.00">&lt; double &gt; &gt;</text>
</a>
</g>
</g>
<!-- Node23&#45;&gt;Node18 -->
<g id="edge22" class="edge">
<title>Node23&#45;&gt;Node18</title>
<path fill="none" stroke="#9a32cd" stroke-dasharray="5,2" d="M283.93,-329.11C324.02,-332.65 374.81,-341.12 416,-360.89 425.65,-365.52 424.51,-371.94 434,-376.89 442.38,-381.25 451.72,-384.68 461.04,-387.36"/>
<polygon fill="#9a32cd" stroke="#9a32cd" points="283.96,-325.61 273.71,-328.3 283.4,-332.58 283.96,-325.61"/>
<text text-anchor="middle" x="366" y="-363.89" font-family="Helvetica" font-size="10.00"> InvertCovMatrix</text>
</g>
<!-- Node24 -->
<g id="node24" class="node">
<title>Node24</title>
<g id="a_node24"><a xlink:title=" ">
<polygon fill="white" stroke="#bfbfbf" points="161.5,-262.89 161.5,-292.89 268.5,-292.89 268.5,-262.89 161.5,-262.89"/>
<text text-anchor="start" x="169.5" y="-280.89" font-family="Helvetica" font-size="10.00">std::vector&lt; std::pair</text>
<text text-anchor="middle" x="215" y="-269.89" font-family="Helvetica" font-size="10.00">&lt; double, double &gt; &gt;</text>
</a>
</g>
</g>
<!-- Node24&#45;&gt;Node18 -->
<g id="edge23" class="edge">
<title>Node24&#45;&gt;Node18</title>
<path fill="none" stroke="#9a32cd" stroke-dasharray="5,2" d="M279.09,-274.99C322.65,-276.4 379.16,-285.51 416,-318.89 436,-337.01 414.28,-358.45 434,-376.89 441.23,-383.65 450.31,-388.25 459.81,-391.36"/>
<polygon fill="#9a32cd" stroke="#9a32cd" points="278.94,-271.48 268.88,-274.78 278.81,-278.48 278.94,-271.48"/>
<text text-anchor="middle" x="366" y="-321.89" font-family="Helvetica" font-size="10.00"> CircularBoundsValues</text>
</g>
<!-- Node25 -->
<g id="node25" class="node">
<title>Node25</title>
<g id="a_node25"><a xlink:title=" ">
<polygon fill="white" stroke="#bfbfbf" points="169.5,-224.39 169.5,-243.39 260.5,-243.39 260.5,-224.39 169.5,-224.39"/>
<text text-anchor="middle" x="215" y="-231.39" font-family="Helvetica" font-size="10.00">std::vector&lt; int &gt;</text>
</a>
</g>
</g>
<!-- Node25&#45;&gt;Node18 -->
<g id="edge25" class="edge">
<title>Node25&#45;&gt;Node18</title>
<path fill="none" stroke="#9a32cd" stroke-dasharray="5,2" d="M267.95,-222.82C313.12,-216.5 377.24,-216 416,-252.89 456.34,-291.28 396.42,-335.79 434,-376.89 440.88,-384.41 450.03,-389.35 459.76,-392.54"/>
<polygon fill="#9a32cd" stroke="#9a32cd" points="267.4,-219.37 258.05,-224.34 268.46,-226.29 267.4,-219.37"/>
<text text-anchor="middle" x="366" y="-266.89" font-family="Helvetica" font-size="10.00"> CircularBoundsIndex</text>
<text text-anchor="middle" x="366" y="-255.89" font-family="Helvetica" font-size="10.00">FlipParameterIndex</text>
</g>
<!-- Node26 -->
<g id="node26" class="node">
<title>Node26</title>
<g id="a_node26"><a xlink:title=" ">
<polygon fill="white" stroke="#bfbfbf" points="155.5,-174.89 155.5,-204.89 274.5,-204.89 274.5,-174.89 155.5,-174.89"/>
<text text-anchor="start" x="163.5" y="-192.89" font-family="Helvetica" font-size="10.00">std::vector&lt; std::unique</text>
<text text-anchor="middle" x="215" y="-181.89" font-family="Helvetica" font-size="10.00">_ptr&lt; TRandom3 &gt; &gt;</text>
</a>
</g>
</g>
<!-- Node26&#45;&gt;Node18 -->
<g id="edge26" class="edge">
<title>Node26&#45;&gt;Node18</title>
<path fill="none" stroke="#9a32cd" stroke-dasharray="5,2" d="M285,-186.01C335.32,-184.79 397.77,-187.19 416,-204.89 443.57,-231.66 408.64,-348.01 434,-376.89 440.83,-384.66 450.07,-389.7 459.94,-392.9"/>
<polygon fill="#9a32cd" stroke="#9a32cd" points="284.68,-182.51 274.79,-186.31 284.89,-189.51 284.68,-182.51"/>
<text text-anchor="middle" x="366" y="-207.89" font-family="Helvetica" font-size="10.00"> random_number</text>
</g>
<!-- Node27 -->
<g id="node27" class="node">
<title>Node27</title>
<g id="a_node27"><a xlink:title=" ">
<polygon fill="white" stroke="#bfbfbf" points="166,-134.39 166,-153.39 264,-153.39 264,-134.39 166,-134.39"/>
<text text-anchor="middle" x="215" y="-141.39" font-family="Helvetica" font-size="10.00">std::vector&lt; bool &gt;</text>
</a>
</g>
</g>
<!-- Node27&#45;&gt;Node18 -->
<g id="edge27" class="edge">
<title>Node27&#45;&gt;Node18</title>
<path fill="none" stroke="#9a32cd" stroke-dasharray="5,2" d="M274.15,-137.1C325.86,-132.49 396.26,-130.19 416,-148.89 452.89,-183.85 400.95,-338.28 434,-376.89 440.73,-384.75 449.93,-389.82 459.78,-393.04"/>
<polygon fill="#9a32cd" stroke="#9a32cd" points="273.71,-133.63 264.08,-138.05 274.36,-140.6 273.71,-133.63"/>
<text text-anchor="middle" x="366" y="-173.89" font-family="Helvetica" font-size="10.00"> _fFlatPrior</text>
<text text-anchor="start" x="326" y="-162.89" font-family="Helvetica" font-size="10.00">param_skip_adapt</text>
<text text-anchor="middle" x="366" y="-151.89" font-family="Helvetica" font-size="10.00">_flags</text>
</g>
<!-- Node28 -->
<g id="node28" class="node">
<title>Node28</title>
<g id="a_node28"><a xlink:title=" ">
<polygon fill="white" stroke="#bfbfbf" points="153,-547.39 153,-566.39 277,-566.39 277,-547.39 153,-547.39"/>
<text text-anchor="middle" x="215" y="-554.39" font-family="Helvetica" font-size="10.00">std::vector&lt; std::string &gt;</text>
</a>
</g>
</g>
<!-- Node28&#45;&gt;Node6 -->
<g id="edge43" class="edge">
<title>Node28&#45;&gt;Node6</title>
<path fill="none" stroke="#9a32cd" stroke-dasharray="5,2" d="M229.81,-574.45C247.31,-595.18 279.62,-628.64 316,-642.89 395.4,-673.99 1017.69,-616.05 1083,-670.89 1130.26,-710.58 1145.17,-920.36 1147.97,-968.18"/>
<polygon fill="#9a32cd" stroke="#9a32cd" points="232.29,-571.95 223.25,-566.44 226.88,-576.39 232.29,-571.95"/>
<text text-anchor="middle" x="688" y="-652.89" font-family="Helvetica" font-size="10.00"> funcParsNamesVec</text>
</g>
<!-- Node28&#45;&gt;Node17 -->
<g id="edge36" class="edge">
<title>Node28&#45;&gt;Node17</title>
<path fill="none" stroke="#9a32cd" stroke-dasharray="5,2" d="M287.24,-559.16C336.86,-559.17 397.35,-555.52 416,-538.89 445.47,-512.61 403.38,-476.82 434,-451.89 492.59,-404.18 528.79,-444.71 604,-451.89 677.86,-458.94 762.62,-477.73 810.29,-489.3"/>
<polygon fill="#9a32cd" stroke="#9a32cd" points="287.18,-555.66 277.16,-559.11 287.14,-562.66 287.18,-555.66"/>
<text text-anchor="middle" x="519" y="-465.89" font-family="Helvetica" font-size="10.00"> _ParameterGroup</text>
<text text-anchor="middle" x="519" y="-454.89" font-family="Helvetica" font-size="10.00">_fSplineNames</text>
</g>
<!-- Node28&#45;&gt;Node18 -->
<g id="edge28" class="edge">
<title>Node28&#45;&gt;Node18</title>
<path fill="none" stroke="#9a32cd" stroke-dasharray="5,2" d="M283.83,-543.85C288.77,-541.85 293.55,-539.54 298,-536.89 308.27,-530.75 305.69,-522.95 316,-516.89 355.3,-493.75 383.5,-525.88 416,-493.89 439.81,-470.45 410.81,-444.94 434,-420.89 441.05,-413.57 450.17,-408.44 459.78,-404.85"/>
<polygon fill="#9a32cd" stroke="#9a32cd" points="282.41,-540.64 274.19,-547.33 284.78,-547.23 282.41,-540.64"/>
<text text-anchor="middle" x="366" y="-530.89" font-family="Helvetica" font-size="10.00"> _fFancyNames</text>
<text text-anchor="middle" x="366" y="-519.89" font-family="Helvetica" font-size="10.00">_fNames</text>
</g>
<!-- Node29 -->
<g id="node29" class="node">
<title>Node29</title>
<g id="a_node29"><a xlink:title=" ">
<polygon fill="white" stroke="#bfbfbf" points="160.5,-12.39 160.5,-31.39 269.5,-31.39 269.5,-12.39 160.5,-12.39"/>
<text text-anchor="middle" x="215" y="-19.39" font-family="Helvetica" font-size="10.00">std::vector&lt; double &gt;</text>
</a>
</g>
</g>
<!-- Node29&#45;&gt;Node18 -->
<g id="edge29" class="edge">
<title>Node29&#45;&gt;Node18</title>
<path fill="none" stroke="#9a32cd" stroke-dasharray="5,2" d="M255.74,-9.82C301.14,1.25 374.5,10.32 416,-30.89 443.32,-58.01 409.36,-347.31 434,-376.89 440.62,-384.84 449.77,-389.95 459.61,-393.19"/>
<polygon fill="#9a32cd" stroke="#9a32cd" points="254.76,-6.46 245.95,-12.34 256.5,-13.23 254.76,-6.46"/>
<text text-anchor="middle" x="366" y="-121.89" font-family="Helvetica" font-size="10.00"> FlipParameterPoint</text>
<text text-anchor="middle" x="366" y="-110.89" font-family="Helvetica" font-size="10.00">_fCurrVal</text>
<text text-anchor="middle" x="366" y="-99.89" font-family="Helvetica" font-size="10.00">_fError</text>
<text text-anchor="middle" x="366" y="-88.89" font-family="Helvetica" font-size="10.00">_fIndivStepScale</text>
<text text-anchor="middle" x="366" y="-77.89" font-family="Helvetica" font-size="10.00">_fIndivStepScaleInitial</text>
<text text-anchor="middle" x="366" y="-66.89" font-family="Helvetica" font-size="10.00">_fLowBound</text>
<text text-anchor="middle" x="366" y="-55.89" font-family="Helvetica" font-size="10.00">_fPreFitValue</text>
<text text-anchor="middle" x="366" y="-44.89" font-family="Helvetica" font-size="10.00">_fPropVal</text>
<text text-anchor="middle" x="366" y="-33.89" font-family="Helvetica" font-size="10.00">_fUpBound</text>
</g>
<!-- Node30 -->
<g id="node30" class="node">
<title>Node30</title>
<g id="a_node30"><a xlink:title=" ">
<polygon fill="white" stroke="#bfbfbf" points="464,-337.89 464,-367.89 574,-367.89 574,-337.89 464,-337.89"/>
<text text-anchor="start" x="472" y="-355.89" font-family="Helvetica" font-size="10.00">std::vector&lt; std::map</text>
<text text-anchor="middle" x="519" y="-344.89" font-family="Helvetica" font-size="10.00">&lt; int, int &gt; &gt;</text>
</a>
</g>
</g>
<!-- Node30&#45;&gt;Node17 -->
<g id="edge30" class="edge">
<title>Node30&#45;&gt;Node17</title>
<path fill="none" stroke="#9a32cd" stroke-dasharray="5,2" d="M584.07,-356.42C643.09,-360.61 725.69,-369.1 754,-384.89 799.26,-410.12 831.62,-466.51 843.26,-489.18"/>
<polygon fill="#9a32cd" stroke="#9a32cd" points="584.29,-352.93 574.07,-355.74 583.81,-359.91 584.29,-352.93"/>
<text text-anchor="middle" x="688" y="-387.89" font-family="Helvetica" font-size="10.00"> _fSystToGlobalSystIndexMap</text>
</g>
<!-- Node31 -->
<g id="node31" class="node">
<title>Node31</title>
<g id="a_node31"><a xlink:title=" ">
<polygon fill="white" stroke="#bfbfbf" points="458.5,-609.39 458.5,-628.39 579.5,-628.39 579.5,-609.39 458.5,-609.39"/>
<text text-anchor="middle" x="519" y="-616.39" font-family="Helvetica" font-size="10.00">std::vector&lt; SystType &gt;</text>
</a>
</g>
</g>
<!-- Node31&#45;&gt;Node17 -->
<g id="edge31" class="edge">
<title>Node31&#45;&gt;Node17</title>
<path fill="none" stroke="#9a32cd" stroke-dasharray="5,2" d="M589.63,-620.75C637.92,-619.45 702.54,-612.42 754,-587.89 793.56,-569.03 827.39,-527.26 841.27,-508.43"/>
<polygon fill="#9a32cd" stroke="#9a32cd" points="589.51,-617.25 579.58,-620.94 589.65,-624.25 589.51,-617.25"/>
<text text-anchor="middle" x="688" y="-621.89" font-family="Helvetica" font-size="10.00"> _fParamType</text>
</g>
<!-- Node32 -->
<g id="node32" class="node">
<title>Node32</title>
<g id="a_node32"><a xlink:title=" ">
<polygon fill="white" stroke="#bfbfbf" points="444.5,-571.39 444.5,-590.39 593.5,-590.39 593.5,-571.39 444.5,-571.39"/>
<text text-anchor="middle" x="519" y="-578.39" font-family="Helvetica" font-size="10.00">std::vector&lt; NormParameter &gt;</text>
</a>
</g>
</g>
<!-- Node32&#45;&gt;Node17 -->
<g id="edge32" class="edge">
<title>Node32&#45;&gt;Node17</title>
<path fill="none" stroke="#9a32cd" stroke-dasharray="5,2" d="M603.62,-574.82C648.91,-569.94 705.39,-561.25 754,-545.89 783.23,-536.65 814.58,-519.3 832.68,-508.46"/>
<polygon fill="#9a32cd" stroke="#9a32cd" points="603.13,-571.35 593.54,-575.87 603.85,-578.32 603.13,-571.35"/>
<text text-anchor="middle" x="688" y="-575.89" font-family="Helvetica" font-size="10.00"> NormParams</text>
</g>
<!-- Node33 -->
<g id="node33" class="node">
<title>Node33</title>
<g id="a_node33"><a xlink:title=" ">
<polygon fill="white" stroke="#bfbfbf" points="434,-299.39 434,-318.39 604,-318.39 604,-299.39 434,-299.39"/>
<text text-anchor="middle" x="519" y="-306.39" font-family="Helvetica" font-size="10.00">std::vector&lt; FunctionalParameter &gt;</text>
</a>
</g>
</g>
<!-- Node33&#45;&gt;Node6 -->
<g id="edge41" class="edge">
<title>Node33&#45;&gt;Node6</title>
<path fill="none" stroke="#9a32cd" stroke-dasharray="5,2" d="M614.14,-304.02C657.62,-304.41 709.39,-308.67 754,-322.89 918.15,-375.2 988.72,-383.69 1083,-527.89 1132.9,-604.21 1146.08,-909.2 1148.18,-968.04"/>
<polygon fill="#9a32cd" stroke="#9a32cd" points="614.14,-300.52 604.13,-303.99 614.12,-307.52 614.14,-300.52"/>
<text text-anchor="middle" x="849" y="-383.89" font-family="Helvetica" font-size="10.00"> funcParsVec</text>
</g>
<!-- Node33&#45;&gt;Node17 -->
<g id="edge33" class="edge">
<title>Node33&#45;&gt;Node17</title>
<path fill="none" stroke="#9a32cd" stroke-dasharray="5,2" d="M611.75,-319.68C672.04,-327.41 741.93,-337.83 754,-345.89 808.46,-382.22 836.83,-461.9 845.26,-489.36"/>
<polygon fill="#9a32cd" stroke="#9a32cd" points="612.15,-316.21 601.79,-318.42 611.27,-323.15 612.15,-316.21"/>
<text text-anchor="middle" x="688" y="-348.89" font-family="Helvetica" font-size="10.00"> FuncParams</text>
</g>
<!-- Node34 -->
<g id="node34" class="node">
<title>Node34</title>
<g id="a_node34"><a xlink:title=" ">
<polygon fill="white" stroke="#bfbfbf" points="443,-533.39 443,-552.39 595,-552.39 595,-533.39 443,-533.39"/>
<text text-anchor="middle" x="519" y="-540.39" font-family="Helvetica" font-size="10.00">std::vector&lt; SplineParameter &gt;</text>
</a>
</g>
</g>
<!-- Node34&#45;&gt;Node17 -->
<g id="edge34" class="edge">
<title>Node34&#45;&gt;Node17</title>
<path fill="none" stroke="#9a32cd" stroke-dasharray="5,2" d="M605.34,-533.04C649.73,-527.73 704.84,-520.86 754,-513.89 765.78,-512.22 778.37,-510.3 790.38,-508.41"/>
<polygon fill="#9a32cd" stroke="#9a32cd" points="604.69,-529.59 595.17,-534.25 605.52,-536.54 604.69,-529.59"/>
<text text-anchor="middle" x="688" y="-533.89" font-family="Helvetica" font-size="10.00"> SplineParams</text>
</g>
<!-- Node35 -->
<g id="node35" class="node">
<title>Node35</title>
<g id="a_node35"><a xlink:title=" ">
<polygon fill="white" stroke="#bfbfbf" points="460.5,-483.89 460.5,-513.89 577.5,-513.89 577.5,-483.89 460.5,-483.89"/>
<text text-anchor="start" x="468.5" y="-501.89" font-family="Helvetica" font-size="10.00">std::vector&lt; Oscillation</text>
<text text-anchor="middle" x="519" y="-490.89" font-family="Helvetica" font-size="10.00">Parameter &gt;</text>
</a>
</g>
</g>
<!-- Node35&#45;&gt;Node17 -->
<g id="edge35" class="edge">
<title>Node35&#45;&gt;Node17</title>
<path fill="none" stroke="#9a32cd" stroke-dasharray="5,2" d="M587.63,-498.89C645.38,-498.89 727.83,-498.89 784.39,-498.89"/>
<polygon fill="#9a32cd" stroke="#9a32cd" points="587.51,-495.39 577.51,-498.89 587.51,-502.39 587.51,-495.39"/>
<text text-anchor="middle" x="688" y="-501.89" font-family="Helvetica" font-size="10.00"> OscParams</text>
</g>
<!-- Node36 -->
<g id="node36" class="node">
<title>Node36</title>
<g id="a_node36"><a xlink:title=" ">
<polygon fill="white" stroke="#bfbfbf" points="788,-1347.89 788,-1377.89 910,-1377.89 910,-1347.89 788,-1347.89"/>
<text text-anchor="start" x="796" y="-1365.89" font-family="Helvetica" font-size="10.00">std::unique_ptr&lt; Binning</text>
<text text-anchor="middle" x="849" y="-1354.89" font-family="Helvetica" font-size="10.00">Handler &gt;</text>
</a>
</g>
</g>
<!-- Node36&#45;&gt;Node6 -->
<g id="edge37" class="edge">
<title>Node36&#45;&gt;Node6</title>
<path fill="none" stroke="#9a32cd" stroke-dasharray="5,2" d="M920.2,-1375.98C971.77,-1381.29 1040.06,-1378.65 1083,-1338.89 1136.51,-1289.34 1146.7,-1039.57 1148.25,-987.43"/>
<polygon fill="#9a32cd" stroke="#9a32cd" points="920.45,-1372.49 910.12,-1374.82 919.65,-1379.44 920.45,-1372.49"/>
<text text-anchor="middle" x="1013.5" y="-1380.89" font-family="Helvetica" font-size="10.00"> Binning</text>
</g>
<!-- Node37 -->
<g id="node37" class="node">
<title>Node37</title>
<g id="a_node37"><a xlink:title=" ">
<polygon fill="white" stroke="#bfbfbf" points="790,-1298.89 790,-1328.89 908,-1328.89 908,-1298.89 790,-1298.89"/>
<text text-anchor="start" x="798" y="-1316.89" font-family="Helvetica" font-size="10.00">std::unordered_map</text>
<text text-anchor="middle" x="849" y="-1305.89" font-family="Helvetica" font-size="10.00">&lt; std::string, NuPDG &gt;</text>
</a>
</g>
</g>
<!-- Node37&#45;&gt;Node6 -->
<g id="edge38" class="edge">
<title>Node37&#45;&gt;Node6</title>
<path fill="none" stroke="#9a32cd" stroke-dasharray="5,2" d="M918.44,-1314.22C978.42,-1313.02 1059.58,-1307.29 1083,-1285.89 1128.7,-1244.12 1144.81,-1035.16 1147.91,-987.55"/>
<polygon fill="#9a32cd" stroke="#9a32cd" points="918.21,-1310.72 908.26,-1314.38 918.32,-1317.72 918.21,-1310.72"/>
<text text-anchor="middle" x="1013.5" y="-1326.89" font-family="Helvetica" font-size="10.00"> FileToFinalPDGMap</text>
<text text-anchor="middle" x="1013.5" y="-1315.89" font-family="Helvetica" font-size="10.00">FileToInitPDGMap</text>
</g>
<!-- Node38 -->
<g id="node38" class="node">
<title>Node38</title>
<g id="a_node38"><a xlink:title=" ">
<polygon fill="white" stroke="#bfbfbf" points="780.5,-1260.39 780.5,-1279.39 917.5,-1279.39 917.5,-1260.39 780.5,-1260.39"/>
<text text-anchor="middle" x="849" y="-1267.39" font-family="Helvetica" font-size="10.00">std::unique_ptr&lt; Manager &gt;</text>
</a>
</g>
</g>
<!-- Node38&#45;&gt;Node6 -->
<g id="edge40" class="edge">
<title>Node38&#45;&gt;Node6</title>
<path fill="none" stroke="#9a32cd" stroke-dasharray="5,2" d="M927.64,-1271.59C986.26,-1271.2 1060.34,-1266.57 1083,-1246.89 1123.73,-1211.51 1143.4,-1031.31 1147.62,-987.5"/>
<polygon fill="#9a32cd" stroke="#9a32cd" points="927.63,-1268.09 917.64,-1271.62 927.65,-1275.09 927.63,-1268.09"/>
<text text-anchor="middle" x="1013.5" y="-1273.89" font-family="Helvetica" font-size="10.00"> SampleManager</text>
</g>
<!-- Node39 -->
<g id="node39" class="node">
<title>Node39</title>
<g id="a_node39"><a xlink:title=" ">
<polygon fill="white" stroke="#bfbfbf" points="790.5,-1210.89 790.5,-1240.89 907.5,-1240.89 907.5,-1210.89 790.5,-1210.89"/>
<text text-anchor="start" x="798.5" y="-1228.89" font-family="Helvetica" font-size="10.00">std::vector&lt; std::vector</text>
<text text-anchor="middle" x="849" y="-1217.89" font-family="Helvetica" font-size="10.00">&lt; KinematicCut &gt; &gt;</text>
</a>
</g>
</g>
<!-- Node39&#45;&gt;Node6 -->
<g id="edge42" class="edge">
<title>Node39&#45;&gt;Node6</title>
<path fill="none" stroke="#9a32cd" stroke-dasharray="5,2" d="M917.66,-1222.73C981.89,-1219.13 1070.45,-1212.34 1083,-1201.89 1150.87,-1145.36 1150.65,-1022.67 1149.09,-987.49"/>
<polygon fill="#9a32cd" stroke="#9a32cd" points="917.37,-1219.24 907.58,-1223.28 917.76,-1226.23 917.37,-1219.24"/>
<text text-anchor="middle" x="1013.5" y="-1234.89" font-family="Helvetica" font-size="10.00"> Selection</text>
<text text-anchor="middle" x="1013.5" y="-1223.89" font-family="Helvetica" font-size="10.00">StoredSelection</text>
</g>
<!-- Node40 -->
<g id="node40" class="node">
<title>Node40</title>
<g id="a_node40"><a xlink:title=" ">
<polygon fill="white" stroke="#bfbfbf" points="780.5,-1161.89 780.5,-1191.89 917.5,-1191.89 917.5,-1161.89 780.5,-1161.89"/>
<text text-anchor="start" x="788.5" y="-1179.89" font-family="Helvetica" font-size="10.00">std::shared_ptr&lt; Oscillation</text>
<text text-anchor="middle" x="849" y="-1168.89" font-family="Helvetica" font-size="10.00">Handler &gt;</text>
</a>
</g>
</g>
<!-- Node40&#45;&gt;Node6 -->
<g id="edge44" class="edge">
<title>Node40&#45;&gt;Node6</title>
<path fill="none" stroke="#9a32cd" stroke-dasharray="5,2" d="M927.67,-1187.11C977.01,-1189.32 1039.55,-1183.69 1083,-1149.89 1136.47,-1108.29 1146.3,-1017.63 1148.1,-987.7"/>
<polygon fill="#9a32cd" stroke="#9a32cd" points="927.85,-1183.61 917.67,-1186.55 927.45,-1190.6 927.85,-1183.61"/>
<text text-anchor="middle" x="1013.5" y="-1189.89" font-family="Helvetica" font-size="10.00"> Oscillator</text>
</g>
<!-- Node41 -->
<g id="node41" class="node">
<title>Node41</title>
<g id="a_node41"><a xlink:title=" ">
<polygon fill="white" stroke="#bfbfbf" points="797.5,-1112.89 797.5,-1142.89 900.5,-1142.89 900.5,-1112.89 797.5,-1112.89"/>
<text text-anchor="start" x="805.5" y="-1130.89" font-family="Helvetica" font-size="10.00">std::unordered_map</text>
<text text-anchor="middle" x="849" y="-1119.89" font-family="Helvetica" font-size="10.00">&lt; int, std::string &gt;</text>
</a>
</g>
</g>
<!-- Node41&#45;&gt;Node6 -->
<g id="edge45" class="edge">
<title>Node41&#45;&gt;Node6</title>
<path fill="none" stroke="#9a32cd" stroke-dasharray="5,2" d="M910.79,-1126.24C970.29,-1123.54 1055.83,-1116.46 1083,-1097.89 1122.78,-1070.7 1140.66,-1011.17 1146.35,-987.69"/>
<polygon fill="#9a32cd" stroke="#9a32cd" points="910.59,-1122.74 900.74,-1126.66 910.88,-1129.73 910.59,-1122.74"/>
<text text-anchor="middle" x="1013.5" y="-1137.89" font-family="Helvetica" font-size="10.00"> ReversedKinematicParameters</text>
<text text-anchor="middle" x="1013.5" y="-1126.89" font-family="Helvetica" font-size="10.00">ReversedKinematicVectors</text>
</g>
</g>
</svg>
        <g id="navigator" transform="translate(0 0)" fill="#404254">
                <rect fill="#f2f5e9" fill-opacity="0.5" stroke="#606060" stroke-width=".5" x="0" y="0" width="60" height="60"/>
                <use id="zoomplus" xlink:href="#zoomPlus" x="17" y="9" onmousedown="handleZoom(evt,'in')"/>
                <use id="zoomminus" xlink:href="#zoomMin" x="42" y="9" onmousedown="handleZoom(evt,'out')"/>
                <use id="reset" xlink:href="#resetDef" x="30" y="36" onmousedown="handleReset()"/>
                <g id="arrowUp" xlink:href="#dirArrow" transform="translate(30 24)" onmousedown="handlePan(0,-1)">
                  <use xlink:href="#rim" fill="#404040">
                        <set attributeName="fill" to="#808080" begin="arrowUp.mouseover" end="arrowUp.mouseout"/>
                  </use>
                  <path fill="none" stroke="white" stroke-width="1.5" d="M0,-3.0v7 M-2.5,-0.5L0,-3.0L2.5,-0.5"/>
                </g>
                <g id="arrowRight" xlink:href="#dirArrow" transform="rotate(90) translate(36 -43)" onmousedown="handlePan(1,0)">
                  <use xlink:href="#rim" fill="#404040">
                        <set attributeName="fill" to="#808080" begin="arrowRight.mouseover" end="arrowRight.mouseout"/>
                  </use>
                  <path fill="none" stroke="white" stroke-width="1.5" d="M0,-3.0v7 M-2.5,-0.5L0,-3.0L2.5,-0.5"/>
                </g>
                <g id="arrowDown" xlink:href="#dirArrow" transform="rotate(180) translate(-30 -48)" onmousedown="handlePan(0,1)">
                  <use xlink:href="#rim" fill="#404040">
                        <set attributeName="fill" to="#808080" begin="arrowDown.mouseover" end="arrowDown.mouseout"/>
                  </use>
                  <path fill="none" stroke="white" stroke-width="1.5" d="M0,-3.0v7 M-2.5,-0.5L0,-3.0L2.5,-0.5"/>
                </g>
                <g id="arrowLeft" xlink:href="#dirArrow" transform="rotate(270) translate(-36 17)" onmousedown="handlePan(-1,0)">
                  <use xlink:href="#rim" fill="#404040">
                        <set attributeName="fill" to="#808080" begin="arrowLeft.mouseover" end="arrowLeft.mouseout"/>
                  </use>
                  <path fill="none" stroke="white" stroke-width="1.5" d="M0,-3.0v7 M-2.5,-0.5L0,-3.0L2.5,-0.5"/>
                </g>
        </g>
        <svg viewBox="0 0 15 15" width="100%" height="30px" preserveAspectRatio="xMaxYMin meet">
         <g id="arrow_out" transform="scale(0.3 0.3)">
          <a xlink:href="structPredictiveSample__coll__graph_org.svg" target="_base">
           <rect id="button" ry="5" rx="5" y="6" x="6" height="38" width="38"
                fill="#f2f5e9" fill-opacity="0.5" stroke="#606060" stroke-width="1.0"/>
           <path id="arrow"
             d="M 11.500037,31.436501 C 11.940474,20.09759 22.043105,11.32322 32.158766,21.979434 L 37.068811,17.246167 C 37.068811,17.246167 37.088388,32 37.088388,32 L 22.160133,31.978069 C 22.160133,31.978069 26.997745,27.140456 26.997745,27.140456 C 18.528582,18.264221 13.291696,25.230495 11.500037,31.436501 z"
             style="fill:#404040;"/>
          </a>
         </g>
        </svg>
</svg>
