<?xml version="1.0" encoding="UTF-8" standalone="no"?>
<!DOCTYPE svg PUBLIC "-//W3C//DTD SVG 1.1//EN"
 "http://www.w3.org/Graphics/SVG/1.1/DTD/svg11.dtd">
<!-- Generated by graphviz version 2.44.0 (0)
 -->
<!-- Title: MaCh3ModeInfo Pages: 1 -->
<svg width="220pt" height="185pt"
 viewBox="0.00 0.00 219.50 185.00" xmlns="http://www.w3.org/2000/svg" xmlns:xlink="http://www.w3.org/1999/xlink">
<g id="graph0" class="graph" transform="scale(1 1) rotate(0) translate(4 181)">
<title>MaCh3ModeInfo</title>
<polygon fill="white" stroke="transparent" points="-4,4 -4,-181 215.5,-181 215.5,4 -4,4"/>
<!-- Node1 -->
<g id="node1" class="node">
<title>Node1</title>
<g id="a_node1"><a xlink:title="KS: Class containing information for a single MaCh3Mode.">
<polygon fill="#bfbfbf" stroke="black" points="50,-0.5 50,-19.5 139,-19.5 139,-0.5 50,-0.5"/>
<text text-anchor="middle" x="94.5" y="-7.5" font-family="Helvetica" font-size="10.00">MaCh3ModeInfo</text>
</a>
</g>
</g>
<!-- Node2 -->
<g id="node2" class="node">
<title>Node2</title>
<g id="a_node2"><a xlink:title=" ">
<polygon fill="white" stroke="#bfbfbf" points="17.5,-89.5 17.5,-108.5 77.5,-108.5 77.5,-89.5 17.5,-89.5"/>
<text text-anchor="middle" x="47.5" y="-96.5" font-family="Helvetica" font-size="10.00">std::string</text>
</a>
</g>
</g>
<!-- Node2&#45;&gt;Node1 -->
<g id="edge1" class="edge">
<title>Node2&#45;&gt;Node1</title>
<path fill="none" stroke="#9a32cd" stroke-dasharray="5,2" d="M49.19,-79.05C51.01,-66.62 54.76,-50.42 62.5,-38 67.04,-30.72 74.19,-24.42 80.58,-19.73"/>
<polygon fill="#9a32cd" stroke="#9a32cd" points="45.69,-78.86 48.01,-89.2 52.65,-79.67 45.69,-78.86"/>
<text text-anchor="middle" x="91" y="-63" font-family="Helvetica" font-size="10.00"> FancyName</text>
<text text-anchor="middle" x="91" y="-52" font-family="Helvetica" font-size="10.00">Name</text>
<text text-anchor="middle" x="91" y="-41" font-family="Helvetica" font-size="10.00">SplineSuffix</text>
</g>
<!-- Node3 -->
<g id="node3" class="node">
<title>Node3</title>
<g id="a_node3"><a xlink:title=" ">
<polygon fill="white" stroke="#bfbfbf" points="0,-146.5 0,-176.5 95,-176.5 95,-146.5 0,-146.5"/>
<text text-anchor="start" x="8" y="-164.5" font-family="Helvetica" font-size="10.00">std::basic_string&lt;</text>
<text text-anchor="middle" x="47.5" y="-153.5" font-family="Helvetica" font-size="10.00"> char &gt;</text>
</a>
</g>
</g>
<!-- Node3&#45;&gt;Node2 -->
<g id="edge2" class="edge">
<title>Node3&#45;&gt;Node2</title>
<path fill="none" stroke="midnightblue" d="M47.5,-136.35C47.5,-126.51 47.5,-115.78 47.5,-108.54"/>
<polygon fill="midnightblue" stroke="midnightblue" points="44,-136.47 47.5,-146.47 51,-136.47 44,-136.47"/>
</g>
<!-- Node4 -->
<g id="node4" class="node">
<title>Node4</title>
<g id="a_node4"><a xlink:title=" ">
<polygon fill="white" stroke="#bfbfbf" points="96,-89.5 96,-108.5 187,-108.5 187,-89.5 96,-89.5"/>
<text text-anchor="middle" x="141.5" y="-96.5" font-family="Helvetica" font-size="10.00">std::vector&lt; int &gt;</text>
</a>
</g>
</g>
<!-- Node4&#45;&gt;Node1 -->
<g id="edge3" class="edge">
<title>Node4&#45;&gt;Node1</title>
<path fill="none" stroke="#9a32cd" stroke-dasharray="5,2" d="M136.74,-79.37C133.12,-67.07 127.39,-50.9 119.5,-38 115.36,-31.24 109.37,-24.7 104.29,-19.74"/>
<polygon fill="#9a32cd" stroke="#9a32cd" points="133.47,-80.66 139.49,-89.38 140.22,-78.81 133.47,-80.66"/>
<text text-anchor="middle" x="172.5" y="-52" font-family="Helvetica" font-size="10.00"> GeneratorMaping</text>
</g>
</g>
</svg>
