<?xml version="1.0" encoding="UTF-8" standalone="no"?>
<!DOCTYPE svg PUBLIC "-//W3C//DTD SVG 1.1//EN"
 "http://www.w3.org/Graphics/SVG/1.1/DTD/svg11.dtd">
<!-- Generated by graphviz version 2.43.0 (0)
 -->
<!-- Title: TypeParameterBase Pages: 1 -->
<svg width="353pt" height="82pt"
 viewBox="0.00 0.00 353.00 82.00" xmlns="http://www.w3.org/2000/svg" xmlns:xlink="http://www.w3.org/1999/xlink">
<g id="graph0" class="graph" transform="scale(1 1) rotate(0) translate(4 78)">
<title>TypeParameterBase</title>
<!-- Node1 -->
<g id="node1" class="node">
<title>Node1</title>
<g id="a_node1"><a xlink:title="Base class storing info for parameters types, helping unify codebase.">
<polygon fill="#999999" stroke="#666666" points="239,-74 126,-74 126,-55 239,-55 239,-74"/>
<text text-anchor="middle" x="182.5" y="-62" font-family="Helvetica,sans-Serif" font-size="10.00">TypeParameterBase</text>
</a>
</g>
</g>
<!-- Node2 -->
<g id="node2" class="node">
<title>Node2</title>
<g id="a_node2"><a xlink:href="structFunctionalParameter.html" target="_top" xlink:title="HH &#45; Functional parameters Carrier for whether you want to apply a systematic to an event or not.">
<polygon fill="white" stroke="#666666" points="117,-19 0,-19 0,0 117,0 117,-19"/>
<text text-anchor="middle" x="58.5" y="-7" font-family="Helvetica,sans-Serif" font-size="10.00">FunctionalParameter</text>
</a>
</g>
</g>
<!-- Node1&#45;&gt;Node2 -->
<g id="edge1" class="edge">
<title>Node1&#45;&gt;Node2</title>
<path fill="none" stroke="#63b8ff" d="M153.32,-51.03C130.39,-41.23 99.05,-27.83 78.79,-19.17"/>
<polygon fill="#63b8ff" stroke="#63b8ff" points="152.01,-54.27 162.58,-54.98 154.76,-47.84 152.01,-54.27"/>
</g>
<!-- Node3 -->
<g id="node3" class="node">
<title>Node3</title>
<g id="a_node3"><a xlink:href="structNormParameter.html" target="_top" xlink:title="ETA &#45; Normalisations for cross&#45;section parameters Carrier for whether you want to apply a systematic ...">
<polygon fill="white" stroke="#666666" points="229.5,-19 135.5,-19 135.5,0 229.5,0 229.5,-19"/>
<text text-anchor="middle" x="182.5" y="-7" font-family="Helvetica,sans-Serif" font-size="10.00">NormParameter</text>
</a>
</g>
</g>
<!-- Node1&#45;&gt;Node3 -->
<g id="edge2" class="edge">
<title>Node1&#45;&gt;Node3</title>
<path fill="none" stroke="#63b8ff" d="M182.5,-44.66C182.5,-35.93 182.5,-25.99 182.5,-19.09"/>
<polygon fill="#63b8ff" stroke="#63b8ff" points="179,-44.75 182.5,-54.75 186,-44.75 179,-44.75"/>
</g>
<!-- Node4 -->
<g id="node4" class="node">
<title>Node4</title>
<g id="a_node4"><a xlink:href="structSplineParameter.html" target="_top" xlink:title="KS: Struct holding info about Spline Systematics.">
<polygon fill="white" stroke="#666666" points="345,-19 248,-19 248,0 345,0 345,-19"/>
<text text-anchor="middle" x="296.5" y="-7" font-family="Helvetica,sans-Serif" font-size="10.00">SplineParameter</text>
</a>
</g>
</g>
<!-- Node1&#45;&gt;Node4 -->
<g id="edge3" class="edge">
<title>Node1&#45;&gt;Node4</title>
<path fill="none" stroke="#63b8ff" d="M209.89,-50.77C230.92,-40.99 259.39,-27.75 277.85,-19.17"/>
<polygon fill="#63b8ff" stroke="#63b8ff" points="208.41,-47.6 200.82,-54.98 211.36,-53.94 208.41,-47.6"/>
</g>
</g>
</svg>
