<?xml version="1.0" encoding="UTF-8" standalone="no"?>
<!DOCTYPE svg PUBLIC "-//W3C//DTD SVG 1.1//EN"
 "http://www.w3.org/Graphics/SVG/1.1/DTD/svg11.dtd">
<!-- Generated by graphviz version 2.44.0 (0)
 -->
<!-- Title: OscillationParameter Pages: 1 -->
<svg width="115pt" height="220pt"
 viewBox="0.00 0.00 115.00 220.00" xmlns="http://www.w3.org/2000/svg" xmlns:xlink="http://www.w3.org/1999/xlink">
<g id="graph0" class="graph" transform="scale(1 1) rotate(0) translate(4 216)">
<title>OscillationParameter</title>
<polygon fill="white" stroke="transparent" points="-4,4 -4,-216 111,-216 111,4 -4,4"/>
<!-- Node1 -->
<g id="node1" class="node">
<title>Node1</title>
<g id="a_node1"><a xlink:title="KS: Struct holding info about oscillation Systematics.">
<polygon fill="#bfbfbf" stroke="black" points="0,-0.5 0,-19.5 107,-19.5 107,-0.5 0,-0.5"/>
<text text-anchor="middle" x="53.5" y="-7.5" font-family="Helvetica" font-size="10.00">OscillationParameter</text>
</a>
</g>
</g>
<!-- Node2 -->
<g id="node2" class="node">
<title>Node2</title>
<g id="a_node2"><a xlink:href="structTypeParameterBase.html" target="_top" xlink:title="Base class storing info for parameters types, helping unify codebase.">
<polygon fill="white" stroke="black" points="1,-57.5 1,-76.5 106,-76.5 106,-57.5 1,-57.5"/>
<text text-anchor="middle" x="53.5" y="-64.5" font-family="Helvetica" font-size="10.00">TypeParameterBase</text>
</a>
</g>
</g>
<!-- Node2&#45;&gt;Node1 -->
<g id="edge1" class="edge">
<title>Node2&#45;&gt;Node1</title>
<path fill="none" stroke="midnightblue" d="M53.5,-47.12C53.5,-37.82 53.5,-27.06 53.5,-19.71"/>
<polygon fill="midnightblue" stroke="midnightblue" points="50,-47.41 53.5,-57.41 57,-47.41 50,-47.41"/>
</g>
<!-- Node3 -->
<g id="node3" class="node">
<title>Node3</title>
<g id="a_node3"><a xlink:title=" ">
<polygon fill="white" stroke="#bfbfbf" points="23.5,-124.5 23.5,-143.5 83.5,-143.5 83.5,-124.5 23.5,-124.5"/>
<text text-anchor="middle" x="53.5" y="-131.5" font-family="Helvetica" font-size="10.00">std::string</text>
</a>
</g>
</g>
<!-- Node3&#45;&gt;Node2 -->
<g id="edge2" class="edge">
<title>Node3&#45;&gt;Node2</title>
<path fill="none" stroke="#9a32cd" stroke-dasharray="5,2" d="M53.5,-114.04C53.5,-101.67 53.5,-86.12 53.5,-76.63"/>
<polygon fill="#9a32cd" stroke="#9a32cd" points="50,-114.23 53.5,-124.23 57,-114.23 50,-114.23"/>
<text text-anchor="middle" x="67.5" y="-98" font-family="Helvetica" font-size="10.00"> name</text>
</g>
<!-- Node4 -->
<g id="node4" class="node">
<title>Node4</title>
<g id="a_node4"><a xlink:title=" ">
<polygon fill="white" stroke="#bfbfbf" points="6,-181.5 6,-211.5 101,-211.5 101,-181.5 6,-181.5"/>
<text text-anchor="start" x="14" y="-199.5" font-family="Helvetica" font-size="10.00">std::basic_string&lt;</text>
<text text-anchor="middle" x="53.5" y="-188.5" font-family="Helvetica" font-size="10.00"> char &gt;</text>
</a>
</g>
</g>
<!-- Node4&#45;&gt;Node3 -->
<g id="edge3" class="edge">
<title>Node4&#45;&gt;Node3</title>
<path fill="none" stroke="midnightblue" d="M53.5,-171.35C53.5,-161.51 53.5,-150.78 53.5,-143.54"/>
<polygon fill="midnightblue" stroke="midnightblue" points="50,-171.47 53.5,-181.47 57,-171.47 50,-171.47"/>
</g>
</g>
</svg>
