<?xml version="1.0" encoding="UTF-8" standalone="no"?>
<!DOCTYPE svg PUBLIC "-//W3C//DTD SVG 1.1//EN"
 "http://www.w3.org/Graphics/SVG/1.1/DTD/svg11.dtd">
<!-- Generated by graphviz version 2.44.0 (0)
 -->
<!-- Title: /__w/MaCh3/MaCh3/Plotting/plottingUtils/styleManager.h Pages: 1 -->
<!--zoomable 173 -->
<svg id="main" version="1.1" xmlns="http://www.w3.org/2000/svg" xmlns:xlink="http://www.w3.org/1999/xlink" xml:space="preserve" onload="init(evt)">
<style type="text/css"><![CDATA[
.edge:hover path { stroke: red; }
.edge:hover polygon { stroke: red; fill: red; }
]]></style>
<script type="text/javascript"><![CDATA[
var edges = document.getElementsByTagName('g');
if (edges && edges.length) {
  for (var i=0;i<edges.length;i++) {
    if (edges[i].id.substr(0,4)=='edge') {
      edges[i].setAttribute('class','edge');
    }
  }
}
]]></script>
        <defs>
                <circle id="rim" cx="0" cy="0" r="7"/>
                <circle id="rim2" cx="0" cy="0" r="3.5"/>
                <g id="zoomPlus">
                        <use xlink:href="#rim" fill="#404040">
                                <set attributeName="fill" to="#808080" begin="zoomplus.mouseover" end="zoomplus.mouseout"/>
                        </use>
                        <path d="M-4,0h8M0,-4v8" fill="none" stroke="white" stroke-width="1.5" pointer-events="none"/>
                </g>
                <g id="zoomMin">
                        <use xlink:href="#rim" fill="#404040">
                                <set attributeName="fill" to="#808080" begin="zoomminus.mouseover" end="zoomminus.mouseout"/>
                        </use>
                        <path d="M-4,0h8" fill="none" stroke="white" stroke-width="1.5" pointer-events="none"/>
                </g>
                <g id="dirArrow">
                        <path fill="none" stroke="white" stroke-width="1.5" d="M0,-3.0v7 M-2.5,-0.5L0,-3.0L2.5,-0.5"/>
                </g>
               <g id="resetDef">
                       <use xlink:href="#rim2" fill="#404040">
                               <set attributeName="fill" to="#808080" begin="reset.mouseover" end="reset.mouseout"/>
                       </use>
               </g>
        </defs>

<script type="text/javascript">
var viewWidth = 846;
var viewHeight = 173;
var sectionId = 'dynsection-1';
</script>
<script xlink:href="svgpan.js"/>
<svg id="graph" class="graph">
<g id="viewport">
<title>/__w/MaCh3/MaCh3/Plotting/plottingUtils/styleManager.h</title>
<polygon fill="white" stroke="transparent" points="-4,4 -4,-169 841.5,-169 841.5,4 -4,4"/>
<!-- Node1 -->
<g id="node1" class="node">
<title>Node1</title>
<g id="a_node1"><a xlink:title=" ">
<polygon fill="#bfbfbf" stroke="black" points="586,-134.5 586,-164.5 729,-164.5 729,-134.5 586,-134.5"/>
<text text-anchor="start" x="594" y="-152.5" font-family="Helvetica" font-size="10.00">/__w/MaCh3/MaCh3/Plotting</text>
<text text-anchor="middle" x="657.5" y="-141.5" font-family="Helvetica" font-size="10.00">/plottingUtils/styleManager.h</text>
</a>
</g>
</g>
<!-- Node2 -->
<g id="node2" class="node">
<title>Node2</title>
<g id="a_node2"><a xlink:href="plottingManager_8h.html" target="_top" xlink:title=" ">
<polygon fill="white" stroke="black" points="402.5,-67.5 402.5,-97.5 554.5,-97.5 554.5,-67.5 402.5,-67.5"/>
<text text-anchor="start" x="410.5" y="-85.5" font-family="Helvetica" font-size="10.00">/__w/MaCh3/MaCh3/Plotting</text>
<text text-anchor="middle" x="478.5" y="-74.5" font-family="Helvetica" font-size="10.00">/plottingUtils/plottingManager.h</text>
</a>
</g>
</g>
<!-- Node1&#45;&gt;Node2 -->
<g id="edge1" class="edge">
<title>Node1&#45;&gt;Node2</title>
<path fill="none" stroke="midnightblue" d="M609.18,-130.96C580.35,-120.48 544.22,-107.37 517.26,-97.58"/>
<polygon fill="midnightblue" stroke="midnightblue" points="608.07,-134.27 618.66,-134.4 610.45,-127.69 608.07,-134.27"/>
</g>
<!-- Node7 -->
<g id="node7" class="node">
<title>Node7</title>
<g id="a_node7"><a xlink:href="plotting_8cpp.html" target="_top" xlink:title=" ">
<polygon fill="white" stroke="black" points="664,-0.5 664,-30.5 803,-30.5 803,-0.5 664,-0.5"/>
<text text-anchor="start" x="672" y="-18.5" font-family="Helvetica" font-size="10.00">/__w/MaCh3/MaCh3/python</text>
<text text-anchor="middle" x="733.5" y="-7.5" font-family="Helvetica" font-size="10.00">/plotting.cpp</text>
</a>
</g>
</g>
<!-- Node1&#45;&gt;Node7 -->
<g id="edge8" class="edge">
<title>Node1&#45;&gt;Node7</title>
<path fill="none" stroke="midnightblue" d="M659.28,-124.03C661.42,-107.03 666.13,-84.4 676.5,-67 685.23,-52.35 699.64,-39.64 711.78,-30.64"/>
<polygon fill="midnightblue" stroke="midnightblue" points="655.77,-123.96 658.21,-134.27 662.73,-124.69 655.77,-123.96"/>
</g>
<!-- Node8 -->
<g id="node8" class="node">
<title>Node8</title>
<g id="a_node8"><a xlink:href="styleManager_8cpp.html" target="_top" xlink:title=" ">
<polygon fill="white" stroke="black" points="685.5,-67.5 685.5,-97.5 837.5,-97.5 837.5,-67.5 685.5,-67.5"/>
<text text-anchor="start" x="693.5" y="-85.5" font-family="Helvetica" font-size="10.00">/__w/MaCh3/MaCh3/Plotting</text>
<text text-anchor="middle" x="761.5" y="-74.5" font-family="Helvetica" font-size="10.00">/plottingUtils/styleManager.cpp</text>
</a>
</g>
</g>
<!-- Node1&#45;&gt;Node8 -->
<g id="edge7" class="edge">
<title>Node1&#45;&gt;Node8</title>
<path fill="none" stroke="midnightblue" d="M688.68,-129.02C704.86,-118.9 724.27,-106.77 738.98,-97.58"/>
<polygon fill="midnightblue" stroke="midnightblue" points="686.69,-126.13 680.07,-134.4 690.4,-132.06 686.69,-126.13"/>
</g>
<!-- Node3 -->
<g id="node3" class="node">
<title>Node3</title>
<g id="a_node3"><a xlink:href="GetPostfitParamPlots_8cpp.html" target="_top" xlink:title=" ">
<polygon fill="white" stroke="black" points="0,-0.5 0,-30.5 143,-30.5 143,-0.5 0,-0.5"/>
<text text-anchor="start" x="8" y="-18.5" font-family="Helvetica" font-size="10.00">/__w/MaCh3/MaCh3/Plotting</text>
<text text-anchor="middle" x="71.5" y="-7.5" font-family="Helvetica" font-size="10.00">/GetPostfitParamPlots.cpp</text>
</a>
</g>
</g>
<!-- Node2&#45;&gt;Node3 -->
<g id="edge2" class="edge">
<title>Node2&#45;&gt;Node3</title>
<path fill="none" stroke="midnightblue" d="M392.48,-68.84C326.48,-58.98 233.14,-44.7 151.5,-31 148.72,-30.53 145.88,-30.05 143.01,-29.56"/>
<polygon fill="midnightblue" stroke="midnightblue" points="392.02,-72.31 402.42,-70.33 393.05,-65.39 392.02,-72.31"/>
</g>
<!-- Node4 -->
<g id="node4" class="node">
<title>Node4</title>
<g id="a_node4"><a xlink:href="MatrixPlotter_8cpp.html" target="_top" xlink:title=" ">
<polygon fill="white" stroke="black" points="161,-0.5 161,-30.5 304,-30.5 304,-0.5 161,-0.5"/>
<text text-anchor="start" x="169" y="-18.5" font-family="Helvetica" font-size="10.00">/__w/MaCh3/MaCh3/Plotting</text>
<text text-anchor="middle" x="232.5" y="-7.5" font-family="Helvetica" font-size="10.00">/MatrixPlotter.cpp</text>
</a>
</g>
</g>
<!-- Node2&#45;&gt;Node4 -->
<g id="edge3" class="edge">
<title>Node2&#45;&gt;Node4</title>
<path fill="none" stroke="midnightblue" d="M415.74,-64.92C375.6,-54.31 324.08,-40.7 285.9,-30.61"/>
<polygon fill="midnightblue" stroke="midnightblue" points="414.86,-68.31 425.42,-67.48 416.65,-61.54 414.86,-68.31"/>
</g>
<!-- Node5 -->
<g id="node5" class="node">
<title>Node5</title>
<g id="a_node5"><a xlink:href="PlotLLH_8cpp.html" target="_top" xlink:title=" ">
<polygon fill="white" stroke="black" points="322,-0.5 322,-30.5 465,-30.5 465,-0.5 322,-0.5"/>
<text text-anchor="start" x="330" y="-18.5" font-family="Helvetica" font-size="10.00">/__w/MaCh3/MaCh3/Plotting</text>
<text text-anchor="middle" x="393.5" y="-7.5" font-family="Helvetica" font-size="10.00">/PlotLLH.cpp</text>
</a>
</g>
</g>
<!-- Node2&#45;&gt;Node5 -->
<g id="edge4" class="edge">
<title>Node2&#45;&gt;Node5</title>
<path fill="none" stroke="midnightblue" d="M451.91,-61.17C438.91,-51.23 423.6,-39.51 411.91,-30.58"/>
<polygon fill="midnightblue" stroke="midnightblue" points="449.99,-64.1 460.06,-67.4 454.24,-58.54 449.99,-64.1"/>
</g>
<!-- Node6 -->
<g id="node6" class="node">
<title>Node6</title>
<g id="a_node6"><a xlink:href="plottingManager_8cpp.html" target="_top" xlink:title=" ">
<polygon fill="white" stroke="black" points="483.5,-0.5 483.5,-30.5 645.5,-30.5 645.5,-0.5 483.5,-0.5"/>
<text text-anchor="start" x="491.5" y="-18.5" font-family="Helvetica" font-size="10.00">/__w/MaCh3/MaCh3/Plotting</text>
<text text-anchor="middle" x="564.5" y="-7.5" font-family="Helvetica" font-size="10.00">/plottingUtils/plottingManager.cpp</text>
</a>
</g>
</g>
<!-- Node2&#45;&gt;Node6 -->
<g id="edge5" class="edge">
<title>Node2&#45;&gt;Node6</title>
<path fill="none" stroke="midnightblue" d="M505.4,-61.17C518.55,-51.23 534.05,-39.51 545.88,-30.58"/>
<polygon fill="midnightblue" stroke="midnightblue" points="503.03,-58.57 497.16,-67.4 507.25,-64.16 503.03,-58.57"/>
</g>
<!-- Node2&#45;&gt;Node7 -->
<g id="edge6" class="edge">
<title>Node2&#45;&gt;Node7</title>
<path fill="none" stroke="midnightblue" d="M543.29,-64.98C584.94,-54.37 638.48,-40.72 678.14,-30.61"/>
<polygon fill="midnightblue" stroke="midnightblue" points="542.34,-61.61 533.52,-67.48 544.07,-68.4 542.34,-61.61"/>
</g>
</g>
</svg>
        <g id="navigator" transform="translate(0 0)" fill="#404254">
                <rect fill="#f2f5e9" fill-opacity="0.5" stroke="#606060" stroke-width=".5" x="0" y="0" width="60" height="60"/>
                <use id="zoomplus" xlink:href="#zoomPlus" x="17" y="9" onmousedown="handleZoom(evt,'in')"/>
                <use id="zoomminus" xlink:href="#zoomMin" x="42" y="9" onmousedown="handleZoom(evt,'out')"/>
                <use id="reset" xlink:href="#resetDef" x="30" y="36" onmousedown="handleReset()"/>
                <g id="arrowUp" xlink:href="#dirArrow" transform="translate(30 24)" onmousedown="handlePan(0,-1)">
                  <use xlink:href="#rim" fill="#404040">
                        <set attributeName="fill" to="#808080" begin="arrowUp.mouseover" end="arrowUp.mouseout"/>
                  </use>
                  <path fill="none" stroke="white" stroke-width="1.5" d="M0,-3.0v7 M-2.5,-0.5L0,-3.0L2.5,-0.5"/>
                </g>
                <g id="arrowRight" xlink:href="#dirArrow" transform="rotate(90) translate(36 -43)" onmousedown="handlePan(1,0)">
                  <use xlink:href="#rim" fill="#404040">
                        <set attributeName="fill" to="#808080" begin="arrowRight.mouseover" end="arrowRight.mouseout"/>
                  </use>
                  <path fill="none" stroke="white" stroke-width="1.5" d="M0,-3.0v7 M-2.5,-0.5L0,-3.0L2.5,-0.5"/>
                </g>
                <g id="arrowDown" xlink:href="#dirArrow" transform="rotate(180) translate(-30 -48)" onmousedown="handlePan(0,1)">
                  <use xlink:href="#rim" fill="#404040">
                        <set attributeName="fill" to="#808080" begin="arrowDown.mouseover" end="arrowDown.mouseout"/>
                  </use>
                  <path fill="none" stroke="white" stroke-width="1.5" d="M0,-3.0v7 M-2.5,-0.5L0,-3.0L2.5,-0.5"/>
                </g>
                <g id="arrowLeft" xlink:href="#dirArrow" transform="rotate(270) translate(-36 17)" onmousedown="handlePan(-1,0)">
                  <use xlink:href="#rim" fill="#404040">
                        <set attributeName="fill" to="#808080" begin="arrowLeft.mouseover" end="arrowLeft.mouseout"/>
                  </use>
                  <path fill="none" stroke="white" stroke-width="1.5" d="M0,-3.0v7 M-2.5,-0.5L0,-3.0L2.5,-0.5"/>
                </g>
        </g>
        <svg viewBox="0 0 15 15" width="100%" height="30px" preserveAspectRatio="xMaxYMin meet">
         <g id="arrow_out" transform="scale(0.3 0.3)">
          <a xlink:href="styleManager_8h__dep__incl_org.svg" target="_base">
           <rect id="button" ry="5" rx="5" y="6" x="6" height="38" width="38"
                fill="#f2f5e9" fill-opacity="0.5" stroke="#606060" stroke-width="1.0"/>
           <path id="arrow"
             d="M 11.500037,31.436501 C 11.940474,20.09759 22.043105,11.32322 32.158766,21.979434 L 37.068811,17.246167 C 37.068811,17.246167 37.088388,32 37.088388,32 L 22.160133,31.978069 C 22.160133,31.978069 26.997745,27.140456 26.997745,27.140456 C 18.528582,18.264221 13.291696,25.230495 11.500037,31.436501 z"
             style="fill:#404040;"/>
          </a>
         </g>
        </svg>
</svg>
