<?xml version="1.0" encoding="UTF-8" standalone="no"?>
<!DOCTYPE svg PUBLIC "-//W3C//DTD SVG 1.1//EN"
 "http://www.w3.org/Graphics/SVG/1.1/DTD/svg11.dtd">
<!-- Generated by graphviz version 2.44.0 (0)
 -->
<!-- Title: Manager/YamlHelper.h Pages: 1 -->
<!--zoomable 252 -->
<svg id="main" version="1.1" xmlns="http://www.w3.org/2000/svg" xmlns:xlink="http://www.w3.org/1999/xlink" xml:space="preserve" onload="init(evt)">
<style type="text/css"><![CDATA[
.edge:hover path { stroke: red; }
.edge:hover polygon { stroke: red; fill: red; }
]]></style>
<script type="text/javascript"><![CDATA[
var edges = document.getElementsByTagName('g');
if (edges && edges.length) {
  for (var i=0;i<edges.length;i++) {
    if (edges[i].id.substr(0,4)=='edge') {
      edges[i].setAttribute('class','edge');
    }
  }
}
]]></script>
        <defs>
                <circle id="rim" cx="0" cy="0" r="7"/>
                <circle id="rim2" cx="0" cy="0" r="3.5"/>
                <g id="zoomPlus">
                        <use xlink:href="#rim" fill="#404040">
                                <set attributeName="fill" to="#808080" begin="zoomplus.mouseover" end="zoomplus.mouseout"/>
                        </use>
                        <path d="M-4,0h8M0,-4v8" fill="none" stroke="white" stroke-width="1.5" pointer-events="none"/>
                </g>
                <g id="zoomMin">
                        <use xlink:href="#rim" fill="#404040">
                                <set attributeName="fill" to="#808080" begin="zoomminus.mouseover" end="zoomminus.mouseout"/>
                        </use>
                        <path d="M-4,0h8" fill="none" stroke="white" stroke-width="1.5" pointer-events="none"/>
                </g>
                <g id="dirArrow">
                        <path fill="none" stroke="white" stroke-width="1.5" d="M0,-3.0v7 M-2.5,-0.5L0,-3.0L2.5,-0.5"/>
                </g>
               <g id="resetDef">
                       <use xlink:href="#rim2" fill="#404040">
                               <set attributeName="fill" to="#808080" begin="reset.mouseover" end="reset.mouseout"/>
                       </use>
               </g>
        </defs>

<script type="text/javascript">
var viewWidth = 731;
var viewHeight = 252;
var sectionId = 'dynsection-0';
</script>
<script xlink:href="svgpan.js"/>
<svg id="graph" class="graph">
<g id="viewport">
<title>Manager/YamlHelper.h</title>
<polygon fill="white" stroke="transparent" points="-4,4 -4,-248 727.45,-248 727.45,4 -4,4"/>
<!-- Node1 -->
<g id="node1" class="node">
<title>Node1</title>
<g id="a_node1"><a xlink:title="Utility functions for handling YAML nodes.">
<polygon fill="#bfbfbf" stroke="black" points="222.95,-224.5 222.95,-243.5 338.95,-243.5 338.95,-224.5 222.95,-224.5"/>
<text text-anchor="middle" x="280.95" y="-231.5" font-family="Helvetica" font-size="10.00">Manager/YamlHelper.h</text>
</a>
</g>
</g>
<!-- Node2 -->
<g id="node2" class="node">
<title>Node2</title>
<g id="a_node2"><a xlink:title=" ">
<polygon fill="white" stroke="#bfbfbf" points="111.95,-0.5 111.95,-19.5 165.95,-19.5 165.95,-0.5 111.95,-0.5"/>
<text text-anchor="middle" x="138.95" y="-7.5" font-family="Helvetica" font-size="10.00">iostream</text>
</a>
</g>
</g>
<!-- Node1&#45;&gt;Node2 -->
<g id="edge1" class="edge">
<title>Node1&#45;&gt;Node2</title>
<path fill="none" stroke="midnightblue" d="M222.72,-228.68C160,-222.93 65.5,-210.73 37.95,-188 -7.52,-150.49 -11.99,-101.95 24.95,-56 43.7,-32.68 76.25,-21.4 101.78,-15.97"/>
<polygon fill="midnightblue" stroke="midnightblue" points="102.71,-19.36 111.88,-14.04 101.4,-12.48 102.71,-19.36"/>
</g>
<!-- Node3 -->
<g id="node3" class="node">
<title>Node3</title>
<g id="a_node3"><a xlink:title=" ">
<polygon fill="white" stroke="#bfbfbf" points="210.95,-0.5 210.95,-19.5 260.95,-19.5 260.95,-0.5 210.95,-0.5"/>
<text text-anchor="middle" x="235.95" y="-7.5" font-family="Helvetica" font-size="10.00">fstream</text>
</a>
</g>
</g>
<!-- Node1&#45;&gt;Node3 -->
<g id="edge2" class="edge">
<title>Node1&#45;&gt;Node3</title>
<path fill="none" stroke="midnightblue" d="M222.8,-228.83C164.15,-223.35 79.19,-211.53 56.95,-188 16.36,-145.05 4.16,-102.25 40.95,-56 50.88,-43.51 147.02,-25.77 200.49,-16.75"/>
<polygon fill="midnightblue" stroke="midnightblue" points="201.29,-20.16 210.58,-15.06 200.14,-13.26 201.29,-20.16"/>
</g>
<!-- Node4 -->
<g id="node4" class="node">
<title>Node4</title>
<g id="a_node4"><a xlink:title=" ">
<polygon fill="white" stroke="#bfbfbf" points="50.45,-56.5 50.45,-75.5 91.45,-75.5 91.45,-56.5 50.45,-56.5"/>
<text text-anchor="middle" x="70.95" y="-63.5" font-family="Helvetica" font-size="10.00">string</text>
</a>
</g>
</g>
<!-- Node1&#45;&gt;Node4 -->
<g id="edge3" class="edge">
<title>Node1&#45;&gt;Node4</title>
<path fill="none" stroke="midnightblue" d="M222.93,-228.6C167.53,-223.05 89.76,-211.27 70.95,-188 47.26,-158.7 56.77,-111.05 64.58,-85.16"/>
<polygon fill="midnightblue" stroke="midnightblue" points="67.96,-86.1 67.73,-75.51 61.3,-83.93 67.96,-86.1"/>
</g>
<!-- Node5 -->
<g id="node5" class="node">
<title>Node5</title>
<g id="a_node5"><a xlink:title=" ">
<polygon fill="white" stroke="#bfbfbf" points="80.45,-168.5 80.45,-187.5 133.45,-187.5 133.45,-168.5 80.45,-168.5"/>
<text text-anchor="middle" x="106.95" y="-175.5" font-family="Helvetica" font-size="10.00">cxxabi.h</text>
</a>
</g>
</g>
<!-- Node1&#45;&gt;Node5 -->
<g id="edge4" class="edge">
<title>Node1&#45;&gt;Node5</title>
<path fill="none" stroke="midnightblue" d="M253.38,-224.44C223.59,-215.2 176,-200.43 143.2,-190.25"/>
<polygon fill="midnightblue" stroke="midnightblue" points="144.12,-186.87 133.53,-187.25 142.05,-193.56 144.12,-186.87"/>
</g>
<!-- Node6 -->
<g id="node6" class="node">
<title>Node6</title>
<g id="a_node6"><a xlink:title=" ">
<polygon fill="white" stroke="#bfbfbf" points="151.45,-168.5 151.45,-187.5 192.45,-187.5 192.45,-168.5 151.45,-168.5"/>
<text text-anchor="middle" x="171.95" y="-175.5" font-family="Helvetica" font-size="10.00">regex</text>
</a>
</g>
</g>
<!-- Node1&#45;&gt;Node6 -->
<g id="edge5" class="edge">
<title>Node1&#45;&gt;Node6</title>
<path fill="none" stroke="midnightblue" d="M263.44,-224.32C245.88,-215.62 218.62,-202.12 198.42,-192.11"/>
<polygon fill="midnightblue" stroke="midnightblue" points="199.93,-188.96 189.42,-187.65 196.82,-195.23 199.93,-188.96"/>
</g>
<!-- Node7 -->
<g id="node7" class="node">
<title>Node7</title>
<g id="a_node7"><a xlink:href="MaCh3Exception_8h.html" target="_top" xlink:title="Defines the custom exception class used throughout MaCh3.">
<polygon fill="white" stroke="black" points="210.95,-168.5 210.95,-187.5 350.95,-187.5 350.95,-168.5 210.95,-168.5"/>
<text text-anchor="middle" x="280.95" y="-175.5" font-family="Helvetica" font-size="10.00">Manager/MaCh3Exception.h</text>
</a>
</g>
</g>
<!-- Node1&#45;&gt;Node7 -->
<g id="edge6" class="edge">
<title>Node1&#45;&gt;Node7</title>
<path fill="none" stroke="midnightblue" d="M280.95,-224.08C280.95,-217.01 280.95,-206.86 280.95,-197.99"/>
<polygon fill="midnightblue" stroke="midnightblue" points="284.45,-197.75 280.95,-187.75 277.45,-197.75 284.45,-197.75"/>
</g>
<!-- Node13 -->
<g id="node13" class="node">
<title>Node13</title>
<g id="a_node13"><a xlink:href="Core_8h.html" target="_top" xlink:title="KS: Core MaCh3 definitions and compile&#45;time configuration utilities.">
<polygon fill="white" stroke="black" points="481.95,-56.5 481.95,-75.5 567.95,-75.5 567.95,-56.5 481.95,-56.5"/>
<text text-anchor="middle" x="524.95" y="-63.5" font-family="Helvetica" font-size="10.00">Manager/Core.h</text>
</a>
</g>
</g>
<!-- Node1&#45;&gt;Node13 -->
<g id="edge27" class="edge">
<title>Node1&#45;&gt;Node13</title>
<path fill="none" stroke="midnightblue" d="M297.31,-224.4C313.52,-215.71 338.89,-201.65 359.95,-188 414.75,-152.47 475.94,-105.56 506.08,-81.95"/>
<polygon fill="midnightblue" stroke="midnightblue" points="508.36,-84.6 514.06,-75.67 504.03,-79.1 508.36,-84.6"/>
</g>
<!-- Node20 -->
<g id="node20" class="node">
<title>Node20</title>
<g id="a_node20"><a xlink:title=" ">
<polygon fill="white" stroke="#bfbfbf" points="406.95,-168.5 406.95,-187.5 464.95,-187.5 464.95,-168.5 406.95,-168.5"/>
<text text-anchor="middle" x="435.95" y="-175.5" font-family="Helvetica" font-size="10.00">TMacro.h</text>
</a>
</g>
</g>
<!-- Node1&#45;&gt;Node20 -->
<g id="edge28" class="edge">
<title>Node1&#45;&gt;Node20</title>
<path fill="none" stroke="midnightblue" d="M305.51,-224.44C331.47,-215.4 372.62,-201.06 401.75,-190.92"/>
<polygon fill="midnightblue" stroke="midnightblue" points="403.21,-194.11 411.5,-187.52 400.91,-187.5 403.21,-194.11"/>
</g>
<!-- Node21 -->
<g id="node21" class="node">
<title>Node21</title>
<g id="a_node21"><a xlink:title=" ">
<polygon fill="white" stroke="#bfbfbf" points="482.95,-168.5 482.95,-187.5 528.95,-187.5 528.95,-168.5 482.95,-168.5"/>
<text text-anchor="middle" x="505.95" y="-175.5" font-family="Helvetica" font-size="10.00">TList.h</text>
</a>
</g>
</g>
<!-- Node1&#45;&gt;Node21 -->
<g id="edge29" class="edge">
<title>Node1&#45;&gt;Node21</title>
<path fill="none" stroke="midnightblue" d="M319.89,-224.46C356.9,-216.23 414.34,-203.14 473.09,-188.14"/>
<polygon fill="midnightblue" stroke="midnightblue" points="474.1,-191.49 482.91,-185.61 472.35,-184.71 474.1,-191.49"/>
</g>
<!-- Node22 -->
<g id="node22" class="node">
<title>Node22</title>
<g id="a_node22"><a xlink:title=" ">
<polygon fill="white" stroke="#bfbfbf" points="547.45,-168.5 547.45,-187.5 618.45,-187.5 618.45,-168.5 547.45,-168.5"/>
<text text-anchor="middle" x="582.95" y="-175.5" font-family="Helvetica" font-size="10.00">TObjString.h</text>
</a>
</g>
</g>
<!-- Node1&#45;&gt;Node22 -->
<g id="edge30" class="edge">
<title>Node1&#45;&gt;Node22</title>
<path fill="none" stroke="midnightblue" d="M331.73,-224.48C381.49,-216.05 459.75,-202.56 537.17,-188.11"/>
<polygon fill="midnightblue" stroke="midnightblue" points="537.92,-191.53 547.1,-186.25 536.63,-184.65 537.92,-191.53"/>
</g>
<!-- Node23 -->
<g id="node23" class="node">
<title>Node23</title>
<g id="a_node23"><a xlink:title=" ">
<polygon fill="white" stroke="#bfbfbf" points="636.45,-168.5 636.45,-187.5 723.45,-187.5 723.45,-168.5 636.45,-168.5"/>
<text text-anchor="middle" x="679.95" y="-175.5" font-family="Helvetica" font-size="10.00">yaml&#45;cpp/yaml.h</text>
</a>
</g>
</g>
<!-- Node1&#45;&gt;Node23 -->
<g id="edge31" class="edge">
<title>Node1&#45;&gt;Node23</title>
<path fill="none" stroke="midnightblue" d="M339.07,-226.23C405.99,-218.26 519.46,-204.22 626.29,-188.2"/>
<polygon fill="midnightblue" stroke="midnightblue" points="626.91,-191.65 636.28,-186.7 625.87,-184.73 626.91,-191.65"/>
</g>
<!-- Node7&#45;&gt;Node2 -->
<g id="edge7" class="edge">
<title>Node7&#45;&gt;Node2</title>
<path fill="none" stroke="midnightblue" d="M234.7,-168.45C197.81,-160.58 150.48,-147.75 138.95,-132 116.8,-101.74 125.54,-54.85 132.86,-29.24"/>
<polygon fill="midnightblue" stroke="midnightblue" points="136.21,-30.26 135.82,-19.67 129.52,-28.19 136.21,-30.26"/>
</g>
<!-- Node7&#45;&gt;Node4 -->
<g id="edge8" class="edge">
<title>Node7&#45;&gt;Node4</title>
<path fill="none" stroke="midnightblue" d="M229.23,-168.43C184.82,-160.24 125.03,-146.94 105.95,-132 90.84,-120.17 81.44,-99.96 76.23,-85.2"/>
<polygon fill="midnightblue" stroke="midnightblue" points="79.54,-84.08 73.16,-75.63 72.88,-86.22 79.54,-84.08"/>
</g>
<!-- Node8 -->
<g id="node8" class="node">
<title>Node8</title>
<g id="a_node8"><a xlink:title=" ">
<polygon fill="white" stroke="#bfbfbf" points="148.45,-112.5 148.45,-131.5 207.45,-131.5 207.45,-112.5 148.45,-112.5"/>
<text text-anchor="middle" x="177.95" y="-119.5" font-family="Helvetica" font-size="10.00">stdexcept</text>
</a>
</g>
</g>
<!-- Node7&#45;&gt;Node8 -->
<g id="edge9" class="edge">
<title>Node7&#45;&gt;Node8</title>
<path fill="none" stroke="midnightblue" d="M264.4,-168.32C247.96,-159.7 222.51,-146.36 203.48,-136.39"/>
<polygon fill="midnightblue" stroke="midnightblue" points="204.94,-133.2 194.46,-131.65 201.69,-139.4 204.94,-133.2"/>
</g>
<!-- Node9 -->
<g id="node9" class="node">
<title>Node9</title>
<g id="a_node9"><a xlink:href="MaCh3Logger_8h.html" target="_top" xlink:title="MaCh3 Logging utilities built on top of SPDLOG.">
<polygon fill="white" stroke="black" points="225.95,-112.5 225.95,-131.5 351.95,-131.5 351.95,-112.5 225.95,-112.5"/>
<text text-anchor="middle" x="288.95" y="-119.5" font-family="Helvetica" font-size="10.00">Manager/MaCh3Logger.h</text>
</a>
</g>
</g>
<!-- Node7&#45;&gt;Node9 -->
<g id="edge10" class="edge">
<title>Node7&#45;&gt;Node9</title>
<path fill="none" stroke="midnightblue" d="M282.27,-168.08C283.33,-160.93 284.85,-150.64 286.18,-141.69"/>
<polygon fill="midnightblue" stroke="midnightblue" points="289.65,-142.16 287.65,-131.75 282.72,-141.13 289.65,-142.16"/>
</g>
<!-- Node7&#45;&gt;Node13 -->
<g id="edge26" class="edge">
<title>Node7&#45;&gt;Node13</title>
<path fill="none" stroke="midnightblue" d="M295.78,-168.35C318.59,-155.24 363.83,-129.97 403.95,-112 432.17,-99.36 465.13,-87.27 489.51,-78.81"/>
<polygon fill="midnightblue" stroke="midnightblue" points="490.74,-82.09 499.07,-75.53 488.47,-75.47 490.74,-82.09"/>
</g>
<!-- Node9&#45;&gt;Node2 -->
<g id="edge11" class="edge">
<title>Node9&#45;&gt;Node2</title>
<path fill="none" stroke="midnightblue" d="M270.47,-112.39C253.53,-104.11 228.08,-90.72 207.95,-76 187.74,-61.22 167.18,-41.05 153.82,-27.12"/>
<polygon fill="midnightblue" stroke="midnightblue" points="156.26,-24.6 146.85,-19.72 151.16,-29.4 156.26,-24.6"/>
</g>
<!-- Node9&#45;&gt;Node4 -->
<g id="edge14" class="edge">
<title>Node9&#45;&gt;Node4</title>
<path fill="none" stroke="midnightblue" d="M254.41,-112.44C212.22,-101.99 141.52,-84.48 101.32,-74.52"/>
<polygon fill="midnightblue" stroke="midnightblue" points="102.1,-71.11 91.55,-72.1 100.42,-77.91 102.1,-71.11"/>
</g>
<!-- Node10 -->
<g id="node10" class="node">
<title>Node10</title>
<g id="a_node10"><a xlink:title=" ">
<polygon fill="white" stroke="#bfbfbf" points="294.95,-0.5 294.95,-19.5 346.95,-19.5 346.95,-0.5 294.95,-0.5"/>
<text text-anchor="middle" x="320.95" y="-7.5" font-family="Helvetica" font-size="10.00">sstream</text>
</a>
</g>
</g>
<!-- Node9&#45;&gt;Node10 -->
<g id="edge12" class="edge">
<title>Node9&#45;&gt;Node10</title>
<path fill="none" stroke="midnightblue" d="M264.55,-112.33C237.25,-101.19 198.81,-80.38 214.95,-56 223.15,-43.6 257.61,-30.42 285.04,-21.55"/>
<polygon fill="midnightblue" stroke="midnightblue" points="286.28,-24.83 294.76,-18.49 284.17,-18.15 286.28,-24.83"/>
</g>
<!-- Node11 -->
<g id="node11" class="node">
<title>Node11</title>
<g id="a_node11"><a xlink:title=" ">
<polygon fill="white" stroke="#bfbfbf" points="224.45,-56.5 224.45,-75.5 283.45,-75.5 283.45,-56.5 224.45,-56.5"/>
<text text-anchor="middle" x="253.95" y="-63.5" font-family="Helvetica" font-size="10.00">functional</text>
</a>
</g>
</g>
<!-- Node9&#45;&gt;Node11 -->
<g id="edge13" class="edge">
<title>Node9&#45;&gt;Node11</title>
<path fill="none" stroke="midnightblue" d="M283.17,-112.08C278.28,-104.53 271.12,-93.49 265.12,-84.23"/>
<polygon fill="midnightblue" stroke="midnightblue" points="268,-82.24 259.62,-75.75 262.12,-86.05 268,-82.24"/>
</g>
<!-- Node12 -->
<g id="node12" class="node">
<title>Node12</title>
<g id="a_node12"><a xlink:title=" ">
<polygon fill="white" stroke="#bfbfbf" points="301.95,-56.5 301.95,-75.5 359.95,-75.5 359.95,-56.5 301.95,-56.5"/>
<text text-anchor="middle" x="330.95" y="-63.5" font-family="Helvetica" font-size="10.00">exception</text>
</a>
</g>
</g>
<!-- Node9&#45;&gt;Node12 -->
<g id="edge15" class="edge">
<title>Node9&#45;&gt;Node12</title>
<path fill="none" stroke="midnightblue" d="M295.88,-112.08C301.88,-104.38 310.7,-93.03 318,-83.65"/>
<polygon fill="midnightblue" stroke="midnightblue" points="320.77,-85.79 324.14,-75.75 315.24,-81.5 320.77,-85.79"/>
</g>
<!-- Node9&#45;&gt;Node13 -->
<g id="edge16" class="edge">
<title>Node9&#45;&gt;Node13</title>
<path fill="none" stroke="midnightblue" d="M326.34,-112.44C367.34,-103.06 433.2,-87.99 477.73,-77.8"/>
<polygon fill="midnightblue" stroke="midnightblue" points="478.76,-81.16 487.73,-75.52 477.2,-74.34 478.76,-81.16"/>
</g>
<!-- Node19 -->
<g id="node19" class="node">
<title>Node19</title>
<g id="a_node19"><a xlink:title=" ">
<polygon fill="white" stroke="#bfbfbf" points="378.45,-56.5 378.45,-75.5 463.45,-75.5 463.45,-56.5 378.45,-56.5"/>
<text text-anchor="middle" x="420.95" y="-63.5" font-family="Helvetica" font-size="10.00">spdlog/spdlog.h</text>
</a>
</g>
</g>
<!-- Node9&#45;&gt;Node19 -->
<g id="edge25" class="edge">
<title>Node9&#45;&gt;Node19</title>
<path fill="none" stroke="midnightblue" d="M309.86,-112.44C331.68,-103.52 366.1,-89.44 390.84,-79.32"/>
<polygon fill="midnightblue" stroke="midnightblue" points="392.2,-82.54 400.13,-75.52 389.55,-76.06 392.2,-82.54"/>
</g>
<!-- Node13&#45;&gt;Node2 -->
<g id="edge19" class="edge">
<title>Node13&#45;&gt;Node2</title>
<path fill="none" stroke="midnightblue" d="M481.84,-57.4C478.83,-56.92 475.85,-56.44 472.95,-56 352.84,-37.64 322.31,-36.59 201.95,-20 193.62,-18.85 184.68,-17.59 176.23,-16.39"/>
<polygon fill="midnightblue" stroke="midnightblue" points="176.62,-12.91 166.23,-14.96 175.63,-19.84 176.62,-12.91"/>
</g>
<!-- Node13&#45;&gt;Node3 -->
<g id="edge18" class="edge">
<title>Node13&#45;&gt;Node3</title>
<path fill="none" stroke="midnightblue" d="M481.68,-56.92C424.26,-46.19 323.97,-27.45 271.01,-17.55"/>
<polygon fill="midnightblue" stroke="midnightblue" points="271.55,-14.09 261.08,-15.69 270.26,-20.97 271.55,-14.09"/>
</g>
<!-- Node13&#45;&gt;Node10 -->
<g id="edge17" class="edge">
<title>Node13&#45;&gt;Node10</title>
<path fill="none" stroke="midnightblue" d="M492.62,-56.44C455.6,-46.64 395.11,-30.63 356.71,-20.47"/>
<polygon fill="midnightblue" stroke="midnightblue" points="357.53,-17.06 346.97,-17.89 355.74,-23.83 357.53,-17.06"/>
</g>
<!-- Node14 -->
<g id="node14" class="node">
<title>Node14</title>
<g id="a_node14"><a xlink:title=" ">
<polygon fill="white" stroke="#bfbfbf" points="373.45,-0.5 373.45,-19.5 416.45,-19.5 416.45,-0.5 373.45,-0.5"/>
<text text-anchor="middle" x="394.95" y="-7.5" font-family="Helvetica" font-size="10.00">vector</text>
</a>
</g>
</g>
<!-- Node13&#45;&gt;Node14 -->
<g id="edge20" class="edge">
<title>Node13&#45;&gt;Node14</title>
<path fill="none" stroke="midnightblue" d="M504.35,-56.44C482.96,-47.56 449.27,-33.56 424.92,-23.45"/>
<polygon fill="midnightblue" stroke="midnightblue" points="426.03,-20.12 415.45,-19.52 423.34,-26.58 426.03,-20.12"/>
</g>
<!-- Node15 -->
<g id="node15" class="node">
<title>Node15</title>
<g id="a_node15"><a xlink:title=" ">
<polygon fill="white" stroke="#bfbfbf" points="434.95,-0.5 434.95,-19.5 484.95,-19.5 484.95,-0.5 434.95,-0.5"/>
<text text-anchor="middle" x="459.95" y="-7.5" font-family="Helvetica" font-size="10.00">iomanip</text>
</a>
</g>
</g>
<!-- Node13&#45;&gt;Node15 -->
<g id="edge21" class="edge">
<title>Node13&#45;&gt;Node15</title>
<path fill="none" stroke="midnightblue" d="M514.51,-56.32C504.8,-48.26 490.13,-36.08 478.45,-26.37"/>
<polygon fill="midnightblue" stroke="midnightblue" points="480.51,-23.53 470.58,-19.83 476.04,-28.92 480.51,-23.53"/>
</g>
<!-- Node16 -->
<g id="node16" class="node">
<title>Node16</title>
<g id="a_node16"><a xlink:title=" ">
<polygon fill="white" stroke="#bfbfbf" points="502.95,-0.5 502.95,-19.5 546.95,-19.5 546.95,-0.5 502.95,-0.5"/>
<text text-anchor="middle" x="524.95" y="-7.5" font-family="Helvetica" font-size="10.00">cmath</text>
</a>
</g>
</g>
<!-- Node13&#45;&gt;Node16 -->
<g id="edge22" class="edge">
<title>Node13&#45;&gt;Node16</title>
<path fill="none" stroke="midnightblue" d="M524.95,-56.08C524.95,-49.01 524.95,-38.86 524.95,-29.99"/>
<polygon fill="midnightblue" stroke="midnightblue" points="528.45,-29.75 524.95,-19.75 521.45,-29.75 528.45,-29.75"/>
</g>
<!-- Node17 -->
<g id="node17" class="node">
<title>Node17</title>
<g id="a_node17"><a xlink:title=" ">
<polygon fill="white" stroke="#bfbfbf" points="564.95,-0.5 564.95,-19.5 604.95,-19.5 604.95,-0.5 564.95,-0.5"/>
<text text-anchor="middle" x="584.95" y="-7.5" font-family="Helvetica" font-size="10.00">limits</text>
</a>
</g>
</g>
<!-- Node13&#45;&gt;Node17 -->
<g id="edge23" class="edge">
<title>Node13&#45;&gt;Node17</title>
<path fill="none" stroke="midnightblue" d="M534.59,-56.32C543.46,-48.34 556.82,-36.31 567.56,-26.65"/>
<polygon fill="midnightblue" stroke="midnightblue" points="570.04,-29.13 575.13,-19.83 565.36,-23.92 570.04,-29.13"/>
</g>
<!-- Node18 -->
<g id="node18" class="node">
<title>Node18</title>
<g id="a_node18"><a xlink:title=" ">
<polygon fill="white" stroke="#bfbfbf" points="622.95,-0.5 622.95,-19.5 666.95,-19.5 666.95,-0.5 622.95,-0.5"/>
<text text-anchor="middle" x="644.95" y="-7.5" font-family="Helvetica" font-size="10.00">omp.h</text>
</a>
</g>
</g>
<!-- Node13&#45;&gt;Node18 -->
<g id="edge24" class="edge">
<title>Node13&#45;&gt;Node18</title>
<path fill="none" stroke="midnightblue" d="M543.96,-56.44C563.54,-47.64 594.26,-33.81 616.68,-23.72"/>
<polygon fill="midnightblue" stroke="midnightblue" points="618.34,-26.81 626.02,-19.52 615.47,-20.43 618.34,-26.81"/>
</g>
</g>
</svg>
        <g id="navigator" transform="translate(0 0)" fill="#404254">
                <rect fill="#f2f5e9" fill-opacity="0.5" stroke="#606060" stroke-width=".5" x="0" y="0" width="60" height="60"/>
                <use id="zoomplus" xlink:href="#zoomPlus" x="17" y="9" onmousedown="handleZoom(evt,'in')"/>
                <use id="zoomminus" xlink:href="#zoomMin" x="42" y="9" onmousedown="handleZoom(evt,'out')"/>
                <use id="reset" xlink:href="#resetDef" x="30" y="36" onmousedown="handleReset()"/>
                <g id="arrowUp" xlink:href="#dirArrow" transform="translate(30 24)" onmousedown="handlePan(0,-1)">
                  <use xlink:href="#rim" fill="#404040">
                        <set attributeName="fill" to="#808080" begin="arrowUp.mouseover" end="arrowUp.mouseout"/>
                  </use>
                  <path fill="none" stroke="white" stroke-width="1.5" d="M0,-3.0v7 M-2.5,-0.5L0,-3.0L2.5,-0.5"/>
                </g>
                <g id="arrowRight" xlink:href="#dirArrow" transform="rotate(90) translate(36 -43)" onmousedown="handlePan(1,0)">
                  <use xlink:href="#rim" fill="#404040">
                        <set attributeName="fill" to="#808080" begin="arrowRight.mouseover" end="arrowRight.mouseout"/>
                  </use>
                  <path fill="none" stroke="white" stroke-width="1.5" d="M0,-3.0v7 M-2.5,-0.5L0,-3.0L2.5,-0.5"/>
                </g>
                <g id="arrowDown" xlink:href="#dirArrow" transform="rotate(180) translate(-30 -48)" onmousedown="handlePan(0,1)">
                  <use xlink:href="#rim" fill="#404040">
                        <set attributeName="fill" to="#808080" begin="arrowDown.mouseover" end="arrowDown.mouseout"/>
                  </use>
                  <path fill="none" stroke="white" stroke-width="1.5" d="M0,-3.0v7 M-2.5,-0.5L0,-3.0L2.5,-0.5"/>
                </g>
                <g id="arrowLeft" xlink:href="#dirArrow" transform="rotate(270) translate(-36 17)" onmousedown="handlePan(-1,0)">
                  <use xlink:href="#rim" fill="#404040">
                        <set attributeName="fill" to="#808080" begin="arrowLeft.mouseover" end="arrowLeft.mouseout"/>
                  </use>
                  <path fill="none" stroke="white" stroke-width="1.5" d="M0,-3.0v7 M-2.5,-0.5L0,-3.0L2.5,-0.5"/>
                </g>
        </g>
        <svg viewBox="0 0 15 15" width="100%" height="30px" preserveAspectRatio="xMaxYMin meet">
         <g id="arrow_out" transform="scale(0.3 0.3)">
          <a xlink:href="YamlHelper_8h__incl_org.svg" target="_base">
           <rect id="button" ry="5" rx="5" y="6" x="6" height="38" width="38"
                fill="#f2f5e9" fill-opacity="0.5" stroke="#606060" stroke-width="1.0"/>
           <path id="arrow"
             d="M 11.500037,31.436501 C 11.940474,20.09759 22.043105,11.32322 32.158766,21.979434 L 37.068811,17.246167 C 37.068811,17.246167 37.088388,32 37.088388,32 L 22.160133,31.978069 C 22.160133,31.978069 26.997745,27.140456 26.997745,27.140456 C 18.528582,18.264221 13.291696,25.230495 11.500037,31.436501 z"
             style="fill:#404040;"/>
          </a>
         </g>
        </svg>
</svg>
