<?xml version="1.0" encoding="UTF-8" standalone="no"?>
<!DOCTYPE svg PUBLIC "-//W3C//DTD SVG 1.1//EN"
 "http://www.w3.org/Graphics/SVG/1.1/DTD/svg11.dtd">
<!-- Generated by graphviz version 2.43.0 (0)
 -->
<!-- Title: Manager/YamlHelper.h Pages: 1 -->
<svg width="2604pt" height="467pt"
 viewBox="0.00 0.00 2603.50 467.00" xmlns="http://www.w3.org/2000/svg" xmlns:xlink="http://www.w3.org/1999/xlink">
<g id="graph0" class="graph" transform="scale(1 1) rotate(0) translate(4 463)">
<title>Manager/YamlHelper.h</title>
<!-- Node1 -->
<g id="node1" class="node">
<title>Node1</title>
<g id="a_node1"><a xlink:title="Utility functions for handling YAML nodes.">
<polygon fill="#999999" stroke="#666666" points="2225.5,-459 2099.5,-459 2099.5,-440 2225.5,-440 2225.5,-459"/>
<text text-anchor="middle" x="2162.5" y="-447" font-family="Helvetica,sans-Serif" font-size="10.00">Manager/YamlHelper.h</text>
</a>
</g>
</g>
<!-- Node2 -->
<g id="node2" class="node">
<title>Node2</title>
<g id="a_node2"><a xlink:href="MaCh3Modes_8h.html" target="_top" xlink:title=" ">
<polygon fill="white" stroke="#666666" points="2153,-288.5 2016,-288.5 2016,-269.5 2153,-269.5 2153,-288.5"/>
<text text-anchor="middle" x="2084.5" y="-276.5" font-family="Helvetica,sans-Serif" font-size="10.00">Manager/MaCh3Modes.h</text>
</a>
</g>
</g>
<!-- Node1&#45;&gt;Node2 -->
<g id="edge1" class="edge">
<title>Node1&#45;&gt;Node2</title>
<path fill="none" stroke="#63b8ff" d="M2158.73,-429.81C2153.38,-405.73 2142.23,-363.03 2124.5,-330 2115.88,-313.94 2101.89,-297.93 2092.94,-288.51"/>
<polygon fill="#63b8ff" stroke="#63b8ff" points="2155.34,-430.68 2160.84,-439.74 2162.18,-429.23 2155.34,-430.68"/>
</g>
<!-- Node28 -->
<g id="node17" class="node">
<title>Node28</title>
<g id="a_node17"><a xlink:href="Manager_8h.html" target="_top" xlink:title=" ">
<polygon fill="white" stroke="#666666" points="1070,-349 957,-349 957,-330 1070,-330 1070,-349"/>
<text text-anchor="middle" x="1013.5" y="-337" font-family="Helvetica,sans-Serif" font-size="10.00">Manager/Manager.h</text>
</a>
</g>
</g>
<!-- Node1&#45;&gt;Node28 -->
<g id="edge21" class="edge">
<title>Node1&#45;&gt;Node28</title>
<path fill="none" stroke="#63b8ff" d="M2089.37,-441.63C1876.55,-421.62 1260.61,-363.73 1070.24,-345.83"/>
<polygon fill="#63b8ff" stroke="#63b8ff" points="2089.22,-445.13 2099.5,-442.58 2089.87,-438.16 2089.22,-445.13"/>
</g>
<!-- Node41 -->
<g id="node26" class="node">
<title>Node41</title>
<g id="a_node26"><a xlink:href="inputManager_8h.html" target="_top" xlink:title=" ">
<polygon fill="white" stroke="#666666" points="1899,-162 1782,-162 1782,-132 1899,-132 1899,-162"/>
<text text-anchor="start" x="1790" y="-150" font-family="Helvetica,sans-Serif" font-size="10.00">Plotting/plottingUtils</text>
<text text-anchor="middle" x="1840.5" y="-139" font-family="Helvetica,sans-Serif" font-size="10.00">/inputManager.h</text>
</a>
</g>
</g>
<!-- Node1&#45;&gt;Node41 -->
<g id="edge69" class="edge">
<title>Node1&#45;&gt;Node41</title>
<path fill="none" stroke="#63b8ff" d="M2167.72,-430.23C2173.34,-408.9 2181.5,-372.44 2181.5,-340.5 2181.5,-340.5 2181.5,-340.5 2181.5,-278 2181.5,-241.56 2190.29,-222.7 2163.5,-198 2121.43,-159.21 1964.89,-171.77 1908.5,-162 1905.41,-161.46 1902.25,-160.89 1899.06,-160.3"/>
<polygon fill="#63b8ff" stroke="#63b8ff" points="2164.33,-429.34 2165.06,-439.91 2171.08,-431.19 2164.33,-429.34"/>
</g>
<!-- Node43 -->
<g id="node28" class="node">
<title>Node43</title>
<g id="a_node28"><a xlink:href="plottingManager_8h.html" target="_top" xlink:title=" ">
<polygon fill="white" stroke="#666666" points="2305,-96 2188,-96 2188,-66 2305,-66 2305,-96"/>
<text text-anchor="start" x="2196" y="-84" font-family="Helvetica,sans-Serif" font-size="10.00">Plotting/plottingUtils</text>
<text text-anchor="middle" x="2246.5" y="-73" font-family="Helvetica,sans-Serif" font-size="10.00">/plottingManager.h</text>
</a>
</g>
</g>
<!-- Node1&#45;&gt;Node43 -->
<g id="edge70" class="edge">
<title>Node1&#45;&gt;Node43</title>
<path fill="none" stroke="#63b8ff" d="M2187.19,-434.67C2215.34,-416.86 2257.5,-383.09 2257.5,-340.5 2257.5,-340.5 2257.5,-340.5 2257.5,-212 2257.5,-169.64 2251.63,-119.8 2248.47,-96.01"/>
<polygon fill="#63b8ff" stroke="#63b8ff" points="2185.34,-431.69 2178.62,-439.88 2188.98,-437.68 2185.34,-431.69"/>
</g>
<!-- Node69 -->
<g id="node47" class="node">
<title>Node69</title>
<g id="a_node47"><a xlink:href="Monitor_8h.html" target="_top" xlink:title="System and monitoring utilities for printing system information and status updates.">
<polygon fill="white" stroke="#666666" points="2065.5,-404 1957.5,-404 1957.5,-385 2065.5,-385 2065.5,-404"/>
<text text-anchor="middle" x="2011.5" y="-392" font-family="Helvetica,sans-Serif" font-size="10.00">Manager/Monitor.h</text>
</a>
</g>
</g>
<!-- Node1&#45;&gt;Node69 -->
<g id="edge65" class="edge">
<title>Node1&#45;&gt;Node69</title>
<path fill="none" stroke="#63b8ff" d="M2128.45,-436.55C2100.41,-426.71 2061.32,-412.98 2036.2,-404.17"/>
<polygon fill="#63b8ff" stroke="#63b8ff" points="2127.64,-439.98 2138.24,-439.98 2129.96,-433.37 2127.64,-439.98"/>
</g>
<!-- Node71 -->
<g id="node49" class="node">
<title>Node71</title>
<g id="a_node49"><a xlink:href="styleManager_8h.html" target="_top" xlink:title=" ">
<polygon fill="white" stroke="#666666" points="2229,-162 2112,-162 2112,-132 2229,-132 2229,-162"/>
<text text-anchor="start" x="2120" y="-150" font-family="Helvetica,sans-Serif" font-size="10.00">Plotting/plottingUtils</text>
<text text-anchor="middle" x="2170.5" y="-139" font-family="Helvetica,sans-Serif" font-size="10.00">/styleManager.h</text>
</a>
</g>
</g>
<!-- Node1&#45;&gt;Node71 -->
<g id="edge71" class="edge">
<title>Node1&#45;&gt;Node71</title>
<path fill="none" stroke="#63b8ff" d="M2177.55,-432.24C2194.44,-412.24 2219.5,-376.49 2219.5,-340.5 2219.5,-340.5 2219.5,-340.5 2219.5,-278 2219.5,-233.38 2193.91,-185.36 2179.72,-162.16"/>
<polygon fill="#63b8ff" stroke="#63b8ff" points="2174.88,-429.98 2170.91,-439.8 2180.14,-434.6 2174.88,-429.98"/>
</g>
<!-- Node3 -->
<g id="node3" class="node">
<title>Node3</title>
<g id="a_node3"><a xlink:href="MaCh3Modes_8cpp.html" target="_top" xlink:title=" ">
<polygon fill="white" stroke="#666666" points="2154,-222.5 2005,-222.5 2005,-203.5 2154,-203.5 2154,-222.5"/>
<text text-anchor="middle" x="2079.5" y="-210.5" font-family="Helvetica,sans-Serif" font-size="10.00">Manager/MaCh3Modes.cpp</text>
</a>
</g>
</g>
<!-- Node2&#45;&gt;Node3 -->
<g id="edge2" class="edge">
<title>Node2&#45;&gt;Node3</title>
<path fill="none" stroke="#63b8ff" d="M2083.02,-259.08C2082.09,-247.13 2080.92,-232.22 2080.2,-222.91"/>
<polygon fill="#63b8ff" stroke="#63b8ff" points="2079.56,-259.67 2083.83,-269.37 2086.54,-259.13 2079.56,-259.67"/>
</g>
<!-- Node4 -->
<g id="node4" class="node">
<title>Node4</title>
<g id="a_node4"><a xlink:href="SampleHandlerBase_8h.html" target="_top" xlink:title=" ">
<polygon fill="white" stroke="#666666" points="1471.5,-222.5 1301.5,-222.5 1301.5,-203.5 1471.5,-203.5 1471.5,-222.5"/>
<text text-anchor="middle" x="1386.5" y="-210.5" font-family="Helvetica,sans-Serif" font-size="10.00">Samples/SampleHandlerBase.h</text>
</a>
</g>
</g>
<!-- Node2&#45;&gt;Node4 -->
<g id="edge3" class="edge">
<title>Node2&#45;&gt;Node4</title>
<path fill="none" stroke="#63b8ff" d="M2031.74,-267.69C2023.64,-266.32 2015.36,-265.03 2007.5,-264 1816.87,-239.06 1591.58,-224.65 1471.66,-218.17"/>
<polygon fill="#63b8ff" stroke="#63b8ff" points="2031.4,-271.18 2041.85,-269.47 2032.61,-264.29 2031.4,-271.18"/>
</g>
<!-- Node26 -->
<g id="node15" class="node">
<title>Node26</title>
<g id="a_node15"><a xlink:href="BinnedSplineHandler_8h.html" target="_top" xlink:title=" ">
<polygon fill="white" stroke="#666666" points="1987,-222.5 1822,-222.5 1822,-203.5 1987,-203.5 1987,-222.5"/>
<text text-anchor="middle" x="1904.5" y="-210.5" font-family="Helvetica,sans-Serif" font-size="10.00">Splines/BinnedSplineHandler.h</text>
</a>
</g>
</g>
<!-- Node2&#45;&gt;Node26 -->
<g id="edge18" class="edge">
<title>Node2&#45;&gt;Node26</title>
<path fill="none" stroke="#63b8ff" d="M2050.75,-266C2015.21,-253.36 1960.12,-233.78 1928.68,-222.6"/>
<polygon fill="#63b8ff" stroke="#63b8ff" points="2049.63,-269.32 2060.22,-269.37 2051.97,-262.72 2049.63,-269.32"/>
</g>
<!-- Node5 -->
<g id="node5" class="node">
<title>Node5</title>
<g id="a_node5"><a xlink:href="FitterBase_8h.html" target="_top" xlink:title=" ">
<polygon fill="white" stroke="#666666" points="923,-156.5 814,-156.5 814,-137.5 923,-137.5 923,-156.5"/>
<text text-anchor="middle" x="868.5" y="-144.5" font-family="Helvetica,sans-Serif" font-size="10.00">Fitters/FitterBase.h</text>
</a>
</g>
</g>
<!-- Node4&#45;&gt;Node5 -->
<g id="edge4" class="edge">
<title>Node4&#45;&gt;Node5</title>
<path fill="none" stroke="#63b8ff" d="M1322.47,-202.04C1312.45,-200.6 1302.2,-199.21 1292.5,-198 1132.49,-178.12 1090.71,-187.53 931.5,-162 922.32,-160.53 912.47,-158.54 903.35,-156.52"/>
<polygon fill="#63b8ff" stroke="#63b8ff" points="1321.98,-205.5 1332.38,-203.48 1322.99,-198.58 1321.98,-205.5"/>
</g>
<!-- Node20 -->
<g id="node12" class="node">
<title>Node20</title>
<g id="a_node12"><a xlink:href="SampleSummary_8h.html" target="_top" xlink:title=" ">
<polygon fill="#fff0f0" stroke="red" points="1252.5,-156.5 1110.5,-156.5 1110.5,-137.5 1252.5,-137.5 1252.5,-156.5"/>
<text text-anchor="middle" x="1181.5" y="-144.5" font-family="Helvetica,sans-Serif" font-size="10.00">Fitters/SampleSummary.h</text>
</a>
</g>
</g>
<!-- Node4&#45;&gt;Node20 -->
<g id="edge14" class="edge">
<title>Node4&#45;&gt;Node20</title>
<path fill="none" stroke="#63b8ff" d="M1349.1,-200.32C1308.66,-187.7 1245.15,-167.87 1209.04,-156.6"/>
<polygon fill="#63b8ff" stroke="#63b8ff" points="1348.26,-203.73 1358.85,-203.37 1350.35,-197.05 1348.26,-203.73"/>
</g>
<!-- Node22 -->
<g id="node13" class="node">
<title>Node22</title>
<g id="a_node13"><a xlink:href="SampleHandlerBase_8cpp.html" target="_top" xlink:title=" ">
<polygon fill="white" stroke="#666666" points="1490,-156.5 1309,-156.5 1309,-137.5 1490,-137.5 1490,-156.5"/>
<text text-anchor="middle" x="1399.5" y="-144.5" font-family="Helvetica,sans-Serif" font-size="10.00">Samples/SampleHandlerBase.cpp</text>
</a>
</g>
</g>
<!-- Node4&#45;&gt;Node22 -->
<g id="edge15" class="edge">
<title>Node4&#45;&gt;Node22</title>
<path fill="none" stroke="#63b8ff" d="M1390.27,-193.45C1392.71,-181.43 1395.78,-166.32 1397.69,-156.91"/>
<polygon fill="#63b8ff" stroke="#63b8ff" points="1386.81,-192.87 1388.25,-203.37 1393.67,-194.27 1386.81,-192.87"/>
</g>
<!-- Node23 -->
<g id="node14" class="node">
<title>Node23</title>
<g id="a_node14"><a xlink:href="SampleHandlerFD_8h.html" target="_top" xlink:title=" ">
<polygon fill="#fff0f0" stroke="red" points="1334,-90.5 1175,-90.5 1175,-71.5 1334,-71.5 1334,-90.5"/>
<text text-anchor="middle" x="1254.5" y="-78.5" font-family="Helvetica,sans-Serif" font-size="10.00">Samples/SampleHandlerFD.h</text>
</a>
</g>
</g>
<!-- Node4&#45;&gt;Node23 -->
<g id="edge16" class="edge">
<title>Node4&#45;&gt;Node23</title>
<path fill="none" stroke="#63b8ff" d="M1355.23,-199.1C1337.32,-190.55 1315.33,-177.98 1299.5,-162 1278.08,-140.38 1263.57,-106.49 1257.59,-90.67"/>
<polygon fill="#63b8ff" stroke="#63b8ff" points="1354.14,-202.45 1364.69,-203.43 1357.05,-196.08 1354.14,-202.45"/>
</g>
<!-- Node6 -->
<g id="node6" class="node">
<title>Node6</title>
<g id="a_node6"><a xlink:href="FitterBase_8cpp.html" target="_top" xlink:title=" ">
<polygon fill="white" stroke="#666666" points="1235.5,-24.5 1115.5,-24.5 1115.5,-5.5 1235.5,-5.5 1235.5,-24.5"/>
<text text-anchor="middle" x="1175.5" y="-12.5" font-family="Helvetica,sans-Serif" font-size="10.00">Fitters/FitterBase.cpp</text>
</a>
</g>
</g>
<!-- Node5&#45;&gt;Node6 -->
<g id="edge5" class="edge">
<title>Node5&#45;&gt;Node6</title>
<path fill="none" stroke="#63b8ff" d="M906.05,-134.35C935.38,-124.92 977,-110.81 1012.5,-96 1067.78,-72.94 1130.79,-40.04 1159.61,-24.61"/>
<polygon fill="#63b8ff" stroke="#63b8ff" points="904.68,-131.12 896.21,-137.49 906.8,-137.79 904.68,-131.12"/>
</g>
<!-- Node7 -->
<g id="node7" class="node">
<title>Node7</title>
<g id="a_node7"><a xlink:href="LikelihoodFit_8h.html" target="_top" xlink:title=" ">
<polygon fill="#fff0f0" stroke="red" points="675,-90.5 554,-90.5 554,-71.5 675,-71.5 675,-90.5"/>
<text text-anchor="middle" x="614.5" y="-78.5" font-family="Helvetica,sans-Serif" font-size="10.00">Fitters/LikelihoodFit.h</text>
</a>
</g>
</g>
<!-- Node5&#45;&gt;Node7 -->
<g id="edge6" class="edge">
<title>Node5&#45;&gt;Node7</title>
<path fill="none" stroke="#63b8ff" d="M824.62,-134.94C774.54,-122.32 693.72,-101.96 648.29,-90.51"/>
<polygon fill="#63b8ff" stroke="#63b8ff" points="823.96,-138.39 834.51,-137.44 825.67,-131.6 823.96,-138.39"/>
</g>
<!-- Node9 -->
<g id="node8" class="node">
<title>Node9</title>
<g id="a_node8"><a xlink:href="MaCh3Factory_8h.html" target="_top" xlink:title="Factory methods for MaCh3 software which streamline initialisation of different objects.">
<polygon fill="#fff0f0" stroke="red" points="811,-24.5 684,-24.5 684,-5.5 811,-5.5 811,-24.5"/>
<text text-anchor="middle" x="747.5" y="-12.5" font-family="Helvetica,sans-Serif" font-size="10.00">Fitters/MaCh3Factory.h</text>
</a>
</g>
</g>
<!-- Node5&#45;&gt;Node9 -->
<g id="edge8" class="edge">
<title>Node5&#45;&gt;Node9</title>
<path fill="none" stroke="#63b8ff" d="M868.16,-127.11C866.91,-109.52 862.57,-83.47 848.5,-66 831.44,-44.82 803.13,-31.9 780.82,-24.51"/>
<polygon fill="#63b8ff" stroke="#63b8ff" points="864.67,-127.43 868.6,-137.27 871.66,-127.12 864.67,-127.43"/>
</g>
<!-- Node16 -->
<g id="node9" class="node">
<title>Node16</title>
<g id="a_node9"><a xlink:href="PredictiveThrower_8h.html" target="_top" xlink:title=" ">
<polygon fill="#fff0f0" stroke="red" points="840,-90.5 693,-90.5 693,-71.5 840,-71.5 840,-90.5"/>
<text text-anchor="middle" x="766.5" y="-78.5" font-family="Helvetica,sans-Serif" font-size="10.00">Fitters/PredictiveThrower.h</text>
</a>
</g>
</g>
<!-- Node5&#45;&gt;Node16 -->
<g id="edge9" class="edge">
<title>Node5&#45;&gt;Node16</title>
<path fill="none" stroke="#63b8ff" d="M846.22,-132.02C826.16,-119.43 797.3,-101.32 780.36,-90.7"/>
<polygon fill="#63b8ff" stroke="#63b8ff" points="844.41,-135.02 854.74,-137.37 848.13,-129.09 844.41,-135.02"/>
</g>
<!-- Node18 -->
<g id="node10" class="node">
<title>Node18</title>
<g id="a_node10"><a xlink:href="mcmc_8h.html" target="_top" xlink:title=" ">
<polygon fill="#fff0f0" stroke="red" points="986,-90.5 897,-90.5 897,-71.5 986,-71.5 986,-90.5"/>
<text text-anchor="middle" x="941.5" y="-78.5" font-family="Helvetica,sans-Serif" font-size="10.00">Fitters/mcmc.h</text>
</a>
</g>
</g>
<!-- Node5&#45;&gt;Node18 -->
<g id="edge10" class="edge">
<title>Node5&#45;&gt;Node18</title>
<path fill="none" stroke="#63b8ff" d="M885.98,-130.68C900.14,-118.26 919.62,-101.18 931.34,-90.91"/>
<polygon fill="#63b8ff" stroke="#63b8ff" points="883.56,-128.14 878.35,-137.37 888.17,-133.41 883.56,-128.14"/>
</g>
<!-- Node13 -->
<g id="node11" class="node">
<title>Node13</title>
<g id="a_node11"><a xlink:href="fitters_8cpp.html" target="_top" xlink:title=" ">
<polygon fill="white" stroke="#666666" points="1028.5,-24.5 926.5,-24.5 926.5,-5.5 1028.5,-5.5 1028.5,-24.5"/>
<text text-anchor="middle" x="977.5" y="-12.5" font-family="Helvetica,sans-Serif" font-size="10.00">python/fitters.cpp</text>
</a>
</g>
</g>
<!-- Node5&#45;&gt;Node13 -->
<g id="edge13" class="edge">
<title>Node5&#45;&gt;Node13</title>
<path fill="none" stroke="#63b8ff" d="M911.22,-134.63C943.79,-124.99 984.68,-110.47 994.5,-96 1009.74,-73.56 992.77,-40.07 983.18,-24.51"/>
<polygon fill="#63b8ff" stroke="#63b8ff" points="910.06,-131.32 901.42,-137.45 912,-138.04 910.06,-131.32"/>
</g>
<!-- Node7&#45;&gt;Node9 -->
<g id="edge7" class="edge">
<title>Node7&#45;&gt;Node9</title>
<path fill="none" stroke="#63b8ff" d="M641.46,-67.03C667.67,-54.42 706.75,-35.61 729.42,-24.7"/>
<polygon fill="#63b8ff" stroke="#63b8ff" points="639.93,-63.88 632.44,-71.37 642.97,-70.19 639.93,-63.88"/>
</g>
<!-- Node18&#45;&gt;Node9 -->
<g id="edge11" class="edge">
<title>Node18&#45;&gt;Node9</title>
<path fill="none" stroke="#63b8ff" d="M905.62,-68.16C867.33,-55.53 807.59,-35.82 773.56,-24.6"/>
<polygon fill="#63b8ff" stroke="#63b8ff" points="904.74,-71.56 915.34,-71.37 906.94,-64.91 904.74,-71.56"/>
</g>
<!-- Node18&#45;&gt;Node13 -->
<g id="edge12" class="edge">
<title>Node18&#45;&gt;Node13</title>
<path fill="none" stroke="#63b8ff" d="M951.32,-62.55C958.17,-50.36 967.03,-34.61 972.49,-24.91"/>
<polygon fill="#63b8ff" stroke="#63b8ff" points="948.21,-60.94 946.36,-71.37 954.31,-64.37 948.21,-60.94"/>
</g>
<!-- Node23&#45;&gt;Node6 -->
<g id="edge17" class="edge">
<title>Node23&#45;&gt;Node6</title>
<path fill="none" stroke="#63b8ff" d="M1235.97,-64.99C1220.5,-52.46 1199,-35.04 1186.24,-24.7"/>
<polygon fill="#63b8ff" stroke="#63b8ff" points="1233.87,-67.79 1243.85,-71.37 1238.28,-62.35 1233.87,-67.79"/>
</g>
<!-- Node26&#45;&gt;Node23 -->
<g id="edge19" class="edge">
<title>Node26&#45;&gt;Node23</title>
<path fill="none" stroke="#63b8ff" d="M1851.73,-201.45C1726.25,-176.35 1412.04,-113.51 1297.31,-90.56"/>
<polygon fill="#63b8ff" stroke="#63b8ff" points="1851.36,-204.94 1861.85,-203.47 1852.73,-198.08 1851.36,-204.94"/>
</g>
<!-- Node27 -->
<g id="node16" class="node">
<title>Node27</title>
<g id="a_node16"><a xlink:href="BinnedSplineHandler_8cpp.html" target="_top" xlink:title=" ">
<polygon fill="white" stroke="#666666" points="2093.5,-156.5 1917.5,-156.5 1917.5,-137.5 2093.5,-137.5 2093.5,-156.5"/>
<text text-anchor="middle" x="2005.5" y="-144.5" font-family="Helvetica,sans-Serif" font-size="10.00">Splines/BinnedSplineHandler.cpp</text>
</a>
</g>
</g>
<!-- Node26&#45;&gt;Node27 -->
<g id="edge20" class="edge">
<title>Node26&#45;&gt;Node27</title>
<path fill="none" stroke="#63b8ff" d="M1926.83,-197.85C1946.69,-185.27 1975.08,-167.28 1991.77,-156.7"/>
<polygon fill="#63b8ff" stroke="#63b8ff" points="1924.69,-195.06 1918.12,-203.37 1928.44,-200.97 1924.69,-195.06"/>
</g>
<!-- Node28&#45;&gt;Node4 -->
<g id="edge63" class="edge">
<title>Node28&#45;&gt;Node4</title>
<path fill="none" stroke="#63b8ff" d="M1037.79,-324.84C1052.44,-316.36 1071.35,-305.02 1087.5,-294 1105.57,-281.68 1106.56,-272.97 1126.5,-264 1145.28,-255.55 1265.23,-234.42 1335.47,-222.51"/>
<polygon fill="#63b8ff" stroke="#63b8ff" points="1035.78,-321.95 1028.84,-329.96 1039.26,-328.03 1035.78,-321.95"/>
</g>
<!-- Node28&#45;&gt;Node5 -->
<g id="edge28" class="edge">
<title>Node28&#45;&gt;Node5</title>
<path fill="none" stroke="#63b8ff" d="M972.93,-326.32C955.43,-319.3 935.93,-308.86 922.5,-294 884.62,-252.1 872.6,-181.3 869.46,-156.72"/>
<polygon fill="#63b8ff" stroke="#63b8ff" points="971.81,-329.64 982.4,-329.88 974.27,-323.09 971.81,-329.64"/>
</g>
<!-- Node29 -->
<g id="node18" class="node">
<title>Node29</title>
<g id="a_node18"><a xlink:href="CombineMaCh3Chains_8cpp.html" target="_top" xlink:title="Combine chains files produced by MCMC, enforcing the condition that all the files to combine were mad...">
<polygon fill="white" stroke="#666666" points="1289.5,-294 1135.5,-294 1135.5,-264 1289.5,-264 1289.5,-294"/>
<text text-anchor="start" x="1143.5" y="-282" font-family="Helvetica,sans-Serif" font-size="10.00">Diagnostics/CombineMaCh3</text>
<text text-anchor="middle" x="1212.5" y="-271" font-family="Helvetica,sans-Serif" font-size="10.00">Chains.cpp</text>
</a>
</g>
</g>
<!-- Node28&#45;&gt;Node29 -->
<g id="edge22" class="edge">
<title>Node28&#45;&gt;Node29</title>
<path fill="none" stroke="#63b8ff" d="M1052.36,-327.08C1084.49,-317.63 1130.27,-304.17 1164.66,-294.06"/>
<polygon fill="#63b8ff" stroke="#63b8ff" points="1051.04,-323.82 1042.44,-329.99 1053.02,-330.53 1051.04,-323.82"/>
</g>
<!-- Node30 -->
<g id="node19" class="node">
<title>Node30</title>
<g id="a_node19"><a xlink:href="DiagMCMC_8cpp.html" target="_top" xlink:title=" ">
<polygon fill="white" stroke="#666666" points="1092,-156.5 941,-156.5 941,-137.5 1092,-137.5 1092,-156.5"/>
<text text-anchor="middle" x="1016.5" y="-144.5" font-family="Helvetica,sans-Serif" font-size="10.00">Diagnostics/DiagMCMC.cpp</text>
</a>
</g>
</g>
<!-- Node28&#45;&gt;Node30 -->
<g id="edge23" class="edge">
<title>Node28&#45;&gt;Node30</title>
<path fill="none" stroke="#63b8ff" d="M976.48,-325.85C961.95,-318.86 946.8,-308.57 938.5,-294 917.39,-256.92 918.03,-235.44 938.5,-198 949.69,-177.54 973.23,-164.21 991.53,-156.51"/>
<polygon fill="#63b8ff" stroke="#63b8ff" points="975.29,-329.15 985.85,-329.98 978.11,-322.75 975.29,-329.15"/>
</g>
<!-- Node31 -->
<g id="node20" class="node">
<title>Node31</title>
<g id="a_node20"><a xlink:href="GetPenaltyTerm_8cpp.html" target="_top" xlink:title="KS: This file contains the implementation of the function to extract specific penalty terms from syst...">
<polygon fill="white" stroke="#666666" points="1483,-288.5 1308,-288.5 1308,-269.5 1483,-269.5 1483,-288.5"/>
<text text-anchor="middle" x="1395.5" y="-276.5" font-family="Helvetica,sans-Serif" font-size="10.00">Diagnostics/GetPenaltyTerm.cpp</text>
</a>
</g>
</g>
<!-- Node28&#45;&gt;Node31 -->
<g id="edge24" class="edge">
<title>Node28&#45;&gt;Node31</title>
<path fill="none" stroke="#63b8ff" d="M1079.12,-328.45C1152.68,-317.19 1270.68,-299.11 1339.89,-288.52"/>
<polygon fill="#63b8ff" stroke="#63b8ff" points="1078.4,-325.02 1069.05,-329.99 1079.46,-331.94 1078.4,-325.02"/>
</g>
<!-- Node32 -->
<g id="node21" class="node">
<title>Node32</title>
<g id="a_node21"><a xlink:href="ProcessMCMC_8cpp.html" target="_top" xlink:title="Main exectable responsible for different types of MCMC processing like drawing posteriors,...">
<polygon fill="white" stroke="#666666" points="1667.5,-288.5 1501.5,-288.5 1501.5,-269.5 1667.5,-269.5 1667.5,-288.5"/>
<text text-anchor="middle" x="1584.5" y="-276.5" font-family="Helvetica,sans-Serif" font-size="10.00">Diagnostics/ProcessMCMC.cpp</text>
</a>
</g>
</g>
<!-- Node28&#45;&gt;Node32 -->
<g id="edge25" class="edge">
<title>Node28&#45;&gt;Node32</title>
<path fill="none" stroke="#63b8ff" d="M1080.33,-333.48C1172.87,-326.25 1345.17,-311.81 1491.5,-294 1504.47,-292.42 1518.41,-290.46 1531.46,-288.52"/>
<polygon fill="#63b8ff" stroke="#63b8ff" points="1079.97,-330 1070.27,-334.26 1080.51,-336.98 1079.97,-330"/>
</g>
<!-- Node33 -->
<g id="node22" class="node">
<title>Node33</title>
<g id="a_node22"><a xlink:href="RHat_8cpp.html" target="_top" xlink:title="This executable calculates the &#160;estimator for Markov Chain Monte Carlo (MCMC) convergence.">
<polygon fill="white" stroke="#666666" points="1807,-288.5 1686,-288.5 1686,-269.5 1807,-269.5 1807,-288.5"/>
<text text-anchor="middle" x="1746.5" y="-276.5" font-family="Helvetica,sans-Serif" font-size="10.00">Diagnostics/RHat.cpp</text>
</a>
</g>
</g>
<!-- Node28&#45;&gt;Node33 -->
<g id="edge26" class="edge">
<title>Node28&#45;&gt;Node33</title>
<path fill="none" stroke="#63b8ff" d="M1080.18,-336.9C1200.02,-333.38 1459.54,-322.85 1676.5,-294 1686.94,-292.61 1698.17,-290.6 1708.5,-288.54"/>
<polygon fill="#63b8ff" stroke="#63b8ff" points="1079.96,-333.4 1070.07,-337.19 1080.16,-340.4 1079.96,-333.4"/>
</g>
<!-- Node34 -->
<g id="node23" class="node">
<title>Node34</title>
<g id="a_node23"><a xlink:href="RHat__HighMem_8cpp.html" target="_top" xlink:title=" ">
<polygon fill="white" stroke="#666666" points="1998,-288.5 1825,-288.5 1825,-269.5 1998,-269.5 1998,-288.5"/>
<text text-anchor="middle" x="1911.5" y="-276.5" font-family="Helvetica,sans-Serif" font-size="10.00">Diagnostics/RHat_HighMem.cpp</text>
</a>
</g>
</g>
<!-- Node28&#45;&gt;Node34 -->
<g id="edge27" class="edge">
<title>Node28&#45;&gt;Node34</title>
<path fill="none" stroke="#63b8ff" d="M1080.42,-336.81C1218.25,-332.88 1543.69,-321.31 1815.5,-294 1829.58,-292.59 1844.75,-290.59 1858.79,-288.55"/>
<polygon fill="#63b8ff" stroke="#63b8ff" points="1079.93,-333.32 1070.03,-337.1 1080.12,-340.32 1079.93,-333.32"/>
</g>
<!-- Node35 -->
<g id="node24" class="node">
<title>Node35</title>
<g id="a_node24"><a xlink:href="StatisticalUtils_8h.html" target="_top" xlink:title="Utility functions for statistical interpretations in MaCh3.">
<polygon fill="white" stroke="#666666" points="1079,-288.5 948,-288.5 948,-269.5 1079,-269.5 1079,-288.5"/>
<text text-anchor="middle" x="1013.5" y="-276.5" font-family="Helvetica,sans-Serif" font-size="10.00">Fitters/StatisticalUtils.h</text>
</a>
</g>
</g>
<!-- Node28&#45;&gt;Node35 -->
<g id="edge29" class="edge">
<title>Node28&#45;&gt;Node35</title>
<path fill="none" stroke="#63b8ff" d="M1013.5,-319.66C1013.5,-309.24 1013.5,-296.8 1013.5,-288.67"/>
<polygon fill="#63b8ff" stroke="#63b8ff" points="1010,-319.87 1013.5,-329.87 1017,-319.87 1010,-319.87"/>
</g>
<!-- Node50 -->
<g id="node35" class="node">
<title>Node50</title>
<g id="a_node35"><a xlink:href="Manager_8cpp.html" target="_top" xlink:title=" ">
<polygon fill="white" stroke="#666666" points="125,-288.5 0,-288.5 0,-269.5 125,-269.5 125,-288.5"/>
<text text-anchor="middle" x="62.5" y="-276.5" font-family="Helvetica,sans-Serif" font-size="10.00">Manager/Manager.cpp</text>
</a>
</g>
</g>
<!-- Node28&#45;&gt;Node50 -->
<g id="edge45" class="edge">
<title>Node28&#45;&gt;Node50</title>
<path fill="none" stroke="#63b8ff" d="M946.74,-338.33C799.52,-337.27 436.11,-330.77 134.5,-294 123.63,-292.67 111.94,-290.66 101.2,-288.57"/>
<polygon fill="#63b8ff" stroke="#63b8ff" points="946.94,-341.84 956.96,-338.4 946.98,-334.84 946.94,-341.84"/>
</g>
<!-- Node51 -->
<g id="node36" class="node">
<title>Node51</title>
<g id="a_node36"><a xlink:href="AdaptiveMCMCHandler_8h.html" target="_top" xlink:title=" ">
<polygon fill="white" stroke="#666666" points="475,-288.5 278,-288.5 278,-269.5 475,-269.5 475,-288.5"/>
<text text-anchor="middle" x="376.5" y="-276.5" font-family="Helvetica,sans-Serif" font-size="10.00">Parameters/AdaptiveMCMCHandler.h</text>
</a>
</g>
</g>
<!-- Node28&#45;&gt;Node51 -->
<g id="edge46" class="edge">
<title>Node28&#45;&gt;Node51</title>
<path fill="none" stroke="#63b8ff" d="M946.6,-333.65C846.91,-326.23 653.5,-311.12 489.5,-294 474.07,-292.39 457.47,-290.45 441.88,-288.53"/>
<polygon fill="#63b8ff" stroke="#63b8ff" points="946.6,-337.16 956.83,-334.41 947.11,-330.18 946.6,-337.16"/>
</g>
<!-- Node53 -->
<g id="node38" class="node">
<title>Node53</title>
<g id="a_node38"><a xlink:href="ParameterHandlerBase_8h.html" target="_top" xlink:title=" ">
<polygon fill="white" stroke="#666666" points="491.5,-228 327.5,-228 327.5,-198 491.5,-198 491.5,-228"/>
<text text-anchor="start" x="335.5" y="-216" font-family="Helvetica,sans-Serif" font-size="10.00">Parameters/ParameterHandler</text>
<text text-anchor="middle" x="409.5" y="-205" font-family="Helvetica,sans-Serif" font-size="10.00">Base.h</text>
</a>
</g>
</g>
<!-- Node28&#45;&gt;Node53 -->
<g id="edge59" class="edge">
<title>Node28&#45;&gt;Node53</title>
<path fill="none" stroke="#63b8ff" d="M946.66,-337.04C830.85,-333.74 598.03,-323.56 522.5,-294 502.14,-286.03 501.23,-276.79 483.5,-264 466.15,-251.48 446,-237.93 431.11,-228.1"/>
<polygon fill="#63b8ff" stroke="#63b8ff" points="946.73,-340.54 956.82,-337.32 946.92,-333.54 946.73,-340.54"/>
</g>
<!-- Node64 -->
<g id="node42" class="node">
<title>Node64</title>
<g id="a_node42"><a xlink:href="PCAHandler_8h.html" target="_top" xlink:title=" ">
<polygon fill="white" stroke="#666666" points="673,-288.5 532,-288.5 532,-269.5 673,-269.5 673,-288.5"/>
<text text-anchor="middle" x="602.5" y="-276.5" font-family="Helvetica,sans-Serif" font-size="10.00">Parameters/PCAHandler.h</text>
</a>
</g>
</g>
<!-- Node28&#45;&gt;Node64 -->
<g id="edge56" class="edge">
<title>Node28&#45;&gt;Node64</title>
<path fill="none" stroke="#63b8ff" d="M946.89,-330.33C879.97,-321.94 773.93,-308.14 682.5,-294 671.77,-292.34 660.26,-290.41 649.4,-288.53"/>
<polygon fill="#63b8ff" stroke="#63b8ff" points="946.53,-333.81 956.88,-331.58 947.39,-326.87 946.53,-333.81"/>
</g>
<!-- Node66 -->
<g id="node44" class="node">
<title>Node66</title>
<g id="a_node44"><a xlink:href="ParameterTunes_8h.html" target="_top" xlink:title=" ">
<polygon fill="white" stroke="#666666" points="853.5,-288.5 691.5,-288.5 691.5,-269.5 853.5,-269.5 853.5,-288.5"/>
<text text-anchor="middle" x="772.5" y="-276.5" font-family="Helvetica,sans-Serif" font-size="10.00">Parameters/ParameterTunes.h</text>
</a>
</g>
</g>
<!-- Node28&#45;&gt;Node66 -->
<g id="edge60" class="edge">
<title>Node28&#45;&gt;Node66</title>
<path fill="none" stroke="#63b8ff" d="M968.63,-327.61C922.06,-316.3 850.17,-298.85 807.59,-288.52"/>
<polygon fill="#63b8ff" stroke="#63b8ff" points="967.91,-331.04 978.46,-329.99 969.56,-324.23 967.91,-331.04"/>
</g>
<!-- Node68 -->
<g id="node46" class="node">
<title>Node68</title>
<g id="a_node46"><a xlink:href="manager_8cpp.html" target="_top" xlink:title=" ">
<polygon fill="white" stroke="#666666" points="259.5,-288.5 143.5,-288.5 143.5,-269.5 259.5,-269.5 259.5,-288.5"/>
<text text-anchor="middle" x="201.5" y="-276.5" font-family="Helvetica,sans-Serif" font-size="10.00">python/manager.cpp</text>
</a>
</g>
</g>
<!-- Node28&#45;&gt;Node68 -->
<g id="edge64" class="edge">
<title>Node28&#45;&gt;Node68</title>
<path fill="none" stroke="#63b8ff" d="M946.42,-337.78C815.51,-335.64 517.02,-327.21 268.5,-294 258.37,-292.65 247.49,-290.62 237.5,-288.53"/>
<polygon fill="#63b8ff" stroke="#63b8ff" points="946.63,-341.28 956.69,-337.94 946.74,-334.28 946.63,-341.28"/>
</g>
<!-- Node35&#45;&gt;Node20 -->
<g id="edge43" class="edge">
<title>Node35&#45;&gt;Node20</title>
<path fill="none" stroke="#63b8ff" d="M1037.96,-264.26C1054.19,-254.77 1075.71,-241.47 1093.5,-228 1124.44,-204.56 1157.4,-172.41 1172.72,-156.97"/>
<polygon fill="#63b8ff" stroke="#63b8ff" points="1035.99,-261.35 1029.08,-269.38 1039.49,-267.42 1035.99,-261.35"/>
</g>
<!-- Node36 -->
<g id="node25" class="node">
<title>Node36</title>
<g id="a_node25"><a xlink:href="MCMCProcessor_8h.html" target="_top" xlink:title=" ">
<polygon fill="#fff0f0" stroke="red" points="1085,-222.5 948,-222.5 948,-203.5 1085,-203.5 1085,-222.5"/>
<text text-anchor="middle" x="1016.5" y="-210.5" font-family="Helvetica,sans-Serif" font-size="10.00">Fitters/MCMCProcessor.h</text>
</a>
</g>
</g>
<!-- Node35&#45;&gt;Node36 -->
<g id="edge30" class="edge">
<title>Node35&#45;&gt;Node36</title>
<path fill="none" stroke="#63b8ff" d="M1014.39,-259.08C1014.95,-247.13 1015.65,-232.22 1016.08,-222.91"/>
<polygon fill="#63b8ff" stroke="#63b8ff" points="1010.88,-259.22 1013.9,-269.37 1017.87,-259.54 1010.88,-259.22"/>
</g>
<!-- Node49 -->
<g id="node34" class="node">
<title>Node49</title>
<g id="a_node34"><a xlink:href="StatisticalUtils_8cpp.html" target="_top" xlink:title=" ">
<polygon fill="white" stroke="#666666" points="1283.5,-222.5 1141.5,-222.5 1141.5,-203.5 1283.5,-203.5 1283.5,-222.5"/>
<text text-anchor="middle" x="1212.5" y="-210.5" font-family="Helvetica,sans-Serif" font-size="10.00">Fitters/StatisticalUtils.cpp</text>
</a>
</g>
</g>
<!-- Node35&#45;&gt;Node49 -->
<g id="edge44" class="edge">
<title>Node35&#45;&gt;Node49</title>
<path fill="none" stroke="#63b8ff" d="M1050.06,-266.24C1089.33,-253.61 1150.79,-233.85 1185.77,-222.6"/>
<polygon fill="#63b8ff" stroke="#63b8ff" points="1048.79,-262.98 1040.34,-269.37 1050.93,-269.64 1048.79,-262.98"/>
</g>
<!-- Node36&#45;&gt;Node5 -->
<g id="edge32" class="edge">
<title>Node36&#45;&gt;Node5</title>
<path fill="none" stroke="#63b8ff" d="M987.27,-199.36C958.1,-186.75 914.07,-167.71 888.62,-156.7"/>
<polygon fill="#63b8ff" stroke="#63b8ff" points="985.97,-202.61 996.54,-203.37 988.75,-196.19 985.97,-202.61"/>
</g>
<!-- Node36&#45;&gt;Node20 -->
<g id="edge33" class="edge">
<title>Node36&#45;&gt;Node20</title>
<path fill="none" stroke="#63b8ff" d="M1048.27,-199.68C1080.88,-187.03 1130.76,-167.68 1159.34,-156.6"/>
<polygon fill="#63b8ff" stroke="#63b8ff" points="1046.81,-196.49 1038.75,-203.37 1049.34,-203.02 1046.81,-196.49"/>
</g>
<!-- Node36&#45;&gt;Node30 -->
<g id="edge31" class="edge">
<title>Node36&#45;&gt;Node30</title>
<path fill="none" stroke="#63b8ff" d="M1016.5,-193.08C1016.5,-181.13 1016.5,-166.22 1016.5,-156.91"/>
<polygon fill="#63b8ff" stroke="#63b8ff" points="1013,-193.37 1016.5,-203.37 1020,-193.37 1013,-193.37"/>
</g>
<!-- Node36&#45;&gt;Node41 -->
<g id="edge34" class="edge">
<title>Node36&#45;&gt;Node41</title>
<path fill="none" stroke="#63b8ff" d="M1092.47,-202.28C1105.8,-200.74 1119.55,-199.24 1132.5,-198 1372.92,-175.02 1660.21,-157.92 1781.68,-151.16"/>
<polygon fill="#63b8ff" stroke="#63b8ff" points="1091.91,-198.83 1082.38,-203.47 1092.73,-205.78 1091.91,-198.83"/>
</g>
<!-- Node42 -->
<g id="node27" class="node">
<title>Node42</title>
<g id="a_node27"><a xlink:href="inputManager_8cpp.html" target="_top" xlink:title=" ">
<polygon fill="white" stroke="#666666" points="1899,-96 1782,-96 1782,-66 1899,-66 1899,-96"/>
<text text-anchor="start" x="1790" y="-84" font-family="Helvetica,sans-Serif" font-size="10.00">Plotting/plottingUtils</text>
<text text-anchor="middle" x="1840.5" y="-73" font-family="Helvetica,sans-Serif" font-size="10.00">/inputManager.cpp</text>
</a>
</g>
</g>
<!-- Node41&#45;&gt;Node42 -->
<g id="edge35" class="edge">
<title>Node41&#45;&gt;Node42</title>
<path fill="none" stroke="#63b8ff" d="M1840.5,-121.54C1840.5,-112.96 1840.5,-103.61 1840.5,-96.16"/>
<polygon fill="#63b8ff" stroke="#63b8ff" points="1837,-121.8 1840.5,-131.8 1844,-121.8 1837,-121.8"/>
</g>
<!-- Node41&#45;&gt;Node43 -->
<g id="edge36" class="edge">
<title>Node41&#45;&gt;Node43</title>
<path fill="none" stroke="#63b8ff" d="M1909.11,-131.96C2013.14,-113.76 2122.28,-98.45 2187.72,-89.68"/>
<polygon fill="#63b8ff" stroke="#63b8ff" points="1908.31,-128.54 1899.07,-133.72 1909.52,-135.44 1908.31,-128.54"/>
</g>
<!-- Node48 -->
<g id="node33" class="node">
<title>Node48</title>
<g id="a_node33"><a xlink:href="plotting_8cpp.html" target="_top" xlink:title=" ">
<polygon fill="white" stroke="#666666" points="2013,-24.5 1902,-24.5 1902,-5.5 2013,-5.5 2013,-24.5"/>
<text text-anchor="middle" x="1957.5" y="-12.5" font-family="Helvetica,sans-Serif" font-size="10.00">python/plotting.cpp</text>
</a>
</g>
</g>
<!-- Node41&#45;&gt;Node48 -->
<g id="edge42" class="edge">
<title>Node41&#45;&gt;Node48</title>
<path fill="none" stroke="#63b8ff" d="M1872.02,-126.14C1883.95,-117.72 1897.14,-107.26 1907.5,-96 1928.58,-73.11 1945.91,-40.13 1953.45,-24.65"/>
<polygon fill="#63b8ff" stroke="#63b8ff" points="1869.89,-123.35 1863.61,-131.88 1873.84,-129.13 1869.89,-123.35"/>
</g>
<!-- Node44 -->
<g id="node29" class="node">
<title>Node44</title>
<g id="a_node29"><a xlink:href="GetPostfitParamPlots_8cpp.html" target="_top" xlink:title=" ">
<polygon fill="white" stroke="#666666" points="2595.5,-30 2459.5,-30 2459.5,0 2595.5,0 2595.5,-30"/>
<text text-anchor="start" x="2467.5" y="-18" font-family="Helvetica,sans-Serif" font-size="10.00">Plotting/GetPostfitParam</text>
<text text-anchor="middle" x="2527.5" y="-7" font-family="Helvetica,sans-Serif" font-size="10.00">Plots.cpp</text>
</a>
</g>
</g>
<!-- Node43&#45;&gt;Node44 -->
<g id="edge37" class="edge">
<title>Node43&#45;&gt;Node44</title>
<path fill="none" stroke="#63b8ff" d="M2314.95,-64.41C2360.94,-53.94 2421.04,-40.25 2465.6,-30.1"/>
<polygon fill="#63b8ff" stroke="#63b8ff" points="2314.04,-61.03 2305.06,-66.66 2315.59,-67.85 2314.04,-61.03"/>
</g>
<!-- Node45 -->
<g id="node30" class="node">
<title>Node45</title>
<g id="a_node30"><a xlink:href="MatrixPlotter_8cpp.html" target="_top" xlink:title=" ">
<polygon fill="white" stroke="#666666" points="2171.5,-24.5 2031.5,-24.5 2031.5,-5.5 2171.5,-5.5 2171.5,-24.5"/>
<text text-anchor="middle" x="2101.5" y="-12.5" font-family="Helvetica,sans-Serif" font-size="10.00">Plotting/MatrixPlotter.cpp</text>
</a>
</g>
</g>
<!-- Node43&#45;&gt;Node45 -->
<g id="edge38" class="edge">
<title>Node43&#45;&gt;Node45</title>
<path fill="none" stroke="#63b8ff" d="M2205.22,-61.78C2177.5,-49.54 2142.24,-33.98 2120.8,-24.52"/>
<polygon fill="#63b8ff" stroke="#63b8ff" points="2204.12,-65.12 2214.68,-65.95 2206.94,-58.71 2204.12,-65.12"/>
</g>
<!-- Node46 -->
<g id="node31" class="node">
<title>Node46</title>
<g id="a_node31"><a xlink:href="PlotLLH_8cpp.html" target="_top" xlink:title=" ">
<polygon fill="white" stroke="#666666" points="2303.5,-24.5 2189.5,-24.5 2189.5,-5.5 2303.5,-5.5 2303.5,-24.5"/>
<text text-anchor="middle" x="2246.5" y="-12.5" font-family="Helvetica,sans-Serif" font-size="10.00">Plotting/PlotLLH.cpp</text>
</a>
</g>
</g>
<!-- Node43&#45;&gt;Node46 -->
<g id="edge39" class="edge">
<title>Node43&#45;&gt;Node46</title>
<path fill="none" stroke="#63b8ff" d="M2246.5,-55.6C2246.5,-44.8 2246.5,-32.78 2246.5,-24.84"/>
<polygon fill="#63b8ff" stroke="#63b8ff" points="2243,-55.8 2246.5,-65.8 2250,-55.8 2243,-55.8"/>
</g>
<!-- Node47 -->
<g id="node32" class="node">
<title>Node47</title>
<g id="a_node32"><a xlink:href="plottingManager_8cpp.html" target="_top" xlink:title=" ">
<polygon fill="white" stroke="#666666" points="2441,-30 2322,-30 2322,0 2441,0 2441,-30"/>
<text text-anchor="start" x="2330" y="-18" font-family="Helvetica,sans-Serif" font-size="10.00">Plotting/plottingUtils</text>
<text text-anchor="middle" x="2381.5" y="-7" font-family="Helvetica,sans-Serif" font-size="10.00">/plottingManager.cpp</text>
</a>
</g>
</g>
<!-- Node43&#45;&gt;Node47 -->
<g id="edge40" class="edge">
<title>Node43&#45;&gt;Node47</title>
<path fill="none" stroke="#63b8ff" d="M2285.21,-61.65C2306.44,-51.58 2332.35,-39.3 2351.94,-30.01"/>
<polygon fill="#63b8ff" stroke="#63b8ff" points="2283.66,-58.51 2276.13,-65.95 2286.66,-64.83 2283.66,-58.51"/>
</g>
<!-- Node43&#45;&gt;Node48 -->
<g id="edge41" class="edge">
<title>Node43&#45;&gt;Node48</title>
<path fill="none" stroke="#63b8ff" d="M2177.68,-64.76C2120.85,-52.17 2042.26,-34.77 1995.96,-24.52"/>
<polygon fill="#63b8ff" stroke="#63b8ff" points="2177.15,-68.23 2187.67,-66.97 2178.66,-61.39 2177.15,-68.23"/>
</g>
<!-- Node52 -->
<g id="node37" class="node">
<title>Node52</title>
<g id="a_node37"><a xlink:href="AdaptiveMCMCHandler_8cpp.html" target="_top" xlink:title=" ">
<polygon fill="white" stroke="#666666" points="309.5,-222.5 101.5,-222.5 101.5,-203.5 309.5,-203.5 309.5,-222.5"/>
<text text-anchor="middle" x="205.5" y="-210.5" font-family="Helvetica,sans-Serif" font-size="10.00">Parameters/AdaptiveMCMCHandler.cpp</text>
</a>
</g>
</g>
<!-- Node51&#45;&gt;Node52 -->
<g id="edge47" class="edge">
<title>Node51&#45;&gt;Node52</title>
<path fill="none" stroke="#63b8ff" d="M344.01,-265.84C310.22,-253.2 258.21,-233.73 228.47,-222.6"/>
<polygon fill="#63b8ff" stroke="#63b8ff" points="342.85,-269.14 353.44,-269.37 345.3,-262.59 342.85,-269.14"/>
</g>
<!-- Node51&#45;&gt;Node53 -->
<g id="edge48" class="edge">
<title>Node51&#45;&gt;Node53</title>
<path fill="none" stroke="#63b8ff" d="M385.63,-260.3C390.81,-250.24 397.22,-237.81 402.1,-228.36"/>
<polygon fill="#63b8ff" stroke="#63b8ff" points="382.42,-258.88 380.95,-269.37 388.64,-262.08 382.42,-258.88"/>
</g>
<!-- Node53&#45;&gt;Node5 -->
<g id="edge49" class="edge">
<title>Node53&#45;&gt;Node5</title>
<path fill="none" stroke="#63b8ff" d="M502.04,-197.79C619.02,-180.92 744.04,-164.28 813.9,-155.11"/>
<polygon fill="#63b8ff" stroke="#63b8ff" points="501.23,-194.37 491.83,-199.27 502.23,-201.3 501.23,-194.37"/>
</g>
<!-- Node54 -->
<g id="node39" class="node">
<title>Node54</title>
<g id="a_node39"><a xlink:href="ParameterHandlerBase_8cpp.html" target="_top" xlink:title=" ">
<polygon fill="white" stroke="#666666" points="387.5,-162 223.5,-162 223.5,-132 387.5,-132 387.5,-162"/>
<text text-anchor="start" x="231.5" y="-150" font-family="Helvetica,sans-Serif" font-size="10.00">Parameters/ParameterHandler</text>
<text text-anchor="middle" x="305.5" y="-139" font-family="Helvetica,sans-Serif" font-size="10.00">Base.cpp</text>
</a>
</g>
</g>
<!-- Node53&#45;&gt;Node54 -->
<g id="edge50" class="edge">
<title>Node53&#45;&gt;Node54</title>
<path fill="none" stroke="#63b8ff" d="M378.13,-192.69C362.07,-182.82 342.89,-171.01 328.27,-162.01"/>
<polygon fill="#63b8ff" stroke="#63b8ff" points="376.33,-195.69 386.68,-197.95 379.99,-189.73 376.33,-195.69"/>
</g>
<!-- Node55 -->
<g id="node40" class="node">
<title>Node55</title>
<g id="a_node40"><a xlink:href="ParameterHandlerGeneric_8h.html" target="_top" xlink:title=" ">
<polygon fill="#fff0f0" stroke="red" points="607.5,-162 443.5,-162 443.5,-132 607.5,-132 607.5,-162"/>
<text text-anchor="start" x="451.5" y="-150" font-family="Helvetica,sans-Serif" font-size="10.00">Parameters/ParameterHandler</text>
<text text-anchor="middle" x="525.5" y="-139" font-family="Helvetica,sans-Serif" font-size="10.00">Generic.h</text>
</a>
</g>
</g>
<!-- Node53&#45;&gt;Node55 -->
<g id="edge51" class="edge">
<title>Node53&#45;&gt;Node55</title>
<path fill="none" stroke="#63b8ff" d="M443.99,-192.97C462,-183.03 483.65,-171.09 500.1,-162.01"/>
<polygon fill="#63b8ff" stroke="#63b8ff" points="442.02,-190.06 434.96,-197.95 445.4,-196.19 442.02,-190.06"/>
</g>
<!-- Node63 -->
<g id="node41" class="node">
<title>Node63</title>
<g id="a_node41"><a xlink:href="parameters_8cpp.html" target="_top" xlink:title=" ">
<polygon fill="white" stroke="#666666" points="489.5,-90.5 359.5,-90.5 359.5,-71.5 489.5,-71.5 489.5,-90.5"/>
<text text-anchor="middle" x="424.5" y="-78.5" font-family="Helvetica,sans-Serif" font-size="10.00">python/parameters.cpp</text>
</a>
</g>
</g>
<!-- Node53&#45;&gt;Node63 -->
<g id="edge55" class="edge">
<title>Node53&#45;&gt;Node63</title>
<path fill="none" stroke="#63b8ff" d="M412.32,-187.57C415.71,-158.17 421.23,-110.31 423.49,-90.75"/>
<polygon fill="#63b8ff" stroke="#63b8ff" points="408.8,-187.5 411.13,-197.84 415.76,-188.31 408.8,-187.5"/>
</g>
<!-- Node55&#45;&gt;Node9 -->
<g id="edge52" class="edge">
<title>Node55&#45;&gt;Node9</title>
<path fill="none" stroke="#63b8ff" d="M524.93,-121.57C525.87,-103.84 530.1,-80.52 544.5,-66 563.92,-46.41 631.85,-32.46 683.83,-24.35"/>
<polygon fill="#63b8ff" stroke="#63b8ff" points="521.43,-121.68 524.71,-131.75 528.43,-121.83 521.43,-121.68"/>
</g>
<!-- Node55&#45;&gt;Node23 -->
<g id="edge53" class="edge">
<title>Node55&#45;&gt;Node23</title>
<path fill="none" stroke="#63b8ff" d="M617.87,-137.89C762.19,-125.22 1038.7,-100.95 1174.81,-89"/>
<polygon fill="#63b8ff" stroke="#63b8ff" points="617.36,-134.42 607.71,-138.78 617.98,-141.39 617.36,-134.42"/>
</g>
<!-- Node55&#45;&gt;Node63 -->
<g id="edge54" class="edge">
<title>Node55&#45;&gt;Node63</title>
<path fill="none" stroke="#63b8ff" d="M494.51,-126.36C475.67,-114.42 452.55,-99.77 438.16,-90.66"/>
<polygon fill="#63b8ff" stroke="#63b8ff" points="492.76,-129.4 503.08,-131.8 496.51,-123.49 492.76,-129.4"/>
</g>
<!-- Node64&#45;&gt;Node53 -->
<g id="edge58" class="edge">
<title>Node64&#45;&gt;Node53</title>
<path fill="none" stroke="#63b8ff" d="M566.94,-266.21C534.5,-255.45 486.53,-239.54 452.07,-228.12"/>
<polygon fill="#63b8ff" stroke="#63b8ff" points="565.88,-269.54 576.47,-269.37 568.08,-262.9 565.88,-269.54"/>
</g>
<!-- Node65 -->
<g id="node43" class="node">
<title>Node65</title>
<g id="a_node43"><a xlink:href="PCAHandler_8cpp.html" target="_top" xlink:title=" ">
<polygon fill="white" stroke="#666666" points="661.5,-222.5 509.5,-222.5 509.5,-203.5 661.5,-203.5 661.5,-222.5"/>
<text text-anchor="middle" x="585.5" y="-210.5" font-family="Helvetica,sans-Serif" font-size="10.00">Parameters/PCAHandler.cpp</text>
</a>
</g>
</g>
<!-- Node64&#45;&gt;Node65 -->
<g id="edge57" class="edge">
<title>Node64&#45;&gt;Node65</title>
<path fill="none" stroke="#63b8ff" d="M597.57,-259.45C594.38,-247.43 590.37,-232.32 587.87,-222.91"/>
<polygon fill="#63b8ff" stroke="#63b8ff" points="594.26,-260.6 600.21,-269.37 601.02,-258.81 594.26,-260.6"/>
</g>
<!-- Node66&#45;&gt;Node53 -->
<g id="edge61" class="edge">
<title>Node66&#45;&gt;Node53</title>
<path fill="none" stroke="#63b8ff" d="M714.07,-267.7C653.05,-256.94 556.96,-240 489.05,-228.02"/>
<polygon fill="#63b8ff" stroke="#63b8ff" points="713.47,-271.15 723.92,-269.44 714.68,-264.25 713.47,-271.15"/>
</g>
<!-- Node67 -->
<g id="node45" class="node">
<title>Node67</title>
<g id="a_node45"><a xlink:href="ParameterTunes_8cpp.html" target="_top" xlink:title=" ">
<polygon fill="white" stroke="#666666" points="853,-222.5 680,-222.5 680,-203.5 853,-203.5 853,-222.5"/>
<text text-anchor="middle" x="766.5" y="-210.5" font-family="Helvetica,sans-Serif" font-size="10.00">Parameters/ParameterTunes.cpp</text>
</a>
</g>
</g>
<!-- Node66&#45;&gt;Node67 -->
<g id="edge62" class="edge">
<title>Node66&#45;&gt;Node67</title>
<path fill="none" stroke="#63b8ff" d="M770.73,-259.08C769.61,-247.13 768.21,-232.22 767.33,-222.91"/>
<polygon fill="#63b8ff" stroke="#63b8ff" points="767.27,-259.74 771.69,-269.37 774.24,-259.09 767.27,-259.74"/>
</g>
<!-- Node69&#45;&gt;Node2 -->
<g id="edge66" class="edge">
<title>Node69&#45;&gt;Node2</title>
<path fill="none" stroke="#63b8ff" d="M1997.1,-376.61C1987.64,-363.34 1978.53,-344.72 1987.5,-330 2000.62,-308.48 2026.28,-295.83 2047.92,-288.64"/>
<polygon fill="#63b8ff" stroke="#63b8ff" points="1994.59,-379.08 2003.49,-384.82 2000.11,-374.78 1994.59,-379.08"/>
</g>
<!-- Node69&#45;&gt;Node28 -->
<g id="edge67" class="edge">
<title>Node69&#45;&gt;Node28</title>
<path fill="none" stroke="#63b8ff" d="M1947.5,-390.1C1764.87,-380.4 1243.27,-352.7 1070.13,-343.51"/>
<polygon fill="#63b8ff" stroke="#63b8ff" points="1947.32,-393.6 1957.49,-390.63 1947.69,-386.61 1947.32,-393.6"/>
</g>
<!-- Node70 -->
<g id="node48" class="node">
<title>Node70</title>
<g id="a_node48"><a xlink:href="Monitor_8cpp.html" target="_top" xlink:title=" ">
<polygon fill="white" stroke="#666666" points="2115,-349 1996,-349 1996,-330 2115,-330 2115,-349"/>
<text text-anchor="middle" x="2055.5" y="-337" font-family="Helvetica,sans-Serif" font-size="10.00">Manager/Monitor.cpp</text>
</a>
</g>
</g>
<!-- Node69&#45;&gt;Node70 -->
<g id="edge68" class="edge">
<title>Node69&#45;&gt;Node70</title>
<path fill="none" stroke="#63b8ff" d="M2025.23,-376.96C2032.9,-367.72 2042.13,-356.6 2048.37,-349.09"/>
<polygon fill="#63b8ff" stroke="#63b8ff" points="2022.46,-374.82 2018.77,-384.75 2027.85,-379.29 2022.46,-374.82"/>
</g>
<!-- Node71&#45;&gt;Node43 -->
<g id="edge72" class="edge">
<title>Node71&#45;&gt;Node43</title>
<path fill="none" stroke="#63b8ff" d="M2195.2,-125.2C2206.48,-115.7 2219.55,-104.69 2229.68,-96.16"/>
<polygon fill="#63b8ff" stroke="#63b8ff" points="2192.76,-122.68 2187.37,-131.8 2197.27,-128.03 2192.76,-122.68"/>
</g>
<!-- Node71&#45;&gt;Node48 -->
<g id="edge74" class="edge">
<title>Node71&#45;&gt;Node48</title>
<path fill="none" stroke="#63b8ff" d="M2167.42,-122.01C2163.88,-104.16 2156.37,-80.47 2140.5,-66 2129.73,-56.18 2046.37,-36.04 1995.95,-24.54"/>
<polygon fill="#63b8ff" stroke="#63b8ff" points="2163.99,-122.71 2169.11,-131.99 2170.89,-121.54 2163.99,-122.71"/>
</g>
<!-- Node72 -->
<g id="node50" class="node">
<title>Node72</title>
<g id="a_node50"><a xlink:href="styleManager_8cpp.html" target="_top" xlink:title=" ">
<polygon fill="white" stroke="#666666" points="2131,-96 2014,-96 2014,-66 2131,-66 2131,-96"/>
<text text-anchor="start" x="2022" y="-84" font-family="Helvetica,sans-Serif" font-size="10.00">Plotting/plottingUtils</text>
<text text-anchor="middle" x="2072.5" y="-73" font-family="Helvetica,sans-Serif" font-size="10.00">/styleManager.cpp</text>
</a>
</g>
</g>
<!-- Node71&#45;&gt;Node72 -->
<g id="edge73" class="edge">
<title>Node71&#45;&gt;Node72</title>
<path fill="none" stroke="#63b8ff" d="M2140.34,-126.3C2125.42,-116.56 2107.75,-105.02 2094.19,-96.16"/>
<polygon fill="#63b8ff" stroke="#63b8ff" points="2138.46,-129.26 2148.75,-131.8 2142.29,-123.4 2138.46,-129.26"/>
</g>
</g>
</svg>
