<?xml version="1.0" encoding="UTF-8" standalone="no"?>
<!DOCTYPE svg PUBLIC "-//W3C//DTD SVG 1.1//EN"
 "http://www.w3.org/Graphics/SVG/1.1/DTD/svg11.dtd">
<!-- Generated by graphviz version 2.43.0 (0)
 -->
<!-- Title: PySplineBase Pages: 1 -->
<svg width="167pt" height="149pt"
 viewBox="0.00 0.00 167.00 149.00" xmlns="http://www.w3.org/2000/svg" xmlns:xlink="http://www.w3.org/1999/xlink">
<g id="graph0" class="graph" transform="scale(1 1) rotate(0) translate(4 145)">
<title>PySplineBase</title>
<!-- Node1 -->
<g id="node1" class="node">
<title>Node1</title>
<g id="a_node1"><a xlink:title="EW: As SplineBase is an abstract base class we have to do some gymnastics to get it to get it into py...">
<polygon fill="#999999" stroke="#666666" points="121,-19 38,-19 38,0 121,0 121,-19"/>
<text text-anchor="middle" x="79.5" y="-7" font-family="Helvetica,sans-Serif" font-size="10.00">PySplineBase</text>
</a>
</g>
</g>
<!-- Node2 -->
<g id="node2" class="node">
<title>Node2</title>
<g id="a_node2"><a xlink:href="classSplineBase.html" target="_top" xlink:title="Base class for calculating weight from spline.">
<polygon fill="white" stroke="#666666" points="115,-75 44,-75 44,-56 115,-56 115,-75"/>
<text text-anchor="middle" x="79.5" y="-63" font-family="Helvetica,sans-Serif" font-size="10.00">SplineBase</text>
</a>
</g>
</g>
<!-- Node2&#45;&gt;Node1 -->
<g id="edge1" class="edge">
<title>Node2&#45;&gt;Node1</title>
<path fill="none" stroke="#63b8ff" d="M79.5,-45.3C79.5,-36.41 79.5,-26.28 79.5,-19.25"/>
<polygon fill="#63b8ff" stroke="#63b8ff" points="76,-45.58 79.5,-55.58 83,-45.58 76,-45.58"/>
</g>
<!-- Node3 -->
<g id="node3" class="node">
<title>Node3</title>
<g id="a_node3"><a xlink:title=" ">
<polygon fill="white" stroke="#666666" points="159,-141 0,-141 0,-122 159,-122 159,-141"/>
<text text-anchor="middle" x="79.5" y="-129" font-family="Helvetica,sans-Serif" font-size="10.00">std::vector&lt; FastSplineInfo &gt;</text>
</a>
</g>
</g>
<!-- Node3&#45;&gt;Node2 -->
<g id="edge2" class="edge">
<title>Node3&#45;&gt;Node2</title>
<path fill="none" stroke="#9a32cd" stroke-dasharray="5,2" d="M79.5,-111.58C79.5,-99.63 79.5,-84.72 79.5,-75.41"/>
<polygon fill="#9a32cd" stroke="#9a32cd" points="76,-111.87 79.5,-121.87 83,-111.87 76,-111.87"/>
<text text-anchor="middle" x="119" y="-96" font-family="Helvetica,sans-Serif" font-size="10.00"> SplineInfoArray</text>
</g>
</g>
</svg>
