<?xml version="1.0" encoding="UTF-8" standalone="no"?>
<!DOCTYPE svg PUBLIC "-//W3C//DTD SVG 1.1//EN"
 "http://www.w3.org/Graphics/SVG/1.1/DTD/svg11.dtd">
<!-- Generated by graphviz version 2.43.0 (0)
 -->
<!-- Title: SMonolith Pages: 1 -->
<!--zoomable 373 -->
<svg id="main" version="1.1" xmlns="http://www.w3.org/2000/svg" xmlns:xlink="http://www.w3.org/1999/xlink" xml:space="preserve" onload="init(evt)">
<style type="text/css"><![CDATA[
.edge:hover path { stroke: red; }
.edge:hover polygon { stroke: red; fill: red; }
]]></style>
<script type="text/javascript"><![CDATA[
var edges = document.getElementsByTagName('g');
if (edges && edges.length) {
  for (var i=0;i<edges.length;i++) {
    if (edges[i].id.substr(0,4)=='edge') {
      edges[i].setAttribute('class','edge');
    }
  }
}
]]></script>
        <defs>
                <circle id="rim" cx="0" cy="0" r="7"/>
                <circle id="rim2" cx="0" cy="0" r="3.5"/>
                <g id="zoomPlus">
                        <use xlink:href="#rim" fill="#404040">
                                <set attributeName="fill" to="#808080" begin="zoomplus.mouseover" end="zoomplus.mouseout"/>
                        </use>
                        <path d="M-4,0h8M0,-4v8" fill="none" stroke="white" stroke-width="1.5" pointer-events="none"/>
                </g>
                <g id="zoomMin">
                        <use xlink:href="#rim" fill="#404040">
                                <set attributeName="fill" to="#808080" begin="zoomminus.mouseover" end="zoomminus.mouseout"/>
                        </use>
                        <path d="M-4,0h8" fill="none" stroke="white" stroke-width="1.5" pointer-events="none"/>
                </g>
                <g id="dirArrow">
                        <path fill="none" stroke="white" stroke-width="1.5" d="M0,-3.0v7 M-2.5,-0.5L0,-3.0L2.5,-0.5"/>
                </g>
               <g id="resetDef">
                       <use xlink:href="#rim2" fill="#404040">
                               <set attributeName="fill" to="#808080" begin="reset.mouseover" end="reset.mouseout"/>
                       </use>
               </g>
        </defs>

<script type="text/javascript">
var viewWidth = 603;
var viewHeight = 373;
var sectionId = 'dynsection-1';
</script>
<script xlink:href="svgpan.js"/>
<svg id="graph" class="graph">
<g id="viewport">
<title>SMonolith</title>
<!-- Node1 -->
<g id="node1" class="node">
<title>Node1</title>
<g id="a_node1"><a xlink:title="Even&#45;by&#45;event class calculating response for spline parameters. It is possible to use GPU acceleratio...">
<polygon fill="#999999" stroke="#666666" points="595,-198 530,-198 530,-179 595,-179 595,-198"/>
<text text-anchor="middle" x="562.5" y="-186" font-family="Helvetica,sans-Serif" font-size="10.00">SMonolith</text>
</a>
</g>
</g>
<!-- Node2 -->
<g id="node2" class="node">
<title>Node2</title>
<g id="a_node2"><a xlink:href="classSplineBase.html" target="_top" xlink:title="Base class for calculating weight from spline.">
<polygon fill="white" stroke="#666666" points="370.5,-363 299.5,-363 299.5,-344 370.5,-344 370.5,-363"/>
<text text-anchor="middle" x="335" y="-351" font-family="Helvetica,sans-Serif" font-size="10.00">SplineBase</text>
</a>
</g>
</g>
<!-- Node2&#45;&gt;Node1 -->
<g id="edge1" class="edge">
<title>Node2&#45;&gt;Node1</title>
<path fill="none" stroke="#63b8ff" d="M380.57,-359.13C419.51,-361.51 475.39,-358.47 512,-328.5 553.29,-294.7 560.17,-224.02 561.29,-198.21"/>
<polygon fill="#63b8ff" stroke="#63b8ff" points="380.8,-355.64 370.57,-358.37 380.27,-362.62 380.8,-355.64"/>
</g>
<!-- Node3 -->
<g id="node3" class="node">
<title>Node3</title>
<g id="a_node3"><a xlink:title=" ">
<polygon fill="white" stroke="#666666" points="159,-363 0,-363 0,-344 159,-344 159,-363"/>
<text text-anchor="middle" x="79.5" y="-351" font-family="Helvetica,sans-Serif" font-size="10.00">std::vector&lt; FastSplineInfo &gt;</text>
</a>
</g>
</g>
<!-- Node3&#45;&gt;Node2 -->
<g id="edge2" class="edge">
<title>Node3&#45;&gt;Node2</title>
<path fill="none" stroke="#9a32cd" stroke-dasharray="5,2" d="M169.36,-353.5C214.21,-353.5 266.02,-353.5 299.36,-353.5"/>
<polygon fill="#9a32cd" stroke="#9a32cd" points="169.32,-350 159.32,-353.5 169.32,-357 169.32,-350"/>
<text text-anchor="middle" x="216.5" y="-356.5" font-family="Helvetica,sans-Serif" font-size="10.00"> SplineInfoArray</text>
</g>
<!-- Node4 -->
<g id="node4" class="node">
<title>Node4</title>
<g id="a_node4"><a xlink:title=" ">
<polygon fill="white" stroke="#666666" points="388,-325.5 282,-325.5 282,-295.5 388,-295.5 388,-325.5"/>
<text text-anchor="start" x="290" y="-313.5" font-family="Helvetica,sans-Serif" font-size="10.00">std::vector&lt; const</text>
<text text-anchor="middle" x="335" y="-302.5" font-family="Helvetica,sans-Serif" font-size="10.00"> double * &gt;</text>
</a>
</g>
</g>
<!-- Node4&#45;&gt;Node1 -->
<g id="edge3" class="edge">
<title>Node4&#45;&gt;Node1</title>
<path fill="none" stroke="#9a32cd" stroke-dasharray="5,2" d="M398.46,-315.23C434.68,-314.87 479.42,-308.76 512,-285.5 542.31,-263.86 555.29,-218.08 559.65,-198.13"/>
<polygon fill="#9a32cd" stroke="#9a32cd" points="398.02,-311.73 388,-315.18 397.99,-318.73 398.02,-311.73"/>
<text text-anchor="middle" x="463" y="-316.5" font-family="Helvetica,sans-Serif" font-size="10.00"> splineParsPointer</text>
</g>
<!-- Node5 -->
<g id="node5" class="node">
<title>Node5</title>
<g id="a_node5"><a xlink:title=" ">
<polygon fill="white" stroke="#666666" points="387,-277 283,-277 283,-258 387,-258 387,-277"/>
<text text-anchor="middle" x="335" y="-265" font-family="Helvetica,sans-Serif" font-size="10.00">std::vector&lt; int &gt;</text>
</a>
</g>
</g>
<!-- Node5&#45;&gt;Node1 -->
<g id="edge4" class="edge">
<title>Node5&#45;&gt;Node1</title>
<path fill="none" stroke="#9a32cd" stroke-dasharray="5,2" d="M397.25,-262.74C432.29,-258.15 476.24,-249.15 512,-231.5 528.54,-223.34 543.97,-208.29 553.07,-198.33"/>
<polygon fill="#9a32cd" stroke="#9a32cd" points="396.66,-259.29 387.16,-263.97 397.51,-266.23 396.66,-259.29"/>
<text text-anchor="middle" x="463" y="-273.5" font-family="Helvetica,sans-Serif" font-size="10.00"> index_TF1_cpu</text>
<text text-anchor="middle" x="463" y="-262.5" font-family="Helvetica,sans-Serif" font-size="10.00">index_spline_cpu</text>
</g>
<!-- Node6 -->
<g id="node6" class="node">
<title>Node6</title>
<g id="a_node6"><a xlink:title=" ">
<polygon fill="white" stroke="#666666" points="141.5,-220.5 17.5,-220.5 17.5,-190.5 141.5,-190.5 141.5,-220.5"/>
<text text-anchor="start" x="25.5" y="-208.5" font-family="Helvetica,sans-Serif" font-size="10.00">std::vector&lt; unsigned</text>
<text text-anchor="middle" x="79.5" y="-197.5" font-family="Helvetica,sans-Serif" font-size="10.00"> int &gt;</text>
</a>
</g>
</g>
<!-- Node6&#45;&gt;Node1 -->
<g id="edge5" class="edge">
<title>Node6&#45;&gt;Node1</title>
<path fill="none" stroke="#9a32cd" stroke-dasharray="5,2" d="M151.91,-202.98C258.23,-199.22 453.79,-192.31 529.97,-189.61"/>
<polygon fill="#9a32cd" stroke="#9a32cd" points="151.78,-199.48 141.91,-203.33 152.02,-206.47 151.78,-199.48"/>
<text text-anchor="middle" x="335" y="-211.5" font-family="Helvetica,sans-Serif" font-size="10.00"> cpu_nParamPerEvent</text>
<text text-anchor="middle" x="335" y="-200.5" font-family="Helvetica,sans-Serif" font-size="10.00">cpu_nParamPerEvent_tf1</text>
</g>
<!-- Node7 -->
<g id="node7" class="node">
<title>Node7</title>
<g id="a_node7"><a xlink:href="structSplineMonoStruct.html" target="_top" xlink:title="KS: Struct storing information for spline monolith.">
<polygon fill="white" stroke="#666666" points="386,-123 284,-123 284,-104 386,-104 386,-123"/>
<text text-anchor="middle" x="335" y="-111" font-family="Helvetica,sans-Serif" font-size="10.00">SplineMonoStruct</text>
</a>
</g>
</g>
<!-- Node6&#45;&gt;Node7 -->
<g id="edge8" class="edge">
<title>Node6&#45;&gt;Node7</title>
<path fill="none" stroke="#9a32cd" stroke-dasharray="5,2" d="M144.6,-187.49C178.32,-177.22 220.02,-163.27 256,-147.5 264.38,-143.83 265.73,-141.43 274,-137.5 284.94,-132.3 297.33,-127.21 308,-123.07"/>
<polygon fill="#9a32cd" stroke="#9a32cd" points="143.43,-184.18 134.86,-190.42 145.44,-190.89 143.43,-184.18"/>
<text text-anchor="middle" x="216.5" y="-178.5" font-family="Helvetica,sans-Serif" font-size="10.00"> nKnots_arr</text>
</g>
<!-- Node7&#45;&gt;Node1 -->
<g id="edge6" class="edge">
<title>Node7&#45;&gt;Node1</title>
<path fill="none" stroke="#9a32cd" stroke-dasharray="5,2" d="M396.32,-110.49C431.78,-111.14 476.49,-116.29 512,-134.5 531.92,-144.71 547.84,-166.41 555.85,-178.97"/>
<polygon fill="#9a32cd" stroke="#9a32cd" points="396.12,-106.99 386.1,-110.42 396.08,-113.99 396.12,-106.99"/>
<text text-anchor="middle" x="463" y="-137.5" font-family="Helvetica,sans-Serif" font-size="10.00"> cpu_spline_handler</text>
</g>
<!-- Node8 -->
<g id="node8" class="node">
<title>Node8</title>
<g id="a_node8"><a xlink:title=" ">
<polygon fill="white" stroke="#666666" points="136,-82 23,-82 23,-63 136,-63 136,-82"/>
<text text-anchor="middle" x="79.5" y="-70" font-family="Helvetica,sans-Serif" font-size="10.00">std::vector&lt; float &gt;</text>
</a>
</g>
</g>
<!-- Node8&#45;&gt;Node1 -->
<g id="edge11" class="edge">
<title>Node8&#45;&gt;Node1</title>
<path fill="none" stroke="#9a32cd" stroke-dasharray="5,2" d="M132.37,-61.12C219.39,-45.13 396.57,-26.24 512,-106.5 538.08,-124.63 552.8,-161.35 558.59,-178.83"/>
<polygon fill="#9a32cd" stroke="#9a32cd" points="131.64,-57.7 122.47,-63 132.94,-64.57 131.64,-57.7"/>
<text text-anchor="middle" x="335" y="-61.5" font-family="Helvetica,sans-Serif" font-size="10.00"> cpu_coeff_TF1_many</text>
</g>
<!-- Node8&#45;&gt;Node7 -->
<g id="edge7" class="edge">
<title>Node8&#45;&gt;Node7</title>
<path fill="none" stroke="#9a32cd" stroke-dasharray="5,2" d="M146.34,-80.91C179.34,-85.38 219.86,-91.23 256,-97.5 267.03,-99.42 278.89,-101.72 289.95,-103.98"/>
<polygon fill="#9a32cd" stroke="#9a32cd" points="146.74,-77.44 136.36,-79.58 145.81,-84.37 146.74,-77.44"/>
<text text-anchor="middle" x="216.5" y="-111.5" font-family="Helvetica,sans-Serif" font-size="10.00"> coeff_many</text>
<text text-anchor="middle" x="216.5" y="-100.5" font-family="Helvetica,sans-Serif" font-size="10.00">coeff_x</text>
</g>
<!-- Node9 -->
<g id="node9" class="node">
<title>Node9</title>
<g id="a_node9"><a xlink:title=" ">
<polygon fill="white" stroke="#666666" points="131.5,-160.5 27.5,-160.5 27.5,-130.5 131.5,-130.5 131.5,-160.5"/>
<text text-anchor="start" x="35.5" y="-148.5" font-family="Helvetica,sans-Serif" font-size="10.00">std::vector&lt; short</text>
<text text-anchor="middle" x="79.5" y="-137.5" font-family="Helvetica,sans-Serif" font-size="10.00"> int &gt;</text>
</a>
</g>
</g>
<!-- Node9&#45;&gt;Node1 -->
<g id="edge12" class="edge">
<title>Node9&#45;&gt;Node1</title>
<path fill="none" stroke="#9a32cd" stroke-dasharray="5,2" d="M141.93,-148.75C205.57,-152.36 307.87,-158.84 396,-167.5 442.7,-172.09 496.57,-179.28 529.83,-183.94"/>
<polygon fill="#9a32cd" stroke="#9a32cd" points="141.85,-145.24 131.67,-148.18 141.46,-152.23 141.85,-145.24"/>
<text text-anchor="middle" x="335" y="-181.5" font-family="Helvetica,sans-Serif" font-size="10.00"> cpu_nPoints_arr</text>
<text text-anchor="middle" x="335" y="-170.5" font-family="Helvetica,sans-Serif" font-size="10.00">cpu_paramNo_TF1_arr</text>
</g>
<!-- Node9&#45;&gt;Node7 -->
<g id="edge9" class="edge">
<title>Node9&#45;&gt;Node7</title>
<path fill="none" stroke="#9a32cd" stroke-dasharray="5,2" d="M141.96,-137.74C185.4,-132.26 242.91,-125 283.64,-119.86"/>
<polygon fill="#9a32cd" stroke="#9a32cd" points="141.28,-134.3 131.8,-139.02 142.16,-141.24 141.28,-134.3"/>
<text text-anchor="middle" x="216.5" y="-135.5" font-family="Helvetica,sans-Serif" font-size="10.00"> paramNo_arr</text>
</g>
<!-- Node10 -->
<g id="node10" class="node">
<title>Node10</title>
<g id="a_node10"><a xlink:href="classSMonolithGPU.html" target="_top" xlink:title="Class responsible for calculating spline weight on GPU.">
<polygon fill="white" stroke="#666666" points="378,-19 292,-19 292,0 378,0 378,-19"/>
<text text-anchor="middle" x="335" y="-7" font-family="Helvetica,sans-Serif" font-size="10.00">SMonolithGPU</text>
</a>
</g>
</g>
<!-- Node10&#45;&gt;Node1 -->
<g id="edge10" class="edge">
<title>Node10&#45;&gt;Node1</title>
<path fill="none" stroke="#9a32cd" stroke-dasharray="5,2" d="M388.28,-1.77C426.72,0.9 477.99,-2.26 512,-30.5 558.44,-69.06 562,-150.68 561.78,-178.76"/>
<polygon fill="#9a32cd" stroke="#9a32cd" points="387.97,1.72 378.3,-2.61 388.56,-5.26 387.97,1.72"/>
<text text-anchor="middle" x="463" y="-33.5" font-family="Helvetica,sans-Serif" font-size="10.00"> gpu_spline_handler</text>
</g>
</g>
</svg>
        <g id="navigator" transform="translate(0 0)" fill="#404254">
                <rect fill="#f2f5e9" fill-opacity="0.5" stroke="#606060" stroke-width=".5" x="0" y="0" width="60" height="60"/>
                <use id="zoomplus" xlink:href="#zoomPlus" x="17" y="9" onmousedown="handleZoom(evt,'in')"/>
                <use id="zoomminus" xlink:href="#zoomMin" x="42" y="9" onmousedown="handleZoom(evt,'out')"/>
                <use id="reset" xlink:href="#resetDef" x="30" y="36" onmousedown="handleReset()"/>
                <g id="arrowUp" xlink:href="#dirArrow" transform="translate(30 24)" onmousedown="handlePan(0,-1)">
                  <use xlink:href="#rim" fill="#404040">
                        <set attributeName="fill" to="#808080" begin="arrowUp.mouseover" end="arrowUp.mouseout"/>
                  </use>
                  <path fill="none" stroke="white" stroke-width="1.5" d="M0,-3.0v7 M-2.5,-0.5L0,-3.0L2.5,-0.5"/>
                </g>
                <g id="arrowRight" xlink:href="#dirArrow" transform="rotate(90) translate(36 -43)" onmousedown="handlePan(1,0)">
                  <use xlink:href="#rim" fill="#404040">
                        <set attributeName="fill" to="#808080" begin="arrowRight.mouseover" end="arrowRight.mouseout"/>
                  </use>
                  <path fill="none" stroke="white" stroke-width="1.5" d="M0,-3.0v7 M-2.5,-0.5L0,-3.0L2.5,-0.5"/>
                </g>
                <g id="arrowDown" xlink:href="#dirArrow" transform="rotate(180) translate(-30 -48)" onmousedown="handlePan(0,1)">
                  <use xlink:href="#rim" fill="#404040">
                        <set attributeName="fill" to="#808080" begin="arrowDown.mouseover" end="arrowDown.mouseout"/>
                  </use>
                  <path fill="none" stroke="white" stroke-width="1.5" d="M0,-3.0v7 M-2.5,-0.5L0,-3.0L2.5,-0.5"/>
                </g>
                <g id="arrowLeft" xlink:href="#dirArrow" transform="rotate(270) translate(-36 17)" onmousedown="handlePan(-1,0)">
                  <use xlink:href="#rim" fill="#404040">
                        <set attributeName="fill" to="#808080" begin="arrowLeft.mouseover" end="arrowLeft.mouseout"/>
                  </use>
                  <path fill="none" stroke="white" stroke-width="1.5" d="M0,-3.0v7 M-2.5,-0.5L0,-3.0L2.5,-0.5"/>
                </g>
        </g>
        <svg viewBox="0 0 15 15" width="100%" height="30px" preserveAspectRatio="xMaxYMin meet">
         <g id="arrow_out" transform="scale(0.3 0.3)">
          <a xlink:href="classSMonolith__coll__graph_org.svg" target="_base">
           <rect id="button" ry="5" rx="5" y="6" x="6" height="38" width="38"
                fill="#f2f5e9" fill-opacity="0.5" stroke="#606060" stroke-width="1.0"/>
           <path id="arrow"
             d="M 11.500037,31.436501 C 11.940474,20.09759 22.043105,11.32322 32.158766,21.979434 L 37.068811,17.246167 C 37.068811,17.246167 37.088388,32 37.088388,32 L 22.160133,31.978069 C 22.160133,31.978069 26.997745,27.140456 26.997745,27.140456 C 18.528582,18.264221 13.291696,25.230495 11.500037,31.436501 z"
             style="fill:#404040;"/>
          </a>
         </g>
        </svg>
</svg>
