<?xml version="1.0" encoding="UTF-8" standalone="no"?>
<!DOCTYPE svg PUBLIC "-//W3C//DTD SVG 1.1//EN"
 "http://www.w3.org/Graphics/SVG/1.1/DTD/svg11.dtd">
<!-- Generated by graphviz version 2.43.0 (0)
 -->
<!-- Title: adaptive_mcmc::AdaptiveMCMCHandler Pages: 1 -->
<svg width="365pt" height="182pt"
 viewBox="0.00 0.00 365.00 182.00" xmlns="http://www.w3.org/2000/svg" xmlns:xlink="http://www.w3.org/1999/xlink">
<g id="graph0" class="graph" transform="scale(1 1) rotate(0) translate(4 178)">
<title>adaptive_mcmc::AdaptiveMCMCHandler</title>
<!-- Node1 -->
<g id="node1" class="node">
<title>Node1</title>
<g id="a_node1"><a xlink:title="Contains information about adaptive covariance matrix .">
<polygon fill="#999999" stroke="#666666" points="270,-19 56,-19 56,0 270,0 270,-19"/>
<text text-anchor="middle" x="163" y="-7" font-family="Helvetica,sans-Serif" font-size="10.00">adaptive_mcmc::AdaptiveMCMCHandler</text>
</a>
</g>
</g>
<!-- Node2 -->
<g id="node2" class="node">
<title>Node2</title>
<g id="a_node2"><a xlink:title=" ">
<polygon fill="white" stroke="#666666" points="84.5,-107 19.5,-107 19.5,-88 84.5,-88 84.5,-107"/>
<text text-anchor="middle" x="52" y="-95" font-family="Helvetica,sans-Serif" font-size="10.00">std::string</text>
</a>
</g>
</g>
<!-- Node2&#45;&gt;Node1 -->
<g id="edge1" class="edge">
<title>Node2&#45;&gt;Node1</title>
<path fill="none" stroke="#9a32cd" stroke-dasharray="5,2" d="M53.43,-77.65C55.4,-64.57 60.05,-47.64 71,-37 79.46,-28.78 90.31,-23.07 101.56,-19.13"/>
<polygon fill="#9a32cd" stroke="#9a32cd" points="49.92,-77.58 52.3,-87.91 56.87,-78.35 49.92,-77.58"/>
<text text-anchor="middle" x="115" y="-51" font-family="Helvetica,sans-Serif" font-size="10.00"> output_file_name</text>
</g>
<!-- Node3 -->
<g id="node3" class="node">
<title>Node3</title>
<g id="a_node3"><a xlink:title=" ">
<polygon fill="white" stroke="#666666" points="104,-174 0,-174 0,-144 104,-144 104,-174"/>
<text text-anchor="start" x="8" y="-162" font-family="Helvetica,sans-Serif" font-size="10.00">std::basic_string&lt;</text>
<text text-anchor="middle" x="52" y="-151" font-family="Helvetica,sans-Serif" font-size="10.00"> Char &gt;</text>
</a>
</g>
</g>
<!-- Node3&#45;&gt;Node2 -->
<g id="edge2" class="edge">
<title>Node3&#45;&gt;Node2</title>
<path fill="none" stroke="#63b8ff" d="M52,-133.79C52,-124.36 52,-114.15 52,-107.16"/>
<polygon fill="#63b8ff" stroke="#63b8ff" points="48.5,-133.9 52,-143.9 55.5,-133.9 48.5,-133.9"/>
</g>
<!-- Node4 -->
<g id="node4" class="node">
<title>Node4</title>
<g id="a_node4"><a xlink:title=" ">
<polygon fill="white" stroke="#666666" points="215,-107 111,-107 111,-88 215,-88 215,-107"/>
<text text-anchor="middle" x="163" y="-95" font-family="Helvetica,sans-Serif" font-size="10.00">std::vector&lt; int &gt;</text>
</a>
</g>
</g>
<!-- Node4&#45;&gt;Node1 -->
<g id="edge3" class="edge">
<title>Node4&#45;&gt;Node1</title>
<path fill="none" stroke="#9a32cd" stroke-dasharray="5,2" d="M163,-77.91C163,-59.67 163,-32.65 163,-19.03"/>
<polygon fill="#9a32cd" stroke="#9a32cd" points="159.5,-77.94 163,-87.94 166.5,-77.94 159.5,-77.94"/>
<text text-anchor="start" x="163" y="-62" font-family="Helvetica,sans-Serif" font-size="10.00"> adapt_block_matrix</text>
<text text-anchor="middle" x="213" y="-51" font-family="Helvetica,sans-Serif" font-size="10.00">_indices</text>
<text text-anchor="middle" x="213" y="-40" font-family="Helvetica,sans-Serif" font-size="10.00">adapt_block_sizes</text>
</g>
<!-- Node5 -->
<g id="node5" class="node">
<title>Node5</title>
<g id="a_node5"><a xlink:title=" ">
<polygon fill="white" stroke="#666666" points="357,-107 233,-107 233,-88 357,-88 357,-107"/>
<text text-anchor="middle" x="295" y="-95" font-family="Helvetica,sans-Serif" font-size="10.00">std::vector&lt; double &gt;</text>
</a>
</g>
</g>
<!-- Node5&#45;&gt;Node1 -->
<g id="edge4" class="edge">
<title>Node5&#45;&gt;Node1</title>
<path fill="none" stroke="#9a32cd" stroke-dasharray="5,2" d="M290.74,-77.8C286.77,-64.55 279.52,-47.34 267,-37 257.01,-28.75 244.79,-23.03 232.27,-19.07"/>
<polygon fill="#9a32cd" stroke="#9a32cd" points="287.43,-78.99 293.35,-87.78 294.2,-77.22 287.43,-78.99"/>
<text text-anchor="middle" x="314.5" y="-62" font-family="Helvetica,sans-Serif" font-size="10.00"> _fCurrVal</text>
<text text-anchor="middle" x="314.5" y="-51" font-family="Helvetica,sans-Serif" font-size="10.00">_fFixedPars</text>
<text text-anchor="middle" x="314.5" y="-40" font-family="Helvetica,sans-Serif" font-size="10.00">par_means</text>
</g>
</g>
</svg>
