<?xml version="1.0" encoding="UTF-8" standalone="no"?>
<!DOCTYPE svg PUBLIC "-//W3C//DTD SVG 1.1//EN"
 "http://www.w3.org/Graphics/SVG/1.1/DTD/svg11.dtd">
<!-- Generated by graphviz version 2.43.0 (0)
 -->
<!-- Title: BinnedSplineHandler Pages: 1 -->
<svg width="1309pt" height="1013pt"
 viewBox="0.00 0.00 1309.00 1012.75" xmlns="http://www.w3.org/2000/svg" xmlns:xlink="http://www.w3.org/1999/xlink">
<g id="graph0" class="graph" transform="scale(1 1) rotate(0) translate(4 1008.75)">
<title>BinnedSplineHandler</title>
<!-- Node1 -->
<g id="node1" class="node">
<title>Node1</title>
<g id="a_node1"><a xlink:title="Bin&#45;by&#45;bin class calculating response for spline parameters.">
<polygon fill="#999999" stroke="#666666" points="1301,-338.99 1182,-338.99 1182,-319.99 1301,-319.99 1301,-338.99"/>
<text text-anchor="middle" x="1241.5" y="-326.99" font-family="Helvetica,sans-Serif" font-size="10.00">BinnedSplineHandler</text>
</a>
</g>
</g>
<!-- Node2 -->
<g id="node2" class="node">
<title>Node2</title>
<g id="a_node2"><a xlink:href="classSplineBase.html" target="_top" xlink:title="Base class for calculating weight from spline.">
<polygon fill="white" stroke="#666666" points="966.5,-999.99 895.5,-999.99 895.5,-980.99 966.5,-980.99 966.5,-999.99"/>
<text text-anchor="middle" x="931" y="-987.99" font-family="Helvetica,sans-Serif" font-size="10.00">SplineBase</text>
</a>
</g>
</g>
<!-- Node2&#45;&gt;Node1 -->
<g id="edge1" class="edge">
<title>Node2&#45;&gt;Node1</title>
<path fill="none" stroke="#63b8ff" d="M976.73,-999.69C1029.24,-1007.61 1115.32,-1011.16 1164,-962.49 1210.28,-916.21 1236.34,-415.2 1240.04,-339.14"/>
<polygon fill="#63b8ff" stroke="#63b8ff" points="977.13,-996.21 966.7,-998.06 976.01,-1003.11 977.13,-996.21"/>
</g>
<!-- Node3 -->
<g id="node3" class="node">
<title>Node3</title>
<g id="a_node3"><a xlink:title=" ">
<polygon fill="white" stroke="#666666" points="643,-1002.99 484,-1002.99 484,-983.99 643,-983.99 643,-1002.99"/>
<text text-anchor="middle" x="563.5" y="-990.99" font-family="Helvetica,sans-Serif" font-size="10.00">std::vector&lt; FastSplineInfo &gt;</text>
</a>
</g>
</g>
<!-- Node3&#45;&gt;Node2 -->
<g id="edge2" class="edge">
<title>Node3&#45;&gt;Node2</title>
<path fill="none" stroke="#9a32cd" stroke-dasharray="5,2" d="M653.65,-992.76C731.53,-992.12 840.46,-991.22 895.4,-990.77"/>
<polygon fill="#9a32cd" stroke="#9a32cd" points="653.33,-989.26 643.36,-992.84 653.39,-996.26 653.33,-989.26"/>
<text text-anchor="middle" x="749.5" y="-995.49" font-family="Helvetica,sans-Serif" font-size="10.00"> SplineInfoArray</text>
</g>
<!-- Node4 -->
<g id="node4" class="node">
<title>Node4</title>
<g id="a_node4"><a xlink:href="classParameterHandlerGeneric.html" target="_top" xlink:title="Class responsible for handling of systematic error parameters with different types defined in the con...">
<polygon fill="white" stroke="#666666" points="1002.5,-747.99 859.5,-747.99 859.5,-728.99 1002.5,-728.99 1002.5,-747.99"/>
<text text-anchor="middle" x="931" y="-735.99" font-family="Helvetica,sans-Serif" font-size="10.00">ParameterHandlerGeneric</text>
</a>
</g>
</g>
<!-- Node4&#45;&gt;Node1 -->
<g id="edge3" class="edge">
<title>Node4&#45;&gt;Node1</title>
<path fill="none" stroke="#9a32cd" stroke-dasharray="5,2" d="M949.49,-721.31C990.33,-680.62 1093.83,-574.13 1164,-472.49 1196.47,-425.45 1225.55,-363.1 1236.2,-339.29"/>
<polygon fill="#9a32cd" stroke="#9a32cd" points="946.83,-719.02 942.19,-728.55 951.75,-724 946.83,-719.02"/>
<text text-anchor="middle" x="1102" y="-624.49" font-family="Helvetica,sans-Serif" font-size="10.00"> xsec</text>
</g>
<!-- Node5 -->
<g id="node5" class="node">
<title>Node5</title>
<g id="a_node5"><a xlink:href="classParameterHandlerBase.html" target="_top" xlink:title="Base class responsible for handling of systematic error parameters. Capable of using PCA or using ada...">
<polygon fill="white" stroke="#666666" points="628,-701.99 499,-701.99 499,-682.99 628,-682.99 628,-701.99"/>
<text text-anchor="middle" x="563.5" y="-689.99" font-family="Helvetica,sans-Serif" font-size="10.00">ParameterHandlerBase</text>
</a>
</g>
</g>
<!-- Node5&#45;&gt;Node4 -->
<g id="edge4" class="edge">
<title>Node5&#45;&gt;Node4</title>
<path fill="none" stroke="#63b8ff" d="M638.05,-701.52C689.56,-707.88 759.99,-716.62 822,-724.49 834.1,-726.02 846.96,-727.68 859.42,-729.29"/>
<polygon fill="#63b8ff" stroke="#63b8ff" points="638.36,-698.04 628,-700.29 637.5,-704.98 638.36,-698.04"/>
</g>
<!-- Node6 -->
<g id="node6" class="node">
<title>Node6</title>
<g id="a_node6"><a xlink:title=" ">
<polygon fill="white" stroke="#666666" points="264.5,-387.99 199.5,-387.99 199.5,-368.99 264.5,-368.99 264.5,-387.99"/>
<text text-anchor="middle" x="232" y="-375.99" font-family="Helvetica,sans-Serif" font-size="10.00">std::string</text>
</a>
</g>
</g>
<!-- Node6&#45;&gt;Node5 -->
<g id="edge5" class="edge">
<title>Node6&#45;&gt;Node5</title>
<path fill="none" stroke="#9a32cd" stroke-dasharray="5,2" d="M274.68,-385.86C331.31,-396.77 428.05,-418.95 450,-446.49 481.68,-486.23 434.08,-636.64 468,-674.49 476.03,-683.44 487.01,-688.79 498.66,-691.84"/>
<polygon fill="#9a32cd" stroke="#9a32cd" points="275.08,-382.37 264.6,-383.95 273.78,-389.25 275.08,-382.37"/>
<text text-anchor="middle" x="395.5" y="-460.49" font-family="Helvetica,sans-Serif" font-size="10.00"> inputFile</text>
<text text-anchor="middle" x="395.5" y="-449.49" font-family="Helvetica,sans-Serif" font-size="10.00">matrixName</text>
</g>
<!-- Node32 -->
<g id="node32" class="node">
<title>Node32</title>
<g id="a_node32"><a xlink:href="classMaCh3Modes.html" target="_top" xlink:title="KS: Class describing MaCh3 modes used in the analysis, it is being initialised from config.">
<polygon fill="white" stroke="#666666" points="605,-247.99 522,-247.99 522,-228.99 605,-228.99 605,-247.99"/>
<text text-anchor="middle" x="563.5" y="-235.99" font-family="Helvetica,sans-Serif" font-size="10.00">MaCh3Modes</text>
</a>
</g>
</g>
<!-- Node6&#45;&gt;Node32 -->
<g id="edge39" class="edge">
<title>Node6&#45;&gt;Node32</title>
<path fill="none" stroke="#9a32cd" stroke-dasharray="5,2" d="M264.59,-364.85C286.09,-355.61 315.21,-343.19 341,-332.49 389.26,-312.47 401.9,-308.88 450,-288.49 482.08,-274.89 518.91,-258.34 541.45,-248.11"/>
<polygon fill="#9a32cd" stroke="#9a32cd" points="263.09,-361.68 255.29,-368.85 265.86,-368.11 263.09,-361.68"/>
<text text-anchor="middle" x="395.5" y="-346.49" font-family="Helvetica,sans-Serif" font-size="10.00"> Generator</text>
<text text-anchor="middle" x="395.5" y="-335.49" font-family="Helvetica,sans-Serif" font-size="10.00">Title</text>
</g>
<!-- Node7 -->
<g id="node7" class="node">
<title>Node7</title>
<g id="a_node7"><a xlink:title=" ">
<polygon fill="white" stroke="#666666" points="104,-393.49 0,-393.49 0,-363.49 104,-363.49 104,-393.49"/>
<text text-anchor="start" x="8" y="-381.49" font-family="Helvetica,sans-Serif" font-size="10.00">std::basic_string&lt;</text>
<text text-anchor="middle" x="52" y="-370.49" font-family="Helvetica,sans-Serif" font-size="10.00"> Char &gt;</text>
</a>
</g>
</g>
<!-- Node7&#45;&gt;Node6 -->
<g id="edge6" class="edge">
<title>Node7&#45;&gt;Node6</title>
<path fill="none" stroke="#63b8ff" d="M114.33,-378.49C142.93,-378.49 175.76,-378.49 199.3,-378.49"/>
<polygon fill="#63b8ff" stroke="#63b8ff" points="114.01,-374.99 104.01,-378.49 114.01,-381.99 114.01,-374.99"/>
</g>
<!-- Node8 -->
<g id="node8" class="node">
<title>Node8</title>
<g id="a_node8"><a xlink:title=" ">
<polygon fill="white" stroke="#666666" points="297.5,-696.49 166.5,-696.49 166.5,-666.49 297.5,-666.49 297.5,-696.49"/>
<text text-anchor="start" x="174.5" y="-684.49" font-family="Helvetica,sans-Serif" font-size="10.00">std::vector&lt; std::vector</text>
<text text-anchor="middle" x="232" y="-673.49" font-family="Helvetica,sans-Serif" font-size="10.00">&lt; double &gt; &gt;</text>
</a>
</g>
</g>
<!-- Node8&#45;&gt;Node5 -->
<g id="edge7" class="edge">
<title>Node8&#45;&gt;Node5</title>
<path fill="none" stroke="#9a32cd" stroke-dasharray="5,2" d="M307.84,-683.99C365.44,-685.91 444.17,-688.54 498.78,-690.36"/>
<polygon fill="#9a32cd" stroke="#9a32cd" points="307.82,-680.48 297.71,-683.65 307.58,-687.48 307.82,-680.48"/>
<text text-anchor="middle" x="395.5" y="-691.49" font-family="Helvetica,sans-Serif" font-size="10.00"> InvertCovMatrix</text>
</g>
<!-- Node9 -->
<g id="node9" class="node">
<title>Node9</title>
<g id="a_node9"><a xlink:title=" ">
<polygon fill="white" stroke="#666666" points="299,-648.49 165,-648.49 165,-618.49 299,-618.49 299,-648.49"/>
<text text-anchor="start" x="173" y="-636.49" font-family="Helvetica,sans-Serif" font-size="10.00">std::vector&lt; std::unique</text>
<text text-anchor="middle" x="232" y="-625.49" font-family="Helvetica,sans-Serif" font-size="10.00">_ptr&lt; TRandom3 &gt; &gt;</text>
</a>
</g>
</g>
<!-- Node9&#45;&gt;Node5 -->
<g id="edge8" class="edge">
<title>Node9&#45;&gt;Node5</title>
<path fill="none" stroke="#9a32cd" stroke-dasharray="5,2" d="M309.45,-644.14C351.19,-650.46 403.67,-659.24 450,-669.49 458.11,-671.28 459.91,-672.6 468,-674.49 481.01,-677.53 495.12,-680.43 508.37,-682.98"/>
<polygon fill="#9a32cd" stroke="#9a32cd" points="309.76,-640.64 299.35,-642.62 308.72,-647.57 309.76,-640.64"/>
<text text-anchor="middle" x="395.5" y="-672.49" font-family="Helvetica,sans-Serif" font-size="10.00"> random_number</text>
</g>
<!-- Node10 -->
<g id="node10" class="node">
<title>Node10</title>
<g id="a_node10"><a xlink:title=" ">
<polygon fill="white" stroke="#666666" points="302,-920.99 162,-920.99 162,-901.99 302,-901.99 302,-920.99"/>
<text text-anchor="middle" x="232" y="-908.99" font-family="Helvetica,sans-Serif" font-size="10.00">std::vector&lt; std::string &gt;</text>
</a>
</g>
</g>
<!-- Node10&#45;&gt;Node1 -->
<g id="edge25" class="edge">
<title>Node10&#45;&gt;Node1</title>
<path fill="none" stroke="#9a32cd" stroke-dasharray="5,2" d="M278.35,-923.49C379.85,-948 631.37,-995.63 822,-922.49 1007,-851.51 1059.65,-804.93 1164,-636.49 1228.07,-533.06 1238.54,-378.78 1240.2,-339.08"/>
<polygon fill="#9a32cd" stroke="#9a32cd" points="278.98,-920.04 268.43,-921.05 277.31,-926.84 278.98,-920.04"/>
<text text-anchor="middle" x="749.5" y="-969.49" font-family="Helvetica,sans-Serif" font-size="10.00"> SampleNames</text>
<text text-anchor="middle" x="749.5" y="-958.49" font-family="Helvetica,sans-Serif" font-size="10.00">UniqueSystNames</text>
</g>
<!-- Node10&#45;&gt;Node4 -->
<g id="edge19" class="edge">
<title>Node10&#45;&gt;Node4</title>
<path fill="none" stroke="#9a32cd" stroke-dasharray="5,2" d="M276.74,-923.28C325.71,-933.57 404.18,-940.86 450,-897.49 498.77,-851.33 418.21,-792.54 468,-747.49 496.26,-721.92 737.06,-729.35 859.34,-734.88"/>
<polygon fill="#9a32cd" stroke="#9a32cd" points="277.29,-919.82 266.77,-921.06 275.76,-926.65 277.29,-919.82"/>
<text text-anchor="middle" x="563.5" y="-761.49" font-family="Helvetica,sans-Serif" font-size="10.00"> _ParameterGroup</text>
<text text-anchor="middle" x="563.5" y="-750.49" font-family="Helvetica,sans-Serif" font-size="10.00">_fSplineNames</text>
</g>
<!-- Node10&#45;&gt;Node5 -->
<g id="edge9" class="edge">
<title>Node10&#45;&gt;Node5</title>
<path fill="none" stroke="#9a32cd" stroke-dasharray="5,2" d="M289.97,-899.32C301.16,-896.1 312.63,-892.17 323,-887.49 331.76,-883.53 332.14,-879.22 341,-875.49 386.64,-856.3 416.35,-888.81 450,-852.49 491.44,-807.76 427.48,-762.05 468,-716.49 476.1,-707.38 487.12,-701.5 498.77,-697.75"/>
<polygon fill="#9a32cd" stroke="#9a32cd" points="288.98,-895.97 280.25,-901.98 290.82,-902.72 288.98,-895.97"/>
<text text-anchor="middle" x="395.5" y="-889.49" font-family="Helvetica,sans-Serif" font-size="10.00"> _fFancyNames</text>
<text text-anchor="middle" x="395.5" y="-878.49" font-family="Helvetica,sans-Serif" font-size="10.00">_fNames</text>
</g>
<!-- Node11 -->
<g id="node11" class="node">
<title>Node11</title>
<g id="a_node11"><a xlink:title=" ">
<polygon fill="white" stroke="#666666" points="294,-569.99 170,-569.99 170,-550.99 294,-550.99 294,-569.99"/>
<text text-anchor="middle" x="232" y="-557.99" font-family="Helvetica,sans-Serif" font-size="10.00">std::vector&lt; double &gt;</text>
</a>
</g>
</g>
<!-- Node11&#45;&gt;Node5 -->
<g id="edge10" class="edge">
<title>Node11&#45;&gt;Node5</title>
<path fill="none" stroke="#9a32cd" stroke-dasharray="5,2" d="M304.16,-549.74C358.92,-543.21 428.73,-539.24 450,-557.49 489.93,-591.75 431.47,-636.63 468,-674.49 476.23,-683.02 487.17,-688.21 498.68,-691.24"/>
<polygon fill="#9a32cd" stroke="#9a32cd" points="303.62,-546.28 294.12,-550.99 304.48,-553.23 303.62,-546.28"/>
<text text-anchor="middle" x="395.5" y="-637.49" font-family="Helvetica,sans-Serif" font-size="10.00"> FlipParameterPoint</text>
<text text-anchor="middle" x="395.5" y="-626.49" font-family="Helvetica,sans-Serif" font-size="10.00">_fCurrVal</text>
<text text-anchor="middle" x="395.5" y="-615.49" font-family="Helvetica,sans-Serif" font-size="10.00">_fError</text>
<text text-anchor="middle" x="395.5" y="-604.49" font-family="Helvetica,sans-Serif" font-size="10.00">_fIndivStepScale</text>
<text text-anchor="middle" x="395.5" y="-593.49" font-family="Helvetica,sans-Serif" font-size="10.00">_fLowBound</text>
<text text-anchor="middle" x="395.5" y="-582.49" font-family="Helvetica,sans-Serif" font-size="10.00">_fPreFitValue</text>
<text text-anchor="middle" x="395.5" y="-571.49" font-family="Helvetica,sans-Serif" font-size="10.00">_fPropVal</text>
<text text-anchor="middle" x="395.5" y="-560.49" font-family="Helvetica,sans-Serif" font-size="10.00">_fUpBound</text>
</g>
<!-- Node12 -->
<g id="node12" class="node">
<title>Node12</title>
<g id="a_node12"><a xlink:title=" ">
<polygon fill="white" stroke="#666666" points="288,-532.99 176,-532.99 176,-513.99 288,-513.99 288,-532.99"/>
<text text-anchor="middle" x="232" y="-520.99" font-family="Helvetica,sans-Serif" font-size="10.00">std::vector&lt; bool &gt;</text>
</a>
</g>
</g>
<!-- Node12&#45;&gt;Node5 -->
<g id="edge11" class="edge">
<title>Node12&#45;&gt;Node5</title>
<path fill="none" stroke="#9a32cd" stroke-dasharray="5,2" d="M298.23,-516C353.95,-511.18 428.43,-508.97 450,-528.49 498.48,-572.36 423.31,-626.77 468,-674.49 476.22,-683.27 487.29,-688.53 498.96,-691.56"/>
<polygon fill="#9a32cd" stroke="#9a32cd" points="297.7,-512.54 288.06,-516.93 298.33,-519.51 297.7,-512.54"/>
<text text-anchor="middle" x="395.5" y="-531.49" font-family="Helvetica,sans-Serif" font-size="10.00"> _fFlatPrior</text>
</g>
<!-- Node13 -->
<g id="node13" class="node">
<title>Node13</title>
<g id="a_node13"><a xlink:title=" ">
<polygon fill="white" stroke="#666666" points="297.5,-488.49 166.5,-488.49 166.5,-458.49 297.5,-458.49 297.5,-488.49"/>
<text text-anchor="start" x="174.5" y="-476.49" font-family="Helvetica,sans-Serif" font-size="10.00">std::vector&lt; std::vector</text>
<text text-anchor="middle" x="232" y="-465.49" font-family="Helvetica,sans-Serif" font-size="10.00">&lt; std::string &gt; &gt;</text>
</a>
</g>
</g>
<!-- Node13&#45;&gt;Node1 -->
<g id="edge27" class="edge">
<title>Node13&#45;&gt;Node1</title>
<path fill="none" stroke="#9a32cd" stroke-dasharray="5,2" d="M307.83,-471.42C448.22,-467 760.53,-454.54 1022,-425.49 1085.54,-418.43 1106.75,-430.95 1164,-402.49 1194.74,-387.21 1221.39,-355.3 1233.52,-339.21"/>
<polygon fill="#9a32cd" stroke="#9a32cd" points="307.51,-467.93 297.62,-471.74 307.72,-474.93 307.51,-467.93"/>
<text text-anchor="middle" x="749.5" y="-467.49" font-family="Helvetica,sans-Serif" font-size="10.00"> DimensionLabels</text>
<text text-anchor="middle" x="749.5" y="-456.49" font-family="Helvetica,sans-Serif" font-size="10.00">SplineFileParPrefixNames</text>
</g>
<!-- Node13&#45;&gt;Node5 -->
<g id="edge12" class="edge">
<title>Node13&#45;&gt;Node5</title>
<path fill="none" stroke="#9a32cd" stroke-dasharray="5,2" d="M307.8,-472.09C362.54,-472.78 430.5,-477.82 450,-497.49 477.83,-525.57 441.28,-645.35 468,-674.49 476.13,-683.35 487.16,-688.66 498.81,-691.7"/>
<polygon fill="#9a32cd" stroke="#9a32cd" points="307.78,-468.59 297.75,-472.01 307.72,-475.59 307.78,-468.59"/>
<text text-anchor="middle" x="395.5" y="-500.49" font-family="Helvetica,sans-Serif" font-size="10.00"> _fSampleNames</text>
</g>
<!-- Node14 -->
<g id="node14" class="node">
<title>Node14</title>
<g id="a_node14"><a xlink:title=" ">
<polygon fill="white" stroke="#666666" points="317,-877.99 147,-877.99 147,-858.99 317,-858.99 317,-877.99"/>
<text text-anchor="middle" x="232" y="-865.99" font-family="Helvetica,sans-Serif" font-size="10.00">std::unique_ptr&lt; PCAHandler &gt;</text>
</a>
</g>
</g>
<!-- Node14&#45;&gt;Node5 -->
<g id="edge13" class="edge">
<title>Node14&#45;&gt;Node5</title>
<path fill="none" stroke="#9a32cd" stroke-dasharray="5,2" d="M297.11,-856.69C305.89,-854.57 314.72,-852.17 323,-849.49 331.33,-846.79 332.67,-844.19 341,-841.49 388.1,-826.24 415.58,-854.08 450,-818.49 482,-785.4 436.68,-750.22 468,-716.49 476.18,-707.68 487.09,-701.91 498.59,-698.18"/>
<polygon fill="#9a32cd" stroke="#9a32cd" points="296.22,-853.3 287.26,-858.96 297.79,-860.12 296.22,-853.3"/>
<text text-anchor="middle" x="395.5" y="-844.49" font-family="Helvetica,sans-Serif" font-size="10.00"> PCAObj</text>
</g>
<!-- Node15 -->
<g id="node15" class="node">
<title>Node15</title>
<g id="a_node15"><a xlink:title=" ">
<polygon fill="white" stroke="#666666" points="323,-840.49 141,-840.49 141,-810.49 323,-810.49 323,-840.49"/>
<text text-anchor="start" x="149" y="-828.49" font-family="Helvetica,sans-Serif" font-size="10.00">std::unique_ptr&lt; adaptive</text>
<text text-anchor="middle" x="232" y="-817.49" font-family="Helvetica,sans-Serif" font-size="10.00">_mcmc::AdaptiveMCMCHandler &gt;</text>
</a>
</g>
</g>
<!-- Node15&#45;&gt;Node5 -->
<g id="edge14" class="edge">
<title>Node15&#45;&gt;Node5</title>
<path fill="none" stroke="#9a32cd" stroke-dasharray="5,2" d="M330.4,-808.63C383.67,-798.58 440.72,-786.15 450,-777.49 470.67,-758.21 447.63,-736.09 468,-716.49 476.54,-708.27 487.47,-702.75 498.85,-699.07"/>
<polygon fill="#9a32cd" stroke="#9a32cd" points="329.69,-805.2 320.5,-810.47 330.98,-812.08 329.69,-805.2"/>
<text text-anchor="middle" x="395.5" y="-807.49" font-family="Helvetica,sans-Serif" font-size="10.00"> AdaptiveHandler</text>
</g>
<!-- Node16 -->
<g id="node16" class="node">
<title>Node16</title>
<g id="a_node16"><a xlink:title=" ">
<polygon fill="white" stroke="#666666" points="307.5,-792.49 156.5,-792.49 156.5,-762.49 307.5,-762.49 307.5,-792.49"/>
<text text-anchor="start" x="164.5" y="-780.49" font-family="Helvetica,sans-Serif" font-size="10.00">std::unique_ptr&lt; Parameter</text>
<text text-anchor="middle" x="232" y="-769.49" font-family="Helvetica,sans-Serif" font-size="10.00">Tunes &gt;</text>
</a>
</g>
</g>
<!-- Node16&#45;&gt;Node5 -->
<g id="edge15" class="edge">
<title>Node16&#45;&gt;Node5</title>
<path fill="none" stroke="#9a32cd" stroke-dasharray="5,2" d="M317.76,-768.11C359.07,-761.33 408.62,-749.83 450,-730.49 459.18,-726.2 458.9,-720.94 468,-716.49 480.62,-710.32 494.99,-705.62 508.65,-702.1"/>
<polygon fill="#9a32cd" stroke="#9a32cd" points="317.06,-764.68 307.72,-769.69 318.15,-771.59 317.06,-764.68"/>
<text text-anchor="middle" x="395.5" y="-765.49" font-family="Helvetica,sans-Serif" font-size="10.00"> Tunes</text>
</g>
<!-- Node17 -->
<g id="node17" class="node">
<title>Node17</title>
<g id="a_node17"><a xlink:title=" ">
<polygon fill="white" stroke="#666666" points="284,-307.99 180,-307.99 180,-288.99 284,-288.99 284,-307.99"/>
<text text-anchor="middle" x="232" y="-295.99" font-family="Helvetica,sans-Serif" font-size="10.00">std::vector&lt; int &gt;</text>
</a>
</g>
</g>
<!-- Node17&#45;&gt;Node1 -->
<g id="edge26" class="edge">
<title>Node17&#45;&gt;Node1</title>
<path fill="none" stroke="#9a32cd" stroke-dasharray="5,2" d="M294.5,-301.45C337.99,-303.79 397.64,-307.5 450,-312.49 615.9,-328.31 688.91,-259.2 822,-359.49 838.22,-371.71 823.05,-390.31 840,-401.49 907.53,-446.02 941.39,-408.25 1022,-401.49 1085.78,-396.14 1104.19,-400.27 1164,-377.49 1188.76,-368.06 1214.17,-350.16 1228.58,-339.08"/>
<polygon fill="#9a32cd" stroke="#9a32cd" points="294.54,-297.95 284.37,-300.92 294.17,-304.94 294.54,-297.95"/>
<text text-anchor="middle" x="749.5" y="-428.49" font-family="Helvetica,sans-Serif" font-size="10.00"> Dimensions</text>
<text text-anchor="middle" x="749.5" y="-417.49" font-family="Helvetica,sans-Serif" font-size="10.00">UniqueSystIndices</text>
<text text-anchor="middle" x="749.5" y="-406.49" font-family="Helvetica,sans-Serif" font-size="10.00">coeffindexvec</text>
<text text-anchor="middle" x="749.5" y="-395.49" font-family="Helvetica,sans-Serif" font-size="10.00">nOscChans</text>
<text text-anchor="middle" x="749.5" y="-384.49" font-family="Helvetica,sans-Serif" font-size="10.00">nSplineParams</text>
<text text-anchor="middle" x="749.5" y="-373.49" font-family="Helvetica,sans-Serif" font-size="10.00">uniquecoeffindices</text>
<text text-anchor="middle" x="749.5" y="-362.49" font-family="Helvetica,sans-Serif" font-size="10.00">uniquesplinevec_Monolith</text>
</g>
<!-- Node17&#45;&gt;Node5 -->
<g id="edge16" class="edge">
<title>Node17&#45;&gt;Node5</title>
<path fill="none" stroke="#9a32cd" stroke-dasharray="5,2" d="M256.77,-313.45C278.06,-326.19 310.54,-344.06 341,-354.49 387.6,-370.45 417.35,-337.61 450,-374.49 494.27,-424.5 423.9,-624.33 468,-674.49 475.94,-683.52 486.89,-688.89 498.53,-691.96"/>
<polygon fill="#9a32cd" stroke="#9a32cd" points="258.45,-310.38 248.09,-308.16 254.81,-316.35 258.45,-310.38"/>
<text text-anchor="middle" x="395.5" y="-388.49" font-family="Helvetica,sans-Serif" font-size="10.00"> CircularBoundsIndex</text>
<text text-anchor="middle" x="395.5" y="-377.49" font-family="Helvetica,sans-Serif" font-size="10.00">FlipParameterIndex</text>
</g>
<!-- Node17&#45;&gt;Node32 -->
<g id="edge38" class="edge">
<title>Node17&#45;&gt;Node32</title>
<path fill="none" stroke="#9a32cd" stroke-dasharray="5,2" d="M280.86,-286.64C299.56,-282.22 321.22,-277.34 341,-273.49 403.87,-261.26 477.4,-250.3 521.93,-244.02"/>
<polygon fill="#9a32cd" stroke="#9a32cd" points="280.01,-283.25 271.1,-288.98 281.64,-290.06 280.01,-283.25"/>
<text text-anchor="middle" x="395.5" y="-276.49" font-family="Helvetica,sans-Serif" font-size="10.00"> ModeMap</text>
</g>
<!-- Node18 -->
<g id="node18" class="node">
<title>Node18</title>
<g id="a_node18"><a xlink:title=" ">
<polygon fill="white" stroke="#666666" points="293,-744.49 171,-744.49 171,-714.49 293,-714.49 293,-744.49"/>
<text text-anchor="start" x="179" y="-732.49" font-family="Helvetica,sans-Serif" font-size="10.00">std::vector&lt; std::pair</text>
<text text-anchor="middle" x="232" y="-721.49" font-family="Helvetica,sans-Serif" font-size="10.00">&lt; double, double &gt; &gt;</text>
</a>
</g>
</g>
<!-- Node18&#45;&gt;Node5 -->
<g id="edge17" class="edge">
<title>Node18&#45;&gt;Node5</title>
<path fill="none" stroke="#9a32cd" stroke-dasharray="5,2" d="M303.23,-721.6C361.23,-715.09 442.84,-705.93 498.93,-699.63"/>
<polygon fill="#9a32cd" stroke="#9a32cd" points="302.6,-718.15 293.05,-722.75 303.38,-725.11 302.6,-718.15"/>
<text text-anchor="middle" x="395.5" y="-718.49" font-family="Helvetica,sans-Serif" font-size="10.00"> CircularBoundsValues</text>
</g>
<!-- Node19 -->
<g id="node19" class="node">
<title>Node19</title>
<g id="a_node19"><a xlink:title=" ">
<polygon fill="white" stroke="#666666" points="630.5,-664.99 496.5,-664.99 496.5,-645.99 630.5,-645.99 630.5,-664.99"/>
<text text-anchor="middle" x="563.5" y="-652.99" font-family="Helvetica,sans-Serif" font-size="10.00">std::vector&lt; SystType &gt;</text>
</a>
</g>
</g>
<!-- Node19&#45;&gt;Node4 -->
<g id="edge18" class="edge">
<title>Node19&#45;&gt;Node4</title>
<path fill="none" stroke="#9a32cd" stroke-dasharray="5,2" d="M640.72,-660.68C692.57,-665.54 762.33,-674.67 822,-691.49 855.07,-700.81 891.24,-718.14 912.21,-728.95"/>
<polygon fill="#9a32cd" stroke="#9a32cd" points="640.87,-657.18 630.6,-659.77 640.24,-664.15 640.87,-657.18"/>
<text text-anchor="middle" x="749.5" y="-694.49" font-family="Helvetica,sans-Serif" font-size="10.00"> _fParamType</text>
</g>
<!-- Node20 -->
<g id="node20" class="node">
<title>Node20</title>
<g id="a_node20"><a xlink:title=" ">
<polygon fill="white" stroke="#666666" points="624.5,-627.49 502.5,-627.49 502.5,-597.49 624.5,-597.49 624.5,-627.49"/>
<text text-anchor="start" x="510.5" y="-615.49" font-family="Helvetica,sans-Serif" font-size="10.00">std::vector&lt; std::map</text>
<text text-anchor="middle" x="563.5" y="-604.49" font-family="Helvetica,sans-Serif" font-size="10.00">&lt; int, int &gt; &gt;</text>
</a>
</g>
</g>
<!-- Node20&#45;&gt;Node4 -->
<g id="edge20" class="edge">
<title>Node20&#45;&gt;Node4</title>
<path fill="none" stroke="#9a32cd" stroke-dasharray="5,2" d="M634.58,-612.43C688.02,-614.74 762.33,-623.13 822,-649.49 865.12,-668.54 904.91,-709.83 921.65,-728.71"/>
<polygon fill="#9a32cd" stroke="#9a32cd" points="634.65,-608.93 624.52,-612.05 634.39,-615.92 634.65,-608.93"/>
<text text-anchor="middle" x="749.5" y="-652.49" font-family="Helvetica,sans-Serif" font-size="10.00"> _fSystToGlobalSystIndexMap</text>
</g>
<!-- Node21 -->
<g id="node21" class="node">
<title>Node21</title>
<g id="a_node21"><a xlink:title=" ">
<polygon fill="white" stroke="#666666" points="649,-919.99 478,-919.99 478,-900.99 649,-900.99 649,-919.99"/>
<text text-anchor="middle" x="563.5" y="-907.99" font-family="Helvetica,sans-Serif" font-size="10.00">std::vector&lt; SplineParameter &gt;</text>
</a>
</g>
</g>
<!-- Node21&#45;&gt;Node4 -->
<g id="edge21" class="edge">
<title>Node21&#45;&gt;Node4</title>
<path fill="none" stroke="#9a32cd" stroke-dasharray="5,2" d="M659.36,-909.28C721.02,-906.98 794.81,-900.95 822,-885.49 879.54,-852.78 915.11,-775.5 926.23,-748.23"/>
<polygon fill="#9a32cd" stroke="#9a32cd" points="659.06,-905.78 649.19,-909.63 659.3,-912.78 659.06,-905.78"/>
<text text-anchor="middle" x="749.5" y="-910.49" font-family="Helvetica,sans-Serif" font-size="10.00"> SplineParams</text>
</g>
<!-- Node22 -->
<g id="node22" class="node">
<title>Node22</title>
<g id="a_node22"><a xlink:title=" ">
<polygon fill="white" stroke="#666666" points="647.5,-882.99 479.5,-882.99 479.5,-863.99 647.5,-863.99 647.5,-882.99"/>
<text text-anchor="middle" x="563.5" y="-870.99" font-family="Helvetica,sans-Serif" font-size="10.00">std::vector&lt; NormParameter &gt;</text>
</a>
</g>
</g>
<!-- Node22&#45;&gt;Node4 -->
<g id="edge22" class="edge">
<title>Node22&#45;&gt;Node4</title>
<path fill="none" stroke="#9a32cd" stroke-dasharray="5,2" d="M658.06,-873.19C708.67,-869.86 771.06,-860.46 822,-836.49 867.36,-815.15 907.16,-768.19 922.87,-748.01"/>
<polygon fill="#9a32cd" stroke="#9a32cd" points="657.55,-869.72 647.77,-873.8 657.96,-876.71 657.55,-869.72"/>
<text text-anchor="middle" x="749.5" y="-873.49" font-family="Helvetica,sans-Serif" font-size="10.00"> NormParams</text>
</g>
<!-- Node23 -->
<g id="node23" class="node">
<title>Node23</title>
<g id="a_node23"><a xlink:title=" ">
<polygon fill="white" stroke="#666666" points="659,-845.99 468,-845.99 468,-826.99 659,-826.99 659,-845.99"/>
<text text-anchor="middle" x="563.5" y="-833.99" font-family="Helvetica,sans-Serif" font-size="10.00">std::vector&lt; FunctionalParameter &gt;</text>
</a>
</g>
</g>
<!-- Node23&#45;&gt;Node4 -->
<g id="edge23" class="edge">
<title>Node23&#45;&gt;Node4</title>
<path fill="none" stroke="#9a32cd" stroke-dasharray="5,2" d="M661.14,-825.57C710.11,-818.45 770.05,-807.29 822,-790.49 856.06,-779.48 893.1,-759.79 913.75,-748.05"/>
<polygon fill="#9a32cd" stroke="#9a32cd" points="660.59,-822.11 651.18,-826.98 661.57,-829.04 660.59,-822.11"/>
<text text-anchor="middle" x="749.5" y="-824.49" font-family="Helvetica,sans-Serif" font-size="10.00"> FuncParams</text>
</g>
<!-- Node24 -->
<g id="node24" class="node">
<title>Node24</title>
<g id="a_node24"><a xlink:title=" ">
<polygon fill="white" stroke="#666666" points="629,-808.49 498,-808.49 498,-778.49 629,-778.49 629,-808.49"/>
<text text-anchor="start" x="506" y="-796.49" font-family="Helvetica,sans-Serif" font-size="10.00">std::vector&lt; Oscillation</text>
<text text-anchor="middle" x="563.5" y="-785.49" font-family="Helvetica,sans-Serif" font-size="10.00">Parameter &gt;</text>
</a>
</g>
</g>
<!-- Node24&#45;&gt;Node4 -->
<g id="edge24" class="edge">
<title>Node24&#45;&gt;Node4</title>
<path fill="none" stroke="#9a32cd" stroke-dasharray="5,2" d="M639.08,-782.27C706.1,-772.18 803.46,-757.53 866.75,-748.01"/>
<polygon fill="#9a32cd" stroke="#9a32cd" points="638.37,-778.83 629,-783.78 639.41,-785.76 638.37,-778.83"/>
<text text-anchor="middle" x="749.5" y="-778.49" font-family="Helvetica,sans-Serif" font-size="10.00"> OscParams</text>
</g>
<!-- Node25 -->
<g id="node25" class="node">
<title>Node25</title>
<g id="a_node25"><a xlink:title=" ">
<polygon fill="white" stroke="#666666" points="1010.5,-392.49 851.5,-392.49 851.5,-362.49 1010.5,-362.49 1010.5,-392.49"/>
<text text-anchor="start" x="859.5" y="-380.49" font-family="Helvetica,sans-Serif" font-size="10.00">std::vector&lt; std::vector</text>
<text text-anchor="middle" x="931" y="-369.49" font-family="Helvetica,sans-Serif" font-size="10.00">&lt; std::vector&lt; TAxis * &gt; &gt; &gt;</text>
</a>
</g>
</g>
<!-- Node25&#45;&gt;Node1 -->
<g id="edge28" class="edge">
<title>Node25&#45;&gt;Node1</title>
<path fill="none" stroke="#9a32cd" stroke-dasharray="5,2" d="M1020.5,-366.01C1063.84,-360.1 1116.74,-352.48 1164,-344.49 1173.74,-342.84 1184.15,-340.92 1194.05,-339"/>
<polygon fill="#9a32cd" stroke="#9a32cd" points="1019.99,-362.54 1010.55,-367.36 1020.93,-369.48 1019.99,-362.54"/>
<text text-anchor="middle" x="1102" y="-365.49" font-family="Helvetica,sans-Serif" font-size="10.00"> SplineBinning</text>
</g>
<!-- Node26 -->
<g id="node26" class="node">
<title>Node26</title>
<g id="a_node26"><a xlink:title=" ">
<polygon fill="white" stroke="#666666" points="999.5,-344.49 862.5,-344.49 862.5,-314.49 999.5,-314.49 999.5,-344.49"/>
<text text-anchor="start" x="870.5" y="-332.49" font-family="Helvetica,sans-Serif" font-size="10.00">std::vector&lt; std::vector</text>
<text text-anchor="middle" x="931" y="-321.49" font-family="Helvetica,sans-Serif" font-size="10.00">&lt; std::vector&lt; int &gt; &gt; &gt;</text>
</a>
</g>
</g>
<!-- Node26&#45;&gt;Node1 -->
<g id="edge29" class="edge">
<title>Node26&#45;&gt;Node1</title>
<path fill="none" stroke="#9a32cd" stroke-dasharray="5,2" d="M1009.82,-329.49C1063.24,-329.49 1133.02,-329.49 1181.79,-329.49"/>
<polygon fill="#9a32cd" stroke="#9a32cd" points="1009.7,-325.99 999.7,-329.49 1009.7,-332.99 1009.7,-325.99"/>
<text text-anchor="middle" x="1102" y="-332.49" font-family="Helvetica,sans-Serif" font-size="10.00"> SplineModeVecs</text>
</g>
<!-- Node27 -->
<g id="node27" class="node">
<title>Node27</title>
<g id="a_node27"><a xlink:title=" ">
<polygon fill="white" stroke="#666666" points="996.5,-296.49 865.5,-296.49 865.5,-266.49 996.5,-266.49 996.5,-296.49"/>
<text text-anchor="start" x="873.5" y="-284.49" font-family="Helvetica,sans-Serif" font-size="10.00">std::vector&lt; std::vector</text>
<text text-anchor="middle" x="931" y="-273.49" font-family="Helvetica,sans-Serif" font-size="10.00">&lt; int &gt; &gt;</text>
</a>
</g>
</g>
<!-- Node27&#45;&gt;Node1 -->
<g id="edge30" class="edge">
<title>Node27&#45;&gt;Node1</title>
<path fill="none" stroke="#9a32cd" stroke-dasharray="5,2" d="M1006.73,-291.11C1052.28,-297.22 1111.6,-305.63 1164,-314.49 1173.74,-316.14 1184.15,-318.06 1194.05,-319.98"/>
<polygon fill="#9a32cd" stroke="#9a32cd" points="1007.02,-287.62 996.64,-289.76 1006.09,-294.55 1007.02,-287.62"/>
<text text-anchor="middle" x="1102" y="-317.49" font-family="Helvetica,sans-Serif" font-size="10.00"> GlobalSystIndex</text>
</g>
<!-- Node28 -->
<g id="node28" class="node">
<title>Node28</title>
<g id="a_node28"><a xlink:title=" ">
<polygon fill="white" stroke="#666666" points="1002.5,-248.49 859.5,-248.49 859.5,-218.49 1002.5,-218.49 1002.5,-248.49"/>
<text text-anchor="start" x="867.5" y="-236.49" font-family="Helvetica,sans-Serif" font-size="10.00">std::vector&lt; std::vector</text>
<text text-anchor="middle" x="931" y="-225.49" font-family="Helvetica,sans-Serif" font-size="10.00">&lt; SplineInterpolation &gt; &gt;</text>
</a>
</g>
</g>
<!-- Node28&#45;&gt;Node1 -->
<g id="edge31" class="edge">
<title>Node28&#45;&gt;Node1</title>
<path fill="none" stroke="#9a32cd" stroke-dasharray="5,2" d="M1012.86,-242.39C1058.45,-249.24 1115.75,-260.95 1164,-280.49 1188.71,-290.49 1214.13,-308.64 1228.56,-319.82"/>
<polygon fill="#9a32cd" stroke="#9a32cd" points="1013.13,-238.9 1002.73,-240.92 1012.13,-245.82 1013.13,-238.9"/>
<text text-anchor="middle" x="1102" y="-283.49" font-family="Helvetica,sans-Serif" font-size="10.00"> SplineInterpolationTypes</text>
</g>
<!-- Node29 -->
<g id="node29" class="node">
<title>Node29</title>
<g id="a_node29"><a xlink:title=" ">
<polygon fill="white" stroke="#666666" points="1022,-200.49 840,-200.49 840,-148.49 1022,-148.49 1022,-200.49"/>
<text text-anchor="start" x="848" y="-188.49" font-family="Helvetica,sans-Serif" font-size="10.00">std::vector&lt; std::vector</text>
<text text-anchor="start" x="848" y="-177.49" font-family="Helvetica,sans-Serif" font-size="10.00">&lt; std::vector&lt; std::vector</text>
<text text-anchor="start" x="848" y="-166.49" font-family="Helvetica,sans-Serif" font-size="10.00">&lt; std::vector&lt; std::vector</text>
<text text-anchor="middle" x="931" y="-155.49" font-family="Helvetica,sans-Serif" font-size="10.00">&lt; std::vector&lt; int &gt; &gt; &gt; &gt; &gt; &gt; &gt;</text>
</a>
</g>
</g>
<!-- Node29&#45;&gt;Node1 -->
<g id="edge32" class="edge">
<title>Node29&#45;&gt;Node1</title>
<path fill="none" stroke="#9a32cd" stroke-dasharray="5,2" d="M1032.06,-184.24C1075.29,-192.06 1124.83,-206.14 1164,-231.49 1199.7,-254.59 1225.75,-300.17 1235.87,-319.95"/>
<polygon fill="#9a32cd" stroke="#9a32cd" points="1032.53,-180.77 1022.08,-182.53 1031.34,-187.67 1032.53,-180.77"/>
<text text-anchor="middle" x="1102" y="-234.49" font-family="Helvetica,sans-Serif" font-size="10.00"> indexvec</text>
</g>
<!-- Node30 -->
<g id="node30" class="node">
<title>Node30</title>
<g id="a_node30"><a xlink:title=" ">
<polygon fill="white" stroke="#666666" points="992,-130.49 870,-130.49 870,-100.49 992,-100.49 992,-130.49"/>
<text text-anchor="start" x="878" y="-118.49" font-family="Helvetica,sans-Serif" font-size="10.00">std::vector&lt; TSpline3</text>
<text text-anchor="middle" x="931" y="-107.49" font-family="Helvetica,sans-Serif" font-size="10.00">_red * &gt;</text>
</a>
</g>
</g>
<!-- Node30&#45;&gt;Node1 -->
<g id="edge33" class="edge">
<title>Node30&#45;&gt;Node1</title>
<path fill="none" stroke="#9a32cd" stroke-dasharray="5,2" d="M1002.32,-117C1052.28,-121.47 1118.35,-134.7 1164,-171.49 1213.83,-211.65 1233.39,-292.24 1238.8,-319.91"/>
<polygon fill="#9a32cd" stroke="#9a32cd" points="1002.48,-113.5 992.23,-116.19 1001.92,-120.48 1002.48,-113.5"/>
<text text-anchor="middle" x="1102" y="-174.49" font-family="Helvetica,sans-Serif" font-size="10.00"> splinevec_Monolith</text>
</g>
<!-- Node31 -->
<g id="node31" class="node">
<title>Node31</title>
<g id="a_node31"><a xlink:title=" ">
<polygon fill="white" stroke="#666666" points="1002.5,-81.99 859.5,-81.99 859.5,-62.99 1002.5,-62.99 1002.5,-81.99"/>
<text text-anchor="middle" x="931" y="-69.99" font-family="Helvetica,sans-Serif" font-size="10.00">std::vector&lt; M3::float_t &gt;</text>
</a>
</g>
</g>
<!-- Node31&#45;&gt;Node1 -->
<g id="edge34" class="edge">
<title>Node31&#45;&gt;Node1</title>
<path fill="none" stroke="#9a32cd" stroke-dasharray="5,2" d="M1012.83,-64.54C1061.75,-64.13 1122.48,-72.02 1164,-106.49 1232.65,-163.49 1239.86,-285.12 1240.48,-319.97"/>
<polygon fill="#9a32cd" stroke="#9a32cd" points="1012.51,-61.04 1002.59,-64.74 1012.65,-68.04 1012.51,-61.04"/>
<text text-anchor="middle" x="1102" y="-109.49" font-family="Helvetica,sans-Serif" font-size="10.00"> weightvec_Monolith</text>
</g>
<!-- Node32&#45;&gt;Node1 -->
<g id="edge35" class="edge">
<title>Node32&#45;&gt;Node1</title>
<path fill="none" stroke="#9a32cd" stroke-dasharray="5,2" d="M580.45,-221.52C619.81,-181.05 726.63,-79.55 840,-43.49 977.41,0.22 1054.31,33.11 1164,-60.49 1205.46,-95.87 1233.03,-276.07 1239.19,-319.88"/>
<polygon fill="#9a32cd" stroke="#9a32cd" points="577.7,-219.34 573.3,-228.97 582.75,-224.18 577.7,-219.34"/>
<text text-anchor="middle" x="931" y="-46.49" font-family="Helvetica,sans-Serif" font-size="10.00"> Modes</text>
</g>
<!-- Node33 -->
<g id="node33" class="node">
<title>Node33</title>
<g id="a_node33"><a xlink:title=" ">
<polygon fill="white" stroke="#666666" points="293,-205.49 171,-205.49 171,-175.49 293,-175.49 293,-205.49"/>
<text text-anchor="start" x="179" y="-193.49" font-family="Helvetica,sans-Serif" font-size="10.00">std::map&lt; std::string,</text>
<text text-anchor="middle" x="232" y="-182.49" font-family="Helvetica,sans-Serif" font-size="10.00"> MaCh3Modes_t &gt;</text>
</a>
</g>
</g>
<!-- Node33&#45;&gt;Node32 -->
<g id="edge36" class="edge">
<title>Node33&#45;&gt;Node32</title>
<path fill="none" stroke="#9a32cd" stroke-dasharray="5,2" d="M303.03,-200.69C369.45,-210.37 466.98,-224.57 521.59,-232.53"/>
<polygon fill="#9a32cd" stroke="#9a32cd" points="303.45,-197.22 293.05,-199.24 302.44,-204.14 303.45,-197.22"/>
<text text-anchor="middle" x="395.5" y="-224.49" font-family="Helvetica,sans-Serif" font-size="10.00"> Mode</text>
</g>
<!-- Node34 -->
<g id="node34" class="node">
<title>Node34</title>
<g id="a_node34"><a xlink:title=" ">
<polygon fill="white" stroke="#666666" points="300.5,-253.49 163.5,-253.49 163.5,-223.49 300.5,-223.49 300.5,-253.49"/>
<text text-anchor="start" x="171.5" y="-241.49" font-family="Helvetica,sans-Serif" font-size="10.00">std::map&lt; MaCh3Modes</text>
<text text-anchor="middle" x="232" y="-230.49" font-family="Helvetica,sans-Serif" font-size="10.00">_t, MaCh3ModeInfo &gt;</text>
</a>
</g>
</g>
<!-- Node34&#45;&gt;Node32 -->
<g id="edge37" class="edge">
<title>Node34&#45;&gt;Node32</title>
<path fill="none" stroke="#9a32cd" stroke-dasharray="5,2" d="M311.25,-238.49C377.33,-238.49 469.34,-238.49 521.72,-238.49"/>
<polygon fill="#9a32cd" stroke="#9a32cd" points="310.87,-234.99 300.87,-238.49 310.87,-241.99 310.87,-234.99"/>
<text text-anchor="middle" x="395.5" y="-241.49" font-family="Helvetica,sans-Serif" font-size="10.00"> fMode</text>
</g>
</g>
</svg>
