<?xml version="1.0" encoding="UTF-8" standalone="no"?>
<!DOCTYPE svg PUBLIC "-//W3C//DTD SVG 1.1//EN"
 "http://www.w3.org/Graphics/SVG/1.1/DTD/svg11.dtd">
<!-- Generated by graphviz version 2.43.0 (0)
 -->
<!-- Title: Samples/HistogramUtils.h Pages: 1 -->
<!--zoomable 302 -->
<svg id="main" version="1.1" xmlns="http://www.w3.org/2000/svg" xmlns:xlink="http://www.w3.org/1999/xlink" xml:space="preserve" onload="init(evt)">
<style type="text/css"><![CDATA[
.edge:hover path { stroke: red; }
.edge:hover polygon { stroke: red; fill: red; }
]]></style>
<script type="text/javascript"><![CDATA[
var edges = document.getElementsByTagName('g');
if (edges && edges.length) {
  for (var i=0;i<edges.length;i++) {
    if (edges[i].id.substr(0,4)=='edge') {
      edges[i].setAttribute('class','edge');
    }
  }
}
]]></script>
        <defs>
                <circle id="rim" cx="0" cy="0" r="7"/>
                <circle id="rim2" cx="0" cy="0" r="3.5"/>
                <g id="zoomPlus">
                        <use xlink:href="#rim" fill="#404040">
                                <set attributeName="fill" to="#808080" begin="zoomplus.mouseover" end="zoomplus.mouseout"/>
                        </use>
                        <path d="M-4,0h8M0,-4v8" fill="none" stroke="white" stroke-width="1.5" pointer-events="none"/>
                </g>
                <g id="zoomMin">
                        <use xlink:href="#rim" fill="#404040">
                                <set attributeName="fill" to="#808080" begin="zoomminus.mouseover" end="zoomminus.mouseout"/>
                        </use>
                        <path d="M-4,0h8" fill="none" stroke="white" stroke-width="1.5" pointer-events="none"/>
                </g>
                <g id="dirArrow">
                        <path fill="none" stroke="white" stroke-width="1.5" d="M0,-3.0v7 M-2.5,-0.5L0,-3.0L2.5,-0.5"/>
                </g>
               <g id="resetDef">
                       <use xlink:href="#rim2" fill="#404040">
                               <set attributeName="fill" to="#808080" begin="reset.mouseover" end="reset.mouseout"/>
                       </use>
               </g>
        </defs>

<script type="text/javascript">
var viewWidth = 1277;
var viewHeight = 302;
var sectionId = 'dynsection-0';
</script>
<script xlink:href="svgpan.js"/>
<svg id="graph" class="graph">
<g id="viewport">
<title>Samples/HistogramUtils.h</title>
<!-- Node1 -->
<g id="node1" class="node">
<title>Node1</title>
<g id="a_node1"><a xlink:title=" ">
<polygon fill="#999999" stroke="#666666" points="948.01,-294 804.01,-294 804.01,-275 948.01,-275 948.01,-294"/>
<text text-anchor="middle" x="876.01" y="-282" font-family="Helvetica,sans-Serif" font-size="10.00">Samples/HistogramUtils.h</text>
</a>
</g>
</g>
<!-- Node2 -->
<g id="node2" class="node">
<title>Node2</title>
<g id="a_node2"><a xlink:href="SampleStructs_8h.html" target="_top" xlink:title=" ">
<polygon fill="white" stroke="#666666" points="847.51,-239 706.51,-239 706.51,-220 847.51,-220 847.51,-239"/>
<text text-anchor="middle" x="777.01" y="-227" font-family="Helvetica,sans-Serif" font-size="10.00">Samples/SampleStructs.h</text>
</a>
</g>
</g>
<!-- Node1&#45;&gt;Node2 -->
<g id="edge1" class="edge">
<title>Node1&#45;&gt;Node2</title>
<path fill="none" stroke="#63b8ff" d="M860.1,-274.98C844.46,-266.61 820.35,-253.7 802.12,-243.95"/>
<polygon fill="#63b8ff" stroke="#63b8ff" points="803.67,-240.8 793.2,-239.17 800.37,-246.98 803.67,-240.8"/>
</g>
<!-- Node22 -->
<g id="node22" class="node">
<title>Node22</title>
<g id="a_node22"><a xlink:title=" ">
<polygon fill="#e0e0e0" stroke="#999999" points="1025.51,-184 948.51,-184 948.51,-165 1025.51,-165 1025.51,-184"/>
<text text-anchor="middle" x="987.01" y="-172" font-family="Helvetica,sans-Serif" font-size="10.00">TObjString.h</text>
</a>
</g>
</g>
<!-- Node1&#45;&gt;Node22 -->
<g id="edge48" class="edge">
<title>Node1&#45;&gt;Node22</title>
<path fill="none" stroke="#63b8ff" d="M876.62,-274.65C877.97,-261.31 882.29,-235.95 896.01,-220 908.98,-204.93 928.24,-194.49 945.71,-187.53"/>
<polygon fill="#63b8ff" stroke="#63b8ff" points="947.02,-190.78 955.18,-184.02 944.59,-184.22 947.02,-190.78"/>
</g>
<!-- Node28 -->
<g id="node28" class="node">
<title>Node28</title>
<g id="a_node28"><a xlink:href="ParameterStructs_8h.html" target="_top" xlink:title=" ">
<polygon fill="white" stroke="#666666" points="688.01,-239 520.01,-239 520.01,-220 688.01,-220 688.01,-239"/>
<text text-anchor="middle" x="604.01" y="-227" font-family="Helvetica,sans-Serif" font-size="10.00">Parameters/ParameterStructs.h</text>
</a>
</g>
</g>
<!-- Node1&#45;&gt;Node28 -->
<g id="edge34" class="edge">
<title>Node1&#45;&gt;Node28</title>
<path fill="none" stroke="#63b8ff" d="M832.31,-274.98C784.86,-265.74 709.04,-250.97 657.93,-241.01"/>
<polygon fill="#63b8ff" stroke="#63b8ff" points="658.54,-237.56 648.05,-239.08 657.2,-244.43 658.54,-237.56"/>
</g>
<!-- Node29 -->
<g id="node29" class="node">
<title>Node29</title>
<g id="a_node29"><a xlink:title=" ">
<polygon fill="#e0e0e0" stroke="#999999" points="1031.51,-239 904.51,-239 904.51,-220 1031.51,-220 1031.51,-239"/>
<text text-anchor="middle" x="968.01" y="-227" font-family="Helvetica,sans-Serif" font-size="10.00">TGraphAsymmErrors.h</text>
</a>
</g>
</g>
<!-- Node1&#45;&gt;Node29 -->
<g id="edge47" class="edge">
<title>Node1&#45;&gt;Node29</title>
<path fill="none" stroke="#63b8ff" d="M890.79,-274.98C905.19,-266.69 927.32,-253.94 944.2,-244.22"/>
<polygon fill="#63b8ff" stroke="#63b8ff" points="946.04,-247.19 952.96,-239.17 942.55,-241.13 946.04,-247.19"/>
</g>
<!-- Node30 -->
<g id="node30" class="node">
<title>Node30</title>
<g id="a_node30"><a xlink:title=" ">
<polygon fill="#e0e0e0" stroke="#999999" points="1128.01,-239 1050.01,-239 1050.01,-220 1128.01,-220 1128.01,-239"/>
<text text-anchor="middle" x="1089.01" y="-227" font-family="Helvetica,sans-Serif" font-size="10.00">TRandom3.h</text>
</a>
</g>
</g>
<!-- Node1&#45;&gt;Node30 -->
<g id="edge49" class="edge">
<title>Node1&#45;&gt;Node30</title>
<path fill="none" stroke="#63b8ff" d="M910.23,-274.98C946.77,-265.89 1004.79,-251.46 1044.77,-241.51"/>
<polygon fill="#63b8ff" stroke="#63b8ff" points="1045.66,-244.89 1054.52,-239.08 1043.97,-238.1 1045.66,-244.89"/>
</g>
<!-- Node3 -->
<g id="node3" class="node">
<title>Node3</title>
<g id="a_node3"><a xlink:title=" ">
<polygon fill="#e0e0e0" stroke="#999999" points="637.01,-184 605.01,-184 605.01,-165 637.01,-165 637.01,-184"/>
<text text-anchor="middle" x="621.01" y="-172" font-family="Helvetica,sans-Serif" font-size="10.00">set</text>
</a>
</g>
</g>
<!-- Node2&#45;&gt;Node3 -->
<g id="edge2" class="edge">
<title>Node2&#45;&gt;Node3</title>
<path fill="none" stroke="#63b8ff" d="M751.94,-219.98C723.13,-210.2 676.07,-194.21 646.91,-184.3"/>
<polygon fill="#63b8ff" stroke="#63b8ff" points="647.99,-180.97 637.4,-181.07 645.74,-187.6 647.99,-180.97"/>
</g>
<!-- Node4 -->
<g id="node4" class="node">
<title>Node4</title>
<g id="a_node4"><a xlink:title=" ">
<polygon fill="#e0e0e0" stroke="#999999" points="304.01,-184 272.01,-184 272.01,-165 304.01,-165 304.01,-184"/>
<text text-anchor="middle" x="288.01" y="-172" font-family="Helvetica,sans-Serif" font-size="10.00">list</text>
</a>
</g>
</g>
<!-- Node2&#45;&gt;Node4 -->
<g id="edge3" class="edge">
<title>Node2&#45;&gt;Node4</title>
<path fill="none" stroke="#63b8ff" d="M706.34,-220.94C703.19,-220.62 700.07,-220.31 697.01,-220 529.69,-203.27 482.43,-219.2 314.2,-183.76"/>
<polygon fill="#63b8ff" stroke="#63b8ff" points="314.77,-180.3 304.26,-181.64 313.31,-187.15 314.77,-180.3"/>
</g>
<!-- Node5 -->
<g id="node5" class="node">
<title>Node5</title>
<g id="a_node5"><a xlink:title=" ">
<polygon fill="#e0e0e0" stroke="#999999" points="415.51,-184 322.51,-184 322.51,-165 415.51,-165 415.51,-184"/>
<text text-anchor="middle" x="369.01" y="-172" font-family="Helvetica,sans-Serif" font-size="10.00">unordered_map</text>
</a>
</g>
</g>
<!-- Node2&#45;&gt;Node5 -->
<g id="edge4" class="edge">
<title>Node2&#45;&gt;Node5</title>
<path fill="none" stroke="#63b8ff" d="M706.27,-220.17C637.18,-211.9 528.76,-198.57 425.75,-184.22"/>
<polygon fill="#63b8ff" stroke="#63b8ff" points="426.19,-180.74 415.8,-182.82 425.22,-187.68 426.19,-180.74"/>
</g>
<!-- Node6 -->
<g id="node6" class="node">
<title>Node6</title>
<g id="a_node6"><a xlink:href="MaCh3Exception_8h.html" target="_top" xlink:title=" ">
<polygon fill="white" stroke="#666666" points="586.51,-184 433.51,-184 433.51,-165 586.51,-165 586.51,-184"/>
<text text-anchor="middle" x="510.01" y="-172" font-family="Helvetica,sans-Serif" font-size="10.00">Manager/MaCh3Exception.h</text>
</a>
</g>
</g>
<!-- Node2&#45;&gt;Node6 -->
<g id="edge5" class="edge">
<title>Node2&#45;&gt;Node6</title>
<path fill="none" stroke="#63b8ff" d="M734.11,-219.98C687.63,-210.76 613.42,-196.03 563.25,-186.07"/>
<polygon fill="#63b8ff" stroke="#63b8ff" points="563.73,-182.6 553.24,-184.08 562.37,-189.46 563.73,-182.6"/>
</g>
<!-- Node10 -->
<g id="node10" class="node">
<title>Node10</title>
<g id="a_node10"><a xlink:href="MaCh3Logger_8h.html" target="_top" xlink:title="KS: Based on this https://github.com/gabime/spdlog/blob/a2b4262090fd3f005c2315dcb5be2f0f1774a005/incl...">
<polygon fill="white" stroke="#666666" points="360.51,-129 223.51,-129 223.51,-110 360.51,-110 360.51,-129"/>
<text text-anchor="middle" x="292.01" y="-117" font-family="Helvetica,sans-Serif" font-size="10.00">Manager/MaCh3Logger.h</text>
</a>
</g>
</g>
<!-- Node2&#45;&gt;Node10 -->
<g id="edge25" class="edge">
<title>Node2&#45;&gt;Node10</title>
<path fill="none" stroke="#63b8ff" d="M847.71,-220.99C919.87,-212.59 1022.97,-198.3 1035.01,-184 1040.45,-177.54 1040.8,-171.15 1035.01,-165 1023.73,-153.02 559.74,-131.92 370.82,-123.81"/>
<polygon fill="#63b8ff" stroke="#63b8ff" points="370.81,-120.3 360.67,-123.37 370.51,-127.3 370.81,-120.3"/>
</g>
<!-- Node14 -->
<g id="node14" class="node">
<title>Node14</title>
<g id="a_node14"><a xlink:href="Core_8h.html" target="_top" xlink:title=" ">
<polygon fill="white" stroke="#666666" points="526.01,-74 432.01,-74 432.01,-55 526.01,-55 526.01,-74"/>
<text text-anchor="middle" x="479.01" y="-62" font-family="Helvetica,sans-Serif" font-size="10.00">Manager/Core.h</text>
</a>
</g>
</g>
<!-- Node2&#45;&gt;Node14 -->
<g id="edge26" class="edge">
<title>Node2&#45;&gt;Node14</title>
<path fill="none" stroke="#63b8ff" d="M847.53,-223.29C981.03,-213.27 1258.05,-191.62 1265.01,-184 1270.7,-177.76 1270.59,-171.33 1265.01,-165 1216.8,-110.3 709.2,-77.95 536.31,-68.46"/>
<polygon fill="#63b8ff" stroke="#63b8ff" points="536.31,-64.95 526.14,-67.9 535.93,-71.94 536.31,-64.95"/>
</g>
<!-- Node21 -->
<g id="node21" class="node">
<title>Node21</title>
<g id="a_node21"><a xlink:title=" ">
<polygon fill="#e0e0e0" stroke="#999999" points="717.01,-184 655.01,-184 655.01,-165 717.01,-165 717.01,-184"/>
<text text-anchor="middle" x="686.01" y="-172" font-family="Helvetica,sans-Serif" font-size="10.00">TSpline.h</text>
</a>
</g>
</g>
<!-- Node2&#45;&gt;Node21 -->
<g id="edge27" class="edge">
<title>Node2&#45;&gt;Node21</title>
<path fill="none" stroke="#63b8ff" d="M762.39,-219.98C748.14,-211.69 726.26,-198.94 709.56,-189.22"/>
<polygon fill="#63b8ff" stroke="#63b8ff" points="711.3,-186.18 700.9,-184.17 707.78,-192.23 711.3,-186.18"/>
</g>
<!-- Node2&#45;&gt;Node22 -->
<g id="edge28" class="edge">
<title>Node2&#45;&gt;Node22</title>
<path fill="none" stroke="#63b8ff" d="M810.75,-219.98C846.69,-210.91 903.73,-196.52 943.14,-186.57"/>
<polygon fill="#63b8ff" stroke="#63b8ff" points="944.16,-189.92 953,-184.08 942.45,-183.14 944.16,-189.92"/>
</g>
<!-- Node23 -->
<g id="node23" class="node">
<title>Node23</title>
<g id="a_node23"><a xlink:title=" ">
<polygon fill="#e0e0e0" stroke="#999999" points="784.51,-184 735.51,-184 735.51,-165 784.51,-165 784.51,-184"/>
<text text-anchor="middle" x="760.01" y="-172" font-family="Helvetica,sans-Serif" font-size="10.00">TFile.h</text>
</a>
</g>
</g>
<!-- Node2&#45;&gt;Node23 -->
<g id="edge29" class="edge">
<title>Node2&#45;&gt;Node23</title>
<path fill="none" stroke="#63b8ff" d="M774.2,-219.75C771.95,-212.72 768.71,-202.62 765.89,-193.84"/>
<polygon fill="#63b8ff" stroke="#63b8ff" points="769.15,-192.54 762.76,-184.09 762.49,-194.68 769.15,-192.54"/>
</g>
<!-- Node24 -->
<g id="node24" class="node">
<title>Node24</title>
<g id="a_node24"><a xlink:title=" ">
<polygon fill="#e0e0e0" stroke="#999999" points="847.01,-184 803.01,-184 803.01,-165 847.01,-165 847.01,-184"/>
<text text-anchor="middle" x="825.01" y="-172" font-family="Helvetica,sans-Serif" font-size="10.00">TF1.h</text>
</a>
</g>
</g>
<!-- Node2&#45;&gt;Node24 -->
<g id="edge30" class="edge">
<title>Node2&#45;&gt;Node24</title>
<path fill="none" stroke="#63b8ff" d="M784.94,-219.75C791.85,-212.11 802.07,-200.82 810.46,-191.56"/>
<polygon fill="#63b8ff" stroke="#63b8ff" points="813.11,-193.85 817.23,-184.09 807.92,-189.15 813.11,-193.85"/>
</g>
<!-- Node25 -->
<g id="node25" class="node">
<title>Node25</title>
<g id="a_node25"><a xlink:title=" ">
<polygon fill="#e0e0e0" stroke="#999999" points="930.51,-184 865.51,-184 865.51,-165 930.51,-165 930.51,-184"/>
<text text-anchor="middle" x="898.01" y="-172" font-family="Helvetica,sans-Serif" font-size="10.00">TH2Poly.h</text>
</a>
</g>
</g>
<!-- Node2&#45;&gt;Node25 -->
<g id="edge31" class="edge">
<title>Node2&#45;&gt;Node25</title>
<path fill="none" stroke="#63b8ff" d="M796.45,-219.98C816,-211.42 846.39,-198.11 868.83,-188.28"/>
<polygon fill="#63b8ff" stroke="#63b8ff" points="870.46,-191.39 878.21,-184.17 867.65,-184.98 870.46,-191.39"/>
</g>
<!-- Node26 -->
<g id="node26" class="node">
<title>Node26</title>
<g id="a_node26"><a xlink:title=" ">
<polygon fill="#e0e0e0" stroke="#999999" points="253.51,-184 208.51,-184 208.51,-165 253.51,-165 253.51,-184"/>
<text text-anchor="middle" x="231.01" y="-172" font-family="Helvetica,sans-Serif" font-size="10.00">TH1.h</text>
</a>
</g>
</g>
<!-- Node2&#45;&gt;Node26 -->
<g id="edge32" class="edge">
<title>Node2&#45;&gt;Node26</title>
<path fill="none" stroke="#63b8ff" d="M706.35,-220.9C703.19,-220.59 700.07,-220.29 697.01,-220 507.61,-202.09 455.5,-216.46 263.75,-183.78"/>
<polygon fill="#63b8ff" stroke="#63b8ff" points="264.07,-180.29 253.62,-182.04 262.88,-187.19 264.07,-180.29"/>
</g>
<!-- Node27 -->
<g id="node27" class="node">
<title>Node27</title>
<g id="a_node27"><a xlink:title=" ">
<polygon fill="#e0e0e0" stroke="#999999" points="1255.51,-184 1082.51,-184 1082.51,-165 1255.51,-165 1255.51,-184"/>
<text text-anchor="middle" x="1169.01" y="-172" font-family="Helvetica,sans-Serif" font-size="10.00">Constants/OscillatorConstants.h</text>
</a>
</g>
</g>
<!-- Node2&#45;&gt;Node27 -->
<g id="edge33" class="edge">
<title>Node2&#45;&gt;Node27</title>
<path fill="none" stroke="#63b8ff" d="M839.99,-219.98C909.75,-210.55 1022.08,-195.36 1095.73,-185.41"/>
<polygon fill="#63b8ff" stroke="#63b8ff" points="1096.42,-188.85 1105.86,-184.04 1095.48,-181.91 1096.42,-188.85"/>
</g>
<!-- Node7 -->
<g id="node7" class="node">
<title>Node7</title>
<g id="a_node7"><a xlink:title=" ">
<polygon fill="#e0e0e0" stroke="#999999" points="291.01,-19 231.01,-19 231.01,0 291.01,0 291.01,-19"/>
<text text-anchor="middle" x="261.01" y="-7" font-family="Helvetica,sans-Serif" font-size="10.00">iostream</text>
</a>
</g>
</g>
<!-- Node6&#45;&gt;Node7 -->
<g id="edge6" class="edge">
<title>Node6&#45;&gt;Node7</title>
<path fill="none" stroke="#63b8ff" d="M441.04,-165C308.87,-147.99 30.61,-108.46 4.01,-74 -1.15,-67.32 -1.43,-61.46 4.01,-55 31.22,-22.68 155.32,-13.83 220.6,-11.41"/>
<polygon fill="#63b8ff" stroke="#63b8ff" points="221.05,-14.9 230.93,-11.06 220.81,-7.9 221.05,-14.9"/>
</g>
<!-- Node8 -->
<g id="node8" class="node">
<title>Node8</title>
<g id="a_node8"><a xlink:title=" ">
<polygon fill="#e0e0e0" stroke="#999999" points="411.01,-74 367.01,-74 367.01,-55 411.01,-55 411.01,-74"/>
<text text-anchor="middle" x="389.01" y="-62" font-family="Helvetica,sans-Serif" font-size="10.00">string</text>
</a>
</g>
</g>
<!-- Node6&#45;&gt;Node8 -->
<g id="edge7" class="edge">
<title>Node6&#45;&gt;Node8</title>
<path fill="none" stroke="#63b8ff" d="M500.11,-164.66C479.53,-146.3 431.93,-103.81 406.23,-80.87"/>
<polygon fill="#63b8ff" stroke="#63b8ff" points="408.5,-78.21 398.71,-74.16 403.84,-83.43 408.5,-78.21"/>
</g>
<!-- Node9 -->
<g id="node9" class="node">
<title>Node9</title>
<g id="a_node9"><a xlink:title=" ">
<polygon fill="#e0e0e0" stroke="#999999" points="572.51,-129 507.51,-129 507.51,-110 572.51,-110 572.51,-129"/>
<text text-anchor="middle" x="540.01" y="-117" font-family="Helvetica,sans-Serif" font-size="10.00">stdexcept</text>
</a>
</g>
</g>
<!-- Node6&#45;&gt;Node9 -->
<g id="edge8" class="edge">
<title>Node6&#45;&gt;Node9</title>
<path fill="none" stroke="#63b8ff" d="M514.96,-164.75C519.07,-157.49 525.03,-146.95 530.11,-137.98"/>
<polygon fill="#63b8ff" stroke="#63b8ff" points="533.27,-139.52 535.15,-129.09 527.18,-136.07 533.27,-139.52"/>
</g>
<!-- Node6&#45;&gt;Node10 -->
<g id="edge9" class="edge">
<title>Node6&#45;&gt;Node10</title>
<path fill="none" stroke="#63b8ff" d="M474.98,-164.98C437.51,-155.87 377.96,-141.4 337.03,-131.45"/>
<polygon fill="#63b8ff" stroke="#63b8ff" points="337.85,-128.04 327.31,-129.08 336.2,-134.85 337.85,-128.04"/>
</g>
<!-- Node6&#45;&gt;Node14 -->
<g id="edge24" class="edge">
<title>Node6&#45;&gt;Node14</title>
<path fill="none" stroke="#63b8ff" d="M507.47,-164.66C502.43,-147.09 491.05,-107.45 484.31,-83.95"/>
<polygon fill="#63b8ff" stroke="#63b8ff" points="487.62,-82.8 481.49,-74.16 480.89,-84.74 487.62,-82.8"/>
</g>
<!-- Node10&#45;&gt;Node7 -->
<g id="edge10" class="edge">
<title>Node10&#45;&gt;Node7</title>
<path fill="none" stroke="#63b8ff" d="M291.19,-109.71C289.88,-97.3 286.84,-74.04 281.01,-55 278.22,-45.89 274.02,-36.19 270.19,-28.18"/>
<polygon fill="#63b8ff" stroke="#63b8ff" points="273.26,-26.5 265.66,-19.11 267,-29.62 273.26,-26.5"/>
</g>
<!-- Node10&#45;&gt;Node8 -->
<g id="edge13" class="edge">
<title>Node10&#45;&gt;Node8</title>
<path fill="none" stroke="#63b8ff" d="M307.59,-109.98C322.78,-101.69 346.11,-88.94 363.91,-79.22"/>
<polygon fill="#63b8ff" stroke="#63b8ff" points="366.04,-82.04 373.14,-74.17 362.69,-75.89 366.04,-82.04"/>
</g>
<!-- Node11 -->
<g id="node11" class="node">
<title>Node11</title>
<g id="a_node11"><a xlink:title=" ">
<polygon fill="#e0e0e0" stroke="#999999" points="365.01,-19 309.01,-19 309.01,0 365.01,0 365.01,-19"/>
<text text-anchor="middle" x="337.01" y="-7" font-family="Helvetica,sans-Serif" font-size="10.00">sstream</text>
</a>
</g>
</g>
<!-- Node10&#45;&gt;Node11 -->
<g id="edge11" class="edge">
<title>Node10&#45;&gt;Node11</title>
<path fill="none" stroke="#63b8ff" d="M295.69,-109.66C303.05,-92.01 319.68,-52.09 329.45,-28.64"/>
<polygon fill="#63b8ff" stroke="#63b8ff" points="332.79,-29.74 333.4,-19.16 326.32,-27.04 332.79,-29.74"/>
</g>
<!-- Node12 -->
<g id="node12" class="node">
<title>Node12</title>
<g id="a_node12"><a xlink:title=" ">
<polygon fill="#e0e0e0" stroke="#999999" points="78.51,-74 13.51,-74 13.51,-55 78.51,-55 78.51,-74"/>
<text text-anchor="middle" x="46.01" y="-62" font-family="Helvetica,sans-Serif" font-size="10.00">functional</text>
</a>
</g>
</g>
<!-- Node10&#45;&gt;Node12 -->
<g id="edge12" class="edge">
<title>Node10&#45;&gt;Node12</title>
<path fill="none" stroke="#63b8ff" d="M252.48,-109.98C207.66,-100.33 134.83,-84.64 88.72,-74.7"/>
<polygon fill="#63b8ff" stroke="#63b8ff" points="89.26,-71.24 78.75,-72.55 87.78,-78.08 89.26,-71.24"/>
</g>
<!-- Node13 -->
<g id="node13" class="node">
<title>Node13</title>
<g id="a_node13"><a xlink:title=" ">
<polygon fill="#e0e0e0" stroke="#999999" points="161.51,-74 96.51,-74 96.51,-55 161.51,-55 161.51,-74"/>
<text text-anchor="middle" x="129.01" y="-62" font-family="Helvetica,sans-Serif" font-size="10.00">exception</text>
</a>
</g>
</g>
<!-- Node10&#45;&gt;Node13 -->
<g id="edge14" class="edge">
<title>Node10&#45;&gt;Node13</title>
<path fill="none" stroke="#63b8ff" d="M265.82,-109.98C238.57,-101.13 195.71,-87.19 165.23,-77.28"/>
<polygon fill="#63b8ff" stroke="#63b8ff" points="166,-73.85 155.4,-74.08 163.83,-80.5 166,-73.85"/>
</g>
<!-- Node10&#45;&gt;Node14 -->
<g id="edge15" class="edge">
<title>Node10&#45;&gt;Node14</title>
<path fill="none" stroke="#63b8ff" d="M322.05,-109.98C353.72,-101.01 403.77,-86.82 438.82,-76.89"/>
<polygon fill="#63b8ff" stroke="#63b8ff" points="440.06,-80.18 448.73,-74.08 438.15,-73.44 440.06,-80.18"/>
</g>
<!-- Node20 -->
<g id="node20" class="node">
<title>Node20</title>
<g id="a_node20"><a xlink:title=" ">
<polygon fill="#e0e0e0" stroke="#999999" points="272.51,-74 179.51,-74 179.51,-55 272.51,-55 272.51,-74"/>
<text text-anchor="middle" x="226.01" y="-62" font-family="Helvetica,sans-Serif" font-size="10.00">spdlog/spdlog.h</text>
</a>
</g>
</g>
<!-- Node10&#45;&gt;Node20 -->
<g id="edge23" class="edge">
<title>Node10&#45;&gt;Node20</title>
<path fill="none" stroke="#63b8ff" d="M281.4,-109.98C271.55,-102.07 256.66,-90.11 244.79,-80.58"/>
<polygon fill="#63b8ff" stroke="#63b8ff" points="246.79,-77.7 236.81,-74.17 242.41,-83.16 246.79,-77.7"/>
</g>
<!-- Node14&#45;&gt;Node7 -->
<g id="edge18" class="edge">
<title>Node14&#45;&gt;Node7</title>
<path fill="none" stroke="#63b8ff" d="M443.98,-54.98C404.93,-45.49 341.88,-30.16 300.94,-20.21"/>
<polygon fill="#63b8ff" stroke="#63b8ff" points="301.58,-16.76 291.03,-17.8 299.92,-23.56 301.58,-16.76"/>
</g>
<!-- Node14&#45;&gt;Node11 -->
<g id="edge16" class="edge">
<title>Node14&#45;&gt;Node11</title>
<path fill="none" stroke="#63b8ff" d="M456.19,-54.98C432.84,-46.27 396.3,-32.63 369.84,-22.75"/>
<polygon fill="#63b8ff" stroke="#63b8ff" points="370.83,-19.39 360.24,-19.17 368.38,-25.95 370.83,-19.39"/>
</g>
<!-- Node15 -->
<g id="node15" class="node">
<title>Node15</title>
<g id="a_node15"><a xlink:title=" ">
<polygon fill="#e0e0e0" stroke="#999999" points="640.51,-19 585.51,-19 585.51,0 640.51,0 640.51,-19"/>
<text text-anchor="middle" x="613.01" y="-7" font-family="Helvetica,sans-Serif" font-size="10.00">fstream</text>
</a>
</g>
</g>
<!-- Node14&#45;&gt;Node15 -->
<g id="edge17" class="edge">
<title>Node14&#45;&gt;Node15</title>
<path fill="none" stroke="#63b8ff" d="M500.54,-54.98C522.48,-46.3 556.75,-32.75 581.7,-22.88"/>
<polygon fill="#63b8ff" stroke="#63b8ff" points="583.08,-26.1 591.09,-19.17 580.5,-19.59 583.08,-26.1"/>
</g>
<!-- Node16 -->
<g id="node16" class="node">
<title>Node16</title>
<g id="a_node16"><a xlink:title=" ">
<polygon fill="#e0e0e0" stroke="#999999" points="705.51,-19 658.51,-19 658.51,0 705.51,0 705.51,-19"/>
<text text-anchor="middle" x="682.01" y="-7" font-family="Helvetica,sans-Serif" font-size="10.00">vector</text>
</a>
</g>
</g>
<!-- Node14&#45;&gt;Node16 -->
<g id="edge19" class="edge">
<title>Node14&#45;&gt;Node16</title>
<path fill="none" stroke="#63b8ff" d="M512.12,-54.94C544.56,-46.53 595.66,-33.27 648.39,-19.42"/>
<polygon fill="#63b8ff" stroke="#63b8ff" points="649.47,-22.75 658.25,-16.83 647.69,-15.98 649.47,-22.75"/>
</g>
<!-- Node17 -->
<g id="node17" class="node">
<title>Node17</title>
<g id="a_node17"><a xlink:title=" ">
<polygon fill="#e0e0e0" stroke="#999999" points="439.01,-19 383.01,-19 383.01,0 439.01,0 439.01,-19"/>
<text text-anchor="middle" x="411.01" y="-7" font-family="Helvetica,sans-Serif" font-size="10.00">iomanip</text>
</a>
</g>
</g>
<!-- Node14&#45;&gt;Node17 -->
<g id="edge20" class="edge">
<title>Node14&#45;&gt;Node17</title>
<path fill="none" stroke="#63b8ff" d="M468.08,-54.98C457.93,-47.07 442.59,-35.11 430.36,-25.58"/>
<polygon fill="#63b8ff" stroke="#63b8ff" points="432.17,-22.56 422.13,-19.17 427.87,-28.08 432.17,-22.56"/>
</g>
<!-- Node18 -->
<g id="node18" class="node">
<title>Node18</title>
<g id="a_node18"><a xlink:title=" ">
<polygon fill="#e0e0e0" stroke="#999999" points="504.51,-19 457.51,-19 457.51,0 504.51,0 504.51,-19"/>
<text text-anchor="middle" x="481.01" y="-7" font-family="Helvetica,sans-Serif" font-size="10.00">cmath</text>
</a>
</g>
</g>
<!-- Node14&#45;&gt;Node18 -->
<g id="edge21" class="edge">
<title>Node14&#45;&gt;Node18</title>
<path fill="none" stroke="#63b8ff" d="M479.34,-54.75C479.6,-47.8 479.98,-37.85 480.31,-29.13"/>
<polygon fill="#63b8ff" stroke="#63b8ff" points="483.81,-29.21 480.68,-19.09 476.81,-28.95 483.81,-29.21"/>
</g>
<!-- Node19 -->
<g id="node19" class="node">
<title>Node19</title>
<g id="a_node19"><a xlink:title=" ">
<polygon fill="#e0e0e0" stroke="#999999" points="567.01,-19 523.01,-19 523.01,0 567.01,0 567.01,-19"/>
<text text-anchor="middle" x="545.01" y="-7" font-family="Helvetica,sans-Serif" font-size="10.00">limits</text>
</a>
</g>
</g>
<!-- Node14&#45;&gt;Node19 -->
<g id="edge22" class="edge">
<title>Node14&#45;&gt;Node19</title>
<path fill="none" stroke="#63b8ff" d="M489.61,-54.98C499.47,-47.07 514.36,-35.11 526.22,-25.58"/>
<polygon fill="#63b8ff" stroke="#63b8ff" points="528.61,-28.16 534.21,-19.17 524.22,-22.7 528.61,-28.16"/>
</g>
<!-- Node28&#45;&gt;Node3 -->
<g id="edge35" class="edge">
<title>Node28&#45;&gt;Node3</title>
<path fill="none" stroke="#63b8ff" d="M606.82,-219.75C609.07,-212.72 612.31,-202.62 615.12,-193.84"/>
<polygon fill="#63b8ff" stroke="#63b8ff" points="618.53,-194.68 618.25,-184.09 611.87,-192.54 618.53,-194.68"/>
</g>
<!-- Node28&#45;&gt;Node4 -->
<g id="edge36" class="edge">
<title>Node28&#45;&gt;Node4</title>
<path fill="none" stroke="#63b8ff" d="M522.98,-219.99C466.59,-213.16 389.63,-202.07 313.75,-183.79"/>
<polygon fill="#63b8ff" stroke="#63b8ff" points="314.57,-180.39 304.02,-181.41 312.9,-187.19 314.57,-180.39"/>
</g>
<!-- Node28&#45;&gt;Node5 -->
<g id="edge37" class="edge">
<title>Node28&#45;&gt;Node5</title>
<path fill="none" stroke="#63b8ff" d="M566.25,-219.98C525.69,-210.84 461.12,-196.27 416.98,-186.32"/>
<polygon fill="#63b8ff" stroke="#63b8ff" points="417.59,-182.87 407.06,-184.08 416.05,-189.7 417.59,-182.87"/>
</g>
<!-- Node28&#45;&gt;Node6 -->
<g id="edge38" class="edge">
<title>Node28&#45;&gt;Node6</title>
<path fill="none" stroke="#63b8ff" d="M588.91,-219.98C574.19,-211.69 551.58,-198.94 534.33,-189.22"/>
<polygon fill="#63b8ff" stroke="#63b8ff" points="535.82,-186.03 525.39,-184.17 532.38,-192.13 535.82,-186.03"/>
</g>
<!-- Node28&#45;&gt;Node10 -->
<g id="edge39" class="edge">
<title>Node28&#45;&gt;Node10</title>
<path fill="none" stroke="#63b8ff" d="M519.73,-225.91C399.13,-221.31 189.23,-209.7 166.01,-184 142.24,-157.7 185.62,-140.84 227.82,-131.15"/>
<polygon fill="#63b8ff" stroke="#63b8ff" points="228.6,-134.56 237.62,-129.02 227.11,-127.72 228.6,-134.56"/>
</g>
<!-- Node28&#45;&gt;Node14 -->
<g id="edge40" class="edge">
<title>Node28&#45;&gt;Node14</title>
<path fill="none" stroke="#63b8ff" d="M519.98,-225.15C407.61,-219.8 220.02,-207.44 199.01,-184 193.37,-177.71 193.69,-171.56 199.01,-165 247.63,-105 296.9,-156.65 369.01,-129 402.34,-116.22 437.5,-94.21 458.85,-79.76"/>
<polygon fill="#63b8ff" stroke="#63b8ff" points="460.86,-82.63 467.11,-74.07 456.89,-76.86 460.86,-82.63"/>
</g>
<!-- Node28&#45;&gt;Node21 -->
<g id="edge41" class="edge">
<title>Node28&#45;&gt;Node21</title>
<path fill="none" stroke="#63b8ff" d="M617.18,-219.98C629.78,-211.84 649.01,-199.41 663.95,-189.76"/>
<polygon fill="#63b8ff" stroke="#63b8ff" points="666.1,-192.54 672.59,-184.17 662.3,-186.66 666.1,-192.54"/>
</g>
<!-- Node28&#45;&gt;Node22 -->
<g id="edge42" class="edge">
<title>Node28&#45;&gt;Node22</title>
<path fill="none" stroke="#63b8ff" d="M675.92,-219.97C741.79,-211.94 842.23,-199.11 938.41,-184.19"/>
<polygon fill="#63b8ff" stroke="#63b8ff" points="938.96,-187.65 948.3,-182.65 937.88,-180.73 938.96,-187.65"/>
</g>
<!-- Node28&#45;&gt;Node23 -->
<g id="edge43" class="edge">
<title>Node28&#45;&gt;Node23</title>
<path fill="none" stroke="#63b8ff" d="M629.07,-219.98C655.19,-211.11 696.3,-197.14 725.48,-187.23"/>
<polygon fill="#63b8ff" stroke="#63b8ff" points="726.92,-190.44 735.26,-183.91 724.67,-183.81 726.92,-190.44"/>
</g>
<!-- Node28&#45;&gt;Node24 -->
<g id="edge44" class="edge">
<title>Node28&#45;&gt;Node24</title>
<path fill="none" stroke="#63b8ff" d="M642.32,-219.97C678.67,-211.78 735.05,-198.82 792.67,-184.27"/>
<polygon fill="#63b8ff" stroke="#63b8ff" points="793.85,-187.58 802.68,-181.73 792.13,-180.8 793.85,-187.58"/>
</g>
<!-- Node28&#45;&gt;Node25 -->
<g id="edge45" class="edge">
<title>Node28&#45;&gt;Node25</title>
<path fill="none" stroke="#63b8ff" d="M654.76,-219.92C703.51,-211.59 779.51,-198.39 855.27,-184.1"/>
<polygon fill="#63b8ff" stroke="#63b8ff" points="856.29,-187.47 865.47,-182.17 854.99,-180.59 856.29,-187.47"/>
</g>
<!-- Node28&#45;&gt;Node26 -->
<g id="edge46" class="edge">
<title>Node28&#45;&gt;Node26</title>
<path fill="none" stroke="#63b8ff" d="M519.78,-220.59C452.84,-213.59 356.69,-201.95 263.53,-183.85"/>
<polygon fill="#63b8ff" stroke="#63b8ff" points="264.14,-180.4 253.65,-181.9 262.78,-187.27 264.14,-180.4"/>
</g>
</g>
</svg>
        <g id="navigator" transform="translate(0 0)" fill="#404254">
                <rect fill="#f2f5e9" fill-opacity="0.5" stroke="#606060" stroke-width=".5" x="0" y="0" width="60" height="60"/>
                <use id="zoomplus" xlink:href="#zoomPlus" x="17" y="9" onmousedown="handleZoom(evt,'in')"/>
                <use id="zoomminus" xlink:href="#zoomMin" x="42" y="9" onmousedown="handleZoom(evt,'out')"/>
                <use id="reset" xlink:href="#resetDef" x="30" y="36" onmousedown="handleReset()"/>
                <g id="arrowUp" xlink:href="#dirArrow" transform="translate(30 24)" onmousedown="handlePan(0,-1)">
                  <use xlink:href="#rim" fill="#404040">
                        <set attributeName="fill" to="#808080" begin="arrowUp.mouseover" end="arrowUp.mouseout"/>
                  </use>
                  <path fill="none" stroke="white" stroke-width="1.5" d="M0,-3.0v7 M-2.5,-0.5L0,-3.0L2.5,-0.5"/>
                </g>
                <g id="arrowRight" xlink:href="#dirArrow" transform="rotate(90) translate(36 -43)" onmousedown="handlePan(1,0)">
                  <use xlink:href="#rim" fill="#404040">
                        <set attributeName="fill" to="#808080" begin="arrowRight.mouseover" end="arrowRight.mouseout"/>
                  </use>
                  <path fill="none" stroke="white" stroke-width="1.5" d="M0,-3.0v7 M-2.5,-0.5L0,-3.0L2.5,-0.5"/>
                </g>
                <g id="arrowDown" xlink:href="#dirArrow" transform="rotate(180) translate(-30 -48)" onmousedown="handlePan(0,1)">
                  <use xlink:href="#rim" fill="#404040">
                        <set attributeName="fill" to="#808080" begin="arrowDown.mouseover" end="arrowDown.mouseout"/>
                  </use>
                  <path fill="none" stroke="white" stroke-width="1.5" d="M0,-3.0v7 M-2.5,-0.5L0,-3.0L2.5,-0.5"/>
                </g>
                <g id="arrowLeft" xlink:href="#dirArrow" transform="rotate(270) translate(-36 17)" onmousedown="handlePan(-1,0)">
                  <use xlink:href="#rim" fill="#404040">
                        <set attributeName="fill" to="#808080" begin="arrowLeft.mouseover" end="arrowLeft.mouseout"/>
                  </use>
                  <path fill="none" stroke="white" stroke-width="1.5" d="M0,-3.0v7 M-2.5,-0.5L0,-3.0L2.5,-0.5"/>
                </g>
        </g>
        <svg viewBox="0 0 15 15" width="100%" height="30px" preserveAspectRatio="xMaxYMin meet">
         <g id="arrow_out" transform="scale(0.3 0.3)">
          <a xlink:href="HistogramUtils_8h__incl_org.svg" target="_base">
           <rect id="button" ry="5" rx="5" y="6" x="6" height="38" width="38"
                fill="#f2f5e9" fill-opacity="0.5" stroke="#606060" stroke-width="1.0"/>
           <path id="arrow"
             d="M 11.500037,31.436501 C 11.940474,20.09759 22.043105,11.32322 32.158766,21.979434 L 37.068811,17.246167 C 37.068811,17.246167 37.088388,32 37.088388,32 L 22.160133,31.978069 C 22.160133,31.978069 26.997745,27.140456 26.997745,27.140456 C 18.528582,18.264221 13.291696,25.230495 11.500037,31.436501 z"
             style="fill:#404040;"/>
          </a>
         </g>
        </svg>
</svg>
