<?xml version="1.0" encoding="UTF-8" standalone="no"?>
<!DOCTYPE svg PUBLIC "-//W3C//DTD SVG 1.1//EN"
 "http://www.w3.org/Graphics/SVG/1.1/DTD/svg11.dtd">
<!-- Generated by graphviz version 2.43.0 (0)
 -->
<!-- Title: Plotting/plottingUtils/inputManager.h Pages: 1 -->
<!--zoomable 170 -->
<svg id="main" version="1.1" xmlns="http://www.w3.org/2000/svg" xmlns:xlink="http://www.w3.org/1999/xlink" xml:space="preserve" onload="init(evt)">
<style type="text/css"><![CDATA[
.edge:hover path { stroke: red; }
.edge:hover polygon { stroke: red; fill: red; }
]]></style>
<script type="text/javascript"><![CDATA[
var edges = document.getElementsByTagName('g');
if (edges && edges.length) {
  for (var i=0;i<edges.length;i++) {
    if (edges[i].id.substr(0,4)=='edge') {
      edges[i].setAttribute('class','edge');
    }
  }
}
]]></script>
        <defs>
                <circle id="rim" cx="0" cy="0" r="7"/>
                <circle id="rim2" cx="0" cy="0" r="3.5"/>
                <g id="zoomPlus">
                        <use xlink:href="#rim" fill="#404040">
                                <set attributeName="fill" to="#808080" begin="zoomplus.mouseover" end="zoomplus.mouseout"/>
                        </use>
                        <path d="M-4,0h8M0,-4v8" fill="none" stroke="white" stroke-width="1.5" pointer-events="none"/>
                </g>
                <g id="zoomMin">
                        <use xlink:href="#rim" fill="#404040">
                                <set attributeName="fill" to="#808080" begin="zoomminus.mouseover" end="zoomminus.mouseout"/>
                        </use>
                        <path d="M-4,0h8" fill="none" stroke="white" stroke-width="1.5" pointer-events="none"/>
                </g>
                <g id="dirArrow">
                        <path fill="none" stroke="white" stroke-width="1.5" d="M0,-3.0v7 M-2.5,-0.5L0,-3.0L2.5,-0.5"/>
                </g>
               <g id="resetDef">
                       <use xlink:href="#rim2" fill="#404040">
                               <set attributeName="fill" to="#808080" begin="reset.mouseover" end="reset.mouseout"/>
                       </use>
               </g>
        </defs>

<script type="text/javascript">
var viewWidth = 701;
var viewHeight = 170;
var sectionId = 'dynsection-1';
</script>
<script xlink:href="svgpan.js"/>
<svg id="graph" class="graph">
<g id="viewport">
<title>Plotting/plottingUtils/inputManager.h</title>
<!-- Node1 -->
<g id="node1" class="node">
<title>Node1</title>
<g id="a_node1"><a xlink:title=" ">
<polygon fill="#999999" stroke="#666666" points="472.5,-162 355.5,-162 355.5,-132 472.5,-132 472.5,-162"/>
<text text-anchor="start" x="363.5" y="-150" font-family="Helvetica,sans-Serif" font-size="10.00">Plotting/plottingUtils</text>
<text text-anchor="middle" x="414" y="-139" font-family="Helvetica,sans-Serif" font-size="10.00">/inputManager.h</text>
</a>
</g>
</g>
<!-- Node2 -->
<g id="node2" class="node">
<title>Node2</title>
<g id="a_node2"><a xlink:href="inputManager_8cpp.html" target="_top" xlink:title=" ">
<polygon fill="white" stroke="#666666" points="337.5,-96 220.5,-96 220.5,-66 337.5,-66 337.5,-96"/>
<text text-anchor="start" x="228.5" y="-84" font-family="Helvetica,sans-Serif" font-size="10.00">Plotting/plottingUtils</text>
<text text-anchor="middle" x="279" y="-73" font-family="Helvetica,sans-Serif" font-size="10.00">/inputManager.cpp</text>
</a>
</g>
</g>
<!-- Node1&#45;&gt;Node2 -->
<g id="edge1" class="edge">
<title>Node1&#45;&gt;Node2</title>
<path fill="none" stroke="#63b8ff" d="M375.29,-127.65C354.06,-117.58 328.15,-105.3 308.56,-96.01"/>
<polygon fill="#63b8ff" stroke="#63b8ff" points="373.84,-130.83 384.37,-131.95 376.84,-124.51 373.84,-130.83"/>
</g>
<!-- Node3 -->
<g id="node3" class="node">
<title>Node3</title>
<g id="a_node3"><a xlink:href="plottingManager_8h.html" target="_top" xlink:title=" ">
<polygon fill="white" stroke="#666666" points="472.5,-96 355.5,-96 355.5,-66 472.5,-66 472.5,-96"/>
<text text-anchor="start" x="363.5" y="-84" font-family="Helvetica,sans-Serif" font-size="10.00">Plotting/plottingUtils</text>
<text text-anchor="middle" x="414" y="-73" font-family="Helvetica,sans-Serif" font-size="10.00">/plottingManager.h</text>
</a>
</g>
</g>
<!-- Node1&#45;&gt;Node3 -->
<g id="edge2" class="edge">
<title>Node1&#45;&gt;Node3</title>
<path fill="none" stroke="#63b8ff" d="M414,-121.54C414,-112.96 414,-103.61 414,-96.16"/>
<polygon fill="#63b8ff" stroke="#63b8ff" points="410.5,-121.8 414,-131.8 417.5,-121.8 410.5,-121.8"/>
</g>
<!-- Node8 -->
<g id="node8" class="node">
<title>Node8</title>
<g id="a_node8"><a xlink:href="plotting_8cpp.html" target="_top" xlink:title=" ">
<polygon fill="white" stroke="#666666" points="692.5,-24.5 581.5,-24.5 581.5,-5.5 692.5,-5.5 692.5,-24.5"/>
<text text-anchor="middle" x="637" y="-12.5" font-family="Helvetica,sans-Serif" font-size="10.00">python/plotting.cpp</text>
</a>
</g>
</g>
<!-- Node1&#45;&gt;Node8 -->
<g id="edge8" class="edge">
<title>Node1&#45;&gt;Node8</title>
<path fill="none" stroke="#63b8ff" d="M446.97,-126.78C496.18,-98.09 586.84,-45.24 622.27,-24.59"/>
<polygon fill="#63b8ff" stroke="#63b8ff" points="445.17,-123.78 438.29,-131.84 448.69,-129.83 445.17,-123.78"/>
</g>
<!-- Node4 -->
<g id="node4" class="node">
<title>Node4</title>
<g id="a_node4"><a xlink:href="GetPostfitParamPlots_8cpp.html" target="_top" xlink:title=" ">
<polygon fill="white" stroke="#666666" points="136,-30 0,-30 0,0 136,0 136,-30"/>
<text text-anchor="start" x="8" y="-18" font-family="Helvetica,sans-Serif" font-size="10.00">Plotting/GetPostfitParam</text>
<text text-anchor="middle" x="68" y="-7" font-family="Helvetica,sans-Serif" font-size="10.00">Plots.cpp</text>
</a>
</g>
</g>
<!-- Node3&#45;&gt;Node4 -->
<g id="edge3" class="edge">
<title>Node3&#45;&gt;Node4</title>
<path fill="none" stroke="#63b8ff" d="M345.57,-65.95C255.26,-48.65 231.26,-45.57 145,-30 142.06,-29.47 139.05,-28.93 136.02,-28.38"/>
<polygon fill="#63b8ff" stroke="#63b8ff" points="344.93,-69.39 355.41,-67.84 346.25,-62.51 344.93,-69.39"/>
</g>
<!-- Node5 -->
<g id="node5" class="node">
<title>Node5</title>
<g id="a_node5"><a xlink:href="MatrixPlotter_8cpp.html" target="_top" xlink:title=" ">
<polygon fill="white" stroke="#666666" points="294,-24.5 154,-24.5 154,-5.5 294,-5.5 294,-24.5"/>
<text text-anchor="middle" x="224" y="-12.5" font-family="Helvetica,sans-Serif" font-size="10.00">Plotting/MatrixPlotter.cpp</text>
</a>
</g>
</g>
<!-- Node3&#45;&gt;Node5 -->
<g id="edge4" class="edge">
<title>Node3&#45;&gt;Node5</title>
<path fill="none" stroke="#63b8ff" d="M362.75,-62.74C326.01,-50.36 278.12,-34.23 249.29,-24.52"/>
<polygon fill="#63b8ff" stroke="#63b8ff" points="361.71,-66.08 372.3,-65.95 363.94,-59.45 361.71,-66.08"/>
</g>
<!-- Node6 -->
<g id="node6" class="node">
<title>Node6</title>
<g id="a_node6"><a xlink:href="PlotLLH_8cpp.html" target="_top" xlink:title=" ">
<polygon fill="white" stroke="#666666" points="426,-24.5 312,-24.5 312,-5.5 426,-5.5 426,-24.5"/>
<text text-anchor="middle" x="369" y="-12.5" font-family="Helvetica,sans-Serif" font-size="10.00">Plotting/PlotLLH.cpp</text>
</a>
</g>
</g>
<!-- Node3&#45;&gt;Node6 -->
<g id="edge5" class="edge">
<title>Node3&#45;&gt;Node6</title>
<path fill="none" stroke="#63b8ff" d="M398.26,-57.61C390.32,-46.32 381.15,-33.28 375.22,-24.84"/>
<polygon fill="#63b8ff" stroke="#63b8ff" points="395.4,-59.63 404.01,-65.8 401.12,-55.6 395.4,-59.63"/>
</g>
<!-- Node7 -->
<g id="node7" class="node">
<title>Node7</title>
<g id="a_node7"><a xlink:href="plottingManager_8cpp.html" target="_top" xlink:title=" ">
<polygon fill="white" stroke="#666666" points="563.5,-30 444.5,-30 444.5,0 563.5,0 563.5,-30"/>
<text text-anchor="start" x="452.5" y="-18" font-family="Helvetica,sans-Serif" font-size="10.00">Plotting/plottingUtils</text>
<text text-anchor="middle" x="504" y="-7" font-family="Helvetica,sans-Serif" font-size="10.00">/plottingManager.cpp</text>
</a>
</g>
</g>
<!-- Node3&#45;&gt;Node7 -->
<g id="edge6" class="edge">
<title>Node3&#45;&gt;Node7</title>
<path fill="none" stroke="#63b8ff" d="M442.47,-59.75C456.01,-50.13 471.86,-38.86 484.08,-30.16"/>
<polygon fill="#63b8ff" stroke="#63b8ff" points="440.1,-57.15 433.97,-65.8 444.15,-62.85 440.1,-57.15"/>
</g>
<!-- Node3&#45;&gt;Node8 -->
<g id="edge7" class="edge">
<title>Node3&#45;&gt;Node8</title>
<path fill="none" stroke="#63b8ff" d="M472.79,-63.13C516.07,-50.71 573.12,-34.33 607.32,-24.52"/>
<polygon fill="#63b8ff" stroke="#63b8ff" points="471.58,-59.83 462.94,-65.95 473.52,-66.56 471.58,-59.83"/>
</g>
</g>
</svg>
        <g id="navigator" transform="translate(0 0)" fill="#404254">
                <rect fill="#f2f5e9" fill-opacity="0.5" stroke="#606060" stroke-width=".5" x="0" y="0" width="60" height="60"/>
                <use id="zoomplus" xlink:href="#zoomPlus" x="17" y="9" onmousedown="handleZoom(evt,'in')"/>
                <use id="zoomminus" xlink:href="#zoomMin" x="42" y="9" onmousedown="handleZoom(evt,'out')"/>
                <use id="reset" xlink:href="#resetDef" x="30" y="36" onmousedown="handleReset()"/>
                <g id="arrowUp" xlink:href="#dirArrow" transform="translate(30 24)" onmousedown="handlePan(0,-1)">
                  <use xlink:href="#rim" fill="#404040">
                        <set attributeName="fill" to="#808080" begin="arrowUp.mouseover" end="arrowUp.mouseout"/>
                  </use>
                  <path fill="none" stroke="white" stroke-width="1.5" d="M0,-3.0v7 M-2.5,-0.5L0,-3.0L2.5,-0.5"/>
                </g>
                <g id="arrowRight" xlink:href="#dirArrow" transform="rotate(90) translate(36 -43)" onmousedown="handlePan(1,0)">
                  <use xlink:href="#rim" fill="#404040">
                        <set attributeName="fill" to="#808080" begin="arrowRight.mouseover" end="arrowRight.mouseout"/>
                  </use>
                  <path fill="none" stroke="white" stroke-width="1.5" d="M0,-3.0v7 M-2.5,-0.5L0,-3.0L2.5,-0.5"/>
                </g>
                <g id="arrowDown" xlink:href="#dirArrow" transform="rotate(180) translate(-30 -48)" onmousedown="handlePan(0,1)">
                  <use xlink:href="#rim" fill="#404040">
                        <set attributeName="fill" to="#808080" begin="arrowDown.mouseover" end="arrowDown.mouseout"/>
                  </use>
                  <path fill="none" stroke="white" stroke-width="1.5" d="M0,-3.0v7 M-2.5,-0.5L0,-3.0L2.5,-0.5"/>
                </g>
                <g id="arrowLeft" xlink:href="#dirArrow" transform="rotate(270) translate(-36 17)" onmousedown="handlePan(-1,0)">
                  <use xlink:href="#rim" fill="#404040">
                        <set attributeName="fill" to="#808080" begin="arrowLeft.mouseover" end="arrowLeft.mouseout"/>
                  </use>
                  <path fill="none" stroke="white" stroke-width="1.5" d="M0,-3.0v7 M-2.5,-0.5L0,-3.0L2.5,-0.5"/>
                </g>
        </g>
        <svg viewBox="0 0 15 15" width="100%" height="30px" preserveAspectRatio="xMaxYMin meet">
         <g id="arrow_out" transform="scale(0.3 0.3)">
          <a xlink:href="inputManager_8h__dep__incl_org.svg" target="_base">
           <rect id="button" ry="5" rx="5" y="6" x="6" height="38" width="38"
                fill="#f2f5e9" fill-opacity="0.5" stroke="#606060" stroke-width="1.0"/>
           <path id="arrow"
             d="M 11.500037,31.436501 C 11.940474,20.09759 22.043105,11.32322 32.158766,21.979434 L 37.068811,17.246167 C 37.068811,17.246167 37.088388,32 37.088388,32 L 22.160133,31.978069 C 22.160133,31.978069 26.997745,27.140456 26.997745,27.140456 C 18.528582,18.264221 13.291696,25.230495 11.500037,31.436501 z"
             style="fill:#404040;"/>
          </a>
         </g>
        </svg>
</svg>
