<?xml version="1.0" encoding="UTF-8" standalone="no"?>
<!DOCTYPE svg PUBLIC "-//W3C//DTD SVG 1.1//EN"
 "http://www.w3.org/Graphics/SVG/1.1/DTD/svg11.dtd">
<!-- Generated by graphviz version 2.43.0 (0)
 -->
<!-- Title: Manager/Manager.cpp Pages: 1 -->
<svg width="1854pt" height="412pt"
 viewBox="0.00 0.00 1854.00 412.00" xmlns="http://www.w3.org/2000/svg" xmlns:xlink="http://www.w3.org/1999/xlink">
<g id="graph0" class="graph" transform="scale(1 1) rotate(0) translate(4 408)">
<title>Manager/Manager.cpp</title>
<!-- Node1 -->
<g id="node1" class="node">
<title>Node1</title>
<g id="a_node1"><a xlink:title=" ">
<polygon fill="#999999" stroke="#666666" points="1490.5,-404 1365.5,-404 1365.5,-385 1490.5,-385 1490.5,-404"/>
<text text-anchor="middle" x="1428" y="-392" font-family="Helvetica,sans-Serif" font-size="10.00">Manager/Manager.cpp</text>
</a>
</g>
</g>
<!-- Node2 -->
<g id="node2" class="node">
<title>Node2</title>
<g id="a_node2"><a xlink:href="Manager_8h.html" target="_top" xlink:title=" ">
<polygon fill="white" stroke="#666666" points="1055.5,-349 942.5,-349 942.5,-330 1055.5,-330 1055.5,-349"/>
<text text-anchor="middle" x="999" y="-337" font-family="Helvetica,sans-Serif" font-size="10.00">Manager/Manager.h</text>
</a>
</g>
</g>
<!-- Node1&#45;&gt;Node2 -->
<g id="edge1" class="edge">
<title>Node1&#45;&gt;Node2</title>
<path fill="none" stroke="#63b8ff" d="M1365.16,-385.74C1285.07,-375.84 1147.21,-358.81 1065.43,-348.71"/>
<polygon fill="#63b8ff" stroke="#63b8ff" points="1065.86,-345.23 1055.5,-347.48 1065,-352.18 1065.86,-345.23"/>
</g>
<!-- Node24 -->
<g id="node24" class="node">
<title>Node24</title>
<g id="a_node24"><a xlink:title=" ">
<polygon fill="#e0e0e0" stroke="#999999" points="1817.5,-184 1768.5,-184 1768.5,-165 1817.5,-165 1817.5,-184"/>
<text text-anchor="middle" x="1793" y="-172" font-family="Helvetica,sans-Serif" font-size="10.00">TFile.h</text>
</a>
</g>
</g>
<!-- Node1&#45;&gt;Node24 -->
<g id="edge62" class="edge">
<title>Node1&#45;&gt;Node24</title>
<path fill="none" stroke="#63b8ff" d="M1442.31,-384.95C1497.95,-351.72 1700.24,-230.9 1769.53,-189.52"/>
<polygon fill="#63b8ff" stroke="#63b8ff" points="1771.6,-192.36 1778.39,-184.22 1768.01,-186.35 1771.6,-192.36"/>
</g>
<!-- Node3 -->
<g id="node3" class="node">
<title>Node3</title>
<g id="a_node3"><a xlink:href="SampleStructs_8h.html" target="_top" xlink:title=" ">
<polygon fill="white" stroke="#666666" points="1320.5,-239 1179.5,-239 1179.5,-220 1320.5,-220 1320.5,-239"/>
<text text-anchor="middle" x="1250" y="-227" font-family="Helvetica,sans-Serif" font-size="10.00">Samples/SampleStructs.h</text>
</a>
</g>
</g>
<!-- Node2&#45;&gt;Node3 -->
<g id="edge2" class="edge">
<title>Node2&#45;&gt;Node3</title>
<path fill="none" stroke="#63b8ff" d="M1019.12,-329.84C1063.38,-310.8 1169.36,-265.2 1220.88,-243.03"/>
<polygon fill="#63b8ff" stroke="#63b8ff" points="1222.33,-246.21 1230.14,-239.05 1219.57,-239.78 1222.33,-246.21"/>
</g>
<!-- Node7 -->
<g id="node7" class="node">
<title>Node7</title>
<g id="a_node7"><a xlink:href="MaCh3Exception_8h.html" target="_top" xlink:title=" ">
<polygon fill="white" stroke="#666666" points="848.5,-184 695.5,-184 695.5,-165 848.5,-165 848.5,-184"/>
<text text-anchor="middle" x="772" y="-172" font-family="Helvetica,sans-Serif" font-size="10.00">Manager/MaCh3Exception.h</text>
</a>
</g>
</g>
<!-- Node2&#45;&gt;Node7 -->
<g id="edge61" class="edge">
<title>Node2&#45;&gt;Node7</title>
<path fill="none" stroke="#63b8ff" d="M1000.54,-329.95C1003.9,-308.33 1009.41,-250.97 980,-220 970.05,-209.52 894.44,-195.21 837.22,-185.68"/>
<polygon fill="#63b8ff" stroke="#63b8ff" points="837.57,-182.19 827.14,-184.01 836.43,-189.09 837.57,-182.19"/>
</g>
<!-- Node29 -->
<g id="node29" class="node">
<title>Node29</title>
<g id="a_node29"><a xlink:href="YamlHelper_8h.html" target="_top" xlink:title="Utility functions for handling YAML nodes.">
<polygon fill="white" stroke="#666666" points="381,-239 255,-239 255,-220 381,-220 381,-239"/>
<text text-anchor="middle" x="318" y="-227" font-family="Helvetica,sans-Serif" font-size="10.00">Manager/YamlHelper.h</text>
</a>
</g>
</g>
<!-- Node2&#45;&gt;Node29 -->
<g id="edge35" class="edge">
<title>Node2&#45;&gt;Node29</title>
<path fill="none" stroke="#63b8ff" d="M942.49,-330.25C882.9,-321.49 786.29,-307.13 703,-294 588.28,-275.92 454.55,-253.58 378.72,-240.79"/>
<polygon fill="#63b8ff" stroke="#63b8ff" points="378.86,-237.26 368.41,-239.05 377.69,-244.17 378.86,-237.26"/>
</g>
<!-- Node35 -->
<g id="node35" class="node">
<title>Node35</title>
<g id="a_node35"><a xlink:href="Monitor_8h.html" target="_top" xlink:title="System and monitoring utilities for printing system information and status updates.">
<polygon fill="white" stroke="#666666" points="820,-294 712,-294 712,-275 820,-275 820,-294"/>
<text text-anchor="middle" x="766" y="-282" font-family="Helvetica,sans-Serif" font-size="10.00">Manager/Monitor.h</text>
</a>
</g>
</g>
<!-- Node2&#45;&gt;Node35 -->
<g id="edge47" class="edge">
<title>Node2&#45;&gt;Node35</title>
<path fill="none" stroke="#63b8ff" d="M961.56,-329.98C921.35,-320.84 857.32,-306.27 813.56,-296.32"/>
<polygon fill="#63b8ff" stroke="#63b8ff" points="814.26,-292.89 803.73,-294.08 812.7,-299.71 814.26,-292.89"/>
</g>
<!-- Node4 -->
<g id="node4" class="node">
<title>Node4</title>
<g id="a_node4"><a xlink:title=" ">
<polygon fill="#e0e0e0" stroke="#999999" points="1550,-184 1518,-184 1518,-165 1550,-165 1550,-184"/>
<text text-anchor="middle" x="1534" y="-172" font-family="Helvetica,sans-Serif" font-size="10.00">set</text>
</a>
</g>
</g>
<!-- Node3&#45;&gt;Node4 -->
<g id="edge3" class="edge">
<title>Node3&#45;&gt;Node4</title>
<path fill="none" stroke="#63b8ff" d="M1314.95,-219.96C1367.45,-212.43 1443.04,-200.13 1508,-184 1508.1,-183.97 1508.2,-183.95 1508.3,-183.92"/>
<polygon fill="#63b8ff" stroke="#63b8ff" points="1509.23,-187.3 1517.88,-181.17 1507.3,-180.57 1509.23,-187.3"/>
</g>
<!-- Node5 -->
<g id="node5" class="node">
<title>Node5</title>
<g id="a_node5"><a xlink:title=" ">
<polygon fill="#e0e0e0" stroke="#999999" points="1600,-184 1568,-184 1568,-165 1600,-165 1600,-184"/>
<text text-anchor="middle" x="1584" y="-172" font-family="Helvetica,sans-Serif" font-size="10.00">list</text>
</a>
</g>
</g>
<!-- Node3&#45;&gt;Node5 -->
<g id="edge4" class="edge">
<title>Node3&#45;&gt;Node5</title>
<path fill="none" stroke="#63b8ff" d="M1320.65,-222.08C1381.46,-215.7 1471.56,-204.21 1558.26,-183.77"/>
<polygon fill="#63b8ff" stroke="#63b8ff" points="1559.08,-187.17 1567.99,-181.43 1557.45,-180.36 1559.08,-187.17"/>
</g>
<!-- Node6 -->
<g id="node6" class="node">
<title>Node6</title>
<g id="a_node6"><a xlink:title=" ">
<polygon fill="#e0e0e0" stroke="#999999" points="1711.5,-184 1618.5,-184 1618.5,-165 1711.5,-165 1711.5,-184"/>
<text text-anchor="middle" x="1665" y="-172" font-family="Helvetica,sans-Serif" font-size="10.00">unordered_map</text>
</a>
</g>
</g>
<!-- Node3&#45;&gt;Node6 -->
<g id="edge5" class="edge">
<title>Node3&#45;&gt;Node6</title>
<path fill="none" stroke="#63b8ff" d="M1320.58,-220.33C1390.83,-212.06 1502.01,-198.63 1608.32,-184.06"/>
<polygon fill="#63b8ff" stroke="#63b8ff" points="1608.83,-187.52 1618.26,-182.69 1607.88,-180.59 1608.83,-187.52"/>
</g>
<!-- Node3&#45;&gt;Node7 -->
<g id="edge6" class="edge">
<title>Node3&#45;&gt;Node7</title>
<path fill="none" stroke="#63b8ff" d="M1179.47,-220.68C1094.24,-211.23 950.85,-195.33 858.88,-185.13"/>
<polygon fill="#63b8ff" stroke="#63b8ff" points="859.09,-181.63 848.76,-184.01 858.32,-188.59 859.09,-181.63"/>
</g>
<!-- Node11 -->
<g id="node11" class="node">
<title>Node11</title>
<g id="a_node11"><a xlink:href="MaCh3Logger_8h.html" target="_top" xlink:title="KS: Based on this https://github.com/gabime/spdlog/blob/a2b4262090fd3f005c2315dcb5be2f0f1774a005/incl...">
<polygon fill="white" stroke="#666666" points="1113.5,-129 976.5,-129 976.5,-110 1113.5,-110 1113.5,-129"/>
<text text-anchor="middle" x="1045" y="-117" font-family="Helvetica,sans-Serif" font-size="10.00">Manager/MaCh3Logger.h</text>
</a>
</g>
</g>
<!-- Node3&#45;&gt;Node11 -->
<g id="edge26" class="edge">
<title>Node3&#45;&gt;Node11</title>
<path fill="none" stroke="#63b8ff" d="M1320.57,-229.36C1464.87,-229.94 1775.64,-224.43 1720,-165 1680.01,-122.28 1293.16,-119.11 1123.77,-119.8"/>
<polygon fill="#63b8ff" stroke="#63b8ff" points="1123.65,-116.3 1113.67,-119.84 1123.69,-123.3 1123.65,-116.3"/>
</g>
<!-- Node15 -->
<g id="node15" class="node">
<title>Node15</title>
<g id="a_node15"><a xlink:href="Core_8h.html" target="_top" xlink:title=" ">
<polygon fill="white" stroke="#666666" points="883,-74 789,-74 789,-55 883,-55 883,-74"/>
<text text-anchor="middle" x="836" y="-62" font-family="Helvetica,sans-Serif" font-size="10.00">Manager/Core.h</text>
</a>
</g>
</g>
<!-- Node3&#45;&gt;Node15 -->
<g id="edge27" class="edge">
<title>Node3&#45;&gt;Node15</title>
<path fill="none" stroke="#63b8ff" d="M1179.27,-220.71C1134.98,-214.27 1077.35,-203.01 1029,-184 960.14,-156.92 888.23,-105.62 854.96,-80.34"/>
<polygon fill="#63b8ff" stroke="#63b8ff" points="857.06,-77.54 847,-74.22 852.79,-83.09 857.06,-77.54"/>
</g>
<!-- Node22 -->
<g id="node22" class="node">
<title>Node22</title>
<g id="a_node22"><a xlink:title=" ">
<polygon fill="#e0e0e0" stroke="#999999" points="1100,-184 1038,-184 1038,-165 1100,-165 1100,-184"/>
<text text-anchor="middle" x="1069" y="-172" font-family="Helvetica,sans-Serif" font-size="10.00">TSpline.h</text>
</a>
</g>
</g>
<!-- Node3&#45;&gt;Node22 -->
<g id="edge28" class="edge">
<title>Node3&#45;&gt;Node22</title>
<path fill="none" stroke="#63b8ff" d="M1220.92,-219.98C1190.4,-211.05 1142.24,-196.94 1108.34,-187.02"/>
<polygon fill="#63b8ff" stroke="#63b8ff" points="1108.89,-183.53 1098.31,-184.08 1106.92,-190.25 1108.89,-183.53"/>
</g>
<!-- Node23 -->
<g id="node23" class="node">
<title>Node23</title>
<g id="a_node23"><a xlink:title=" ">
<polygon fill="#e0e0e0" stroke="#999999" points="943.5,-184 866.5,-184 866.5,-165 943.5,-165 943.5,-184"/>
<text text-anchor="middle" x="905" y="-172" font-family="Helvetica,sans-Serif" font-size="10.00">TObjString.h</text>
</a>
</g>
</g>
<!-- Node3&#45;&gt;Node23 -->
<g id="edge29" class="edge">
<title>Node3&#45;&gt;Node23</title>
<path fill="none" stroke="#63b8ff" d="M1193.18,-219.98C1134.33,-211.11 1039.7,-196.78 958,-184 956.71,-183.8 955.39,-183.59 954.07,-183.38"/>
<polygon fill="#63b8ff" stroke="#63b8ff" points="954.21,-179.86 943.78,-181.76 953.11,-186.78 954.21,-179.86"/>
</g>
<!-- Node3&#45;&gt;Node24 -->
<g id="edge30" class="edge">
<title>Node3&#45;&gt;Node24</title>
<path fill="none" stroke="#63b8ff" d="M1320.87,-225.08C1418.72,-219.7 1600.52,-207.41 1754,-184 1755.46,-183.78 1756.94,-183.53 1758.43,-183.27"/>
<polygon fill="#63b8ff" stroke="#63b8ff" points="1759.17,-186.7 1768.33,-181.37 1757.85,-179.82 1759.17,-186.7"/>
</g>
<!-- Node25 -->
<g id="node25" class="node">
<title>Node25</title>
<g id="a_node25"><a xlink:title=" ">
<polygon fill="#e0e0e0" stroke="#999999" points="1162,-184 1118,-184 1118,-165 1162,-165 1162,-184"/>
<text text-anchor="middle" x="1140" y="-172" font-family="Helvetica,sans-Serif" font-size="10.00">TF1.h</text>
</a>
</g>
</g>
<!-- Node3&#45;&gt;Node25 -->
<g id="edge31" class="edge">
<title>Node3&#45;&gt;Node25</title>
<path fill="none" stroke="#63b8ff" d="M1232.33,-219.98C1214.71,-211.5 1187.42,-198.35 1167.07,-188.54"/>
<polygon fill="#63b8ff" stroke="#63b8ff" points="1168.52,-185.36 1157.99,-184.17 1165.48,-191.66 1168.52,-185.36"/>
</g>
<!-- Node26 -->
<g id="node26" class="node">
<title>Node26</title>
<g id="a_node26"><a xlink:title=" ">
<polygon fill="#e0e0e0" stroke="#999999" points="1245.5,-184 1180.5,-184 1180.5,-165 1245.5,-165 1245.5,-184"/>
<text text-anchor="middle" x="1213" y="-172" font-family="Helvetica,sans-Serif" font-size="10.00">TH2Poly.h</text>
</a>
</g>
</g>
<!-- Node3&#45;&gt;Node26 -->
<g id="edge32" class="edge">
<title>Node3&#45;&gt;Node26</title>
<path fill="none" stroke="#63b8ff" d="M1243.89,-219.75C1238.72,-212.34 1231.15,-201.5 1224.81,-192.41"/>
<polygon fill="#63b8ff" stroke="#63b8ff" points="1227.59,-190.29 1219,-184.09 1221.85,-194.29 1227.59,-190.29"/>
</g>
<!-- Node27 -->
<g id="node27" class="node">
<title>Node27</title>
<g id="a_node27"><a xlink:title=" ">
<polygon fill="#e0e0e0" stroke="#999999" points="1308.5,-184 1263.5,-184 1263.5,-165 1308.5,-165 1308.5,-184"/>
<text text-anchor="middle" x="1286" y="-172" font-family="Helvetica,sans-Serif" font-size="10.00">TH1.h</text>
</a>
</g>
</g>
<!-- Node3&#45;&gt;Node27 -->
<g id="edge33" class="edge">
<title>Node3&#45;&gt;Node27</title>
<path fill="none" stroke="#63b8ff" d="M1255.94,-219.75C1260.98,-212.34 1268.34,-201.5 1274.51,-192.41"/>
<polygon fill="#63b8ff" stroke="#63b8ff" points="1277.44,-194.33 1280.17,-184.09 1271.65,-190.39 1277.44,-194.33"/>
</g>
<!-- Node28 -->
<g id="node28" class="node">
<title>Node28</title>
<g id="a_node28"><a xlink:title=" ">
<polygon fill="#e0e0e0" stroke="#999999" points="1499.5,-184 1326.5,-184 1326.5,-165 1499.5,-165 1499.5,-184"/>
<text text-anchor="middle" x="1413" y="-172" font-family="Helvetica,sans-Serif" font-size="10.00">Constants/OscillatorConstants.h</text>
</a>
</g>
</g>
<!-- Node3&#45;&gt;Node28 -->
<g id="edge34" class="edge">
<title>Node3&#45;&gt;Node28</title>
<path fill="none" stroke="#63b8ff" d="M1276.19,-219.98C1303.44,-211.13 1346.3,-197.19 1376.78,-187.28"/>
<polygon fill="#63b8ff" stroke="#63b8ff" points="1378.18,-190.5 1386.61,-184.08 1376.01,-183.85 1378.18,-190.5"/>
</g>
<!-- Node8 -->
<g id="node8" class="node">
<title>Node8</title>
<g id="a_node8"><a xlink:title=" ">
<polygon fill="#e0e0e0" stroke="#999999" points="717,-19 657,-19 657,0 717,0 717,-19"/>
<text text-anchor="middle" x="687" y="-7" font-family="Helvetica,sans-Serif" font-size="10.00">iostream</text>
</a>
</g>
</g>
<!-- Node7&#45;&gt;Node8 -->
<g id="edge7" class="edge">
<title>Node7&#45;&gt;Node8</title>
<path fill="none" stroke="#63b8ff" d="M766.12,-164.81C760.24,-155.97 751.07,-141.78 744,-129 724.84,-94.35 705.48,-52.26 694.98,-28.71"/>
<polygon fill="#63b8ff" stroke="#63b8ff" points="698.06,-27.02 690.82,-19.29 691.66,-29.86 698.06,-27.02"/>
</g>
<!-- Node9 -->
<g id="node9" class="node">
<title>Node9</title>
<g id="a_node9"><a xlink:title=" ">
<polygon fill="#e0e0e0" stroke="#999999" points="646,-74 602,-74 602,-55 646,-55 646,-74"/>
<text text-anchor="middle" x="624" y="-62" font-family="Helvetica,sans-Serif" font-size="10.00">string</text>
</a>
</g>
</g>
<!-- Node7&#45;&gt;Node9 -->
<g id="edge8" class="edge">
<title>Node7&#45;&gt;Node9</title>
<path fill="none" stroke="#63b8ff" d="M743.53,-164.9C722.57,-157.62 694.15,-145.69 673,-129 656.83,-116.25 643,-97.04 634.19,-83.09"/>
<polygon fill="#63b8ff" stroke="#63b8ff" points="637.11,-81.15 628.93,-74.42 631.12,-84.78 637.11,-81.15"/>
</g>
<!-- Node10 -->
<g id="node10" class="node">
<title>Node10</title>
<g id="a_node10"><a xlink:title=" ">
<polygon fill="#e0e0e0" stroke="#999999" points="818.5,-129 753.5,-129 753.5,-110 818.5,-110 818.5,-129"/>
<text text-anchor="middle" x="786" y="-117" font-family="Helvetica,sans-Serif" font-size="10.00">stdexcept</text>
</a>
</g>
</g>
<!-- Node7&#45;&gt;Node10 -->
<g id="edge9" class="edge">
<title>Node7&#45;&gt;Node10</title>
<path fill="none" stroke="#63b8ff" d="M774.31,-164.75C776.17,-157.72 778.84,-147.62 781.15,-138.84"/>
<polygon fill="#63b8ff" stroke="#63b8ff" points="784.56,-139.65 783.73,-129.09 777.79,-137.86 784.56,-139.65"/>
</g>
<!-- Node7&#45;&gt;Node11 -->
<g id="edge10" class="edge">
<title>Node7&#45;&gt;Node11</title>
<path fill="none" stroke="#63b8ff" d="M815.86,-164.98C863.48,-155.74 939.58,-140.97 990.88,-131.01"/>
<polygon fill="#63b8ff" stroke="#63b8ff" points="991.64,-134.42 1000.79,-129.08 990.31,-127.55 991.64,-134.42"/>
</g>
<!-- Node7&#45;&gt;Node15 -->
<g id="edge25" class="edge">
<title>Node7&#45;&gt;Node15</title>
<path fill="none" stroke="#63b8ff" d="M788.32,-164.87C801.05,-157.22 818.04,-144.81 827,-129 834.64,-115.51 836.64,-97.92 836.86,-84.67"/>
<polygon fill="#63b8ff" stroke="#63b8ff" points="840.36,-84.3 836.7,-74.36 833.36,-84.41 840.36,-84.3"/>
</g>
<!-- Node11&#45;&gt;Node8 -->
<g id="edge11" class="edge">
<title>Node11&#45;&gt;Node8</title>
<path fill="none" stroke="#63b8ff" d="M976.38,-115.1C921.55,-110.48 843.62,-99.61 780,-74 751.01,-62.33 721.97,-40.48 704.24,-25.71"/>
<polygon fill="#63b8ff" stroke="#63b8ff" points="706.37,-22.93 696.49,-19.1 701.83,-28.25 706.37,-22.93"/>
</g>
<!-- Node11&#45;&gt;Node9 -->
<g id="edge14" class="edge">
<title>Node11&#45;&gt;Node9</title>
<path fill="none" stroke="#63b8ff" d="M977.36,-109.98C885.58,-98.43 725.18,-78.24 656.61,-69.6"/>
<polygon fill="#63b8ff" stroke="#63b8ff" points="656.77,-66.1 646.41,-68.32 655.9,-73.04 656.77,-66.1"/>
</g>
<!-- Node12 -->
<g id="node12" class="node">
<title>Node12</title>
<g id="a_node12"><a xlink:title=" ">
<polygon fill="#e0e0e0" stroke="#999999" points="1110,-19 1054,-19 1054,0 1110,0 1110,-19"/>
<text text-anchor="middle" x="1082" y="-7" font-family="Helvetica,sans-Serif" font-size="10.00">sstream</text>
</a>
</g>
</g>
<!-- Node11&#45;&gt;Node12 -->
<g id="edge12" class="edge">
<title>Node11&#45;&gt;Node12</title>
<path fill="none" stroke="#63b8ff" d="M1112.03,-110C1133.82,-103.7 1155.77,-92.8 1169,-74 1185.65,-50.33 1150.38,-32.08 1119.88,-21.34"/>
<polygon fill="#63b8ff" stroke="#63b8ff" points="1120.8,-17.96 1110.21,-18.12 1118.59,-24.6 1120.8,-17.96"/>
</g>
<!-- Node13 -->
<g id="node13" class="node">
<title>Node13</title>
<g id="a_node13"><a xlink:title=" ">
<polygon fill="#e0e0e0" stroke="#999999" points="1077.5,-74 1012.5,-74 1012.5,-55 1077.5,-55 1077.5,-74"/>
<text text-anchor="middle" x="1045" y="-62" font-family="Helvetica,sans-Serif" font-size="10.00">functional</text>
</a>
</g>
</g>
<!-- Node11&#45;&gt;Node13 -->
<g id="edge13" class="edge">
<title>Node11&#45;&gt;Node13</title>
<path fill="none" stroke="#63b8ff" d="M1045,-109.75C1045,-102.8 1045,-92.85 1045,-84.13"/>
<polygon fill="#63b8ff" stroke="#63b8ff" points="1048.5,-84.09 1045,-74.09 1041.5,-84.09 1048.5,-84.09"/>
</g>
<!-- Node14 -->
<g id="node14" class="node">
<title>Node14</title>
<g id="a_node14"><a xlink:title=" ">
<polygon fill="#e0e0e0" stroke="#999999" points="1160.5,-74 1095.5,-74 1095.5,-55 1160.5,-55 1160.5,-74"/>
<text text-anchor="middle" x="1128" y="-62" font-family="Helvetica,sans-Serif" font-size="10.00">exception</text>
</a>
</g>
</g>
<!-- Node11&#45;&gt;Node14 -->
<g id="edge15" class="edge">
<title>Node11&#45;&gt;Node14</title>
<path fill="none" stroke="#63b8ff" d="M1058.34,-109.98C1071.09,-101.84 1090.55,-89.41 1105.67,-79.76"/>
<polygon fill="#63b8ff" stroke="#63b8ff" points="1107.88,-82.5 1114.42,-74.17 1104.11,-76.6 1107.88,-82.5"/>
</g>
<!-- Node11&#45;&gt;Node15 -->
<g id="edge16" class="edge">
<title>Node11&#45;&gt;Node15</title>
<path fill="none" stroke="#63b8ff" d="M1011.42,-109.98C975.65,-100.91 918.88,-86.52 879.66,-76.57"/>
<polygon fill="#63b8ff" stroke="#63b8ff" points="880.4,-73.15 869.84,-74.08 878.68,-79.93 880.4,-73.15"/>
</g>
<!-- Node21 -->
<g id="node21" class="node">
<title>Node21</title>
<g id="a_node21"><a xlink:title=" ">
<polygon fill="#e0e0e0" stroke="#999999" points="994.5,-74 901.5,-74 901.5,-55 994.5,-55 994.5,-74"/>
<text text-anchor="middle" x="948" y="-62" font-family="Helvetica,sans-Serif" font-size="10.00">spdlog/spdlog.h</text>
</a>
</g>
</g>
<!-- Node11&#45;&gt;Node21 -->
<g id="edge24" class="edge">
<title>Node11&#45;&gt;Node21</title>
<path fill="none" stroke="#63b8ff" d="M1029.42,-109.98C1014.23,-101.69 990.9,-88.94 973.1,-79.22"/>
<polygon fill="#63b8ff" stroke="#63b8ff" points="974.32,-75.89 963.87,-74.17 970.97,-82.04 974.32,-75.89"/>
</g>
<!-- Node15&#45;&gt;Node8 -->
<g id="edge19" class="edge">
<title>Node15&#45;&gt;Node8</title>
<path fill="none" stroke="#63b8ff" d="M812.06,-54.98C787.44,-46.23 748.88,-32.51 721.08,-22.62"/>
<polygon fill="#63b8ff" stroke="#63b8ff" points="721.97,-19.22 711.38,-19.17 719.62,-25.82 721.97,-19.22"/>
</g>
<!-- Node15&#45;&gt;Node12 -->
<g id="edge17" class="edge">
<title>Node15&#45;&gt;Node12</title>
<path fill="none" stroke="#63b8ff" d="M875.52,-54.98C921.86,-45 998.14,-28.57 1043.87,-18.72"/>
<polygon fill="#63b8ff" stroke="#63b8ff" points="1044.65,-22.13 1053.69,-16.6 1043.18,-15.28 1044.65,-22.13"/>
</g>
<!-- Node16 -->
<g id="node16" class="node">
<title>Node16</title>
<g id="a_node16"><a xlink:title=" ">
<polygon fill="#e0e0e0" stroke="#999999" points="436.5,-19 381.5,-19 381.5,0 436.5,0 436.5,-19"/>
<text text-anchor="middle" x="409" y="-7" font-family="Helvetica,sans-Serif" font-size="10.00">fstream</text>
</a>
</g>
</g>
<!-- Node15&#45;&gt;Node16 -->
<g id="edge18" class="edge">
<title>Node15&#45;&gt;Node16</title>
<path fill="none" stroke="#63b8ff" d="M788.67,-57.63C703.23,-47.02 524.86,-24.88 446.87,-15.2"/>
<polygon fill="#63b8ff" stroke="#63b8ff" points="446.91,-11.68 436.55,-13.92 446.05,-18.63 446.91,-11.68"/>
</g>
<!-- Node17 -->
<g id="node17" class="node">
<title>Node17</title>
<g id="a_node17"><a xlink:title=" ">
<polygon fill="#e0e0e0" stroke="#999999" points="1522.5,-19 1475.5,-19 1475.5,0 1522.5,0 1522.5,-19"/>
<text text-anchor="middle" x="1499" y="-7" font-family="Helvetica,sans-Serif" font-size="10.00">vector</text>
</a>
</g>
</g>
<!-- Node15&#45;&gt;Node17 -->
<g id="edge20" class="edge">
<title>Node15&#45;&gt;Node17</title>
<path fill="none" stroke="#63b8ff" d="M883.02,-56.09C886.05,-55.7 889.07,-55.33 892,-55 1109.66,-30.54 1372.82,-16.51 1465.08,-12.06"/>
<polygon fill="#63b8ff" stroke="#63b8ff" points="1465.4,-15.55 1475.22,-11.58 1465.07,-8.56 1465.4,-15.55"/>
</g>
<!-- Node18 -->
<g id="node18" class="node">
<title>Node18</title>
<g id="a_node18"><a xlink:title=" ">
<polygon fill="#e0e0e0" stroke="#999999" points="864,-19 808,-19 808,0 864,0 864,-19"/>
<text text-anchor="middle" x="836" y="-7" font-family="Helvetica,sans-Serif" font-size="10.00">iomanip</text>
</a>
</g>
</g>
<!-- Node15&#45;&gt;Node18 -->
<g id="edge21" class="edge">
<title>Node15&#45;&gt;Node18</title>
<path fill="none" stroke="#63b8ff" d="M836,-54.75C836,-47.8 836,-37.85 836,-29.13"/>
<polygon fill="#63b8ff" stroke="#63b8ff" points="839.5,-29.09 836,-19.09 832.5,-29.09 839.5,-29.09"/>
</g>
<!-- Node19 -->
<g id="node19" class="node">
<title>Node19</title>
<g id="a_node19"><a xlink:title=" ">
<polygon fill="#e0e0e0" stroke="#999999" points="929.5,-19 882.5,-19 882.5,0 929.5,0 929.5,-19"/>
<text text-anchor="middle" x="906" y="-7" font-family="Helvetica,sans-Serif" font-size="10.00">cmath</text>
</a>
</g>
</g>
<!-- Node15&#45;&gt;Node19 -->
<g id="edge22" class="edge">
<title>Node15&#45;&gt;Node19</title>
<path fill="none" stroke="#63b8ff" d="M847.25,-54.98C857.8,-47 873.8,-34.88 886.44,-25.31"/>
<polygon fill="#63b8ff" stroke="#63b8ff" points="888.69,-28 894.55,-19.17 884.46,-22.42 888.69,-28"/>
</g>
<!-- Node20 -->
<g id="node20" class="node">
<title>Node20</title>
<g id="a_node20"><a xlink:title=" ">
<polygon fill="#e0e0e0" stroke="#999999" points="790,-19 746,-19 746,0 790,0 790,-19"/>
<text text-anchor="middle" x="768" y="-7" font-family="Helvetica,sans-Serif" font-size="10.00">limits</text>
</a>
</g>
</g>
<!-- Node15&#45;&gt;Node20 -->
<g id="edge23" class="edge">
<title>Node15&#45;&gt;Node20</title>
<path fill="none" stroke="#63b8ff" d="M825.07,-54.98C814.92,-47.07 799.58,-35.11 787.35,-25.58"/>
<polygon fill="#63b8ff" stroke="#63b8ff" points="789.16,-22.56 779.12,-19.17 784.86,-28.08 789.16,-22.56"/>
</g>
<!-- Node29&#45;&gt;Node7 -->
<g id="edge41" class="edge">
<title>Node29&#45;&gt;Node7</title>
<path fill="none" stroke="#63b8ff" d="M381.13,-221.13C461.36,-211.76 600.08,-195.57 688.86,-185.21"/>
<polygon fill="#63b8ff" stroke="#63b8ff" points="689.37,-188.67 698.9,-184.03 688.56,-181.72 689.37,-188.67"/>
</g>
<!-- Node29&#45;&gt;Node8 -->
<g id="edge36" class="edge">
<title>Node29&#45;&gt;Node8</title>
<path fill="none" stroke="#63b8ff" d="M324.61,-219.62C348.81,-187.34 433.13,-76.96 471,-55 526.31,-22.92 601.37,-13.76 646.88,-11.26"/>
<polygon fill="#63b8ff" stroke="#63b8ff" points="647.13,-14.76 656.95,-10.79 646.8,-7.76 647.13,-14.76"/>
</g>
<!-- Node29&#45;&gt;Node9 -->
<g id="edge38" class="edge">
<title>Node29&#45;&gt;Node9</title>
<path fill="none" stroke="#63b8ff" d="M334.02,-219.97C384.1,-193.29 537.95,-111.34 598.83,-78.91"/>
<polygon fill="#63b8ff" stroke="#63b8ff" points="600.59,-81.94 607.77,-74.15 597.3,-75.76 600.59,-81.94"/>
</g>
<!-- Node29&#45;&gt;Node15 -->
<g id="edge42" class="edge">
<title>Node29&#45;&gt;Node15</title>
<path fill="none" stroke="#63b8ff" d="M345.12,-219.97C431.56,-192.77 700.67,-108.09 799.29,-77.05"/>
<polygon fill="#63b8ff" stroke="#63b8ff" points="800.35,-80.39 808.84,-74.05 798.25,-73.71 800.35,-80.39"/>
</g>
<!-- Node29&#45;&gt;Node16 -->
<g id="edge37" class="edge">
<title>Node29&#45;&gt;Node16</title>
<path fill="none" stroke="#63b8ff" d="M320.28,-219.99C325.68,-200.28 340.06,-150.1 357,-110 369.59,-80.2 387.71,-47.22 398.9,-27.71"/>
<polygon fill="#63b8ff" stroke="#63b8ff" points="401.93,-29.46 403.92,-19.05 395.87,-25.95 401.93,-29.46"/>
</g>
<!-- Node29&#45;&gt;Node23 -->
<g id="edge45" class="edge">
<title>Node29&#45;&gt;Node23</title>
<path fill="none" stroke="#63b8ff" d="M381.27,-225.19C480.3,-219.58 678.15,-206.68 856.2,-183.97"/>
<polygon fill="#63b8ff" stroke="#63b8ff" points="856.8,-187.43 866.27,-182.68 855.91,-180.48 856.8,-187.43"/>
</g>
<!-- Node30 -->
<g id="node30" class="node">
<title>Node30</title>
<g id="a_node30"><a xlink:title=" ">
<polygon fill="#e0e0e0" stroke="#999999" points="58,-184 0,-184 0,-165 58,-165 58,-184"/>
<text text-anchor="middle" x="29" y="-172" font-family="Helvetica,sans-Serif" font-size="10.00">cxxabi.h</text>
</a>
</g>
</g>
<!-- Node29&#45;&gt;Node30 -->
<g id="edge39" class="edge">
<title>Node29&#45;&gt;Node30</title>
<path fill="none" stroke="#63b8ff" d="M265.96,-219.97C217.29,-211.83 142.34,-198.91 68.02,-184.13"/>
<polygon fill="#63b8ff" stroke="#63b8ff" points="68.51,-180.66 58.02,-182.13 67.14,-187.52 68.51,-180.66"/>
</g>
<!-- Node31 -->
<g id="node31" class="node">
<title>Node31</title>
<g id="a_node31"><a xlink:title=" ">
<polygon fill="#e0e0e0" stroke="#999999" points="120,-184 76,-184 76,-165 120,-165 120,-184"/>
<text text-anchor="middle" x="98" y="-172" font-family="Helvetica,sans-Serif" font-size="10.00">regex</text>
</a>
</g>
</g>
<!-- Node29&#45;&gt;Node31 -->
<g id="edge40" class="edge">
<title>Node29&#45;&gt;Node31</title>
<path fill="none" stroke="#63b8ff" d="M279.89,-219.96C243.74,-211.75 187.66,-198.79 130.29,-184.26"/>
<polygon fill="#63b8ff" stroke="#63b8ff" points="130.88,-180.8 120.33,-181.73 129.15,-187.58 130.88,-180.8"/>
</g>
<!-- Node32 -->
<g id="node32" class="node">
<title>Node32</title>
<g id="a_node32"><a xlink:title=" ">
<polygon fill="#e0e0e0" stroke="#999999" points="639,-184 577,-184 577,-165 639,-165 639,-184"/>
<text text-anchor="middle" x="608" y="-172" font-family="Helvetica,sans-Serif" font-size="10.00">TMacro.h</text>
</a>
</g>
</g>
<!-- Node29&#45;&gt;Node32 -->
<g id="edge43" class="edge">
<title>Node29&#45;&gt;Node32</title>
<path fill="none" stroke="#63b8ff" d="M365.44,-219.98C414.81,-211.1 494.35,-196.72 563,-184 564.09,-183.8 565.2,-183.59 566.32,-183.38"/>
<polygon fill="#63b8ff" stroke="#63b8ff" points="567.35,-186.75 576.53,-181.47 566.06,-179.87 567.35,-186.75"/>
</g>
<!-- Node33 -->
<g id="node33" class="node">
<title>Node33</title>
<g id="a_node33"><a xlink:title=" ">
<polygon fill="#e0e0e0" stroke="#999999" points="187.5,-184 138.5,-184 138.5,-165 187.5,-165 187.5,-184"/>
<text text-anchor="middle" x="163" y="-172" font-family="Helvetica,sans-Serif" font-size="10.00">TList.h</text>
</a>
</g>
</g>
<!-- Node29&#45;&gt;Node33 -->
<g id="edge44" class="edge">
<title>Node29&#45;&gt;Node33</title>
<path fill="none" stroke="#63b8ff" d="M293.1,-219.98C267.15,-211.11 226.3,-197.14 197.3,-187.23"/>
<polygon fill="#63b8ff" stroke="#63b8ff" points="198.18,-183.83 187.59,-183.91 195.92,-190.45 198.18,-183.83"/>
</g>
<!-- Node34 -->
<g id="node34" class="node">
<title>Node34</title>
<g id="a_node34"><a xlink:title=" ">
<polygon fill="#e0e0e0" stroke="#999999" points="304.5,-184 205.5,-184 205.5,-165 304.5,-165 304.5,-184"/>
<text text-anchor="middle" x="255" y="-172" font-family="Helvetica,sans-Serif" font-size="10.00">yaml&#45;cpp/yaml.h</text>
</a>
</g>
</g>
<!-- Node29&#45;&gt;Node34 -->
<g id="edge46" class="edge">
<title>Node29&#45;&gt;Node34</title>
<path fill="none" stroke="#63b8ff" d="M307.88,-219.98C298.56,-212.15 284.53,-200.34 273.26,-190.86"/>
<polygon fill="#63b8ff" stroke="#63b8ff" points="275.21,-187.93 265.31,-184.17 270.71,-193.29 275.21,-187.93"/>
</g>
<!-- Node35&#45;&gt;Node7 -->
<g id="edge54" class="edge">
<title>Node35&#45;&gt;Node7</title>
<path fill="none" stroke="#63b8ff" d="M775.02,-274.96C783.07,-266.66 794.29,-253.25 799,-239 804.32,-222.89 795.49,-205.17 786.54,-192.55"/>
<polygon fill="#63b8ff" stroke="#63b8ff" points="789.09,-190.13 780.2,-184.36 783.55,-194.41 789.09,-190.13"/>
</g>
<!-- Node35&#45;&gt;Node8 -->
<g id="edge48" class="edge">
<title>Node35&#45;&gt;Node8</title>
<path fill="none" stroke="#63b8ff" d="M711.91,-279.27C629.88,-272.3 481.82,-257.34 466,-239 391.65,-152.81 580.53,-57.19 656.77,-23.27"/>
<polygon fill="#63b8ff" stroke="#63b8ff" points="658.57,-26.31 666.32,-19.09 655.76,-19.9 658.57,-26.31"/>
</g>
<!-- Node35&#45;&gt;Node9 -->
<g id="edge50" class="edge">
<title>Node35&#45;&gt;Node9</title>
<path fill="none" stroke="#63b8ff" d="M765.91,-274.77C765.35,-261.6 762.57,-236.44 750,-220 730.18,-194.07 709.7,-206.44 686,-184 664.96,-164.08 664.49,-154.64 651,-129 643.24,-114.26 635.95,-96.79 630.9,-83.92"/>
<polygon fill="#63b8ff" stroke="#63b8ff" points="634.07,-82.42 627.23,-74.34 627.54,-84.93 634.07,-82.42"/>
</g>
<!-- Node35&#45;&gt;Node11 -->
<g id="edge53" class="edge">
<title>Node35&#45;&gt;Node11</title>
<path fill="none" stroke="#63b8ff" d="M820.11,-277.46C874.93,-270.45 955.1,-257.42 980,-239 997.72,-225.89 1024.43,-168.21 1037.4,-138.43"/>
<polygon fill="#63b8ff" stroke="#63b8ff" points="1040.64,-139.75 1041.38,-129.18 1034.21,-136.99 1040.64,-139.75"/>
</g>
<!-- Node35&#45;&gt;Node16 -->
<g id="edge49" class="edge">
<title>Node35&#45;&gt;Node16</title>
<path fill="none" stroke="#63b8ff" d="M711.73,-278.28C627.48,-269.81 472.6,-252.64 451,-239 422.39,-220.93 409,-209.34 409,-175.5 409,-175.5 409,-175.5 409,-118.5 409,-87.19 409,-50.77 409,-29.23"/>
<polygon fill="#63b8ff" stroke="#63b8ff" points="412.5,-29.18 409,-19.18 405.5,-29.18 412.5,-29.18"/>
</g>
<!-- Node35&#45;&gt;Node17 -->
<g id="edge51" class="edge">
<title>Node35&#45;&gt;Node17</title>
<path fill="none" stroke="#63b8ff" d="M820.3,-283.83C1039.3,-284.47 1846,-279.73 1846,-175.5 1846,-175.5 1846,-175.5 1846,-118.5 1846,-53.31 1619.93,-23 1532.74,-13.73"/>
<polygon fill="#63b8ff" stroke="#63b8ff" points="1532.89,-10.22 1522.58,-12.68 1532.16,-17.19 1532.89,-10.22"/>
</g>
<!-- Node35&#45;&gt;Node29 -->
<g id="edge55" class="edge">
<title>Node35&#45;&gt;Node29</title>
<path fill="none" stroke="#63b8ff" d="M711.96,-277.11C631.85,-267.63 481.38,-249.83 391.37,-239.18"/>
<polygon fill="#63b8ff" stroke="#63b8ff" points="391.58,-235.68 381.24,-237.98 390.76,-242.63 391.58,-235.68"/>
</g>
<!-- Node35&#45;&gt;Node32 -->
<g id="edge58" class="edge">
<title>Node35&#45;&gt;Node32</title>
<path fill="none" stroke="#63b8ff" d="M762.84,-274.85C757.48,-261.32 745.38,-235.13 727,-220 704.55,-201.51 673.67,-190.27 648.98,-183.7"/>
<polygon fill="#63b8ff" stroke="#63b8ff" points="649.73,-180.28 639.18,-181.25 648.03,-187.07 649.73,-180.28"/>
</g>
<!-- Node36 -->
<g id="node36" class="node">
<title>Node36</title>
<g id="a_node36"><a xlink:title=" ">
<polygon fill="#e0e0e0" stroke="#999999" points="900.5,-239 851.5,-239 851.5,-220 900.5,-220 900.5,-239"/>
<text text-anchor="middle" x="876" y="-227" font-family="Helvetica,sans-Serif" font-size="10.00">cstdlib</text>
</a>
</g>
</g>
<!-- Node35&#45;&gt;Node36 -->
<g id="edge52" class="edge">
<title>Node35&#45;&gt;Node36</title>
<path fill="none" stroke="#63b8ff" d="M783.67,-274.98C801.29,-266.5 828.58,-253.35 848.93,-243.54"/>
<polygon fill="#63b8ff" stroke="#63b8ff" points="850.52,-246.66 858.01,-239.17 847.48,-240.36 850.52,-246.66"/>
</g>
<!-- Node37 -->
<g id="node37" class="node">
<title>Node37</title>
<g id="a_node37"><a xlink:title=" ">
<polygon fill="#e0e0e0" stroke="#999999" points="971,-239 919,-239 919,-220 971,-220 971,-239"/>
<text text-anchor="middle" x="945" y="-227" font-family="Helvetica,sans-Serif" font-size="10.00">TTree.h</text>
</a>
</g>
</g>
<!-- Node35&#45;&gt;Node37 -->
<g id="edge56" class="edge">
<title>Node35&#45;&gt;Node37</title>
<path fill="none" stroke="#63b8ff" d="M794.76,-274.98C825.84,-265.78 875.42,-251.1 909.04,-241.15"/>
<polygon fill="#63b8ff" stroke="#63b8ff" points="910.34,-244.41 918.93,-238.22 908.35,-237.7 910.34,-244.41"/>
</g>
<!-- Node38 -->
<g id="node38" class="node">
<title>Node38</title>
<g id="a_node38"><a xlink:title=" ">
<polygon fill="#e0e0e0" stroke="#999999" points="540.5,-239 475.5,-239 475.5,-220 540.5,-220 540.5,-239"/>
<text text-anchor="middle" x="508" y="-227" font-family="Helvetica,sans-Serif" font-size="10.00">TBranch.h</text>
</a>
</g>
</g>
<!-- Node35&#45;&gt;Node38 -->
<g id="edge57" class="edge">
<title>Node35&#45;&gt;Node38</title>
<path fill="none" stroke="#63b8ff" d="M724.39,-275C682.84,-266.5 616.86,-252.98 550.84,-239.38"/>
<polygon fill="#63b8ff" stroke="#63b8ff" points="551.17,-235.87 540.67,-237.28 549.76,-242.73 551.17,-235.87"/>
</g>
<!-- Node39 -->
<g id="node39" class="node">
<title>Node39</title>
<g id="a_node39"><a xlink:title=" ">
<polygon fill="#e0e0e0" stroke="#999999" points="617.5,-239 558.5,-239 558.5,-220 617.5,-220 617.5,-239"/>
<text text-anchor="middle" x="588" y="-227" font-family="Helvetica,sans-Serif" font-size="10.00">TChain.h</text>
</a>
</g>
</g>
<!-- Node35&#45;&gt;Node39 -->
<g id="edge59" class="edge">
<title>Node35&#45;&gt;Node39</title>
<path fill="none" stroke="#63b8ff" d="M737.4,-274.98C707.39,-266.05 660.02,-251.94 626.68,-242.02"/>
<polygon fill="#63b8ff" stroke="#63b8ff" points="627.41,-238.58 616.82,-239.08 625.41,-245.29 627.41,-238.58"/>
</g>
<!-- Node40 -->
<g id="node40" class="node">
<title>Node40</title>
<g id="a_node40"><a xlink:title=" ">
<polygon fill="#e0e0e0" stroke="#999999" points="718.5,-239 635.5,-239 635.5,-220 718.5,-220 718.5,-239"/>
<text text-anchor="middle" x="677" y="-227" font-family="Helvetica,sans-Serif" font-size="10.00">TStopwatch.h</text>
</a>
</g>
</g>
<!-- Node35&#45;&gt;Node40 -->
<g id="edge60" class="edge">
<title>Node35&#45;&gt;Node40</title>
<path fill="none" stroke="#63b8ff" d="M751.7,-274.98C737.9,-266.77 716.76,-254.18 700.49,-244.49"/>
<polygon fill="#63b8ff" stroke="#63b8ff" points="701.94,-241.28 691.56,-239.17 698.36,-247.29 701.94,-241.28"/>
</g>
</g>
</svg>
