<?xml version="1.0" encoding="UTF-8" standalone="no"?>
<!DOCTYPE svg PUBLIC "-//W3C//DTD SVG 1.1//EN"
 "http://www.w3.org/Graphics/SVG/1.1/DTD/svg11.dtd">
<!-- Generated by graphviz version 2.43.0 (0)
 -->
<!-- Title: Fitters/MCMCProcessor.h Pages: 1 -->
<svg width="2101pt" height="390pt"
 viewBox="0.00 0.00 2100.50 390.00" xmlns="http://www.w3.org/2000/svg" xmlns:xlink="http://www.w3.org/1999/xlink">
<g id="graph0" class="graph" transform="scale(1 1) rotate(0) translate(4 386)">
<title>Fitters/MCMCProcessor.h</title>
<!-- Node1 -->
<g id="node1" class="node">
<title>Node1</title>
<g id="a_node1"><a xlink:title=" ">
<polygon fill="#999999" stroke="#666666" points="1055.5,-382 918.5,-382 918.5,-363 1055.5,-363 1055.5,-382"/>
<text text-anchor="middle" x="987" y="-370" font-family="Helvetica,sans-Serif" font-size="10.00">Fitters/MCMCProcessor.h</text>
</a>
</g>
</g>
<!-- Node2 -->
<g id="node2" class="node">
<title>Node2</title>
<g id="a_node2"><a xlink:href="DiagMCMC_8cpp.html" target="_top" xlink:title=" ">
<polygon fill="white" stroke="#666666" points="478.5,-321.5 327.5,-321.5 327.5,-302.5 478.5,-302.5 478.5,-321.5"/>
<text text-anchor="middle" x="403" y="-309.5" font-family="Helvetica,sans-Serif" font-size="10.00">Diagnostics/DiagMCMC.cpp</text>
</a>
</g>
</g>
<!-- Node1&#45;&gt;Node2 -->
<g id="edge1" class="edge">
<title>Node1&#45;&gt;Node2</title>
<path fill="none" stroke="#63b8ff" d="M908.04,-366.28C809.5,-359.34 635.92,-345.75 488,-327 475.98,-325.48 463.06,-323.52 451.01,-321.55"/>
<polygon fill="#63b8ff" stroke="#63b8ff" points="908,-369.78 918.22,-366.99 908.49,-362.8 908,-369.78"/>
</g>
<!-- Node3 -->
<g id="node3" class="node">
<title>Node3</title>
<g id="a_node3"><a xlink:href="PlotMCMCDiag_8cpp.html" target="_top" xlink:title="KS: This script is used to analyse output form DiagMCMC.">
<polygon fill="white" stroke="#666666" points="667,-321.5 497,-321.5 497,-302.5 667,-302.5 667,-321.5"/>
<text text-anchor="middle" x="582" y="-309.5" font-family="Helvetica,sans-Serif" font-size="10.00">Diagnostics/PlotMCMCDiag.cpp</text>
</a>
</g>
</g>
<!-- Node1&#45;&gt;Node3 -->
<g id="edge2" class="edge">
<title>Node1&#45;&gt;Node3</title>
<path fill="none" stroke="#63b8ff" d="M916.56,-361.54C853.51,-352.59 758.57,-339.06 676,-327 664.08,-325.26 651.32,-323.37 639.16,-321.57"/>
<polygon fill="#63b8ff" stroke="#63b8ff" points="916.39,-365.05 926.78,-362.99 917.37,-358.12 916.39,-365.05"/>
</g>
<!-- Node4 -->
<g id="node4" class="node">
<title>Node4</title>
<g id="a_node4"><a xlink:href="SmearChain_8cpp.html" target="_top" xlink:title=" ">
<polygon fill="white" stroke="#666666" points="841,-321.5 685,-321.5 685,-302.5 841,-302.5 841,-321.5"/>
<text text-anchor="middle" x="763" y="-309.5" font-family="Helvetica,sans-Serif" font-size="10.00">Diagnostics/SmearChain.cpp</text>
</a>
</g>
</g>
<!-- Node1&#45;&gt;Node4 -->
<g id="edge3" class="edge">
<title>Node1&#45;&gt;Node4</title>
<path fill="none" stroke="#63b8ff" d="M944.48,-360.4C901.17,-349.08 834.95,-331.79 795.61,-321.52"/>
<polygon fill="#63b8ff" stroke="#63b8ff" points="943.87,-363.85 954.43,-362.99 945.64,-357.08 943.87,-363.85"/>
</g>
<!-- Node5 -->
<g id="node5" class="node">
<title>Node5</title>
<g id="a_node5"><a xlink:href="FitterBase_8h.html" target="_top" xlink:title=" ">
<polygon fill="white" stroke="#666666" points="968.5,-321.5 859.5,-321.5 859.5,-302.5 968.5,-302.5 968.5,-321.5"/>
<text text-anchor="middle" x="914" y="-309.5" font-family="Helvetica,sans-Serif" font-size="10.00">Fitters/FitterBase.h</text>
</a>
</g>
</g>
<!-- Node1&#45;&gt;Node5 -->
<g id="edge4" class="edge">
<title>Node1&#45;&gt;Node5</title>
<path fill="none" stroke="#63b8ff" d="M968.33,-356.54C954.54,-345.49 936.26,-330.84 924.82,-321.67"/>
<polygon fill="#63b8ff" stroke="#63b8ff" points="966.24,-359.35 976.23,-362.87 970.61,-353.88 966.24,-359.35"/>
</g>
<!-- Node24 -->
<g id="node24" class="node">
<title>Node24</title>
<g id="a_node24"><a xlink:href="MCMCProcessor_8cpp.html" target="_top" xlink:title=" ">
<polygon fill="white" stroke="#666666" points="1135.5,-321.5 986.5,-321.5 986.5,-302.5 1135.5,-302.5 1135.5,-321.5"/>
<text text-anchor="middle" x="1061" y="-309.5" font-family="Helvetica,sans-Serif" font-size="10.00">Fitters/MCMCProcessor.cpp</text>
</a>
</g>
</g>
<!-- Node1&#45;&gt;Node24 -->
<g id="edge31" class="edge">
<title>Node1&#45;&gt;Node24</title>
<path fill="none" stroke="#63b8ff" d="M1005.93,-356.54C1019.9,-345.49 1038.43,-330.84 1050.04,-321.67"/>
<polygon fill="#63b8ff" stroke="#63b8ff" points="1003.59,-353.92 997.92,-362.87 1007.93,-359.41 1003.59,-353.92"/>
</g>
<!-- Node25 -->
<g id="node25" class="node">
<title>Node25</title>
<g id="a_node25"><a xlink:href="OscProcessor_8h.html" target="_top" xlink:title=" ">
<polygon fill="white" stroke="#666666" points="1277,-321.5 1153,-321.5 1153,-302.5 1277,-302.5 1277,-321.5"/>
<text text-anchor="middle" x="1215" y="-309.5" font-family="Helvetica,sans-Serif" font-size="10.00">Fitters/OscProcessor.h</text>
</a>
</g>
</g>
<!-- Node1&#45;&gt;Node25 -->
<g id="edge32" class="edge">
<title>Node1&#45;&gt;Node25</title>
<path fill="none" stroke="#63b8ff" d="M1030,-360.47C1074.08,-349.16 1141.69,-331.81 1181.81,-321.52"/>
<polygon fill="#63b8ff" stroke="#63b8ff" points="1028.97,-357.12 1020.15,-362.99 1030.71,-363.9 1028.97,-357.12"/>
</g>
<!-- Node28 -->
<g id="node28" class="node">
<title>Node28</title>
<g id="a_node28"><a xlink:href="SampleSummary_8h.html" target="_top" xlink:title=" ">
<polygon fill="white" stroke="#666666" points="1515,-321.5 1373,-321.5 1373,-302.5 1515,-302.5 1515,-321.5"/>
<text text-anchor="middle" x="1444" y="-309.5" font-family="Helvetica,sans-Serif" font-size="10.00">Fitters/SampleSummary.h</text>
</a>
</g>
</g>
<!-- Node1&#45;&gt;Node28 -->
<g id="edge35" class="edge">
<title>Node1&#45;&gt;Node28</title>
<path fill="none" stroke="#63b8ff" d="M1063.62,-361.69C1151.48,-350.44 1294.09,-332.19 1377.47,-321.52"/>
<polygon fill="#63b8ff" stroke="#63b8ff" points="1062.93,-358.25 1053.45,-362.99 1063.82,-365.2 1062.93,-358.25"/>
</g>
<!-- Node30 -->
<g id="node30" class="node">
<title>Node30</title>
<g id="a_node30"><a xlink:href="inputManager_8h.html" target="_top" xlink:title=" ">
<polygon fill="white" stroke="#666666" points="1812.5,-327 1695.5,-327 1695.5,-297 1812.5,-297 1812.5,-327"/>
<text text-anchor="start" x="1703.5" y="-315" font-family="Helvetica,sans-Serif" font-size="10.00">Plotting/plottingUtils</text>
<text text-anchor="middle" x="1754" y="-304" font-family="Helvetica,sans-Serif" font-size="10.00">/inputManager.h</text>
</a>
</g>
</g>
<!-- Node1&#45;&gt;Node30 -->
<g id="edge37" class="edge">
<title>Node1&#45;&gt;Node30</title>
<path fill="none" stroke="#63b8ff" d="M1066.09,-365.47C1220.5,-353.69 1558.89,-327.88 1695.29,-317.48"/>
<polygon fill="#63b8ff" stroke="#63b8ff" points="1065.45,-362.01 1055.74,-366.26 1065.98,-368.99 1065.45,-362.01"/>
</g>
<!-- Node6 -->
<g id="node6" class="node">
<title>Node6</title>
<g id="a_node6"><a xlink:href="FitterBase_8cpp.html" target="_top" xlink:title=" ">
<polygon fill="white" stroke="#666666" points="120,-255.5 0,-255.5 0,-236.5 120,-236.5 120,-255.5"/>
<text text-anchor="middle" x="60" y="-243.5" font-family="Helvetica,sans-Serif" font-size="10.00">Fitters/FitterBase.cpp</text>
</a>
</g>
</g>
<!-- Node5&#45;&gt;Node6 -->
<g id="edge5" class="edge">
<title>Node5&#45;&gt;Node6</title>
<path fill="none" stroke="#63b8ff" d="M869.79,-300.34C863.19,-299.03 856.44,-297.86 850,-297 534.18,-254.81 450.39,-298.7 134,-261 122.83,-259.67 110.82,-257.65 99.79,-255.56"/>
<polygon fill="#63b8ff" stroke="#63b8ff" points="869.47,-303.84 879.97,-302.46 870.9,-296.99 869.47,-303.84"/>
</g>
<!-- Node7 -->
<g id="node7" class="node">
<title>Node7</title>
<g id="a_node7"><a xlink:href="LikelihoodFit_8h.html" target="_top" xlink:title=" ">
<polygon fill="white" stroke="#666666" points="584.5,-189.5 463.5,-189.5 463.5,-170.5 584.5,-170.5 584.5,-189.5"/>
<text text-anchor="middle" x="524" y="-177.5" font-family="Helvetica,sans-Serif" font-size="10.00">Fitters/LikelihoodFit.h</text>
</a>
</g>
</g>
<!-- Node5&#45;&gt;Node7 -->
<g id="edge6" class="edge">
<title>Node5&#45;&gt;Node7</title>
<path fill="none" stroke="#63b8ff" d="M876.64,-299.36C844.79,-289.38 797.8,-274.5 757,-261 680.66,-235.74 590.79,-204.44 548.43,-189.59"/>
<polygon fill="#63b8ff" stroke="#63b8ff" points="875.84,-302.78 886.43,-302.43 877.93,-296.1 875.84,-302.78"/>
</g>
<!-- Node9 -->
<g id="node9" class="node">
<title>Node9</title>
<g id="a_node9"><a xlink:href="MaCh3Factory_8h.html" target="_top" xlink:title="Factory methods for MaCh3 software which streamline initialisation of different objects.">
<polygon fill="white" stroke="#666666" points="871.5,-74 744.5,-74 744.5,-55 871.5,-55 871.5,-74"/>
<text text-anchor="middle" x="808" y="-62" font-family="Helvetica,sans-Serif" font-size="10.00">Fitters/MaCh3Factory.h</text>
</a>
</g>
</g>
<!-- Node5&#45;&gt;Node9 -->
<g id="edge27" class="edge">
<title>Node5&#45;&gt;Node9</title>
<path fill="none" stroke="#63b8ff" d="M918.55,-292.26C926.65,-254.21 939.34,-166.71 901,-110 888.57,-91.61 866.36,-80.6 846.76,-74.13"/>
<polygon fill="#63b8ff" stroke="#63b8ff" points="915.05,-291.87 916.25,-302.39 921.88,-293.42 915.05,-291.87"/>
</g>
<!-- Node13 -->
<g id="node13" class="node">
<title>Node13</title>
<g id="a_node13"><a xlink:href="fitters_8cpp.html" target="_top" xlink:title=" ">
<polygon fill="white" stroke="#666666" points="455,-74 353,-74 353,-55 455,-55 455,-74"/>
<text text-anchor="middle" x="404" y="-62" font-family="Helvetica,sans-Serif" font-size="10.00">python/fitters.cpp</text>
</a>
</g>
</g>
<!-- Node5&#45;&gt;Node13 -->
<g id="edge30" class="edge">
<title>Node5&#45;&gt;Node13</title>
<path fill="none" stroke="#63b8ff" d="M865.48,-300.29C860.26,-299.17 855.02,-298.05 850,-297 770.15,-280.28 749.49,-279.36 670,-261 444.8,-208.98 308.17,-312 167,-129 161.84,-122.31 161.61,-116.5 167,-110 178.78,-95.8 286.68,-80.06 352.76,-71.63"/>
<polygon fill="#63b8ff" stroke="#63b8ff" points="864.93,-303.75 875.44,-302.45 866.41,-296.91 864.93,-303.75"/>
</g>
<!-- Node16 -->
<g id="node16" class="node">
<title>Node16</title>
<g id="a_node16"><a xlink:href="MCMCBase_8h.html" target="_top" xlink:title=" ">
<polygon fill="white" stroke="#666666" points="881.5,-255.5 766.5,-255.5 766.5,-236.5 881.5,-236.5 881.5,-255.5"/>
<text text-anchor="middle" x="824" y="-243.5" font-family="Helvetica,sans-Serif" font-size="10.00">Fitters/MCMCBase.h</text>
</a>
</g>
</g>
<!-- Node5&#45;&gt;Node16 -->
<g id="edge17" class="edge">
<title>Node5&#45;&gt;Node16</title>
<path fill="none" stroke="#63b8ff" d="M893.38,-296.33C875.72,-283.78 850.9,-266.13 836.23,-255.7"/>
<polygon fill="#63b8ff" stroke="#63b8ff" points="891.68,-299.43 901.86,-302.37 895.74,-293.72 891.68,-299.43"/>
</g>
<!-- Node22 -->
<g id="node22" class="node">
<title>Node22</title>
<g id="a_node22"><a xlink:href="PredictiveThrower_8h.html" target="_top" xlink:title=" ">
<polygon fill="white" stroke="#666666" points="1101.5,-255.5 954.5,-255.5 954.5,-236.5 1101.5,-236.5 1101.5,-255.5"/>
<text text-anchor="middle" x="1028" y="-243.5" font-family="Helvetica,sans-Serif" font-size="10.00">Fitters/PredictiveThrower.h</text>
</a>
</g>
</g>
<!-- Node5&#45;&gt;Node22 -->
<g id="edge28" class="edge">
<title>Node5&#45;&gt;Node22</title>
<path fill="none" stroke="#63b8ff" d="M938.3,-297.36C960.74,-284.76 993.41,-266.42 1012.5,-255.7"/>
<polygon fill="#63b8ff" stroke="#63b8ff" points="936.38,-294.42 929.37,-302.37 939.81,-300.53 936.38,-294.42"/>
</g>
<!-- Node8 -->
<g id="node8" class="node">
<title>Node8</title>
<g id="a_node8"><a xlink:href="LikelihoodFit_8cpp.html" target="_top" xlink:title=" ">
<polygon fill="white" stroke="#666666" points="428,-129 296,-129 296,-110 428,-110 428,-129"/>
<text text-anchor="middle" x="362" y="-117" font-family="Helvetica,sans-Serif" font-size="10.00">Fitters/LikelihoodFit.cpp</text>
</a>
</g>
</g>
<!-- Node7&#45;&gt;Node8 -->
<g id="edge7" class="edge">
<title>Node7&#45;&gt;Node8</title>
<path fill="none" stroke="#63b8ff" d="M490.84,-167.02C459.51,-155.71 413.31,-139.03 385.58,-129.02"/>
<polygon fill="#63b8ff" stroke="#63b8ff" points="489.85,-170.39 500.44,-170.49 492.23,-163.81 489.85,-170.39"/>
</g>
<!-- Node7&#45;&gt;Node9 -->
<g id="edge8" class="edge">
<title>Node7&#45;&gt;Node9</title>
<path fill="none" stroke="#63b8ff" d="M594.56,-168.75C634.25,-161.21 683.93,-148.76 725,-129 755.08,-114.53 784.8,-88.05 799.14,-74.31"/>
<polygon fill="#63b8ff" stroke="#63b8ff" points="593.9,-165.31 584.69,-170.56 595.16,-172.19 593.9,-165.31"/>
</g>
<!-- Node11 -->
<g id="node11" class="node">
<title>Node11</title>
<g id="a_node11"><a xlink:href="MinuitFit_8h.html" target="_top" xlink:title=" ">
<polygon fill="white" stroke="#666666" points="278,-129 176,-129 176,-110 278,-110 278,-129"/>
<text text-anchor="middle" x="227" y="-117" font-family="Helvetica,sans-Serif" font-size="10.00">Fitters/MinuitFit.h</text>
</a>
</g>
</g>
<!-- Node7&#45;&gt;Node11 -->
<g id="edge10" class="edge">
<title>Node7&#45;&gt;Node11</title>
<path fill="none" stroke="#63b8ff" d="M470.86,-168.53C413.54,-157.24 323.38,-139.48 270.24,-129.02"/>
<polygon fill="#63b8ff" stroke="#63b8ff" points="470.33,-171.99 480.81,-170.49 471.68,-165.13 470.33,-171.99"/>
</g>
<!-- Node14 -->
<g id="node14" class="node">
<title>Node14</title>
<g id="a_node14"><a xlink:href="PSO_8h.html" target="_top" xlink:title=" ">
<polygon fill="white" stroke="#666666" points="563.5,-129 484.5,-129 484.5,-110 563.5,-110 563.5,-129"/>
<text text-anchor="middle" x="524" y="-117" font-family="Helvetica,sans-Serif" font-size="10.00">Fitters/PSO.h</text>
</a>
</g>
</g>
<!-- Node7&#45;&gt;Node14 -->
<g id="edge13" class="edge">
<title>Node7&#45;&gt;Node14</title>
<path fill="none" stroke="#63b8ff" d="M524,-160.16C524,-149.74 524,-137.3 524,-129.17"/>
<polygon fill="#63b8ff" stroke="#63b8ff" points="520.5,-160.37 524,-170.37 527.5,-160.37 520.5,-160.37"/>
</g>
<!-- Node10 -->
<g id="node10" class="node">
<title>Node10</title>
<g id="a_node10"><a xlink:href="MaCh3Factory_8cpp.html" target="_top" xlink:title=" ">
<polygon fill="white" stroke="#666666" points="877,-19 739,-19 739,0 877,0 877,-19"/>
<text text-anchor="middle" x="808" y="-7" font-family="Helvetica,sans-Serif" font-size="10.00">Fitters/MaCh3Factory.cpp</text>
</a>
</g>
</g>
<!-- Node9&#45;&gt;Node10 -->
<g id="edge9" class="edge">
<title>Node9&#45;&gt;Node10</title>
<path fill="none" stroke="#63b8ff" d="M808,-44.66C808,-35.93 808,-25.99 808,-19.09"/>
<polygon fill="#63b8ff" stroke="#63b8ff" points="804.5,-44.75 808,-54.75 811.5,-44.75 804.5,-44.75"/>
</g>
<!-- Node12 -->
<g id="node12" class="node">
<title>Node12</title>
<g id="a_node12"><a xlink:href="MinuitFit_8cpp.html" target="_top" xlink:title=" ">
<polygon fill="white" stroke="#666666" points="283.5,-74 170.5,-74 170.5,-55 283.5,-55 283.5,-74"/>
<text text-anchor="middle" x="227" y="-62" font-family="Helvetica,sans-Serif" font-size="10.00">Fitters/MinuitFit.cpp</text>
</a>
</g>
</g>
<!-- Node11&#45;&gt;Node12 -->
<g id="edge11" class="edge">
<title>Node11&#45;&gt;Node12</title>
<path fill="none" stroke="#63b8ff" d="M227,-99.66C227,-90.93 227,-80.99 227,-74.09"/>
<polygon fill="#63b8ff" stroke="#63b8ff" points="223.5,-99.75 227,-109.75 230.5,-99.75 223.5,-99.75"/>
</g>
<!-- Node11&#45;&gt;Node13 -->
<g id="edge12" class="edge">
<title>Node11&#45;&gt;Node13</title>
<path fill="none" stroke="#63b8ff" d="M265.22,-107.06C298.3,-97.15 345.41,-83.04 375.34,-74.08"/>
<polygon fill="#63b8ff" stroke="#63b8ff" points="264.01,-103.76 255.44,-109.98 266.02,-110.47 264.01,-103.76"/>
</g>
<!-- Node14&#45;&gt;Node9 -->
<g id="edge14" class="edge">
<title>Node14&#45;&gt;Node9</title>
<path fill="none" stroke="#63b8ff" d="M573.69,-109.23C626.93,-99.29 710.75,-83.65 762.38,-74.01"/>
<polygon fill="#63b8ff" stroke="#63b8ff" points="572.98,-105.8 563.79,-111.07 574.26,-112.68 572.98,-105.8"/>
</g>
<!-- Node14&#45;&gt;Node13 -->
<g id="edge16" class="edge">
<title>Node14&#45;&gt;Node13</title>
<path fill="none" stroke="#63b8ff" d="M495.47,-105.9C473.3,-96.11 443.15,-82.79 423.63,-74.17"/>
<polygon fill="#63b8ff" stroke="#63b8ff" points="494.16,-109.15 504.72,-109.98 496.99,-102.74 494.16,-109.15"/>
</g>
<!-- Node15 -->
<g id="node15" class="node">
<title>Node15</title>
<g id="a_node15"><a xlink:href="PSO_8cpp.html" target="_top" xlink:title=" ">
<polygon fill="white" stroke="#666666" points="563,-74 473,-74 473,-55 563,-55 563,-74"/>
<text text-anchor="middle" x="518" y="-62" font-family="Helvetica,sans-Serif" font-size="10.00">Fitters/PSO.cpp</text>
</a>
</g>
</g>
<!-- Node14&#45;&gt;Node15 -->
<g id="edge15" class="edge">
<title>Node14&#45;&gt;Node15</title>
<path fill="none" stroke="#63b8ff" d="M521.87,-99.66C520.88,-90.93 519.75,-80.99 518.97,-74.09"/>
<polygon fill="#63b8ff" stroke="#63b8ff" points="518.41,-100.21 523.01,-109.75 525.36,-99.42 518.41,-100.21"/>
</g>
<!-- Node17 -->
<g id="node17" class="node">
<title>Node17</title>
<g id="a_node17"><a xlink:href="MCMCBase_8cpp.html" target="_top" xlink:title=" ">
<polygon fill="white" stroke="#666666" points="759,-189.5 633,-189.5 633,-170.5 759,-170.5 759,-189.5"/>
<text text-anchor="middle" x="696" y="-177.5" font-family="Helvetica,sans-Serif" font-size="10.00">Fitters/MCMCBase.cpp</text>
</a>
</g>
</g>
<!-- Node16&#45;&gt;Node17 -->
<g id="edge18" class="edge">
<title>Node16&#45;&gt;Node17</title>
<path fill="none" stroke="#63b8ff" d="M797.72,-231.86C772.5,-219.25 735.13,-200.56 713.4,-189.7"/>
<polygon fill="#63b8ff" stroke="#63b8ff" points="796.23,-235.03 806.74,-236.37 799.36,-228.77 796.23,-235.03"/>
</g>
<!-- Node18 -->
<g id="node18" class="node">
<title>Node18</title>
<g id="a_node18"><a xlink:href="MR2T2_8h.html" target="_top" xlink:title=" ">
<polygon fill="white" stroke="#666666" points="870.5,-189.5 777.5,-189.5 777.5,-170.5 870.5,-170.5 870.5,-189.5"/>
<text text-anchor="middle" x="824" y="-177.5" font-family="Helvetica,sans-Serif" font-size="10.00">Fitters/MR2T2.h</text>
</a>
</g>
</g>
<!-- Node16&#45;&gt;Node18 -->
<g id="edge19" class="edge">
<title>Node16&#45;&gt;Node18</title>
<path fill="none" stroke="#63b8ff" d="M824,-226.08C824,-214.13 824,-199.22 824,-189.91"/>
<polygon fill="#63b8ff" stroke="#63b8ff" points="820.5,-226.37 824,-236.37 827.5,-226.37 820.5,-226.37"/>
</g>
<!-- Node18&#45;&gt;Node9 -->
<g id="edge25" class="edge">
<title>Node18&#45;&gt;Node9</title>
<path fill="none" stroke="#63b8ff" d="M850.83,-165.25C872.45,-152.2 897.38,-131.45 885,-110 874.74,-92.21 854.35,-80.9 837.14,-74.13"/>
<polygon fill="#63b8ff" stroke="#63b8ff" points="848.84,-162.35 841.88,-170.35 852.3,-168.43 848.84,-162.35"/>
</g>
<!-- Node18&#45;&gt;Node13 -->
<g id="edge26" class="edge">
<title>Node18&#45;&gt;Node13</title>
<path fill="none" stroke="#63b8ff" d="M782.74,-168.08C777.8,-166.95 772.8,-165.89 768,-165 639,-141.04 594.48,-183.21 475,-129 446.99,-116.29 422.2,-88.53 410.74,-74.3"/>
<polygon fill="#63b8ff" stroke="#63b8ff" points="782.21,-171.55 792.75,-170.47 783.84,-164.74 782.21,-171.55"/>
</g>
<!-- Node19 -->
<g id="node19" class="node">
<title>Node19</title>
<g id="a_node19"><a xlink:href="DelayedMR2T2_8h.html" target="_top" xlink:title=" ">
<polygon fill="white" stroke="#666666" points="716,-129 582,-129 582,-110 716,-110 716,-129"/>
<text text-anchor="middle" x="649" y="-117" font-family="Helvetica,sans-Serif" font-size="10.00">Fitters/DelayedMR2T2.h</text>
</a>
</g>
</g>
<!-- Node18&#45;&gt;Node19 -->
<g id="edge20" class="edge">
<title>Node18&#45;&gt;Node19</title>
<path fill="none" stroke="#63b8ff" d="M789.05,-167.32C755.2,-156 704.69,-139.12 674.48,-129.02"/>
<polygon fill="#63b8ff" stroke="#63b8ff" points="787.96,-170.64 798.55,-170.49 790.18,-164 787.96,-170.64"/>
</g>
<!-- Node21 -->
<g id="node21" class="node">
<title>Node21</title>
<g id="a_node21"><a xlink:href="MR2T2_8cpp.html" target="_top" xlink:title=" ">
<polygon fill="white" stroke="#666666" points="876,-129 772,-129 772,-110 876,-110 876,-129"/>
<text text-anchor="middle" x="824" y="-117" font-family="Helvetica,sans-Serif" font-size="10.00">Fitters/MR2T2.cpp</text>
</a>
</g>
</g>
<!-- Node18&#45;&gt;Node21 -->
<g id="edge24" class="edge">
<title>Node18&#45;&gt;Node21</title>
<path fill="none" stroke="#63b8ff" d="M824,-160.16C824,-149.74 824,-137.3 824,-129.17"/>
<polygon fill="#63b8ff" stroke="#63b8ff" points="820.5,-160.37 824,-170.37 827.5,-160.37 820.5,-160.37"/>
</g>
<!-- Node19&#45;&gt;Node9 -->
<g id="edge22" class="edge">
<title>Node19&#45;&gt;Node9</title>
<path fill="none" stroke="#63b8ff" d="M684.1,-106.8C713.78,-96.91 755.6,-82.97 782.25,-74.08"/>
<polygon fill="#63b8ff" stroke="#63b8ff" points="682.93,-103.5 674.55,-109.98 685.14,-110.14 682.93,-103.5"/>
</g>
<!-- Node19&#45;&gt;Node13 -->
<g id="edge23" class="edge">
<title>Node19&#45;&gt;Node13</title>
<path fill="none" stroke="#63b8ff" d="M599.61,-107.82C553.7,-97.88 486.17,-83.28 443.67,-74.08"/>
<polygon fill="#63b8ff" stroke="#63b8ff" points="599.12,-111.29 609.64,-109.98 600.6,-104.45 599.12,-111.29"/>
</g>
<!-- Node20 -->
<g id="node20" class="node">
<title>Node20</title>
<g id="a_node20"><a xlink:href="DelayedMR2T2_8cpp.html" target="_top" xlink:title=" ">
<polygon fill="white" stroke="#666666" points="726.5,-74 581.5,-74 581.5,-55 726.5,-55 726.5,-74"/>
<text text-anchor="middle" x="654" y="-62" font-family="Helvetica,sans-Serif" font-size="10.00">Fitters/DelayedMR2T2.cpp</text>
</a>
</g>
</g>
<!-- Node19&#45;&gt;Node20 -->
<g id="edge21" class="edge">
<title>Node19&#45;&gt;Node20</title>
<path fill="none" stroke="#63b8ff" d="M650.78,-99.66C651.6,-90.93 652.54,-80.99 653.19,-74.09"/>
<polygon fill="#63b8ff" stroke="#63b8ff" points="647.28,-99.46 649.83,-109.75 654.25,-100.12 647.28,-99.46"/>
</g>
<!-- Node23 -->
<g id="node23" class="node">
<title>Node23</title>
<g id="a_node23"><a xlink:href="PredictiveThrower_8cpp.html" target="_top" xlink:title=" ">
<polygon fill="white" stroke="#666666" points="1112,-189.5 954,-189.5 954,-170.5 1112,-170.5 1112,-189.5"/>
<text text-anchor="middle" x="1033" y="-177.5" font-family="Helvetica,sans-Serif" font-size="10.00">Fitters/PredictiveThrower.cpp</text>
</a>
</g>
</g>
<!-- Node22&#45;&gt;Node23 -->
<g id="edge29" class="edge">
<title>Node22&#45;&gt;Node23</title>
<path fill="none" stroke="#63b8ff" d="M1029.48,-226.08C1030.41,-214.13 1031.58,-199.22 1032.3,-189.91"/>
<polygon fill="#63b8ff" stroke="#63b8ff" points="1025.96,-226.13 1028.67,-236.37 1032.94,-226.67 1025.96,-226.13"/>
</g>
<!-- Node26 -->
<g id="node26" class="node">
<title>Node26</title>
<g id="a_node26"><a xlink:href="ProcessMCMC_8cpp.html" target="_top" xlink:title="Main exectable responsible for different types of MCMC processing like drawing posteriors,...">
<polygon fill="white" stroke="#666666" points="1286,-255.5 1120,-255.5 1120,-236.5 1286,-236.5 1286,-255.5"/>
<text text-anchor="middle" x="1203" y="-243.5" font-family="Helvetica,sans-Serif" font-size="10.00">Diagnostics/ProcessMCMC.cpp</text>
</a>
</g>
</g>
<!-- Node25&#45;&gt;Node26 -->
<g id="edge33" class="edge">
<title>Node25&#45;&gt;Node26</title>
<path fill="none" stroke="#63b8ff" d="M1211.52,-292.45C1209.27,-280.43 1206.43,-265.32 1204.67,-255.91"/>
<polygon fill="#63b8ff" stroke="#63b8ff" points="1208.1,-293.18 1213.38,-302.37 1214.98,-291.89 1208.1,-293.18"/>
</g>
<!-- Node27 -->
<g id="node27" class="node">
<title>Node27</title>
<g id="a_node27"><a xlink:href="OscProcessor_8cpp.html" target="_top" xlink:title=" ">
<polygon fill="white" stroke="#666666" points="1439.5,-255.5 1304.5,-255.5 1304.5,-236.5 1439.5,-236.5 1439.5,-255.5"/>
<text text-anchor="middle" x="1372" y="-243.5" font-family="Helvetica,sans-Serif" font-size="10.00">Fitters/OscProcessor.cpp</text>
</a>
</g>
</g>
<!-- Node25&#45;&gt;Node27 -->
<g id="edge34" class="edge">
<title>Node25&#45;&gt;Node27</title>
<path fill="none" stroke="#63b8ff" d="M1245.64,-298.51C1276.67,-285.86 1323.84,-266.63 1350.91,-255.6"/>
<polygon fill="#63b8ff" stroke="#63b8ff" points="1244.11,-295.35 1236.17,-302.37 1246.76,-301.83 1244.11,-295.35"/>
</g>
<!-- Node29 -->
<g id="node29" class="node">
<title>Node29</title>
<g id="a_node29"><a xlink:href="SampleSummary_8cpp.html" target="_top" xlink:title=" ">
<polygon fill="white" stroke="#666666" points="1610.5,-255.5 1457.5,-255.5 1457.5,-236.5 1610.5,-236.5 1610.5,-255.5"/>
<text text-anchor="middle" x="1534" y="-243.5" font-family="Helvetica,sans-Serif" font-size="10.00">Fitters/SampleSummary.cpp</text>
</a>
</g>
</g>
<!-- Node28&#45;&gt;Node29 -->
<g id="edge36" class="edge">
<title>Node28&#45;&gt;Node29</title>
<path fill="none" stroke="#63b8ff" d="M1464.62,-296.33C1482.28,-283.78 1507.1,-266.13 1521.77,-255.7"/>
<polygon fill="#63b8ff" stroke="#63b8ff" points="1462.26,-293.72 1456.14,-302.37 1466.32,-299.43 1462.26,-293.72"/>
</g>
<!-- Node31 -->
<g id="node31" class="node">
<title>Node31</title>
<g id="a_node31"><a xlink:href="inputManager_8cpp.html" target="_top" xlink:title=" ">
<polygon fill="white" stroke="#666666" points="1745.5,-261 1628.5,-261 1628.5,-231 1745.5,-231 1745.5,-261"/>
<text text-anchor="start" x="1636.5" y="-249" font-family="Helvetica,sans-Serif" font-size="10.00">Plotting/plottingUtils</text>
<text text-anchor="middle" x="1687" y="-238" font-family="Helvetica,sans-Serif" font-size="10.00">/inputManager.cpp</text>
</a>
</g>
</g>
<!-- Node30&#45;&gt;Node31 -->
<g id="edge38" class="edge">
<title>Node30&#45;&gt;Node31</title>
<path fill="none" stroke="#63b8ff" d="M1731.65,-289.65C1721.83,-280.27 1710.58,-269.53 1701.83,-261.16"/>
<polygon fill="#63b8ff" stroke="#63b8ff" points="1729.48,-292.42 1739.13,-296.8 1734.32,-287.36 1729.48,-292.42"/>
</g>
<!-- Node32 -->
<g id="node32" class="node">
<title>Node32</title>
<g id="a_node32"><a xlink:href="plottingManager_8h.html" target="_top" xlink:title=" ">
<polygon fill="white" stroke="#666666" points="1880.5,-261 1763.5,-261 1763.5,-231 1880.5,-231 1880.5,-261"/>
<text text-anchor="start" x="1771.5" y="-249" font-family="Helvetica,sans-Serif" font-size="10.00">Plotting/plottingUtils</text>
<text text-anchor="middle" x="1822" y="-238" font-family="Helvetica,sans-Serif" font-size="10.00">/plottingManager.h</text>
</a>
</g>
</g>
<!-- Node30&#45;&gt;Node32 -->
<g id="edge39" class="edge">
<title>Node30&#45;&gt;Node32</title>
<path fill="none" stroke="#63b8ff" d="M1776.39,-289.92C1786.42,-280.49 1797.98,-269.61 1806.95,-261.16"/>
<polygon fill="#63b8ff" stroke="#63b8ff" points="1773.97,-287.39 1769.09,-296.8 1778.77,-292.49 1773.97,-287.39"/>
</g>
<!-- Node37 -->
<g id="node37" class="node">
<title>Node37</title>
<g id="a_node37"><a xlink:href="plotting_8cpp.html" target="_top" xlink:title=" ">
<polygon fill="white" stroke="#666666" points="2092.5,-189.5 1981.5,-189.5 1981.5,-170.5 2092.5,-170.5 2092.5,-189.5"/>
<text text-anchor="middle" x="2037" y="-177.5" font-family="Helvetica,sans-Serif" font-size="10.00">python/plotting.cpp</text>
</a>
</g>
</g>
<!-- Node30&#45;&gt;Node37 -->
<g id="edge45" class="edge">
<title>Node30&#45;&gt;Node37</title>
<path fill="none" stroke="#63b8ff" d="M1806.35,-293.55C1831.66,-284.62 1862.27,-273.1 1889,-261 1939.56,-238.11 1996.59,-205.13 2022.64,-189.65"/>
<polygon fill="#63b8ff" stroke="#63b8ff" points="1804.86,-290.36 1796.57,-296.96 1807.17,-296.97 1804.86,-290.36"/>
</g>
<!-- Node33 -->
<g id="node33" class="node">
<title>Node33</title>
<g id="a_node33"><a xlink:href="GetPostfitParamPlots_8cpp.html" target="_top" xlink:title=" ">
<polygon fill="white" stroke="#666666" points="1963,-195 1827,-195 1827,-165 1963,-165 1963,-195"/>
<text text-anchor="start" x="1835" y="-183" font-family="Helvetica,sans-Serif" font-size="10.00">Plotting/GetPostfitParam</text>
<text text-anchor="middle" x="1895" y="-172" font-family="Helvetica,sans-Serif" font-size="10.00">Plots.cpp</text>
</a>
</g>
</g>
<!-- Node32&#45;&gt;Node33 -->
<g id="edge40" class="edge">
<title>Node32&#45;&gt;Node33</title>
<path fill="none" stroke="#63b8ff" d="M1845.72,-224.2C1856.56,-214.7 1869.12,-203.69 1878.84,-195.16"/>
<polygon fill="#63b8ff" stroke="#63b8ff" points="1843.41,-221.57 1838.2,-230.8 1848.03,-226.84 1843.41,-221.57"/>
</g>
<!-- Node34 -->
<g id="node34" class="node">
<title>Node34</title>
<g id="a_node34"><a xlink:href="MatrixPlotter_8cpp.html" target="_top" xlink:title=" ">
<polygon fill="white" stroke="#666666" points="1539,-189.5 1399,-189.5 1399,-170.5 1539,-170.5 1539,-189.5"/>
<text text-anchor="middle" x="1469" y="-177.5" font-family="Helvetica,sans-Serif" font-size="10.00">Plotting/MatrixPlotter.cpp</text>
</a>
</g>
</g>
<!-- Node32&#45;&gt;Node34 -->
<g id="edge41" class="edge">
<title>Node32&#45;&gt;Node34</title>
<path fill="none" stroke="#63b8ff" d="M1753.35,-230.91C1661.03,-213.44 1636.41,-210.56 1548,-195 1537.99,-193.24 1527.26,-191.34 1517.04,-189.53"/>
<polygon fill="#63b8ff" stroke="#63b8ff" points="1752.94,-234.39 1763.42,-232.82 1754.25,-227.52 1752.94,-234.39"/>
</g>
<!-- Node35 -->
<g id="node35" class="node">
<title>Node35</title>
<g id="a_node35"><a xlink:href="PlotLLH_8cpp.html" target="_top" xlink:title=" ">
<polygon fill="white" stroke="#666666" points="1671,-189.5 1557,-189.5 1557,-170.5 1671,-170.5 1671,-189.5"/>
<text text-anchor="middle" x="1614" y="-177.5" font-family="Helvetica,sans-Serif" font-size="10.00">Plotting/PlotLLH.cpp</text>
</a>
</g>
</g>
<!-- Node32&#45;&gt;Node35 -->
<g id="edge42" class="edge">
<title>Node32&#45;&gt;Node35</title>
<path fill="none" stroke="#63b8ff" d="M1766.66,-227.97C1726.35,-215.57 1673.45,-199.29 1641.68,-189.52"/>
<polygon fill="#63b8ff" stroke="#63b8ff" points="1765.77,-231.36 1776.35,-230.95 1767.83,-224.67 1765.77,-231.36"/>
</g>
<!-- Node36 -->
<g id="node36" class="node">
<title>Node36</title>
<g id="a_node36"><a xlink:href="plottingManager_8cpp.html" target="_top" xlink:title=" ">
<polygon fill="white" stroke="#666666" points="1808.5,-195 1689.5,-195 1689.5,-165 1808.5,-165 1808.5,-195"/>
<text text-anchor="start" x="1697.5" y="-183" font-family="Helvetica,sans-Serif" font-size="10.00">Plotting/plottingUtils</text>
<text text-anchor="middle" x="1749" y="-172" font-family="Helvetica,sans-Serif" font-size="10.00">/plottingManager.cpp</text>
</a>
</g>
</g>
<!-- Node32&#45;&gt;Node36 -->
<g id="edge43" class="edge">
<title>Node32&#45;&gt;Node36</title>
<path fill="none" stroke="#63b8ff" d="M1798.28,-224.2C1787.44,-214.7 1774.88,-203.69 1765.16,-195.16"/>
<polygon fill="#63b8ff" stroke="#63b8ff" points="1795.97,-226.84 1805.8,-230.8 1800.59,-221.57 1795.97,-226.84"/>
</g>
<!-- Node32&#45;&gt;Node37 -->
<g id="edge44" class="edge">
<title>Node32&#45;&gt;Node37</title>
<path fill="none" stroke="#63b8ff" d="M1878.94,-228.05C1920.64,-215.64 1975.48,-199.31 2008.39,-189.52"/>
<polygon fill="#63b8ff" stroke="#63b8ff" points="1877.77,-224.75 1869.18,-230.95 1879.77,-231.46 1877.77,-224.75"/>
</g>
</g>
</svg>
