<?xml version="1.0" encoding="UTF-8" standalone="no"?>
<!DOCTYPE svg PUBLIC "-//W3C//DTD SVG 1.1//EN"
 "http://www.w3.org/Graphics/SVG/1.1/DTD/svg11.dtd">
<!-- Generated by graphviz version 2.43.0 (0)
 -->
<!-- Title: Samples/OscillationHandler.cpp Pages: 1 -->
<!--zoomable 357 -->
<svg id="main" version="1.1" xmlns="http://www.w3.org/2000/svg" xmlns:xlink="http://www.w3.org/1999/xlink" xml:space="preserve" onload="init(evt)">
<style type="text/css"><![CDATA[
.edge:hover path { stroke: red; }
.edge:hover polygon { stroke: red; fill: red; }
]]></style>
<script type="text/javascript"><![CDATA[
var edges = document.getElementsByTagName('g');
if (edges && edges.length) {
  for (var i=0;i<edges.length;i++) {
    if (edges[i].id.substr(0,4)=='edge') {
      edges[i].setAttribute('class','edge');
    }
  }
}
]]></script>
        <defs>
                <circle id="rim" cx="0" cy="0" r="7"/>
                <circle id="rim2" cx="0" cy="0" r="3.5"/>
                <g id="zoomPlus">
                        <use xlink:href="#rim" fill="#404040">
                                <set attributeName="fill" to="#808080" begin="zoomplus.mouseover" end="zoomplus.mouseout"/>
                        </use>
                        <path d="M-4,0h8M0,-4v8" fill="none" stroke="white" stroke-width="1.5" pointer-events="none"/>
                </g>
                <g id="zoomMin">
                        <use xlink:href="#rim" fill="#404040">
                                <set attributeName="fill" to="#808080" begin="zoomminus.mouseover" end="zoomminus.mouseout"/>
                        </use>
                        <path d="M-4,0h8" fill="none" stroke="white" stroke-width="1.5" pointer-events="none"/>
                </g>
                <g id="dirArrow">
                        <path fill="none" stroke="white" stroke-width="1.5" d="M0,-3.0v7 M-2.5,-0.5L0,-3.0L2.5,-0.5"/>
                </g>
               <g id="resetDef">
                       <use xlink:href="#rim2" fill="#404040">
                               <set attributeName="fill" to="#808080" begin="reset.mouseover" end="reset.mouseout"/>
                       </use>
               </g>
        </defs>

<script type="text/javascript">
var viewWidth = 1092;
var viewHeight = 357;
var sectionId = 'dynsection-0';
</script>
<script xlink:href="svgpan.js"/>
<svg id="graph" class="graph">
<g id="viewport">
<title>Samples/OscillationHandler.cpp</title>
<!-- Node1 -->
<g id="node1" class="node">
<title>Node1</title>
<g id="a_node1"><a xlink:title=" ">
<polygon fill="#999999" stroke="#666666" points="900.5,-349 729.5,-349 729.5,-330 900.5,-330 900.5,-349"/>
<text text-anchor="middle" x="815" y="-337" font-family="Helvetica,sans-Serif" font-size="10.00">Samples/OscillationHandler.cpp</text>
</a>
</g>
</g>
<!-- Node2 -->
<g id="node2" class="node">
<title>Node2</title>
<g id="a_node2"><a xlink:href="OscillationHandler_8h.html" target="_top" xlink:title=" ">
<polygon fill="white" stroke="#666666" points="780.5,-294 665.5,-294 665.5,-275 780.5,-275 780.5,-294"/>
<text text-anchor="middle" x="723" y="-282" font-family="Helvetica,sans-Serif" font-size="10.00">OscillationHandler.h</text>
</a>
</g>
</g>
<!-- Node1&#45;&gt;Node2 -->
<g id="edge1" class="edge">
<title>Node1&#45;&gt;Node2</title>
<path fill="none" stroke="#63b8ff" d="M800.22,-329.98C785.82,-321.69 763.69,-308.94 746.81,-299.22"/>
<polygon fill="#63b8ff" stroke="#63b8ff" points="748.46,-296.13 738.05,-294.17 744.97,-302.19 748.46,-296.13"/>
</g>
<!-- Node28 -->
<g id="node28" class="node">
<title>Node28</title>
<g id="a_node28"><a xlink:title=" ">
<polygon fill="#e0e0e0" stroke="#999999" points="1083.5,-184 910.5,-184 910.5,-165 1083.5,-165 1083.5,-184"/>
<text text-anchor="middle" x="997" y="-172" font-family="Helvetica,sans-Serif" font-size="10.00">Constants/OscillatorConstants.h</text>
</a>
</g>
</g>
<!-- Node1&#45;&gt;Node28 -->
<g id="edge36" class="edge">
<title>Node1&#45;&gt;Node28</title>
<path fill="none" stroke="#63b8ff" d="M815.8,-329.81C817.41,-316.68 822.06,-291.59 835,-275 868.64,-231.88 926.6,-202.9 963.3,-187.81"/>
<polygon fill="#63b8ff" stroke="#63b8ff" points="964.61,-191.06 972.6,-184.1 962.02,-184.56 964.61,-191.06"/>
</g>
<!-- Node29 -->
<g id="node29" class="node">
<title>Node29</title>
<g id="a_node29"><a xlink:title=" ">
<polygon fill="#e0e0e0" stroke="#999999" points="998.5,-294 843.5,-294 843.5,-275 998.5,-275 998.5,-294"/>
<text text-anchor="middle" x="921" y="-282" font-family="Helvetica,sans-Serif" font-size="10.00">Oscillator/OscillatorFactory.h</text>
</a>
</g>
</g>
<!-- Node1&#45;&gt;Node29 -->
<g id="edge35" class="edge">
<title>Node1&#45;&gt;Node29</title>
<path fill="none" stroke="#63b8ff" d="M832.03,-329.98C848.93,-321.54 875.06,-308.47 894.64,-298.68"/>
<polygon fill="#63b8ff" stroke="#63b8ff" points="896.28,-301.77 903.66,-294.17 893.15,-295.51 896.28,-301.77"/>
</g>
<!-- Node3 -->
<g id="node3" class="node">
<title>Node3</title>
<g id="a_node3"><a xlink:href="SampleStructs_8h.html" target="_top" xlink:title=" ">
<polygon fill="white" stroke="#666666" points="604.5,-239 463.5,-239 463.5,-220 604.5,-220 604.5,-239"/>
<text text-anchor="middle" x="534" y="-227" font-family="Helvetica,sans-Serif" font-size="10.00">Samples/SampleStructs.h</text>
</a>
</g>
</g>
<!-- Node2&#45;&gt;Node3 -->
<g id="edge2" class="edge">
<title>Node2&#45;&gt;Node3</title>
<path fill="none" stroke="#63b8ff" d="M692.63,-274.98C660.63,-266.01 610.04,-251.82 574.62,-241.89"/>
<polygon fill="#63b8ff" stroke="#63b8ff" points="575.18,-238.41 564.6,-239.08 573.29,-245.15 575.18,-238.41"/>
</g>
<!-- Node4 -->
<g id="node4" class="node">
<title>Node4</title>
<g id="a_node4"><a xlink:title=" ">
<polygon fill="#e0e0e0" stroke="#999999" points="32,-184 0,-184 0,-165 32,-165 32,-184"/>
<text text-anchor="middle" x="16" y="-172" font-family="Helvetica,sans-Serif" font-size="10.00">set</text>
</a>
</g>
</g>
<!-- Node3&#45;&gt;Node4 -->
<g id="edge3" class="edge">
<title>Node3&#45;&gt;Node4</title>
<path fill="none" stroke="#63b8ff" d="M463.42,-227.38C369.07,-224.72 196.78,-215.8 42.39,-183.79"/>
<polygon fill="#63b8ff" stroke="#63b8ff" points="42.76,-180.29 32.25,-181.65 41.31,-187.14 42.76,-180.29"/>
</g>
<!-- Node5 -->
<g id="node5" class="node">
<title>Node5</title>
<g id="a_node5"><a xlink:title=" ">
<polygon fill="#e0e0e0" stroke="#999999" points="82,-184 50,-184 50,-165 82,-165 82,-184"/>
<text text-anchor="middle" x="66" y="-172" font-family="Helvetica,sans-Serif" font-size="10.00">list</text>
</a>
</g>
</g>
<!-- Node3&#45;&gt;Node5 -->
<g id="edge4" class="edge">
<title>Node3&#45;&gt;Node5</title>
<path fill="none" stroke="#63b8ff" d="M463.41,-226.35C377.48,-222.64 228.06,-212.65 92.41,-183.82"/>
<polygon fill="#63b8ff" stroke="#63b8ff" points="92.77,-180.32 82.26,-181.62 91.29,-187.16 92.77,-180.32"/>
</g>
<!-- Node6 -->
<g id="node6" class="node">
<title>Node6</title>
<g id="a_node6"><a xlink:title=" ">
<polygon fill="#e0e0e0" stroke="#999999" points="193.5,-184 100.5,-184 100.5,-165 193.5,-165 193.5,-184"/>
<text text-anchor="middle" x="147" y="-172" font-family="Helvetica,sans-Serif" font-size="10.00">unordered_map</text>
</a>
</g>
</g>
<!-- Node3&#45;&gt;Node6 -->
<g id="edge5" class="edge">
<title>Node3&#45;&gt;Node6</title>
<path fill="none" stroke="#63b8ff" d="M467.49,-219.98C402.65,-211.59 300.98,-198.19 203.52,-184.2"/>
<polygon fill="#63b8ff" stroke="#63b8ff" points="203.9,-180.72 193.5,-182.75 202.9,-187.64 203.9,-180.72"/>
</g>
<!-- Node7 -->
<g id="node7" class="node">
<title>Node7</title>
<g id="a_node7"><a xlink:href="MaCh3Exception_8h.html" target="_top" xlink:title=" ">
<polygon fill="white" stroke="#666666" points="364.5,-184 211.5,-184 211.5,-165 364.5,-165 364.5,-184"/>
<text text-anchor="middle" x="288" y="-172" font-family="Helvetica,sans-Serif" font-size="10.00">Manager/MaCh3Exception.h</text>
</a>
</g>
</g>
<!-- Node3&#45;&gt;Node7 -->
<g id="edge6" class="edge">
<title>Node3&#45;&gt;Node7</title>
<path fill="none" stroke="#63b8ff" d="M494.48,-219.98C451.83,-210.8 383.85,-196.15 337.64,-186.19"/>
<polygon fill="#63b8ff" stroke="#63b8ff" points="338.35,-182.77 327.83,-184.08 336.87,-189.61 338.35,-182.77"/>
</g>
<!-- Node11 -->
<g id="node11" class="node">
<title>Node11</title>
<g id="a_node11"><a xlink:href="MaCh3Logger_8h.html" target="_top" xlink:title="KS: Based on this https://github.com/gabime/spdlog/blob/a2b4262090fd3f005c2315dcb5be2f0f1774a005/incl...">
<polygon fill="white" stroke="#666666" points="364.5,-129 227.5,-129 227.5,-110 364.5,-110 364.5,-129"/>
<text text-anchor="middle" x="296" y="-117" font-family="Helvetica,sans-Serif" font-size="10.00">Manager/MaCh3Logger.h</text>
</a>
</g>
</g>
<!-- Node3&#45;&gt;Node11 -->
<g id="edge26" class="edge">
<title>Node3&#45;&gt;Node11</title>
<path fill="none" stroke="#63b8ff" d="M509,-219.97C485.06,-211.58 448.11,-198.02 417,-184 382.44,-168.43 343.88,-147.55 319.78,-134.07"/>
<polygon fill="#63b8ff" stroke="#63b8ff" points="321.42,-130.97 310.99,-129.11 317.99,-137.07 321.42,-130.97"/>
</g>
<!-- Node15 -->
<g id="node15" class="node">
<title>Node15</title>
<g id="a_node15"><a xlink:href="Core_8h.html" target="_top" xlink:title=" ">
<polygon fill="white" stroke="#666666" points="604,-74 510,-74 510,-55 604,-55 604,-74"/>
<text text-anchor="middle" x="557" y="-62" font-family="Helvetica,sans-Serif" font-size="10.00">Manager/Core.h</text>
</a>
</g>
</g>
<!-- Node3&#45;&gt;Node15 -->
<g id="edge27" class="edge">
<title>Node3&#45;&gt;Node15</title>
<path fill="none" stroke="#63b8ff" d="M503.29,-219.99C474.72,-210.26 438.21,-192.07 450,-165 466.86,-126.31 507,-95.88 533.04,-79.32"/>
<polygon fill="#63b8ff" stroke="#63b8ff" points="534.92,-82.27 541.6,-74.05 531.25,-76.31 534.92,-82.27"/>
</g>
<!-- Node22 -->
<g id="node22" class="node">
<title>Node22</title>
<g id="a_node22"><a xlink:title=" ">
<polygon fill="#e0e0e0" stroke="#999999" points="521,-184 459,-184 459,-165 521,-165 521,-184"/>
<text text-anchor="middle" x="490" y="-172" font-family="Helvetica,sans-Serif" font-size="10.00">TSpline.h</text>
</a>
</g>
</g>
<!-- Node3&#45;&gt;Node22 -->
<g id="edge28" class="edge">
<title>Node3&#45;&gt;Node22</title>
<path fill="none" stroke="#63b8ff" d="M526.73,-219.75C520.46,-212.18 511.21,-201.05 503.57,-191.84"/>
<polygon fill="#63b8ff" stroke="#63b8ff" points="506.21,-189.55 497.13,-184.09 500.83,-194.02 506.21,-189.55"/>
</g>
<!-- Node23 -->
<g id="node23" class="node">
<title>Node23</title>
<g id="a_node23"><a xlink:title=" ">
<polygon fill="#e0e0e0" stroke="#999999" points="616.5,-184 539.5,-184 539.5,-165 616.5,-165 616.5,-184"/>
<text text-anchor="middle" x="578" y="-172" font-family="Helvetica,sans-Serif" font-size="10.00">TObjString.h</text>
</a>
</g>
</g>
<!-- Node3&#45;&gt;Node23 -->
<g id="edge29" class="edge">
<title>Node3&#45;&gt;Node23</title>
<path fill="none" stroke="#63b8ff" d="M541.27,-219.75C547.54,-212.18 556.79,-201.05 564.43,-191.84"/>
<polygon fill="#63b8ff" stroke="#63b8ff" points="567.17,-194.02 570.87,-184.09 561.79,-189.55 567.17,-194.02"/>
</g>
<!-- Node24 -->
<g id="node24" class="node">
<title>Node24</title>
<g id="a_node24"><a xlink:title=" ">
<polygon fill="#e0e0e0" stroke="#999999" points="683.5,-184 634.5,-184 634.5,-165 683.5,-165 683.5,-184"/>
<text text-anchor="middle" x="659" y="-172" font-family="Helvetica,sans-Serif" font-size="10.00">TFile.h</text>
</a>
</g>
</g>
<!-- Node3&#45;&gt;Node24 -->
<g id="edge30" class="edge">
<title>Node3&#45;&gt;Node24</title>
<path fill="none" stroke="#63b8ff" d="M554.08,-219.98C574.37,-211.38 605.96,-197.99 629.17,-188.15"/>
<polygon fill="#63b8ff" stroke="#63b8ff" points="630.71,-191.3 638.55,-184.17 627.98,-184.85 630.71,-191.3"/>
</g>
<!-- Node25 -->
<g id="node25" class="node">
<title>Node25</title>
<g id="a_node25"><a xlink:title=" ">
<polygon fill="#e0e0e0" stroke="#999999" points="746,-184 702,-184 702,-165 746,-165 746,-184"/>
<text text-anchor="middle" x="724" y="-172" font-family="Helvetica,sans-Serif" font-size="10.00">TF1.h</text>
</a>
</g>
</g>
<!-- Node3&#45;&gt;Node25 -->
<g id="edge31" class="edge">
<title>Node3&#45;&gt;Node25</title>
<path fill="none" stroke="#63b8ff" d="M564.53,-219.98C599.47,-210.24 656.45,-194.34 692,-184.43"/>
<polygon fill="#63b8ff" stroke="#63b8ff" points="693.17,-187.73 701.86,-181.68 691.29,-180.99 693.17,-187.73"/>
</g>
<!-- Node26 -->
<g id="node26" class="node">
<title>Node26</title>
<g id="a_node26"><a xlink:title=" ">
<polygon fill="#e0e0e0" stroke="#999999" points="829.5,-184 764.5,-184 764.5,-165 829.5,-165 829.5,-184"/>
<text text-anchor="middle" x="797" y="-172" font-family="Helvetica,sans-Serif" font-size="10.00">TH2Poly.h</text>
</a>
</g>
</g>
<!-- Node3&#45;&gt;Node26 -->
<g id="edge32" class="edge">
<title>Node3&#45;&gt;Node26</title>
<path fill="none" stroke="#63b8ff" d="M576.37,-219.98C618.77,-211.45 686.16,-197.89 754.37,-184.12"/>
<polygon fill="#63b8ff" stroke="#63b8ff" points="755.33,-187.5 764.44,-182.09 753.95,-180.64 755.33,-187.5"/>
</g>
<!-- Node27 -->
<g id="node27" class="node">
<title>Node27</title>
<g id="a_node27"><a xlink:title=" ">
<polygon fill="#e0e0e0" stroke="#999999" points="892.5,-184 847.5,-184 847.5,-165 892.5,-165 892.5,-184"/>
<text text-anchor="middle" x="870" y="-172" font-family="Helvetica,sans-Serif" font-size="10.00">TH1.h</text>
</a>
</g>
</g>
<!-- Node3&#45;&gt;Node27 -->
<g id="edge33" class="edge">
<title>Node3&#45;&gt;Node27</title>
<path fill="none" stroke="#63b8ff" d="M604.69,-220.68C664.48,-213.5 752.56,-201.58 837.58,-184.09"/>
<polygon fill="#63b8ff" stroke="#63b8ff" points="838.32,-187.51 847.39,-182.04 836.89,-180.66 838.32,-187.51"/>
</g>
<!-- Node3&#45;&gt;Node28 -->
<g id="edge34" class="edge">
<title>Node3&#45;&gt;Node28</title>
<path fill="none" stroke="#63b8ff" d="M604.57,-220.42C687.33,-210.95 824.38,-195.26 912.66,-185.15"/>
<polygon fill="#63b8ff" stroke="#63b8ff" points="913.11,-188.63 922.65,-184.01 912.31,-181.67 913.11,-188.63"/>
</g>
<!-- Node8 -->
<g id="node8" class="node">
<title>Node8</title>
<g id="a_node8"><a xlink:title=" ">
<polygon fill="#e0e0e0" stroke="#999999" points="196,-19 136,-19 136,0 196,0 196,-19"/>
<text text-anchor="middle" x="166" y="-7" font-family="Helvetica,sans-Serif" font-size="10.00">iostream</text>
</a>
</g>
</g>
<!-- Node7&#45;&gt;Node8 -->
<g id="edge7" class="edge">
<title>Node7&#45;&gt;Node8</title>
<path fill="none" stroke="#63b8ff" d="M211.27,-165.45C180.63,-159.26 146.42,-148.33 120,-129 90.63,-107.52 66.48,-86.31 85,-55 94.07,-39.68 110.49,-29.28 126.19,-22.41"/>
<polygon fill="#63b8ff" stroke="#63b8ff" points="127.81,-25.53 135.8,-18.58 125.22,-19.03 127.81,-25.53"/>
</g>
<!-- Node9 -->
<g id="node9" class="node">
<title>Node9</title>
<g id="a_node9"><a xlink:title=" ">
<polygon fill="#e0e0e0" stroke="#999999" points="138,-74 94,-74 94,-55 138,-55 138,-74"/>
<text text-anchor="middle" x="116" y="-62" font-family="Helvetica,sans-Serif" font-size="10.00">string</text>
</a>
</g>
</g>
<!-- Node7&#45;&gt;Node9 -->
<g id="edge8" class="edge">
<title>Node7&#45;&gt;Node9</title>
<path fill="none" stroke="#63b8ff" d="M211.44,-166.41C184.22,-160.3 155.32,-149.17 135,-129 123.14,-117.23 118.62,-98.39 116.93,-84.28"/>
<polygon fill="#63b8ff" stroke="#63b8ff" points="120.41,-83.88 116.1,-74.2 113.44,-84.46 120.41,-83.88"/>
</g>
<!-- Node10 -->
<g id="node10" class="node">
<title>Node10</title>
<g id="a_node10"><a xlink:title=" ">
<polygon fill="#e0e0e0" stroke="#999999" points="209.5,-129 144.5,-129 144.5,-110 209.5,-110 209.5,-129"/>
<text text-anchor="middle" x="177" y="-117" font-family="Helvetica,sans-Serif" font-size="10.00">stdexcept</text>
</a>
</g>
</g>
<!-- Node7&#45;&gt;Node10 -->
<g id="edge9" class="edge">
<title>Node7&#45;&gt;Node10</title>
<path fill="none" stroke="#63b8ff" d="M270.17,-164.98C252.39,-156.5 224.85,-143.35 204.32,-133.54"/>
<polygon fill="#63b8ff" stroke="#63b8ff" points="205.69,-130.32 195.16,-129.17 202.67,-136.64 205.69,-130.32"/>
</g>
<!-- Node7&#45;&gt;Node11 -->
<g id="edge10" class="edge">
<title>Node7&#45;&gt;Node11</title>
<path fill="none" stroke="#63b8ff" d="M289.32,-164.75C290.37,-157.8 291.87,-147.85 293.19,-139.13"/>
<polygon fill="#63b8ff" stroke="#63b8ff" points="296.67,-139.5 294.7,-129.09 289.75,-138.45 296.67,-139.5"/>
</g>
<!-- Node7&#45;&gt;Node15 -->
<g id="edge25" class="edge">
<title>Node7&#45;&gt;Node15</title>
<path fill="none" stroke="#63b8ff" d="M303.54,-164.9C327.43,-151.9 374.85,-126.96 417,-110 449.56,-96.9 487.56,-85.02 515.75,-76.84"/>
<polygon fill="#63b8ff" stroke="#63b8ff" points="517.02,-80.12 525.67,-74 515.09,-73.39 517.02,-80.12"/>
</g>
<!-- Node11&#45;&gt;Node8 -->
<g id="edge11" class="edge">
<title>Node11&#45;&gt;Node8</title>
<path fill="none" stroke="#63b8ff" d="M275.54,-109.88C258.49,-102.08 234.15,-89.46 216,-74 200.21,-60.54 185.98,-41.44 176.77,-27.71"/>
<polygon fill="#63b8ff" stroke="#63b8ff" points="179.63,-25.68 171.25,-19.2 173.75,-29.49 179.63,-25.68"/>
</g>
<!-- Node11&#45;&gt;Node9 -->
<g id="edge14" class="edge">
<title>Node11&#45;&gt;Node9</title>
<path fill="none" stroke="#63b8ff" d="M267.08,-109.98C234.48,-100.39 181.63,-84.82 147.86,-74.88"/>
<polygon fill="#63b8ff" stroke="#63b8ff" points="148.62,-71.46 138.04,-71.99 146.64,-78.17 148.62,-71.46"/>
</g>
<!-- Node12 -->
<g id="node12" class="node">
<title>Node12</title>
<g id="a_node12"><a xlink:title=" ">
<polygon fill="#e0e0e0" stroke="#999999" points="321,-19 265,-19 265,0 321,0 321,-19"/>
<text text-anchor="middle" x="293" y="-7" font-family="Helvetica,sans-Serif" font-size="10.00">sstream</text>
</a>
</g>
</g>
<!-- Node11&#45;&gt;Node12 -->
<g id="edge12" class="edge">
<title>Node11&#45;&gt;Node12</title>
<path fill="none" stroke="#63b8ff" d="M269.43,-109.94C252.87,-103.06 232.88,-91.6 223,-74 211.01,-52.66 236.77,-34.62 260.35,-23.29"/>
<polygon fill="#63b8ff" stroke="#63b8ff" points="261.87,-26.45 269.54,-19.14 258.98,-20.07 261.87,-26.45"/>
</g>
<!-- Node13 -->
<g id="node13" class="node">
<title>Node13</title>
<g id="a_node13"><a xlink:title=" ">
<polygon fill="#e0e0e0" stroke="#999999" points="297.5,-74 232.5,-74 232.5,-55 297.5,-55 297.5,-74"/>
<text text-anchor="middle" x="265" y="-62" font-family="Helvetica,sans-Serif" font-size="10.00">functional</text>
</a>
</g>
</g>
<!-- Node11&#45;&gt;Node13 -->
<g id="edge13" class="edge">
<title>Node11&#45;&gt;Node13</title>
<path fill="none" stroke="#63b8ff" d="M290.88,-109.75C286.64,-102.49 280.47,-91.95 275.22,-82.98"/>
<polygon fill="#63b8ff" stroke="#63b8ff" points="278.09,-80.95 270.02,-74.09 272.05,-84.49 278.09,-80.95"/>
</g>
<!-- Node14 -->
<g id="node14" class="node">
<title>Node14</title>
<g id="a_node14"><a xlink:title=" ">
<polygon fill="#e0e0e0" stroke="#999999" points="380.5,-74 315.5,-74 315.5,-55 380.5,-55 380.5,-74"/>
<text text-anchor="middle" x="348" y="-62" font-family="Helvetica,sans-Serif" font-size="10.00">exception</text>
</a>
</g>
</g>
<!-- Node11&#45;&gt;Node14 -->
<g id="edge15" class="edge">
<title>Node11&#45;&gt;Node14</title>
<path fill="none" stroke="#63b8ff" d="M304.59,-109.75C312.16,-102.03 323.38,-90.6 332.51,-81.28"/>
<polygon fill="#63b8ff" stroke="#63b8ff" points="335.07,-83.68 339.57,-74.09 330.07,-78.78 335.07,-83.68"/>
</g>
<!-- Node11&#45;&gt;Node15 -->
<g id="edge16" class="edge">
<title>Node11&#45;&gt;Node15</title>
<path fill="none" stroke="#63b8ff" d="M337.93,-109.98C383.27,-100.78 455.61,-86.09 504.65,-76.13"/>
<polygon fill="#63b8ff" stroke="#63b8ff" points="505.63,-79.5 514.74,-74.08 504.24,-72.64 505.63,-79.5"/>
</g>
<!-- Node21 -->
<g id="node21" class="node">
<title>Node21</title>
<g id="a_node21"><a xlink:title=" ">
<polygon fill="#e0e0e0" stroke="#999999" points="491.5,-74 398.5,-74 398.5,-55 491.5,-55 491.5,-74"/>
<text text-anchor="middle" x="445" y="-62" font-family="Helvetica,sans-Serif" font-size="10.00">spdlog/spdlog.h</text>
</a>
</g>
</g>
<!-- Node11&#45;&gt;Node21 -->
<g id="edge24" class="edge">
<title>Node11&#45;&gt;Node21</title>
<path fill="none" stroke="#63b8ff" d="M319.94,-109.98C344.56,-101.23 383.12,-87.51 410.92,-77.62"/>
<polygon fill="#63b8ff" stroke="#63b8ff" points="412.38,-80.82 420.62,-74.17 410.03,-74.22 412.38,-80.82"/>
</g>
<!-- Node15&#45;&gt;Node8 -->
<g id="edge19" class="edge">
<title>Node15&#45;&gt;Node8</title>
<path fill="none" stroke="#63b8ff" d="M509.73,-56.39C506.44,-55.92 503.17,-55.45 500,-55 394.32,-40.08 269.63,-23.83 206.7,-15.72"/>
<polygon fill="#63b8ff" stroke="#63b8ff" points="206.78,-12.2 196.42,-14.39 205.89,-19.14 206.78,-12.2"/>
</g>
<!-- Node15&#45;&gt;Node12 -->
<g id="edge17" class="edge">
<title>Node15&#45;&gt;Node12</title>
<path fill="none" stroke="#63b8ff" d="M514.58,-54.98C463.83,-44.79 379.61,-27.89 330.93,-18.11"/>
<polygon fill="#63b8ff" stroke="#63b8ff" points="331.6,-14.68 321.11,-16.14 330.22,-21.54 331.6,-14.68"/>
</g>
<!-- Node16 -->
<g id="node16" class="node">
<title>Node16</title>
<g id="a_node16"><a xlink:title=" ">
<polygon fill="#e0e0e0" stroke="#999999" points="445.5,-19 390.5,-19 390.5,0 445.5,0 445.5,-19"/>
<text text-anchor="middle" x="418" y="-7" font-family="Helvetica,sans-Serif" font-size="10.00">fstream</text>
</a>
</g>
</g>
<!-- Node15&#45;&gt;Node16 -->
<g id="edge18" class="edge">
<title>Node15&#45;&gt;Node16</title>
<path fill="none" stroke="#63b8ff" d="M534.67,-54.98C511.8,-46.27 476.04,-32.63 450.14,-22.75"/>
<polygon fill="#63b8ff" stroke="#63b8ff" points="451.33,-19.46 440.74,-19.17 448.84,-26 451.33,-19.46"/>
</g>
<!-- Node17 -->
<g id="node17" class="node">
<title>Node17</title>
<g id="a_node17"><a xlink:title=" ">
<polygon fill="#e0e0e0" stroke="#999999" points="510.5,-19 463.5,-19 463.5,0 510.5,0 510.5,-19"/>
<text text-anchor="middle" x="487" y="-7" font-family="Helvetica,sans-Serif" font-size="10.00">vector</text>
</a>
</g>
</g>
<!-- Node15&#45;&gt;Node17 -->
<g id="edge20" class="edge">
<title>Node15&#45;&gt;Node17</title>
<path fill="none" stroke="#63b8ff" d="M545.75,-54.98C535.2,-47 519.2,-34.88 506.56,-25.31"/>
<polygon fill="#63b8ff" stroke="#63b8ff" points="508.54,-22.42 498.45,-19.17 504.31,-28 508.54,-22.42"/>
</g>
<!-- Node18 -->
<g id="node18" class="node">
<title>Node18</title>
<g id="a_node18"><a xlink:title=" ">
<polygon fill="#e0e0e0" stroke="#999999" points="585,-19 529,-19 529,0 585,0 585,-19"/>
<text text-anchor="middle" x="557" y="-7" font-family="Helvetica,sans-Serif" font-size="10.00">iomanip</text>
</a>
</g>
</g>
<!-- Node15&#45;&gt;Node18 -->
<g id="edge21" class="edge">
<title>Node15&#45;&gt;Node18</title>
<path fill="none" stroke="#63b8ff" d="M557,-54.75C557,-47.8 557,-37.85 557,-29.13"/>
<polygon fill="#63b8ff" stroke="#63b8ff" points="560.5,-29.09 557,-19.09 553.5,-29.09 560.5,-29.09"/>
</g>
<!-- Node19 -->
<g id="node19" class="node">
<title>Node19</title>
<g id="a_node19"><a xlink:title=" ">
<polygon fill="#e0e0e0" stroke="#999999" points="650.5,-19 603.5,-19 603.5,0 650.5,0 650.5,-19"/>
<text text-anchor="middle" x="627" y="-7" font-family="Helvetica,sans-Serif" font-size="10.00">cmath</text>
</a>
</g>
</g>
<!-- Node15&#45;&gt;Node19 -->
<g id="edge22" class="edge">
<title>Node15&#45;&gt;Node19</title>
<path fill="none" stroke="#63b8ff" d="M568.25,-54.98C578.8,-47 594.8,-34.88 607.44,-25.31"/>
<polygon fill="#63b8ff" stroke="#63b8ff" points="609.69,-28 615.55,-19.17 605.46,-22.42 609.69,-28"/>
</g>
<!-- Node20 -->
<g id="node20" class="node">
<title>Node20</title>
<g id="a_node20"><a xlink:title=" ">
<polygon fill="#e0e0e0" stroke="#999999" points="713,-19 669,-19 669,0 713,0 713,-19"/>
<text text-anchor="middle" x="691" y="-7" font-family="Helvetica,sans-Serif" font-size="10.00">limits</text>
</a>
</g>
</g>
<!-- Node15&#45;&gt;Node20 -->
<g id="edge23" class="edge">
<title>Node15&#45;&gt;Node20</title>
<path fill="none" stroke="#63b8ff" d="M578.53,-54.98C600.47,-46.3 634.74,-32.75 659.69,-22.88"/>
<polygon fill="#63b8ff" stroke="#63b8ff" points="661.07,-26.1 669.08,-19.17 658.49,-19.59 661.07,-26.1"/>
</g>
</g>
</svg>
        <g id="navigator" transform="translate(0 0)" fill="#404254">
                <rect fill="#f2f5e9" fill-opacity="0.5" stroke="#606060" stroke-width=".5" x="0" y="0" width="60" height="60"/>
                <use id="zoomplus" xlink:href="#zoomPlus" x="17" y="9" onmousedown="handleZoom(evt,'in')"/>
                <use id="zoomminus" xlink:href="#zoomMin" x="42" y="9" onmousedown="handleZoom(evt,'out')"/>
                <use id="reset" xlink:href="#resetDef" x="30" y="36" onmousedown="handleReset()"/>
                <g id="arrowUp" xlink:href="#dirArrow" transform="translate(30 24)" onmousedown="handlePan(0,-1)">
                  <use xlink:href="#rim" fill="#404040">
                        <set attributeName="fill" to="#808080" begin="arrowUp.mouseover" end="arrowUp.mouseout"/>
                  </use>
                  <path fill="none" stroke="white" stroke-width="1.5" d="M0,-3.0v7 M-2.5,-0.5L0,-3.0L2.5,-0.5"/>
                </g>
                <g id="arrowRight" xlink:href="#dirArrow" transform="rotate(90) translate(36 -43)" onmousedown="handlePan(1,0)">
                  <use xlink:href="#rim" fill="#404040">
                        <set attributeName="fill" to="#808080" begin="arrowRight.mouseover" end="arrowRight.mouseout"/>
                  </use>
                  <path fill="none" stroke="white" stroke-width="1.5" d="M0,-3.0v7 M-2.5,-0.5L0,-3.0L2.5,-0.5"/>
                </g>
                <g id="arrowDown" xlink:href="#dirArrow" transform="rotate(180) translate(-30 -48)" onmousedown="handlePan(0,1)">
                  <use xlink:href="#rim" fill="#404040">
                        <set attributeName="fill" to="#808080" begin="arrowDown.mouseover" end="arrowDown.mouseout"/>
                  </use>
                  <path fill="none" stroke="white" stroke-width="1.5" d="M0,-3.0v7 M-2.5,-0.5L0,-3.0L2.5,-0.5"/>
                </g>
                <g id="arrowLeft" xlink:href="#dirArrow" transform="rotate(270) translate(-36 17)" onmousedown="handlePan(-1,0)">
                  <use xlink:href="#rim" fill="#404040">
                        <set attributeName="fill" to="#808080" begin="arrowLeft.mouseover" end="arrowLeft.mouseout"/>
                  </use>
                  <path fill="none" stroke="white" stroke-width="1.5" d="M0,-3.0v7 M-2.5,-0.5L0,-3.0L2.5,-0.5"/>
                </g>
        </g>
        <svg viewBox="0 0 15 15" width="100%" height="30px" preserveAspectRatio="xMaxYMin meet">
         <g id="arrow_out" transform="scale(0.3 0.3)">
          <a xlink:href="OscillationHandler_8cpp__incl_org.svg" target="_base">
           <rect id="button" ry="5" rx="5" y="6" x="6" height="38" width="38"
                fill="#f2f5e9" fill-opacity="0.5" stroke="#606060" stroke-width="1.0"/>
           <path id="arrow"
             d="M 11.500037,31.436501 C 11.940474,20.09759 22.043105,11.32322 32.158766,21.979434 L 37.068811,17.246167 C 37.068811,17.246167 37.088388,32 37.088388,32 L 22.160133,31.978069 C 22.160133,31.978069 26.997745,27.140456 26.997745,27.140456 C 18.528582,18.264221 13.291696,25.230495 11.500037,31.436501 z"
             style="fill:#404040;"/>
          </a>
         </g>
        </svg>
</svg>
