<?xml version="1.0" encoding="UTF-8" standalone="no"?>
<!DOCTYPE svg PUBLIC "-//W3C//DTD SVG 1.1//EN"
 "http://www.w3.org/Graphics/SVG/1.1/DTD/svg11.dtd">
<!-- Generated by graphviz version 2.43.0 (0)
 -->
<!-- Title: Parameters/ParameterStructs.h Pages: 1 -->
<svg width="901pt" height="247pt"
 viewBox="0.00 0.00 900.50 247.00" xmlns="http://www.w3.org/2000/svg" xmlns:xlink="http://www.w3.org/1999/xlink">
<g id="graph0" class="graph" transform="scale(1 1) rotate(0) translate(4 243)">
<title>Parameters/ParameterStructs.h</title>
<!-- Node1 -->
<g id="node1" class="node">
<title>Node1</title>
<g id="a_node1"><a xlink:title=" ">
<polygon fill="#999999" stroke="#666666" points="544,-239 376,-239 376,-220 544,-220 544,-239"/>
<text text-anchor="middle" x="460" y="-227" font-family="Helvetica,sans-Serif" font-size="10.00">Parameters/ParameterStructs.h</text>
</a>
</g>
</g>
<!-- Node2 -->
<g id="node2" class="node">
<title>Node2</title>
<g id="a_node2"><a xlink:title=" ">
<polygon fill="#e0e0e0" stroke="#999999" points="32,-184 0,-184 0,-165 32,-165 32,-184"/>
<text text-anchor="middle" x="16" y="-172" font-family="Helvetica,sans-Serif" font-size="10.00">set</text>
</a>
</g>
</g>
<!-- Node1&#45;&gt;Node2 -->
<g id="edge1" class="edge">
<title>Node1&#45;&gt;Node2</title>
<path fill="none" stroke="#63b8ff" d="M375.65,-225.04C292.73,-220.39 162.66,-209.78 42.38,-183.83"/>
<polygon fill="#63b8ff" stroke="#63b8ff" points="42.78,-180.34 32.26,-181.61 41.27,-187.17 42.78,-180.34"/>
</g>
<!-- Node3 -->
<g id="node3" class="node">
<title>Node3</title>
<g id="a_node3"><a xlink:title=" ">
<polygon fill="#e0e0e0" stroke="#999999" points="82,-184 50,-184 50,-165 82,-165 82,-184"/>
<text text-anchor="middle" x="66" y="-172" font-family="Helvetica,sans-Serif" font-size="10.00">list</text>
</a>
</g>
</g>
<!-- Node1&#45;&gt;Node3 -->
<g id="edge2" class="edge">
<title>Node1&#45;&gt;Node3</title>
<path fill="none" stroke="#63b8ff" d="M375.98,-223.36C302.99,-217.75 194.46,-206.67 92.15,-183.82"/>
<polygon fill="#63b8ff" stroke="#63b8ff" points="92.79,-180.38 82.27,-181.57 91.24,-187.2 92.79,-180.38"/>
</g>
<!-- Node4 -->
<g id="node4" class="node">
<title>Node4</title>
<g id="a_node4"><a xlink:title=" ">
<polygon fill="#e0e0e0" stroke="#999999" points="193.5,-184 100.5,-184 100.5,-165 193.5,-165 193.5,-184"/>
<text text-anchor="middle" x="147" y="-172" font-family="Helvetica,sans-Serif" font-size="10.00">unordered_map</text>
</a>
</g>
</g>
<!-- Node1&#45;&gt;Node4 -->
<g id="edge3" class="edge">
<title>Node1&#45;&gt;Node4</title>
<path fill="none" stroke="#63b8ff" d="M409.71,-219.98C353.47,-210.46 262.58,-195.07 203.81,-185.12"/>
<polygon fill="#63b8ff" stroke="#63b8ff" points="204.03,-181.61 193.59,-183.39 202.86,-188.51 204.03,-181.61"/>
</g>
<!-- Node5 -->
<g id="node5" class="node">
<title>Node5</title>
<g id="a_node5"><a xlink:href="MaCh3Exception_8h.html" target="_top" xlink:title=" ">
<polygon fill="white" stroke="#666666" points="364.5,-184 211.5,-184 211.5,-165 364.5,-165 364.5,-184"/>
<text text-anchor="middle" x="288" y="-172" font-family="Helvetica,sans-Serif" font-size="10.00">Manager/MaCh3Exception.h</text>
</a>
</g>
</g>
<!-- Node1&#45;&gt;Node5 -->
<g id="edge4" class="edge">
<title>Node1&#45;&gt;Node5</title>
<path fill="none" stroke="#63b8ff" d="M432.37,-219.98C403.49,-211.09 357.99,-197.07 325.8,-187.15"/>
<polygon fill="#63b8ff" stroke="#63b8ff" points="326.44,-183.68 315.85,-184.08 324.38,-190.37 326.44,-183.68"/>
</g>
<!-- Node9 -->
<g id="node9" class="node">
<title>Node9</title>
<g id="a_node9"><a xlink:href="MaCh3Logger_8h.html" target="_top" xlink:title="KS: Based on this https://github.com/gabime/spdlog/blob/a2b4262090fd3f005c2315dcb5be2f0f1774a005/incl...">
<polygon fill="white" stroke="#666666" points="364.5,-129 227.5,-129 227.5,-110 364.5,-110 364.5,-129"/>
<text text-anchor="middle" x="296" y="-117" font-family="Helvetica,sans-Serif" font-size="10.00">Manager/MaCh3Logger.h</text>
</a>
</g>
</g>
<!-- Node1&#45;&gt;Node9 -->
<g id="edge24" class="edge">
<title>Node1&#45;&gt;Node9</title>
<path fill="none" stroke="#63b8ff" d="M449.01,-219.89C432.76,-207.3 401.2,-183.37 373,-165 355.96,-153.91 336.08,-142.45 320.79,-133.94"/>
<polygon fill="#63b8ff" stroke="#63b8ff" points="322.37,-130.82 311.93,-129.05 318.99,-136.95 322.37,-130.82"/>
</g>
<!-- Node13 -->
<g id="node13" class="node">
<title>Node13</title>
<g id="a_node13"><a xlink:href="Core_8h.html" target="_top" xlink:title=" ">
<polygon fill="white" stroke="#666666" points="604,-74 510,-74 510,-55 604,-55 604,-74"/>
<text text-anchor="middle" x="557" y="-62" font-family="Helvetica,sans-Serif" font-size="10.00">Manager/Core.h</text>
</a>
</g>
</g>
<!-- Node1&#45;&gt;Node13 -->
<g id="edge25" class="edge">
<title>Node1&#45;&gt;Node13</title>
<path fill="none" stroke="#63b8ff" d="M455.76,-219.9C450.18,-207.33 441.98,-183.42 450,-165 466.86,-126.31 507,-95.88 533.04,-79.32"/>
<polygon fill="#63b8ff" stroke="#63b8ff" points="534.92,-82.27 541.6,-74.05 531.25,-76.31 534.92,-82.27"/>
</g>
<!-- Node20 -->
<g id="node20" class="node">
<title>Node20</title>
<g id="a_node20"><a xlink:title=" ">
<polygon fill="#e0e0e0" stroke="#999999" points="521,-184 459,-184 459,-165 521,-165 521,-184"/>
<text text-anchor="middle" x="490" y="-172" font-family="Helvetica,sans-Serif" font-size="10.00">TSpline.h</text>
</a>
</g>
</g>
<!-- Node1&#45;&gt;Node20 -->
<g id="edge26" class="edge">
<title>Node1&#45;&gt;Node20</title>
<path fill="none" stroke="#63b8ff" d="M464.95,-219.75C469.06,-212.49 475.03,-201.95 480.1,-192.98"/>
<polygon fill="#63b8ff" stroke="#63b8ff" points="483.26,-194.52 485.14,-184.09 477.17,-191.07 483.26,-194.52"/>
</g>
<!-- Node21 -->
<g id="node21" class="node">
<title>Node21</title>
<g id="a_node21"><a xlink:title=" ">
<polygon fill="#e0e0e0" stroke="#999999" points="616.5,-184 539.5,-184 539.5,-165 616.5,-165 616.5,-184"/>
<text text-anchor="middle" x="578" y="-172" font-family="Helvetica,sans-Serif" font-size="10.00">TObjString.h</text>
</a>
</g>
</g>
<!-- Node1&#45;&gt;Node21 -->
<g id="edge27" class="edge">
<title>Node1&#45;&gt;Node21</title>
<path fill="none" stroke="#63b8ff" d="M478.96,-219.98C498.03,-211.42 527.66,-198.11 549.55,-188.28"/>
<polygon fill="#63b8ff" stroke="#63b8ff" points="551.01,-191.46 558.7,-184.17 548.14,-185.07 551.01,-191.46"/>
</g>
<!-- Node22 -->
<g id="node22" class="node">
<title>Node22</title>
<g id="a_node22"><a xlink:title=" ">
<polygon fill="#e0e0e0" stroke="#999999" points="683.5,-184 634.5,-184 634.5,-165 683.5,-165 683.5,-184"/>
<text text-anchor="middle" x="659" y="-172" font-family="Helvetica,sans-Serif" font-size="10.00">TFile.h</text>
</a>
</g>
</g>
<!-- Node1&#45;&gt;Node22 -->
<g id="edge28" class="edge">
<title>Node1&#45;&gt;Node22</title>
<path fill="none" stroke="#63b8ff" d="M491.97,-219.98C528.23,-210.33 587.13,-194.64 624.42,-184.71"/>
<polygon fill="#63b8ff" stroke="#63b8ff" points="625.57,-188.02 634.34,-182.07 623.77,-181.26 625.57,-188.02"/>
</g>
<!-- Node23 -->
<g id="node23" class="node">
<title>Node23</title>
<g id="a_node23"><a xlink:title=" ">
<polygon fill="#e0e0e0" stroke="#999999" points="746,-184 702,-184 702,-165 746,-165 746,-184"/>
<text text-anchor="middle" x="724" y="-172" font-family="Helvetica,sans-Serif" font-size="10.00">TF1.h</text>
</a>
</g>
</g>
<!-- Node1&#45;&gt;Node23 -->
<g id="edge29" class="edge">
<title>Node1&#45;&gt;Node23</title>
<path fill="none" stroke="#63b8ff" d="M511.15,-219.93C556.3,-212.09 624.1,-199.67 691.73,-184.15"/>
<polygon fill="#63b8ff" stroke="#63b8ff" points="692.75,-187.51 701.7,-181.84 691.17,-180.69 692.75,-187.51"/>
</g>
<!-- Node24 -->
<g id="node24" class="node">
<title>Node24</title>
<g id="a_node24"><a xlink:title=" ">
<polygon fill="#e0e0e0" stroke="#999999" points="829.5,-184 764.5,-184 764.5,-165 829.5,-165 829.5,-184"/>
<text text-anchor="middle" x="797" y="-172" font-family="Helvetica,sans-Serif" font-size="10.00">TH2Poly.h</text>
</a>
</g>
</g>
<!-- Node1&#45;&gt;Node24 -->
<g id="edge30" class="edge">
<title>Node1&#45;&gt;Node24</title>
<path fill="none" stroke="#63b8ff" d="M522.59,-219.98C580.19,-211.94 668.22,-199.11 754.5,-184.01"/>
<polygon fill="#63b8ff" stroke="#63b8ff" points="755.23,-187.43 764.47,-182.25 754.02,-180.54 755.23,-187.43"/>
</g>
<!-- Node25 -->
<g id="node25" class="node">
<title>Node25</title>
<g id="a_node25"><a xlink:title=" ">
<polygon fill="#e0e0e0" stroke="#999999" points="892.5,-184 847.5,-184 847.5,-165 892.5,-165 892.5,-184"/>
<text text-anchor="middle" x="870" y="-172" font-family="Helvetica,sans-Serif" font-size="10.00">TH1.h</text>
</a>
</g>
</g>
<!-- Node1&#45;&gt;Node25 -->
<g id="edge31" class="edge">
<title>Node1&#45;&gt;Node25</title>
<path fill="none" stroke="#63b8ff" d="M544.11,-222.28C618.95,-215.92 731.47,-204.29 837.5,-184.04"/>
<polygon fill="#63b8ff" stroke="#63b8ff" points="838.26,-187.46 847.41,-182.12 836.92,-180.59 838.26,-187.46"/>
</g>
<!-- Node6 -->
<g id="node6" class="node">
<title>Node6</title>
<g id="a_node6"><a xlink:title=" ">
<polygon fill="#e0e0e0" stroke="#999999" points="196,-19 136,-19 136,0 196,0 196,-19"/>
<text text-anchor="middle" x="166" y="-7" font-family="Helvetica,sans-Serif" font-size="10.00">iostream</text>
</a>
</g>
</g>
<!-- Node5&#45;&gt;Node6 -->
<g id="edge5" class="edge">
<title>Node5&#45;&gt;Node6</title>
<path fill="none" stroke="#63b8ff" d="M211.27,-165.45C180.63,-159.26 146.42,-148.33 120,-129 90.63,-107.52 66.48,-86.31 85,-55 94.07,-39.68 110.49,-29.28 126.19,-22.41"/>
<polygon fill="#63b8ff" stroke="#63b8ff" points="127.81,-25.53 135.8,-18.58 125.22,-19.03 127.81,-25.53"/>
</g>
<!-- Node7 -->
<g id="node7" class="node">
<title>Node7</title>
<g id="a_node7"><a xlink:title=" ">
<polygon fill="#e0e0e0" stroke="#999999" points="138,-74 94,-74 94,-55 138,-55 138,-74"/>
<text text-anchor="middle" x="116" y="-62" font-family="Helvetica,sans-Serif" font-size="10.00">string</text>
</a>
</g>
</g>
<!-- Node5&#45;&gt;Node7 -->
<g id="edge6" class="edge">
<title>Node5&#45;&gt;Node7</title>
<path fill="none" stroke="#63b8ff" d="M211.44,-166.41C184.22,-160.3 155.32,-149.17 135,-129 123.14,-117.23 118.62,-98.39 116.93,-84.28"/>
<polygon fill="#63b8ff" stroke="#63b8ff" points="120.41,-83.88 116.1,-74.2 113.44,-84.46 120.41,-83.88"/>
</g>
<!-- Node8 -->
<g id="node8" class="node">
<title>Node8</title>
<g id="a_node8"><a xlink:title=" ">
<polygon fill="#e0e0e0" stroke="#999999" points="209.5,-129 144.5,-129 144.5,-110 209.5,-110 209.5,-129"/>
<text text-anchor="middle" x="177" y="-117" font-family="Helvetica,sans-Serif" font-size="10.00">stdexcept</text>
</a>
</g>
</g>
<!-- Node5&#45;&gt;Node8 -->
<g id="edge7" class="edge">
<title>Node5&#45;&gt;Node8</title>
<path fill="none" stroke="#63b8ff" d="M270.17,-164.98C252.39,-156.5 224.85,-143.35 204.32,-133.54"/>
<polygon fill="#63b8ff" stroke="#63b8ff" points="205.69,-130.32 195.16,-129.17 202.67,-136.64 205.69,-130.32"/>
</g>
<!-- Node5&#45;&gt;Node9 -->
<g id="edge8" class="edge">
<title>Node5&#45;&gt;Node9</title>
<path fill="none" stroke="#63b8ff" d="M289.32,-164.75C290.37,-157.8 291.87,-147.85 293.19,-139.13"/>
<polygon fill="#63b8ff" stroke="#63b8ff" points="296.67,-139.5 294.7,-129.09 289.75,-138.45 296.67,-139.5"/>
</g>
<!-- Node5&#45;&gt;Node13 -->
<g id="edge23" class="edge">
<title>Node5&#45;&gt;Node13</title>
<path fill="none" stroke="#63b8ff" d="M303.54,-164.9C327.43,-151.9 374.85,-126.96 417,-110 449.56,-96.9 487.56,-85.02 515.75,-76.84"/>
<polygon fill="#63b8ff" stroke="#63b8ff" points="517.02,-80.12 525.67,-74 515.09,-73.39 517.02,-80.12"/>
</g>
<!-- Node9&#45;&gt;Node6 -->
<g id="edge9" class="edge">
<title>Node9&#45;&gt;Node6</title>
<path fill="none" stroke="#63b8ff" d="M275.54,-109.88C258.49,-102.08 234.15,-89.46 216,-74 200.21,-60.54 185.98,-41.44 176.77,-27.71"/>
<polygon fill="#63b8ff" stroke="#63b8ff" points="179.63,-25.68 171.25,-19.2 173.75,-29.49 179.63,-25.68"/>
</g>
<!-- Node9&#45;&gt;Node7 -->
<g id="edge12" class="edge">
<title>Node9&#45;&gt;Node7</title>
<path fill="none" stroke="#63b8ff" d="M267.08,-109.98C234.48,-100.39 181.63,-84.82 147.86,-74.88"/>
<polygon fill="#63b8ff" stroke="#63b8ff" points="148.62,-71.46 138.04,-71.99 146.64,-78.17 148.62,-71.46"/>
</g>
<!-- Node10 -->
<g id="node10" class="node">
<title>Node10</title>
<g id="a_node10"><a xlink:title=" ">
<polygon fill="#e0e0e0" stroke="#999999" points="321,-19 265,-19 265,0 321,0 321,-19"/>
<text text-anchor="middle" x="293" y="-7" font-family="Helvetica,sans-Serif" font-size="10.00">sstream</text>
</a>
</g>
</g>
<!-- Node9&#45;&gt;Node10 -->
<g id="edge10" class="edge">
<title>Node9&#45;&gt;Node10</title>
<path fill="none" stroke="#63b8ff" d="M269.43,-109.94C252.87,-103.06 232.88,-91.6 223,-74 211.01,-52.66 236.77,-34.62 260.35,-23.29"/>
<polygon fill="#63b8ff" stroke="#63b8ff" points="261.87,-26.45 269.54,-19.14 258.98,-20.07 261.87,-26.45"/>
</g>
<!-- Node11 -->
<g id="node11" class="node">
<title>Node11</title>
<g id="a_node11"><a xlink:title=" ">
<polygon fill="#e0e0e0" stroke="#999999" points="297.5,-74 232.5,-74 232.5,-55 297.5,-55 297.5,-74"/>
<text text-anchor="middle" x="265" y="-62" font-family="Helvetica,sans-Serif" font-size="10.00">functional</text>
</a>
</g>
</g>
<!-- Node9&#45;&gt;Node11 -->
<g id="edge11" class="edge">
<title>Node9&#45;&gt;Node11</title>
<path fill="none" stroke="#63b8ff" d="M290.88,-109.75C286.64,-102.49 280.47,-91.95 275.22,-82.98"/>
<polygon fill="#63b8ff" stroke="#63b8ff" points="278.09,-80.95 270.02,-74.09 272.05,-84.49 278.09,-80.95"/>
</g>
<!-- Node12 -->
<g id="node12" class="node">
<title>Node12</title>
<g id="a_node12"><a xlink:title=" ">
<polygon fill="#e0e0e0" stroke="#999999" points="380.5,-74 315.5,-74 315.5,-55 380.5,-55 380.5,-74"/>
<text text-anchor="middle" x="348" y="-62" font-family="Helvetica,sans-Serif" font-size="10.00">exception</text>
</a>
</g>
</g>
<!-- Node9&#45;&gt;Node12 -->
<g id="edge13" class="edge">
<title>Node9&#45;&gt;Node12</title>
<path fill="none" stroke="#63b8ff" d="M304.59,-109.75C312.16,-102.03 323.38,-90.6 332.51,-81.28"/>
<polygon fill="#63b8ff" stroke="#63b8ff" points="335.07,-83.68 339.57,-74.09 330.07,-78.78 335.07,-83.68"/>
</g>
<!-- Node9&#45;&gt;Node13 -->
<g id="edge14" class="edge">
<title>Node9&#45;&gt;Node13</title>
<path fill="none" stroke="#63b8ff" d="M337.93,-109.98C383.27,-100.78 455.61,-86.09 504.65,-76.13"/>
<polygon fill="#63b8ff" stroke="#63b8ff" points="505.63,-79.5 514.74,-74.08 504.24,-72.64 505.63,-79.5"/>
</g>
<!-- Node19 -->
<g id="node19" class="node">
<title>Node19</title>
<g id="a_node19"><a xlink:title=" ">
<polygon fill="#e0e0e0" stroke="#999999" points="491.5,-74 398.5,-74 398.5,-55 491.5,-55 491.5,-74"/>
<text text-anchor="middle" x="445" y="-62" font-family="Helvetica,sans-Serif" font-size="10.00">spdlog/spdlog.h</text>
</a>
</g>
</g>
<!-- Node9&#45;&gt;Node19 -->
<g id="edge22" class="edge">
<title>Node9&#45;&gt;Node19</title>
<path fill="none" stroke="#63b8ff" d="M319.94,-109.98C344.56,-101.23 383.12,-87.51 410.92,-77.62"/>
<polygon fill="#63b8ff" stroke="#63b8ff" points="412.38,-80.82 420.62,-74.17 410.03,-74.22 412.38,-80.82"/>
</g>
<!-- Node13&#45;&gt;Node6 -->
<g id="edge17" class="edge">
<title>Node13&#45;&gt;Node6</title>
<path fill="none" stroke="#63b8ff" d="M509.96,-56.29C506.93,-55.85 503.92,-55.42 501,-55 394.75,-39.88 269.3,-23.65 206.34,-15.61"/>
<polygon fill="#63b8ff" stroke="#63b8ff" points="206.42,-12.09 196.06,-14.3 205.53,-19.04 206.42,-12.09"/>
</g>
<!-- Node13&#45;&gt;Node10 -->
<g id="edge15" class="edge">
<title>Node13&#45;&gt;Node10</title>
<path fill="none" stroke="#63b8ff" d="M514.58,-54.98C463.83,-44.79 379.61,-27.89 330.93,-18.11"/>
<polygon fill="#63b8ff" stroke="#63b8ff" points="331.6,-14.68 321.11,-16.14 330.22,-21.54 331.6,-14.68"/>
</g>
<!-- Node14 -->
<g id="node14" class="node">
<title>Node14</title>
<g id="a_node14"><a xlink:title=" ">
<polygon fill="#e0e0e0" stroke="#999999" points="445.5,-19 390.5,-19 390.5,0 445.5,0 445.5,-19"/>
<text text-anchor="middle" x="418" y="-7" font-family="Helvetica,sans-Serif" font-size="10.00">fstream</text>
</a>
</g>
</g>
<!-- Node13&#45;&gt;Node14 -->
<g id="edge16" class="edge">
<title>Node13&#45;&gt;Node14</title>
<path fill="none" stroke="#63b8ff" d="M534.67,-54.98C511.8,-46.27 476.04,-32.63 450.14,-22.75"/>
<polygon fill="#63b8ff" stroke="#63b8ff" points="451.33,-19.46 440.74,-19.17 448.84,-26 451.33,-19.46"/>
</g>
<!-- Node15 -->
<g id="node15" class="node">
<title>Node15</title>
<g id="a_node15"><a xlink:title=" ">
<polygon fill="#e0e0e0" stroke="#999999" points="510.5,-19 463.5,-19 463.5,0 510.5,0 510.5,-19"/>
<text text-anchor="middle" x="487" y="-7" font-family="Helvetica,sans-Serif" font-size="10.00">vector</text>
</a>
</g>
</g>
<!-- Node13&#45;&gt;Node15 -->
<g id="edge18" class="edge">
<title>Node13&#45;&gt;Node15</title>
<path fill="none" stroke="#63b8ff" d="M545.75,-54.98C535.2,-47 519.2,-34.88 506.56,-25.31"/>
<polygon fill="#63b8ff" stroke="#63b8ff" points="508.54,-22.42 498.45,-19.17 504.31,-28 508.54,-22.42"/>
</g>
<!-- Node16 -->
<g id="node16" class="node">
<title>Node16</title>
<g id="a_node16"><a xlink:title=" ">
<polygon fill="#e0e0e0" stroke="#999999" points="585,-19 529,-19 529,0 585,0 585,-19"/>
<text text-anchor="middle" x="557" y="-7" font-family="Helvetica,sans-Serif" font-size="10.00">iomanip</text>
</a>
</g>
</g>
<!-- Node13&#45;&gt;Node16 -->
<g id="edge19" class="edge">
<title>Node13&#45;&gt;Node16</title>
<path fill="none" stroke="#63b8ff" d="M557,-54.75C557,-47.8 557,-37.85 557,-29.13"/>
<polygon fill="#63b8ff" stroke="#63b8ff" points="560.5,-29.09 557,-19.09 553.5,-29.09 560.5,-29.09"/>
</g>
<!-- Node17 -->
<g id="node17" class="node">
<title>Node17</title>
<g id="a_node17"><a xlink:title=" ">
<polygon fill="#e0e0e0" stroke="#999999" points="650.5,-19 603.5,-19 603.5,0 650.5,0 650.5,-19"/>
<text text-anchor="middle" x="627" y="-7" font-family="Helvetica,sans-Serif" font-size="10.00">cmath</text>
</a>
</g>
</g>
<!-- Node13&#45;&gt;Node17 -->
<g id="edge20" class="edge">
<title>Node13&#45;&gt;Node17</title>
<path fill="none" stroke="#63b8ff" d="M568.25,-54.98C578.8,-47 594.8,-34.88 607.44,-25.31"/>
<polygon fill="#63b8ff" stroke="#63b8ff" points="609.69,-28 615.55,-19.17 605.46,-22.42 609.69,-28"/>
</g>
<!-- Node18 -->
<g id="node18" class="node">
<title>Node18</title>
<g id="a_node18"><a xlink:title=" ">
<polygon fill="#e0e0e0" stroke="#999999" points="713,-19 669,-19 669,0 713,0 713,-19"/>
<text text-anchor="middle" x="691" y="-7" font-family="Helvetica,sans-Serif" font-size="10.00">limits</text>
</a>
</g>
</g>
<!-- Node13&#45;&gt;Node18 -->
<g id="edge21" class="edge">
<title>Node13&#45;&gt;Node18</title>
<path fill="none" stroke="#63b8ff" d="M578.53,-54.98C600.47,-46.3 634.74,-32.75 659.69,-22.88"/>
<polygon fill="#63b8ff" stroke="#63b8ff" points="661.07,-26.1 669.08,-19.17 658.49,-19.59 661.07,-26.1"/>
</g>
</g>
</svg>
