<?xml version="1.0" encoding="UTF-8" standalone="no"?>
<!DOCTYPE svg PUBLIC "-//W3C//DTD SVG 1.1//EN"
 "http://www.w3.org/Graphics/SVG/1.1/DTD/svg11.dtd">
<!-- Generated by graphviz version 2.43.0 (0)
 -->
<!-- Title: Plotting/plottingUtils/plottingUtils.h Pages: 1 -->
<svg width="2144pt" height="258pt"
 viewBox="0.00 0.00 2144.00 258.00" xmlns="http://www.w3.org/2000/svg" xmlns:xlink="http://www.w3.org/1999/xlink">
<g id="graph0" class="graph" transform="scale(1 1) rotate(0) translate(4 254)">
<title>Plotting/plottingUtils/plottingUtils.h</title>
<!-- Node1 -->
<g id="node1" class="node">
<title>Node1</title>
<g id="a_node1"><a xlink:title=" ">
<polygon fill="#999999" stroke="#666666" points="1279.5,-250 1162.5,-250 1162.5,-220 1279.5,-220 1279.5,-250"/>
<text text-anchor="start" x="1170.5" y="-238" font-family="Helvetica,sans-Serif" font-size="10.00">Plotting/plottingUtils</text>
<text text-anchor="middle" x="1221" y="-227" font-family="Helvetica,sans-Serif" font-size="10.00">/plottingUtils.h</text>
</a>
</g>
</g>
<!-- Node2 -->
<g id="node2" class="node">
<title>Node2</title>
<g id="a_node2"><a xlink:href="MaCh3Logger_8h.html" target="_top" xlink:title="KS: Based on this https://github.com/gabime/spdlog/blob/a2b4262090fd3f005c2315dcb5be2f0f1774a005/incl...">
<polygon fill="white" stroke="#666666" points="382.5,-129 245.5,-129 245.5,-110 382.5,-110 382.5,-129"/>
<text text-anchor="middle" x="314" y="-117" font-family="Helvetica,sans-Serif" font-size="10.00">Manager/MaCh3Logger.h</text>
</a>
</g>
</g>
<!-- Node1&#45;&gt;Node2 -->
<g id="edge1" class="edge">
<title>Node1&#45;&gt;Node2</title>
<path fill="none" stroke="#63b8ff" d="M1162.29,-233.45C979.89,-231.34 431.05,-221.89 361,-184 342.77,-174.14 329.68,-153.79 322.02,-138.77"/>
<polygon fill="#63b8ff" stroke="#63b8ff" points="325.04,-136.96 317.59,-129.42 318.71,-139.96 325.04,-136.96"/>
</g>
<!-- Node3 -->
<g id="node3" class="node">
<title>Node3</title>
<g id="a_node3"><a xlink:title=" ">
<polygon fill="#e0e0e0" stroke="#999999" points="60,-19 0,-19 0,0 60,0 60,-19"/>
<text text-anchor="middle" x="30" y="-7" font-family="Helvetica,sans-Serif" font-size="10.00">iostream</text>
</a>
</g>
</g>
<!-- Node1&#45;&gt;Node3 -->
<g id="edge24" class="edge">
<title>Node1&#45;&gt;Node3</title>
<path fill="none" stroke="#63b8ff" d="M1162.29,-234.52C1019.67,-234.94 643.99,-231.08 335,-184 235.79,-168.88 207.92,-169.27 116,-129 75.13,-111.09 53.83,-112.92 32,-74 24.41,-60.47 24.56,-42.65 26.23,-29.33"/>
<polygon fill="#63b8ff" stroke="#63b8ff" points="29.69,-29.82 27.86,-19.39 22.79,-28.69 29.69,-29.82"/>
</g>
<!-- Node11 -->
<g id="node11" class="node">
<title>Node11</title>
<g id="a_node11"><a xlink:title=" ">
<polygon fill="#e0e0e0" stroke="#999999" points="641,-19 585,-19 585,0 641,0 641,-19"/>
<text text-anchor="middle" x="613" y="-7" font-family="Helvetica,sans-Serif" font-size="10.00">iomanip</text>
</a>
</g>
</g>
<!-- Node1&#45;&gt;Node11 -->
<g id="edge23" class="edge">
<title>Node1&#45;&gt;Node11</title>
<path fill="none" stroke="#63b8ff" d="M1162.33,-233.73C1014.17,-232.44 633.96,-225.12 596,-184 556.01,-140.69 586.71,-62.85 603.69,-28.09"/>
<polygon fill="#63b8ff" stroke="#63b8ff" points="606.83,-29.64 608.23,-19.13 600.58,-26.47 606.83,-29.64"/>
</g>
<!-- Node15 -->
<g id="node15" class="node">
<title>Node15</title>
<g id="a_node15"><a xlink:href="MaCh3Exception_8h.html" target="_top" xlink:title=" ">
<polygon fill="white" stroke="#666666" points="522.5,-184 369.5,-184 369.5,-165 522.5,-165 522.5,-184"/>
<text text-anchor="middle" x="446" y="-172" font-family="Helvetica,sans-Serif" font-size="10.00">Manager/MaCh3Exception.h</text>
</a>
</g>
</g>
<!-- Node1&#45;&gt;Node15 -->
<g id="edge16" class="edge">
<title>Node1&#45;&gt;Node15</title>
<path fill="none" stroke="#63b8ff" d="M1162.43,-229.58C1027.08,-219.36 692.04,-194.07 532.77,-182.05"/>
<polygon fill="#63b8ff" stroke="#63b8ff" points="532.78,-178.54 522.54,-181.28 532.25,-185.52 532.78,-178.54"/>
</g>
<!-- Node17 -->
<g id="node17" class="node">
<title>Node17</title>
<g id="a_node17"><a xlink:title=" ">
<polygon fill="#e0e0e0" stroke="#999999" points="669,-184 605,-184 605,-165 669,-165 669,-184"/>
<text text-anchor="middle" x="637" y="-172" font-family="Helvetica,sans-Serif" font-size="10.00">algorithm</text>
</a>
</g>
</g>
<!-- Node1&#45;&gt;Node17 -->
<g id="edge22" class="edge">
<title>Node1&#45;&gt;Node17</title>
<path fill="none" stroke="#63b8ff" d="M1162.48,-230.78C1064.48,-224.91 860.86,-210.69 679.17,-184.01"/>
<polygon fill="#63b8ff" stroke="#63b8ff" points="679.57,-180.53 669.17,-182.53 678.55,-187.46 679.57,-180.53"/>
</g>
<!-- Node18 -->
<g id="node18" class="node">
<title>Node18</title>
<g id="a_node18"><a xlink:title=" ">
<polygon fill="#e0e0e0" stroke="#999999" points="725,-184 687,-184 687,-165 725,-165 725,-184"/>
<text text-anchor="middle" x="706" y="-172" font-family="Helvetica,sans-Serif" font-size="10.00">map</text>
</a>
</g>
</g>
<!-- Node1&#45;&gt;Node18 -->
<g id="edge25" class="edge">
<title>Node1&#45;&gt;Node18</title>
<path fill="none" stroke="#63b8ff" d="M1162.14,-231.41C1070.21,-226.6 887.31,-213.9 735,-184 734.9,-183.98 734.8,-183.96 734.7,-183.94"/>
<polygon fill="#63b8ff" stroke="#63b8ff" points="735.76,-180.6 725.22,-181.67 734.13,-187.4 735.76,-180.6"/>
</g>
<!-- Node19 -->
<g id="node19" class="node">
<title>Node19</title>
<g id="a_node19"><a xlink:title=" ">
<polygon fill="#e0e0e0" stroke="#999999" points="810.5,-184 743.5,-184 743.5,-165 810.5,-165 810.5,-184"/>
<text text-anchor="middle" x="777" y="-172" font-family="Helvetica,sans-Serif" font-size="10.00">TCanvas.h</text>
</a>
</g>
</g>
<!-- Node1&#45;&gt;Node19 -->
<g id="edge26" class="edge">
<title>Node1&#45;&gt;Node19</title>
<path fill="none" stroke="#63b8ff" d="M1162.37,-228.01C1086.08,-219.92 948.43,-204.33 820.72,-184.01"/>
<polygon fill="#63b8ff" stroke="#63b8ff" points="821.19,-180.54 810.76,-182.41 820.08,-187.45 821.19,-180.54"/>
</g>
<!-- Node20 -->
<g id="node20" class="node">
<title>Node20</title>
<g id="a_node20"><a xlink:title=" ">
<polygon fill="#e0e0e0" stroke="#999999" points="903,-184 829,-184 829,-165 903,-165 903,-184"/>
<text text-anchor="middle" x="866" y="-172" font-family="Helvetica,sans-Serif" font-size="10.00">TGraph2D.h</text>
</a>
</g>
</g>
<!-- Node1&#45;&gt;Node20 -->
<g id="edge27" class="edge">
<title>Node1&#45;&gt;Node20</title>
<path fill="none" stroke="#63b8ff" d="M1162.27,-224.9C1102.25,-215.5 1006.07,-200.2 913.27,-184.19"/>
<polygon fill="#63b8ff" stroke="#63b8ff" points="913.59,-180.69 903.14,-182.44 912.4,-187.59 913.59,-180.69"/>
</g>
<!-- Node21 -->
<g id="node21" class="node">
<title>Node21</title>
<g id="a_node21"><a xlink:title=" ">
<polygon fill="#e0e0e0" stroke="#999999" points="977,-184 921,-184 921,-165 977,-165 977,-184"/>
<text text-anchor="middle" x="949" y="-172" font-family="Helvetica,sans-Serif" font-size="10.00">TColor.h</text>
</a>
</g>
</g>
<!-- Node1&#45;&gt;Node21 -->
<g id="edge28" class="edge">
<title>Node1&#45;&gt;Node21</title>
<path fill="none" stroke="#63b8ff" d="M1162.31,-221.62C1114.96,-211.6 1046.66,-197.05 987,-184 986.9,-183.98 986.8,-183.96 986.7,-183.93"/>
<polygon fill="#63b8ff" stroke="#63b8ff" points="987.73,-180.58 977.22,-181.84 986.23,-187.41 987.73,-180.58"/>
</g>
<!-- Node22 -->
<g id="node22" class="node">
<title>Node22</title>
<g id="a_node22"><a xlink:title=" ">
<polygon fill="#e0e0e0" stroke="#999999" points="1070.5,-184 995.5,-184 995.5,-165 1070.5,-165 1070.5,-184"/>
<text text-anchor="middle" x="1033" y="-172" font-family="Helvetica,sans-Serif" font-size="10.00">TDirectory.h</text>
</a>
</g>
</g>
<!-- Node1&#45;&gt;Node22 -->
<g id="edge29" class="edge">
<title>Node1&#45;&gt;Node22</title>
<path fill="none" stroke="#63b8ff" d="M1175.97,-219.99C1143.66,-209.94 1100.66,-196.55 1070.27,-187.1"/>
<polygon fill="#63b8ff" stroke="#63b8ff" points="1071.08,-183.68 1060.49,-184.05 1069,-190.37 1071.08,-183.68"/>
</g>
<!-- Node23 -->
<g id="node23" class="node">
<title>Node23</title>
<g id="a_node23"><a xlink:title=" ">
<polygon fill="#e0e0e0" stroke="#999999" points="1137.5,-184 1088.5,-184 1088.5,-165 1137.5,-165 1137.5,-184"/>
<text text-anchor="middle" x="1113" y="-172" font-family="Helvetica,sans-Serif" font-size="10.00">TFile.h</text>
</a>
</g>
</g>
<!-- Node1&#45;&gt;Node23 -->
<g id="edge30" class="edge">
<title>Node1&#45;&gt;Node23</title>
<path fill="none" stroke="#63b8ff" d="M1195.13,-219.99C1177.76,-210.58 1154.99,-198.24 1137.83,-188.95"/>
<polygon fill="#63b8ff" stroke="#63b8ff" points="1139.41,-185.82 1128.95,-184.14 1136.08,-191.98 1139.41,-185.82"/>
</g>
<!-- Node24 -->
<g id="node24" class="node">
<title>Node24</title>
<g id="a_node24"><a xlink:title=" ">
<polygon fill="#e0e0e0" stroke="#999999" points="1216.5,-184 1155.5,-184 1155.5,-165 1216.5,-165 1216.5,-184"/>
<text text-anchor="middle" x="1186" y="-172" font-family="Helvetica,sans-Serif" font-size="10.00">TGraph.h</text>
</a>
</g>
</g>
<!-- Node1&#45;&gt;Node24 -->
<g id="edge31" class="edge">
<title>Node1&#45;&gt;Node24</title>
<path fill="none" stroke="#63b8ff" d="M1212.53,-219.84C1207.71,-211.78 1201.63,-201.62 1196.5,-193.06"/>
<polygon fill="#63b8ff" stroke="#63b8ff" points="1199.38,-191.05 1191.24,-184.27 1193.38,-194.64 1199.38,-191.05"/>
</g>
<!-- Node25 -->
<g id="node25" class="node">
<title>Node25</title>
<g id="a_node25"><a xlink:title=" ">
<polygon fill="#e0e0e0" stroke="#999999" points="1279.5,-184 1234.5,-184 1234.5,-165 1279.5,-165 1279.5,-184"/>
<text text-anchor="middle" x="1257" y="-172" font-family="Helvetica,sans-Serif" font-size="10.00">TH1.h</text>
</a>
</g>
</g>
<!-- Node1&#45;&gt;Node25 -->
<g id="edge32" class="edge">
<title>Node1&#45;&gt;Node25</title>
<path fill="none" stroke="#63b8ff" d="M1229.71,-219.84C1234.67,-211.78 1240.93,-201.62 1246.2,-193.06"/>
<polygon fill="#63b8ff" stroke="#63b8ff" points="1249.35,-194.62 1251.61,-184.27 1243.38,-190.95 1249.35,-194.62"/>
</g>
<!-- Node26 -->
<g id="node26" class="node">
<title>Node26</title>
<g id="a_node26"><a xlink:title=" ">
<polygon fill="#e0e0e0" stroke="#999999" points="1350.5,-184 1297.5,-184 1297.5,-165 1350.5,-165 1350.5,-184"/>
<text text-anchor="middle" x="1324" y="-172" font-family="Helvetica,sans-Serif" font-size="10.00">TH1D.h</text>
</a>
</g>
</g>
<!-- Node1&#45;&gt;Node26 -->
<g id="edge33" class="edge">
<title>Node1&#45;&gt;Node26</title>
<path fill="none" stroke="#63b8ff" d="M1245.67,-219.99C1262.09,-210.66 1283.55,-198.47 1299.86,-189.21"/>
<polygon fill="#63b8ff" stroke="#63b8ff" points="1301.82,-192.12 1308.79,-184.14 1298.37,-186.03 1301.82,-192.12"/>
</g>
<!-- Node27 -->
<g id="node27" class="node">
<title>Node27</title>
<g id="a_node27"><a xlink:title=" ">
<polygon fill="#e0e0e0" stroke="#999999" points="1413.5,-184 1368.5,-184 1368.5,-165 1413.5,-165 1413.5,-184"/>
<text text-anchor="middle" x="1391" y="-172" font-family="Helvetica,sans-Serif" font-size="10.00">TH2.h</text>
</a>
</g>
</g>
<!-- Node1&#45;&gt;Node27 -->
<g id="edge34" class="edge">
<title>Node1&#45;&gt;Node27</title>
<path fill="none" stroke="#63b8ff" d="M1261.72,-219.99C1291.46,-209.75 1331.25,-196.06 1358.79,-186.58"/>
<polygon fill="#63b8ff" stroke="#63b8ff" points="1360.02,-189.86 1368.34,-183.3 1357.75,-183.24 1360.02,-189.86"/>
</g>
<!-- Node28 -->
<g id="node28" class="node">
<title>Node28</title>
<g id="a_node28"><a xlink:title=" ">
<polygon fill="#e0e0e0" stroke="#999999" points="1496.5,-184 1431.5,-184 1431.5,-165 1496.5,-165 1496.5,-184"/>
<text text-anchor="middle" x="1464" y="-172" font-family="Helvetica,sans-Serif" font-size="10.00">TH2Poly.h</text>
</a>
</g>
</g>
<!-- Node1&#45;&gt;Node28 -->
<g id="edge35" class="edge">
<title>Node1&#45;&gt;Node28</title>
<path fill="none" stroke="#63b8ff" d="M1279.2,-219.99C1322.99,-209.45 1382,-195.24 1421.43,-185.75"/>
<polygon fill="#63b8ff" stroke="#63b8ff" points="1422.36,-189.12 1431.27,-183.38 1420.72,-182.32 1422.36,-189.12"/>
</g>
<!-- Node29 -->
<g id="node29" class="node">
<title>Node29</title>
<g id="a_node29"><a xlink:title=" ">
<polygon fill="#e0e0e0" stroke="#999999" points="1581,-184 1515,-184 1515,-165 1581,-165 1581,-184"/>
<text text-anchor="middle" x="1548" y="-172" font-family="Helvetica,sans-Serif" font-size="10.00">THStack.h</text>
</a>
</g>
</g>
<!-- Node1&#45;&gt;Node29 -->
<g id="edge36" class="edge">
<title>Node1&#45;&gt;Node29</title>
<path fill="none" stroke="#63b8ff" d="M1279.76,-224.15C1335.24,-214.75 1421.04,-199.94 1504.63,-184.22"/>
<polygon fill="#63b8ff" stroke="#63b8ff" points="1505.37,-187.65 1514.54,-182.35 1504.07,-180.77 1505.37,-187.65"/>
</g>
<!-- Node30 -->
<g id="node30" class="node">
<title>Node30</title>
<g id="a_node30"><a xlink:title=" ">
<polygon fill="#e0e0e0" stroke="#999999" points="1647,-184 1599,-184 1599,-165 1647,-165 1647,-184"/>
<text text-anchor="middle" x="1623" y="-172" font-family="Helvetica,sans-Serif" font-size="10.00">TKey.h</text>
</a>
</g>
</g>
<!-- Node1&#45;&gt;Node30 -->
<g id="edge37" class="edge">
<title>Node1&#45;&gt;Node30</title>
<path fill="none" stroke="#63b8ff" d="M1279.51,-228.22C1350.5,-220.72 1473.95,-206.16 1588.9,-184.01"/>
<polygon fill="#63b8ff" stroke="#63b8ff" points="1589.78,-187.4 1598.92,-182.05 1588.44,-180.53 1589.78,-187.4"/>
</g>
<!-- Node31 -->
<g id="node31" class="node">
<title>Node31</title>
<g id="a_node31"><a xlink:title=" ">
<polygon fill="#e0e0e0" stroke="#999999" points="1724.5,-184 1665.5,-184 1665.5,-165 1724.5,-165 1724.5,-184"/>
<text text-anchor="middle" x="1695" y="-172" font-family="Helvetica,sans-Serif" font-size="10.00">TLatex.h</text>
</a>
</g>
</g>
<!-- Node1&#45;&gt;Node31 -->
<g id="edge38" class="edge">
<title>Node1&#45;&gt;Node31</title>
<path fill="none" stroke="#63b8ff" d="M1279.66,-229.14C1361.5,-221.94 1514.74,-206.95 1655.16,-183.97"/>
<polygon fill="#63b8ff" stroke="#63b8ff" points="1655.95,-187.39 1665.25,-182.31 1654.81,-180.48 1655.95,-187.39"/>
</g>
<!-- Node32 -->
<g id="node32" class="node">
<title>Node32</title>
<g id="a_node32"><a xlink:title=" ">
<polygon fill="#e0e0e0" stroke="#999999" points="1809.5,-184 1742.5,-184 1742.5,-165 1809.5,-165 1809.5,-184"/>
<text text-anchor="middle" x="1776" y="-172" font-family="Helvetica,sans-Serif" font-size="10.00">TLegend.h</text>
</a>
</g>
</g>
<!-- Node1&#45;&gt;Node32 -->
<g id="edge39" class="edge">
<title>Node1&#45;&gt;Node32</title>
<path fill="none" stroke="#63b8ff" d="M1279.71,-230.24C1373.41,-223.82 1562.69,-209.07 1732.03,-184.17"/>
<polygon fill="#63b8ff" stroke="#63b8ff" points="1732.75,-187.6 1742.13,-182.67 1731.72,-180.67 1732.75,-187.6"/>
</g>
<!-- Node33 -->
<g id="node33" class="node">
<title>Node33</title>
<g id="a_node33"><a xlink:title=" ">
<polygon fill="#e0e0e0" stroke="#999999" points="1880,-184 1828,-184 1828,-165 1880,-165 1880,-184"/>
<text text-anchor="middle" x="1854" y="-172" font-family="Helvetica,sans-Serif" font-size="10.00">TLine.h</text>
</a>
</g>
</g>
<!-- Node1&#45;&gt;Node33 -->
<g id="edge40" class="edge">
<title>Node1&#45;&gt;Node33</title>
<path fill="none" stroke="#63b8ff" d="M1279.51,-232.11C1385.26,-228.05 1615.27,-216.21 1817.79,-183.95"/>
<polygon fill="#63b8ff" stroke="#63b8ff" points="1818.4,-187.39 1827.72,-182.35 1817.29,-180.48 1818.4,-187.39"/>
</g>
<!-- Node34 -->
<g id="node34" class="node">
<title>Node34</title>
<g id="a_node34"><a xlink:title=" ">
<polygon fill="#e0e0e0" stroke="#999999" points="1957.5,-184 1898.5,-184 1898.5,-165 1957.5,-165 1957.5,-184"/>
<text text-anchor="middle" x="1928" y="-172" font-family="Helvetica,sans-Serif" font-size="10.00">TROOT.h</text>
</a>
</g>
</g>
<!-- Node1&#45;&gt;Node34 -->
<g id="edge41" class="edge">
<title>Node1&#45;&gt;Node34</title>
<path fill="none" stroke="#63b8ff" d="M1279.83,-232.36C1394.9,-228.55 1657.87,-216.9 1888.36,-183.87"/>
<polygon fill="#63b8ff" stroke="#63b8ff" points="1888.87,-187.33 1898.27,-182.43 1887.87,-180.4 1888.87,-187.33"/>
</g>
<!-- Node35 -->
<g id="node35" class="node">
<title>Node35</title>
<g id="a_node35"><a xlink:title=" ">
<polygon fill="#e0e0e0" stroke="#999999" points="2032,-184 1976,-184 1976,-165 2032,-165 2032,-184"/>
<text text-anchor="middle" x="2004" y="-172" font-family="Helvetica,sans-Serif" font-size="10.00">TStyle.h</text>
</a>
</g>
</g>
<!-- Node1&#45;&gt;Node35 -->
<g id="edge42" class="edge">
<title>Node1&#45;&gt;Node35</title>
<path fill="none" stroke="#63b8ff" d="M1279.85,-233.23C1404.7,-230.9 1705.3,-221.68 1965.78,-183.93"/>
<polygon fill="#63b8ff" stroke="#63b8ff" points="1966.42,-187.38 1975.81,-182.46 1965.4,-180.45 1966.42,-187.38"/>
</g>
<!-- Node36 -->
<g id="node36" class="node">
<title>Node36</title>
<g id="a_node36"><a xlink:title=" ">
<polygon fill="#e0e0e0" stroke="#999999" points="2136,-184 2050,-184 2050,-165 2136,-165 2136,-184"/>
<text text-anchor="middle" x="2093" y="-172" font-family="Helvetica,sans-Serif" font-size="10.00">TMultiGraph.h</text>
</a>
</g>
</g>
<!-- Node1&#45;&gt;Node36 -->
<g id="edge43" class="edge">
<title>Node1&#45;&gt;Node36</title>
<path fill="none" stroke="#63b8ff" d="M1279.59,-232.46C1412.78,-228.52 1748.64,-216.12 2039.59,-184.04"/>
<polygon fill="#63b8ff" stroke="#63b8ff" points="2040.36,-187.47 2049.92,-182.89 2039.59,-180.51 2040.36,-187.47"/>
</g>
<!-- Node2&#45;&gt;Node3 -->
<g id="edge2" class="edge">
<title>Node2&#45;&gt;Node3</title>
<path fill="none" stroke="#63b8ff" d="M245.25,-112.44C182.74,-105.81 96.11,-93.45 68,-74 52.19,-63.06 41.87,-43.21 36.04,-28.6"/>
<polygon fill="#63b8ff" stroke="#63b8ff" points="39.28,-27.29 32.56,-19.1 32.71,-29.69 39.28,-27.29"/>
</g>
<!-- Node4 -->
<g id="node4" class="node">
<title>Node4</title>
<g id="a_node4"><a xlink:title=" ">
<polygon fill="#e0e0e0" stroke="#999999" points="300,-19 244,-19 244,0 300,0 300,-19"/>
<text text-anchor="middle" x="272" y="-7" font-family="Helvetica,sans-Serif" font-size="10.00">sstream</text>
</a>
</g>
</g>
<!-- Node2&#45;&gt;Node4 -->
<g id="edge3" class="edge">
<title>Node2&#45;&gt;Node4</title>
<path fill="none" stroke="#63b8ff" d="M324.11,-109.73C337.12,-97.36 356.82,-74.13 346,-55 337.83,-40.55 322.88,-30.27 308.54,-23.26"/>
<polygon fill="#63b8ff" stroke="#63b8ff" points="309.85,-20.01 299.29,-19.12 306.99,-26.4 309.85,-20.01"/>
</g>
<!-- Node5 -->
<g id="node5" class="node">
<title>Node5</title>
<g id="a_node5"><a xlink:title=" ">
<polygon fill="#e0e0e0" stroke="#999999" points="336.5,-74 271.5,-74 271.5,-55 336.5,-55 336.5,-74"/>
<text text-anchor="middle" x="304" y="-62" font-family="Helvetica,sans-Serif" font-size="10.00">functional</text>
</a>
</g>
</g>
<!-- Node2&#45;&gt;Node5 -->
<g id="edge4" class="edge">
<title>Node2&#45;&gt;Node5</title>
<path fill="none" stroke="#63b8ff" d="M312.35,-109.75C311.04,-102.8 309.16,-92.85 307.52,-84.13"/>
<polygon fill="#63b8ff" stroke="#63b8ff" points="310.91,-83.27 305.62,-74.09 304.04,-84.56 310.91,-83.27"/>
</g>
<!-- Node6 -->
<g id="node6" class="node">
<title>Node6</title>
<g id="a_node6"><a xlink:title=" ">
<polygon fill="#e0e0e0" stroke="#999999" points="549,-74 505,-74 505,-55 549,-55 549,-74"/>
<text text-anchor="middle" x="527" y="-62" font-family="Helvetica,sans-Serif" font-size="10.00">string</text>
</a>
</g>
</g>
<!-- Node2&#45;&gt;Node6 -->
<g id="edge5" class="edge">
<title>Node2&#45;&gt;Node6</title>
<path fill="none" stroke="#63b8ff" d="M350.33,-109.93C385.04,-101.68 439.06,-88.64 494.64,-74.3"/>
<polygon fill="#63b8ff" stroke="#63b8ff" points="495.87,-77.6 504.67,-71.7 494.11,-70.82 495.87,-77.6"/>
</g>
<!-- Node7 -->
<g id="node7" class="node">
<title>Node7</title>
<g id="a_node7"><a xlink:title=" ">
<polygon fill="#e0e0e0" stroke="#999999" points="142.5,-74 77.5,-74 77.5,-55 142.5,-55 142.5,-74"/>
<text text-anchor="middle" x="110" y="-62" font-family="Helvetica,sans-Serif" font-size="10.00">exception</text>
</a>
</g>
</g>
<!-- Node2&#45;&gt;Node7 -->
<g id="edge6" class="edge">
<title>Node2&#45;&gt;Node7</title>
<path fill="none" stroke="#63b8ff" d="M281.22,-109.98C246.28,-100.91 190.81,-86.49 152.52,-76.55"/>
<polygon fill="#63b8ff" stroke="#63b8ff" points="153.25,-73.12 142.69,-73.99 151.49,-79.9 153.25,-73.12"/>
</g>
<!-- Node8 -->
<g id="node8" class="node">
<title>Node8</title>
<g id="a_node8"><a xlink:href="Core_8h.html" target="_top" xlink:title=" ">
<polygon fill="white" stroke="#666666" points="487,-74 393,-74 393,-55 487,-55 487,-74"/>
<text text-anchor="middle" x="440" y="-62" font-family="Helvetica,sans-Serif" font-size="10.00">Manager/Core.h</text>
</a>
</g>
</g>
<!-- Node2&#45;&gt;Node8 -->
<g id="edge7" class="edge">
<title>Node2&#45;&gt;Node8</title>
<path fill="none" stroke="#63b8ff" d="M334.24,-109.98C354.7,-101.38 386.53,-87.99 409.93,-78.15"/>
<polygon fill="#63b8ff" stroke="#63b8ff" points="411.53,-81.27 419.39,-74.17 408.81,-74.82 411.53,-81.27"/>
</g>
<!-- Node14 -->
<g id="node14" class="node">
<title>Node14</title>
<g id="a_node14"><a xlink:title=" ">
<polygon fill="#e0e0e0" stroke="#999999" points="253.5,-74 160.5,-74 160.5,-55 253.5,-55 253.5,-74"/>
<text text-anchor="middle" x="207" y="-62" font-family="Helvetica,sans-Serif" font-size="10.00">spdlog/spdlog.h</text>
</a>
</g>
</g>
<!-- Node2&#45;&gt;Node14 -->
<g id="edge15" class="edge">
<title>Node2&#45;&gt;Node14</title>
<path fill="none" stroke="#63b8ff" d="M296.81,-109.98C279.75,-101.54 253.37,-88.47 233.6,-78.68"/>
<polygon fill="#63b8ff" stroke="#63b8ff" points="235.02,-75.47 224.5,-74.17 231.91,-81.75 235.02,-75.47"/>
</g>
<!-- Node8&#45;&gt;Node3 -->
<g id="edge10" class="edge">
<title>Node8&#45;&gt;Node3</title>
<path fill="none" stroke="#63b8ff" d="M392.97,-57.42C311.71,-46.92 146.42,-25.55 70.18,-15.69"/>
<polygon fill="#63b8ff" stroke="#63b8ff" points="70.4,-12.19 60.03,-14.38 69.5,-19.14 70.4,-12.19"/>
</g>
<!-- Node8&#45;&gt;Node4 -->
<g id="edge8" class="edge">
<title>Node8&#45;&gt;Node4</title>
<path fill="none" stroke="#63b8ff" d="M413.01,-54.98C384.8,-46.09 340.36,-32.07 308.92,-22.15"/>
<polygon fill="#63b8ff" stroke="#63b8ff" points="309.79,-18.75 299.2,-19.08 307.69,-25.43 309.79,-18.75"/>
</g>
<!-- Node9 -->
<g id="node9" class="node">
<title>Node9</title>
<g id="a_node9"><a xlink:title=" ">
<polygon fill="#e0e0e0" stroke="#999999" points="501.5,-19 446.5,-19 446.5,0 501.5,0 501.5,-19"/>
<text text-anchor="middle" x="474" y="-7" font-family="Helvetica,sans-Serif" font-size="10.00">fstream</text>
</a>
</g>
</g>
<!-- Node8&#45;&gt;Node9 -->
<g id="edge9" class="edge">
<title>Node8&#45;&gt;Node9</title>
<path fill="none" stroke="#63b8ff" d="M445.61,-54.75C450.32,-47.42 457.17,-36.73 462.97,-27.7"/>
<polygon fill="#63b8ff" stroke="#63b8ff" points="466.04,-29.4 468.49,-19.09 460.14,-25.62 466.04,-29.4"/>
</g>
<!-- Node10 -->
<g id="node10" class="node">
<title>Node10</title>
<g id="a_node10"><a xlink:title=" ">
<polygon fill="#e0e0e0" stroke="#999999" points="566.5,-19 519.5,-19 519.5,0 566.5,0 566.5,-19"/>
<text text-anchor="middle" x="543" y="-7" font-family="Helvetica,sans-Serif" font-size="10.00">vector</text>
</a>
</g>
</g>
<!-- Node8&#45;&gt;Node10 -->
<g id="edge11" class="edge">
<title>Node8&#45;&gt;Node10</title>
<path fill="none" stroke="#63b8ff" d="M456.55,-54.98C472.89,-46.57 498.13,-33.59 517.13,-23.81"/>
<polygon fill="#63b8ff" stroke="#63b8ff" points="518.86,-26.86 526.15,-19.17 515.66,-20.63 518.86,-26.86"/>
</g>
<!-- Node8&#45;&gt;Node11 -->
<g id="edge12" class="edge">
<title>Node8&#45;&gt;Node11</title>
<path fill="none" stroke="#63b8ff" d="M467.8,-54.98C496.97,-46.05 543,-31.94 575.4,-22.02"/>
<polygon fill="#63b8ff" stroke="#63b8ff" points="576.45,-25.36 584.99,-19.08 574.4,-18.66 576.45,-25.36"/>
</g>
<!-- Node12 -->
<g id="node12" class="node">
<title>Node12</title>
<g id="a_node12"><a xlink:title=" ">
<polygon fill="#e0e0e0" stroke="#999999" points="365.5,-19 318.5,-19 318.5,0 365.5,0 365.5,-19"/>
<text text-anchor="middle" x="342" y="-7" font-family="Helvetica,sans-Serif" font-size="10.00">cmath</text>
</a>
</g>
</g>
<!-- Node8&#45;&gt;Node12 -->
<g id="edge13" class="edge">
<title>Node8&#45;&gt;Node12</title>
<path fill="none" stroke="#63b8ff" d="M424.25,-54.98C408.77,-46.61 384.91,-33.7 366.86,-23.95"/>
<polygon fill="#63b8ff" stroke="#63b8ff" points="368.49,-20.85 358.03,-19.17 365.16,-27.01 368.49,-20.85"/>
</g>
<!-- Node13 -->
<g id="node13" class="node">
<title>Node13</title>
<g id="a_node13"><a xlink:title=" ">
<polygon fill="#e0e0e0" stroke="#999999" points="428,-19 384,-19 384,0 428,0 428,-19"/>
<text text-anchor="middle" x="406" y="-7" font-family="Helvetica,sans-Serif" font-size="10.00">limits</text>
</a>
</g>
</g>
<!-- Node8&#45;&gt;Node13 -->
<g id="edge14" class="edge">
<title>Node8&#45;&gt;Node13</title>
<path fill="none" stroke="#63b8ff" d="M434.39,-54.75C429.68,-47.42 422.83,-36.73 417.03,-27.7"/>
<polygon fill="#63b8ff" stroke="#63b8ff" points="419.86,-25.62 411.51,-19.09 413.96,-29.4 419.86,-25.62"/>
</g>
<!-- Node15&#45;&gt;Node2 -->
<g id="edge20" class="edge">
<title>Node15&#45;&gt;Node2</title>
<path fill="none" stroke="#63b8ff" d="M424.79,-164.98C403.27,-156.34 369.72,-142.87 345.17,-133.02"/>
<polygon fill="#63b8ff" stroke="#63b8ff" points="346.18,-129.65 335.59,-129.17 343.57,-136.14 346.18,-129.65"/>
</g>
<!-- Node15&#45;&gt;Node3 -->
<g id="edge17" class="edge">
<title>Node15&#45;&gt;Node3</title>
<path fill="none" stroke="#63b8ff" d="M376.66,-165C274.96,-151.12 92.47,-120.4 47,-74 35.4,-62.17 31.49,-43.33 30.28,-29.24"/>
<polygon fill="#63b8ff" stroke="#63b8ff" points="33.77,-29 29.79,-19.18 26.78,-29.34 33.77,-29"/>
</g>
<!-- Node15&#45;&gt;Node6 -->
<g id="edge18" class="edge">
<title>Node15&#45;&gt;Node6</title>
<path fill="none" stroke="#63b8ff" d="M467.42,-164.9C482.77,-157.62 502.66,-145.69 514,-129 522.99,-115.76 526,-97.64 526.91,-84.14"/>
<polygon fill="#63b8ff" stroke="#63b8ff" points="530.41,-84.22 527.25,-74.1 523.41,-83.98 530.41,-84.22"/>
</g>
<!-- Node15&#45;&gt;Node8 -->
<g id="edge21" class="edge">
<title>Node15&#45;&gt;Node8</title>
<path fill="none" stroke="#63b8ff" d="M442.14,-164.85C438.44,-156.04 433.11,-141.87 431,-129 428.52,-113.87 431.31,-96.65 434.42,-83.96"/>
<polygon fill="#63b8ff" stroke="#63b8ff" points="437.84,-84.72 437.11,-74.15 431.09,-82.87 437.84,-84.72"/>
</g>
<!-- Node16 -->
<g id="node16" class="node">
<title>Node16</title>
<g id="a_node16"><a xlink:title=" ">
<polygon fill="#e0e0e0" stroke="#999999" points="504.5,-129 439.5,-129 439.5,-110 504.5,-110 504.5,-129"/>
<text text-anchor="middle" x="472" y="-117" font-family="Helvetica,sans-Serif" font-size="10.00">stdexcept</text>
</a>
</g>
</g>
<!-- Node15&#45;&gt;Node16 -->
<g id="edge19" class="edge">
<title>Node15&#45;&gt;Node16</title>
<path fill="none" stroke="#63b8ff" d="M450.29,-164.75C453.81,-157.57 458.91,-147.18 463.28,-138.27"/>
<polygon fill="#63b8ff" stroke="#63b8ff" points="466.52,-139.61 467.79,-129.09 460.24,-136.53 466.52,-139.61"/>
</g>
</g>
</svg>
