<?xml version="1.0" encoding="UTF-8" standalone="no"?>
<!DOCTYPE svg PUBLIC "-//W3C//DTD SVG 1.1//EN"
 "http://www.w3.org/Graphics/SVG/1.1/DTD/svg11.dtd">
<!-- Generated by graphviz version 2.44.0 (0)
 -->
<!-- Title: Plotting/plottingUtils/plottingUtils.cpp Pages: 1 -->
<svg width="2046pt" height="319pt"
 viewBox="0.00 0.00 2046.00 319.00" xmlns="http://www.w3.org/2000/svg" xmlns:xlink="http://www.w3.org/1999/xlink">
<g id="graph0" class="graph" transform="scale(1 1) rotate(0) translate(4 315)">
<title>Plotting/plottingUtils/plottingUtils.cpp</title>
<polygon fill="white" stroke="transparent" points="-4,4 -4,-315 2042,-315 2042,4 -4,4"/>
<!-- Node1 -->
<g id="node1" class="node">
<title>Node1</title>
<g id="a_node1"><a xlink:title=" ">
<polygon fill="#bfbfbf" stroke="black" points="1105,-280.5 1105,-310.5 1209,-310.5 1209,-280.5 1105,-280.5"/>
<text text-anchor="start" x="1113" y="-298.5" font-family="Helvetica" font-size="10.00">Plotting/plottingUtils</text>
<text text-anchor="middle" x="1157" y="-287.5" font-family="Helvetica" font-size="10.00">/plottingUtils.cpp</text>
</a>
</g>
</g>
<!-- Node2 -->
<g id="node2" class="node">
<title>Node2</title>
<g id="a_node2"><a xlink:href="plottingUtils_8h.html" target="_top" xlink:title=" ">
<polygon fill="white" stroke="black" points="1118.5,-224.5 1118.5,-243.5 1195.5,-243.5 1195.5,-224.5 1118.5,-224.5"/>
<text text-anchor="middle" x="1157" y="-231.5" font-family="Helvetica" font-size="10.00">plottingUtils.h</text>
</a>
</g>
</g>
<!-- Node1&#45;&gt;Node2 -->
<g id="edge1" class="edge">
<title>Node1&#45;&gt;Node2</title>
<path fill="none" stroke="midnightblue" d="M1157,-280.4C1157,-272.47 1157,-262.46 1157,-253.86"/>
<polygon fill="midnightblue" stroke="midnightblue" points="1160.5,-253.66 1157,-243.66 1153.5,-253.66 1160.5,-253.66"/>
</g>
<!-- Node3 -->
<g id="node3" class="node">
<title>Node3</title>
<g id="a_node3"><a xlink:href="MaCh3Logger_8h.html" target="_top" xlink:title="KS: Based on this https://github.com/gabime/spdlog/blob/a2b4262090fd3f005c2315dcb5be2f0f1774a005/incl...">
<polygon fill="white" stroke="black" points="229,-112.5 229,-131.5 355,-131.5 355,-112.5 229,-112.5"/>
<text text-anchor="middle" x="292" y="-119.5" font-family="Helvetica" font-size="10.00">Manager/MaCh3Logger.h</text>
</a>
</g>
</g>
<!-- Node2&#45;&gt;Node3 -->
<g id="edge2" class="edge">
<title>Node2&#45;&gt;Node3</title>
<path fill="none" stroke="midnightblue" d="M1118.29,-232.86C965,-232.03 405.63,-226.39 337,-188 318.7,-177.76 306.22,-156.6 299.13,-141.2"/>
<polygon fill="midnightblue" stroke="midnightblue" points="302.2,-139.49 295.07,-131.66 295.76,-142.23 302.2,-139.49"/>
</g>
<!-- Node4 -->
<g id="node4" class="node">
<title>Node4</title>
<g id="a_node4"><a xlink:title=" ">
<polygon fill="white" stroke="#bfbfbf" points="0,-0.5 0,-19.5 54,-19.5 54,-0.5 0,-0.5"/>
<text text-anchor="middle" x="27" y="-7.5" font-family="Helvetica" font-size="10.00">iostream</text>
</a>
</g>
</g>
<!-- Node2&#45;&gt;Node4 -->
<g id="edge25" class="edge">
<title>Node2&#45;&gt;Node4</title>
<path fill="none" stroke="midnightblue" d="M1118.07,-232.04C973.77,-228.31 469.62,-213.68 311,-188 218.19,-172.97 191.97,-172.24 107,-132 68.1,-113.58 48.06,-114.08 28,-76 20.52,-61.8 21.04,-43.32 22.98,-29.7"/>
<polygon fill="midnightblue" stroke="midnightblue" points="26.47,-30.06 24.8,-19.6 19.59,-28.82 26.47,-30.06"/>
</g>
<!-- Node12 -->
<g id="node12" class="node">
<title>Node12</title>
<g id="a_node12"><a xlink:title=" ">
<polygon fill="white" stroke="#bfbfbf" points="549,-0.5 549,-19.5 599,-19.5 599,-0.5 549,-0.5"/>
<text text-anchor="middle" x="574" y="-7.5" font-family="Helvetica" font-size="10.00">iomanip</text>
</a>
</g>
</g>
<!-- Node2&#45;&gt;Node12 -->
<g id="edge24" class="edge">
<title>Node2&#45;&gt;Node12</title>
<path fill="none" stroke="midnightblue" d="M1118.14,-233.05C991.97,-232.8 599.77,-228.74 562,-188 521.21,-144.01 549.44,-64.5 565.27,-28.98"/>
<polygon fill="midnightblue" stroke="midnightblue" points="568.48,-30.37 569.52,-19.83 562.13,-27.42 568.48,-30.37"/>
</g>
<!-- Node16 -->
<g id="node16" class="node">
<title>Node16</title>
<g id="a_node16"><a xlink:href="MaCh3Exception_8h.html" target="_top" xlink:title=" ">
<polygon fill="white" stroke="black" points="346,-168.5 346,-187.5 486,-187.5 486,-168.5 346,-168.5"/>
<text text-anchor="middle" x="416" y="-175.5" font-family="Helvetica" font-size="10.00">Manager/MaCh3Exception.h</text>
</a>
</g>
</g>
<!-- Node2&#45;&gt;Node16 -->
<g id="edge17" class="edge">
<title>Node2&#45;&gt;Node16</title>
<path fill="none" stroke="midnightblue" d="M1118.4,-230.34C1020.08,-223.55 752.17,-204.88 529,-188 518.41,-187.2 507.26,-186.34 496.26,-185.47"/>
<polygon fill="midnightblue" stroke="midnightblue" points="496.46,-181.98 486.22,-184.68 495.91,-188.95 496.46,-181.98"/>
</g>
<!-- Node18 -->
<g id="node18" class="node">
<title>Node18</title>
<g id="a_node18"><a xlink:title=" ">
<polygon fill="white" stroke="#bfbfbf" points="571,-168.5 571,-187.5 627,-187.5 627,-168.5 571,-168.5"/>
<text text-anchor="middle" x="599" y="-175.5" font-family="Helvetica" font-size="10.00">algorithm</text>
</a>
</g>
</g>
<!-- Node2&#45;&gt;Node18 -->
<g id="edge23" class="edge">
<title>Node2&#45;&gt;Node18</title>
<path fill="none" stroke="midnightblue" d="M1118.27,-231.59C1031.58,-228 815.48,-216.7 637,-188 636.9,-187.98 636.8,-187.97 636.7,-187.95"/>
<polygon fill="midnightblue" stroke="midnightblue" points="637.61,-184.56 627.13,-186.15 636.31,-191.44 637.61,-184.56"/>
</g>
<!-- Node19 -->
<g id="node19" class="node">
<title>Node19</title>
<g id="a_node19"><a xlink:title=" ">
<polygon fill="white" stroke="#bfbfbf" points="645.5,-168.5 645.5,-187.5 680.5,-187.5 680.5,-168.5 645.5,-168.5"/>
<text text-anchor="middle" x="663" y="-175.5" font-family="Helvetica" font-size="10.00">map</text>
</a>
</g>
</g>
<!-- Node2&#45;&gt;Node19 -->
<g id="edge26" class="edge">
<title>Node2&#45;&gt;Node19</title>
<path fill="none" stroke="midnightblue" d="M1118.42,-232.22C1039.58,-229.99 854.38,-221.55 690.81,-187.65"/>
<polygon fill="midnightblue" stroke="midnightblue" points="691.07,-184.13 680.56,-185.49 689.62,-190.98 691.07,-184.13"/>
</g>
<!-- Node20 -->
<g id="node20" class="node">
<title>Node20</title>
<g id="a_node20"><a xlink:title=" ">
<polygon fill="white" stroke="#bfbfbf" points="698.5,-168.5 698.5,-187.5 761.5,-187.5 761.5,-168.5 698.5,-168.5"/>
<text text-anchor="middle" x="730" y="-175.5" font-family="Helvetica" font-size="10.00">TCanvas.h</text>
</a>
</g>
</g>
<!-- Node2&#45;&gt;Node20 -->
<g id="edge27" class="edge">
<title>Node2&#45;&gt;Node20</title>
<path fill="none" stroke="midnightblue" d="M1118.47,-229.79C1050.51,-223.86 904.77,-209.89 771.69,-187.95"/>
<polygon fill="midnightblue" stroke="midnightblue" points="772.16,-184.48 761.72,-186.29 771.01,-191.39 772.16,-184.48"/>
</g>
<!-- Node21 -->
<g id="node21" class="node">
<title>Node21</title>
<g id="a_node21"><a xlink:title=" ">
<polygon fill="white" stroke="#bfbfbf" points="780,-168.5 780,-187.5 850,-187.5 850,-168.5 780,-168.5"/>
<text text-anchor="middle" x="815" y="-175.5" font-family="Helvetica" font-size="10.00">TGraph2D.h</text>
</a>
</g>
</g>
<!-- Node2&#45;&gt;Node21 -->
<g id="edge28" class="edge">
<title>Node2&#45;&gt;Node21</title>
<path fill="none" stroke="midnightblue" d="M1118.32,-227.81C1063.22,-220.28 958.74,-205.47 859.89,-188.08"/>
<polygon fill="midnightblue" stroke="midnightblue" points="860.49,-184.63 850.03,-186.34 859.27,-191.53 860.49,-184.63"/>
</g>
<!-- Node22 -->
<g id="node22" class="node">
<title>Node22</title>
<g id="a_node22"><a xlink:title=" ">
<polygon fill="white" stroke="#bfbfbf" points="868,-168.5 868,-187.5 922,-187.5 922,-168.5 868,-168.5"/>
<text text-anchor="middle" x="895" y="-175.5" font-family="Helvetica" font-size="10.00">TColor.h</text>
</a>
</g>
</g>
<!-- Node2&#45;&gt;Node22 -->
<g id="edge29" class="edge">
<title>Node2&#45;&gt;Node22</title>
<path fill="none" stroke="midnightblue" d="M1118.28,-225.76C1073.37,-217.24 997.15,-202.43 932,-188 931.9,-187.98 931.8,-187.96 931.7,-187.93"/>
<polygon fill="midnightblue" stroke="midnightblue" points="932.58,-184.54 922.05,-185.72 931.01,-191.37 932.58,-184.54"/>
</g>
<!-- Node23 -->
<g id="node23" class="node">
<title>Node23</title>
<g id="a_node23"><a xlink:title=" ">
<polygon fill="white" stroke="#bfbfbf" points="940.5,-168.5 940.5,-187.5 1011.5,-187.5 1011.5,-168.5 940.5,-168.5"/>
<text text-anchor="middle" x="976" y="-175.5" font-family="Helvetica" font-size="10.00">TDirectory.h</text>
</a>
</g>
</g>
<!-- Node2&#45;&gt;Node23 -->
<g id="edge30" class="edge">
<title>Node2&#45;&gt;Node23</title>
<path fill="none" stroke="midnightblue" d="M1128.32,-224.44C1097.47,-215.24 1048.27,-200.56 1014.17,-190.39"/>
<polygon fill="midnightblue" stroke="midnightblue" points="1015.13,-187.02 1004.55,-187.52 1013.13,-193.73 1015.13,-187.02"/>
</g>
<!-- Node24 -->
<g id="node24" class="node">
<title>Node24</title>
<g id="a_node24"><a xlink:title=" ">
<polygon fill="white" stroke="#bfbfbf" points="1029.5,-168.5 1029.5,-187.5 1076.5,-187.5 1076.5,-168.5 1029.5,-168.5"/>
<text text-anchor="middle" x="1053" y="-175.5" font-family="Helvetica" font-size="10.00">TFile.h</text>
</a>
</g>
</g>
<!-- Node2&#45;&gt;Node24 -->
<g id="edge31" class="edge">
<title>Node2&#45;&gt;Node24</title>
<path fill="none" stroke="midnightblue" d="M1140.29,-224.32C1123.69,-215.7 1098,-202.36 1078.78,-192.39"/>
<polygon fill="midnightblue" stroke="midnightblue" points="1080.16,-189.16 1069.67,-187.65 1076.93,-195.37 1080.16,-189.16"/>
</g>
<!-- Node25 -->
<g id="node25" class="node">
<title>Node25</title>
<g id="a_node25"><a xlink:title=" ">
<polygon fill="white" stroke="#bfbfbf" points="1094.5,-168.5 1094.5,-187.5 1151.5,-187.5 1151.5,-168.5 1094.5,-168.5"/>
<text text-anchor="middle" x="1123" y="-175.5" font-family="Helvetica" font-size="10.00">TGraph.h</text>
</a>
</g>
</g>
<!-- Node2&#45;&gt;Node25 -->
<g id="edge32" class="edge">
<title>Node2&#45;&gt;Node25</title>
<path fill="none" stroke="midnightblue" d="M1151.39,-224.08C1146.63,-216.53 1139.68,-205.49 1133.85,-196.23"/>
<polygon fill="midnightblue" stroke="midnightblue" points="1136.8,-194.35 1128.51,-187.75 1130.88,-198.08 1136.8,-194.35"/>
</g>
<!-- Node26 -->
<g id="node26" class="node">
<title>Node26</title>
<g id="a_node26"><a xlink:title=" ">
<polygon fill="white" stroke="#bfbfbf" points="1170,-168.5 1170,-187.5 1214,-187.5 1214,-168.5 1170,-168.5"/>
<text text-anchor="middle" x="1192" y="-175.5" font-family="Helvetica" font-size="10.00">TH1.h</text>
</a>
</g>
</g>
<!-- Node2&#45;&gt;Node26 -->
<g id="edge33" class="edge">
<title>Node2&#45;&gt;Node26</title>
<path fill="none" stroke="midnightblue" d="M1162.78,-224.08C1167.67,-216.53 1174.83,-205.49 1180.83,-196.23"/>
<polygon fill="midnightblue" stroke="midnightblue" points="1183.83,-198.05 1186.33,-187.75 1177.95,-194.24 1183.83,-198.05"/>
</g>
<!-- Node27 -->
<g id="node27" class="node">
<title>Node27</title>
<g id="a_node27"><a xlink:title=" ">
<polygon fill="white" stroke="#bfbfbf" points="1232.5,-168.5 1232.5,-187.5 1283.5,-187.5 1283.5,-168.5 1232.5,-168.5"/>
<text text-anchor="middle" x="1258" y="-175.5" font-family="Helvetica" font-size="10.00">TH1D.h</text>
</a>
</g>
</g>
<!-- Node2&#45;&gt;Node27 -->
<g id="edge34" class="edge">
<title>Node2&#45;&gt;Node27</title>
<path fill="none" stroke="midnightblue" d="M1173.23,-224.32C1189.35,-215.7 1214.3,-202.36 1232.96,-192.39"/>
<polygon fill="midnightblue" stroke="midnightblue" points="1234.64,-195.46 1241.81,-187.65 1231.34,-189.28 1234.64,-195.46"/>
</g>
<!-- Node28 -->
<g id="node28" class="node">
<title>Node28</title>
<g id="a_node28"><a xlink:title=" ">
<polygon fill="white" stroke="#bfbfbf" points="1302,-168.5 1302,-187.5 1346,-187.5 1346,-168.5 1302,-168.5"/>
<text text-anchor="middle" x="1324" y="-175.5" font-family="Helvetica" font-size="10.00">TH2.h</text>
</a>
</g>
</g>
<!-- Node2&#45;&gt;Node28 -->
<g id="edge35" class="edge">
<title>Node2&#45;&gt;Node28</title>
<path fill="none" stroke="midnightblue" d="M1183.46,-224.44C1213.01,-214.89 1260.8,-199.44 1292.31,-189.25"/>
<polygon fill="midnightblue" stroke="midnightblue" points="1293.49,-192.54 1301.93,-186.14 1291.34,-185.88 1293.49,-192.54"/>
</g>
<!-- Node29 -->
<g id="node29" class="node">
<title>Node29</title>
<g id="a_node29"><a xlink:title=" ">
<polygon fill="white" stroke="#bfbfbf" points="1364,-168.5 1364,-187.5 1426,-187.5 1426,-168.5 1364,-168.5"/>
<text text-anchor="middle" x="1395" y="-175.5" font-family="Helvetica" font-size="10.00">TH2Poly.h</text>
</a>
</g>
</g>
<!-- Node2&#45;&gt;Node29 -->
<g id="edge36" class="edge">
<title>Node2&#45;&gt;Node29</title>
<path fill="none" stroke="midnightblue" d="M1194.71,-224.44C1238.12,-214.59 1309.18,-198.47 1353.95,-188.31"/>
<polygon fill="midnightblue" stroke="midnightblue" points="1354.93,-191.68 1363.91,-186.05 1353.38,-184.85 1354.93,-191.68"/>
</g>
<!-- Node30 -->
<g id="node30" class="node">
<title>Node30</title>
<g id="a_node30"><a xlink:title=" ">
<polygon fill="white" stroke="#bfbfbf" points="1444,-168.5 1444,-187.5 1508,-187.5 1508,-168.5 1444,-168.5"/>
<text text-anchor="middle" x="1476" y="-175.5" font-family="Helvetica" font-size="10.00">THStack.h</text>
</a>
</g>
</g>
<!-- Node2&#45;&gt;Node30 -->
<g id="edge37" class="edge">
<title>Node2&#45;&gt;Node30</title>
<path fill="none" stroke="midnightblue" d="M1195.8,-227.42C1247.74,-219.79 1342.99,-205.27 1433.89,-188.13"/>
<polygon fill="midnightblue" stroke="midnightblue" points="1434.63,-191.55 1443.81,-186.24 1433.33,-184.67 1434.63,-191.55"/>
</g>
<!-- Node31 -->
<g id="node31" class="node">
<title>Node31</title>
<g id="a_node31"><a xlink:title=" ">
<polygon fill="white" stroke="#bfbfbf" points="1526.5,-168.5 1526.5,-187.5 1573.5,-187.5 1573.5,-168.5 1526.5,-168.5"/>
<text text-anchor="middle" x="1550" y="-175.5" font-family="Helvetica" font-size="10.00">TKey.h</text>
</a>
</g>
</g>
<!-- Node2&#45;&gt;Node31 -->
<g id="edge38" class="edge">
<title>Node2&#45;&gt;Node31</title>
<path fill="none" stroke="midnightblue" d="M1195.65,-229.98C1260.13,-224.55 1393.85,-211.62 1516.37,-187.85"/>
<polygon fill="midnightblue" stroke="midnightblue" points="1517.17,-191.26 1526.3,-185.9 1515.81,-184.39 1517.17,-191.26"/>
</g>
<!-- Node32 -->
<g id="node32" class="node">
<title>Node32</title>
<g id="a_node32"><a xlink:title=" ">
<polygon fill="white" stroke="#bfbfbf" points="1592,-168.5 1592,-187.5 1646,-187.5 1646,-168.5 1592,-168.5"/>
<text text-anchor="middle" x="1619" y="-175.5" font-family="Helvetica" font-size="10.00">TLatex.h</text>
</a>
</g>
</g>
<!-- Node2&#45;&gt;Node32 -->
<g id="edge39" class="edge">
<title>Node2&#45;&gt;Node32</title>
<path fill="none" stroke="midnightblue" d="M1195.73,-230.73C1269.18,-226.03 1433.86,-213.61 1581.79,-187.98"/>
<polygon fill="midnightblue" stroke="midnightblue" points="1582.72,-191.37 1591.96,-186.19 1581.51,-184.48 1582.72,-191.37"/>
</g>
<!-- Node33 -->
<g id="node33" class="node">
<title>Node33</title>
<g id="a_node33"><a xlink:title=" ">
<polygon fill="white" stroke="#bfbfbf" points="1664,-168.5 1664,-187.5 1726,-187.5 1726,-168.5 1664,-168.5"/>
<text text-anchor="middle" x="1695" y="-175.5" font-family="Helvetica" font-size="10.00">TLegend.h</text>
</a>
</g>
</g>
<!-- Node2&#45;&gt;Node33 -->
<g id="edge40" class="edge">
<title>Node2&#45;&gt;Node33</title>
<path fill="none" stroke="midnightblue" d="M1195.64,-231.24C1278.07,-227.11 1477.4,-215.15 1653.66,-188.02"/>
<polygon fill="midnightblue" stroke="midnightblue" points="1654.29,-191.47 1663.63,-186.47 1653.21,-184.55 1654.29,-191.47"/>
</g>
<!-- Node34 -->
<g id="node34" class="node">
<title>Node34</title>
<g id="a_node34"><a xlink:title=" ">
<polygon fill="white" stroke="#bfbfbf" points="1744.5,-168.5 1744.5,-187.5 1793.5,-187.5 1793.5,-168.5 1744.5,-168.5"/>
<text text-anchor="middle" x="1769" y="-175.5" font-family="Helvetica" font-size="10.00">TLine.h</text>
</a>
</g>
</g>
<!-- Node2&#45;&gt;Node34 -->
<g id="edge41" class="edge">
<title>Node2&#45;&gt;Node34</title>
<path fill="none" stroke="midnightblue" d="M1195.51,-232.4C1287.29,-230.47 1526.19,-222.43 1734.34,-187.78"/>
<polygon fill="midnightblue" stroke="midnightblue" points="1734.95,-191.23 1744.23,-186.11 1733.79,-184.33 1734.95,-191.23"/>
</g>
<!-- Node35 -->
<g id="node35" class="node">
<title>Node35</title>
<g id="a_node35"><a xlink:title=" ">
<polygon fill="white" stroke="#bfbfbf" points="1812,-168.5 1812,-187.5 1870,-187.5 1870,-168.5 1812,-168.5"/>
<text text-anchor="middle" x="1841" y="-175.5" font-family="Helvetica" font-size="10.00">TROOT.h</text>
</a>
</g>
</g>
<!-- Node2&#45;&gt;Node35 -->
<g id="edge42" class="edge">
<title>Node2&#45;&gt;Node35</title>
<path fill="none" stroke="midnightblue" d="M1195.83,-232.5C1295.19,-230.74 1566.76,-222.99 1801.54,-187.98"/>
<polygon fill="midnightblue" stroke="midnightblue" points="1802.27,-191.41 1811.63,-186.45 1801.22,-184.49 1802.27,-191.41"/>
</g>
<!-- Node36 -->
<g id="node36" class="node">
<title>Node36</title>
<g id="a_node36"><a xlink:title=" ">
<polygon fill="white" stroke="#bfbfbf" points="1888.5,-168.5 1888.5,-187.5 1941.5,-187.5 1941.5,-168.5 1888.5,-168.5"/>
<text text-anchor="middle" x="1915" y="-175.5" font-family="Helvetica" font-size="10.00">TStyle.h</text>
</a>
</g>
</g>
<!-- Node2&#45;&gt;Node36 -->
<g id="edge43" class="edge">
<title>Node2&#45;&gt;Node36</title>
<path fill="none" stroke="midnightblue" d="M1195.62,-233.07C1302.67,-232.72 1612.23,-228.18 1878.14,-187.81"/>
<polygon fill="midnightblue" stroke="midnightblue" points="1879.02,-191.21 1888.37,-186.23 1877.96,-184.29 1879.02,-191.21"/>
</g>
<!-- Node37 -->
<g id="node37" class="node">
<title>Node37</title>
<g id="a_node37"><a xlink:title=" ">
<polygon fill="white" stroke="#bfbfbf" points="1960,-168.5 1960,-187.5 2038,-187.5 2038,-168.5 1960,-168.5"/>
<text text-anchor="middle" x="1999" y="-175.5" font-family="Helvetica" font-size="10.00">TMultiGraph.h</text>
</a>
</g>
</g>
<!-- Node2&#45;&gt;Node37 -->
<g id="edge44" class="edge">
<title>Node2&#45;&gt;Node37</title>
<path fill="none" stroke="midnightblue" d="M1195.58,-232.57C1309.48,-230.93 1654.29,-223.29 1949.72,-187.99"/>
<polygon fill="midnightblue" stroke="midnightblue" points="1950.26,-191.45 1959.77,-186.78 1949.42,-184.51 1950.26,-191.45"/>
</g>
<!-- Node3&#45;&gt;Node4 -->
<g id="edge3" class="edge">
<title>Node3&#45;&gt;Node4</title>
<path fill="none" stroke="midnightblue" d="M228.76,-114.32C171.01,-107.2 90.81,-94.38 65,-76 49.06,-64.65 38.77,-44.36 32.97,-29.45"/>
<polygon fill="midnightblue" stroke="midnightblue" points="36.17,-28.01 29.53,-19.76 29.58,-30.35 36.17,-28.01"/>
</g>
<!-- Node5 -->
<g id="node5" class="node">
<title>Node5</title>
<g id="a_node5"><a xlink:title=" ">
<polygon fill="white" stroke="#bfbfbf" points="229,-0.5 229,-19.5 281,-19.5 281,-0.5 229,-0.5"/>
<text text-anchor="middle" x="255" y="-7.5" font-family="Helvetica" font-size="10.00">sstream</text>
</a>
</g>
</g>
<!-- Node3&#45;&gt;Node5 -->
<g id="edge4" class="edge">
<title>Node3&#45;&gt;Node5</title>
<path fill="none" stroke="midnightblue" d="M301.14,-112.44C313.42,-99.86 332.52,-75.74 322,-56 314.45,-41.83 300.24,-31.33 286.84,-24.06"/>
<polygon fill="midnightblue" stroke="midnightblue" points="288.3,-20.87 277.79,-19.53 285.17,-27.13 288.3,-20.87"/>
</g>
<!-- Node6 -->
<g id="node6" class="node">
<title>Node6</title>
<g id="a_node6"><a xlink:title=" ">
<polygon fill="white" stroke="#bfbfbf" points="253.5,-56.5 253.5,-75.5 312.5,-75.5 312.5,-56.5 253.5,-56.5"/>
<text text-anchor="middle" x="283" y="-63.5" font-family="Helvetica" font-size="10.00">functional</text>
</a>
</g>
</g>
<!-- Node3&#45;&gt;Node6 -->
<g id="edge5" class="edge">
<title>Node3&#45;&gt;Node6</title>
<path fill="none" stroke="midnightblue" d="M290.51,-112.08C289.32,-104.93 287.61,-94.64 286.12,-85.69"/>
<polygon fill="midnightblue" stroke="midnightblue" points="289.55,-85.04 284.46,-75.75 282.65,-86.19 289.55,-85.04"/>
</g>
<!-- Node7 -->
<g id="node7" class="node">
<title>Node7</title>
<g id="a_node7"><a xlink:title=" ">
<polygon fill="white" stroke="#bfbfbf" points="473.5,-56.5 473.5,-75.5 514.5,-75.5 514.5,-56.5 473.5,-56.5"/>
<text text-anchor="middle" x="494" y="-63.5" font-family="Helvetica" font-size="10.00">string</text>
</a>
</g>
</g>
<!-- Node3&#45;&gt;Node7 -->
<g id="edge6" class="edge">
<title>Node3&#45;&gt;Node7</title>
<path fill="none" stroke="midnightblue" d="M326.04,-112.48C358.84,-104.18 410.08,-90.99 463.69,-76.01"/>
<polygon fill="midnightblue" stroke="midnightblue" points="464.69,-79.37 473.37,-73.29 462.8,-72.63 464.69,-79.37"/>
</g>
<!-- Node8 -->
<g id="node8" class="node">
<title>Node8</title>
<g id="a_node8"><a xlink:title=" ">
<polygon fill="white" stroke="#bfbfbf" points="74,-56.5 74,-75.5 132,-75.5 132,-56.5 74,-56.5"/>
<text text-anchor="middle" x="103" y="-63.5" font-family="Helvetica" font-size="10.00">exception</text>
</a>
</g>
</g>
<!-- Node3&#45;&gt;Node8 -->
<g id="edge7" class="edge">
<title>Node3&#45;&gt;Node8</title>
<path fill="none" stroke="midnightblue" d="M262.05,-112.44C229.65,-103.19 177.86,-88.39 142.23,-78.21"/>
<polygon fill="midnightblue" stroke="midnightblue" points="142.76,-74.72 132.19,-75.34 140.84,-81.45 142.76,-74.72"/>
</g>
<!-- Node9 -->
<g id="node9" class="node">
<title>Node9</title>
<g id="a_node9"><a xlink:href="Core_8h.html" target="_top" xlink:title=" ">
<polygon fill="white" stroke="black" points="369,-56.5 369,-75.5 455,-75.5 455,-56.5 369,-56.5"/>
<text text-anchor="middle" x="412" y="-63.5" font-family="Helvetica" font-size="10.00">Manager/Core.h</text>
</a>
</g>
</g>
<!-- Node3&#45;&gt;Node9 -->
<g id="edge8" class="edge">
<title>Node3&#45;&gt;Node9</title>
<path fill="none" stroke="midnightblue" d="M311.01,-112.44C330.59,-103.64 361.31,-89.81 383.73,-79.72"/>
<polygon fill="midnightblue" stroke="midnightblue" points="385.39,-82.81 393.07,-75.52 382.52,-76.43 385.39,-82.81"/>
</g>
<!-- Node15 -->
<g id="node15" class="node">
<title>Node15</title>
<g id="a_node15"><a xlink:title=" ">
<polygon fill="white" stroke="#bfbfbf" points="150.5,-56.5 150.5,-75.5 235.5,-75.5 235.5,-56.5 150.5,-56.5"/>
<text text-anchor="middle" x="193" y="-63.5" font-family="Helvetica" font-size="10.00">spdlog/spdlog.h</text>
</a>
</g>
</g>
<!-- Node3&#45;&gt;Node15 -->
<g id="edge16" class="edge">
<title>Node3&#45;&gt;Node15</title>
<path fill="none" stroke="midnightblue" d="M276.09,-112.32C260.36,-103.74 236.06,-90.49 217.79,-80.52"/>
<polygon fill="midnightblue" stroke="midnightblue" points="219.32,-77.37 208.87,-75.65 215.97,-83.52 219.32,-77.37"/>
</g>
<!-- Node9&#45;&gt;Node4 -->
<g id="edge11" class="edge">
<title>Node9&#45;&gt;Node4</title>
<path fill="none" stroke="midnightblue" d="M368.96,-58.96C292.84,-48.29 135.76,-26.26 64.1,-16.2"/>
<polygon fill="midnightblue" stroke="midnightblue" points="64.56,-12.73 54.17,-14.81 63.59,-19.67 64.56,-12.73"/>
</g>
<!-- Node9&#45;&gt;Node5 -->
<g id="edge9" class="edge">
<title>Node9&#45;&gt;Node5</title>
<path fill="none" stroke="midnightblue" d="M387.12,-56.44C360.71,-47.36 318.78,-32.94 289.26,-22.78"/>
<polygon fill="midnightblue" stroke="midnightblue" points="290.36,-19.46 279.76,-19.52 288.08,-26.08 290.36,-19.46"/>
</g>
<!-- Node10 -->
<g id="node10" class="node">
<title>Node10</title>
<g id="a_node10"><a xlink:title=" ">
<polygon fill="white" stroke="#bfbfbf" points="419,-0.5 419,-19.5 469,-19.5 469,-0.5 419,-0.5"/>
<text text-anchor="middle" x="444" y="-7.5" font-family="Helvetica" font-size="10.00">fstream</text>
</a>
</g>
</g>
<!-- Node9&#45;&gt;Node10 -->
<g id="edge10" class="edge">
<title>Node9&#45;&gt;Node10</title>
<path fill="none" stroke="midnightblue" d="M417.28,-56.08C421.71,-48.61 428.16,-37.72 433.62,-28.52"/>
<polygon fill="midnightblue" stroke="midnightblue" points="436.73,-30.14 438.81,-19.75 430.71,-26.57 436.73,-30.14"/>
</g>
<!-- Node11 -->
<g id="node11" class="node">
<title>Node11</title>
<g id="a_node11"><a xlink:title=" ">
<polygon fill="white" stroke="#bfbfbf" points="487.5,-0.5 487.5,-19.5 530.5,-19.5 530.5,-0.5 487.5,-0.5"/>
<text text-anchor="middle" x="509" y="-7.5" font-family="Helvetica" font-size="10.00">vector</text>
</a>
</g>
</g>
<!-- Node9&#45;&gt;Node11 -->
<g id="edge12" class="edge">
<title>Node9&#45;&gt;Node11</title>
<path fill="none" stroke="midnightblue" d="M427.58,-56.32C443,-47.74 466.81,-34.49 484.71,-24.52"/>
<polygon fill="midnightblue" stroke="midnightblue" points="486.42,-27.58 493.45,-19.65 483.01,-21.46 486.42,-27.58"/>
</g>
<!-- Node9&#45;&gt;Node12 -->
<g id="edge13" class="edge">
<title>Node9&#45;&gt;Node12</title>
<path fill="none" stroke="midnightblue" d="M437.67,-56.44C465.08,-47.31 508.69,-32.77 539.19,-22.6"/>
<polygon fill="midnightblue" stroke="midnightblue" points="540.6,-25.82 548.98,-19.34 538.39,-19.18 540.6,-25.82"/>
</g>
<!-- Node13 -->
<g id="node13" class="node">
<title>Node13</title>
<g id="a_node13"><a xlink:title=" ">
<polygon fill="white" stroke="#bfbfbf" points="299,-0.5 299,-19.5 343,-19.5 343,-0.5 299,-0.5"/>
<text text-anchor="middle" x="321" y="-7.5" font-family="Helvetica" font-size="10.00">cmath</text>
</a>
</g>
</g>
<!-- Node9&#45;&gt;Node13 -->
<g id="edge14" class="edge">
<title>Node9&#45;&gt;Node13</title>
<path fill="none" stroke="midnightblue" d="M397.38,-56.32C383.05,-47.82 360.99,-34.73 344.25,-24.8"/>
<polygon fill="midnightblue" stroke="midnightblue" points="345.97,-21.75 335.58,-19.65 342.4,-27.77 345.97,-21.75"/>
</g>
<!-- Node14 -->
<g id="node14" class="node">
<title>Node14</title>
<g id="a_node14"><a xlink:title=" ">
<polygon fill="white" stroke="#bfbfbf" points="361,-0.5 361,-19.5 401,-19.5 401,-0.5 361,-0.5"/>
<text text-anchor="middle" x="381" y="-7.5" font-family="Helvetica" font-size="10.00">limits</text>
</a>
</g>
</g>
<!-- Node9&#45;&gt;Node14 -->
<g id="edge15" class="edge">
<title>Node9&#45;&gt;Node14</title>
<path fill="none" stroke="midnightblue" d="M406.88,-56.08C402.59,-48.61 396.34,-37.72 391.06,-28.52"/>
<polygon fill="midnightblue" stroke="midnightblue" points="394.04,-26.68 386.02,-19.75 387.97,-30.17 394.04,-26.68"/>
</g>
<!-- Node16&#45;&gt;Node3 -->
<g id="edge21" class="edge">
<title>Node16&#45;&gt;Node3</title>
<path fill="none" stroke="midnightblue" d="M396.35,-168.44C376.04,-159.6 344.1,-145.69 320.9,-135.59"/>
<polygon fill="midnightblue" stroke="midnightblue" points="322.12,-132.3 311.56,-131.52 319.33,-138.72 322.12,-132.3"/>
</g>
<!-- Node16&#45;&gt;Node4 -->
<g id="edge18" class="edge">
<title>Node16&#45;&gt;Node4</title>
<path fill="none" stroke="midnightblue" d="M355.63,-168.45C261.33,-153.86 85.43,-121.29 43,-76 31.46,-63.69 27.87,-44.43 26.91,-30.07"/>
<polygon fill="midnightblue" stroke="midnightblue" points="30.4,-29.72 26.62,-19.83 23.41,-29.93 30.4,-29.72"/>
</g>
<!-- Node16&#45;&gt;Node7 -->
<g id="edge19" class="edge">
<title>Node16&#45;&gt;Node7</title>
<path fill="none" stroke="midnightblue" d="M435.23,-168.37C449.77,-160.84 469.05,-148.53 480,-132 489.06,-118.32 492.38,-99.78 493.53,-86"/>
<polygon fill="midnightblue" stroke="midnightblue" points="497.04,-85.93 494.08,-75.76 490.05,-85.56 497.04,-85.93"/>
</g>
<!-- Node16&#45;&gt;Node9 -->
<g id="edge22" class="edge">
<title>Node16&#45;&gt;Node9</title>
<path fill="none" stroke="midnightblue" d="M412.66,-168.2C409.45,-159.24 404.82,-144.88 403,-132 400.8,-116.47 403.57,-98.85 406.6,-85.87"/>
<polygon fill="midnightblue" stroke="midnightblue" points="410.08,-86.39 409.21,-75.83 403.31,-84.63 410.08,-86.39"/>
</g>
<!-- Node17 -->
<g id="node17" class="node">
<title>Node17</title>
<g id="a_node17"><a xlink:title=" ">
<polygon fill="white" stroke="#bfbfbf" points="411.5,-112.5 411.5,-131.5 470.5,-131.5 470.5,-112.5 411.5,-112.5"/>
<text text-anchor="middle" x="441" y="-119.5" font-family="Helvetica" font-size="10.00">stdexcept</text>
</a>
</g>
</g>
<!-- Node16&#45;&gt;Node17 -->
<g id="edge20" class="edge">
<title>Node16&#45;&gt;Node17</title>
<path fill="none" stroke="midnightblue" d="M420.13,-168.08C423.51,-160.77 428.42,-150.18 432.62,-141.1"/>
<polygon fill="midnightblue" stroke="midnightblue" points="435.92,-142.3 436.95,-131.75 429.57,-139.36 435.92,-142.3"/>
</g>
</g>
</svg>
