<?xml version="1.0" encoding="UTF-8" standalone="no"?>
<!DOCTYPE svg PUBLIC "-//W3C//DTD SVG 1.1//EN"
 "http://www.w3.org/Graphics/SVG/1.1/DTD/svg11.dtd">
<!-- Generated by graphviz version 2.43.0 (0)
 -->
<!-- Title: Splines/SplineMonolith.h Pages: 1 -->
<svg width="282pt" height="82pt"
 viewBox="0.00 0.00 282.00 82.00" xmlns="http://www.w3.org/2000/svg" xmlns:xlink="http://www.w3.org/1999/xlink">
<g id="graph0" class="graph" transform="scale(1 1) rotate(0) translate(4 78)">
<title>Splines/SplineMonolith.h</title>
<!-- Node1 -->
<g id="node1" class="node">
<title>Node1</title>
<g id="a_node1"><a xlink:title=" ">
<polygon fill="#999999" stroke="#666666" points="215.5,-74 78.5,-74 78.5,-55 215.5,-55 215.5,-74"/>
<text text-anchor="middle" x="147" y="-62" font-family="Helvetica,sans-Serif" font-size="10.00">Splines/SplineMonolith.h</text>
</a>
</g>
</g>
<!-- Node2 -->
<g id="node2" class="node">
<title>Node2</title>
<g id="a_node2"><a xlink:href="SplineMonolith_8cpp.html" target="_top" xlink:title=" ">
<polygon fill="white" stroke="#666666" points="148,-19 0,-19 0,0 148,0 148,-19"/>
<text text-anchor="middle" x="74" y="-7" font-family="Helvetica,sans-Serif" font-size="10.00">Splines/SplineMonolith.cpp</text>
</a>
</g>
</g>
<!-- Node1&#45;&gt;Node2 -->
<g id="edge1" class="edge">
<title>Node1&#45;&gt;Node2</title>
<path fill="none" stroke="#63b8ff" d="M126.86,-48.88C113.72,-39.34 97.02,-27.21 85.94,-19.17"/>
<polygon fill="#63b8ff" stroke="#63b8ff" points="125.12,-51.94 135.27,-54.98 129.24,-46.28 125.12,-51.94"/>
</g>
<!-- Node3 -->
<g id="node3" class="node">
<title>Node3</title>
<g id="a_node3"><a xlink:href="splines_8cpp.html" target="_top" xlink:title=" ">
<polygon fill="white" stroke="#666666" points="274,-19 166,-19 166,0 274,0 274,-19"/>
<text text-anchor="middle" x="220" y="-7" font-family="Helvetica,sans-Serif" font-size="10.00">python/splines.cpp</text>
</a>
</g>
</g>
<!-- Node1&#45;&gt;Node3 -->
<g id="edge2" class="edge">
<title>Node1&#45;&gt;Node3</title>
<path fill="none" stroke="#63b8ff" d="M167.14,-48.88C180.28,-39.34 196.98,-27.21 208.06,-19.17"/>
<polygon fill="#63b8ff" stroke="#63b8ff" points="164.76,-46.28 158.73,-54.98 168.88,-51.94 164.76,-46.28"/>
</g>
</g>
</svg>
