<?xml version="1.0" encoding="UTF-8" standalone="no"?>
<!DOCTYPE svg PUBLIC "-//W3C//DTD SVG 1.1//EN"
 "http://www.w3.org/Graphics/SVG/1.1/DTD/svg11.dtd">
<!-- Generated by graphviz version 2.43.0 (0)
 -->
<!-- Title: FarDetectorCoreInfo Pages: 1 -->
<svg width="285pt" height="115pt"
 viewBox="0.00 0.00 285.00 115.00" xmlns="http://www.w3.org/2000/svg" xmlns:xlink="http://www.w3.org/1999/xlink">
<g id="graph0" class="graph" transform="scale(1 1) rotate(0) translate(4 111)">
<title>FarDetectorCoreInfo</title>
<!-- Node1 -->
<g id="node1" class="node">
<title>Node1</title>
<g id="a_node1"><a xlink:title="constructors are same for all three so put in here">
<polygon fill="#999999" stroke="#666666" points="172,-19 58,-19 58,0 172,0 172,-19"/>
<text text-anchor="middle" x="115" y="-7" font-family="Helvetica,sans-Serif" font-size="10.00">FarDetectorCoreInfo</text>
</a>
</g>
</g>
<!-- Node2 -->
<g id="node2" class="node">
<title>Node2</title>
<g id="a_node2"><a xlink:title=" ">
<polygon fill="white" stroke="#666666" points="106,-107 0,-107 0,-77 106,-77 106,-107"/>
<text text-anchor="start" x="8" y="-95" font-family="Helvetica,sans-Serif" font-size="10.00">std::vector&lt; const</text>
<text text-anchor="middle" x="53" y="-84" font-family="Helvetica,sans-Serif" font-size="10.00"> double * &gt;</text>
</a>
</g>
</g>
<!-- Node2&#45;&gt;Node1 -->
<g id="edge1" class="edge">
<title>Node2&#45;&gt;Node1</title>
<path fill="none" stroke="#9a32cd" stroke-dasharray="5,2" d="M48.01,-66.75C47.27,-56.78 48.26,-45.58 54,-37 59.52,-28.75 68.22,-23.05 77.33,-19.12"/>
<polygon fill="#9a32cd" stroke="#9a32cd" points="44.57,-67.45 49.35,-76.9 51.51,-66.53 44.57,-67.45"/>
<text text-anchor="middle" x="105" y="-45.5" font-family="Helvetica,sans-Serif" font-size="10.00"> xsec_norm_pointers</text>
</g>
<!-- Node3 -->
<g id="node3" class="node">
<title>Node3</title>
<g id="a_node3"><a xlink:title=" ">
<polygon fill="white" stroke="#666666" points="231,-107 125,-107 125,-77 231,-77 231,-107"/>
<text text-anchor="start" x="133" y="-95" font-family="Helvetica,sans-Serif" font-size="10.00">std::vector&lt; const</text>
<text text-anchor="middle" x="178" y="-84" font-family="Helvetica,sans-Serif" font-size="10.00"> M3::float_t * &gt;</text>
</a>
</g>
</g>
<!-- Node3&#45;&gt;Node1 -->
<g id="edge2" class="edge">
<title>Node3&#45;&gt;Node1</title>
<path fill="none" stroke="#9a32cd" stroke-dasharray="5,2" d="M171.75,-67.07C168.29,-57.02 163.19,-45.68 156,-37 149.84,-29.56 141.03,-23.49 133.16,-19.05"/>
<polygon fill="#9a32cd" stroke="#9a32cd" points="168.5,-68.38 174.79,-76.91 175.18,-66.32 168.5,-68.38"/>
<text text-anchor="middle" x="222.5" y="-51" font-family="Helvetica,sans-Serif" font-size="10.00"> total_weight_pointers</text>
<text text-anchor="middle" x="222.5" y="-40" font-family="Helvetica,sans-Serif" font-size="10.00">xsec_spline_pointers</text>
</g>
</g>
</svg>
