<?xml version="1.0" encoding="UTF-8" standalone="no"?>
<!DOCTYPE svg PUBLIC "-//W3C//DTD SVG 1.1//EN"
 "http://www.w3.org/Graphics/SVG/1.1/DTD/svg11.dtd">
<!-- Generated by graphviz version 2.44.0 (0)
 -->
<!-- Title: Manager/YamlHelper.h Pages: 1 -->
<!--zoomable 252 -->
<svg id="main" version="1.1" xmlns="http://www.w3.org/2000/svg" xmlns:xlink="http://www.w3.org/1999/xlink" xml:space="preserve" onload="init(evt)">
<style type="text/css"><![CDATA[
.edge:hover path { stroke: red; }
.edge:hover polygon { stroke: red; fill: red; }
]]></style>
<script type="text/javascript"><![CDATA[
var edges = document.getElementsByTagName('g');
if (edges && edges.length) {
  for (var i=0;i<edges.length;i++) {
    if (edges[i].id.substr(0,4)=='edge') {
      edges[i].setAttribute('class','edge');
    }
  }
}
]]></script>
        <defs>
                <circle id="rim" cx="0" cy="0" r="7"/>
                <circle id="rim2" cx="0" cy="0" r="3.5"/>
                <g id="zoomPlus">
                        <use xlink:href="#rim" fill="#404040">
                                <set attributeName="fill" to="#808080" begin="zoomplus.mouseover" end="zoomplus.mouseout"/>
                        </use>
                        <path d="M-4,0h8M0,-4v8" fill="none" stroke="white" stroke-width="1.5" pointer-events="none"/>
                </g>
                <g id="zoomMin">
                        <use xlink:href="#rim" fill="#404040">
                                <set attributeName="fill" to="#808080" begin="zoomminus.mouseover" end="zoomminus.mouseout"/>
                        </use>
                        <path d="M-4,0h8" fill="none" stroke="white" stroke-width="1.5" pointer-events="none"/>
                </g>
                <g id="dirArrow">
                        <path fill="none" stroke="white" stroke-width="1.5" d="M0,-3.0v7 M-2.5,-0.5L0,-3.0L2.5,-0.5"/>
                </g>
               <g id="resetDef">
                       <use xlink:href="#rim2" fill="#404040">
                               <set attributeName="fill" to="#808080" begin="reset.mouseover" end="reset.mouseout"/>
                       </use>
               </g>
        </defs>

<script type="text/javascript">
var viewWidth = 732;
var viewHeight = 252;
var sectionId = 'dynsection-0';
</script>
<script xlink:href="svgpan.js"/>
<svg id="graph" class="graph">
<g id="viewport">
<title>Manager/YamlHelper.h</title>
<polygon fill="white" stroke="transparent" points="-4,4 -4,-248 728.16,-248 728.16,4 -4,4"/>
<!-- Node1 -->
<g id="node1" class="node">
<title>Node1</title>
<g id="a_node1"><a xlink:title="Utility functions for handling YAML nodes.">
<polygon fill="#bfbfbf" stroke="black" points="223.66,-224.5 223.66,-243.5 339.66,-243.5 339.66,-224.5 223.66,-224.5"/>
<text text-anchor="middle" x="281.66" y="-231.5" font-family="Helvetica" font-size="10.00">Manager/YamlHelper.h</text>
</a>
</g>
</g>
<!-- Node2 -->
<g id="node2" class="node">
<title>Node2</title>
<g id="a_node2"><a xlink:title=" ">
<polygon fill="white" stroke="#bfbfbf" points="112.66,-0.5 112.66,-19.5 166.66,-19.5 166.66,-0.5 112.66,-0.5"/>
<text text-anchor="middle" x="139.66" y="-7.5" font-family="Helvetica" font-size="10.00">iostream</text>
</a>
</g>
</g>
<!-- Node1&#45;&gt;Node2 -->
<g id="edge1" class="edge">
<title>Node1&#45;&gt;Node2</title>
<path fill="none" stroke="midnightblue" d="M223.49,-228.6C160.84,-222.78 66.39,-210.52 38.66,-188 -7.13,-150.81 -12.37,-101.93 24.66,-56 43.67,-32.43 76.71,-21.17 102.51,-15.81"/>
<polygon fill="midnightblue" stroke="midnightblue" points="103.17,-19.25 112.36,-13.97 101.89,-12.37 103.17,-19.25"/>
</g>
<!-- Node3 -->
<g id="node3" class="node">
<title>Node3</title>
<g id="a_node3"><a xlink:title=" ">
<polygon fill="white" stroke="#bfbfbf" points="243.66,-0.5 243.66,-19.5 293.66,-19.5 293.66,-0.5 243.66,-0.5"/>
<text text-anchor="middle" x="268.66" y="-7.5" font-family="Helvetica" font-size="10.00">fstream</text>
</a>
</g>
</g>
<!-- Node1&#45;&gt;Node3 -->
<g id="edge2" class="edge">
<title>Node1&#45;&gt;Node3</title>
<path fill="none" stroke="midnightblue" d="M223.52,-228.83C164.87,-223.35 79.9,-211.53 57.66,-188 17.07,-145.05 4.16,-101.67 41.66,-56 53.75,-41.28 172.46,-23.68 233.22,-15.54"/>
<polygon fill="midnightblue" stroke="midnightblue" points="234.05,-18.96 243.5,-14.18 233.13,-12.02 234.05,-18.96"/>
</g>
<!-- Node4 -->
<g id="node4" class="node">
<title>Node4</title>
<g id="a_node4"><a xlink:title=" ">
<polygon fill="white" stroke="#bfbfbf" points="51.16,-56.5 51.16,-75.5 92.16,-75.5 92.16,-56.5 51.16,-56.5"/>
<text text-anchor="middle" x="71.66" y="-63.5" font-family="Helvetica" font-size="10.00">string</text>
</a>
</g>
</g>
<!-- Node1&#45;&gt;Node4 -->
<g id="edge3" class="edge">
<title>Node1&#45;&gt;Node4</title>
<path fill="none" stroke="midnightblue" d="M223.65,-228.6C168.24,-223.05 90.47,-211.27 71.66,-188 47.97,-158.7 57.48,-111.05 65.29,-85.16"/>
<polygon fill="midnightblue" stroke="midnightblue" points="68.67,-86.1 68.44,-75.51 62.01,-83.93 68.67,-86.1"/>
</g>
<!-- Node5 -->
<g id="node5" class="node">
<title>Node5</title>
<g id="a_node5"><a xlink:title=" ">
<polygon fill="white" stroke="#bfbfbf" points="81.16,-168.5 81.16,-187.5 134.16,-187.5 134.16,-168.5 81.16,-168.5"/>
<text text-anchor="middle" x="107.66" y="-175.5" font-family="Helvetica" font-size="10.00">cxxabi.h</text>
</a>
</g>
</g>
<!-- Node1&#45;&gt;Node5 -->
<g id="edge4" class="edge">
<title>Node1&#45;&gt;Node5</title>
<path fill="none" stroke="midnightblue" d="M254.09,-224.44C224.3,-215.2 176.71,-200.43 143.91,-190.25"/>
<polygon fill="midnightblue" stroke="midnightblue" points="144.83,-186.87 134.25,-187.25 142.76,-193.56 144.83,-186.87"/>
</g>
<!-- Node6 -->
<g id="node6" class="node">
<title>Node6</title>
<g id="a_node6"><a xlink:title=" ">
<polygon fill="white" stroke="#bfbfbf" points="152.16,-168.5 152.16,-187.5 193.16,-187.5 193.16,-168.5 152.16,-168.5"/>
<text text-anchor="middle" x="172.66" y="-175.5" font-family="Helvetica" font-size="10.00">regex</text>
</a>
</g>
</g>
<!-- Node1&#45;&gt;Node6 -->
<g id="edge5" class="edge">
<title>Node1&#45;&gt;Node6</title>
<path fill="none" stroke="midnightblue" d="M264.15,-224.32C246.59,-215.62 219.33,-202.12 199.13,-192.11"/>
<polygon fill="midnightblue" stroke="midnightblue" points="200.64,-188.96 190.13,-187.65 197.54,-195.23 200.64,-188.96"/>
</g>
<!-- Node7 -->
<g id="node7" class="node">
<title>Node7</title>
<g id="a_node7"><a xlink:href="MaCh3Exception_8h.html" target="_top" xlink:title=" ">
<polygon fill="white" stroke="black" points="211.66,-168.5 211.66,-187.5 351.66,-187.5 351.66,-168.5 211.66,-168.5"/>
<text text-anchor="middle" x="281.66" y="-175.5" font-family="Helvetica" font-size="10.00">Manager/MaCh3Exception.h</text>
</a>
</g>
</g>
<!-- Node1&#45;&gt;Node7 -->
<g id="edge6" class="edge">
<title>Node1&#45;&gt;Node7</title>
<path fill="none" stroke="midnightblue" d="M281.66,-224.08C281.66,-217.01 281.66,-206.86 281.66,-197.99"/>
<polygon fill="midnightblue" stroke="midnightblue" points="285.16,-197.75 281.66,-187.75 278.16,-197.75 285.16,-197.75"/>
</g>
<!-- Node13 -->
<g id="node13" class="node">
<title>Node13</title>
<g id="a_node13"><a xlink:href="Core_8h.html" target="_top" xlink:title=" ">
<polygon fill="white" stroke="black" points="482.66,-56.5 482.66,-75.5 568.66,-75.5 568.66,-56.5 482.66,-56.5"/>
<text text-anchor="middle" x="525.66" y="-63.5" font-family="Helvetica" font-size="10.00">Manager/Core.h</text>
</a>
</g>
</g>
<!-- Node1&#45;&gt;Node13 -->
<g id="edge26" class="edge">
<title>Node1&#45;&gt;Node13</title>
<path fill="none" stroke="midnightblue" d="M298.02,-224.4C314.23,-215.71 339.6,-201.65 360.66,-188 415.46,-152.47 476.65,-105.56 506.79,-81.95"/>
<polygon fill="midnightblue" stroke="midnightblue" points="509.07,-84.6 514.77,-75.67 504.75,-79.1 509.07,-84.6"/>
</g>
<!-- Node19 -->
<g id="node19" class="node">
<title>Node19</title>
<g id="a_node19"><a xlink:title=" ">
<polygon fill="white" stroke="#bfbfbf" points="407.66,-168.5 407.66,-187.5 465.66,-187.5 465.66,-168.5 407.66,-168.5"/>
<text text-anchor="middle" x="436.66" y="-175.5" font-family="Helvetica" font-size="10.00">TMacro.h</text>
</a>
</g>
</g>
<!-- Node1&#45;&gt;Node19 -->
<g id="edge27" class="edge">
<title>Node1&#45;&gt;Node19</title>
<path fill="none" stroke="midnightblue" d="M306.22,-224.44C332.18,-215.4 373.33,-201.06 402.46,-190.92"/>
<polygon fill="midnightblue" stroke="midnightblue" points="403.92,-194.11 412.22,-187.52 401.62,-187.5 403.92,-194.11"/>
</g>
<!-- Node20 -->
<g id="node20" class="node">
<title>Node20</title>
<g id="a_node20"><a xlink:title=" ">
<polygon fill="white" stroke="#bfbfbf" points="483.66,-168.5 483.66,-187.5 529.66,-187.5 529.66,-168.5 483.66,-168.5"/>
<text text-anchor="middle" x="506.66" y="-175.5" font-family="Helvetica" font-size="10.00">TList.h</text>
</a>
</g>
</g>
<!-- Node1&#45;&gt;Node20 -->
<g id="edge28" class="edge">
<title>Node1&#45;&gt;Node20</title>
<path fill="none" stroke="midnightblue" d="M320.6,-224.46C357.61,-216.23 415.05,-203.14 473.8,-188.14"/>
<polygon fill="midnightblue" stroke="midnightblue" points="474.81,-191.49 483.62,-185.61 473.07,-184.71 474.81,-191.49"/>
</g>
<!-- Node21 -->
<g id="node21" class="node">
<title>Node21</title>
<g id="a_node21"><a xlink:title=" ">
<polygon fill="white" stroke="#bfbfbf" points="548.16,-168.5 548.16,-187.5 619.16,-187.5 619.16,-168.5 548.16,-168.5"/>
<text text-anchor="middle" x="583.66" y="-175.5" font-family="Helvetica" font-size="10.00">TObjString.h</text>
</a>
</g>
</g>
<!-- Node1&#45;&gt;Node21 -->
<g id="edge29" class="edge">
<title>Node1&#45;&gt;Node21</title>
<path fill="none" stroke="midnightblue" d="M332.44,-224.48C382.2,-216.05 460.46,-202.56 537.89,-188.11"/>
<polygon fill="midnightblue" stroke="midnightblue" points="538.63,-191.53 547.81,-186.25 537.34,-184.65 538.63,-191.53"/>
</g>
<!-- Node22 -->
<g id="node22" class="node">
<title>Node22</title>
<g id="a_node22"><a xlink:title=" ">
<polygon fill="white" stroke="#bfbfbf" points="637.16,-168.5 637.16,-187.5 724.16,-187.5 724.16,-168.5 637.16,-168.5"/>
<text text-anchor="middle" x="680.66" y="-175.5" font-family="Helvetica" font-size="10.00">yaml&#45;cpp/yaml.h</text>
</a>
</g>
</g>
<!-- Node1&#45;&gt;Node22 -->
<g id="edge30" class="edge">
<title>Node1&#45;&gt;Node22</title>
<path fill="none" stroke="midnightblue" d="M339.79,-226.23C406.7,-218.26 520.17,-204.22 627.01,-188.2"/>
<polygon fill="midnightblue" stroke="midnightblue" points="627.62,-191.65 636.99,-186.7 626.58,-184.73 627.62,-191.65"/>
</g>
<!-- Node7&#45;&gt;Node2 -->
<g id="edge7" class="edge">
<title>Node7&#45;&gt;Node2</title>
<path fill="none" stroke="midnightblue" d="M235.41,-168.45C198.53,-160.58 151.19,-147.75 139.66,-132 117.51,-101.74 126.25,-54.85 133.57,-29.24"/>
<polygon fill="midnightblue" stroke="midnightblue" points="136.92,-30.26 136.53,-19.67 130.23,-28.19 136.92,-30.26"/>
</g>
<!-- Node7&#45;&gt;Node4 -->
<g id="edge8" class="edge">
<title>Node7&#45;&gt;Node4</title>
<path fill="none" stroke="midnightblue" d="M229.94,-168.43C185.53,-160.24 125.74,-146.94 106.66,-132 91.56,-120.17 82.15,-99.96 76.94,-85.2"/>
<polygon fill="midnightblue" stroke="midnightblue" points="80.26,-84.08 73.87,-75.63 73.59,-86.22 80.26,-84.08"/>
</g>
<!-- Node8 -->
<g id="node8" class="node">
<title>Node8</title>
<g id="a_node8"><a xlink:title=" ">
<polygon fill="white" stroke="#bfbfbf" points="149.16,-112.5 149.16,-131.5 208.16,-131.5 208.16,-112.5 149.16,-112.5"/>
<text text-anchor="middle" x="178.66" y="-119.5" font-family="Helvetica" font-size="10.00">stdexcept</text>
</a>
</g>
</g>
<!-- Node7&#45;&gt;Node8 -->
<g id="edge9" class="edge">
<title>Node7&#45;&gt;Node8</title>
<path fill="none" stroke="midnightblue" d="M265.11,-168.32C248.67,-159.7 223.23,-146.36 204.19,-136.39"/>
<polygon fill="midnightblue" stroke="midnightblue" points="205.65,-133.2 195.17,-131.65 202.4,-139.4 205.65,-133.2"/>
</g>
<!-- Node9 -->
<g id="node9" class="node">
<title>Node9</title>
<g id="a_node9"><a xlink:href="MaCh3Logger_8h.html" target="_top" xlink:title="KS: Based on this https://github.com/gabime/spdlog/blob/a2b4262090fd3f005c2315dcb5be2f0f1774a005/incl...">
<polygon fill="white" stroke="black" points="226.66,-112.5 226.66,-131.5 352.66,-131.5 352.66,-112.5 226.66,-112.5"/>
<text text-anchor="middle" x="289.66" y="-119.5" font-family="Helvetica" font-size="10.00">Manager/MaCh3Logger.h</text>
</a>
</g>
</g>
<!-- Node7&#45;&gt;Node9 -->
<g id="edge10" class="edge">
<title>Node7&#45;&gt;Node9</title>
<path fill="none" stroke="midnightblue" d="M282.98,-168.08C284.04,-160.93 285.57,-150.64 286.89,-141.69"/>
<polygon fill="midnightblue" stroke="midnightblue" points="290.36,-142.16 288.36,-131.75 283.44,-141.13 290.36,-142.16"/>
</g>
<!-- Node7&#45;&gt;Node13 -->
<g id="edge25" class="edge">
<title>Node7&#45;&gt;Node13</title>
<path fill="none" stroke="midnightblue" d="M296.5,-168.35C319.3,-155.24 364.54,-129.97 404.66,-112 432.89,-99.36 465.84,-87.27 490.22,-78.81"/>
<polygon fill="midnightblue" stroke="midnightblue" points="491.46,-82.09 499.78,-75.53 489.18,-75.47 491.46,-82.09"/>
</g>
<!-- Node9&#45;&gt;Node2 -->
<g id="edge11" class="edge">
<title>Node9&#45;&gt;Node2</title>
<path fill="none" stroke="midnightblue" d="M270.92,-112.46C253.74,-104.24 227.96,-90.88 207.66,-76 187.62,-61.31 167.38,-41.13 154.26,-27.16"/>
<polygon fill="midnightblue" stroke="midnightblue" points="156.77,-24.72 147.41,-19.75 151.63,-29.47 156.77,-24.72"/>
</g>
<!-- Node9&#45;&gt;Node4 -->
<g id="edge14" class="edge">
<title>Node9&#45;&gt;Node4</title>
<path fill="none" stroke="midnightblue" d="M255.12,-112.44C212.93,-101.99 142.23,-84.48 102.03,-74.52"/>
<polygon fill="midnightblue" stroke="midnightblue" points="102.81,-71.11 92.27,-72.1 101.13,-77.91 102.81,-71.11"/>
</g>
<!-- Node10 -->
<g id="node10" class="node">
<title>Node10</title>
<g id="a_node10"><a xlink:title=" ">
<polygon fill="white" stroke="#bfbfbf" points="327.66,-0.5 327.66,-19.5 379.66,-19.5 379.66,-0.5 327.66,-0.5"/>
<text text-anchor="middle" x="353.66" y="-7.5" font-family="Helvetica" font-size="10.00">sstream</text>
</a>
</g>
</g>
<!-- Node9&#45;&gt;Node10 -->
<g id="edge12" class="edge">
<title>Node9&#45;&gt;Node10</title>
<path fill="none" stroke="midnightblue" d="M265.89,-112.48C238.19,-101.21 198.29,-79.94 215.66,-56 227.8,-39.27 281.07,-25.5 317.76,-17.77"/>
<polygon fill="midnightblue" stroke="midnightblue" points="318.52,-21.18 327.62,-15.75 317.12,-14.33 318.52,-21.18"/>
</g>
<!-- Node11 -->
<g id="node11" class="node">
<title>Node11</title>
<g id="a_node11"><a xlink:title=" ">
<polygon fill="white" stroke="#bfbfbf" points="225.16,-56.5 225.16,-75.5 284.16,-75.5 284.16,-56.5 225.16,-56.5"/>
<text text-anchor="middle" x="254.66" y="-63.5" font-family="Helvetica" font-size="10.00">functional</text>
</a>
</g>
</g>
<!-- Node9&#45;&gt;Node11 -->
<g id="edge13" class="edge">
<title>Node9&#45;&gt;Node11</title>
<path fill="none" stroke="midnightblue" d="M283.88,-112.08C278.99,-104.53 271.83,-93.49 265.83,-84.23"/>
<polygon fill="midnightblue" stroke="midnightblue" points="268.71,-82.24 260.33,-75.75 262.83,-86.05 268.71,-82.24"/>
</g>
<!-- Node12 -->
<g id="node12" class="node">
<title>Node12</title>
<g id="a_node12"><a xlink:title=" ">
<polygon fill="white" stroke="#bfbfbf" points="302.66,-56.5 302.66,-75.5 360.66,-75.5 360.66,-56.5 302.66,-56.5"/>
<text text-anchor="middle" x="331.66" y="-63.5" font-family="Helvetica" font-size="10.00">exception</text>
</a>
</g>
</g>
<!-- Node9&#45;&gt;Node12 -->
<g id="edge15" class="edge">
<title>Node9&#45;&gt;Node12</title>
<path fill="none" stroke="midnightblue" d="M296.6,-112.08C302.59,-104.38 311.41,-93.03 318.71,-83.65"/>
<polygon fill="midnightblue" stroke="midnightblue" points="321.48,-85.79 324.85,-75.75 315.95,-81.5 321.48,-85.79"/>
</g>
<!-- Node9&#45;&gt;Node13 -->
<g id="edge16" class="edge">
<title>Node9&#45;&gt;Node13</title>
<path fill="none" stroke="midnightblue" d="M327.06,-112.44C368.05,-103.06 433.92,-87.99 478.45,-77.8"/>
<polygon fill="midnightblue" stroke="midnightblue" points="479.47,-81.16 488.44,-75.52 477.91,-74.34 479.47,-81.16"/>
</g>
<!-- Node18 -->
<g id="node18" class="node">
<title>Node18</title>
<g id="a_node18"><a xlink:title=" ">
<polygon fill="white" stroke="#bfbfbf" points="379.16,-56.5 379.16,-75.5 464.16,-75.5 464.16,-56.5 379.16,-56.5"/>
<text text-anchor="middle" x="421.66" y="-63.5" font-family="Helvetica" font-size="10.00">spdlog/spdlog.h</text>
</a>
</g>
</g>
<!-- Node9&#45;&gt;Node18 -->
<g id="edge24" class="edge">
<title>Node9&#45;&gt;Node18</title>
<path fill="none" stroke="midnightblue" d="M310.58,-112.44C332.4,-103.52 366.81,-89.44 391.55,-79.32"/>
<polygon fill="midnightblue" stroke="midnightblue" points="392.91,-82.54 400.84,-75.52 390.26,-76.06 392.91,-82.54"/>
</g>
<!-- Node13&#45;&gt;Node2 -->
<g id="edge19" class="edge">
<title>Node13&#45;&gt;Node2</title>
<path fill="none" stroke="midnightblue" d="M482.55,-57.41C479.54,-56.92 476.56,-56.45 473.66,-56 366.24,-39.47 238.86,-23.24 177.04,-15.57"/>
<polygon fill="midnightblue" stroke="midnightblue" points="177.34,-12.08 166.99,-14.33 176.48,-19.03 177.34,-12.08"/>
</g>
<!-- Node13&#45;&gt;Node3 -->
<g id="edge18" class="edge">
<title>Node13&#45;&gt;Node3</title>
<path fill="none" stroke="midnightblue" d="M484.94,-56.44C435.07,-45.96 351.41,-28.39 304.09,-18.44"/>
<polygon fill="midnightblue" stroke="midnightblue" points="304.51,-14.96 294,-16.32 303.07,-21.81 304.51,-14.96"/>
</g>
<!-- Node13&#45;&gt;Node10 -->
<g id="edge17" class="edge">
<title>Node13&#45;&gt;Node10</title>
<path fill="none" stroke="midnightblue" d="M498.41,-56.44C468.88,-47.17 421.64,-32.34 389.21,-22.16"/>
<polygon fill="midnightblue" stroke="midnightblue" points="390.25,-18.82 379.66,-19.16 388.15,-25.5 390.25,-18.82"/>
</g>
<!-- Node14 -->
<g id="node14" class="node">
<title>Node14</title>
<g id="a_node14"><a xlink:title=" ">
<polygon fill="white" stroke="#bfbfbf" points="406.16,-0.5 406.16,-19.5 449.16,-19.5 449.16,-0.5 406.16,-0.5"/>
<text text-anchor="middle" x="427.66" y="-7.5" font-family="Helvetica" font-size="10.00">vector</text>
</a>
</g>
</g>
<!-- Node13&#45;&gt;Node14 -->
<g id="edge20" class="edge">
<title>Node13&#45;&gt;Node14</title>
<path fill="none" stroke="midnightblue" d="M509.92,-56.32C494.34,-47.74 470.28,-34.49 452.2,-24.52"/>
<polygon fill="midnightblue" stroke="midnightblue" points="453.81,-21.42 443.37,-19.65 450.44,-27.55 453.81,-21.42"/>
</g>
<!-- Node15 -->
<g id="node15" class="node">
<title>Node15</title>
<g id="a_node15"><a xlink:title=" ">
<polygon fill="white" stroke="#bfbfbf" points="467.66,-0.5 467.66,-19.5 517.66,-19.5 517.66,-0.5 467.66,-0.5"/>
<text text-anchor="middle" x="492.66" y="-7.5" font-family="Helvetica" font-size="10.00">iomanip</text>
</a>
</g>
</g>
<!-- Node13&#45;&gt;Node15 -->
<g id="edge21" class="edge">
<title>Node13&#45;&gt;Node15</title>
<path fill="none" stroke="midnightblue" d="M520.21,-56.08C515.65,-48.61 508.99,-37.72 503.37,-28.52"/>
<polygon fill="midnightblue" stroke="midnightblue" points="506.21,-26.46 498.01,-19.75 500.24,-30.11 506.21,-26.46"/>
</g>
<!-- Node16 -->
<g id="node16" class="node">
<title>Node16</title>
<g id="a_node16"><a xlink:title=" ">
<polygon fill="white" stroke="#bfbfbf" points="535.66,-0.5 535.66,-19.5 579.66,-19.5 579.66,-0.5 535.66,-0.5"/>
<text text-anchor="middle" x="557.66" y="-7.5" font-family="Helvetica" font-size="10.00">cmath</text>
</a>
</g>
</g>
<!-- Node13&#45;&gt;Node16 -->
<g id="edge22" class="edge">
<title>Node13&#45;&gt;Node16</title>
<path fill="none" stroke="midnightblue" d="M530.95,-56.08C535.37,-48.61 541.82,-37.72 547.28,-28.52"/>
<polygon fill="midnightblue" stroke="midnightblue" points="550.39,-30.14 552.48,-19.75 544.37,-26.57 550.39,-30.14"/>
</g>
<!-- Node17 -->
<g id="node17" class="node">
<title>Node17</title>
<g id="a_node17"><a xlink:title=" ">
<polygon fill="white" stroke="#bfbfbf" points="597.66,-0.5 597.66,-19.5 637.66,-19.5 637.66,-0.5 597.66,-0.5"/>
<text text-anchor="middle" x="617.66" y="-7.5" font-family="Helvetica" font-size="10.00">limits</text>
</a>
</g>
</g>
<!-- Node13&#45;&gt;Node17 -->
<g id="edge23" class="edge">
<title>Node13&#45;&gt;Node17</title>
<path fill="none" stroke="midnightblue" d="M540.44,-56.32C554.93,-47.82 577.23,-34.73 594.15,-24.8"/>
<polygon fill="midnightblue" stroke="midnightblue" points="596.06,-27.74 602.92,-19.65 592.52,-21.7 596.06,-27.74"/>
</g>
</g>
</svg>
        <g id="navigator" transform="translate(0 0)" fill="#404254">
                <rect fill="#f2f5e9" fill-opacity="0.5" stroke="#606060" stroke-width=".5" x="0" y="0" width="60" height="60"/>
                <use id="zoomplus" xlink:href="#zoomPlus" x="17" y="9" onmousedown="handleZoom(evt,'in')"/>
                <use id="zoomminus" xlink:href="#zoomMin" x="42" y="9" onmousedown="handleZoom(evt,'out')"/>
                <use id="reset" xlink:href="#resetDef" x="30" y="36" onmousedown="handleReset()"/>
                <g id="arrowUp" xlink:href="#dirArrow" transform="translate(30 24)" onmousedown="handlePan(0,-1)">
                  <use xlink:href="#rim" fill="#404040">
                        <set attributeName="fill" to="#808080" begin="arrowUp.mouseover" end="arrowUp.mouseout"/>
                  </use>
                  <path fill="none" stroke="white" stroke-width="1.5" d="M0,-3.0v7 M-2.5,-0.5L0,-3.0L2.5,-0.5"/>
                </g>
                <g id="arrowRight" xlink:href="#dirArrow" transform="rotate(90) translate(36 -43)" onmousedown="handlePan(1,0)">
                  <use xlink:href="#rim" fill="#404040">
                        <set attributeName="fill" to="#808080" begin="arrowRight.mouseover" end="arrowRight.mouseout"/>
                  </use>
                  <path fill="none" stroke="white" stroke-width="1.5" d="M0,-3.0v7 M-2.5,-0.5L0,-3.0L2.5,-0.5"/>
                </g>
                <g id="arrowDown" xlink:href="#dirArrow" transform="rotate(180) translate(-30 -48)" onmousedown="handlePan(0,1)">
                  <use xlink:href="#rim" fill="#404040">
                        <set attributeName="fill" to="#808080" begin="arrowDown.mouseover" end="arrowDown.mouseout"/>
                  </use>
                  <path fill="none" stroke="white" stroke-width="1.5" d="M0,-3.0v7 M-2.5,-0.5L0,-3.0L2.5,-0.5"/>
                </g>
                <g id="arrowLeft" xlink:href="#dirArrow" transform="rotate(270) translate(-36 17)" onmousedown="handlePan(-1,0)">
                  <use xlink:href="#rim" fill="#404040">
                        <set attributeName="fill" to="#808080" begin="arrowLeft.mouseover" end="arrowLeft.mouseout"/>
                  </use>
                  <path fill="none" stroke="white" stroke-width="1.5" d="M0,-3.0v7 M-2.5,-0.5L0,-3.0L2.5,-0.5"/>
                </g>
        </g>
        <svg viewBox="0 0 15 15" width="100%" height="30px" preserveAspectRatio="xMaxYMin meet">
         <g id="arrow_out" transform="scale(0.3 0.3)">
          <a xlink:href="YamlHelper_8h__incl_org.svg" target="_base">
           <rect id="button" ry="5" rx="5" y="6" x="6" height="38" width="38"
                fill="#f2f5e9" fill-opacity="0.5" stroke="#606060" stroke-width="1.0"/>
           <path id="arrow"
             d="M 11.500037,31.436501 C 11.940474,20.09759 22.043105,11.32322 32.158766,21.979434 L 37.068811,17.246167 C 37.068811,17.246167 37.088388,32 37.088388,32 L 22.160133,31.978069 C 22.160133,31.978069 26.997745,27.140456 26.997745,27.140456 C 18.528582,18.264221 13.291696,25.230495 11.500037,31.436501 z"
             style="fill:#404040;"/>
          </a>
         </g>
        </svg>
</svg>
