<?xml version="1.0" encoding="UTF-8" standalone="no"?>
<!DOCTYPE svg PUBLIC "-//W3C//DTD SVG 1.1//EN"
 "http://www.w3.org/Graphics/SVG/1.1/DTD/svg11.dtd">
<!-- Generated by graphviz version 2.44.0 (0)
 -->
<!-- Title: Manager/Monitor.h Pages: 1 -->
<svg width="2836pt" height="419pt"
 viewBox="0.00 0.00 2836.00 419.00" xmlns="http://www.w3.org/2000/svg" xmlns:xlink="http://www.w3.org/1999/xlink">
<g id="graph0" class="graph" transform="scale(1 1) rotate(0) translate(4 415)">
<title>Manager/Monitor.h</title>
<polygon fill="white" stroke="transparent" points="-4,4 -4,-415 2832,-415 2832,4 -4,4"/>
<!-- Node1 -->
<g id="node1" class="node">
<title>Node1</title>
<g id="a_node1"><a xlink:title="System and monitoring utilities for printing system information and status updates.">
<polygon fill="#bfbfbf" stroke="black" points="1504.5,-391.5 1504.5,-410.5 1602.5,-410.5 1602.5,-391.5 1504.5,-391.5"/>
<text text-anchor="middle" x="1553.5" y="-398.5" font-family="Helvetica" font-size="10.00">Manager/Monitor.h</text>
</a>
</g>
</g>
<!-- Node2 -->
<g id="node2" class="node">
<title>Node2</title>
<g id="a_node2"><a xlink:href="MaCh3Modes_8h.html" target="_top" xlink:title=" ">
<polygon fill="white" stroke="black" points="196.5,-274 196.5,-293 322.5,-293 322.5,-274 196.5,-274"/>
<text text-anchor="middle" x="259.5" y="-281" font-family="Helvetica" font-size="10.00">Manager/MaCh3Modes.h</text>
</a>
</g>
</g>
<!-- Node1&#45;&gt;Node2 -->
<g id="edge1" class="edge">
<title>Node1&#45;&gt;Node2</title>
<path fill="none" stroke="midnightblue" d="M1494.25,-396.24C1319.96,-384.92 793.95,-348.83 359.5,-299 344.77,-297.31 328.87,-295.16 314.18,-293.03"/>
<polygon fill="midnightblue" stroke="midnightblue" points="1494.29,-399.75 1504.49,-396.91 1494.74,-392.77 1494.29,-399.75"/>
</g>
<!-- Node38 -->
<g id="node21" class="node">
<title>Node38</title>
<g id="a_node21"><a xlink:href="Manager_8h.html" target="_top" xlink:title=" ">
<polygon fill="white" stroke="black" points="1502,-335.5 1502,-354.5 1605,-354.5 1605,-335.5 1502,-335.5"/>
<text text-anchor="middle" x="1553.5" y="-342.5" font-family="Helvetica" font-size="10.00">Manager/Manager.h</text>
</a>
</g>
</g>
<!-- Node1&#45;&gt;Node38 -->
<g id="edge22" class="edge">
<title>Node1&#45;&gt;Node38</title>
<path fill="none" stroke="midnightblue" d="M1553.5,-380.8C1553.5,-371.91 1553.5,-361.78 1553.5,-354.75"/>
<polygon fill="midnightblue" stroke="midnightblue" points="1550,-381.08 1553.5,-391.08 1557,-381.08 1550,-381.08"/>
</g>
<!-- Node78 -->
<g id="node50" class="node">
<title>Node78</title>
<g id="a_node50"><a xlink:href="Monitor_8cpp.html" target="_top" xlink:title=" ">
<polygon fill="white" stroke="black" points="1623.5,-335.5 1623.5,-354.5 1731.5,-354.5 1731.5,-335.5 1623.5,-335.5"/>
<text text-anchor="middle" x="1677.5" y="-342.5" font-family="Helvetica" font-size="10.00">Manager/Monitor.cpp</text>
</a>
</g>
</g>
<!-- Node1&#45;&gt;Node78 -->
<g id="edge73" class="edge">
<title>Node1&#45;&gt;Node78</title>
<path fill="none" stroke="midnightblue" d="M1582.51,-387.37C1605.73,-377.26 1637.66,-363.35 1657.94,-354.52"/>
<polygon fill="midnightblue" stroke="midnightblue" points="1580.92,-384.24 1573.15,-391.44 1583.71,-390.66 1580.92,-384.24"/>
</g>
<!-- Node3 -->
<g id="node3" class="node">
<title>Node3</title>
<g id="a_node3"><a xlink:href="MaCh3Modes_8cpp.html" target="_top" xlink:title=" ">
<polygon fill="white" stroke="black" points="0,-207 0,-226 137,-226 137,-207 0,-207"/>
<text text-anchor="middle" x="68.5" y="-214" font-family="Helvetica" font-size="10.00">Manager/MaCh3Modes.cpp</text>
</a>
</g>
</g>
<!-- Node2&#45;&gt;Node3 -->
<g id="edge2" class="edge">
<title>Node2&#45;&gt;Node3</title>
<path fill="none" stroke="midnightblue" d="M224.54,-270.6C186.67,-257.71 127.19,-237.47 93.66,-226.06"/>
<polygon fill="midnightblue" stroke="midnightblue" points="223.54,-273.96 234.14,-273.87 225.8,-267.33 223.54,-273.96"/>
</g>
<!-- Node4 -->
<g id="node4" class="node">
<title>Node4</title>
<g id="a_node4"><a xlink:href="BinnedSplineHandler_8h.html" target="_top" xlink:title=" ">
<polygon fill="white" stroke="black" points="155,-207 155,-226 306,-226 306,-207 155,-207"/>
<text text-anchor="middle" x="230.5" y="-214" font-family="Helvetica" font-size="10.00">Splines/BinnedSplineHandler.h</text>
</a>
</g>
</g>
<!-- Node2&#45;&gt;Node4 -->
<g id="edge3" class="edge">
<title>Node2&#45;&gt;Node4</title>
<path fill="none" stroke="midnightblue" d="M251.38,-264.29C245.81,-251.81 238.67,-235.81 234.35,-226.13"/>
<polygon fill="midnightblue" stroke="midnightblue" points="248.32,-266.03 255.59,-273.73 254.71,-263.18 248.32,-266.03"/>
</g>
<!-- Node12 -->
<g id="node7" class="node">
<title>Node12</title>
<g id="a_node7"><a xlink:href="SampleHandlerInterface_8h.html" target="_top" xlink:title=" ">
<polygon fill="white" stroke="black" points="524.5,-207 524.5,-226 696.5,-226 696.5,-207 524.5,-207"/>
<text text-anchor="middle" x="610.5" y="-214" font-family="Helvetica" font-size="10.00">Samples/SampleHandlerInterface.h</text>
</a>
</g>
</g>
<!-- Node2&#45;&gt;Node12 -->
<g id="edge6" class="edge">
<title>Node2&#45;&gt;Node12</title>
<path fill="none" stroke="midnightblue" d="M316,-272.04C385.04,-259.25 500.51,-237.87 564.43,-226.03"/>
<polygon fill="midnightblue" stroke="midnightblue" points="314.94,-268.67 305.75,-273.94 316.22,-275.56 314.94,-268.67"/>
</g>
<!-- Node5 -->
<g id="node5" class="node">
<title>Node5</title>
<g id="a_node5"><a xlink:href="BinnedSplineHandler_8cpp.html" target="_top" xlink:title=" ">
<polygon fill="white" stroke="black" points="107,-140 107,-159 268,-159 268,-140 107,-140"/>
<text text-anchor="middle" x="187.5" y="-147" font-family="Helvetica" font-size="10.00">Splines/BinnedSplineHandler.cpp</text>
</a>
</g>
</g>
<!-- Node4&#45;&gt;Node5 -->
<g id="edge4" class="edge">
<title>Node4&#45;&gt;Node5</title>
<path fill="none" stroke="midnightblue" d="M218.95,-198.03C210.62,-185.45 199.74,-169.01 193.21,-159.13"/>
<polygon fill="midnightblue" stroke="midnightblue" points="216.26,-200.32 224.7,-206.73 222.1,-196.46 216.26,-200.32"/>
</g>
<!-- Node6 -->
<g id="node6" class="node">
<title>Node6</title>
<g id="a_node6"><a xlink:href="SampleHandlerBase_8h.html" target="_top" xlink:title=" ">
<polygon fill="white" stroke="red" points="287,-73 287,-92 442,-92 442,-73 287,-73"/>
<text text-anchor="middle" x="364.5" y="-80" font-family="Helvetica" font-size="10.00">Samples/SampleHandlerBase.h</text>
</a>
</g>
</g>
<!-- Node4&#45;&gt;Node6 -->
<g id="edge5" class="edge">
<title>Node4&#45;&gt;Node6</title>
<path fill="none" stroke="midnightblue" d="M246.48,-199.76C275,-171.66 333.76,-113.78 355.85,-92.02"/>
<polygon fill="midnightblue" stroke="midnightblue" points="243.96,-197.33 239.29,-206.84 248.87,-202.31 243.96,-197.33"/>
</g>
<!-- Node12&#45;&gt;Node6 -->
<g id="edge7" class="edge">
<title>Node12&#45;&gt;Node6</title>
<path fill="none" stroke="midnightblue" d="M553.88,-204.97C506.02,-195.26 441.92,-180.11 420.5,-165 393.28,-145.8 375.16,-108.9 367.97,-92.15"/>
<polygon fill="midnightblue" stroke="midnightblue" points="553.33,-208.43 563.83,-206.96 554.71,-201.57 553.33,-208.43"/>
</g>
<!-- Node13 -->
<g id="node8" class="node">
<title>Node13</title>
<g id="a_node8"><a xlink:href="SampleHandlerInterface_8cpp.html" target="_top" xlink:title=" ">
<polygon fill="white" stroke="black" points="429.5,-140 429.5,-159 611.5,-159 611.5,-140 429.5,-140"/>
<text text-anchor="middle" x="520.5" y="-147" font-family="Helvetica" font-size="10.00">Samples/SampleHandlerInterface.cpp</text>
</a>
</g>
</g>
<!-- Node12&#45;&gt;Node13 -->
<g id="edge8" class="edge">
<title>Node12&#45;&gt;Node13</title>
<path fill="none" stroke="midnightblue" d="M589.82,-200.57C572.06,-187.74 547.06,-169.69 532.45,-159.13"/>
<polygon fill="midnightblue" stroke="midnightblue" points="588.21,-203.72 598.36,-206.73 592.3,-198.04 588.21,-203.72"/>
</g>
<!-- Node14 -->
<g id="node9" class="node">
<title>Node14</title>
<g id="a_node9"><a xlink:href="SampleHandlerNuDockBase_8h.html" target="_top" xlink:title="Client&#45;side sample handler that delegates reweighting and likelihood evaluation to a remote NuDock se...">
<polygon fill="white" stroke="black" points="560.5,-67.5 560.5,-97.5 718.5,-97.5 718.5,-67.5 560.5,-67.5"/>
<text text-anchor="start" x="568.5" y="-85.5" font-family="Helvetica" font-size="10.00">NuDock/SampleHandlerNuDock</text>
<text text-anchor="middle" x="639.5" y="-74.5" font-family="Helvetica" font-size="10.00">Base.h</text>
</a>
</g>
</g>
<!-- Node12&#45;&gt;Node14 -->
<g id="edge9" class="edge">
<title>Node12&#45;&gt;Node14</title>
<path fill="none" stroke="midnightblue" d="M614.59,-196.89C620.44,-170.24 631.09,-121.8 636.36,-97.78"/>
<polygon fill="midnightblue" stroke="midnightblue" points="611.13,-196.32 612.4,-206.84 617.97,-197.82 611.13,-196.32"/>
</g>
<!-- Node16 -->
<g id="node11" class="node">
<title>Node16</title>
<g id="a_node11"><a xlink:href="FitterBase_8h.html" target="_top" xlink:title=" ">
<polygon fill="white" stroke="black" points="1429,-140 1429,-159 1530,-159 1530,-140 1429,-140"/>
<text text-anchor="middle" x="1479.5" y="-147" font-family="Helvetica" font-size="10.00">Fitters/FitterBase.h</text>
</a>
</g>
</g>
<!-- Node12&#45;&gt;Node16 -->
<g id="edge11" class="edge">
<title>Node12&#45;&gt;Node16</title>
<path fill="none" stroke="midnightblue" d="M693.77,-205.9C710.24,-204.15 727.41,-202.43 743.5,-201 1000.57,-178.18 1308.94,-160 1428.58,-153.29"/>
<polygon fill="midnightblue" stroke="midnightblue" points="693.19,-202.45 683.62,-207 693.94,-209.41 693.19,-202.45"/>
</g>
<!-- Node36 -->
<g id="node20" class="node">
<title>Node36</title>
<g id="a_node20"><a xlink:href="SampleSummary_8h.html" target="_top" xlink:title=" ">
<polygon fill="white" stroke="red" points="2133,-140 2133,-159 2264,-159 2264,-140 2133,-140"/>
<text text-anchor="middle" x="2198.5" y="-147" font-family="Helvetica" font-size="10.00">Fitters/SampleSummary.h</text>
</a>
</g>
</g>
<!-- Node12&#45;&gt;Node36 -->
<g id="edge21" class="edge">
<title>Node12&#45;&gt;Node36</title>
<path fill="none" stroke="midnightblue" d="M690.01,-205.86C707.61,-204 726.17,-202.24 743.5,-201 1019.4,-181.2 1887.11,-158.34 2132.98,-152.13"/>
<polygon fill="midnightblue" stroke="midnightblue" points="689.35,-202.41 679.79,-206.97 690.1,-209.37 689.35,-202.41"/>
</g>
<!-- Node15 -->
<g id="node10" class="node">
<title>Node15</title>
<g id="a_node10"><a xlink:href="SampleHandlerNuDockBase_8cpp.html" target="_top" xlink:title=" ">
<polygon fill="white" stroke="black" points="614.5,-0.5 614.5,-30.5 772.5,-30.5 772.5,-0.5 614.5,-0.5"/>
<text text-anchor="start" x="622.5" y="-18.5" font-family="Helvetica" font-size="10.00">NuDock/SampleHandlerNuDock</text>
<text text-anchor="middle" x="693.5" y="-7.5" font-family="Helvetica" font-size="10.00">Base.cpp</text>
</a>
</g>
</g>
<!-- Node14&#45;&gt;Node15 -->
<g id="edge10" class="edge">
<title>Node14&#45;&gt;Node15</title>
<path fill="none" stroke="midnightblue" d="M657.82,-59.45C665.75,-49.9 674.8,-39 681.81,-30.58"/>
<polygon fill="midnightblue" stroke="midnightblue" points="654.92,-57.47 651.22,-67.4 660.3,-61.94 654.92,-57.47"/>
</g>
<!-- Node17 -->
<g id="node12" class="node">
<title>Node17</title>
<g id="a_node12"><a xlink:href="NuDockServerBase_8h.html" target="_top" xlink:title="Base class for the MaCh3 NuDock server, exposing fit internals via a JSON&#45;based request/response prot...">
<polygon fill="white" stroke="red" points="1099,-73 1099,-92 1250,-92 1250,-73 1099,-73"/>
<text text-anchor="middle" x="1174.5" y="-80" font-family="Helvetica" font-size="10.00">NuDock/NuDockServerBase.h</text>
</a>
</g>
</g>
<!-- Node16&#45;&gt;Node17 -->
<g id="edge12" class="edge">
<title>Node16&#45;&gt;Node17</title>
<path fill="none" stroke="midnightblue" d="M1429.31,-137.8C1369.29,-125.01 1270.02,-103.86 1214.78,-92.08"/>
<polygon fill="midnightblue" stroke="midnightblue" points="1428.8,-141.27 1439.31,-139.94 1430.26,-134.43 1428.8,-141.27"/>
</g>
<!-- Node18 -->
<g id="node13" class="node">
<title>Node18</title>
<g id="a_node13"><a xlink:href="FitterBase_8cpp.html" target="_top" xlink:title=" ">
<polygon fill="white" stroke="black" points="1714.5,-73 1714.5,-92 1826.5,-92 1826.5,-73 1714.5,-73"/>
<text text-anchor="middle" x="1770.5" y="-80" font-family="Helvetica" font-size="10.00">Fitters/FitterBase.cpp</text>
</a>
</g>
</g>
<!-- Node16&#45;&gt;Node18 -->
<g id="edge13" class="edge">
<title>Node16&#45;&gt;Node18</title>
<path fill="none" stroke="midnightblue" d="M1527.75,-137.72C1585.05,-124.92 1679.47,-103.83 1732.07,-92.08"/>
<polygon fill="midnightblue" stroke="midnightblue" points="1526.84,-134.34 1517.84,-139.94 1528.36,-141.17 1526.84,-134.34"/>
</g>
<!-- Node19 -->
<g id="node14" class="node">
<title>Node19</title>
<g id="a_node14"><a xlink:href="LikelihoodFit_8h.html" target="_top" xlink:title=" ">
<polygon fill="white" stroke="red" points="1306.5,-73 1306.5,-92 1416.5,-92 1416.5,-73 1306.5,-73"/>
<text text-anchor="middle" x="1361.5" y="-80" font-family="Helvetica" font-size="10.00">Fitters/LikelihoodFit.h</text>
</a>
</g>
</g>
<!-- Node16&#45;&gt;Node19 -->
<g id="edge14" class="edge">
<title>Node16&#45;&gt;Node19</title>
<path fill="none" stroke="midnightblue" d="M1454.61,-134.79C1431.22,-121.9 1396.94,-103.02 1377.16,-92.13"/>
<polygon fill="midnightblue" stroke="midnightblue" points="1453.14,-137.97 1463.59,-139.73 1456.52,-131.84 1453.14,-137.97"/>
</g>
<!-- Node21 -->
<g id="node15" class="node">
<title>Node21</title>
<g id="a_node15"><a xlink:href="MaCh3Factory_8h.html" target="_top" xlink:title="Factory methods for MaCh3 software which streamline initialisation of different objects.">
<polygon fill="white" stroke="red" points="1218,-6 1218,-25 1339,-25 1339,-6 1218,-6"/>
<text text-anchor="middle" x="1278.5" y="-13" font-family="Helvetica" font-size="10.00">Fitters/MaCh3Factory.h</text>
</a>
</g>
</g>
<!-- Node16&#45;&gt;Node21 -->
<g id="edge16" class="edge">
<title>Node16&#45;&gt;Node21</title>
<path fill="none" stroke="midnightblue" d="M1418.7,-146.97C1378.92,-142.7 1328.72,-130.55 1297.5,-98 1278.09,-77.76 1277.15,-41.72 1277.86,-25.2"/>
<polygon fill="midnightblue" stroke="midnightblue" points="1418.55,-150.48 1428.83,-147.92 1419.2,-143.51 1418.55,-150.48"/>
</g>
<!-- Node28 -->
<g id="node16" class="node">
<title>Node28</title>
<g id="a_node16"><a xlink:href="MCMCBase_8h.html" target="_top" xlink:title=" ">
<polygon fill="white" stroke="red" points="1434.5,-73 1434.5,-92 1544.5,-92 1544.5,-73 1434.5,-73"/>
<text text-anchor="middle" x="1489.5" y="-80" font-family="Helvetica" font-size="10.00">Fitters/MCMCBase.h</text>
</a>
</g>
</g>
<!-- Node16&#45;&gt;Node28 -->
<g id="edge17" class="edge">
<title>Node16&#45;&gt;Node28</title>
<path fill="none" stroke="midnightblue" d="M1482.42,-129.54C1484.32,-117.17 1486.71,-101.62 1488.17,-92.13"/>
<polygon fill="midnightblue" stroke="midnightblue" points="1478.91,-129.32 1480.85,-139.73 1485.83,-130.38 1478.91,-129.32"/>
</g>
<!-- Node34 -->
<g id="node17" class="node">
<title>Node34</title>
<g id="a_node17"><a xlink:href="PredictiveThrower_8h.html" target="_top" xlink:title=" ">
<polygon fill="white" stroke="red" points="1562.5,-73 1562.5,-92 1696.5,-92 1696.5,-73 1562.5,-73"/>
<text text-anchor="middle" x="1629.5" y="-80" font-family="Helvetica" font-size="10.00">Fitters/PredictiveThrower.h</text>
</a>
</g>
</g>
<!-- Node16&#45;&gt;Node34 -->
<g id="edge18" class="edge">
<title>Node16&#45;&gt;Node34</title>
<path fill="none" stroke="midnightblue" d="M1508.85,-135.78C1538.56,-122.91 1583.68,-103.35 1609.5,-92.17"/>
<polygon fill="midnightblue" stroke="midnightblue" points="1507.2,-132.68 1499.42,-139.87 1509.99,-139.1 1507.2,-132.68"/>
</g>
<!-- Node25 -->
<g id="node18" class="node">
<title>Node25</title>
<g id="a_node18"><a xlink:href="fitters_8h.html" target="_top" xlink:title=" ">
<polygon fill="white" stroke="black" points="1845,-73 1845,-92 1928,-92 1928,-73 1845,-73"/>
<text text-anchor="middle" x="1886.5" y="-80" font-family="Helvetica" font-size="10.00">python/fitters.h</text>
</a>
</g>
</g>
<!-- Node16&#45;&gt;Node25 -->
<g id="edge19" class="edge">
<title>Node16&#45;&gt;Node25</title>
<path fill="none" stroke="midnightblue" d="M1540.43,-142.41C1611.67,-134.7 1732.92,-119.75 1835.5,-98 1843.24,-96.36 1851.54,-94.18 1859.14,-92.02"/>
<polygon fill="midnightblue" stroke="midnightblue" points="1539.86,-138.95 1530.29,-143.5 1540.6,-145.91 1539.86,-138.95"/>
</g>
<!-- Node19&#45;&gt;Node21 -->
<g id="edge15" class="edge">
<title>Node19&#45;&gt;Node21</title>
<path fill="none" stroke="midnightblue" d="M1342.43,-66.57C1326.05,-53.74 1303,-35.69 1289.52,-25.13"/>
<polygon fill="midnightblue" stroke="midnightblue" points="1340.28,-69.32 1350.31,-72.73 1344.59,-63.81 1340.28,-69.32"/>
</g>
<!-- Node10 -->
<g id="node19" class="node">
<title>Node10</title>
<g id="a_node19"><a xlink:href="pyMaCh3_8h.html" target="_top" xlink:title=" ">
<polygon fill="white" stroke="red" points="1837,-6 1837,-25 1936,-25 1936,-6 1837,-6"/>
<text text-anchor="middle" x="1886.5" y="-13" font-family="Helvetica" font-size="10.00">python/pyMaCh3.h</text>
</a>
</g>
</g>
<!-- Node25&#45;&gt;Node10 -->
<g id="edge20" class="edge">
<title>Node25&#45;&gt;Node10</title>
<path fill="none" stroke="midnightblue" d="M1886.5,-62.54C1886.5,-50.17 1886.5,-34.62 1886.5,-25.13"/>
<polygon fill="midnightblue" stroke="midnightblue" points="1883,-62.73 1886.5,-72.73 1890,-62.73 1883,-62.73"/>
</g>
<!-- Node38&#45;&gt;Node12 -->
<g id="edge27" class="edge">
<title>Node38&#45;&gt;Node12</title>
<path fill="none" stroke="midnightblue" d="M1491.59,-342.91C1309.29,-339.38 782.67,-326.87 710.5,-299 669.55,-283.18 632.69,-243.81 617.66,-226.23"/>
<polygon fill="midnightblue" stroke="midnightblue" points="1491.75,-346.41 1501.81,-343.1 1491.88,-339.41 1491.75,-346.41"/>
</g>
<!-- Node38&#45;&gt;Node16 -->
<g id="edge33" class="edge">
<title>Node38&#45;&gt;Node16</title>
<path fill="none" stroke="midnightblue" d="M1513.81,-331.58C1498.41,-324.59 1482.36,-314.15 1473.5,-299 1459.56,-275.17 1473.12,-187.41 1477.94,-159.26"/>
<polygon fill="midnightblue" stroke="midnightblue" points="1512.67,-334.89 1523.25,-335.49 1515.35,-328.43 1512.67,-334.89"/>
</g>
<!-- Node39 -->
<g id="node22" class="node">
<title>Node39</title>
<g id="a_node22"><a xlink:href="Manager_8cpp.html" target="_top" xlink:title=" ">
<polygon fill="white" stroke="black" points="1123,-274 1123,-293 1236,-293 1236,-274 1123,-274"/>
<text text-anchor="middle" x="1179.5" y="-281" font-family="Helvetica" font-size="10.00">Manager/Manager.cpp</text>
</a>
</g>
</g>
<!-- Node38&#45;&gt;Node39 -->
<g id="edge23" class="edge">
<title>Node38&#45;&gt;Node39</title>
<path fill="none" stroke="midnightblue" d="M1491.61,-335.81C1430.26,-327.45 1333.68,-313.66 1250.5,-299 1240.34,-297.21 1229.4,-295.08 1219.23,-293.01"/>
<polygon fill="midnightblue" stroke="midnightblue" points="1491.52,-339.32 1501.9,-337.2 1492.46,-332.39 1491.52,-339.32"/>
</g>
<!-- Node40 -->
<g id="node23" class="node">
<title>Node40</title>
<g id="a_node23"><a xlink:href="BinningHandler_8h.html" target="_top" xlink:title=" ">
<polygon fill="white" stroke="black" points="368.5,-274 368.5,-293 500.5,-293 500.5,-274 368.5,-274"/>
<text text-anchor="middle" x="434.5" y="-281" font-family="Helvetica" font-size="10.00">Samples/BinningHandler.h</text>
</a>
</g>
</g>
<!-- Node38&#45;&gt;Node40 -->
<g id="edge24" class="edge">
<title>Node38&#45;&gt;Node40</title>
<path fill="none" stroke="midnightblue" d="M1491.67,-341.47C1343.6,-335.31 957.01,-318.58 634.5,-299 589.85,-296.29 539.63,-292.65 500.69,-289.69"/>
<polygon fill="midnightblue" stroke="midnightblue" points="1491.77,-344.98 1501.91,-341.9 1492.07,-337.99 1491.77,-344.98"/>
</g>
<!-- Node42 -->
<g id="node25" class="node">
<title>Node42</title>
<g id="a_node25"><a xlink:href="NuDockFactory_8h.html" target="_top" xlink:title="Factory utilities for creating and configuring NuDock communication objects.">
<polygon fill="white" stroke="black" points="856,-140 856,-159 989,-159 989,-140 856,-140"/>
<text text-anchor="middle" x="922.5" y="-147" font-family="Helvetica" font-size="10.00">NuDock/NuDockFactory.h</text>
</a>
</g>
</g>
<!-- Node38&#45;&gt;Node42 -->
<g id="edge28" class="edge">
<title>Node38&#45;&gt;Node42</title>
<path fill="none" stroke="midnightblue" d="M1491.74,-342.82C1307.27,-338.99 771.45,-325.63 745.5,-299 715.09,-267.8 717.21,-235.74 743.5,-201 752.03,-189.74 832.54,-170.27 882.64,-159.08"/>
<polygon fill="midnightblue" stroke="midnightblue" points="1491.75,-346.32 1501.82,-343.02 1491.89,-339.32 1491.75,-346.32"/>
</g>
<!-- Node44 -->
<g id="node27" class="node">
<title>Node44</title>
<g id="a_node27"><a xlink:href="StatisticalUtils_8h.html" target="_top" xlink:title="Utility functions for statistical interpretations in MaCh3.">
<polygon fill="white" stroke="black" points="2468.5,-274 2468.5,-293 2588.5,-293 2588.5,-274 2468.5,-274"/>
<text text-anchor="middle" x="2528.5" y="-281" font-family="Helvetica" font-size="10.00">Fitters/StatisticalUtils.h</text>
</a>
</g>
</g>
<!-- Node38&#45;&gt;Node44 -->
<g id="edge34" class="edge">
<title>Node38&#45;&gt;Node44</title>
<path fill="none" stroke="midnightblue" d="M1615.09,-335.07C1990.46,-300.33 2089.81,-345.4 2459.5,-299 2470.67,-297.6 2482.73,-295.33 2493.59,-293"/>
<polygon fill="midnightblue" stroke="midnightblue" points="1614.67,-331.59 1605.04,-336.01 1615.32,-338.56 1614.67,-331.59"/>
</g>
<!-- Node50 -->
<g id="node29" class="node">
<title>Node50</title>
<g id="a_node29"><a xlink:href="DiagMCMC_8cpp.html" target="_top" xlink:title=" ">
<polygon fill="white" stroke="black" points="2282,-140 2282,-159 2423,-159 2423,-140 2282,-140"/>
<text text-anchor="middle" x="2352.5" y="-147" font-family="Helvetica" font-size="10.00">Diagnostics/DiagMCMC.cpp</text>
</a>
</g>
</g>
<!-- Node38&#45;&gt;Node50 -->
<g id="edge44" class="edge">
<title>Node38&#45;&gt;Node50</title>
<path fill="none" stroke="midnightblue" d="M1615.12,-335.39C1732.17,-330.54 2560.94,-336.92 2597.5,-299 2608.3,-287.79 2618.31,-227.38 2596.5,-201 2593.3,-197.13 2466.63,-172.36 2397.1,-159"/>
<polygon fill="midnightblue" stroke="midnightblue" points="1614.81,-331.91 1605.04,-335.99 1615.23,-338.89 1614.81,-331.91"/>
</g>
<!-- Node52 -->
<g id="node30" class="node">
<title>Node52</title>
<g id="a_node30"><a xlink:href="ReweightMCMC_8cpp.html" target="_top" xlink:title="This executable allow to reweight MCMC Chain, such technique is used to study impact of different pri...">
<polygon fill="white" stroke="black" points="2441,-140 2441,-159 2602,-159 2602,-140 2441,-140"/>
<text text-anchor="middle" x="2521.5" y="-147" font-family="Helvetica" font-size="10.00">Diagnostics/ReweightMCMC.cpp</text>
</a>
</g>
</g>
<!-- Node38&#45;&gt;Node52 -->
<g id="edge48" class="edge">
<title>Node38&#45;&gt;Node52</title>
<path fill="none" stroke="midnightblue" d="M1615.3,-335.39C1734.44,-330.52 2579.22,-337.64 2616.5,-299 2625.67,-289.5 2633.78,-231.06 2615.5,-201 2602.31,-179.32 2576.32,-166.38 2555,-159.03"/>
<polygon fill="midnightblue" stroke="midnightblue" points="1614.82,-331.91 1605.04,-335.99 1615.22,-338.9 1614.82,-331.91"/>
</g>
<!-- Node53 -->
<g id="node31" class="node">
<title>Node53</title>
<g id="a_node31"><a xlink:href="SmearChain_8cpp.html" target="_top" xlink:title="Allows you to smear contour. For example after performing sets of study one finds out that used sets ...">
<polygon fill="white" stroke="black" points="2620.5,-140 2620.5,-159 2764.5,-159 2764.5,-140 2620.5,-140"/>
<text text-anchor="middle" x="2692.5" y="-147" font-family="Helvetica" font-size="10.00">Diagnostics/SmearChain.cpp</text>
</a>
</g>
</g>
<!-- Node38&#45;&gt;Node53 -->
<g id="edge51" class="edge">
<title>Node38&#45;&gt;Node53</title>
<path fill="none" stroke="midnightblue" d="M1615.07,-335.37C1734.39,-329.95 2589.87,-330.65 2634.5,-299 2682.36,-265.06 2690.73,-185.49 2692.19,-159.14"/>
<polygon fill="midnightblue" stroke="midnightblue" points="1614.8,-331.88 1605.04,-335.98 1615.23,-338.86 1614.8,-331.88"/>
</g>
<!-- Node55 -->
<g id="node33" class="node">
<title>Node55</title>
<g id="a_node33"><a xlink:href="CombineMaCh3Chains_8cpp.html" target="_top" xlink:title="Combine chains files produced by MCMC, enforcing the condition that all the files to combine were mad...">
<polygon fill="white" stroke="black" points="1482.5,-268.5 1482.5,-298.5 1624.5,-298.5 1624.5,-268.5 1482.5,-268.5"/>
<text text-anchor="start" x="1490.5" y="-286.5" font-family="Helvetica" font-size="10.00">Diagnostics/CombineMaCh3</text>
<text text-anchor="middle" x="1553.5" y="-275.5" font-family="Helvetica" font-size="10.00">Chains.cpp</text>
</a>
</g>
</g>
<!-- Node38&#45;&gt;Node55 -->
<g id="edge43" class="edge">
<title>Node38&#45;&gt;Node55</title>
<path fill="none" stroke="midnightblue" d="M1553.5,-325.23C1553.5,-316.59 1553.5,-306.5 1553.5,-298.52"/>
<polygon fill="midnightblue" stroke="midnightblue" points="1550,-325.48 1553.5,-335.48 1557,-325.48 1550,-325.48"/>
</g>
<!-- Node56 -->
<g id="node34" class="node">
<title>Node56</title>
<g id="a_node34"><a xlink:href="GetPenaltyTerm_8cpp.html" target="_top" xlink:title="KS: This file contains the implementation of the function to extract specific penalty terms from syst...">
<polygon fill="white" stroke="black" points="1642.5,-274 1642.5,-293 1802.5,-293 1802.5,-274 1642.5,-274"/>
<text text-anchor="middle" x="1722.5" y="-281" font-family="Helvetica" font-size="10.00">Diagnostics/GetPenaltyTerm.cpp</text>
</a>
</g>
</g>
<!-- Node38&#45;&gt;Node56 -->
<g id="edge45" class="edge">
<title>Node38&#45;&gt;Node56</title>
<path fill="none" stroke="midnightblue" d="M1587.35,-332.08C1620.2,-320.52 1669.24,-303.25 1698.33,-293.01"/>
<polygon fill="midnightblue" stroke="midnightblue" points="1585.98,-328.85 1577.71,-335.48 1588.31,-335.46 1585.98,-328.85"/>
</g>
<!-- Node57 -->
<g id="node35" class="node">
<title>Node57</title>
<g id="a_node35"><a xlink:href="PlotLLHMap_8cpp.html" target="_top" xlink:title="Processing n&#45;dimensional LLHMap outputs generating 1D and 2D profiled likelihoods as defined in confi...">
<polygon fill="white" stroke="black" points="1820.5,-274 1820.5,-293 1964.5,-293 1964.5,-274 1820.5,-274"/>
<text text-anchor="middle" x="1892.5" y="-281" font-family="Helvetica" font-size="10.00">Diagnostics/PlotLLHMap.cpp</text>
</a>
</g>
</g>
<!-- Node38&#45;&gt;Node57 -->
<g id="edge46" class="edge">
<title>Node38&#45;&gt;Node57</title>
<path fill="none" stroke="midnightblue" d="M1613.08,-333.69C1665.38,-324.61 1743.5,-311.02 1811.5,-299 1822.33,-297.09 1833.98,-295.01 1844.96,-293.05"/>
<polygon fill="midnightblue" stroke="midnightblue" points="1612.23,-330.28 1602.97,-335.44 1613.42,-337.18 1612.23,-330.28"/>
</g>
<!-- Node49 -->
<g id="node36" class="node">
<title>Node49</title>
<g id="a_node36"><a xlink:href="ProcessMCMC_8cpp.html" target="_top" xlink:title="Main exectable responsible for different types of MCMC processing like drawing posteriors,...">
<polygon fill="white" stroke="black" points="1983,-274 1983,-293 2140,-293 2140,-274 1983,-274"/>
<text text-anchor="middle" x="2061.5" y="-281" font-family="Helvetica" font-size="10.00">Diagnostics/ProcessMCMC.cpp</text>
</a>
</g>
</g>
<!-- Node38&#45;&gt;Node49 -->
<g id="edge47" class="edge">
<title>Node38&#45;&gt;Node49</title>
<path fill="none" stroke="midnightblue" d="M1615.27,-334.96C1775.37,-315.48 1817.79,-319.61 1973.5,-299 1986.39,-297.29 2000.3,-295.15 2013.17,-293.03"/>
<polygon fill="midnightblue" stroke="midnightblue" points="1614.56,-331.53 1605.06,-336.22 1615.41,-338.47 1614.56,-331.53"/>
</g>
<!-- Node58 -->
<g id="node37" class="node">
<title>Node58</title>
<g id="a_node37"><a xlink:href="RHat_8cpp.html" target="_top" xlink:title="This executable calculates the &#160;estimator for Markov Chain Monte Carlo (MCMC) convergence.">
<polygon fill="white" stroke="black" points="2158,-274 2158,-293 2271,-293 2271,-274 2158,-274"/>
<text text-anchor="middle" x="2214.5" y="-281" font-family="Helvetica" font-size="10.00">Diagnostics/RHat.cpp</text>
</a>
</g>
</g>
<!-- Node38&#45;&gt;Node58 -->
<g id="edge49" class="edge">
<title>Node38&#45;&gt;Node58</title>
<path fill="none" stroke="midnightblue" d="M1615.05,-335.04C1853.19,-310.22 1916.85,-332.58 2149.5,-299 2159.8,-297.51 2170.89,-295.28 2180.94,-293.01"/>
<polygon fill="midnightblue" stroke="midnightblue" points="1614.62,-331.57 1605.05,-336.1 1615.36,-338.53 1614.62,-331.57"/>
</g>
<!-- Node59 -->
<g id="node38" class="node">
<title>Node59</title>
<g id="a_node38"><a xlink:href="RHat__HighMem_8cpp.html" target="_top" xlink:title=" ">
<polygon fill="white" stroke="black" points="2289,-274 2289,-293 2450,-293 2450,-274 2289,-274"/>
<text text-anchor="middle" x="2369.5" y="-281" font-family="Helvetica" font-size="10.00">Diagnostics/RHat_HighMem.cpp</text>
</a>
</g>
</g>
<!-- Node38&#45;&gt;Node59 -->
<g id="edge50" class="edge">
<title>Node38&#45;&gt;Node59</title>
<path fill="none" stroke="midnightblue" d="M1615.21,-335.04C1911.19,-305.9 1989.1,-330.52 2280.5,-299 2294.35,-297.5 2309.33,-295.29 2322.98,-293.05"/>
<polygon fill="midnightblue" stroke="midnightblue" points="1614.65,-331.58 1605.04,-336.05 1615.34,-338.54 1614.65,-331.58"/>
</g>
<!-- Node60 -->
<g id="node39" class="node">
<title>Node60</title>
<g id="a_node39"><a xlink:href="AdaptiveMCMCHandler_8h.html" target="_top" xlink:title=" ">
<polygon fill="white" stroke="black" points="755,-274 755,-293 936,-293 936,-274 755,-274"/>
<text text-anchor="middle" x="845.5" y="-281" font-family="Helvetica" font-size="10.00">Parameters/AdaptiveMCMCHandler.h</text>
</a>
</g>
</g>
<!-- Node38&#45;&gt;Node60 -->
<g id="edge52" class="edge">
<title>Node38&#45;&gt;Node60</title>
<path fill="none" stroke="midnightblue" d="M1491.48,-340.85C1381.36,-334.93 1144.52,-320.77 945.5,-299 930.5,-297.36 914.3,-295.19 899.39,-293.02"/>
<polygon fill="midnightblue" stroke="midnightblue" points="1491.57,-344.36 1501.74,-341.4 1491.94,-337.37 1491.57,-344.36"/>
</g>
<!-- Node62 -->
<g id="node41" class="node">
<title>Node62</title>
<g id="a_node41"><a xlink:href="ParameterHandlerBase_8h.html" target="_top" xlink:title=" ">
<polygon fill="white" stroke="black" points="1141,-201.5 1141,-231.5 1290,-231.5 1290,-201.5 1141,-201.5"/>
<text text-anchor="start" x="1149" y="-219.5" font-family="Helvetica" font-size="10.00">Parameters/ParameterHandler</text>
<text text-anchor="middle" x="1215.5" y="-208.5" font-family="Helvetica" font-size="10.00">Base.h</text>
</a>
</g>
</g>
<!-- Node38&#45;&gt;Node62 -->
<g id="edge64" class="edge">
<title>Node38&#45;&gt;Node62</title>
<path fill="none" stroke="midnightblue" d="M1491.56,-338.7C1423.14,-331.97 1318.06,-318.8 1283.5,-299 1255.36,-282.88 1233.77,-250.4 1223.03,-231.68"/>
<polygon fill="midnightblue" stroke="midnightblue" points="1491.51,-342.21 1501.8,-339.68 1492.18,-335.24 1491.51,-342.21"/>
</g>
<!-- Node73 -->
<g id="node45" class="node">
<title>Node73</title>
<g id="a_node45"><a xlink:href="ParameterTunes_8h.html" target="_top" xlink:title=" ">
<polygon fill="white" stroke="black" points="954.5,-274 954.5,-293 1104.5,-293 1104.5,-274 954.5,-274"/>
<text text-anchor="middle" x="1029.5" y="-281" font-family="Helvetica" font-size="10.00">Parameters/ParameterTunes.h</text>
</a>
</g>
</g>
<!-- Node38&#45;&gt;Node73 -->
<g id="edge65" class="edge">
<title>Node38&#45;&gt;Node73</title>
<path fill="none" stroke="midnightblue" d="M1491.85,-339.05C1406.61,-331.89 1248.01,-317.47 1113.5,-299 1101.18,-297.31 1087.91,-295.17 1075.62,-293.05"/>
<polygon fill="midnightblue" stroke="midnightblue" points="1491.62,-342.54 1501.88,-339.88 1492.21,-335.56 1491.62,-342.54"/>
</g>
<!-- Node75 -->
<g id="node47" class="node">
<title>Node75</title>
<g id="a_node47"><a xlink:href="PCAHandler_8h.html" target="_top" xlink:title=" ">
<polygon fill="white" stroke="black" points="1293,-274 1293,-293 1426,-293 1426,-274 1293,-274"/>
<text text-anchor="middle" x="1359.5" y="-281" font-family="Helvetica" font-size="10.00">Parameters/PCAHandler.h</text>
</a>
</g>
</g>
<!-- Node38&#45;&gt;Node75 -->
<g id="edge68" class="edge">
<title>Node38&#45;&gt;Node75</title>
<path fill="none" stroke="midnightblue" d="M1516.1,-332.53C1478.39,-320.96 1421.07,-303.38 1387.24,-293.01"/>
<polygon fill="midnightblue" stroke="midnightblue" points="1515.12,-335.89 1525.7,-335.48 1517.17,-329.2 1515.12,-335.89"/>
</g>
<!-- Node77 -->
<g id="node49" class="node">
<title>Node77</title>
<g id="a_node49"><a xlink:href="manager_8h.html" target="_top" xlink:title=" ">
<polygon fill="white" stroke="black" points="2733,-207 2733,-226 2828,-226 2828,-207 2733,-207"/>
<text text-anchor="middle" x="2780.5" y="-214" font-family="Helvetica" font-size="10.00">python/manager.h</text>
</a>
</g>
</g>
<!-- Node38&#45;&gt;Node77 -->
<g id="edge71" class="edge">
<title>Node38&#45;&gt;Node77</title>
<path fill="none" stroke="midnightblue" d="M1615.39,-335.2C1775.35,-325.29 2598.9,-348.77 2706.5,-299 2740.5,-283.27 2765.81,-243.85 2775.81,-226.24"/>
<polygon fill="midnightblue" stroke="midnightblue" points="1614.75,-331.74 1605.04,-335.98 1615.27,-338.72 1614.75,-331.74"/>
</g>
<!-- Node40&#45;&gt;Node6 -->
<g id="edge26" class="edge">
<title>Node40&#45;&gt;Node6</title>
<path fill="none" stroke="midnightblue" d="M399.01,-269.91C382.01,-261.87 363.27,-249.61 353.5,-232 327.41,-184.98 350.98,-116.34 360.73,-92.25"/>
<polygon fill="midnightblue" stroke="midnightblue" points="397.64,-273.13 408.2,-273.94 400.45,-266.72 397.64,-273.13"/>
</g>
<!-- Node41 -->
<g id="node24" class="node">
<title>Node41</title>
<g id="a_node24"><a xlink:href="BinningHandler_8cpp.html" target="_top" xlink:title=" ">
<polygon fill="white" stroke="black" points="363,-207 363,-226 506,-226 506,-207 363,-207"/>
<text text-anchor="middle" x="434.5" y="-214" font-family="Helvetica" font-size="10.00">Samples/BinningHandler.cpp</text>
</a>
</g>
</g>
<!-- Node40&#45;&gt;Node41 -->
<g id="edge25" class="edge">
<title>Node40&#45;&gt;Node41</title>
<path fill="none" stroke="midnightblue" d="M434.5,-263.54C434.5,-251.17 434.5,-235.62 434.5,-226.13"/>
<polygon fill="midnightblue" stroke="midnightblue" points="431,-263.73 434.5,-273.73 438,-263.73 431,-263.73"/>
</g>
<!-- Node42&#45;&gt;Node14 -->
<g id="edge32" class="edge">
<title>Node42&#45;&gt;Node14</title>
<path fill="none" stroke="midnightblue" d="M875.42,-137.69C827.54,-126.69 753.14,-109.6 700.71,-97.56"/>
<polygon fill="midnightblue" stroke="midnightblue" points="874.68,-141.11 885.21,-139.94 876.25,-134.29 874.68,-141.11"/>
</g>
<!-- Node42&#45;&gt;Node15 -->
<g id="edge31" class="edge">
<title>Node42&#45;&gt;Node15</title>
<path fill="none" stroke="midnightblue" d="M888.01,-136.35C863.69,-127.19 830.73,-113.57 803.5,-98 768.01,-77.71 730.56,-47.89 709.8,-30.51"/>
<polygon fill="midnightblue" stroke="midnightblue" points="886.94,-139.68 897.53,-139.87 889.37,-133.12 886.94,-139.68"/>
</g>
<!-- Node42&#45;&gt;Node17 -->
<g id="edge30" class="edge">
<title>Node42&#45;&gt;Node17</title>
<path fill="none" stroke="midnightblue" d="M965.52,-137.4C1015.25,-124.58 1096.05,-103.74 1141.22,-92.08"/>
<polygon fill="midnightblue" stroke="midnightblue" points="964.51,-134.05 955.7,-139.94 966.26,-140.83 964.51,-134.05"/>
</g>
<!-- Node43 -->
<g id="node26" class="node">
<title>Node43</title>
<g id="a_node26"><a xlink:href="NuDockFactory_8cpp.html" target="_top" xlink:title="Implementation of NuDock factory utilities for object creation and oscillation parameter format conve...">
<polygon fill="white" stroke="black" points="938,-73 938,-92 1081,-92 1081,-73 938,-73"/>
<text text-anchor="middle" x="1009.5" y="-80" font-family="Helvetica" font-size="10.00">NuDock/NuDockFactory.cpp</text>
</a>
</g>
</g>
<!-- Node42&#45;&gt;Node43 -->
<g id="edge29" class="edge">
<title>Node42&#45;&gt;Node43</title>
<path fill="none" stroke="midnightblue" d="M942.49,-133.57C959.66,-120.74 983.82,-102.69 997.95,-92.13"/>
<polygon fill="midnightblue" stroke="midnightblue" points="940.15,-130.94 934.23,-139.73 944.34,-136.55 940.15,-130.94"/>
</g>
<!-- Node44&#45;&gt;Node36 -->
<g id="edge41" class="edge">
<title>Node44&#45;&gt;Node36</title>
<path fill="none" stroke="midnightblue" d="M2504.25,-268.71C2487.64,-258.99 2465.29,-245.36 2446.5,-232 2428.74,-219.37 2428.03,-210.68 2408.5,-201 2393.3,-193.47 2294.61,-171.34 2238.1,-159.02"/>
<polygon fill="midnightblue" stroke="midnightblue" points="2502.9,-271.97 2513.3,-273.95 2506.41,-265.91 2502.9,-271.97"/>
</g>
<!-- Node45 -->
<g id="node28" class="node">
<title>Node45</title>
<g id="a_node28"><a xlink:href="MCMCProcessor_8h.html" target="_top" xlink:title=" ">
<polygon fill="white" stroke="red" points="2455.5,-207 2455.5,-226 2587.5,-226 2587.5,-207 2455.5,-207"/>
<text text-anchor="middle" x="2521.5" y="-214" font-family="Helvetica" font-size="10.00">Fitters/MCMCProcessor.h</text>
</a>
</g>
</g>
<!-- Node44&#45;&gt;Node45 -->
<g id="edge35" class="edge">
<title>Node44&#45;&gt;Node45</title>
<path fill="none" stroke="midnightblue" d="M2526.46,-263.54C2525.13,-251.17 2523.45,-235.62 2522.43,-226.13"/>
<polygon fill="midnightblue" stroke="midnightblue" points="2523.01,-264.17 2527.56,-273.73 2529.97,-263.42 2523.01,-264.17"/>
</g>
<!-- Node54 -->
<g id="node32" class="node">
<title>Node54</title>
<g id="a_node32"><a xlink:href="StatisticalUtils_8cpp.html" target="_top" xlink:title=" ">
<polygon fill="white" stroke="black" points="2268,-207 2268,-226 2399,-226 2399,-207 2268,-207"/>
<text text-anchor="middle" x="2333.5" y="-214" font-family="Helvetica" font-size="10.00">Fitters/StatisticalUtils.cpp</text>
</a>
</g>
</g>
<!-- Node44&#45;&gt;Node54 -->
<g id="edge42" class="edge">
<title>Node44&#45;&gt;Node54</title>
<path fill="none" stroke="midnightblue" d="M2492.8,-270.6C2454.14,-257.71 2393.42,-237.47 2359.19,-226.06"/>
<polygon fill="midnightblue" stroke="midnightblue" points="2492.01,-274.03 2502.61,-273.87 2494.23,-267.39 2492.01,-274.03"/>
</g>
<!-- Node45&#45;&gt;Node16 -->
<g id="edge36" class="edge">
<title>Node45&#45;&gt;Node16</title>
<path fill="none" stroke="midnightblue" d="M2451.31,-205.68C2437.16,-203.93 2422.37,-202.27 2408.5,-201 2074.12,-170.5 1670.23,-156.23 1530.2,-151.95"/>
<polygon fill="midnightblue" stroke="midnightblue" points="2451.12,-209.19 2461.48,-206.97 2452,-202.24 2451.12,-209.19"/>
</g>
<!-- Node45&#45;&gt;Node36 -->
<g id="edge37" class="edge">
<title>Node45&#45;&gt;Node36</title>
<path fill="none" stroke="midnightblue" d="M2469.12,-204.96C2405.54,-192.16 2299.59,-170.84 2240.9,-159.03"/>
<polygon fill="midnightblue" stroke="midnightblue" points="2468.45,-208.39 2478.94,-206.94 2469.83,-201.53 2468.45,-208.39"/>
</g>
<!-- Node45&#45;&gt;Node50 -->
<g id="edge38" class="edge">
<title>Node45&#45;&gt;Node50</title>
<path fill="none" stroke="midnightblue" d="M2489.7,-203.27C2456.16,-190.37 2404.18,-170.38 2374.77,-159.06"/>
<polygon fill="midnightblue" stroke="midnightblue" points="2488.47,-206.55 2499.06,-206.87 2490.98,-200.01 2488.47,-206.55"/>
</g>
<!-- Node45&#45;&gt;Node52 -->
<g id="edge39" class="edge">
<title>Node45&#45;&gt;Node52</title>
<path fill="none" stroke="midnightblue" d="M2521.5,-196.54C2521.5,-184.17 2521.5,-168.62 2521.5,-159.13"/>
<polygon fill="midnightblue" stroke="midnightblue" points="2518,-196.73 2521.5,-206.73 2525,-196.73 2518,-196.73"/>
</g>
<!-- Node45&#45;&gt;Node53 -->
<g id="edge40" class="edge">
<title>Node45&#45;&gt;Node53</title>
<path fill="none" stroke="midnightblue" d="M2553.67,-203.27C2587.61,-190.37 2640.21,-170.38 2669.97,-159.06"/>
<polygon fill="midnightblue" stroke="midnightblue" points="2552.31,-200.04 2544.21,-206.87 2554.8,-206.59 2552.31,-200.04"/>
</g>
<!-- Node61 -->
<g id="node40" class="node">
<title>Node61</title>
<g id="a_node40"><a xlink:href="AdaptiveMCMCHandler_8cpp.html" target="_top" xlink:title=" ">
<polygon fill="white" stroke="black" points="753,-207 753,-226 944,-226 944,-207 753,-207"/>
<text text-anchor="middle" x="848.5" y="-214" font-family="Helvetica" font-size="10.00">Parameters/AdaptiveMCMCHandler.cpp</text>
</a>
</g>
</g>
<!-- Node60&#45;&gt;Node61 -->
<g id="edge53" class="edge">
<title>Node60&#45;&gt;Node61</title>
<path fill="none" stroke="midnightblue" d="M846.38,-263.54C846.95,-251.17 847.66,-235.62 848.1,-226.13"/>
<polygon fill="midnightblue" stroke="midnightblue" points="842.87,-263.58 845.9,-273.73 849.86,-263.91 842.87,-263.58"/>
</g>
<!-- Node60&#45;&gt;Node62 -->
<g id="edge54" class="edge">
<title>Node60&#45;&gt;Node62</title>
<path fill="none" stroke="midnightblue" d="M904.19,-272.19C968.23,-260.94 1070.91,-242.9 1140.69,-230.64"/>
<polygon fill="midnightblue" stroke="midnightblue" points="903.5,-268.76 894.25,-273.94 904.71,-275.65 903.5,-268.76"/>
</g>
<!-- Node62&#45;&gt;Node16 -->
<g id="edge55" class="edge">
<title>Node62&#45;&gt;Node16</title>
<path fill="none" stroke="midnightblue" d="M1282.23,-199.07C1334,-186.32 1403.67,-169.17 1444.86,-159.03"/>
<polygon fill="midnightblue" stroke="midnightblue" points="1281.33,-195.69 1272.46,-201.48 1283.01,-202.48 1281.33,-195.69"/>
</g>
<!-- Node63 -->
<g id="node42" class="node">
<title>Node63</title>
<g id="a_node42"><a xlink:href="ParameterHandlerBase_8cpp.html" target="_top" xlink:title=" ">
<polygon fill="white" stroke="black" points="1038,-134.5 1038,-164.5 1187,-164.5 1187,-134.5 1038,-134.5"/>
<text text-anchor="start" x="1046" y="-152.5" font-family="Helvetica" font-size="10.00">Parameters/ParameterHandler</text>
<text text-anchor="middle" x="1112.5" y="-141.5" font-family="Helvetica" font-size="10.00">Base.cpp</text>
</a>
</g>
</g>
<!-- Node62&#45;&gt;Node63 -->
<g id="edge56" class="edge">
<title>Node62&#45;&gt;Node63</title>
<path fill="none" stroke="midnightblue" d="M1184.62,-196.02C1168.6,-185.9 1149.37,-173.77 1134.81,-164.58"/>
<polygon fill="midnightblue" stroke="midnightblue" points="1182.83,-199.02 1193.15,-201.4 1186.56,-193.1 1182.83,-199.02"/>
</g>
<!-- Node64 -->
<g id="node43" class="node">
<title>Node64</title>
<g id="a_node43"><a xlink:href="ParameterHandlerGeneric_8h.html" target="_top" xlink:title=" ">
<polygon fill="white" stroke="red" points="689,-134.5 689,-164.5 838,-164.5 838,-134.5 689,-134.5"/>
<text text-anchor="start" x="697" y="-152.5" font-family="Helvetica" font-size="10.00">Parameters/ParameterHandler</text>
<text text-anchor="middle" x="763.5" y="-141.5" font-family="Helvetica" font-size="10.00">Generic.h</text>
</a>
</g>
</g>
<!-- Node62&#45;&gt;Node64 -->
<g id="edge57" class="edge">
<title>Node62&#45;&gt;Node64</title>
<path fill="none" stroke="midnightblue" d="M1130.74,-200.93C1003.52,-182.22 969.55,-183.51 846.5,-165 843.75,-164.59 840.95,-164.15 838.13,-163.71"/>
<polygon fill="midnightblue" stroke="midnightblue" points="1130.47,-204.43 1140.87,-202.44 1131.5,-197.51 1130.47,-204.43"/>
</g>
<!-- Node72 -->
<g id="node44" class="node">
<title>Node72</title>
<g id="a_node44"><a xlink:href="parameters_8h.html" target="_top" xlink:title=" ">
<polygon fill="white" stroke="black" points="813,-73 813,-92 920,-92 920,-73 813,-73"/>
<text text-anchor="middle" x="866.5" y="-80" font-family="Helvetica" font-size="10.00">python/parameters.h</text>
</a>
</g>
</g>
<!-- Node62&#45;&gt;Node72 -->
<g id="edge63" class="edge">
<title>Node62&#45;&gt;Node72</title>
<path fill="none" stroke="midnightblue" d="M1216.36,-191.27C1215.62,-172.82 1211.35,-148.25 1195.5,-134 1150.97,-93.98 987.38,-108.83 928.5,-98 919.37,-96.32 909.55,-94.18 900.49,-92.07"/>
<polygon fill="midnightblue" stroke="midnightblue" points="1212.86,-191.34 1216.46,-201.3 1219.86,-191.27 1212.86,-191.34"/>
</g>
<!-- Node64&#45;&gt;Node6 -->
<g id="edge58" class="edge">
<title>Node64&#45;&gt;Node6</title>
<path fill="none" stroke="midnightblue" d="M678.95,-134.73C599.61,-121.8 483.46,-102.88 416.78,-92.02"/>
<polygon fill="midnightblue" stroke="midnightblue" points="678.49,-138.2 688.92,-136.35 679.61,-131.29 678.49,-138.2"/>
</g>
<!-- Node64&#45;&gt;Node14 -->
<g id="edge59" class="edge">
<title>Node64&#45;&gt;Node14</title>
<path fill="none" stroke="midnightblue" d="M727.66,-129.71C708.11,-119.46 684.3,-106.98 666.35,-97.58"/>
<polygon fill="midnightblue" stroke="midnightblue" points="726.11,-132.85 736.59,-134.4 729.36,-126.65 726.11,-132.85"/>
</g>
<!-- Node64&#45;&gt;Node21 -->
<g id="edge60" class="edge">
<title>Node64&#45;&gt;Node21</title>
<path fill="none" stroke="midnightblue" d="M768.59,-124.55C773.93,-105.69 784.32,-80.41 803.5,-67 869,-21.2 1105.14,-15.74 1217.84,-15.84"/>
<polygon fill="midnightblue" stroke="midnightblue" points="765.19,-123.7 766.12,-134.25 771.98,-125.43 765.19,-123.7"/>
</g>
<!-- Node64&#45;&gt;Node72 -->
<g id="edge61" class="edge">
<title>Node64&#45;&gt;Node72</title>
<path fill="none" stroke="midnightblue" d="M794.44,-128.97C813.97,-116.65 838.22,-101.35 853.02,-92.01"/>
<polygon fill="midnightblue" stroke="midnightblue" points="792.44,-126.1 785.85,-134.4 796.17,-132.02 792.44,-126.1"/>
</g>
<!-- Node72&#45;&gt;Node10 -->
<g id="edge62" class="edge">
<title>Node72&#45;&gt;Node10</title>
<path fill="none" stroke="midnightblue" d="M907.95,-70.74C914.78,-69.28 921.81,-67.95 928.5,-67 1106.69,-41.67 1666.81,-23.12 1836.98,-17.95"/>
<polygon fill="midnightblue" stroke="midnightblue" points="907.13,-67.34 898.16,-72.96 908.68,-74.16 907.13,-67.34"/>
</g>
<!-- Node73&#45;&gt;Node62 -->
<g id="edge66" class="edge">
<title>Node73&#45;&gt;Node62</title>
<path fill="none" stroke="midnightblue" d="M1063.87,-270.49C1095.4,-259.47 1142.12,-243.14 1175.36,-231.53"/>
<polygon fill="midnightblue" stroke="midnightblue" points="1062.48,-267.27 1054.2,-273.87 1064.79,-273.87 1062.48,-267.27"/>
</g>
<!-- Node74 -->
<g id="node46" class="node">
<title>Node74</title>
<g id="a_node46"><a xlink:href="ParameterTunes_8cpp.html" target="_top" xlink:title=" ">
<polygon fill="white" stroke="black" points="962,-207 962,-226 1123,-226 1123,-207 962,-207"/>
<text text-anchor="middle" x="1042.5" y="-214" font-family="Helvetica" font-size="10.00">Parameters/ParameterTunes.cpp</text>
</a>
</g>
</g>
<!-- Node73&#45;&gt;Node74 -->
<g id="edge67" class="edge">
<title>Node73&#45;&gt;Node74</title>
<path fill="none" stroke="midnightblue" d="M1033.22,-263.91C1035.7,-251.49 1038.86,-235.72 1040.77,-226.13"/>
<polygon fill="midnightblue" stroke="midnightblue" points="1029.78,-263.24 1031.25,-273.73 1036.65,-264.61 1029.78,-263.24"/>
</g>
<!-- Node75&#45;&gt;Node62 -->
<g id="edge69" class="edge">
<title>Node75&#45;&gt;Node62</title>
<path fill="none" stroke="midnightblue" d="M1330.97,-269.62C1306.61,-258.63 1271.64,-242.84 1246.58,-231.53"/>
<polygon fill="midnightblue" stroke="midnightblue" points="1329.82,-272.94 1340.38,-273.87 1332.7,-266.56 1329.82,-272.94"/>
</g>
<!-- Node76 -->
<g id="node48" class="node">
<title>Node76</title>
<g id="a_node48"><a xlink:href="PCAHandler_8cpp.html" target="_top" xlink:title=" ">
<polygon fill="white" stroke="black" points="1308,-207 1308,-226 1451,-226 1451,-207 1308,-207"/>
<text text-anchor="middle" x="1379.5" y="-214" font-family="Helvetica" font-size="10.00">Parameters/PCAHandler.cpp</text>
</a>
</g>
</g>
<!-- Node75&#45;&gt;Node76 -->
<g id="edge70" class="edge">
<title>Node75&#45;&gt;Node76</title>
<path fill="none" stroke="midnightblue" d="M1365.22,-263.91C1369.04,-251.49 1373.89,-235.72 1376.85,-226.13"/>
<polygon fill="midnightblue" stroke="midnightblue" points="1361.79,-263.15 1362.2,-273.73 1368.48,-265.21 1361.79,-263.15"/>
</g>
<!-- Node77&#45;&gt;Node10 -->
<g id="edge72" class="edge">
<title>Node77&#45;&gt;Node10</title>
<path fill="none" stroke="midnightblue" d="M2784.82,-197.13C2787.98,-178.65 2789.33,-150.58 2773.5,-134 2715.1,-72.85 2114.31,-30.71 1936.08,-19.49"/>
<polygon fill="midnightblue" stroke="midnightblue" points="2781.38,-196.48 2782.82,-206.98 2788.24,-197.88 2781.38,-196.48"/>
</g>
</g>
</svg>
