<?xml version="1.0" encoding="UTF-8" standalone="no"?>
<!DOCTYPE svg PUBLIC "-//W3C//DTD SVG 1.1//EN"
 "http://www.w3.org/Graphics/SVG/1.1/DTD/svg11.dtd">
<!-- Generated by graphviz version 2.44.0 (0)
 -->
<!-- Title: PyFitterBase Pages: 1 -->
<!--zoomable 289 -->
<svg id="main" version="1.1" xmlns="http://www.w3.org/2000/svg" xmlns:xlink="http://www.w3.org/1999/xlink" xml:space="preserve" onload="init(evt)">
<style type="text/css"><![CDATA[
.edge:hover path { stroke: red; }
.edge:hover polygon { stroke: red; fill: red; }
]]></style>
<script type="text/javascript"><![CDATA[
var edges = document.getElementsByTagName('g');
if (edges && edges.length) {
  for (var i=0;i<edges.length;i++) {
    if (edges[i].id.substr(0,4)=='edge') {
      edges[i].setAttribute('class','edge');
    }
  }
}
]]></script>
        <defs>
                <circle id="rim" cx="0" cy="0" r="7"/>
                <circle id="rim2" cx="0" cy="0" r="3.5"/>
                <g id="zoomPlus">
                        <use xlink:href="#rim" fill="#404040">
                                <set attributeName="fill" to="#808080" begin="zoomplus.mouseover" end="zoomplus.mouseout"/>
                        </use>
                        <path d="M-4,0h8M0,-4v8" fill="none" stroke="white" stroke-width="1.5" pointer-events="none"/>
                </g>
                <g id="zoomMin">
                        <use xlink:href="#rim" fill="#404040">
                                <set attributeName="fill" to="#808080" begin="zoomminus.mouseover" end="zoomminus.mouseout"/>
                        </use>
                        <path d="M-4,0h8" fill="none" stroke="white" stroke-width="1.5" pointer-events="none"/>
                </g>
                <g id="dirArrow">
                        <path fill="none" stroke="white" stroke-width="1.5" d="M0,-3.0v7 M-2.5,-0.5L0,-3.0L2.5,-0.5"/>
                </g>
               <g id="resetDef">
                       <use xlink:href="#rim2" fill="#404040">
                               <set attributeName="fill" to="#808080" begin="reset.mouseover" end="reset.mouseout"/>
                       </use>
               </g>
        </defs>

<script type="text/javascript">
var viewWidth = 697;
var viewHeight = 289;
var sectionId = 'dynsection-1';
</script>
<script xlink:href="svgpan.js"/>
<svg id="graph" class="graph">
<g id="viewport">
<title>PyFitterBase</title>
<polygon fill="white" stroke="transparent" points="-4,4 -4,-285 693,-285 693,4 -4,4"/>
<!-- Node1 -->
<g id="node1" class="node">
<title>Node1</title>
<g id="a_node1"><a xlink:title="EW: As FitterBase is an abstract base class we have to do some gymnastics to get it to get it into py...">
<polygon fill="#bfbfbf" stroke="black" points="615,-129.5 615,-148.5 689,-148.5 689,-129.5 615,-129.5"/>
<text text-anchor="middle" x="652" y="-136.5" font-family="Helvetica" font-size="10.00">PyFitterBase</text>
</a>
</g>
</g>
<!-- Node2 -->
<g id="node2" class="node">
<title>Node2</title>
<g id="a_node2"><a xlink:href="classFitterBase.html" target="_top" xlink:title="Base class for implementing fitting algorithms.">
<polygon fill="white" stroke="black" points="516,-129.5 516,-148.5 578,-148.5 578,-129.5 516,-129.5"/>
<text text-anchor="middle" x="547" y="-136.5" font-family="Helvetica" font-size="10.00">FitterBase</text>
</a>
</g>
</g>
<!-- Node2&#45;&gt;Node1 -->
<g id="edge1" class="edge">
<title>Node2&#45;&gt;Node1</title>
<path fill="none" stroke="midnightblue" d="M588.14,-139C596.95,-139 606.23,-139 614.88,-139"/>
<polygon fill="midnightblue" stroke="midnightblue" points="588.07,-135.5 578.07,-139 588.07,-142.5 588.07,-135.5"/>
</g>
<!-- Node3 -->
<g id="node3" class="node">
<title>Node3</title>
<g id="a_node3"><a xlink:title=" ">
<polygon fill="white" stroke="#bfbfbf" points="274,-261.5 274,-280.5 425,-280.5 425,-261.5 274,-261.5"/>
<text text-anchor="middle" x="349.5" y="-268.5" font-family="Helvetica" font-size="10.00">std::unique_ptr&lt; TStopwatch &gt;</text>
</a>
</g>
</g>
<!-- Node3&#45;&gt;Node2 -->
<g id="edge2" class="edge">
<title>Node3&#45;&gt;Node2</title>
<path fill="none" stroke="#9a32cd" stroke-dasharray="5,2" d="M416.26,-258.91C444.08,-251.08 475.24,-238.38 498,-218 520.48,-197.87 535.83,-164.7 542.4,-148.5"/>
<polygon fill="#9a32cd" stroke="#9a32cd" points="415.34,-255.53 406.58,-261.48 417.14,-262.3 415.34,-255.53"/>
<text text-anchor="middle" x="470.5" y="-263" font-family="Helvetica" font-size="10.00"> clock</text>
<text text-anchor="middle" x="470.5" y="-252" font-family="Helvetica" font-size="10.00">stepClock</text>
</g>
<!-- Node4 -->
<g id="node4" class="node">
<title>Node4</title>
<g id="a_node4"><a xlink:title=" ">
<polygon fill="white" stroke="#bfbfbf" points="274.5,-212 274.5,-242 424.5,-242 424.5,-212 274.5,-212"/>
<text text-anchor="start" x="282.5" y="-230" font-family="Helvetica" font-size="10.00">std::vector&lt; ParameterHandler</text>
<text text-anchor="middle" x="349.5" y="-219" font-family="Helvetica" font-size="10.00">Base * &gt;</text>
</a>
</g>
</g>
<!-- Node4&#45;&gt;Node2 -->
<g id="edge3" class="edge">
<title>Node4&#45;&gt;Node2</title>
<path fill="none" stroke="#9a32cd" stroke-dasharray="5,2" d="M426.39,-209.12C450.15,-201.89 475.91,-192.29 498,-180 513.13,-171.58 527.87,-157.94 536.94,-148.72"/>
<polygon fill="#9a32cd" stroke="#9a32cd" points="425.3,-205.79 416.7,-211.98 427.28,-212.51 425.3,-205.79"/>
<text text-anchor="middle" x="470.5" y="-206" font-family="Helvetica" font-size="10.00"> systematics</text>
</g>
<!-- Node5 -->
<g id="node5" class="node">
<title>Node5</title>
<g id="a_node5"><a xlink:title=" ">
<polygon fill="white" stroke="#bfbfbf" points="276.5,-173.5 276.5,-192.5 422.5,-192.5 422.5,-173.5 276.5,-173.5"/>
<text text-anchor="middle" x="349.5" y="-180.5" font-family="Helvetica" font-size="10.00">std::unique_ptr&lt; TRandom3 &gt;</text>
</a>
</g>
</g>
<!-- Node5&#45;&gt;Node2 -->
<g id="edge4" class="edge">
<title>Node5&#45;&gt;Node2</title>
<path fill="none" stroke="#9a32cd" stroke-dasharray="5,2" d="M416.47,-171.62C442.07,-166.78 471.54,-160.72 498,-154 504.26,-152.41 510.91,-150.49 517.21,-148.56"/>
<polygon fill="#9a32cd" stroke="#9a32cd" points="415.69,-168.2 406.5,-173.47 416.97,-175.08 415.69,-168.2"/>
<text text-anchor="middle" x="470.5" y="-168" font-family="Helvetica" font-size="10.00"> random</text>
</g>
<!-- Node6 -->
<g id="node6" class="node">
<title>Node6</title>
<g id="a_node6"><a xlink:title=" ">
<polygon fill="white" stroke="#bfbfbf" points="280.5,-124 280.5,-154 418.5,-154 418.5,-124 280.5,-124"/>
<text text-anchor="start" x="288.5" y="-142" font-family="Helvetica" font-size="10.00">std::vector&lt; SampleHandler</text>
<text text-anchor="middle" x="349.5" y="-131" font-family="Helvetica" font-size="10.00">Base * &gt;</text>
</a>
</g>
</g>
<!-- Node6&#45;&gt;Node2 -->
<g id="edge5" class="edge">
<title>Node6&#45;&gt;Node2</title>
<path fill="none" stroke="#9a32cd" stroke-dasharray="5,2" d="M428.85,-139C459.4,-139 492.6,-139 515.82,-139"/>
<polygon fill="#9a32cd" stroke="#9a32cd" points="428.6,-135.5 418.6,-139 428.6,-142.5 428.6,-135.5"/>
<text text-anchor="middle" x="470.5" y="-142" font-family="Helvetica" font-size="10.00"> samples</text>
</g>
<!-- Node7 -->
<g id="node7" class="node">
<title>Node7</title>
<g id="a_node7"><a xlink:title=" ">
<polygon fill="white" stroke="#bfbfbf" points="132,-61.5 132,-80.5 192,-80.5 192,-61.5 132,-61.5"/>
<text text-anchor="middle" x="162" y="-68.5" font-family="Helvetica" font-size="10.00">std::string</text>
</a>
</g>
</g>
<!-- Node7&#45;&gt;Node2 -->
<g id="edge6" class="edge">
<title>Node7&#45;&gt;Node2</title>
<path fill="none" stroke="#9a32cd" stroke-dasharray="5,2" d="M202.2,-77.83C204.84,-78.24 207.45,-78.64 210,-79 305.23,-92.63 330.69,-85.01 425,-104 457.37,-110.52 493.65,-121.52 517.97,-129.46"/>
<polygon fill="#9a32cd" stroke="#9a32cd" points="202.48,-74.33 192.05,-76.19 201.36,-81.24 202.48,-74.33"/>
<text text-anchor="middle" x="349.5" y="-107" font-family="Helvetica" font-size="10.00"> AlgorithmName</text>
</g>
<!-- Node9 -->
<g id="node9" class="node">
<title>Node9</title>
<g id="a_node9"><a xlink:href="classManager.html" target="_top" xlink:title="The manager class is responsible for managing configurations and settings.">
<polygon fill="white" stroke="black" points="322.5,-38.5 322.5,-57.5 376.5,-57.5 376.5,-38.5 322.5,-38.5"/>
<text text-anchor="middle" x="349.5" y="-45.5" font-family="Helvetica" font-size="10.00">Manager</text>
</a>
</g>
</g>
<!-- Node7&#45;&gt;Node9 -->
<g id="edge9" class="edge">
<title>Node7&#45;&gt;Node9</title>
<path fill="none" stroke="#9a32cd" stroke-dasharray="5,2" d="M202.58,-66.09C238.69,-61.62 291.05,-55.12 322.24,-51.26"/>
<polygon fill="#9a32cd" stroke="#9a32cd" points="201.89,-62.65 192.39,-67.36 202.75,-69.6 201.89,-62.65"/>
<text text-anchor="middle" x="233" y="-67" font-family="Helvetica" font-size="10.00"> FileName</text>
</g>
<!-- Node8 -->
<g id="node8" class="node">
<title>Node8</title>
<g id="a_node8"><a xlink:title=" ">
<polygon fill="white" stroke="#bfbfbf" points="0,-56 0,-86 95,-86 95,-56 0,-56"/>
<text text-anchor="start" x="8" y="-74" font-family="Helvetica" font-size="10.00">std::basic_string&lt;</text>
<text text-anchor="middle" x="47.5" y="-63" font-family="Helvetica" font-size="10.00"> char &gt;</text>
</a>
</g>
</g>
<!-- Node8&#45;&gt;Node7 -->
<g id="edge7" class="edge">
<title>Node8&#45;&gt;Node7</title>
<path fill="none" stroke="midnightblue" d="M105.53,-71C114.68,-71 123.8,-71 131.93,-71"/>
<polygon fill="midnightblue" stroke="midnightblue" points="105.23,-67.5 95.23,-71 105.23,-74.5 105.23,-67.5"/>
</g>
<!-- Node9&#45;&gt;Node2 -->
<g id="edge8" class="edge">
<title>Node9&#45;&gt;Node2</title>
<path fill="none" stroke="#9a32cd" stroke-dasharray="5,2" d="M386.75,-45.32C418.42,-44.71 464.44,-48.16 498,-69 521.29,-83.46 536.07,-113.86 542.42,-129.4"/>
<polygon fill="#9a32cd" stroke="#9a32cd" points="386.48,-41.83 376.61,-45.67 386.72,-48.83 386.48,-41.83"/>
<text text-anchor="middle" x="470.5" y="-72" font-family="Helvetica" font-size="10.00"> fitMan</text>
</g>
<!-- Node10 -->
<g id="node10" class="node">
<title>Node10</title>
<g id="a_node10"><a xlink:title=" ">
<polygon fill="white" stroke="#bfbfbf" points="295,-0.5 295,-19.5 404,-19.5 404,-0.5 295,-0.5"/>
<text text-anchor="middle" x="349.5" y="-7.5" font-family="Helvetica" font-size="10.00">std::vector&lt; double &gt;</text>
</a>
</g>
</g>
<!-- Node10&#45;&gt;Node2 -->
<g id="edge10" class="edge">
<title>Node10&#45;&gt;Node2</title>
<path fill="none" stroke="#9a32cd" stroke-dasharray="5,2" d="M414.17,-1.56C442.29,-1.15 474.28,-5.59 498,-23 533.49,-49.05 542.86,-106.21 545.23,-129.17"/>
<polygon fill="#9a32cd" stroke="#9a32cd" points="413.87,1.93 404,-1.92 414.12,-5.06 413.87,1.93"/>
<text text-anchor="middle" x="470.5" y="-37" font-family="Helvetica" font-size="10.00"> sample_llh</text>
<text text-anchor="middle" x="470.5" y="-26" font-family="Helvetica" font-size="10.00">syst_llh</text>
</g>
</g>
</svg>
        <g id="navigator" transform="translate(0 0)" fill="#404254">
                <rect fill="#f2f5e9" fill-opacity="0.5" stroke="#606060" stroke-width=".5" x="0" y="0" width="60" height="60"/>
                <use id="zoomplus" xlink:href="#zoomPlus" x="17" y="9" onmousedown="handleZoom(evt,'in')"/>
                <use id="zoomminus" xlink:href="#zoomMin" x="42" y="9" onmousedown="handleZoom(evt,'out')"/>
                <use id="reset" xlink:href="#resetDef" x="30" y="36" onmousedown="handleReset()"/>
                <g id="arrowUp" xlink:href="#dirArrow" transform="translate(30 24)" onmousedown="handlePan(0,-1)">
                  <use xlink:href="#rim" fill="#404040">
                        <set attributeName="fill" to="#808080" begin="arrowUp.mouseover" end="arrowUp.mouseout"/>
                  </use>
                  <path fill="none" stroke="white" stroke-width="1.5" d="M0,-3.0v7 M-2.5,-0.5L0,-3.0L2.5,-0.5"/>
                </g>
                <g id="arrowRight" xlink:href="#dirArrow" transform="rotate(90) translate(36 -43)" onmousedown="handlePan(1,0)">
                  <use xlink:href="#rim" fill="#404040">
                        <set attributeName="fill" to="#808080" begin="arrowRight.mouseover" end="arrowRight.mouseout"/>
                  </use>
                  <path fill="none" stroke="white" stroke-width="1.5" d="M0,-3.0v7 M-2.5,-0.5L0,-3.0L2.5,-0.5"/>
                </g>
                <g id="arrowDown" xlink:href="#dirArrow" transform="rotate(180) translate(-30 -48)" onmousedown="handlePan(0,1)">
                  <use xlink:href="#rim" fill="#404040">
                        <set attributeName="fill" to="#808080" begin="arrowDown.mouseover" end="arrowDown.mouseout"/>
                  </use>
                  <path fill="none" stroke="white" stroke-width="1.5" d="M0,-3.0v7 M-2.5,-0.5L0,-3.0L2.5,-0.5"/>
                </g>
                <g id="arrowLeft" xlink:href="#dirArrow" transform="rotate(270) translate(-36 17)" onmousedown="handlePan(-1,0)">
                  <use xlink:href="#rim" fill="#404040">
                        <set attributeName="fill" to="#808080" begin="arrowLeft.mouseover" end="arrowLeft.mouseout"/>
                  </use>
                  <path fill="none" stroke="white" stroke-width="1.5" d="M0,-3.0v7 M-2.5,-0.5L0,-3.0L2.5,-0.5"/>
                </g>
        </g>
        <svg viewBox="0 0 15 15" width="100%" height="30px" preserveAspectRatio="xMaxYMin meet">
         <g id="arrow_out" transform="scale(0.3 0.3)">
          <a xlink:href="classPyFitterBase__coll__graph_org.svg" target="_base">
           <rect id="button" ry="5" rx="5" y="6" x="6" height="38" width="38"
                fill="#f2f5e9" fill-opacity="0.5" stroke="#606060" stroke-width="1.0"/>
           <path id="arrow"
             d="M 11.500037,31.436501 C 11.940474,20.09759 22.043105,11.32322 32.158766,21.979434 L 37.068811,17.246167 C 37.068811,17.246167 37.088388,32 37.088388,32 L 22.160133,31.978069 C 22.160133,31.978069 26.997745,27.140456 26.997745,27.140456 C 18.528582,18.264221 13.291696,25.230495 11.500037,31.436501 z"
             style="fill:#404040;"/>
          </a>
         </g>
        </svg>
</svg>
