<?xml version="1.0" encoding="UTF-8" standalone="no"?>
<!DOCTYPE svg PUBLIC "-//W3C//DTD SVG 1.1//EN"
 "http://www.w3.org/Graphics/SVG/1.1/DTD/svg11.dtd">
<!-- Generated by graphviz version 2.44.0 (0)
 -->
<!-- Title: Samples/OscillationHandler.cpp Pages: 1 -->
<!--zoomable 420 -->
<svg id="main" version="1.1" xmlns="http://www.w3.org/2000/svg" xmlns:xlink="http://www.w3.org/1999/xlink" xml:space="preserve" onload="init(evt)">
<style type="text/css"><![CDATA[
.edge:hover path { stroke: red; }
.edge:hover polygon { stroke: red; fill: red; }
]]></style>
<script type="text/javascript"><![CDATA[
var edges = document.getElementsByTagName('g');
if (edges && edges.length) {
  for (var i=0;i<edges.length;i++) {
    if (edges[i].id.substr(0,4)=='edge') {
      edges[i].setAttribute('class','edge');
    }
  }
}
]]></script>
        <defs>
                <circle id="rim" cx="0" cy="0" r="7"/>
                <circle id="rim2" cx="0" cy="0" r="3.5"/>
                <g id="zoomPlus">
                        <use xlink:href="#rim" fill="#404040">
                                <set attributeName="fill" to="#808080" begin="zoomplus.mouseover" end="zoomplus.mouseout"/>
                        </use>
                        <path d="M-4,0h8M0,-4v8" fill="none" stroke="white" stroke-width="1.5" pointer-events="none"/>
                </g>
                <g id="zoomMin">
                        <use xlink:href="#rim" fill="#404040">
                                <set attributeName="fill" to="#808080" begin="zoomminus.mouseover" end="zoomminus.mouseout"/>
                        </use>
                        <path d="M-4,0h8" fill="none" stroke="white" stroke-width="1.5" pointer-events="none"/>
                </g>
                <g id="dirArrow">
                        <path fill="none" stroke="white" stroke-width="1.5" d="M0,-3.0v7 M-2.5,-0.5L0,-3.0L2.5,-0.5"/>
                </g>
               <g id="resetDef">
                       <use xlink:href="#rim2" fill="#404040">
                               <set attributeName="fill" to="#808080" begin="reset.mouseover" end="reset.mouseout"/>
                       </use>
               </g>
        </defs>

<script type="text/javascript">
var viewWidth = 1085;
var viewHeight = 420;
var sectionId = 'dynsection-0';
</script>
<script xlink:href="svgpan.js"/>
<svg id="graph" class="graph">
<g id="viewport">
<title>Samples/OscillationHandler.cpp</title>
<polygon fill="white" stroke="transparent" points="-4,4 -4,-416 1080.79,-416 1080.79,4 -4,4"/>
<!-- Node1 -->
<g id="node1" class="node">
<title>Node1</title>
<g id="a_node1"><a xlink:title=" ">
<polygon fill="#bfbfbf" stroke="black" points="785.29,-392.5 785.29,-411.5 941.29,-411.5 941.29,-392.5 785.29,-392.5"/>
<text text-anchor="middle" x="863.29" y="-399.5" font-family="Helvetica" font-size="10.00">Samples/OscillationHandler.cpp</text>
</a>
</g>
</g>
<!-- Node2 -->
<g id="node2" class="node">
<title>Node2</title>
<g id="a_node2"><a xlink:href="OscillationHandler_8h.html" target="_top" xlink:title=" ">
<polygon fill="white" stroke="black" points="724.29,-336.5 724.29,-355.5 828.29,-355.5 828.29,-336.5 724.29,-336.5"/>
<text text-anchor="middle" x="776.29" y="-343.5" font-family="Helvetica" font-size="10.00">OscillationHandler.h</text>
</a>
</g>
</g>
<!-- Node1&#45;&gt;Node2 -->
<g id="edge1" class="edge">
<title>Node1&#45;&gt;Node2</title>
<path fill="none" stroke="midnightblue" d="M849.31,-392.32C835.74,-383.9 814.91,-370.97 798.97,-361.07"/>
<polygon fill="midnightblue" stroke="midnightblue" points="800.58,-357.95 790.24,-355.65 796.89,-363.9 800.58,-357.95"/>
</g>
<!-- Node29 -->
<g id="node29" class="node">
<title>Node29</title>
<g id="a_node29"><a xlink:title=" ">
<polygon fill="white" stroke="#bfbfbf" points="917.79,-224.5 917.79,-243.5 1076.79,-243.5 1076.79,-224.5 917.79,-224.5"/>
<text text-anchor="middle" x="997.29" y="-231.5" font-family="Helvetica" font-size="10.00">Constants/OscillatorConstants.h</text>
</a>
</g>
</g>
<!-- Node1&#45;&gt;Node29 -->
<g id="edge49" class="edge">
<title>Node1&#45;&gt;Node29</title>
<path fill="none" stroke="midnightblue" d="M864.42,-392.37C866.46,-379.3 871.66,-354.07 883.29,-336 907.37,-298.61 949.01,-266.76 974.75,-249.31"/>
<polygon fill="midnightblue" stroke="midnightblue" points="976.73,-252.19 983.13,-243.75 972.86,-246.35 976.73,-252.19"/>
</g>
<!-- Node30 -->
<g id="node30" class="node">
<title>Node30</title>
<g id="a_node30"><a xlink:title=" ">
<polygon fill="white" stroke="#bfbfbf" points="891.79,-336.5 891.79,-355.5 1034.79,-355.5 1034.79,-336.5 891.79,-336.5"/>
<text text-anchor="middle" x="963.29" y="-343.5" font-family="Helvetica" font-size="10.00">Oscillator/OscillatorFactory.h</text>
</a>
</g>
</g>
<!-- Node1&#45;&gt;Node30 -->
<g id="edge48" class="edge">
<title>Node1&#45;&gt;Node30</title>
<path fill="none" stroke="midnightblue" d="M879.36,-392.32C895.25,-383.74 919.8,-370.49 938.25,-360.52"/>
<polygon fill="midnightblue" stroke="midnightblue" points="940.13,-363.49 947.27,-355.65 936.8,-357.33 940.13,-363.49"/>
</g>
<!-- Node3 -->
<g id="node3" class="node">
<title>Node3</title>
<g id="a_node3"><a xlink:href="SampleStructs_8h.html" target="_top" xlink:title=" ">
<polygon fill="white" stroke="black" points="581.79,-280.5 581.79,-299.5 712.79,-299.5 712.79,-280.5 581.79,-280.5"/>
<text text-anchor="middle" x="647.29" y="-287.5" font-family="Helvetica" font-size="10.00">Samples/SampleStructs.h</text>
</a>
</g>
</g>
<!-- Node2&#45;&gt;Node3 -->
<g id="edge2" class="edge">
<title>Node2&#45;&gt;Node3</title>
<path fill="none" stroke="midnightblue" d="M755.85,-336.44C734.62,-327.56 701.19,-313.56 677.04,-303.45"/>
<polygon fill="midnightblue" stroke="midnightblue" points="678.21,-300.15 667.64,-299.52 675.51,-306.61 678.21,-300.15"/>
</g>
<!-- Node4 -->
<g id="node4" class="node">
<title>Node4</title>
<g id="a_node4"><a xlink:title=" ">
<polygon fill="white" stroke="#bfbfbf" points="783.29,-168.5 783.29,-187.5 813.29,-187.5 813.29,-168.5 783.29,-168.5"/>
<text text-anchor="middle" x="798.29" y="-175.5" font-family="Helvetica" font-size="10.00">set</text>
</a>
</g>
</g>
<!-- Node3&#45;&gt;Node4 -->
<g id="edge3" class="edge">
<title>Node3&#45;&gt;Node4</title>
<path fill="none" stroke="midnightblue" d="M659.19,-280.38C671.67,-271.33 691.87,-256.68 709.29,-244 732.87,-226.83 759.92,-207.07 777.95,-193.88"/>
<polygon fill="midnightblue" stroke="midnightblue" points="780.49,-196.36 786.5,-187.63 776.36,-190.71 780.49,-196.36"/>
</g>
<!-- Node5 -->
<g id="node5" class="node">
<title>Node5</title>
<g id="a_node5"><a xlink:title=" ">
<polygon fill="white" stroke="#bfbfbf" points="831.79,-168.5 831.79,-187.5 860.79,-187.5 860.79,-168.5 831.79,-168.5"/>
<text text-anchor="middle" x="846.29" y="-175.5" font-family="Helvetica" font-size="10.00">list</text>
</a>
</g>
</g>
<!-- Node3&#45;&gt;Node5 -->
<g id="edge4" class="edge">
<title>Node3&#45;&gt;Node5</title>
<path fill="none" stroke="midnightblue" d="M665.42,-280.42C683.75,-271.64 712.77,-257.42 737.29,-244 767.9,-227.25 802.36,-206.35 824.18,-192.84"/>
<polygon fill="midnightblue" stroke="midnightblue" points="826.07,-195.79 832.72,-187.54 822.37,-189.84 826.07,-195.79"/>
</g>
<!-- Node6 -->
<g id="node6" class="node">
<title>Node6</title>
<g id="a_node6"><a xlink:title=" ">
<polygon fill="white" stroke="#bfbfbf" points="13.79,-168.5 13.79,-187.5 96.79,-187.5 96.79,-168.5 13.79,-168.5"/>
<text text-anchor="middle" x="55.29" y="-175.5" font-family="Helvetica" font-size="10.00">unordered_map</text>
</a>
</g>
</g>
<!-- Node3&#45;&gt;Node6 -->
<g id="edge5" class="edge">
<title>Node3&#45;&gt;Node6</title>
<path fill="none" stroke="midnightblue" d="M581.49,-284.81C505.26,-279.13 376.18,-266.94 267.29,-244 202.56,-230.36 129.22,-205.75 87.98,-191.04"/>
<polygon fill="midnightblue" stroke="midnightblue" points="89.05,-187.7 78.46,-187.61 86.69,-194.29 89.05,-187.7"/>
</g>
<!-- Node7 -->
<g id="node7" class="node">
<title>Node7</title>
<g id="a_node7"><a xlink:href="MaCh3Exception_8h.html" target="_top" xlink:title="Defines the custom exception class used throughout MaCh3.">
<polygon fill="white" stroke="black" points="281.29,-168.5 281.29,-187.5 421.29,-187.5 421.29,-168.5 281.29,-168.5"/>
<text text-anchor="middle" x="351.29" y="-175.5" font-family="Helvetica" font-size="10.00">Manager/MaCh3Exception.h</text>
</a>
</g>
</g>
<!-- Node3&#45;&gt;Node7 -->
<g id="edge6" class="edge">
<title>Node3&#45;&gt;Node7</title>
<path fill="none" stroke="midnightblue" d="M581.72,-281.12C540.92,-274.62 488.08,-263.24 444.29,-244 415.47,-231.33 386.38,-209.14 368.6,-194.26"/>
<polygon fill="midnightblue" stroke="midnightblue" points="370.7,-191.45 360.83,-187.62 366.15,-196.77 370.7,-191.45"/>
</g>
<!-- Node11 -->
<g id="node11" class="node">
<title>Node11</title>
<g id="a_node11"><a xlink:href="MaCh3Logger_8h.html" target="_top" xlink:title="MaCh3 Logging utilities built on top of SPDLOG.">
<polygon fill="white" stroke="black" points="361.29,-112.5 361.29,-131.5 487.29,-131.5 487.29,-112.5 361.29,-112.5"/>
<text text-anchor="middle" x="424.29" y="-119.5" font-family="Helvetica" font-size="10.00">Manager/MaCh3Logger.h</text>
</a>
</g>
</g>
<!-- Node3&#45;&gt;Node11 -->
<g id="edge26" class="edge">
<title>Node3&#45;&gt;Node11</title>
<path fill="none" stroke="midnightblue" d="M581.76,-289.66C431.93,-289.56 72.04,-279.58 4.29,-188 -0.99,-180.85 -1.65,-174.61 4.29,-168 15.72,-155.28 233.55,-137.2 350.88,-128.33"/>
<polygon fill="midnightblue" stroke="midnightblue" points="351.16,-131.82 360.87,-127.58 350.64,-124.84 351.16,-131.82"/>
</g>
<!-- Node15 -->
<g id="node15" class="node">
<title>Node15</title>
<g id="a_node15"><a xlink:href="Core_8h.html" target="_top" xlink:title="KS: Core MaCh3 definitions and compile&#45;time configuration utilities.">
<polygon fill="white" stroke="black" points="706.29,-56.5 706.29,-75.5 792.29,-75.5 792.29,-56.5 706.29,-56.5"/>
<text text-anchor="middle" x="749.29" y="-63.5" font-family="Helvetica" font-size="10.00">Manager/Core.h</text>
</a>
</g>
</g>
<!-- Node3&#45;&gt;Node15 -->
<g id="edge27" class="edge">
<title>Node3&#45;&gt;Node15</title>
<path fill="none" stroke="midnightblue" d="M708.92,-280.49C762.35,-269.41 836.15,-244.28 869.29,-188 896.71,-141.45 823.96,-99.74 779.99,-79.66"/>
<polygon fill="midnightblue" stroke="midnightblue" points="781.39,-76.45 770.83,-75.59 778.55,-82.85 781.39,-76.45"/>
</g>
<!-- Node22 -->
<g id="node22" class="node">
<title>Node22</title>
<g id="a_node22"><a xlink:href="ParameterStructs_8h.html" target="_top" xlink:title="Definitions of generic parameter structs and utility templates for MaCh3.">
<polygon fill="white" stroke="black" points="463.79,-224.5 463.79,-243.5 618.79,-243.5 618.79,-224.5 463.79,-224.5"/>
<text text-anchor="middle" x="541.29" y="-231.5" font-family="Helvetica" font-size="10.00">Parameters/ParameterStructs.h</text>
</a>
</g>
</g>
<!-- Node3&#45;&gt;Node22 -->
<g id="edge28" class="edge">
<title>Node3&#45;&gt;Node22</title>
<path fill="none" stroke="midnightblue" d="M630.26,-280.32C613.26,-271.66 586.92,-258.24 567.3,-248.25"/>
<polygon fill="midnightblue" stroke="midnightblue" points="568.78,-245.08 558.28,-243.65 565.6,-251.31 568.78,-245.08"/>
</g>
<!-- Node23 -->
<g id="node23" class="node">
<title>Node23</title>
<g id="a_node23"><a xlink:title=" ">
<polygon fill="white" stroke="#bfbfbf" points="115.29,-168.5 115.29,-187.5 173.29,-187.5 173.29,-168.5 115.29,-168.5"/>
<text text-anchor="middle" x="144.29" y="-175.5" font-family="Helvetica" font-size="10.00">TSpline.h</text>
</a>
</g>
</g>
<!-- Node3&#45;&gt;Node23 -->
<g id="edge41" class="edge">
<title>Node3&#45;&gt;Node23</title>
<path fill="none" stroke="midnightblue" d="M581.53,-282.58C519.34,-275.74 423.69,-263.22 342.29,-244 282.33,-229.84 214.53,-205.76 175.85,-191.22"/>
<polygon fill="midnightblue" stroke="midnightblue" points="176.8,-187.84 166.21,-187.57 174.32,-194.38 176.8,-187.84"/>
</g>
<!-- Node24 -->
<g id="node24" class="node">
<title>Node24</title>
<g id="a_node24"><a xlink:title=" ">
<polygon fill="white" stroke="#bfbfbf" points="191.79,-168.5 191.79,-187.5 262.79,-187.5 262.79,-168.5 191.79,-168.5"/>
<text text-anchor="middle" x="227.29" y="-175.5" font-family="Helvetica" font-size="10.00">TObjString.h</text>
</a>
</g>
</g>
<!-- Node3&#45;&gt;Node24 -->
<g id="edge42" class="edge">
<title>Node3&#45;&gt;Node24</title>
<path fill="none" stroke="midnightblue" d="M585.99,-280.49C536.69,-272.95 465.89,-260.57 405.29,-244 351.86,-229.39 291.71,-205.88 256.8,-191.5"/>
<polygon fill="midnightblue" stroke="midnightblue" points="257.8,-188.12 247.23,-187.52 255.12,-194.59 257.8,-188.12"/>
</g>
<!-- Node25 -->
<g id="node25" class="node">
<title>Node25</title>
<g id="a_node25"><a xlink:title=" ">
<polygon fill="white" stroke="#bfbfbf" points="439.79,-168.5 439.79,-187.5 486.79,-187.5 486.79,-168.5 439.79,-168.5"/>
<text text-anchor="middle" x="463.29" y="-175.5" font-family="Helvetica" font-size="10.00">TFile.h</text>
</a>
</g>
</g>
<!-- Node3&#45;&gt;Node25 -->
<g id="edge43" class="edge">
<title>Node3&#45;&gt;Node25</title>
<path fill="none" stroke="midnightblue" d="M581.68,-282.38C532.15,-275.87 470.12,-263.94 454.29,-244 443.81,-230.79 448.46,-211.12 454.25,-196.88"/>
<polygon fill="midnightblue" stroke="midnightblue" points="457.5,-198.19 458.46,-187.64 451.13,-195.28 457.5,-198.19"/>
</g>
<!-- Node26 -->
<g id="node26" class="node">
<title>Node26</title>
<g id="a_node26"><a xlink:title=" ">
<polygon fill="white" stroke="#bfbfbf" points="581.29,-168.5 581.29,-187.5 623.29,-187.5 623.29,-168.5 581.29,-168.5"/>
<text text-anchor="middle" x="602.29" y="-175.5" font-family="Helvetica" font-size="10.00">TF1.h</text>
</a>
</g>
</g>
<!-- Node3&#45;&gt;Node26 -->
<g id="edge44" class="edge">
<title>Node3&#45;&gt;Node26</title>
<path fill="none" stroke="midnightblue" d="M645.25,-280.38C642.13,-267.74 635.62,-243.55 627.29,-224 623.26,-214.54 617.81,-204.5 613.02,-196.31"/>
<polygon fill="midnightblue" stroke="midnightblue" points="615.99,-194.45 607.84,-187.69 609.99,-198.06 615.99,-194.45"/>
</g>
<!-- Node27 -->
<g id="node27" class="node">
<title>Node27</title>
<g id="a_node27"><a xlink:title=" ">
<polygon fill="white" stroke="#bfbfbf" points="641.29,-168.5 641.29,-187.5 703.29,-187.5 703.29,-168.5 641.29,-168.5"/>
<text text-anchor="middle" x="672.29" y="-175.5" font-family="Helvetica" font-size="10.00">TH2Poly.h</text>
</a>
</g>
</g>
<!-- Node3&#45;&gt;Node27 -->
<g id="edge45" class="edge">
<title>Node3&#45;&gt;Node27</title>
<path fill="none" stroke="midnightblue" d="M650.32,-280.47C653.42,-271.49 658.21,-256.89 661.29,-244 664.96,-228.67 667.86,-211.03 669.76,-198"/>
<polygon fill="midnightblue" stroke="midnightblue" points="673.26,-198.29 671.17,-187.91 666.32,-197.33 673.26,-198.29"/>
</g>
<!-- Node28 -->
<g id="node28" class="node">
<title>Node28</title>
<g id="a_node28"><a xlink:title=" ">
<polygon fill="white" stroke="#bfbfbf" points="721.29,-168.5 721.29,-187.5 765.29,-187.5 765.29,-168.5 721.29,-168.5"/>
<text text-anchor="middle" x="743.29" y="-175.5" font-family="Helvetica" font-size="10.00">TH1.h</text>
</a>
</g>
</g>
<!-- Node3&#45;&gt;Node28 -->
<g id="edge46" class="edge">
<title>Node3&#45;&gt;Node28</title>
<path fill="none" stroke="midnightblue" d="M654.83,-280.37C670.81,-262.05 708.34,-219.05 729.01,-195.36"/>
<polygon fill="midnightblue" stroke="midnightblue" points="731.86,-197.43 735.79,-187.59 726.58,-192.82 731.86,-197.43"/>
</g>
<!-- Node3&#45;&gt;Node29 -->
<g id="edge47" class="edge">
<title>Node3&#45;&gt;Node29</title>
<path fill="none" stroke="midnightblue" d="M702.75,-280.44C764.96,-270.85 865.77,-255.29 931.81,-245.1"/>
<polygon fill="midnightblue" stroke="midnightblue" points="932.74,-248.5 942.09,-243.52 931.68,-241.58 932.74,-248.5"/>
</g>
<!-- Node8 -->
<g id="node8" class="node">
<title>Node8</title>
<g id="a_node8"><a xlink:title=" ">
<polygon fill="white" stroke="#bfbfbf" points="355.29,-0.5 355.29,-19.5 409.29,-19.5 409.29,-0.5 355.29,-0.5"/>
<text text-anchor="middle" x="382.29" y="-7.5" font-family="Helvetica" font-size="10.00">iostream</text>
</a>
</g>
</g>
<!-- Node7&#45;&gt;Node8 -->
<g id="edge7" class="edge">
<title>Node7&#45;&gt;Node8</title>
<path fill="none" stroke="midnightblue" d="M342.72,-168.39C323.5,-147.99 280.35,-95.47 303.29,-56 312.49,-40.18 329.56,-29.46 345.48,-22.46"/>
<polygon fill="midnightblue" stroke="midnightblue" points="347.19,-25.55 355.17,-18.58 344.59,-19.05 347.19,-25.55"/>
</g>
<!-- Node9 -->
<g id="node9" class="node">
<title>Node9</title>
<g id="a_node9"><a xlink:title=" ">
<polygon fill="white" stroke="#bfbfbf" points="312.79,-56.5 312.79,-75.5 353.79,-75.5 353.79,-56.5 312.79,-56.5"/>
<text text-anchor="middle" x="333.29" y="-63.5" font-family="Helvetica" font-size="10.00">string</text>
</a>
</g>
</g>
<!-- Node7&#45;&gt;Node9 -->
<g id="edge8" class="edge">
<title>Node7&#45;&gt;Node9</title>
<path fill="none" stroke="midnightblue" d="M349.88,-168.37C346.97,-150.62 340.27,-109.67 336.34,-85.6"/>
<polygon fill="midnightblue" stroke="midnightblue" points="339.77,-84.89 334.7,-75.59 332.86,-86.03 339.77,-84.89"/>
</g>
<!-- Node10 -->
<g id="node10" class="node">
<title>Node10</title>
<g id="a_node10"><a xlink:title=" ">
<polygon fill="white" stroke="#bfbfbf" points="196.79,-112.5 196.79,-131.5 255.79,-131.5 255.79,-112.5 196.79,-112.5"/>
<text text-anchor="middle" x="226.29" y="-119.5" font-family="Helvetica" font-size="10.00">stdexcept</text>
</a>
</g>
</g>
<!-- Node7&#45;&gt;Node10 -->
<g id="edge9" class="edge">
<title>Node7&#45;&gt;Node10</title>
<path fill="none" stroke="midnightblue" d="M331.49,-168.44C311.01,-159.6 278.81,-145.69 255.43,-135.59"/>
<polygon fill="midnightblue" stroke="midnightblue" points="256.57,-132.27 246.01,-131.52 253.8,-138.7 256.57,-132.27"/>
</g>
<!-- Node7&#45;&gt;Node11 -->
<g id="edge10" class="edge">
<title>Node7&#45;&gt;Node11</title>
<path fill="none" stroke="midnightblue" d="M363.02,-168.32C374.13,-160.11 391.03,-147.6 404.28,-137.81"/>
<polygon fill="midnightblue" stroke="midnightblue" points="406.39,-140.59 412.35,-131.83 402.23,-134.97 406.39,-140.59"/>
</g>
<!-- Node7&#45;&gt;Node15 -->
<g id="edge25" class="edge">
<title>Node7&#45;&gt;Node15</title>
<path fill="none" stroke="midnightblue" d="M383.11,-168.46C412.77,-160.18 458.05,-146.75 496.29,-132 515.96,-124.41 519.31,-118.69 539.29,-112 567.8,-102.45 643.71,-87.08 696,-77.01"/>
<polygon fill="midnightblue" stroke="midnightblue" points="696.96,-80.39 706.12,-75.07 695.64,-73.51 696.96,-80.39"/>
</g>
<!-- Node11&#45;&gt;Node8 -->
<g id="edge11" class="edge">
<title>Node11&#45;&gt;Node8</title>
<path fill="none" stroke="midnightblue" d="M420.77,-112.4C417.09,-103.36 411.18,-88.72 406.29,-76 400.29,-60.39 393.73,-42.56 388.98,-29.52"/>
<polygon fill="midnightblue" stroke="midnightblue" points="392.18,-28.07 385.48,-19.86 385.6,-30.45 392.18,-28.07"/>
</g>
<!-- Node11&#45;&gt;Node9 -->
<g id="edge14" class="edge">
<title>Node11&#45;&gt;Node9</title>
<path fill="none" stroke="midnightblue" d="M409.67,-112.32C395.34,-103.82 373.28,-90.73 356.54,-80.8"/>
<polygon fill="midnightblue" stroke="midnightblue" points="358.26,-77.75 347.88,-75.65 354.69,-83.77 358.26,-77.75"/>
</g>
<!-- Node12 -->
<g id="node12" class="node">
<title>Node12</title>
<g id="a_node12"><a xlink:title=" ">
<polygon fill="white" stroke="#bfbfbf" points="479.29,-0.5 479.29,-19.5 531.29,-19.5 531.29,-0.5 479.29,-0.5"/>
<text text-anchor="middle" x="505.29" y="-7.5" font-family="Helvetica" font-size="10.00">sstream</text>
</a>
</g>
</g>
<!-- Node11&#45;&gt;Node12 -->
<g id="edge12" class="edge">
<title>Node11&#45;&gt;Node12</title>
<path fill="none" stroke="midnightblue" d="M424.35,-112.21C424.83,-98.91 427.4,-73.4 439.29,-56 448.58,-42.42 463.43,-31.76 476.69,-24.23"/>
<polygon fill="midnightblue" stroke="midnightblue" points="478.35,-27.32 485.54,-19.53 475.06,-21.14 478.35,-27.32"/>
</g>
<!-- Node13 -->
<g id="node13" class="node">
<title>Node13</title>
<g id="a_node13"><a xlink:title=" ">
<polygon fill="white" stroke="#bfbfbf" points="448.79,-56.5 448.79,-75.5 507.79,-75.5 507.79,-56.5 448.79,-56.5"/>
<text text-anchor="middle" x="478.29" y="-63.5" font-family="Helvetica" font-size="10.00">functional</text>
</a>
</g>
</g>
<!-- Node11&#45;&gt;Node13 -->
<g id="edge13" class="edge">
<title>Node11&#45;&gt;Node13</title>
<path fill="none" stroke="midnightblue" d="M433.21,-112.08C441.07,-104.22 452.72,-92.57 462.21,-83.08"/>
<polygon fill="midnightblue" stroke="midnightblue" points="464.94,-85.3 469.54,-75.75 460,-80.35 464.94,-85.3"/>
</g>
<!-- Node14 -->
<g id="node14" class="node">
<title>Node14</title>
<g id="a_node14"><a xlink:title=" ">
<polygon fill="white" stroke="#bfbfbf" points="526.29,-56.5 526.29,-75.5 584.29,-75.5 584.29,-56.5 526.29,-56.5"/>
<text text-anchor="middle" x="555.29" y="-63.5" font-family="Helvetica" font-size="10.00">exception</text>
</a>
</g>
</g>
<!-- Node11&#45;&gt;Node14 -->
<g id="edge15" class="edge">
<title>Node11&#45;&gt;Node14</title>
<path fill="none" stroke="midnightblue" d="M445.05,-112.44C466.61,-103.56 500.56,-89.56 525.09,-79.45"/>
<polygon fill="midnightblue" stroke="midnightblue" points="526.72,-82.56 534.63,-75.52 524.05,-76.09 526.72,-82.56"/>
</g>
<!-- Node11&#45;&gt;Node15 -->
<g id="edge16" class="edge">
<title>Node11&#45;&gt;Node15</title>
<path fill="none" stroke="midnightblue" d="M476.19,-112.48C530.94,-103.48 619.7,-88.84 696.29,-76 696.39,-75.98 696.49,-75.97 696.59,-75.95"/>
<polygon fill="midnightblue" stroke="midnightblue" points="696.92,-79.44 706.2,-74.33 695.75,-72.54 696.92,-79.44"/>
</g>
<!-- Node21 -->
<g id="node21" class="node">
<title>Node21</title>
<g id="a_node21"><a xlink:title=" ">
<polygon fill="white" stroke="#bfbfbf" points="602.79,-56.5 602.79,-75.5 687.79,-75.5 687.79,-56.5 602.79,-56.5"/>
<text text-anchor="middle" x="645.29" y="-63.5" font-family="Helvetica" font-size="10.00">spdlog/spdlog.h</text>
</a>
</g>
</g>
<!-- Node11&#45;&gt;Node21 -->
<g id="edge24" class="edge">
<title>Node11&#45;&gt;Node21</title>
<path fill="none" stroke="midnightblue" d="M459.31,-112.44C497.54,-103.1 558.86,-88.12 600.55,-77.93"/>
<polygon fill="midnightblue" stroke="midnightblue" points="601.55,-81.29 610.44,-75.52 599.89,-74.49 601.55,-81.29"/>
</g>
<!-- Node15&#45;&gt;Node8 -->
<g id="edge19" class="edge">
<title>Node15&#45;&gt;Node8</title>
<path fill="none" stroke="midnightblue" d="M706.21,-57.59C702.85,-57.04 699.52,-56.51 696.29,-56 596.46,-40.37 478.43,-24.03 419.57,-16.03"/>
<polygon fill="midnightblue" stroke="midnightblue" points="420.01,-12.55 409.63,-14.68 419.07,-19.49 420.01,-12.55"/>
</g>
<!-- Node15&#45;&gt;Node12 -->
<g id="edge17" class="edge">
<title>Node15&#45;&gt;Node12</title>
<path fill="none" stroke="midnightblue" d="M710.63,-56.44C664.13,-46.15 586.69,-29.01 541.37,-18.98"/>
<polygon fill="midnightblue" stroke="midnightblue" points="541.91,-15.52 531.39,-16.78 540.4,-22.35 541.91,-15.52"/>
</g>
<!-- Node16 -->
<g id="node16" class="node">
<title>Node16</title>
<g id="a_node16"><a xlink:title=" ">
<polygon fill="white" stroke="#bfbfbf" points="659.29,-0.5 659.29,-19.5 709.29,-19.5 709.29,-0.5 659.29,-0.5"/>
<text text-anchor="middle" x="684.29" y="-7.5" font-family="Helvetica" font-size="10.00">fstream</text>
</a>
</g>
</g>
<!-- Node15&#45;&gt;Node16 -->
<g id="edge18" class="edge">
<title>Node15&#45;&gt;Node16</title>
<path fill="none" stroke="midnightblue" d="M738.85,-56.32C729.15,-48.26 714.48,-36.08 702.79,-26.37"/>
<polygon fill="midnightblue" stroke="midnightblue" points="704.85,-23.53 694.93,-19.83 700.38,-28.92 704.85,-23.53"/>
</g>
<!-- Node17 -->
<g id="node17" class="node">
<title>Node17</title>
<g id="a_node17"><a xlink:title=" ">
<polygon fill="white" stroke="#bfbfbf" points="727.79,-0.5 727.79,-19.5 770.79,-19.5 770.79,-0.5 727.79,-0.5"/>
<text text-anchor="middle" x="749.29" y="-7.5" font-family="Helvetica" font-size="10.00">vector</text>
</a>
</g>
</g>
<!-- Node15&#45;&gt;Node17 -->
<g id="edge20" class="edge">
<title>Node15&#45;&gt;Node17</title>
<path fill="none" stroke="midnightblue" d="M749.29,-56.08C749.29,-49.01 749.29,-38.86 749.29,-29.99"/>
<polygon fill="midnightblue" stroke="midnightblue" points="752.79,-29.75 749.29,-19.75 745.79,-29.75 752.79,-29.75"/>
</g>
<!-- Node18 -->
<g id="node18" class="node">
<title>Node18</title>
<g id="a_node18"><a xlink:title=" ">
<polygon fill="white" stroke="#bfbfbf" points="789.29,-0.5 789.29,-19.5 839.29,-19.5 839.29,-0.5 789.29,-0.5"/>
<text text-anchor="middle" x="814.29" y="-7.5" font-family="Helvetica" font-size="10.00">iomanip</text>
</a>
</g>
</g>
<!-- Node15&#45;&gt;Node18 -->
<g id="edge21" class="edge">
<title>Node15&#45;&gt;Node18</title>
<path fill="none" stroke="midnightblue" d="M759.74,-56.32C769.44,-48.26 784.11,-36.08 795.79,-26.37"/>
<polygon fill="midnightblue" stroke="midnightblue" points="798.2,-28.92 803.66,-19.83 793.73,-23.53 798.2,-28.92"/>
</g>
<!-- Node19 -->
<g id="node19" class="node">
<title>Node19</title>
<g id="a_node19"><a xlink:title=" ">
<polygon fill="white" stroke="#bfbfbf" points="857.29,-0.5 857.29,-19.5 901.29,-19.5 901.29,-0.5 857.29,-0.5"/>
<text text-anchor="middle" x="879.29" y="-7.5" font-family="Helvetica" font-size="10.00">cmath</text>
</a>
</g>
</g>
<!-- Node15&#45;&gt;Node19 -->
<g id="edge22" class="edge">
<title>Node15&#45;&gt;Node19</title>
<path fill="none" stroke="midnightblue" d="M769.89,-56.44C791.29,-47.56 824.97,-33.56 849.32,-23.45"/>
<polygon fill="midnightblue" stroke="midnightblue" points="850.9,-26.58 858.79,-19.52 848.21,-20.12 850.9,-26.58"/>
</g>
<!-- Node20 -->
<g id="node20" class="node">
<title>Node20</title>
<g id="a_node20"><a xlink:title=" ">
<polygon fill="white" stroke="#bfbfbf" points="601.29,-0.5 601.29,-19.5 641.29,-19.5 641.29,-0.5 601.29,-0.5"/>
<text text-anchor="middle" x="621.29" y="-7.5" font-family="Helvetica" font-size="10.00">limits</text>
</a>
</g>
</g>
<!-- Node15&#45;&gt;Node20 -->
<g id="edge23" class="edge">
<title>Node15&#45;&gt;Node20</title>
<path fill="none" stroke="midnightblue" d="M729.01,-56.44C707.94,-47.56 674.78,-33.56 650.81,-23.45"/>
<polygon fill="midnightblue" stroke="midnightblue" points="652.05,-20.18 641.48,-19.52 649.33,-26.63 652.05,-20.18"/>
</g>
<!-- Node22&#45;&gt;Node4 -->
<g id="edge29" class="edge">
<title>Node22&#45;&gt;Node4</title>
<path fill="none" stroke="midnightblue" d="M599.86,-224.49C645.04,-217.29 709.17,-205.69 773.31,-187.89"/>
<polygon fill="midnightblue" stroke="midnightblue" points="774.51,-191.19 783.18,-185.1 772.61,-184.45 774.51,-191.19"/>
</g>
<!-- Node22&#45;&gt;Node5 -->
<g id="edge30" class="edge">
<title>Node22&#45;&gt;Node5</title>
<path fill="none" stroke="midnightblue" d="M619.09,-224.78C673.54,-218.05 747.99,-206.9 821.79,-187.64"/>
<polygon fill="midnightblue" stroke="midnightblue" points="822.96,-190.95 831.72,-184.99 821.16,-184.18 822.96,-190.95"/>
</g>
<!-- Node22&#45;&gt;Node6 -->
<g id="edge31" class="edge">
<title>Node22&#45;&gt;Node6</title>
<path fill="none" stroke="midnightblue" d="M463.69,-226.66C378.74,-219.34 238.28,-206.11 107.22,-188.03"/>
<polygon fill="midnightblue" stroke="midnightblue" points="107.39,-184.52 97,-186.61 106.42,-191.46 107.39,-184.52"/>
</g>
<!-- Node22&#45;&gt;Node7 -->
<g id="edge32" class="edge">
<title>Node22&#45;&gt;Node7</title>
<path fill="none" stroke="midnightblue" d="M511.19,-224.44C478.67,-215.2 426.71,-200.44 390.9,-190.26"/>
<polygon fill="midnightblue" stroke="midnightblue" points="391.83,-186.88 381.26,-187.52 389.92,-193.62 391.83,-186.88"/>
</g>
<!-- Node22&#45;&gt;Node11 -->
<g id="edge33" class="edge">
<title>Node22&#45;&gt;Node11</title>
<path fill="none" stroke="midnightblue" d="M536.56,-224.19C529.09,-210.87 513.53,-185.33 495.29,-168 482.01,-155.38 464.69,-144.32 450.48,-136.32"/>
<polygon fill="midnightblue" stroke="midnightblue" points="452.12,-133.23 441.66,-131.52 448.77,-139.38 452.12,-133.23"/>
</g>
<!-- Node22&#45;&gt;Node15 -->
<g id="edge34" class="edge">
<title>Node22&#45;&gt;Node15</title>
<path fill="none" stroke="midnightblue" d="M543.55,-224.47C547.47,-211.06 556.63,-184.85 572.29,-168 612.7,-124.51 676.17,-94.64 715.12,-79.22"/>
<polygon fill="midnightblue" stroke="midnightblue" points="716.39,-82.48 724.46,-75.61 713.87,-75.95 716.39,-82.48"/>
</g>
<!-- Node22&#45;&gt;Node23 -->
<g id="edge35" class="edge">
<title>Node22&#45;&gt;Node23</title>
<path fill="none" stroke="midnightblue" d="M463.54,-225.7C392.86,-218.5 285.53,-206.18 183.54,-188.06"/>
<polygon fill="midnightblue" stroke="midnightblue" points="184.15,-184.62 173.68,-186.29 182.91,-191.51 184.15,-184.62"/>
</g>
<!-- Node22&#45;&gt;Node24 -->
<g id="edge36" class="edge">
<title>Node22&#45;&gt;Node24</title>
<path fill="none" stroke="midnightblue" d="M487.36,-224.49C435.22,-216.15 353.72,-202.81 273.43,-188.16"/>
<polygon fill="midnightblue" stroke="midnightblue" points="273.6,-184.63 263.13,-186.27 272.34,-191.52 273.6,-184.63"/>
</g>
<!-- Node22&#45;&gt;Node25 -->
<g id="edge37" class="edge">
<title>Node22&#45;&gt;Node25</title>
<path fill="none" stroke="midnightblue" d="M528.76,-224.32C516.71,-215.98 498.27,-203.21 484.02,-193.35"/>
<polygon fill="midnightblue" stroke="midnightblue" points="486.01,-190.47 475.79,-187.65 482.02,-196.22 486.01,-190.47"/>
</g>
<!-- Node22&#45;&gt;Node26 -->
<g id="edge38" class="edge">
<title>Node22&#45;&gt;Node26</title>
<path fill="none" stroke="midnightblue" d="M551.09,-224.32C560.11,-216.34 573.7,-204.31 584.61,-194.65"/>
<polygon fill="midnightblue" stroke="midnightblue" points="587.15,-197.08 592.31,-187.83 582.51,-191.84 587.15,-197.08"/>
</g>
<!-- Node22&#45;&gt;Node27 -->
<g id="edge39" class="edge">
<title>Node22&#45;&gt;Node27</title>
<path fill="none" stroke="midnightblue" d="M562.05,-224.44C583.61,-215.56 617.56,-201.56 642.09,-191.45"/>
<polygon fill="midnightblue" stroke="midnightblue" points="643.72,-194.56 651.63,-187.52 641.05,-188.09 643.72,-194.56"/>
</g>
<!-- Node22&#45;&gt;Node28 -->
<g id="edge40" class="edge">
<title>Node22&#45;&gt;Node28</title>
<path fill="none" stroke="midnightblue" d="M574.78,-224.45C607.28,-216.1 658.24,-202.85 711.08,-188.29"/>
<polygon fill="midnightblue" stroke="midnightblue" points="712.25,-191.6 720.96,-185.56 710.39,-184.85 712.25,-191.6"/>
</g>
</g>
</svg>
        <g id="navigator" transform="translate(0 0)" fill="#404254">
                <rect fill="#f2f5e9" fill-opacity="0.5" stroke="#606060" stroke-width=".5" x="0" y="0" width="60" height="60"/>
                <use id="zoomplus" xlink:href="#zoomPlus" x="17" y="9" onmousedown="handleZoom(evt,'in')"/>
                <use id="zoomminus" xlink:href="#zoomMin" x="42" y="9" onmousedown="handleZoom(evt,'out')"/>
                <use id="reset" xlink:href="#resetDef" x="30" y="36" onmousedown="handleReset()"/>
                <g id="arrowUp" xlink:href="#dirArrow" transform="translate(30 24)" onmousedown="handlePan(0,-1)">
                  <use xlink:href="#rim" fill="#404040">
                        <set attributeName="fill" to="#808080" begin="arrowUp.mouseover" end="arrowUp.mouseout"/>
                  </use>
                  <path fill="none" stroke="white" stroke-width="1.5" d="M0,-3.0v7 M-2.5,-0.5L0,-3.0L2.5,-0.5"/>
                </g>
                <g id="arrowRight" xlink:href="#dirArrow" transform="rotate(90) translate(36 -43)" onmousedown="handlePan(1,0)">
                  <use xlink:href="#rim" fill="#404040">
                        <set attributeName="fill" to="#808080" begin="arrowRight.mouseover" end="arrowRight.mouseout"/>
                  </use>
                  <path fill="none" stroke="white" stroke-width="1.5" d="M0,-3.0v7 M-2.5,-0.5L0,-3.0L2.5,-0.5"/>
                </g>
                <g id="arrowDown" xlink:href="#dirArrow" transform="rotate(180) translate(-30 -48)" onmousedown="handlePan(0,1)">
                  <use xlink:href="#rim" fill="#404040">
                        <set attributeName="fill" to="#808080" begin="arrowDown.mouseover" end="arrowDown.mouseout"/>
                  </use>
                  <path fill="none" stroke="white" stroke-width="1.5" d="M0,-3.0v7 M-2.5,-0.5L0,-3.0L2.5,-0.5"/>
                </g>
                <g id="arrowLeft" xlink:href="#dirArrow" transform="rotate(270) translate(-36 17)" onmousedown="handlePan(-1,0)">
                  <use xlink:href="#rim" fill="#404040">
                        <set attributeName="fill" to="#808080" begin="arrowLeft.mouseover" end="arrowLeft.mouseout"/>
                  </use>
                  <path fill="none" stroke="white" stroke-width="1.5" d="M0,-3.0v7 M-2.5,-0.5L0,-3.0L2.5,-0.5"/>
                </g>
        </g>
        <svg viewBox="0 0 15 15" width="100%" height="30px" preserveAspectRatio="xMaxYMin meet">
         <g id="arrow_out" transform="scale(0.3 0.3)">
          <a xlink:href="OscillationHandler_8cpp__incl_org.svg" target="_base">
           <rect id="button" ry="5" rx="5" y="6" x="6" height="38" width="38"
                fill="#f2f5e9" fill-opacity="0.5" stroke="#606060" stroke-width="1.0"/>
           <path id="arrow"
             d="M 11.500037,31.436501 C 11.940474,20.09759 22.043105,11.32322 32.158766,21.979434 L 37.068811,17.246167 C 37.068811,17.246167 37.088388,32 37.088388,32 L 22.160133,31.978069 C 22.160133,31.978069 26.997745,27.140456 26.997745,27.140456 C 18.528582,18.264221 13.291696,25.230495 11.500037,31.436501 z"
             style="fill:#404040;"/>
          </a>
         </g>
        </svg>
</svg>
