<?xml version="1.0" encoding="UTF-8" standalone="no"?>
<!DOCTYPE svg PUBLIC "-//W3C//DTD SVG 1.1//EN"
 "http://www.w3.org/Graphics/SVG/1.1/DTD/svg11.dtd">
<!-- Generated by graphviz version 2.44.0 (0)
 -->
<!-- Title: Samples/FarDetectorCoreInfoStruct.h Pages: 1 -->
<!--zoomable 319 -->
<svg id="main" version="1.1" xmlns="http://www.w3.org/2000/svg" xmlns:xlink="http://www.w3.org/1999/xlink" xml:space="preserve" onload="init(evt)">
<style type="text/css"><![CDATA[
.edge:hover path { stroke: red; }
.edge:hover polygon { stroke: red; fill: red; }
]]></style>
<script type="text/javascript"><![CDATA[
var edges = document.getElementsByTagName('g');
if (edges && edges.length) {
  for (var i=0;i<edges.length;i++) {
    if (edges[i].id.substr(0,4)=='edge') {
      edges[i].setAttribute('class','edge');
    }
  }
}
]]></script>
        <defs>
                <circle id="rim" cx="0" cy="0" r="7"/>
                <circle id="rim2" cx="0" cy="0" r="3.5"/>
                <g id="zoomPlus">
                        <use xlink:href="#rim" fill="#404040">
                                <set attributeName="fill" to="#808080" begin="zoomplus.mouseover" end="zoomplus.mouseout"/>
                        </use>
                        <path d="M-4,0h8M0,-4v8" fill="none" stroke="white" stroke-width="1.5" pointer-events="none"/>
                </g>
                <g id="zoomMin">
                        <use xlink:href="#rim" fill="#404040">
                                <set attributeName="fill" to="#808080" begin="zoomminus.mouseover" end="zoomminus.mouseout"/>
                        </use>
                        <path d="M-4,0h8" fill="none" stroke="white" stroke-width="1.5" pointer-events="none"/>
                </g>
                <g id="dirArrow">
                        <path fill="none" stroke="white" stroke-width="1.5" d="M0,-3.0v7 M-2.5,-0.5L0,-3.0L2.5,-0.5"/>
                </g>
               <g id="resetDef">
                       <use xlink:href="#rim2" fill="#404040">
                               <set attributeName="fill" to="#808080" begin="reset.mouseover" end="reset.mouseout"/>
                       </use>
               </g>
        </defs>

<script type="text/javascript">
var viewWidth = 1134;
var viewHeight = 319;
var sectionId = 'dynsection-0';
</script>
<script xlink:href="svgpan.js"/>
<svg id="graph" class="graph">
<g id="viewport">
<title>Samples/FarDetectorCoreInfoStruct.h</title>
<polygon fill="white" stroke="transparent" points="-4,4 -4,-315 1129.5,-315 1129.5,4 -4,4"/>
<!-- Node1 -->
<g id="node1" class="node">
<title>Node1</title>
<g id="a_node1"><a xlink:title=" ">
<polygon fill="#bfbfbf" stroke="black" points="0,-280.5 0,-310.5 147,-310.5 147,-280.5 0,-280.5"/>
<text text-anchor="start" x="8" y="-298.5" font-family="Helvetica" font-size="10.00">Samples/FarDetectorCoreInfo</text>
<text text-anchor="middle" x="73.5" y="-287.5" font-family="Helvetica" font-size="10.00">Struct.h</text>
</a>
</g>
</g>
<!-- Node2 -->
<g id="node2" class="node">
<title>Node2</title>
<g id="a_node2"><a xlink:title=" ">
<polygon fill="white" stroke="#bfbfbf" points="332,-0.5 332,-19.5 375,-19.5 375,-0.5 332,-0.5"/>
<text text-anchor="middle" x="353.5" y="-7.5" font-family="Helvetica" font-size="10.00">vector</text>
</a>
</g>
</g>
<!-- Node1&#45;&gt;Node2 -->
<g id="edge1" class="edge">
<title>Node1&#45;&gt;Node2</title>
<path fill="none" stroke="midnightblue" d="M65.63,-280.41C54.5,-259.13 35.5,-217.21 35.5,-179 35.5,-179 35.5,-179 35.5,-121 35.5,-60.9 240.94,-26.35 321.57,-15.1"/>
<polygon fill="midnightblue" stroke="midnightblue" points="322.21,-18.55 331.64,-13.73 321.26,-11.61 322.21,-18.55"/>
</g>
<!-- Node3 -->
<g id="node3" class="node">
<title>Node3</title>
<g id="a_node3"><a xlink:title=" ">
<polygon fill="white" stroke="#bfbfbf" points="526,-56.5 526,-75.5 567,-75.5 567,-56.5 526,-56.5"/>
<text text-anchor="middle" x="546.5" y="-63.5" font-family="Helvetica" font-size="10.00">string</text>
</a>
</g>
</g>
<!-- Node1&#45;&gt;Node3 -->
<g id="edge2" class="edge">
<title>Node1&#45;&gt;Node3</title>
<path fill="none" stroke="midnightblue" d="M70.96,-280.18C67.23,-254.17 63.57,-199.02 92.5,-168 150.83,-105.44 423.56,-77.25 515.87,-69.39"/>
<polygon fill="midnightblue" stroke="midnightblue" points="516.28,-72.87 525.96,-68.55 515.7,-65.89 516.28,-72.87"/>
</g>
<!-- Node4 -->
<g id="node4" class="node">
<title>Node4</title>
<g id="a_node4"><a xlink:href="SampleStructs_8h.html" target="_top" xlink:title=" ">
<polygon fill="white" stroke="black" points="472,-224.5 472,-243.5 603,-243.5 603,-224.5 472,-224.5"/>
<text text-anchor="middle" x="537.5" y="-231.5" font-family="Helvetica" font-size="10.00">Samples/SampleStructs.h</text>
</a>
</g>
</g>
<!-- Node1&#45;&gt;Node4 -->
<g id="edge3" class="edge">
<title>Node1&#45;&gt;Node4</title>
<path fill="none" stroke="midnightblue" d="M147.02,-285.07C233.05,-274.04 374.78,-255.87 461.76,-244.71"/>
<polygon fill="midnightblue" stroke="midnightblue" points="462.35,-248.17 471.82,-243.42 461.46,-241.22 462.35,-248.17"/>
</g>
<!-- Node5 -->
<g id="node5" class="node">
<title>Node5</title>
<g id="a_node5"><a xlink:title=" ">
<polygon fill="white" stroke="#bfbfbf" points="1095.5,-168.5 1095.5,-187.5 1125.5,-187.5 1125.5,-168.5 1095.5,-168.5"/>
<text text-anchor="middle" x="1110.5" y="-175.5" font-family="Helvetica" font-size="10.00">set</text>
</a>
</g>
</g>
<!-- Node4&#45;&gt;Node5 -->
<g id="edge4" class="edge">
<title>Node4&#45;&gt;Node5</title>
<path fill="none" stroke="midnightblue" d="M603.03,-233.45C704.99,-232.87 907.53,-226.63 1085.65,-187.55"/>
<polygon fill="midnightblue" stroke="midnightblue" points="1086.46,-190.96 1095.46,-185.36 1084.94,-184.13 1086.46,-190.96"/>
</g>
<!-- Node6 -->
<g id="node6" class="node">
<title>Node6</title>
<g id="a_node6"><a xlink:title=" ">
<polygon fill="white" stroke="#bfbfbf" points="102,-168.5 102,-187.5 131,-187.5 131,-168.5 102,-168.5"/>
<text text-anchor="middle" x="116.5" y="-175.5" font-family="Helvetica" font-size="10.00">list</text>
</a>
</g>
</g>
<!-- Node4&#45;&gt;Node6 -->
<g id="edge5" class="edge">
<title>Node4&#45;&gt;Node6</title>
<path fill="none" stroke="midnightblue" d="M471.78,-230.8C394.21,-227.04 261.48,-216.97 141.16,-187.89"/>
<polygon fill="midnightblue" stroke="midnightblue" points="141.96,-184.48 131.41,-185.48 140.28,-191.27 141.96,-184.48"/>
</g>
<!-- Node7 -->
<g id="node7" class="node">
<title>Node7</title>
<g id="a_node7"><a xlink:title=" ">
<polygon fill="white" stroke="#bfbfbf" points="149,-168.5 149,-187.5 232,-187.5 232,-168.5 149,-168.5"/>
<text text-anchor="middle" x="190.5" y="-175.5" font-family="Helvetica" font-size="10.00">unordered_map</text>
</a>
</g>
</g>
<!-- Node4&#45;&gt;Node7 -->
<g id="edge6" class="edge">
<title>Node4&#45;&gt;Node7</title>
<path fill="none" stroke="midnightblue" d="M478.75,-224.49C421.13,-216.05 330.53,-202.52 242.16,-188.08"/>
<polygon fill="midnightblue" stroke="midnightblue" points="242.67,-184.61 232.23,-186.45 241.54,-191.52 242.67,-184.61"/>
</g>
<!-- Node8 -->
<g id="node8" class="node">
<title>Node8</title>
<g id="a_node8"><a xlink:href="MaCh3Exception_8h.html" target="_top" xlink:title="Defines the custom exception class used throughout MaCh3.">
<polygon fill="white" stroke="black" points="937.5,-168.5 937.5,-187.5 1077.5,-187.5 1077.5,-168.5 937.5,-168.5"/>
<text text-anchor="middle" x="1007.5" y="-175.5" font-family="Helvetica" font-size="10.00">Manager/MaCh3Exception.h</text>
</a>
</g>
</g>
<!-- Node4&#45;&gt;Node8 -->
<g id="edge7" class="edge">
<title>Node4&#45;&gt;Node8</title>
<path fill="none" stroke="midnightblue" d="M603.35,-225.43C688.21,-215.68 835.68,-198.74 927.08,-188.24"/>
<polygon fill="midnightblue" stroke="midnightblue" points="927.58,-191.71 937.12,-187.09 926.78,-184.75 927.58,-191.71"/>
</g>
<!-- Node11 -->
<g id="node11" class="node">
<title>Node11</title>
<g id="a_node11"><a xlink:href="MaCh3Logger_8h.html" target="_top" xlink:title="MaCh3 Logging utilities built on top of SPDLOG.">
<polygon fill="white" stroke="black" points="755.5,-112.5 755.5,-131.5 881.5,-131.5 881.5,-112.5 755.5,-112.5"/>
<text text-anchor="middle" x="818.5" y="-119.5" font-family="Helvetica" font-size="10.00">Manager/MaCh3Logger.h</text>
</a>
</g>
</g>
<!-- Node4&#45;&gt;Node11 -->
<g id="edge27" class="edge">
<title>Node4&#45;&gt;Node11</title>
<path fill="none" stroke="midnightblue" d="M603.35,-233.29C686.03,-232.09 820.92,-224.41 852.5,-188 865.31,-173.23 850.52,-152.79 836.63,-138.8"/>
<polygon fill="midnightblue" stroke="midnightblue" points="838.86,-136.09 829.19,-131.76 834.05,-141.18 838.86,-136.09"/>
</g>
<!-- Node15 -->
<g id="node15" class="node">
<title>Node15</title>
<g id="a_node15"><a xlink:href="Core_8h.html" target="_top" xlink:title="KS: Core MaCh3 definitions and compile&#45;time configuration utilities.">
<polygon fill="white" stroke="black" points="881.5,-56.5 881.5,-75.5 967.5,-75.5 967.5,-56.5 881.5,-56.5"/>
<text text-anchor="middle" x="924.5" y="-63.5" font-family="Helvetica" font-size="10.00">Manager/Core.h</text>
</a>
</g>
</g>
<!-- Node4&#45;&gt;Node15 -->
<g id="edge28" class="edge">
<title>Node4&#45;&gt;Node15</title>
<path fill="none" stroke="midnightblue" d="M603.32,-231.41C687.6,-228.14 827.63,-218.19 868.5,-188 902.06,-163.21 916.12,-113.34 921.51,-86"/>
<polygon fill="midnightblue" stroke="midnightblue" points="925.02,-86.26 923.32,-75.8 918.12,-85.04 925.02,-86.26"/>
</g>
<!-- Node21 -->
<g id="node21" class="node">
<title>Node21</title>
<g id="a_node21"><a xlink:title=" ">
<polygon fill="white" stroke="#bfbfbf" points="250.5,-168.5 250.5,-187.5 308.5,-187.5 308.5,-168.5 250.5,-168.5"/>
<text text-anchor="middle" x="279.5" y="-175.5" font-family="Helvetica" font-size="10.00">TSpline.h</text>
</a>
</g>
</g>
<!-- Node4&#45;&gt;Node21 -->
<g id="edge29" class="edge">
<title>Node4&#45;&gt;Node21</title>
<path fill="none" stroke="midnightblue" d="M493.59,-224.43C451.21,-216.07 384.98,-202.76 318.36,-188.14"/>
<polygon fill="midnightblue" stroke="midnightblue" points="319.04,-184.71 308.53,-185.97 317.54,-191.54 319.04,-184.71"/>
</g>
<!-- Node22 -->
<g id="node22" class="node">
<title>Node22</title>
<g id="a_node22"><a xlink:title=" ">
<polygon fill="white" stroke="#bfbfbf" points="327,-168.5 327,-187.5 398,-187.5 398,-168.5 327,-168.5"/>
<text text-anchor="middle" x="362.5" y="-175.5" font-family="Helvetica" font-size="10.00">TObjString.h</text>
</a>
</g>
</g>
<!-- Node4&#45;&gt;Node22 -->
<g id="edge30" class="edge">
<title>Node4&#45;&gt;Node22</title>
<path fill="none" stroke="midnightblue" d="M509.77,-224.44C480.07,-215.28 432.78,-200.69 399.83,-190.52"/>
<polygon fill="midnightblue" stroke="midnightblue" points="400.69,-187.12 390.1,-187.52 398.62,-193.81 400.69,-187.12"/>
</g>
<!-- Node23 -->
<g id="node23" class="node">
<title>Node23</title>
<g id="a_node23"><a xlink:title=" ">
<polygon fill="white" stroke="#bfbfbf" points="416,-168.5 416,-187.5 463,-187.5 463,-168.5 416,-168.5"/>
<text text-anchor="middle" x="439.5" y="-175.5" font-family="Helvetica" font-size="10.00">TFile.h</text>
</a>
</g>
</g>
<!-- Node4&#45;&gt;Node23 -->
<g id="edge31" class="edge">
<title>Node4&#45;&gt;Node23</title>
<path fill="none" stroke="midnightblue" d="M521.75,-224.32C506.18,-215.74 482.12,-202.49 464.04,-192.52"/>
<polygon fill="midnightblue" stroke="midnightblue" points="465.65,-189.42 455.21,-187.65 462.28,-195.55 465.65,-189.42"/>
</g>
<!-- Node24 -->
<g id="node24" class="node">
<title>Node24</title>
<g id="a_node24"><a xlink:title=" ">
<polygon fill="white" stroke="#bfbfbf" points="481.5,-168.5 481.5,-187.5 523.5,-187.5 523.5,-168.5 481.5,-168.5"/>
<text text-anchor="middle" x="502.5" y="-175.5" font-family="Helvetica" font-size="10.00">TF1.h</text>
</a>
</g>
</g>
<!-- Node4&#45;&gt;Node24 -->
<g id="edge32" class="edge">
<title>Node4&#45;&gt;Node24</title>
<path fill="none" stroke="midnightblue" d="M531.72,-224.08C526.83,-216.53 519.67,-205.49 513.67,-196.23"/>
<polygon fill="midnightblue" stroke="midnightblue" points="516.55,-194.24 508.17,-187.75 510.67,-198.05 516.55,-194.24"/>
</g>
<!-- Node25 -->
<g id="node25" class="node">
<title>Node25</title>
<g id="a_node25"><a xlink:title=" ">
<polygon fill="white" stroke="#bfbfbf" points="541.5,-168.5 541.5,-187.5 603.5,-187.5 603.5,-168.5 541.5,-168.5"/>
<text text-anchor="middle" x="572.5" y="-175.5" font-family="Helvetica" font-size="10.00">TH2Poly.h</text>
</a>
</g>
</g>
<!-- Node4&#45;&gt;Node25 -->
<g id="edge33" class="edge">
<title>Node4&#45;&gt;Node25</title>
<path fill="none" stroke="midnightblue" d="M543.28,-224.08C548.17,-216.53 555.33,-205.49 561.33,-196.23"/>
<polygon fill="midnightblue" stroke="midnightblue" points="564.33,-198.05 566.83,-187.75 558.45,-194.24 564.33,-198.05"/>
</g>
<!-- Node26 -->
<g id="node26" class="node">
<title>Node26</title>
<g id="a_node26"><a xlink:title=" ">
<polygon fill="white" stroke="#bfbfbf" points="621.5,-168.5 621.5,-187.5 665.5,-187.5 665.5,-168.5 621.5,-168.5"/>
<text text-anchor="middle" x="643.5" y="-175.5" font-family="Helvetica" font-size="10.00">TH1.h</text>
</a>
</g>
</g>
<!-- Node4&#45;&gt;Node26 -->
<g id="edge34" class="edge">
<title>Node4&#45;&gt;Node26</title>
<path fill="none" stroke="midnightblue" d="M554.53,-224.32C571.53,-215.66 597.88,-202.24 617.49,-192.25"/>
<polygon fill="midnightblue" stroke="midnightblue" points="619.19,-195.31 626.51,-187.65 616.01,-189.08 619.19,-195.31"/>
</g>
<!-- Node27 -->
<g id="node27" class="node">
<title>Node27</title>
<g id="a_node27"><a xlink:title=" ">
<polygon fill="white" stroke="#bfbfbf" points="684,-168.5 684,-187.5 843,-187.5 843,-168.5 684,-168.5"/>
<text text-anchor="middle" x="763.5" y="-175.5" font-family="Helvetica" font-size="10.00">Constants/OscillatorConstants.h</text>
</a>
</g>
</g>
<!-- Node4&#45;&gt;Node27 -->
<g id="edge35" class="edge">
<title>Node4&#45;&gt;Node27</title>
<path fill="none" stroke="midnightblue" d="M573.31,-224.44C612.49,-215.08 675.38,-200.06 718.02,-189.87"/>
<polygon fill="midnightblue" stroke="midnightblue" points="718.94,-193.24 727.86,-187.52 717.32,-186.44 718.94,-193.24"/>
</g>
<!-- Node8&#45;&gt;Node3 -->
<g id="edge9" class="edge">
<title>Node8&#45;&gt;Node3</title>
<path fill="none" stroke="midnightblue" d="M942.88,-168.49C889.73,-160.87 812.67,-148.37 746.5,-132 685.34,-116.87 615.75,-92.6 576.89,-78.39"/>
<polygon fill="midnightblue" stroke="midnightblue" points="577.83,-75.01 567.23,-74.83 575.41,-81.57 577.83,-75.01"/>
</g>
<!-- Node9 -->
<g id="node9" class="node">
<title>Node9</title>
<g id="a_node9"><a xlink:title=" ">
<polygon fill="white" stroke="#bfbfbf" points="1036.5,-0.5 1036.5,-19.5 1090.5,-19.5 1090.5,-0.5 1036.5,-0.5"/>
<text text-anchor="middle" x="1063.5" y="-7.5" font-family="Helvetica" font-size="10.00">iostream</text>
</a>
</g>
</g>
<!-- Node8&#45;&gt;Node9 -->
<g id="edge8" class="edge">
<title>Node8&#45;&gt;Node9</title>
<path fill="none" stroke="midnightblue" d="M1010.62,-168.39C1013.89,-159.35 1019.14,-144.71 1023.5,-132 1035.96,-95.69 1049.9,-53.01 1057.6,-29.28"/>
<polygon fill="midnightblue" stroke="midnightblue" points="1061,-30.12 1060.75,-19.53 1054.34,-27.97 1061,-30.12"/>
</g>
<!-- Node10 -->
<g id="node10" class="node">
<title>Node10</title>
<g id="a_node10"><a xlink:title=" ">
<polygon fill="white" stroke="#bfbfbf" points="938,-112.5 938,-131.5 997,-131.5 997,-112.5 938,-112.5"/>
<text text-anchor="middle" x="967.5" y="-119.5" font-family="Helvetica" font-size="10.00">stdexcept</text>
</a>
</g>
</g>
<!-- Node8&#45;&gt;Node10 -->
<g id="edge10" class="edge">
<title>Node8&#45;&gt;Node10</title>
<path fill="none" stroke="midnightblue" d="M1000.89,-168.08C995.24,-160.46 986.96,-149.26 980.05,-139.94"/>
<polygon fill="midnightblue" stroke="midnightblue" points="982.75,-137.7 973.98,-131.75 977.12,-141.87 982.75,-137.7"/>
</g>
<!-- Node8&#45;&gt;Node11 -->
<g id="edge11" class="edge">
<title>Node8&#45;&gt;Node11</title>
<path fill="none" stroke="midnightblue" d="M977.55,-168.44C945.34,-159.24 893.97,-144.56 858.36,-134.39"/>
<polygon fill="midnightblue" stroke="midnightblue" points="858.88,-130.9 848.31,-131.52 856.96,-137.63 858.88,-130.9"/>
</g>
<!-- Node8&#45;&gt;Node15 -->
<g id="edge26" class="edge">
<title>Node8&#45;&gt;Node15</title>
<path fill="none" stroke="midnightblue" d="M1009.95,-168.26C1013.13,-155.03 1017.1,-129.6 1006.5,-112 997.34,-96.79 981.05,-86.37 965.39,-79.41"/>
<polygon fill="midnightblue" stroke="midnightblue" points="966.38,-76.04 955.79,-75.52 963.75,-82.52 966.38,-76.04"/>
</g>
<!-- Node11&#45;&gt;Node3 -->
<g id="edge15" class="edge">
<title>Node11&#45;&gt;Node3</title>
<path fill="none" stroke="midnightblue" d="M763.36,-112.48C716.29,-104.82 646.65,-92.56 576.91,-75.87"/>
<polygon fill="midnightblue" stroke="midnightblue" points="577.62,-72.44 567.08,-73.49 575.97,-79.25 577.62,-72.44"/>
</g>
<!-- Node11&#45;&gt;Node9 -->
<g id="edge12" class="edge">
<title>Node11&#45;&gt;Node9</title>
<path fill="none" stroke="midnightblue" d="M864.73,-112.49C897.13,-105.42 940.84,-93.65 976.5,-76 1002.98,-62.9 1029.63,-41.48 1046.33,-26.84"/>
<polygon fill="midnightblue" stroke="midnightblue" points="1048.99,-29.16 1054.1,-19.88 1044.32,-23.95 1048.99,-29.16"/>
</g>
<!-- Node12 -->
<g id="node12" class="node">
<title>Node12</title>
<g id="a_node12"><a xlink:title=" ">
<polygon fill="white" stroke="#bfbfbf" points="710.5,-0.5 710.5,-19.5 762.5,-19.5 762.5,-0.5 710.5,-0.5"/>
<text text-anchor="middle" x="736.5" y="-7.5" font-family="Helvetica" font-size="10.00">sstream</text>
</a>
</g>
</g>
<!-- Node11&#45;&gt;Node12 -->
<g id="edge13" class="edge">
<title>Node11&#45;&gt;Node12</title>
<path fill="none" stroke="midnightblue" d="M812.07,-112.37C798.47,-94.14 766.64,-51.43 748.93,-27.68"/>
<polygon fill="midnightblue" stroke="midnightblue" points="751.69,-25.52 742.9,-19.59 746.08,-29.7 751.69,-25.52"/>
</g>
<!-- Node13 -->
<g id="node13" class="node">
<title>Node13</title>
<g id="a_node13"><a xlink:title=" ">
<polygon fill="white" stroke="#bfbfbf" points="804,-56.5 804,-75.5 863,-75.5 863,-56.5 804,-56.5"/>
<text text-anchor="middle" x="833.5" y="-63.5" font-family="Helvetica" font-size="10.00">functional</text>
</a>
</g>
</g>
<!-- Node11&#45;&gt;Node13 -->
<g id="edge14" class="edge">
<title>Node11&#45;&gt;Node13</title>
<path fill="none" stroke="midnightblue" d="M820.98,-112.08C822.99,-104.85 825.89,-94.41 828.39,-85.4"/>
<polygon fill="midnightblue" stroke="midnightblue" points="831.76,-86.32 831.07,-75.75 825.02,-84.45 831.76,-86.32"/>
</g>
<!-- Node14 -->
<g id="node14" class="node">
<title>Node14</title>
<g id="a_node14"><a xlink:title=" ">
<polygon fill="white" stroke="#bfbfbf" points="585.5,-56.5 585.5,-75.5 643.5,-75.5 643.5,-56.5 585.5,-56.5"/>
<text text-anchor="middle" x="614.5" y="-63.5" font-family="Helvetica" font-size="10.00">exception</text>
</a>
</g>
</g>
<!-- Node11&#45;&gt;Node14 -->
<g id="edge16" class="edge">
<title>Node11&#45;&gt;Node14</title>
<path fill="none" stroke="midnightblue" d="M786.18,-112.44C750.18,-102.92 692.02,-87.52 653.52,-77.33"/>
<polygon fill="midnightblue" stroke="midnightblue" points="654.26,-73.9 643.7,-74.73 652.47,-80.67 654.26,-73.9"/>
</g>
<!-- Node11&#45;&gt;Node15 -->
<g id="edge17" class="edge">
<title>Node11&#45;&gt;Node15</title>
<path fill="none" stroke="midnightblue" d="M835.53,-112.32C852.53,-103.66 878.88,-90.24 898.49,-80.25"/>
<polygon fill="midnightblue" stroke="midnightblue" points="900.19,-83.31 907.51,-75.65 897.01,-77.08 900.19,-83.31"/>
</g>
<!-- Node20 -->
<g id="node20" class="node">
<title>Node20</title>
<g id="a_node20"><a xlink:title=" ">
<polygon fill="white" stroke="#bfbfbf" points="662,-56.5 662,-75.5 747,-75.5 747,-56.5 662,-56.5"/>
<text text-anchor="middle" x="704.5" y="-63.5" font-family="Helvetica" font-size="10.00">spdlog/spdlog.h</text>
</a>
</g>
</g>
<!-- Node11&#45;&gt;Node20 -->
<g id="edge25" class="edge">
<title>Node11&#45;&gt;Node20</title>
<path fill="none" stroke="midnightblue" d="M800.44,-112.44C781.93,-103.68 752.92,-89.94 731.64,-79.86"/>
<polygon fill="midnightblue" stroke="midnightblue" points="733.01,-76.63 722.48,-75.52 730.02,-82.96 733.01,-76.63"/>
</g>
<!-- Node15&#45;&gt;Node2 -->
<g id="edge21" class="edge">
<title>Node15&#45;&gt;Node2</title>
<path fill="none" stroke="midnightblue" d="M881.41,-57.25C878.4,-56.8 875.41,-56.38 872.5,-56 688.81,-32.18 466.85,-17.67 385.43,-12.82"/>
<polygon fill="midnightblue" stroke="midnightblue" points="385.51,-9.32 375.33,-12.23 385.1,-16.31 385.51,-9.32"/>
</g>
<!-- Node15&#45;&gt;Node9 -->
<g id="edge20" class="edge">
<title>Node15&#45;&gt;Node9</title>
<path fill="none" stroke="midnightblue" d="M946.52,-56.44C969.6,-47.48 1006.06,-33.31 1032.14,-23.18"/>
<polygon fill="midnightblue" stroke="midnightblue" points="1033.52,-26.4 1041.58,-19.52 1030.99,-19.88 1033.52,-26.4"/>
</g>
<!-- Node15&#45;&gt;Node12 -->
<g id="edge18" class="edge">
<title>Node15&#45;&gt;Node12</title>
<path fill="none" stroke="midnightblue" d="M894.71,-56.44C861.54,-46.92 807.94,-31.52 772.46,-21.33"/>
<polygon fill="midnightblue" stroke="midnightblue" points="773.09,-17.87 762.52,-18.47 771.16,-24.6 773.09,-17.87"/>
</g>
<!-- Node16 -->
<g id="node16" class="node">
<title>Node16</title>
<g id="a_node16"><a xlink:title=" ">
<polygon fill="white" stroke="#bfbfbf" points="780.5,-0.5 780.5,-19.5 830.5,-19.5 830.5,-0.5 780.5,-0.5"/>
<text text-anchor="middle" x="805.5" y="-7.5" font-family="Helvetica" font-size="10.00">fstream</text>
</a>
</g>
</g>
<!-- Node15&#45;&gt;Node16 -->
<g id="edge19" class="edge">
<title>Node15&#45;&gt;Node16</title>
<path fill="none" stroke="midnightblue" d="M905.64,-56.44C886.23,-47.64 855.77,-33.81 833.54,-23.72"/>
<polygon fill="midnightblue" stroke="midnightblue" points="834.82,-20.46 824.27,-19.52 831.93,-26.84 834.82,-20.46"/>
</g>
<!-- Node17 -->
<g id="node17" class="node">
<title>Node17</title>
<g id="a_node17"><a xlink:title=" ">
<polygon fill="white" stroke="#bfbfbf" points="848.5,-0.5 848.5,-19.5 898.5,-19.5 898.5,-0.5 848.5,-0.5"/>
<text text-anchor="middle" x="873.5" y="-7.5" font-family="Helvetica" font-size="10.00">iomanip</text>
</a>
</g>
</g>
<!-- Node15&#45;&gt;Node17 -->
<g id="edge22" class="edge">
<title>Node15&#45;&gt;Node17</title>
<path fill="none" stroke="midnightblue" d="M916.08,-56.08C908.65,-48.22 897.65,-36.57 888.69,-27.08"/>
<polygon fill="midnightblue" stroke="midnightblue" points="891.18,-24.62 881.76,-19.75 886.09,-29.42 891.18,-24.62"/>
</g>
<!-- Node18 -->
<g id="node18" class="node">
<title>Node18</title>
<g id="a_node18"><a xlink:title=" ">
<polygon fill="white" stroke="#bfbfbf" points="916.5,-0.5 916.5,-19.5 960.5,-19.5 960.5,-0.5 916.5,-0.5"/>
<text text-anchor="middle" x="938.5" y="-7.5" font-family="Helvetica" font-size="10.00">cmath</text>
</a>
</g>
</g>
<!-- Node15&#45;&gt;Node18 -->
<g id="edge23" class="edge">
<title>Node15&#45;&gt;Node18</title>
<path fill="none" stroke="midnightblue" d="M926.81,-56.08C928.67,-48.93 931.34,-38.64 933.65,-29.69"/>
<polygon fill="midnightblue" stroke="midnightblue" points="937.11,-30.31 936.23,-19.75 930.33,-28.55 937.11,-30.31"/>
</g>
<!-- Node19 -->
<g id="node19" class="node">
<title>Node19</title>
<g id="a_node19"><a xlink:title=" ">
<polygon fill="white" stroke="#bfbfbf" points="978.5,-0.5 978.5,-19.5 1018.5,-19.5 1018.5,-0.5 978.5,-0.5"/>
<text text-anchor="middle" x="998.5" y="-7.5" font-family="Helvetica" font-size="10.00">limits</text>
</a>
</g>
</g>
<!-- Node15&#45;&gt;Node19 -->
<g id="edge24" class="edge">
<title>Node15&#45;&gt;Node19</title>
<path fill="none" stroke="midnightblue" d="M936.39,-56.32C947.65,-48.11 964.79,-35.6 978.21,-25.81"/>
<polygon fill="midnightblue" stroke="midnightblue" points="980.38,-28.56 986.39,-19.83 976.25,-22.9 980.38,-28.56"/>
</g>
</g>
</svg>
        <g id="navigator" transform="translate(0 0)" fill="#404254">
                <rect fill="#f2f5e9" fill-opacity="0.5" stroke="#606060" stroke-width=".5" x="0" y="0" width="60" height="60"/>
                <use id="zoomplus" xlink:href="#zoomPlus" x="17" y="9" onmousedown="handleZoom(evt,'in')"/>
                <use id="zoomminus" xlink:href="#zoomMin" x="42" y="9" onmousedown="handleZoom(evt,'out')"/>
                <use id="reset" xlink:href="#resetDef" x="30" y="36" onmousedown="handleReset()"/>
                <g id="arrowUp" xlink:href="#dirArrow" transform="translate(30 24)" onmousedown="handlePan(0,-1)">
                  <use xlink:href="#rim" fill="#404040">
                        <set attributeName="fill" to="#808080" begin="arrowUp.mouseover" end="arrowUp.mouseout"/>
                  </use>
                  <path fill="none" stroke="white" stroke-width="1.5" d="M0,-3.0v7 M-2.5,-0.5L0,-3.0L2.5,-0.5"/>
                </g>
                <g id="arrowRight" xlink:href="#dirArrow" transform="rotate(90) translate(36 -43)" onmousedown="handlePan(1,0)">
                  <use xlink:href="#rim" fill="#404040">
                        <set attributeName="fill" to="#808080" begin="arrowRight.mouseover" end="arrowRight.mouseout"/>
                  </use>
                  <path fill="none" stroke="white" stroke-width="1.5" d="M0,-3.0v7 M-2.5,-0.5L0,-3.0L2.5,-0.5"/>
                </g>
                <g id="arrowDown" xlink:href="#dirArrow" transform="rotate(180) translate(-30 -48)" onmousedown="handlePan(0,1)">
                  <use xlink:href="#rim" fill="#404040">
                        <set attributeName="fill" to="#808080" begin="arrowDown.mouseover" end="arrowDown.mouseout"/>
                  </use>
                  <path fill="none" stroke="white" stroke-width="1.5" d="M0,-3.0v7 M-2.5,-0.5L0,-3.0L2.5,-0.5"/>
                </g>
                <g id="arrowLeft" xlink:href="#dirArrow" transform="rotate(270) translate(-36 17)" onmousedown="handlePan(-1,0)">
                  <use xlink:href="#rim" fill="#404040">
                        <set attributeName="fill" to="#808080" begin="arrowLeft.mouseover" end="arrowLeft.mouseout"/>
                  </use>
                  <path fill="none" stroke="white" stroke-width="1.5" d="M0,-3.0v7 M-2.5,-0.5L0,-3.0L2.5,-0.5"/>
                </g>
        </g>
        <svg viewBox="0 0 15 15" width="100%" height="30px" preserveAspectRatio="xMaxYMin meet">
         <g id="arrow_out" transform="scale(0.3 0.3)">
          <a xlink:href="FarDetectorCoreInfoStruct_8h__incl_org.svg" target="_base">
           <rect id="button" ry="5" rx="5" y="6" x="6" height="38" width="38"
                fill="#f2f5e9" fill-opacity="0.5" stroke="#606060" stroke-width="1.0"/>
           <path id="arrow"
             d="M 11.500037,31.436501 C 11.940474,20.09759 22.043105,11.32322 32.158766,21.979434 L 37.068811,17.246167 C 37.068811,17.246167 37.088388,32 37.088388,32 L 22.160133,31.978069 C 22.160133,31.978069 26.997745,27.140456 26.997745,27.140456 C 18.528582,18.264221 13.291696,25.230495 11.500037,31.436501 z"
             style="fill:#404040;"/>
          </a>
         </g>
        </svg>
</svg>
