<?xml version="1.0" encoding="UTF-8" standalone="no"?>
<!DOCTYPE svg PUBLIC "-//W3C//DTD SVG 1.1//EN"
 "http://www.w3.org/Graphics/SVG/1.1/DTD/svg11.dtd">
<!-- Generated by graphviz version 2.44.0 (0)
 -->
<!-- Title: Samples/HistogramUtils.h Pages: 1 -->
<svg width="2256pt" height="487pt"
 viewBox="0.00 0.00 2256.04 487.00" xmlns="http://www.w3.org/2000/svg" xmlns:xlink="http://www.w3.org/1999/xlink">
<g id="graph0" class="graph" transform="scale(1 1) rotate(0) translate(4 483)">
<title>Samples/HistogramUtils.h</title>
<polygon fill="white" stroke="transparent" points="-4,4 -4,-483 2252.04,-483 2252.04,4 -4,4"/>
<!-- Node1 -->
<g id="node1" class="node">
<title>Node1</title>
<g id="a_node1"><a xlink:title=" ">
<polygon fill="#bfbfbf" stroke="black" points="1338.04,-459.5 1338.04,-478.5 1469.04,-478.5 1469.04,-459.5 1338.04,-459.5"/>
<text text-anchor="middle" x="1403.54" y="-466.5" font-family="Helvetica" font-size="10.00">Samples/HistogramUtils.h</text>
</a>
</g>
</g>
<!-- Node2 -->
<g id="node2" class="node">
<title>Node2</title>
<g id="a_node2"><a xlink:href="HistogramUtils_8cpp.html" target="_top" xlink:title=" ">
<polygon fill="white" stroke="black" points="962.54,-398 962.54,-417 1104.54,-417 1104.54,-398 962.54,-398"/>
<text text-anchor="middle" x="1033.54" y="-405" font-family="Helvetica" font-size="10.00">Samples/HistogramUtils.cpp</text>
</a>
</g>
</g>
<!-- Node1&#45;&gt;Node2 -->
<g id="edge1" class="edge">
<title>Node1&#45;&gt;Node2</title>
<path fill="none" stroke="midnightblue" d="M1338.25,-457.93C1280.47,-448.95 1193.85,-435.37 1118.54,-423 1107.02,-421.11 1094.63,-419.02 1082.97,-417.04"/>
<polygon fill="midnightblue" stroke="midnightblue" points="1337.93,-461.42 1348.34,-459.49 1339,-454.5 1337.93,-461.42"/>
</g>
<!-- Node3 -->
<g id="node3" class="node">
<title>Node3</title>
<g id="a_node3"><a xlink:href="SampleHandlerBase_8h.html" target="_top" xlink:title=" ">
<polygon fill="white" stroke="black" points="531.04,-336.5 531.04,-355.5 686.04,-355.5 686.04,-336.5 531.04,-336.5"/>
<text text-anchor="middle" x="608.54" y="-343.5" font-family="Helvetica" font-size="10.00">Samples/SampleHandlerBase.h</text>
</a>
</g>
</g>
<!-- Node1&#45;&gt;Node3 -->
<g id="edge2" class="edge">
<title>Node1&#45;&gt;Node3</title>
<path fill="none" stroke="midnightblue" d="M1327.86,-464.45C1276.2,-459.68 1207.3,-448.6 1151.54,-423 1131.74,-413.9 1133.73,-400.22 1113.54,-392 1038.13,-361.3 807.99,-351.47 686.13,-348.38"/>
<polygon fill="midnightblue" stroke="midnightblue" points="1327.69,-467.95 1337.95,-465.32 1328.29,-460.97 1327.69,-467.95"/>
</g>
<!-- Node29 -->
<g id="node29" class="node">
<title>Node29</title>
<g id="a_node29"><a xlink:href="MCMCProcessor_8h.html" target="_top" xlink:title=" ">
<polygon fill="white" stroke="black" points="1170.54,-336.5 1170.54,-355.5 1302.54,-355.5 1302.54,-336.5 1170.54,-336.5"/>
<text text-anchor="middle" x="1236.54" y="-343.5" font-family="Helvetica" font-size="10.00">Fitters/MCMCProcessor.h</text>
</a>
</g>
</g>
<!-- Node1&#45;&gt;Node29 -->
<g id="edge38" class="edge">
<title>Node1&#45;&gt;Node29</title>
<path fill="none" stroke="midnightblue" d="M1380.52,-454.25C1366.43,-445.63 1348.16,-434.09 1332.54,-423 1300.13,-399.99 1263.85,-370.04 1246.64,-355.57"/>
<polygon fill="midnightblue" stroke="midnightblue" points="1378.75,-457.27 1389.11,-459.46 1382.38,-451.29 1378.75,-457.27"/>
</g>
<!-- Node31 -->
<g id="node31" class="node">
<title>Node31</title>
<g id="a_node31"><a xlink:href="OscProcessor_8h.html" target="_top" xlink:title=" ">
<polygon fill="white" stroke="black" points="1325.04,-280.5 1325.04,-299.5 1444.04,-299.5 1444.04,-280.5 1325.04,-280.5"/>
<text text-anchor="middle" x="1384.54" y="-287.5" font-family="Helvetica" font-size="10.00">Fitters/OscProcessor.h</text>
</a>
</g>
</g>
<!-- Node1&#45;&gt;Node31 -->
<g id="edge49" class="edge">
<title>Node1&#45;&gt;Node31</title>
<path fill="none" stroke="midnightblue" d="M1387.83,-451.88C1381.12,-443.88 1374.03,-433.66 1370.54,-423 1358.51,-386.25 1364.74,-374.23 1370.54,-336 1372.51,-323.06 1377.49,-308.72 1380.94,-299.78"/>
<polygon fill="midnightblue" stroke="midnightblue" points="1385.24,-454.24 1394.52,-459.34 1390.45,-449.56 1385.24,-454.24"/>
</g>
<!-- Node35 -->
<g id="node35" class="node">
<title>Node35</title>
<g id="a_node35"><a xlink:href="PlotMCMCDiag_8cpp.html" target="_top" xlink:title="KS: This script is used to analyse output form DiagMCMC.">
<polygon fill="white" stroke="black" points="1462.54,-280.5 1462.54,-299.5 1620.54,-299.5 1620.54,-280.5 1462.54,-280.5"/>
<text text-anchor="middle" x="1541.54" y="-287.5" font-family="Helvetica" font-size="10.00">Diagnostics/PlotMCMCDiag.cpp</text>
</a>
</g>
</g>
<!-- Node1&#45;&gt;Node35 -->
<g id="edge56" class="edge">
<title>Node1&#45;&gt;Node35</title>
<path fill="none" stroke="midnightblue" d="M1398.19,-449.24C1391.5,-421.51 1383.71,-369.27 1408.54,-336 1422.69,-317.05 1445.21,-306 1467.73,-299.59"/>
<polygon fill="midnightblue" stroke="midnightblue" points="1394.88,-450.41 1400.81,-459.19 1401.65,-448.63 1394.88,-450.41"/>
</g>
<!-- Node37 -->
<g id="node37" class="node">
<title>Node37</title>
<g id="a_node37"><a xlink:href="SmearChain_8cpp.html" target="_top" xlink:title="Allows you to smear contour. For example after performing sets of study one finds out that used sets ...">
<polygon fill="white" stroke="black" points="1638.54,-280.5 1638.54,-299.5 1782.54,-299.5 1782.54,-280.5 1638.54,-280.5"/>
<text text-anchor="middle" x="1710.54" y="-287.5" font-family="Helvetica" font-size="10.00">Diagnostics/SmearChain.cpp</text>
</a>
</g>
</g>
<!-- Node1&#45;&gt;Node37 -->
<g id="edge59" class="edge">
<title>Node1&#45;&gt;Node37</title>
<path fill="none" stroke="midnightblue" d="M1408.51,-449.54C1413.98,-432.47 1424.37,-407.47 1441.54,-392 1502.34,-337.25 1595.64,-311.2 1654.84,-299.54"/>
<polygon fill="midnightblue" stroke="midnightblue" points="1405.06,-448.85 1405.6,-459.44 1411.78,-450.83 1405.06,-448.85"/>
</g>
<!-- Node38 -->
<g id="node38" class="node">
<title>Node38</title>
<g id="a_node38"><a xlink:href="StatisticalUtils_8h.html" target="_top" xlink:title="Utility functions for statistical interpretations in MaCh3.">
<polygon fill="white" stroke="black" points="1160.54,-398 1160.54,-417 1280.54,-417 1280.54,-398 1160.54,-398"/>
<text text-anchor="middle" x="1220.54" y="-405" font-family="Helvetica" font-size="10.00">Fitters/StatisticalUtils.h</text>
</a>
</g>
</g>
<!-- Node1&#45;&gt;Node38 -->
<g id="edge50" class="edge">
<title>Node1&#45;&gt;Node38</title>
<path fill="none" stroke="midnightblue" d="M1367.81,-456.38C1332.24,-444.82 1278.49,-427.34 1246.72,-417.01"/>
<polygon fill="midnightblue" stroke="midnightblue" points="1366.73,-459.71 1377.33,-459.48 1368.9,-453.05 1366.73,-459.71"/>
</g>
<!-- Node40 -->
<g id="node40" class="node">
<title>Node40</title>
<g id="a_node40"><a xlink:href="CombineMaCh3Chains_8cpp.html" target="_top" xlink:title="Combine chains files produced by MCMC, enforcing the condition that all the files to combine were mad...">
<polygon fill="white" stroke="black" points="1450.54,-392.5 1450.54,-422.5 1592.54,-422.5 1592.54,-392.5 1450.54,-392.5"/>
<text text-anchor="start" x="1458.54" y="-410.5" font-family="Helvetica" font-size="10.00">Diagnostics/CombineMaCh3</text>
<text text-anchor="middle" x="1521.54" y="-399.5" font-family="Helvetica" font-size="10.00">Chains.cpp</text>
</a>
</g>
</g>
<!-- Node1&#45;&gt;Node40 -->
<g id="edge54" class="edge">
<title>Node1&#45;&gt;Node40</title>
<path fill="none" stroke="midnightblue" d="M1429.45,-454.94C1448.47,-445.35 1474.28,-432.33 1493.73,-422.52"/>
<polygon fill="midnightblue" stroke="midnightblue" points="1427.8,-451.85 1420.45,-459.48 1430.96,-458.1 1427.8,-451.85"/>
</g>
<!-- Node41 -->
<g id="node41" class="node">
<title>Node41</title>
<g id="a_node41"><a xlink:href="GetPenaltyTerm_8cpp.html" target="_top" xlink:title="KS: This file contains the implementation of the function to extract specific penalty terms from syst...">
<polygon fill="white" stroke="black" points="1610.54,-398 1610.54,-417 1770.54,-417 1770.54,-398 1610.54,-398"/>
<text text-anchor="middle" x="1690.54" y="-405" font-family="Helvetica" font-size="10.00">Diagnostics/GetPenaltyTerm.cpp</text>
</a>
</g>
</g>
<!-- Node1&#45;&gt;Node41 -->
<g id="edge55" class="edge">
<title>Node1&#45;&gt;Node41</title>
<path fill="none" stroke="midnightblue" d="M1454.66,-457.4C1510.3,-445.87 1598.18,-427.65 1649.5,-417.01"/>
<polygon fill="midnightblue" stroke="midnightblue" points="1453.75,-454.02 1444.66,-459.48 1455.17,-460.87 1453.75,-454.02"/>
</g>
<!-- Node42 -->
<g id="node42" class="node">
<title>Node42</title>
<g id="a_node42"><a xlink:href="RHat_8cpp.html" target="_top" xlink:title="This executable calculates the &#160;estimator for Markov Chain Monte Carlo (MCMC) convergence.">
<polygon fill="white" stroke="black" points="1789.04,-398 1789.04,-417 1902.04,-417 1902.04,-398 1789.04,-398"/>
<text text-anchor="middle" x="1845.54" y="-405" font-family="Helvetica" font-size="10.00">Diagnostics/RHat.cpp</text>
</a>
</g>
</g>
<!-- Node1&#45;&gt;Node42 -->
<g id="edge57" class="edge">
<title>Node1&#45;&gt;Node42</title>
<path fill="none" stroke="midnightblue" d="M1479.35,-461.11C1555.51,-453.68 1676.1,-440.51 1779.54,-423 1789.38,-421.34 1799.96,-419.18 1809.7,-417.04"/>
<polygon fill="midnightblue" stroke="midnightblue" points="1478.98,-457.63 1469.37,-462.08 1479.66,-464.6 1478.98,-457.63"/>
</g>
<!-- Node43 -->
<g id="node43" class="node">
<title>Node43</title>
<g id="a_node43"><a xlink:href="RHat__HighMem_8cpp.html" target="_top" xlink:title=" ">
<polygon fill="white" stroke="black" points="1920.04,-398 1920.04,-417 2081.04,-417 2081.04,-398 1920.04,-398"/>
<text text-anchor="middle" x="2000.54" y="-405" font-family="Helvetica" font-size="10.00">Diagnostics/RHat_HighMem.cpp</text>
</a>
</g>
</g>
<!-- Node1&#45;&gt;Node43 -->
<g id="edge58" class="edge">
<title>Node1&#45;&gt;Node43</title>
<path fill="none" stroke="midnightblue" d="M1479.31,-463.03C1578.75,-456.1 1758.61,-442.21 1911.54,-423 1924.75,-421.34 1939,-419.19 1952.14,-417.05"/>
<polygon fill="midnightblue" stroke="midnightblue" points="1478.8,-459.55 1469.06,-463.73 1479.28,-466.54 1478.8,-459.55"/>
</g>
<!-- Node44 -->
<g id="node44" class="node">
<title>Node44</title>
<g id="a_node44"><a xlink:href="ParameterHandlerBase_8cpp.html" target="_top" xlink:title=" ">
<polygon fill="white" stroke="black" points="2099.04,-392.5 2099.04,-422.5 2248.04,-422.5 2248.04,-392.5 2099.04,-392.5"/>
<text text-anchor="start" x="2107.04" y="-410.5" font-family="Helvetica" font-size="10.00">Parameters/ParameterHandler</text>
<text text-anchor="middle" x="2173.54" y="-399.5" font-family="Helvetica" font-size="10.00">Base.cpp</text>
</a>
</g>
</g>
<!-- Node1&#45;&gt;Node44 -->
<g id="edge60" class="edge">
<title>Node1&#45;&gt;Node44</title>
<path fill="none" stroke="midnightblue" d="M1479.12,-465.71C1605.89,-461.27 1869.27,-449.5 2090.54,-423 2093.3,-422.67 2096.11,-422.31 2098.94,-421.92"/>
<polygon fill="midnightblue" stroke="midnightblue" points="1478.99,-462.21 1469.12,-466.05 1479.24,-469.21 1478.99,-462.21"/>
</g>
<!-- Node4 -->
<g id="node4" class="node">
<title>Node4</title>
<g id="a_node4"><a xlink:href="SampleHandlerBase_8cpp.html" target="_top" xlink:title=" ">
<polygon fill="white" stroke="black" points="39.54,-280.5 39.54,-299.5 205.54,-299.5 205.54,-280.5 39.54,-280.5"/>
<text text-anchor="middle" x="122.54" y="-287.5" font-family="Helvetica" font-size="10.00">Samples/SampleHandlerBase.cpp</text>
</a>
</g>
</g>
<!-- Node3&#45;&gt;Node4 -->
<g id="edge3" class="edge">
<title>Node3&#45;&gt;Node4</title>
<path fill="none" stroke="midnightblue" d="M521.72,-335.35C430.05,-325.17 286.94,-309.27 199.28,-299.53"/>
<polygon fill="midnightblue" stroke="midnightblue" points="521.48,-338.85 531.8,-336.47 522.25,-331.89 521.48,-338.85"/>
</g>
<!-- Node5 -->
<g id="node5" class="node">
<title>Node5</title>
<g id="a_node5"><a xlink:href="SampleHandlerFD_8h.html" target="_top" xlink:title=" ">
<polygon fill="white" stroke="black" points="223.54,-280.5 223.54,-299.5 369.54,-299.5 369.54,-280.5 223.54,-280.5"/>
<text text-anchor="middle" x="296.54" y="-287.5" font-family="Helvetica" font-size="10.00">Samples/SampleHandlerFD.h</text>
</a>
</g>
</g>
<!-- Node3&#45;&gt;Node5 -->
<g id="edge4" class="edge">
<title>Node3&#45;&gt;Node5</title>
<path fill="none" stroke="midnightblue" d="M549.19,-334.73C490.23,-324.52 400.88,-309.06 345.75,-299.52"/>
<polygon fill="midnightblue" stroke="midnightblue" points="548.66,-338.19 559.11,-336.44 549.85,-331.29 548.66,-338.19"/>
</g>
<!-- Node10 -->
<g id="node10" class="node">
<title>Node10</title>
<g id="a_node10"><a xlink:href="FitterBase_8h.html" target="_top" xlink:title=" ">
<polygon fill="white" stroke="black" points="558.04,-280.5 558.04,-299.5 659.04,-299.5 659.04,-280.5 558.04,-280.5"/>
<text text-anchor="middle" x="608.54" y="-287.5" font-family="Helvetica" font-size="10.00">Fitters/FitterBase.h</text>
</a>
</g>
</g>
<!-- Node3&#45;&gt;Node10 -->
<g id="edge9" class="edge">
<title>Node3&#45;&gt;Node10</title>
<path fill="none" stroke="midnightblue" d="M608.54,-325.8C608.54,-316.91 608.54,-306.78 608.54,-299.75"/>
<polygon fill="midnightblue" stroke="midnightblue" points="605.04,-326.08 608.54,-336.08 612.04,-326.08 605.04,-326.08"/>
</g>
<!-- Node27 -->
<g id="node27" class="node">
<title>Node27</title>
<g id="a_node27"><a xlink:href="SampleSummary_8h.html" target="_top" xlink:title=" ">
<polygon fill="white" stroke="black" points="677.04,-280.5 677.04,-299.5 808.04,-299.5 808.04,-280.5 677.04,-280.5"/>
<text text-anchor="middle" x="742.54" y="-287.5" font-family="Helvetica" font-size="10.00">Fitters/SampleSummary.h</text>
</a>
</g>
</g>
<!-- Node3&#45;&gt;Node27 -->
<g id="edge36" class="edge">
<title>Node3&#45;&gt;Node27</title>
<path fill="none" stroke="midnightblue" d="M639.22,-332.64C664.37,-322.5 699.3,-308.43 721.41,-299.52"/>
<polygon fill="midnightblue" stroke="midnightblue" points="637.74,-329.46 629.78,-336.44 640.36,-335.95 637.74,-329.46"/>
</g>
<!-- Node6 -->
<g id="node6" class="node">
<title>Node6</title>
<g id="a_node6"><a xlink:href="SampleHandlerFD_8cpp.html" target="_top" xlink:title=" ">
<polygon fill="white" stroke="black" points="141.04,-224.5 141.04,-243.5 298.04,-243.5 298.04,-224.5 141.04,-224.5"/>
<text text-anchor="middle" x="219.54" y="-231.5" font-family="Helvetica" font-size="10.00">Samples/SampleHandlerFD.cpp</text>
</a>
</g>
</g>
<!-- Node5&#45;&gt;Node6 -->
<g id="edge5" class="edge">
<title>Node5&#45;&gt;Node6</title>
<path fill="none" stroke="midnightblue" d="M275.64,-274.34C261.63,-264.52 243.66,-251.91 231.89,-243.65"/>
<polygon fill="midnightblue" stroke="midnightblue" points="273.98,-277.45 284.17,-280.32 278,-271.72 273.98,-277.45"/>
</g>
<!-- Node7 -->
<g id="node7" class="node">
<title>Node7</title>
<g id="a_node7"><a xlink:href="FitterBase_8cpp.html" target="_top" xlink:title=" ">
<polygon fill="white" stroke="black" points="316.54,-224.5 316.54,-243.5 428.54,-243.5 428.54,-224.5 316.54,-224.5"/>
<text text-anchor="middle" x="372.54" y="-231.5" font-family="Helvetica" font-size="10.00">Fitters/FitterBase.cpp</text>
</a>
</g>
</g>
<!-- Node5&#45;&gt;Node7 -->
<g id="edge6" class="edge">
<title>Node5&#45;&gt;Node7</title>
<path fill="none" stroke="midnightblue" d="M317.12,-274.38C330.86,-264.62 348.47,-252.11 360.11,-243.83"/>
<polygon fill="midnightblue" stroke="midnightblue" points="314.88,-271.68 308.76,-280.32 318.93,-277.38 314.88,-271.68"/>
</g>
<!-- Node8 -->
<g id="node8" class="node">
<title>Node8</title>
<g id="a_node8"><a xlink:href="PredictiveThrower_8cpp.html" target="_top" xlink:title=" ">
<polygon fill="white" stroke="black" points="132.54,-168.5 132.54,-187.5 276.54,-187.5 276.54,-168.5 132.54,-168.5"/>
<text text-anchor="middle" x="204.54" y="-175.5" font-family="Helvetica" font-size="10.00">Fitters/PredictiveThrower.cpp</text>
</a>
</g>
</g>
<!-- Node5&#45;&gt;Node8 -->
<g id="edge7" class="edge">
<title>Node5&#45;&gt;Node8</title>
<path fill="none" stroke="midnightblue" d="M217.7,-279.19C135.11,-268.53 16.35,-251.96 9.54,-244 -28.5,-199.53 62.23,-185.36 132.35,-180.92"/>
<polygon fill="midnightblue" stroke="midnightblue" points="217.47,-282.69 227.84,-280.49 218.36,-275.74 217.47,-282.69"/>
</g>
<!-- Node9 -->
<g id="node9" class="node">
<title>Node9</title>
<g id="a_node9"><a xlink:href="samples_8cpp.html" target="_top" xlink:title=" ">
<polygon fill="white" stroke="black" points="18.54,-224.5 18.54,-243.5 122.54,-243.5 122.54,-224.5 18.54,-224.5"/>
<text text-anchor="middle" x="70.54" y="-231.5" font-family="Helvetica" font-size="10.00">python/samples.cpp</text>
</a>
</g>
</g>
<!-- Node5&#45;&gt;Node9 -->
<g id="edge8" class="edge">
<title>Node5&#45;&gt;Node9</title>
<path fill="none" stroke="midnightblue" d="M250.88,-278.09C208.18,-267.89 145.3,-252.86 106.19,-243.52"/>
<polygon fill="midnightblue" stroke="midnightblue" points="250.19,-281.52 260.73,-280.44 251.82,-274.72 250.19,-281.52"/>
</g>
<!-- Node10&#45;&gt;Node7 -->
<g id="edge10" class="edge">
<title>Node10&#45;&gt;Node7</title>
<path fill="none" stroke="midnightblue" d="M561.14,-278.15C516.55,-267.95 450.69,-252.88 409.76,-243.52"/>
<polygon fill="midnightblue" stroke="midnightblue" points="560.62,-281.62 571.15,-280.44 562.18,-274.8 560.62,-281.62"/>
</g>
<!-- Node11 -->
<g id="node11" class="node">
<title>Node11</title>
<g id="a_node11"><a xlink:href="LikelihoodFit_8h.html" target="_top" xlink:title=" ">
<polygon fill="white" stroke="black" points="508.54,-168.5 508.54,-187.5 618.54,-187.5 618.54,-168.5 508.54,-168.5"/>
<text text-anchor="middle" x="563.54" y="-175.5" font-family="Helvetica" font-size="10.00">Fitters/LikelihoodFit.h</text>
</a>
</g>
</g>
<!-- Node10&#45;&gt;Node11 -->
<g id="edge11" class="edge">
<title>Node10&#45;&gt;Node11</title>
<path fill="none" stroke="midnightblue" d="M604.41,-270.56C601.14,-257.32 596.05,-239.2 589.54,-224 583.87,-210.73 575.13,-196.47 569.38,-187.64"/>
<polygon fill="midnightblue" stroke="midnightblue" points="601.02,-271.43 606.72,-280.36 607.83,-269.82 601.02,-271.43"/>
</g>
<!-- Node13 -->
<g id="node13" class="node">
<title>Node13</title>
<g id="a_node13"><a xlink:href="MaCh3Factory_8h.html" target="_top" xlink:title="Factory methods for MaCh3 software which streamline initialisation of different objects.">
<polygon fill="white" stroke="black" points="711.04,-56.5 711.04,-75.5 832.04,-75.5 832.04,-56.5 711.04,-56.5"/>
<text text-anchor="middle" x="771.54" y="-63.5" font-family="Helvetica" font-size="10.00">Fitters/MaCh3Factory.h</text>
</a>
</g>
</g>
<!-- Node10&#45;&gt;Node13 -->
<g id="edge22" class="edge">
<title>Node10&#45;&gt;Node13</title>
<path fill="none" stroke="midnightblue" d="M621.03,-272C653.63,-227.6 740.51,-109.27 765.02,-75.88"/>
<polygon fill="midnightblue" stroke="midnightblue" points="618.03,-270.17 614.93,-280.3 623.67,-274.31 618.03,-270.17"/>
</g>
<!-- Node17 -->
<g id="node17" class="node">
<title>Node17</title>
<g id="a_node17"><a xlink:href="fitters_8cpp.html" target="_top" xlink:title=" ">
<polygon fill="white" stroke="black" points="600.04,-56.5 600.04,-75.5 693.04,-75.5 693.04,-56.5 600.04,-56.5"/>
<text text-anchor="middle" x="646.54" y="-63.5" font-family="Helvetica" font-size="10.00">python/fitters.cpp</text>
</a>
</g>
</g>
<!-- Node10&#45;&gt;Node17 -->
<g id="edge35" class="edge">
<title>Node10&#45;&gt;Node17</title>
<path fill="none" stroke="midnightblue" d="M612.23,-270.33C616.19,-250.08 622.58,-216.79 627.54,-188 634.81,-145.88 642.38,-95.31 645.3,-75.52"/>
<polygon fill="midnightblue" stroke="midnightblue" points="608.75,-269.88 610.26,-280.37 615.62,-271.23 608.75,-269.88"/>
</g>
<!-- Node20 -->
<g id="node20" class="node">
<title>Node20</title>
<g id="a_node20"><a xlink:href="MCMCBase_8h.html" target="_top" xlink:title=" ">
<polygon fill="white" stroke="black" points="750.54,-224.5 750.54,-243.5 860.54,-243.5 860.54,-224.5 750.54,-224.5"/>
<text text-anchor="middle" x="805.54" y="-231.5" font-family="Helvetica" font-size="10.00">Fitters/MCMCBase.h</text>
</a>
</g>
</g>
<!-- Node10&#45;&gt;Node20 -->
<g id="edge23" class="edge">
<title>Node10&#45;&gt;Node20</title>
<path fill="none" stroke="midnightblue" d="M649.77,-277.7C686.95,-267.51 740.82,-252.74 774.48,-243.52"/>
<polygon fill="midnightblue" stroke="midnightblue" points="648.48,-274.42 639.76,-280.44 650.33,-281.18 648.48,-274.42"/>
</g>
<!-- Node26 -->
<g id="node26" class="node">
<title>Node26</title>
<g id="a_node26"><a xlink:href="PredictiveThrower_8h.html" target="_top" xlink:title=" ">
<polygon fill="white" stroke="black" points="446.54,-224.5 446.54,-243.5 580.54,-243.5 580.54,-224.5 446.54,-224.5"/>
<text text-anchor="middle" x="513.54" y="-231.5" font-family="Helvetica" font-size="10.00">Fitters/PredictiveThrower.h</text>
</a>
</g>
</g>
<!-- Node10&#45;&gt;Node26 -->
<g id="edge33" class="edge">
<title>Node10&#45;&gt;Node26</title>
<path fill="none" stroke="midnightblue" d="M584.23,-275.18C566.75,-265.24 543.71,-252.15 528.77,-243.65"/>
<polygon fill="midnightblue" stroke="midnightblue" points="582.86,-278.43 593.28,-280.32 586.32,-272.34 582.86,-278.43"/>
</g>
<!-- Node12 -->
<g id="node12" class="node">
<title>Node12</title>
<g id="a_node12"><a xlink:href="LikelihoodFit_8cpp.html" target="_top" xlink:title=" ">
<polygon fill="white" stroke="black" points="402.54,-112.5 402.54,-131.5 522.54,-131.5 522.54,-112.5 402.54,-112.5"/>
<text text-anchor="middle" x="462.54" y="-119.5" font-family="Helvetica" font-size="10.00">Fitters/LikelihoodFit.cpp</text>
</a>
</g>
</g>
<!-- Node11&#45;&gt;Node12 -->
<g id="edge12" class="edge">
<title>Node11&#45;&gt;Node12</title>
<path fill="none" stroke="midnightblue" d="M538.46,-163.59C519.79,-153.61 494.84,-140.27 478.73,-131.65"/>
<polygon fill="midnightblue" stroke="midnightblue" points="536.85,-166.7 547.32,-168.32 540.15,-160.52 536.85,-166.7"/>
</g>
<!-- Node11&#45;&gt;Node13 -->
<g id="edge13" class="edge">
<title>Node11&#45;&gt;Node13</title>
<path fill="none" stroke="midnightblue" d="M588.9,-163.59C632.2,-140.69 719.22,-94.67 755.3,-75.59"/>
<polygon fill="midnightblue" stroke="midnightblue" points="587.07,-160.6 579.87,-168.37 590.34,-166.79 587.07,-160.6"/>
</g>
<!-- Node15 -->
<g id="node15" class="node">
<title>Node15</title>
<g id="a_node15"><a xlink:href="MinuitFit_8h.html" target="_top" xlink:title=" ">
<polygon fill="white" stroke="black" points="291.04,-112.5 291.04,-131.5 384.04,-131.5 384.04,-112.5 291.04,-112.5"/>
<text text-anchor="middle" x="337.54" y="-119.5" font-family="Helvetica" font-size="10.00">Fitters/MinuitFit.h</text>
</a>
</g>
</g>
<!-- Node11&#45;&gt;Node15 -->
<g id="edge15" class="edge">
<title>Node11&#45;&gt;Node15</title>
<path fill="none" stroke="midnightblue" d="M517.88,-166.09C475.18,-155.89 412.3,-140.86 373.19,-131.52"/>
<polygon fill="midnightblue" stroke="midnightblue" points="517.19,-169.52 527.73,-168.44 518.82,-162.72 517.19,-169.52"/>
</g>
<!-- Node18 -->
<g id="node18" class="node">
<title>Node18</title>
<g id="a_node18"><a xlink:href="PSO_8h.html" target="_top" xlink:title=" ">
<polygon fill="white" stroke="black" points="541.04,-112.5 541.04,-131.5 618.04,-131.5 618.04,-112.5 541.04,-112.5"/>
<text text-anchor="middle" x="579.54" y="-119.5" font-family="Helvetica" font-size="10.00">Fitters/PSO.h</text>
</a>
</g>
</g>
<!-- Node11&#45;&gt;Node18 -->
<g id="edge18" class="edge">
<title>Node11&#45;&gt;Node18</title>
<path fill="none" stroke="midnightblue" d="M569.06,-158.4C571.73,-149.36 574.82,-138.94 576.95,-131.75"/>
<polygon fill="midnightblue" stroke="midnightblue" points="565.67,-157.5 566.19,-168.08 572.38,-159.49 565.67,-157.5"/>
</g>
<!-- Node14 -->
<g id="node14" class="node">
<title>Node14</title>
<g id="a_node14"><a xlink:href="MaCh3Factory_8cpp.html" target="_top" xlink:title=" ">
<polygon fill="white" stroke="black" points="706.04,-0.5 706.04,-19.5 837.04,-19.5 837.04,-0.5 706.04,-0.5"/>
<text text-anchor="middle" x="771.54" y="-7.5" font-family="Helvetica" font-size="10.00">Fitters/MaCh3Factory.cpp</text>
</a>
</g>
</g>
<!-- Node13&#45;&gt;Node14 -->
<g id="edge14" class="edge">
<title>Node13&#45;&gt;Node14</title>
<path fill="none" stroke="midnightblue" d="M771.54,-45.8C771.54,-36.91 771.54,-26.78 771.54,-19.75"/>
<polygon fill="midnightblue" stroke="midnightblue" points="768.04,-46.08 771.54,-56.08 775.04,-46.08 768.04,-46.08"/>
</g>
<!-- Node16 -->
<g id="node16" class="node">
<title>Node16</title>
<g id="a_node16"><a xlink:href="MinuitFit_8cpp.html" target="_top" xlink:title=" ">
<polygon fill="white" stroke="black" points="285.54,-56.5 285.54,-75.5 389.54,-75.5 389.54,-56.5 285.54,-56.5"/>
<text text-anchor="middle" x="337.54" y="-63.5" font-family="Helvetica" font-size="10.00">Fitters/MinuitFit.cpp</text>
</a>
</g>
</g>
<!-- Node15&#45;&gt;Node16 -->
<g id="edge16" class="edge">
<title>Node15&#45;&gt;Node16</title>
<path fill="none" stroke="midnightblue" d="M337.54,-101.8C337.54,-92.91 337.54,-82.78 337.54,-75.75"/>
<polygon fill="midnightblue" stroke="midnightblue" points="334.04,-102.08 337.54,-112.08 341.04,-102.08 334.04,-102.08"/>
</g>
<!-- Node15&#45;&gt;Node17 -->
<g id="edge17" class="edge">
<title>Node15&#45;&gt;Node17</title>
<path fill="none" stroke="midnightblue" d="M394.05,-111.13C453.11,-100.8 544.7,-84.8 599.82,-75.16"/>
<polygon fill="midnightblue" stroke="midnightblue" points="393.39,-107.69 384.14,-112.86 394.59,-114.58 393.39,-107.69"/>
</g>
<!-- Node18&#45;&gt;Node13 -->
<g id="edge19" class="edge">
<title>Node18&#45;&gt;Node13</title>
<path fill="none" stroke="midnightblue" d="M619.73,-109.7C655.96,-99.51 708.46,-84.74 741.26,-75.52"/>
<polygon fill="midnightblue" stroke="midnightblue" points="618.65,-106.37 609.97,-112.44 620.54,-113.11 618.65,-106.37"/>
</g>
<!-- Node18&#45;&gt;Node17 -->
<g id="edge21" class="edge">
<title>Node18&#45;&gt;Node17</title>
<path fill="none" stroke="midnightblue" d="M598.38,-105.82C610.38,-96.15 625.52,-83.95 635.58,-75.83"/>
<polygon fill="midnightblue" stroke="midnightblue" points="595.9,-103.32 590.31,-112.32 600.29,-108.77 595.9,-103.32"/>
</g>
<!-- Node19 -->
<g id="node19" class="node">
<title>Node19</title>
<g id="a_node19"><a xlink:href="PSO_8cpp.html" target="_top" xlink:title=" ">
<polygon fill="white" stroke="black" points="493.54,-56.5 493.54,-75.5 581.54,-75.5 581.54,-56.5 493.54,-56.5"/>
<text text-anchor="middle" x="537.54" y="-63.5" font-family="Helvetica" font-size="10.00">Fitters/PSO.cpp</text>
</a>
</g>
</g>
<!-- Node18&#45;&gt;Node19 -->
<g id="edge20" class="edge">
<title>Node18&#45;&gt;Node19</title>
<path fill="none" stroke="midnightblue" d="M566.43,-104.14C559.12,-94.74 550.3,-83.4 544.35,-75.75"/>
<polygon fill="midnightblue" stroke="midnightblue" points="563.71,-106.34 572.61,-112.08 569.23,-102.04 563.71,-106.34"/>
</g>
<!-- Node21 -->
<g id="node21" class="node">
<title>Node21</title>
<g id="a_node21"><a xlink:href="MCMCBase_8cpp.html" target="_top" xlink:title=" ">
<polygon fill="white" stroke="black" points="864.04,-168.5 864.04,-187.5 985.04,-187.5 985.04,-168.5 864.04,-168.5"/>
<text text-anchor="middle" x="924.54" y="-175.5" font-family="Helvetica" font-size="10.00">Fitters/MCMCBase.cpp</text>
</a>
</g>
</g>
<!-- Node20&#45;&gt;Node21 -->
<g id="edge24" class="edge">
<title>Node20&#45;&gt;Node21</title>
<path fill="none" stroke="midnightblue" d="M833.68,-220.23C855.94,-210.13 886.4,-196.31 905.78,-187.52"/>
<polygon fill="midnightblue" stroke="midnightblue" points="832.06,-217.12 824.4,-224.44 834.95,-223.5 832.06,-217.12"/>
</g>
<!-- Node22 -->
<g id="node22" class="node">
<title>Node22</title>
<g id="a_node22"><a xlink:href="MR2T2_8h.html" target="_top" xlink:title=" ">
<polygon fill="white" stroke="black" points="757.04,-168.5 757.04,-187.5 846.04,-187.5 846.04,-168.5 757.04,-168.5"/>
<text text-anchor="middle" x="801.54" y="-175.5" font-family="Helvetica" font-size="10.00">Fitters/MR2T2.h</text>
</a>
</g>
</g>
<!-- Node20&#45;&gt;Node22 -->
<g id="edge25" class="edge">
<title>Node20&#45;&gt;Node22</title>
<path fill="none" stroke="midnightblue" d="M804.14,-214.1C803.48,-205.14 802.72,-194.86 802.19,-187.75"/>
<polygon fill="midnightblue" stroke="midnightblue" points="800.65,-214.37 804.88,-224.08 807.64,-213.85 800.65,-214.37"/>
</g>
<!-- Node22&#45;&gt;Node13 -->
<g id="edge30" class="edge">
<title>Node22&#45;&gt;Node13</title>
<path fill="none" stroke="midnightblue" d="M796.55,-158.67C789.99,-134.62 778.74,-93.39 773.89,-75.59"/>
<polygon fill="midnightblue" stroke="midnightblue" points="793.18,-159.64 799.19,-168.37 799.94,-157.8 793.18,-159.64"/>
</g>
<!-- Node22&#45;&gt;Node17 -->
<g id="edge32" class="edge">
<title>Node22&#45;&gt;Node17</title>
<path fill="none" stroke="midnightblue" d="M781,-162.42C748.21,-139.15 685.08,-94.35 658.65,-75.59"/>
<polygon fill="midnightblue" stroke="midnightblue" points="779.2,-165.44 789.38,-168.37 783.25,-159.73 779.2,-165.44"/>
</g>
<!-- Node23 -->
<g id="node23" class="node">
<title>Node23</title>
<g id="a_node23"><a xlink:href="DelayedMR2T2_8h.html" target="_top" xlink:title=" ">
<polygon fill="white" stroke="black" points="944.54,-112.5 944.54,-131.5 1068.54,-131.5 1068.54,-112.5 944.54,-112.5"/>
<text text-anchor="middle" x="1006.54" y="-119.5" font-family="Helvetica" font-size="10.00">Fitters/DelayedMR2T2.h</text>
</a>
</g>
</g>
<!-- Node22&#45;&gt;Node23 -->
<g id="edge26" class="edge">
<title>Node22&#45;&gt;Node23</title>
<path fill="none" stroke="midnightblue" d="M843.95,-165.83C882.66,-155.63 939.04,-140.78 974.21,-131.52"/>
<polygon fill="midnightblue" stroke="midnightblue" points="842.81,-162.51 834.03,-168.44 844.59,-169.28 842.81,-162.51"/>
</g>
<!-- Node25 -->
<g id="node25" class="node">
<title>Node25</title>
<g id="a_node25"><a xlink:href="MR2T2_8cpp.html" target="_top" xlink:title=" ">
<polygon fill="white" stroke="black" points="827.04,-112.5 827.04,-131.5 926.04,-131.5 926.04,-112.5 827.04,-112.5"/>
<text text-anchor="middle" x="876.54" y="-119.5" font-family="Helvetica" font-size="10.00">Fitters/MR2T2.cpp</text>
</a>
</g>
</g>
<!-- Node22&#45;&gt;Node25 -->
<g id="edge31" class="edge">
<title>Node22&#45;&gt;Node25</title>
<path fill="none" stroke="midnightblue" d="M821.85,-162.38C835.41,-152.62 852.79,-140.11 864.28,-131.83"/>
<polygon fill="midnightblue" stroke="midnightblue" points="819.67,-159.64 813.59,-168.32 823.76,-165.32 819.67,-159.64"/>
</g>
<!-- Node23&#45;&gt;Node13 -->
<g id="edge28" class="edge">
<title>Node23&#45;&gt;Node13</title>
<path fill="none" stroke="midnightblue" d="M959.34,-110.15C914.94,-99.95 849.36,-84.88 808.61,-75.52"/>
<polygon fill="midnightblue" stroke="midnightblue" points="958.78,-113.62 969.31,-112.44 960.35,-106.79 958.78,-113.62"/>
</g>
<!-- Node23&#45;&gt;Node17 -->
<g id="edge29" class="edge">
<title>Node23&#45;&gt;Node17</title>
<path fill="none" stroke="midnightblue" d="M936.86,-111.04C875.01,-102.12 782.2,-88.55 701.54,-76 698.77,-75.57 695.92,-75.12 693.05,-74.66"/>
<polygon fill="midnightblue" stroke="midnightblue" points="936.49,-114.52 946.89,-112.48 937.49,-107.59 936.49,-114.52"/>
</g>
<!-- Node24 -->
<g id="node24" class="node">
<title>Node24</title>
<g id="a_node24"><a xlink:href="DelayedMR2T2_8cpp.html" target="_top" xlink:title=" ">
<polygon fill="white" stroke="black" points="939.54,-56.5 939.54,-75.5 1073.54,-75.5 1073.54,-56.5 939.54,-56.5"/>
<text text-anchor="middle" x="1006.54" y="-63.5" font-family="Helvetica" font-size="10.00">Fitters/DelayedMR2T2.cpp</text>
</a>
</g>
</g>
<!-- Node23&#45;&gt;Node24 -->
<g id="edge27" class="edge">
<title>Node23&#45;&gt;Node24</title>
<path fill="none" stroke="midnightblue" d="M1006.54,-101.8C1006.54,-92.91 1006.54,-82.78 1006.54,-75.75"/>
<polygon fill="midnightblue" stroke="midnightblue" points="1003.04,-102.08 1006.54,-112.08 1010.04,-102.08 1003.04,-102.08"/>
</g>
<!-- Node26&#45;&gt;Node8 -->
<g id="edge34" class="edge">
<title>Node26&#45;&gt;Node8</title>
<path fill="none" stroke="midnightblue" d="M454.4,-222.66C396.01,-212.46 307.77,-197.04 253.28,-187.52"/>
<polygon fill="midnightblue" stroke="midnightblue" points="454.13,-226.17 464.58,-224.44 455.33,-219.27 454.13,-226.17"/>
</g>
<!-- Node28 -->
<g id="node28" class="node">
<title>Node28</title>
<g id="a_node28"><a xlink:href="SampleSummary_8cpp.html" target="_top" xlink:title=" ">
<polygon fill="white" stroke="black" points="878.54,-224.5 878.54,-243.5 1020.54,-243.5 1020.54,-224.5 878.54,-224.5"/>
<text text-anchor="middle" x="949.54" y="-231.5" font-family="Helvetica" font-size="10.00">Fitters/SampleSummary.cpp</text>
</a>
</g>
</g>
<!-- Node27&#45;&gt;Node28 -->
<g id="edge37" class="edge">
<title>Node27&#45;&gt;Node28</title>
<path fill="none" stroke="midnightblue" d="M785.37,-277.83C824.45,-267.63 881.38,-252.78 916.9,-243.52"/>
<polygon fill="midnightblue" stroke="midnightblue" points="784.14,-274.53 775.34,-280.44 785.9,-281.31 784.14,-274.53"/>
</g>
<!-- Node29&#45;&gt;Node10 -->
<g id="edge39" class="edge">
<title>Node29&#45;&gt;Node10</title>
<path fill="none" stroke="midnightblue" d="M1159.99,-338.95C1005.1,-326.72 669.06,-300.18 667.54,-300 664.87,-299.69 662.13,-299.35 659.36,-298.99"/>
<polygon fill="midnightblue" stroke="midnightblue" points="1160.13,-342.48 1170.37,-339.77 1160.68,-335.5 1160.13,-342.48"/>
</g>
<!-- Node29&#45;&gt;Node27 -->
<g id="edge44" class="edge">
<title>Node29&#45;&gt;Node27</title>
<path fill="none" stroke="midnightblue" d="M1159.9,-336.37C1158.78,-336.24 1157.66,-336.12 1156.54,-336 1005.49,-319.51 967.53,-317.17 816.54,-300 813.84,-299.69 811.09,-299.38 808.31,-299.05"/>
<polygon fill="midnightblue" stroke="midnightblue" points="1159.87,-339.89 1170.19,-337.5 1160.64,-332.93 1159.87,-339.89"/>
</g>
<!-- Node30 -->
<g id="node30" class="node">
<title>Node30</title>
<g id="a_node30"><a xlink:href="MCMCProcessor_8cpp.html" target="_top" xlink:title=" ">
<polygon fill="white" stroke="black" points="1005.04,-280.5 1005.04,-299.5 1148.04,-299.5 1148.04,-280.5 1005.04,-280.5"/>
<text text-anchor="middle" x="1076.54" y="-287.5" font-family="Helvetica" font-size="10.00">Fitters/MCMCProcessor.cpp</text>
</a>
</g>
</g>
<!-- Node29&#45;&gt;Node30 -->
<g id="edge40" class="edge">
<title>Node29&#45;&gt;Node30</title>
<path fill="none" stroke="midnightblue" d="M1201.5,-333.17C1171.37,-323 1128.65,-308.59 1101.78,-299.52"/>
<polygon fill="midnightblue" stroke="midnightblue" points="1200.6,-336.56 1211.19,-336.44 1202.84,-329.93 1200.6,-336.56"/>
</g>
<!-- Node29&#45;&gt;Node31 -->
<g id="edge41" class="edge">
<title>Node29&#45;&gt;Node31</title>
<path fill="none" stroke="midnightblue" d="M1269.69,-332.91C1297.52,-322.75 1336.56,-308.51 1361.2,-299.52"/>
<polygon fill="midnightblue" stroke="midnightblue" points="1268.19,-329.73 1260,-336.44 1270.59,-336.3 1268.19,-329.73"/>
</g>
<!-- Node34 -->
<g id="node34" class="node">
<title>Node34</title>
<g id="a_node34"><a xlink:href="DiagMCMC_8cpp.html" target="_top" xlink:title=" ">
<polygon fill="white" stroke="black" points="1166.04,-280.5 1166.04,-299.5 1307.04,-299.5 1307.04,-280.5 1166.04,-280.5"/>
<text text-anchor="middle" x="1236.54" y="-287.5" font-family="Helvetica" font-size="10.00">Diagnostics/DiagMCMC.cpp</text>
</a>
</g>
</g>
<!-- Node29&#45;&gt;Node34 -->
<g id="edge45" class="edge">
<title>Node29&#45;&gt;Node34</title>
<path fill="none" stroke="midnightblue" d="M1236.54,-325.8C1236.54,-316.91 1236.54,-306.78 1236.54,-299.75"/>
<polygon fill="midnightblue" stroke="midnightblue" points="1233.04,-326.08 1236.54,-336.08 1240.04,-326.08 1233.04,-326.08"/>
</g>
<!-- Node29&#45;&gt;Node35 -->
<g id="edge46" class="edge">
<title>Node29&#45;&gt;Node35</title>
<path fill="none" stroke="midnightblue" d="M1294.92,-334.66C1352.56,-324.46 1439.66,-309.04 1493.44,-299.52"/>
<polygon fill="midnightblue" stroke="midnightblue" points="1294.11,-331.25 1284.87,-336.44 1295.33,-338.15 1294.11,-331.25"/>
</g>
<!-- Node36 -->
<g id="node36" class="node">
<title>Node36</title>
<g id="a_node36"><a xlink:href="ReweightMCMC_8cpp.html" target="_top" xlink:title="This executable allow to reweight MCMC Chain, such technique is used to study impact of different pri...">
<polygon fill="white" stroke="black" points="826.04,-280.5 826.04,-299.5 987.04,-299.5 987.04,-280.5 826.04,-280.5"/>
<text text-anchor="middle" x="906.54" y="-287.5" font-family="Helvetica" font-size="10.00">Diagnostics/ReweightMCMC.cpp</text>
</a>
</g>
</g>
<!-- Node29&#45;&gt;Node36 -->
<g id="edge47" class="edge">
<title>Node29&#45;&gt;Node36</title>
<path fill="none" stroke="midnightblue" d="M1174.15,-334.79C1111.8,-324.59 1017.02,-309.08 958.59,-299.52"/>
<polygon fill="midnightblue" stroke="midnightblue" points="1173.82,-338.28 1184.26,-336.44 1174.95,-331.37 1173.82,-338.28"/>
</g>
<!-- Node29&#45;&gt;Node37 -->
<g id="edge48" class="edge">
<title>Node29&#45;&gt;Node37</title>
<path fill="none" stroke="midnightblue" d="M1312.81,-336.31C1402.53,-326.09 1550.36,-309.25 1638.3,-299.23"/>
<polygon fill="midnightblue" stroke="midnightblue" points="1312.24,-332.85 1302.7,-337.46 1313.03,-339.81 1312.24,-332.85"/>
</g>
<!-- Node32 -->
<g id="node32" class="node">
<title>Node32</title>
<g id="a_node32"><a xlink:href="OscProcessor_8cpp.html" target="_top" xlink:title=" ">
<polygon fill="white" stroke="black" points="1240.04,-224.5 1240.04,-243.5 1369.04,-243.5 1369.04,-224.5 1240.04,-224.5"/>
<text text-anchor="middle" x="1304.54" y="-231.5" font-family="Helvetica" font-size="10.00">Fitters/OscProcessor.cpp</text>
</a>
</g>
</g>
<!-- Node31&#45;&gt;Node32 -->
<g id="edge42" class="edge">
<title>Node31&#45;&gt;Node32</title>
<path fill="none" stroke="midnightblue" d="M1363.24,-274.62C1348.63,-264.76 1329.72,-251.99 1317.37,-243.65"/>
<polygon fill="midnightblue" stroke="midnightblue" points="1361.44,-277.63 1371.69,-280.32 1365.36,-271.83 1361.44,-277.63"/>
</g>
<!-- Node33 -->
<g id="node33" class="node">
<title>Node33</title>
<g id="a_node33"><a xlink:href="ProcessMCMC_8cpp.html" target="_top" xlink:title="Main exectable responsible for different types of MCMC processing like drawing posteriors,...">
<polygon fill="white" stroke="black" points="1387.04,-224.5 1387.04,-243.5 1544.04,-243.5 1544.04,-224.5 1387.04,-224.5"/>
<text text-anchor="middle" x="1465.54" y="-231.5" font-family="Helvetica" font-size="10.00">Diagnostics/ProcessMCMC.cpp</text>
</a>
</g>
</g>
<!-- Node31&#45;&gt;Node33 -->
<g id="edge43" class="edge">
<title>Node31&#45;&gt;Node33</title>
<path fill="none" stroke="midnightblue" d="M1406.11,-274.62C1420.91,-264.76 1440.06,-251.99 1452.56,-243.65"/>
<polygon fill="midnightblue" stroke="midnightblue" points="1403.94,-271.86 1397.56,-280.32 1407.82,-277.69 1403.94,-271.86"/>
</g>
<!-- Node38&#45;&gt;Node27 -->
<g id="edge52" class="edge">
<title>Node38&#45;&gt;Node27</title>
<path fill="none" stroke="midnightblue" d="M1204.63,-391.04C1186.42,-374.38 1154.91,-348.57 1122.54,-336 994.89,-286.43 952.51,-316.27 816.54,-300 813.85,-299.68 811.09,-299.35 808.31,-299.01"/>
<polygon fill="midnightblue" stroke="midnightblue" points="1202.33,-393.69 1212.02,-397.98 1207.12,-388.58 1202.33,-393.69"/>
</g>
<!-- Node38&#45;&gt;Node29 -->
<g id="edge51" class="edge">
<title>Node38&#45;&gt;Node29</title>
<path fill="none" stroke="midnightblue" d="M1225.48,-388.16C1228.4,-377.27 1231.98,-363.99 1234.26,-355.51"/>
<polygon fill="midnightblue" stroke="midnightblue" points="1222.05,-387.41 1222.84,-397.98 1228.81,-389.23 1222.05,-387.41"/>
</g>
<!-- Node39 -->
<g id="node39" class="node">
<title>Node39</title>
<g id="a_node39"><a xlink:href="StatisticalUtils_8cpp.html" target="_top" xlink:title=" ">
<polygon fill="white" stroke="black" points="983.04,-336.5 983.04,-355.5 1114.04,-355.5 1114.04,-336.5 983.04,-336.5"/>
<text text-anchor="middle" x="1048.54" y="-343.5" font-family="Helvetica" font-size="10.00">Fitters/StatisticalUtils.cpp</text>
</a>
</g>
</g>
<!-- Node38&#45;&gt;Node39 -->
<g id="edge53" class="edge">
<title>Node38&#45;&gt;Node39</title>
<path fill="none" stroke="midnightblue" d="M1186.09,-394.58C1152.66,-383.02 1102.75,-365.75 1073.14,-355.51"/>
<polygon fill="midnightblue" stroke="midnightblue" points="1185.31,-398.01 1195.9,-397.98 1187.6,-391.4 1185.31,-398.01"/>
</g>
</g>
</svg>
