<?xml version="1.0" encoding="UTF-8" standalone="no"?>
<!DOCTYPE svg PUBLIC "-//W3C//DTD SVG 1.1//EN"
 "http://www.w3.org/Graphics/SVG/1.1/DTD/svg11.dtd">
<!-- Generated by graphviz version 2.44.0 (0)
 -->
<!-- Title: Manager/MaCh3Modes.h Pages: 1 -->
<!--zoomable 420 -->
<svg id="main" version="1.1" xmlns="http://www.w3.org/2000/svg" xmlns:xlink="http://www.w3.org/1999/xlink" xml:space="preserve" onload="init(evt)">
<style type="text/css"><![CDATA[
.edge:hover path { stroke: red; }
.edge:hover polygon { stroke: red; fill: red; }
]]></style>
<script type="text/javascript"><![CDATA[
var edges = document.getElementsByTagName('g');
if (edges && edges.length) {
  for (var i=0;i<edges.length;i++) {
    if (edges[i].id.substr(0,4)=='edge') {
      edges[i].setAttribute('class','edge');
    }
  }
}
]]></script>
        <defs>
                <circle id="rim" cx="0" cy="0" r="7"/>
                <circle id="rim2" cx="0" cy="0" r="3.5"/>
                <g id="zoomPlus">
                        <use xlink:href="#rim" fill="#404040">
                                <set attributeName="fill" to="#808080" begin="zoomplus.mouseover" end="zoomplus.mouseout"/>
                        </use>
                        <path d="M-4,0h8M0,-4v8" fill="none" stroke="white" stroke-width="1.5" pointer-events="none"/>
                </g>
                <g id="zoomMin">
                        <use xlink:href="#rim" fill="#404040">
                                <set attributeName="fill" to="#808080" begin="zoomminus.mouseover" end="zoomminus.mouseout"/>
                        </use>
                        <path d="M-4,0h8" fill="none" stroke="white" stroke-width="1.5" pointer-events="none"/>
                </g>
                <g id="dirArrow">
                        <path fill="none" stroke="white" stroke-width="1.5" d="M0,-3.0v7 M-2.5,-0.5L0,-3.0L2.5,-0.5"/>
                </g>
               <g id="resetDef">
                       <use xlink:href="#rim2" fill="#404040">
                               <set attributeName="fill" to="#808080" begin="reset.mouseover" end="reset.mouseout"/>
                       </use>
               </g>
        </defs>

<script type="text/javascript">
var viewWidth = 1229;
var viewHeight = 420;
var sectionId = 'dynsection-1';
</script>
<script xlink:href="svgpan.js"/>
<svg id="graph" class="graph">
<g id="viewport">
<title>Manager/MaCh3Modes.h</title>
<polygon fill="white" stroke="transparent" points="-4,4 -4,-416 1225.07,-416 1225.07,4 -4,4"/>
<!-- Node1 -->
<g id="node1" class="node">
<title>Node1</title>
<g id="a_node1"><a xlink:title=" ">
<polygon fill="#bfbfbf" stroke="black" points="189.5,-392.5 189.5,-411.5 315.5,-411.5 315.5,-392.5 189.5,-392.5"/>
<text text-anchor="middle" x="252.5" y="-399.5" font-family="Helvetica" font-size="10.00">Manager/MaCh3Modes.h</text>
</a>
</g>
</g>
<!-- Node2 -->
<g id="node2" class="node">
<title>Node2</title>
<g id="a_node2"><a xlink:href="MaCh3Modes_8cpp.html" target="_top" xlink:title=" ">
<polygon fill="white" stroke="black" points="22,-336.5 22,-355.5 159,-355.5 159,-336.5 22,-336.5"/>
<text text-anchor="middle" x="90.5" y="-343.5" font-family="Helvetica" font-size="10.00">Manager/MaCh3Modes.cpp</text>
</a>
</g>
</g>
<!-- Node1&#45;&gt;Node2 -->
<g id="edge1" class="edge">
<title>Node1&#45;&gt;Node2</title>
<path fill="none" stroke="midnightblue" d="M217.02,-389.17C186.51,-379 143.26,-364.59 116.05,-355.52"/>
<polygon fill="midnightblue" stroke="midnightblue" points="216.24,-392.6 226.83,-392.44 218.45,-385.96 216.24,-392.6"/>
</g>
<!-- Node3 -->
<g id="node3" class="node">
<title>Node3</title>
<g id="a_node3"><a xlink:href="BinnedSplineHandler_8h.html" target="_top" xlink:title=" ">
<polygon fill="white" stroke="black" points="177,-336.5 177,-355.5 328,-355.5 328,-336.5 177,-336.5"/>
<text text-anchor="middle" x="252.5" y="-343.5" font-family="Helvetica" font-size="10.00">Splines/BinnedSplineHandler.h</text>
</a>
</g>
</g>
<!-- Node1&#45;&gt;Node3 -->
<g id="edge2" class="edge">
<title>Node1&#45;&gt;Node3</title>
<path fill="none" stroke="midnightblue" d="M252.5,-381.8C252.5,-372.91 252.5,-362.78 252.5,-355.75"/>
<polygon fill="midnightblue" stroke="midnightblue" points="249,-382.08 252.5,-392.08 256,-382.08 249,-382.08"/>
</g>
<!-- Node10 -->
<g id="node10" class="node">
<title>Node10</title>
<g id="a_node10"><a xlink:href="SampleHandlerBase_8h.html" target="_top" xlink:title=" ">
<polygon fill="white" stroke="black" points="375,-336.5 375,-355.5 530,-355.5 530,-336.5 375,-336.5"/>
<text text-anchor="middle" x="452.5" y="-343.5" font-family="Helvetica" font-size="10.00">Samples/SampleHandlerBase.h</text>
</a>
</g>
</g>
<!-- Node1&#45;&gt;Node10 -->
<g id="edge9" class="edge">
<title>Node1&#45;&gt;Node10</title>
<path fill="none" stroke="midnightblue" d="M293.87,-389.83C331.64,-379.63 386.64,-364.78 420.96,-355.52"/>
<polygon fill="midnightblue" stroke="midnightblue" points="292.93,-386.46 284.19,-392.44 294.76,-393.22 292.93,-386.46"/>
</g>
<!-- Node4 -->
<g id="node4" class="node">
<title>Node4</title>
<g id="a_node4"><a xlink:href="BinnedSplineHandler_8cpp.html" target="_top" xlink:title=" ">
<polygon fill="white" stroke="black" points="0,-280.5 0,-299.5 161,-299.5 161,-280.5 0,-280.5"/>
<text text-anchor="middle" x="80.5" y="-287.5" font-family="Helvetica" font-size="10.00">Splines/BinnedSplineHandler.cpp</text>
</a>
</g>
</g>
<!-- Node3&#45;&gt;Node4 -->
<g id="edge3" class="edge">
<title>Node3&#45;&gt;Node4</title>
<path fill="none" stroke="midnightblue" d="M215.67,-333.44C183.24,-323.26 136.76,-308.66 107.63,-299.52"/>
<polygon fill="midnightblue" stroke="midnightblue" points="214.66,-336.79 225.25,-336.44 216.75,-330.11 214.66,-336.79"/>
</g>
<!-- Node5 -->
<g id="node5" class="node">
<title>Node5</title>
<g id="a_node5"><a xlink:href="SampleHandlerFD_8h.html" target="_top" xlink:title=" ">
<polygon fill="white" stroke="black" points="179.5,-280.5 179.5,-299.5 325.5,-299.5 325.5,-280.5 179.5,-280.5"/>
<text text-anchor="middle" x="252.5" y="-287.5" font-family="Helvetica" font-size="10.00">Samples/SampleHandlerFD.h</text>
</a>
</g>
</g>
<!-- Node3&#45;&gt;Node5 -->
<g id="edge4" class="edge">
<title>Node3&#45;&gt;Node5</title>
<path fill="none" stroke="midnightblue" d="M252.5,-325.8C252.5,-316.91 252.5,-306.78 252.5,-299.75"/>
<polygon fill="midnightblue" stroke="midnightblue" points="249,-326.08 252.5,-336.08 256,-326.08 249,-326.08"/>
</g>
<!-- Node6 -->
<g id="node6" class="node">
<title>Node6</title>
<g id="a_node6"><a xlink:href="SampleHandlerFD_8cpp.html" target="_top" xlink:title=" ">
<polygon fill="white" stroke="black" points="159,-224.5 159,-243.5 316,-243.5 316,-224.5 159,-224.5"/>
<text text-anchor="middle" x="237.5" y="-231.5" font-family="Helvetica" font-size="10.00">Samples/SampleHandlerFD.cpp</text>
</a>
</g>
</g>
<!-- Node5&#45;&gt;Node6 -->
<g id="edge5" class="edge">
<title>Node5&#45;&gt;Node6</title>
<path fill="none" stroke="midnightblue" d="M247.33,-270.4C244.82,-261.36 241.93,-250.94 239.93,-243.75"/>
<polygon fill="midnightblue" stroke="midnightblue" points="243.97,-271.38 250.02,-280.08 250.72,-269.51 243.97,-271.38"/>
</g>
<!-- Node7 -->
<g id="node7" class="node">
<title>Node7</title>
<g id="a_node7"><a xlink:href="FitterBase_8cpp.html" target="_top" xlink:title=" ">
<polygon fill="white" stroke="black" points="334.5,-224.5 334.5,-243.5 446.5,-243.5 446.5,-224.5 334.5,-224.5"/>
<text text-anchor="middle" x="390.5" y="-231.5" font-family="Helvetica" font-size="10.00">Fitters/FitterBase.cpp</text>
</a>
</g>
</g>
<!-- Node5&#45;&gt;Node7 -->
<g id="edge6" class="edge">
<title>Node5&#45;&gt;Node7</title>
<path fill="none" stroke="midnightblue" d="M283.75,-276.77C309.67,-266.63 345.86,-252.47 368.74,-243.52"/>
<polygon fill="midnightblue" stroke="midnightblue" points="282.4,-273.54 274.37,-280.44 284.95,-280.06 282.4,-273.54"/>
</g>
<!-- Node8 -->
<g id="node8" class="node">
<title>Node8</title>
<g id="a_node8"><a xlink:href="PredictiveThrower_8cpp.html" target="_top" xlink:title=" ">
<polygon fill="white" stroke="black" points="230.5,-168.5 230.5,-187.5 374.5,-187.5 374.5,-168.5 230.5,-168.5"/>
<text text-anchor="middle" x="302.5" y="-175.5" font-family="Helvetica" font-size="10.00">Fitters/PredictiveThrower.cpp</text>
</a>
</g>
</g>
<!-- Node5&#45;&gt;Node8 -->
<g id="edge7" class="edge">
<title>Node5&#45;&gt;Node8</title>
<path fill="none" stroke="midnightblue" d="M178.92,-278.98C117.09,-269.81 37.25,-255.89 27.5,-244 21.86,-237.13 21.74,-230.77 27.5,-224 53.07,-193.91 157.86,-183.89 230.43,-180.59"/>
<polygon fill="midnightblue" stroke="midnightblue" points="178.67,-282.48 189.07,-280.47 179.68,-275.56 178.67,-282.48"/>
</g>
<!-- Node9 -->
<g id="node9" class="node">
<title>Node9</title>
<g id="a_node9"><a xlink:href="samples_8cpp.html" target="_top" xlink:title=" ">
<polygon fill="white" stroke="black" points="36.5,-224.5 36.5,-243.5 140.5,-243.5 140.5,-224.5 36.5,-224.5"/>
<text text-anchor="middle" x="88.5" y="-231.5" font-family="Helvetica" font-size="10.00">python/samples.cpp</text>
</a>
</g>
</g>
<!-- Node5&#45;&gt;Node9 -->
<g id="edge8" class="edge">
<title>Node5&#45;&gt;Node9</title>
<path fill="none" stroke="midnightblue" d="M216.98,-277.3C186.08,-267.13 142.03,-252.62 114.36,-243.52"/>
<polygon fill="midnightblue" stroke="midnightblue" points="215.92,-280.64 226.51,-280.44 218.11,-273.99 215.92,-280.64"/>
</g>
<!-- Node10&#45;&gt;Node5 -->
<g id="edge11" class="edge">
<title>Node10&#45;&gt;Node5</title>
<path fill="none" stroke="midnightblue" d="M411.13,-333.83C373.36,-323.63 318.36,-308.78 284.04,-299.52"/>
<polygon fill="midnightblue" stroke="midnightblue" points="410.24,-337.22 420.81,-336.44 412.07,-330.46 410.24,-337.22"/>
</g>
<!-- Node11 -->
<g id="node11" class="node">
<title>Node11</title>
<g id="a_node11"><a xlink:href="SampleHandlerBase_8cpp.html" target="_top" xlink:title=" ">
<polygon fill="white" stroke="black" points="536.5,-280.5 536.5,-299.5 702.5,-299.5 702.5,-280.5 536.5,-280.5"/>
<text text-anchor="middle" x="619.5" y="-287.5" font-family="Helvetica" font-size="10.00">Samples/SampleHandlerBase.cpp</text>
</a>
</g>
</g>
<!-- Node10&#45;&gt;Node11 -->
<g id="edge10" class="edge">
<title>Node10&#45;&gt;Node11</title>
<path fill="none" stroke="midnightblue" d="M488.67,-333.3C520.14,-323.13 564.99,-308.62 593.16,-299.52"/>
<polygon fill="midnightblue" stroke="midnightblue" points="487.4,-330.04 478.96,-336.44 489.55,-336.7 487.4,-330.04"/>
</g>
<!-- Node12 -->
<g id="node12" class="node">
<title>Node12</title>
<g id="a_node12"><a xlink:href="FitterBase_8h.html" target="_top" xlink:title=" ">
<polygon fill="white" stroke="black" points="736,-280.5 736,-299.5 837,-299.5 837,-280.5 736,-280.5"/>
<text text-anchor="middle" x="786.5" y="-287.5" font-family="Helvetica" font-size="10.00">Fitters/FitterBase.h</text>
</a>
</g>
</g>
<!-- Node10&#45;&gt;Node12 -->
<g id="edge12" class="edge">
<title>Node10&#45;&gt;Node12</title>
<path fill="none" stroke="midnightblue" d="M515.36,-334.84C579.15,-324.52 676.68,-308.75 735.74,-299.21"/>
<polygon fill="midnightblue" stroke="midnightblue" points="514.74,-331.39 505.42,-336.44 515.85,-338.3 514.74,-331.39"/>
</g>
<!-- Node29 -->
<g id="node29" class="node">
<title>Node29</title>
<g id="a_node29"><a xlink:href="SampleSummary_8h.html" target="_top" xlink:title=" ">
<polygon fill="white" stroke="black" points="387,-280.5 387,-299.5 518,-299.5 518,-280.5 387,-280.5"/>
<text text-anchor="middle" x="452.5" y="-287.5" font-family="Helvetica" font-size="10.00">Fitters/SampleSummary.h</text>
</a>
</g>
</g>
<!-- Node10&#45;&gt;Node29 -->
<g id="edge39" class="edge">
<title>Node10&#45;&gt;Node29</title>
<path fill="none" stroke="midnightblue" d="M452.5,-325.8C452.5,-316.91 452.5,-306.78 452.5,-299.75"/>
<polygon fill="midnightblue" stroke="midnightblue" points="449,-326.08 452.5,-336.08 456,-326.08 449,-326.08"/>
</g>
<!-- Node12&#45;&gt;Node7 -->
<g id="edge13" class="edge">
<title>Node12&#45;&gt;Node7</title>
<path fill="none" stroke="midnightblue" d="M725.46,-280.75C659.04,-271.76 549.71,-256.93 455.5,-244 452.57,-243.6 449.56,-243.18 446.52,-242.77"/>
<polygon fill="midnightblue" stroke="midnightblue" points="725.36,-284.27 735.74,-282.14 726.3,-277.33 725.36,-284.27"/>
</g>
<!-- Node13 -->
<g id="node13" class="node">
<title>Node13</title>
<g id="a_node13"><a xlink:href="LikelihoodFit_8h.html" target="_top" xlink:title=" ">
<polygon fill="white" stroke="black" points="686.5,-168.5 686.5,-187.5 796.5,-187.5 796.5,-168.5 686.5,-168.5"/>
<text text-anchor="middle" x="741.5" y="-175.5" font-family="Helvetica" font-size="10.00">Fitters/LikelihoodFit.h</text>
</a>
</g>
</g>
<!-- Node12&#45;&gt;Node13 -->
<g id="edge14" class="edge">
<title>Node12&#45;&gt;Node13</title>
<path fill="none" stroke="midnightblue" d="M782.36,-270.56C779.09,-257.32 774,-239.2 767.5,-224 761.82,-210.73 753.09,-196.47 747.33,-187.64"/>
<polygon fill="midnightblue" stroke="midnightblue" points="778.97,-271.43 784.67,-280.36 785.79,-269.82 778.97,-271.43"/>
</g>
<!-- Node15 -->
<g id="node15" class="node">
<title>Node15</title>
<g id="a_node15"><a xlink:href="MaCh3Factory_8h.html" target="_top" xlink:title="Factory methods for MaCh3 software which streamline initialisation of different objects.">
<polygon fill="white" stroke="black" points="1029,-56.5 1029,-75.5 1150,-75.5 1150,-56.5 1029,-56.5"/>
<text text-anchor="middle" x="1089.5" y="-63.5" font-family="Helvetica" font-size="10.00">Fitters/MaCh3Factory.h</text>
</a>
</g>
</g>
<!-- Node12&#45;&gt;Node15 -->
<g id="edge25" class="edge">
<title>Node12&#45;&gt;Node15</title>
<path fill="none" stroke="midnightblue" d="M847.08,-280.81C893.98,-273.6 960.21,-261.5 1016.5,-244 1076.19,-225.45 1091.74,-219.88 1145.5,-188 1180.37,-167.32 1199.69,-168.42 1217.5,-132 1233.32,-99.65 1190.5,-83.11 1150.2,-74.84"/>
<polygon fill="midnightblue" stroke="midnightblue" points="846.44,-277.37 837.08,-282.32 847.49,-284.29 846.44,-277.37"/>
</g>
<!-- Node19 -->
<g id="node19" class="node">
<title>Node19</title>
<g id="a_node19"><a xlink:href="fitters_8cpp.html" target="_top" xlink:title=" ">
<polygon fill="white" stroke="black" points="765,-56.5 765,-75.5 858,-75.5 858,-56.5 765,-56.5"/>
<text text-anchor="middle" x="811.5" y="-63.5" font-family="Helvetica" font-size="10.00">python/fitters.cpp</text>
</a>
</g>
</g>
<!-- Node12&#45;&gt;Node19 -->
<g id="edge38" class="edge">
<title>Node12&#45;&gt;Node19</title>
<path fill="none" stroke="midnightblue" d="M790.78,-270.42C795.25,-250.24 802.07,-217.02 805.5,-188 810.47,-146.02 811.33,-95.37 811.48,-75.54"/>
<polygon fill="midnightblue" stroke="midnightblue" points="787.32,-269.89 788.53,-280.41 794.14,-271.43 787.32,-269.89"/>
</g>
<!-- Node22 -->
<g id="node22" class="node">
<title>Node22</title>
<g id="a_node22"><a xlink:href="MCMCBase_8h.html" target="_top" xlink:title=" ">
<polygon fill="white" stroke="black" points="897.5,-224.5 897.5,-243.5 1007.5,-243.5 1007.5,-224.5 897.5,-224.5"/>
<text text-anchor="middle" x="952.5" y="-231.5" font-family="Helvetica" font-size="10.00">Fitters/MCMCBase.h</text>
</a>
</g>
</g>
<!-- Node12&#45;&gt;Node22 -->
<g id="edge26" class="edge">
<title>Node12&#45;&gt;Node22</title>
<path fill="none" stroke="midnightblue" d="M822.45,-277.3C853.73,-267.13 898.32,-252.62 926.32,-243.52"/>
<polygon fill="midnightblue" stroke="midnightblue" points="821.23,-274.02 812.8,-280.44 823.4,-280.68 821.23,-274.02"/>
</g>
<!-- Node28 -->
<g id="node28" class="node">
<title>Node28</title>
<g id="a_node28"><a xlink:href="PredictiveThrower_8h.html" target="_top" xlink:title=" ">
<polygon fill="white" stroke="black" points="624.5,-224.5 624.5,-243.5 758.5,-243.5 758.5,-224.5 624.5,-224.5"/>
<text text-anchor="middle" x="691.5" y="-231.5" font-family="Helvetica" font-size="10.00">Fitters/PredictiveThrower.h</text>
</a>
</g>
</g>
<!-- Node12&#45;&gt;Node28 -->
<g id="edge36" class="edge">
<title>Node12&#45;&gt;Node28</title>
<path fill="none" stroke="midnightblue" d="M762.18,-275.18C744.7,-265.24 721.67,-252.15 706.73,-243.65"/>
<polygon fill="midnightblue" stroke="midnightblue" points="760.81,-278.43 771.24,-280.32 764.27,-272.34 760.81,-278.43"/>
</g>
<!-- Node14 -->
<g id="node14" class="node">
<title>Node14</title>
<g id="a_node14"><a xlink:href="LikelihoodFit_8cpp.html" target="_top" xlink:title=" ">
<polygon fill="white" stroke="black" points="580.5,-112.5 580.5,-131.5 700.5,-131.5 700.5,-112.5 580.5,-112.5"/>
<text text-anchor="middle" x="640.5" y="-119.5" font-family="Helvetica" font-size="10.00">Fitters/LikelihoodFit.cpp</text>
</a>
</g>
</g>
<!-- Node13&#45;&gt;Node14 -->
<g id="edge15" class="edge">
<title>Node13&#45;&gt;Node14</title>
<path fill="none" stroke="midnightblue" d="M716.42,-163.59C697.74,-153.61 672.8,-140.27 656.69,-131.65"/>
<polygon fill="midnightblue" stroke="midnightblue" points="714.8,-166.7 725.27,-168.32 718.1,-160.52 714.8,-166.7"/>
</g>
<!-- Node13&#45;&gt;Node15 -->
<g id="edge16" class="edge">
<title>Node13&#45;&gt;Node15</title>
<path fill="none" stroke="midnightblue" d="M806.92,-171.21C878.07,-164.1 986.6,-150.65 1023.5,-132 1050.2,-118.51 1072.94,-90.31 1083.38,-75.9"/>
<polygon fill="midnightblue" stroke="midnightblue" points="806.31,-167.75 796.7,-172.21 807,-174.72 806.31,-167.75"/>
</g>
<!-- Node17 -->
<g id="node17" class="node">
<title>Node17</title>
<g id="a_node17"><a xlink:href="MinuitFit_8h.html" target="_top" xlink:title=" ">
<polygon fill="white" stroke="black" points="469,-112.5 469,-131.5 562,-131.5 562,-112.5 469,-112.5"/>
<text text-anchor="middle" x="515.5" y="-119.5" font-family="Helvetica" font-size="10.00">Fitters/MinuitFit.h</text>
</a>
</g>
</g>
<!-- Node13&#45;&gt;Node17 -->
<g id="edge18" class="edge">
<title>Node13&#45;&gt;Node17</title>
<path fill="none" stroke="midnightblue" d="M695.83,-166.09C653.14,-155.89 590.25,-140.86 551.14,-131.52"/>
<polygon fill="midnightblue" stroke="midnightblue" points="695.15,-169.52 705.69,-168.44 696.78,-162.72 695.15,-169.52"/>
</g>
<!-- Node20 -->
<g id="node20" class="node">
<title>Node20</title>
<g id="a_node20"><a xlink:href="PSO_8h.html" target="_top" xlink:title=" ">
<polygon fill="white" stroke="black" points="719,-112.5 719,-131.5 796,-131.5 796,-112.5 719,-112.5"/>
<text text-anchor="middle" x="757.5" y="-119.5" font-family="Helvetica" font-size="10.00">Fitters/PSO.h</text>
</a>
</g>
</g>
<!-- Node13&#45;&gt;Node20 -->
<g id="edge21" class="edge">
<title>Node13&#45;&gt;Node20</title>
<path fill="none" stroke="midnightblue" d="M747.01,-158.4C749.69,-149.36 752.78,-138.94 754.91,-131.75"/>
<polygon fill="midnightblue" stroke="midnightblue" points="743.63,-157.5 744.14,-168.08 750.34,-159.49 743.63,-157.5"/>
</g>
<!-- Node16 -->
<g id="node16" class="node">
<title>Node16</title>
<g id="a_node16"><a xlink:href="MaCh3Factory_8cpp.html" target="_top" xlink:title=" ">
<polygon fill="white" stroke="black" points="1024,-0.5 1024,-19.5 1155,-19.5 1155,-0.5 1024,-0.5"/>
<text text-anchor="middle" x="1089.5" y="-7.5" font-family="Helvetica" font-size="10.00">Fitters/MaCh3Factory.cpp</text>
</a>
</g>
</g>
<!-- Node15&#45;&gt;Node16 -->
<g id="edge17" class="edge">
<title>Node15&#45;&gt;Node16</title>
<path fill="none" stroke="midnightblue" d="M1089.5,-45.8C1089.5,-36.91 1089.5,-26.78 1089.5,-19.75"/>
<polygon fill="midnightblue" stroke="midnightblue" points="1086,-46.08 1089.5,-56.08 1093,-46.08 1086,-46.08"/>
</g>
<!-- Node18 -->
<g id="node18" class="node">
<title>Node18</title>
<g id="a_node18"><a xlink:href="MinuitFit_8cpp.html" target="_top" xlink:title=" ">
<polygon fill="white" stroke="black" points="463.5,-56.5 463.5,-75.5 567.5,-75.5 567.5,-56.5 463.5,-56.5"/>
<text text-anchor="middle" x="515.5" y="-63.5" font-family="Helvetica" font-size="10.00">Fitters/MinuitFit.cpp</text>
</a>
</g>
</g>
<!-- Node17&#45;&gt;Node18 -->
<g id="edge19" class="edge">
<title>Node17&#45;&gt;Node18</title>
<path fill="none" stroke="midnightblue" d="M515.5,-101.8C515.5,-92.91 515.5,-82.78 515.5,-75.75"/>
<polygon fill="midnightblue" stroke="midnightblue" points="512,-102.08 515.5,-112.08 519,-102.08 512,-102.08"/>
</g>
<!-- Node17&#45;&gt;Node19 -->
<g id="edge20" class="edge">
<title>Node17&#45;&gt;Node19</title>
<path fill="none" stroke="midnightblue" d="M572.17,-110.66C628.07,-100.46 712.51,-85.06 764.71,-75.54"/>
<polygon fill="midnightblue" stroke="midnightblue" points="571.29,-107.27 562.08,-112.5 572.54,-114.15 571.29,-107.27"/>
</g>
<!-- Node20&#45;&gt;Node15 -->
<g id="edge22" class="edge">
<title>Node20&#45;&gt;Node15</title>
<path fill="none" stroke="midnightblue" d="M806.11,-113.09C867.77,-103.06 973.71,-85.83 1037.12,-75.52"/>
<polygon fill="midnightblue" stroke="midnightblue" points="805.54,-109.64 796.23,-114.7 806.67,-116.55 805.54,-109.64"/>
</g>
<!-- Node20&#45;&gt;Node19 -->
<g id="edge24" class="edge">
<title>Node20&#45;&gt;Node19</title>
<path fill="none" stroke="midnightblue" d="M773.5,-105C783.07,-95.43 794.86,-83.64 802.75,-75.75"/>
<polygon fill="midnightblue" stroke="midnightblue" points="771.01,-102.54 766.42,-112.08 775.96,-107.49 771.01,-102.54"/>
</g>
<!-- Node21 -->
<g id="node21" class="node">
<title>Node21</title>
<g id="a_node21"><a xlink:href="PSO_8cpp.html" target="_top" xlink:title=" ">
<polygon fill="white" stroke="black" points="658.5,-56.5 658.5,-75.5 746.5,-75.5 746.5,-56.5 658.5,-56.5"/>
<text text-anchor="middle" x="702.5" y="-63.5" font-family="Helvetica" font-size="10.00">Fitters/PSO.cpp</text>
</a>
</g>
</g>
<!-- Node20&#45;&gt;Node21 -->
<g id="edge23" class="edge">
<title>Node20&#45;&gt;Node21</title>
<path fill="none" stroke="midnightblue" d="M741.21,-105C731.46,-95.43 719.45,-83.64 711.41,-75.75"/>
<polygon fill="midnightblue" stroke="midnightblue" points="738.83,-107.57 748.42,-112.08 743.73,-102.58 738.83,-107.57"/>
</g>
<!-- Node23 -->
<g id="node23" class="node">
<title>Node23</title>
<g id="a_node23"><a xlink:href="MCMCBase_8cpp.html" target="_top" xlink:title=" ">
<polygon fill="white" stroke="black" points="1015,-168.5 1015,-187.5 1136,-187.5 1136,-168.5 1015,-168.5"/>
<text text-anchor="middle" x="1075.5" y="-175.5" font-family="Helvetica" font-size="10.00">Fitters/MCMCBase.cpp</text>
</a>
</g>
</g>
<!-- Node22&#45;&gt;Node23 -->
<g id="edge27" class="edge">
<title>Node22&#45;&gt;Node23</title>
<path fill="none" stroke="midnightblue" d="M981.27,-220.37C1004.31,-210.26 1035.98,-196.35 1056.1,-187.52"/>
<polygon fill="midnightblue" stroke="midnightblue" points="979.74,-217.22 971.99,-224.44 982.55,-223.63 979.74,-217.22"/>
</g>
<!-- Node24 -->
<g id="node24" class="node">
<title>Node24</title>
<g id="a_node24"><a xlink:href="MR2T2_8h.html" target="_top" xlink:title=" ">
<polygon fill="white" stroke="black" points="908,-168.5 908,-187.5 997,-187.5 997,-168.5 908,-168.5"/>
<text text-anchor="middle" x="952.5" y="-175.5" font-family="Helvetica" font-size="10.00">Fitters/MR2T2.h</text>
</a>
</g>
</g>
<!-- Node22&#45;&gt;Node24 -->
<g id="edge28" class="edge">
<title>Node22&#45;&gt;Node24</title>
<path fill="none" stroke="midnightblue" d="M952.5,-213.8C952.5,-204.91 952.5,-194.78 952.5,-187.75"/>
<polygon fill="midnightblue" stroke="midnightblue" points="949,-214.08 952.5,-224.08 956,-214.08 949,-214.08"/>
</g>
<!-- Node24&#45;&gt;Node15 -->
<g id="edge33" class="edge">
<title>Node24&#45;&gt;Node15</title>
<path fill="none" stroke="midnightblue" d="M997.31,-165.22C1017.3,-158.18 1040,-147.52 1056.5,-132 1073.46,-116.05 1083.09,-89.45 1087.16,-75.75"/>
<polygon fill="midnightblue" stroke="midnightblue" points="996.15,-161.92 987.76,-168.39 998.36,-168.56 996.15,-161.92"/>
</g>
<!-- Node24&#45;&gt;Node19 -->
<g id="edge35" class="edge">
<title>Node24&#45;&gt;Node19</title>
<path fill="none" stroke="midnightblue" d="M928.62,-163.37C914.49,-154.94 896.48,-143.55 881.5,-132 857.59,-113.57 832.3,-88.49 819.67,-75.53"/>
<polygon fill="midnightblue" stroke="midnightblue" points="926.89,-166.41 937.28,-168.45 930.43,-160.37 926.89,-166.41"/>
</g>
<!-- Node25 -->
<g id="node25" class="node">
<title>Node25</title>
<g id="a_node25"><a xlink:href="DelayedMR2T2_8h.html" target="_top" xlink:title=" ">
<polygon fill="white" stroke="black" points="890.5,-112.5 890.5,-131.5 1014.5,-131.5 1014.5,-112.5 890.5,-112.5"/>
<text text-anchor="middle" x="952.5" y="-119.5" font-family="Helvetica" font-size="10.00">Fitters/DelayedMR2T2.h</text>
</a>
</g>
</g>
<!-- Node24&#45;&gt;Node25 -->
<g id="edge29" class="edge">
<title>Node24&#45;&gt;Node25</title>
<path fill="none" stroke="midnightblue" d="M952.5,-157.8C952.5,-148.91 952.5,-138.78 952.5,-131.75"/>
<polygon fill="midnightblue" stroke="midnightblue" points="949,-158.08 952.5,-168.08 956,-158.08 949,-158.08"/>
</g>
<!-- Node27 -->
<g id="node27" class="node">
<title>Node27</title>
<g id="a_node27"><a xlink:href="MR2T2_8cpp.html" target="_top" xlink:title=" ">
<polygon fill="white" stroke="black" points="1109,-112.5 1109,-131.5 1208,-131.5 1208,-112.5 1109,-112.5"/>
<text text-anchor="middle" x="1158.5" y="-119.5" font-family="Helvetica" font-size="10.00">Fitters/MR2T2.cpp</text>
</a>
</g>
</g>
<!-- Node24&#45;&gt;Node27 -->
<g id="edge34" class="edge">
<title>Node24&#45;&gt;Node27</title>
<path fill="none" stroke="midnightblue" d="M995.12,-165.83C1034.01,-155.63 1090.66,-140.78 1126.01,-131.52"/>
<polygon fill="midnightblue" stroke="midnightblue" points="993.93,-162.52 985.14,-168.44 995.7,-169.29 993.93,-162.52"/>
</g>
<!-- Node25&#45;&gt;Node15 -->
<g id="edge31" class="edge">
<title>Node25&#45;&gt;Node15</title>
<path fill="none" stroke="midnightblue" d="M983.52,-108.77C1009.26,-98.63 1045.19,-84.47 1067.89,-75.52"/>
<polygon fill="midnightblue" stroke="midnightblue" points="982.23,-105.52 974.21,-112.44 984.79,-112.03 982.23,-105.52"/>
</g>
<!-- Node25&#45;&gt;Node19 -->
<g id="edge32" class="edge">
<title>Node25&#45;&gt;Node19</title>
<path fill="none" stroke="midnightblue" d="M920.57,-108.77C894.09,-98.63 857.11,-84.47 833.74,-75.52"/>
<polygon fill="midnightblue" stroke="midnightblue" points="919.57,-112.14 930.16,-112.44 922.07,-105.6 919.57,-112.14"/>
</g>
<!-- Node26 -->
<g id="node26" class="node">
<title>Node26</title>
<g id="a_node26"><a xlink:href="DelayedMR2T2_8cpp.html" target="_top" xlink:title=" ">
<polygon fill="white" stroke="black" points="876.5,-56.5 876.5,-75.5 1010.5,-75.5 1010.5,-56.5 876.5,-56.5"/>
<text text-anchor="middle" x="943.5" y="-63.5" font-family="Helvetica" font-size="10.00">Fitters/DelayedMR2T2.cpp</text>
</a>
</g>
</g>
<!-- Node25&#45;&gt;Node26 -->
<g id="edge30" class="edge">
<title>Node25&#45;&gt;Node26</title>
<path fill="none" stroke="midnightblue" d="M949.35,-102.1C947.86,-93.14 946.14,-82.86 944.96,-75.75"/>
<polygon fill="midnightblue" stroke="midnightblue" points="945.92,-102.79 951.01,-112.08 952.82,-101.64 945.92,-102.79"/>
</g>
<!-- Node28&#45;&gt;Node8 -->
<g id="edge37" class="edge">
<title>Node28&#45;&gt;Node8</title>
<path fill="none" stroke="midnightblue" d="M619.77,-223.04C546.3,-212.84 433.3,-197.16 363.85,-187.52"/>
<polygon fill="midnightblue" stroke="midnightblue" points="619.48,-226.54 629.86,-224.44 620.44,-219.6 619.48,-226.54"/>
</g>
<!-- Node30 -->
<g id="node30" class="node">
<title>Node30</title>
<g id="a_node30"><a xlink:href="SampleSummary_8cpp.html" target="_top" xlink:title=" ">
<polygon fill="white" stroke="black" points="464.5,-224.5 464.5,-243.5 606.5,-243.5 606.5,-224.5 464.5,-224.5"/>
<text text-anchor="middle" x="535.5" y="-231.5" font-family="Helvetica" font-size="10.00">Fitters/SampleSummary.cpp</text>
</a>
</g>
</g>
<!-- Node29&#45;&gt;Node30 -->
<g id="edge40" class="edge">
<title>Node29&#45;&gt;Node30</title>
<path fill="none" stroke="midnightblue" d="M474.6,-274.62C489.76,-264.76 509.38,-251.99 522.2,-243.65"/>
<polygon fill="midnightblue" stroke="midnightblue" points="472.31,-271.94 465.84,-280.32 476.13,-277.8 472.31,-271.94"/>
</g>
</g>
</svg>
        <g id="navigator" transform="translate(0 0)" fill="#404254">
                <rect fill="#f2f5e9" fill-opacity="0.5" stroke="#606060" stroke-width=".5" x="0" y="0" width="60" height="60"/>
                <use id="zoomplus" xlink:href="#zoomPlus" x="17" y="9" onmousedown="handleZoom(evt,'in')"/>
                <use id="zoomminus" xlink:href="#zoomMin" x="42" y="9" onmousedown="handleZoom(evt,'out')"/>
                <use id="reset" xlink:href="#resetDef" x="30" y="36" onmousedown="handleReset()"/>
                <g id="arrowUp" xlink:href="#dirArrow" transform="translate(30 24)" onmousedown="handlePan(0,-1)">
                  <use xlink:href="#rim" fill="#404040">
                        <set attributeName="fill" to="#808080" begin="arrowUp.mouseover" end="arrowUp.mouseout"/>
                  </use>
                  <path fill="none" stroke="white" stroke-width="1.5" d="M0,-3.0v7 M-2.5,-0.5L0,-3.0L2.5,-0.5"/>
                </g>
                <g id="arrowRight" xlink:href="#dirArrow" transform="rotate(90) translate(36 -43)" onmousedown="handlePan(1,0)">
                  <use xlink:href="#rim" fill="#404040">
                        <set attributeName="fill" to="#808080" begin="arrowRight.mouseover" end="arrowRight.mouseout"/>
                  </use>
                  <path fill="none" stroke="white" stroke-width="1.5" d="M0,-3.0v7 M-2.5,-0.5L0,-3.0L2.5,-0.5"/>
                </g>
                <g id="arrowDown" xlink:href="#dirArrow" transform="rotate(180) translate(-30 -48)" onmousedown="handlePan(0,1)">
                  <use xlink:href="#rim" fill="#404040">
                        <set attributeName="fill" to="#808080" begin="arrowDown.mouseover" end="arrowDown.mouseout"/>
                  </use>
                  <path fill="none" stroke="white" stroke-width="1.5" d="M0,-3.0v7 M-2.5,-0.5L0,-3.0L2.5,-0.5"/>
                </g>
                <g id="arrowLeft" xlink:href="#dirArrow" transform="rotate(270) translate(-36 17)" onmousedown="handlePan(-1,0)">
                  <use xlink:href="#rim" fill="#404040">
                        <set attributeName="fill" to="#808080" begin="arrowLeft.mouseover" end="arrowLeft.mouseout"/>
                  </use>
                  <path fill="none" stroke="white" stroke-width="1.5" d="M0,-3.0v7 M-2.5,-0.5L0,-3.0L2.5,-0.5"/>
                </g>
        </g>
        <svg viewBox="0 0 15 15" width="100%" height="30px" preserveAspectRatio="xMaxYMin meet">
         <g id="arrow_out" transform="scale(0.3 0.3)">
          <a xlink:href="MaCh3Modes_8h__dep__incl_org.svg" target="_base">
           <rect id="button" ry="5" rx="5" y="6" x="6" height="38" width="38"
                fill="#f2f5e9" fill-opacity="0.5" stroke="#606060" stroke-width="1.0"/>
           <path id="arrow"
             d="M 11.500037,31.436501 C 11.940474,20.09759 22.043105,11.32322 32.158766,21.979434 L 37.068811,17.246167 C 37.068811,17.246167 37.088388,32 37.088388,32 L 22.160133,31.978069 C 22.160133,31.978069 26.997745,27.140456 26.997745,27.140456 C 18.528582,18.264221 13.291696,25.230495 11.500037,31.436501 z"
             style="fill:#404040;"/>
          </a>
         </g>
        </svg>
</svg>
