<?xml version="1.0" encoding="UTF-8" standalone="no"?>
<!DOCTYPE svg PUBLIC "-//W3C//DTD SVG 1.1//EN"
 "http://www.w3.org/Graphics/SVG/1.1/DTD/svg11.dtd">
<!-- Generated by graphviz version 2.44.0 (0)
 -->
<!-- Title: EventInfo Pages: 1 -->
<svg width="293pt" height="127pt"
 viewBox="0.00 0.00 293.00 126.50" xmlns="http://www.w3.org/2000/svg" xmlns:xlink="http://www.w3.org/1999/xlink">
<g id="graph0" class="graph" transform="scale(1 1) rotate(0) translate(4 122.5)">
<title>EventInfo</title>
<polygon fill="white" stroke="transparent" points="-4,4 -4,-122.5 289,-122.5 289,4 -4,4"/>
<!-- Node1 -->
<g id="node1" class="node">
<title>Node1</title>
<g id="a_node1"><a xlink:title="constructors are same for all three so put in here">
<polygon fill="#bfbfbf" stroke="black" points="227,-44.5 227,-63.5 285,-63.5 285,-44.5 227,-44.5"/>
<text text-anchor="middle" x="256" y="-51.5" font-family="Helvetica" font-size="10.00">EventInfo</text>
</a>
</g>
</g>
<!-- Node2 -->
<g id="node2" class="node">
<title>Node2</title>
<g id="a_node2"><a xlink:title=" ">
<polygon fill="white" stroke="#bfbfbf" points="0,-88 0,-118 95,-118 95,-88 0,-88"/>
<text text-anchor="start" x="8" y="-106" font-family="Helvetica" font-size="10.00">std::vector&lt; const</text>
<text text-anchor="middle" x="47.5" y="-95" font-family="Helvetica" font-size="10.00"> double * &gt;</text>
</a>
</g>
</g>
<!-- Node2&#45;&gt;Node1 -->
<g id="edge1" class="edge">
<title>Node2&#45;&gt;Node1</title>
<path fill="none" stroke="#9a32cd" stroke-dasharray="5,2" d="M105.31,-92.5C136.17,-86.41 174.89,-78.15 209,-69 215,-67.39 221.38,-65.46 227.41,-63.52"/>
<polygon fill="#9a32cd" stroke="#9a32cd" points="104.31,-89.13 95.17,-94.48 105.65,-96 104.31,-89.13"/>
<text text-anchor="middle" x="161" y="-104" font-family="Helvetica" font-size="10.00"> KinVar</text>
<text text-anchor="middle" x="161" y="-93" font-family="Helvetica" font-size="10.00">norm_pointers</text>
</g>
<!-- Node3 -->
<g id="node3" class="node">
<title>Node3</title>
<g id="a_node3"><a xlink:title=" ">
<polygon fill="white" stroke="#bfbfbf" points="0,-39 0,-69 95,-69 95,-39 0,-39"/>
<text text-anchor="start" x="8" y="-57" font-family="Helvetica" font-size="10.00">std::vector&lt; const</text>
<text text-anchor="middle" x="47.5" y="-46" font-family="Helvetica" font-size="10.00"> M3::float_t * &gt;</text>
</a>
</g>
</g>
<!-- Node3&#45;&gt;Node1 -->
<g id="edge2" class="edge">
<title>Node3&#45;&gt;Node1</title>
<path fill="none" stroke="#9a32cd" stroke-dasharray="5,2" d="M105.15,-54C144.71,-54 195.83,-54 226.98,-54"/>
<polygon fill="#9a32cd" stroke="#9a32cd" points="105.1,-50.5 95.1,-54 105.1,-57.5 105.1,-50.5"/>
<text text-anchor="middle" x="161" y="-57" font-family="Helvetica" font-size="10.00"> total_weight_pointers</text>
</g>
<!-- Node4 -->
<g id="node4" class="node">
<title>Node4</title>
<g id="a_node4"><a xlink:title=" ">
<polygon fill="white" stroke="#bfbfbf" points="2,-0.5 2,-19.5 93,-19.5 93,-0.5 2,-0.5"/>
<text text-anchor="middle" x="47.5" y="-7.5" font-family="Helvetica" font-size="10.00">std::vector&lt; int &gt;</text>
</a>
</g>
</g>
<!-- Node4&#45;&gt;Node1 -->
<g id="edge3" class="edge">
<title>Node4&#45;&gt;Node1</title>
<path fill="none" stroke="#9a32cd" stroke-dasharray="5,2" d="M103.36,-18.01C134.56,-23.04 174.22,-30.23 209,-39 215.19,-40.56 221.76,-42.52 227.94,-44.5"/>
<polygon fill="#9a32cd" stroke="#9a32cd" points="103.55,-14.5 93.13,-16.39 102.46,-21.41 103.55,-14.5"/>
<text text-anchor="middle" x="161" y="-42" font-family="Helvetica" font-size="10.00"> NomBin</text>
</g>
</g>
</svg>
