<?xml version="1.0" encoding="UTF-8" standalone="no"?>
<!DOCTYPE svg PUBLIC "-//W3C//DTD SVG 1.1//EN"
 "http://www.w3.org/Graphics/SVG/1.1/DTD/svg11.dtd">
<!-- Generated by graphviz version 2.44.0 (0)
 -->
<!-- Title: NormParameter Pages: 1 -->
<!--zoomable 187 -->
<svg id="main" version="1.1" xmlns="http://www.w3.org/2000/svg" xmlns:xlink="http://www.w3.org/1999/xlink" xml:space="preserve" onload="init(evt)">
<style type="text/css"><![CDATA[
.edge:hover path { stroke: red; }
.edge:hover polygon { stroke: red; fill: red; }
]]></style>
<script type="text/javascript"><![CDATA[
var edges = document.getElementsByTagName('g');
if (edges && edges.length) {
  for (var i=0;i<edges.length;i++) {
    if (edges[i].id.substr(0,4)=='edge') {
      edges[i].setAttribute('class','edge');
    }
  }
}
]]></script>
        <defs>
                <circle id="rim" cx="0" cy="0" r="7"/>
                <circle id="rim2" cx="0" cy="0" r="3.5"/>
                <g id="zoomPlus">
                        <use xlink:href="#rim" fill="#404040">
                                <set attributeName="fill" to="#808080" begin="zoomplus.mouseover" end="zoomplus.mouseout"/>
                        </use>
                        <path d="M-4,0h8M0,-4v8" fill="none" stroke="white" stroke-width="1.5" pointer-events="none"/>
                </g>
                <g id="zoomMin">
                        <use xlink:href="#rim" fill="#404040">
                                <set attributeName="fill" to="#808080" begin="zoomminus.mouseover" end="zoomminus.mouseout"/>
                        </use>
                        <path d="M-4,0h8" fill="none" stroke="white" stroke-width="1.5" pointer-events="none"/>
                </g>
                <g id="dirArrow">
                        <path fill="none" stroke="white" stroke-width="1.5" d="M0,-3.0v7 M-2.5,-0.5L0,-3.0L2.5,-0.5"/>
                </g>
               <g id="resetDef">
                       <use xlink:href="#rim2" fill="#404040">
                               <set attributeName="fill" to="#808080" begin="reset.mouseover" end="reset.mouseout"/>
                       </use>
               </g>
        </defs>

<script type="text/javascript">
var viewWidth = 596;
var viewHeight = 187;
var sectionId = 'dynsection-1';
</script>
<script xlink:href="svgpan.js"/>
<svg id="graph" class="graph">
<g id="viewport">
<title>NormParameter</title>
<polygon fill="white" stroke="transparent" points="-4,4 -4,-182.5 592,-182.5 592,4 -4,4"/>
<!-- Node1 -->
<g id="node1" class="node">
<title>Node1</title>
<g id="a_node1"><a xlink:title="ETA &#45; Normalisations for cross&#45;section parameters Carrier for whether you want to apply a systematic ...">
<polygon fill="#bfbfbf" stroke="black" points="502,-61.5 502,-80.5 588,-80.5 588,-61.5 502,-61.5"/>
<text text-anchor="middle" x="545" y="-68.5" font-family="Helvetica" font-size="10.00">NormParameter</text>
</a>
</g>
</g>
<!-- Node2 -->
<g id="node2" class="node">
<title>Node2</title>
<g id="a_node2"><a xlink:href="structTypeParameterBase.html" target="_top" xlink:title="Base class storing info for parameters types, helping unify codebase.">
<polygon fill="white" stroke="black" points="271.5,-153.5 271.5,-172.5 376.5,-172.5 376.5,-153.5 271.5,-153.5"/>
<text text-anchor="middle" x="324" y="-160.5" font-family="Helvetica" font-size="10.00">TypeParameterBase</text>
</a>
</g>
</g>
<!-- Node2&#45;&gt;Node1 -->
<g id="edge1" class="edge">
<title>Node2&#45;&gt;Node1</title>
<path fill="none" stroke="midnightblue" d="M386.89,-166.72C417.76,-166 454.67,-161.07 484,-145 511.27,-130.06 530.85,-97.16 539.32,-80.73"/>
<polygon fill="midnightblue" stroke="midnightblue" points="386.64,-163.23 376.67,-166.82 386.7,-170.23 386.64,-163.23"/>
</g>
<!-- Node3 -->
<g id="node3" class="node">
<title>Node3</title>
<g id="a_node3"><a xlink:title=" ">
<polygon fill="white" stroke="#bfbfbf" points="132,-153.5 132,-172.5 192,-172.5 192,-153.5 132,-153.5"/>
<text text-anchor="middle" x="162" y="-160.5" font-family="Helvetica" font-size="10.00">std::string</text>
</a>
</g>
</g>
<!-- Node3&#45;&gt;Node2 -->
<g id="edge2" class="edge">
<title>Node3&#45;&gt;Node2</title>
<path fill="none" stroke="#9a32cd" stroke-dasharray="5,2" d="M202.44,-163C223.27,-163 249.1,-163 271.5,-163"/>
<polygon fill="#9a32cd" stroke="#9a32cd" points="202.35,-159.5 192.35,-163 202.35,-166.5 202.35,-159.5"/>
<text text-anchor="middle" x="224" y="-166" font-family="Helvetica" font-size="10.00"> name</text>
</g>
<!-- Node4 -->
<g id="node4" class="node">
<title>Node4</title>
<g id="a_node4"><a xlink:title=" ">
<polygon fill="white" stroke="#bfbfbf" points="0,-148 0,-178 95,-178 95,-148 0,-148"/>
<text text-anchor="start" x="8" y="-166" font-family="Helvetica" font-size="10.00">std::basic_string&lt;</text>
<text text-anchor="middle" x="47.5" y="-155" font-family="Helvetica" font-size="10.00"> char &gt;</text>
</a>
</g>
</g>
<!-- Node4&#45;&gt;Node3 -->
<g id="edge3" class="edge">
<title>Node4&#45;&gt;Node3</title>
<path fill="none" stroke="midnightblue" d="M105.53,-163C114.68,-163 123.8,-163 131.93,-163"/>
<polygon fill="midnightblue" stroke="midnightblue" points="105.23,-159.5 95.23,-163 105.23,-166.5 105.23,-159.5"/>
</g>
<!-- Node5 -->
<g id="node5" class="node">
<title>Node5</title>
<g id="a_node5"><a xlink:title=" ">
<polygon fill="white" stroke="#bfbfbf" points="278.5,-88.5 278.5,-107.5 369.5,-107.5 369.5,-88.5 278.5,-88.5"/>
<text text-anchor="middle" x="324" y="-95.5" font-family="Helvetica" font-size="10.00">std::vector&lt; int &gt;</text>
</a>
</g>
</g>
<!-- Node5&#45;&gt;Node1 -->
<g id="edge4" class="edge">
<title>Node5&#45;&gt;Node1</title>
<path fill="none" stroke="#9a32cd" stroke-dasharray="5,2" d="M379.9,-91.23C417.64,-86.58 467.02,-80.49 501.71,-76.21"/>
<polygon fill="#9a32cd" stroke="#9a32cd" points="379.08,-87.81 369.58,-92.5 379.94,-94.75 379.08,-87.81"/>
<text text-anchor="middle" x="447" y="-133" font-family="Helvetica" font-size="10.00"> horncurrents</text>
<text text-anchor="middle" x="447" y="-122" font-family="Helvetica" font-size="10.00">modes</text>
<text text-anchor="middle" x="447" y="-111" font-family="Helvetica" font-size="10.00">pdgs</text>
<text text-anchor="middle" x="447" y="-100" font-family="Helvetica" font-size="10.00">preoscpdgs</text>
<text text-anchor="middle" x="447" y="-89" font-family="Helvetica" font-size="10.00">targets</text>
</g>
<!-- Node6 -->
<g id="node6" class="node">
<title>Node6</title>
<g id="a_node6"><a xlink:title=" ">
<polygon fill="white" stroke="#bfbfbf" points="256,-39 256,-69 392,-69 392,-39 256,-39"/>
<text text-anchor="start" x="264" y="-57" font-family="Helvetica" font-size="10.00">std::vector&lt; std::vector</text>
<text text-anchor="middle" x="324" y="-46" font-family="Helvetica" font-size="10.00">&lt; std::vector&lt; double &gt; &gt; &gt;</text>
</a>
</g>
</g>
<!-- Node6&#45;&gt;Node1 -->
<g id="edge5" class="edge">
<title>Node6&#45;&gt;Node1</title>
<path fill="none" stroke="#9a32cd" stroke-dasharray="5,2" d="M402.26,-54.69C428.29,-55.51 457.46,-57.08 484,-60 489.79,-60.64 495.86,-61.51 501.83,-62.48"/>
<polygon fill="#9a32cd" stroke="#9a32cd" points="402.17,-51.18 392.08,-54.4 401.97,-58.18 402.17,-51.18"/>
<text text-anchor="middle" x="447" y="-63" font-family="Helvetica" font-size="10.00"> Selection</text>
</g>
<!-- Node7 -->
<g id="node7" class="node">
<title>Node7</title>
<g id="a_node7"><a xlink:title=" ">
<polygon fill="white" stroke="#bfbfbf" points="262,-0.5 262,-19.5 386,-19.5 386,-0.5 262,-0.5"/>
<text text-anchor="middle" x="324" y="-7.5" font-family="Helvetica" font-size="10.00">std::vector&lt; std::string &gt;</text>
</a>
</g>
</g>
<!-- Node7&#45;&gt;Node1 -->
<g id="edge6" class="edge">
<title>Node7&#45;&gt;Node1</title>
<path fill="none" stroke="#9a32cd" stroke-dasharray="5,2" d="M396.23,-18.18C424.1,-22.62 456.03,-29.26 484,-39 500.28,-44.67 517.5,-54.28 529.3,-61.49"/>
<polygon fill="#9a32cd" stroke="#9a32cd" points="396.57,-14.69 386.16,-16.65 395.52,-21.61 396.57,-14.69"/>
<text text-anchor="middle" x="447" y="-42" font-family="Helvetica" font-size="10.00"> KinematicVarStr</text>
</g>
</g>
</svg>
        <g id="navigator" transform="translate(0 0)" fill="#404254">
                <rect fill="#f2f5e9" fill-opacity="0.5" stroke="#606060" stroke-width=".5" x="0" y="0" width="60" height="60"/>
                <use id="zoomplus" xlink:href="#zoomPlus" x="17" y="9" onmousedown="handleZoom(evt,'in')"/>
                <use id="zoomminus" xlink:href="#zoomMin" x="42" y="9" onmousedown="handleZoom(evt,'out')"/>
                <use id="reset" xlink:href="#resetDef" x="30" y="36" onmousedown="handleReset()"/>
                <g id="arrowUp" xlink:href="#dirArrow" transform="translate(30 24)" onmousedown="handlePan(0,-1)">
                  <use xlink:href="#rim" fill="#404040">
                        <set attributeName="fill" to="#808080" begin="arrowUp.mouseover" end="arrowUp.mouseout"/>
                  </use>
                  <path fill="none" stroke="white" stroke-width="1.5" d="M0,-3.0v7 M-2.5,-0.5L0,-3.0L2.5,-0.5"/>
                </g>
                <g id="arrowRight" xlink:href="#dirArrow" transform="rotate(90) translate(36 -43)" onmousedown="handlePan(1,0)">
                  <use xlink:href="#rim" fill="#404040">
                        <set attributeName="fill" to="#808080" begin="arrowRight.mouseover" end="arrowRight.mouseout"/>
                  </use>
                  <path fill="none" stroke="white" stroke-width="1.5" d="M0,-3.0v7 M-2.5,-0.5L0,-3.0L2.5,-0.5"/>
                </g>
                <g id="arrowDown" xlink:href="#dirArrow" transform="rotate(180) translate(-30 -48)" onmousedown="handlePan(0,1)">
                  <use xlink:href="#rim" fill="#404040">
                        <set attributeName="fill" to="#808080" begin="arrowDown.mouseover" end="arrowDown.mouseout"/>
                  </use>
                  <path fill="none" stroke="white" stroke-width="1.5" d="M0,-3.0v7 M-2.5,-0.5L0,-3.0L2.5,-0.5"/>
                </g>
                <g id="arrowLeft" xlink:href="#dirArrow" transform="rotate(270) translate(-36 17)" onmousedown="handlePan(-1,0)">
                  <use xlink:href="#rim" fill="#404040">
                        <set attributeName="fill" to="#808080" begin="arrowLeft.mouseover" end="arrowLeft.mouseout"/>
                  </use>
                  <path fill="none" stroke="white" stroke-width="1.5" d="M0,-3.0v7 M-2.5,-0.5L0,-3.0L2.5,-0.5"/>
                </g>
        </g>
        <svg viewBox="0 0 15 15" width="100%" height="30px" preserveAspectRatio="xMaxYMin meet">
         <g id="arrow_out" transform="scale(0.3 0.3)">
          <a xlink:href="structNormParameter__coll__graph_org.svg" target="_base">
           <rect id="button" ry="5" rx="5" y="6" x="6" height="38" width="38"
                fill="#f2f5e9" fill-opacity="0.5" stroke="#606060" stroke-width="1.0"/>
           <path id="arrow"
             d="M 11.500037,31.436501 C 11.940474,20.09759 22.043105,11.32322 32.158766,21.979434 L 37.068811,17.246167 C 37.068811,17.246167 37.088388,32 37.088388,32 L 22.160133,31.978069 C 22.160133,31.978069 26.997745,27.140456 26.997745,27.140456 C 18.528582,18.264221 13.291696,25.230495 11.500037,31.436501 z"
             style="fill:#404040;"/>
          </a>
         </g>
        </svg>
</svg>
