<?xml version="1.0" encoding="UTF-8" standalone="no"?>
<!DOCTYPE svg PUBLIC "-//W3C//DTD SVG 1.1//EN"
 "http://www.w3.org/Graphics/SVG/1.1/DTD/svg11.dtd">
<!-- Generated by graphviz version 2.44.0 (0)
 -->
<!-- Title: PSO Pages: 1 -->
<!--zoomable 533 -->
<svg id="main" version="1.1" xmlns="http://www.w3.org/2000/svg" xmlns:xlink="http://www.w3.org/1999/xlink" xml:space="preserve" onload="init(evt)">
<style type="text/css"><![CDATA[
.edge:hover path { stroke: red; }
.edge:hover polygon { stroke: red; fill: red; }
]]></style>
<script type="text/javascript"><![CDATA[
var edges = document.getElementsByTagName('g');
if (edges && edges.length) {
  for (var i=0;i<edges.length;i++) {
    if (edges[i].id.substr(0,4)=='edge') {
      edges[i].setAttribute('class','edge');
    }
  }
}
]]></script>
        <defs>
                <circle id="rim" cx="0" cy="0" r="7"/>
                <circle id="rim2" cx="0" cy="0" r="3.5"/>
                <g id="zoomPlus">
                        <use xlink:href="#rim" fill="#404040">
                                <set attributeName="fill" to="#808080" begin="zoomplus.mouseover" end="zoomplus.mouseout"/>
                        </use>
                        <path d="M-4,0h8M0,-4v8" fill="none" stroke="white" stroke-width="1.5" pointer-events="none"/>
                </g>
                <g id="zoomMin">
                        <use xlink:href="#rim" fill="#404040">
                                <set attributeName="fill" to="#808080" begin="zoomminus.mouseover" end="zoomminus.mouseout"/>
                        </use>
                        <path d="M-4,0h8" fill="none" stroke="white" stroke-width="1.5" pointer-events="none"/>
                </g>
                <g id="dirArrow">
                        <path fill="none" stroke="white" stroke-width="1.5" d="M0,-3.0v7 M-2.5,-0.5L0,-3.0L2.5,-0.5"/>
                </g>
               <g id="resetDef">
                       <use xlink:href="#rim2" fill="#404040">
                               <set attributeName="fill" to="#808080" begin="reset.mouseover" end="reset.mouseout"/>
                       </use>
               </g>
        </defs>

<script type="text/javascript">
var viewWidth = 979;
var viewHeight = 533;
var sectionId = 'dynsection-1';
</script>
<script xlink:href="svgpan.js"/>
<svg id="graph" class="graph">
<g id="viewport">
<title>PSO</title>
<polygon fill="white" stroke="transparent" points="-4,4 -4,-529 975,-529 975,4 -4,4"/>
<!-- Node1 -->
<g id="node1" class="node">
<title>Node1</title>
<g id="a_node1"><a xlink:title="Class PSO, consist of a vector of object Class Particle and global best Takes in the size (number of ...">
<polygon fill="#bfbfbf" stroke="black" points="933,-126.5 933,-145.5 971,-145.5 971,-126.5 933,-126.5"/>
<text text-anchor="middle" x="952" y="-133.5" font-family="Helvetica" font-size="10.00">PSO</text>
</a>
</g>
</g>
<!-- Node2 -->
<g id="node2" class="node">
<title>Node2</title>
<g id="a_node2"><a xlink:href="classLikelihoodFit.html" target="_top" xlink:title="Implementation of base Likelihood Fit class, it is mostly responsible for likelihood calculation whil...">
<polygon fill="white" stroke="black" points="742,-307.5 742,-326.5 813,-326.5 813,-307.5 742,-307.5"/>
<text text-anchor="middle" x="777.5" y="-314.5" font-family="Helvetica" font-size="10.00">LikelihoodFit</text>
</a>
</g>
</g>
<!-- Node2&#45;&gt;Node1 -->
<g id="edge1" class="edge">
<title>Node2&#45;&gt;Node1</title>
<path fill="none" stroke="midnightblue" d="M814.52,-303.46C845.14,-290.27 888.27,-267.44 915,-235 937.57,-207.62 946.6,-164.88 949.66,-145.79"/>
<polygon fill="midnightblue" stroke="midnightblue" points="812.94,-300.33 805.06,-307.41 815.63,-306.79 812.94,-300.33"/>
</g>
<!-- Node3 -->
<g id="node3" class="node">
<title>Node3</title>
<g id="a_node3"><a xlink:href="classFitterBase.html" target="_top" xlink:title="Base class for implementing fitting algorithms.">
<polygon fill="white" stroke="black" points="565,-337.5 565,-356.5 627,-356.5 627,-337.5 565,-337.5"/>
<text text-anchor="middle" x="596" y="-344.5" font-family="Helvetica" font-size="10.00">FitterBase</text>
</a>
</g>
</g>
<!-- Node3&#45;&gt;Node2 -->
<g id="edge2" class="edge">
<title>Node3&#45;&gt;Node2</title>
<path fill="none" stroke="midnightblue" d="M637.21,-340.28C668.62,-335.03 711.82,-327.81 741.74,-322.81"/>
<polygon fill="midnightblue" stroke="midnightblue" points="636.33,-336.88 627.04,-341.98 637.48,-343.78 636.33,-336.88"/>
</g>
<!-- Node4 -->
<g id="node4" class="node">
<title>Node4</title>
<g id="a_node4"><a xlink:title=" ">
<polygon fill="white" stroke="#bfbfbf" points="274,-492.5 274,-511.5 425,-511.5 425,-492.5 274,-492.5"/>
<text text-anchor="middle" x="349.5" y="-499.5" font-family="Helvetica" font-size="10.00">std::unique_ptr&lt; TStopwatch &gt;</text>
</a>
</g>
</g>
<!-- Node4&#45;&gt;Node3 -->
<g id="edge3" class="edge">
<title>Node4&#45;&gt;Node3</title>
<path fill="none" stroke="#9a32cd" stroke-dasharray="5,2" d="M435.34,-504.76C473.15,-501.81 516.04,-492.2 547,-467 582.32,-438.24 591.81,-379.64 594.22,-356.6"/>
<polygon fill="#9a32cd" stroke="#9a32cd" points="435.09,-501.26 425.34,-505.39 435.54,-508.25 435.09,-501.26"/>
<text text-anchor="middle" x="495" y="-517" font-family="Helvetica" font-size="10.00"> clock</text>
<text text-anchor="middle" x="495" y="-506" font-family="Helvetica" font-size="10.00">stepClock</text>
</g>
<!-- Node5 -->
<g id="node5" class="node">
<title>Node5</title>
<g id="a_node5"><a xlink:title=" ">
<polygon fill="white" stroke="#bfbfbf" points="274.5,-443 274.5,-473 424.5,-473 424.5,-443 274.5,-443"/>
<text text-anchor="start" x="282.5" y="-461" font-family="Helvetica" font-size="10.00">std::vector&lt; ParameterHandler</text>
<text text-anchor="middle" x="349.5" y="-450" font-family="Helvetica" font-size="10.00">Base * &gt;</text>
</a>
</g>
</g>
<!-- Node5&#45;&gt;Node3 -->
<g id="edge4" class="edge">
<title>Node5&#45;&gt;Node3</title>
<path fill="none" stroke="#9a32cd" stroke-dasharray="5,2" d="M434.93,-454.4C471.84,-449.45 514.13,-438.9 547,-417 569.56,-401.97 584.49,-372.38 591.1,-356.93"/>
<polygon fill="#9a32cd" stroke="#9a32cd" points="434.17,-450.96 424.67,-455.65 435.02,-457.91 434.17,-450.96"/>
<text text-anchor="middle" x="495" y="-455" font-family="Helvetica" font-size="10.00"> systematics</text>
</g>
<!-- Node6 -->
<g id="node6" class="node">
<title>Node6</title>
<g id="a_node6"><a xlink:title=" ">
<polygon fill="white" stroke="#bfbfbf" points="276.5,-404.5 276.5,-423.5 422.5,-423.5 422.5,-404.5 276.5,-404.5"/>
<text text-anchor="middle" x="349.5" y="-411.5" font-family="Helvetica" font-size="10.00">std::unique_ptr&lt; TRandom3 &gt;</text>
</a>
</g>
</g>
<!-- Node6&#45;&gt;Node3 -->
<g id="edge5" class="edge">
<title>Node6&#45;&gt;Node3</title>
<path fill="none" stroke="#9a32cd" stroke-dasharray="5,2" d="M432.63,-404.72C468.55,-398.99 510.69,-389.97 547,-376 559.54,-371.18 572.51,-363.13 581.8,-356.73"/>
<polygon fill="#9a32cd" stroke="#9a32cd" points="432.02,-401.27 422.67,-406.24 433.08,-408.19 432.02,-401.27"/>
<text text-anchor="middle" x="495" y="-405" font-family="Helvetica" font-size="10.00"> random</text>
</g>
<!-- Node7 -->
<g id="node7" class="node">
<title>Node7</title>
<g id="a_node7"><a xlink:title=" ">
<polygon fill="white" stroke="#bfbfbf" points="280.5,-355 280.5,-385 418.5,-385 418.5,-355 280.5,-355"/>
<text text-anchor="start" x="288.5" y="-373" font-family="Helvetica" font-size="10.00">std::vector&lt; SampleHandler</text>
<text text-anchor="middle" x="349.5" y="-362" font-family="Helvetica" font-size="10.00">Base * &gt;</text>
</a>
</g>
</g>
<!-- Node7&#45;&gt;Node3 -->
<g id="edge6" class="edge">
<title>Node7&#45;&gt;Node3</title>
<path fill="none" stroke="#9a32cd" stroke-dasharray="5,2" d="M428.64,-362.65C475.01,-358.29 531.15,-353.01 564.92,-349.83"/>
<polygon fill="#9a32cd" stroke="#9a32cd" points="428.24,-359.17 418.61,-363.59 428.89,-366.14 428.24,-359.17"/>
<text text-anchor="middle" x="495" y="-364" font-family="Helvetica" font-size="10.00"> samples</text>
</g>
<!-- Node8 -->
<g id="node8" class="node">
<title>Node8</title>
<g id="a_node8"><a xlink:title=" ">
<polygon fill="white" stroke="#bfbfbf" points="132,-292.5 132,-311.5 192,-311.5 192,-292.5 132,-292.5"/>
<text text-anchor="middle" x="162" y="-299.5" font-family="Helvetica" font-size="10.00">std::string</text>
</a>
</g>
</g>
<!-- Node8&#45;&gt;Node3 -->
<g id="edge7" class="edge">
<title>Node8&#45;&gt;Node3</title>
<path fill="none" stroke="#9a32cd" stroke-dasharray="5,2" d="M202.19,-308.89C204.83,-309.29 207.45,-309.66 210,-310 341.79,-327.53 500.03,-340.07 564.96,-344.86"/>
<polygon fill="#9a32cd" stroke="#9a32cd" points="202.46,-305.39 192.03,-307.28 201.36,-312.3 202.46,-305.39"/>
<text text-anchor="middle" x="349.5" y="-336" font-family="Helvetica" font-size="10.00"> AlgorithmName</text>
</g>
<!-- Node10 -->
<g id="node10" class="node">
<title>Node10</title>
<g id="a_node10"><a xlink:href="classmanager.html" target="_top" xlink:title="The manager class is responsible for managing configurations and settings.">
<polygon fill="white" stroke="black" points="322.5,-269.5 322.5,-288.5 376.5,-288.5 376.5,-269.5 322.5,-269.5"/>
<text text-anchor="middle" x="349.5" y="-276.5" font-family="Helvetica" font-size="10.00">manager</text>
</a>
</g>
</g>
<!-- Node8&#45;&gt;Node10 -->
<g id="edge10" class="edge">
<title>Node8&#45;&gt;Node10</title>
<path fill="none" stroke="#9a32cd" stroke-dasharray="5,2" d="M202.58,-297.09C238.69,-292.62 291.05,-286.12 322.24,-282.26"/>
<polygon fill="#9a32cd" stroke="#9a32cd" points="201.89,-293.65 192.39,-298.36 202.75,-300.6 201.89,-293.65"/>
<text text-anchor="middle" x="233" y="-298" font-family="Helvetica" font-size="10.00"> FileName</text>
</g>
<!-- Node9 -->
<g id="node9" class="node">
<title>Node9</title>
<g id="a_node9"><a xlink:title=" ">
<polygon fill="white" stroke="#bfbfbf" points="0,-287 0,-317 95,-317 95,-287 0,-287"/>
<text text-anchor="start" x="8" y="-305" font-family="Helvetica" font-size="10.00">std::basic_string&lt;</text>
<text text-anchor="middle" x="47.5" y="-294" font-family="Helvetica" font-size="10.00"> char &gt;</text>
</a>
</g>
</g>
<!-- Node9&#45;&gt;Node8 -->
<g id="edge8" class="edge">
<title>Node9&#45;&gt;Node8</title>
<path fill="none" stroke="midnightblue" d="M105.53,-302C114.68,-302 123.8,-302 131.93,-302"/>
<polygon fill="midnightblue" stroke="midnightblue" points="105.23,-298.5 95.23,-302 105.23,-305.5 105.23,-298.5"/>
</g>
<!-- Node10&#45;&gt;Node3 -->
<g id="edge9" class="edge">
<title>Node10&#45;&gt;Node3</title>
<path fill="none" stroke="#9a32cd" stroke-dasharray="5,2" d="M386.85,-280.05C435.66,-281.94 519.46,-287.01 547,-300 564.72,-308.36 579.86,-325.99 588.17,-337.12"/>
<polygon fill="#9a32cd" stroke="#9a32cd" points="386.82,-276.55 376.7,-279.68 386.57,-283.54 386.82,-276.55"/>
<text text-anchor="middle" x="495" y="-303" font-family="Helvetica" font-size="10.00"> fitMan</text>
</g>
<!-- Node11 -->
<g id="node11" class="node">
<title>Node11</title>
<g id="a_node11"><a xlink:title=" ">
<polygon fill="white" stroke="#bfbfbf" points="295,-211.5 295,-230.5 404,-230.5 404,-211.5 295,-211.5"/>
<text text-anchor="middle" x="349.5" y="-218.5" font-family="Helvetica" font-size="10.00">std::vector&lt; double &gt;</text>
</a>
</g>
</g>
<!-- Node11&#45;&gt;Node1 -->
<g id="edge18" class="edge">
<title>Node11&#45;&gt;Node1</title>
<path fill="none" stroke="#9a32cd" stroke-dasharray="5,2" d="M414.3,-221.14C507.71,-220.43 686.88,-215.58 837,-191 872.43,-185.2 883.67,-187.52 915,-170 926.1,-163.79 936.4,-153.4 943.11,-145.73"/>
<polygon fill="#9a32cd" stroke="#9a32cd" points="414.14,-217.64 404.16,-221.21 414.19,-224.64 414.14,-217.64"/>
<text text-anchor="middle" x="672.5" y="-237" font-family="Helvetica" font-size="10.00"> prior</text>
<text text-anchor="middle" x="672.5" y="-226" font-family="Helvetica" font-size="10.00">ranges_max</text>
<text text-anchor="middle" x="672.5" y="-215" font-family="Helvetica" font-size="10.00">ranges_min</text>
</g>
<!-- Node11&#45;&gt;Node3 -->
<g id="edge11" class="edge">
<title>Node11&#45;&gt;Node3</title>
<path fill="none" stroke="#9a32cd" stroke-dasharray="5,2" d="M414.51,-229.9C467.66,-237.75 536.25,-249.14 547,-257 574.74,-277.27 588,-318.5 592.8,-337.29"/>
<polygon fill="#9a32cd" stroke="#9a32cd" points="414.84,-226.41 404.44,-228.43 413.83,-233.34 414.84,-226.41"/>
<text text-anchor="middle" x="495" y="-271" font-family="Helvetica" font-size="10.00"> sample_llh</text>
<text text-anchor="middle" x="495" y="-260" font-family="Helvetica" font-size="10.00">syst_llh</text>
</g>
<!-- Node15 -->
<g id="node15" class="node">
<title>Node15</title>
<g id="a_node15"><a xlink:href="classparticle.html" target="_top" xlink:title="Class particle &#45; stores the position, velocity and personal best With functions which move particle a...">
<polygon fill="white" stroke="black" points="648,-168.5 648,-187.5 697,-187.5 697,-168.5 648,-168.5"/>
<text text-anchor="middle" x="672.5" y="-175.5" font-family="Helvetica" font-size="10.00">particle</text>
</a>
</g>
</g>
<!-- Node11&#45;&gt;Node15 -->
<g id="edge16" class="edge">
<title>Node11&#45;&gt;Node15</title>
<path fill="none" stroke="#9a32cd" stroke-dasharray="5,2" d="M372.72,-205.93C390.76,-194.64 417.34,-180.14 443,-174 515.93,-156.54 605.72,-167.04 647.72,-173.73"/>
<polygon fill="#9a32cd" stroke="#9a32cd" points="370.62,-203.11 364.11,-211.47 374.41,-209 370.62,-203.11"/>
<text text-anchor="middle" x="495" y="-199" font-family="Helvetica" font-size="10.00"> personal_best_position</text>
<text text-anchor="middle" x="495" y="-188" font-family="Helvetica" font-size="10.00">position</text>
<text text-anchor="middle" x="495" y="-177" font-family="Helvetica" font-size="10.00">velocity</text>
</g>
<!-- Node12 -->
<g id="node12" class="node">
<title>Node12</title>
<g id="a_node12"><a xlink:title=" ">
<polygon fill="white" stroke="#bfbfbf" points="719.5,-126.5 719.5,-145.5 835.5,-145.5 835.5,-126.5 719.5,-126.5"/>
<text text-anchor="middle" x="777.5" y="-133.5" font-family="Helvetica" font-size="10.00">std::vector&lt; double * &gt;</text>
</a>
</g>
</g>
<!-- Node12&#45;&gt;Node1 -->
<g id="edge12" class="edge">
<title>Node12&#45;&gt;Node1</title>
<path fill="none" stroke="#9a32cd" stroke-dasharray="5,2" d="M845.98,-136C877.37,-136 912.24,-136 932.86,-136"/>
<polygon fill="#9a32cd" stroke="#9a32cd" points="845.94,-132.5 835.94,-136 845.94,-139.5 845.94,-132.5"/>
<text text-anchor="middle" x="885" y="-139" font-family="Helvetica" font-size="10.00"> paramlist</text>
</g>
<!-- Node13 -->
<g id="node13" class="node">
<title>Node13</title>
<g id="a_node13"><a xlink:title=" ">
<polygon fill="white" stroke="#bfbfbf" points="718,-88.5 718,-107.5 837,-107.5 837,-88.5 718,-88.5"/>
<text text-anchor="middle" x="777.5" y="-95.5" font-family="Helvetica" font-size="10.00">std::vector&lt; particle * &gt;</text>
</a>
</g>
</g>
<!-- Node13&#45;&gt;Node1 -->
<g id="edge13" class="edge">
<title>Node13&#45;&gt;Node1</title>
<path fill="none" stroke="#9a32cd" stroke-dasharray="5,2" d="M847.17,-106.44C869.08,-109.97 893.27,-114.73 915,-121 920.99,-122.73 927.32,-125.15 932.98,-127.55"/>
<polygon fill="#9a32cd" stroke="#9a32cd" points="847.69,-102.98 837.27,-104.91 846.62,-109.9 847.69,-102.98"/>
<text text-anchor="middle" x="885" y="-124" font-family="Helvetica" font-size="10.00"> system</text>
</g>
<!-- Node14 -->
<g id="node14" class="node">
<title>Node14</title>
<g id="a_node14"><a xlink:title=" ">
<polygon fill="white" stroke="#bfbfbf" points="719,-39 719,-69 836,-69 836,-39 719,-39"/>
<text text-anchor="start" x="727" y="-57" font-family="Helvetica" font-size="10.00">std::vector&lt; std::vector</text>
<text text-anchor="middle" x="777.5" y="-46" font-family="Helvetica" font-size="10.00">&lt; double &gt; &gt;</text>
</a>
</g>
</g>
<!-- Node14&#45;&gt;Node1 -->
<g id="edge14" class="edge">
<title>Node14&#45;&gt;Node1</title>
<path fill="none" stroke="#9a32cd" stroke-dasharray="5,2" d="M846.01,-64.2C869.19,-69.86 894.45,-78.59 915,-92 928.55,-100.85 939.52,-116.42 945.65,-126.46"/>
<polygon fill="#9a32cd" stroke="#9a32cd" points="846.76,-60.78 836.23,-61.96 845.19,-67.6 846.76,-60.78"/>
<text text-anchor="middle" x="885" y="-95" font-family="Helvetica" font-size="10.00"> uncertainties</text>
</g>
<!-- Node15&#45;&gt;Node1 -->
<g id="edge15" class="edge">
<title>Node15&#45;&gt;Node1</title>
<path fill="none" stroke="#9a32cd" stroke-dasharray="5,2" d="M707.49,-177.22C754.74,-175.46 842.62,-169.72 915,-151 920.9,-149.47 927.1,-147.17 932.66,-144.82"/>
<polygon fill="#9a32cd" stroke="#9a32cd" points="707.09,-173.73 697.21,-177.56 707.32,-180.73 707.09,-173.73"/>
<text text-anchor="middle" x="777.5" y="-179" font-family="Helvetica" font-size="10.00"> best_particle</text>
</g>
<!-- Node16 -->
<g id="node16" class="node">
<title>Node16</title>
<g id="a_node16"><a xlink:title=" ">
<polygon fill="white" stroke="#bfbfbf" points="728.5,-0.5 728.5,-19.5 826.5,-19.5 826.5,-0.5 728.5,-0.5"/>
<text text-anchor="middle" x="777.5" y="-7.5" font-family="Helvetica" font-size="10.00">std::vector&lt; bool &gt;</text>
</a>
</g>
</g>
<!-- Node16&#45;&gt;Node1 -->
<g id="edge17" class="edge">
<title>Node16&#45;&gt;Node1</title>
<path fill="none" stroke="#9a32cd" stroke-dasharray="5,2" d="M836.72,-16.61C863.27,-22.24 893.5,-32.67 915,-52 937.54,-72.26 946.48,-109.05 949.57,-126.42"/>
<polygon fill="#9a32cd" stroke="#9a32cd" points="837.23,-13.14 826.75,-14.67 835.9,-20.01 837.23,-13.14"/>
<text text-anchor="middle" x="885" y="-55" font-family="Helvetica" font-size="10.00"> fixed</text>
</g>
</g>
</svg>
        <g id="navigator" transform="translate(0 0)" fill="#404254">
                <rect fill="#f2f5e9" fill-opacity="0.5" stroke="#606060" stroke-width=".5" x="0" y="0" width="60" height="60"/>
                <use id="zoomplus" xlink:href="#zoomPlus" x="17" y="9" onmousedown="handleZoom(evt,'in')"/>
                <use id="zoomminus" xlink:href="#zoomMin" x="42" y="9" onmousedown="handleZoom(evt,'out')"/>
                <use id="reset" xlink:href="#resetDef" x="30" y="36" onmousedown="handleReset()"/>
                <g id="arrowUp" xlink:href="#dirArrow" transform="translate(30 24)" onmousedown="handlePan(0,-1)">
                  <use xlink:href="#rim" fill="#404040">
                        <set attributeName="fill" to="#808080" begin="arrowUp.mouseover" end="arrowUp.mouseout"/>
                  </use>
                  <path fill="none" stroke="white" stroke-width="1.5" d="M0,-3.0v7 M-2.5,-0.5L0,-3.0L2.5,-0.5"/>
                </g>
                <g id="arrowRight" xlink:href="#dirArrow" transform="rotate(90) translate(36 -43)" onmousedown="handlePan(1,0)">
                  <use xlink:href="#rim" fill="#404040">
                        <set attributeName="fill" to="#808080" begin="arrowRight.mouseover" end="arrowRight.mouseout"/>
                  </use>
                  <path fill="none" stroke="white" stroke-width="1.5" d="M0,-3.0v7 M-2.5,-0.5L0,-3.0L2.5,-0.5"/>
                </g>
                <g id="arrowDown" xlink:href="#dirArrow" transform="rotate(180) translate(-30 -48)" onmousedown="handlePan(0,1)">
                  <use xlink:href="#rim" fill="#404040">
                        <set attributeName="fill" to="#808080" begin="arrowDown.mouseover" end="arrowDown.mouseout"/>
                  </use>
                  <path fill="none" stroke="white" stroke-width="1.5" d="M0,-3.0v7 M-2.5,-0.5L0,-3.0L2.5,-0.5"/>
                </g>
                <g id="arrowLeft" xlink:href="#dirArrow" transform="rotate(270) translate(-36 17)" onmousedown="handlePan(-1,0)">
                  <use xlink:href="#rim" fill="#404040">
                        <set attributeName="fill" to="#808080" begin="arrowLeft.mouseover" end="arrowLeft.mouseout"/>
                  </use>
                  <path fill="none" stroke="white" stroke-width="1.5" d="M0,-3.0v7 M-2.5,-0.5L0,-3.0L2.5,-0.5"/>
                </g>
        </g>
        <svg viewBox="0 0 15 15" width="100%" height="30px" preserveAspectRatio="xMaxYMin meet">
         <g id="arrow_out" transform="scale(0.3 0.3)">
          <a xlink:href="classPSO__coll__graph_org.svg" target="_base">
           <rect id="button" ry="5" rx="5" y="6" x="6" height="38" width="38"
                fill="#f2f5e9" fill-opacity="0.5" stroke="#606060" stroke-width="1.0"/>
           <path id="arrow"
             d="M 11.500037,31.436501 C 11.940474,20.09759 22.043105,11.32322 32.158766,21.979434 L 37.068811,17.246167 C 37.068811,17.246167 37.088388,32 37.088388,32 L 22.160133,31.978069 C 22.160133,31.978069 26.997745,27.140456 26.997745,27.140456 C 18.528582,18.264221 13.291696,25.230495 11.500037,31.436501 z"
             style="fill:#404040;"/>
          </a>
         </g>
        </svg>
</svg>
