<?xml version="1.0" encoding="UTF-8" standalone="no"?>
<!DOCTYPE svg PUBLIC "-//W3C//DTD SVG 1.1//EN"
 "http://www.w3.org/Graphics/SVG/1.1/DTD/svg11.dtd">
<!-- Generated by graphviz version 2.44.0 (0)
 -->
<!-- Title: Graphical Class Hierarchy Pages: 1 -->
<svg width="439pt" height="208pt"
 viewBox="0.00 0.00 439.00 208.00" xmlns="http://www.w3.org/2000/svg" xmlns:xlink="http://www.w3.org/1999/xlink">
<g id="graph0" class="graph" transform="scale(1 1) rotate(0) translate(4 204)">
<title>Graphical Class Hierarchy</title>
<polygon fill="white" stroke="transparent" points="-4,4 -4,-204 435,-204 435,4 -4,4"/>
<!-- Node0 -->
<g id="node1" class="node">
<title>Node0</title>
<g id="a_node1"><a xlink:href="classFitterBase.html" target="_top" xlink:title="Base class for implementing fitting algorithms.">
<polygon fill="white" stroke="black" points="0,-57.5 0,-76.5 62,-76.5 62,-57.5 0,-57.5"/>
<text text-anchor="middle" x="31" y="-64.5" font-family="Helvetica" font-size="10.00">FitterBase</text>
</a>
</g>
</g>
<!-- Node1 -->
<g id="node2" class="node">
<title>Node1</title>
<g id="a_node2"><a xlink:href="classLikelihoodFit.html" target="_top" xlink:title="Implementation of base Likelihood Fit class, it is mostly responsible for likelihood calculation whil...">
<polygon fill="white" stroke="black" points="109.5,-123.5 109.5,-142.5 180.5,-142.5 180.5,-123.5 109.5,-123.5"/>
<text text-anchor="middle" x="145" y="-130.5" font-family="Helvetica" font-size="10.00">LikelihoodFit</text>
</a>
</g>
</g>
<!-- Node0&#45;&gt;Node1 -->
<g id="edge1" class="edge">
<title>Node0&#45;&gt;Node1</title>
<path fill="none" stroke="midnightblue" d="M57.18,-81.84C78.78,-94.57 109.26,-112.53 127.77,-123.44"/>
<polygon fill="midnightblue" stroke="midnightblue" points="58.92,-78.8 48.53,-76.74 55.36,-84.83 58.92,-78.8"/>
</g>
<!-- Node5 -->
<g id="node6" class="node">
<title>Node5</title>
<g id="a_node6"><a xlink:href="classMCMCBase.html" target="_top" xlink:title="Base class for MCMC fitting algorithms.">
<polygon fill="white" stroke="black" points="109.5,-76.5 109.5,-95.5 180.5,-95.5 180.5,-76.5 109.5,-76.5"/>
<text text-anchor="middle" x="145" y="-83.5" font-family="Helvetica" font-size="10.00">MCMCBase</text>
</a>
</g>
</g>
<!-- Node0&#45;&gt;Node5 -->
<g id="edge5" class="edge">
<title>Node0&#45;&gt;Node5</title>
<path fill="none" stroke="midnightblue" d="M71.91,-73.77C84.07,-75.83 97.34,-78.08 109.14,-80.09"/>
<polygon fill="midnightblue" stroke="midnightblue" points="72.46,-70.31 62.01,-72.09 71.29,-77.21 72.46,-70.31"/>
</g>
<!-- Node8 -->
<g id="node9" class="node">
<title>Node8</title>
<g id="a_node9"><a xlink:href="classPredictiveThrower.html" target="_top" xlink:title="Implementation of Prior/Posterior Predictive and Bayesian p&#45;Value calculations following the approach...">
<polygon fill="white" stroke="black" points="98,-38.5 98,-57.5 192,-57.5 192,-38.5 98,-38.5"/>
<text text-anchor="middle" x="145" y="-45.5" font-family="Helvetica" font-size="10.00">PredictiveThrower</text>
</a>
</g>
</g>
<!-- Node0&#45;&gt;Node8 -->
<g id="edge8" class="edge">
<title>Node0&#45;&gt;Node8</title>
<path fill="none" stroke="midnightblue" d="M71.94,-60.22C80.34,-58.8 89.27,-57.29 97.87,-55.83"/>
<polygon fill="midnightblue" stroke="midnightblue" points="71.29,-56.79 62.01,-61.91 72.46,-63.69 71.29,-56.79"/>
</g>
<!-- Node9 -->
<g id="node10" class="node">
<title>Node9</title>
<g id="a_node10"><a xlink:href="classPyFitterBase.html" target="_top" xlink:title="EW: As FitterBase is an abstract base class we have to do some gymnastics to get it to get it into py...">
<polygon fill="white" stroke="black" points="108,-0.5 108,-19.5 182,-19.5 182,-0.5 108,-0.5"/>
<text text-anchor="middle" x="145" y="-7.5" font-family="Helvetica" font-size="10.00">PyFitterBase</text>
</a>
</g>
</g>
<!-- Node0&#45;&gt;Node9 -->
<g id="edge9" class="edge">
<title>Node0&#45;&gt;Node9</title>
<path fill="none" stroke="midnightblue" d="M56.18,-52.06C68.49,-44.72 83.82,-35.97 98,-29 104.67,-25.72 112.05,-22.5 118.91,-19.67"/>
<polygon fill="midnightblue" stroke="midnightblue" points="54.17,-49.19 47.42,-57.35 57.79,-55.18 54.17,-49.19"/>
</g>
<!-- Node2 -->
<g id="node3" class="node">
<title>Node2</title>
<g id="a_node3"><a xlink:href="classMinuitFit.html" target="_top" xlink:title="Implementation of Minuit fitting algorithm .">
<polygon fill="white" stroke="black" points="242.5,-180.5 242.5,-199.5 296.5,-199.5 296.5,-180.5 242.5,-180.5"/>
<text text-anchor="middle" x="269.5" y="-187.5" font-family="Helvetica" font-size="10.00">MinuitFit</text>
</a>
</g>
</g>
<!-- Node1&#45;&gt;Node2 -->
<g id="edge2" class="edge">
<title>Node1&#45;&gt;Node2</title>
<path fill="none" stroke="midnightblue" d="M175.87,-146.9C198.22,-157.3 228.21,-171.25 247.93,-180.43"/>
<polygon fill="midnightblue" stroke="midnightblue" points="177.05,-143.59 166.5,-142.54 174.09,-149.93 177.05,-143.59"/>
</g>
<!-- Node3 -->
<g id="node4" class="node">
<title>Node3</title>
<g id="a_node4"><a xlink:href="classPSO.html" target="_top" xlink:title="Class PSO, consist of a vector of object Class Particle and global best Takes in the size (number of ...">
<polygon fill="white" stroke="black" points="250.5,-142.5 250.5,-161.5 288.5,-161.5 288.5,-142.5 250.5,-142.5"/>
<text text-anchor="middle" x="269.5" y="-149.5" font-family="Helvetica" font-size="10.00">PSO</text>
</a>
</g>
</g>
<!-- Node1&#45;&gt;Node3 -->
<g id="edge3" class="edge">
<title>Node1&#45;&gt;Node3</title>
<path fill="none" stroke="midnightblue" d="M190.92,-139.97C211.46,-143.15 234.66,-146.75 250.29,-149.18"/>
<polygon fill="midnightblue" stroke="midnightblue" points="191.19,-136.47 180.78,-138.39 190.12,-143.39 191.19,-136.47"/>
</g>
<!-- Node4 -->
<g id="node5" class="node">
<title>Node4</title>
<g id="a_node5"><a xlink:href="classPyLikelihoodFit.html" target="_top" xlink:title="EW: As LikelihoodFit is an abstract base class we have to do some gymnastics to get it to get it into...">
<polygon fill="white" stroke="black" points="228,-104.5 228,-123.5 311,-123.5 311,-104.5 228,-104.5"/>
<text text-anchor="middle" x="269.5" y="-111.5" font-family="Helvetica" font-size="10.00">PyLikelihoodFit</text>
</a>
</g>
</g>
<!-- Node1&#45;&gt;Node4 -->
<g id="edge4" class="edge">
<title>Node1&#45;&gt;Node4</title>
<path fill="none" stroke="midnightblue" d="M191.01,-126.02C202.98,-124.16 215.83,-122.17 227.57,-120.35"/>
<polygon fill="midnightblue" stroke="midnightblue" points="190.12,-122.61 180.78,-127.61 191.19,-129.53 190.12,-122.61"/>
</g>
<!-- Node6 -->
<g id="node7" class="node">
<title>Node6</title>
<g id="a_node7"><a xlink:href="classMR2T2.html" target="_top" xlink:title="MCMC algorithm implementing the Metropolis–Rosenbluth–Rosenbluth–Teller–Teller (MR T ) method.">
<polygon fill="white" stroke="black" points="245,-66.5 245,-85.5 294,-85.5 294,-66.5 245,-66.5"/>
<text text-anchor="middle" x="269.5" y="-73.5" font-family="Helvetica" font-size="10.00">MR2T2</text>
</a>
</g>
</g>
<!-- Node5&#45;&gt;Node6 -->
<g id="edge6" class="edge">
<title>Node5&#45;&gt;Node6</title>
<path fill="none" stroke="midnightblue" d="M190.96,-82.33C209.25,-80.84 229.62,-79.17 244.89,-77.93"/>
<polygon fill="midnightblue" stroke="midnightblue" points="190.46,-78.86 180.78,-83.16 191.03,-85.84 190.46,-78.86"/>
</g>
<!-- Node7 -->
<g id="node8" class="node">
<title>Node7</title>
<g id="a_node8"><a xlink:href="classDelayedMR2T2.html" target="_top" xlink:title="Implementation of delayed rejection for MR2T2.">
<polygon fill="white" stroke="black" points="347,-66.5 347,-85.5 431,-85.5 431,-66.5 347,-66.5"/>
<text text-anchor="middle" x="389" y="-73.5" font-family="Helvetica" font-size="10.00">DelayedMR2T2</text>
</a>
</g>
</g>
<!-- Node6&#45;&gt;Node7 -->
<g id="edge7" class="edge">
<title>Node6&#45;&gt;Node7</title>
<path fill="none" stroke="midnightblue" d="M304.36,-76C317.56,-76 332.82,-76 346.66,-76"/>
<polygon fill="midnightblue" stroke="midnightblue" points="304.28,-72.5 294.28,-76 304.28,-79.5 304.28,-72.5"/>
</g>
</g>
</svg>
