<?xml version="1.0" encoding="UTF-8" standalone="no"?>
<!DOCTYPE svg PUBLIC "-//W3C//DTD SVG 1.1//EN"
 "http://www.w3.org/Graphics/SVG/1.1/DTD/svg11.dtd">
<!-- Generated by graphviz version 2.44.0 (0)
 -->
<!-- Title: Fitters/PSO.h Pages: 1 -->
<svg width="352pt" height="140pt"
 viewBox="0.00 0.00 352.00 140.00" xmlns="http://www.w3.org/2000/svg" xmlns:xlink="http://www.w3.org/1999/xlink">
<g id="graph0" class="graph" transform="scale(1 1) rotate(0) translate(4 136)">
<title>Fitters/PSO.h</title>
<polygon fill="white" stroke="transparent" points="-4,4 -4,-136 348,-136 348,4 -4,4"/>
<!-- Node1 -->
<g id="node1" class="node">
<title>Node1</title>
<g id="a_node1"><a xlink:title=" ">
<polygon fill="#bfbfbf" stroke="black" points="150,-112.5 150,-131.5 227,-131.5 227,-112.5 150,-112.5"/>
<text text-anchor="middle" x="188.5" y="-119.5" font-family="Helvetica" font-size="10.00">Fitters/PSO.h</text>
</a>
</g>
</g>
<!-- Node2 -->
<g id="node2" class="node">
<title>Node2</title>
<g id="a_node2"><a xlink:href="MaCh3Factory_8h.html" target="_top" xlink:title="Factory methods for MaCh3 software which streamline initialisation of different objects.">
<polygon fill="white" stroke="black" points="5,-56.5 5,-75.5 126,-75.5 126,-56.5 5,-56.5"/>
<text text-anchor="middle" x="65.5" y="-63.5" font-family="Helvetica" font-size="10.00">Fitters/MaCh3Factory.h</text>
</a>
</g>
</g>
<!-- Node1&#45;&gt;Node2 -->
<g id="edge1" class="edge">
<title>Node1&#45;&gt;Node2</title>
<path fill="none" stroke="midnightblue" d="M159.73,-108.37C136.69,-98.26 105.02,-84.35 84.9,-75.52"/>
<polygon fill="midnightblue" stroke="midnightblue" points="158.45,-111.63 169.01,-112.44 161.26,-105.22 158.45,-111.63"/>
</g>
<!-- Node4 -->
<g id="node4" class="node">
<title>Node4</title>
<g id="a_node4"><a xlink:href="PSO_8cpp.html" target="_top" xlink:title=" ">
<polygon fill="white" stroke="black" points="144.5,-56.5 144.5,-75.5 232.5,-75.5 232.5,-56.5 144.5,-56.5"/>
<text text-anchor="middle" x="188.5" y="-63.5" font-family="Helvetica" font-size="10.00">Fitters/PSO.cpp</text>
</a>
</g>
</g>
<!-- Node1&#45;&gt;Node4 -->
<g id="edge3" class="edge">
<title>Node1&#45;&gt;Node4</title>
<path fill="none" stroke="midnightblue" d="M188.5,-101.8C188.5,-92.91 188.5,-82.78 188.5,-75.75"/>
<polygon fill="midnightblue" stroke="midnightblue" points="185,-102.08 188.5,-112.08 192,-102.08 185,-102.08"/>
</g>
<!-- Node5 -->
<g id="node5" class="node">
<title>Node5</title>
<g id="a_node5"><a xlink:href="fitters_8cpp.html" target="_top" xlink:title=" ">
<polygon fill="white" stroke="black" points="251,-56.5 251,-75.5 344,-75.5 344,-56.5 251,-56.5"/>
<text text-anchor="middle" x="297.5" y="-63.5" font-family="Helvetica" font-size="10.00">python/fitters.cpp</text>
</a>
</g>
</g>
<!-- Node1&#45;&gt;Node5 -->
<g id="edge4" class="edge">
<title>Node1&#45;&gt;Node5</title>
<path fill="none" stroke="midnightblue" d="M215.02,-107.86C235.23,-97.85 262.49,-84.35 280.03,-75.65"/>
<polygon fill="midnightblue" stroke="midnightblue" points="213.42,-104.75 206.01,-112.32 216.53,-111.02 213.42,-104.75"/>
</g>
<!-- Node3 -->
<g id="node3" class="node">
<title>Node3</title>
<g id="a_node3"><a xlink:href="MaCh3Factory_8cpp.html" target="_top" xlink:title=" ">
<polygon fill="white" stroke="black" points="0,-0.5 0,-19.5 131,-19.5 131,-0.5 0,-0.5"/>
<text text-anchor="middle" x="65.5" y="-7.5" font-family="Helvetica" font-size="10.00">Fitters/MaCh3Factory.cpp</text>
</a>
</g>
</g>
<!-- Node2&#45;&gt;Node3 -->
<g id="edge2" class="edge">
<title>Node2&#45;&gt;Node3</title>
<path fill="none" stroke="midnightblue" d="M65.5,-45.8C65.5,-36.91 65.5,-26.78 65.5,-19.75"/>
<polygon fill="midnightblue" stroke="midnightblue" points="62,-46.08 65.5,-56.08 69,-46.08 62,-46.08"/>
</g>
</g>
</svg>
