<?xml version="1.0" encoding="UTF-8" standalone="no"?>
<!DOCTYPE svg PUBLIC "-//W3C//DTD SVG 1.1//EN"
 "http://www.w3.org/Graphics/SVG/1.1/DTD/svg11.dtd">
<!-- Generated by graphviz version 2.44.0 (0)
 -->
<!-- Title: FitterBase Pages: 1 -->
<svg width="586pt" height="242pt"
 viewBox="0.00 0.00 586.00 242.00" xmlns="http://www.w3.org/2000/svg" xmlns:xlink="http://www.w3.org/1999/xlink">
<g id="graph0" class="graph" transform="scale(1 1) rotate(0) translate(4 238)">
<title>FitterBase</title>
<polygon fill="white" stroke="transparent" points="-4,4 -4,-238 582,-238 582,4 -4,4"/>
<!-- Node1 -->
<g id="node1" class="node">
<title>Node1</title>
<g id="a_node1"><a xlink:title="Base class for implementing fitting algorithms.">
<polygon fill="#bfbfbf" stroke="black" points="516,-104.5 516,-123.5 578,-123.5 578,-104.5 516,-104.5"/>
<text text-anchor="middle" x="547" y="-111.5" font-family="Helvetica" font-size="10.00">FitterBase</text>
</a>
</g>
</g>
<!-- Node2 -->
<g id="node2" class="node">
<title>Node2</title>
<g id="a_node2"><a xlink:title=" ">
<polygon fill="white" stroke="#bfbfbf" points="274,-214.5 274,-233.5 425,-233.5 425,-214.5 274,-214.5"/>
<text text-anchor="middle" x="349.5" y="-221.5" font-family="Helvetica" font-size="10.00">std::unique_ptr&lt; TStopwatch &gt;</text>
</a>
</g>
</g>
<!-- Node2&#45;&gt;Node1 -->
<g id="edge1" class="edge">
<title>Node2&#45;&gt;Node1</title>
<path fill="none" stroke="#9a32cd" stroke-dasharray="5,2" d="M410.94,-211.83C439.41,-203.93 472.61,-191.38 498,-172 516.08,-158.2 531.76,-136.36 539.94,-123.79"/>
<polygon fill="#9a32cd" stroke="#9a32cd" points="409.86,-208.5 401.09,-214.44 411.65,-215.27 409.86,-208.5"/>
<text text-anchor="middle" x="470.5" y="-214" font-family="Helvetica" font-size="10.00"> clock</text>
<text text-anchor="middle" x="470.5" y="-203" font-family="Helvetica" font-size="10.00">stepClock</text>
</g>
<!-- Node3 -->
<g id="node3" class="node">
<title>Node3</title>
<g id="a_node3"><a xlink:title=" ">
<polygon fill="white" stroke="#bfbfbf" points="274.5,-165 274.5,-195 424.5,-195 424.5,-165 274.5,-165"/>
<text text-anchor="start" x="282.5" y="-183" font-family="Helvetica" font-size="10.00">std::vector&lt; ParameterHandler</text>
<text text-anchor="middle" x="349.5" y="-172" font-family="Helvetica" font-size="10.00">Base * &gt;</text>
</a>
</g>
</g>
<!-- Node3&#45;&gt;Node1 -->
<g id="edge2" class="edge">
<title>Node3&#45;&gt;Node1</title>
<path fill="none" stroke="#9a32cd" stroke-dasharray="5,2" d="M428.7,-162.4C451.41,-156.33 476.01,-148.8 498,-140 509.26,-135.49 521.26,-128.99 530.45,-123.62"/>
<polygon fill="#9a32cd" stroke="#9a32cd" points="427.55,-159.08 418.76,-165 429.32,-165.86 427.55,-159.08"/>
<text text-anchor="middle" x="470.5" y="-160" font-family="Helvetica" font-size="10.00"> systematics</text>
</g>
<!-- Node4 -->
<g id="node4" class="node">
<title>Node4</title>
<g id="a_node4"><a xlink:title=" ">
<polygon fill="white" stroke="#bfbfbf" points="276.5,-126.5 276.5,-145.5 422.5,-145.5 422.5,-126.5 276.5,-126.5"/>
<text text-anchor="middle" x="349.5" y="-133.5" font-family="Helvetica" font-size="10.00">std::unique_ptr&lt; TRandom3 &gt;</text>
</a>
</g>
</g>
<!-- Node4&#45;&gt;Node1 -->
<g id="edge3" class="edge">
<title>Node4&#45;&gt;Node1</title>
<path fill="none" stroke="#9a32cd" stroke-dasharray="5,2" d="M433.04,-126.71C462.44,-123.4 493.72,-119.88 515.89,-117.39"/>
<polygon fill="#9a32cd" stroke="#9a32cd" points="432.29,-123.27 422.74,-127.87 433.07,-130.23 432.29,-123.27"/>
<text text-anchor="middle" x="470.5" y="-128" font-family="Helvetica" font-size="10.00"> random</text>
</g>
<!-- Node5 -->
<g id="node5" class="node">
<title>Node5</title>
<g id="a_node5"><a xlink:title=" ">
<polygon fill="white" stroke="#bfbfbf" points="280.5,-77 280.5,-107 418.5,-107 418.5,-77 280.5,-77"/>
<text text-anchor="start" x="288.5" y="-95" font-family="Helvetica" font-size="10.00">std::vector&lt; SampleHandler</text>
<text text-anchor="middle" x="349.5" y="-84" font-family="Helvetica" font-size="10.00">Base * &gt;</text>
</a>
</g>
</g>
<!-- Node5&#45;&gt;Node1 -->
<g id="edge4" class="edge">
<title>Node5&#45;&gt;Node1</title>
<path fill="none" stroke="#9a32cd" stroke-dasharray="5,2" d="M428.77,-96.55C451.19,-98.34 475.62,-100.77 498,-104 503.81,-104.84 509.98,-105.95 515.89,-107.13"/>
<polygon fill="#9a32cd" stroke="#9a32cd" points="428.86,-93.05 418.62,-95.77 428.32,-100.02 428.86,-93.05"/>
<text text-anchor="middle" x="470.5" y="-107" font-family="Helvetica" font-size="10.00"> samples</text>
</g>
<!-- Node6 -->
<g id="node6" class="node">
<title>Node6</title>
<g id="a_node6"><a xlink:href="classmanager.html" target="_top" xlink:title="The manager class is responsible for managing configurations and settings.">
<polygon fill="white" stroke="black" points="322.5,-38.5 322.5,-57.5 376.5,-57.5 376.5,-38.5 322.5,-38.5"/>
<text text-anchor="middle" x="349.5" y="-45.5" font-family="Helvetica" font-size="10.00">manager</text>
</a>
</g>
</g>
<!-- Node6&#45;&gt;Node1 -->
<g id="edge5" class="edge">
<title>Node6&#45;&gt;Node1</title>
<path fill="none" stroke="#9a32cd" stroke-dasharray="5,2" d="M386.91,-52.65C417.48,-57.42 461.85,-66.4 498,-82 511.24,-87.71 524.77,-97.12 534.08,-104.26"/>
<polygon fill="#9a32cd" stroke="#9a32cd" points="387.11,-49.14 376.7,-51.13 386.08,-56.06 387.11,-49.14"/>
<text text-anchor="middle" x="470.5" y="-85" font-family="Helvetica" font-size="10.00"> fitMan</text>
</g>
<!-- Node7 -->
<g id="node7" class="node">
<title>Node7</title>
<g id="a_node7"><a xlink:title=" ">
<polygon fill="white" stroke="#bfbfbf" points="132,-38.5 132,-57.5 192,-57.5 192,-38.5 132,-38.5"/>
<text text-anchor="middle" x="162" y="-45.5" font-family="Helvetica" font-size="10.00">std::string</text>
</a>
</g>
</g>
<!-- Node7&#45;&gt;Node6 -->
<g id="edge6" class="edge">
<title>Node7&#45;&gt;Node6</title>
<path fill="none" stroke="#9a32cd" stroke-dasharray="5,2" d="M202.58,-48C238.69,-48 291.05,-48 322.24,-48"/>
<polygon fill="#9a32cd" stroke="#9a32cd" points="202.39,-44.5 192.39,-48 202.39,-51.5 202.39,-44.5"/>
<text text-anchor="middle" x="233" y="-51" font-family="Helvetica" font-size="10.00"> FileName</text>
</g>
<!-- Node8 -->
<g id="node8" class="node">
<title>Node8</title>
<g id="a_node8"><a xlink:title=" ">
<polygon fill="white" stroke="#bfbfbf" points="0,-33 0,-63 95,-63 95,-33 0,-33"/>
<text text-anchor="start" x="8" y="-51" font-family="Helvetica" font-size="10.00">std::basic_string&lt;</text>
<text text-anchor="middle" x="47.5" y="-40" font-family="Helvetica" font-size="10.00"> char &gt;</text>
</a>
</g>
</g>
<!-- Node8&#45;&gt;Node7 -->
<g id="edge7" class="edge">
<title>Node8&#45;&gt;Node7</title>
<path fill="none" stroke="midnightblue" d="M105.53,-48C114.68,-48 123.8,-48 131.93,-48"/>
<polygon fill="midnightblue" stroke="midnightblue" points="105.23,-44.5 95.23,-48 105.23,-51.5 105.23,-44.5"/>
</g>
<!-- Node9 -->
<g id="node9" class="node">
<title>Node9</title>
<g id="a_node9"><a xlink:title=" ">
<polygon fill="white" stroke="#bfbfbf" points="295,-0.5 295,-19.5 404,-19.5 404,-0.5 295,-0.5"/>
<text text-anchor="middle" x="349.5" y="-7.5" font-family="Helvetica" font-size="10.00">std::vector&lt; double &gt;</text>
</a>
</g>
</g>
<!-- Node9&#45;&gt;Node1 -->
<g id="edge8" class="edge">
<title>Node9&#45;&gt;Node1</title>
<path fill="none" stroke="#9a32cd" stroke-dasharray="5,2" d="M414.28,-10.93C442,-14.02 473.63,-21.41 498,-38 522.25,-54.51 536.77,-87.76 542.77,-104.26"/>
<polygon fill="#9a32cd" stroke="#9a32cd" points="414.55,-7.44 404.27,-9.98 413.89,-14.41 414.55,-7.44"/>
<text text-anchor="middle" x="470.5" y="-52" font-family="Helvetica" font-size="10.00"> sample_llh</text>
<text text-anchor="middle" x="470.5" y="-41" font-family="Helvetica" font-size="10.00">syst_llh</text>
</g>
</g>
</svg>
