<?xml version="1.0" encoding="UTF-8" standalone="no"?>
<!DOCTYPE svg PUBLIC "-//W3C//DTD SVG 1.1//EN"
 "http://www.w3.org/Graphics/SVG/1.1/DTD/svg11.dtd">
<!-- Generated by graphviz version 2.44.0 (0)
 -->
<!-- Title: /hosthome/v2.1.0/Fitters/MCMCProcessor.h Pages: 1 -->
<!--zoomable 374 -->
<svg id="main" version="1.1" xmlns="http://www.w3.org/2000/svg" xmlns:xlink="http://www.w3.org/1999/xlink" xml:space="preserve" onload="init(evt)">
<style type="text/css"><![CDATA[
.edge:hover path { stroke: red; }
.edge:hover polygon { stroke: red; fill: red; }
]]></style>
<script type="text/javascript"><![CDATA[
var edges = document.getElementsByTagName('g');
if (edges && edges.length) {
  for (var i=0;i<edges.length;i++) {
    if (edges[i].id.substr(0,4)=='edge') {
      edges[i].setAttribute('class','edge');
    }
  }
}
]]></script>
        <defs>
                <circle id="rim" cx="0" cy="0" r="7"/>
                <circle id="rim2" cx="0" cy="0" r="3.5"/>
                <g id="zoomPlus">
                        <use xlink:href="#rim" fill="#404040">
                                <set attributeName="fill" to="#808080" begin="zoomplus.mouseover" end="zoomplus.mouseout"/>
                        </use>
                        <path d="M-4,0h8M0,-4v8" fill="none" stroke="white" stroke-width="1.5" pointer-events="none"/>
                </g>
                <g id="zoomMin">
                        <use xlink:href="#rim" fill="#404040">
                                <set attributeName="fill" to="#808080" begin="zoomminus.mouseover" end="zoomminus.mouseout"/>
                        </use>
                        <path d="M-4,0h8" fill="none" stroke="white" stroke-width="1.5" pointer-events="none"/>
                </g>
                <g id="dirArrow">
                        <path fill="none" stroke="white" stroke-width="1.5" d="M0,-3.0v7 M-2.5,-0.5L0,-3.0L2.5,-0.5"/>
                </g>
               <g id="resetDef">
                       <use xlink:href="#rim2" fill="#404040">
                               <set attributeName="fill" to="#808080" begin="reset.mouseover" end="reset.mouseout"/>
                       </use>
               </g>
        </defs>

<script type="text/javascript">
var viewWidth = 1873;
var viewHeight = 374;
var sectionId = 'dynsection-1';
</script>
<script xlink:href="svgpan.js"/>
<svg id="graph" class="graph">
<g id="viewport">
<title>/hosthome/v2.1.0/Fitters/MCMCProcessor.h</title>
<polygon fill="white" stroke="transparent" points="-4,4 -4,-370 1868.5,-370 1868.5,4 -4,4"/>
<!-- Node1 -->
<g id="node1" class="node">
<title>Node1</title>
<g id="a_node1"><a xlink:title=" ">
<polygon fill="#bfbfbf" stroke="black" points="901,-335.5 901,-365.5 1025,-365.5 1025,-335.5 901,-335.5"/>
<text text-anchor="start" x="909" y="-353.5" font-family="Helvetica" font-size="10.00">/hosthome/v2.1.0/Fitters</text>
<text text-anchor="middle" x="963" y="-342.5" font-family="Helvetica" font-size="10.00">/MCMCProcessor.h</text>
</a>
</g>
</g>
<!-- Node2 -->
<g id="node2" class="node">
<title>Node2</title>
<g id="a_node2"><a xlink:href="FitterBase_8h.html" target="_top" xlink:title=" ">
<polygon fill="white" stroke="black" points="379,-268.5 379,-298.5 503,-298.5 503,-268.5 379,-268.5"/>
<text text-anchor="start" x="387" y="-286.5" font-family="Helvetica" font-size="10.00">/hosthome/v2.1.0/Fitters</text>
<text text-anchor="middle" x="441" y="-275.5" font-family="Helvetica" font-size="10.00">/FitterBase.h</text>
</a>
</g>
</g>
<!-- Node1&#45;&gt;Node2 -->
<g id="edge1" class="edge">
<title>Node1&#45;&gt;Node2</title>
<path fill="none" stroke="midnightblue" d="M890.48,-341.99C804.56,-332.88 657.13,-316.52 531,-299 522.06,-297.76 512.65,-296.35 503.4,-294.91"/>
<polygon fill="midnightblue" stroke="midnightblue" points="890.34,-345.5 900.65,-343.07 891.08,-338.54 890.34,-345.5"/>
</g>
<!-- Node15 -->
<g id="node15" class="node">
<title>Node15</title>
<g id="a_node15"><a xlink:href="MCMCProcessor_8cpp.html" target="_top" xlink:title=" ">
<polygon fill="white" stroke="black" points="540,-268.5 540,-298.5 664,-298.5 664,-268.5 540,-268.5"/>
<text text-anchor="start" x="548" y="-286.5" font-family="Helvetica" font-size="10.00">/hosthome/v2.1.0/Fitters</text>
<text text-anchor="middle" x="602" y="-275.5" font-family="Helvetica" font-size="10.00">/MCMCProcessor.cpp</text>
</a>
</g>
</g>
<!-- Node1&#45;&gt;Node15 -->
<g id="edge20" class="edge">
<title>Node1&#45;&gt;Node15</title>
<path fill="none" stroke="midnightblue" d="M891.04,-337.57C832.29,-327.68 747.17,-313.03 673,-299 670.16,-298.46 667.25,-297.9 664.32,-297.33"/>
<polygon fill="midnightblue" stroke="midnightblue" points="890.52,-341.03 900.96,-339.23 891.68,-334.12 890.52,-341.03"/>
</g>
<!-- Node16 -->
<g id="node16" class="node">
<title>Node16</title>
<g id="a_node16"><a xlink:href="OscProcessor_8h.html" target="_top" xlink:title=" ">
<polygon fill="white" stroke="black" points="682,-268.5 682,-298.5 806,-298.5 806,-268.5 682,-268.5"/>
<text text-anchor="start" x="690" y="-286.5" font-family="Helvetica" font-size="10.00">/hosthome/v2.1.0/Fitters</text>
<text text-anchor="middle" x="744" y="-275.5" font-family="Helvetica" font-size="10.00">/OscProcessor.h</text>
</a>
</g>
</g>
<!-- Node1&#45;&gt;Node16 -->
<g id="edge21" class="edge">
<title>Node1&#45;&gt;Node16</title>
<path fill="none" stroke="midnightblue" d="M905.99,-332.58C870.42,-322.02 825.17,-308.59 791.54,-298.61"/>
<polygon fill="midnightblue" stroke="midnightblue" points="905.17,-335.99 915.75,-335.48 907.16,-329.28 905.17,-335.99"/>
</g>
<!-- Node18 -->
<g id="node18" class="node">
<title>Node18</title>
<g id="a_node18"><a xlink:href="SampleSummary_8h.html" target="_top" xlink:title=" ">
<polygon fill="white" stroke="black" points="824,-268.5 824,-298.5 948,-298.5 948,-268.5 824,-268.5"/>
<text text-anchor="start" x="832" y="-286.5" font-family="Helvetica" font-size="10.00">/hosthome/v2.1.0/Fitters</text>
<text text-anchor="middle" x="886" y="-275.5" font-family="Helvetica" font-size="10.00">/SampleSummary.h</text>
</a>
</g>
</g>
<!-- Node1&#45;&gt;Node18 -->
<g id="edge23" class="edge">
<title>Node1&#45;&gt;Node18</title>
<path fill="none" stroke="midnightblue" d="M938.58,-328.88C926.88,-319.01 913.16,-307.43 902.68,-298.58"/>
<polygon fill="midnightblue" stroke="midnightblue" points="936.39,-331.62 946.29,-335.4 940.91,-326.27 936.39,-331.62"/>
</g>
<!-- Node20 -->
<g id="node20" class="node">
<title>Node20</title>
<g id="a_node20"><a xlink:href="DiagMCMC_8cpp.html" target="_top" xlink:title=" ">
<polygon fill="white" stroke="black" points="966.5,-268.5 966.5,-298.5 1113.5,-298.5 1113.5,-268.5 966.5,-268.5"/>
<text text-anchor="start" x="974.5" y="-286.5" font-family="Helvetica" font-size="10.00">/hosthome/v2.1.0/Diagnostics</text>
<text text-anchor="middle" x="1040" y="-275.5" font-family="Helvetica" font-size="10.00">/DiagMCMC.cpp</text>
</a>
</g>
</g>
<!-- Node1&#45;&gt;Node20 -->
<g id="edge25" class="edge">
<title>Node1&#45;&gt;Node20</title>
<path fill="none" stroke="midnightblue" d="M987.42,-328.88C999.12,-319.01 1012.84,-307.43 1023.32,-298.58"/>
<polygon fill="midnightblue" stroke="midnightblue" points="985.09,-326.27 979.71,-335.4 989.61,-331.62 985.09,-326.27"/>
</g>
<!-- Node21 -->
<g id="node21" class="node">
<title>Node21</title>
<g id="a_node21"><a xlink:href="PlotMCMCDiag_8cpp.html" target="_top" xlink:title="KS: This script is used to analyse output form DiagMCMC.">
<polygon fill="white" stroke="black" points="1131.5,-268.5 1131.5,-298.5 1278.5,-298.5 1278.5,-268.5 1131.5,-268.5"/>
<text text-anchor="start" x="1139.5" y="-286.5" font-family="Helvetica" font-size="10.00">/hosthome/v2.1.0/Diagnostics</text>
<text text-anchor="middle" x="1205" y="-275.5" font-family="Helvetica" font-size="10.00">/PlotMCMCDiag.cpp</text>
</a>
</g>
</g>
<!-- Node1&#45;&gt;Node21 -->
<g id="edge26" class="edge">
<title>Node1&#45;&gt;Node21</title>
<path fill="none" stroke="midnightblue" d="M1024.99,-332.85C1064.45,-322.25 1114.99,-308.68 1152.46,-298.61"/>
<polygon fill="midnightblue" stroke="midnightblue" points="1023.96,-329.5 1015.21,-335.48 1025.78,-336.26 1023.96,-329.5"/>
</g>
<!-- Node22 -->
<g id="node22" class="node">
<title>Node22</title>
<g id="a_node22"><a xlink:href="ProcessMCMC_8cpp.html" target="_top" xlink:title="Main exectable responsible for different types of MCMC processing like drawing posteriors,...">
<polygon fill="white" stroke="black" points="1296.5,-268.5 1296.5,-298.5 1443.5,-298.5 1443.5,-268.5 1296.5,-268.5"/>
<text text-anchor="start" x="1304.5" y="-286.5" font-family="Helvetica" font-size="10.00">/hosthome/v2.1.0/Diagnostics</text>
<text text-anchor="middle" x="1370" y="-275.5" font-family="Helvetica" font-size="10.00">/ProcessMCMC.cpp</text>
</a>
</g>
</g>
<!-- Node1&#45;&gt;Node22 -->
<g id="edge27" class="edge">
<title>Node1&#45;&gt;Node22</title>
<path fill="none" stroke="midnightblue" d="M1035.41,-338.6C1101.12,-328.62 1200.63,-313.27 1287,-299 1290.03,-298.5 1293.12,-297.98 1296.25,-297.46"/>
<polygon fill="midnightblue" stroke="midnightblue" points="1034.53,-335.2 1025.17,-340.16 1035.58,-342.12 1034.53,-335.2"/>
</g>
<!-- Node23 -->
<g id="node23" class="node">
<title>Node23</title>
<g id="a_node23"><a xlink:href="inputManager_8h.html" target="_top" xlink:title=" ">
<polygon fill="white" stroke="black" points="1461.5,-268.5 1461.5,-298.5 1602.5,-298.5 1602.5,-268.5 1461.5,-268.5"/>
<text text-anchor="start" x="1469.5" y="-286.5" font-family="Helvetica" font-size="10.00">/hosthome/v2.1.0/Plotting</text>
<text text-anchor="middle" x="1532" y="-275.5" font-family="Helvetica" font-size="10.00">/plottingUtils/inputManager.h</text>
</a>
</g>
</g>
<!-- Node1&#45;&gt;Node23 -->
<g id="edge28" class="edge">
<title>Node1&#45;&gt;Node23</title>
<path fill="none" stroke="midnightblue" d="M1035.47,-343.76C1131.12,-335.78 1304.64,-319.93 1452,-299 1455.07,-298.56 1458.21,-298.09 1461.38,-297.6"/>
<polygon fill="midnightblue" stroke="midnightblue" points="1035,-340.28 1025.33,-344.6 1035.58,-347.26 1035,-340.28"/>
</g>
<!-- Node3 -->
<g id="node3" class="node">
<title>Node3</title>
<g id="a_node3"><a xlink:href="FitterBase_8cpp.html" target="_top" xlink:title=" ">
<polygon fill="white" stroke="black" points="0,-201.5 0,-231.5 124,-231.5 124,-201.5 0,-201.5"/>
<text text-anchor="start" x="8" y="-219.5" font-family="Helvetica" font-size="10.00">/hosthome/v2.1.0/Fitters</text>
<text text-anchor="middle" x="62" y="-208.5" font-family="Helvetica" font-size="10.00">/FitterBase.cpp</text>
</a>
</g>
</g>
<!-- Node2&#45;&gt;Node3 -->
<g id="edge2" class="edge">
<title>Node2&#45;&gt;Node3</title>
<path fill="none" stroke="midnightblue" d="M368.85,-270.96C307.41,-261.02 216.82,-246.09 138,-232 133.5,-231.2 128.86,-230.35 124.19,-229.49"/>
<polygon fill="midnightblue" stroke="midnightblue" points="368.4,-274.43 378.83,-272.57 369.52,-267.52 368.4,-274.43"/>
</g>
<!-- Node4 -->
<g id="node4" class="node">
<title>Node4</title>
<g id="a_node4"><a xlink:href="LikelihoodFit_8h.html" target="_top" xlink:title=" ">
<polygon fill="white" stroke="black" points="360,-201.5 360,-231.5 484,-231.5 484,-201.5 360,-201.5"/>
<text text-anchor="start" x="368" y="-219.5" font-family="Helvetica" font-size="10.00">/hosthome/v2.1.0/Fitters</text>
<text text-anchor="middle" x="422" y="-208.5" font-family="Helvetica" font-size="10.00">/LikelihoodFit.h</text>
</a>
</g>
</g>
<!-- Node2&#45;&gt;Node4 -->
<g id="edge3" class="edge">
<title>Node2&#45;&gt;Node4</title>
<path fill="none" stroke="midnightblue" d="M434.04,-258.7C431.38,-249.59 428.43,-239.49 426.11,-231.58"/>
<polygon fill="midnightblue" stroke="midnightblue" points="430.71,-259.78 436.88,-268.4 437.43,-257.82 430.71,-259.78"/>
</g>
<!-- Node6 -->
<g id="node6" class="node">
<title>Node6</title>
<g id="a_node6"><a xlink:href="MaCh3Factory_8h.html" target="_top" xlink:title="Factory methods for MaCh3 software which streamline initialisation of different objects.">
<polygon fill="white" stroke="black" points="218,-67.5 218,-97.5 342,-97.5 342,-67.5 218,-67.5"/>
<text text-anchor="start" x="226" y="-85.5" font-family="Helvetica" font-size="10.00">/hosthome/v2.1.0/Fitters</text>
<text text-anchor="middle" x="280" y="-74.5" font-family="Helvetica" font-size="10.00">/MaCh3Factory.h</text>
</a>
</g>
</g>
<!-- Node2&#45;&gt;Node6 -->
<g id="edge14" class="edge">
<title>Node2&#45;&gt;Node6</title>
<path fill="none" stroke="midnightblue" d="M368.9,-273.12C304.76,-260.53 214.56,-231.46 171,-165 163.45,-153.48 163.58,-145.61 171,-134 182.12,-116.6 200.93,-105.11 219.84,-97.55"/>
<polygon fill="midnightblue" stroke="midnightblue" points="368.49,-276.6 378.96,-275 369.78,-269.72 368.49,-276.6"/>
</g>
<!-- Node10 -->
<g id="node10" class="node">
<title>Node10</title>
<g id="a_node10"><a xlink:href="fitters_8cpp.html" target="_top" xlink:title=" ">
<polygon fill="white" stroke="black" points="644.5,-67.5 644.5,-97.5 769.5,-97.5 769.5,-67.5 644.5,-67.5"/>
<text text-anchor="start" x="652.5" y="-85.5" font-family="Helvetica" font-size="10.00">/hosthome/v2.1.0/python</text>
<text text-anchor="middle" x="707" y="-74.5" font-family="Helvetica" font-size="10.00">/fitters.cpp</text>
</a>
</g>
</g>
<!-- Node2&#45;&gt;Node10 -->
<g id="edge19" class="edge">
<title>Node2&#45;&gt;Node10</title>
<path fill="none" stroke="midnightblue" d="M479.14,-263.82C519.96,-242.86 585.51,-206.33 635,-165 659.78,-144.3 683.58,-114.89 696.65,-97.64"/>
<polygon fill="midnightblue" stroke="midnightblue" points="477.4,-260.78 470.08,-268.43 480.58,-267.02 477.4,-260.78"/>
</g>
<!-- Node13 -->
<g id="node13" class="node">
<title>Node13</title>
<g id="a_node13"><a xlink:href="mcmc_8h.html" target="_top" xlink:title=" ">
<polygon fill="white" stroke="black" points="502,-134.5 502,-164.5 626,-164.5 626,-134.5 502,-134.5"/>
<text text-anchor="start" x="510" y="-152.5" font-family="Helvetica" font-size="10.00">/hosthome/v2.1.0/Fitters</text>
<text text-anchor="middle" x="564" y="-141.5" font-family="Helvetica" font-size="10.00">/mcmc.h</text>
</a>
</g>
</g>
<!-- Node2&#45;&gt;Node13 -->
<g id="edge15" class="edge">
<title>Node2&#45;&gt;Node13</title>
<path fill="none" stroke="midnightblue" d="M463.72,-261.23C472.97,-252.36 483.67,-241.85 493,-232 514.68,-209.11 538.48,-181.17 552.28,-164.66"/>
<polygon fill="midnightblue" stroke="midnightblue" points="461.18,-258.81 456.35,-268.24 466.01,-263.88 461.18,-258.81"/>
</g>
<!-- Node5 -->
<g id="node5" class="node">
<title>Node5</title>
<g id="a_node5"><a xlink:href="LikelihoodFit_8cpp.html" target="_top" xlink:title=" ">
<polygon fill="white" stroke="black" points="180,-134.5 180,-164.5 304,-164.5 304,-134.5 180,-134.5"/>
<text text-anchor="start" x="188" y="-152.5" font-family="Helvetica" font-size="10.00">/hosthome/v2.1.0/Fitters</text>
<text text-anchor="middle" x="242" y="-141.5" font-family="Helvetica" font-size="10.00">/LikelihoodFit.cpp</text>
</a>
</g>
</g>
<!-- Node4&#45;&gt;Node5 -->
<g id="edge4" class="edge">
<title>Node4&#45;&gt;Node5</title>
<path fill="none" stroke="midnightblue" d="M373.41,-197.96C344.42,-187.48 308.09,-174.37 280.98,-164.58"/>
<polygon fill="midnightblue" stroke="midnightblue" points="372.35,-201.29 382.94,-201.4 374.73,-194.71 372.35,-201.29"/>
</g>
<!-- Node4&#45;&gt;Node6 -->
<g id="edge5" class="edge">
<title>Node4&#45;&gt;Node6</title>
<path fill="none" stroke="midnightblue" d="M390.7,-195.59C377.87,-186.84 363.2,-176.06 351,-165 327.36,-143.58 303.81,-114.67 290.65,-97.66"/>
<polygon fill="midnightblue" stroke="midnightblue" points="388.97,-198.65 399.23,-201.3 392.86,-192.83 388.97,-198.65"/>
</g>
<!-- Node8 -->
<g id="node8" class="node">
<title>Node8</title>
<g id="a_node8"><a xlink:href="MinuitFit_8h.html" target="_top" xlink:title=" ">
<polygon fill="white" stroke="black" points="682,-134.5 682,-164.5 806,-164.5 806,-134.5 682,-134.5"/>
<text text-anchor="start" x="690" y="-152.5" font-family="Helvetica" font-size="10.00">/hosthome/v2.1.0/Fitters</text>
<text text-anchor="middle" x="744" y="-141.5" font-family="Helvetica" font-size="10.00">/MinuitFit.h</text>
</a>
</g>
</g>
<!-- Node4&#45;&gt;Node8 -->
<g id="edge7" class="edge">
<title>Node4&#45;&gt;Node8</title>
<path fill="none" stroke="midnightblue" d="M494.01,-200.96C550.43,-189.58 628.1,-173.9 681.83,-163.05"/>
<polygon fill="midnightblue" stroke="midnightblue" points="493.19,-197.56 484.08,-202.97 494.58,-204.42 493.19,-197.56"/>
</g>
<!-- Node11 -->
<g id="node11" class="node">
<title>Node11</title>
<g id="a_node11"><a xlink:href="PSO_8h.html" target="_top" xlink:title=" ">
<polygon fill="white" stroke="black" points="360,-134.5 360,-164.5 484,-164.5 484,-134.5 360,-134.5"/>
<text text-anchor="start" x="368" y="-152.5" font-family="Helvetica" font-size="10.00">/hosthome/v2.1.0/Fitters</text>
<text text-anchor="middle" x="422" y="-141.5" font-family="Helvetica" font-size="10.00">/PSO.h</text>
</a>
</g>
</g>
<!-- Node4&#45;&gt;Node11 -->
<g id="edge10" class="edge">
<title>Node4&#45;&gt;Node11</title>
<path fill="none" stroke="midnightblue" d="M422,-191.11C422,-182.15 422,-172.32 422,-164.58"/>
<polygon fill="midnightblue" stroke="midnightblue" points="418.5,-191.4 422,-201.4 425.5,-191.4 418.5,-191.4"/>
</g>
<!-- Node7 -->
<g id="node7" class="node">
<title>Node7</title>
<g id="a_node7"><a xlink:href="MaCh3Factory_8cpp.html" target="_top" xlink:title=" ">
<polygon fill="white" stroke="black" points="218,-0.5 218,-30.5 342,-30.5 342,-0.5 218,-0.5"/>
<text text-anchor="start" x="226" y="-18.5" font-family="Helvetica" font-size="10.00">/hosthome/v2.1.0/Fitters</text>
<text text-anchor="middle" x="280" y="-7.5" font-family="Helvetica" font-size="10.00">/MaCh3Factory.cpp</text>
</a>
</g>
</g>
<!-- Node6&#45;&gt;Node7 -->
<g id="edge6" class="edge">
<title>Node6&#45;&gt;Node7</title>
<path fill="none" stroke="midnightblue" d="M280,-57.11C280,-48.15 280,-38.32 280,-30.58"/>
<polygon fill="midnightblue" stroke="midnightblue" points="276.5,-57.4 280,-67.4 283.5,-57.4 276.5,-57.4"/>
</g>
<!-- Node9 -->
<g id="node9" class="node">
<title>Node9</title>
<g id="a_node9"><a xlink:href="MinuitFit_8cpp.html" target="_top" xlink:title=" ">
<polygon fill="white" stroke="black" points="788,-67.5 788,-97.5 912,-97.5 912,-67.5 788,-67.5"/>
<text text-anchor="start" x="796" y="-85.5" font-family="Helvetica" font-size="10.00">/hosthome/v2.1.0/Fitters</text>
<text text-anchor="middle" x="850" y="-74.5" font-family="Helvetica" font-size="10.00">/MinuitFit.cpp</text>
</a>
</g>
</g>
<!-- Node8&#45;&gt;Node9 -->
<g id="edge8" class="edge">
<title>Node8&#45;&gt;Node9</title>
<path fill="none" stroke="midnightblue" d="M775.78,-129.02C792.27,-118.9 812.05,-106.77 827.04,-97.58"/>
<polygon fill="midnightblue" stroke="midnightblue" points="773.7,-126.18 767,-134.4 777.35,-132.15 773.7,-126.18"/>
</g>
<!-- Node8&#45;&gt;Node10 -->
<g id="edge9" class="edge">
<title>Node8&#45;&gt;Node10</title>
<path fill="none" stroke="midnightblue" d="M730.95,-125.58C725.64,-116.24 719.66,-105.75 715.01,-97.58"/>
<polygon fill="midnightblue" stroke="midnightblue" points="727.98,-127.44 735.97,-134.4 734.07,-123.97 727.98,-127.44"/>
</g>
<!-- Node11&#45;&gt;Node6 -->
<g id="edge11" class="edge">
<title>Node11&#45;&gt;Node6</title>
<path fill="none" stroke="midnightblue" d="M381.87,-130.13C359.31,-119.8 331.58,-107.11 310.75,-97.58"/>
<polygon fill="midnightblue" stroke="midnightblue" points="380.64,-133.42 391.19,-134.4 383.55,-127.05 380.64,-133.42"/>
</g>
<!-- Node11&#45;&gt;Node10 -->
<g id="edge13" class="edge">
<title>Node11&#45;&gt;Node10</title>
<path fill="none" stroke="midnightblue" d="M493.53,-132.19C540.21,-121.54 600.52,-107.78 645.13,-97.61"/>
<polygon fill="midnightblue" stroke="midnightblue" points="492.46,-128.84 483.49,-134.48 494.02,-135.66 492.46,-128.84"/>
</g>
<!-- Node12 -->
<g id="node12" class="node">
<title>Node12</title>
<g id="a_node12"><a xlink:href="PSO_8cpp.html" target="_top" xlink:title=" ">
<polygon fill="white" stroke="black" points="360,-67.5 360,-97.5 484,-97.5 484,-67.5 360,-67.5"/>
<text text-anchor="start" x="368" y="-85.5" font-family="Helvetica" font-size="10.00">/hosthome/v2.1.0/Fitters</text>
<text text-anchor="middle" x="422" y="-74.5" font-family="Helvetica" font-size="10.00">/PSO.cpp</text>
</a>
</g>
</g>
<!-- Node11&#45;&gt;Node12 -->
<g id="edge12" class="edge">
<title>Node11&#45;&gt;Node12</title>
<path fill="none" stroke="midnightblue" d="M422,-124.11C422,-115.15 422,-105.32 422,-97.58"/>
<polygon fill="midnightblue" stroke="midnightblue" points="418.5,-124.4 422,-134.4 425.5,-124.4 418.5,-124.4"/>
</g>
<!-- Node13&#45;&gt;Node6 -->
<g id="edge16" class="edge">
<title>Node13&#45;&gt;Node6</title>
<path fill="none" stroke="midnightblue" d="M492.72,-132.19C446.21,-121.54 386.1,-107.78 341.65,-97.61"/>
<polygon fill="midnightblue" stroke="midnightblue" points="492.2,-135.66 502.73,-134.48 493.76,-128.83 492.2,-135.66"/>
</g>
<!-- Node13&#45;&gt;Node10 -->
<g id="edge18" class="edge">
<title>Node13&#45;&gt;Node10</title>
<path fill="none" stroke="midnightblue" d="M604.41,-130.13C627.13,-119.8 655.06,-107.11 676.03,-97.58"/>
<polygon fill="midnightblue" stroke="midnightblue" points="602.68,-127.07 595.03,-134.4 605.58,-133.44 602.68,-127.07"/>
</g>
<!-- Node14 -->
<g id="node14" class="node">
<title>Node14</title>
<g id="a_node14"><a xlink:href="mcmc_8cpp.html" target="_top" xlink:title=" ">
<polygon fill="white" stroke="black" points="502,-67.5 502,-97.5 626,-97.5 626,-67.5 502,-67.5"/>
<text text-anchor="start" x="510" y="-85.5" font-family="Helvetica" font-size="10.00">/hosthome/v2.1.0/Fitters</text>
<text text-anchor="middle" x="564" y="-74.5" font-family="Helvetica" font-size="10.00">/mcmc.cpp</text>
</a>
</g>
</g>
<!-- Node13&#45;&gt;Node14 -->
<g id="edge17" class="edge">
<title>Node13&#45;&gt;Node14</title>
<path fill="none" stroke="midnightblue" d="M564,-124.11C564,-115.15 564,-105.32 564,-97.58"/>
<polygon fill="midnightblue" stroke="midnightblue" points="560.5,-124.4 564,-134.4 567.5,-124.4 560.5,-124.4"/>
</g>
<!-- Node17 -->
<g id="node17" class="node">
<title>Node17</title>
<g id="a_node17"><a xlink:href="OscProcessor_8cpp.html" target="_top" xlink:title=" ">
<polygon fill="white" stroke="black" points="682,-201.5 682,-231.5 806,-231.5 806,-201.5 682,-201.5"/>
<text text-anchor="start" x="690" y="-219.5" font-family="Helvetica" font-size="10.00">/hosthome/v2.1.0/Fitters</text>
<text text-anchor="middle" x="744" y="-208.5" font-family="Helvetica" font-size="10.00">/OscProcessor.cpp</text>
</a>
</g>
</g>
<!-- Node16&#45;&gt;Node17 -->
<g id="edge22" class="edge">
<title>Node16&#45;&gt;Node17</title>
<path fill="none" stroke="midnightblue" d="M744,-258.11C744,-249.15 744,-239.32 744,-231.58"/>
<polygon fill="midnightblue" stroke="midnightblue" points="740.5,-258.4 744,-268.4 747.5,-258.4 740.5,-258.4"/>
</g>
<!-- Node19 -->
<g id="node19" class="node">
<title>Node19</title>
<g id="a_node19"><a xlink:href="SampleSummary_8cpp.html" target="_top" xlink:title=" ">
<polygon fill="white" stroke="black" points="824,-201.5 824,-231.5 948,-231.5 948,-201.5 824,-201.5"/>
<text text-anchor="start" x="832" y="-219.5" font-family="Helvetica" font-size="10.00">/hosthome/v2.1.0/Fitters</text>
<text text-anchor="middle" x="886" y="-208.5" font-family="Helvetica" font-size="10.00">/SampleSummary.cpp</text>
</a>
</g>
</g>
<!-- Node18&#45;&gt;Node19 -->
<g id="edge24" class="edge">
<title>Node18&#45;&gt;Node19</title>
<path fill="none" stroke="midnightblue" d="M886,-258.11C886,-249.15 886,-239.32 886,-231.58"/>
<polygon fill="midnightblue" stroke="midnightblue" points="882.5,-258.4 886,-268.4 889.5,-258.4 882.5,-258.4"/>
</g>
<!-- Node24 -->
<g id="node24" class="node">
<title>Node24</title>
<g id="a_node24"><a xlink:href="inputManager_8cpp.html" target="_top" xlink:title=" ">
<polygon fill="white" stroke="black" points="1286,-201.5 1286,-231.5 1438,-231.5 1438,-201.5 1286,-201.5"/>
<text text-anchor="start" x="1294" y="-219.5" font-family="Helvetica" font-size="10.00">/hosthome/v2.1.0/Plotting</text>
<text text-anchor="middle" x="1362" y="-208.5" font-family="Helvetica" font-size="10.00">/plottingUtils/inputManager.cpp</text>
</a>
</g>
</g>
<!-- Node23&#45;&gt;Node24 -->
<g id="edge29" class="edge">
<title>Node23&#45;&gt;Node24</title>
<path fill="none" stroke="midnightblue" d="M1485.76,-264.82C1458.43,-254.37 1424.31,-241.32 1398.82,-231.58"/>
<polygon fill="midnightblue" stroke="midnightblue" points="1484.52,-268.09 1495.11,-268.4 1487.02,-261.56 1484.52,-268.09"/>
</g>
<!-- Node25 -->
<g id="node25" class="node">
<title>Node25</title>
<g id="a_node25"><a xlink:href="plottingManager_8h.html" target="_top" xlink:title=" ">
<polygon fill="white" stroke="black" points="1456,-201.5 1456,-231.5 1608,-231.5 1608,-201.5 1456,-201.5"/>
<text text-anchor="start" x="1464" y="-219.5" font-family="Helvetica" font-size="10.00">/hosthome/v2.1.0/Plotting</text>
<text text-anchor="middle" x="1532" y="-208.5" font-family="Helvetica" font-size="10.00">/plottingUtils/plottingManager.h</text>
</a>
</g>
</g>
<!-- Node23&#45;&gt;Node25 -->
<g id="edge30" class="edge">
<title>Node23&#45;&gt;Node25</title>
<path fill="none" stroke="midnightblue" d="M1532,-258.11C1532,-249.15 1532,-239.32 1532,-231.58"/>
<polygon fill="midnightblue" stroke="midnightblue" points="1528.5,-258.4 1532,-268.4 1535.5,-258.4 1528.5,-258.4"/>
</g>
<!-- Node30 -->
<g id="node30" class="node">
<title>Node30</title>
<g id="a_node30"><a xlink:href="plotting_8cpp.html" target="_top" xlink:title=" ">
<polygon fill="white" stroke="black" points="1739.5,-134.5 1739.5,-164.5 1864.5,-164.5 1864.5,-134.5 1739.5,-134.5"/>
<text text-anchor="start" x="1747.5" y="-152.5" font-family="Helvetica" font-size="10.00">/hosthome/v2.1.0/python</text>
<text text-anchor="middle" x="1802" y="-141.5" font-family="Helvetica" font-size="10.00">/plotting.cpp</text>
</a>
</g>
</g>
<!-- Node23&#45;&gt;Node30 -->
<g id="edge36" class="edge">
<title>Node23&#45;&gt;Node30</title>
<path fill="none" stroke="midnightblue" d="M1569.64,-264.1C1624.22,-237.42 1724.16,-188.55 1773.25,-164.56"/>
<polygon fill="midnightblue" stroke="midnightblue" points="1568.09,-260.96 1560.64,-268.5 1571.16,-267.25 1568.09,-260.96"/>
</g>
<!-- Node26 -->
<g id="node26" class="node">
<title>Node26</title>
<g id="a_node26"><a xlink:href="GetPostfitParamPlots_8cpp.html" target="_top" xlink:title=" ">
<polygon fill="white" stroke="black" points="1115,-134.5 1115,-164.5 1249,-164.5 1249,-134.5 1115,-134.5"/>
<text text-anchor="start" x="1123" y="-152.5" font-family="Helvetica" font-size="10.00">/hosthome/v2.1.0/Plotting</text>
<text text-anchor="middle" x="1182" y="-141.5" font-family="Helvetica" font-size="10.00">/GetPostfitParamPlots.cpp</text>
</a>
</g>
</g>
<!-- Node25&#45;&gt;Node26 -->
<g id="edge31" class="edge">
<title>Node25&#45;&gt;Node26</title>
<path fill="none" stroke="midnightblue" d="M1445.92,-199.78C1391.93,-189.88 1320.88,-176.79 1258,-165 1255.1,-164.46 1252.13,-163.9 1249.13,-163.33"/>
<polygon fill="midnightblue" stroke="midnightblue" points="1445.33,-203.23 1455.79,-201.59 1446.59,-196.34 1445.33,-203.23"/>
</g>
<!-- Node27 -->
<g id="node27" class="node">
<title>Node27</title>
<g id="a_node27"><a xlink:href="MatrixPlotter_8cpp.html" target="_top" xlink:title=" ">
<polygon fill="white" stroke="black" points="1267,-134.5 1267,-164.5 1395,-164.5 1395,-134.5 1267,-134.5"/>
<text text-anchor="start" x="1275" y="-152.5" font-family="Helvetica" font-size="10.00">/hosthome/v2.1.0/Plotting</text>
<text text-anchor="middle" x="1331" y="-141.5" font-family="Helvetica" font-size="10.00">/MatrixPlotter.cpp</text>
</a>
</g>
</g>
<!-- Node25&#45;&gt;Node27 -->
<g id="edge32" class="edge">
<title>Node25&#45;&gt;Node27</title>
<path fill="none" stroke="midnightblue" d="M1478.59,-198.23C1446.07,-187.71 1405.06,-174.45 1374.53,-164.58"/>
<polygon fill="midnightblue" stroke="midnightblue" points="1477.79,-201.65 1488.39,-201.4 1479.95,-194.99 1477.79,-201.65"/>
</g>
<!-- Node28 -->
<g id="node28" class="node">
<title>Node28</title>
<g id="a_node28"><a xlink:href="PlotLLH_8cpp.html" target="_top" xlink:title=" ">
<polygon fill="white" stroke="black" points="1413,-134.5 1413,-164.5 1541,-164.5 1541,-134.5 1413,-134.5"/>
<text text-anchor="start" x="1421" y="-152.5" font-family="Helvetica" font-size="10.00">/hosthome/v2.1.0/Plotting</text>
<text text-anchor="middle" x="1477" y="-141.5" font-family="Helvetica" font-size="10.00">/PlotLLH.cpp</text>
</a>
</g>
</g>
<!-- Node25&#45;&gt;Node28 -->
<g id="edge33" class="edge">
<title>Node25&#45;&gt;Node28</title>
<path fill="none" stroke="midnightblue" d="M1513.58,-193.74C1505.45,-184.12 1496.11,-173.09 1488.91,-164.58"/>
<polygon fill="midnightblue" stroke="midnightblue" points="1510.93,-196.02 1520.07,-201.4 1516.28,-191.5 1510.93,-196.02"/>
</g>
<!-- Node29 -->
<g id="node29" class="node">
<title>Node29</title>
<g id="a_node29"><a xlink:href="plottingManager_8cpp.html" target="_top" xlink:title=" ">
<polygon fill="white" stroke="black" points="1559,-134.5 1559,-164.5 1721,-164.5 1721,-134.5 1559,-134.5"/>
<text text-anchor="start" x="1567" y="-152.5" font-family="Helvetica" font-size="10.00">/hosthome/v2.1.0/Plotting</text>
<text text-anchor="middle" x="1640" y="-141.5" font-family="Helvetica" font-size="10.00">/plottingUtils/plottingManager.cpp</text>
</a>
</g>
</g>
<!-- Node25&#45;&gt;Node29 -->
<g id="edge34" class="edge">
<title>Node25&#45;&gt;Node29</title>
<path fill="none" stroke="midnightblue" d="M1564.37,-196.02C1581.18,-185.9 1601.34,-173.77 1616.61,-164.58"/>
<polygon fill="midnightblue" stroke="midnightblue" points="1562.2,-193.24 1555.43,-201.4 1565.81,-199.24 1562.2,-193.24"/>
</g>
<!-- Node25&#45;&gt;Node30 -->
<g id="edge35" class="edge">
<title>Node25&#45;&gt;Node30</title>
<path fill="none" stroke="midnightblue" d="M1600.05,-199.12C1644.23,-188.48 1701.22,-174.76 1743.39,-164.61"/>
<polygon fill="midnightblue" stroke="midnightblue" points="1599.16,-195.73 1590.25,-201.48 1600.8,-202.54 1599.16,-195.73"/>
</g>
</g>
</svg>
        <g id="navigator" transform="translate(0 0)" fill="#404254">
                <rect fill="#f2f5e9" fill-opacity="0.5" stroke="#606060" stroke-width=".5" x="0" y="0" width="60" height="60"/>
                <use id="zoomplus" xlink:href="#zoomPlus" x="17" y="9" onmousedown="handleZoom(evt,'in')"/>
                <use id="zoomminus" xlink:href="#zoomMin" x="42" y="9" onmousedown="handleZoom(evt,'out')"/>
                <use id="reset" xlink:href="#resetDef" x="30" y="36" onmousedown="handleReset()"/>
                <g id="arrowUp" xlink:href="#dirArrow" transform="translate(30 24)" onmousedown="handlePan(0,-1)">
                  <use xlink:href="#rim" fill="#404040">
                        <set attributeName="fill" to="#808080" begin="arrowUp.mouseover" end="arrowUp.mouseout"/>
                  </use>
                  <path fill="none" stroke="white" stroke-width="1.5" d="M0,-3.0v7 M-2.5,-0.5L0,-3.0L2.5,-0.5"/>
                </g>
                <g id="arrowRight" xlink:href="#dirArrow" transform="rotate(90) translate(36 -43)" onmousedown="handlePan(1,0)">
                  <use xlink:href="#rim" fill="#404040">
                        <set attributeName="fill" to="#808080" begin="arrowRight.mouseover" end="arrowRight.mouseout"/>
                  </use>
                  <path fill="none" stroke="white" stroke-width="1.5" d="M0,-3.0v7 M-2.5,-0.5L0,-3.0L2.5,-0.5"/>
                </g>
                <g id="arrowDown" xlink:href="#dirArrow" transform="rotate(180) translate(-30 -48)" onmousedown="handlePan(0,1)">
                  <use xlink:href="#rim" fill="#404040">
                        <set attributeName="fill" to="#808080" begin="arrowDown.mouseover" end="arrowDown.mouseout"/>
                  </use>
                  <path fill="none" stroke="white" stroke-width="1.5" d="M0,-3.0v7 M-2.5,-0.5L0,-3.0L2.5,-0.5"/>
                </g>
                <g id="arrowLeft" xlink:href="#dirArrow" transform="rotate(270) translate(-36 17)" onmousedown="handlePan(-1,0)">
                  <use xlink:href="#rim" fill="#404040">
                        <set attributeName="fill" to="#808080" begin="arrowLeft.mouseover" end="arrowLeft.mouseout"/>
                  </use>
                  <path fill="none" stroke="white" stroke-width="1.5" d="M0,-3.0v7 M-2.5,-0.5L0,-3.0L2.5,-0.5"/>
                </g>
        </g>
        <svg viewBox="0 0 15 15" width="100%" height="30px" preserveAspectRatio="xMaxYMin meet">
         <g id="arrow_out" transform="scale(0.3 0.3)">
          <a xlink:href="MCMCProcessor_8h__dep__incl_org.svg" target="_base">
           <rect id="button" ry="5" rx="5" y="6" x="6" height="38" width="38"
                fill="#f2f5e9" fill-opacity="0.5" stroke="#606060" stroke-width="1.0"/>
           <path id="arrow"
             d="M 11.500037,31.436501 C 11.940474,20.09759 22.043105,11.32322 32.158766,21.979434 L 37.068811,17.246167 C 37.068811,17.246167 37.088388,32 37.088388,32 L 22.160133,31.978069 C 22.160133,31.978069 26.997745,27.140456 26.997745,27.140456 C 18.528582,18.264221 13.291696,25.230495 11.500037,31.436501 z"
             style="fill:#404040;"/>
          </a>
         </g>
        </svg>
</svg>
