<?xml version="1.0" encoding="UTF-8" standalone="no"?>
<!DOCTYPE svg PUBLIC "-//W3C//DTD SVG 1.1//EN"
 "http://www.w3.org/Graphics/SVG/1.1/DTD/svg11.dtd">
<!-- Generated by graphviz version 2.44.0 (0)
 -->
<!-- Title: /hosthome/MaCh3_2.1.0/Fitters/MCMCProcessor.h Pages: 1 -->
<svg width="1868pt" height="407pt"
 viewBox="0.00 0.00 1868.00 407.00" xmlns="http://www.w3.org/2000/svg" xmlns:xlink="http://www.w3.org/1999/xlink">
<g id="graph0" class="graph" transform="scale(1 1) rotate(0) translate(4 403)">
<title>/hosthome/MaCh3_2.1.0/Fitters/MCMCProcessor.h</title>
<polygon fill="white" stroke="transparent" points="-4,4 -4,-403 1864,-403 1864,4 -4,4"/>
<!-- Node1 -->
<g id="node1" class="node">
<title>Node1</title>
<g id="a_node1"><a xlink:title=" ">
<polygon fill="#bfbfbf" stroke="black" points="905.5,-368.5 905.5,-398.5 1040.5,-398.5 1040.5,-368.5 905.5,-368.5"/>
<text text-anchor="start" x="913.5" y="-386.5" font-family="Helvetica" font-size="10.00">/hosthome/MaCh3_2.1.0</text>
<text text-anchor="middle" x="973" y="-375.5" font-family="Helvetica" font-size="10.00">/Fitters/MCMCProcessor.h</text>
</a>
</g>
</g>
<!-- Node2 -->
<g id="node2" class="node">
<title>Node2</title>
<g id="a_node2"><a xlink:href="FitterBase_8h.html" target="_top" xlink:title=" ">
<polygon fill="white" stroke="black" points="370,-296 370,-326 494,-326 494,-296 370,-296"/>
<text text-anchor="start" x="378" y="-314" font-family="Helvetica" font-size="10.00">/hosthome/MaCh3_2.1.0</text>
<text text-anchor="middle" x="432" y="-303" font-family="Helvetica" font-size="10.00">/Fitters/FitterBase.h</text>
</a>
</g>
</g>
<!-- Node1&#45;&gt;Node2 -->
<g id="edge1" class="edge">
<title>Node1&#45;&gt;Node2</title>
<path fill="none" stroke="midnightblue" d="M895.13,-377.12C803.28,-370.04 646.24,-355.66 513,-332 503.73,-330.35 493.95,-328.25 484.51,-326.04"/>
<polygon fill="midnightblue" stroke="midnightblue" points="894.94,-380.62 905.18,-377.88 895.47,-373.64 894.94,-380.62"/>
</g>
<!-- Node15 -->
<g id="node15" class="node">
<title>Node15</title>
<g id="a_node15"><a xlink:href="MCMCProcessor_8cpp.html" target="_top" xlink:title=" ">
<polygon fill="white" stroke="black" points="522,-296 522,-326 668,-326 668,-296 522,-296"/>
<text text-anchor="start" x="530" y="-314" font-family="Helvetica" font-size="10.00">/hosthome/MaCh3_2.1.0</text>
<text text-anchor="middle" x="595" y="-303" font-family="Helvetica" font-size="10.00">/Fitters/MCMCProcessor.cpp</text>
</a>
</g>
</g>
<!-- Node1&#45;&gt;Node15 -->
<g id="edge20" class="edge">
<title>Node1&#45;&gt;Node15</title>
<path fill="none" stroke="midnightblue" d="M895.31,-370.77C835.44,-361.37 750.71,-347.26 677,-332 668.39,-330.22 659.31,-328.17 650.46,-326.09"/>
<polygon fill="midnightblue" stroke="midnightblue" points="895.02,-374.27 905.44,-372.36 896.1,-367.36 895.02,-374.27"/>
</g>
<!-- Node16 -->
<g id="node16" class="node">
<title>Node16</title>
<g id="a_node16"><a xlink:href="OscProcessor_8h.html" target="_top" xlink:title=" ">
<polygon fill="white" stroke="black" points="686,-296 686,-326 810,-326 810,-296 686,-296"/>
<text text-anchor="start" x="694" y="-314" font-family="Helvetica" font-size="10.00">/hosthome/MaCh3_2.1.0</text>
<text text-anchor="middle" x="748" y="-303" font-family="Helvetica" font-size="10.00">/Fitters/OscProcessor.h</text>
</a>
</g>
</g>
<!-- Node1&#45;&gt;Node16 -->
<g id="edge21" class="edge">
<title>Node1&#45;&gt;Node16</title>
<path fill="none" stroke="midnightblue" d="M918.29,-365.36C879.87,-353.32 829.1,-337.41 793.02,-326.11"/>
<polygon fill="midnightblue" stroke="midnightblue" points="917.69,-368.84 928.28,-368.49 919.78,-362.16 917.69,-368.84"/>
</g>
<!-- Node18 -->
<g id="node18" class="node">
<title>Node18</title>
<g id="a_node18"><a xlink:href="SampleSummary_8h.html" target="_top" xlink:title=" ">
<polygon fill="white" stroke="black" points="828,-296 828,-326 962,-326 962,-296 828,-296"/>
<text text-anchor="start" x="836" y="-314" font-family="Helvetica" font-size="10.00">/hosthome/MaCh3_2.1.0</text>
<text text-anchor="middle" x="895" y="-303" font-family="Helvetica" font-size="10.00">/Fitters/SampleSummary.h</text>
</a>
</g>
</g>
<!-- Node1&#45;&gt;Node18 -->
<g id="edge23" class="edge">
<title>Node1&#45;&gt;Node18</title>
<path fill="none" stroke="midnightblue" d="M949.73,-361.46C937.05,-350 921.7,-336.14 910.49,-326"/>
<polygon fill="midnightblue" stroke="midnightblue" points="947.45,-364.12 957.22,-368.23 952.14,-358.93 947.45,-364.12"/>
</g>
<!-- Node20 -->
<g id="node20" class="node">
<title>Node20</title>
<g id="a_node20"><a xlink:href="DiagMCMC_8cpp.html" target="_top" xlink:title=" ">
<polygon fill="white" stroke="black" points="980,-296 980,-326 1124,-326 1124,-296 980,-296"/>
<text text-anchor="start" x="988" y="-314" font-family="Helvetica" font-size="10.00">/hosthome/MaCh3_2.1.0</text>
<text text-anchor="middle" x="1052" y="-303" font-family="Helvetica" font-size="10.00">/Diagnostics/DiagMCMC.cpp</text>
</a>
</g>
</g>
<!-- Node1&#45;&gt;Node20 -->
<g id="edge25" class="edge">
<title>Node1&#45;&gt;Node20</title>
<path fill="none" stroke="midnightblue" d="M996.57,-361.46C1009.41,-350 1024.95,-336.14 1036.31,-326"/>
<polygon fill="midnightblue" stroke="midnightblue" points="994.12,-358.96 988.99,-368.23 998.78,-364.19 994.12,-358.96"/>
</g>
<!-- Node21 -->
<g id="node21" class="node">
<title>Node21</title>
<g id="a_node21"><a xlink:href="PlotMCMCDiag_8cpp.html" target="_top" xlink:title="KS: This script is used to analyse output form DiagMCMC.">
<polygon fill="white" stroke="black" points="1142.5,-296 1142.5,-326 1303.5,-326 1303.5,-296 1142.5,-296"/>
<text text-anchor="start" x="1150.5" y="-314" font-family="Helvetica" font-size="10.00">/hosthome/MaCh3_2.1.0</text>
<text text-anchor="middle" x="1223" y="-303" font-family="Helvetica" font-size="10.00">/Diagnostics/PlotMCMCDiag.cpp</text>
</a>
</g>
</g>
<!-- Node1&#45;&gt;Node21 -->
<g id="edge26" class="edge">
<title>Node1&#45;&gt;Node21</title>
<path fill="none" stroke="midnightblue" d="M1032.43,-365.74C1075.27,-353.66 1132.46,-337.53 1172.98,-326.11"/>
<polygon fill="midnightblue" stroke="midnightblue" points="1031.37,-362.4 1022.69,-368.49 1033.27,-369.14 1031.37,-362.4"/>
</g>
<!-- Node22 -->
<g id="node22" class="node">
<title>Node22</title>
<g id="a_node22"><a xlink:href="ProcessMCMC_8cpp.html" target="_top" xlink:title="Main exectable responsible for different types of MCMC processing like drawing posteriors,...">
<polygon fill="white" stroke="black" points="1322,-296 1322,-326 1482,-326 1482,-296 1322,-296"/>
<text text-anchor="start" x="1330" y="-314" font-family="Helvetica" font-size="10.00">/hosthome/MaCh3_2.1.0</text>
<text text-anchor="middle" x="1402" y="-303" font-family="Helvetica" font-size="10.00">/Diagnostics/ProcessMCMC.cpp</text>
</a>
</g>
</g>
<!-- Node1&#45;&gt;Node22 -->
<g id="edge27" class="edge">
<title>Node1&#45;&gt;Node22</title>
<path fill="none" stroke="midnightblue" d="M1051.1,-372.46C1119.98,-363.23 1222.96,-348.5 1312,-332 1321.6,-330.22 1331.74,-328.15 1341.61,-326.04"/>
<polygon fill="midnightblue" stroke="midnightblue" points="1050.22,-369.05 1040.77,-373.84 1051.14,-375.99 1050.22,-369.05"/>
</g>
<!-- Node23 -->
<g id="node23" class="node">
<title>Node23</title>
<g id="a_node23"><a xlink:href="inputManager_8h.html" target="_top" xlink:title=" ">
<polygon fill="white" stroke="black" points="1500,-290.5 1500,-331.5 1624,-331.5 1624,-290.5 1500,-290.5"/>
<text text-anchor="start" x="1508" y="-319.5" font-family="Helvetica" font-size="10.00">/hosthome/MaCh3_2.1.0</text>
<text text-anchor="start" x="1508" y="-308.5" font-family="Helvetica" font-size="10.00">/Plotting/plottingUtils</text>
<text text-anchor="middle" x="1562" y="-297.5" font-family="Helvetica" font-size="10.00">/inputManager.h</text>
</a>
</g>
</g>
<!-- Node1&#45;&gt;Node23 -->
<g id="edge28" class="edge">
<title>Node1&#45;&gt;Node23</title>
<path fill="none" stroke="midnightblue" d="M1050.79,-379.22C1152.66,-373.95 1336.47,-361.06 1491,-332 1493.89,-331.46 1496.84,-330.85 1499.81,-330.19"/>
<polygon fill="midnightblue" stroke="midnightblue" points="1050.4,-375.74 1040.59,-379.74 1050.76,-382.73 1050.4,-375.74"/>
</g>
<!-- Node3 -->
<g id="node3" class="node">
<title>Node3</title>
<g id="a_node3"><a xlink:href="FitterBase_8cpp.html" target="_top" xlink:title=" ">
<polygon fill="white" stroke="black" points="0,-218 0,-248 124,-248 124,-218 0,-218"/>
<text text-anchor="start" x="8" y="-236" font-family="Helvetica" font-size="10.00">/hosthome/MaCh3_2.1.0</text>
<text text-anchor="middle" x="62" y="-225" font-family="Helvetica" font-size="10.00">/Fitters/FitterBase.cpp</text>
</a>
</g>
</g>
<!-- Node2&#45;&gt;Node3 -->
<g id="edge2" class="edge">
<title>Node2&#45;&gt;Node3</title>
<path fill="none" stroke="midnightblue" d="M359.72,-297.67C300.03,-287.14 213.21,-271.04 138,-254 130.02,-252.19 121.6,-250.13 113.39,-248.04"/>
<polygon fill="midnightblue" stroke="midnightblue" points="359.34,-301.16 369.8,-299.44 360.55,-294.26 359.34,-301.16"/>
</g>
<!-- Node4 -->
<g id="node4" class="node">
<title>Node4</title>
<g id="a_node4"><a xlink:href="LikelihoodFit_8h.html" target="_top" xlink:title=" ">
<polygon fill="white" stroke="black" points="360,-218 360,-248 484,-248 484,-218 360,-218"/>
<text text-anchor="start" x="368" y="-236" font-family="Helvetica" font-size="10.00">/hosthome/MaCh3_2.1.0</text>
<text text-anchor="middle" x="422" y="-225" font-family="Helvetica" font-size="10.00">/Fitters/LikelihoodFit.h</text>
</a>
</g>
</g>
<!-- Node2&#45;&gt;Node4 -->
<g id="edge3" class="edge">
<title>Node2&#45;&gt;Node4</title>
<path fill="none" stroke="midnightblue" d="M428.79,-285.59C427.17,-273.26 425.25,-258.72 423.87,-248.23"/>
<polygon fill="midnightblue" stroke="midnightblue" points="425.34,-286.25 430.12,-295.7 432.28,-285.33 425.34,-286.25"/>
</g>
<!-- Node6 -->
<g id="node6" class="node">
<title>Node6</title>
<g id="a_node6"><a xlink:href="MaCh3Factory_8h.html" target="_top" xlink:title="Factory methods for MaCh3 software which streamline initialisation of different objects.">
<polygon fill="white" stroke="black" points="218,-67.5 218,-97.5 342,-97.5 342,-67.5 218,-67.5"/>
<text text-anchor="start" x="226" y="-85.5" font-family="Helvetica" font-size="10.00">/hosthome/MaCh3_2.1.0</text>
<text text-anchor="middle" x="280" y="-74.5" font-family="Helvetica" font-size="10.00">/Fitters/MaCh3Factory.h</text>
</a>
</g>
</g>
<!-- Node2&#45;&gt;Node6 -->
<g id="edge14" class="edge">
<title>Node2&#45;&gt;Node6</title>
<path fill="none" stroke="midnightblue" d="M360.2,-295.02C298.04,-277.84 211.89,-242.95 171,-176 161.27,-160.07 160.95,-149.73 171,-134 182.12,-116.6 200.93,-105.11 219.84,-97.55"/>
<polygon fill="midnightblue" stroke="midnightblue" points="359.39,-298.43 369.96,-297.63 361.2,-291.66 359.39,-298.43"/>
</g>
<!-- Node10 -->
<g id="node10" class="node">
<title>Node10</title>
<g id="a_node10"><a xlink:href="fitters_8cpp.html" target="_top" xlink:title=" ">
<polygon fill="white" stroke="black" points="644,-67.5 644,-97.5 768,-97.5 768,-67.5 644,-67.5"/>
<text text-anchor="start" x="652" y="-85.5" font-family="Helvetica" font-size="10.00">/hosthome/MaCh3_2.1.0</text>
<text text-anchor="middle" x="706" y="-74.5" font-family="Helvetica" font-size="10.00">/python/fitters.cpp</text>
</a>
</g>
</g>
<!-- Node2&#45;&gt;Node10 -->
<g id="edge19" class="edge">
<title>Node2&#45;&gt;Node10</title>
<path fill="none" stroke="midnightblue" d="M468.84,-291.05C511.83,-267.78 583.6,-225.28 635,-176 660.72,-151.34 684.63,-116.87 697.07,-97.73"/>
<polygon fill="midnightblue" stroke="midnightblue" points="467.02,-288.05 459.86,-295.86 470.32,-294.22 467.02,-288.05"/>
</g>
<!-- Node13 -->
<g id="node13" class="node">
<title>Node13</title>
<g id="a_node13"><a xlink:href="mcmc_8h.html" target="_top" xlink:title=" ">
<polygon fill="white" stroke="black" points="502,-140 502,-170 626,-170 626,-140 502,-140"/>
<text text-anchor="start" x="510" y="-158" font-family="Helvetica" font-size="10.00">/hosthome/MaCh3_2.1.0</text>
<text text-anchor="middle" x="564" y="-147" font-family="Helvetica" font-size="10.00">/Fitters/mcmc.h</text>
</a>
</g>
</g>
<!-- Node2&#45;&gt;Node13 -->
<g id="edge15" class="edge">
<title>Node2&#45;&gt;Node13</title>
<path fill="none" stroke="midnightblue" d="M456.77,-289.3C468.3,-279.16 481.89,-266.47 493,-254 517.73,-226.23 542.2,-190.01 554.95,-170.3"/>
<polygon fill="midnightblue" stroke="midnightblue" points="454.44,-286.68 449.17,-295.87 459.02,-291.98 454.44,-286.68"/>
</g>
<!-- Node5 -->
<g id="node5" class="node">
<title>Node5</title>
<g id="a_node5"><a xlink:href="LikelihoodFit_8cpp.html" target="_top" xlink:title=" ">
<polygon fill="white" stroke="black" points="180,-140 180,-170 304,-170 304,-140 180,-140"/>
<text text-anchor="start" x="188" y="-158" font-family="Helvetica" font-size="10.00">/hosthome/MaCh3_2.1.0</text>
<text text-anchor="middle" x="242" y="-147" font-family="Helvetica" font-size="10.00">/Fitters/LikelihoodFit.cpp</text>
</a>
</g>
</g>
<!-- Node4&#45;&gt;Node5 -->
<g id="edge4" class="edge">
<title>Node4&#45;&gt;Node5</title>
<path fill="none" stroke="midnightblue" d="M379.07,-213.87C347.25,-200.44 304.5,-182.39 275.26,-170.04"/>
<polygon fill="midnightblue" stroke="midnightblue" points="377.99,-217.22 388.57,-217.88 380.71,-210.77 377.99,-217.22"/>
</g>
<!-- Node4&#45;&gt;Node6 -->
<g id="edge5" class="edge">
<title>Node4&#45;&gt;Node6</title>
<path fill="none" stroke="midnightblue" d="M392.88,-211.62C379.48,-201.6 363.75,-188.92 351,-176 325.97,-150.64 301.8,-116.43 289.13,-97.52"/>
<polygon fill="midnightblue" stroke="midnightblue" points="391.17,-214.7 401.3,-217.79 395.31,-209.05 391.17,-214.7"/>
</g>
<!-- Node8 -->
<g id="node8" class="node">
<title>Node8</title>
<g id="a_node8"><a xlink:href="MinuitFit_8h.html" target="_top" xlink:title=" ">
<polygon fill="white" stroke="black" points="682,-140 682,-170 806,-170 806,-140 682,-140"/>
<text text-anchor="start" x="690" y="-158" font-family="Helvetica" font-size="10.00">/hosthome/MaCh3_2.1.0</text>
<text text-anchor="middle" x="744" y="-147" font-family="Helvetica" font-size="10.00">/Fitters/MinuitFit.h</text>
</a>
</g>
</g>
<!-- Node4&#45;&gt;Node8 -->
<g id="edge7" class="edge">
<title>Node4&#45;&gt;Node8</title>
<path fill="none" stroke="midnightblue" d="M491.19,-215.67C548.79,-202.07 629.95,-182.92 684.64,-170.01"/>
<polygon fill="midnightblue" stroke="midnightblue" points="490.36,-212.27 481.44,-217.97 491.97,-219.08 490.36,-212.27"/>
</g>
<!-- Node11 -->
<g id="node11" class="node">
<title>Node11</title>
<g id="a_node11"><a xlink:href="PSO_8h.html" target="_top" xlink:title=" ">
<polygon fill="white" stroke="black" points="360,-140 360,-170 484,-170 484,-140 360,-140"/>
<text text-anchor="start" x="368" y="-158" font-family="Helvetica" font-size="10.00">/hosthome/MaCh3_2.1.0</text>
<text text-anchor="middle" x="422" y="-147" font-family="Helvetica" font-size="10.00">/Fitters/PSO.h</text>
</a>
</g>
</g>
<!-- Node4&#45;&gt;Node11 -->
<g id="edge10" class="edge">
<title>Node4&#45;&gt;Node11</title>
<path fill="none" stroke="midnightblue" d="M422,-207.59C422,-195.26 422,-180.72 422,-170.23"/>
<polygon fill="midnightblue" stroke="midnightblue" points="418.5,-207.7 422,-217.7 425.5,-207.71 418.5,-207.7"/>
</g>
<!-- Node7 -->
<g id="node7" class="node">
<title>Node7</title>
<g id="a_node7"><a xlink:href="MaCh3Factory_8cpp.html" target="_top" xlink:title=" ">
<polygon fill="white" stroke="black" points="213,-0.5 213,-30.5 347,-30.5 347,-0.5 213,-0.5"/>
<text text-anchor="start" x="221" y="-18.5" font-family="Helvetica" font-size="10.00">/hosthome/MaCh3_2.1.0</text>
<text text-anchor="middle" x="280" y="-7.5" font-family="Helvetica" font-size="10.00">/Fitters/MaCh3Factory.cpp</text>
</a>
</g>
</g>
<!-- Node6&#45;&gt;Node7 -->
<g id="edge6" class="edge">
<title>Node6&#45;&gt;Node7</title>
<path fill="none" stroke="midnightblue" d="M280,-57.11C280,-48.15 280,-38.32 280,-30.58"/>
<polygon fill="midnightblue" stroke="midnightblue" points="276.5,-57.4 280,-67.4 283.5,-57.4 276.5,-57.4"/>
</g>
<!-- Node9 -->
<g id="node9" class="node">
<title>Node9</title>
<g id="a_node9"><a xlink:href="MinuitFit_8cpp.html" target="_top" xlink:title=" ">
<polygon fill="white" stroke="black" points="786,-67.5 786,-97.5 910,-97.5 910,-67.5 786,-67.5"/>
<text text-anchor="start" x="794" y="-85.5" font-family="Helvetica" font-size="10.00">/hosthome/MaCh3_2.1.0</text>
<text text-anchor="middle" x="848" y="-74.5" font-family="Helvetica" font-size="10.00">/Fitters/MinuitFit.cpp</text>
</a>
</g>
</g>
<!-- Node8&#45;&gt;Node9 -->
<g id="edge8" class="edge">
<title>Node8&#45;&gt;Node9</title>
<path fill="none" stroke="midnightblue" d="M773.61,-133.93C790.77,-122.29 811.97,-107.92 827.34,-97.5"/>
<polygon fill="midnightblue" stroke="midnightblue" points="771.36,-131.23 765.05,-139.73 775.29,-137.02 771.36,-131.23"/>
</g>
<!-- Node8&#45;&gt;Node10 -->
<g id="edge9" class="edge">
<title>Node8&#45;&gt;Node10</title>
<path fill="none" stroke="midnightblue" d="M731.46,-130.73C725.58,-119.83 718.78,-107.2 713.68,-97.75"/>
<polygon fill="midnightblue" stroke="midnightblue" points="728.48,-132.59 736.31,-139.73 734.65,-129.27 728.48,-132.59"/>
</g>
<!-- Node11&#45;&gt;Node6 -->
<g id="edge11" class="edge">
<title>Node11&#45;&gt;Node6</title>
<path fill="none" stroke="midnightblue" d="M384.48,-135.37C360.61,-123.52 330.2,-108.42 308.35,-97.57"/>
<polygon fill="midnightblue" stroke="midnightblue" points="383.09,-138.59 393.61,-139.9 386.21,-132.32 383.09,-138.59"/>
</g>
<!-- Node11&#45;&gt;Node10 -->
<g id="edge13" class="edge">
<title>Node11&#45;&gt;Node10</title>
<path fill="none" stroke="midnightblue" d="M480.6,-137.29C484.79,-136.15 488.96,-135.05 493,-134 543.58,-120.89 601.28,-107.29 643.85,-97.51"/>
<polygon fill="midnightblue" stroke="midnightblue" points="479.54,-133.95 470.82,-139.96 481.38,-140.7 479.54,-133.95"/>
</g>
<!-- Node12 -->
<g id="node12" class="node">
<title>Node12</title>
<g id="a_node12"><a xlink:href="PSO_8cpp.html" target="_top" xlink:title=" ">
<polygon fill="white" stroke="black" points="360,-67.5 360,-97.5 484,-97.5 484,-67.5 360,-67.5"/>
<text text-anchor="start" x="368" y="-85.5" font-family="Helvetica" font-size="10.00">/hosthome/MaCh3_2.1.0</text>
<text text-anchor="middle" x="422" y="-74.5" font-family="Helvetica" font-size="10.00">/Fitters/PSO.cpp</text>
</a>
</g>
</g>
<!-- Node11&#45;&gt;Node12 -->
<g id="edge12" class="edge">
<title>Node11&#45;&gt;Node12</title>
<path fill="none" stroke="midnightblue" d="M422,-129.73C422,-119.07 422,-106.91 422,-97.75"/>
<polygon fill="midnightblue" stroke="midnightblue" points="418.5,-129.73 422,-139.73 425.5,-129.73 418.5,-129.73"/>
</g>
<!-- Node13&#45;&gt;Node6 -->
<g id="edge16" class="edge">
<title>Node13&#45;&gt;Node6</title>
<path fill="none" stroke="midnightblue" d="M505.4,-137.29C501.21,-136.15 497.04,-135.05 493,-134 442.42,-120.89 384.72,-107.29 342.15,-97.51"/>
<polygon fill="midnightblue" stroke="midnightblue" points="504.62,-140.7 515.18,-139.96 506.46,-133.95 504.62,-140.7"/>
</g>
<!-- Node13&#45;&gt;Node10 -->
<g id="edge18" class="edge">
<title>Node13&#45;&gt;Node10</title>
<path fill="none" stroke="midnightblue" d="M601.52,-135.37C625.39,-123.52 655.8,-108.42 677.65,-97.57"/>
<polygon fill="midnightblue" stroke="midnightblue" points="599.79,-132.32 592.39,-139.9 602.91,-138.59 599.79,-132.32"/>
</g>
<!-- Node14 -->
<g id="node14" class="node">
<title>Node14</title>
<g id="a_node14"><a xlink:href="mcmc_8cpp.html" target="_top" xlink:title=" ">
<polygon fill="white" stroke="black" points="502,-67.5 502,-97.5 626,-97.5 626,-67.5 502,-67.5"/>
<text text-anchor="start" x="510" y="-85.5" font-family="Helvetica" font-size="10.00">/hosthome/MaCh3_2.1.0</text>
<text text-anchor="middle" x="564" y="-74.5" font-family="Helvetica" font-size="10.00">/Fitters/mcmc.cpp</text>
</a>
</g>
</g>
<!-- Node13&#45;&gt;Node14 -->
<g id="edge17" class="edge">
<title>Node13&#45;&gt;Node14</title>
<path fill="none" stroke="midnightblue" d="M564,-129.73C564,-119.07 564,-106.91 564,-97.75"/>
<polygon fill="midnightblue" stroke="midnightblue" points="560.5,-129.73 564,-139.73 567.5,-129.73 560.5,-129.73"/>
</g>
<!-- Node17 -->
<g id="node17" class="node">
<title>Node17</title>
<g id="a_node17"><a xlink:href="OscProcessor_8cpp.html" target="_top" xlink:title=" ">
<polygon fill="white" stroke="black" points="682,-218 682,-248 814,-248 814,-218 682,-218"/>
<text text-anchor="start" x="690" y="-236" font-family="Helvetica" font-size="10.00">/hosthome/MaCh3_2.1.0</text>
<text text-anchor="middle" x="748" y="-225" font-family="Helvetica" font-size="10.00">/Fitters/OscProcessor.cpp</text>
</a>
</g>
</g>
<!-- Node16&#45;&gt;Node17 -->
<g id="edge22" class="edge">
<title>Node16&#45;&gt;Node17</title>
<path fill="none" stroke="midnightblue" d="M748,-285.59C748,-273.26 748,-258.72 748,-248.23"/>
<polygon fill="midnightblue" stroke="midnightblue" points="744.5,-285.7 748,-295.7 751.5,-285.71 744.5,-285.7"/>
</g>
<!-- Node19 -->
<g id="node19" class="node">
<title>Node19</title>
<g id="a_node19"><a xlink:href="SampleSummary_8cpp.html" target="_top" xlink:title=" ">
<polygon fill="white" stroke="black" points="832.5,-218 832.5,-248 977.5,-248 977.5,-218 832.5,-218"/>
<text text-anchor="start" x="840.5" y="-236" font-family="Helvetica" font-size="10.00">/hosthome/MaCh3_2.1.0</text>
<text text-anchor="middle" x="905" y="-225" font-family="Helvetica" font-size="10.00">/Fitters/SampleSummary.cpp</text>
</a>
</g>
</g>
<!-- Node18&#45;&gt;Node19 -->
<g id="edge24" class="edge">
<title>Node18&#45;&gt;Node19</title>
<path fill="none" stroke="midnightblue" d="M898.21,-285.59C899.83,-273.26 901.75,-258.72 903.13,-248.23"/>
<polygon fill="midnightblue" stroke="midnightblue" points="894.72,-285.33 896.88,-295.7 901.66,-286.25 894.72,-285.33"/>
</g>
<!-- Node24 -->
<g id="node24" class="node">
<title>Node24</title>
<g id="a_node24"><a xlink:href="inputManager_8cpp.html" target="_top" xlink:title=" ">
<polygon fill="white" stroke="black" points="1358,-212.5 1358,-253.5 1482,-253.5 1482,-212.5 1358,-212.5"/>
<text text-anchor="start" x="1366" y="-241.5" font-family="Helvetica" font-size="10.00">/hosthome/MaCh3_2.1.0</text>
<text text-anchor="start" x="1366" y="-230.5" font-family="Helvetica" font-size="10.00">/Plotting/plottingUtils</text>
<text text-anchor="middle" x="1420" y="-219.5" font-family="Helvetica" font-size="10.00">/inputManager.cpp</text>
</a>
</g>
</g>
<!-- Node23&#45;&gt;Node24 -->
<g id="edge29" class="edge">
<title>Node23&#45;&gt;Node24</title>
<path fill="none" stroke="midnightblue" d="M1516.46,-285.63C1497.06,-275.24 1474.73,-263.29 1456.44,-253.51"/>
<polygon fill="midnightblue" stroke="midnightblue" points="1514.96,-288.8 1525.43,-290.43 1518.27,-282.62 1514.96,-288.8"/>
</g>
<!-- Node25 -->
<g id="node25" class="node">
<title>Node25</title>
<g id="a_node25"><a xlink:href="plottingManager_8h.html" target="_top" xlink:title=" ">
<polygon fill="white" stroke="black" points="1500,-212.5 1500,-253.5 1624,-253.5 1624,-212.5 1500,-212.5"/>
<text text-anchor="start" x="1508" y="-241.5" font-family="Helvetica" font-size="10.00">/hosthome/MaCh3_2.1.0</text>
<text text-anchor="start" x="1508" y="-230.5" font-family="Helvetica" font-size="10.00">/Plotting/plottingUtils</text>
<text text-anchor="middle" x="1562" y="-219.5" font-family="Helvetica" font-size="10.00">/plottingManager.h</text>
</a>
</g>
</g>
<!-- Node23&#45;&gt;Node25 -->
<g id="edge30" class="edge">
<title>Node23&#45;&gt;Node25</title>
<path fill="none" stroke="midnightblue" d="M1562,-280.3C1562,-271.3 1562,-261.65 1562,-253.51"/>
<polygon fill="midnightblue" stroke="midnightblue" points="1558.5,-280.43 1562,-290.43 1565.5,-280.43 1558.5,-280.43"/>
</g>
<!-- Node30 -->
<g id="node30" class="node">
<title>Node30</title>
<g id="a_node30"><a xlink:href="plotting_8cpp.html" target="_top" xlink:title=" ">
<polygon fill="white" stroke="black" points="1736,-140 1736,-170 1860,-170 1860,-140 1736,-140"/>
<text text-anchor="start" x="1744" y="-158" font-family="Helvetica" font-size="10.00">/hosthome/MaCh3_2.1.0</text>
<text text-anchor="middle" x="1798" y="-147" font-family="Helvetica" font-size="10.00">/python/plotting.cpp</text>
</a>
</g>
</g>
<!-- Node23&#45;&gt;Node30 -->
<g id="edge36" class="edge">
<title>Node23&#45;&gt;Node30</title>
<path fill="none" stroke="midnightblue" d="M1600.51,-284.87C1650.61,-252.18 1736.45,-196.17 1776.38,-170.11"/>
<polygon fill="midnightblue" stroke="midnightblue" points="1598.35,-282.1 1591.89,-290.5 1602.18,-287.96 1598.35,-282.1"/>
</g>
<!-- Node26 -->
<g id="node26" class="node">
<title>Node26</title>
<g id="a_node26"><a xlink:href="GetPostfitParamPlots_8cpp.html" target="_top" xlink:title=" ">
<polygon fill="white" stroke="black" points="1116,-140 1116,-170 1286,-170 1286,-140 1116,-140"/>
<text text-anchor="start" x="1124" y="-158" font-family="Helvetica" font-size="10.00">/hosthome/MaCh3_2.1.0</text>
<text text-anchor="middle" x="1201" y="-147" font-family="Helvetica" font-size="10.00">/Plotting/GetPostfitParamPlots.cpp</text>
</a>
</g>
</g>
<!-- Node25&#45;&gt;Node26 -->
<g id="edge31" class="edge">
<title>Node25&#45;&gt;Node26</title>
<path fill="none" stroke="midnightblue" d="M1489.99,-211.86C1403.04,-192.04 1378.82,-192.61 1295,-176 1285.51,-174.12 1275.49,-172.06 1265.68,-170.01"/>
<polygon fill="midnightblue" stroke="midnightblue" points="1489.22,-215.27 1499.75,-214.11 1490.79,-208.45 1489.22,-215.27"/>
</g>
<!-- Node27 -->
<g id="node27" class="node">
<title>Node27</title>
<g id="a_node27"><a xlink:href="MatrixPlotter_8cpp.html" target="_top" xlink:title=" ">
<polygon fill="white" stroke="black" points="1304,-140 1304,-170 1434,-170 1434,-140 1304,-140"/>
<text text-anchor="start" x="1312" y="-158" font-family="Helvetica" font-size="10.00">/hosthome/MaCh3_2.1.0</text>
<text text-anchor="middle" x="1369" y="-147" font-family="Helvetica" font-size="10.00">/Plotting/MatrixPlotter.cpp</text>
</a>
</g>
</g>
<!-- Node25&#45;&gt;Node27 -->
<g id="edge32" class="edge">
<title>Node25&#45;&gt;Node27</title>
<path fill="none" stroke="midnightblue" d="M1502.6,-208.61C1470.62,-196.02 1432.23,-180.9 1404.82,-170.11"/>
<polygon fill="midnightblue" stroke="midnightblue" points="1501.71,-212.02 1512.3,-212.43 1504.28,-205.51 1501.71,-212.02"/>
</g>
<!-- Node28 -->
<g id="node28" class="node">
<title>Node28</title>
<g id="a_node28"><a xlink:href="PlotLLH_8cpp.html" target="_top" xlink:title=" ">
<polygon fill="white" stroke="black" points="1452,-140 1452,-170 1576,-170 1576,-140 1452,-140"/>
<text text-anchor="start" x="1460" y="-158" font-family="Helvetica" font-size="10.00">/hosthome/MaCh3_2.1.0</text>
<text text-anchor="middle" x="1514" y="-147" font-family="Helvetica" font-size="10.00">/Plotting/PlotLLH.cpp</text>
</a>
</g>
</g>
<!-- Node25&#45;&gt;Node28 -->
<g id="edge33" class="edge">
<title>Node25&#45;&gt;Node28</title>
<path fill="none" stroke="midnightblue" d="M1544.09,-203.64C1536.89,-192.25 1528.92,-179.62 1522.98,-170.23"/>
<polygon fill="midnightblue" stroke="midnightblue" points="1541.34,-205.84 1549.64,-212.43 1547.26,-202.1 1541.34,-205.84"/>
</g>
<!-- Node29 -->
<g id="node29" class="node">
<title>Node29</title>
<g id="a_node29"><a xlink:href="plottingManager_8cpp.html" target="_top" xlink:title=" ">
<polygon fill="white" stroke="black" points="1594,-134.5 1594,-175.5 1718,-175.5 1718,-134.5 1594,-134.5"/>
<text text-anchor="start" x="1602" y="-163.5" font-family="Helvetica" font-size="10.00">/hosthome/MaCh3_2.1.0</text>
<text text-anchor="start" x="1602" y="-152.5" font-family="Helvetica" font-size="10.00">/Plotting/plottingUtils</text>
<text text-anchor="middle" x="1656" y="-141.5" font-family="Helvetica" font-size="10.00">/plottingManager.cpp</text>
</a>
</g>
</g>
<!-- Node25&#45;&gt;Node29 -->
<g id="edge34" class="edge">
<title>Node25&#45;&gt;Node29</title>
<path fill="none" stroke="midnightblue" d="M1594.08,-206.06C1606.46,-196.06 1620.37,-184.8 1631.87,-175.51"/>
<polygon fill="midnightblue" stroke="midnightblue" points="1591.78,-203.42 1586.21,-212.43 1596.18,-208.86 1591.78,-203.42"/>
</g>
<!-- Node25&#45;&gt;Node30 -->
<g id="edge35" class="edge">
<title>Node25&#45;&gt;Node30</title>
<path fill="none" stroke="midnightblue" d="M1632.37,-209.34C1671.91,-196.6 1720.03,-181.11 1754.2,-170.11"/>
<polygon fill="midnightblue" stroke="midnightblue" points="1631.22,-206.03 1622.78,-212.43 1633.37,-212.69 1631.22,-206.03"/>
</g>
</g>
</svg>
