<?xml version="1.0" encoding="UTF-8" standalone="no"?>
<!DOCTYPE svg PUBLIC "-//W3C//DTD SVG 1.1//EN"
 "http://www.w3.org/Graphics/SVG/1.1/DTD/svg11.dtd">
<!-- Generated by graphviz version 2.44.0 (0)
 -->
<!-- Title: /hosthome/v2.1.0/Parameters/ParameterHandlerOsc.h Pages: 1 -->
<svg width="738pt" height="173pt"
 viewBox="0.00 0.00 737.50 173.00" xmlns="http://www.w3.org/2000/svg" xmlns:xlink="http://www.w3.org/1999/xlink">
<g id="graph0" class="graph" transform="scale(1 1) rotate(0) translate(4 169)">
<title>/hosthome/v2.1.0/Parameters/ParameterHandlerOsc.h</title>
<polygon fill="white" stroke="transparent" points="-4,4 -4,-169 733.5,-169 733.5,4 -4,4"/>
<!-- Node1 -->
<g id="node1" class="node">
<title>Node1</title>
<g id="a_node1"><a xlink:title=" ">
<polygon fill="#bfbfbf" stroke="black" points="363,-134.5 363,-164.5 509,-164.5 509,-134.5 363,-134.5"/>
<text text-anchor="start" x="371" y="-152.5" font-family="Helvetica" font-size="10.00">/hosthome/v2.1.0/Parameters</text>
<text text-anchor="middle" x="436" y="-141.5" font-family="Helvetica" font-size="10.00">/ParameterHandlerOsc.h</text>
</a>
</g>
</g>
<!-- Node2 -->
<g id="node2" class="node">
<title>Node2</title>
<g id="a_node2"><a xlink:href="SampleHandlerFD_8h.html" target="_top" xlink:title=" ">
<polygon fill="white" stroke="black" points="146,-67.5 146,-97.5 280,-97.5 280,-67.5 146,-67.5"/>
<text text-anchor="start" x="154" y="-85.5" font-family="Helvetica" font-size="10.00">/hosthome/v2.1.0/Samples</text>
<text text-anchor="middle" x="213" y="-74.5" font-family="Helvetica" font-size="10.00">/SampleHandlerFD.h</text>
</a>
</g>
</g>
<!-- Node1&#45;&gt;Node2 -->
<g id="edge1" class="edge">
<title>Node1&#45;&gt;Node2</title>
<path fill="none" stroke="midnightblue" d="M377.95,-131.58C341.73,-121.02 295.65,-107.59 261.41,-97.61"/>
<polygon fill="midnightblue" stroke="midnightblue" points="377.31,-135.04 387.89,-134.48 379.27,-128.32 377.31,-135.04"/>
</g>
<!-- Node5 -->
<g id="node5" class="node">
<title>Node5</title>
<g id="a_node5"><a xlink:href="MaCh3Factory_8h.html" target="_top" xlink:title="Factory methods for MaCh3 software which streamline initialisation of different objects.">
<polygon fill="white" stroke="black" points="298,-67.5 298,-97.5 422,-97.5 422,-67.5 298,-67.5"/>
<text text-anchor="start" x="306" y="-85.5" font-family="Helvetica" font-size="10.00">/hosthome/v2.1.0/Fitters</text>
<text text-anchor="middle" x="360" y="-74.5" font-family="Helvetica" font-size="10.00">/MaCh3Factory.h</text>
</a>
</g>
</g>
<!-- Node1&#45;&gt;Node5 -->
<g id="edge4" class="edge">
<title>Node1&#45;&gt;Node5</title>
<path fill="none" stroke="midnightblue" d="M411.89,-127.88C400.34,-118.01 386.81,-106.43 376.46,-97.58"/>
<polygon fill="midnightblue" stroke="midnightblue" points="409.63,-130.56 419.51,-134.4 414.18,-125.24 409.63,-130.56"/>
</g>
<!-- Node7 -->
<g id="node7" class="node">
<title>Node7</title>
<g id="a_node7"><a xlink:href="ParameterHandlerOsc_8cpp.html" target="_top" xlink:title=" ">
<polygon fill="white" stroke="black" points="440,-67.5 440,-97.5 586,-97.5 586,-67.5 440,-67.5"/>
<text text-anchor="start" x="448" y="-85.5" font-family="Helvetica" font-size="10.00">/hosthome/v2.1.0/Parameters</text>
<text text-anchor="middle" x="513" y="-74.5" font-family="Helvetica" font-size="10.00">/ParameterHandlerOsc.cpp</text>
</a>
</g>
</g>
<!-- Node1&#45;&gt;Node7 -->
<g id="edge6" class="edge">
<title>Node1&#45;&gt;Node7</title>
<path fill="none" stroke="midnightblue" d="M460.42,-127.88C472.12,-118.01 485.84,-106.43 496.32,-97.58"/>
<polygon fill="midnightblue" stroke="midnightblue" points="458.09,-125.27 452.71,-134.4 462.61,-130.62 458.09,-125.27"/>
</g>
<!-- Node8 -->
<g id="node8" class="node">
<title>Node8</title>
<g id="a_node8"><a xlink:href="parameters_8cpp.html" target="_top" xlink:title=" ">
<polygon fill="white" stroke="black" points="604.5,-67.5 604.5,-97.5 729.5,-97.5 729.5,-67.5 604.5,-67.5"/>
<text text-anchor="start" x="612.5" y="-85.5" font-family="Helvetica" font-size="10.00">/hosthome/v2.1.0/python</text>
<text text-anchor="middle" x="667" y="-74.5" font-family="Helvetica" font-size="10.00">/parameters.cpp</text>
</a>
</g>
</g>
<!-- Node1&#45;&gt;Node8 -->
<g id="edge7" class="edge">
<title>Node1&#45;&gt;Node8</title>
<path fill="none" stroke="midnightblue" d="M495.65,-131.71C533.24,-121.14 581.23,-107.63 616.85,-97.61"/>
<polygon fill="midnightblue" stroke="midnightblue" points="494.52,-128.4 485.84,-134.48 496.41,-135.14 494.52,-128.4"/>
</g>
<!-- Node3 -->
<g id="node3" class="node">
<title>Node3</title>
<g id="a_node3"><a xlink:href="SampleHandlerFD_8cpp.html" target="_top" xlink:title=" ">
<polygon fill="white" stroke="black" points="0,-0.5 0,-30.5 134,-30.5 134,-0.5 0,-0.5"/>
<text text-anchor="start" x="8" y="-18.5" font-family="Helvetica" font-size="10.00">/hosthome/v2.1.0/Samples</text>
<text text-anchor="middle" x="67" y="-7.5" font-family="Helvetica" font-size="10.00">/SampleHandlerFD.cpp</text>
</a>
</g>
</g>
<!-- Node2&#45;&gt;Node3 -->
<g id="edge2" class="edge">
<title>Node2&#45;&gt;Node3</title>
<path fill="none" stroke="midnightblue" d="M172.05,-63.27C148.8,-52.92 120.13,-40.15 98.62,-30.58"/>
<polygon fill="midnightblue" stroke="midnightblue" points="170.76,-66.53 181.32,-67.4 173.61,-60.13 170.76,-66.53"/>
</g>
<!-- Node4 -->
<g id="node4" class="node">
<title>Node4</title>
<g id="a_node4"><a xlink:href="samples_8cpp.html" target="_top" xlink:title=" ">
<polygon fill="white" stroke="black" points="152.5,-0.5 152.5,-30.5 277.5,-30.5 277.5,-0.5 152.5,-0.5"/>
<text text-anchor="start" x="160.5" y="-18.5" font-family="Helvetica" font-size="10.00">/hosthome/v2.1.0/python</text>
<text text-anchor="middle" x="215" y="-7.5" font-family="Helvetica" font-size="10.00">/samples.cpp</text>
</a>
</g>
</g>
<!-- Node2&#45;&gt;Node4 -->
<g id="edge3" class="edge">
<title>Node2&#45;&gt;Node4</title>
<path fill="none" stroke="midnightblue" d="M213.75,-57.11C214.03,-48.15 214.33,-38.32 214.57,-30.58"/>
<polygon fill="midnightblue" stroke="midnightblue" points="210.24,-57.29 213.43,-67.4 217.24,-57.51 210.24,-57.29"/>
</g>
<!-- Node6 -->
<g id="node6" class="node">
<title>Node6</title>
<g id="a_node6"><a xlink:href="MaCh3Factory_8cpp.html" target="_top" xlink:title=" ">
<polygon fill="white" stroke="black" points="298,-0.5 298,-30.5 422,-30.5 422,-0.5 298,-0.5"/>
<text text-anchor="start" x="306" y="-18.5" font-family="Helvetica" font-size="10.00">/hosthome/v2.1.0/Fitters</text>
<text text-anchor="middle" x="360" y="-7.5" font-family="Helvetica" font-size="10.00">/MaCh3Factory.cpp</text>
</a>
</g>
</g>
<!-- Node5&#45;&gt;Node6 -->
<g id="edge5" class="edge">
<title>Node5&#45;&gt;Node6</title>
<path fill="none" stroke="midnightblue" d="M360,-57.11C360,-48.15 360,-38.32 360,-30.58"/>
<polygon fill="midnightblue" stroke="midnightblue" points="356.5,-57.4 360,-67.4 363.5,-57.4 356.5,-57.4"/>
</g>
</g>
</svg>
