<?xml version="1.0" encoding="UTF-8" standalone="no"?>
<!DOCTYPE svg PUBLIC "-//W3C//DTD SVG 1.1//EN"
 "http://www.w3.org/Graphics/SVG/1.1/DTD/svg11.dtd">
<!-- Generated by graphviz version 2.44.0 (0)
 -->
<!-- Title: TypeParameterBase Pages: 1 -->
<svg width="327pt" height="84pt"
 viewBox="0.00 0.00 327.00 84.00" xmlns="http://www.w3.org/2000/svg" xmlns:xlink="http://www.w3.org/1999/xlink">
<g id="graph0" class="graph" transform="scale(1 1) rotate(0) translate(4 80)">
<title>TypeParameterBase</title>
<polygon fill="white" stroke="transparent" points="-4,4 -4,-80 323,-80 323,4 -4,4"/>
<!-- Node1 -->
<g id="node1" class="node">
<title>Node1</title>
<g id="a_node1"><a xlink:title="Base class storing info for parameters types, helping unify codebase.">
<polygon fill="#bfbfbf" stroke="black" points="116,-56.5 116,-75.5 221,-75.5 221,-56.5 116,-56.5"/>
<text text-anchor="middle" x="168.5" y="-63.5" font-family="Helvetica" font-size="10.00">TypeParameterBase</text>
</a>
</g>
</g>
<!-- Node2 -->
<g id="node2" class="node">
<title>Node2</title>
<g id="a_node2"><a xlink:href="structFunctionalParameter.html" target="_top" xlink:title="HH &#45; Functional parameters Carrier for whether you want to apply a systematic to an event or not.">
<polygon fill="white" stroke="black" points="0,-0.5 0,-19.5 107,-19.5 107,-0.5 0,-0.5"/>
<text text-anchor="middle" x="53.5" y="-7.5" font-family="Helvetica" font-size="10.00">FunctionalParameter</text>
</a>
</g>
</g>
<!-- Node1&#45;&gt;Node2 -->
<g id="edge1" class="edge">
<title>Node1&#45;&gt;Node2</title>
<path fill="none" stroke="midnightblue" d="M141.02,-52.1C119.53,-42.01 90.28,-28.27 71.64,-19.52"/>
<polygon fill="midnightblue" stroke="midnightblue" points="139.74,-55.36 150.28,-56.44 142.71,-49.02 139.74,-55.36"/>
</g>
<!-- Node3 -->
<g id="node3" class="node">
<title>Node3</title>
<g id="a_node3"><a xlink:href="structNormParameter.html" target="_top" xlink:title="ETA &#45; Normalisations for cross&#45;section parameters Carrier for whether you want to apply a systematic ...">
<polygon fill="white" stroke="black" points="125.5,-0.5 125.5,-19.5 211.5,-19.5 211.5,-0.5 125.5,-0.5"/>
<text text-anchor="middle" x="168.5" y="-7.5" font-family="Helvetica" font-size="10.00">NormParameter</text>
</a>
</g>
</g>
<!-- Node1&#45;&gt;Node3 -->
<g id="edge2" class="edge">
<title>Node1&#45;&gt;Node3</title>
<path fill="none" stroke="midnightblue" d="M168.5,-45.8C168.5,-36.91 168.5,-26.78 168.5,-19.75"/>
<polygon fill="midnightblue" stroke="midnightblue" points="165,-46.08 168.5,-56.08 172,-46.08 165,-46.08"/>
</g>
<!-- Node4 -->
<g id="node4" class="node">
<title>Node4</title>
<g id="a_node4"><a xlink:href="structSplineParameter.html" target="_top" xlink:title="KS: Struct holding info about Spline Systematics.">
<polygon fill="white" stroke="black" points="230,-0.5 230,-19.5 319,-19.5 319,-0.5 230,-0.5"/>
<text text-anchor="middle" x="274.5" y="-7.5" font-family="Helvetica" font-size="10.00">SplineParameter</text>
</a>
</g>
</g>
<!-- Node1&#45;&gt;Node4 -->
<g id="edge3" class="edge">
<title>Node1&#45;&gt;Node4</title>
<path fill="none" stroke="midnightblue" d="M194.56,-51.73C214.18,-41.73 240.53,-28.31 257.51,-19.65"/>
<polygon fill="midnightblue" stroke="midnightblue" points="192.85,-48.67 185.53,-56.32 196.03,-54.9 192.85,-48.67"/>
</g>
</g>
</svg>
