<?xml version="1.0" encoding="UTF-8" standalone="no"?>
<!DOCTYPE svg PUBLIC "-//W3C//DTD SVG 1.1//EN"
 "http://www.w3.org/Graphics/SVG/1.1/DTD/svg11.dtd">
<!-- Generated by graphviz version 2.44.0 (0)
 -->
<!-- Title: Parameters/ParameterHandlerUtils.h Pages: 1 -->
<!--zoomable 464 -->
<svg id="main" version="1.1" xmlns="http://www.w3.org/2000/svg" xmlns:xlink="http://www.w3.org/1999/xlink" xml:space="preserve" onload="init(evt)">
<style type="text/css"><![CDATA[
.edge:hover path { stroke: red; }
.edge:hover polygon { stroke: red; fill: red; }
]]></style>
<script type="text/javascript"><![CDATA[
var edges = document.getElementsByTagName('g');
if (edges && edges.length) {
  for (var i=0;i<edges.length;i++) {
    if (edges[i].id.substr(0,4)=='edge') {
      edges[i].setAttribute('class','edge');
    }
  }
}
]]></script>
        <defs>
                <circle id="rim" cx="0" cy="0" r="7"/>
                <circle id="rim2" cx="0" cy="0" r="3.5"/>
                <g id="zoomPlus">
                        <use xlink:href="#rim" fill="#404040">
                                <set attributeName="fill" to="#808080" begin="zoomplus.mouseover" end="zoomplus.mouseout"/>
                        </use>
                        <path d="M-4,0h8M0,-4v8" fill="none" stroke="white" stroke-width="1.5" pointer-events="none"/>
                </g>
                <g id="zoomMin">
                        <use xlink:href="#rim" fill="#404040">
                                <set attributeName="fill" to="#808080" begin="zoomminus.mouseover" end="zoomminus.mouseout"/>
                        </use>
                        <path d="M-4,0h8" fill="none" stroke="white" stroke-width="1.5" pointer-events="none"/>
                </g>
                <g id="dirArrow">
                        <path fill="none" stroke="white" stroke-width="1.5" d="M0,-3.0v7 M-2.5,-0.5L0,-3.0L2.5,-0.5"/>
                </g>
               <g id="resetDef">
                       <use xlink:href="#rim2" fill="#404040">
                               <set attributeName="fill" to="#808080" begin="reset.mouseover" end="reset.mouseout"/>
                       </use>
               </g>
        </defs>

<script type="text/javascript">
var viewWidth = 2709;
var viewHeight = 464;
var sectionId = 'dynsection-1';
</script>
<script xlink:href="svgpan.js"/>
<svg id="graph" class="graph">
<g id="viewport">
<title>Parameters/ParameterHandlerUtils.h</title>
<polygon fill="white" stroke="transparent" points="-4,4 -4,-460 2704.5,-460 2704.5,4 -4,4"/>
<!-- Node1 -->
<g id="node1" class="node">
<title>Node1</title>
<g id="a_node1"><a xlink:title=" ">
<polygon fill="#bfbfbf" stroke="black" points="795,-425.5 795,-455.5 944,-455.5 944,-425.5 795,-425.5"/>
<text text-anchor="start" x="803" y="-443.5" font-family="Helvetica" font-size="10.00">Parameters/ParameterHandler</text>
<text text-anchor="middle" x="869.5" y="-432.5" font-family="Helvetica" font-size="10.00">Utils.h</text>
</a>
</g>
</g>
<!-- Node2 -->
<g id="node2" class="node">
<title>Node2</title>
<g id="a_node2"><a xlink:href="MCMCProcessor_8h.html" target="_top" xlink:title=" ">
<polygon fill="white" stroke="black" points="1748.5,-369.5 1748.5,-388.5 1880.5,-388.5 1880.5,-369.5 1748.5,-369.5"/>
<text text-anchor="middle" x="1814.5" y="-376.5" font-family="Helvetica" font-size="10.00">Fitters/MCMCProcessor.h</text>
</a>
</g>
</g>
<!-- Node1&#45;&gt;Node2 -->
<g id="edge1" class="edge">
<title>Node1&#45;&gt;Node2</title>
<path fill="none" stroke="midnightblue" d="M954.04,-434.18C1139.93,-422.47 1580.91,-394.71 1748.4,-384.16"/>
<polygon fill="midnightblue" stroke="midnightblue" points="953.81,-430.68 944.05,-434.81 954.25,-437.67 953.81,-430.68"/>
</g>
<!-- Node42 -->
<g id="node37" class="node">
<title>Node42</title>
<g id="a_node37"><a xlink:href="GetPenaltyTerm_8cpp.html" target="_top" xlink:title="KS: This file contains the implementation of the function to extract specific penalty terms from syst...">
<polygon fill="white" stroke="black" points="1898.5,-369.5 1898.5,-388.5 2058.5,-388.5 2058.5,-369.5 1898.5,-369.5"/>
<text text-anchor="middle" x="1978.5" y="-376.5" font-family="Helvetica" font-size="10.00">Diagnostics/GetPenaltyTerm.cpp</text>
</a>
</g>
</g>
<!-- Node1&#45;&gt;Node42 -->
<g id="edge43" class="edge">
<title>Node1&#45;&gt;Node42</title>
<path fill="none" stroke="midnightblue" d="M954.3,-436.77C1129.28,-430.82 1543.02,-415.08 1889.5,-389 1892.44,-388.78 1895.44,-388.54 1898.46,-388.29"/>
<polygon fill="midnightblue" stroke="midnightblue" points="954,-433.28 944.13,-437.12 954.24,-440.28 954,-433.28"/>
</g>
<!-- Node43 -->
<g id="node38" class="node">
<title>Node43</title>
<g id="a_node38"><a xlink:href="AdaptiveMCMCHandler_8h.html" target="_top" xlink:title=" ">
<polygon fill="white" stroke="black" points="477,-369.5 477,-388.5 658,-388.5 658,-369.5 477,-369.5"/>
<text text-anchor="middle" x="567.5" y="-376.5" font-family="Helvetica" font-size="10.00">Parameters/AdaptiveMCMCHandler.h</text>
</a>
</g>
</g>
<!-- Node1&#45;&gt;Node43 -->
<g id="edge44" class="edge">
<title>Node1&#45;&gt;Node43</title>
<path fill="none" stroke="midnightblue" d="M788.21,-423.48C731.05,-412.22 656.82,-397.6 610.68,-388.51"/>
<polygon fill="midnightblue" stroke="midnightblue" points="787.82,-426.98 798.31,-425.47 789.18,-420.11 787.82,-426.98"/>
</g>
<!-- Node45 -->
<g id="node40" class="node">
<title>Node45</title>
<g id="a_node40"><a xlink:href="ParameterHandlerBase_8h.html" target="_top" xlink:title=" ">
<polygon fill="white" stroke="black" points="542,-302.5 542,-332.5 691,-332.5 691,-302.5 542,-302.5"/>
<text text-anchor="start" x="550" y="-320.5" font-family="Helvetica" font-size="10.00">Parameters/ParameterHandler</text>
<text text-anchor="middle" x="616.5" y="-309.5" font-family="Helvetica" font-size="10.00">Base.h</text>
</a>
</g>
</g>
<!-- Node1&#45;&gt;Node45 -->
<g id="edge59" class="edge">
<title>Node1&#45;&gt;Node45</title>
<path fill="none" stroke="midnightblue" d="M794.62,-422.74C765.81,-414.7 733.21,-403.58 705.5,-389 676.37,-373.67 647.37,-348.34 630.73,-332.58"/>
<polygon fill="midnightblue" stroke="midnightblue" points="794.07,-426.22 804.64,-425.46 795.9,-419.47 794.07,-426.22"/>
</g>
<!-- Node61 -->
<g id="node47" class="node">
<title>Node61</title>
<g id="a_node47"><a xlink:href="ParameterTunes_8h.html" target="_top" xlink:title=" ">
<polygon fill="white" stroke="black" points="714.5,-369.5 714.5,-388.5 864.5,-388.5 864.5,-369.5 714.5,-369.5"/>
<text text-anchor="middle" x="789.5" y="-376.5" font-family="Helvetica" font-size="10.00">Parameters/ParameterTunes.h</text>
</a>
</g>
</g>
<!-- Node1&#45;&gt;Node61 -->
<g id="edge60" class="edge">
<title>Node1&#45;&gt;Node61</title>
<path fill="none" stroke="midnightblue" d="M842.19,-419.19C828.18,-408.77 811.86,-396.63 801.14,-388.66"/>
<polygon fill="midnightblue" stroke="midnightblue" points="840.43,-422.24 850.54,-425.4 844.61,-416.62 840.43,-422.24"/>
</g>
<!-- Node63 -->
<g id="node49" class="node">
<title>Node63</title>
<g id="a_node49"><a xlink:href="PCAHandler_8h.html" target="_top" xlink:title=" ">
<polygon fill="white" stroke="black" points="883,-369.5 883,-388.5 1016,-388.5 1016,-369.5 883,-369.5"/>
<text text-anchor="middle" x="949.5" y="-376.5" font-family="Helvetica" font-size="10.00">Parameters/PCAHandler.h</text>
</a>
</g>
</g>
<!-- Node1&#45;&gt;Node63 -->
<g id="edge63" class="edge">
<title>Node1&#45;&gt;Node63</title>
<path fill="none" stroke="midnightblue" d="M896.81,-419.19C910.82,-408.77 927.14,-396.63 937.86,-388.66"/>
<polygon fill="midnightblue" stroke="midnightblue" points="894.39,-416.62 888.46,-425.4 898.57,-422.24 894.39,-416.62"/>
</g>
<!-- Node3 -->
<g id="node3" class="node">
<title>Node3</title>
<g id="a_node3"><a xlink:href="FitterBase_8h.html" target="_top" xlink:title=" ">
<polygon fill="white" stroke="black" points="870,-241 870,-260 971,-260 971,-241 870,-241"/>
<text text-anchor="middle" x="920.5" y="-248" font-family="Helvetica" font-size="10.00">Fitters/FitterBase.h</text>
</a>
</g>
</g>
<!-- Node2&#45;&gt;Node3 -->
<g id="edge2" class="edge">
<title>Node2&#45;&gt;Node3</title>
<path fill="none" stroke="midnightblue" d="M1738.02,-368.72C1666.68,-359.94 1557.3,-346.19 1462.5,-333 1281.54,-307.83 1067.15,-274.57 971.26,-259.52"/>
<polygon fill="midnightblue" stroke="midnightblue" points="1737.92,-372.23 1748.27,-369.98 1738.77,-365.28 1737.92,-372.23"/>
</g>
<!-- Node22 -->
<g id="node17" class="node">
<title>Node22</title>
<g id="a_node17"><a xlink:href="MCMCProcessor_8cpp.html" target="_top" xlink:title=" ">
<polygon fill="white" stroke="black" points="1594,-308 1594,-327 1737,-327 1737,-308 1594,-308"/>
<text text-anchor="middle" x="1665.5" y="-315" font-family="Helvetica" font-size="10.00">Fitters/MCMCProcessor.cpp</text>
</a>
</g>
</g>
<!-- Node2&#45;&gt;Node22 -->
<g id="edge22" class="edge">
<title>Node2&#45;&gt;Node22</title>
<path fill="none" stroke="midnightblue" d="M1783.53,-365.63C1754.58,-354.07 1712.13,-337.12 1686.81,-327.01"/>
<polygon fill="midnightblue" stroke="midnightblue" points="1782.57,-369.02 1793.15,-369.48 1785.16,-362.52 1782.57,-369.02"/>
</g>
<!-- Node23 -->
<g id="node18" class="node">
<title>Node23</title>
<g id="a_node18"><a xlink:href="OscProcessor_8h.html" target="_top" xlink:title=" ">
<polygon fill="white" stroke="black" points="1755,-308 1755,-327 1874,-327 1874,-308 1755,-308"/>
<text text-anchor="middle" x="1814.5" y="-315" font-family="Helvetica" font-size="10.00">Fitters/OscProcessor.h</text>
</a>
</g>
</g>
<!-- Node2&#45;&gt;Node23 -->
<g id="edge23" class="edge">
<title>Node2&#45;&gt;Node23</title>
<path fill="none" stroke="midnightblue" d="M1814.5,-359.32C1814.5,-348.5 1814.5,-335.4 1814.5,-327.01"/>
<polygon fill="midnightblue" stroke="midnightblue" points="1811,-359.48 1814.5,-369.48 1818,-359.48 1811,-359.48"/>
</g>
<!-- Node26 -->
<g id="node21" class="node">
<title>Node26</title>
<g id="a_node21"><a xlink:href="SampleSummary_8h.html" target="_top" xlink:title=" ">
<polygon fill="white" stroke="black" points="1892,-308 1892,-327 2023,-327 2023,-308 1892,-308"/>
<text text-anchor="middle" x="1957.5" y="-315" font-family="Helvetica" font-size="10.00">Fitters/SampleSummary.h</text>
</a>
</g>
</g>
<!-- Node2&#45;&gt;Node26 -->
<g id="edge26" class="edge">
<title>Node2&#45;&gt;Node26</title>
<path fill="none" stroke="midnightblue" d="M1844.23,-365.63C1872.01,-354.07 1912.75,-337.12 1937.05,-327.01"/>
<polygon fill="midnightblue" stroke="midnightblue" points="1842.88,-362.4 1834.99,-369.48 1845.57,-368.86 1842.88,-362.4"/>
</g>
<!-- Node28 -->
<g id="node23" class="node">
<title>Node28</title>
<g id="a_node23"><a xlink:href="DiagMCMC_8cpp.html" target="_top" xlink:title=" ">
<polygon fill="white" stroke="black" points="2041,-308 2041,-327 2182,-327 2182,-308 2041,-308"/>
<text text-anchor="middle" x="2111.5" y="-315" font-family="Helvetica" font-size="10.00">Diagnostics/DiagMCMC.cpp</text>
</a>
</g>
</g>
<!-- Node2&#45;&gt;Node28 -->
<g id="edge28" class="edge">
<title>Node2&#45;&gt;Node28</title>
<path fill="none" stroke="midnightblue" d="M1867.04,-367.47C1924.6,-355.94 2015.8,-337.67 2069.03,-327.01"/>
<polygon fill="midnightblue" stroke="midnightblue" points="1866.17,-364.08 1857.05,-369.48 1867.55,-370.94 1866.17,-364.08"/>
</g>
<!-- Node29 -->
<g id="node24" class="node">
<title>Node29</title>
<g id="a_node24"><a xlink:href="PlotMCMCDiag_8cpp.html" target="_top" xlink:title="KS: This script is used to analyse output form DiagMCMC.">
<polygon fill="white" stroke="black" points="2200.5,-308 2200.5,-327 2358.5,-327 2358.5,-308 2200.5,-308"/>
<text text-anchor="middle" x="2279.5" y="-315" font-family="Helvetica" font-size="10.00">Diagnostics/PlotMCMCDiag.cpp</text>
</a>
</g>
</g>
<!-- Node2&#45;&gt;Node29 -->
<g id="edge29" class="edge">
<title>Node2&#45;&gt;Node29</title>
<path fill="none" stroke="midnightblue" d="M1891.03,-368.82C2025.43,-352.89 2060.94,-351.53 2191.5,-333 2204.07,-331.22 2217.62,-329.09 2230.22,-327.02"/>
<polygon fill="midnightblue" stroke="midnightblue" points="1890.27,-365.39 1880.75,-370.05 1891.1,-372.34 1890.27,-365.39"/>
</g>
<!-- Node30 -->
<g id="node25" class="node">
<title>Node30</title>
<g id="a_node25"><a xlink:href="ReweightMCMC_8cpp.html" target="_top" xlink:title="This executable allow to reweight MCMC Chain, such technique is used to study impact of different pri...">
<polygon fill="white" stroke="black" points="2377,-308 2377,-327 2538,-327 2538,-308 2377,-308"/>
<text text-anchor="middle" x="2457.5" y="-315" font-family="Helvetica" font-size="10.00">Diagnostics/ReweightMCMC.cpp</text>
</a>
</g>
</g>
<!-- Node2&#45;&gt;Node30 -->
<g id="edge30" class="edge">
<title>Node2&#45;&gt;Node30</title>
<path fill="none" stroke="midnightblue" d="M1890.97,-368.9C2103.28,-348.6 2159.23,-357.58 2367.5,-333 2381.17,-331.39 2395.95,-329.19 2409.5,-327"/>
<polygon fill="midnightblue" stroke="midnightblue" points="1890.35,-365.44 1880.74,-369.89 1891.03,-372.41 1890.35,-365.44"/>
</g>
<!-- Node31 -->
<g id="node26" class="node">
<title>Node31</title>
<g id="a_node26"><a xlink:href="SmearChain_8cpp.html" target="_top" xlink:title="Allows you to smear contour. For example after performing sets of study one finds out that used sets ...">
<polygon fill="white" stroke="black" points="2556.5,-308 2556.5,-327 2700.5,-327 2700.5,-308 2556.5,-308"/>
<text text-anchor="middle" x="2628.5" y="-315" font-family="Helvetica" font-size="10.00">Diagnostics/SmearChain.cpp</text>
</a>
</g>
</g>
<!-- Node2&#45;&gt;Node31 -->
<g id="edge31" class="edge">
<title>Node2&#45;&gt;Node31</title>
<path fill="none" stroke="midnightblue" d="M1890.77,-368.95C2182.99,-344.06 2259.85,-366.49 2547.5,-333 2560.27,-331.51 2574.07,-329.28 2586.6,-327.01"/>
<polygon fill="midnightblue" stroke="midnightblue" points="1890.39,-365.47 1880.73,-369.82 1890.99,-372.44 1890.39,-365.47"/>
</g>
<!-- Node32 -->
<g id="node27" class="node">
<title>Node32</title>
<g id="a_node27"><a xlink:href="inputManager_8h.html" target="_top" xlink:title=" ">
<polygon fill="white" stroke="black" points="1471.5,-302.5 1471.5,-332.5 1575.5,-332.5 1575.5,-302.5 1471.5,-302.5"/>
<text text-anchor="start" x="1479.5" y="-320.5" font-family="Helvetica" font-size="10.00">Plotting/plottingUtils</text>
<text text-anchor="middle" x="1523.5" y="-309.5" font-family="Helvetica" font-size="10.00">/inputManager.h</text>
</a>
</g>
</g>
<!-- Node2&#45;&gt;Node32 -->
<g id="edge32" class="edge">
<title>Node2&#45;&gt;Node32</title>
<path fill="none" stroke="midnightblue" d="M1758.22,-367.64C1711.58,-358.9 1643.59,-345.8 1584.5,-333 1581.63,-332.38 1578.68,-331.73 1575.71,-331.06"/>
<polygon fill="midnightblue" stroke="midnightblue" points="1757.66,-371.1 1768.13,-369.49 1758.94,-364.22 1757.66,-371.1"/>
</g>
<!-- Node4 -->
<g id="node4" class="node">
<title>Node4</title>
<g id="a_node4"><a xlink:href="FitterBase_8cpp.html" target="_top" xlink:title=" ">
<polygon fill="white" stroke="black" points="639.5,-112.5 639.5,-131.5 751.5,-131.5 751.5,-112.5 639.5,-112.5"/>
<text text-anchor="middle" x="695.5" y="-119.5" font-family="Helvetica" font-size="10.00">Fitters/FitterBase.cpp</text>
</a>
</g>
</g>
<!-- Node3&#45;&gt;Node4 -->
<g id="edge3" class="edge">
<title>Node3&#45;&gt;Node4</title>
<path fill="none" stroke="midnightblue" d="M903.22,-233.86C879.96,-213.03 839.55,-177.69 822.5,-168 792.92,-151.17 755.93,-138.94 729.52,-131.51"/>
<polygon fill="midnightblue" stroke="midnightblue" points="901.16,-236.71 910.93,-240.8 905.84,-231.51 901.16,-236.71"/>
</g>
<!-- Node5 -->
<g id="node5" class="node">
<title>Node5</title>
<g id="a_node5"><a xlink:href="LikelihoodFit_8h.html" target="_top" xlink:title=" ">
<polygon fill="white" stroke="black" points="907.5,-174 907.5,-193 1017.5,-193 1017.5,-174 907.5,-174"/>
<text text-anchor="middle" x="962.5" y="-181" font-family="Helvetica" font-size="10.00">Fitters/LikelihoodFit.h</text>
</a>
</g>
</g>
<!-- Node3&#45;&gt;Node5 -->
<g id="edge4" class="edge">
<title>Node3&#45;&gt;Node5</title>
<path fill="none" stroke="midnightblue" d="M931.79,-232.03C939.92,-219.45 950.54,-203.01 956.93,-193.13"/>
<polygon fill="midnightblue" stroke="midnightblue" points="928.65,-230.44 926.16,-240.73 934.53,-234.23 928.65,-230.44"/>
</g>
<!-- Node7 -->
<g id="node7" class="node">
<title>Node7</title>
<g id="a_node7"><a xlink:href="MaCh3Factory_8h.html" target="_top" xlink:title="Factory methods for MaCh3 software which streamline initialisation of different objects.">
<polygon fill="white" stroke="black" points="757,-56.5 757,-75.5 878,-75.5 878,-56.5 757,-56.5"/>
<text text-anchor="middle" x="817.5" y="-63.5" font-family="Helvetica" font-size="10.00">Fitters/MaCh3Factory.h</text>
</a>
</g>
</g>
<!-- Node3&#45;&gt;Node7 -->
<g id="edge13" class="edge">
<title>Node3&#45;&gt;Node7</title>
<path fill="none" stroke="midnightblue" d="M907.92,-232.42C895.36,-215.63 875.29,-189.48 856.5,-168 841.81,-151.2 830.53,-152.41 821.5,-132 813.27,-113.39 814.64,-88.81 816.17,-75.86"/>
<polygon fill="midnightblue" stroke="midnightblue" points="905.29,-234.75 914.06,-240.69 910.91,-230.58 905.29,-234.75"/>
</g>
<!-- Node11 -->
<g id="node10" class="node">
<title>Node11</title>
<g id="a_node10"><a xlink:href="fitters_8cpp.html" target="_top" xlink:title=" ">
<polygon fill="white" stroke="black" points="1134,-56.5 1134,-75.5 1227,-75.5 1227,-56.5 1134,-56.5"/>
<text text-anchor="middle" x="1180.5" y="-63.5" font-family="Helvetica" font-size="10.00">python/fitters.cpp</text>
</a>
</g>
</g>
<!-- Node3&#45;&gt;Node11 -->
<g id="edge21" class="edge">
<title>Node3&#45;&gt;Node11</title>
<path fill="none" stroke="midnightblue" d="M981.42,-247.89C1057.5,-244.42 1190.88,-233.48 1299.5,-199 1360.7,-179.57 1394.25,-186.93 1427.5,-132 1432.1,-124.4 1433.19,-118.83 1427.5,-112 1402.47,-82 1291.4,-71.95 1227.04,-68.62"/>
<polygon fill="midnightblue" stroke="midnightblue" points="980.91,-244.41 971.07,-248.34 981.21,-251.41 980.91,-244.41"/>
</g>
<!-- Node14 -->
<g id="node12" class="node">
<title>Node14</title>
<g id="a_node12"><a xlink:href="MCMCBase_8h.html" target="_top" xlink:title=" ">
<polygon fill="white" stroke="black" points="1180.5,-174 1180.5,-193 1290.5,-193 1290.5,-174 1180.5,-174"/>
<text text-anchor="middle" x="1235.5" y="-181" font-family="Helvetica" font-size="10.00">Fitters/MCMCBase.h</text>
</a>
</g>
</g>
<!-- Node3&#45;&gt;Node14 -->
<g id="edge14" class="edge">
<title>Node3&#45;&gt;Node14</title>
<path fill="none" stroke="midnightblue" d="M971.97,-238.88C1034.01,-226.08 1137.03,-204.82 1194.15,-193.03"/>
<polygon fill="midnightblue" stroke="midnightblue" points="971.09,-235.49 962,-240.94 972.51,-242.34 971.09,-235.49"/>
</g>
<!-- Node20 -->
<g id="node15" class="node">
<title>Node20</title>
<g id="a_node15"><a xlink:href="PredictiveThrower_8h.html" target="_top" xlink:title=" ">
<polygon fill="white" stroke="black" points="679.5,-174 679.5,-193 813.5,-193 813.5,-174 679.5,-174"/>
<text text-anchor="middle" x="746.5" y="-181" font-family="Helvetica" font-size="10.00">Fitters/PredictiveThrower.h</text>
</a>
</g>
</g>
<!-- Node3&#45;&gt;Node20 -->
<g id="edge19" class="edge">
<title>Node3&#45;&gt;Node20</title>
<path fill="none" stroke="midnightblue" d="M887.76,-237.27C853.23,-224.37 799.71,-204.38 769.42,-193.06"/>
<polygon fill="midnightblue" stroke="midnightblue" points="886.8,-240.65 897.39,-240.87 889.25,-234.09 886.8,-240.65"/>
</g>
<!-- Node6 -->
<g id="node6" class="node">
<title>Node6</title>
<g id="a_node6"><a xlink:href="LikelihoodFit_8cpp.html" target="_top" xlink:title=" ">
<polygon fill="white" stroke="black" points="941.5,-112.5 941.5,-131.5 1061.5,-131.5 1061.5,-112.5 941.5,-112.5"/>
<text text-anchor="middle" x="1001.5" y="-119.5" font-family="Helvetica" font-size="10.00">Fitters/LikelihoodFit.cpp</text>
</a>
</g>
</g>
<!-- Node5&#45;&gt;Node6 -->
<g id="edge5" class="edge">
<title>Node5&#45;&gt;Node6</title>
<path fill="none" stroke="midnightblue" d="M973.64,-165.51C980.93,-154.39 990.13,-140.34 995.92,-131.51"/>
<polygon fill="midnightblue" stroke="midnightblue" points="970.64,-163.69 968.09,-173.98 976.5,-167.53 970.64,-163.69"/>
</g>
<!-- Node5&#45;&gt;Node7 -->
<g id="edge6" class="edge">
<title>Node5&#45;&gt;Node7</title>
<path fill="none" stroke="midnightblue" d="M904.63,-171.1C880.6,-163.67 854.25,-151.56 836.5,-132 821.96,-115.98 818.51,-89.41 817.71,-75.73"/>
<polygon fill="midnightblue" stroke="midnightblue" points="903.82,-174.51 914.39,-173.92 905.76,-167.79 903.82,-174.51"/>
</g>
<!-- Node9 -->
<g id="node9" class="node">
<title>Node9</title>
<g id="a_node9"><a xlink:href="MinuitFit_8h.html" target="_top" xlink:title=" ">
<polygon fill="white" stroke="red" points="1080,-112.5 1080,-131.5 1173,-131.5 1173,-112.5 1080,-112.5"/>
<text text-anchor="middle" x="1126.5" y="-119.5" font-family="Helvetica" font-size="10.00">Fitters/MinuitFit.h</text>
</a>
</g>
</g>
<!-- Node5&#45;&gt;Node9 -->
<g id="edge8" class="edge">
<title>Node5&#45;&gt;Node9</title>
<path fill="none" stroke="midnightblue" d="M995.76,-170.43C1027.64,-158.87 1074.93,-141.71 1103.05,-131.51"/>
<polygon fill="midnightblue" stroke="midnightblue" points="994.2,-167.27 986,-173.98 996.59,-173.85 994.2,-167.27"/>
</g>
<!-- Node12 -->
<g id="node11" class="node">
<title>Node12</title>
<g id="a_node11"><a xlink:href="PSO_8h.html" target="_top" xlink:title=" ">
<polygon fill="white" stroke="red" points="846,-112.5 846,-131.5 923,-131.5 923,-112.5 846,-112.5"/>
<text text-anchor="middle" x="884.5" y="-119.5" font-family="Helvetica" font-size="10.00">Fitters/PSO.h</text>
</a>
</g>
</g>
<!-- Node5&#45;&gt;Node12 -->
<g id="edge10" class="edge">
<title>Node5&#45;&gt;Node12</title>
<path fill="none" stroke="midnightblue" d="M943.22,-167.79C928.26,-156.38 908.04,-140.96 895.65,-131.51"/>
<polygon fill="midnightblue" stroke="midnightblue" points="941.25,-170.69 951.32,-173.98 945.5,-165.13 941.25,-170.69"/>
</g>
<!-- Node8 -->
<g id="node8" class="node">
<title>Node8</title>
<g id="a_node8"><a xlink:href="MaCh3Factory_8cpp.html" target="_top" xlink:title=" ">
<polygon fill="white" stroke="black" points="752,-0.5 752,-19.5 883,-19.5 883,-0.5 752,-0.5"/>
<text text-anchor="middle" x="817.5" y="-7.5" font-family="Helvetica" font-size="10.00">Fitters/MaCh3Factory.cpp</text>
</a>
</g>
</g>
<!-- Node7&#45;&gt;Node8 -->
<g id="edge7" class="edge">
<title>Node7&#45;&gt;Node8</title>
<path fill="none" stroke="midnightblue" d="M817.5,-45.8C817.5,-36.91 817.5,-26.78 817.5,-19.75"/>
<polygon fill="midnightblue" stroke="midnightblue" points="814,-46.08 817.5,-56.08 821,-46.08 814,-46.08"/>
</g>
<!-- Node9&#45;&gt;Node11 -->
<g id="edge9" class="edge">
<title>Node9&#45;&gt;Node11</title>
<path fill="none" stroke="midnightblue" d="M1142.5,-105C1152.07,-95.43 1163.86,-83.64 1171.75,-75.75"/>
<polygon fill="midnightblue" stroke="midnightblue" points="1140.01,-102.54 1135.42,-112.08 1144.96,-107.49 1140.01,-102.54"/>
</g>
<!-- Node12&#45;&gt;Node7 -->
<g id="edge11" class="edge">
<title>Node12&#45;&gt;Node7</title>
<path fill="none" stroke="midnightblue" d="M865.67,-105.82C853.66,-96.15 838.53,-83.95 828.46,-75.83"/>
<polygon fill="midnightblue" stroke="midnightblue" points="863.75,-108.77 873.74,-112.32 868.15,-103.32 863.75,-108.77"/>
</g>
<!-- Node12&#45;&gt;Node11 -->
<g id="edge12" class="edge">
<title>Node12&#45;&gt;Node11</title>
<path fill="none" stroke="midnightblue" d="M933.28,-111.86C1009.58,-97.81 1086.15,-83.97 1133.86,-75.38"/>
<polygon fill="midnightblue" stroke="midnightblue" points="932.21,-108.5 923.01,-113.76 933.48,-115.39 932.21,-108.5"/>
</g>
<!-- Node15 -->
<g id="node13" class="node">
<title>Node15</title>
<g id="a_node13"><a xlink:href="MCMCBase_8cpp.html" target="_top" xlink:title=" ">
<polygon fill="white" stroke="black" points="1298,-112.5 1298,-131.5 1419,-131.5 1419,-112.5 1298,-112.5"/>
<text text-anchor="middle" x="1358.5" y="-119.5" font-family="Helvetica" font-size="10.00">Fitters/MCMCBase.cpp</text>
</a>
</g>
</g>
<!-- Node14&#45;&gt;Node15 -->
<g id="edge15" class="edge">
<title>Node14&#45;&gt;Node15</title>
<path fill="none" stroke="midnightblue" d="M1262.33,-169.52C1286.19,-157.98 1320.37,-141.44 1340.91,-131.51"/>
<polygon fill="midnightblue" stroke="midnightblue" points="1260.6,-166.47 1253.12,-173.98 1263.65,-172.77 1260.6,-166.47"/>
</g>
<!-- Node16 -->
<g id="node14" class="node">
<title>Node16</title>
<g id="a_node14"><a xlink:href="MR2T2_8h.html" target="_top" xlink:title=" ">
<polygon fill="white" stroke="red" points="1191,-112.5 1191,-131.5 1280,-131.5 1280,-112.5 1191,-112.5"/>
<text text-anchor="middle" x="1235.5" y="-119.5" font-family="Helvetica" font-size="10.00">Fitters/MR2T2.h</text>
</a>
</g>
</g>
<!-- Node14&#45;&gt;Node16 -->
<g id="edge16" class="edge">
<title>Node14&#45;&gt;Node16</title>
<path fill="none" stroke="midnightblue" d="M1235.5,-163.82C1235.5,-153 1235.5,-139.9 1235.5,-131.51"/>
<polygon fill="midnightblue" stroke="midnightblue" points="1232,-163.98 1235.5,-173.98 1239,-163.98 1232,-163.98"/>
</g>
<!-- Node16&#45;&gt;Node7 -->
<g id="edge17" class="edge">
<title>Node16&#45;&gt;Node7</title>
<path fill="none" stroke="midnightblue" d="M1180.54,-111.92C1067.75,-95.7 948.36,-81.65 878.15,-73.71"/>
<polygon fill="midnightblue" stroke="midnightblue" points="1180.34,-115.42 1190.73,-113.39 1181.34,-108.49 1180.34,-115.42"/>
</g>
<!-- Node16&#45;&gt;Node11 -->
<g id="edge18" class="edge">
<title>Node16&#45;&gt;Node11</title>
<path fill="none" stroke="midnightblue" d="M1219.21,-105C1209.46,-95.43 1197.45,-83.64 1189.41,-75.75"/>
<polygon fill="midnightblue" stroke="midnightblue" points="1216.83,-107.57 1226.42,-112.08 1221.73,-102.58 1216.83,-107.57"/>
</g>
<!-- Node21 -->
<g id="node16" class="node">
<title>Node21</title>
<g id="a_node16"><a xlink:href="PredictiveThrower_8cpp.html" target="_top" xlink:title=" ">
<polygon fill="white" stroke="black" points="477.5,-112.5 477.5,-131.5 621.5,-131.5 621.5,-112.5 477.5,-112.5"/>
<text text-anchor="middle" x="549.5" y="-119.5" font-family="Helvetica" font-size="10.00">Fitters/PredictiveThrower.cpp</text>
</a>
</g>
</g>
<!-- Node20&#45;&gt;Node21 -->
<g id="edge20" class="edge">
<title>Node20&#45;&gt;Node21</title>
<path fill="none" stroke="midnightblue" d="M708.52,-171.03C670.23,-159.46 612.03,-141.88 577.67,-131.51"/>
<polygon fill="midnightblue" stroke="midnightblue" points="707.69,-174.43 718.27,-173.98 709.71,-167.73 707.69,-174.43"/>
</g>
<!-- Node24 -->
<g id="node19" class="node">
<title>Node24</title>
<g id="a_node19"><a xlink:href="OscProcessor_8cpp.html" target="_top" xlink:title=" ">
<polygon fill="white" stroke="black" points="1750,-241 1750,-260 1879,-260 1879,-241 1750,-241"/>
<text text-anchor="middle" x="1814.5" y="-248" font-family="Helvetica" font-size="10.00">Fitters/OscProcessor.cpp</text>
</a>
</g>
</g>
<!-- Node23&#45;&gt;Node24 -->
<g id="edge24" class="edge">
<title>Node23&#45;&gt;Node24</title>
<path fill="none" stroke="midnightblue" d="M1814.5,-297.54C1814.5,-285.17 1814.5,-269.62 1814.5,-260.13"/>
<polygon fill="midnightblue" stroke="midnightblue" points="1811,-297.73 1814.5,-307.73 1818,-297.73 1811,-297.73"/>
</g>
<!-- Node25 -->
<g id="node20" class="node">
<title>Node25</title>
<g id="a_node20"><a xlink:href="ProcessMCMC_8cpp.html" target="_top" xlink:title="Main exectable responsible for different types of MCMC processing like drawing posteriors,...">
<polygon fill="white" stroke="black" points="1897,-241 1897,-260 2054,-260 2054,-241 1897,-241"/>
<text text-anchor="middle" x="1975.5" y="-248" font-family="Helvetica" font-size="10.00">Diagnostics/ProcessMCMC.cpp</text>
</a>
</g>
</g>
<!-- Node23&#45;&gt;Node25 -->
<g id="edge25" class="edge">
<title>Node23&#45;&gt;Node25</title>
<path fill="none" stroke="midnightblue" d="M1845.2,-304.1C1877.17,-291.2 1926.39,-271.33 1954.29,-260.06"/>
<polygon fill="midnightblue" stroke="midnightblue" points="1843.84,-300.88 1835.88,-307.87 1846.46,-307.37 1843.84,-300.88"/>
</g>
<!-- Node27 -->
<g id="node22" class="node">
<title>Node27</title>
<g id="a_node22"><a xlink:href="SampleSummary_8cpp.html" target="_top" xlink:title=" ">
<polygon fill="white" stroke="black" points="2072.5,-241 2072.5,-260 2214.5,-260 2214.5,-241 2072.5,-241"/>
<text text-anchor="middle" x="2143.5" y="-248" font-family="Helvetica" font-size="10.00">Fitters/SampleSummary.cpp</text>
</a>
</g>
</g>
<!-- Node26&#45;&gt;Node27 -->
<g id="edge27" class="edge">
<title>Node26&#45;&gt;Node27</title>
<path fill="none" stroke="midnightblue" d="M1992.02,-304.44C2028.92,-291.54 2086.49,-271.42 2118.99,-260.06"/>
<polygon fill="midnightblue" stroke="midnightblue" points="1990.48,-301.27 1982.2,-307.87 1992.79,-307.87 1990.48,-301.27"/>
</g>
<!-- Node33 -->
<g id="node28" class="node">
<title>Node33</title>
<g id="a_node28"><a xlink:href="inputManager_8cpp.html" target="_top" xlink:title=" ">
<polygon fill="white" stroke="black" points="1488.5,-235.5 1488.5,-265.5 1592.5,-265.5 1592.5,-235.5 1488.5,-235.5"/>
<text text-anchor="start" x="1496.5" y="-253.5" font-family="Helvetica" font-size="10.00">Plotting/plottingUtils</text>
<text text-anchor="middle" x="1540.5" y="-242.5" font-family="Helvetica" font-size="10.00">/inputManager.cpp</text>
</a>
</g>
</g>
<!-- Node32&#45;&gt;Node33 -->
<g id="edge33" class="edge">
<title>Node32&#45;&gt;Node33</title>
<path fill="none" stroke="midnightblue" d="M1529.73,-292.7C1532.11,-283.59 1534.75,-273.49 1536.82,-265.58"/>
<polygon fill="midnightblue" stroke="midnightblue" points="1526.33,-291.84 1527.19,-302.4 1533.11,-293.61 1526.33,-291.84"/>
</g>
<!-- Node34 -->
<g id="node29" class="node">
<title>Node34</title>
<g id="a_node29"><a xlink:href="plottingManager_8h.html" target="_top" xlink:title=" ">
<polygon fill="white" stroke="black" points="1627.5,-235.5 1627.5,-265.5 1731.5,-265.5 1731.5,-235.5 1627.5,-235.5"/>
<text text-anchor="start" x="1635.5" y="-253.5" font-family="Helvetica" font-size="10.00">Plotting/plottingUtils</text>
<text text-anchor="middle" x="1679.5" y="-242.5" font-family="Helvetica" font-size="10.00">/plottingManager.h</text>
</a>
</g>
</g>
<!-- Node32&#45;&gt;Node34 -->
<g id="edge34" class="edge">
<title>Node32&#45;&gt;Node34</title>
<path fill="none" stroke="midnightblue" d="M1566.59,-298.54C1591.56,-288.14 1622.53,-275.24 1645.72,-265.58"/>
<polygon fill="midnightblue" stroke="midnightblue" points="1565.23,-295.32 1557.35,-302.4 1567.93,-301.78 1565.23,-295.32"/>
</g>
<!-- Node41 -->
<g id="node36" class="node">
<title>Node41</title>
<g id="a_node36"><a xlink:href="plotting_8cpp.html" target="_top" xlink:title=" ">
<polygon fill="white" stroke="black" points="1411,-174 1411,-193 1510,-193 1510,-174 1411,-174"/>
<text text-anchor="middle" x="1460.5" y="-181" font-family="Helvetica" font-size="10.00">python/plotting.cpp</text>
</a>
</g>
</g>
<!-- Node32&#45;&gt;Node41 -->
<g id="edge42" class="edge">
<title>Node32&#45;&gt;Node41</title>
<path fill="none" stroke="midnightblue" d="M1500.89,-295.27C1493.08,-286.84 1484.93,-276.62 1479.5,-266 1466.93,-241.42 1462.55,-208.43 1461.13,-193.06"/>
<polygon fill="midnightblue" stroke="midnightblue" points="1498.4,-297.74 1507.88,-302.48 1503.43,-292.86 1498.4,-297.74"/>
</g>
<!-- Node35 -->
<g id="node30" class="node">
<title>Node35</title>
<g id="a_node30"><a xlink:href="GetPostfitParamPlots_8cpp.html" target="_top" xlink:title=" ">
<polygon fill="white" stroke="black" points="2116,-168.5 2116,-198.5 2241,-198.5 2241,-168.5 2116,-168.5"/>
<text text-anchor="start" x="2124" y="-186.5" font-family="Helvetica" font-size="10.00">Plotting/GetPostfitParam</text>
<text text-anchor="middle" x="2178.5" y="-175.5" font-family="Helvetica" font-size="10.00">Plots.cpp</text>
</a>
</g>
</g>
<!-- Node34&#45;&gt;Node35 -->
<g id="edge35" class="edge">
<title>Node34&#45;&gt;Node35</title>
<path fill="none" stroke="midnightblue" d="M1741.7,-235.13C1904.49,-208.9 1949.03,-222.91 2107.5,-199 2110.24,-198.59 2113.03,-198.14 2115.84,-197.66"/>
<polygon fill="midnightblue" stroke="midnightblue" points="1741.14,-231.68 1731.83,-236.75 1742.27,-238.59 1741.14,-231.68"/>
</g>
<!-- Node36 -->
<g id="node31" class="node">
<title>Node36</title>
<g id="a_node31"><a xlink:href="MatrixPlotter_8cpp.html" target="_top" xlink:title=" ">
<polygon fill="white" stroke="black" points="2259,-174 2259,-193 2386,-193 2386,-174 2259,-174"/>
<text text-anchor="middle" x="2322.5" y="-181" font-family="Helvetica" font-size="10.00">Plotting/MatrixPlotter.cpp</text>
</a>
</g>
</g>
<!-- Node34&#45;&gt;Node36 -->
<g id="edge36" class="edge">
<title>Node34&#45;&gt;Node36</title>
<path fill="none" stroke="midnightblue" d="M1741.99,-235.12C1967.53,-201.89 2029.06,-229 2250.5,-199 2261.75,-197.48 2273.87,-195.26 2284.91,-193.02"/>
<polygon fill="midnightblue" stroke="midnightblue" points="1741.19,-231.71 1731.82,-236.65 1742.22,-238.63 1741.19,-231.71"/>
</g>
<!-- Node37 -->
<g id="node32" class="node">
<title>Node37</title>
<g id="a_node32"><a xlink:href="PlotLLH_8cpp.html" target="_top" xlink:title=" ">
<polygon fill="white" stroke="black" points="1528,-174 1528,-193 1635,-193 1635,-174 1528,-174"/>
<text text-anchor="middle" x="1581.5" y="-181" font-family="Helvetica" font-size="10.00">Plotting/PlotLLH.cpp</text>
</a>
</g>
</g>
<!-- Node34&#45;&gt;Node37 -->
<g id="edge37" class="edge">
<title>Node34&#45;&gt;Node37</title>
<path fill="none" stroke="midnightblue" d="M1649.81,-229.81C1631.27,-217.51 1608.34,-202.3 1594.33,-193.01"/>
<polygon fill="midnightblue" stroke="midnightblue" points="1647.97,-232.79 1658.24,-235.4 1651.84,-226.95 1647.97,-232.79"/>
</g>
<!-- Node38 -->
<g id="node33" class="node">
<title>Node38</title>
<g id="a_node33"><a xlink:href="PlotSigmaVariation_8cpp.html" target="_top" xlink:title=" ">
<polygon fill="white" stroke="black" points="1653.5,-174 1653.5,-193 1807.5,-193 1807.5,-174 1653.5,-174"/>
<text text-anchor="middle" x="1730.5" y="-181" font-family="Helvetica" font-size="10.00">Plotting/PlotSigmaVariation.cpp</text>
</a>
</g>
</g>
<!-- Node34&#45;&gt;Node38 -->
<g id="edge38" class="edge">
<title>Node34&#45;&gt;Node38</title>
<path fill="none" stroke="midnightblue" d="M1696.91,-227.32C1706.1,-215.6 1716.86,-201.88 1723.68,-193.19"/>
<polygon fill="midnightblue" stroke="midnightblue" points="1693.99,-225.37 1690.57,-235.4 1699.49,-229.69 1693.99,-225.37"/>
</g>
<!-- Node39 -->
<g id="node34" class="node">
<title>Node39</title>
<g id="a_node34"><a xlink:href="PredictivePlotting_8cpp.html" target="_top" xlink:title=" ">
<polygon fill="white" stroke="black" points="1826,-174 1826,-193 1973,-193 1973,-174 1826,-174"/>
<text text-anchor="middle" x="1899.5" y="-181" font-family="Helvetica" font-size="10.00">Plotting/PredictivePlotting.cpp</text>
</a>
</g>
</g>
<!-- Node34&#45;&gt;Node39 -->
<g id="edge39" class="edge">
<title>Node34&#45;&gt;Node39</title>
<path fill="none" stroke="midnightblue" d="M1736.73,-232.59C1779.7,-219.9 1836.74,-203.04 1870.63,-193.03"/>
<polygon fill="midnightblue" stroke="midnightblue" points="1735.56,-229.29 1726.97,-235.48 1737.55,-236 1735.56,-229.29"/>
</g>
<!-- Node40 -->
<g id="node35" class="node">
<title>Node40</title>
<g id="a_node35"><a xlink:href="plottingManager_8cpp.html" target="_top" xlink:title=" ">
<polygon fill="white" stroke="black" points="1991,-168.5 1991,-198.5 2098,-198.5 2098,-168.5 1991,-168.5"/>
<text text-anchor="start" x="1999" y="-186.5" font-family="Helvetica" font-size="10.00">Plotting/plottingUtils</text>
<text text-anchor="middle" x="2044.5" y="-175.5" font-family="Helvetica" font-size="10.00">/plottingManager.cpp</text>
</a>
</g>
</g>
<!-- Node34&#45;&gt;Node40 -->
<g id="edge40" class="edge">
<title>Node34&#45;&gt;Node40</title>
<path fill="none" stroke="midnightblue" d="M1741.19,-235.06C1741.3,-235.04 1741.4,-235.02 1741.5,-235 1847.87,-214.65 1876.13,-219.35 1982.5,-199 1985.21,-198.48 1987.99,-197.92 1990.79,-197.34"/>
<polygon fill="midnightblue" stroke="midnightblue" points="1740.64,-231.6 1731.53,-237.01 1742.02,-238.46 1740.64,-231.6"/>
</g>
<!-- Node34&#45;&gt;Node41 -->
<g id="edge41" class="edge">
<title>Node34&#45;&gt;Node41</title>
<path fill="none" stroke="midnightblue" d="M1622.53,-232.59C1579.76,-219.9 1522.98,-203.04 1489.24,-193.03"/>
<polygon fill="midnightblue" stroke="midnightblue" points="1621.67,-235.99 1632.25,-235.48 1623.66,-229.28 1621.67,-235.99"/>
</g>
<!-- Node44 -->
<g id="node39" class="node">
<title>Node44</title>
<g id="a_node39"><a xlink:href="AdaptiveMCMCHandler_8cpp.html" target="_top" xlink:title=" ">
<polygon fill="white" stroke="black" points="333,-308 333,-327 524,-327 524,-308 333,-308"/>
<text text-anchor="middle" x="428.5" y="-315" font-family="Helvetica" font-size="10.00">Parameters/AdaptiveMCMCHandler.cpp</text>
</a>
</g>
</g>
<!-- Node43&#45;&gt;Node44 -->
<g id="edge45" class="edge">
<title>Node43&#45;&gt;Node44</title>
<path fill="none" stroke="midnightblue" d="M538.25,-365.48C511.25,-353.92 471.9,-337.08 448.38,-327.01"/>
<polygon fill="midnightblue" stroke="midnightblue" points="537.01,-368.76 547.58,-369.48 539.77,-362.32 537.01,-368.76"/>
</g>
<!-- Node43&#45;&gt;Node45 -->
<g id="edge46" class="edge">
<title>Node43&#45;&gt;Node45</title>
<path fill="none" stroke="midnightblue" d="M581.06,-361.53C588.57,-352.42 597.79,-341.21 604.95,-332.52"/>
<polygon fill="midnightblue" stroke="midnightblue" points="578.18,-359.53 574.52,-369.48 583.58,-363.98 578.18,-359.53"/>
</g>
<!-- Node45&#45;&gt;Node3 -->
<g id="edge47" class="edge">
<title>Node45&#45;&gt;Node3</title>
<path fill="none" stroke="midnightblue" d="M692.23,-300.31C751.96,-287.54 832.89,-270.23 880.61,-260.03"/>
<polygon fill="midnightblue" stroke="midnightblue" points="691.14,-296.96 682.09,-302.48 692.6,-303.81 691.14,-296.96"/>
</g>
<!-- Node46 -->
<g id="node41" class="node">
<title>Node46</title>
<g id="a_node41"><a xlink:href="ParameterHandlerBase_8cpp.html" target="_top" xlink:title=" ">
<polygon fill="white" stroke="black" points="227,-235.5 227,-265.5 376,-265.5 376,-235.5 227,-235.5"/>
<text text-anchor="start" x="235" y="-253.5" font-family="Helvetica" font-size="10.00">Parameters/ParameterHandler</text>
<text text-anchor="middle" x="301.5" y="-242.5" font-family="Helvetica" font-size="10.00">Base.cpp</text>
</a>
</g>
</g>
<!-- Node45&#45;&gt;Node46 -->
<g id="edge48" class="edge">
<title>Node45&#45;&gt;Node46</title>
<path fill="none" stroke="midnightblue" d="M538.72,-300.45C486.86,-289.75 419.35,-275.82 369.61,-265.55"/>
<polygon fill="midnightblue" stroke="midnightblue" points="538.04,-303.88 548.54,-302.48 539.45,-297.03 538.04,-303.88"/>
</g>
<!-- Node47 -->
<g id="node42" class="node">
<title>Node47</title>
<g id="a_node42"><a xlink:href="ParameterHandlerGeneric_8h.html" target="_top" xlink:title=" ">
<polygon fill="white" stroke="black" points="394,-235.5 394,-265.5 543,-265.5 543,-235.5 394,-235.5"/>
<text text-anchor="start" x="402" y="-253.5" font-family="Helvetica" font-size="10.00">Parameters/ParameterHandler</text>
<text text-anchor="middle" x="468.5" y="-242.5" font-family="Helvetica" font-size="10.00">Generic.h</text>
</a>
</g>
</g>
<!-- Node45&#45;&gt;Node47 -->
<g id="edge49" class="edge">
<title>Node45&#45;&gt;Node47</title>
<path fill="none" stroke="midnightblue" d="M574.99,-298.27C551.42,-287.92 522.36,-275.15 500.55,-265.58"/>
<polygon fill="midnightblue" stroke="midnightblue" points="573.82,-301.58 584.39,-302.4 576.64,-295.17 573.82,-301.58"/>
</g>
<!-- Node60 -->
<g id="node46" class="node">
<title>Node60</title>
<g id="a_node46"><a xlink:href="parameters_8cpp.html" target="_top" xlink:title=" ">
<polygon fill="white" stroke="black" points="0,-174 0,-193 117,-193 117,-174 0,-174"/>
<text text-anchor="middle" x="58.5" y="-181" font-family="Helvetica" font-size="10.00">python/parameters.cpp</text>
</a>
</g>
</g>
<!-- Node45&#45;&gt;Node60 -->
<g id="edge58" class="edge">
<title>Node45&#45;&gt;Node60</title>
<path fill="none" stroke="midnightblue" d="M531.59,-301.96C391.06,-283.13 349.22,-305.84 217.5,-266 159.6,-248.49 97.65,-210.37 71.42,-193.19"/>
<polygon fill="midnightblue" stroke="midnightblue" points="531.49,-305.48 541.88,-303.39 532.46,-298.55 531.49,-305.48"/>
</g>
<!-- Node47&#45;&gt;Node7 -->
<g id="edge54" class="edge">
<title>Node47&#45;&gt;Node7</title>
<path fill="none" stroke="midnightblue" d="M459.98,-225.57C450.88,-195.23 441.14,-143.11 468.5,-112 487.21,-90.72 662.05,-76.65 756.93,-70.52"/>
<polygon fill="midnightblue" stroke="midnightblue" points="456.73,-226.88 463.12,-235.33 463.39,-224.74 456.73,-226.88"/>
</g>
<!-- Node47&#45;&gt;Node21 -->
<g id="edge55" class="edge">
<title>Node47&#45;&gt;Node21</title>
<path fill="none" stroke="midnightblue" d="M477.25,-225.56C483.97,-208.71 494.17,-186.04 506.5,-168 516.13,-153.9 530.25,-140.07 539.66,-131.54"/>
<polygon fill="midnightblue" stroke="midnightblue" points="473.86,-224.62 473.53,-235.21 480.39,-227.14 473.86,-224.62"/>
</g>
<!-- Node48 -->
<g id="node43" class="node">
<title>Node48</title>
<g id="a_node43"><a xlink:href="SplineStructs_8h.html" target="_top" xlink:title="Contains structures and helper functions for handling spline representations of systematic parameters...">
<polygon fill="white" stroke="red" points="135,-174 135,-193 254,-193 254,-174 135,-174"/>
<text text-anchor="middle" x="194.5" y="-181" font-family="Helvetica" font-size="10.00">Splines/SplineStructs.h</text>
</a>
</g>
</g>
<!-- Node47&#45;&gt;Node48 -->
<g id="edge50" class="edge">
<title>Node47&#45;&gt;Node48</title>
<path fill="none" stroke="midnightblue" d="M399.57,-233.15C345.81,-220.39 273.29,-203.19 230.45,-193.03"/>
<polygon fill="midnightblue" stroke="midnightblue" points="398.85,-236.57 409.38,-235.48 400.46,-229.76 398.85,-236.57"/>
</g>
<!-- Node52 -->
<g id="node44" class="node">
<title>Node52</title>
<g id="a_node44"><a xlink:href="SampleHandlerFD_8h.html" target="_top" xlink:title=" ">
<polygon fill="white" stroke="red" points="515.5,-174 515.5,-193 661.5,-193 661.5,-174 515.5,-174"/>
<text text-anchor="middle" x="588.5" y="-181" font-family="Helvetica" font-size="10.00">Samples/SampleHandlerFD.h</text>
</a>
</g>
</g>
<!-- Node47&#45;&gt;Node52 -->
<g id="edge51" class="edge">
<title>Node47&#45;&gt;Node52</title>
<path fill="none" stroke="midnightblue" d="M503.63,-230.47C526.54,-218.06 555.32,-202.47 572.79,-193.01"/>
<polygon fill="midnightblue" stroke="midnightblue" points="501.66,-227.56 494.54,-235.4 505,-233.71 501.66,-227.56"/>
</g>
<!-- Node59 -->
<g id="node45" class="node">
<title>Node59</title>
<g id="a_node45"><a xlink:href="ParameterHandlerGeneric_8cpp.html" target="_top" xlink:title=" ">
<polygon fill="white" stroke="black" points="272,-168.5 272,-198.5 421,-198.5 421,-168.5 272,-168.5"/>
<text text-anchor="start" x="280" y="-186.5" font-family="Helvetica" font-size="10.00">Parameters/ParameterHandler</text>
<text text-anchor="middle" x="346.5" y="-175.5" font-family="Helvetica" font-size="10.00">Generic.cpp</text>
</a>
</g>
</g>
<!-- Node47&#45;&gt;Node59 -->
<g id="edge56" class="edge">
<title>Node47&#45;&gt;Node59</title>
<path fill="none" stroke="midnightblue" d="M432.98,-230.57C413.79,-220.35 390.5,-207.94 372.92,-198.58"/>
<polygon fill="midnightblue" stroke="midnightblue" points="431.56,-233.78 442.03,-235.4 434.85,-227.6 431.56,-233.78"/>
</g>
<!-- Node47&#45;&gt;Node60 -->
<g id="edge57" class="edge">
<title>Node47&#45;&gt;Node60</title>
<path fill="none" stroke="midnightblue" d="M383.89,-234.94C267.98,-217.22 236.8,-218.75 125.5,-199 115.77,-197.27 105.31,-195.14 95.61,-193.05"/>
<polygon fill="midnightblue" stroke="midnightblue" points="383.45,-238.42 393.87,-236.49 384.52,-231.5 383.45,-238.42"/>
</g>
<!-- Node52&#45;&gt;Node4 -->
<g id="edge52" class="edge">
<title>Node52&#45;&gt;Node4</title>
<path fill="none" stroke="midnightblue" d="M612.68,-169.06C633.38,-157.54 662.57,-141.31 680.2,-131.51"/>
<polygon fill="midnightblue" stroke="midnightblue" points="610.87,-166.06 603.83,-173.98 614.27,-172.17 610.87,-166.06"/>
</g>
<!-- Node52&#45;&gt;Node21 -->
<g id="edge53" class="edge">
<title>Node52&#45;&gt;Node21</title>
<path fill="none" stroke="midnightblue" d="M577.36,-165.51C570.07,-154.39 560.87,-140.34 555.08,-131.51"/>
<polygon fill="midnightblue" stroke="midnightblue" points="574.5,-167.53 582.91,-173.98 580.36,-163.69 574.5,-167.53"/>
</g>
<!-- Node61&#45;&gt;Node45 -->
<g id="edge61" class="edge">
<title>Node61&#45;&gt;Node45</title>
<path fill="none" stroke="midnightblue" d="M754.91,-366.1C726.76,-356.42 686.97,-342.74 657.27,-332.52"/>
<polygon fill="midnightblue" stroke="midnightblue" points="754.12,-369.53 764.71,-369.48 756.4,-362.91 754.12,-369.53"/>
</g>
<!-- Node62 -->
<g id="node48" class="node">
<title>Node62</title>
<g id="a_node48"><a xlink:href="ParameterTunes_8cpp.html" target="_top" xlink:title=" ">
<polygon fill="white" stroke="black" points="709,-308 709,-327 870,-327 870,-308 709,-308"/>
<text text-anchor="middle" x="789.5" y="-315" font-family="Helvetica" font-size="10.00">Parameters/ParameterTunes.cpp</text>
</a>
</g>
</g>
<!-- Node61&#45;&gt;Node62 -->
<g id="edge62" class="edge">
<title>Node61&#45;&gt;Node62</title>
<path fill="none" stroke="midnightblue" d="M789.5,-359.32C789.5,-348.5 789.5,-335.4 789.5,-327.01"/>
<polygon fill="midnightblue" stroke="midnightblue" points="786,-359.48 789.5,-369.48 793,-359.48 786,-359.48"/>
</g>
<!-- Node63&#45;&gt;Node45 -->
<g id="edge64" class="edge">
<title>Node63&#45;&gt;Node45</title>
<path fill="none" stroke="midnightblue" d="M891.76,-367.68C836.17,-357.75 751.83,-342.68 691.16,-331.84"/>
<polygon fill="midnightblue" stroke="midnightblue" points="891.33,-371.16 901.79,-369.48 892.56,-364.27 891.33,-371.16"/>
</g>
<!-- Node64 -->
<g id="node50" class="node">
<title>Node64</title>
<g id="a_node50"><a xlink:href="PCAHandler_8cpp.html" target="_top" xlink:title=" ">
<polygon fill="white" stroke="black" points="888,-308 888,-327 1031,-327 1031,-308 888,-308"/>
<text text-anchor="middle" x="959.5" y="-315" font-family="Helvetica" font-size="10.00">Parameters/PCAHandler.cpp</text>
</a>
</g>
</g>
<!-- Node63&#45;&gt;Node64 -->
<g id="edge65" class="edge">
<title>Node63&#45;&gt;Node64</title>
<path fill="none" stroke="midnightblue" d="M952.64,-359.32C954.46,-348.5 956.66,-335.4 958.07,-327.01"/>
<polygon fill="midnightblue" stroke="midnightblue" points="949.14,-359.03 950.93,-369.48 956.04,-360.19 949.14,-359.03"/>
</g>
</g>
</svg>
        <g id="navigator" transform="translate(0 0)" fill="#404254">
                <rect fill="#f2f5e9" fill-opacity="0.5" stroke="#606060" stroke-width=".5" x="0" y="0" width="60" height="60"/>
                <use id="zoomplus" xlink:href="#zoomPlus" x="17" y="9" onmousedown="handleZoom(evt,'in')"/>
                <use id="zoomminus" xlink:href="#zoomMin" x="42" y="9" onmousedown="handleZoom(evt,'out')"/>
                <use id="reset" xlink:href="#resetDef" x="30" y="36" onmousedown="handleReset()"/>
                <g id="arrowUp" xlink:href="#dirArrow" transform="translate(30 24)" onmousedown="handlePan(0,-1)">
                  <use xlink:href="#rim" fill="#404040">
                        <set attributeName="fill" to="#808080" begin="arrowUp.mouseover" end="arrowUp.mouseout"/>
                  </use>
                  <path fill="none" stroke="white" stroke-width="1.5" d="M0,-3.0v7 M-2.5,-0.5L0,-3.0L2.5,-0.5"/>
                </g>
                <g id="arrowRight" xlink:href="#dirArrow" transform="rotate(90) translate(36 -43)" onmousedown="handlePan(1,0)">
                  <use xlink:href="#rim" fill="#404040">
                        <set attributeName="fill" to="#808080" begin="arrowRight.mouseover" end="arrowRight.mouseout"/>
                  </use>
                  <path fill="none" stroke="white" stroke-width="1.5" d="M0,-3.0v7 M-2.5,-0.5L0,-3.0L2.5,-0.5"/>
                </g>
                <g id="arrowDown" xlink:href="#dirArrow" transform="rotate(180) translate(-30 -48)" onmousedown="handlePan(0,1)">
                  <use xlink:href="#rim" fill="#404040">
                        <set attributeName="fill" to="#808080" begin="arrowDown.mouseover" end="arrowDown.mouseout"/>
                  </use>
                  <path fill="none" stroke="white" stroke-width="1.5" d="M0,-3.0v7 M-2.5,-0.5L0,-3.0L2.5,-0.5"/>
                </g>
                <g id="arrowLeft" xlink:href="#dirArrow" transform="rotate(270) translate(-36 17)" onmousedown="handlePan(-1,0)">
                  <use xlink:href="#rim" fill="#404040">
                        <set attributeName="fill" to="#808080" begin="arrowLeft.mouseover" end="arrowLeft.mouseout"/>
                  </use>
                  <path fill="none" stroke="white" stroke-width="1.5" d="M0,-3.0v7 M-2.5,-0.5L0,-3.0L2.5,-0.5"/>
                </g>
        </g>
        <svg viewBox="0 0 15 15" width="100%" height="30px" preserveAspectRatio="xMaxYMin meet">
         <g id="arrow_out" transform="scale(0.3 0.3)">
          <a xlink:href="ParameterHandlerUtils_8h__dep__incl_org.svg" target="_base">
           <rect id="button" ry="5" rx="5" y="6" x="6" height="38" width="38"
                fill="#f2f5e9" fill-opacity="0.5" stroke="#606060" stroke-width="1.0"/>
           <path id="arrow"
             d="M 11.500037,31.436501 C 11.940474,20.09759 22.043105,11.32322 32.158766,21.979434 L 37.068811,17.246167 C 37.068811,17.246167 37.088388,32 37.088388,32 L 22.160133,31.978069 C 22.160133,31.978069 26.997745,27.140456 26.997745,27.140456 C 18.528582,18.264221 13.291696,25.230495 11.500037,31.436501 z"
             style="fill:#404040;"/>
          </a>
         </g>
        </svg>
</svg>
