<?xml version="1.0" encoding="UTF-8" standalone="no"?>
<!DOCTYPE svg PUBLIC "-//W3C//DTD SVG 1.1//EN"
 "http://www.w3.org/Graphics/SVG/1.1/DTD/svg11.dtd">
<!-- Generated by graphviz version 2.44.0 (0)
 -->
<!-- Title: Plotting/plottingUtils/plottingUtils.h Pages: 1 -->
<svg width="983pt" height="240pt"
 viewBox="0.00 0.00 983.00 240.00" xmlns="http://www.w3.org/2000/svg" xmlns:xlink="http://www.w3.org/1999/xlink">
<g id="graph0" class="graph" transform="scale(1 1) rotate(0) translate(4 236)">
<title>Plotting/plottingUtils/plottingUtils.h</title>
<polygon fill="white" stroke="transparent" points="-4,4 -4,-236 979,-236 979,4 -4,4"/>
<!-- Node1 -->
<g id="node1" class="node">
<title>Node1</title>
<g id="a_node1"><a xlink:title=" ">
<polygon fill="#bfbfbf" stroke="black" points="351.5,-201.5 351.5,-231.5 455.5,-231.5 455.5,-201.5 351.5,-201.5"/>
<text text-anchor="start" x="359.5" y="-219.5" font-family="Helvetica" font-size="10.00">Plotting/plottingUtils</text>
<text text-anchor="middle" x="403.5" y="-208.5" font-family="Helvetica" font-size="10.00">/plottingUtils.h</text>
</a>
</g>
</g>
<!-- Node2 -->
<g id="node2" class="node">
<title>Node2</title>
<g id="a_node2"><a xlink:href="GetPostfitParamPlots_8cpp.html" target="_top" xlink:title=" ">
<polygon fill="white" stroke="black" points="0,-0.5 0,-30.5 125,-30.5 125,-0.5 0,-0.5"/>
<text text-anchor="start" x="8" y="-18.5" font-family="Helvetica" font-size="10.00">Plotting/GetPostfitParam</text>
<text text-anchor="middle" x="62.5" y="-7.5" font-family="Helvetica" font-size="10.00">Plots.cpp</text>
</a>
</g>
</g>
<!-- Node1&#45;&gt;Node2 -->
<g id="edge1" class="edge">
<title>Node1&#45;&gt;Node2</title>
<path fill="none" stroke="midnightblue" d="M370.61,-196.3C302.41,-156.51 146.96,-65.79 86.86,-30.71"/>
<polygon fill="midnightblue" stroke="midnightblue" points="368.85,-199.33 379.25,-201.35 372.38,-193.28 368.85,-199.33"/>
</g>
<!-- Node3 -->
<g id="node3" class="node">
<title>Node3</title>
<g id="a_node3"><a xlink:href="MatrixPlotter_8cpp.html" target="_top" xlink:title=" ">
<polygon fill="white" stroke="black" points="143,-6 143,-25 270,-25 270,-6 143,-6"/>
<text text-anchor="middle" x="206.5" y="-13" font-family="Helvetica" font-size="10.00">Plotting/MatrixPlotter.cpp</text>
</a>
</g>
</g>
<!-- Node1&#45;&gt;Node3 -->
<g id="edge2" class="edge">
<title>Node1&#45;&gt;Node3</title>
<path fill="none" stroke="midnightblue" d="M382.21,-194C339.41,-150.76 244.54,-54.93 215.27,-25.36"/>
<polygon fill="midnightblue" stroke="midnightblue" points="379.81,-196.54 389.33,-201.19 384.78,-191.62 379.81,-196.54"/>
</g>
<!-- Node4 -->
<g id="node4" class="node">
<title>Node4</title>
<g id="a_node4"><a xlink:href="PlotSigmaVariation_8cpp.html" target="_top" xlink:title=" ">
<polygon fill="white" stroke="black" points="288.5,-6 288.5,-25 442.5,-25 442.5,-6 288.5,-6"/>
<text text-anchor="middle" x="365.5" y="-13" font-family="Helvetica" font-size="10.00">Plotting/PlotSigmaVariation.cpp</text>
</a>
</g>
</g>
<!-- Node1&#45;&gt;Node4 -->
<g id="edge3" class="edge">
<title>Node1&#45;&gt;Node4</title>
<path fill="none" stroke="midnightblue" d="M396.29,-191.6C393.93,-183.24 391.41,-173.75 389.5,-165 378,-112.44 369.47,-48.31 366.57,-25.27"/>
<polygon fill="midnightblue" stroke="midnightblue" points="393.01,-192.83 399.16,-201.45 399.73,-190.88 393.01,-192.83"/>
</g>
<!-- Node5 -->
<g id="node5" class="node">
<title>Node5</title>
<g id="a_node5"><a xlink:href="PredictivePlotting_8cpp.html" target="_top" xlink:title=" ">
<polygon fill="white" stroke="black" points="461,-6 461,-25 608,-25 608,-6 461,-6"/>
<text text-anchor="middle" x="534.5" y="-13" font-family="Helvetica" font-size="10.00">Plotting/PredictivePlotting.cpp</text>
</a>
</g>
</g>
<!-- Node1&#45;&gt;Node5 -->
<g id="edge4" class="edge">
<title>Node1&#45;&gt;Node5</title>
<path fill="none" stroke="midnightblue" d="M399.84,-190.98C396.49,-159.17 395.53,-103.44 422.5,-67 438.93,-44.8 467.4,-32.14 491.52,-25.04"/>
<polygon fill="midnightblue" stroke="midnightblue" points="396.4,-191.66 401.09,-201.16 403.35,-190.81 396.4,-191.66"/>
</g>
<!-- Node6 -->
<g id="node6" class="node">
<title>Node6</title>
<g id="a_node6"><a xlink:href="inputManager_8h.html" target="_top" xlink:title=" ">
<polygon fill="white" stroke="black" points="492.5,-134.5 492.5,-164.5 596.5,-164.5 596.5,-134.5 492.5,-134.5"/>
<text text-anchor="start" x="500.5" y="-152.5" font-family="Helvetica" font-size="10.00">Plotting/plottingUtils</text>
<text text-anchor="middle" x="544.5" y="-141.5" font-family="Helvetica" font-size="10.00">/inputManager.h</text>
</a>
</g>
</g>
<!-- Node1&#45;&gt;Node6 -->
<g id="edge5" class="edge">
<title>Node1&#45;&gt;Node6</title>
<path fill="none" stroke="midnightblue" d="M443.35,-197.13C465.75,-186.8 493.28,-174.11 513.96,-164.58"/>
<polygon fill="midnightblue" stroke="midnightblue" points="441.71,-194.03 434.09,-201.4 444.64,-200.39 441.71,-194.03"/>
</g>
<!-- Node11 -->
<g id="node11" class="node">
<title>Node11</title>
<g id="a_node11"><a xlink:href="plotting_8cpp.html" target="_top" xlink:title=" ">
<polygon fill="white" stroke="black" points="876,-6 876,-25 975,-25 975,-6 876,-6"/>
<text text-anchor="middle" x="925.5" y="-13" font-family="Helvetica" font-size="10.00">python/plotting.cpp</text>
</a>
</g>
</g>
<!-- Node1&#45;&gt;Node11 -->
<g id="edge17" class="edge">
<title>Node1&#45;&gt;Node11</title>
<path fill="none" stroke="midnightblue" d="M465.75,-203.14C506.15,-194.34 559.63,-181.21 605.5,-165 726.77,-122.14 864.41,-49.67 909.96,-25.01"/>
<polygon fill="midnightblue" stroke="midnightblue" points="464.82,-199.76 455.77,-205.28 466.29,-206.6 464.82,-199.76"/>
</g>
<!-- Node12 -->
<g id="node12" class="node">
<title>Node12</title>
<g id="a_node12"><a xlink:href="plottingUtils_8cpp.html" target="_top" xlink:title=" ">
<polygon fill="white" stroke="black" points="751.5,-134.5 751.5,-164.5 855.5,-164.5 855.5,-134.5 751.5,-134.5"/>
<text text-anchor="start" x="759.5" y="-152.5" font-family="Helvetica" font-size="10.00">Plotting/plottingUtils</text>
<text text-anchor="middle" x="803.5" y="-141.5" font-family="Helvetica" font-size="10.00">/plottingUtils.cpp</text>
</a>
</g>
</g>
<!-- Node1&#45;&gt;Node12 -->
<g id="edge16" class="edge">
<title>Node1&#45;&gt;Node12</title>
<path fill="none" stroke="midnightblue" d="M465.75,-207.34C532.99,-198.24 643.16,-182.48 737.5,-165 742,-164.17 746.66,-163.25 751.33,-162.3"/>
<polygon fill="midnightblue" stroke="midnightblue" points="465.19,-203.89 455.75,-208.69 466.12,-210.82 465.19,-203.89"/>
</g>
<!-- Node7 -->
<g id="node7" class="node">
<title>Node7</title>
<g id="a_node7"><a xlink:href="inputManager_8cpp.html" target="_top" xlink:title=" ">
<polygon fill="white" stroke="black" points="431.5,-67.5 431.5,-97.5 535.5,-97.5 535.5,-67.5 431.5,-67.5"/>
<text text-anchor="start" x="439.5" y="-85.5" font-family="Helvetica" font-size="10.00">Plotting/plottingUtils</text>
<text text-anchor="middle" x="483.5" y="-74.5" font-family="Helvetica" font-size="10.00">/inputManager.cpp</text>
</a>
</g>
</g>
<!-- Node6&#45;&gt;Node7 -->
<g id="edge6" class="edge">
<title>Node6&#45;&gt;Node7</title>
<path fill="none" stroke="midnightblue" d="M524.35,-127.02C515.26,-117.34 504.78,-106.17 496.71,-97.58"/>
<polygon fill="midnightblue" stroke="midnightblue" points="521.87,-129.5 531.26,-134.4 526.97,-124.71 521.87,-129.5"/>
</g>
<!-- Node8 -->
<g id="node8" class="node">
<title>Node8</title>
<g id="a_node8"><a xlink:href="plottingManager_8h.html" target="_top" xlink:title=" ">
<polygon fill="white" stroke="black" points="553.5,-67.5 553.5,-97.5 657.5,-97.5 657.5,-67.5 553.5,-67.5"/>
<text text-anchor="start" x="561.5" y="-85.5" font-family="Helvetica" font-size="10.00">Plotting/plottingUtils</text>
<text text-anchor="middle" x="605.5" y="-74.5" font-family="Helvetica" font-size="10.00">/plottingManager.h</text>
</a>
</g>
</g>
<!-- Node6&#45;&gt;Node8 -->
<g id="edge7" class="edge">
<title>Node6&#45;&gt;Node8</title>
<path fill="none" stroke="midnightblue" d="M564.65,-127.02C573.74,-117.34 584.22,-106.17 592.29,-97.58"/>
<polygon fill="midnightblue" stroke="midnightblue" points="562.03,-124.71 557.74,-134.4 567.13,-129.5 562.03,-124.71"/>
</g>
<!-- Node6&#45;&gt;Node11 -->
<g id="edge15" class="edge">
<title>Node6&#45;&gt;Node11</title>
<path fill="none" stroke="midnightblue" d="M594.29,-130.91C616.9,-122.17 643.64,-110.75 666.5,-98 687.08,-86.53 688.03,-76.7 709.5,-67 775.13,-37.35 797.45,-47.73 867.5,-31 875.37,-29.12 883.83,-27.04 891.79,-25.05"/>
<polygon fill="midnightblue" stroke="midnightblue" points="592.98,-127.67 584.87,-134.49 595.47,-134.21 592.98,-127.67"/>
</g>
<!-- Node8&#45;&gt;Node2 -->
<g id="edge8" class="edge">
<title>Node8&#45;&gt;Node2</title>
<path fill="none" stroke="midnightblue" d="M543.47,-67C361.74,-38.4 311.77,-56.92 133.5,-31 130.76,-30.6 127.97,-30.16 125.15,-29.7"/>
<polygon fill="midnightblue" stroke="midnightblue" points="542.93,-70.45 553.36,-68.58 544.04,-63.54 542.93,-70.45"/>
</g>
<!-- Node8&#45;&gt;Node3 -->
<g id="edge9" class="edge">
<title>Node8&#45;&gt;Node3</title>
<path fill="none" stroke="midnightblue" d="M543.23,-66.88C425.9,-45.5 393.53,-50.05 279.5,-31 269.05,-29.25 257.8,-27.14 247.35,-25.07"/>
<polygon fill="midnightblue" stroke="midnightblue" points="542.86,-70.37 553.33,-68.74 544.13,-63.48 542.86,-70.37"/>
</g>
<!-- Node8&#45;&gt;Node4 -->
<g id="edge11" class="edge">
<title>Node8&#45;&gt;Node4</title>
<path fill="none" stroke="midnightblue" d="M543.95,-64.83C496.98,-52.11 434.2,-35.11 396.99,-25.03"/>
<polygon fill="midnightblue" stroke="midnightblue" points="543.15,-68.24 553.72,-67.48 544.98,-61.48 543.15,-68.24"/>
</g>
<!-- Node8&#45;&gt;Node5 -->
<g id="edge12" class="edge">
<title>Node8&#45;&gt;Node5</title>
<path fill="none" stroke="midnightblue" d="M582.38,-60.34C569.35,-48.4 553.76,-34.14 544,-25.19"/>
<polygon fill="midnightblue" stroke="midnightblue" points="580.35,-63.22 590.09,-67.4 585.08,-58.06 580.35,-63.22"/>
</g>
<!-- Node9 -->
<g id="node9" class="node">
<title>Node9</title>
<g id="a_node9"><a xlink:href="PlotLLH_8cpp.html" target="_top" xlink:title=" ">
<polygon fill="white" stroke="black" points="751,-6 751,-25 858,-25 858,-6 751,-6"/>
<text text-anchor="middle" x="804.5" y="-13" font-family="Helvetica" font-size="10.00">Plotting/PlotLLH.cpp</text>
</a>
</g>
</g>
<!-- Node8&#45;&gt;Node9 -->
<g id="edge10" class="edge">
<title>Node8&#45;&gt;Node9</title>
<path fill="none" stroke="midnightblue" d="M658.25,-64.27C697.03,-51.6 748.06,-34.93 778.46,-25.01"/>
<polygon fill="midnightblue" stroke="midnightblue" points="657.1,-60.96 648.68,-67.4 659.27,-67.62 657.1,-60.96"/>
</g>
<!-- Node10 -->
<g id="node10" class="node">
<title>Node10</title>
<g id="a_node10"><a xlink:href="plottingManager_8cpp.html" target="_top" xlink:title=" ">
<polygon fill="white" stroke="black" points="626,-0.5 626,-30.5 733,-30.5 733,-0.5 626,-0.5"/>
<text text-anchor="start" x="634" y="-18.5" font-family="Helvetica" font-size="10.00">Plotting/plottingUtils</text>
<text text-anchor="middle" x="679.5" y="-7.5" font-family="Helvetica" font-size="10.00">/plottingManager.cpp</text>
</a>
</g>
</g>
<!-- Node8&#45;&gt;Node10 -->
<g id="edge13" class="edge">
<title>Node8&#45;&gt;Node10</title>
<path fill="none" stroke="midnightblue" d="M629.3,-60.6C640.47,-50.78 653.49,-39.34 663.47,-30.58"/>
<polygon fill="midnightblue" stroke="midnightblue" points="626.76,-58.17 621.56,-67.4 631.38,-63.43 626.76,-58.17"/>
</g>
<!-- Node8&#45;&gt;Node11 -->
<g id="edge14" class="edge">
<title>Node8&#45;&gt;Node11</title>
<path fill="none" stroke="midnightblue" d="M667.68,-67.78C668.96,-67.51 670.24,-67.25 671.5,-67 758.32,-49.49 780.94,-49.75 867.5,-31 875.72,-29.22 884.54,-27.12 892.76,-25.07"/>
<polygon fill="midnightblue" stroke="midnightblue" points="666.78,-64.39 657.7,-69.86 668.21,-71.24 666.78,-64.39"/>
</g>
</g>
</svg>
