<?xml version="1.0" encoding="UTF-8" standalone="no"?>
<!DOCTYPE svg PUBLIC "-//W3C//DTD SVG 1.1//EN"
 "http://www.w3.org/Graphics/SVG/1.1/DTD/svg11.dtd">
<!-- Generated by graphviz version 2.44.0 (0)
 -->
<!-- Title: PredictiveSample Pages: 1 -->
<!--zoomable 1192 -->
<svg id="main" version="1.1" xmlns="http://www.w3.org/2000/svg" xmlns:xlink="http://www.w3.org/1999/xlink" xml:space="preserve" onload="init(evt)">
<style type="text/css"><![CDATA[
.edge:hover path { stroke: red; }
.edge:hover polygon { stroke: red; fill: red; }
]]></style>
<script type="text/javascript"><![CDATA[
var edges = document.getElementsByTagName('g');
if (edges && edges.length) {
  for (var i=0;i<edges.length;i++) {
    if (edges[i].id.substr(0,4)=='edge') {
      edges[i].setAttribute('class','edge');
    }
  }
}
]]></script>
        <defs>
                <circle id="rim" cx="0" cy="0" r="7"/>
                <circle id="rim2" cx="0" cy="0" r="3.5"/>
                <g id="zoomPlus">
                        <use xlink:href="#rim" fill="#404040">
                                <set attributeName="fill" to="#808080" begin="zoomplus.mouseover" end="zoomplus.mouseout"/>
                        </use>
                        <path d="M-4,0h8M0,-4v8" fill="none" stroke="white" stroke-width="1.5" pointer-events="none"/>
                </g>
                <g id="zoomMin">
                        <use xlink:href="#rim" fill="#404040">
                                <set attributeName="fill" to="#808080" begin="zoomminus.mouseover" end="zoomminus.mouseout"/>
                        </use>
                        <path d="M-4,0h8" fill="none" stroke="white" stroke-width="1.5" pointer-events="none"/>
                </g>
                <g id="dirArrow">
                        <path fill="none" stroke="white" stroke-width="1.5" d="M0,-3.0v7 M-2.5,-0.5L0,-3.0L2.5,-0.5"/>
                </g>
               <g id="resetDef">
                       <use xlink:href="#rim2" fill="#404040">
                               <set attributeName="fill" to="#808080" begin="reset.mouseover" end="reset.mouseout"/>
                       </use>
               </g>
        </defs>

<script type="text/javascript">
var viewWidth = 1415;
var viewHeight = 1192;
var sectionId = 'dynsection-0';
</script>
<script xlink:href="svgpan.js"/>
<svg id="graph" class="graph">
<g id="viewport">
<title>PredictiveSample</title>
<polygon fill="white" stroke="transparent" points="-4,4 -4,-1188.39 1411,-1188.39 1411,4 -4,4"/>
<!-- Node1 -->
<g id="node1" class="node">
<title>Node1</title>
<g id="a_node1"><a xlink:title="KS: Summary of sample info to be used by.">
<polygon fill="#bfbfbf" stroke="black" points="1315,-1114.39 1315,-1133.39 1407,-1133.39 1407,-1114.39 1315,-1114.39"/>
<text text-anchor="middle" x="1361" y="-1121.39" font-family="Helvetica" font-size="10.00">PredictiveSample</text>
</a>
</g>
</g>
<!-- Node2 -->
<g id="node2" class="node">
<title>Node2</title>
<g id="a_node2"><a xlink:href="classBinningHandler.html" target="_top" xlink:title="KS: Class handling binning for multiple samples.">
<polygon fill="white" stroke="black" points="1131,-1155.39 1131,-1174.39 1214,-1174.39 1214,-1155.39 1131,-1155.39"/>
<text text-anchor="middle" x="1172.5" y="-1162.39" font-family="Helvetica" font-size="10.00">BinningHandler</text>
</a>
</g>
</g>
<!-- Node2&#45;&gt;Node1 -->
<g id="edge1" class="edge">
<title>Node2&#45;&gt;Node1</title>
<path fill="none" stroke="#9a32cd" stroke-dasharray="5,2" d="M1224.33,-1153.71C1253.22,-1147.36 1289.01,-1139.5 1316.57,-1133.44"/>
<polygon fill="#9a32cd" stroke="#9a32cd" points="1223.44,-1150.32 1214.43,-1155.89 1224.95,-1157.16 1223.44,-1150.32"/>
<text text-anchor="middle" x="1268" y="-1152.89" font-family="Helvetica" font-size="10.00"> Binning</text>
</g>
<!-- Node3 -->
<g id="node3" class="node">
<title>Node3</title>
<g id="a_node3"><a xlink:title=" ">
<polygon fill="white" stroke="#bfbfbf" points="792,-1153.89 792,-1183.89 929,-1183.89 929,-1153.89 792,-1153.89"/>
<text text-anchor="start" x="800" y="-1171.89" font-family="Helvetica" font-size="10.00">std::vector&lt; SampleBinning</text>
<text text-anchor="middle" x="860.5" y="-1160.89" font-family="Helvetica" font-size="10.00">Info &gt;</text>
</a>
</g>
</g>
<!-- Node3&#45;&gt;Node2 -->
<g id="edge2" class="edge">
<title>Node3&#45;&gt;Node2</title>
<path fill="none" stroke="#9a32cd" stroke-dasharray="5,2" d="M939.47,-1167.88C1000.2,-1167.1 1082.09,-1166.04 1130.59,-1165.42"/>
<polygon fill="#9a32cd" stroke="#9a32cd" points="939.1,-1164.39 929.15,-1168.02 939.19,-1171.39 939.1,-1164.39"/>
<text text-anchor="middle" x="1036.5" y="-1169.89" font-family="Helvetica" font-size="10.00"> SampleBinning</text>
</g>
<!-- Node4 -->
<g id="node4" class="node">
<title>Node4</title>
<g id="a_node4"><a xlink:title=" ">
<polygon fill="white" stroke="#bfbfbf" points="185,-783.39 185,-802.39 245,-802.39 245,-783.39 185,-783.39"/>
<text text-anchor="middle" x="215" y="-790.39" font-family="Helvetica" font-size="10.00">std::string</text>
</a>
</g>
</g>
<!-- Node4&#45;&gt;Node1 -->
<g id="edge3" class="edge">
<title>Node4&#45;&gt;Node1</title>
<path fill="none" stroke="#9a32cd" stroke-dasharray="5,2" d="M222.66,-812.29C248.36,-883.15 348.17,-1123.89 518,-1123.89 518,-1123.89 518,-1123.89 1173.5,-1123.89 1221.74,-1123.89 1277.01,-1123.89 1314.78,-1123.89"/>
<polygon fill="#9a32cd" stroke="#9a32cd" points="225.81,-810.7 219.18,-802.44 219.21,-813.03 225.81,-810.7"/>
<text text-anchor="middle" x="860.5" y="-1126.89" font-family="Helvetica" font-size="10.00"> Name</text>
</g>
<!-- Node6 -->
<g id="node6" class="node">
<title>Node6</title>
<g id="a_node6"><a xlink:href="classSampleHandlerFD.html" target="_top" xlink:title="Class responsible for handling implementation of samples used in analysis, reweighting and returning ...">
<polygon fill="white" stroke="black" points="1124,-676.39 1124,-695.39 1221,-695.39 1221,-676.39 1124,-676.39"/>
<text text-anchor="middle" x="1172.5" y="-683.39" font-family="Helvetica" font-size="10.00">SampleHandlerFD</text>
</a>
</g>
</g>
<!-- Node4&#45;&gt;Node6 -->
<g id="edge36" class="edge">
<title>Node4&#45;&gt;Node6</title>
<path fill="none" stroke="#9a32cd" stroke-dasharray="5,2" d="M255.36,-793.94C365.36,-796.45 685.17,-800.68 949,-773.89 1019.52,-766.73 1042.46,-777.29 1106,-745.89 1130.61,-733.73 1152.66,-709.47 1163.82,-695.82"/>
<polygon fill="#9a32cd" stroke="#9a32cd" points="255.16,-790.44 245.08,-793.7 255,-797.44 255.16,-790.44"/>
<text text-anchor="middle" x="688" y="-796.89" font-family="Helvetica" font-size="10.00"> SampleHandlerName</text>
</g>
<!-- Node15 -->
<g id="node15" class="node">
<title>Node15</title>
<g id="a_node15"><a xlink:href="classParameterHandlerBase.html" target="_top" xlink:title="Base class responsible for handling of systematic error parameters. Capable of using PCA or using ada...">
<polygon fill="white" stroke="black" points="460,-387.39 460,-406.39 578,-406.39 578,-387.39 460,-387.39"/>
<text text-anchor="middle" x="519" y="-394.39" font-family="Helvetica" font-size="10.00">ParameterHandlerBase</text>
</a>
</g>
</g>
<!-- Node4&#45;&gt;Node15 -->
<g id="edge21" class="edge">
<title>Node4&#45;&gt;Node15</title>
<path fill="none" stroke="#9a32cd" stroke-dasharray="5,2" d="M234.6,-776.46C275.22,-739.37 371.79,-644.44 416,-542.89 437.88,-492.63 397.88,-462.11 434,-420.89 440.8,-413.13 449.91,-407.8 459.63,-404.16"/>
<polygon fill="#9a32cd" stroke="#9a32cd" points="232.11,-773.99 227.03,-783.29 236.8,-779.19 232.11,-773.99"/>
<text text-anchor="middle" x="366" y="-701.89" font-family="Helvetica" font-size="10.00"> inputFile</text>
<text text-anchor="middle" x="366" y="-690.89" font-family="Helvetica" font-size="10.00">matrixName</text>
</g>
<!-- Node5 -->
<g id="node5" class="node">
<title>Node5</title>
<g id="a_node5"><a xlink:title=" ">
<polygon fill="white" stroke="#bfbfbf" points="0,-777.89 0,-807.89 95,-807.89 95,-777.89 0,-777.89"/>
<text text-anchor="start" x="8" y="-795.89" font-family="Helvetica" font-size="10.00">std::basic_string&lt;</text>
<text text-anchor="middle" x="47.5" y="-784.89" font-family="Helvetica" font-size="10.00"> char &gt;</text>
</a>
</g>
</g>
<!-- Node5&#45;&gt;Node4 -->
<g id="edge4" class="edge">
<title>Node5&#45;&gt;Node4</title>
<path fill="none" stroke="midnightblue" d="M105.11,-792.89C131.97,-792.89 162.93,-792.89 184.95,-792.89"/>
<polygon fill="midnightblue" stroke="midnightblue" points="105.04,-789.39 95.04,-792.89 105.04,-796.39 105.04,-789.39"/>
</g>
<!-- Node6&#45;&gt;Node1 -->
<g id="edge5" class="edge">
<title>Node6&#45;&gt;Node1</title>
<path fill="none" stroke="#9a32cd" stroke-dasharray="5,2" d="M1181.5,-704.67C1213.54,-779.91 1332.03,-1058.21 1355.82,-1114.08"/>
<polygon fill="#9a32cd" stroke="#9a32cd" points="1184.71,-703.27 1177.57,-695.44 1178.27,-706.02 1184.71,-703.27"/>
<text text-anchor="middle" x="1268" y="-971.89" font-family="Helvetica" font-size="10.00"> SamHandler</text>
</g>
<!-- Node7 -->
<g id="node7" class="node">
<title>Node7</title>
<g id="a_node7"><a xlink:href="classSampleHandlerBase.html" target="_top" xlink:title="Class responsible for handling implementation of samples used in analysis, reweighting and returning ...">
<polygon fill="white" stroke="black" points="807.5,-745.39 807.5,-764.39 913.5,-764.39 913.5,-745.39 807.5,-745.39"/>
<text text-anchor="middle" x="860.5" y="-752.39" font-family="Helvetica" font-size="10.00">SampleHandlerBase</text>
</a>
</g>
</g>
<!-- Node7&#45;&gt;Node6 -->
<g id="edge6" class="edge">
<title>Node7&#45;&gt;Node6</title>
<path fill="none" stroke="midnightblue" d="M923.61,-750.73C973.74,-746.13 1045.61,-736.72 1106,-717.89 1123.64,-712.39 1142.46,-702.75 1155.38,-695.49"/>
<polygon fill="midnightblue" stroke="midnightblue" points="923.22,-747.25 913.57,-751.61 923.84,-754.22 923.22,-747.25"/>
</g>
<!-- Node8 -->
<g id="node8" class="node">
<title>Node8</title>
<g id="a_node8"><a xlink:title=" ">
<polygon fill="white" stroke="#bfbfbf" points="439,-745.39 439,-764.39 599,-764.39 599,-745.39 439,-745.39"/>
<text text-anchor="middle" x="519" y="-752.39" font-family="Helvetica" font-size="10.00">std::unique_ptr&lt; MaCh3Modes &gt;</text>
</a>
</g>
</g>
<!-- Node8&#45;&gt;Node7 -->
<g id="edge7" class="edge">
<title>Node8&#45;&gt;Node7</title>
<path fill="none" stroke="#9a32cd" stroke-dasharray="5,2" d="M609.52,-754.89C672.59,-754.89 754.86,-754.89 807.45,-754.89"/>
<polygon fill="#9a32cd" stroke="#9a32cd" points="609.17,-751.39 599.17,-754.89 609.17,-758.39 609.17,-751.39"/>
<text text-anchor="middle" x="688" y="-757.89" font-family="Helvetica" font-size="10.00"> Modes</text>
</g>
<!-- Node9 -->
<g id="node9" class="node">
<title>Node9</title>
<g id="a_node9"><a xlink:title=" ">
<polygon fill="white" stroke="#bfbfbf" points="804,-695.89 804,-725.89 917,-725.89 917,-695.89 804,-695.89"/>
<text text-anchor="start" x="812" y="-713.89" font-family="Helvetica" font-size="10.00">std::unordered_map</text>
<text text-anchor="middle" x="860.5" y="-702.89" font-family="Helvetica" font-size="10.00">&lt; std::string, double &gt;</text>
</a>
</g>
</g>
<!-- Node9&#45;&gt;Node6 -->
<g id="edge8" class="edge">
<title>Node9&#45;&gt;Node6</title>
<path fill="none" stroke="#9a32cd" stroke-dasharray="5,2" d="M927.6,-705.56C986.5,-700.81 1071.27,-693.97 1123.79,-689.74"/>
<polygon fill="#9a32cd" stroke="#9a32cd" points="926.97,-702.1 917.28,-706.39 927.53,-709.07 926.97,-702.1"/>
<text text-anchor="middle" x="1036.5" y="-705.89" font-family="Helvetica" font-size="10.00"> _modeNomWeightMap</text>
</g>
<!-- Node10 -->
<g id="node10" class="node">
<title>Node10</title>
<g id="a_node10"><a xlink:title=" ">
<polygon fill="white" stroke="#bfbfbf" points="802,-646.89 802,-676.89 919,-676.89 919,-646.89 802,-646.89"/>
<text text-anchor="start" x="810" y="-664.89" font-family="Helvetica" font-size="10.00">std::vector&lt; std::vector</text>
<text text-anchor="middle" x="860.5" y="-653.89" font-family="Helvetica" font-size="10.00">&lt; int &gt; &gt;</text>
</a>
</g>
</g>
<!-- Node10&#45;&gt;Node6 -->
<g id="edge9" class="edge">
<title>Node10&#45;&gt;Node6</title>
<path fill="none" stroke="#9a32cd" stroke-dasharray="5,2" d="M929.55,-665.31C978.65,-668.04 1046.49,-672.31 1106,-677.89 1111.82,-678.43 1117.92,-679.08 1123.95,-679.76"/>
<polygon fill="#9a32cd" stroke="#9a32cd" points="929.55,-661.81 919.37,-664.76 929.17,-668.8 929.55,-661.81"/>
<text text-anchor="middle" x="1036.5" y="-680.89" font-family="Helvetica" font-size="10.00"> funcParsGrid</text>
</g>
<!-- Node11 -->
<g id="node11" class="node">
<title>Node11</title>
<g id="a_node11"><a xlink:title=" ">
<polygon fill="white" stroke="#bfbfbf" points="795.5,-597.89 795.5,-627.89 925.5,-627.89 925.5,-597.89 795.5,-597.89"/>
<text text-anchor="start" x="803.5" y="-615.89" font-family="Helvetica" font-size="10.00">std::unordered_map</text>
<text text-anchor="middle" x="860.5" y="-604.89" font-family="Helvetica" font-size="10.00">&lt; int, FuncParFuncType &gt;</text>
</a>
</g>
</g>
<!-- Node11&#45;&gt;Node6 -->
<g id="edge10" class="edge">
<title>Node11&#45;&gt;Node6</title>
<path fill="none" stroke="#9a32cd" stroke-dasharray="5,2" d="M935.81,-619.11C985,-624.66 1050.44,-634.82 1106,-652.89 1123.92,-658.72 1143.01,-668.84 1155.93,-676.34"/>
<polygon fill="#9a32cd" stroke="#9a32cd" points="935.89,-615.6 925.57,-617.99 935.13,-622.56 935.89,-615.6"/>
<text text-anchor="middle" x="1036.5" y="-655.89" font-family="Helvetica" font-size="10.00"> funcParsFuncMap</text>
</g>
<!-- Node12 -->
<g id="node12" class="node">
<title>Node12</title>
<g id="a_node12"><a xlink:title=" ">
<polygon fill="white" stroke="#bfbfbf" points="795.5,-559.39 795.5,-578.39 925.5,-578.39 925.5,-559.39 795.5,-559.39"/>
<text text-anchor="middle" x="860.5" y="-566.39" font-family="Helvetica" font-size="10.00">std::vector&lt; SampleInfo &gt;</text>
</a>
</g>
</g>
<!-- Node12&#45;&gt;Node6 -->
<g id="edge11" class="edge">
<title>Node12&#45;&gt;Node6</title>
<path fill="none" stroke="#9a32cd" stroke-dasharray="5,2" d="M936,-567.92C986.86,-570.3 1054.14,-579.6 1106,-608.89 1134.88,-625.2 1156.82,-659.39 1166.32,-676.18"/>
<polygon fill="#9a32cd" stroke="#9a32cd" points="935.86,-564.41 925.73,-567.53 935.59,-571.41 935.86,-564.41"/>
<text text-anchor="middle" x="1036.5" y="-611.89" font-family="Helvetica" font-size="10.00"> SampleDetails</text>
</g>
<!-- Node13 -->
<g id="node13" class="node">
<title>Node13</title>
<g id="a_node13"><a xlink:title=" ">
<polygon fill="white" stroke="#bfbfbf" points="809,-509.89 809,-539.89 912,-539.89 912,-509.89 809,-509.89"/>
<text text-anchor="start" x="817" y="-527.89" font-family="Helvetica" font-size="10.00">std::unordered_map</text>
<text text-anchor="middle" x="860.5" y="-516.89" font-family="Helvetica" font-size="10.00">&lt; std::string, int &gt;</text>
</a>
</g>
</g>
<!-- Node13&#45;&gt;Node6 -->
<g id="edge12" class="edge">
<title>Node13&#45;&gt;Node6</title>
<path fill="none" stroke="#9a32cd" stroke-dasharray="5,2" d="M922.21,-510.28C975.38,-501.14 1052.33,-497.14 1106,-533.89 1155.79,-567.98 1167.97,-648.42 1170.74,-676.23"/>
<polygon fill="#9a32cd" stroke="#9a32cd" points="921.45,-506.86 912.24,-512.1 922.71,-513.75 921.45,-506.86"/>
<text text-anchor="middle" x="1036.5" y="-558.89" font-family="Helvetica" font-size="10.00"> KinematicParameters</text>
<text text-anchor="middle" x="1036.5" y="-547.89" font-family="Helvetica" font-size="10.00">KinematicVectors</text>
<text text-anchor="middle" x="1036.5" y="-536.89" font-family="Helvetica" font-size="10.00">funcParsNamesMap</text>
</g>
<!-- Node14 -->
<g id="node14" class="node">
<title>Node14</title>
<g id="a_node14"><a xlink:href="classParameterHandlerGeneric.html" target="_top" xlink:title="Class responsible for handling of systematic error parameters with different types defined in the con...">
<polygon fill="white" stroke="black" points="796,-433.39 796,-452.39 925,-452.39 925,-433.39 796,-433.39"/>
<text text-anchor="middle" x="860.5" y="-440.39" font-family="Helvetica" font-size="10.00">ParameterHandlerGeneric</text>
</a>
</g>
</g>
<!-- Node14&#45;&gt;Node6 -->
<g id="edge13" class="edge">
<title>Node14&#45;&gt;Node6</title>
<path fill="none" stroke="#9a32cd" stroke-dasharray="5,2" d="M906.13,-431.15C959.69,-419.94 1049.33,-410.7 1106,-455.89 1142.03,-484.62 1164.83,-636.48 1170.25,-676.32"/>
<polygon fill="#9a32cd" stroke="#9a32cd" points="905.26,-427.76 896.24,-433.33 906.76,-434.59 905.26,-427.76"/>
<text text-anchor="middle" x="1036.5" y="-458.89" font-family="Helvetica" font-size="10.00"> ParHandler</text>
</g>
<!-- Node15&#45;&gt;Node14 -->
<g id="edge14" class="edge">
<title>Node15&#45;&gt;Node14</title>
<path fill="none" stroke="midnightblue" d="M588.59,-406.18C649.17,-414.39 736.8,-426.26 795.85,-434.26"/>
<polygon fill="midnightblue" stroke="midnightblue" points="588.74,-402.67 578.36,-404.8 587.8,-409.61 588.74,-402.67"/>
</g>
<!-- Node16 -->
<g id="node16" class="node">
<title>Node16</title>
<g id="a_node16"><a xlink:title=" ">
<polygon fill="white" stroke="#bfbfbf" points="132,-497.89 132,-527.89 298,-527.89 298,-497.89 132,-497.89"/>
<text text-anchor="start" x="140" y="-515.89" font-family="Helvetica" font-size="10.00">std::unique_ptr&lt; adaptive</text>
<text text-anchor="middle" x="215" y="-504.89" font-family="Helvetica" font-size="10.00">_mcmc::AdaptiveMCMCHandler &gt;</text>
</a>
</g>
</g>
<!-- Node16&#45;&gt;Node15 -->
<g id="edge15" class="edge">
<title>Node16&#45;&gt;Node15</title>
<path fill="none" stroke="#9a32cd" stroke-dasharray="5,2" d="M274.87,-494.88C291.66,-489.82 307.65,-485.1 316,-482.89 360.09,-471.22 380.6,-488.64 416,-459.89 430.82,-447.85 419.5,-433.31 434,-420.89 441.49,-414.47 450.59,-409.77 460,-406.32"/>
<polygon fill="#9a32cd" stroke="#9a32cd" points="273.51,-491.63 264.95,-497.88 275.54,-498.33 273.51,-491.63"/>
<text text-anchor="middle" x="366" y="-485.89" font-family="Helvetica" font-size="10.00"> AdaptiveHandler</text>
</g>
<!-- Node17 -->
<g id="node17" class="node">
<title>Node17</title>
<g id="a_node17"><a xlink:title=" ">
<polygon fill="white" stroke="#bfbfbf" points="138.5,-459.39 138.5,-478.39 291.5,-478.39 291.5,-459.39 138.5,-459.39"/>
<text text-anchor="middle" x="215" y="-466.39" font-family="Helvetica" font-size="10.00">std::unique_ptr&lt; PCAHandler &gt;</text>
</a>
</g>
</g>
<!-- Node17&#45;&gt;Node15 -->
<g id="edge16" class="edge">
<title>Node17&#45;&gt;Node15</title>
<path fill="none" stroke="#9a32cd" stroke-dasharray="5,2" d="M274.55,-457.35C314.55,-449.21 368.67,-437.69 416,-425.89 419.46,-425.03 456.12,-414.58 484.51,-406.47"/>
<polygon fill="#9a32cd" stroke="#9a32cd" points="273.81,-453.93 264.7,-459.34 275.2,-460.79 273.81,-453.93"/>
<text text-anchor="middle" x="366" y="-451.89" font-family="Helvetica" font-size="10.00"> PCAObj</text>
</g>
<!-- Node18 -->
<g id="node18" class="node">
<title>Node18</title>
<g id="a_node18"><a xlink:title=" ">
<polygon fill="white" stroke="#bfbfbf" points="147.5,-409.89 147.5,-439.89 282.5,-439.89 282.5,-409.89 147.5,-409.89"/>
<text text-anchor="start" x="155.5" y="-427.89" font-family="Helvetica" font-size="10.00">std::unique_ptr&lt; Parameter</text>
<text text-anchor="middle" x="215" y="-416.89" font-family="Helvetica" font-size="10.00">Tunes &gt;</text>
</a>
</g>
</g>
<!-- Node18&#45;&gt;Node15 -->
<g id="edge17" class="edge">
<title>Node18&#45;&gt;Node15</title>
<path fill="none" stroke="#9a32cd" stroke-dasharray="5,2" d="M292.65,-417.14C300.53,-416.37 308.43,-415.6 316,-414.89 364.37,-410.31 419.29,-405.44 459.64,-401.92"/>
<polygon fill="#9a32cd" stroke="#9a32cd" points="292.3,-413.66 282.69,-418.12 292.99,-420.62 292.3,-413.66"/>
<text text-anchor="middle" x="366" y="-417.89" font-family="Helvetica" font-size="10.00"> Tunes</text>
</g>
<!-- Node19 -->
<g id="node19" class="node">
<title>Node19</title>
<g id="a_node19"><a xlink:title=" ">
<polygon fill="white" stroke="#bfbfbf" points="156.5,-360.89 156.5,-390.89 273.5,-390.89 273.5,-360.89 156.5,-360.89"/>
<text text-anchor="start" x="164.5" y="-378.89" font-family="Helvetica" font-size="10.00">std::vector&lt; std::vector</text>
<text text-anchor="middle" x="215" y="-367.89" font-family="Helvetica" font-size="10.00">&lt; std::string &gt; &gt;</text>
</a>
</g>
</g>
<!-- Node19&#45;&gt;Node15 -->
<g id="edge18" class="edge">
<title>Node19&#45;&gt;Node15</title>
<path fill="none" stroke="#9a32cd" stroke-dasharray="5,2" d="M284,-375.39C322.75,-375.66 372.18,-376.92 416,-380.89 432.25,-382.36 449.83,-384.81 465.75,-387.35"/>
<polygon fill="#9a32cd" stroke="#9a32cd" points="283.9,-371.89 273.88,-375.34 283.86,-378.89 283.9,-371.89"/>
<text text-anchor="middle" x="366" y="-383.89" font-family="Helvetica" font-size="10.00"> _fSampleNames</text>
</g>
<!-- Node20 -->
<g id="node20" class="node">
<title>Node20</title>
<g id="a_node20"><a xlink:title=" ">
<polygon fill="white" stroke="#bfbfbf" points="156.5,-311.89 156.5,-341.89 273.5,-341.89 273.5,-311.89 156.5,-311.89"/>
<text text-anchor="start" x="164.5" y="-329.89" font-family="Helvetica" font-size="10.00">std::vector&lt; std::vector</text>
<text text-anchor="middle" x="215" y="-318.89" font-family="Helvetica" font-size="10.00">&lt; double &gt; &gt;</text>
</a>
</g>
</g>
<!-- Node20&#45;&gt;Node15 -->
<g id="edge19" class="edge">
<title>Node20&#45;&gt;Node15</title>
<path fill="none" stroke="#9a32cd" stroke-dasharray="5,2" d="M283.93,-329.11C324.02,-332.65 374.81,-341.12 416,-360.89 425.65,-365.52 424.51,-371.94 434,-376.89 442.38,-381.25 451.72,-384.68 461.04,-387.36"/>
<polygon fill="#9a32cd" stroke="#9a32cd" points="283.96,-325.61 273.71,-328.3 283.4,-332.58 283.96,-325.61"/>
<text text-anchor="middle" x="366" y="-363.89" font-family="Helvetica" font-size="10.00"> InvertCovMatrix</text>
</g>
<!-- Node21 -->
<g id="node21" class="node">
<title>Node21</title>
<g id="a_node21"><a xlink:title=" ">
<polygon fill="white" stroke="#bfbfbf" points="161.5,-262.89 161.5,-292.89 268.5,-292.89 268.5,-262.89 161.5,-262.89"/>
<text text-anchor="start" x="169.5" y="-280.89" font-family="Helvetica" font-size="10.00">std::vector&lt; std::pair</text>
<text text-anchor="middle" x="215" y="-269.89" font-family="Helvetica" font-size="10.00">&lt; double, double &gt; &gt;</text>
</a>
</g>
</g>
<!-- Node21&#45;&gt;Node15 -->
<g id="edge20" class="edge">
<title>Node21&#45;&gt;Node15</title>
<path fill="none" stroke="#9a32cd" stroke-dasharray="5,2" d="M279.09,-274.99C322.65,-276.4 379.16,-285.51 416,-318.89 436,-337.01 414.28,-358.45 434,-376.89 441.23,-383.65 450.31,-388.25 459.81,-391.36"/>
<polygon fill="#9a32cd" stroke="#9a32cd" points="278.94,-271.48 268.88,-274.78 278.81,-278.48 278.94,-271.48"/>
<text text-anchor="middle" x="366" y="-321.89" font-family="Helvetica" font-size="10.00"> CircularBoundsValues</text>
</g>
<!-- Node22 -->
<g id="node22" class="node">
<title>Node22</title>
<g id="a_node22"><a xlink:title=" ">
<polygon fill="white" stroke="#bfbfbf" points="169.5,-224.39 169.5,-243.39 260.5,-243.39 260.5,-224.39 169.5,-224.39"/>
<text text-anchor="middle" x="215" y="-231.39" font-family="Helvetica" font-size="10.00">std::vector&lt; int &gt;</text>
</a>
</g>
</g>
<!-- Node22&#45;&gt;Node15 -->
<g id="edge22" class="edge">
<title>Node22&#45;&gt;Node15</title>
<path fill="none" stroke="#9a32cd" stroke-dasharray="5,2" d="M267.95,-222.82C313.12,-216.5 377.24,-216 416,-252.89 456.34,-291.28 396.42,-335.79 434,-376.89 440.88,-384.41 450.03,-389.35 459.76,-392.54"/>
<polygon fill="#9a32cd" stroke="#9a32cd" points="267.4,-219.37 258.05,-224.34 268.46,-226.29 267.4,-219.37"/>
<text text-anchor="middle" x="366" y="-266.89" font-family="Helvetica" font-size="10.00"> CircularBoundsIndex</text>
<text text-anchor="middle" x="366" y="-255.89" font-family="Helvetica" font-size="10.00">FlipParameterIndex</text>
</g>
<!-- Node23 -->
<g id="node23" class="node">
<title>Node23</title>
<g id="a_node23"><a xlink:title=" ">
<polygon fill="white" stroke="#bfbfbf" points="155.5,-174.89 155.5,-204.89 274.5,-204.89 274.5,-174.89 155.5,-174.89"/>
<text text-anchor="start" x="163.5" y="-192.89" font-family="Helvetica" font-size="10.00">std::vector&lt; std::unique</text>
<text text-anchor="middle" x="215" y="-181.89" font-family="Helvetica" font-size="10.00">_ptr&lt; TRandom3 &gt; &gt;</text>
</a>
</g>
</g>
<!-- Node23&#45;&gt;Node15 -->
<g id="edge23" class="edge">
<title>Node23&#45;&gt;Node15</title>
<path fill="none" stroke="#9a32cd" stroke-dasharray="5,2" d="M285,-186.01C335.32,-184.79 397.77,-187.19 416,-204.89 443.57,-231.66 408.64,-348.01 434,-376.89 440.83,-384.66 450.07,-389.7 459.94,-392.9"/>
<polygon fill="#9a32cd" stroke="#9a32cd" points="284.68,-182.51 274.79,-186.31 284.89,-189.51 284.68,-182.51"/>
<text text-anchor="middle" x="366" y="-207.89" font-family="Helvetica" font-size="10.00"> random_number</text>
</g>
<!-- Node24 -->
<g id="node24" class="node">
<title>Node24</title>
<g id="a_node24"><a xlink:title=" ">
<polygon fill="white" stroke="#bfbfbf" points="166,-134.39 166,-153.39 264,-153.39 264,-134.39 166,-134.39"/>
<text text-anchor="middle" x="215" y="-141.39" font-family="Helvetica" font-size="10.00">std::vector&lt; bool &gt;</text>
</a>
</g>
</g>
<!-- Node24&#45;&gt;Node15 -->
<g id="edge24" class="edge">
<title>Node24&#45;&gt;Node15</title>
<path fill="none" stroke="#9a32cd" stroke-dasharray="5,2" d="M274.15,-137.1C325.86,-132.49 396.26,-130.19 416,-148.89 452.89,-183.85 400.95,-338.28 434,-376.89 440.73,-384.75 449.93,-389.82 459.78,-393.04"/>
<polygon fill="#9a32cd" stroke="#9a32cd" points="273.71,-133.63 264.08,-138.05 274.36,-140.6 273.71,-133.63"/>
<text text-anchor="middle" x="366" y="-173.89" font-family="Helvetica" font-size="10.00"> _fFlatPrior</text>
<text text-anchor="start" x="326" y="-162.89" font-family="Helvetica" font-size="10.00">param_skip_adapt</text>
<text text-anchor="middle" x="366" y="-151.89" font-family="Helvetica" font-size="10.00">_flags</text>
</g>
<!-- Node25 -->
<g id="node25" class="node">
<title>Node25</title>
<g id="a_node25"><a xlink:title=" ">
<polygon fill="white" stroke="#bfbfbf" points="153,-547.39 153,-566.39 277,-566.39 277,-547.39 153,-547.39"/>
<text text-anchor="middle" x="215" y="-554.39" font-family="Helvetica" font-size="10.00">std::vector&lt; std::string &gt;</text>
</a>
</g>
</g>
<!-- Node25&#45;&gt;Node6 -->
<g id="edge41" class="edge">
<title>Node25&#45;&gt;Node6</title>
<path fill="none" stroke="#9a32cd" stroke-dasharray="5,2" d="M229.49,-574.39C246.86,-595.32 279.2,-629.24 316,-642.89 330.9,-648.41 519.16,-640.43 604,-637.89 670.67,-635.89 704.51,-677.61 754,-632.89 798.26,-592.9 727.08,-539.14 772,-499.89 827.89,-451.05 1045.52,-457.86 1106,-500.89 1165.41,-543.16 1171.26,-644.04 1171.59,-676"/>
<polygon fill="#9a32cd" stroke="#9a32cd" points="232.19,-572.16 223.2,-566.57 226.74,-576.55 232.19,-572.16"/>
<text text-anchor="middle" x="688" y="-656.89" font-family="Helvetica" font-size="10.00"> funcParsNamesVec</text>
</g>
<!-- Node25&#45;&gt;Node14 -->
<g id="edge33" class="edge">
<title>Node25&#45;&gt;Node14</title>
<path fill="none" stroke="#9a32cd" stroke-dasharray="5,2" d="M287.24,-559.16C336.86,-559.17 397.35,-555.52 416,-538.89 445.47,-512.61 403.65,-477.14 434,-451.89 461.09,-429.35 684.04,-435.4 795.94,-439.95"/>
<polygon fill="#9a32cd" stroke="#9a32cd" points="287.18,-555.66 277.16,-559.11 287.14,-562.66 287.18,-555.66"/>
<text text-anchor="middle" x="519" y="-465.89" font-family="Helvetica" font-size="10.00"> _ParameterGroup</text>
<text text-anchor="middle" x="519" y="-454.89" font-family="Helvetica" font-size="10.00">_fSplineNames</text>
</g>
<!-- Node25&#45;&gt;Node15 -->
<g id="edge25" class="edge">
<title>Node25&#45;&gt;Node15</title>
<path fill="none" stroke="#9a32cd" stroke-dasharray="5,2" d="M283.83,-543.85C288.77,-541.85 293.55,-539.54 298,-536.89 308.27,-530.75 305.69,-522.95 316,-516.89 355.3,-493.75 383.5,-525.88 416,-493.89 439.81,-470.45 410.81,-444.94 434,-420.89 441.05,-413.57 450.17,-408.44 459.78,-404.85"/>
<polygon fill="#9a32cd" stroke="#9a32cd" points="282.41,-540.64 274.19,-547.33 284.78,-547.23 282.41,-540.64"/>
<text text-anchor="middle" x="366" y="-530.89" font-family="Helvetica" font-size="10.00"> _fFancyNames</text>
<text text-anchor="middle" x="366" y="-519.89" font-family="Helvetica" font-size="10.00">_fNames</text>
</g>
<!-- Node26 -->
<g id="node26" class="node">
<title>Node26</title>
<g id="a_node26"><a xlink:title=" ">
<polygon fill="white" stroke="#bfbfbf" points="160.5,-12.39 160.5,-31.39 269.5,-31.39 269.5,-12.39 160.5,-12.39"/>
<text text-anchor="middle" x="215" y="-19.39" font-family="Helvetica" font-size="10.00">std::vector&lt; double &gt;</text>
</a>
</g>
</g>
<!-- Node26&#45;&gt;Node15 -->
<g id="edge26" class="edge">
<title>Node26&#45;&gt;Node15</title>
<path fill="none" stroke="#9a32cd" stroke-dasharray="5,2" d="M255.74,-9.82C301.14,1.25 374.5,10.32 416,-30.89 443.32,-58.01 409.36,-347.31 434,-376.89 440.62,-384.84 449.77,-389.95 459.61,-393.19"/>
<polygon fill="#9a32cd" stroke="#9a32cd" points="254.76,-6.46 245.95,-12.34 256.5,-13.23 254.76,-6.46"/>
<text text-anchor="middle" x="366" y="-121.89" font-family="Helvetica" font-size="10.00"> FlipParameterPoint</text>
<text text-anchor="middle" x="366" y="-110.89" font-family="Helvetica" font-size="10.00">_fCurrVal</text>
<text text-anchor="middle" x="366" y="-99.89" font-family="Helvetica" font-size="10.00">_fError</text>
<text text-anchor="middle" x="366" y="-88.89" font-family="Helvetica" font-size="10.00">_fIndivStepScale</text>
<text text-anchor="middle" x="366" y="-77.89" font-family="Helvetica" font-size="10.00">_fIndivStepScaleInitial</text>
<text text-anchor="middle" x="366" y="-66.89" font-family="Helvetica" font-size="10.00">_fLowBound</text>
<text text-anchor="middle" x="366" y="-55.89" font-family="Helvetica" font-size="10.00">_fPreFitValue</text>
<text text-anchor="middle" x="366" y="-44.89" font-family="Helvetica" font-size="10.00">_fPropVal</text>
<text text-anchor="middle" x="366" y="-33.89" font-family="Helvetica" font-size="10.00">_fUpBound</text>
</g>
<!-- Node27 -->
<g id="node27" class="node">
<title>Node27</title>
<g id="a_node27"><a xlink:title=" ">
<polygon fill="white" stroke="#bfbfbf" points="464,-337.89 464,-367.89 574,-367.89 574,-337.89 464,-337.89"/>
<text text-anchor="start" x="472" y="-355.89" font-family="Helvetica" font-size="10.00">std::vector&lt; std::map</text>
<text text-anchor="middle" x="519" y="-344.89" font-family="Helvetica" font-size="10.00">&lt; int, int &gt; &gt;</text>
</a>
</g>
</g>
<!-- Node27&#45;&gt;Node14 -->
<g id="edge27" class="edge">
<title>Node27&#45;&gt;Node14</title>
<path fill="none" stroke="#9a32cd" stroke-dasharray="5,2" d="M584.08,-364.17C647.67,-375.49 737.92,-391.94 754,-396.89 785.51,-406.58 820.23,-422.89 840.93,-433.26"/>
<polygon fill="#9a32cd" stroke="#9a32cd" points="584.58,-360.71 574.12,-362.4 583.35,-367.6 584.58,-360.71"/>
<text text-anchor="middle" x="688" y="-399.89" font-family="Helvetica" font-size="10.00"> _fSystToGlobalSystIndexMap</text>
</g>
<!-- Node28 -->
<g id="node28" class="node">
<title>Node28</title>
<g id="a_node28"><a xlink:title=" ">
<polygon fill="white" stroke="#bfbfbf" points="458.5,-609.39 458.5,-628.39 579.5,-628.39 579.5,-609.39 458.5,-609.39"/>
<text text-anchor="middle" x="519" y="-616.39" font-family="Helvetica" font-size="10.00">std::vector&lt; SystType &gt;</text>
</a>
</g>
</g>
<!-- Node28&#45;&gt;Node14 -->
<g id="edge28" class="edge">
<title>Node28&#45;&gt;Node14</title>
<path fill="none" stroke="#9a32cd" stroke-dasharray="5,2" d="M589.82,-621.53C650.16,-622.21 731.15,-618.76 754,-596.89 796.14,-556.56 733.52,-510.73 772,-466.89 778.34,-459.67 786.62,-454.52 795.57,-450.88"/>
<polygon fill="#9a32cd" stroke="#9a32cd" points="589.63,-618.02 579.58,-621.37 589.52,-625.02 589.63,-618.02"/>
<text text-anchor="middle" x="688" y="-624.89" font-family="Helvetica" font-size="10.00"> _fParamType</text>
</g>
<!-- Node29 -->
<g id="node29" class="node">
<title>Node29</title>
<g id="a_node29"><a xlink:title=" ">
<polygon fill="white" stroke="#bfbfbf" points="444.5,-571.39 444.5,-590.39 593.5,-590.39 593.5,-571.39 444.5,-571.39"/>
<text text-anchor="middle" x="519" y="-578.39" font-family="Helvetica" font-size="10.00">std::vector&lt; NormParameter &gt;</text>
</a>
</g>
</g>
<!-- Node29&#45;&gt;Node14 -->
<g id="edge29" class="edge">
<title>Node29&#45;&gt;Node14</title>
<path fill="none" stroke="#9a32cd" stroke-dasharray="5,2" d="M604.01,-581.68C662.01,-580.39 732.43,-574.58 754,-554.89 783.48,-527.97 744.72,-496.03 772,-466.89 778.57,-459.87 786.97,-454.84 795.97,-451.24"/>
<polygon fill="#9a32cd" stroke="#9a32cd" points="603.65,-578.18 593.71,-581.86 603.77,-585.18 603.65,-578.18"/>
<text text-anchor="middle" x="688" y="-584.89" font-family="Helvetica" font-size="10.00"> NormParams</text>
</g>
<!-- Node30 -->
<g id="node30" class="node">
<title>Node30</title>
<g id="a_node30"><a xlink:title=" ">
<polygon fill="white" stroke="#bfbfbf" points="434,-299.39 434,-318.39 604,-318.39 604,-299.39 434,-299.39"/>
<text text-anchor="middle" x="519" y="-306.39" font-family="Helvetica" font-size="10.00">std::vector&lt; FunctionalParameter &gt;</text>
</a>
</g>
</g>
<!-- Node30&#45;&gt;Node6 -->
<g id="edge37" class="edge">
<title>Node30&#45;&gt;Node6</title>
<path fill="none" stroke="#9a32cd" stroke-dasharray="5,2" d="M614.35,-318.89C657.13,-323.97 708.26,-330.78 754,-338.89 832.98,-352.89 1048.8,-362.65 1106,-418.89 1144.12,-456.36 1165.68,-632.68 1170.47,-676.17"/>
<polygon fill="#9a32cd" stroke="#9a32cd" points="614.57,-315.4 604.23,-317.71 613.76,-322.35 614.57,-315.4"/>
<text text-anchor="middle" x="860.5" y="-367.89" font-family="Helvetica" font-size="10.00"> funcParsVec</text>
</g>
<!-- Node30&#45;&gt;Node14 -->
<g id="edge30" class="edge">
<title>Node30&#45;&gt;Node14</title>
<path fill="none" stroke="#9a32cd" stroke-dasharray="5,2" d="M579.72,-320.87C587.94,-322.97 596.23,-325.31 604,-327.89 612.31,-330.64 613.62,-333.37 622,-335.89 678.96,-352.99 702.54,-328.07 754,-357.89 764.93,-364.22 762.8,-371.23 772,-379.89 794.91,-401.43 825.44,-421.83 843.71,-433.31"/>
<polygon fill="#9a32cd" stroke="#9a32cd" points="580.29,-317.41 569.75,-318.45 578.63,-324.21 580.29,-317.41"/>
<text text-anchor="middle" x="688" y="-360.89" font-family="Helvetica" font-size="10.00"> FuncParams</text>
</g>
<!-- Node31 -->
<g id="node31" class="node">
<title>Node31</title>
<g id="a_node31"><a xlink:title=" ">
<polygon fill="white" stroke="#bfbfbf" points="443,-533.39 443,-552.39 595,-552.39 595,-533.39 443,-533.39"/>
<text text-anchor="middle" x="519" y="-540.39" font-family="Helvetica" font-size="10.00">std::vector&lt; SplineParameter &gt;</text>
</a>
</g>
</g>
<!-- Node31&#45;&gt;Node14 -->
<g id="edge31" class="edge">
<title>Node31&#45;&gt;Node14</title>
<path fill="none" stroke="#9a32cd" stroke-dasharray="5,2" d="M605.51,-541.96C652.9,-537.68 710.79,-525.88 754,-495.89 766.46,-487.24 759.85,-475.97 772,-466.89 780.46,-460.57 790.48,-455.92 800.67,-452.49"/>
<polygon fill="#9a32cd" stroke="#9a32cd" points="604.95,-538.5 595.26,-542.79 605.51,-545.48 604.95,-538.5"/>
<text text-anchor="middle" x="688" y="-542.89" font-family="Helvetica" font-size="10.00"> SplineParams</text>
</g>
<!-- Node32 -->
<g id="node32" class="node">
<title>Node32</title>
<g id="a_node32"><a xlink:title=" ">
<polygon fill="white" stroke="#bfbfbf" points="460.5,-483.89 460.5,-513.89 577.5,-513.89 577.5,-483.89 460.5,-483.89"/>
<text text-anchor="start" x="468.5" y="-501.89" font-family="Helvetica" font-size="10.00">std::vector&lt; Oscillation</text>
<text text-anchor="middle" x="519" y="-490.89" font-family="Helvetica" font-size="10.00">Parameter &gt;</text>
</a>
</g>
</g>
<!-- Node32&#45;&gt;Node14 -->
<g id="edge32" class="edge">
<title>Node32&#45;&gt;Node14</title>
<path fill="none" stroke="#9a32cd" stroke-dasharray="5,2" d="M587.76,-487.71C650.37,-477.38 742.38,-462.21 801.63,-452.43"/>
<polygon fill="#9a32cd" stroke="#9a32cd" points="586.89,-484.31 577.59,-489.39 588.03,-491.21 586.89,-484.31"/>
<text text-anchor="middle" x="688" y="-483.89" font-family="Helvetica" font-size="10.00"> OscParams</text>
</g>
<!-- Node33 -->
<g id="node33" class="node">
<title>Node33</title>
<g id="a_node33"><a xlink:title=" ">
<polygon fill="white" stroke="#bfbfbf" points="799.5,-297.89 799.5,-327.89 921.5,-327.89 921.5,-297.89 799.5,-297.89"/>
<text text-anchor="start" x="807.5" y="-315.89" font-family="Helvetica" font-size="10.00">std::unique_ptr&lt; Binning</text>
<text text-anchor="middle" x="860.5" y="-304.89" font-family="Helvetica" font-size="10.00">Handler &gt;</text>
</a>
</g>
</g>
<!-- Node33&#45;&gt;Node6 -->
<g id="edge34" class="edge">
<title>Node33&#45;&gt;Node6</title>
<path fill="none" stroke="#9a32cd" stroke-dasharray="5,2" d="M931.57,-300.22C986.06,-294.67 1059.9,-297.21 1106,-339.89 1157.15,-387.23 1169.14,-624.7 1171.16,-676.08"/>
<polygon fill="#9a32cd" stroke="#9a32cd" points="931.18,-296.74 921.63,-301.34 931.96,-303.7 931.18,-296.74"/>
<text text-anchor="middle" x="1036.5" y="-342.89" font-family="Helvetica" font-size="10.00"> Binning</text>
</g>
<!-- Node34 -->
<g id="node34" class="node">
<title>Node34</title>
<g id="a_node34"><a xlink:title=" ">
<polygon fill="white" stroke="#bfbfbf" points="801.5,-248.89 801.5,-278.89 919.5,-278.89 919.5,-248.89 801.5,-248.89"/>
<text text-anchor="start" x="809.5" y="-266.89" font-family="Helvetica" font-size="10.00">std::unordered_map</text>
<text text-anchor="middle" x="860.5" y="-255.89" font-family="Helvetica" font-size="10.00">&lt; std::string, NuPDG &gt;</text>
</a>
</g>
</g>
<!-- Node34&#45;&gt;Node6 -->
<g id="edge35" class="edge">
<title>Node34&#45;&gt;Node6</title>
<path fill="none" stroke="#9a32cd" stroke-dasharray="5,2" d="M922.28,-246.67C977.15,-235.16 1056.62,-229.13 1106,-272.89 1168.62,-328.38 1171.58,-618.76 1171.54,-676.06"/>
<polygon fill="#9a32cd" stroke="#9a32cd" points="921.34,-243.29 912.34,-248.87 922.86,-250.13 921.34,-243.29"/>
<text text-anchor="middle" x="1036.5" y="-286.89" font-family="Helvetica" font-size="10.00"> FileToFinalPDGMap</text>
<text text-anchor="middle" x="1036.5" y="-275.89" font-family="Helvetica" font-size="10.00">FileToInitPDGMap</text>
</g>
<!-- Node35 -->
<g id="node35" class="node">
<title>Node35</title>
<g id="a_node35"><a xlink:title=" ">
<polygon fill="white" stroke="#bfbfbf" points="792,-210.39 792,-229.39 929,-229.39 929,-210.39 792,-210.39"/>
<text text-anchor="middle" x="860.5" y="-217.39" font-family="Helvetica" font-size="10.00">std::unique_ptr&lt; manager &gt;</text>
</a>
</g>
</g>
<!-- Node35&#45;&gt;Node6 -->
<g id="edge38" class="edge">
<title>Node35&#45;&gt;Node6</title>
<path fill="none" stroke="#9a32cd" stroke-dasharray="5,2" d="M898.29,-207.34C951.21,-191.87 1048.74,-173.35 1106,-223.89 1176.45,-286.07 1173,-614.98 1171.74,-676.11"/>
<polygon fill="#9a32cd" stroke="#9a32cd" points="897.18,-204.02 888.63,-210.28 899.22,-210.72 897.18,-204.02"/>
<text text-anchor="middle" x="1036.5" y="-226.89" font-family="Helvetica" font-size="10.00"> SampleManager</text>
</g>
<!-- Node36 -->
<g id="node36" class="node">
<title>Node36</title>
<g id="a_node36"><a xlink:title=" ">
<polygon fill="white" stroke="#bfbfbf" points="802,-1056.89 802,-1086.89 919,-1086.89 919,-1056.89 802,-1056.89"/>
<text text-anchor="start" x="810" y="-1074.89" font-family="Helvetica" font-size="10.00">std::vector&lt; std::vector</text>
<text text-anchor="middle" x="860.5" y="-1063.89" font-family="Helvetica" font-size="10.00">&lt; KinematicCut &gt; &gt;</text>
</a>
</g>
</g>
<!-- Node36&#45;&gt;Node6 -->
<g id="edge39" class="edge">
<title>Node36&#45;&gt;Node6</title>
<path fill="none" stroke="#9a32cd" stroke-dasharray="5,2" d="M929.1,-1083.72C983.9,-1089.16 1059.42,-1086.61 1106,-1042.89 1158.49,-993.62 1169.46,-747.88 1171.21,-695.66"/>
<polygon fill="#9a32cd" stroke="#9a32cd" points="929.45,-1080.24 919.12,-1082.62 928.68,-1087.19 929.45,-1080.24"/>
<text text-anchor="middle" x="1036.5" y="-1098.89" font-family="Helvetica" font-size="10.00"> Selection</text>
<text text-anchor="middle" x="1036.5" y="-1087.89" font-family="Helvetica" font-size="10.00">StoredSelection</text>
</g>
<!-- Node37 -->
<g id="node37" class="node">
<title>Node37</title>
<g id="a_node37"><a xlink:title=" ">
<polygon fill="white" stroke="#bfbfbf" points="772,-1018.39 772,-1037.39 949,-1037.39 949,-1018.39 772,-1018.39"/>
<text text-anchor="middle" x="860.5" y="-1025.39" font-family="Helvetica" font-size="10.00">std::vector&lt; FunctionalParameter * &gt;</text>
</a>
</g>
</g>
<!-- Node37&#45;&gt;Node6 -->
<g id="edge40" class="edge">
<title>Node37&#45;&gt;Node6</title>
<path fill="none" stroke="#9a32cd" stroke-dasharray="5,2" d="M959.2,-1028.5C1017.67,-1026.75 1084.64,-1020.31 1106,-1000.89 1152.91,-958.24 1168.13,-743.55 1170.97,-695.46"/>
<polygon fill="#9a32cd" stroke="#9a32cd" points="959.06,-1025 949.15,-1028.76 959.24,-1032 959.06,-1025"/>
<text text-anchor="middle" x="1036.5" y="-1030.89" font-family="Helvetica" font-size="10.00"> funcParsMap</text>
</g>
<!-- Node38 -->
<g id="node38" class="node">
<title>Node38</title>
<g id="a_node38"><a xlink:title=" ">
<polygon fill="white" stroke="#bfbfbf" points="792,-968.89 792,-998.89 929,-998.89 929,-968.89 792,-968.89"/>
<text text-anchor="start" x="800" y="-986.89" font-family="Helvetica" font-size="10.00">std::shared_ptr&lt; Oscillation</text>
<text text-anchor="middle" x="860.5" y="-975.89" font-family="Helvetica" font-size="10.00">Handler &gt;</text>
</a>
</g>
</g>
<!-- Node38&#45;&gt;Node6 -->
<g id="edge42" class="edge">
<title>Node38&#45;&gt;Node6</title>
<path fill="none" stroke="#9a32cd" stroke-dasharray="5,2" d="M939.35,-986.46C1001.39,-986.8 1081.74,-982.9 1106,-961.89 1147.88,-925.62 1166.74,-739.9 1170.69,-695.45"/>
<polygon fill="#9a32cd" stroke="#9a32cd" points="939.21,-982.95 929.18,-986.36 939.14,-989.95 939.21,-982.95"/>
<text text-anchor="middle" x="1036.5" y="-988.89" font-family="Helvetica" font-size="10.00"> Oscillator</text>
</g>
<!-- Node39 -->
<g id="node39" class="node">
<title>Node39</title>
<g id="a_node39"><a xlink:title=" ">
<polygon fill="white" stroke="#bfbfbf" points="787,-919.89 787,-949.89 934,-949.89 934,-919.89 787,-919.89"/>
<text text-anchor="start" x="795" y="-937.89" font-family="Helvetica" font-size="10.00">std::unique_ptr&lt; BinnedSpline</text>
<text text-anchor="middle" x="860.5" y="-926.89" font-family="Helvetica" font-size="10.00">Handler &gt;</text>
</a>
</g>
</g>
<!-- Node39&#45;&gt;Node6 -->
<g id="edge43" class="edge">
<title>Node39&#45;&gt;Node6</title>
<path fill="none" stroke="#9a32cd" stroke-dasharray="5,2" d="M944.28,-948.94C996.31,-952.96 1061.73,-948.52 1106,-911.89 1140.86,-883.05 1164.43,-734.92 1170.15,-695.52"/>
<polygon fill="#9a32cd" stroke="#9a32cd" points="944.34,-945.43 934.06,-948.04 943.72,-952.41 944.34,-945.43"/>
<text text-anchor="middle" x="1036.5" y="-952.89" font-family="Helvetica" font-size="10.00"> SplineHandler</text>
</g>
<!-- Node40 -->
<g id="node40" class="node">
<title>Node40</title>
<g id="a_node40"><a xlink:title=" ">
<polygon fill="white" stroke="#bfbfbf" points="799,-870.89 799,-900.89 922,-900.89 922,-870.89 799,-870.89"/>
<text text-anchor="start" x="807" y="-888.89" font-family="Helvetica" font-size="10.00">std::vector&lt; FarDetector</text>
<text text-anchor="middle" x="860.5" y="-877.89" font-family="Helvetica" font-size="10.00">CoreInfo &gt;</text>
</a>
</g>
</g>
<!-- Node40&#45;&gt;Node6 -->
<g id="edge44" class="edge">
<title>Node40&#45;&gt;Node6</title>
<path fill="none" stroke="#9a32cd" stroke-dasharray="5,2" d="M932.29,-896.49C985.44,-900.43 1057.17,-896.74 1106,-858.89 1159.81,-817.18 1169.42,-725.91 1171.13,-695.77"/>
<polygon fill="#9a32cd" stroke="#9a32cd" points="932.52,-892.99 922.26,-895.63 931.93,-899.97 932.52,-892.99"/>
<text text-anchor="middle" x="1036.5" y="-899.89" font-family="Helvetica" font-size="10.00"> MCSamples</text>
</g>
<!-- Node41 -->
<g id="node41" class="node">
<title>Node41</title>
<g id="a_node41"><a xlink:title=" ">
<polygon fill="white" stroke="#bfbfbf" points="809,-821.89 809,-851.89 912,-851.89 912,-821.89 809,-821.89"/>
<text text-anchor="start" x="817" y="-839.89" font-family="Helvetica" font-size="10.00">std::unordered_map</text>
<text text-anchor="middle" x="860.5" y="-828.89" font-family="Helvetica" font-size="10.00">&lt; int, std::string &gt;</text>
</a>
</g>
</g>
<!-- Node41&#45;&gt;Node6 -->
<g id="edge45" class="edge">
<title>Node41&#45;&gt;Node6</title>
<path fill="none" stroke="#9a32cd" stroke-dasharray="5,2" d="M922.18,-835.71C984.7,-833.41 1077,-826.66 1106,-806.89 1146.26,-779.44 1163.95,-718.9 1169.47,-695.44"/>
<polygon fill="#9a32cd" stroke="#9a32cd" points="921.91,-832.21 912.03,-836.05 922.14,-839.21 921.91,-832.21"/>
<text text-anchor="middle" x="1036.5" y="-846.89" font-family="Helvetica" font-size="10.00"> ReversedKinematicParameters</text>
<text text-anchor="middle" x="1036.5" y="-835.89" font-family="Helvetica" font-size="10.00">ReversedKinematicVectors</text>
</g>
</g>
</svg>
        <g id="navigator" transform="translate(0 0)" fill="#404254">
                <rect fill="#f2f5e9" fill-opacity="0.5" stroke="#606060" stroke-width=".5" x="0" y="0" width="60" height="60"/>
                <use id="zoomplus" xlink:href="#zoomPlus" x="17" y="9" onmousedown="handleZoom(evt,'in')"/>
                <use id="zoomminus" xlink:href="#zoomMin" x="42" y="9" onmousedown="handleZoom(evt,'out')"/>
                <use id="reset" xlink:href="#resetDef" x="30" y="36" onmousedown="handleReset()"/>
                <g id="arrowUp" xlink:href="#dirArrow" transform="translate(30 24)" onmousedown="handlePan(0,-1)">
                  <use xlink:href="#rim" fill="#404040">
                        <set attributeName="fill" to="#808080" begin="arrowUp.mouseover" end="arrowUp.mouseout"/>
                  </use>
                  <path fill="none" stroke="white" stroke-width="1.5" d="M0,-3.0v7 M-2.5,-0.5L0,-3.0L2.5,-0.5"/>
                </g>
                <g id="arrowRight" xlink:href="#dirArrow" transform="rotate(90) translate(36 -43)" onmousedown="handlePan(1,0)">
                  <use xlink:href="#rim" fill="#404040">
                        <set attributeName="fill" to="#808080" begin="arrowRight.mouseover" end="arrowRight.mouseout"/>
                  </use>
                  <path fill="none" stroke="white" stroke-width="1.5" d="M0,-3.0v7 M-2.5,-0.5L0,-3.0L2.5,-0.5"/>
                </g>
                <g id="arrowDown" xlink:href="#dirArrow" transform="rotate(180) translate(-30 -48)" onmousedown="handlePan(0,1)">
                  <use xlink:href="#rim" fill="#404040">
                        <set attributeName="fill" to="#808080" begin="arrowDown.mouseover" end="arrowDown.mouseout"/>
                  </use>
                  <path fill="none" stroke="white" stroke-width="1.5" d="M0,-3.0v7 M-2.5,-0.5L0,-3.0L2.5,-0.5"/>
                </g>
                <g id="arrowLeft" xlink:href="#dirArrow" transform="rotate(270) translate(-36 17)" onmousedown="handlePan(-1,0)">
                  <use xlink:href="#rim" fill="#404040">
                        <set attributeName="fill" to="#808080" begin="arrowLeft.mouseover" end="arrowLeft.mouseout"/>
                  </use>
                  <path fill="none" stroke="white" stroke-width="1.5" d="M0,-3.0v7 M-2.5,-0.5L0,-3.0L2.5,-0.5"/>
                </g>
        </g>
        <svg viewBox="0 0 15 15" width="100%" height="30px" preserveAspectRatio="xMaxYMin meet">
         <g id="arrow_out" transform="scale(0.3 0.3)">
          <a xlink:href="structPredictiveSample__coll__graph_org.svg" target="_base">
           <rect id="button" ry="5" rx="5" y="6" x="6" height="38" width="38"
                fill="#f2f5e9" fill-opacity="0.5" stroke="#606060" stroke-width="1.0"/>
           <path id="arrow"
             d="M 11.500037,31.436501 C 11.940474,20.09759 22.043105,11.32322 32.158766,21.979434 L 37.068811,17.246167 C 37.068811,17.246167 37.088388,32 37.088388,32 L 22.160133,31.978069 C 22.160133,31.978069 26.997745,27.140456 26.997745,27.140456 C 18.528582,18.264221 13.291696,25.230495 11.500037,31.436501 z"
             style="fill:#404040;"/>
          </a>
         </g>
        </svg>
</svg>
