<?xml version="1.0" encoding="UTF-8" standalone="no"?>
<!DOCTYPE svg PUBLIC "-//W3C//DTD SVG 1.1//EN"
 "http://www.w3.org/Graphics/SVG/1.1/DTD/svg11.dtd">
<!-- Generated by graphviz version 2.44.0 (0)
 -->
<!-- Title: SMonolith Pages: 1 -->
<!--zoomable 366 -->
<svg id="main" version="1.1" xmlns="http://www.w3.org/2000/svg" xmlns:xlink="http://www.w3.org/1999/xlink" xml:space="preserve" onload="init(evt)">
<style type="text/css"><![CDATA[
.edge:hover path { stroke: red; }
.edge:hover polygon { stroke: red; fill: red; }
]]></style>
<script type="text/javascript"><![CDATA[
var edges = document.getElementsByTagName('g');
if (edges && edges.length) {
  for (var i=0;i<edges.length;i++) {
    if (edges[i].id.substr(0,4)=='edge') {
      edges[i].setAttribute('class','edge');
    }
  }
}
]]></script>
        <defs>
                <circle id="rim" cx="0" cy="0" r="7"/>
                <circle id="rim2" cx="0" cy="0" r="3.5"/>
                <g id="zoomPlus">
                        <use xlink:href="#rim" fill="#404040">
                                <set attributeName="fill" to="#808080" begin="zoomplus.mouseover" end="zoomplus.mouseout"/>
                        </use>
                        <path d="M-4,0h8M0,-4v8" fill="none" stroke="white" stroke-width="1.5" pointer-events="none"/>
                </g>
                <g id="zoomMin">
                        <use xlink:href="#rim" fill="#404040">
                                <set attributeName="fill" to="#808080" begin="zoomminus.mouseover" end="zoomminus.mouseout"/>
                        </use>
                        <path d="M-4,0h8" fill="none" stroke="white" stroke-width="1.5" pointer-events="none"/>
                </g>
                <g id="dirArrow">
                        <path fill="none" stroke="white" stroke-width="1.5" d="M0,-3.0v7 M-2.5,-0.5L0,-3.0L2.5,-0.5"/>
                </g>
               <g id="resetDef">
                       <use xlink:href="#rim2" fill="#404040">
                               <set attributeName="fill" to="#808080" begin="reset.mouseover" end="reset.mouseout"/>
                       </use>
               </g>
        </defs>

<script type="text/javascript">
var viewWidth = 551;
var viewHeight = 366;
var sectionId = 'dynsection-1';
</script>
<script xlink:href="svgpan.js"/>
<svg id="graph" class="graph">
<g id="viewport">
<title>SMonolith</title>
<polygon fill="white" stroke="transparent" points="-4,4 -4,-362.49 547,-362.49 547,4 -4,4"/>
<!-- Node1 -->
<g id="node1" class="node">
<title>Node1</title>
<g id="a_node1"><a xlink:title="Even&#45;by&#45;event class calculating response for spline parameters. It is possible to use GPU acceleratio...">
<polygon fill="#bfbfbf" stroke="black" points="483,-169.99 483,-188.99 543,-188.99 543,-169.99 483,-169.99"/>
<text text-anchor="middle" x="513" y="-176.99" font-family="Helvetica" font-size="10.00">SMonolith</text>
</a>
</g>
</g>
<!-- Node2 -->
<g id="node2" class="node">
<title>Node2</title>
<g id="a_node2"><a xlink:href="classSplineBase.html" target="_top" xlink:title="Base class for calculating weight from spline.">
<polygon fill="white" stroke="black" points="271.5,-337.99 271.5,-356.99 337.5,-356.99 337.5,-337.99 271.5,-337.99"/>
<text text-anchor="middle" x="304.5" y="-344.99" font-family="Helvetica" font-size="10.00">SplineBase</text>
</a>
</g>
</g>
<!-- Node2&#45;&gt;Node1 -->
<g id="edge1" class="edge">
<title>Node2&#45;&gt;Node1</title>
<path fill="none" stroke="midnightblue" d="M347.7,-350.55C383.08,-350.8 432.83,-345.38 465,-317.49 504.4,-283.34 510.82,-214.79 511.83,-189.32"/>
<polygon fill="midnightblue" stroke="midnightblue" points="347.75,-347.06 337.68,-350.33 347.6,-354.05 347.75,-347.06"/>
</g>
<!-- Node3 -->
<g id="node3" class="node">
<title>Node3</title>
<g id="a_node3"><a xlink:title=" ">
<polygon fill="white" stroke="#bfbfbf" points="0,-337.99 0,-356.99 143,-356.99 143,-337.99 0,-337.99"/>
<text text-anchor="middle" x="71.5" y="-344.99" font-family="Helvetica" font-size="10.00">std::vector&lt; FastSplineInfo &gt;</text>
</a>
</g>
</g>
<!-- Node3&#45;&gt;Node2 -->
<g id="edge2" class="edge">
<title>Node3&#45;&gt;Node2</title>
<path fill="none" stroke="#9a32cd" stroke-dasharray="5,2" d="M153.24,-347.49C193.86,-347.49 240.81,-347.49 271.27,-347.49"/>
<polygon fill="#9a32cd" stroke="#9a32cd" points="153.06,-343.99 143.06,-347.49 153.06,-350.99 153.06,-343.99"/>
<text text-anchor="middle" x="196" y="-350.49" font-family="Helvetica" font-size="10.00"> SplineInfoArray</text>
</g>
<!-- Node4 -->
<g id="node4" class="node">
<title>Node4</title>
<g id="a_node4"><a xlink:title=" ">
<polygon fill="white" stroke="#bfbfbf" points="257,-288.49 257,-318.49 352,-318.49 352,-288.49 257,-288.49"/>
<text text-anchor="start" x="265" y="-306.49" font-family="Helvetica" font-size="10.00">std::vector&lt; const</text>
<text text-anchor="middle" x="304.5" y="-295.49" font-family="Helvetica" font-size="10.00"> double * &gt;</text>
</a>
</g>
</g>
<!-- Node4&#45;&gt;Node1 -->
<g id="edge3" class="edge">
<title>Node4&#45;&gt;Node1</title>
<path fill="none" stroke="#9a32cd" stroke-dasharray="5,2" d="M362.51,-304.4C395.4,-302.2 435.86,-294.52 465,-272.49 493.14,-251.21 505.68,-208.39 510.06,-189.19"/>
<polygon fill="#9a32cd" stroke="#9a32cd" points="361.93,-300.93 352.13,-304.94 362.3,-307.92 361.93,-300.93"/>
<text text-anchor="middle" x="421.5" y="-305.49" font-family="Helvetica" font-size="10.00"> splineParsPointer</text>
</g>
<!-- Node5 -->
<g id="node5" class="node">
<title>Node5</title>
<g id="a_node5"><a xlink:href="structSplineMonoStruct.html" target="_top" xlink:title="KS: Struct storing information for spline monolith.">
<polygon fill="white" stroke="black" points="257.5,-194.99 257.5,-213.99 351.5,-213.99 351.5,-194.99 257.5,-194.99"/>
<text text-anchor="middle" x="304.5" y="-201.99" font-family="Helvetica" font-size="10.00">SplineMonoStruct</text>
</a>
</g>
</g>
<!-- Node5&#45;&gt;Node1 -->
<g id="edge4" class="edge">
<title>Node5&#45;&gt;Node1</title>
<path fill="none" stroke="#9a32cd" stroke-dasharray="5,2" d="M361.54,-197.71C400.75,-192.96 451.54,-186.81 482.93,-183.01"/>
<polygon fill="#9a32cd" stroke="#9a32cd" points="361.09,-194.23 351.59,-198.91 361.93,-201.18 361.09,-194.23"/>
<text text-anchor="middle" x="421.5" y="-198.49" font-family="Helvetica" font-size="10.00"> cpu_spline_handler</text>
</g>
<!-- Node6 -->
<g id="node6" class="node">
<title>Node6</title>
<g id="a_node6"><a xlink:title=" ">
<polygon fill="white" stroke="#bfbfbf" points="22,-229.99 22,-248.99 121,-248.99 121,-229.99 22,-229.99"/>
<text text-anchor="middle" x="71.5" y="-236.99" font-family="Helvetica" font-size="10.00">std::vector&lt; float &gt;</text>
</a>
</g>
</g>
<!-- Node6&#45;&gt;Node1 -->
<g id="edge8" class="edge">
<title>Node6&#45;&gt;Node1</title>
<path fill="none" stroke="#9a32cd" stroke-dasharray="5,2" d="M131.35,-243.28C141.24,-243.78 151.41,-244.22 161,-244.49 296.9,-248.33 337.94,-258.85 465,-210.49 478.16,-205.48 491.38,-196.3 500.44,-189.22"/>
<polygon fill="#9a32cd" stroke="#9a32cd" points="131.34,-239.78 121.17,-242.73 130.97,-246.77 131.34,-239.78"/>
<text text-anchor="middle" x="304.5" y="-250.49" font-family="Helvetica" font-size="10.00"> cpu_coeff_TF1_many</text>
</g>
<!-- Node6&#45;&gt;Node5 -->
<g id="edge5" class="edge">
<title>Node6&#45;&gt;Node5</title>
<path fill="none" stroke="#9a32cd" stroke-dasharray="5,2" d="M129.21,-228.04C139.75,-226.07 150.7,-224.13 161,-222.49 193.01,-217.4 229.26,-212.84 257.19,-209.58"/>
<polygon fill="#9a32cd" stroke="#9a32cd" points="128.42,-224.63 119.25,-229.93 129.73,-231.5 128.42,-224.63"/>
<text text-anchor="middle" x="196" y="-236.49" font-family="Helvetica" font-size="10.00"> coeff_many</text>
<text text-anchor="middle" x="196" y="-225.49" font-family="Helvetica" font-size="10.00">coeff_x</text>
</g>
<!-- Node7 -->
<g id="node7" class="node">
<title>Node7</title>
<g id="a_node7"><a xlink:title=" ">
<polygon fill="white" stroke="#bfbfbf" points="16.5,-153.49 16.5,-183.49 126.5,-183.49 126.5,-153.49 16.5,-153.49"/>
<text text-anchor="start" x="24.5" y="-171.49" font-family="Helvetica" font-size="10.00">std::vector&lt; unsigned</text>
<text text-anchor="middle" x="71.5" y="-160.49" font-family="Helvetica" font-size="10.00"> int &gt;</text>
</a>
</g>
</g>
<!-- Node7&#45;&gt;Node1 -->
<g id="edge10" class="edge">
<title>Node7&#45;&gt;Node1</title>
<path fill="none" stroke="#9a32cd" stroke-dasharray="5,2" d="M136.75,-164.81C195.05,-162.08 283.34,-159.47 360,-163.49 402.93,-165.74 452.39,-171.55 482.93,-175.51"/>
<polygon fill="#9a32cd" stroke="#9a32cd" points="136.41,-161.32 126.59,-165.3 136.74,-168.31 136.41,-161.32"/>
<text text-anchor="middle" x="304.5" y="-177.49" font-family="Helvetica" font-size="10.00"> cpu_nParamPerEvent</text>
<text text-anchor="middle" x="304.5" y="-166.49" font-family="Helvetica" font-size="10.00">cpu_nParamPerEvent_tf1</text>
</g>
<!-- Node7&#45;&gt;Node5 -->
<g id="edge6" class="edge">
<title>Node7&#45;&gt;Node5</title>
<path fill="none" stroke="#9a32cd" stroke-dasharray="5,2" d="M136.7,-178.5C175.05,-184.47 222.88,-191.93 257.47,-197.32"/>
<polygon fill="#9a32cd" stroke="#9a32cd" points="137.08,-175.01 126.66,-176.93 136,-181.93 137.08,-175.01"/>
<text text-anchor="middle" x="196" y="-195.49" font-family="Helvetica" font-size="10.00"> nKnots_arr</text>
</g>
<!-- Node8 -->
<g id="node8" class="node">
<title>Node8</title>
<g id="a_node8"><a xlink:title=" ">
<polygon fill="white" stroke="#bfbfbf" points="24.5,-99.49 24.5,-129.49 118.5,-129.49 118.5,-99.49 24.5,-99.49"/>
<text text-anchor="start" x="32.5" y="-117.49" font-family="Helvetica" font-size="10.00">std::vector&lt; short</text>
<text text-anchor="middle" x="71.5" y="-106.49" font-family="Helvetica" font-size="10.00"> int &gt;</text>
</a>
</g>
</g>
<!-- Node8&#45;&gt;Node1 -->
<g id="edge12" class="edge">
<title>Node8&#45;&gt;Node1</title>
<path fill="none" stroke="#9a32cd" stroke-dasharray="5,2" d="M128.68,-115.52C186.86,-117.27 280.27,-121.94 360,-134.49 407.49,-141.96 419.27,-145.67 465,-160.49 473.37,-163.2 482.38,-166.7 490.24,-169.95"/>
<polygon fill="#9a32cd" stroke="#9a32cd" points="128.68,-112.02 118.59,-115.24 128.48,-119.02 128.68,-112.02"/>
<text text-anchor="middle" x="304.5" y="-148.49" font-family="Helvetica" font-size="10.00"> cpu_nPoints_arr</text>
<text text-anchor="middle" x="304.5" y="-137.49" font-family="Helvetica" font-size="10.00">cpu_paramNo_TF1_arr</text>
</g>
<!-- Node8&#45;&gt;Node5 -->
<g id="edge7" class="edge">
<title>Node8&#45;&gt;Node5</title>
<path fill="none" stroke="#9a32cd" stroke-dasharray="5,2" d="M128.54,-128.73C159.64,-137.73 198.51,-150.82 231,-167.49 239.78,-172 240.44,-175.59 249,-180.49 258.42,-185.89 269.28,-190.89 278.82,-194.92"/>
<polygon fill="#9a32cd" stroke="#9a32cd" points="129.3,-125.31 118.72,-125.95 127.39,-132.04 129.3,-125.31"/>
<text text-anchor="middle" x="196" y="-170.49" font-family="Helvetica" font-size="10.00"> paramNo_arr</text>
</g>
<!-- Node9 -->
<g id="node9" class="node">
<title>Node9</title>
<g id="a_node9"><a xlink:title=" ">
<polygon fill="white" stroke="#bfbfbf" points="259,-39.99 259,-58.99 350,-58.99 350,-39.99 259,-39.99"/>
<text text-anchor="middle" x="304.5" y="-46.99" font-family="Helvetica" font-size="10.00">std::vector&lt; int &gt;</text>
</a>
</g>
</g>
<!-- Node9&#45;&gt;Node1 -->
<g id="edge9" class="edge">
<title>Node9&#45;&gt;Node1</title>
<path fill="none" stroke="#9a32cd" stroke-dasharray="5,2" d="M360.11,-39.12C393.45,-35.91 435.24,-37.79 465,-59.49 501.88,-86.38 509.83,-146.62 511.54,-169.98"/>
<polygon fill="#9a32cd" stroke="#9a32cd" points="359.59,-35.66 350.05,-40.27 360.39,-42.61 359.59,-35.66"/>
<text text-anchor="middle" x="421.5" y="-73.49" font-family="Helvetica" font-size="10.00"> index_TF1_cpu</text>
<text text-anchor="middle" x="421.5" y="-62.49" font-family="Helvetica" font-size="10.00">index_spline_cpu</text>
</g>
<!-- Node10 -->
<g id="node10" class="node">
<title>Node10</title>
<g id="a_node10"><a xlink:href="classSMonolithGPU.html" target="_top" xlink:title="Class responsible for calculating spline weight on GPU.">
<polygon fill="white" stroke="black" points="264,-1.99 264,-20.99 345,-20.99 345,-1.99 264,-1.99"/>
<text text-anchor="middle" x="304.5" y="-8.99" font-family="Helvetica" font-size="10.00">SMonolithGPU</text>
</a>
</g>
</g>
<!-- Node10&#45;&gt;Node1 -->
<g id="edge11" class="edge">
<title>Node10&#45;&gt;Node1</title>
<path fill="none" stroke="#9a32cd" stroke-dasharray="5,2" d="M355.39,-1.66C389.82,2.16 434.68,0.86 465,-23.49 511.31,-60.68 513.27,-141.83 512.48,-169.79"/>
<polygon fill="#9a32cd" stroke="#9a32cd" points="354.53,1.76 345.06,-2.98 355.43,-5.18 354.53,1.76"/>
<text text-anchor="middle" x="421.5" y="-26.49" font-family="Helvetica" font-size="10.00"> gpu_spline_handler</text>
</g>
</g>
</svg>
        <g id="navigator" transform="translate(0 0)" fill="#404254">
                <rect fill="#f2f5e9" fill-opacity="0.5" stroke="#606060" stroke-width=".5" x="0" y="0" width="60" height="60"/>
                <use id="zoomplus" xlink:href="#zoomPlus" x="17" y="9" onmousedown="handleZoom(evt,'in')"/>
                <use id="zoomminus" xlink:href="#zoomMin" x="42" y="9" onmousedown="handleZoom(evt,'out')"/>
                <use id="reset" xlink:href="#resetDef" x="30" y="36" onmousedown="handleReset()"/>
                <g id="arrowUp" xlink:href="#dirArrow" transform="translate(30 24)" onmousedown="handlePan(0,-1)">
                  <use xlink:href="#rim" fill="#404040">
                        <set attributeName="fill" to="#808080" begin="arrowUp.mouseover" end="arrowUp.mouseout"/>
                  </use>
                  <path fill="none" stroke="white" stroke-width="1.5" d="M0,-3.0v7 M-2.5,-0.5L0,-3.0L2.5,-0.5"/>
                </g>
                <g id="arrowRight" xlink:href="#dirArrow" transform="rotate(90) translate(36 -43)" onmousedown="handlePan(1,0)">
                  <use xlink:href="#rim" fill="#404040">
                        <set attributeName="fill" to="#808080" begin="arrowRight.mouseover" end="arrowRight.mouseout"/>
                  </use>
                  <path fill="none" stroke="white" stroke-width="1.5" d="M0,-3.0v7 M-2.5,-0.5L0,-3.0L2.5,-0.5"/>
                </g>
                <g id="arrowDown" xlink:href="#dirArrow" transform="rotate(180) translate(-30 -48)" onmousedown="handlePan(0,1)">
                  <use xlink:href="#rim" fill="#404040">
                        <set attributeName="fill" to="#808080" begin="arrowDown.mouseover" end="arrowDown.mouseout"/>
                  </use>
                  <path fill="none" stroke="white" stroke-width="1.5" d="M0,-3.0v7 M-2.5,-0.5L0,-3.0L2.5,-0.5"/>
                </g>
                <g id="arrowLeft" xlink:href="#dirArrow" transform="rotate(270) translate(-36 17)" onmousedown="handlePan(-1,0)">
                  <use xlink:href="#rim" fill="#404040">
                        <set attributeName="fill" to="#808080" begin="arrowLeft.mouseover" end="arrowLeft.mouseout"/>
                  </use>
                  <path fill="none" stroke="white" stroke-width="1.5" d="M0,-3.0v7 M-2.5,-0.5L0,-3.0L2.5,-0.5"/>
                </g>
        </g>
        <svg viewBox="0 0 15 15" width="100%" height="30px" preserveAspectRatio="xMaxYMin meet">
         <g id="arrow_out" transform="scale(0.3 0.3)">
          <a xlink:href="classSMonolith__coll__graph_org.svg" target="_base">
           <rect id="button" ry="5" rx="5" y="6" x="6" height="38" width="38"
                fill="#f2f5e9" fill-opacity="0.5" stroke="#606060" stroke-width="1.0"/>
           <path id="arrow"
             d="M 11.500037,31.436501 C 11.940474,20.09759 22.043105,11.32322 32.158766,21.979434 L 37.068811,17.246167 C 37.068811,17.246167 37.088388,32 37.088388,32 L 22.160133,31.978069 C 22.160133,31.978069 26.997745,27.140456 26.997745,27.140456 C 18.528582,18.264221 13.291696,25.230495 11.500037,31.436501 z"
             style="fill:#404040;"/>
          </a>
         </g>
        </svg>
</svg>
