<?xml version="1.0" encoding="UTF-8" standalone="no"?>
<!DOCTYPE svg PUBLIC "-//W3C//DTD SVG 1.1//EN"
 "http://www.w3.org/Graphics/SVG/1.1/DTD/svg11.dtd">
<!-- Generated by graphviz version 2.43.0 (0)
 -->
<!-- Title: Plotting/plottingUtils Pages: 1 -->
<svg width="209pt" height="117pt"
 viewBox="0.00 0.00 209.00 117.00" xmlns="http://www.w3.org/2000/svg" xmlns:xlink="http://www.w3.org/1999/xlink">
<g id="graph0" class="graph" transform="scale(1 1) rotate(0) translate(4 113)">
<title>Plotting/plottingUtils</title>
<g id="clust1" class="cluster">
<title>clusterdir_9355fa16a3efe979605ed9b41cf7efd7</title>
<g id="a_clust1"><a xlink:href="dir_9355fa16a3efe979605ed9b41cf7efd7.html" target="_top" xlink:title="Plotting">
<polygon fill="#edf0f7" stroke="#404040" stroke-dasharray="5,2" points="59.5,-47 59.5,-101 153.5,-101 153.5,-47 59.5,-47"/>
<text text-anchor="middle" x="106.5" y="-89" font-family="Helvetica,sans-Serif" font-size="10.00">Plotting</text>
</a>
</g>
</g>
<!-- dir_8b7367947eaf63d1cab3147f90943d2d -->
<g id="node1" class="node">
<title>dir_8b7367947eaf63d1cab3147f90943d2d</title>
<g id="a_node1"><a xlink:href="dir_8b7367947eaf63d1cab3147f90943d2d.html" target="_top" xlink:title="plottingUtils">
<polygon fill="#edf0f7" stroke="#404040" stroke-width="2" points="145,-74 68,-74 68,-55 145,-55 145,-74"/>
<text text-anchor="middle" x="106.5" y="-62" font-family="Helvetica,sans-Serif" font-size="10.00">plottingUtils</text>
</a>
</g>
</g>
<!-- dir_0d0ed8c9b19e6818cf5af4bd559a697b -->
<g id="node2" class="node">
<title>dir_0d0ed8c9b19e6818cf5af4bd559a697b</title>
<g id="a_node2"><a xlink:href="dir_0d0ed8c9b19e6818cf5af4bd559a697b.html" target="_top" xlink:title="Manager">
<polygon fill="#edf0f7" stroke="#404040" points="59,-19 0,-19 0,0 59,0 59,-19"/>
<text text-anchor="middle" x="29.5" y="-7" font-family="Helvetica,sans-Serif" font-size="10.00">Manager</text>
</a>
</g>
</g>
<!-- dir_8b7367947eaf63d1cab3147f90943d2d&#45;&gt;dir_0d0ed8c9b19e6818cf5af4bd559a697b -->
<g id="edge1" class="edge">
<title>dir_8b7367947eaf63d1cab3147f90943d2d&#45;&gt;dir_0d0ed8c9b19e6818cf5af4bd559a697b</title>
<path fill="none" stroke="#63b8ff" d="M94.13,-54.98C82.41,-46.92 64.58,-34.65 50.61,-25.03"/>
<polygon fill="#63b8ff" stroke="#63b8ff" points="52.32,-21.96 42.1,-19.17 48.35,-27.72 52.32,-21.96"/>
<g id="a_edge1&#45;headlabel"><a xlink:href="dir_000006_000003.html" target="_top" xlink:title="11">
<text text-anchor="middle" x="56.89" y="-19.16" font-family="Helvetica,sans-Serif" font-size="10.00" fill="#63b8ff">11</text>
</a>
</g>
</g>
<!-- dir_24e107d8aaaa0f0fb9ce89773de45c08 -->
<g id="node3" class="node">
<title>dir_24e107d8aaaa0f0fb9ce89773de45c08</title>
<g id="a_node3"><a xlink:href="dir_24e107d8aaaa0f0fb9ce89773de45c08.html" target="_top" xlink:title="Samples">
<polygon fill="#edf0f7" stroke="#404040" points="136,-19 77,-19 77,0 136,0 136,-19"/>
<text text-anchor="middle" x="106.5" y="-7" font-family="Helvetica,sans-Serif" font-size="10.00">Samples</text>
</a>
</g>
</g>
<!-- dir_8b7367947eaf63d1cab3147f90943d2d&#45;&gt;dir_24e107d8aaaa0f0fb9ce89773de45c08 -->
<g id="edge2" class="edge">
<title>dir_8b7367947eaf63d1cab3147f90943d2d&#45;&gt;dir_24e107d8aaaa0f0fb9ce89773de45c08</title>
<path fill="none" stroke="#63b8ff" d="M106.5,-54.75C106.5,-47.8 106.5,-37.85 106.5,-29.13"/>
<polygon fill="#63b8ff" stroke="#63b8ff" points="110,-29.09 106.5,-19.09 103,-29.09 110,-29.09"/>
<g id="a_edge2&#45;headlabel"><a xlink:href="dir_000006_000008.html" target="_top" xlink:title="1">
<text text-anchor="middle" x="112.84" y="-30.18" font-family="Helvetica,sans-Serif" font-size="10.00" fill="#63b8ff">1</text>
</a>
</g>
</g>
<!-- dir_c4587985b869c96ecd5a3e2399525831 -->
<g id="node4" class="node">
<title>dir_c4587985b869c96ecd5a3e2399525831</title>
<g id="a_node4"><a xlink:href="dir_c4587985b869c96ecd5a3e2399525831.html" target="_top" xlink:title="Fitters">
<polygon fill="#edf0f7" stroke="#404040" points="201,-19 154,-19 154,0 201,0 201,-19"/>
<text text-anchor="middle" x="177.5" y="-7" font-family="Helvetica,sans-Serif" font-size="10.00">Fitters</text>
</a>
</g>
</g>
<!-- dir_8b7367947eaf63d1cab3147f90943d2d&#45;&gt;dir_c4587985b869c96ecd5a3e2399525831 -->
<g id="edge3" class="edge">
<title>dir_8b7367947eaf63d1cab3147f90943d2d&#45;&gt;dir_c4587985b869c96ecd5a3e2399525831</title>
<path fill="none" stroke="#63b8ff" d="M117.91,-54.98C128.61,-47 144.84,-34.88 157.66,-25.31"/>
<polygon fill="#63b8ff" stroke="#63b8ff" points="159.97,-27.96 165.89,-19.17 155.78,-22.35 159.97,-27.96"/>
<g id="a_edge3&#45;headlabel"><a xlink:href="dir_000006_000002.html" target="_top" xlink:title="1">
<text text-anchor="middle" x="158.78" y="-29.88" font-family="Helvetica,sans-Serif" font-size="10.00" fill="#63b8ff">1</text>
</a>
</g>
</g>
</g>
</svg>
