<?xml version="1.0" encoding="UTF-8" standalone="no"?>
<!DOCTYPE svg PUBLIC "-//W3C//DTD SVG 1.1//EN"
 "http://www.w3.org/Graphics/SVG/1.1/DTD/svg11.dtd">
<!-- Generated by graphviz version 2.43.0 (0)
 -->
<!-- Title: Manager/gpuUtils.cuh Pages: 1 -->
<svg width="455pt" height="159pt"
 viewBox="0.00 0.00 454.50 159.00" xmlns="http://www.w3.org/2000/svg" xmlns:xlink="http://www.w3.org/1999/xlink">
<g id="graph0" class="graph" transform="scale(1 1) rotate(0) translate(4 155)">
<title>Manager/gpuUtils.cuh</title>
<!-- Node1 -->
<g id="node1" class="node">
<title>Node1</title>
<g id="a_node1"><a xlink:title="Common CUDA utilities and definitions for shared GPU functionality.">
<polygon fill="#999999" stroke="#666666" points="285,-151 162,-151 162,-132 285,-132 285,-151"/>
<text text-anchor="middle" x="223.5" y="-139" font-family="Helvetica,sans-Serif" font-size="10.00">Manager/gpuUtils.cuh</text>
</a>
</g>
</g>
<!-- Node2 -->
<g id="node2" class="node">
<title>Node2</title>
<g id="a_node2"><a xlink:href="gpuMCMCProcessorUtils_8cuh.html" target="_top" xlink:title=" ">
<polygon fill="white" stroke="#666666" points="147,-96 0,-96 0,-66 147,-66 147,-96"/>
<text text-anchor="start" x="8" y="-84" font-family="Helvetica,sans-Serif" font-size="10.00">Fitters/gpuMCMCProcessor</text>
<text text-anchor="middle" x="73.5" y="-73" font-family="Helvetica,sans-Serif" font-size="10.00">Utils.cuh</text>
</a>
</g>
</g>
<!-- Node1&#45;&gt;Node2 -->
<g id="edge1" class="edge">
<title>Node1&#45;&gt;Node2</title>
<path fill="none" stroke="#63b8ff" d="M192.3,-128.33C168.2,-118.93 134.81,-105.91 109.56,-96.06"/>
<polygon fill="#63b8ff" stroke="#63b8ff" points="191.1,-131.62 201.69,-131.99 193.64,-125.1 191.1,-131.62"/>
</g>
<!-- Node4 -->
<g id="node4" class="node">
<title>Node4</title>
<g id="a_node4"><a xlink:href="gpuUtils_8cu.html" target="_top" xlink:title=" ">
<polygon fill="white" stroke="#666666" points="282,-90.5 165,-90.5 165,-71.5 282,-71.5 282,-90.5"/>
<text text-anchor="middle" x="223.5" y="-78.5" font-family="Helvetica,sans-Serif" font-size="10.00">Manager/gpuUtils.cu</text>
</a>
</g>
</g>
<!-- Node1&#45;&gt;Node4 -->
<g id="edge3" class="edge">
<title>Node1&#45;&gt;Node4</title>
<path fill="none" stroke="#63b8ff" d="M223.5,-121.66C223.5,-111.24 223.5,-98.8 223.5,-90.67"/>
<polygon fill="#63b8ff" stroke="#63b8ff" points="220,-121.87 223.5,-131.87 227,-121.87 220,-121.87"/>
</g>
<!-- Node5 -->
<g id="node5" class="node">
<title>Node5</title>
<g id="a_node5"><a xlink:href="gpuSplineUtils_8cuh.html" target="_top" xlink:title="MaCh3 event&#45;by&#45;event cross&#45;section spline code.">
<polygon fill="white" stroke="#666666" points="446.5,-90.5 300.5,-90.5 300.5,-71.5 446.5,-71.5 446.5,-90.5"/>
<text text-anchor="middle" x="373.5" y="-78.5" font-family="Helvetica,sans-Serif" font-size="10.00">Splines/gpuSplineUtils.cuh</text>
</a>
</g>
</g>
<!-- Node1&#45;&gt;Node5 -->
<g id="edge4" class="edge">
<title>Node1&#45;&gt;Node5</title>
<path fill="none" stroke="#63b8ff" d="M254.96,-128.23C283.95,-116.92 326.21,-100.44 351.66,-90.52"/>
<polygon fill="#63b8ff" stroke="#63b8ff" points="253.36,-125.1 245.31,-131.99 255.9,-131.62 253.36,-125.1"/>
</g>
<!-- Node3 -->
<g id="node3" class="node">
<title>Node3</title>
<g id="a_node3"><a xlink:href="gpuMCMCProcessorUtils_8cu.html" target="_top" xlink:title=" ">
<polygon fill="white" stroke="#666666" points="147,-30 0,-30 0,0 147,0 147,-30"/>
<text text-anchor="start" x="8" y="-18" font-family="Helvetica,sans-Serif" font-size="10.00">Fitters/gpuMCMCProcessor</text>
<text text-anchor="middle" x="73.5" y="-7" font-family="Helvetica,sans-Serif" font-size="10.00">Utils.cu</text>
</a>
</g>
</g>
<!-- Node2&#45;&gt;Node3 -->
<g id="edge2" class="edge">
<title>Node2&#45;&gt;Node3</title>
<path fill="none" stroke="#63b8ff" d="M73.5,-55.54C73.5,-46.96 73.5,-37.61 73.5,-30.16"/>
<polygon fill="#63b8ff" stroke="#63b8ff" points="70,-55.8 73.5,-65.8 77,-55.8 70,-55.8"/>
</g>
<!-- Node6 -->
<g id="node6" class="node">
<title>Node6</title>
<g id="a_node6"><a xlink:href="gpuSplineUtils_8cu.html" target="_top" xlink:title=" ">
<polygon fill="white" stroke="#666666" points="443.5,-24.5 303.5,-24.5 303.5,-5.5 443.5,-5.5 443.5,-24.5"/>
<text text-anchor="middle" x="373.5" y="-12.5" font-family="Helvetica,sans-Serif" font-size="10.00">Splines/gpuSplineUtils.cu</text>
</a>
</g>
</g>
<!-- Node5&#45;&gt;Node6 -->
<g id="edge5" class="edge">
<title>Node5&#45;&gt;Node6</title>
<path fill="none" stroke="#63b8ff" d="M373.5,-61.08C373.5,-49.13 373.5,-34.22 373.5,-24.91"/>
<polygon fill="#63b8ff" stroke="#63b8ff" points="370,-61.37 373.5,-71.37 377,-61.37 370,-61.37"/>
</g>
</g>
</svg>
