<?xml version="1.0" encoding="UTF-8" standalone="no"?>
<!DOCTYPE svg PUBLIC "-//W3C//DTD SVG 1.1//EN"
 "http://www.w3.org/Graphics/SVG/1.1/DTD/svg11.dtd">
<!-- Generated by graphviz version 2.43.0 (0)
 -->
<!-- Title: Manager/MaCh3Exception.h Pages: 1 -->
<svg width="652pt" height="192pt"
 viewBox="0.00 0.00 652.02 192.00" xmlns="http://www.w3.org/2000/svg" xmlns:xlink="http://www.w3.org/1999/xlink">
<g id="graph0" class="graph" transform="scale(1 1) rotate(0) translate(4 188)">
<title>Manager/MaCh3Exception.h</title>
<!-- Node1 -->
<g id="node1" class="node">
<title>Node1</title>
<g id="a_node1"><a xlink:title=" ">
<polygon fill="#999999" stroke="#666666" points="189.02,-184 36.02,-184 36.02,-165 189.02,-165 189.02,-184"/>
<text text-anchor="middle" x="112.52" y="-172" font-family="Helvetica,sans-Serif" font-size="10.00">Manager/MaCh3Exception.h</text>
</a>
</g>
</g>
<!-- Node2 -->
<g id="node2" class="node">
<title>Node2</title>
<g id="a_node2"><a xlink:title=" ">
<polygon fill="#e0e0e0" stroke="#999999" points="228.52,-19 168.52,-19 168.52,0 228.52,0 228.52,-19"/>
<text text-anchor="middle" x="198.52" y="-7" font-family="Helvetica,sans-Serif" font-size="10.00">iostream</text>
</a>
</g>
</g>
<!-- Node1&#45;&gt;Node2 -->
<g id="edge1" class="edge">
<title>Node1&#45;&gt;Node2</title>
<path fill="none" stroke="#63b8ff" d="M94.6,-164.98C56.71,-145.85 -25.4,-97.79 8.52,-55 26.85,-31.89 108.14,-19.63 158.27,-14.15"/>
<polygon fill="#63b8ff" stroke="#63b8ff" points="158.88,-17.61 168.46,-13.08 158.15,-10.65 158.88,-17.61"/>
</g>
<!-- Node3 -->
<g id="node3" class="node">
<title>Node3</title>
<g id="a_node3"><a xlink:title=" ">
<polygon fill="#e0e0e0" stroke="#999999" points="61.52,-74 17.52,-74 17.52,-55 61.52,-55 61.52,-74"/>
<text text-anchor="middle" x="39.52" y="-62" font-family="Helvetica,sans-Serif" font-size="10.00">string</text>
</a>
</g>
</g>
<!-- Node1&#45;&gt;Node3 -->
<g id="edge2" class="edge">
<title>Node1&#45;&gt;Node3</title>
<path fill="none" stroke="#63b8ff" d="M102.97,-165C93.84,-156.52 80.07,-142.8 70.52,-129 60.61,-114.67 52.15,-96.7 46.59,-83.53"/>
<polygon fill="#63b8ff" stroke="#63b8ff" points="49.79,-82.11 42.78,-74.17 43.31,-84.75 49.79,-82.11"/>
</g>
<!-- Node4 -->
<g id="node4" class="node">
<title>Node4</title>
<g id="a_node4"><a xlink:title=" ">
<polygon fill="#e0e0e0" stroke="#999999" points="145.02,-129 80.02,-129 80.02,-110 145.02,-110 145.02,-129"/>
<text text-anchor="middle" x="112.52" y="-117" font-family="Helvetica,sans-Serif" font-size="10.00">stdexcept</text>
</a>
</g>
</g>
<!-- Node1&#45;&gt;Node4 -->
<g id="edge3" class="edge">
<title>Node1&#45;&gt;Node4</title>
<path fill="none" stroke="#63b8ff" d="M112.52,-164.75C112.52,-157.8 112.52,-147.85 112.52,-139.13"/>
<polygon fill="#63b8ff" stroke="#63b8ff" points="116.02,-139.09 112.52,-129.09 109.02,-139.09 116.02,-139.09"/>
</g>
<!-- Node5 -->
<g id="node5" class="node">
<title>Node5</title>
<g id="a_node5"><a xlink:href="MaCh3Logger_8h.html" target="_top" xlink:title="KS: Based on this https://github.com/gabime/spdlog/blob/a2b4262090fd3f005c2315dcb5be2f0f1774a005/incl...">
<polygon fill="white" stroke="#666666" points="305.02,-129 168.02,-129 168.02,-110 305.02,-110 305.02,-129"/>
<text text-anchor="middle" x="236.52" y="-117" font-family="Helvetica,sans-Serif" font-size="10.00">Manager/MaCh3Logger.h</text>
</a>
</g>
</g>
<!-- Node1&#45;&gt;Node5 -->
<g id="edge4" class="edge">
<title>Node1&#45;&gt;Node5</title>
<path fill="none" stroke="#63b8ff" d="M132.45,-164.98C152.57,-156.38 183.9,-142.99 206.93,-133.15"/>
<polygon fill="#63b8ff" stroke="#63b8ff" points="208.42,-136.32 216.24,-129.17 205.67,-129.88 208.42,-136.32"/>
</g>
<!-- Node9 -->
<g id="node9" class="node">
<title>Node9</title>
<g id="a_node9"><a xlink:href="Core_8h.html" target="_top" xlink:title=" ">
<polygon fill="white" stroke="#666666" points="528.52,-74 434.52,-74 434.52,-55 528.52,-55 528.52,-74"/>
<text text-anchor="middle" x="481.52" y="-62" font-family="Helvetica,sans-Serif" font-size="10.00">Manager/Core.h</text>
</a>
</g>
</g>
<!-- Node1&#45;&gt;Node9 -->
<g id="edge19" class="edge">
<title>Node1&#45;&gt;Node9</title>
<path fill="none" stroke="#63b8ff" d="M160.12,-164.96C201.17,-157.13 261.8,-144.41 313.52,-129 363.08,-114.23 418.94,-91.95 452.13,-78.08"/>
<polygon fill="#63b8ff" stroke="#63b8ff" points="453.81,-81.17 461.67,-74.07 451.1,-74.72 453.81,-81.17"/>
</g>
<!-- Node5&#45;&gt;Node2 -->
<g id="edge5" class="edge">
<title>Node5&#45;&gt;Node2</title>
<path fill="none" stroke="#63b8ff" d="M233.41,-109.66C227.2,-92.01 213.16,-52.09 204.9,-28.64"/>
<polygon fill="#63b8ff" stroke="#63b8ff" points="208.19,-27.43 201.57,-19.16 201.59,-29.75 208.19,-27.43"/>
</g>
<!-- Node5&#45;&gt;Node3 -->
<g id="edge8" class="edge">
<title>Node5&#45;&gt;Node3</title>
<path fill="none" stroke="#63b8ff" d="M204.38,-109.94C172.88,-101.54 123.28,-88.28 71.27,-74.19"/>
<polygon fill="#63b8ff" stroke="#63b8ff" points="72.1,-70.79 61.54,-71.55 70.27,-77.55 72.1,-70.79"/>
</g>
<!-- Node6 -->
<g id="node6" class="node">
<title>Node6</title>
<g id="a_node6"><a xlink:title=" ">
<polygon fill="#e0e0e0" stroke="#999999" points="302.52,-19 246.52,-19 246.52,0 302.52,0 302.52,-19"/>
<text text-anchor="middle" x="274.52" y="-7" font-family="Helvetica,sans-Serif" font-size="10.00">sstream</text>
</a>
</g>
</g>
<!-- Node5&#45;&gt;Node6 -->
<g id="edge6" class="edge">
<title>Node5&#45;&gt;Node6</title>
<path fill="none" stroke="#63b8ff" d="M239.48,-109.86C243.68,-97.63 251.61,-74.58 258.52,-55 261.6,-46.28 265.07,-36.62 267.99,-28.53"/>
<polygon fill="#63b8ff" stroke="#63b8ff" points="271.32,-29.61 271.43,-19.02 264.73,-27.23 271.32,-29.61"/>
</g>
<!-- Node7 -->
<g id="node7" class="node">
<title>Node7</title>
<g id="a_node7"><a xlink:title=" ">
<polygon fill="#e0e0e0" stroke="#999999" points="333.02,-74 268.02,-74 268.02,-55 333.02,-55 333.02,-74"/>
<text text-anchor="middle" x="300.52" y="-62" font-family="Helvetica,sans-Serif" font-size="10.00">functional</text>
</a>
</g>
</g>
<!-- Node5&#45;&gt;Node7 -->
<g id="edge7" class="edge">
<title>Node5&#45;&gt;Node7</title>
<path fill="none" stroke="#63b8ff" d="M246.81,-109.98C256.36,-102.07 270.8,-90.11 282.31,-80.58"/>
<polygon fill="#63b8ff" stroke="#63b8ff" points="284.58,-83.24 290.05,-74.17 280.12,-77.85 284.58,-83.24"/>
</g>
<!-- Node8 -->
<g id="node8" class="node">
<title>Node8</title>
<g id="a_node8"><a xlink:title=" ">
<polygon fill="#e0e0e0" stroke="#999999" points="416.02,-74 351.02,-74 351.02,-55 416.02,-55 416.02,-74"/>
<text text-anchor="middle" x="383.52" y="-62" font-family="Helvetica,sans-Serif" font-size="10.00">exception</text>
</a>
</g>
</g>
<!-- Node5&#45;&gt;Node8 -->
<g id="edge9" class="edge">
<title>Node5&#45;&gt;Node8</title>
<path fill="none" stroke="#63b8ff" d="M260.14,-109.98C284.43,-101.23 322.47,-87.51 349.9,-77.62"/>
<polygon fill="#63b8ff" stroke="#63b8ff" points="351.26,-80.85 359.48,-74.17 348.88,-74.27 351.26,-80.85"/>
</g>
<!-- Node5&#45;&gt;Node9 -->
<g id="edge10" class="edge">
<title>Node5&#45;&gt;Node9</title>
<path fill="none" stroke="#63b8ff" d="M275.89,-109.98C318.27,-100.82 385.78,-86.21 431.8,-76.26"/>
<polygon fill="#63b8ff" stroke="#63b8ff" points="432.82,-79.62 441.85,-74.08 431.34,-72.78 432.82,-79.62"/>
</g>
<!-- Node15 -->
<g id="node15" class="node">
<title>Node15</title>
<g id="a_node15"><a xlink:title=" ">
<polygon fill="#e0e0e0" stroke="#999999" points="173.02,-74 80.02,-74 80.02,-55 173.02,-55 173.02,-74"/>
<text text-anchor="middle" x="126.52" y="-62" font-family="Helvetica,sans-Serif" font-size="10.00">spdlog/spdlog.h</text>
</a>
</g>
</g>
<!-- Node5&#45;&gt;Node15 -->
<g id="edge18" class="edge">
<title>Node5&#45;&gt;Node15</title>
<path fill="none" stroke="#63b8ff" d="M218.85,-109.98C201.23,-101.5 173.95,-88.35 153.6,-78.54"/>
<polygon fill="#63b8ff" stroke="#63b8ff" points="155.05,-75.36 144.52,-74.17 152.01,-81.66 155.05,-75.36"/>
</g>
<!-- Node9&#45;&gt;Node2 -->
<g id="edge13" class="edge">
<title>Node9&#45;&gt;Node2</title>
<path fill="none" stroke="#63b8ff" d="M434.2,-55.36C387.09,-47.15 312.47,-33.85 238.67,-19.18"/>
<polygon fill="#63b8ff" stroke="#63b8ff" points="239.23,-15.72 228.74,-17.19 237.86,-22.58 239.23,-15.72"/>
</g>
<!-- Node9&#45;&gt;Node6 -->
<g id="edge11" class="edge">
<title>Node9&#45;&gt;Node6</title>
<path fill="none" stroke="#63b8ff" d="M448.27,-54.98C411.23,-45.5 351.48,-30.2 312.6,-20.25"/>
<polygon fill="#63b8ff" stroke="#63b8ff" points="313.27,-16.81 302.71,-17.72 311.53,-23.59 313.27,-16.81"/>
</g>
<!-- Node10 -->
<g id="node10" class="node">
<title>Node10</title>
<g id="a_node10"><a xlink:title=" ">
<polygon fill="#e0e0e0" stroke="#999999" points="644.02,-19 589.02,-19 589.02,0 644.02,0 644.02,-19"/>
<text text-anchor="middle" x="616.52" y="-7" font-family="Helvetica,sans-Serif" font-size="10.00">fstream</text>
</a>
</g>
</g>
<!-- Node9&#45;&gt;Node10 -->
<g id="edge12" class="edge">
<title>Node9&#45;&gt;Node10</title>
<path fill="none" stroke="#63b8ff" d="M503.21,-54.98C525.32,-46.3 559.85,-32.75 584.98,-22.88"/>
<polygon fill="#63b8ff" stroke="#63b8ff" points="586.41,-26.08 594.44,-19.17 583.85,-19.57 586.41,-26.08"/>
</g>
<!-- Node11 -->
<g id="node11" class="node">
<title>Node11</title>
<g id="a_node11"><a xlink:title=" ">
<polygon fill="#e0e0e0" stroke="#999999" points="368.02,-19 321.02,-19 321.02,0 368.02,0 368.02,-19"/>
<text text-anchor="middle" x="344.52" y="-7" font-family="Helvetica,sans-Serif" font-size="10.00">vector</text>
</a>
</g>
</g>
<!-- Node9&#45;&gt;Node11 -->
<g id="edge14" class="edge">
<title>Node9&#45;&gt;Node11</title>
<path fill="none" stroke="#63b8ff" d="M459.51,-54.98C437.08,-46.3 402.04,-32.75 376.54,-22.88"/>
<polygon fill="#63b8ff" stroke="#63b8ff" points="377.52,-19.51 366.94,-19.17 375,-26.04 377.52,-19.51"/>
</g>
<!-- Node12 -->
<g id="node12" class="node">
<title>Node12</title>
<g id="a_node12"><a xlink:title=" ">
<polygon fill="#e0e0e0" stroke="#999999" points="442.52,-19 386.52,-19 386.52,0 442.52,0 442.52,-19"/>
<text text-anchor="middle" x="414.52" y="-7" font-family="Helvetica,sans-Serif" font-size="10.00">iomanip</text>
</a>
</g>
</g>
<!-- Node9&#45;&gt;Node12 -->
<g id="edge15" class="edge">
<title>Node9&#45;&gt;Node12</title>
<path fill="none" stroke="#63b8ff" d="M470.76,-54.98C460.76,-47.07 445.64,-35.11 433.59,-25.58"/>
<polygon fill="#63b8ff" stroke="#63b8ff" points="435.5,-22.63 425.48,-19.17 431.16,-28.12 435.5,-22.63"/>
</g>
<!-- Node13 -->
<g id="node13" class="node">
<title>Node13</title>
<g id="a_node13"><a xlink:title=" ">
<polygon fill="#e0e0e0" stroke="#999999" points="508.02,-19 461.02,-19 461.02,0 508.02,0 508.02,-19"/>
<text text-anchor="middle" x="484.52" y="-7" font-family="Helvetica,sans-Serif" font-size="10.00">cmath</text>
</a>
</g>
</g>
<!-- Node9&#45;&gt;Node13 -->
<g id="edge16" class="edge">
<title>Node9&#45;&gt;Node13</title>
<path fill="none" stroke="#63b8ff" d="M482.02,-54.75C482.41,-47.8 482.98,-37.85 483.47,-29.13"/>
<polygon fill="#63b8ff" stroke="#63b8ff" points="486.97,-29.27 484.04,-19.09 479.98,-28.88 486.97,-29.27"/>
</g>
<!-- Node14 -->
<g id="node14" class="node">
<title>Node14</title>
<g id="a_node14"><a xlink:title=" ">
<polygon fill="#e0e0e0" stroke="#999999" points="570.52,-19 526.52,-19 526.52,0 570.52,0 570.52,-19"/>
<text text-anchor="middle" x="548.52" y="-7" font-family="Helvetica,sans-Serif" font-size="10.00">limits</text>
</a>
</g>
</g>
<!-- Node9&#45;&gt;Node14 -->
<g id="edge17" class="edge">
<title>Node9&#45;&gt;Node14</title>
<path fill="none" stroke="#63b8ff" d="M492.29,-54.98C502.29,-47.07 517.41,-35.11 529.45,-25.58"/>
<polygon fill="#63b8ff" stroke="#63b8ff" points="531.89,-28.12 537.56,-19.17 527.55,-22.63 531.89,-28.12"/>
</g>
</g>
</svg>
