<?xml version="1.0" encoding="UTF-8" standalone="no"?>
<!DOCTYPE svg PUBLIC "-//W3C//DTD SVG 1.1//EN"
 "http://www.w3.org/Graphics/SVG/1.1/DTD/svg11.dtd">
<!-- Generated by graphviz version 2.44.0 (0)
 -->
<!-- Title: /hosthome/v2.2.0/Parameters/AdaptiveMCMCHandler.h Pages: 1 -->
<svg width="1548pt" height="508pt"
 viewBox="0.00 0.00 1547.50 508.00" xmlns="http://www.w3.org/2000/svg" xmlns:xlink="http://www.w3.org/1999/xlink">
<g id="graph0" class="graph" transform="scale(1 1) rotate(0) translate(4 504)">
<title>/hosthome/v2.2.0/Parameters/AdaptiveMCMCHandler.h</title>
<polygon fill="white" stroke="transparent" points="-4,4 -4,-504 1543.5,-504 1543.5,4 -4,4"/>
<!-- Node1 -->
<g id="node1" class="node">
<title>Node1</title>
<g id="a_node1"><a xlink:title=" ">
<polygon fill="#bfbfbf" stroke="black" points="919,-469.5 919,-499.5 1065,-499.5 1065,-469.5 919,-469.5"/>
<text text-anchor="start" x="927" y="-487.5" font-family="Helvetica" font-size="10.00">/hosthome/v2.2.0/Parameters</text>
<text text-anchor="middle" x="992" y="-476.5" font-family="Helvetica" font-size="10.00">/AdaptiveMCMCHandler.h</text>
</a>
</g>
</g>
<!-- Node2 -->
<g id="node2" class="node">
<title>Node2</title>
<g id="a_node2"><a xlink:href="AdaptiveMCMCHandler_8cpp.html" target="_top" xlink:title=" ">
<polygon fill="white" stroke="black" points="837,-402.5 837,-432.5 983,-432.5 983,-402.5 837,-402.5"/>
<text text-anchor="start" x="845" y="-420.5" font-family="Helvetica" font-size="10.00">/hosthome/v2.2.0/Parameters</text>
<text text-anchor="middle" x="910" y="-409.5" font-family="Helvetica" font-size="10.00">/AdaptiveMCMCHandler.cpp</text>
</a>
</g>
</g>
<!-- Node1&#45;&gt;Node2 -->
<g id="edge1" class="edge">
<title>Node1&#45;&gt;Node2</title>
<path fill="none" stroke="midnightblue" d="M966.35,-463.17C953.81,-453.23 939.03,-441.51 927.76,-432.58"/>
<polygon fill="midnightblue" stroke="midnightblue" points="964.2,-465.93 974.21,-469.4 968.54,-460.44 964.2,-465.93"/>
</g>
<!-- Node3 -->
<g id="node3" class="node">
<title>Node3</title>
<g id="a_node3"><a xlink:href="ParameterHandlerBase_8h.html" target="_top" xlink:title=" ">
<polygon fill="white" stroke="black" points="1001,-402.5 1001,-432.5 1147,-432.5 1147,-402.5 1001,-402.5"/>
<text text-anchor="start" x="1009" y="-420.5" font-family="Helvetica" font-size="10.00">/hosthome/v2.2.0/Parameters</text>
<text text-anchor="middle" x="1074" y="-409.5" font-family="Helvetica" font-size="10.00">/ParameterHandlerBase.h</text>
</a>
</g>
</g>
<!-- Node1&#45;&gt;Node3 -->
<g id="edge2" class="edge">
<title>Node1&#45;&gt;Node3</title>
<path fill="none" stroke="midnightblue" d="M1017.65,-463.17C1030.19,-453.23 1044.97,-441.51 1056.24,-432.58"/>
<polygon fill="midnightblue" stroke="midnightblue" points="1015.46,-460.44 1009.79,-469.4 1019.8,-465.93 1015.46,-460.44"/>
</g>
<!-- Node4 -->
<g id="node4" class="node">
<title>Node4</title>
<g id="a_node4"><a xlink:href="FitterBase_8h.html" target="_top" xlink:title=" ">
<polygon fill="white" stroke="black" points="528,-335.5 528,-365.5 652,-365.5 652,-335.5 528,-335.5"/>
<text text-anchor="start" x="536" y="-353.5" font-family="Helvetica" font-size="10.00">/hosthome/v2.2.0/Fitters</text>
<text text-anchor="middle" x="590" y="-342.5" font-family="Helvetica" font-size="10.00">/FitterBase.h</text>
</a>
</g>
</g>
<!-- Node3&#45;&gt;Node4 -->
<g id="edge3" class="edge">
<title>Node3&#45;&gt;Node4</title>
<path fill="none" stroke="midnightblue" d="M990.51,-401.82C864.64,-383 729.12,-367.01 652.11,-358.33"/>
<polygon fill="midnightblue" stroke="midnightblue" points="990.3,-405.33 1000.71,-403.35 991.34,-398.4 990.3,-405.33"/>
</g>
<!-- Node17 -->
<g id="node17" class="node">
<title>Node17</title>
<g id="a_node17"><a xlink:href="ParameterHandlerBase_8cpp.html" target="_top" xlink:title=" ">
<polygon fill="white" stroke="black" points="919,-335.5 919,-365.5 1065,-365.5 1065,-335.5 919,-335.5"/>
<text text-anchor="start" x="927" y="-353.5" font-family="Helvetica" font-size="10.00">/hosthome/v2.2.0/Parameters</text>
<text text-anchor="middle" x="992" y="-342.5" font-family="Helvetica" font-size="10.00">/ParameterHandlerBase.cpp</text>
</a>
</g>
</g>
<!-- Node3&#45;&gt;Node17 -->
<g id="edge22" class="edge">
<title>Node3&#45;&gt;Node17</title>
<path fill="none" stroke="midnightblue" d="M1048.35,-396.17C1035.81,-386.23 1021.03,-374.51 1009.76,-365.58"/>
<polygon fill="midnightblue" stroke="midnightblue" points="1046.2,-398.93 1056.21,-402.4 1050.54,-393.44 1046.2,-398.93"/>
</g>
<!-- Node18 -->
<g id="node18" class="node">
<title>Node18</title>
<g id="a_node18"><a xlink:href="ParameterHandlerGeneric_8h.html" target="_top" xlink:title=" ">
<polygon fill="white" stroke="black" points="1083,-335.5 1083,-365.5 1229,-365.5 1229,-335.5 1083,-335.5"/>
<text text-anchor="start" x="1091" y="-353.5" font-family="Helvetica" font-size="10.00">/hosthome/v2.2.0/Parameters</text>
<text text-anchor="middle" x="1156" y="-342.5" font-family="Helvetica" font-size="10.00">/ParameterHandlerGeneric.h</text>
</a>
</g>
</g>
<!-- Node3&#45;&gt;Node18 -->
<g id="edge23" class="edge">
<title>Node3&#45;&gt;Node18</title>
<path fill="none" stroke="midnightblue" d="M1099.65,-396.17C1112.19,-386.23 1126.97,-374.51 1138.24,-365.58"/>
<polygon fill="midnightblue" stroke="midnightblue" points="1097.46,-393.44 1091.79,-402.4 1101.8,-398.93 1097.46,-393.44"/>
</g>
<!-- Node31 -->
<g id="node31" class="node">
<title>Node31</title>
<g id="a_node31"><a xlink:href="parameters_8cpp.html" target="_top" xlink:title=" ">
<polygon fill="white" stroke="black" points="1414.5,-268.5 1414.5,-298.5 1539.5,-298.5 1539.5,-268.5 1414.5,-268.5"/>
<text text-anchor="start" x="1422.5" y="-286.5" font-family="Helvetica" font-size="10.00">/hosthome/v2.2.0/python</text>
<text text-anchor="middle" x="1477" y="-275.5" font-family="Helvetica" font-size="10.00">/parameters.cpp</text>
</a>
</g>
</g>
<!-- Node3&#45;&gt;Node31 -->
<g id="edge41" class="edge">
<title>Node3&#45;&gt;Node31</title>
<path fill="none" stroke="midnightblue" d="M1131.07,-399.38C1162.66,-389.79 1202.58,-377.49 1238,-366 1308.26,-343.21 1389.57,-315.11 1436.95,-298.57"/>
<polygon fill="midnightblue" stroke="midnightblue" points="1129.68,-396.15 1121.13,-402.4 1131.71,-402.85 1129.68,-396.15"/>
</g>
<!-- Node5 -->
<g id="node5" class="node">
<title>Node5</title>
<g id="a_node5"><a xlink:href="FitterBase_8cpp.html" target="_top" xlink:title=" ">
<polygon fill="white" stroke="black" points="0,-268.5 0,-298.5 124,-298.5 124,-268.5 0,-268.5"/>
<text text-anchor="start" x="8" y="-286.5" font-family="Helvetica" font-size="10.00">/hosthome/v2.2.0/Fitters</text>
<text text-anchor="middle" x="62" y="-275.5" font-family="Helvetica" font-size="10.00">/FitterBase.cpp</text>
</a>
</g>
</g>
<!-- Node4&#45;&gt;Node5 -->
<g id="edge4" class="edge">
<title>Node4&#45;&gt;Node5</title>
<path fill="none" stroke="midnightblue" d="M517.62,-343.15C428.17,-334.91 271.44,-319.15 138,-299 133.48,-298.32 128.83,-297.56 124.15,-296.76"/>
<polygon fill="midnightblue" stroke="midnightblue" points="517.38,-346.64 527.65,-344.07 518.02,-339.67 517.38,-346.64"/>
</g>
<!-- Node6 -->
<g id="node6" class="node">
<title>Node6</title>
<g id="a_node6"><a xlink:href="LikelihoodFit_8h.html" target="_top" xlink:title=" ">
<polygon fill="white" stroke="black" points="464,-268.5 464,-298.5 588,-298.5 588,-268.5 464,-268.5"/>
<text text-anchor="start" x="472" y="-286.5" font-family="Helvetica" font-size="10.00">/hosthome/v2.2.0/Fitters</text>
<text text-anchor="middle" x="526" y="-275.5" font-family="Helvetica" font-size="10.00">/LikelihoodFit.h</text>
</a>
</g>
</g>
<!-- Node4&#45;&gt;Node6 -->
<g id="edge5" class="edge">
<title>Node4&#45;&gt;Node6</title>
<path fill="none" stroke="midnightblue" d="M568.85,-328.02C559.32,-318.34 548.33,-307.17 539.86,-298.58"/>
<polygon fill="midnightblue" stroke="midnightblue" points="566.6,-330.73 576.11,-335.4 571.59,-325.81 566.6,-330.73"/>
</g>
<!-- Node8 -->
<g id="node8" class="node">
<title>Node8</title>
<g id="a_node8"><a xlink:href="MaCh3Factory_8h.html" target="_top" xlink:title="Factory methods for MaCh3 software which streamline initialisation of different objects.">
<polygon fill="white" stroke="black" points="566,-134.5 566,-164.5 690,-164.5 690,-134.5 566,-134.5"/>
<text text-anchor="start" x="574" y="-152.5" font-family="Helvetica" font-size="10.00">/hosthome/v2.2.0/Fitters</text>
<text text-anchor="middle" x="628" y="-141.5" font-family="Helvetica" font-size="10.00">/MaCh3Factory.h</text>
</a>
</g>
</g>
<!-- Node4&#45;&gt;Node8 -->
<g id="edge16" class="edge">
<title>Node4&#45;&gt;Node8</title>
<path fill="none" stroke="midnightblue" d="M597.31,-325.35C604.19,-301.76 614.25,-264.73 620,-232 624.11,-208.62 626.26,-181.06 627.26,-164.72"/>
<polygon fill="midnightblue" stroke="midnightblue" points="593.89,-324.6 594.41,-335.18 600.6,-326.59 593.89,-324.6"/>
</g>
<!-- Node12 -->
<g id="node12" class="node">
<title>Node12</title>
<g id="a_node12"><a xlink:href="fitters_8cpp.html" target="_top" xlink:title=" ">
<polygon fill="white" stroke="black" points="224.5,-134.5 224.5,-164.5 349.5,-164.5 349.5,-134.5 224.5,-134.5"/>
<text text-anchor="start" x="232.5" y="-152.5" font-family="Helvetica" font-size="10.00">/hosthome/v2.2.0/python</text>
<text text-anchor="middle" x="287" y="-141.5" font-family="Helvetica" font-size="10.00">/fitters.cpp</text>
</a>
</g>
</g>
<!-- Node4&#45;&gt;Node12 -->
<g id="edge21" class="edge">
<title>Node4&#45;&gt;Node12</title>
<path fill="none" stroke="midnightblue" d="M517.57,-339.75C409.13,-323.5 212.78,-287.11 171,-232 148.1,-201.8 194.73,-178.44 235.52,-164.62"/>
<polygon fill="midnightblue" stroke="midnightblue" points="517.38,-343.26 527.79,-341.26 518.41,-336.33 517.38,-343.26"/>
</g>
<!-- Node15 -->
<g id="node15" class="node">
<title>Node15</title>
<g id="a_node15"><a xlink:href="mcmc_8h.html" target="_top" xlink:title=" ">
<polygon fill="white" stroke="black" points="682,-201.5 682,-231.5 806,-231.5 806,-201.5 682,-201.5"/>
<text text-anchor="start" x="690" y="-219.5" font-family="Helvetica" font-size="10.00">/hosthome/v2.2.0/Fitters</text>
<text text-anchor="middle" x="744" y="-208.5" font-family="Helvetica" font-size="10.00">/mcmc.h</text>
</a>
</g>
</g>
<!-- Node4&#45;&gt;Node15 -->
<g id="edge17" class="edge">
<title>Node4&#45;&gt;Node15</title>
<path fill="none" stroke="midnightblue" d="M623.93,-330.06C638.11,-321.31 654.41,-310.39 668,-299 693.21,-277.88 718.45,-248.87 732.57,-231.76"/>
<polygon fill="midnightblue" stroke="midnightblue" points="621.71,-327.31 614.97,-335.48 625.34,-333.3 621.71,-327.31"/>
</g>
<!-- Node7 -->
<g id="node7" class="node">
<title>Node7</title>
<g id="a_node7"><a xlink:href="LikelihoodFit_8cpp.html" target="_top" xlink:title=" ">
<polygon fill="white" stroke="black" points="464,-201.5 464,-231.5 588,-231.5 588,-201.5 464,-201.5"/>
<text text-anchor="start" x="472" y="-219.5" font-family="Helvetica" font-size="10.00">/hosthome/v2.2.0/Fitters</text>
<text text-anchor="middle" x="526" y="-208.5" font-family="Helvetica" font-size="10.00">/LikelihoodFit.cpp</text>
</a>
</g>
</g>
<!-- Node6&#45;&gt;Node7 -->
<g id="edge6" class="edge">
<title>Node6&#45;&gt;Node7</title>
<path fill="none" stroke="midnightblue" d="M526,-258.11C526,-249.15 526,-239.32 526,-231.58"/>
<polygon fill="midnightblue" stroke="midnightblue" points="522.5,-258.4 526,-268.4 529.5,-258.4 522.5,-258.4"/>
</g>
<!-- Node6&#45;&gt;Node8 -->
<g id="edge7" class="edge">
<title>Node6&#45;&gt;Node8</title>
<path fill="none" stroke="midnightblue" d="M561.79,-263.01C574.28,-254.78 587.53,-244.25 597,-232 612.83,-211.52 621.34,-182.04 625.25,-164.71"/>
<polygon fill="midnightblue" stroke="midnightblue" points="559.92,-260.04 553.32,-268.32 563.65,-265.97 559.92,-260.04"/>
</g>
<!-- Node10 -->
<g id="node10" class="node">
<title>Node10</title>
<g id="a_node10"><a xlink:href="MinuitFit_8h.html" target="_top" xlink:title=" ">
<polygon fill="white" stroke="black" points="180,-201.5 180,-231.5 304,-231.5 304,-201.5 180,-201.5"/>
<text text-anchor="start" x="188" y="-219.5" font-family="Helvetica" font-size="10.00">/hosthome/v2.2.0/Fitters</text>
<text text-anchor="middle" x="242" y="-208.5" font-family="Helvetica" font-size="10.00">/MinuitFit.h</text>
</a>
</g>
</g>
<!-- Node6&#45;&gt;Node10 -->
<g id="edge9" class="edge">
<title>Node6&#45;&gt;Node10</title>
<path fill="none" stroke="midnightblue" d="M454.72,-266.19C408.21,-255.54 348.1,-241.78 303.65,-231.61"/>
<polygon fill="midnightblue" stroke="midnightblue" points="454.2,-269.66 464.73,-268.48 455.76,-262.83 454.2,-269.66"/>
</g>
<!-- Node13 -->
<g id="node13" class="node">
<title>Node13</title>
<g id="a_node13"><a xlink:href="PSO_8h.html" target="_top" xlink:title=" ">
<polygon fill="white" stroke="black" points="322,-201.5 322,-231.5 446,-231.5 446,-201.5 322,-201.5"/>
<text text-anchor="start" x="330" y="-219.5" font-family="Helvetica" font-size="10.00">/hosthome/v2.2.0/Fitters</text>
<text text-anchor="middle" x="384" y="-208.5" font-family="Helvetica" font-size="10.00">/PSO.h</text>
</a>
</g>
</g>
<!-- Node6&#45;&gt;Node13 -->
<g id="edge12" class="edge">
<title>Node6&#45;&gt;Node13</title>
<path fill="none" stroke="midnightblue" d="M485.87,-264.13C463.31,-253.8 435.58,-241.11 414.75,-231.58"/>
<polygon fill="midnightblue" stroke="midnightblue" points="484.64,-267.42 495.19,-268.4 487.55,-261.05 484.64,-267.42"/>
</g>
<!-- Node9 -->
<g id="node9" class="node">
<title>Node9</title>
<g id="a_node9"><a xlink:href="MaCh3Factory_8cpp.html" target="_top" xlink:title=" ">
<polygon fill="white" stroke="black" points="566,-67.5 566,-97.5 690,-97.5 690,-67.5 566,-67.5"/>
<text text-anchor="start" x="574" y="-85.5" font-family="Helvetica" font-size="10.00">/hosthome/v2.2.0/Fitters</text>
<text text-anchor="middle" x="628" y="-74.5" font-family="Helvetica" font-size="10.00">/MaCh3Factory.cpp</text>
</a>
</g>
</g>
<!-- Node8&#45;&gt;Node9 -->
<g id="edge8" class="edge">
<title>Node8&#45;&gt;Node9</title>
<path fill="none" stroke="midnightblue" d="M628,-124.11C628,-115.15 628,-105.32 628,-97.58"/>
<polygon fill="midnightblue" stroke="midnightblue" points="624.5,-124.4 628,-134.4 631.5,-124.4 624.5,-124.4"/>
</g>
<!-- Node11 -->
<g id="node11" class="node">
<title>Node11</title>
<g id="a_node11"><a xlink:href="MinuitFit_8cpp.html" target="_top" xlink:title=" ">
<polygon fill="white" stroke="black" points="82,-134.5 82,-164.5 206,-164.5 206,-134.5 82,-134.5"/>
<text text-anchor="start" x="90" y="-152.5" font-family="Helvetica" font-size="10.00">/hosthome/v2.2.0/Fitters</text>
<text text-anchor="middle" x="144" y="-141.5" font-family="Helvetica" font-size="10.00">/MinuitFit.cpp</text>
</a>
</g>
</g>
<!-- Node10&#45;&gt;Node11 -->
<g id="edge10" class="edge">
<title>Node10&#45;&gt;Node11</title>
<path fill="none" stroke="midnightblue" d="M212.2,-195.73C197.03,-185.68 178.96,-173.68 165.22,-164.58"/>
<polygon fill="midnightblue" stroke="midnightblue" points="210.47,-198.79 220.74,-201.4 214.34,-192.95 210.47,-198.79"/>
</g>
<!-- Node10&#45;&gt;Node12 -->
<g id="edge11" class="edge">
<title>Node10&#45;&gt;Node12</title>
<path fill="none" stroke="midnightblue" d="M257.47,-193.16C264.03,-183.68 271.48,-172.92 277.25,-164.58"/>
<polygon fill="midnightblue" stroke="midnightblue" points="254.58,-191.18 251.76,-201.4 260.33,-195.17 254.58,-191.18"/>
</g>
<!-- Node13&#45;&gt;Node8 -->
<g id="edge13" class="edge">
<title>Node13&#45;&gt;Node8</title>
<path fill="none" stroke="midnightblue" d="M446.5,-198.85C486.28,-188.25 537.24,-174.68 575.03,-164.61"/>
<polygon fill="midnightblue" stroke="midnightblue" points="445.41,-195.52 436.64,-201.48 447.21,-202.28 445.41,-195.52"/>
</g>
<!-- Node13&#45;&gt;Node12 -->
<g id="edge15" class="edge">
<title>Node13&#45;&gt;Node12</title>
<path fill="none" stroke="midnightblue" d="M354.5,-195.73C339.49,-185.68 321.6,-173.68 308.01,-164.58"/>
<polygon fill="midnightblue" stroke="midnightblue" points="352.7,-198.74 362.95,-201.4 356.59,-192.92 352.7,-198.74"/>
</g>
<!-- Node14 -->
<g id="node14" class="node">
<title>Node14</title>
<g id="a_node14"><a xlink:href="PSO_8cpp.html" target="_top" xlink:title=" ">
<polygon fill="white" stroke="black" points="368,-134.5 368,-164.5 492,-164.5 492,-134.5 368,-134.5"/>
<text text-anchor="start" x="376" y="-152.5" font-family="Helvetica" font-size="10.00">/hosthome/v2.2.0/Fitters</text>
<text text-anchor="middle" x="430" y="-141.5" font-family="Helvetica" font-size="10.00">/PSO.cpp</text>
</a>
</g>
</g>
<!-- Node13&#45;&gt;Node14 -->
<g id="edge14" class="edge">
<title>Node13&#45;&gt;Node14</title>
<path fill="none" stroke="midnightblue" d="M399.81,-193.16C406.52,-183.68 414.13,-172.92 420.04,-164.58"/>
<polygon fill="midnightblue" stroke="midnightblue" points="396.9,-191.21 393.98,-201.4 402.62,-195.26 396.9,-191.21"/>
</g>
<!-- Node15&#45;&gt;Node8 -->
<g id="edge18" class="edge">
<title>Node15&#45;&gt;Node8</title>
<path fill="none" stroke="midnightblue" d="M709.73,-196.3C691.58,-186.12 669.68,-173.85 653.12,-164.58"/>
<polygon fill="midnightblue" stroke="midnightblue" points="708.4,-199.56 718.83,-201.4 711.82,-193.45 708.4,-199.56"/>
</g>
<!-- Node15&#45;&gt;Node12 -->
<g id="edge20" class="edge">
<title>Node15&#45;&gt;Node12</title>
<path fill="none" stroke="midnightblue" d="M671.65,-207.5C594.11,-198.59 467.51,-183.02 359,-165 355.98,-164.5 352.9,-163.96 349.78,-163.41"/>
<polygon fill="midnightblue" stroke="midnightblue" points="671.46,-211.01 681.79,-208.67 672.26,-204.05 671.46,-211.01"/>
</g>
<!-- Node16 -->
<g id="node16" class="node">
<title>Node16</title>
<g id="a_node16"><a xlink:href="mcmc_8cpp.html" target="_top" xlink:title=" ">
<polygon fill="white" stroke="black" points="708,-134.5 708,-164.5 832,-164.5 832,-134.5 708,-134.5"/>
<text text-anchor="start" x="716" y="-152.5" font-family="Helvetica" font-size="10.00">/hosthome/v2.2.0/Fitters</text>
<text text-anchor="middle" x="770" y="-141.5" font-family="Helvetica" font-size="10.00">/mcmc.cpp</text>
</a>
</g>
</g>
<!-- Node15&#45;&gt;Node16 -->
<g id="edge19" class="edge">
<title>Node15&#45;&gt;Node16</title>
<path fill="none" stroke="midnightblue" d="M753.4,-191.99C757.08,-182.8 761.17,-172.58 764.37,-164.58"/>
<polygon fill="midnightblue" stroke="midnightblue" points="750.11,-190.81 749.64,-201.4 756.61,-193.41 750.11,-190.81"/>
</g>
<!-- Node18&#45;&gt;Node8 -->
<g id="edge38" class="edge">
<title>Node18&#45;&gt;Node8</title>
<path fill="none" stroke="midnightblue" d="M1072.49,-334.58C1007.92,-322.64 927.19,-306.66 913,-299 858.8,-269.73 868.31,-231.85 815,-201 793.75,-188.7 735.92,-174.01 690.14,-163.65"/>
<polygon fill="midnightblue" stroke="midnightblue" points="1072.23,-338.09 1082.7,-336.46 1073.5,-331.21 1072.23,-338.09"/>
</g>
<!-- Node19 -->
<g id="node19" class="node">
<title>Node19</title>
<g id="a_node19"><a xlink:href="SplineStructs_8h.html" target="_top" xlink:title="Contains structures and helper functions for handling spline representations of systematic parameters...">
<polygon fill="white" stroke="black" points="1092,-268.5 1092,-298.5 1220,-298.5 1220,-268.5 1092,-268.5"/>
<text text-anchor="start" x="1100" y="-286.5" font-family="Helvetica" font-size="10.00">/hosthome/v2.2.0/Splines</text>
<text text-anchor="middle" x="1156" y="-275.5" font-family="Helvetica" font-size="10.00">/SplineStructs.h</text>
</a>
</g>
</g>
<!-- Node18&#45;&gt;Node19 -->
<g id="edge24" class="edge">
<title>Node18&#45;&gt;Node19</title>
<path fill="none" stroke="midnightblue" d="M1156,-325.11C1156,-316.15 1156,-306.32 1156,-298.58"/>
<polygon fill="midnightblue" stroke="midnightblue" points="1152.5,-325.4 1156,-335.4 1159.5,-325.4 1152.5,-325.4"/>
</g>
<!-- Node23 -->
<g id="node23" class="node">
<title>Node23</title>
<g id="a_node23"><a xlink:href="SampleHandlerFD_8h.html" target="_top" xlink:title=" ">
<polygon fill="white" stroke="black" points="1319,-67.5 1319,-97.5 1453,-97.5 1453,-67.5 1319,-67.5"/>
<text text-anchor="start" x="1327" y="-85.5" font-family="Helvetica" font-size="10.00">/hosthome/v2.2.0/Samples</text>
<text text-anchor="middle" x="1386" y="-74.5" font-family="Helvetica" font-size="10.00">/SampleHandlerFD.h</text>
</a>
</g>
</g>
<!-- Node18&#45;&gt;Node23 -->
<g id="edge37" class="edge">
<title>Node18&#45;&gt;Node23</title>
<path fill="none" stroke="midnightblue" d="M1190.18,-330.03C1238.09,-300.79 1324.14,-240.81 1367,-165 1379.16,-143.5 1383.55,-114.61 1385.12,-97.63"/>
<polygon fill="midnightblue" stroke="midnightblue" points="1188.18,-327.14 1181.41,-335.29 1191.79,-333.15 1188.18,-327.14"/>
</g>
<!-- Node30 -->
<g id="node30" class="node">
<title>Node30</title>
<g id="a_node30"><a xlink:href="ParameterHandlerGeneric_8cpp.html" target="_top" xlink:title=" ">
<polygon fill="white" stroke="black" points="922.5,-268.5 922.5,-298.5 1073.5,-298.5 1073.5,-268.5 922.5,-268.5"/>
<text text-anchor="start" x="930.5" y="-286.5" font-family="Helvetica" font-size="10.00">/hosthome/v2.2.0/Parameters</text>
<text text-anchor="middle" x="998" y="-275.5" font-family="Helvetica" font-size="10.00">/ParameterHandlerGeneric.cpp</text>
</a>
</g>
</g>
<!-- Node18&#45;&gt;Node30 -->
<g id="edge39" class="edge">
<title>Node18&#45;&gt;Node30</title>
<path fill="none" stroke="midnightblue" d="M1112.35,-331.54C1087.07,-321.14 1055.7,-308.24 1032.22,-298.58"/>
<polygon fill="midnightblue" stroke="midnightblue" points="1111.14,-334.83 1121.72,-335.4 1113.8,-328.35 1111.14,-334.83"/>
</g>
<!-- Node18&#45;&gt;Node31 -->
<g id="edge40" class="edge">
<title>Node18&#45;&gt;Node31</title>
<path fill="none" stroke="midnightblue" d="M1235.36,-333.43C1290.6,-322.25 1363.23,-307.54 1414.39,-297.18"/>
<polygon fill="midnightblue" stroke="midnightblue" points="1234.36,-330.06 1225.26,-335.48 1235.75,-336.92 1234.36,-330.06"/>
</g>
<!-- Node20 -->
<g id="node20" class="node">
<title>Node20</title>
<g id="a_node20"><a xlink:href="SplineBase_8h.html" target="_top" xlink:title=" ">
<polygon fill="white" stroke="black" points="1092,-201.5 1092,-231.5 1220,-231.5 1220,-201.5 1092,-201.5"/>
<text text-anchor="start" x="1100" y="-219.5" font-family="Helvetica" font-size="10.00">/hosthome/v2.2.0/Splines</text>
<text text-anchor="middle" x="1156" y="-208.5" font-family="Helvetica" font-size="10.00">/SplineBase.h</text>
</a>
</g>
</g>
<!-- Node19&#45;&gt;Node20 -->
<g id="edge25" class="edge">
<title>Node19&#45;&gt;Node20</title>
<path fill="none" stroke="midnightblue" d="M1156,-258.11C1156,-249.15 1156,-239.32 1156,-231.58"/>
<polygon fill="midnightblue" stroke="midnightblue" points="1152.5,-258.4 1156,-268.4 1159.5,-258.4 1152.5,-258.4"/>
</g>
<!-- Node29 -->
<g id="node29" class="node">
<title>Node29</title>
<g id="a_node29"><a xlink:href="splines_8cpp.html" target="_top" xlink:title=" ">
<polygon fill="white" stroke="black" points="845.5,-67.5 845.5,-97.5 970.5,-97.5 970.5,-67.5 845.5,-67.5"/>
<text text-anchor="start" x="853.5" y="-85.5" font-family="Helvetica" font-size="10.00">/hosthome/v2.2.0/python</text>
<text text-anchor="middle" x="908" y="-74.5" font-family="Helvetica" font-size="10.00">/splines.cpp</text>
</a>
</g>
</g>
<!-- Node19&#45;&gt;Node29 -->
<g id="edge36" class="edge">
<title>Node19&#45;&gt;Node29</title>
<path fill="none" stroke="midnightblue" d="M1099.28,-265.38C1028.8,-242.82 914.88,-201.72 891,-165 877.52,-144.28 889.64,-114.88 899.16,-97.64"/>
<polygon fill="midnightblue" stroke="midnightblue" points="1098.33,-268.75 1108.92,-268.43 1100.44,-262.08 1098.33,-268.75"/>
</g>
<!-- Node21 -->
<g id="node21" class="node">
<title>Node21</title>
<g id="a_node21"><a xlink:href="BinnedSplineHandler_8h.html" target="_top" xlink:title=" ">
<polygon fill="white" stroke="black" points="1230,-134.5 1230,-164.5 1358,-164.5 1358,-134.5 1230,-134.5"/>
<text text-anchor="start" x="1238" y="-152.5" font-family="Helvetica" font-size="10.00">/hosthome/v2.2.0/Splines</text>
<text text-anchor="middle" x="1294" y="-141.5" font-family="Helvetica" font-size="10.00">/BinnedSplineHandler.h</text>
</a>
</g>
</g>
<!-- Node20&#45;&gt;Node21 -->
<g id="edge26" class="edge">
<title>Node20&#45;&gt;Node21</title>
<path fill="none" stroke="midnightblue" d="M1195,-197.13C1216.93,-186.8 1243.87,-174.11 1264.11,-164.58"/>
<polygon fill="midnightblue" stroke="midnightblue" points="1193.5,-193.97 1185.94,-201.4 1196.48,-200.3 1193.5,-193.97"/>
</g>
<!-- Node26 -->
<g id="node26" class="node">
<title>Node26</title>
<g id="a_node26"><a xlink:href="SplineBase_8cpp.html" target="_top" xlink:title=" ">
<polygon fill="white" stroke="black" points="1046,-134.5 1046,-164.5 1174,-164.5 1174,-134.5 1046,-134.5"/>
<text text-anchor="start" x="1054" y="-152.5" font-family="Helvetica" font-size="10.00">/hosthome/v2.2.0/Splines</text>
<text text-anchor="middle" x="1110" y="-141.5" font-family="Helvetica" font-size="10.00">/SplineBase.cpp</text>
</a>
</g>
</g>
<!-- Node20&#45;&gt;Node26 -->
<g id="edge31" class="edge">
<title>Node20&#45;&gt;Node26</title>
<path fill="none" stroke="midnightblue" d="M1140.19,-193.16C1133.48,-183.68 1125.87,-172.92 1119.96,-164.58"/>
<polygon fill="midnightblue" stroke="midnightblue" points="1137.38,-195.26 1146.02,-201.4 1143.1,-191.21 1137.38,-195.26"/>
</g>
<!-- Node27 -->
<g id="node27" class="node">
<title>Node27</title>
<g id="a_node27"><a xlink:href="SplineMonolith_8h.html" target="_top" xlink:title=" ">
<polygon fill="white" stroke="black" points="900,-134.5 900,-164.5 1028,-164.5 1028,-134.5 900,-134.5"/>
<text text-anchor="start" x="908" y="-152.5" font-family="Helvetica" font-size="10.00">/hosthome/v2.2.0/Splines</text>
<text text-anchor="middle" x="964" y="-141.5" font-family="Helvetica" font-size="10.00">/SplineMonolith.h</text>
</a>
</g>
</g>
<!-- Node20&#45;&gt;Node27 -->
<g id="edge32" class="edge">
<title>Node20&#45;&gt;Node27</title>
<path fill="none" stroke="midnightblue" d="M1104.58,-198.09C1073.58,-187.6 1034.62,-174.41 1005.58,-164.58"/>
<polygon fill="midnightblue" stroke="midnightblue" points="1103.74,-201.5 1114.34,-201.4 1105.99,-194.87 1103.74,-201.5"/>
</g>
<!-- Node20&#45;&gt;Node29 -->
<g id="edge35" class="edge">
<title>Node20&#45;&gt;Node29</title>
<path fill="none" stroke="midnightblue" d="M1174.3,-192.7C1186.16,-175 1197.03,-150.73 1183,-134 1153.57,-98.89 1025.02,-106.52 980,-98 976.99,-97.43 973.92,-96.84 970.81,-96.24"/>
<polygon fill="midnightblue" stroke="midnightblue" points="1171.13,-191.12 1168.13,-201.28 1176.81,-195.2 1171.13,-191.12"/>
</g>
<!-- Node22 -->
<g id="node22" class="node">
<title>Node22</title>
<g id="a_node22"><a xlink:href="BinnedSplineHandler_8cpp.html" target="_top" xlink:title=" ">
<polygon fill="white" stroke="black" points="1171.5,-67.5 1171.5,-97.5 1300.5,-97.5 1300.5,-67.5 1171.5,-67.5"/>
<text text-anchor="start" x="1179.5" y="-85.5" font-family="Helvetica" font-size="10.00">/hosthome/v2.2.0/Splines</text>
<text text-anchor="middle" x="1236" y="-74.5" font-family="Helvetica" font-size="10.00">/BinnedSplineHandler.cpp</text>
</a>
</g>
</g>
<!-- Node21&#45;&gt;Node22 -->
<g id="edge27" class="edge">
<title>Node21&#45;&gt;Node22</title>
<path fill="none" stroke="midnightblue" d="M1274.58,-126.74C1266,-117.12 1256.16,-106.09 1248.56,-97.58"/>
<polygon fill="midnightblue" stroke="midnightblue" points="1272.15,-129.26 1281.41,-134.4 1277.37,-124.6 1272.15,-129.26"/>
</g>
<!-- Node21&#45;&gt;Node23 -->
<g id="edge28" class="edge">
<title>Node21&#45;&gt;Node23</title>
<path fill="none" stroke="midnightblue" d="M1322.38,-128.45C1336.53,-118.45 1353.31,-106.6 1366.08,-97.58"/>
<polygon fill="midnightblue" stroke="midnightblue" points="1320.11,-125.77 1313.96,-134.4 1324.15,-131.48 1320.11,-125.77"/>
</g>
<!-- Node24 -->
<g id="node24" class="node">
<title>Node24</title>
<g id="a_node24"><a xlink:href="SampleHandlerFD_8cpp.html" target="_top" xlink:title=" ">
<polygon fill="white" stroke="black" points="1245,-0.5 1245,-30.5 1379,-30.5 1379,-0.5 1245,-0.5"/>
<text text-anchor="start" x="1253" y="-18.5" font-family="Helvetica" font-size="10.00">/hosthome/v2.2.0/Samples</text>
<text text-anchor="middle" x="1312" y="-7.5" font-family="Helvetica" font-size="10.00">/SampleHandlerFD.cpp</text>
</a>
</g>
</g>
<!-- Node23&#45;&gt;Node24 -->
<g id="edge29" class="edge">
<title>Node23&#45;&gt;Node24</title>
<path fill="none" stroke="midnightblue" d="M1362.2,-60.6C1351.03,-50.78 1338.01,-39.34 1328.03,-30.58"/>
<polygon fill="midnightblue" stroke="midnightblue" points="1360.12,-63.43 1369.94,-67.4 1364.74,-58.17 1360.12,-63.43"/>
</g>
<!-- Node25 -->
<g id="node25" class="node">
<title>Node25</title>
<g id="a_node25"><a xlink:href="samples_8cpp.html" target="_top" xlink:title=" ">
<polygon fill="white" stroke="black" points="1397.5,-0.5 1397.5,-30.5 1522.5,-30.5 1522.5,-0.5 1397.5,-0.5"/>
<text text-anchor="start" x="1405.5" y="-18.5" font-family="Helvetica" font-size="10.00">/hosthome/v2.2.0/python</text>
<text text-anchor="middle" x="1460" y="-7.5" font-family="Helvetica" font-size="10.00">/samples.cpp</text>
</a>
</g>
</g>
<!-- Node23&#45;&gt;Node25 -->
<g id="edge30" class="edge">
<title>Node23&#45;&gt;Node25</title>
<path fill="none" stroke="midnightblue" d="M1409.8,-60.6C1420.97,-50.78 1433.99,-39.34 1443.97,-30.58"/>
<polygon fill="midnightblue" stroke="midnightblue" points="1407.26,-58.17 1402.06,-67.4 1411.88,-63.43 1407.26,-58.17"/>
</g>
<!-- Node28 -->
<g id="node28" class="node">
<title>Node28</title>
<g id="a_node28"><a xlink:href="SplineMonolith_8cpp.html" target="_top" xlink:title=" ">
<polygon fill="white" stroke="black" points="989,-67.5 989,-97.5 1117,-97.5 1117,-67.5 989,-67.5"/>
<text text-anchor="start" x="997" y="-85.5" font-family="Helvetica" font-size="10.00">/hosthome/v2.2.0/Splines</text>
<text text-anchor="middle" x="1053" y="-74.5" font-family="Helvetica" font-size="10.00">/SplineMonolith.cpp</text>
</a>
</g>
</g>
<!-- Node27&#45;&gt;Node28 -->
<g id="edge33" class="edge">
<title>Node27&#45;&gt;Node28</title>
<path fill="none" stroke="midnightblue" d="M991.45,-128.45C1005.14,-118.45 1021.37,-106.6 1033.73,-97.58"/>
<polygon fill="midnightblue" stroke="midnightblue" points="989.32,-125.67 983.31,-134.4 993.45,-131.32 989.32,-125.67"/>
</g>
<!-- Node27&#45;&gt;Node29 -->
<g id="edge34" class="edge">
<title>Node27&#45;&gt;Node29</title>
<path fill="none" stroke="midnightblue" d="M945.25,-126.74C936.96,-117.12 927.46,-106.09 920.13,-97.58"/>
<polygon fill="midnightblue" stroke="midnightblue" points="942.67,-129.1 951.85,-134.4 947.97,-124.54 942.67,-129.1"/>
</g>
</g>
</svg>
