<?xml version="1.0" encoding="UTF-8" standalone="no"?>
<!DOCTYPE svg PUBLIC "-//W3C//DTD SVG 1.1//EN"
 "http://www.w3.org/Graphics/SVG/1.1/DTD/svg11.dtd">
<!-- Generated by graphviz version 2.44.0 (0)
 -->
<!-- Title: MCMCProcessor Pages: 1 -->
<svg width="508pt" height="726pt"
 viewBox="0.00 0.00 508.00 725.70" xmlns="http://www.w3.org/2000/svg" xmlns:xlink="http://www.w3.org/1999/xlink">
<g id="graph0" class="graph" transform="scale(1 1) rotate(0) translate(4 721.7)">
<title>MCMCProcessor</title>
<polygon fill="white" stroke="transparent" points="-4,4 -4,-721.7 504,-721.7 504,4 -4,4"/>
<!-- Node1 -->
<g id="node1" class="node">
<title>Node1</title>
<g id="a_node1"><a xlink:title="Class responsible for processing MCMC chains, performing diagnostics, generating plots,...">
<polygon fill="#bfbfbf" stroke="black" points="408,-377.2 408,-396.2 500,-396.2 500,-377.2 408,-377.2"/>
<text text-anchor="middle" x="454" y="-384.2" font-family="Helvetica" font-size="10.00">MCMCProcessor</text>
</a>
</g>
</g>
<!-- Node2 -->
<g id="node2" class="node">
<title>Node2</title>
<g id="a_node2"><a xlink:title=" ">
<polygon fill="white" stroke="#bfbfbf" points="132,-691.2 132,-710.2 283,-710.2 283,-691.2 132,-691.2"/>
<text text-anchor="middle" x="207.5" y="-698.2" font-family="Helvetica" font-size="10.00">std::vector&lt; ParameterEnum &gt;</text>
</a>
</g>
</g>
<!-- Node2&#45;&gt;Node1 -->
<g id="edge1" class="edge">
<title>Node2&#45;&gt;Node1</title>
<path fill="none" stroke="#9a32cd" stroke-dasharray="5,2" d="M293.56,-708.22C327.47,-706.64 364.43,-698.46 390,-674.7 432.27,-635.41 448.95,-441.87 452.33,-396.31"/>
<polygon fill="#9a32cd" stroke="#9a32cd" points="293.05,-704.73 283.15,-708.51 293.24,-711.73 293.05,-704.73"/>
<text text-anchor="middle" x="345.5" y="-709.7" font-family="Helvetica" font-size="10.00"> ParamType</text>
</g>
<!-- Node3 -->
<g id="node3" class="node">
<title>Node3</title>
<g id="a_node3"><a xlink:title=" ">
<polygon fill="white" stroke="#bfbfbf" points="149,-641.7 149,-671.7 266,-671.7 266,-641.7 149,-641.7"/>
<text text-anchor="start" x="157" y="-659.7" font-family="Helvetica" font-size="10.00">std::vector&lt; std::vector</text>
<text text-anchor="middle" x="207.5" y="-648.7" font-family="Helvetica" font-size="10.00">&lt; TH2D * &gt; &gt;</text>
</a>
</g>
</g>
<!-- Node3&#45;&gt;Node1 -->
<g id="edge2" class="edge">
<title>Node3&#45;&gt;Node1</title>
<path fill="none" stroke="#9a32cd" stroke-dasharray="5,2" d="M276.64,-661.91C314.46,-661.07 359.82,-653.31 390,-625.7 425.22,-593.47 446.81,-436.72 451.86,-396.25"/>
<polygon fill="#9a32cd" stroke="#9a32cd" points="276.17,-658.42 266.19,-661.98 276.21,-665.42 276.17,-658.42"/>
<text text-anchor="middle" x="345.5" y="-662.7" font-family="Helvetica" font-size="10.00"> hpost2D</text>
</g>
<!-- Node4 -->
<g id="node4" class="node">
<title>Node4</title>
<g id="a_node4"><a xlink:title=" ">
<polygon fill="white" stroke="#bfbfbf" points="155.5,-592.7 155.5,-622.7 259.5,-622.7 259.5,-592.7 155.5,-592.7"/>
<text text-anchor="start" x="163.5" y="-610.7" font-family="Helvetica" font-size="10.00">std::vector&lt; YAML::</text>
<text text-anchor="middle" x="207.5" y="-599.7" font-family="Helvetica" font-size="10.00">Node &gt;</text>
</a>
</g>
</g>
<!-- Node4&#45;&gt;Node1 -->
<g id="edge3" class="edge">
<title>Node4&#45;&gt;Node1</title>
<path fill="none" stroke="#9a32cd" stroke-dasharray="5,2" d="M269.91,-612.72C308.61,-612.54 357.26,-605.72 390,-577.7 446.76,-529.1 452.65,-428.28 453.05,-396.51"/>
<polygon fill="#9a32cd" stroke="#9a32cd" points="269.83,-609.22 259.8,-612.62 269.76,-616.22 269.83,-609.22"/>
<text text-anchor="middle" x="345.5" y="-613.7" font-family="Helvetica" font-size="10.00"> CovConfig</text>
</g>
<!-- Node5 -->
<g id="node5" class="node">
<title>Node5</title>
<g id="a_node5"><a xlink:title=" ">
<polygon fill="white" stroke="#bfbfbf" points="149,-543.7 149,-573.7 266,-573.7 266,-543.7 149,-543.7"/>
<text text-anchor="start" x="157" y="-561.7" font-family="Helvetica" font-size="10.00">std::vector&lt; std::vector</text>
<text text-anchor="middle" x="207.5" y="-550.7" font-family="Helvetica" font-size="10.00">&lt; std::string &gt; &gt;</text>
</a>
</g>
</g>
<!-- Node5&#45;&gt;Node1 -->
<g id="edge4" class="edge">
<title>Node5&#45;&gt;Node1</title>
<path fill="none" stroke="#9a32cd" stroke-dasharray="5,2" d="M276.6,-564.7C313.56,-564.44 358.09,-558.02 390,-533.7 435.93,-498.68 448.81,-423.52 452.03,-396.57"/>
<polygon fill="#9a32cd" stroke="#9a32cd" points="276.42,-561.2 266.39,-564.62 276.36,-568.2 276.42,-561.2"/>
<text text-anchor="middle" x="345.5" y="-565.7" font-family="Helvetica" font-size="10.00"> CovPos</text>
</g>
<!-- Node6 -->
<g id="node6" class="node">
<title>Node6</title>
<g id="a_node6"><a xlink:title=" ">
<polygon fill="white" stroke="#bfbfbf" points="145,-505.2 145,-524.2 270,-524.2 270,-505.2 145,-505.2"/>
<text text-anchor="middle" x="207.5" y="-512.2" font-family="Helvetica" font-size="10.00">std::unique_ptr&lt; TH2D &gt;</text>
</a>
</g>
</g>
<!-- Node6&#45;&gt;Node1 -->
<g id="edge5" class="edge">
<title>Node6&#45;&gt;Node1</title>
<path fill="none" stroke="#9a32cd" stroke-dasharray="5,2" d="M280.49,-510.14C323.08,-506.27 372.12,-499.42 390,-487.7 424.22,-465.26 443.19,-417.11 450.03,-396.44"/>
<polygon fill="#9a32cd" stroke="#9a32cd" points="280.05,-506.66 270.38,-511.01 280.65,-513.64 280.05,-506.66"/>
<text text-anchor="middle" x="345.5" y="-521.7" font-family="Helvetica" font-size="10.00"> hviolin</text>
<text text-anchor="middle" x="345.5" y="-510.7" font-family="Helvetica" font-size="10.00">hviolin_prior</text>
</g>
<!-- Node7 -->
<g id="node7" class="node">
<title>Node7</title>
<g id="a_node7"><a xlink:title=" ">
<polygon fill="white" stroke="#bfbfbf" points="139,-467.2 139,-486.2 276,-486.2 276,-467.2 139,-467.2"/>
<text text-anchor="middle" x="207.5" y="-474.2" font-family="Helvetica" font-size="10.00">std::unique_ptr&lt; TCanvas &gt;</text>
</a>
</g>
</g>
<!-- Node7&#45;&gt;Node1 -->
<g id="edge6" class="edge">
<title>Node7&#45;&gt;Node1</title>
<path fill="none" stroke="#9a32cd" stroke-dasharray="5,2" d="M286.36,-475.24C319.72,-472.01 358.24,-464.64 390,-448.7 414.69,-436.3 435.8,-410.69 446.17,-396.57"/>
<polygon fill="#9a32cd" stroke="#9a32cd" points="285.85,-471.78 276.18,-476.12 286.45,-478.75 285.85,-471.78"/>
<text text-anchor="middle" x="345.5" y="-475.7" font-family="Helvetica" font-size="10.00"> Posterior</text>
</g>
<!-- Node8 -->
<g id="node8" class="node">
<title>Node8</title>
<g id="a_node8"><a xlink:title=" ">
<polygon fill="white" stroke="#bfbfbf" points="149,-417.7 149,-447.7 266,-447.7 266,-417.7 149,-417.7"/>
<text text-anchor="start" x="157" y="-435.7" font-family="Helvetica" font-size="10.00">std::vector&lt; std::vector</text>
<text text-anchor="middle" x="207.5" y="-424.7" font-family="Helvetica" font-size="10.00">&lt; bool &gt; &gt;</text>
</a>
</g>
</g>
<!-- Node8&#45;&gt;Node1 -->
<g id="edge7" class="edge">
<title>Node8&#45;&gt;Node1</title>
<path fill="none" stroke="#9a32cd" stroke-dasharray="5,2" d="M276.4,-435.02C311.01,-434.51 353.4,-431.24 390,-420.7 408.15,-415.47 426.96,-404.46 439.24,-396.38"/>
<polygon fill="#9a32cd" stroke="#9a32cd" points="276.37,-431.52 266.39,-435.1 276.42,-438.52 276.37,-431.52"/>
<text text-anchor="middle" x="345.5" y="-436.7" font-family="Helvetica" font-size="10.00"> ParamFlat</text>
</g>
<!-- Node9 -->
<g id="node9" class="node">
<title>Node9</title>
<g id="a_node9"><a xlink:title=" ">
<polygon fill="white" stroke="#bfbfbf" points="149,-368.7 149,-398.7 266,-398.7 266,-368.7 149,-368.7"/>
<text text-anchor="start" x="157" y="-386.7" font-family="Helvetica" font-size="10.00">std::vector&lt; std::vector</text>
<text text-anchor="middle" x="207.5" y="-375.7" font-family="Helvetica" font-size="10.00">&lt; double &gt; &gt;</text>
</a>
</g>
</g>
<!-- Node9&#45;&gt;Node1 -->
<g id="edge8" class="edge">
<title>Node9&#45;&gt;Node1</title>
<path fill="none" stroke="#9a32cd" stroke-dasharray="5,2" d="M276.29,-384.53C318.29,-385.04 371.07,-385.69 407.96,-386.14"/>
<polygon fill="#9a32cd" stroke="#9a32cd" points="276.18,-381.03 266.13,-384.4 276.09,-388.02 276.18,-381.03"/>
<text text-anchor="middle" x="345.5" y="-410.7" font-family="Helvetica" font-size="10.00"> ParamCentral</text>
<text text-anchor="middle" x="345.5" y="-399.7" font-family="Helvetica" font-size="10.00">ParamErrors</text>
<text text-anchor="middle" x="345.5" y="-388.7" font-family="Helvetica" font-size="10.00">ParamNom</text>
</g>
<!-- Node10 -->
<g id="node10" class="node">
<title>Node10</title>
<g id="a_node10"><a xlink:title=" ">
<polygon fill="white" stroke="#bfbfbf" points="177.5,-299.2 177.5,-318.2 237.5,-318.2 237.5,-299.2 177.5,-299.2"/>
<text text-anchor="middle" x="207.5" y="-306.2" font-family="Helvetica" font-size="10.00">std::string</text>
</a>
</g>
</g>
<!-- Node10&#45;&gt;Node1 -->
<g id="edge9" class="edge">
<title>Node10&#45;&gt;Node1</title>
<path fill="none" stroke="#9a32cd" stroke-dasharray="5,2" d="M247.86,-305.08C285.99,-303.21 344.54,-304.77 390,-325.7 414.89,-337.15 435.93,-362.66 446.22,-376.79"/>
<polygon fill="#9a32cd" stroke="#9a32cd" points="247.46,-301.59 237.68,-305.68 247.87,-308.58 247.46,-301.59"/>
<text text-anchor="middle" x="345.5" y="-372.7" font-family="Helvetica" font-size="10.00"> MCMCFile</text>
<text text-anchor="middle" x="345.5" y="-361.7" font-family="Helvetica" font-size="10.00">OutputName</text>
<text text-anchor="middle" x="345.5" y="-350.7" font-family="Helvetica" font-size="10.00">OutputSuffix</text>
<text text-anchor="middle" x="345.5" y="-339.7" font-family="Helvetica" font-size="10.00">Posterior1DCut</text>
<text text-anchor="middle" x="345.5" y="-328.7" font-family="Helvetica" font-size="10.00">StepCut</text>
</g>
<!-- Node11 -->
<g id="node11" class="node">
<title>Node11</title>
<g id="a_node11"><a xlink:title=" ">
<polygon fill="white" stroke="#bfbfbf" points="0,-293.7 0,-323.7 95,-323.7 95,-293.7 0,-293.7"/>
<text text-anchor="start" x="8" y="-311.7" font-family="Helvetica" font-size="10.00">std::basic_string&lt;</text>
<text text-anchor="middle" x="47.5" y="-300.7" font-family="Helvetica" font-size="10.00"> char &gt;</text>
</a>
</g>
</g>
<!-- Node11&#45;&gt;Node10 -->
<g id="edge10" class="edge">
<title>Node11&#45;&gt;Node10</title>
<path fill="none" stroke="midnightblue" d="M105.27,-308.7C129.61,-308.7 157.02,-308.7 177.17,-308.7"/>
<polygon fill="midnightblue" stroke="midnightblue" points="105.05,-305.2 95.05,-308.7 105.05,-312.2 105.05,-305.2"/>
</g>
<!-- Node12 -->
<g id="node12" class="node">
<title>Node12</title>
<g id="a_node12"><a xlink:title=" ">
<polygon fill="white" stroke="#bfbfbf" points="162,-243.2 162,-262.2 253,-262.2 253,-243.2 162,-243.2"/>
<text text-anchor="middle" x="207.5" y="-250.2" font-family="Helvetica" font-size="10.00">std::vector&lt; int &gt;</text>
</a>
</g>
</g>
<!-- Node12&#45;&gt;Node1 -->
<g id="edge11" class="edge">
<title>Node12&#45;&gt;Node1</title>
<path fill="none" stroke="#9a32cd" stroke-dasharray="5,2" d="M263.02,-244.19C301.57,-241.09 352.81,-243.16 390,-267.7 429.61,-293.83 446.02,-353.34 451.11,-376.87"/>
<polygon fill="#9a32cd" stroke="#9a32cd" points="262.63,-240.71 253.01,-245.13 263.29,-247.68 262.63,-240.71"/>
<text text-anchor="middle" x="345.5" y="-292.7" font-family="Helvetica" font-size="10.00"> NDSamplesBins</text>
<text text-anchor="middle" x="345.5" y="-281.7" font-family="Helvetica" font-size="10.00">ParamTypeStartPos</text>
<text text-anchor="middle" x="345.5" y="-270.7" font-family="Helvetica" font-size="10.00">nParam</text>
</g>
<!-- Node13 -->
<g id="node13" class="node">
<title>Node13</title>
<g id="a_node13"><a xlink:title=" ">
<polygon fill="white" stroke="#bfbfbf" points="151.5,-189.2 151.5,-208.2 263.5,-208.2 263.5,-189.2 151.5,-189.2"/>
<text text-anchor="middle" x="207.5" y="-196.2" font-family="Helvetica" font-size="10.00">std::vector&lt; TString &gt;</text>
</a>
</g>
</g>
<!-- Node13&#45;&gt;Node1 -->
<g id="edge12" class="edge">
<title>Node13&#45;&gt;Node1</title>
<path fill="none" stroke="#9a32cd" stroke-dasharray="5,2" d="M254.4,-187.2C294.18,-180.09 351.3,-177.05 390,-205.7 447.23,-248.06 452.8,-346.08 453.09,-377.1"/>
<polygon fill="#9a32cd" stroke="#9a32cd" points="253.58,-183.8 244.42,-189.13 254.91,-190.67 253.58,-183.8"/>
<text text-anchor="middle" x="345.5" y="-230.7" font-family="Helvetica" font-size="10.00"> BranchNames</text>
<text text-anchor="middle" x="345.5" y="-219.7" font-family="Helvetica" font-size="10.00">SampleName_v</text>
<text text-anchor="middle" x="345.5" y="-208.7" font-family="Helvetica" font-size="10.00">SystName_v</text>
</g>
<!-- Node14 -->
<g id="node14" class="node">
<title>Node14</title>
<g id="a_node14"><a xlink:title=" ">
<polygon fill="white" stroke="#bfbfbf" points="158.5,-151.2 158.5,-170.2 256.5,-170.2 256.5,-151.2 158.5,-151.2"/>
<text text-anchor="middle" x="207.5" y="-158.2" font-family="Helvetica" font-size="10.00">std::vector&lt; bool &gt;</text>
</a>
</g>
</g>
<!-- Node14&#45;&gt;Node1 -->
<g id="edge13" class="edge">
<title>Node14&#45;&gt;Node1</title>
<path fill="none" stroke="#9a32cd" stroke-dasharray="5,2" d="M251.54,-149.01C291.67,-140.88 351.01,-136.28 390,-166.7 424.62,-193.7 446.42,-338.03 451.73,-377"/>
<polygon fill="#9a32cd" stroke="#9a32cd" points="250.56,-145.64 241.53,-151.19 252.05,-152.48 250.56,-145.64"/>
<text text-anchor="middle" x="345.5" y="-169.7" font-family="Helvetica" font-size="10.00"> IamVaried</text>
</g>
<!-- Node15 -->
<g id="node15" class="node">
<title>Node15</title>
<g id="a_node15"><a xlink:title=" ">
<polygon fill="white" stroke="#bfbfbf" points="145.5,-88.2 145.5,-107.2 269.5,-107.2 269.5,-88.2 145.5,-88.2"/>
<text text-anchor="middle" x="207.5" y="-95.2" font-family="Helvetica" font-size="10.00">std::vector&lt; std::string &gt;</text>
</a>
</g>
</g>
<!-- Node15&#45;&gt;Node1 -->
<g id="edge14" class="edge">
<title>Node15&#45;&gt;Node1</title>
<path fill="none" stroke="#9a32cd" stroke-dasharray="5,2" d="M279.84,-87.45C323.21,-82.92 373.34,-81.24 390,-94.7 435.6,-131.51 449.79,-330.9 452.49,-377.12"/>
<polygon fill="#9a32cd" stroke="#9a32cd" points="279.41,-83.98 269.85,-88.56 280.18,-90.94 279.41,-83.98"/>
<text text-anchor="middle" x="345.5" y="-130.7" font-family="Helvetica" font-size="10.00"> ExcludedNames</text>
<text text-anchor="middle" x="345.5" y="-119.7" font-family="Helvetica" font-size="10.00">ExcludedTypes</text>
<text text-anchor="middle" x="345.5" y="-108.7" font-family="Helvetica" font-size="10.00">NDSamplesNames</text>
<text text-anchor="middle" x="345.5" y="-97.7" font-family="Helvetica" font-size="10.00">ParameterGroup</text>
</g>
<!-- Node16 -->
<g id="node16" class="node">
<title>Node16</title>
<g id="a_node16"><a xlink:title=" ">
<polygon fill="white" stroke="#bfbfbf" points="151,-50.2 151,-69.2 264,-69.2 264,-50.2 151,-50.2"/>
<text text-anchor="middle" x="207.5" y="-57.2" font-family="Helvetica" font-size="10.00">std::vector&lt; TH1D * &gt;</text>
</a>
</g>
</g>
<!-- Node16&#45;&gt;Node1 -->
<g id="edge15" class="edge">
<title>Node16&#45;&gt;Node1</title>
<path fill="none" stroke="#9a32cd" stroke-dasharray="5,2" d="M252.34,-48.12C292.96,-40.26 352.58,-36.38 390,-68.7 438.34,-110.45 450.49,-328.19 452.62,-376.98"/>
<polygon fill="#9a32cd" stroke="#9a32cd" points="251.52,-44.72 242.44,-50.19 252.95,-51.57 251.52,-44.72"/>
<text text-anchor="middle" x="345.5" y="-71.7" font-family="Helvetica" font-size="10.00"> hpost</text>
</g>
<!-- Node17 -->
<g id="node17" class="node">
<title>Node17</title>
<g id="a_node17"><a xlink:title=" ">
<polygon fill="white" stroke="#bfbfbf" points="149,-0.7 149,-30.7 266,-30.7 266,-0.7 149,-0.7"/>
<text text-anchor="start" x="157" y="-18.7" font-family="Helvetica" font-size="10.00">std::vector&lt; std::vector</text>
<text text-anchor="middle" x="207.5" y="-7.7" font-family="Helvetica" font-size="10.00">&lt; TString &gt; &gt;</text>
</a>
</g>
</g>
<!-- Node17&#45;&gt;Node1 -->
<g id="edge16" class="edge">
<title>Node17&#45;&gt;Node1</title>
<path fill="none" stroke="#9a32cd" stroke-dasharray="5,2" d="M276.23,-1.49C314.18,2.33 359.8,-0.58 390,-27.7 443.92,-76.1 451.78,-325.17 452.84,-377.17"/>
<polygon fill="#9a32cd" stroke="#9a32cd" points="275.78,1.98 266.26,-2.66 276.6,-4.97 275.78,1.98"/>
<text text-anchor="middle" x="345.5" y="-30.7" font-family="Helvetica" font-size="10.00"> ParamNames</text>
</g>
</g>
</svg>
