<?xml version="1.0" encoding="UTF-8" standalone="no"?>
<!DOCTYPE svg PUBLIC "-//W3C//DTD SVG 1.1//EN"
 "http://www.w3.org/Graphics/SVG/1.1/DTD/svg11.dtd">
<!-- Generated by graphviz version 2.44.0 (0)
 -->
<!-- Title: SampleHandlerFD Pages: 1 -->
<svg width="1244pt" height="973pt"
 viewBox="0.00 0.00 1244.00 972.74" xmlns="http://www.w3.org/2000/svg" xmlns:xlink="http://www.w3.org/1999/xlink">
<g id="graph0" class="graph" transform="scale(1 1) rotate(0) translate(4 968.74)">
<title>SampleHandlerFD</title>
<polygon fill="white" stroke="transparent" points="-4,4 -4,-968.74 1240,-968.74 1240,4 -4,4"/>
<!-- Node1 -->
<g id="node1" class="node">
<title>Node1</title>
<g id="a_node1"><a xlink:title="Class responsible for handling implementation of samples used in analysis, reweighting and returning ...">
<polygon fill="#bfbfbf" stroke="black" points="1139,-414.24 1139,-433.24 1236,-433.24 1236,-414.24 1139,-414.24"/>
<text text-anchor="middle" x="1187.5" y="-421.24" font-family="Helvetica" font-size="10.00">SampleHandlerFD</text>
</a>
</g>
</g>
<!-- Node2 -->
<g id="node2" class="node">
<title>Node2</title>
<g id="a_node2"><a xlink:href="classSampleHandlerBase.html" target="_top" xlink:title="Class responsible for handling implementation of samples used in analysis, reweighting and returning ...">
<polygon fill="white" stroke="black" points="822.5,-878.24 822.5,-897.24 928.5,-897.24 928.5,-878.24 822.5,-878.24"/>
<text text-anchor="middle" x="875.5" y="-885.24" font-family="Helvetica" font-size="10.00">SampleHandlerBase</text>
</a>
</g>
</g>
<!-- Node2&#45;&gt;Node1 -->
<g id="edge1" class="edge">
<title>Node2&#45;&gt;Node1</title>
<path fill="none" stroke="midnightblue" d="M938.95,-883.92C995.17,-876.99 1075.71,-857.76 1121,-804.74 1171.02,-746.17 1184,-486.41 1186.15,-433.26"/>
<polygon fill="midnightblue" stroke="midnightblue" points="938.3,-880.47 928.75,-885.07 939.08,-887.43 938.3,-880.47"/>
</g>
<!-- Node3 -->
<g id="node3" class="node">
<title>Node3</title>
<g id="a_node3"><a xlink:title=" ">
<polygon fill="white" stroke="#bfbfbf" points="454,-945.24 454,-964.24 614,-964.24 614,-945.24 454,-945.24"/>
<text text-anchor="middle" x="534" y="-952.24" font-family="Helvetica" font-size="10.00">std::unique_ptr&lt; MaCh3Modes &gt;</text>
</a>
</g>
</g>
<!-- Node3&#45;&gt;Node2 -->
<g id="edge2" class="edge">
<title>Node3&#45;&gt;Node2</title>
<path fill="none" stroke="#9a32cd" stroke-dasharray="5,2" d="M593.48,-943.19C659.23,-930.22 764.8,-909.38 826.11,-897.29"/>
<polygon fill="#9a32cd" stroke="#9a32cd" points="592.41,-939.84 583.28,-945.21 593.77,-946.7 592.41,-939.84"/>
<text text-anchor="middle" x="703" y="-935.74" font-family="Helvetica" font-size="10.00"> Modes</text>
</g>
<!-- Node4 -->
<g id="node4" class="node">
<title>Node4</title>
<g id="a_node4"><a xlink:title=" ">
<polygon fill="white" stroke="#bfbfbf" points="819,-762.74 819,-792.74 932,-792.74 932,-762.74 819,-762.74"/>
<text text-anchor="start" x="827" y="-780.74" font-family="Helvetica" font-size="10.00">std::unordered_map</text>
<text text-anchor="middle" x="875.5" y="-769.74" font-family="Helvetica" font-size="10.00">&lt; std::string, double &gt;</text>
</a>
</g>
</g>
<!-- Node4&#45;&gt;Node1 -->
<g id="edge3" class="edge">
<title>Node4&#45;&gt;Node1</title>
<path fill="none" stroke="#9a32cd" stroke-dasharray="5,2" d="M942.18,-788.23C997.04,-793.02 1073.68,-789.83 1121,-745.74 1168.37,-701.59 1183.23,-482.56 1185.99,-433.5"/>
<polygon fill="#9a32cd" stroke="#9a32cd" points="942.5,-784.75 932.2,-787.25 941.81,-791.71 942.5,-784.75"/>
<text text-anchor="middle" x="1051.5" y="-792.74" font-family="Helvetica" font-size="10.00"> _modeNomWeightMap</text>
</g>
<!-- Node5 -->
<g id="node5" class="node">
<title>Node5</title>
<g id="a_node5"><a xlink:title=" ">
<polygon fill="white" stroke="#bfbfbf" points="817,-713.74 817,-743.74 934,-743.74 934,-713.74 817,-713.74"/>
<text text-anchor="start" x="825" y="-731.74" font-family="Helvetica" font-size="10.00">std::vector&lt; std::vector</text>
<text text-anchor="middle" x="875.5" y="-720.74" font-family="Helvetica" font-size="10.00">&lt; int &gt; &gt;</text>
</a>
</g>
</g>
<!-- Node5&#45;&gt;Node1 -->
<g id="edge4" class="edge">
<title>Node5&#45;&gt;Node1</title>
<path fill="none" stroke="#9a32cd" stroke-dasharray="5,2" d="M944.32,-731.24C1007.43,-732.08 1095.47,-728.98 1121,-706.74 1163.88,-669.39 1182.04,-478.25 1185.76,-433.24"/>
<polygon fill="#9a32cd" stroke="#9a32cd" points="944.08,-727.74 934.02,-731.07 943.96,-734.73 944.08,-727.74"/>
<text text-anchor="middle" x="1051.5" y="-733.74" font-family="Helvetica" font-size="10.00"> funcParsGrid</text>
</g>
<!-- Node6 -->
<g id="node6" class="node">
<title>Node6</title>
<g id="a_node6"><a xlink:title=" ">
<polygon fill="white" stroke="#bfbfbf" points="805.5,-675.24 805.5,-694.24 945.5,-694.24 945.5,-675.24 805.5,-675.24"/>
<text text-anchor="middle" x="875.5" y="-682.24" font-family="Helvetica" font-size="10.00">std::vector&lt; KinematicCut &gt;</text>
</a>
</g>
</g>
<!-- Node6&#45;&gt;Node1 -->
<g id="edge5" class="edge">
<title>Node6&#45;&gt;Node1</title>
<path fill="none" stroke="#9a32cd" stroke-dasharray="5,2" d="M955.7,-684.98C1017.46,-683.51 1096.7,-677.43 1121,-656.74 1156.51,-626.5 1179.69,-473.48 1185.22,-433.37"/>
<polygon fill="#9a32cd" stroke="#9a32cd" points="955.49,-681.48 945.56,-685.18 955.63,-688.48 955.49,-681.48"/>
<text text-anchor="middle" x="1051.5" y="-697.74" font-family="Helvetica" font-size="10.00"> Selection</text>
<text text-anchor="middle" x="1051.5" y="-686.74" font-family="Helvetica" font-size="10.00">StoredSelection</text>
</g>
<!-- Node7 -->
<g id="node7" class="node">
<title>Node7</title>
<g id="a_node7"><a xlink:title=" ">
<polygon fill="white" stroke="#bfbfbf" points="810.5,-625.74 810.5,-655.74 940.5,-655.74 940.5,-625.74 810.5,-625.74"/>
<text text-anchor="start" x="818.5" y="-643.74" font-family="Helvetica" font-size="10.00">std::unordered_map</text>
<text text-anchor="middle" x="875.5" y="-632.74" font-family="Helvetica" font-size="10.00">&lt; int, FuncParFuncType &gt;</text>
</a>
</g>
</g>
<!-- Node7&#45;&gt;Node1 -->
<g id="edge6" class="edge">
<title>Node7&#45;&gt;Node1</title>
<path fill="none" stroke="#9a32cd" stroke-dasharray="5,2" d="M950.69,-642.73C1012.84,-642.86 1095.37,-638.97 1121,-618.74 1181.27,-571.16 1186.5,-465.96 1186.64,-433.48"/>
<polygon fill="#9a32cd" stroke="#9a32cd" points="950.54,-639.23 940.52,-642.67 950.5,-646.23 950.54,-639.23"/>
<text text-anchor="middle" x="1051.5" y="-644.74" font-family="Helvetica" font-size="10.00"> funcParsFuncMap</text>
</g>
<!-- Node8 -->
<g id="node8" class="node">
<title>Node8</title>
<g id="a_node8"><a xlink:title=" ">
<polygon fill="white" stroke="#bfbfbf" points="824,-576.74 824,-606.74 927,-606.74 927,-576.74 824,-576.74"/>
<text text-anchor="start" x="832" y="-594.74" font-family="Helvetica" font-size="10.00">std::unordered_map</text>
<text text-anchor="middle" x="875.5" y="-583.74" font-family="Helvetica" font-size="10.00">&lt; std::string, int &gt;</text>
</a>
</g>
</g>
<!-- Node8&#45;&gt;Node1 -->
<g id="edge7" class="edge">
<title>Node8&#45;&gt;Node1</title>
<path fill="none" stroke="#9a32cd" stroke-dasharray="5,2" d="M937.14,-587.34C1004.69,-581.98 1106.36,-572.3 1121,-561.74 1165.52,-529.62 1180.87,-459.21 1185.11,-433.44"/>
<polygon fill="#9a32cd" stroke="#9a32cd" points="936.73,-583.86 927.03,-588.13 937.27,-590.84 936.73,-583.86"/>
<text text-anchor="middle" x="1051.5" y="-607.74" font-family="Helvetica" font-size="10.00"> KinematicParameters</text>
<text text-anchor="middle" x="1051.5" y="-596.74" font-family="Helvetica" font-size="10.00">KinematicVectors</text>
<text text-anchor="middle" x="1051.5" y="-585.74" font-family="Helvetica" font-size="10.00">funcParsNamesMap</text>
</g>
<!-- Node9 -->
<g id="node9" class="node">
<title>Node9</title>
<g id="a_node9"><a xlink:href="classParameterHandlerGeneric.html" target="_top" xlink:title="Class responsible for handling of systematic error parameters with different types defined in the con...">
<polygon fill="white" stroke="black" points="811,-453.24 811,-472.24 940,-472.24 940,-453.24 811,-453.24"/>
<text text-anchor="middle" x="875.5" y="-460.24" font-family="Helvetica" font-size="10.00">ParameterHandlerGeneric</text>
</a>
</g>
</g>
<!-- Node9&#45;&gt;Node1 -->
<g id="edge8" class="edge">
<title>Node9&#45;&gt;Node1</title>
<path fill="none" stroke="#9a32cd" stroke-dasharray="5,2" d="M950.19,-457.3C998.86,-453.2 1063.94,-446.72 1121,-437.74 1128.81,-436.51 1137.09,-434.94 1145.05,-433.31"/>
<polygon fill="#9a32cd" stroke="#9a32cd" points="949.74,-453.83 940.07,-458.14 950.32,-460.8 949.74,-453.83"/>
<text text-anchor="middle" x="1051.5" y="-456.74" font-family="Helvetica" font-size="10.00"> ParHandler</text>
</g>
<!-- Node10 -->
<g id="node10" class="node">
<title>Node10</title>
<g id="a_node10"><a xlink:href="classParameterHandlerBase.html" target="_top" xlink:title="Base class responsible for handling of systematic error parameters. Capable of using PCA or using ada...">
<polygon fill="white" stroke="black" points="475,-611.24 475,-630.24 593,-630.24 593,-611.24 475,-611.24"/>
<text text-anchor="middle" x="534" y="-618.24" font-family="Helvetica" font-size="10.00">ParameterHandlerBase</text>
</a>
</g>
</g>
<!-- Node10&#45;&gt;Node9 -->
<g id="edge9" class="edge">
<title>Node10&#45;&gt;Node9</title>
<path fill="none" stroke="midnightblue" d="M586.8,-631.99C639.71,-640.18 720.74,-643.06 769,-597.74 805.43,-563.52 753.6,-523.91 787,-486.74 793.42,-479.59 801.75,-474.48 810.71,-470.86"/>
<polygon fill="midnightblue" stroke="midnightblue" points="587.05,-628.49 576.61,-630.3 585.9,-635.39 587.05,-628.49"/>
</g>
<!-- Node11 -->
<g id="node11" class="node">
<title>Node11</title>
<g id="a_node11"><a xlink:title=" ">
<polygon fill="white" stroke="#bfbfbf" points="132,-674.74 132,-704.74 298,-704.74 298,-674.74 132,-674.74"/>
<text text-anchor="start" x="140" y="-692.74" font-family="Helvetica" font-size="10.00">std::unique_ptr&lt; adaptive</text>
<text text-anchor="middle" x="215" y="-681.74" font-family="Helvetica" font-size="10.00">_mcmc::AdaptiveMCMCHandler &gt;</text>
</a>
</g>
</g>
<!-- Node11&#45;&gt;Node10 -->
<g id="edge10" class="edge">
<title>Node11&#45;&gt;Node10</title>
<path fill="none" stroke="#9a32cd" stroke-dasharray="5,2" d="M283.23,-671.39C288.27,-669.61 293.25,-667.72 298,-665.74 306.44,-662.21 307.35,-658.73 316,-655.74 344.58,-645.84 420.95,-634.78 474.98,-627.79"/>
<polygon fill="#9a32cd" stroke="#9a32cd" points="281.83,-668.17 273.47,-674.69 284.07,-674.8 281.83,-668.17"/>
<text text-anchor="middle" x="373.5" y="-658.74" font-family="Helvetica" font-size="10.00"> AdaptiveHandler</text>
</g>
<!-- Node12 -->
<g id="node12" class="node">
<title>Node12</title>
<g id="a_node12"><a xlink:title=" ">
<polygon fill="white" stroke="#bfbfbf" points="138.5,-587.24 138.5,-606.24 291.5,-606.24 291.5,-587.24 138.5,-587.24"/>
<text text-anchor="middle" x="215" y="-594.24" font-family="Helvetica" font-size="10.00">std::unique_ptr&lt; PCAHandler &gt;</text>
</a>
</g>
</g>
<!-- Node12&#45;&gt;Node10 -->
<g id="edge11" class="edge">
<title>Node12&#45;&gt;Node10</title>
<path fill="none" stroke="#9a32cd" stroke-dasharray="5,2" d="M301.92,-595.58C341.34,-595.85 388.64,-597.33 431,-601.74 450.53,-603.77 471.92,-607.51 490.05,-611.15"/>
<polygon fill="#9a32cd" stroke="#9a32cd" points="301.82,-592.08 291.81,-595.53 301.79,-599.08 301.82,-592.08"/>
<text text-anchor="middle" x="373.5" y="-604.74" font-family="Helvetica" font-size="10.00"> PCAObj</text>
</g>
<!-- Node13 -->
<g id="node13" class="node">
<title>Node13</title>
<g id="a_node13"><a xlink:title=" ">
<polygon fill="white" stroke="#bfbfbf" points="147.5,-488.74 147.5,-518.74 282.5,-518.74 282.5,-488.74 147.5,-488.74"/>
<text text-anchor="start" x="155.5" y="-506.74" font-family="Helvetica" font-size="10.00">std::unique_ptr&lt; Parameter</text>
<text text-anchor="middle" x="215" y="-495.74" font-family="Helvetica" font-size="10.00">Tunes &gt;</text>
</a>
</g>
</g>
<!-- Node13&#45;&gt;Node10 -->
<g id="edge12" class="edge">
<title>Node13&#45;&gt;Node10</title>
<path fill="none" stroke="#9a32cd" stroke-dasharray="5,2" d="M292.71,-495.7C338.14,-495.24 393.88,-502.77 431,-535.74 453.73,-555.92 427.03,-580.71 449,-601.74 456.13,-608.56 465.17,-613.13 474.65,-616.15"/>
<polygon fill="#9a32cd" stroke="#9a32cd" points="292.51,-492.2 282.59,-495.93 292.67,-499.2 292.51,-492.2"/>
<text text-anchor="middle" x="373.5" y="-538.74" font-family="Helvetica" font-size="10.00"> Tunes</text>
</g>
<!-- Node14 -->
<g id="node14" class="node">
<title>Node14</title>
<g id="a_node14"><a xlink:title=" ">
<polygon fill="white" stroke="#bfbfbf" points="156.5,-625.74 156.5,-655.74 273.5,-655.74 273.5,-625.74 156.5,-625.74"/>
<text text-anchor="start" x="164.5" y="-643.74" font-family="Helvetica" font-size="10.00">std::vector&lt; std::vector</text>
<text text-anchor="middle" x="215" y="-632.74" font-family="Helvetica" font-size="10.00">&lt; std::string &gt; &gt;</text>
</a>
</g>
</g>
<!-- Node14&#45;&gt;Node10 -->
<g id="edge13" class="edge">
<title>Node14&#45;&gt;Node10</title>
<path fill="none" stroke="#9a32cd" stroke-dasharray="5,2" d="M283.81,-626.12C294.54,-624.31 305.54,-622.75 316,-621.74 369.62,-616.56 431.05,-616.86 474.83,-618.12"/>
<polygon fill="#9a32cd" stroke="#9a32cd" points="282.88,-622.73 273.64,-627.92 284.1,-629.62 282.88,-622.73"/>
<text text-anchor="middle" x="373.5" y="-624.74" font-family="Helvetica" font-size="10.00"> _fSampleNames</text>
</g>
<!-- Node15 -->
<g id="node15" class="node">
<title>Node15</title>
<g id="a_node15"><a xlink:title=" ">
<polygon fill="white" stroke="#bfbfbf" points="156.5,-537.74 156.5,-567.74 273.5,-567.74 273.5,-537.74 156.5,-537.74"/>
<text text-anchor="start" x="164.5" y="-555.74" font-family="Helvetica" font-size="10.00">std::vector&lt; std::vector</text>
<text text-anchor="middle" x="215" y="-544.74" font-family="Helvetica" font-size="10.00">&lt; double &gt; &gt;</text>
</a>
</g>
</g>
<!-- Node15&#45;&gt;Node10 -->
<g id="edge14" class="edge">
<title>Node15&#45;&gt;Node10</title>
<path fill="none" stroke="#9a32cd" stroke-dasharray="5,2" d="M283.84,-549.37C328.18,-550.01 386,-556.4 431,-580.74 441.81,-586.58 438.47,-595.39 449,-601.74 456.81,-606.44 465.67,-609.99 474.63,-612.65"/>
<polygon fill="#9a32cd" stroke="#9a32cd" points="283.75,-545.87 273.73,-549.32 283.72,-552.87 283.75,-545.87"/>
<text text-anchor="middle" x="373.5" y="-583.74" font-family="Helvetica" font-size="10.00"> InvertCovMatrix</text>
</g>
<!-- Node16 -->
<g id="node16" class="node">
<title>Node16</title>
<g id="a_node16"><a xlink:title=" ">
<polygon fill="white" stroke="#bfbfbf" points="161.5,-439.74 161.5,-469.74 268.5,-469.74 268.5,-439.74 161.5,-439.74"/>
<text text-anchor="start" x="169.5" y="-457.74" font-family="Helvetica" font-size="10.00">std::vector&lt; std::pair</text>
<text text-anchor="middle" x="215" y="-446.74" font-family="Helvetica" font-size="10.00">&lt; double, double &gt; &gt;</text>
</a>
</g>
</g>
<!-- Node16&#45;&gt;Node10 -->
<g id="edge15" class="edge">
<title>Node16&#45;&gt;Node10</title>
<path fill="none" stroke="#9a32cd" stroke-dasharray="5,2" d="M278.88,-454.17C334.48,-455.08 409.94,-460.25 431,-480.74 469.97,-518.65 412.02,-561.88 449,-601.74 455.92,-609.19 465.08,-614.02 474.82,-617.1"/>
<polygon fill="#9a32cd" stroke="#9a32cd" points="278.78,-450.67 268.74,-454.05 278.7,-457.67 278.78,-450.67"/>
<text text-anchor="middle" x="373.5" y="-483.74" font-family="Helvetica" font-size="10.00"> CircularBoundsValues</text>
</g>
<!-- Node17 -->
<g id="node17" class="node">
<title>Node17</title>
<g id="a_node17"><a xlink:title=" ">
<polygon fill="white" stroke="#bfbfbf" points="185,-871.24 185,-890.24 245,-890.24 245,-871.24 185,-871.24"/>
<text text-anchor="middle" x="215" y="-878.24" font-family="Helvetica" font-size="10.00">std::string</text>
</a>
</g>
</g>
<!-- Node17&#45;&gt;Node1 -->
<g id="edge32" class="edge">
<title>Node17&#45;&gt;Node1</title>
<path fill="none" stroke="#9a32cd" stroke-dasharray="5,2" d="M234.14,-896.95C253.03,-912.67 284.26,-935.45 316,-944.74 365.05,-959.09 382.13,-959.7 431,-944.74 452.84,-938.05 757.29,-730.35 769,-710.74 801.83,-655.73 743.19,-614.47 787,-567.74 841.78,-509.29 885.98,-551.88 964,-533.74 1034.47,-517.34 1058.65,-527.44 1121,-490.74 1146.51,-475.72 1168.86,-448.19 1179.64,-433.53"/>
<polygon fill="#9a32cd" stroke="#9a32cd" points="236.24,-894.14 226.36,-890.3 231.69,-899.46 236.24,-894.14"/>
<text text-anchor="middle" x="703" y="-842.74" font-family="Helvetica" font-size="10.00"> SampleName</text>
<text text-anchor="middle" x="703" y="-831.74" font-family="Helvetica" font-size="10.00">SampleTitle</text>
<text text-anchor="middle" x="703" y="-820.74" font-family="Helvetica" font-size="10.00">XVarStr</text>
<text text-anchor="middle" x="703" y="-809.74" font-family="Helvetica" font-size="10.00">YVarStr</text>
</g>
<!-- Node17&#45;&gt;Node10 -->
<g id="edge16" class="edge">
<title>Node17&#45;&gt;Node10</title>
<path fill="none" stroke="#9a32cd" stroke-dasharray="5,2" d="M255.02,-868.98C269.04,-863.99 284.67,-857.51 298,-849.74 307,-844.49 306.61,-839.23 316,-834.74 363.02,-812.25 389.16,-842.82 431,-811.74 495.58,-763.77 523.47,-662.53 530.88,-630.6"/>
<polygon fill="#9a32cd" stroke="#9a32cd" points="253.48,-865.81 245.15,-872.35 255.74,-872.43 253.48,-865.81"/>
<text text-anchor="middle" x="373.5" y="-848.74" font-family="Helvetica" font-size="10.00"> inputFile</text>
<text text-anchor="middle" x="373.5" y="-837.74" font-family="Helvetica" font-size="10.00">matrixName</text>
</g>
<!-- Node18 -->
<g id="node18" class="node">
<title>Node18</title>
<g id="a_node18"><a xlink:title=" ">
<polygon fill="white" stroke="#bfbfbf" points="0,-865.74 0,-895.74 95,-895.74 95,-865.74 0,-865.74"/>
<text text-anchor="start" x="8" y="-883.74" font-family="Helvetica" font-size="10.00">std::basic_string&lt;</text>
<text text-anchor="middle" x="47.5" y="-872.74" font-family="Helvetica" font-size="10.00"> char &gt;</text>
</a>
</g>
</g>
<!-- Node18&#45;&gt;Node17 -->
<g id="edge17" class="edge">
<title>Node18&#45;&gt;Node17</title>
<path fill="none" stroke="midnightblue" d="M105.11,-880.74C131.97,-880.74 162.93,-880.74 184.95,-880.74"/>
<polygon fill="midnightblue" stroke="midnightblue" points="105.04,-877.24 95.04,-880.74 105.04,-884.24 105.04,-877.24"/>
</g>
<!-- Node19 -->
<g id="node19" class="node">
<title>Node19</title>
<g id="a_node19"><a xlink:title=" ">
<polygon fill="white" stroke="#bfbfbf" points="169.5,-401.24 169.5,-420.24 260.5,-420.24 260.5,-401.24 169.5,-401.24"/>
<text text-anchor="middle" x="215" y="-408.24" font-family="Helvetica" font-size="10.00">std::vector&lt; int &gt;</text>
</a>
</g>
</g>
<!-- Node19&#45;&gt;Node10 -->
<g id="edge18" class="edge">
<title>Node19&#45;&gt;Node10</title>
<path fill="none" stroke="#9a32cd" stroke-dasharray="5,2" d="M270.74,-411.75C330.65,-413.41 419.76,-417.72 431,-428.74 458.61,-455.79 423.34,-572.83 449,-601.74 455.85,-609.45 465.11,-614.39 474.98,-617.48"/>
<polygon fill="#9a32cd" stroke="#9a32cd" points="270.74,-408.25 260.65,-411.49 270.56,-415.25 270.74,-408.25"/>
<text text-anchor="middle" x="373.5" y="-442.74" font-family="Helvetica" font-size="10.00"> CircularBoundsIndex</text>
<text text-anchor="middle" x="373.5" y="-431.74" font-family="Helvetica" font-size="10.00">FlipParameterIndex</text>
</g>
<!-- Node20 -->
<g id="node20" class="node">
<title>Node20</title>
<g id="a_node20"><a xlink:title=" ">
<polygon fill="white" stroke="#bfbfbf" points="155.5,-351.74 155.5,-381.74 274.5,-381.74 274.5,-351.74 155.5,-351.74"/>
<text text-anchor="start" x="163.5" y="-369.74" font-family="Helvetica" font-size="10.00">std::vector&lt; std::unique</text>
<text text-anchor="middle" x="215" y="-358.74" font-family="Helvetica" font-size="10.00">_ptr&lt; TRandom3 &gt; &gt;</text>
</a>
</g>
</g>
<!-- Node20&#45;&gt;Node10 -->
<g id="edge19" class="edge">
<title>Node20&#45;&gt;Node10</title>
<path fill="none" stroke="#9a32cd" stroke-dasharray="5,2" d="M284.73,-372.39C343.76,-377.94 420.92,-387.09 431,-397.74 462.28,-430.79 419.05,-567.47 449,-601.74 455.79,-609.5 465.02,-614.47 474.88,-617.57"/>
<polygon fill="#9a32cd" stroke="#9a32cd" points="284.96,-368.9 274.68,-371.47 284.32,-375.87 284.96,-368.9"/>
<text text-anchor="middle" x="373.5" y="-400.74" font-family="Helvetica" font-size="10.00"> random_number</text>
</g>
<!-- Node21 -->
<g id="node21" class="node">
<title>Node21</title>
<g id="a_node21"><a xlink:title=" ">
<polygon fill="white" stroke="#bfbfbf" points="166,-724.24 166,-743.24 264,-743.24 264,-724.24 166,-724.24"/>
<text text-anchor="middle" x="215" y="-731.24" font-family="Helvetica" font-size="10.00">std::vector&lt; bool &gt;</text>
</a>
</g>
</g>
<!-- Node21&#45;&gt;Node10 -->
<g id="edge20" class="edge">
<title>Node21&#45;&gt;Node10</title>
<path fill="none" stroke="#9a32cd" stroke-dasharray="5,2" d="M274.22,-725.78C282.62,-723.09 290.83,-719.51 298,-714.74 309.4,-707.15 304.49,-697.15 316,-689.74 359.82,-661.52 381.37,-682.66 431,-666.74 461.52,-656.94 495.07,-640.66 515.07,-630.33"/>
<polygon fill="#9a32cd" stroke="#9a32cd" points="273.02,-722.48 264.32,-728.54 274.9,-729.22 273.02,-722.48"/>
<text text-anchor="middle" x="373.5" y="-692.74" font-family="Helvetica" font-size="10.00"> _fFlatPrior</text>
</g>
<!-- Node22 -->
<g id="node22" class="node">
<title>Node22</title>
<g id="a_node22"><a xlink:title=" ">
<polygon fill="white" stroke="#bfbfbf" points="153,-308.24 153,-327.24 277,-327.24 277,-308.24 153,-308.24"/>
<text text-anchor="middle" x="215" y="-315.24" font-family="Helvetica" font-size="10.00">std::vector&lt; std::string &gt;</text>
</a>
</g>
</g>
<!-- Node22&#45;&gt;Node1 -->
<g id="edge38" class="edge">
<title>Node22&#45;&gt;Node1</title>
<path fill="none" stroke="#9a32cd" stroke-dasharray="5,2" d="M262.07,-305.6C278.95,-301.44 298.26,-297.02 316,-293.74 514.83,-256.97 566.88,-246.28 769,-251.74 847.31,-253.85 1056.8,-225.85 1121,-270.74 1170.73,-305.5 1182.95,-386.19 1185.73,-414.06"/>
<polygon fill="#9a32cd" stroke="#9a32cd" points="260.76,-302.32 251.91,-308.15 262.46,-309.11 260.76,-302.32"/>
<text text-anchor="middle" x="703" y="-298.74" font-family="Helvetica" font-size="10.00"> SelectionStr</text>
<text text-anchor="middle" x="703" y="-287.74" font-family="Helvetica" font-size="10.00">SplineVarNames</text>
<text text-anchor="middle" x="703" y="-276.74" font-family="Helvetica" font-size="10.00">funcParsNamesVec</text>
<text text-anchor="middle" x="703" y="-265.74" font-family="Helvetica" font-size="10.00">mc_files</text>
<text text-anchor="middle" x="703" y="-254.74" font-family="Helvetica" font-size="10.00">spline_files</text>
</g>
<!-- Node22&#45;&gt;Node9 -->
<g id="edge29" class="edge">
<title>Node22&#45;&gt;Node9</title>
<path fill="none" stroke="#9a32cd" stroke-dasharray="5,2" d="M260.38,-306.04C308.8,-296.2 385.47,-289.67 431,-331.74 471.9,-369.53 408.17,-417.86 449,-455.74 510.41,-512.69 553.29,-465.85 637,-468.74 695.63,-470.76 710.36,-470.4 769,-468.74 782.57,-468.35 797.11,-467.69 810.93,-466.94"/>
<polygon fill="#9a32cd" stroke="#9a32cd" points="259.53,-302.64 250.49,-308.17 261.01,-309.48 259.53,-302.64"/>
<text text-anchor="middle" x="534" y="-497.74" font-family="Helvetica" font-size="10.00"> _ParameterGroup</text>
<text text-anchor="middle" x="534" y="-486.74" font-family="Helvetica" font-size="10.00">_fSplineNames</text>
</g>
<!-- Node22&#45;&gt;Node10 -->
<g id="edge21" class="edge">
<title>Node22&#45;&gt;Node10</title>
<path fill="none" stroke="#9a32cd" stroke-dasharray="5,2" d="M286.98,-325.82C347.66,-333.07 426,-343.37 431,-348.74 469.39,-390 412.27,-558.98 449,-601.74 455.72,-609.56 464.92,-614.55 474.78,-617.66"/>
<polygon fill="#9a32cd" stroke="#9a32cd" points="287.36,-322.35 277.02,-324.64 286.54,-329.3 287.36,-322.35"/>
<text text-anchor="middle" x="373.5" y="-362.74" font-family="Helvetica" font-size="10.00"> _fFancyNames</text>
<text text-anchor="middle" x="373.5" y="-351.74" font-family="Helvetica" font-size="10.00">_fNames</text>
</g>
<!-- Node23 -->
<g id="node23" class="node">
<title>Node23</title>
<g id="a_node23"><a xlink:title=" ">
<polygon fill="white" stroke="#bfbfbf" points="160.5,-821.24 160.5,-840.24 269.5,-840.24 269.5,-821.24 160.5,-821.24"/>
<text text-anchor="middle" x="215" y="-828.24" font-family="Helvetica" font-size="10.00">std::vector&lt; double &gt;</text>
</a>
</g>
</g>
<!-- Node23&#45;&gt;Node10 -->
<g id="edge22" class="edge">
<title>Node23&#45;&gt;Node10</title>
<path fill="none" stroke="#9a32cd" stroke-dasharray="5,2" d="M235.64,-814.58C253.17,-799.61 278.93,-776.18 298,-752.74 307.57,-740.97 303.53,-732.38 316,-723.74 358.83,-694.03 383.65,-722.52 431,-700.74 469.85,-682.86 507.22,-647.45 523.9,-630.38"/>
<polygon fill="#9a32cd" stroke="#9a32cd" points="233.16,-812.1 227.77,-821.22 237.67,-817.45 233.16,-812.1"/>
<text text-anchor="middle" x="373.5" y="-803.74" font-family="Helvetica" font-size="10.00"> FlipParameterPoint</text>
<text text-anchor="middle" x="373.5" y="-792.74" font-family="Helvetica" font-size="10.00">_fCurrVal</text>
<text text-anchor="middle" x="373.5" y="-781.74" font-family="Helvetica" font-size="10.00">_fError</text>
<text text-anchor="middle" x="373.5" y="-770.74" font-family="Helvetica" font-size="10.00">_fIndivStepScale</text>
<text text-anchor="middle" x="373.5" y="-759.74" font-family="Helvetica" font-size="10.00">_fLowBound</text>
<text text-anchor="middle" x="373.5" y="-748.74" font-family="Helvetica" font-size="10.00">_fPreFitValue</text>
<text text-anchor="middle" x="373.5" y="-737.74" font-family="Helvetica" font-size="10.00">_fPropVal</text>
<text text-anchor="middle" x="373.5" y="-726.74" font-family="Helvetica" font-size="10.00">_fUpBound</text>
</g>
<!-- Node33 -->
<g id="node33" class="node">
<title>Node33</title>
<g id="a_node33"><a xlink:href="structSampleBinningInfo.html" target="_top" xlink:title="KS: Small struct storying info about used binning.">
<polygon fill="white" stroke="black" points="654,-682.24 654,-701.24 752,-701.24 752,-682.24 654,-682.24"/>
<text text-anchor="middle" x="703" y="-689.24" font-family="Helvetica" font-size="10.00">SampleBinningInfo</text>
</a>
</g>
</g>
<!-- Node23&#45;&gt;Node33 -->
<g id="edge36" class="edge">
<title>Node23&#45;&gt;Node33</title>
<path fill="none" stroke="#9a32cd" stroke-dasharray="5,2" d="M251.74,-843.44C294.95,-856.89 369.5,-873.98 431,-856.74 543.97,-825.05 656.56,-731.87 691.19,-701.46"/>
<polygon fill="#9a32cd" stroke="#9a32cd" points="252.57,-840.03 241.98,-840.29 250.43,-846.69 252.57,-840.03"/>
<text text-anchor="middle" x="373.5" y="-932.74" font-family="Helvetica" font-size="10.00"> XBinEdges</text>
<text text-anchor="middle" x="373.5" y="-921.74" font-family="Helvetica" font-size="10.00">YBinEdges</text>
<text text-anchor="start" x="316" y="-910.74" font-family="Helvetica" font-size="10.00">rw_lower_lower</text>
<text text-anchor="middle" x="373.5" y="-899.74" font-family="Helvetica" font-size="10.00">_xbinedge</text>
<text text-anchor="middle" x="373.5" y="-888.74" font-family="Helvetica" font-size="10.00">rw_lower_xbinedge</text>
<text text-anchor="middle" x="373.5" y="-877.74" font-family="Helvetica" font-size="10.00">rw_upper_upper_xbinedge</text>
<text text-anchor="middle" x="373.5" y="-866.74" font-family="Helvetica" font-size="10.00">rw_upper_xbinedge</text>
</g>
<!-- Node24 -->
<g id="node24" class="node">
<title>Node24</title>
<g id="a_node24"><a xlink:title=" ">
<polygon fill="white" stroke="#bfbfbf" points="479,-561.74 479,-591.74 589,-591.74 589,-561.74 479,-561.74"/>
<text text-anchor="start" x="487" y="-579.74" font-family="Helvetica" font-size="10.00">std::vector&lt; std::map</text>
<text text-anchor="middle" x="534" y="-568.74" font-family="Helvetica" font-size="10.00">&lt; int, int &gt; &gt;</text>
</a>
</g>
</g>
<!-- Node24&#45;&gt;Node9 -->
<g id="edge23" class="edge">
<title>Node24&#45;&gt;Node9</title>
<path fill="none" stroke="#9a32cd" stroke-dasharray="5,2" d="M599.33,-583.46C650.94,-585.24 722.26,-579.11 769,-539.74 788.03,-523.71 768.89,-503.79 787,-486.74 793.76,-480.36 802.06,-475.65 810.82,-472.18"/>
<polygon fill="#9a32cd" stroke="#9a32cd" points="599.43,-579.96 589.28,-583 599.11,-586.95 599.43,-579.96"/>
<text text-anchor="middle" x="703" y="-585.74" font-family="Helvetica" font-size="10.00"> _fSystToGlobalSystIndexMap</text>
</g>
<!-- Node25 -->
<g id="node25" class="node">
<title>Node25</title>
<g id="a_node25"><a xlink:title=" ">
<polygon fill="white" stroke="#bfbfbf" points="473.5,-523.24 473.5,-542.24 594.5,-542.24 594.5,-523.24 473.5,-523.24"/>
<text text-anchor="middle" x="534" y="-530.24" font-family="Helvetica" font-size="10.00">std::vector&lt; SystType &gt;</text>
</a>
</g>
</g>
<!-- Node25&#45;&gt;Node9 -->
<g id="edge24" class="edge">
<title>Node25&#45;&gt;Node9</title>
<path fill="none" stroke="#9a32cd" stroke-dasharray="5,2" d="M604.71,-528.5C652.07,-524.06 715.56,-515.03 769,-496.74 777.66,-493.77 778.53,-490.19 787,-486.74 801.15,-480.96 817.14,-476.12 831.54,-472.33"/>
<polygon fill="#9a32cd" stroke="#9a32cd" points="604.21,-525.03 594.56,-529.4 604.83,-532 604.21,-525.03"/>
<text text-anchor="middle" x="703" y="-527.74" font-family="Helvetica" font-size="10.00"> _fParamType</text>
</g>
<!-- Node26 -->
<g id="node26" class="node">
<title>Node26</title>
<g id="a_node26"><a xlink:title=" ">
<polygon fill="white" stroke="#bfbfbf" points="459.5,-427.24 459.5,-446.24 608.5,-446.24 608.5,-427.24 459.5,-427.24"/>
<text text-anchor="middle" x="534" y="-434.24" font-family="Helvetica" font-size="10.00">std::vector&lt; NormParameter &gt;</text>
</a>
</g>
</g>
<!-- Node26&#45;&gt;Node9 -->
<g id="edge25" class="edge">
<title>Node26&#45;&gt;Node9</title>
<path fill="none" stroke="#9a32cd" stroke-dasharray="5,2" d="M618.78,-443.15C678.19,-447.7 756.69,-453.71 810.97,-457.87"/>
<polygon fill="#9a32cd" stroke="#9a32cd" points="618.9,-439.65 608.67,-442.38 618.37,-446.63 618.9,-439.65"/>
<text text-anchor="middle" x="703" y="-456.74" font-family="Helvetica" font-size="10.00"> NormParams</text>
</g>
<!-- Node27 -->
<g id="node27" class="node">
<title>Node27</title>
<g id="a_node27"><a xlink:title=" ">
<polygon fill="white" stroke="#bfbfbf" points="449,-301.24 449,-320.24 619,-320.24 619,-301.24 449,-301.24"/>
<text text-anchor="middle" x="534" y="-308.24" font-family="Helvetica" font-size="10.00">std::vector&lt; FunctionalParameter &gt;</text>
</a>
</g>
</g>
<!-- Node27&#45;&gt;Node1 -->
<g id="edge33" class="edge">
<title>Node27&#45;&gt;Node1</title>
<path fill="none" stroke="#9a32cd" stroke-dasharray="5,2" d="M629.27,-310.41C684.71,-312.16 747.95,-318.18 769,-335.74 790.71,-353.84 764.94,-379.06 787,-396.74 840.02,-439.23 1045.05,-432.57 1138.99,-427.05"/>
<polygon fill="#9a32cd" stroke="#9a32cd" points="629.11,-306.9 619.02,-310.13 628.92,-313.9 629.11,-306.9"/>
<text text-anchor="middle" x="875.5" y="-432.74" font-family="Helvetica" font-size="10.00"> funcParsVec</text>
</g>
<!-- Node27&#45;&gt;Node9 -->
<g id="edge26" class="edge">
<title>Node27&#45;&gt;Node9</title>
<path fill="none" stroke="#9a32cd" stroke-dasharray="5,2" d="M586.39,-322.39C602.55,-325.9 620.48,-329.64 637,-332.74 666.19,-338.2 747.47,-333.27 769,-353.74 796.99,-380.34 760.51,-410.64 787,-438.74 793.48,-445.61 801.73,-450.58 810.57,-454.17"/>
<polygon fill="#9a32cd" stroke="#9a32cd" points="587.1,-318.97 576.58,-320.24 585.6,-325.8 587.1,-318.97"/>
<text text-anchor="middle" x="703" y="-356.74" font-family="Helvetica" font-size="10.00"> FuncParams</text>
</g>
<!-- Node28 -->
<g id="node28" class="node">
<title>Node28</title>
<g id="a_node28"><a xlink:title=" ">
<polygon fill="white" stroke="#bfbfbf" points="458,-389.24 458,-408.24 610,-408.24 610,-389.24 458,-389.24"/>
<text text-anchor="middle" x="534" y="-396.24" font-family="Helvetica" font-size="10.00">std::vector&lt; SplineParameter &gt;</text>
</a>
</g>
</g>
<!-- Node28&#45;&gt;Node9 -->
<g id="edge27" class="edge">
<title>Node28&#45;&gt;Node9</title>
<path fill="none" stroke="#9a32cd" stroke-dasharray="5,2" d="M620.14,-403.2C665.17,-407.25 720.92,-414.99 769,-429.74 777.55,-432.36 778.65,-435.54 787,-438.74 801.71,-444.37 818.28,-449.26 833.01,-453.14"/>
<polygon fill="#9a32cd" stroke="#9a32cd" points="620.38,-399.71 610.12,-402.34 619.78,-406.68 620.38,-399.71"/>
<text text-anchor="middle" x="703" y="-432.74" font-family="Helvetica" font-size="10.00"> SplineParams</text>
</g>
<!-- Node29 -->
<g id="node29" class="node">
<title>Node29</title>
<g id="a_node29"><a xlink:title=" ">
<polygon fill="white" stroke="#bfbfbf" points="475.5,-339.74 475.5,-369.74 592.5,-369.74 592.5,-339.74 475.5,-339.74"/>
<text text-anchor="start" x="483.5" y="-357.74" font-family="Helvetica" font-size="10.00">std::vector&lt; Oscillation</text>
<text text-anchor="middle" x="534" y="-346.74" font-family="Helvetica" font-size="10.00">Parameter &gt;</text>
</a>
</g>
</g>
<!-- Node29&#45;&gt;Node9 -->
<g id="edge28" class="edge">
<title>Node29&#45;&gt;Node9</title>
<path fill="none" stroke="#9a32cd" stroke-dasharray="5,2" d="M602.78,-363.16C669.55,-371.72 762.52,-384.45 769,-389.74 786.99,-404.39 769.92,-423.04 787,-438.74 793.84,-445.02 802.18,-449.69 810.96,-453.14"/>
<polygon fill="#9a32cd" stroke="#9a32cd" points="603.08,-359.67 592.72,-361.88 602.19,-366.62 603.08,-359.67"/>
<text text-anchor="middle" x="703" y="-392.74" font-family="Helvetica" font-size="10.00"> OscParams</text>
</g>
<!-- Node30 -->
<g id="node30" class="node">
<title>Node30</title>
<g id="a_node30"><a xlink:title=" ">
<polygon fill="white" stroke="#bfbfbf" points="816.5,-356.74 816.5,-386.74 934.5,-386.74 934.5,-356.74 816.5,-356.74"/>
<text text-anchor="start" x="824.5" y="-374.74" font-family="Helvetica" font-size="10.00">std::unordered_map</text>
<text text-anchor="middle" x="875.5" y="-363.74" font-family="Helvetica" font-size="10.00">&lt; std::string, NuPDG &gt;</text>
</a>
</g>
</g>
<!-- Node30&#45;&gt;Node1 -->
<g id="edge30" class="edge">
<title>Node30&#45;&gt;Node1</title>
<path fill="none" stroke="#9a32cd" stroke-dasharray="5,2" d="M944.56,-368.36C994.39,-367.75 1063.12,-370.84 1121,-387.74 1140.43,-393.41 1160.5,-405.53 1173.22,-414.14"/>
<polygon fill="#9a32cd" stroke="#9a32cd" points="944.47,-364.86 934.54,-368.53 944.6,-371.86 944.47,-364.86"/>
<text text-anchor="middle" x="1051.5" y="-401.74" font-family="Helvetica" font-size="10.00"> FileToFinalPDGMap</text>
<text text-anchor="middle" x="1051.5" y="-390.74" font-family="Helvetica" font-size="10.00">FileToInitPDGMap</text>
</g>
<!-- Node31 -->
<g id="node31" class="node">
<title>Node31</title>
<g id="a_node31"><a xlink:title=" ">
<polygon fill="white" stroke="#bfbfbf" points="800,-318.24 800,-337.24 951,-337.24 951,-318.24 800,-318.24"/>
<text text-anchor="middle" x="875.5" y="-325.24" font-family="Helvetica" font-size="10.00">std::vector&lt; OscChannelInfo &gt;</text>
</a>
</g>
</g>
<!-- Node31&#45;&gt;Node1 -->
<g id="edge31" class="edge">
<title>Node31&#45;&gt;Node1</title>
<path fill="none" stroke="#9a32cd" stroke-dasharray="5,2" d="M961.42,-321.91C1010.45,-322 1071.92,-328.19 1121,-352.74 1149.05,-366.76 1171.07,-398.18 1180.9,-414.1"/>
<polygon fill="#9a32cd" stroke="#9a32cd" points="961.14,-318.41 951.16,-321.98 961.18,-325.41 961.14,-318.41"/>
<text text-anchor="middle" x="1051.5" y="-355.74" font-family="Helvetica" font-size="10.00"> OscChannels</text>
</g>
<!-- Node32 -->
<g id="node32" class="node">
<title>Node32</title>
<g id="a_node32"><a xlink:title=" ">
<polygon fill="white" stroke="#bfbfbf" points="807,-280.24 807,-299.24 944,-299.24 944,-280.24 807,-280.24"/>
<text text-anchor="middle" x="875.5" y="-287.24" font-family="Helvetica" font-size="10.00">std::unique_ptr&lt; manager &gt;</text>
</a>
</g>
</g>
<!-- Node32&#45;&gt;Node1 -->
<g id="edge34" class="edge">
<title>Node32&#45;&gt;Node1</title>
<path fill="none" stroke="#9a32cd" stroke-dasharray="5,2" d="M936.4,-278.89C989.14,-272.62 1065.91,-271.82 1121,-306.74 1160.91,-332.03 1178.71,-390.78 1184.37,-414.02"/>
<polygon fill="#9a32cd" stroke="#9a32cd" points="935.65,-275.45 926.18,-280.2 936.55,-282.39 935.65,-275.45"/>
<text text-anchor="middle" x="1051.5" y="-309.74" font-family="Helvetica" font-size="10.00"> SampleManager</text>
</g>
<!-- Node33&#45;&gt;Node1 -->
<g id="edge35" class="edge">
<title>Node33&#45;&gt;Node1</title>
<path fill="none" stroke="#9a32cd" stroke-dasharray="5,2" d="M727.5,-675.88C741.83,-664.91 759.21,-649.04 769,-630.74 791.95,-587.83 752.51,-557.06 787,-522.74 840.29,-469.7 1051.21,-496.7 1121,-468.74 1142.26,-460.22 1163.49,-443.82 1175.79,-433.35"/>
<polygon fill="#9a32cd" stroke="#9a32cd" points="725.08,-673.31 719.07,-682.04 729.21,-678.96 725.08,-673.31"/>
<text text-anchor="middle" x="875.5" y="-525.74" font-family="Helvetica" font-size="10.00"> Binning</text>
</g>
<!-- Node34 -->
<g id="node34" class="node">
<title>Node34</title>
<g id="a_node34"><a xlink:title=" ">
<polygon fill="white" stroke="#bfbfbf" points="787,-204.24 787,-223.24 964,-223.24 964,-204.24 787,-204.24"/>
<text text-anchor="middle" x="875.5" y="-211.24" font-family="Helvetica" font-size="10.00">std::vector&lt; FunctionalParameter * &gt;</text>
</a>
</g>
</g>
<!-- Node34&#45;&gt;Node1 -->
<g id="edge37" class="edge">
<title>Node34&#45;&gt;Node1</title>
<path fill="none" stroke="#9a32cd" stroke-dasharray="5,2" d="M922.13,-202.15C975.51,-191.47 1063.84,-183.15 1121,-226.74 1182.62,-273.72 1186.94,-380.74 1186.74,-413.81"/>
<polygon fill="#9a32cd" stroke="#9a32cd" points="921.33,-198.74 912.26,-204.23 922.77,-205.59 921.33,-198.74"/>
<text text-anchor="middle" x="1051.5" y="-229.74" font-family="Helvetica" font-size="10.00"> funcParsMap</text>
</g>
<!-- Node35 -->
<g id="node35" class="node">
<title>Node35</title>
<g id="a_node35"><a xlink:title=" ">
<polygon fill="white" stroke="#bfbfbf" points="807,-154.74 807,-184.74 944,-184.74 944,-154.74 807,-154.74"/>
<text text-anchor="start" x="815" y="-172.74" font-family="Helvetica" font-size="10.00">std::shared_ptr&lt; Oscillation</text>
<text text-anchor="middle" x="875.5" y="-161.74" font-family="Helvetica" font-size="10.00">Handler &gt;</text>
</a>
</g>
</g>
<!-- Node35&#45;&gt;Node1 -->
<g id="edge39" class="edge">
<title>Node35&#45;&gt;Node1</title>
<path fill="none" stroke="#9a32cd" stroke-dasharray="5,2" d="M939.96,-152.69C993.95,-142.26 1070.53,-137.62 1121,-177.74 1159.58,-208.4 1180.65,-372.31 1185.44,-414.05"/>
<polygon fill="#9a32cd" stroke="#9a32cd" points="939.25,-149.27 930.16,-154.7 940.65,-156.12 939.25,-149.27"/>
<text text-anchor="middle" x="1051.5" y="-180.74" font-family="Helvetica" font-size="10.00"> Oscillator</text>
</g>
<!-- Node36 -->
<g id="node36" class="node">
<title>Node36</title>
<g id="a_node36"><a xlink:title=" ">
<polygon fill="white" stroke="#bfbfbf" points="802,-105.74 802,-135.74 949,-135.74 949,-105.74 802,-105.74"/>
<text text-anchor="start" x="810" y="-123.74" font-family="Helvetica" font-size="10.00">std::unique_ptr&lt; BinnedSpline</text>
<text text-anchor="middle" x="875.5" y="-112.74" font-family="Helvetica" font-size="10.00">Handler &gt;</text>
</a>
</g>
</g>
<!-- Node36&#45;&gt;Node1 -->
<g id="edge40" class="edge">
<title>Node36&#45;&gt;Node1</title>
<path fill="none" stroke="#9a32cd" stroke-dasharray="5,2" d="M939.41,-103.69C993.73,-93.05 1071.13,-88.23 1121,-129.74 1166.42,-167.54 1182.69,-367.73 1185.88,-414.13"/>
<polygon fill="#9a32cd" stroke="#9a32cd" points="938.62,-100.28 929.54,-105.73 940.05,-107.13 938.62,-100.28"/>
<text text-anchor="middle" x="1051.5" y="-132.74" font-family="Helvetica" font-size="10.00"> SplineHandler</text>
</g>
<!-- Node37 -->
<g id="node37" class="node">
<title>Node37</title>
<g id="a_node37"><a xlink:title=" ">
<polygon fill="white" stroke="#bfbfbf" points="814,-56.74 814,-86.74 937,-86.74 937,-56.74 814,-56.74"/>
<text text-anchor="start" x="822" y="-74.74" font-family="Helvetica" font-size="10.00">std::vector&lt; FarDetector</text>
<text text-anchor="middle" x="875.5" y="-63.74" font-family="Helvetica" font-size="10.00">CoreInfo &gt;</text>
</a>
</g>
</g>
<!-- Node37&#45;&gt;Node1 -->
<g id="edge41" class="edge">
<title>Node37&#45;&gt;Node1</title>
<path fill="none" stroke="#9a32cd" stroke-dasharray="5,2" d="M947.41,-64.93C1010.24,-60.54 1095.81,-59.11 1121,-80.74 1173.44,-125.76 1184.43,-362.66 1186.2,-413.94"/>
<polygon fill="#9a32cd" stroke="#9a32cd" points="946.86,-61.46 937.14,-65.69 947.37,-68.44 946.86,-61.46"/>
<text text-anchor="middle" x="1051.5" y="-83.74" font-family="Helvetica" font-size="10.00"> MCSamples</text>
</g>
<!-- Node38 -->
<g id="node38" class="node">
<title>Node38</title>
<g id="a_node38"><a xlink:title=" ">
<polygon fill="white" stroke="#bfbfbf" points="824,-7.74 824,-37.74 927,-37.74 927,-7.74 824,-7.74"/>
<text text-anchor="start" x="832" y="-25.74" font-family="Helvetica" font-size="10.00">std::unordered_map</text>
<text text-anchor="middle" x="875.5" y="-14.74" font-family="Helvetica" font-size="10.00">&lt; int, std::string &gt;</text>
</a>
</g>
</g>
<!-- Node38&#45;&gt;Node1 -->
<g id="edge42" class="edge">
<title>Node38&#45;&gt;Node1</title>
<path fill="none" stroke="#9a32cd" stroke-dasharray="5,2" d="M937.36,-7.09C992.28,3.06 1071.79,7.31 1121,-36.74 1179.39,-89 1185.73,-359.74 1186.42,-414.19"/>
<polygon fill="#9a32cd" stroke="#9a32cd" points="936.54,-3.69 927.41,-9.05 937.89,-10.56 936.54,-3.69"/>
<text text-anchor="middle" x="1051.5" y="-50.74" font-family="Helvetica" font-size="10.00"> ReversedKinematicParameters</text>
<text text-anchor="middle" x="1051.5" y="-39.74" font-family="Helvetica" font-size="10.00">ReversedKinematicVectors</text>
</g>
</g>
</svg>
