<?xml version="1.0" encoding="UTF-8" standalone="no"?>
<!DOCTYPE svg PUBLIC "-//W3C//DTD SVG 1.1//EN"
 "http://www.w3.org/Graphics/SVG/1.1/DTD/svg11.dtd">
<!-- Generated by graphviz version 2.44.0 (0)
 -->
<!-- Title: /hosthome/MaCh3_2.2.0 Pages: 1 -->
<!--zoomable 543 -->
<svg id="main" version="1.1" xmlns="http://www.w3.org/2000/svg" xmlns:xlink="http://www.w3.org/1999/xlink" xml:space="preserve" onload="init(evt)">
<style type="text/css"><![CDATA[
.edge:hover path { stroke: red; }
.edge:hover polygon { stroke: red; fill: red; }
]]></style>
<script type="text/javascript"><![CDATA[
var edges = document.getElementsByTagName('g');
if (edges && edges.length) {
  for (var i=0;i<edges.length;i++) {
    if (edges[i].id.substr(0,4)=='edge') {
      edges[i].setAttribute('class','edge');
    }
  }
}
]]></script>
        <defs>
                <circle id="rim" cx="0" cy="0" r="7"/>
                <circle id="rim2" cx="0" cy="0" r="3.5"/>
                <g id="zoomPlus">
                        <use xlink:href="#rim" fill="#404040">
                                <set attributeName="fill" to="#808080" begin="zoomplus.mouseover" end="zoomplus.mouseout"/>
                        </use>
                        <path d="M-4,0h8M0,-4v8" fill="none" stroke="white" stroke-width="1.5" pointer-events="none"/>
                </g>
                <g id="zoomMin">
                        <use xlink:href="#rim" fill="#404040">
                                <set attributeName="fill" to="#808080" begin="zoomminus.mouseover" end="zoomminus.mouseout"/>
                        </use>
                        <path d="M-4,0h8" fill="none" stroke="white" stroke-width="1.5" pointer-events="none"/>
                </g>
                <g id="dirArrow">
                        <path fill="none" stroke="white" stroke-width="1.5" d="M0,-3.0v7 M-2.5,-0.5L0,-3.0L2.5,-0.5"/>
                </g>
               <g id="resetDef">
                       <use xlink:href="#rim2" fill="#404040">
                               <set attributeName="fill" to="#808080" begin="reset.mouseover" end="reset.mouseout"/>
                       </use>
               </g>
        </defs>

<script type="text/javascript">
var viewWidth = 296;
var viewHeight = 543;
var sectionId = 'dynsection-0';
</script>
<script xlink:href="svgpan.js"/>
<svg id="graph" class="graph">
<g id="viewport">
<title>/hosthome/MaCh3_2.2.0</title>
<polygon fill="white" stroke="transparent" points="-4,4 -4,-539 292,-539 292,4 -4,4"/>
<g id="clust1" class="cluster">
<title>clusterdir_abce92e5f6d3eeff39dff8d05ee3c623</title>
<g id="a_clust1"><a xlink:href="dir_abce92e5f6d3eeff39dff8d05ee3c623.html" target="_top" xlink:title="hosthome">
<polygon fill="#ddddee" stroke="black" points="8,-8 8,-527 280,-527 280,-8 8,-8"/>
<text text-anchor="middle" x="144" y="-515" font-family="Helvetica" font-size="10.00">hosthome</text>
</a>
</g>
</g>
<g id="clust2" class="cluster">
<title>clusterdir_e36541048f1705d80c93c98429bbf99d</title>
<g id="a_clust2"><a xlink:href="dir_e36541048f1705d80c93c98429bbf99d.html" target="_top">
<polygon fill="#eeeeff" stroke="black" points="16,-16 16,-500 272,-500 272,-16 16,-16"/>
</a>
</g>
</g>
<!-- dir_e36541048f1705d80c93c98429bbf99d -->
<g id="node1" class="node">
<title>dir_e36541048f1705d80c93c98429bbf99d</title>
<text text-anchor="middle" x="226" y="-471.5" font-family="Helvetica" font-size="10.00">MaCh3_2.2.0</text>
</g>
<!-- dir_b92b5fc8a7bb5ebd7f8e6bec9b2e87e8 -->
<g id="node2" class="node">
<title>dir_b92b5fc8a7bb5ebd7f8e6bec9b2e87e8</title>
<g id="a_node2"><a xlink:href="dir_b92b5fc8a7bb5ebd7f8e6bec9b2e87e8.html" target="_top" xlink:title="Diagnostics">
<polygon fill="white" stroke="black" points="224,-420 156,-420 156,-384 224,-384 224,-420"/>
<text text-anchor="middle" x="190" y="-399.5" font-family="Helvetica" font-size="10.00">Diagnostics</text>
</a>
</g>
</g>
<!-- dir_117e3192a658bd38b577246b187809da -->
<g id="node4" class="node">
<title>dir_117e3192a658bd38b577246b187809da</title>
<g id="a_node4"><a xlink:href="dir_117e3192a658bd38b577246b187809da.html" target="_top" xlink:title="Fitters">
<polygon fill="white" stroke="black" points="140,-348 86,-348 86,-312 140,-312 140,-348"/>
<text text-anchor="middle" x="113" y="-327.5" font-family="Helvetica" font-size="10.00">Fitters</text>
</a>
</g>
</g>
<!-- dir_b92b5fc8a7bb5ebd7f8e6bec9b2e87e8&#45;&gt;dir_117e3192a658bd38b577246b187809da -->
<g id="edge4" class="edge">
<title>dir_b92b5fc8a7bb5ebd7f8e6bec9b2e87e8&#45;&gt;dir_117e3192a658bd38b577246b187809da</title>
<path fill="none" stroke="black" d="M170.97,-383.7C161.46,-375.05 149.79,-364.45 139.43,-355.03"/>
<polygon fill="black" stroke="black" points="141.57,-352.24 131.81,-348.1 136.86,-357.42 141.57,-352.24"/>
<g id="a_edge4&#45;headlabel"><a xlink:href="dir_000002_000004.html" target="_top" xlink:title="3">
<text text-anchor="middle" x="146.14" y="-350.06" font-family="Helvetica" font-size="10.00">3</text>
</a>
</g>
</g>
<!-- dir_6c43e62912c54f6f07c21ba2a4c977ab -->
<g id="node5" class="node">
<title>dir_6c43e62912c54f6f07c21ba2a4c977ab</title>
<g id="a_node5"><a xlink:href="dir_6c43e62912c54f6f07c21ba2a4c977ab.html" target="_top" xlink:title="Manager">
<polygon fill="white" stroke="black" points="173,-276 119,-276 119,-240 173,-240 173,-276"/>
<text text-anchor="middle" x="146" y="-255.5" font-family="Helvetica" font-size="10.00">Manager</text>
</a>
</g>
</g>
<!-- dir_b92b5fc8a7bb5ebd7f8e6bec9b2e87e8&#45;&gt;dir_6c43e62912c54f6f07c21ba2a4c977ab -->
<g id="edge7" class="edge">
<title>dir_b92b5fc8a7bb5ebd7f8e6bec9b2e87e8&#45;&gt;dir_6c43e62912c54f6f07c21ba2a4c977ab</title>
<path fill="none" stroke="black" d="M185.23,-383.87C180.18,-365.9 171.85,-336.87 164,-312 161.3,-303.44 158.2,-294.15 155.34,-285.77"/>
<polygon fill="black" stroke="black" points="158.59,-284.44 152.03,-276.12 151.97,-286.72 158.59,-284.44"/>
<g id="a_edge7&#45;headlabel"><a xlink:href="dir_000002_000005.html" target="_top" xlink:title="6">
<text text-anchor="middle" x="162.44" y="-284.42" font-family="Helvetica" font-size="10.00">6</text>
</a>
</g>
</g>
<!-- dir_664bae9e0495513e47585ecb565b11e4 -->
<g id="node6" class="node">
<title>dir_664bae9e0495513e47585ecb565b11e4</title>
<g id="a_node6"><a xlink:href="dir_664bae9e0495513e47585ecb565b11e4.html" target="_top" xlink:title="Parameters">
<polygon fill="white" stroke="black" points="164,-60 96,-60 96,-24 164,-24 164,-60"/>
<text text-anchor="middle" x="130" y="-39.5" font-family="Helvetica" font-size="10.00">Parameters</text>
</a>
</g>
</g>
<!-- dir_b92b5fc8a7bb5ebd7f8e6bec9b2e87e8&#45;&gt;dir_664bae9e0495513e47585ecb565b11e4 -->
<g id="edge6" class="edge">
<title>dir_b92b5fc8a7bb5ebd7f8e6bec9b2e87e8&#45;&gt;dir_664bae9e0495513e47585ecb565b11e4</title>
<path fill="none" stroke="black" d="M196.48,-383.79C205.83,-357.36 222,-304.99 222,-259 222,-259 222,-259 222,-185 222,-145.2 232.96,-129.84 212,-96 202.84,-81.2 187.83,-69.75 173.14,-61.34"/>
<polygon fill="black" stroke="black" points="174.56,-58.13 164.09,-56.49 171.26,-64.3 174.56,-58.13"/>
<g id="a_edge6&#45;headlabel"><a xlink:href="dir_000002_000006.html" target="_top" xlink:title="1">
<text text-anchor="middle" x="179.07" y="-54.82" font-family="Helvetica" font-size="10.00">1</text>
</a>
</g>
</g>
<!-- dir_5da03c0372b259ffbe5b44a62cdcdaef -->
<g id="node9" class="node">
<title>dir_5da03c0372b259ffbe5b44a62cdcdaef</title>
<g id="a_node9"><a xlink:href="dir_5da03c0372b259ffbe5b44a62cdcdaef.html" target="_top" xlink:title="Samples">
<polygon fill="white" stroke="black" points="126.5,-204 71.5,-204 71.5,-168 126.5,-168 126.5,-204"/>
<text text-anchor="middle" x="99" y="-183.5" font-family="Helvetica" font-size="10.00">Samples</text>
</a>
</g>
</g>
<!-- dir_b92b5fc8a7bb5ebd7f8e6bec9b2e87e8&#45;&gt;dir_5da03c0372b259ffbe5b44a62cdcdaef -->
<g id="edge5" class="edge">
<title>dir_b92b5fc8a7bb5ebd7f8e6bec9b2e87e8&#45;&gt;dir_5da03c0372b259ffbe5b44a62cdcdaef</title>
<path fill="none" stroke="black" d="M194,-383.58C200.17,-352.4 208.7,-285.98 182,-240 171.79,-222.41 153.14,-209.72 136.11,-201.18"/>
<polygon fill="black" stroke="black" points="137.41,-197.93 126.87,-196.86 134.44,-204.27 137.41,-197.93"/>
<g id="a_edge5&#45;headlabel"><a xlink:href="dir_000002_000010.html" target="_top" xlink:title="5">
<text text-anchor="middle" x="141.87" y="-194.38" font-family="Helvetica" font-size="10.00">5</text>
</a>
</g>
</g>
<!-- dir_3a631478b13597915dae4b229ee93709 -->
<g id="node3" class="node">
<title>dir_3a631478b13597915dae4b229ee93709</title>
<g id="a_node3"><a xlink:href="dir_3a631478b13597915dae4b229ee93709.html" target="_top" xlink:title="Doc">
<polygon fill="white" stroke="black" points="170,-492 116,-492 116,-456 170,-456 170,-492"/>
<text text-anchor="middle" x="143" y="-471.5" font-family="Helvetica" font-size="10.00">Doc</text>
</a>
</g>
</g>
<!-- dir_117e3192a658bd38b577246b187809da&#45;&gt;dir_6c43e62912c54f6f07c21ba2a4c977ab -->
<g id="edge3" class="edge">
<title>dir_117e3192a658bd38b577246b187809da&#45;&gt;dir_6c43e62912c54f6f07c21ba2a4c977ab</title>
<path fill="none" stroke="black" d="M121.16,-311.7C124.91,-303.73 129.45,-294.1 133.62,-285.26"/>
<polygon fill="black" stroke="black" points="136.84,-286.64 137.94,-276.1 130.51,-283.66 136.84,-286.64"/>
<g id="a_edge3&#45;headlabel"><a xlink:href="dir_000004_000005.html" target="_top" xlink:title="3">
<text text-anchor="middle" x="137.87" y="-288.6" font-family="Helvetica" font-size="10.00">3</text>
</a>
</g>
</g>
<!-- dir_117e3192a658bd38b577246b187809da&#45;&gt;dir_664bae9e0495513e47585ecb565b11e4 -->
<g id="edge2" class="edge">
<title>dir_117e3192a658bd38b577246b187809da&#45;&gt;dir_664bae9e0495513e47585ecb565b11e4</title>
<path fill="none" stroke="black" d="M101.16,-311.79C82.49,-282.52 49.67,-221.08 63,-168 72.35,-130.78 95.15,-92.55 111.55,-68.33"/>
<polygon fill="black" stroke="black" points="114.46,-70.29 117.27,-60.07 108.7,-66.3 114.46,-70.29"/>
<g id="a_edge2&#45;headlabel"><a xlink:href="dir_000004_000006.html" target="_top" xlink:title="3">
<text text-anchor="middle" x="114.75" y="-72.36" font-family="Helvetica" font-size="10.00">3</text>
</a>
</g>
</g>
<!-- dir_117e3192a658bd38b577246b187809da&#45;&gt;dir_5da03c0372b259ffbe5b44a62cdcdaef -->
<g id="edge1" class="edge">
<title>dir_117e3192a658bd38b577246b187809da&#45;&gt;dir_5da03c0372b259ffbe5b44a62cdcdaef</title>
<path fill="none" stroke="black" d="M111.31,-311.87C108.93,-287.67 104.54,-243.21 101.7,-214.39"/>
<polygon fill="black" stroke="black" points="105.16,-213.8 100.69,-204.19 98.19,-214.48 105.16,-213.8"/>
<g id="a_edge1&#45;headlabel"><a xlink:href="dir_000004_000010.html" target="_top" xlink:title="5">
<text text-anchor="middle" x="108.34" y="-214.6" font-family="Helvetica" font-size="10.00">5</text>
</a>
</g>
</g>
<!-- dir_6c43e62912c54f6f07c21ba2a4c977ab&#45;&gt;dir_5da03c0372b259ffbe5b44a62cdcdaef -->
<g id="edge24" class="edge">
<title>dir_6c43e62912c54f6f07c21ba2a4c977ab&#45;&gt;dir_5da03c0372b259ffbe5b44a62cdcdaef</title>
<path fill="none" stroke="black" d="M128.47,-239.7C122.16,-231.56 115.33,-221.69 109.72,-212.7"/>
<polygon fill="black" stroke="black" points="112.72,-210.9 104.59,-204.1 106.71,-214.48 112.72,-210.9"/>
<g id="a_edge24&#45;headlabel"><a xlink:href="dir_000005_000010.html" target="_top" xlink:title="1">
<text text-anchor="middle" x="117" y="-210.03" font-family="Helvetica" font-size="10.00">1</text>
</a>
</g>
</g>
<!-- dir_664bae9e0495513e47585ecb565b11e4&#45;&gt;dir_6c43e62912c54f6f07c21ba2a4c977ab -->
<g id="edge9" class="edge">
<title>dir_664bae9e0495513e47585ecb565b11e4&#45;&gt;dir_6c43e62912c54f6f07c21ba2a4c977ab</title>
<path fill="none" stroke="black" d="M131.29,-60.23C134.06,-97.32 140.62,-184.98 143.96,-229.71"/>
<polygon fill="black" stroke="black" points="140.48,-230.14 144.72,-239.85 147.46,-229.62 140.48,-230.14"/>
<g id="a_edge9&#45;headlabel"><a xlink:href="dir_000006_000005.html" target="_top" xlink:title="7">
<text text-anchor="middle" x="137.38" y="-224.27" font-family="Helvetica" font-size="10.00">7</text>
</a>
</g>
</g>
<!-- dir_664bae9e0495513e47585ecb565b11e4&#45;&gt;dir_5da03c0372b259ffbe5b44a62cdcdaef -->
<g id="edge8" class="edge">
<title>dir_664bae9e0495513e47585ecb565b11e4&#45;&gt;dir_5da03c0372b259ffbe5b44a62cdcdaef</title>
<path fill="none" stroke="black" d="M130.84,-60.19C128.09,-84.53 118.6,-129.28 110.31,-158.06"/>
<polygon fill="black" stroke="black" points="106.89,-157.29 107.32,-167.87 113.58,-159.32 106.89,-157.29"/>
<g id="a_edge8&#45;headlabel"><a xlink:href="dir_000006_000010.html" target="_top" xlink:title="1">
<text text-anchor="middle" x="105.22" y="-150.52" font-family="Helvetica" font-size="10.00">1</text>
</a>
</g>
</g>
<!-- dir_67b8705fe6ef49c0247055dace6d77aa -->
<g id="node7" class="node">
<title>dir_67b8705fe6ef49c0247055dace6d77aa</title>
<g id="a_node7"><a xlink:href="dir_67b8705fe6ef49c0247055dace6d77aa.html" target="_top" xlink:title="Plotting">
<polygon fill="white" stroke="red" points="98,-420 44,-420 44,-384 98,-384 98,-420"/>
<text text-anchor="middle" x="71" y="-399.5" font-family="Helvetica" font-size="10.00">Plotting</text>
</a>
</g>
</g>
<!-- dir_67b8705fe6ef49c0247055dace6d77aa&#45;&gt;dir_117e3192a658bd38b577246b187809da -->
<g id="edge11" class="edge">
<title>dir_67b8705fe6ef49c0247055dace6d77aa&#45;&gt;dir_117e3192a658bd38b577246b187809da</title>
<path fill="none" stroke="black" d="M81.38,-383.7C86.26,-375.56 92.19,-365.69 97.58,-356.7"/>
<polygon fill="black" stroke="black" points="100.59,-358.48 102.74,-348.1 94.59,-354.88 100.59,-358.48"/>
<g id="a_edge11&#45;headlabel"><a xlink:href="dir_000007_000004.html" target="_top" xlink:title="1">
<text text-anchor="middle" x="101.18" y="-360.52" font-family="Helvetica" font-size="10.00">1</text>
</a>
</g>
</g>
<!-- dir_67b8705fe6ef49c0247055dace6d77aa&#45;&gt;dir_6c43e62912c54f6f07c21ba2a4c977ab -->
<g id="edge10" class="edge">
<title>dir_67b8705fe6ef49c0247055dace6d77aa&#45;&gt;dir_6c43e62912c54f6f07c21ba2a4c977ab</title>
<path fill="none" stroke="black" d="M68.16,-383.8C65.93,-364.99 64.94,-334.53 77,-312 84.47,-298.04 97.39,-286.63 110.05,-278.02"/>
<polygon fill="black" stroke="black" points="112.14,-280.83 118.69,-272.51 108.38,-274.93 112.14,-280.83"/>
<g id="a_edge10&#45;headlabel"><a xlink:href="dir_000007_000005.html" target="_top" xlink:title="11">
<text text-anchor="middle" x="110.64" y="-282.66" font-family="Helvetica" font-size="10.00">11</text>
</a>
</g>
</g>
<!-- dir_67b8705fe6ef49c0247055dace6d77aa&#45;&gt;dir_5da03c0372b259ffbe5b44a62cdcdaef -->
<g id="edge12" class="edge">
<title>dir_67b8705fe6ef49c0247055dace6d77aa&#45;&gt;dir_5da03c0372b259ffbe5b44a62cdcdaef</title>
<path fill="none" stroke="black" d="M67.75,-383.89C65.95,-373.54 63.91,-360.06 63,-348 61.8,-332.04 60.76,-327.84 63,-312 67.91,-277.21 80.15,-238.54 88.99,-213.56"/>
<polygon fill="black" stroke="black" points="92.32,-214.65 92.43,-204.06 85.74,-212.27 92.32,-214.65"/>
<g id="a_edge12&#45;headlabel"><a xlink:href="dir_000007_000010.html" target="_top" xlink:title="1">
<text text-anchor="middle" x="93.77" y="-216.5" font-family="Helvetica" font-size="10.00">1</text>
</a>
</g>
</g>
<!-- dir_e4344fbef7b7dc17e247df63bf5c7dc8 -->
<g id="node8" class="node">
<title>dir_e4344fbef7b7dc17e247df63bf5c7dc8</title>
<g id="a_node8"><a xlink:href="dir_e4344fbef7b7dc17e247df63bf5c7dc8.html" target="_top" xlink:title="python">
<polygon fill="white" stroke="black" points="98,-492 44,-492 44,-456 98,-456 98,-492"/>
<text text-anchor="middle" x="71" y="-471.5" font-family="Helvetica" font-size="10.00">python</text>
</a>
</g>
</g>
<!-- dir_e4344fbef7b7dc17e247df63bf5c7dc8&#45;&gt;dir_117e3192a658bd38b577246b187809da -->
<g id="edge13" class="edge">
<title>dir_e4344fbef7b7dc17e247df63bf5c7dc8&#45;&gt;dir_117e3192a658bd38b577246b187809da</title>
<path fill="none" stroke="black" d="M86.26,-455.66C93.92,-445.88 102.5,-433.04 107,-420 113.85,-400.14 115.12,-376.35 114.81,-358.36"/>
<polygon fill="black" stroke="black" points="118.3,-358.13 114.46,-348.25 111.31,-358.37 118.3,-358.13"/>
<g id="a_edge13&#45;headlabel"><a xlink:href="dir_000009_000004.html" target="_top" xlink:title="4">
<text text-anchor="middle" x="121.26" y="-359.12" font-family="Helvetica" font-size="10.00">4</text>
</a>
</g>
</g>
<!-- dir_e4344fbef7b7dc17e247df63bf5c7dc8&#45;&gt;dir_6c43e62912c54f6f07c21ba2a4c977ab -->
<g id="edge18" class="edge">
<title>dir_e4344fbef7b7dc17e247df63bf5c7dc8&#45;&gt;dir_6c43e62912c54f6f07c21ba2a4c977ab</title>
<path fill="none" stroke="black" d="M87.23,-455.72C107.1,-433.09 139.32,-391.18 149,-348 153.56,-327.67 152.49,-304.07 150.45,-286.29"/>
<polygon fill="black" stroke="black" points="153.91,-285.76 149.13,-276.3 146.97,-286.67 153.91,-285.76"/>
<g id="a_edge18&#45;headlabel"><a xlink:href="dir_000009_000005.html" target="_top" xlink:title="1">
<text text-anchor="middle" x="157.19" y="-286.45" font-family="Helvetica" font-size="10.00">1</text>
</a>
</g>
</g>
<!-- dir_e4344fbef7b7dc17e247df63bf5c7dc8&#45;&gt;dir_664bae9e0495513e47585ecb565b11e4 -->
<g id="edge16" class="edge">
<title>dir_e4344fbef7b7dc17e247df63bf5c7dc8&#45;&gt;dir_664bae9e0495513e47585ecb565b11e4</title>
<path fill="none" stroke="black" d="M98.29,-459.47C101.2,-458.22 104.14,-457.04 107,-456 166.58,-434.37 201.44,-466.05 245,-420 272.73,-390.68 263,-371.36 263,-331 263,-331 263,-331 263,-185 263,-141.63 252.16,-128.1 223,-96 209.4,-81.03 190.55,-69.21 173.38,-60.57"/>
<polygon fill="black" stroke="black" points="174.58,-57.26 164.05,-56.09 171.55,-63.57 174.58,-57.26"/>
<g id="a_edge16&#45;headlabel"><a xlink:href="dir_000009_000006.html" target="_top" xlink:title="2">
<text text-anchor="middle" x="179.05" y="-53.76" font-family="Helvetica" font-size="10.00">2</text>
</a>
</g>
</g>
<!-- dir_e4344fbef7b7dc17e247df63bf5c7dc8&#45;&gt;dir_67b8705fe6ef49c0247055dace6d77aa -->
<g id="edge17" class="edge">
<title>dir_e4344fbef7b7dc17e247df63bf5c7dc8&#45;&gt;dir_67b8705fe6ef49c0247055dace6d77aa</title>
<path fill="none" stroke="black" d="M71,-455.7C71,-447.98 71,-438.71 71,-430.11"/>
<polygon fill="black" stroke="black" points="74.5,-430.1 71,-420.1 67.5,-430.1 74.5,-430.1"/>
<g id="a_edge17&#45;headlabel"><a xlink:href="dir_000009_000007.html" target="_top" xlink:title="4">
<text text-anchor="middle" x="77.34" y="-431.2" font-family="Helvetica" font-size="10.00">4</text>
</a>
</g>
</g>
<!-- dir_e4344fbef7b7dc17e247df63bf5c7dc8&#45;&gt;dir_5da03c0372b259ffbe5b44a62cdcdaef -->
<g id="edge15" class="edge">
<title>dir_e4344fbef7b7dc17e247df63bf5c7dc8&#45;&gt;dir_5da03c0372b259ffbe5b44a62cdcdaef</title>
<path fill="none" stroke="black" d="M55.39,-455.77C47.63,-446.03 39.05,-433.18 35,-420 30.3,-404.71 33.31,-399.91 35,-384 41.93,-318.9 41.45,-300.69 66,-240 69.76,-230.7 75.12,-221.2 80.42,-212.86"/>
<polygon fill="black" stroke="black" points="83.47,-214.6 86.08,-204.33 77.63,-210.73 83.47,-214.6"/>
<g id="a_edge15&#45;headlabel"><a xlink:href="dir_000009_000010.html" target="_top" xlink:title="2">
<text text-anchor="middle" x="83.85" y="-216.66" font-family="Helvetica" font-size="10.00">2</text>
</a>
</g>
</g>
<!-- dir_2c4c5a8ddd8898eacc6aeb0174a3784b -->
<g id="node10" class="node">
<title>dir_2c4c5a8ddd8898eacc6aeb0174a3784b</title>
<g id="a_node10"><a xlink:href="dir_2c4c5a8ddd8898eacc6aeb0174a3784b.html" target="_top" xlink:title="Splines">
<polygon fill="white" stroke="black" points="203,-132 149,-132 149,-96 203,-96 203,-132"/>
<text text-anchor="middle" x="176" y="-111.5" font-family="Helvetica" font-size="10.00">Splines</text>
</a>
</g>
</g>
<!-- dir_e4344fbef7b7dc17e247df63bf5c7dc8&#45;&gt;dir_2c4c5a8ddd8898eacc6aeb0174a3784b -->
<g id="edge14" class="edge">
<title>dir_e4344fbef7b7dc17e247df63bf5c7dc8&#45;&gt;dir_2c4c5a8ddd8898eacc6aeb0174a3784b</title>
<path fill="none" stroke="black" d="M98.32,-459.54C101.22,-458.28 104.15,-457.07 107,-456 161.51,-435.5 195.38,-464.46 233,-420 258.71,-389.61 243,-370.8 243,-331 243,-331 243,-331 243,-257 243,-212.73 216.03,-167.47 196.31,-140.3"/>
<polygon fill="black" stroke="black" points="199,-138.05 190.21,-132.14 193.4,-142.25 199,-138.05"/>
<g id="a_edge14&#45;headlabel"><a xlink:href="dir_000009_000011.html" target="_top" xlink:title="3">
<text text-anchor="middle" x="203.43" y="-136.73" font-family="Helvetica" font-size="10.00">3</text>
</a>
</g>
</g>
<!-- dir_5da03c0372b259ffbe5b44a62cdcdaef&#45;&gt;dir_6c43e62912c54f6f07c21ba2a4c977ab -->
<g id="edge21" class="edge">
<title>dir_5da03c0372b259ffbe5b44a62cdcdaef&#45;&gt;dir_6c43e62912c54f6f07c21ba2a4c977ab</title>
<path fill="none" stroke="black" d="M116.38,-204.1C122.67,-212.21 129.51,-222.08 135.14,-231.08"/>
<polygon fill="black" stroke="black" points="132.16,-232.91 140.3,-239.7 138.17,-229.32 132.16,-232.91"/>
<g id="a_edge21&#45;headlabel"><a xlink:href="dir_000010_000005.html" target="_top" xlink:title="7">
<text text-anchor="middle" x="127.88" y="-228.79" font-family="Helvetica" font-size="10.00">7</text>
</a>
</g>
</g>
<!-- dir_5da03c0372b259ffbe5b44a62cdcdaef&#45;&gt;dir_664bae9e0495513e47585ecb565b11e4 -->
<g id="edge20" class="edge">
<title>dir_5da03c0372b259ffbe5b44a62cdcdaef&#45;&gt;dir_664bae9e0495513e47585ecb565b11e4</title>
<path fill="none" stroke="black" d="M98.15,-167.87C100.89,-143.56 110.38,-98.82 118.67,-70.01"/>
<polygon fill="black" stroke="black" points="122.1,-70.77 121.66,-60.19 115.4,-68.74 122.1,-70.77"/>
<g id="a_edge20&#45;headlabel"><a xlink:href="dir_000010_000006.html" target="_top" xlink:title="2">
<text text-anchor="middle" x="123.77" y="-72.54" font-family="Helvetica" font-size="10.00">2</text>
</a>
</g>
</g>
<!-- dir_5da03c0372b259ffbe5b44a62cdcdaef&#45;&gt;dir_2c4c5a8ddd8898eacc6aeb0174a3784b -->
<g id="edge19" class="edge">
<title>dir_5da03c0372b259ffbe5b44a62cdcdaef&#45;&gt;dir_2c4c5a8ddd8898eacc6aeb0174a3784b</title>
<path fill="none" stroke="black" d="M118.03,-167.7C127.54,-159.05 139.21,-148.45 149.57,-139.03"/>
<polygon fill="black" stroke="black" points="152.14,-141.42 157.19,-132.1 147.43,-136.24 152.14,-141.42"/>
<g id="a_edge19&#45;headlabel"><a xlink:href="dir_000010_000011.html" target="_top" xlink:title="1">
<text text-anchor="middle" x="151.39" y="-143.44" font-family="Helvetica" font-size="10.00">1</text>
</a>
</g>
</g>
<!-- dir_2c4c5a8ddd8898eacc6aeb0174a3784b&#45;&gt;dir_6c43e62912c54f6f07c21ba2a4c977ab -->
<g id="edge23" class="edge">
<title>dir_2c4c5a8ddd8898eacc6aeb0174a3784b&#45;&gt;dir_6c43e62912c54f6f07c21ba2a4c977ab</title>
<path fill="none" stroke="black" d="M172.37,-132.19C167.23,-156.53 157.77,-201.28 151.69,-230.06"/>
<polygon fill="black" stroke="black" points="148.26,-229.36 149.62,-239.87 155.11,-230.81 148.26,-229.36"/>
<g id="a_edge23&#45;headlabel"><a xlink:href="dir_000011_000005.html" target="_top" xlink:title="2">
<text text-anchor="middle" x="146.23" y="-222.76" font-family="Helvetica" font-size="10.00">2</text>
</a>
</g>
</g>
<!-- dir_2c4c5a8ddd8898eacc6aeb0174a3784b&#45;&gt;dir_664bae9e0495513e47585ecb565b11e4 -->
<g id="edge22" class="edge">
<title>dir_2c4c5a8ddd8898eacc6aeb0174a3784b&#45;&gt;dir_664bae9e0495513e47585ecb565b11e4</title>
<path fill="none" stroke="black" d="M164.63,-95.7C159.28,-87.56 152.8,-77.69 146.89,-68.7"/>
<polygon fill="black" stroke="black" points="149.66,-66.54 141.24,-60.1 143.81,-70.38 149.66,-66.54"/>
<g id="a_edge22&#45;headlabel"><a xlink:href="dir_000011_000006.html" target="_top" xlink:title="2">
<text text-anchor="middle" x="154" y="-65.48" font-family="Helvetica" font-size="10.00">2</text>
</a>
</g>
</g>
</g>
</svg>
        <g id="navigator" transform="translate(0 0)" fill="#404254">
                <rect fill="#f2f5e9" fill-opacity="0.5" stroke="#606060" stroke-width=".5" x="0" y="0" width="60" height="60"/>
                <use id="zoomplus" xlink:href="#zoomPlus" x="17" y="9" onmousedown="handleZoom(evt,'in')"/>
                <use id="zoomminus" xlink:href="#zoomMin" x="42" y="9" onmousedown="handleZoom(evt,'out')"/>
                <use id="reset" xlink:href="#resetDef" x="30" y="36" onmousedown="handleReset()"/>
                <g id="arrowUp" xlink:href="#dirArrow" transform="translate(30 24)" onmousedown="handlePan(0,-1)">
                  <use xlink:href="#rim" fill="#404040">
                        <set attributeName="fill" to="#808080" begin="arrowUp.mouseover" end="arrowUp.mouseout"/>
                  </use>
                  <path fill="none" stroke="white" stroke-width="1.5" d="M0,-3.0v7 M-2.5,-0.5L0,-3.0L2.5,-0.5"/>
                </g>
                <g id="arrowRight" xlink:href="#dirArrow" transform="rotate(90) translate(36 -43)" onmousedown="handlePan(1,0)">
                  <use xlink:href="#rim" fill="#404040">
                        <set attributeName="fill" to="#808080" begin="arrowRight.mouseover" end="arrowRight.mouseout"/>
                  </use>
                  <path fill="none" stroke="white" stroke-width="1.5" d="M0,-3.0v7 M-2.5,-0.5L0,-3.0L2.5,-0.5"/>
                </g>
                <g id="arrowDown" xlink:href="#dirArrow" transform="rotate(180) translate(-30 -48)" onmousedown="handlePan(0,1)">
                  <use xlink:href="#rim" fill="#404040">
                        <set attributeName="fill" to="#808080" begin="arrowDown.mouseover" end="arrowDown.mouseout"/>
                  </use>
                  <path fill="none" stroke="white" stroke-width="1.5" d="M0,-3.0v7 M-2.5,-0.5L0,-3.0L2.5,-0.5"/>
                </g>
                <g id="arrowLeft" xlink:href="#dirArrow" transform="rotate(270) translate(-36 17)" onmousedown="handlePan(-1,0)">
                  <use xlink:href="#rim" fill="#404040">
                        <set attributeName="fill" to="#808080" begin="arrowLeft.mouseover" end="arrowLeft.mouseout"/>
                  </use>
                  <path fill="none" stroke="white" stroke-width="1.5" d="M0,-3.0v7 M-2.5,-0.5L0,-3.0L2.5,-0.5"/>
                </g>
        </g>
        <svg viewBox="0 0 15 15" width="100%" height="30px" preserveAspectRatio="xMaxYMin meet">
         <g id="arrow_out" transform="scale(0.3 0.3)">
          <a xlink:href="dir_e36541048f1705d80c93c98429bbf99d_dep_org.svg" target="_base">
           <rect id="button" ry="5" rx="5" y="6" x="6" height="38" width="38"
                fill="#f2f5e9" fill-opacity="0.5" stroke="#606060" stroke-width="1.0"/>
           <path id="arrow"
             d="M 11.500037,31.436501 C 11.940474,20.09759 22.043105,11.32322 32.158766,21.979434 L 37.068811,17.246167 C 37.068811,17.246167 37.088388,32 37.088388,32 L 22.160133,31.978069 C 22.160133,31.978069 26.997745,27.140456 26.997745,27.140456 C 18.528582,18.264221 13.291696,25.230495 11.500037,31.436501 z"
             style="fill:#404040;"/>
          </a>
         </g>
        </svg>
</svg>
