<?xml version="1.0" encoding="UTF-8" standalone="no"?>
<!DOCTYPE svg PUBLIC "-//W3C//DTD SVG 1.1//EN"
 "http://www.w3.org/Graphics/SVG/1.1/DTD/svg11.dtd">
<!-- Generated by graphviz version 2.44.0 (0)
 -->
<!-- Title: /hosthome/v2.2.0/Fitters/gpuMCMCProcessorUtils.cuh Pages: 1 -->
<svg width="158pt" height="106pt"
 viewBox="0.00 0.00 158.00 106.00" xmlns="http://www.w3.org/2000/svg" xmlns:xlink="http://www.w3.org/1999/xlink">
<g id="graph0" class="graph" transform="scale(1 1) rotate(0) translate(4 102)">
<title>/hosthome/v2.2.0/Fitters/gpuMCMCProcessorUtils.cuh</title>
<polygon fill="white" stroke="transparent" points="-4,4 -4,-102 154,-102 154,4 -4,4"/>
<!-- Node1 -->
<g id="node1" class="node">
<title>Node1</title>
<g id="a_node1"><a xlink:title=" ">
<polygon fill="#bfbfbf" stroke="black" points="0,-67.5 0,-97.5 150,-97.5 150,-67.5 0,-67.5"/>
<text text-anchor="start" x="8" y="-85.5" font-family="Helvetica" font-size="10.00">/hosthome/v2.2.0/Fitters</text>
<text text-anchor="middle" x="75" y="-74.5" font-family="Helvetica" font-size="10.00">/gpuMCMCProcessorUtils.cuh</text>
</a>
</g>
</g>
<!-- Node2 -->
<g id="node2" class="node">
<title>Node2</title>
<g id="a_node2"><a xlink:href="gpuMCMCProcessorUtils_8cu.html" target="_top" xlink:title=" ">
<polygon fill="white" stroke="black" points="2.5,-0.5 2.5,-30.5 147.5,-30.5 147.5,-0.5 2.5,-0.5"/>
<text text-anchor="start" x="10.5" y="-18.5" font-family="Helvetica" font-size="10.00">/hosthome/v2.2.0/Fitters</text>
<text text-anchor="middle" x="75" y="-7.5" font-family="Helvetica" font-size="10.00">/gpuMCMCProcessorUtils.cu</text>
</a>
</g>
</g>
<!-- Node1&#45;&gt;Node2 -->
<g id="edge1" class="edge">
<title>Node1&#45;&gt;Node2</title>
<path fill="none" stroke="midnightblue" d="M75,-57.11C75,-48.15 75,-38.32 75,-30.58"/>
<polygon fill="midnightblue" stroke="midnightblue" points="71.5,-57.4 75,-67.4 78.5,-57.4 71.5,-57.4"/>
</g>
</g>
</svg>
