<?xml version="1.0" encoding="UTF-8" standalone="no"?>
<!DOCTYPE svg PUBLIC "-//W3C//DTD SVG 1.1//EN"
 "http://www.w3.org/Graphics/SVG/1.1/DTD/svg11.dtd">
<!-- Generated by graphviz version 2.44.0 (0)
 -->
<!-- Title: /hosthome/v2.2.0/Manager/MaCh3Modes.h Pages: 1 -->
<svg width="1209pt" height="441pt"
 viewBox="0.00 0.00 1209.00 441.00" xmlns="http://www.w3.org/2000/svg" xmlns:xlink="http://www.w3.org/1999/xlink">
<g id="graph0" class="graph" transform="scale(1 1) rotate(0) translate(4 437)">
<title>/hosthome/v2.2.0/Manager/MaCh3Modes.h</title>
<polygon fill="white" stroke="transparent" points="-4,4 -4,-437 1205,-437 1205,4 -4,4"/>
<!-- Node1 -->
<g id="node1" class="node">
<title>Node1</title>
<g id="a_node1"><a xlink:title=" ">
<polygon fill="#bfbfbf" stroke="black" points="156.5,-402.5 156.5,-432.5 289.5,-432.5 289.5,-402.5 156.5,-402.5"/>
<text text-anchor="start" x="164.5" y="-420.5" font-family="Helvetica" font-size="10.00">/hosthome/v2.2.0/Manager</text>
<text text-anchor="middle" x="223" y="-409.5" font-family="Helvetica" font-size="10.00">/MaCh3Modes.h</text>
</a>
</g>
</g>
<!-- Node2 -->
<g id="node2" class="node">
<title>Node2</title>
<g id="a_node2"><a xlink:href="MaCh3Modes_8cpp.html" target="_top" xlink:title=" ">
<polygon fill="white" stroke="black" points="7.5,-335.5 7.5,-365.5 140.5,-365.5 140.5,-335.5 7.5,-335.5"/>
<text text-anchor="start" x="15.5" y="-353.5" font-family="Helvetica" font-size="10.00">/hosthome/v2.2.0/Manager</text>
<text text-anchor="middle" x="74" y="-342.5" font-family="Helvetica" font-size="10.00">/MaCh3Modes.cpp</text>
</a>
</g>
</g>
<!-- Node1&#45;&gt;Node2 -->
<g id="edge1" class="edge">
<title>Node1&#45;&gt;Node2</title>
<path fill="none" stroke="midnightblue" d="M181.21,-398.27C157.48,-387.92 128.22,-375.15 106.27,-365.58"/>
<polygon fill="midnightblue" stroke="midnightblue" points="180.1,-401.61 190.67,-402.4 182.9,-395.19 180.1,-401.61"/>
</g>
<!-- Node3 -->
<g id="node3" class="node">
<title>Node3</title>
<g id="a_node3"><a xlink:href="BinnedSplineHandler_8h.html" target="_top" xlink:title=" ">
<polygon fill="white" stroke="black" points="159,-335.5 159,-365.5 287,-365.5 287,-335.5 159,-335.5"/>
<text text-anchor="start" x="167" y="-353.5" font-family="Helvetica" font-size="10.00">/hosthome/v2.2.0/Splines</text>
<text text-anchor="middle" x="223" y="-342.5" font-family="Helvetica" font-size="10.00">/BinnedSplineHandler.h</text>
</a>
</g>
</g>
<!-- Node1&#45;&gt;Node3 -->
<g id="edge2" class="edge">
<title>Node1&#45;&gt;Node3</title>
<path fill="none" stroke="midnightblue" d="M223,-392.11C223,-383.15 223,-373.32 223,-365.58"/>
<polygon fill="midnightblue" stroke="midnightblue" points="219.5,-392.4 223,-402.4 226.5,-392.4 219.5,-392.4"/>
</g>
<!-- Node8 -->
<g id="node8" class="node">
<title>Node8</title>
<g id="a_node8"><a xlink:href="SampleHandlerBase_8h.html" target="_top" xlink:title=" ">
<polygon fill="white" stroke="black" points="365,-335.5 365,-365.5 499,-365.5 499,-335.5 365,-335.5"/>
<text text-anchor="start" x="373" y="-353.5" font-family="Helvetica" font-size="10.00">/hosthome/v2.2.0/Samples</text>
<text text-anchor="middle" x="432" y="-342.5" font-family="Helvetica" font-size="10.00">/SampleHandlerBase.h</text>
</a>
</g>
</g>
<!-- Node1&#45;&gt;Node8 -->
<g id="edge7" class="edge">
<title>Node1&#45;&gt;Node8</title>
<path fill="none" stroke="midnightblue" d="M277.84,-399.44C311.72,-388.91 354.67,-375.55 386.63,-365.61"/>
<polygon fill="midnightblue" stroke="midnightblue" points="276.6,-396.16 268.09,-402.48 278.68,-402.85 276.6,-396.16"/>
</g>
<!-- Node4 -->
<g id="node4" class="node">
<title>Node4</title>
<g id="a_node4"><a xlink:href="BinnedSplineHandler_8cpp.html" target="_top" xlink:title=" ">
<polygon fill="white" stroke="black" points="8.5,-268.5 8.5,-298.5 137.5,-298.5 137.5,-268.5 8.5,-268.5"/>
<text text-anchor="start" x="16.5" y="-286.5" font-family="Helvetica" font-size="10.00">/hosthome/v2.2.0/Splines</text>
<text text-anchor="middle" x="73" y="-275.5" font-family="Helvetica" font-size="10.00">/BinnedSplineHandler.cpp</text>
</a>
</g>
</g>
<!-- Node3&#45;&gt;Node4 -->
<g id="edge3" class="edge">
<title>Node3&#45;&gt;Node4</title>
<path fill="none" stroke="midnightblue" d="M181.25,-331.41C157.3,-321.03 127.68,-308.2 105.48,-298.58"/>
<polygon fill="midnightblue" stroke="midnightblue" points="179.89,-334.63 190.45,-335.4 182.67,-328.21 179.89,-334.63"/>
</g>
<!-- Node5 -->
<g id="node5" class="node">
<title>Node5</title>
<g id="a_node5"><a xlink:href="SampleHandlerFD_8h.html" target="_top" xlink:title=" ">
<polygon fill="white" stroke="black" points="156,-268.5 156,-298.5 290,-298.5 290,-268.5 156,-268.5"/>
<text text-anchor="start" x="164" y="-286.5" font-family="Helvetica" font-size="10.00">/hosthome/v2.2.0/Samples</text>
<text text-anchor="middle" x="223" y="-275.5" font-family="Helvetica" font-size="10.00">/SampleHandlerFD.h</text>
</a>
</g>
</g>
<!-- Node3&#45;&gt;Node5 -->
<g id="edge4" class="edge">
<title>Node3&#45;&gt;Node5</title>
<path fill="none" stroke="midnightblue" d="M223,-325.11C223,-316.15 223,-306.32 223,-298.58"/>
<polygon fill="midnightblue" stroke="midnightblue" points="219.5,-325.4 223,-335.4 226.5,-325.4 219.5,-325.4"/>
</g>
<!-- Node6 -->
<g id="node6" class="node">
<title>Node6</title>
<g id="a_node6"><a xlink:href="SampleHandlerFD_8cpp.html" target="_top" xlink:title=" ">
<polygon fill="white" stroke="black" points="0,-201.5 0,-231.5 134,-231.5 134,-201.5 0,-201.5"/>
<text text-anchor="start" x="8" y="-219.5" font-family="Helvetica" font-size="10.00">/hosthome/v2.2.0/Samples</text>
<text text-anchor="middle" x="67" y="-208.5" font-family="Helvetica" font-size="10.00">/SampleHandlerFD.cpp</text>
</a>
</g>
</g>
<!-- Node5&#45;&gt;Node6 -->
<g id="edge5" class="edge">
<title>Node5&#45;&gt;Node6</title>
<path fill="none" stroke="midnightblue" d="M179.91,-264.54C154.94,-254.14 123.97,-241.24 100.78,-231.58"/>
<polygon fill="midnightblue" stroke="midnightblue" points="178.57,-267.78 189.15,-268.4 181.27,-261.32 178.57,-267.78"/>
</g>
<!-- Node7 -->
<g id="node7" class="node">
<title>Node7</title>
<g id="a_node7"><a xlink:href="samples_8cpp.html" target="_top" xlink:title=" ">
<polygon fill="white" stroke="black" points="152.5,-201.5 152.5,-231.5 277.5,-231.5 277.5,-201.5 152.5,-201.5"/>
<text text-anchor="start" x="160.5" y="-219.5" font-family="Helvetica" font-size="10.00">/hosthome/v2.2.0/python</text>
<text text-anchor="middle" x="215" y="-208.5" font-family="Helvetica" font-size="10.00">/samples.cpp</text>
</a>
</g>
</g>
<!-- Node5&#45;&gt;Node7 -->
<g id="edge6" class="edge">
<title>Node5&#45;&gt;Node7</title>
<path fill="none" stroke="midnightblue" d="M220.03,-258.4C218.92,-249.37 217.7,-239.41 216.73,-231.58"/>
<polygon fill="midnightblue" stroke="midnightblue" points="216.57,-258.9 221.26,-268.4 223.52,-258.04 216.57,-258.9"/>
</g>
<!-- Node8&#45;&gt;Node5 -->
<g id="edge9" class="edge">
<title>Node8&#45;&gt;Node5</title>
<path fill="none" stroke="midnightblue" d="M377.16,-332.44C343.28,-321.91 300.33,-308.55 268.37,-298.61"/>
<polygon fill="midnightblue" stroke="midnightblue" points="376.32,-335.85 386.91,-335.48 378.4,-329.16 376.32,-335.85"/>
</g>
<!-- Node9 -->
<g id="node9" class="node">
<title>Node9</title>
<g id="a_node9"><a xlink:href="SampleHandlerBase_8cpp.html" target="_top" xlink:title=" ">
<polygon fill="white" stroke="black" points="365,-268.5 365,-298.5 499,-298.5 499,-268.5 365,-268.5"/>
<text text-anchor="start" x="373" y="-286.5" font-family="Helvetica" font-size="10.00">/hosthome/v2.2.0/Samples</text>
<text text-anchor="middle" x="432" y="-275.5" font-family="Helvetica" font-size="10.00">/SampleHandlerBase.cpp</text>
</a>
</g>
</g>
<!-- Node8&#45;&gt;Node9 -->
<g id="edge8" class="edge">
<title>Node8&#45;&gt;Node9</title>
<path fill="none" stroke="midnightblue" d="M432,-325.11C432,-316.15 432,-306.32 432,-298.58"/>
<polygon fill="midnightblue" stroke="midnightblue" points="428.5,-325.4 432,-335.4 435.5,-325.4 428.5,-325.4"/>
</g>
<!-- Node10 -->
<g id="node10" class="node">
<title>Node10</title>
<g id="a_node10"><a xlink:href="FitterBase_8h.html" target="_top" xlink:title=" ">
<polygon fill="white" stroke="black" points="545,-268.5 545,-298.5 669,-298.5 669,-268.5 545,-268.5"/>
<text text-anchor="start" x="553" y="-286.5" font-family="Helvetica" font-size="10.00">/hosthome/v2.2.0/Fitters</text>
<text text-anchor="middle" x="607" y="-275.5" font-family="Helvetica" font-size="10.00">/FitterBase.h</text>
</a>
</g>
</g>
<!-- Node8&#45;&gt;Node10 -->
<g id="edge10" class="edge">
<title>Node8&#45;&gt;Node10</title>
<path fill="none" stroke="midnightblue" d="M479.6,-331.82C507.73,-321.37 542.86,-308.32 569.1,-298.58"/>
<polygon fill="midnightblue" stroke="midnightblue" points="478.13,-328.63 469.97,-335.4 480.57,-335.2 478.13,-328.63"/>
</g>
<!-- Node23 -->
<g id="node23" class="node">
<title>Node23</title>
<g id="a_node23"><a xlink:href="SampleSummary_8h.html" target="_top" xlink:title=" ">
<polygon fill="white" stroke="black" points="836,-268.5 836,-298.5 960,-298.5 960,-268.5 836,-268.5"/>
<text text-anchor="start" x="844" y="-286.5" font-family="Helvetica" font-size="10.00">/hosthome/v2.2.0/Fitters</text>
<text text-anchor="middle" x="898" y="-275.5" font-family="Helvetica" font-size="10.00">/SampleSummary.h</text>
</a>
</g>
</g>
<!-- Node8&#45;&gt;Node23 -->
<g id="edge29" class="edge">
<title>Node8&#45;&gt;Node23</title>
<path fill="none" stroke="midnightblue" d="M509.31,-338.72C600.89,-325.94 751.65,-304.91 835.97,-293.15"/>
<polygon fill="midnightblue" stroke="midnightblue" points="508.68,-335.27 499.26,-340.12 509.65,-342.2 508.68,-335.27"/>
</g>
<!-- Node11 -->
<g id="node11" class="node">
<title>Node11</title>
<g id="a_node11"><a xlink:href="FitterBase_8cpp.html" target="_top" xlink:title=" ">
<polygon fill="white" stroke="black" points="296,-201.5 296,-231.5 420,-231.5 420,-201.5 296,-201.5"/>
<text text-anchor="start" x="304" y="-219.5" font-family="Helvetica" font-size="10.00">/hosthome/v2.2.0/Fitters</text>
<text text-anchor="middle" x="358" y="-208.5" font-family="Helvetica" font-size="10.00">/FitterBase.cpp</text>
</a>
</g>
</g>
<!-- Node10&#45;&gt;Node11 -->
<g id="edge11" class="edge">
<title>Node10&#45;&gt;Node11</title>
<path fill="none" stroke="midnightblue" d="M543.47,-265.92C502.84,-255.31 450.7,-241.7 412.06,-231.61"/>
<polygon fill="midnightblue" stroke="midnightblue" points="542.72,-269.34 553.28,-268.48 544.49,-262.56 542.72,-269.34"/>
</g>
<!-- Node12 -->
<g id="node12" class="node">
<title>Node12</title>
<g id="a_node12"><a xlink:href="LikelihoodFit_8h.html" target="_top" xlink:title=" ">
<polygon fill="white" stroke="black" points="559,-201.5 559,-231.5 683,-231.5 683,-201.5 559,-201.5"/>
<text text-anchor="start" x="567" y="-219.5" font-family="Helvetica" font-size="10.00">/hosthome/v2.2.0/Fitters</text>
<text text-anchor="middle" x="621" y="-208.5" font-family="Helvetica" font-size="10.00">/LikelihoodFit.h</text>
</a>
</g>
</g>
<!-- Node10&#45;&gt;Node12 -->
<g id="edge12" class="edge">
<title>Node10&#45;&gt;Node12</title>
<path fill="none" stroke="midnightblue" d="M612.19,-258.4C614.14,-249.37 616.28,-239.41 617.97,-231.58"/>
<polygon fill="midnightblue" stroke="midnightblue" points="608.72,-257.88 610.04,-268.4 615.56,-259.36 608.72,-257.88"/>
</g>
<!-- Node14 -->
<g id="node14" class="node">
<title>Node14</title>
<g id="a_node14"><a xlink:href="MaCh3Factory_8h.html" target="_top" xlink:title="Factory methods for MaCh3 software which streamline initialisation of different objects.">
<polygon fill="white" stroke="black" points="507,-67.5 507,-97.5 631,-97.5 631,-67.5 507,-67.5"/>
<text text-anchor="start" x="515" y="-85.5" font-family="Helvetica" font-size="10.00">/hosthome/v2.2.0/Fitters</text>
<text text-anchor="middle" x="569" y="-74.5" font-family="Helvetica" font-size="10.00">/MaCh3Factory.h</text>
</a>
</g>
</g>
<!-- Node10&#45;&gt;Node14 -->
<g id="edge23" class="edge">
<title>Node10&#45;&gt;Node14</title>
<path fill="none" stroke="midnightblue" d="M567.07,-263.6C531.59,-244.34 482.03,-210.81 460,-165 454.03,-152.58 452.58,-145.61 460,-134 471.12,-116.6 489.93,-105.11 508.84,-97.55"/>
<polygon fill="midnightblue" stroke="midnightblue" points="565.73,-266.85 576.21,-268.41 569,-260.66 565.73,-266.85"/>
</g>
<!-- Node18 -->
<g id="node18" class="node">
<title>Node18</title>
<g id="a_node18"><a xlink:href="fitters_8cpp.html" target="_top" xlink:title=" ">
<polygon fill="white" stroke="black" points="933.5,-67.5 933.5,-97.5 1058.5,-97.5 1058.5,-67.5 933.5,-67.5"/>
<text text-anchor="start" x="941.5" y="-85.5" font-family="Helvetica" font-size="10.00">/hosthome/v2.2.0/python</text>
<text text-anchor="middle" x="996" y="-74.5" font-family="Helvetica" font-size="10.00">/fitters.cpp</text>
</a>
</g>
</g>
<!-- Node10&#45;&gt;Node18 -->
<g id="edge28" class="edge">
<title>Node10&#45;&gt;Node18</title>
<path fill="none" stroke="midnightblue" d="M678.77,-266.74C746.33,-249.51 848.19,-217.17 924,-165 950.91,-146.49 974.33,-115.77 986.69,-97.81"/>
<polygon fill="midnightblue" stroke="midnightblue" points="677.91,-263.35 669.06,-269.17 679.61,-270.14 677.91,-263.35"/>
</g>
<!-- Node21 -->
<g id="node21" class="node">
<title>Node21</title>
<g id="a_node21"><a xlink:href="mcmc_8h.html" target="_top" xlink:title=" ">
<polygon fill="white" stroke="black" points="791,-134.5 791,-164.5 915,-164.5 915,-134.5 791,-134.5"/>
<text text-anchor="start" x="799" y="-152.5" font-family="Helvetica" font-size="10.00">/hosthome/v2.2.0/Fitters</text>
<text text-anchor="middle" x="853" y="-141.5" font-family="Helvetica" font-size="10.00">/mcmc.h</text>
</a>
</g>
</g>
<!-- Node10&#45;&gt;Node21 -->
<g id="edge24" class="edge">
<title>Node10&#45;&gt;Node21</title>
<path fill="none" stroke="midnightblue" d="M642.16,-263.63C692.1,-236.84 782.42,-188.37 826.86,-164.52"/>
<polygon fill="midnightblue" stroke="midnightblue" points="640.48,-260.56 633.33,-268.37 643.79,-266.73 640.48,-260.56"/>
</g>
<!-- Node13 -->
<g id="node13" class="node">
<title>Node13</title>
<g id="a_node13"><a xlink:href="LikelihoodFit_8cpp.html" target="_top" xlink:title=" ">
<polygon fill="white" stroke="black" points="469,-134.5 469,-164.5 593,-164.5 593,-134.5 469,-134.5"/>
<text text-anchor="start" x="477" y="-152.5" font-family="Helvetica" font-size="10.00">/hosthome/v2.2.0/Fitters</text>
<text text-anchor="middle" x="531" y="-141.5" font-family="Helvetica" font-size="10.00">/LikelihoodFit.cpp</text>
</a>
</g>
</g>
<!-- Node12&#45;&gt;Node13 -->
<g id="edge13" class="edge">
<title>Node12&#45;&gt;Node13</title>
<path fill="none" stroke="midnightblue" d="M593.24,-195.45C579.39,-185.45 562.98,-173.6 550.49,-164.58"/>
<polygon fill="midnightblue" stroke="midnightblue" points="591.32,-198.38 601.47,-201.4 595.41,-192.7 591.32,-198.38"/>
</g>
<!-- Node12&#45;&gt;Node14 -->
<g id="edge14" class="edge">
<title>Node12&#45;&gt;Node14</title>
<path fill="none" stroke="midnightblue" d="M617.67,-191.49C614.83,-174.88 609.92,-152.52 602,-134 596.4,-120.9 587.44,-107.47 580.26,-97.75"/>
<polygon fill="midnightblue" stroke="midnightblue" points="614.23,-192.15 619.25,-201.48 621.15,-191.06 614.23,-192.15"/>
</g>
<!-- Node16 -->
<g id="node16" class="node">
<title>Node16</title>
<g id="a_node16"><a xlink:href="MinuitFit_8h.html" target="_top" xlink:title=" ">
<polygon fill="white" stroke="black" points="971,-134.5 971,-164.5 1095,-164.5 1095,-134.5 971,-134.5"/>
<text text-anchor="start" x="979" y="-152.5" font-family="Helvetica" font-size="10.00">/hosthome/v2.2.0/Fitters</text>
<text text-anchor="middle" x="1033" y="-141.5" font-family="Helvetica" font-size="10.00">/MinuitFit.h</text>
</a>
</g>
</g>
<!-- Node12&#45;&gt;Node16 -->
<g id="edge16" class="edge">
<title>Node12&#45;&gt;Node16</title>
<path fill="none" stroke="midnightblue" d="M693.43,-204.07C772.05,-191.67 896.3,-172.07 970.71,-160.33"/>
<polygon fill="midnightblue" stroke="midnightblue" points="692.46,-200.68 683.13,-205.7 693.55,-207.6 692.46,-200.68"/>
</g>
<!-- Node19 -->
<g id="node19" class="node">
<title>Node19</title>
<g id="a_node19"><a xlink:href="PSO_8h.html" target="_top" xlink:title=" ">
<polygon fill="white" stroke="black" points="649,-134.5 649,-164.5 773,-164.5 773,-134.5 649,-134.5"/>
<text text-anchor="start" x="657" y="-152.5" font-family="Helvetica" font-size="10.00">/hosthome/v2.2.0/Fitters</text>
<text text-anchor="middle" x="711" y="-141.5" font-family="Helvetica" font-size="10.00">/PSO.h</text>
</a>
</g>
</g>
<!-- Node12&#45;&gt;Node19 -->
<g id="edge19" class="edge">
<title>Node12&#45;&gt;Node19</title>
<path fill="none" stroke="midnightblue" d="M648.76,-195.45C662.61,-185.45 679.02,-173.6 691.51,-164.58"/>
<polygon fill="midnightblue" stroke="midnightblue" points="646.59,-192.7 640.53,-201.4 650.68,-198.38 646.59,-192.7"/>
</g>
<!-- Node15 -->
<g id="node15" class="node">
<title>Node15</title>
<g id="a_node15"><a xlink:href="MaCh3Factory_8cpp.html" target="_top" xlink:title=" ">
<polygon fill="white" stroke="black" points="507,-0.5 507,-30.5 631,-30.5 631,-0.5 507,-0.5"/>
<text text-anchor="start" x="515" y="-18.5" font-family="Helvetica" font-size="10.00">/hosthome/v2.2.0/Fitters</text>
<text text-anchor="middle" x="569" y="-7.5" font-family="Helvetica" font-size="10.00">/MaCh3Factory.cpp</text>
</a>
</g>
</g>
<!-- Node14&#45;&gt;Node15 -->
<g id="edge15" class="edge">
<title>Node14&#45;&gt;Node15</title>
<path fill="none" stroke="midnightblue" d="M569,-57.11C569,-48.15 569,-38.32 569,-30.58"/>
<polygon fill="midnightblue" stroke="midnightblue" points="565.5,-57.4 569,-67.4 572.5,-57.4 565.5,-57.4"/>
</g>
<!-- Node17 -->
<g id="node17" class="node">
<title>Node17</title>
<g id="a_node17"><a xlink:href="MinuitFit_8cpp.html" target="_top" xlink:title=" ">
<polygon fill="white" stroke="black" points="1077,-67.5 1077,-97.5 1201,-97.5 1201,-67.5 1077,-67.5"/>
<text text-anchor="start" x="1085" y="-85.5" font-family="Helvetica" font-size="10.00">/hosthome/v2.2.0/Fitters</text>
<text text-anchor="middle" x="1139" y="-74.5" font-family="Helvetica" font-size="10.00">/MinuitFit.cpp</text>
</a>
</g>
</g>
<!-- Node16&#45;&gt;Node17 -->
<g id="edge17" class="edge">
<title>Node16&#45;&gt;Node17</title>
<path fill="none" stroke="midnightblue" d="M1064.78,-129.02C1081.27,-118.9 1101.05,-106.77 1116.04,-97.58"/>
<polygon fill="midnightblue" stroke="midnightblue" points="1062.7,-126.18 1056,-134.4 1066.35,-132.15 1062.7,-126.18"/>
</g>
<!-- Node16&#45;&gt;Node18 -->
<g id="edge18" class="edge">
<title>Node16&#45;&gt;Node18</title>
<path fill="none" stroke="midnightblue" d="M1019.95,-125.58C1014.64,-116.24 1008.66,-105.75 1004.01,-97.58"/>
<polygon fill="midnightblue" stroke="midnightblue" points="1016.98,-127.44 1024.97,-134.4 1023.07,-123.97 1016.98,-127.44"/>
</g>
<!-- Node19&#45;&gt;Node14 -->
<g id="edge20" class="edge">
<title>Node19&#45;&gt;Node14</title>
<path fill="none" stroke="midnightblue" d="M670.87,-130.13C648.31,-119.8 620.58,-107.11 599.75,-97.58"/>
<polygon fill="midnightblue" stroke="midnightblue" points="669.64,-133.42 680.19,-134.4 672.55,-127.05 669.64,-133.42"/>
</g>
<!-- Node19&#45;&gt;Node18 -->
<g id="edge22" class="edge">
<title>Node19&#45;&gt;Node18</title>
<path fill="none" stroke="midnightblue" d="M782.53,-132.19C829.21,-121.54 889.52,-107.78 934.13,-97.61"/>
<polygon fill="midnightblue" stroke="midnightblue" points="781.46,-128.84 772.49,-134.48 783.02,-135.66 781.46,-128.84"/>
</g>
<!-- Node20 -->
<g id="node20" class="node">
<title>Node20</title>
<g id="a_node20"><a xlink:href="PSO_8cpp.html" target="_top" xlink:title=" ">
<polygon fill="white" stroke="black" points="649,-67.5 649,-97.5 773,-97.5 773,-67.5 649,-67.5"/>
<text text-anchor="start" x="657" y="-85.5" font-family="Helvetica" font-size="10.00">/hosthome/v2.2.0/Fitters</text>
<text text-anchor="middle" x="711" y="-74.5" font-family="Helvetica" font-size="10.00">/PSO.cpp</text>
</a>
</g>
</g>
<!-- Node19&#45;&gt;Node20 -->
<g id="edge21" class="edge">
<title>Node19&#45;&gt;Node20</title>
<path fill="none" stroke="midnightblue" d="M711,-124.11C711,-115.15 711,-105.32 711,-97.58"/>
<polygon fill="midnightblue" stroke="midnightblue" points="707.5,-124.4 711,-134.4 714.5,-124.4 707.5,-124.4"/>
</g>
<!-- Node21&#45;&gt;Node14 -->
<g id="edge25" class="edge">
<title>Node21&#45;&gt;Node14</title>
<path fill="none" stroke="midnightblue" d="M781.72,-132.19C735.21,-121.54 675.1,-107.78 630.65,-97.61"/>
<polygon fill="midnightblue" stroke="midnightblue" points="781.2,-135.66 791.73,-134.48 782.76,-128.83 781.2,-135.66"/>
</g>
<!-- Node21&#45;&gt;Node18 -->
<g id="edge27" class="edge">
<title>Node21&#45;&gt;Node18</title>
<path fill="none" stroke="midnightblue" d="M893.41,-130.13C916.13,-119.8 944.06,-107.11 965.03,-97.58"/>
<polygon fill="midnightblue" stroke="midnightblue" points="891.68,-127.07 884.03,-134.4 894.58,-133.44 891.68,-127.07"/>
</g>
<!-- Node22 -->
<g id="node22" class="node">
<title>Node22</title>
<g id="a_node22"><a xlink:href="mcmc_8cpp.html" target="_top" xlink:title=" ">
<polygon fill="white" stroke="black" points="791,-67.5 791,-97.5 915,-97.5 915,-67.5 791,-67.5"/>
<text text-anchor="start" x="799" y="-85.5" font-family="Helvetica" font-size="10.00">/hosthome/v2.2.0/Fitters</text>
<text text-anchor="middle" x="853" y="-74.5" font-family="Helvetica" font-size="10.00">/mcmc.cpp</text>
</a>
</g>
</g>
<!-- Node21&#45;&gt;Node22 -->
<g id="edge26" class="edge">
<title>Node21&#45;&gt;Node22</title>
<path fill="none" stroke="midnightblue" d="M853,-124.11C853,-115.15 853,-105.32 853,-97.58"/>
<polygon fill="midnightblue" stroke="midnightblue" points="849.5,-124.4 853,-134.4 856.5,-124.4 849.5,-124.4"/>
</g>
<!-- Node24 -->
<g id="node24" class="node">
<title>Node24</title>
<g id="a_node24"><a xlink:href="SampleSummary_8cpp.html" target="_top" xlink:title=" ">
<polygon fill="white" stroke="black" points="971,-201.5 971,-231.5 1095,-231.5 1095,-201.5 971,-201.5"/>
<text text-anchor="start" x="979" y="-219.5" font-family="Helvetica" font-size="10.00">/hosthome/v2.2.0/Fitters</text>
<text text-anchor="middle" x="1033" y="-208.5" font-family="Helvetica" font-size="10.00">/SampleSummary.cpp</text>
</a>
</g>
</g>
<!-- Node23&#45;&gt;Node24 -->
<g id="edge30" class="edge">
<title>Node23&#45;&gt;Node24</title>
<path fill="none" stroke="midnightblue" d="M936.44,-263.99C957.84,-253.69 984.05,-241.07 1003.76,-231.58"/>
<polygon fill="midnightblue" stroke="midnightblue" points="934.78,-260.9 927.29,-268.4 937.82,-267.21 934.78,-260.9"/>
</g>
</g>
</svg>
