<?xml version="1.0" encoding="UTF-8" standalone="no"?>
<!DOCTYPE svg PUBLIC "-//W3C//DTD SVG 1.1//EN"
 "http://www.w3.org/Graphics/SVG/1.1/DTD/svg11.dtd">
<!-- Generated by graphviz version 2.44.0 (0)
 -->
<!-- Title: /hosthome/v2.2.0/Manager/MaCh3Exception.h Pages: 1 -->
<!--zoomable 207 -->
<svg id="main" version="1.1" xmlns="http://www.w3.org/2000/svg" xmlns:xlink="http://www.w3.org/1999/xlink" xml:space="preserve" onload="init(evt)">
<style type="text/css"><![CDATA[
.edge:hover path { stroke: red; }
.edge:hover polygon { stroke: red; fill: red; }
]]></style>
<script type="text/javascript"><![CDATA[
var edges = document.getElementsByTagName('g');
if (edges && edges.length) {
  for (var i=0;i<edges.length;i++) {
    if (edges[i].id.substr(0,4)=='edge') {
      edges[i].setAttribute('class','edge');
    }
  }
}
]]></script>
        <defs>
                <circle id="rim" cx="0" cy="0" r="7"/>
                <circle id="rim2" cx="0" cy="0" r="3.5"/>
                <g id="zoomPlus">
                        <use xlink:href="#rim" fill="#404040">
                                <set attributeName="fill" to="#808080" begin="zoomplus.mouseover" end="zoomplus.mouseout"/>
                        </use>
                        <path d="M-4,0h8M0,-4v8" fill="none" stroke="white" stroke-width="1.5" pointer-events="none"/>
                </g>
                <g id="zoomMin">
                        <use xlink:href="#rim" fill="#404040">
                                <set attributeName="fill" to="#808080" begin="zoomminus.mouseover" end="zoomminus.mouseout"/>
                        </use>
                        <path d="M-4,0h8" fill="none" stroke="white" stroke-width="1.5" pointer-events="none"/>
                </g>
                <g id="dirArrow">
                        <path fill="none" stroke="white" stroke-width="1.5" d="M0,-3.0v7 M-2.5,-0.5L0,-3.0L2.5,-0.5"/>
                </g>
               <g id="resetDef">
                       <use xlink:href="#rim2" fill="#404040">
                               <set attributeName="fill" to="#808080" begin="reset.mouseover" end="reset.mouseout"/>
                       </use>
               </g>
        </defs>

<script type="text/javascript">
var viewWidth = 612;
var viewHeight = 207;
var sectionId = 'dynsection-0';
</script>
<script xlink:href="svgpan.js"/>
<svg id="graph" class="graph">
<g id="viewport">
<title>/hosthome/v2.2.0/Manager/MaCh3Exception.h</title>
<polygon fill="white" stroke="transparent" points="-4,4 -4,-203 607.76,-203 607.76,4 -4,4"/>
<!-- Node1 -->
<g id="node1" class="node">
<title>Node1</title>
<g id="a_node1"><a xlink:title=" ">
<polygon fill="#bfbfbf" stroke="black" points="43.26,-168.5 43.26,-198.5 176.26,-198.5 176.26,-168.5 43.26,-168.5"/>
<text text-anchor="start" x="51.26" y="-186.5" font-family="Helvetica" font-size="10.00">/hosthome/v2.2.0/Manager</text>
<text text-anchor="middle" x="109.76" y="-175.5" font-family="Helvetica" font-size="10.00">/MaCh3Exception.h</text>
</a>
</g>
</g>
<!-- Node2 -->
<g id="node2" class="node">
<title>Node2</title>
<g id="a_node2"><a xlink:title=" ">
<polygon fill="white" stroke="#bfbfbf" points="161.76,-0.5 161.76,-19.5 215.76,-19.5 215.76,-0.5 161.76,-0.5"/>
<text text-anchor="middle" x="188.76" y="-7.5" font-family="Helvetica" font-size="10.00">iostream</text>
</a>
</g>
</g>
<!-- Node1&#45;&gt;Node2 -->
<g id="edge1" class="edge">
<title>Node1&#45;&gt;Node2</title>
<path fill="none" stroke="midnightblue" d="M83.7,-168.35C44.12,-145.05 -23.32,-97.09 8.76,-56 26.13,-33.75 104.07,-20.88 151.52,-14.97"/>
<polygon fill="midnightblue" stroke="midnightblue" points="152.2,-18.41 161.72,-13.74 151.37,-11.46 152.2,-18.41"/>
</g>
<!-- Node3 -->
<g id="node3" class="node">
<title>Node3</title>
<g id="a_node3"><a xlink:title=" ">
<polygon fill="white" stroke="#bfbfbf" points="18.26,-56.5 18.26,-75.5 59.26,-75.5 59.26,-56.5 18.26,-56.5"/>
<text text-anchor="middle" x="38.76" y="-63.5" font-family="Helvetica" font-size="10.00">string</text>
</a>
</g>
</g>
<!-- Node1&#45;&gt;Node3 -->
<g id="edge2" class="edge">
<title>Node1&#45;&gt;Node3</title>
<path fill="none" stroke="midnightblue" d="M97.7,-168.47C89.55,-158.63 78.85,-144.97 70.76,-132 61.31,-116.84 52.5,-98.49 46.52,-85.16"/>
<polygon fill="midnightblue" stroke="midnightblue" points="49.6,-83.46 42.38,-75.71 43.19,-86.27 49.6,-83.46"/>
</g>
<!-- Node4 -->
<g id="node4" class="node">
<title>Node4</title>
<g id="a_node4"><a xlink:title=" ">
<polygon fill="white" stroke="#bfbfbf" points="80.26,-112.5 80.26,-131.5 139.26,-131.5 139.26,-112.5 80.26,-112.5"/>
<text text-anchor="middle" x="109.76" y="-119.5" font-family="Helvetica" font-size="10.00">stdexcept</text>
</a>
</g>
</g>
<!-- Node1&#45;&gt;Node4 -->
<g id="edge3" class="edge">
<title>Node1&#45;&gt;Node4</title>
<path fill="none" stroke="midnightblue" d="M109.76,-168.4C109.76,-160.47 109.76,-150.46 109.76,-141.86"/>
<polygon fill="midnightblue" stroke="midnightblue" points="113.26,-141.66 109.76,-131.66 106.26,-141.66 113.26,-141.66"/>
</g>
<!-- Node5 -->
<g id="node5" class="node">
<title>Node5</title>
<g id="a_node5"><a xlink:href="MaCh3Logger_8h.html" target="_top" xlink:title="KS: Based on this https://github.com/gabime/spdlog/blob/a2b4262090fd3f005c2315dcb5be2f0f1774a005/incl...">
<polygon fill="white" stroke="black" points="162.76,-112.5 162.76,-131.5 288.76,-131.5 288.76,-112.5 162.76,-112.5"/>
<text text-anchor="middle" x="225.76" y="-119.5" font-family="Helvetica" font-size="10.00">Manager/MaCh3Logger.h</text>
</a>
</g>
</g>
<!-- Node1&#45;&gt;Node5 -->
<g id="edge4" class="edge">
<title>Node1&#45;&gt;Node5</title>
<path fill="none" stroke="midnightblue" d="M137.25,-168.4C156.2,-158.68 181.21,-145.86 199.81,-136.31"/>
<polygon fill="midnightblue" stroke="midnightblue" points="201.58,-139.34 208.88,-131.66 198.39,-133.11 201.58,-139.34"/>
</g>
<!-- Node9 -->
<g id="node9" class="node">
<title>Node9</title>
<g id="a_node9"><a xlink:href="Core_8h.html" target="_top" xlink:title=" ">
<polygon fill="white" stroke="black" points="410.76,-56.5 410.76,-75.5 496.76,-75.5 496.76,-56.5 410.76,-56.5"/>
<text text-anchor="middle" x="453.76" y="-63.5" font-family="Helvetica" font-size="10.00">Manager/Core.h</text>
</a>
</g>
</g>
<!-- Node1&#45;&gt;Node9 -->
<g id="edge19" class="edge">
<title>Node1&#45;&gt;Node9</title>
<path fill="none" stroke="midnightblue" d="M170.06,-168.46C207.24,-159.28 255.7,-146.34 297.76,-132 343.62,-116.36 395.23,-93.86 426.08,-79.85"/>
<polygon fill="midnightblue" stroke="midnightblue" points="427.7,-82.96 435.34,-75.61 424.79,-76.59 427.7,-82.96"/>
</g>
<!-- Node5&#45;&gt;Node2 -->
<g id="edge5" class="edge">
<title>Node5&#45;&gt;Node2</title>
<path fill="none" stroke="midnightblue" d="M222.86,-112.37C216.86,-94.54 202.99,-53.3 194.91,-29.27"/>
<polygon fill="midnightblue" stroke="midnightblue" points="198.16,-27.95 191.65,-19.59 191.52,-30.19 198.16,-27.95"/>
</g>
<!-- Node5&#45;&gt;Node3 -->
<g id="edge8" class="edge">
<title>Node5&#45;&gt;Node3</title>
<path fill="none" stroke="midnightblue" d="M194.82,-112.42C164.92,-104.07 118.09,-90.88 69.15,-76.37"/>
<polygon fill="midnightblue" stroke="midnightblue" points="69.92,-72.95 59.34,-73.45 67.93,-79.66 69.92,-72.95"/>
</g>
<!-- Node6 -->
<g id="node6" class="node">
<title>Node6</title>
<g id="a_node6"><a xlink:title=" ">
<polygon fill="white" stroke="#bfbfbf" points="233.76,-0.5 233.76,-19.5 285.76,-19.5 285.76,-0.5 233.76,-0.5"/>
<text text-anchor="middle" x="259.76" y="-7.5" font-family="Helvetica" font-size="10.00">sstream</text>
</a>
</g>
</g>
<!-- Node5&#45;&gt;Node6 -->
<g id="edge6" class="edge">
<title>Node5&#45;&gt;Node6</title>
<path fill="none" stroke="midnightblue" d="M228.43,-112.37C233.94,-94.54 246.69,-53.3 254.12,-29.27"/>
<polygon fill="midnightblue" stroke="midnightblue" points="257.5,-30.18 257.11,-19.59 250.81,-28.11 257.5,-30.18"/>
</g>
<!-- Node7 -->
<g id="node7" class="node">
<title>Node7</title>
<g id="a_node7"><a xlink:title=" ">
<polygon fill="white" stroke="#bfbfbf" points="257.26,-56.5 257.26,-75.5 316.26,-75.5 316.26,-56.5 257.26,-56.5"/>
<text text-anchor="middle" x="286.76" y="-63.5" font-family="Helvetica" font-size="10.00">functional</text>
</a>
</g>
</g>
<!-- Node5&#45;&gt;Node7 -->
<g id="edge7" class="edge">
<title>Node5&#45;&gt;Node7</title>
<path fill="none" stroke="midnightblue" d="M235.56,-112.32C244.58,-104.34 258.17,-92.31 269.08,-82.65"/>
<polygon fill="midnightblue" stroke="midnightblue" points="271.62,-85.08 276.78,-75.83 266.98,-79.84 271.62,-85.08"/>
</g>
<!-- Node8 -->
<g id="node8" class="node">
<title>Node8</title>
<g id="a_node8"><a xlink:title=" ">
<polygon fill="white" stroke="#bfbfbf" points="334.76,-56.5 334.76,-75.5 392.76,-75.5 392.76,-56.5 334.76,-56.5"/>
<text text-anchor="middle" x="363.76" y="-63.5" font-family="Helvetica" font-size="10.00">exception</text>
</a>
</g>
</g>
<!-- Node5&#45;&gt;Node8 -->
<g id="edge9" class="edge">
<title>Node5&#45;&gt;Node8</title>
<path fill="none" stroke="midnightblue" d="M247.63,-112.44C270.54,-103.48 306.74,-89.31 332.63,-79.18"/>
<polygon fill="midnightblue" stroke="midnightblue" points="333.96,-82.42 342,-75.52 331.41,-75.9 333.96,-82.42"/>
</g>
<!-- Node5&#45;&gt;Node9 -->
<g id="edge10" class="edge">
<title>Node5&#45;&gt;Node9</title>
<path fill="none" stroke="midnightblue" d="M261.89,-112.44C301.41,-103.08 364.86,-88.06 407.88,-77.87"/>
<polygon fill="midnightblue" stroke="midnightblue" points="408.88,-81.23 417.81,-75.52 407.27,-74.42 408.88,-81.23"/>
</g>
<!-- Node15 -->
<g id="node15" class="node">
<title>Node15</title>
<g id="a_node15"><a xlink:title=" ">
<polygon fill="white" stroke="#bfbfbf" points="77.26,-56.5 77.26,-75.5 162.26,-75.5 162.26,-56.5 77.26,-56.5"/>
<text text-anchor="middle" x="119.76" y="-63.5" font-family="Helvetica" font-size="10.00">spdlog/spdlog.h</text>
</a>
</g>
</g>
<!-- Node5&#45;&gt;Node15 -->
<g id="edge18" class="edge">
<title>Node5&#45;&gt;Node15</title>
<path fill="none" stroke="midnightblue" d="M208.73,-112.32C191.73,-103.66 165.39,-90.24 145.77,-80.25"/>
<polygon fill="midnightblue" stroke="midnightblue" points="147.25,-77.08 136.75,-75.65 144.07,-83.31 147.25,-77.08"/>
</g>
<!-- Node9&#45;&gt;Node2 -->
<g id="edge13" class="edge">
<title>Node9&#45;&gt;Node2</title>
<path fill="none" stroke="midnightblue" d="M410.58,-57.19C366.51,-49.07 295.92,-35.65 225.75,-20.13"/>
<polygon fill="midnightblue" stroke="midnightblue" points="226.38,-16.69 215.86,-17.93 224.86,-23.52 226.38,-16.69"/>
</g>
<!-- Node9&#45;&gt;Node6 -->
<g id="edge11" class="edge">
<title>Node9&#45;&gt;Node6</title>
<path fill="none" stroke="midnightblue" d="M423.02,-56.44C388.45,-46.82 332.37,-31.21 295.78,-21.02"/>
<polygon fill="midnightblue" stroke="midnightblue" points="296.58,-17.61 286,-18.3 294.7,-24.36 296.58,-17.61"/>
</g>
<!-- Node10 -->
<g id="node10" class="node">
<title>Node10</title>
<g id="a_node10"><a xlink:title=" ">
<polygon fill="white" stroke="#bfbfbf" points="553.76,-0.5 553.76,-19.5 603.76,-19.5 603.76,-0.5 553.76,-0.5"/>
<text text-anchor="middle" x="578.76" y="-7.5" font-family="Helvetica" font-size="10.00">fstream</text>
</a>
</g>
</g>
<!-- Node9&#45;&gt;Node10 -->
<g id="edge12" class="edge">
<title>Node9&#45;&gt;Node10</title>
<path fill="none" stroke="midnightblue" d="M473.57,-56.44C494.05,-47.6 526.25,-33.69 549.63,-23.59"/>
<polygon fill="midnightblue" stroke="midnightblue" points="551.26,-26.7 559.05,-19.52 548.48,-20.27 551.26,-26.7"/>
</g>
<!-- Node11 -->
<g id="node11" class="node">
<title>Node11</title>
<g id="a_node11"><a xlink:title=" ">
<polygon fill="white" stroke="#bfbfbf" points="304.26,-0.5 304.26,-19.5 347.26,-19.5 347.26,-0.5 304.26,-0.5"/>
<text text-anchor="middle" x="325.76" y="-7.5" font-family="Helvetica" font-size="10.00">vector</text>
</a>
</g>
</g>
<!-- Node9&#45;&gt;Node11 -->
<g id="edge14" class="edge">
<title>Node9&#45;&gt;Node11</title>
<path fill="none" stroke="midnightblue" d="M433.48,-56.44C412.42,-47.56 379.25,-33.56 355.28,-23.45"/>
<polygon fill="midnightblue" stroke="midnightblue" points="356.52,-20.18 345.95,-19.52 353.8,-26.63 356.52,-20.18"/>
</g>
<!-- Node12 -->
<g id="node12" class="node">
<title>Node12</title>
<g id="a_node12"><a xlink:title=" ">
<polygon fill="white" stroke="#bfbfbf" points="365.76,-0.5 365.76,-19.5 415.76,-19.5 415.76,-0.5 365.76,-0.5"/>
<text text-anchor="middle" x="390.76" y="-7.5" font-family="Helvetica" font-size="10.00">iomanip</text>
</a>
</g>
</g>
<!-- Node9&#45;&gt;Node12 -->
<g id="edge15" class="edge">
<title>Node9&#45;&gt;Node12</title>
<path fill="none" stroke="midnightblue" d="M443.64,-56.32C434.24,-48.26 420.02,-36.08 408.69,-26.37"/>
<polygon fill="midnightblue" stroke="midnightblue" points="410.94,-23.68 401.07,-19.83 406.38,-29 410.94,-23.68"/>
</g>
<!-- Node13 -->
<g id="node13" class="node">
<title>Node13</title>
<g id="a_node13"><a xlink:title=" ">
<polygon fill="white" stroke="#bfbfbf" points="433.76,-0.5 433.76,-19.5 477.76,-19.5 477.76,-0.5 433.76,-0.5"/>
<text text-anchor="middle" x="455.76" y="-7.5" font-family="Helvetica" font-size="10.00">cmath</text>
</a>
</g>
</g>
<!-- Node9&#45;&gt;Node13 -->
<g id="edge16" class="edge">
<title>Node9&#45;&gt;Node13</title>
<path fill="none" stroke="midnightblue" d="M454.09,-56.08C454.36,-49.01 454.73,-38.86 455.06,-29.99"/>
<polygon fill="midnightblue" stroke="midnightblue" points="458.57,-29.87 455.44,-19.75 451.57,-29.61 458.57,-29.87"/>
</g>
<!-- Node14 -->
<g id="node14" class="node">
<title>Node14</title>
<g id="a_node14"><a xlink:title=" ">
<polygon fill="white" stroke="#bfbfbf" points="495.76,-0.5 495.76,-19.5 535.76,-19.5 535.76,-0.5 495.76,-0.5"/>
<text text-anchor="middle" x="515.76" y="-7.5" font-family="Helvetica" font-size="10.00">limits</text>
</a>
</g>
</g>
<!-- Node9&#45;&gt;Node14 -->
<g id="edge17" class="edge">
<title>Node9&#45;&gt;Node14</title>
<path fill="none" stroke="midnightblue" d="M463.72,-56.32C472.89,-48.34 486.7,-36.31 497.79,-26.65"/>
<polygon fill="midnightblue" stroke="midnightblue" points="500.38,-29.04 505.62,-19.83 495.78,-23.76 500.38,-29.04"/>
</g>
</g>
</svg>
        <g id="navigator" transform="translate(0 0)" fill="#404254">
                <rect fill="#f2f5e9" fill-opacity="0.5" stroke="#606060" stroke-width=".5" x="0" y="0" width="60" height="60"/>
                <use id="zoomplus" xlink:href="#zoomPlus" x="17" y="9" onmousedown="handleZoom(evt,'in')"/>
                <use id="zoomminus" xlink:href="#zoomMin" x="42" y="9" onmousedown="handleZoom(evt,'out')"/>
                <use id="reset" xlink:href="#resetDef" x="30" y="36" onmousedown="handleReset()"/>
                <g id="arrowUp" xlink:href="#dirArrow" transform="translate(30 24)" onmousedown="handlePan(0,-1)">
                  <use xlink:href="#rim" fill="#404040">
                        <set attributeName="fill" to="#808080" begin="arrowUp.mouseover" end="arrowUp.mouseout"/>
                  </use>
                  <path fill="none" stroke="white" stroke-width="1.5" d="M0,-3.0v7 M-2.5,-0.5L0,-3.0L2.5,-0.5"/>
                </g>
                <g id="arrowRight" xlink:href="#dirArrow" transform="rotate(90) translate(36 -43)" onmousedown="handlePan(1,0)">
                  <use xlink:href="#rim" fill="#404040">
                        <set attributeName="fill" to="#808080" begin="arrowRight.mouseover" end="arrowRight.mouseout"/>
                  </use>
                  <path fill="none" stroke="white" stroke-width="1.5" d="M0,-3.0v7 M-2.5,-0.5L0,-3.0L2.5,-0.5"/>
                </g>
                <g id="arrowDown" xlink:href="#dirArrow" transform="rotate(180) translate(-30 -48)" onmousedown="handlePan(0,1)">
                  <use xlink:href="#rim" fill="#404040">
                        <set attributeName="fill" to="#808080" begin="arrowDown.mouseover" end="arrowDown.mouseout"/>
                  </use>
                  <path fill="none" stroke="white" stroke-width="1.5" d="M0,-3.0v7 M-2.5,-0.5L0,-3.0L2.5,-0.5"/>
                </g>
                <g id="arrowLeft" xlink:href="#dirArrow" transform="rotate(270) translate(-36 17)" onmousedown="handlePan(-1,0)">
                  <use xlink:href="#rim" fill="#404040">
                        <set attributeName="fill" to="#808080" begin="arrowLeft.mouseover" end="arrowLeft.mouseout"/>
                  </use>
                  <path fill="none" stroke="white" stroke-width="1.5" d="M0,-3.0v7 M-2.5,-0.5L0,-3.0L2.5,-0.5"/>
                </g>
        </g>
        <svg viewBox="0 0 15 15" width="100%" height="30px" preserveAspectRatio="xMaxYMin meet">
         <g id="arrow_out" transform="scale(0.3 0.3)">
          <a xlink:href="MaCh3Exception_8h__incl_org.svg" target="_base">
           <rect id="button" ry="5" rx="5" y="6" x="6" height="38" width="38"
                fill="#f2f5e9" fill-opacity="0.5" stroke="#606060" stroke-width="1.0"/>
           <path id="arrow"
             d="M 11.500037,31.436501 C 11.940474,20.09759 22.043105,11.32322 32.158766,21.979434 L 37.068811,17.246167 C 37.068811,17.246167 37.088388,32 37.088388,32 L 22.160133,31.978069 C 22.160133,31.978069 26.997745,27.140456 26.997745,27.140456 C 18.528582,18.264221 13.291696,25.230495 11.500037,31.436501 z"
             style="fill:#404040;"/>
          </a>
         </g>
        </svg>
</svg>
