<?xml version="1.0" encoding="UTF-8" standalone="no"?>
<!DOCTYPE svg PUBLIC "-//W3C//DTD SVG 1.1//EN"
 "http://www.w3.org/Graphics/SVG/1.1/DTD/svg11.dtd">
<!-- Generated by graphviz version 2.44.0 (0)
 -->
<!-- Title: /hosthome/v2.2.0/Fitters/MCMCProcessor.h Pages: 1 -->
<svg width="1765pt" height="374pt"
 viewBox="0.00 0.00 1764.50 374.00" xmlns="http://www.w3.org/2000/svg" xmlns:xlink="http://www.w3.org/1999/xlink">
<g id="graph0" class="graph" transform="scale(1 1) rotate(0) translate(4 370)">
<title>/hosthome/v2.2.0/Fitters/MCMCProcessor.h</title>
<polygon fill="white" stroke="transparent" points="-4,4 -4,-370 1760.5,-370 1760.5,4 -4,4"/>
<!-- Node1 -->
<g id="node1" class="node">
<title>Node1</title>
<g id="a_node1"><a xlink:title=" ">
<polygon fill="#bfbfbf" stroke="black" points="881,-335.5 881,-365.5 1005,-365.5 1005,-335.5 881,-335.5"/>
<text text-anchor="start" x="889" y="-353.5" font-family="Helvetica" font-size="10.00">/hosthome/v2.2.0/Fitters</text>
<text text-anchor="middle" x="943" y="-342.5" font-family="Helvetica" font-size="10.00">/MCMCProcessor.h</text>
</a>
</g>
</g>
<!-- Node2 -->
<g id="node2" class="node">
<title>Node2</title>
<g id="a_node2"><a xlink:href="FitterBase_8h.html" target="_top" xlink:title=" ">
<polygon fill="white" stroke="black" points="408,-268.5 408,-298.5 532,-298.5 532,-268.5 408,-268.5"/>
<text text-anchor="start" x="416" y="-286.5" font-family="Helvetica" font-size="10.00">/hosthome/v2.2.0/Fitters</text>
<text text-anchor="middle" x="470" y="-275.5" font-family="Helvetica" font-size="10.00">/FitterBase.h</text>
</a>
</g>
</g>
<!-- Node1&#45;&gt;Node2 -->
<g id="edge1" class="edge">
<title>Node1&#45;&gt;Node2</title>
<path fill="none" stroke="midnightblue" d="M870.55,-339.54C778,-326.83 619.36,-305.03 532.08,-293.03"/>
<polygon fill="midnightblue" stroke="midnightblue" points="870.29,-343.04 880.68,-340.94 871.25,-336.11 870.29,-343.04"/>
</g>
<!-- Node15 -->
<g id="node15" class="node">
<title>Node15</title>
<g id="a_node15"><a xlink:href="MCMCProcessor_8cpp.html" target="_top" xlink:title=" ">
<polygon fill="white" stroke="black" points="597,-268.5 597,-298.5 721,-298.5 721,-268.5 597,-268.5"/>
<text text-anchor="start" x="605" y="-286.5" font-family="Helvetica" font-size="10.00">/hosthome/v2.2.0/Fitters</text>
<text text-anchor="middle" x="659" y="-275.5" font-family="Helvetica" font-size="10.00">/MCMCProcessor.cpp</text>
</a>
</g>
</g>
<!-- Node1&#45;&gt;Node15 -->
<g id="edge20" class="edge">
<title>Node1&#45;&gt;Node15</title>
<path fill="none" stroke="midnightblue" d="M871.72,-333.19C825.21,-322.54 765.1,-308.78 720.65,-298.61"/>
<polygon fill="midnightblue" stroke="midnightblue" points="871.2,-336.66 881.73,-335.48 872.76,-329.83 871.2,-336.66"/>
</g>
<!-- Node16 -->
<g id="node16" class="node">
<title>Node16</title>
<g id="a_node16"><a xlink:href="OscProcessor_8h.html" target="_top" xlink:title=" ">
<polygon fill="white" stroke="black" points="739,-268.5 739,-298.5 863,-298.5 863,-268.5 739,-268.5"/>
<text text-anchor="start" x="747" y="-286.5" font-family="Helvetica" font-size="10.00">/hosthome/v2.2.0/Fitters</text>
<text text-anchor="middle" x="801" y="-275.5" font-family="Helvetica" font-size="10.00">/OscProcessor.h</text>
</a>
</g>
</g>
<!-- Node1&#45;&gt;Node16 -->
<g id="edge21" class="edge">
<title>Node1&#45;&gt;Node16</title>
<path fill="none" stroke="midnightblue" d="M902.87,-331.13C880.31,-320.8 852.58,-308.11 831.75,-298.58"/>
<polygon fill="midnightblue" stroke="midnightblue" points="901.64,-334.42 912.19,-335.4 904.55,-328.05 901.64,-334.42"/>
</g>
<!-- Node19 -->
<g id="node19" class="node">
<title>Node19</title>
<g id="a_node19"><a xlink:href="SampleSummary_8h.html" target="_top" xlink:title=" ">
<polygon fill="white" stroke="black" points="881,-268.5 881,-298.5 1005,-298.5 1005,-268.5 881,-268.5"/>
<text text-anchor="start" x="889" y="-286.5" font-family="Helvetica" font-size="10.00">/hosthome/v2.2.0/Fitters</text>
<text text-anchor="middle" x="943" y="-275.5" font-family="Helvetica" font-size="10.00">/SampleSummary.h</text>
</a>
</g>
</g>
<!-- Node1&#45;&gt;Node19 -->
<g id="edge24" class="edge">
<title>Node1&#45;&gt;Node19</title>
<path fill="none" stroke="midnightblue" d="M943,-325.11C943,-316.15 943,-306.32 943,-298.58"/>
<polygon fill="midnightblue" stroke="midnightblue" points="939.5,-325.4 943,-335.4 946.5,-325.4 939.5,-325.4"/>
</g>
<!-- Node21 -->
<g id="node21" class="node">
<title>Node21</title>
<g id="a_node21"><a xlink:href="DiagMCMC_8cpp.html" target="_top" xlink:title=" ">
<polygon fill="white" stroke="black" points="1023.5,-268.5 1023.5,-298.5 1170.5,-298.5 1170.5,-268.5 1023.5,-268.5"/>
<text text-anchor="start" x="1031.5" y="-286.5" font-family="Helvetica" font-size="10.00">/hosthome/v2.2.0/Diagnostics</text>
<text text-anchor="middle" x="1097" y="-275.5" font-family="Helvetica" font-size="10.00">/DiagMCMC.cpp</text>
</a>
</g>
</g>
<!-- Node1&#45;&gt;Node21 -->
<g id="edge26" class="edge">
<title>Node1&#45;&gt;Node21</title>
<path fill="none" stroke="midnightblue" d="M985.87,-331.41C1010.45,-321.03 1040.86,-308.2 1063.65,-298.58"/>
<polygon fill="midnightblue" stroke="midnightblue" points="984.27,-328.28 976.42,-335.4 986.99,-334.73 984.27,-328.28"/>
</g>
<!-- Node22 -->
<g id="node22" class="node">
<title>Node22</title>
<g id="a_node22"><a xlink:href="PlotMCMCDiag_8cpp.html" target="_top" xlink:title="KS: This script is used to analyse output form DiagMCMC.">
<polygon fill="white" stroke="black" points="1188.5,-268.5 1188.5,-298.5 1335.5,-298.5 1335.5,-268.5 1188.5,-268.5"/>
<text text-anchor="start" x="1196.5" y="-286.5" font-family="Helvetica" font-size="10.00">/hosthome/v2.2.0/Diagnostics</text>
<text text-anchor="middle" x="1262" y="-275.5" font-family="Helvetica" font-size="10.00">/PlotMCMCDiag.cpp</text>
</a>
</g>
</g>
<!-- Node1&#45;&gt;Node22 -->
<g id="edge27" class="edge">
<title>Node1&#45;&gt;Node22</title>
<path fill="none" stroke="midnightblue" d="M1015.33,-334.76C1068.67,-323.89 1140.79,-309.2 1193.26,-298.51"/>
<polygon fill="midnightblue" stroke="midnightblue" points="1014.36,-331.39 1005.26,-336.81 1015.76,-338.25 1014.36,-331.39"/>
</g>
<!-- Node23 -->
<g id="node23" class="node">
<title>Node23</title>
<g id="a_node23"><a xlink:href="inputManager_8h.html" target="_top" xlink:title=" ">
<polygon fill="white" stroke="black" points="1353.5,-268.5 1353.5,-298.5 1494.5,-298.5 1494.5,-268.5 1353.5,-268.5"/>
<text text-anchor="start" x="1361.5" y="-286.5" font-family="Helvetica" font-size="10.00">/hosthome/v2.2.0/Plotting</text>
<text text-anchor="middle" x="1424" y="-275.5" font-family="Helvetica" font-size="10.00">/plottingUtils/inputManager.h</text>
</a>
</g>
</g>
<!-- Node1&#45;&gt;Node23 -->
<g id="edge28" class="edge">
<title>Node1&#45;&gt;Node23</title>
<path fill="none" stroke="midnightblue" d="M1015.34,-341.58C1095.76,-332.5 1229.43,-316.58 1344,-299 1347.07,-298.53 1350.2,-298.03 1353.36,-297.52"/>
<polygon fill="midnightblue" stroke="midnightblue" points="1014.86,-338.11 1005.31,-342.71 1015.64,-345.07 1014.86,-338.11"/>
</g>
<!-- Node3 -->
<g id="node3" class="node">
<title>Node3</title>
<g id="a_node3"><a xlink:href="FitterBase_8cpp.html" target="_top" xlink:title=" ">
<polygon fill="white" stroke="black" points="0,-201.5 0,-231.5 124,-231.5 124,-201.5 0,-201.5"/>
<text text-anchor="start" x="8" y="-219.5" font-family="Helvetica" font-size="10.00">/hosthome/v2.2.0/Fitters</text>
<text text-anchor="middle" x="62" y="-208.5" font-family="Helvetica" font-size="10.00">/FitterBase.cpp</text>
</a>
</g>
</g>
<!-- Node2&#45;&gt;Node3 -->
<g id="edge2" class="edge">
<title>Node2&#45;&gt;Node3</title>
<path fill="none" stroke="midnightblue" d="M397.7,-272.3C330.36,-262.61 227.23,-247.29 138,-232 133.5,-231.23 128.85,-230.41 124.18,-229.56"/>
<polygon fill="midnightblue" stroke="midnightblue" points="397.38,-275.79 407.78,-273.75 398.38,-268.86 397.38,-275.79"/>
</g>
<!-- Node4 -->
<g id="node4" class="node">
<title>Node4</title>
<g id="a_node4"><a xlink:href="LikelihoodFit_8h.html" target="_top" xlink:title=" ">
<polygon fill="white" stroke="black" points="360,-201.5 360,-231.5 484,-231.5 484,-201.5 360,-201.5"/>
<text text-anchor="start" x="368" y="-219.5" font-family="Helvetica" font-size="10.00">/hosthome/v2.2.0/Fitters</text>
<text text-anchor="middle" x="422" y="-208.5" font-family="Helvetica" font-size="10.00">/LikelihoodFit.h</text>
</a>
</g>
</g>
<!-- Node2&#45;&gt;Node4 -->
<g id="edge3" class="edge">
<title>Node2&#45;&gt;Node4</title>
<path fill="none" stroke="midnightblue" d="M453.5,-260.16C446.5,-250.68 438.56,-239.92 432.39,-231.58"/>
<polygon fill="midnightblue" stroke="midnightblue" points="450.83,-262.43 459.58,-268.4 456.46,-258.27 450.83,-262.43"/>
</g>
<!-- Node6 -->
<g id="node6" class="node">
<title>Node6</title>
<g id="a_node6"><a xlink:href="MaCh3Factory_8h.html" target="_top" xlink:title="Factory methods for MaCh3 software which streamline initialisation of different objects.">
<polygon fill="white" stroke="black" points="218,-67.5 218,-97.5 342,-97.5 342,-67.5 218,-67.5"/>
<text text-anchor="start" x="226" y="-85.5" font-family="Helvetica" font-size="10.00">/hosthome/v2.2.0/Fitters</text>
<text text-anchor="middle" x="280" y="-74.5" font-family="Helvetica" font-size="10.00">/MaCh3Factory.h</text>
</a>
</g>
</g>
<!-- Node2&#45;&gt;Node6 -->
<g id="edge14" class="edge">
<title>Node2&#45;&gt;Node6</title>
<path fill="none" stroke="midnightblue" d="M397.71,-276.59C326.58,-266.49 221.52,-239.13 171,-165 163.24,-153.61 163.58,-145.61 171,-134 182.12,-116.6 200.93,-105.11 219.84,-97.55"/>
<polygon fill="midnightblue" stroke="midnightblue" points="397.57,-280.1 407.95,-277.96 398.5,-273.17 397.57,-280.1"/>
</g>
<!-- Node10 -->
<g id="node10" class="node">
<title>Node10</title>
<g id="a_node10"><a xlink:href="fitters_8cpp.html" target="_top" xlink:title=" ">
<polygon fill="white" stroke="black" points="644.5,-67.5 644.5,-97.5 769.5,-97.5 769.5,-67.5 644.5,-67.5"/>
<text text-anchor="start" x="652.5" y="-85.5" font-family="Helvetica" font-size="10.00">/hosthome/v2.2.0/python</text>
<text text-anchor="middle" x="707" y="-74.5" font-family="Helvetica" font-size="10.00">/fitters.cpp</text>
</a>
</g>
</g>
<!-- Node2&#45;&gt;Node10 -->
<g id="edge19" class="edge">
<title>Node2&#45;&gt;Node10</title>
<path fill="none" stroke="midnightblue" d="M501.81,-262.96C536.26,-241.1 592.06,-203.66 635,-165 658.85,-143.52 682.78,-114.63 696.16,-97.64"/>
<polygon fill="midnightblue" stroke="midnightblue" points="499.71,-260.15 493.11,-268.44 503.43,-266.07 499.71,-260.15"/>
</g>
<!-- Node13 -->
<g id="node13" class="node">
<title>Node13</title>
<g id="a_node13"><a xlink:href="mcmc_8h.html" target="_top" xlink:title=" ">
<polygon fill="white" stroke="black" points="502,-134.5 502,-164.5 626,-164.5 626,-134.5 502,-134.5"/>
<text text-anchor="start" x="510" y="-152.5" font-family="Helvetica" font-size="10.00">/hosthome/v2.2.0/Fitters</text>
<text text-anchor="middle" x="564" y="-141.5" font-family="Helvetica" font-size="10.00">/mcmc.h</text>
</a>
</g>
</g>
<!-- Node2&#45;&gt;Node13 -->
<g id="edge15" class="edge">
<title>Node2&#45;&gt;Node13</title>
<path fill="none" stroke="midnightblue" d="M485.89,-260.19C505.35,-232.86 537.73,-187.38 554.01,-164.52"/>
<polygon fill="midnightblue" stroke="midnightblue" points="483.01,-258.2 480.06,-268.37 488.71,-262.26 483.01,-258.2"/>
</g>
<!-- Node5 -->
<g id="node5" class="node">
<title>Node5</title>
<g id="a_node5"><a xlink:href="LikelihoodFit_8cpp.html" target="_top" xlink:title=" ">
<polygon fill="white" stroke="black" points="180,-134.5 180,-164.5 304,-164.5 304,-134.5 180,-134.5"/>
<text text-anchor="start" x="188" y="-152.5" font-family="Helvetica" font-size="10.00">/hosthome/v2.2.0/Fitters</text>
<text text-anchor="middle" x="242" y="-141.5" font-family="Helvetica" font-size="10.00">/LikelihoodFit.cpp</text>
</a>
</g>
</g>
<!-- Node4&#45;&gt;Node5 -->
<g id="edge4" class="edge">
<title>Node4&#45;&gt;Node5</title>
<path fill="none" stroke="midnightblue" d="M373.41,-197.96C344.42,-187.48 308.09,-174.37 280.98,-164.58"/>
<polygon fill="midnightblue" stroke="midnightblue" points="372.35,-201.29 382.94,-201.4 374.73,-194.71 372.35,-201.29"/>
</g>
<!-- Node4&#45;&gt;Node6 -->
<g id="edge5" class="edge">
<title>Node4&#45;&gt;Node6</title>
<path fill="none" stroke="midnightblue" d="M390.7,-195.59C377.87,-186.84 363.2,-176.06 351,-165 327.36,-143.58 303.81,-114.67 290.65,-97.66"/>
<polygon fill="midnightblue" stroke="midnightblue" points="388.97,-198.65 399.23,-201.3 392.86,-192.83 388.97,-198.65"/>
</g>
<!-- Node8 -->
<g id="node8" class="node">
<title>Node8</title>
<g id="a_node8"><a xlink:href="MinuitFit_8h.html" target="_top" xlink:title=" ">
<polygon fill="white" stroke="black" points="682,-134.5 682,-164.5 806,-164.5 806,-134.5 682,-134.5"/>
<text text-anchor="start" x="690" y="-152.5" font-family="Helvetica" font-size="10.00">/hosthome/v2.2.0/Fitters</text>
<text text-anchor="middle" x="744" y="-141.5" font-family="Helvetica" font-size="10.00">/MinuitFit.h</text>
</a>
</g>
</g>
<!-- Node4&#45;&gt;Node8 -->
<g id="edge7" class="edge">
<title>Node4&#45;&gt;Node8</title>
<path fill="none" stroke="midnightblue" d="M494.01,-200.96C550.43,-189.58 628.1,-173.9 681.83,-163.05"/>
<polygon fill="midnightblue" stroke="midnightblue" points="493.19,-197.56 484.08,-202.97 494.58,-204.42 493.19,-197.56"/>
</g>
<!-- Node11 -->
<g id="node11" class="node">
<title>Node11</title>
<g id="a_node11"><a xlink:href="PSO_8h.html" target="_top" xlink:title=" ">
<polygon fill="white" stroke="black" points="360,-134.5 360,-164.5 484,-164.5 484,-134.5 360,-134.5"/>
<text text-anchor="start" x="368" y="-152.5" font-family="Helvetica" font-size="10.00">/hosthome/v2.2.0/Fitters</text>
<text text-anchor="middle" x="422" y="-141.5" font-family="Helvetica" font-size="10.00">/PSO.h</text>
</a>
</g>
</g>
<!-- Node4&#45;&gt;Node11 -->
<g id="edge10" class="edge">
<title>Node4&#45;&gt;Node11</title>
<path fill="none" stroke="midnightblue" d="M422,-191.11C422,-182.15 422,-172.32 422,-164.58"/>
<polygon fill="midnightblue" stroke="midnightblue" points="418.5,-191.4 422,-201.4 425.5,-191.4 418.5,-191.4"/>
</g>
<!-- Node7 -->
<g id="node7" class="node">
<title>Node7</title>
<g id="a_node7"><a xlink:href="MaCh3Factory_8cpp.html" target="_top" xlink:title=" ">
<polygon fill="white" stroke="black" points="218,-0.5 218,-30.5 342,-30.5 342,-0.5 218,-0.5"/>
<text text-anchor="start" x="226" y="-18.5" font-family="Helvetica" font-size="10.00">/hosthome/v2.2.0/Fitters</text>
<text text-anchor="middle" x="280" y="-7.5" font-family="Helvetica" font-size="10.00">/MaCh3Factory.cpp</text>
</a>
</g>
</g>
<!-- Node6&#45;&gt;Node7 -->
<g id="edge6" class="edge">
<title>Node6&#45;&gt;Node7</title>
<path fill="none" stroke="midnightblue" d="M280,-57.11C280,-48.15 280,-38.32 280,-30.58"/>
<polygon fill="midnightblue" stroke="midnightblue" points="276.5,-57.4 280,-67.4 283.5,-57.4 276.5,-57.4"/>
</g>
<!-- Node9 -->
<g id="node9" class="node">
<title>Node9</title>
<g id="a_node9"><a xlink:href="MinuitFit_8cpp.html" target="_top" xlink:title=" ">
<polygon fill="white" stroke="black" points="788,-67.5 788,-97.5 912,-97.5 912,-67.5 788,-67.5"/>
<text text-anchor="start" x="796" y="-85.5" font-family="Helvetica" font-size="10.00">/hosthome/v2.2.0/Fitters</text>
<text text-anchor="middle" x="850" y="-74.5" font-family="Helvetica" font-size="10.00">/MinuitFit.cpp</text>
</a>
</g>
</g>
<!-- Node8&#45;&gt;Node9 -->
<g id="edge8" class="edge">
<title>Node8&#45;&gt;Node9</title>
<path fill="none" stroke="midnightblue" d="M775.78,-129.02C792.27,-118.9 812.05,-106.77 827.04,-97.58"/>
<polygon fill="midnightblue" stroke="midnightblue" points="773.7,-126.18 767,-134.4 777.35,-132.15 773.7,-126.18"/>
</g>
<!-- Node8&#45;&gt;Node10 -->
<g id="edge9" class="edge">
<title>Node8&#45;&gt;Node10</title>
<path fill="none" stroke="midnightblue" d="M730.95,-125.58C725.64,-116.24 719.66,-105.75 715.01,-97.58"/>
<polygon fill="midnightblue" stroke="midnightblue" points="727.98,-127.44 735.97,-134.4 734.07,-123.97 727.98,-127.44"/>
</g>
<!-- Node11&#45;&gt;Node6 -->
<g id="edge11" class="edge">
<title>Node11&#45;&gt;Node6</title>
<path fill="none" stroke="midnightblue" d="M381.87,-130.13C359.31,-119.8 331.58,-107.11 310.75,-97.58"/>
<polygon fill="midnightblue" stroke="midnightblue" points="380.64,-133.42 391.19,-134.4 383.55,-127.05 380.64,-133.42"/>
</g>
<!-- Node11&#45;&gt;Node10 -->
<g id="edge13" class="edge">
<title>Node11&#45;&gt;Node10</title>
<path fill="none" stroke="midnightblue" d="M493.53,-132.19C540.21,-121.54 600.52,-107.78 645.13,-97.61"/>
<polygon fill="midnightblue" stroke="midnightblue" points="492.46,-128.84 483.49,-134.48 494.02,-135.66 492.46,-128.84"/>
</g>
<!-- Node12 -->
<g id="node12" class="node">
<title>Node12</title>
<g id="a_node12"><a xlink:href="PSO_8cpp.html" target="_top" xlink:title=" ">
<polygon fill="white" stroke="black" points="360,-67.5 360,-97.5 484,-97.5 484,-67.5 360,-67.5"/>
<text text-anchor="start" x="368" y="-85.5" font-family="Helvetica" font-size="10.00">/hosthome/v2.2.0/Fitters</text>
<text text-anchor="middle" x="422" y="-74.5" font-family="Helvetica" font-size="10.00">/PSO.cpp</text>
</a>
</g>
</g>
<!-- Node11&#45;&gt;Node12 -->
<g id="edge12" class="edge">
<title>Node11&#45;&gt;Node12</title>
<path fill="none" stroke="midnightblue" d="M422,-124.11C422,-115.15 422,-105.32 422,-97.58"/>
<polygon fill="midnightblue" stroke="midnightblue" points="418.5,-124.4 422,-134.4 425.5,-124.4 418.5,-124.4"/>
</g>
<!-- Node13&#45;&gt;Node6 -->
<g id="edge16" class="edge">
<title>Node13&#45;&gt;Node6</title>
<path fill="none" stroke="midnightblue" d="M492.72,-132.19C446.21,-121.54 386.1,-107.78 341.65,-97.61"/>
<polygon fill="midnightblue" stroke="midnightblue" points="492.2,-135.66 502.73,-134.48 493.76,-128.83 492.2,-135.66"/>
</g>
<!-- Node13&#45;&gt;Node10 -->
<g id="edge18" class="edge">
<title>Node13&#45;&gt;Node10</title>
<path fill="none" stroke="midnightblue" d="M604.41,-130.13C627.13,-119.8 655.06,-107.11 676.03,-97.58"/>
<polygon fill="midnightblue" stroke="midnightblue" points="602.68,-127.07 595.03,-134.4 605.58,-133.44 602.68,-127.07"/>
</g>
<!-- Node14 -->
<g id="node14" class="node">
<title>Node14</title>
<g id="a_node14"><a xlink:href="mcmc_8cpp.html" target="_top" xlink:title=" ">
<polygon fill="white" stroke="black" points="502,-67.5 502,-97.5 626,-97.5 626,-67.5 502,-67.5"/>
<text text-anchor="start" x="510" y="-85.5" font-family="Helvetica" font-size="10.00">/hosthome/v2.2.0/Fitters</text>
<text text-anchor="middle" x="564" y="-74.5" font-family="Helvetica" font-size="10.00">/mcmc.cpp</text>
</a>
</g>
</g>
<!-- Node13&#45;&gt;Node14 -->
<g id="edge17" class="edge">
<title>Node13&#45;&gt;Node14</title>
<path fill="none" stroke="midnightblue" d="M564,-124.11C564,-115.15 564,-105.32 564,-97.58"/>
<polygon fill="midnightblue" stroke="midnightblue" points="560.5,-124.4 564,-134.4 567.5,-124.4 560.5,-124.4"/>
</g>
<!-- Node17 -->
<g id="node17" class="node">
<title>Node17</title>
<g id="a_node17"><a xlink:href="OscProcessor_8cpp.html" target="_top" xlink:title=" ">
<polygon fill="white" stroke="black" points="682,-201.5 682,-231.5 806,-231.5 806,-201.5 682,-201.5"/>
<text text-anchor="start" x="690" y="-219.5" font-family="Helvetica" font-size="10.00">/hosthome/v2.2.0/Fitters</text>
<text text-anchor="middle" x="744" y="-208.5" font-family="Helvetica" font-size="10.00">/OscProcessor.cpp</text>
</a>
</g>
</g>
<!-- Node16&#45;&gt;Node17 -->
<g id="edge22" class="edge">
<title>Node16&#45;&gt;Node17</title>
<path fill="none" stroke="midnightblue" d="M781.91,-260.74C773.48,-251.12 763.81,-240.09 756.34,-231.58"/>
<polygon fill="midnightblue" stroke="midnightblue" points="779.41,-263.18 788.63,-268.4 784.67,-258.57 779.41,-263.18"/>
</g>
<!-- Node18 -->
<g id="node18" class="node">
<title>Node18</title>
<g id="a_node18"><a xlink:href="ProcessMCMC_8cpp.html" target="_top" xlink:title="Main exectable responsible for different types of MCMC processing like drawing posteriors,...">
<polygon fill="white" stroke="black" points="824.5,-201.5 824.5,-231.5 971.5,-231.5 971.5,-201.5 824.5,-201.5"/>
<text text-anchor="start" x="832.5" y="-219.5" font-family="Helvetica" font-size="10.00">/hosthome/v2.2.0/Diagnostics</text>
<text text-anchor="middle" x="898" y="-208.5" font-family="Helvetica" font-size="10.00">/ProcessMCMC.cpp</text>
</a>
</g>
</g>
<!-- Node16&#45;&gt;Node18 -->
<g id="edge23" class="edge">
<title>Node16&#45;&gt;Node18</title>
<path fill="none" stroke="midnightblue" d="M830.5,-262.73C845.51,-252.68 863.4,-240.68 876.99,-231.58"/>
<polygon fill="midnightblue" stroke="midnightblue" points="828.41,-259.92 822.05,-268.4 832.3,-265.74 828.41,-259.92"/>
</g>
<!-- Node20 -->
<g id="node20" class="node">
<title>Node20</title>
<g id="a_node20"><a xlink:href="SampleSummary_8cpp.html" target="_top" xlink:title=" ">
<polygon fill="white" stroke="black" points="990,-201.5 990,-231.5 1114,-231.5 1114,-201.5 990,-201.5"/>
<text text-anchor="start" x="998" y="-219.5" font-family="Helvetica" font-size="10.00">/hosthome/v2.2.0/Fitters</text>
<text text-anchor="middle" x="1052" y="-208.5" font-family="Helvetica" font-size="10.00">/SampleSummary.cpp</text>
</a>
</g>
</g>
<!-- Node19&#45;&gt;Node20 -->
<g id="edge25" class="edge">
<title>Node19&#45;&gt;Node20</title>
<path fill="none" stroke="midnightblue" d="M975.67,-263.02C992.64,-252.9 1012.98,-240.77 1028.39,-231.58"/>
<polygon fill="midnightblue" stroke="midnightblue" points="973.45,-260.27 966.65,-268.4 977.03,-266.28 973.45,-260.27"/>
</g>
<!-- Node24 -->
<g id="node24" class="node">
<title>Node24</title>
<g id="a_node24"><a xlink:href="inputManager_8cpp.html" target="_top" xlink:title=" ">
<polygon fill="white" stroke="black" points="1178,-201.5 1178,-231.5 1330,-231.5 1330,-201.5 1178,-201.5"/>
<text text-anchor="start" x="1186" y="-219.5" font-family="Helvetica" font-size="10.00">/hosthome/v2.2.0/Plotting</text>
<text text-anchor="middle" x="1254" y="-208.5" font-family="Helvetica" font-size="10.00">/plottingUtils/inputManager.cpp</text>
</a>
</g>
</g>
<!-- Node23&#45;&gt;Node24 -->
<g id="edge29" class="edge">
<title>Node23&#45;&gt;Node24</title>
<path fill="none" stroke="midnightblue" d="M1377.76,-264.82C1350.43,-254.37 1316.31,-241.32 1290.82,-231.58"/>
<polygon fill="midnightblue" stroke="midnightblue" points="1376.52,-268.09 1387.11,-268.4 1379.02,-261.56 1376.52,-268.09"/>
</g>
<!-- Node25 -->
<g id="node25" class="node">
<title>Node25</title>
<g id="a_node25"><a xlink:href="plottingManager_8h.html" target="_top" xlink:title=" ">
<polygon fill="white" stroke="black" points="1348,-201.5 1348,-231.5 1500,-231.5 1500,-201.5 1348,-201.5"/>
<text text-anchor="start" x="1356" y="-219.5" font-family="Helvetica" font-size="10.00">/hosthome/v2.2.0/Plotting</text>
<text text-anchor="middle" x="1424" y="-208.5" font-family="Helvetica" font-size="10.00">/plottingUtils/plottingManager.h</text>
</a>
</g>
</g>
<!-- Node23&#45;&gt;Node25 -->
<g id="edge30" class="edge">
<title>Node23&#45;&gt;Node25</title>
<path fill="none" stroke="midnightblue" d="M1424,-258.11C1424,-249.15 1424,-239.32 1424,-231.58"/>
<polygon fill="midnightblue" stroke="midnightblue" points="1420.5,-258.4 1424,-268.4 1427.5,-258.4 1420.5,-258.4"/>
</g>
<!-- Node30 -->
<g id="node30" class="node">
<title>Node30</title>
<g id="a_node30"><a xlink:href="plotting_8cpp.html" target="_top" xlink:title=" ">
<polygon fill="white" stroke="black" points="1631.5,-134.5 1631.5,-164.5 1756.5,-164.5 1756.5,-134.5 1631.5,-134.5"/>
<text text-anchor="start" x="1639.5" y="-152.5" font-family="Helvetica" font-size="10.00">/hosthome/v2.2.0/python</text>
<text text-anchor="middle" x="1694" y="-141.5" font-family="Helvetica" font-size="10.00">/plotting.cpp</text>
</a>
</g>
</g>
<!-- Node23&#45;&gt;Node30 -->
<g id="edge36" class="edge">
<title>Node23&#45;&gt;Node30</title>
<path fill="none" stroke="midnightblue" d="M1461.64,-264.1C1516.22,-237.42 1616.16,-188.55 1665.25,-164.56"/>
<polygon fill="midnightblue" stroke="midnightblue" points="1460.09,-260.96 1452.64,-268.5 1463.16,-267.25 1460.09,-260.96"/>
</g>
<!-- Node26 -->
<g id="node26" class="node">
<title>Node26</title>
<g id="a_node26"><a xlink:href="GetPostfitParamPlots_8cpp.html" target="_top" xlink:title=" ">
<polygon fill="white" stroke="black" points="1007,-134.5 1007,-164.5 1141,-164.5 1141,-134.5 1007,-134.5"/>
<text text-anchor="start" x="1015" y="-152.5" font-family="Helvetica" font-size="10.00">/hosthome/v2.2.0/Plotting</text>
<text text-anchor="middle" x="1074" y="-141.5" font-family="Helvetica" font-size="10.00">/GetPostfitParamPlots.cpp</text>
</a>
</g>
</g>
<!-- Node25&#45;&gt;Node26 -->
<g id="edge31" class="edge">
<title>Node25&#45;&gt;Node26</title>
<path fill="none" stroke="midnightblue" d="M1337.92,-199.78C1283.93,-189.88 1212.88,-176.79 1150,-165 1147.1,-164.46 1144.13,-163.9 1141.13,-163.33"/>
<polygon fill="midnightblue" stroke="midnightblue" points="1337.33,-203.23 1347.79,-201.59 1338.59,-196.34 1337.33,-203.23"/>
</g>
<!-- Node27 -->
<g id="node27" class="node">
<title>Node27</title>
<g id="a_node27"><a xlink:href="MatrixPlotter_8cpp.html" target="_top" xlink:title=" ">
<polygon fill="white" stroke="black" points="1159,-134.5 1159,-164.5 1287,-164.5 1287,-134.5 1159,-134.5"/>
<text text-anchor="start" x="1167" y="-152.5" font-family="Helvetica" font-size="10.00">/hosthome/v2.2.0/Plotting</text>
<text text-anchor="middle" x="1223" y="-141.5" font-family="Helvetica" font-size="10.00">/MatrixPlotter.cpp</text>
</a>
</g>
</g>
<!-- Node25&#45;&gt;Node27 -->
<g id="edge32" class="edge">
<title>Node25&#45;&gt;Node27</title>
<path fill="none" stroke="midnightblue" d="M1370.59,-198.23C1338.07,-187.71 1297.06,-174.45 1266.53,-164.58"/>
<polygon fill="midnightblue" stroke="midnightblue" points="1369.79,-201.65 1380.39,-201.4 1371.95,-194.99 1369.79,-201.65"/>
</g>
<!-- Node28 -->
<g id="node28" class="node">
<title>Node28</title>
<g id="a_node28"><a xlink:href="PlotLLH_8cpp.html" target="_top" xlink:title=" ">
<polygon fill="white" stroke="black" points="1305,-134.5 1305,-164.5 1433,-164.5 1433,-134.5 1305,-134.5"/>
<text text-anchor="start" x="1313" y="-152.5" font-family="Helvetica" font-size="10.00">/hosthome/v2.2.0/Plotting</text>
<text text-anchor="middle" x="1369" y="-141.5" font-family="Helvetica" font-size="10.00">/PlotLLH.cpp</text>
</a>
</g>
</g>
<!-- Node25&#45;&gt;Node28 -->
<g id="edge33" class="edge">
<title>Node25&#45;&gt;Node28</title>
<path fill="none" stroke="midnightblue" d="M1405.58,-193.74C1397.45,-184.12 1388.11,-173.09 1380.91,-164.58"/>
<polygon fill="midnightblue" stroke="midnightblue" points="1402.93,-196.02 1412.07,-201.4 1408.28,-191.5 1402.93,-196.02"/>
</g>
<!-- Node29 -->
<g id="node29" class="node">
<title>Node29</title>
<g id="a_node29"><a xlink:href="plottingManager_8cpp.html" target="_top" xlink:title=" ">
<polygon fill="white" stroke="black" points="1451,-134.5 1451,-164.5 1613,-164.5 1613,-134.5 1451,-134.5"/>
<text text-anchor="start" x="1459" y="-152.5" font-family="Helvetica" font-size="10.00">/hosthome/v2.2.0/Plotting</text>
<text text-anchor="middle" x="1532" y="-141.5" font-family="Helvetica" font-size="10.00">/plottingUtils/plottingManager.cpp</text>
</a>
</g>
</g>
<!-- Node25&#45;&gt;Node29 -->
<g id="edge34" class="edge">
<title>Node25&#45;&gt;Node29</title>
<path fill="none" stroke="midnightblue" d="M1456.37,-196.02C1473.18,-185.9 1493.34,-173.77 1508.61,-164.58"/>
<polygon fill="midnightblue" stroke="midnightblue" points="1454.2,-193.24 1447.43,-201.4 1457.81,-199.24 1454.2,-193.24"/>
</g>
<!-- Node25&#45;&gt;Node30 -->
<g id="edge35" class="edge">
<title>Node25&#45;&gt;Node30</title>
<path fill="none" stroke="midnightblue" d="M1492.05,-199.12C1536.23,-188.48 1593.22,-174.76 1635.39,-164.61"/>
<polygon fill="midnightblue" stroke="midnightblue" points="1491.16,-195.73 1482.25,-201.48 1492.8,-202.54 1491.16,-195.73"/>
</g>
</g>
</svg>
