<?xml version="1.0" encoding="UTF-8" standalone="no"?>
<!DOCTYPE svg PUBLIC "-//W3C//DTD SVG 1.1//EN"
 "http://www.w3.org/Graphics/SVG/1.1/DTD/svg11.dtd">
<!-- Generated by graphviz version 2.44.0 (0)
 -->
<!-- Title: /hosthome/v2.2.0/Samples/SampleStructs.h Pages: 1 -->
<svg width="1032pt" height="263pt"
 viewBox="0.00 0.00 1031.50 263.00" xmlns="http://www.w3.org/2000/svg" xmlns:xlink="http://www.w3.org/1999/xlink">
<g id="graph0" class="graph" transform="scale(1 1) rotate(0) translate(4 259)">
<title>/hosthome/v2.2.0/Samples/SampleStructs.h</title>
<polygon fill="white" stroke="transparent" points="-4,4 -4,-259 1027.5,-259 1027.5,4 -4,4"/>
<!-- Node1 -->
<g id="node1" class="node">
<title>Node1</title>
<g id="a_node1"><a xlink:title=" ">
<polygon fill="#bfbfbf" stroke="black" points="393,-224.5 393,-254.5 527,-254.5 527,-224.5 393,-224.5"/>
<text text-anchor="start" x="401" y="-242.5" font-family="Helvetica" font-size="10.00">/hosthome/v2.2.0/Samples</text>
<text text-anchor="middle" x="460" y="-231.5" font-family="Helvetica" font-size="10.00">/SampleStructs.h</text>
</a>
</g>
</g>
<!-- Node2 -->
<g id="node2" class="node">
<title>Node2</title>
<g id="a_node2"><a xlink:title=" ">
<polygon fill="white" stroke="#bfbfbf" points="0,-168.5 0,-187.5 30,-187.5 30,-168.5 0,-168.5"/>
<text text-anchor="middle" x="15" y="-175.5" font-family="Helvetica" font-size="10.00">set</text>
</a>
</g>
</g>
<!-- Node1&#45;&gt;Node2 -->
<g id="edge1" class="edge">
<title>Node1&#45;&gt;Node2</title>
<path fill="none" stroke="midnightblue" d="M392.77,-235.4C311.04,-230.53 169.09,-218.53 40.12,-187.72"/>
<polygon fill="midnightblue" stroke="midnightblue" points="40.61,-184.24 30.06,-185.27 38.95,-191.04 40.61,-184.24"/>
</g>
<!-- Node3 -->
<g id="node3" class="node">
<title>Node3</title>
<g id="a_node3"><a xlink:title=" ">
<polygon fill="white" stroke="#bfbfbf" points="48.5,-168.5 48.5,-187.5 77.5,-187.5 77.5,-168.5 48.5,-168.5"/>
<text text-anchor="middle" x="63" y="-175.5" font-family="Helvetica" font-size="10.00">list</text>
</a>
</g>
</g>
<!-- Node1&#45;&gt;Node3 -->
<g id="edge2" class="edge">
<title>Node1&#45;&gt;Node3</title>
<path fill="none" stroke="midnightblue" d="M392.87,-234.28C319.5,-228.59 198.62,-216.05 87.92,-188.01"/>
<polygon fill="midnightblue" stroke="midnightblue" points="88.48,-184.54 77.92,-185.43 86.73,-191.32 88.48,-184.54"/>
</g>
<!-- Node4 -->
<g id="node4" class="node">
<title>Node4</title>
<g id="a_node4"><a xlink:title=" ">
<polygon fill="white" stroke="#bfbfbf" points="95.5,-168.5 95.5,-187.5 178.5,-187.5 178.5,-168.5 95.5,-168.5"/>
<text text-anchor="middle" x="137" y="-175.5" font-family="Helvetica" font-size="10.00">unordered_map</text>
</a>
</g>
</g>
<!-- Node1&#45;&gt;Node4 -->
<g id="edge3" class="edge">
<title>Node1&#45;&gt;Node4</title>
<path fill="none" stroke="midnightblue" d="M392.68,-226.1C331.94,-214.91 243.87,-198.69 188.56,-188.5"/>
<polygon fill="midnightblue" stroke="midnightblue" points="189.09,-185.04 178.62,-186.67 187.82,-191.92 189.09,-185.04"/>
</g>
<!-- Node5 -->
<g id="node5" class="node">
<title>Node5</title>
<g id="a_node5"><a xlink:href="MaCh3Exception_8h.html" target="_top" xlink:title=" ">
<polygon fill="white" stroke="black" points="197,-168.5 197,-187.5 337,-187.5 337,-168.5 197,-168.5"/>
<text text-anchor="middle" x="267" y="-175.5" font-family="Helvetica" font-size="10.00">Manager/MaCh3Exception.h</text>
</a>
</g>
</g>
<!-- Node1&#45;&gt;Node5 -->
<g id="edge4" class="edge">
<title>Node1&#45;&gt;Node5</title>
<path fill="none" stroke="midnightblue" d="M414.26,-224.4C380.77,-214.07 335.87,-200.23 304.48,-190.56"/>
<polygon fill="midnightblue" stroke="midnightblue" points="305.39,-187.17 294.8,-187.57 303.33,-193.86 305.39,-187.17"/>
</g>
<!-- Node9 -->
<g id="node9" class="node">
<title>Node9</title>
<g id="a_node9"><a xlink:href="MaCh3Logger_8h.html" target="_top" xlink:title="KS: Based on this https://github.com/gabime/spdlog/blob/a2b4262090fd3f005c2315dcb5be2f0f1774a005/incl...">
<polygon fill="white" stroke="black" points="211,-112.5 211,-131.5 337,-131.5 337,-112.5 211,-112.5"/>
<text text-anchor="middle" x="274" y="-119.5" font-family="Helvetica" font-size="10.00">Manager/MaCh3Logger.h</text>
</a>
</g>
</g>
<!-- Node1&#45;&gt;Node9 -->
<g id="edge24" class="edge">
<title>Node1&#45;&gt;Node9</title>
<path fill="none" stroke="midnightblue" d="M437.19,-224.34C401.4,-202.11 332.42,-159.28 296.7,-137.09"/>
<polygon fill="midnightblue" stroke="midnightblue" points="298.3,-133.97 287.96,-131.67 294.61,-139.92 298.3,-133.97"/>
</g>
<!-- Node13 -->
<g id="node13" class="node">
<title>Node13</title>
<g id="a_node13"><a xlink:href="Core_8h.html" target="_top" xlink:title=" ">
<polygon fill="white" stroke="black" points="478,-56.5 478,-75.5 564,-75.5 564,-56.5 478,-56.5"/>
<text text-anchor="middle" x="521" y="-63.5" font-family="Helvetica" font-size="10.00">Manager/Core.h</text>
</a>
</g>
</g>
<!-- Node1&#45;&gt;Node13 -->
<g id="edge25" class="edge">
<title>Node1&#45;&gt;Node13</title>
<path fill="none" stroke="midnightblue" d="M443.91,-224.36C430.12,-210.43 413.69,-188.34 422,-168 437.47,-130.11 474.78,-98.74 498.92,-81.46"/>
<polygon fill="midnightblue" stroke="midnightblue" points="501.22,-84.12 507.45,-75.55 497.24,-78.37 501.22,-84.12"/>
</g>
<!-- Node20 -->
<g id="node20" class="node">
<title>Node20</title>
<g id="a_node20"><a xlink:title=" ">
<polygon fill="white" stroke="#bfbfbf" points="431,-168.5 431,-187.5 489,-187.5 489,-168.5 431,-168.5"/>
<text text-anchor="middle" x="460" y="-175.5" font-family="Helvetica" font-size="10.00">TSpline.h</text>
</a>
</g>
</g>
<!-- Node1&#45;&gt;Node20 -->
<g id="edge26" class="edge">
<title>Node1&#45;&gt;Node20</title>
<path fill="none" stroke="midnightblue" d="M460,-224.4C460,-216.47 460,-206.46 460,-197.86"/>
<polygon fill="midnightblue" stroke="midnightblue" points="463.5,-197.66 460,-187.66 456.5,-197.66 463.5,-197.66"/>
</g>
<!-- Node21 -->
<g id="node21" class="node">
<title>Node21</title>
<g id="a_node21"><a xlink:title=" ">
<polygon fill="white" stroke="#bfbfbf" points="507.5,-168.5 507.5,-187.5 578.5,-187.5 578.5,-168.5 507.5,-168.5"/>
<text text-anchor="middle" x="543" y="-175.5" font-family="Helvetica" font-size="10.00">TObjString.h</text>
</a>
</g>
</g>
<!-- Node1&#45;&gt;Node21 -->
<g id="edge27" class="edge">
<title>Node1&#45;&gt;Node21</title>
<path fill="none" stroke="midnightblue" d="M479.67,-224.4C492.6,-215.13 509.49,-203.03 522.57,-193.65"/>
<polygon fill="midnightblue" stroke="midnightblue" points="524.83,-196.33 530.92,-187.66 520.76,-190.64 524.83,-196.33"/>
</g>
<!-- Node22 -->
<g id="node22" class="node">
<title>Node22</title>
<g id="a_node22"><a xlink:title=" ">
<polygon fill="white" stroke="#bfbfbf" points="596.5,-168.5 596.5,-187.5 643.5,-187.5 643.5,-168.5 596.5,-168.5"/>
<text text-anchor="middle" x="620" y="-175.5" font-family="Helvetica" font-size="10.00">TFile.h</text>
</a>
</g>
</g>
<!-- Node1&#45;&gt;Node22 -->
<g id="edge28" class="edge">
<title>Node1&#45;&gt;Node22</title>
<path fill="none" stroke="midnightblue" d="M497.92,-224.4C525.12,-214.28 561.4,-200.79 587.33,-191.15"/>
<polygon fill="midnightblue" stroke="midnightblue" points="588.57,-194.42 596.72,-187.66 586.13,-187.86 588.57,-194.42"/>
</g>
<!-- Node23 -->
<g id="node23" class="node">
<title>Node23</title>
<g id="a_node23"><a xlink:title=" ">
<polygon fill="white" stroke="#bfbfbf" points="662,-168.5 662,-187.5 704,-187.5 704,-168.5 662,-168.5"/>
<text text-anchor="middle" x="683" y="-175.5" font-family="Helvetica" font-size="10.00">TF1.h</text>
</a>
</g>
</g>
<!-- Node1&#45;&gt;Node23 -->
<g id="edge29" class="edge">
<title>Node1&#45;&gt;Node23</title>
<path fill="none" stroke="midnightblue" d="M515.88,-224.44C552.16,-215.18 600.68,-202.56 651.81,-188.27"/>
<polygon fill="midnightblue" stroke="midnightblue" points="653.04,-191.56 661.72,-185.49 651.15,-184.82 653.04,-191.56"/>
</g>
<!-- Node24 -->
<g id="node24" class="node">
<title>Node24</title>
<g id="a_node24"><a xlink:title=" ">
<polygon fill="white" stroke="#bfbfbf" points="722,-168.5 722,-187.5 784,-187.5 784,-168.5 722,-168.5"/>
<text text-anchor="middle" x="753" y="-175.5" font-family="Helvetica" font-size="10.00">TH2Poly.h</text>
</a>
</g>
</g>
<!-- Node1&#45;&gt;Node24 -->
<g id="edge30" class="edge">
<title>Node1&#45;&gt;Node24</title>
<path fill="none" stroke="midnightblue" d="M527.21,-225.55C575.85,-216.06 643.43,-202.67 711.53,-188.28"/>
<polygon fill="midnightblue" stroke="midnightblue" points="712.52,-191.65 721.57,-186.15 711.06,-184.8 712.52,-191.65"/>
</g>
<!-- Node25 -->
<g id="node25" class="node">
<title>Node25</title>
<g id="a_node25"><a xlink:title=" ">
<polygon fill="white" stroke="#bfbfbf" points="802,-168.5 802,-187.5 846,-187.5 846,-168.5 802,-168.5"/>
<text text-anchor="middle" x="824" y="-175.5" font-family="Helvetica" font-size="10.00">TH1.h</text>
</a>
</g>
</g>
<!-- Node1&#45;&gt;Node25 -->
<g id="edge31" class="edge">
<title>Node1&#45;&gt;Node25</title>
<path fill="none" stroke="midnightblue" d="M527.13,-230.96C592.48,-223.03 694.71,-209.04 791.76,-188.03"/>
<polygon fill="midnightblue" stroke="midnightblue" points="792.72,-191.41 801.74,-185.84 791.22,-184.57 792.72,-191.41"/>
</g>
<!-- Node26 -->
<g id="node26" class="node">
<title>Node26</title>
<g id="a_node26"><a xlink:title=" ">
<polygon fill="white" stroke="#bfbfbf" points="864.5,-168.5 864.5,-187.5 1023.5,-187.5 1023.5,-168.5 864.5,-168.5"/>
<text text-anchor="middle" x="944" y="-175.5" font-family="Helvetica" font-size="10.00">Constants/OscillatorConstants.h</text>
</a>
</g>
</g>
<!-- Node1&#45;&gt;Node26 -->
<g id="edge32" class="edge">
<title>Node1&#45;&gt;Node26</title>
<path fill="none" stroke="midnightblue" d="M527.04,-230.26C615.44,-219.39 770.74,-200.3 864.81,-188.73"/>
<polygon fill="midnightblue" stroke="midnightblue" points="865.35,-192.2 874.85,-187.5 864.5,-185.25 865.35,-192.2"/>
</g>
<!-- Node6 -->
<g id="node6" class="node">
<title>Node6</title>
<g id="a_node6"><a xlink:title=" ">
<polygon fill="white" stroke="#bfbfbf" points="127,-0.5 127,-19.5 181,-19.5 181,-0.5 127,-0.5"/>
<text text-anchor="middle" x="154" y="-7.5" font-family="Helvetica" font-size="10.00">iostream</text>
</a>
</g>
</g>
<!-- Node5&#45;&gt;Node6 -->
<g id="edge5" class="edge">
<title>Node5&#45;&gt;Node6</title>
<path fill="none" stroke="midnightblue" d="M196.98,-168.6C167.52,-162.3 134.29,-151.28 109,-132 79.57,-109.57 56.4,-87.99 75,-56 84.2,-40.18 101.27,-29.46 117.19,-22.46"/>
<polygon fill="midnightblue" stroke="midnightblue" points="118.9,-25.55 126.88,-18.58 116.29,-19.05 118.9,-25.55"/>
</g>
<!-- Node7 -->
<g id="node7" class="node">
<title>Node7</title>
<g id="a_node7"><a xlink:title=" ">
<polygon fill="white" stroke="#bfbfbf" points="84.5,-56.5 84.5,-75.5 125.5,-75.5 125.5,-56.5 84.5,-56.5"/>
<text text-anchor="middle" x="105" y="-63.5" font-family="Helvetica" font-size="10.00">string</text>
</a>
</g>
</g>
<!-- Node5&#45;&gt;Node7 -->
<g id="edge6" class="edge">
<title>Node5&#45;&gt;Node7</title>
<path fill="none" stroke="midnightblue" d="M196.77,-168.96C170.88,-162.7 143.22,-151.61 124,-132 112.05,-119.81 107.55,-100.54 105.88,-86.14"/>
<polygon fill="midnightblue" stroke="midnightblue" points="109.35,-85.56 105.07,-75.87 102.37,-86.11 109.35,-85.56"/>
</g>
<!-- Node8 -->
<g id="node8" class="node">
<title>Node8</title>
<g id="a_node8"><a xlink:title=" ">
<polygon fill="white" stroke="#bfbfbf" points="133.5,-112.5 133.5,-131.5 192.5,-131.5 192.5,-112.5 133.5,-112.5"/>
<text text-anchor="middle" x="163" y="-119.5" font-family="Helvetica" font-size="10.00">stdexcept</text>
</a>
</g>
</g>
<!-- Node5&#45;&gt;Node8 -->
<g id="edge7" class="edge">
<title>Node5&#45;&gt;Node8</title>
<path fill="none" stroke="midnightblue" d="M250.29,-168.32C233.69,-159.7 208,-146.36 188.78,-136.39"/>
<polygon fill="midnightblue" stroke="midnightblue" points="190.16,-133.16 179.67,-131.65 186.93,-139.37 190.16,-133.16"/>
</g>
<!-- Node5&#45;&gt;Node9 -->
<g id="edge8" class="edge">
<title>Node5&#45;&gt;Node9</title>
<path fill="none" stroke="midnightblue" d="M268.16,-168.08C269.08,-160.93 270.42,-150.64 271.58,-141.69"/>
<polygon fill="midnightblue" stroke="midnightblue" points="275.05,-142.12 272.87,-131.75 268.11,-141.22 275.05,-142.12"/>
</g>
<!-- Node5&#45;&gt;Node13 -->
<g id="edge23" class="edge">
<title>Node5&#45;&gt;Node13</title>
<path fill="none" stroke="midnightblue" d="M281.27,-168.42C303.68,-155.18 348.7,-129.47 389,-112 419.53,-98.76 455.33,-86.77 481.93,-78.5"/>
<polygon fill="midnightblue" stroke="midnightblue" points="483.12,-81.8 491.65,-75.52 481.06,-75.1 483.12,-81.8"/>
</g>
<!-- Node9&#45;&gt;Node6 -->
<g id="edge9" class="edge">
<title>Node9&#45;&gt;Node6</title>
<path fill="none" stroke="midnightblue" d="M257.6,-112.35C242.91,-104.14 221.24,-90.88 205,-76 189.36,-61.67 174.77,-42.21 165.24,-28.32"/>
<polygon fill="midnightblue" stroke="midnightblue" points="167.96,-26.1 159.5,-19.73 162.14,-29.99 167.96,-26.1"/>
</g>
<!-- Node9&#45;&gt;Node7 -->
<g id="edge12" class="edge">
<title>Node9&#45;&gt;Node7</title>
<path fill="none" stroke="midnightblue" d="M247.22,-112.44C216.74,-102.7 167.05,-86.83 135.2,-76.65"/>
<polygon fill="midnightblue" stroke="midnightblue" points="136.13,-73.27 125.54,-73.56 134,-79.94 136.13,-73.27"/>
</g>
<!-- Node10 -->
<g id="node10" class="node">
<title>Node10</title>
<g id="a_node10"><a xlink:title=" ">
<polygon fill="white" stroke="#bfbfbf" points="248,-0.5 248,-19.5 300,-19.5 300,-0.5 248,-0.5"/>
<text text-anchor="middle" x="274" y="-7.5" font-family="Helvetica" font-size="10.00">sstream</text>
</a>
</g>
</g>
<!-- Node9&#45;&gt;Node10 -->
<g id="edge10" class="edge">
<title>Node9&#45;&gt;Node10</title>
<path fill="none" stroke="midnightblue" d="M253.15,-112.43C238.42,-105.13 219.8,-93.09 211,-76 200.18,-54.97 223.85,-36.2 245.21,-24.3"/>
<polygon fill="midnightblue" stroke="midnightblue" points="246.87,-27.38 254.11,-19.64 243.63,-21.18 246.87,-27.38"/>
</g>
<!-- Node11 -->
<g id="node11" class="node">
<title>Node11</title>
<g id="a_node11"><a xlink:title=" ">
<polygon fill="white" stroke="#bfbfbf" points="220.5,-56.5 220.5,-75.5 279.5,-75.5 279.5,-56.5 220.5,-56.5"/>
<text text-anchor="middle" x="250" y="-63.5" font-family="Helvetica" font-size="10.00">functional</text>
</a>
</g>
</g>
<!-- Node9&#45;&gt;Node11 -->
<g id="edge11" class="edge">
<title>Node9&#45;&gt;Node11</title>
<path fill="none" stroke="midnightblue" d="M270.04,-112.08C266.79,-104.77 262.08,-94.18 258.05,-85.1"/>
<polygon fill="midnightblue" stroke="midnightblue" points="261.15,-83.47 253.89,-75.75 254.75,-86.31 261.15,-83.47"/>
</g>
<!-- Node12 -->
<g id="node12" class="node">
<title>Node12</title>
<g id="a_node12"><a xlink:title=" ">
<polygon fill="white" stroke="#bfbfbf" points="298,-56.5 298,-75.5 356,-75.5 356,-56.5 298,-56.5"/>
<text text-anchor="middle" x="327" y="-63.5" font-family="Helvetica" font-size="10.00">exception</text>
</a>
</g>
</g>
<!-- Node9&#45;&gt;Node12 -->
<g id="edge13" class="edge">
<title>Node9&#45;&gt;Node12</title>
<path fill="none" stroke="midnightblue" d="M282.75,-112.08C290.47,-104.22 301.9,-92.57 311.22,-83.08"/>
<polygon fill="midnightblue" stroke="midnightblue" points="313.9,-85.34 318.41,-75.75 308.91,-80.44 313.9,-85.34"/>
</g>
<!-- Node9&#45;&gt;Node13 -->
<g id="edge14" class="edge">
<title>Node9&#45;&gt;Node13</title>
<path fill="none" stroke="midnightblue" d="M313.14,-112.44C356.23,-103.02 425.56,-87.87 472.17,-77.68"/>
<polygon fill="midnightblue" stroke="midnightblue" points="473.02,-81.07 482.05,-75.52 471.53,-74.23 473.02,-81.07"/>
</g>
<!-- Node19 -->
<g id="node19" class="node">
<title>Node19</title>
<g id="a_node19"><a xlink:title=" ">
<polygon fill="white" stroke="#bfbfbf" points="374.5,-56.5 374.5,-75.5 459.5,-75.5 459.5,-56.5 374.5,-56.5"/>
<text text-anchor="middle" x="417" y="-63.5" font-family="Helvetica" font-size="10.00">spdlog/spdlog.h</text>
</a>
</g>
</g>
<!-- Node9&#45;&gt;Node19 -->
<g id="edge22" class="edge">
<title>Node9&#45;&gt;Node19</title>
<path fill="none" stroke="midnightblue" d="M296.66,-112.44C320.4,-103.48 357.91,-89.31 384.74,-79.18"/>
<polygon fill="midnightblue" stroke="midnightblue" points="386.33,-82.32 394.45,-75.52 383.86,-75.77 386.33,-82.32"/>
</g>
<!-- Node13&#45;&gt;Node6 -->
<g id="edge17" class="edge">
<title>Node13&#45;&gt;Node6</title>
<path fill="none" stroke="midnightblue" d="M477.89,-57.44C474.88,-56.94 471.9,-56.46 469,-56 368.62,-40.15 249.85,-23.84 190.95,-15.92"/>
<polygon fill="midnightblue" stroke="midnightblue" points="191.38,-12.45 181.01,-14.59 190.45,-19.38 191.38,-12.45"/>
</g>
<!-- Node13&#45;&gt;Node10 -->
<g id="edge15" class="edge">
<title>Node13&#45;&gt;Node10</title>
<path fill="none" stroke="midnightblue" d="M481.86,-56.44C434.56,-46.1 355.64,-28.85 309.86,-18.84"/>
<polygon fill="midnightblue" stroke="midnightblue" points="310.59,-15.42 300.07,-16.7 309.1,-22.26 310.59,-15.42"/>
</g>
<!-- Node14 -->
<g id="node14" class="node">
<title>Node14</title>
<g id="a_node14"><a xlink:title=" ">
<polygon fill="white" stroke="#bfbfbf" points="366,-0.5 366,-19.5 416,-19.5 416,-0.5 366,-0.5"/>
<text text-anchor="middle" x="391" y="-7.5" font-family="Helvetica" font-size="10.00">fstream</text>
</a>
</g>
</g>
<!-- Node13&#45;&gt;Node14 -->
<g id="edge16" class="edge">
<title>Node13&#45;&gt;Node14</title>
<path fill="none" stroke="midnightblue" d="M500.4,-56.44C479.01,-47.56 445.32,-33.56 420.98,-23.45"/>
<polygon fill="midnightblue" stroke="midnightblue" points="422.08,-20.12 411.5,-19.52 419.39,-26.58 422.08,-20.12"/>
</g>
<!-- Node15 -->
<g id="node15" class="node">
<title>Node15</title>
<g id="a_node15"><a xlink:title=" ">
<polygon fill="white" stroke="#bfbfbf" points="434.5,-0.5 434.5,-19.5 477.5,-19.5 477.5,-0.5 434.5,-0.5"/>
<text text-anchor="middle" x="456" y="-7.5" font-family="Helvetica" font-size="10.00">vector</text>
</a>
</g>
</g>
<!-- Node13&#45;&gt;Node15 -->
<g id="edge18" class="edge">
<title>Node13&#45;&gt;Node15</title>
<path fill="none" stroke="midnightblue" d="M510.56,-56.32C500.85,-48.26 486.18,-36.08 474.5,-26.37"/>
<polygon fill="midnightblue" stroke="midnightblue" points="476.56,-23.53 466.63,-19.83 472.09,-28.92 476.56,-23.53"/>
</g>
<!-- Node16 -->
<g id="node16" class="node">
<title>Node16</title>
<g id="a_node16"><a xlink:title=" ">
<polygon fill="white" stroke="#bfbfbf" points="496,-0.5 496,-19.5 546,-19.5 546,-0.5 496,-0.5"/>
<text text-anchor="middle" x="521" y="-7.5" font-family="Helvetica" font-size="10.00">iomanip</text>
</a>
</g>
</g>
<!-- Node13&#45;&gt;Node16 -->
<g id="edge19" class="edge">
<title>Node13&#45;&gt;Node16</title>
<path fill="none" stroke="midnightblue" d="M521,-56.08C521,-49.01 521,-38.86 521,-29.99"/>
<polygon fill="midnightblue" stroke="midnightblue" points="524.5,-29.75 521,-19.75 517.5,-29.75 524.5,-29.75"/>
</g>
<!-- Node17 -->
<g id="node17" class="node">
<title>Node17</title>
<g id="a_node17"><a xlink:title=" ">
<polygon fill="white" stroke="#bfbfbf" points="564,-0.5 564,-19.5 608,-19.5 608,-0.5 564,-0.5"/>
<text text-anchor="middle" x="586" y="-7.5" font-family="Helvetica" font-size="10.00">cmath</text>
</a>
</g>
</g>
<!-- Node13&#45;&gt;Node17 -->
<g id="edge20" class="edge">
<title>Node13&#45;&gt;Node17</title>
<path fill="none" stroke="midnightblue" d="M531.44,-56.32C541.15,-48.26 555.82,-36.08 567.5,-26.37"/>
<polygon fill="midnightblue" stroke="midnightblue" points="569.91,-28.92 575.37,-19.83 565.44,-23.53 569.91,-28.92"/>
</g>
<!-- Node18 -->
<g id="node18" class="node">
<title>Node18</title>
<g id="a_node18"><a xlink:title=" ">
<polygon fill="white" stroke="#bfbfbf" points="626,-0.5 626,-19.5 666,-19.5 666,-0.5 626,-0.5"/>
<text text-anchor="middle" x="646" y="-7.5" font-family="Helvetica" font-size="10.00">limits</text>
</a>
</g>
</g>
<!-- Node13&#45;&gt;Node18 -->
<g id="edge21" class="edge">
<title>Node13&#45;&gt;Node18</title>
<path fill="none" stroke="midnightblue" d="M540.81,-56.44C561.29,-47.6 593.48,-33.69 616.86,-23.59"/>
<polygon fill="midnightblue" stroke="midnightblue" points="618.49,-26.7 626.29,-19.52 615.72,-20.27 618.49,-26.7"/>
</g>
</g>
</svg>
