<?xml version="1.0" encoding="UTF-8" standalone="no"?>
<!DOCTYPE svg PUBLIC "-//W3C//DTD SVG 1.1//EN"
 "http://www.w3.org/Graphics/SVG/1.1/DTD/svg11.dtd">
<!-- Generated by graphviz version 2.44.0 (0)
 -->
<!-- Title: /hosthome/v2.2.0/Plotting/plottingUtils/styleManager.h Pages: 1 -->
<svg width="1030pt" height="319pt"
 viewBox="0.00 0.00 1030.44 319.00" xmlns="http://www.w3.org/2000/svg" xmlns:xlink="http://www.w3.org/1999/xlink">
<g id="graph0" class="graph" transform="scale(1 1) rotate(0) translate(4 315)">
<title>/hosthome/v2.2.0/Plotting/plottingUtils/styleManager.h</title>
<polygon fill="white" stroke="transparent" points="-4,4 -4,-315 1026.44,-315 1026.44,4 -4,4"/>
<!-- Node1 -->
<g id="node1" class="node">
<title>Node1</title>
<g id="a_node1"><a xlink:title=" ">
<polygon fill="#bfbfbf" stroke="black" points="608,-280.5 608,-310.5 749,-310.5 749,-280.5 608,-280.5"/>
<text text-anchor="start" x="616" y="-298.5" font-family="Helvetica" font-size="10.00">/hosthome/v2.2.0/Plotting</text>
<text text-anchor="middle" x="678.5" y="-287.5" font-family="Helvetica" font-size="10.00">/plottingUtils/styleManager.h</text>
</a>
</g>
</g>
<!-- Node2 -->
<g id="node2" class="node">
<title>Node2</title>
<g id="a_node2"><a xlink:href="MaCh3Logger_8h.html" target="_top" xlink:title="KS: Based on this https://github.com/gabime/spdlog/blob/a2b4262090fd3f005c2315dcb5be2f0f1774a005/incl...">
<polygon fill="white" stroke="black" points="161.5,-112.5 161.5,-131.5 287.5,-131.5 287.5,-112.5 161.5,-112.5"/>
<text text-anchor="middle" x="224.5" y="-119.5" font-family="Helvetica" font-size="10.00">Manager/MaCh3Logger.h</text>
</a>
</g>
</g>
<!-- Node1&#45;&gt;Node2 -->
<g id="edge1" class="edge">
<title>Node1&#45;&gt;Node2</title>
<path fill="none" stroke="midnightblue" d="M607.93,-285.71C527.32,-273.32 393.56,-245.5 292.5,-188 270.43,-175.44 250.08,-154.16 237.51,-139.39"/>
<polygon fill="midnightblue" stroke="midnightblue" points="240.11,-137.04 231.05,-131.55 234.71,-141.49 240.11,-137.04"/>
</g>
<!-- Node15 -->
<g id="node15" class="node">
<title>Node15</title>
<g id="a_node15"><a xlink:href="YamlHelper_8h.html" target="_top" xlink:title="Utility functions for handling YAML nodes.">
<polygon fill="white" stroke="black" points="569.5,-224.5 569.5,-243.5 685.5,-243.5 685.5,-224.5 569.5,-224.5"/>
<text text-anchor="middle" x="627.5" y="-231.5" font-family="Helvetica" font-size="10.00">Manager/YamlHelper.h</text>
</a>
</g>
</g>
<!-- Node1&#45;&gt;Node15 -->
<g id="edge16" class="edge">
<title>Node1&#45;&gt;Node15</title>
<path fill="none" stroke="midnightblue" d="M666.41,-280.4C658.93,-271.66 649.28,-260.41 641.47,-251.3"/>
<polygon fill="midnightblue" stroke="midnightblue" points="644.09,-248.97 634.92,-243.66 638.77,-253.53 644.09,-248.97"/>
</g>
<!-- Node18 -->
<g id="node18" class="node">
<title>Node18</title>
<g id="a_node18"><a xlink:href="MaCh3Exception_8h.html" target="_top" xlink:title=" ">
<polygon fill="white" stroke="black" points="301.5,-168.5 301.5,-187.5 441.5,-187.5 441.5,-168.5 301.5,-168.5"/>
<text text-anchor="middle" x="371.5" y="-175.5" font-family="Helvetica" font-size="10.00">Manager/MaCh3Exception.h</text>
</a>
</g>
</g>
<!-- Node1&#45;&gt;Node18 -->
<g id="edge33" class="edge">
<title>Node1&#45;&gt;Node18</title>
<path fill="none" stroke="midnightblue" d="M641.16,-280.45C580.41,-257.6 461.2,-212.75 403.84,-191.17"/>
<polygon fill="midnightblue" stroke="midnightblue" points="404.8,-187.79 394.21,-187.54 402.33,-194.34 404.8,-187.79"/>
</g>
<!-- Node24 -->
<g id="node24" class="node">
<title>Node24</title>
<g id="a_node24"><a xlink:title=" ">
<polygon fill="white" stroke="#bfbfbf" points="703.5,-224.5 703.5,-243.5 757.5,-243.5 757.5,-224.5 703.5,-224.5"/>
<text text-anchor="middle" x="730.5" y="-231.5" font-family="Helvetica" font-size="10.00">TColor.h</text>
</a>
</g>
</g>
<!-- Node1&#45;&gt;Node24 -->
<g id="edge34" class="edge">
<title>Node1&#45;&gt;Node24</title>
<path fill="none" stroke="midnightblue" d="M690.82,-280.4C698.46,-271.66 708.29,-260.41 716.26,-251.3"/>
<polygon fill="midnightblue" stroke="midnightblue" points="718.99,-253.49 722.93,-243.66 713.72,-248.88 718.99,-253.49"/>
</g>
<!-- Node25 -->
<g id="node25" class="node">
<title>Node25</title>
<g id="a_node25"><a xlink:title=" ">
<polygon fill="white" stroke="#bfbfbf" points="775.5,-224.5 775.5,-243.5 819.5,-243.5 819.5,-224.5 775.5,-224.5"/>
<text text-anchor="middle" x="797.5" y="-231.5" font-family="Helvetica" font-size="10.00">TH1.h</text>
</a>
</g>
</g>
<!-- Node1&#45;&gt;Node25 -->
<g id="edge35" class="edge">
<title>Node1&#45;&gt;Node25</title>
<path fill="none" stroke="midnightblue" d="M706.7,-280.4C726.22,-270.64 752.03,-257.74 771.13,-248.18"/>
<polygon fill="midnightblue" stroke="midnightblue" points="772.81,-251.26 780.18,-243.66 769.67,-245 772.81,-251.26"/>
</g>
<!-- Node26 -->
<g id="node26" class="node">
<title>Node26</title>
<g id="a_node26"><a xlink:title=" ">
<polygon fill="white" stroke="#bfbfbf" points="838,-224.5 838,-243.5 891,-243.5 891,-224.5 838,-224.5"/>
<text text-anchor="middle" x="864.5" y="-231.5" font-family="Helvetica" font-size="10.00">TStyle.h</text>
</a>
</g>
</g>
<!-- Node1&#45;&gt;Node26 -->
<g id="edge36" class="edge">
<title>Node1&#45;&gt;Node26</title>
<path fill="none" stroke="midnightblue" d="M722.58,-280.4C754.82,-270.09 798.02,-256.27 828.25,-246.59"/>
<polygon fill="midnightblue" stroke="midnightblue" points="829.52,-249.86 837.98,-243.48 827.39,-243.2 829.52,-249.86"/>
</g>
<!-- Node3 -->
<g id="node3" class="node">
<title>Node3</title>
<g id="a_node3"><a xlink:title=" ">
<polygon fill="white" stroke="#bfbfbf" points="493.5,-0.5 493.5,-19.5 547.5,-19.5 547.5,-0.5 493.5,-0.5"/>
<text text-anchor="middle" x="520.5" y="-7.5" font-family="Helvetica" font-size="10.00">iostream</text>
</a>
</g>
</g>
<!-- Node2&#45;&gt;Node3 -->
<g id="edge2" class="edge">
<title>Node2&#45;&gt;Node3</title>
<path fill="none" stroke="midnightblue" d="M265.17,-112.48C299.25,-104.75 348.87,-92.11 390.5,-76 408.67,-68.97 412.1,-64.76 429.5,-56 451.02,-45.16 475.5,-33.07 493.65,-24.15"/>
<polygon fill="midnightblue" stroke="midnightblue" points="495.58,-27.1 503.02,-19.55 492.5,-20.82 495.58,-27.1"/>
</g>
<!-- Node4 -->
<g id="node4" class="node">
<title>Node4</title>
<g id="a_node4"><a xlink:title=" ">
<polygon fill="white" stroke="#bfbfbf" points="173.5,-0.5 173.5,-19.5 225.5,-19.5 225.5,-0.5 173.5,-0.5"/>
<text text-anchor="middle" x="199.5" y="-7.5" font-family="Helvetica" font-size="10.00">sstream</text>
</a>
</g>
</g>
<!-- Node2&#45;&gt;Node4 -->
<g id="edge3" class="edge">
<title>Node2&#45;&gt;Node4</title>
<path fill="none" stroke="midnightblue" d="M231.64,-112.44C241.21,-99.87 256.07,-75.77 247.5,-56 242.23,-43.84 231.88,-33.46 222.14,-25.74"/>
<polygon fill="midnightblue" stroke="midnightblue" points="224,-22.77 213.87,-19.67 219.86,-28.41 224,-22.77"/>
</g>
<!-- Node5 -->
<g id="node5" class="node">
<title>Node5</title>
<g id="a_node5"><a xlink:title=" ">
<polygon fill="white" stroke="#bfbfbf" points="0,-56.5 0,-75.5 59,-75.5 59,-56.5 0,-56.5"/>
<text text-anchor="middle" x="29.5" y="-63.5" font-family="Helvetica" font-size="10.00">functional</text>
</a>
</g>
</g>
<!-- Node2&#45;&gt;Node5 -->
<g id="edge4" class="edge">
<title>Node2&#45;&gt;Node5</title>
<path fill="none" stroke="midnightblue" d="M193.6,-112.44C159.93,-103.12 105.96,-88.17 69.18,-77.99"/>
<polygon fill="midnightblue" stroke="midnightblue" points="69.87,-74.55 59.29,-75.25 68,-81.29 69.87,-74.55"/>
</g>
<!-- Node6 -->
<g id="node6" class="node">
<title>Node6</title>
<g id="a_node6"><a xlink:title=" ">
<polygon fill="white" stroke="#bfbfbf" points="438,-56.5 438,-75.5 479,-75.5 479,-56.5 438,-56.5"/>
<text text-anchor="middle" x="458.5" y="-63.5" font-family="Helvetica" font-size="10.00">string</text>
</a>
</g>
</g>
<!-- Node2&#45;&gt;Node6 -->
<g id="edge5" class="edge">
<title>Node2&#45;&gt;Node6</title>
<path fill="none" stroke="midnightblue" d="M263.85,-112.46C304.05,-103.65 368.24,-89.35 423.5,-76 424.95,-75.65 426.43,-75.29 427.92,-74.92"/>
<polygon fill="midnightblue" stroke="midnightblue" points="428.96,-78.27 437.8,-72.43 427.24,-71.48 428.96,-78.27"/>
</g>
<!-- Node7 -->
<g id="node7" class="node">
<title>Node7</title>
<g id="a_node7"><a xlink:title=" ">
<polygon fill="white" stroke="#bfbfbf" points="77.5,-56.5 77.5,-75.5 135.5,-75.5 135.5,-56.5 77.5,-56.5"/>
<text text-anchor="middle" x="106.5" y="-63.5" font-family="Helvetica" font-size="10.00">exception</text>
</a>
</g>
</g>
<!-- Node2&#45;&gt;Node7 -->
<g id="edge6" class="edge">
<title>Node2&#45;&gt;Node7</title>
<path fill="none" stroke="midnightblue" d="M205.8,-112.44C186.56,-103.64 156.35,-89.81 134.3,-79.72"/>
<polygon fill="midnightblue" stroke="midnightblue" points="135.66,-76.5 125.11,-75.52 132.75,-82.86 135.66,-76.5"/>
</g>
<!-- Node8 -->
<g id="node8" class="node">
<title>Node8</title>
<g id="a_node8"><a xlink:href="Core_8h.html" target="_top" xlink:title=" ">
<polygon fill="white" stroke="black" points="295.5,-56.5 295.5,-75.5 381.5,-75.5 381.5,-56.5 295.5,-56.5"/>
<text text-anchor="middle" x="338.5" y="-63.5" font-family="Helvetica" font-size="10.00">Manager/Core.h</text>
</a>
</g>
</g>
<!-- Node2&#45;&gt;Node8 -->
<g id="edge7" class="edge">
<title>Node2&#45;&gt;Node8</title>
<path fill="none" stroke="midnightblue" d="M242.56,-112.44C261.07,-103.68 290.08,-89.94 311.36,-79.86"/>
<polygon fill="midnightblue" stroke="midnightblue" points="312.98,-82.96 320.52,-75.52 309.99,-76.63 312.98,-82.96"/>
</g>
<!-- Node14 -->
<g id="node14" class="node">
<title>Node14</title>
<g id="a_node14"><a xlink:title=" ">
<polygon fill="white" stroke="#bfbfbf" points="154,-56.5 154,-75.5 239,-75.5 239,-56.5 154,-56.5"/>
<text text-anchor="middle" x="196.5" y="-63.5" font-family="Helvetica" font-size="10.00">spdlog/spdlog.h</text>
</a>
</g>
</g>
<!-- Node2&#45;&gt;Node14 -->
<g id="edge15" class="edge">
<title>Node2&#45;&gt;Node14</title>
<path fill="none" stroke="midnightblue" d="M219.88,-112.08C216.04,-104.69 210.48,-93.95 205.74,-84.81"/>
<polygon fill="midnightblue" stroke="midnightblue" points="208.75,-83.02 201.04,-75.75 202.53,-86.24 208.75,-83.02"/>
</g>
<!-- Node8&#45;&gt;Node3 -->
<g id="edge10" class="edge">
<title>Node8&#45;&gt;Node3</title>
<path fill="none" stroke="midnightblue" d="M367.34,-56.44C398.81,-47.11 449.29,-32.13 483.62,-21.94"/>
<polygon fill="midnightblue" stroke="midnightblue" points="484.69,-25.28 493.28,-19.08 482.7,-18.56 484.69,-25.28"/>
</g>
<!-- Node8&#45;&gt;Node4 -->
<g id="edge8" class="edge">
<title>Node8&#45;&gt;Node4</title>
<path fill="none" stroke="midnightblue" d="M316.48,-56.44C293.4,-47.48 256.94,-33.31 230.86,-23.18"/>
<polygon fill="midnightblue" stroke="midnightblue" points="232.01,-19.88 221.42,-19.52 229.48,-26.4 232.01,-19.88"/>
</g>
<!-- Node9 -->
<g id="node9" class="node">
<title>Node9</title>
<g id="a_node9"><a xlink:title=" ">
<polygon fill="white" stroke="#bfbfbf" points="801.5,-0.5 801.5,-19.5 851.5,-19.5 851.5,-0.5 801.5,-0.5"/>
<text text-anchor="middle" x="826.5" y="-7.5" font-family="Helvetica" font-size="10.00">fstream</text>
</a>
</g>
</g>
<!-- Node8&#45;&gt;Node9 -->
<g id="edge9" class="edge">
<title>Node8&#45;&gt;Node9</title>
<path fill="none" stroke="midnightblue" d="M381.81,-60.21C477.2,-49.65 703.9,-24.57 791.3,-14.9"/>
<polygon fill="midnightblue" stroke="midnightblue" points="791.93,-18.35 801.49,-13.77 791.16,-11.39 791.93,-18.35"/>
</g>
<!-- Node10 -->
<g id="node10" class="node">
<title>Node10</title>
<g id="a_node10"><a xlink:title=" ">
<polygon fill="white" stroke="#bfbfbf" points="364,-0.5 364,-19.5 407,-19.5 407,-0.5 364,-0.5"/>
<text text-anchor="middle" x="385.5" y="-7.5" font-family="Helvetica" font-size="10.00">vector</text>
</a>
</g>
</g>
<!-- Node8&#45;&gt;Node10 -->
<g id="edge11" class="edge">
<title>Node8&#45;&gt;Node10</title>
<path fill="none" stroke="midnightblue" d="M346.26,-56.08C353.04,-48.3 363.04,-36.8 371.26,-27.37"/>
<polygon fill="midnightblue" stroke="midnightblue" points="373.96,-29.59 377.88,-19.75 368.68,-25 373.96,-29.59"/>
</g>
<!-- Node11 -->
<g id="node11" class="node">
<title>Node11</title>
<g id="a_node11"><a xlink:title=" ">
<polygon fill="white" stroke="#bfbfbf" points="425.5,-0.5 425.5,-19.5 475.5,-19.5 475.5,-0.5 425.5,-0.5"/>
<text text-anchor="middle" x="450.5" y="-7.5" font-family="Helvetica" font-size="10.00">iomanip</text>
</a>
</g>
</g>
<!-- Node8&#45;&gt;Node11 -->
<g id="edge12" class="edge">
<title>Node8&#45;&gt;Node11</title>
<path fill="none" stroke="midnightblue" d="M356.49,-56.32C374.54,-47.62 402.55,-34.12 423.3,-24.11"/>
<polygon fill="midnightblue" stroke="midnightblue" points="425.06,-27.15 432.55,-19.65 422.02,-20.84 425.06,-27.15"/>
</g>
<!-- Node12 -->
<g id="node12" class="node">
<title>Node12</title>
<g id="a_node12"><a xlink:title=" ">
<polygon fill="white" stroke="#bfbfbf" points="243.5,-0.5 243.5,-19.5 287.5,-19.5 287.5,-0.5 243.5,-0.5"/>
<text text-anchor="middle" x="265.5" y="-7.5" font-family="Helvetica" font-size="10.00">cmath</text>
</a>
</g>
</g>
<!-- Node8&#45;&gt;Node12 -->
<g id="edge13" class="edge">
<title>Node8&#45;&gt;Node12</title>
<path fill="none" stroke="midnightblue" d="M326.77,-56.32C315.66,-48.11 298.76,-35.6 285.52,-25.81"/>
<polygon fill="midnightblue" stroke="midnightblue" points="287.56,-22.97 277.44,-19.83 283.4,-28.59 287.56,-22.97"/>
</g>
<!-- Node13 -->
<g id="node13" class="node">
<title>Node13</title>
<g id="a_node13"><a xlink:title=" ">
<polygon fill="white" stroke="#bfbfbf" points="305.5,-0.5 305.5,-19.5 345.5,-19.5 345.5,-0.5 305.5,-0.5"/>
<text text-anchor="middle" x="325.5" y="-7.5" font-family="Helvetica" font-size="10.00">limits</text>
</a>
</g>
</g>
<!-- Node8&#45;&gt;Node13 -->
<g id="edge14" class="edge">
<title>Node8&#45;&gt;Node13</title>
<path fill="none" stroke="midnightblue" d="M336.35,-56.08C334.63,-48.93 332.15,-38.64 330,-29.69"/>
<polygon fill="midnightblue" stroke="midnightblue" points="333.35,-28.65 327.61,-19.75 326.54,-30.29 333.35,-28.65"/>
</g>
<!-- Node15&#45;&gt;Node3 -->
<g id="edge17" class="edge">
<title>Node15&#45;&gt;Node3</title>
<path fill="none" stroke="midnightblue" d="M685.6,-225.15C688.61,-224.76 691.59,-224.37 694.5,-224 760.67,-215.56 948.25,-237.91 992.5,-188 998.4,-181.35 997.7,-175.21 992.5,-168 889.36,-25 650.52,-10.23 558.03,-10.12"/>
<polygon fill="midnightblue" stroke="midnightblue" points="557.73,-6.62 547.75,-10.16 557.77,-13.62 557.73,-6.62"/>
</g>
<!-- Node15&#45;&gt;Node6 -->
<g id="edge19" class="edge">
<title>Node15&#45;&gt;Node6</title>
<path fill="none" stroke="midnightblue" d="M595.74,-224.39C574.48,-217.37 546.94,-205.67 527.5,-188 525.33,-186.03 486.85,-117.6 468.32,-84.54"/>
<polygon fill="midnightblue" stroke="midnightblue" points="471.21,-82.54 463.27,-75.53 465.1,-85.96 471.21,-82.54"/>
</g>
<!-- Node15&#45;&gt;Node8 -->
<g id="edge28" class="edge">
<title>Node15&#45;&gt;Node8</title>
<path fill="none" stroke="midnightblue" d="M599.96,-224.41C575.93,-216.42 540.47,-203.46 511.5,-188 451.46,-155.96 387.51,-106.75 356.9,-82.12"/>
<polygon fill="midnightblue" stroke="midnightblue" points="358.82,-79.17 348.85,-75.59 354.41,-84.61 358.82,-79.17"/>
</g>
<!-- Node15&#45;&gt;Node9 -->
<g id="edge18" class="edge">
<title>Node15&#45;&gt;Node9</title>
<path fill="none" stroke="midnightblue" d="M685.6,-225.13C688.61,-224.74 691.59,-224.36 694.5,-224 764.2,-215.32 961.75,-240.42 1008.5,-188 1066.96,-122.45 924.13,-51.7 857.96,-23.57"/>
<polygon fill="midnightblue" stroke="midnightblue" points="858.99,-20.2 848.42,-19.58 856.29,-26.66 858.99,-20.2"/>
</g>
<!-- Node16 -->
<g id="node16" class="node">
<title>Node16</title>
<g id="a_node16"><a xlink:title=" ">
<polygon fill="white" stroke="#bfbfbf" points="536,-168.5 536,-187.5 589,-187.5 589,-168.5 536,-168.5"/>
<text text-anchor="middle" x="562.5" y="-175.5" font-family="Helvetica" font-size="10.00">cxxabi.h</text>
</a>
</g>
</g>
<!-- Node15&#45;&gt;Node16 -->
<g id="edge20" class="edge">
<title>Node15&#45;&gt;Node16</title>
<path fill="none" stroke="midnightblue" d="M617.06,-224.32C607.35,-216.26 592.68,-204.08 581,-194.37"/>
<polygon fill="midnightblue" stroke="midnightblue" points="583.06,-191.53 573.13,-187.83 578.59,-196.92 583.06,-191.53"/>
</g>
<!-- Node17 -->
<g id="node17" class="node">
<title>Node17</title>
<g id="a_node17"><a xlink:title=" ">
<polygon fill="white" stroke="#bfbfbf" points="607,-168.5 607,-187.5 648,-187.5 648,-168.5 607,-168.5"/>
<text text-anchor="middle" x="627.5" y="-175.5" font-family="Helvetica" font-size="10.00">regex</text>
</a>
</g>
</g>
<!-- Node15&#45;&gt;Node17 -->
<g id="edge21" class="edge">
<title>Node15&#45;&gt;Node17</title>
<path fill="none" stroke="midnightblue" d="M627.5,-224.08C627.5,-217.01 627.5,-206.86 627.5,-197.99"/>
<polygon fill="midnightblue" stroke="midnightblue" points="631,-197.75 627.5,-187.75 624,-197.75 631,-197.75"/>
</g>
<!-- Node15&#45;&gt;Node18 -->
<g id="edge22" class="edge">
<title>Node15&#45;&gt;Node18</title>
<path fill="none" stroke="midnightblue" d="M586.94,-224.44C542.18,-215 470.12,-199.8 421.8,-189.61"/>
<polygon fill="midnightblue" stroke="midnightblue" points="422.38,-186.16 411.87,-187.52 420.94,-193.01 422.38,-186.16"/>
</g>
<!-- Node20 -->
<g id="node20" class="node">
<title>Node20</title>
<g id="a_node20"><a xlink:title=" ">
<polygon fill="white" stroke="#bfbfbf" points="666.5,-168.5 666.5,-187.5 724.5,-187.5 724.5,-168.5 666.5,-168.5"/>
<text text-anchor="middle" x="695.5" y="-175.5" font-family="Helvetica" font-size="10.00">TMacro.h</text>
</a>
</g>
</g>
<!-- Node15&#45;&gt;Node20 -->
<g id="edge29" class="edge">
<title>Node15&#45;&gt;Node20</title>
<path fill="none" stroke="midnightblue" d="M638.43,-224.32C648.67,-216.18 664.22,-203.84 676.5,-194.09"/>
<polygon fill="midnightblue" stroke="midnightblue" points="678.72,-196.79 684.38,-187.83 674.37,-191.31 678.72,-196.79"/>
</g>
<!-- Node21 -->
<g id="node21" class="node">
<title>Node21</title>
<g id="a_node21"><a xlink:title=" ">
<polygon fill="white" stroke="#bfbfbf" points="742.5,-168.5 742.5,-187.5 788.5,-187.5 788.5,-168.5 742.5,-168.5"/>
<text text-anchor="middle" x="765.5" y="-175.5" font-family="Helvetica" font-size="10.00">TList.h</text>
</a>
</g>
</g>
<!-- Node15&#45;&gt;Node21 -->
<g id="edge30" class="edge">
<title>Node15&#45;&gt;Node21</title>
<path fill="none" stroke="midnightblue" d="M649.37,-224.44C672.28,-215.48 708.48,-201.31 734.37,-191.18"/>
<polygon fill="midnightblue" stroke="midnightblue" points="735.7,-194.42 743.74,-187.52 733.15,-187.9 735.7,-194.42"/>
</g>
<!-- Node22 -->
<g id="node22" class="node">
<title>Node22</title>
<g id="a_node22"><a xlink:title=" ">
<polygon fill="white" stroke="#bfbfbf" points="807,-168.5 807,-187.5 878,-187.5 878,-168.5 807,-168.5"/>
<text text-anchor="middle" x="842.5" y="-175.5" font-family="Helvetica" font-size="10.00">TObjString.h</text>
</a>
</g>
</g>
<!-- Node15&#45;&gt;Node22 -->
<g id="edge31" class="edge">
<title>Node15&#45;&gt;Node22</title>
<path fill="none" stroke="midnightblue" d="M661.57,-224.44C698.68,-215.12 758.16,-200.18 798.71,-190"/>
<polygon fill="midnightblue" stroke="midnightblue" points="799.75,-193.35 808.59,-187.52 798.04,-186.56 799.75,-193.35"/>
</g>
<!-- Node23 -->
<g id="node23" class="node">
<title>Node23</title>
<g id="a_node23"><a xlink:title=" ">
<polygon fill="white" stroke="#bfbfbf" points="896,-168.5 896,-187.5 983,-187.5 983,-168.5 896,-168.5"/>
<text text-anchor="middle" x="939.5" y="-175.5" font-family="Helvetica" font-size="10.00">yaml&#45;cpp/yaml.h</text>
</a>
</g>
</g>
<!-- Node15&#45;&gt;Node23 -->
<g id="edge32" class="edge">
<title>Node15&#45;&gt;Node23</title>
<path fill="none" stroke="midnightblue" d="M676.94,-224.44C733.83,-214.6 826.95,-198.48 885.65,-188.32"/>
<polygon fill="midnightblue" stroke="midnightblue" points="886.58,-191.71 895.83,-186.56 885.38,-184.81 886.58,-191.71"/>
</g>
<!-- Node18&#45;&gt;Node2 -->
<g id="edge26" class="edge">
<title>Node18&#45;&gt;Node2</title>
<path fill="none" stroke="midnightblue" d="M348.21,-168.44C323.69,-159.44 284.9,-145.19 257.3,-135.05"/>
<polygon fill="midnightblue" stroke="midnightblue" points="258.28,-131.68 247.68,-131.52 255.86,-138.25 258.28,-131.68"/>
</g>
<!-- Node18&#45;&gt;Node3 -->
<g id="edge23" class="edge">
<title>Node18&#45;&gt;Node3</title>
<path fill="none" stroke="midnightblue" d="M384.76,-168.48C408.38,-152.74 458.11,-116.93 488.5,-76 499.27,-61.5 508.03,-42.81 513.64,-29.2"/>
<polygon fill="midnightblue" stroke="midnightblue" points="517.03,-30.13 517.45,-19.55 510.52,-27.57 517.03,-30.13"/>
</g>
<!-- Node18&#45;&gt;Node6 -->
<g id="edge24" class="edge">
<title>Node18&#45;&gt;Node6</title>
<path fill="none" stroke="midnightblue" d="M378.33,-168.37C392.75,-150.14 426.53,-107.43 445.31,-83.68"/>
<polygon fill="midnightblue" stroke="midnightblue" points="448.25,-85.61 451.7,-75.59 442.76,-81.26 448.25,-85.61"/>
</g>
<!-- Node18&#45;&gt;Node8 -->
<g id="edge27" class="edge">
<title>Node18&#45;&gt;Node8</title>
<path fill="none" stroke="midnightblue" d="M373.92,-168.29C377.01,-155.53 381.23,-131.19 374.5,-112 370.71,-101.21 363.13,-91.08 355.9,-83.18"/>
<polygon fill="midnightblue" stroke="midnightblue" points="358.17,-80.49 348.66,-75.81 353.17,-85.4 358.17,-80.49"/>
</g>
<!-- Node19 -->
<g id="node19" class="node">
<title>Node19</title>
<g id="a_node19"><a xlink:title=" ">
<polygon fill="white" stroke="#bfbfbf" points="306,-112.5 306,-131.5 365,-131.5 365,-112.5 306,-112.5"/>
<text text-anchor="middle" x="335.5" y="-119.5" font-family="Helvetica" font-size="10.00">stdexcept</text>
</a>
</g>
</g>
<!-- Node18&#45;&gt;Node19 -->
<g id="edge25" class="edge">
<title>Node18&#45;&gt;Node19</title>
<path fill="none" stroke="midnightblue" d="M365.56,-168.08C360.52,-160.53 353.16,-149.49 346.99,-140.23"/>
<polygon fill="midnightblue" stroke="midnightblue" points="349.79,-138.13 341.33,-131.75 343.97,-142.01 349.79,-138.13"/>
</g>
</g>
</svg>
