<?xml version="1.0" encoding="UTF-8" standalone="no"?>
<!DOCTYPE svg PUBLIC "-//W3C//DTD SVG 1.1//EN"
 "http://www.w3.org/Graphics/SVG/1.1/DTD/svg11.dtd">
<!-- Generated by graphviz version 2.44.0 (0)
 -->
<!-- Title: SampleHandlerBase Pages: 1 -->
<svg width="248pt" height="140pt"
 viewBox="0.00 0.00 247.50 140.00" xmlns="http://www.w3.org/2000/svg" xmlns:xlink="http://www.w3.org/1999/xlink">
<g id="graph0" class="graph" transform="scale(1 1) rotate(0) translate(4 136)">
<title>SampleHandlerBase</title>
<polygon fill="white" stroke="transparent" points="-4,4 -4,-136 243.5,-136 243.5,4 -4,4"/>
<!-- Node1 -->
<g id="node1" class="node">
<title>Node1</title>
<g id="a_node1"><a xlink:title="Class responsible for handling implementation of samples used in analysis, reweighting and returning ...">
<polygon fill="#bfbfbf" stroke="black" points="69,-112.5 69,-131.5 175,-131.5 175,-112.5 69,-112.5"/>
<text text-anchor="middle" x="122" y="-119.5" font-family="Helvetica" font-size="10.00">SampleHandlerBase</text>
</a>
</g>
</g>
<!-- Node2 -->
<g id="node2" class="node">
<title>Node2</title>
<g id="a_node2"><a xlink:href="classPySampleHandlerBase.html" target="_top" xlink:title="EW: As SampleHandlerBase is an abstract base class we have to do some gymnastics to get it to get it ...">
<polygon fill="white" stroke="black" points="0,-56.5 0,-75.5 118,-75.5 118,-56.5 0,-56.5"/>
<text text-anchor="middle" x="59" y="-63.5" font-family="Helvetica" font-size="10.00">PySampleHandlerBase</text>
</a>
</g>
</g>
<!-- Node1&#45;&gt;Node2 -->
<g id="edge1" class="edge">
<title>Node1&#45;&gt;Node2</title>
<path fill="none" stroke="midnightblue" d="M103.96,-105.54C92.73,-95.91 78.68,-83.87 69.31,-75.83"/>
<polygon fill="midnightblue" stroke="midnightblue" points="102.01,-108.47 111.88,-112.32 106.56,-103.16 102.01,-108.47"/>
</g>
<!-- Node3 -->
<g id="node3" class="node">
<title>Node3</title>
<g id="a_node3"><a xlink:href="classSampleHandlerFD.html" target="_top" xlink:title="Class responsible for handling implementation of samples used in analysis, reweighting and returning ...">
<polygon fill="white" stroke="black" points="136.5,-56.5 136.5,-75.5 233.5,-75.5 233.5,-56.5 136.5,-56.5"/>
<text text-anchor="middle" x="185" y="-63.5" font-family="Helvetica" font-size="10.00">SampleHandlerFD</text>
</a>
</g>
</g>
<!-- Node1&#45;&gt;Node3 -->
<g id="edge2" class="edge">
<title>Node1&#45;&gt;Node3</title>
<path fill="none" stroke="midnightblue" d="M140.04,-105.54C151.27,-95.91 165.32,-83.87 174.69,-75.83"/>
<polygon fill="midnightblue" stroke="midnightblue" points="137.44,-103.16 132.12,-112.32 141.99,-108.47 137.44,-103.16"/>
</g>
<!-- Node4 -->
<g id="node4" class="node">
<title>Node4</title>
<g id="a_node4"><a xlink:href="classPySampleHandlerFD.html" target="_top" xlink:title="As SampleHandlerFD is an abstract base class we have to do some gymnastics to get it to get it into p...">
<polygon fill="white" stroke="black" points="130.5,-0.5 130.5,-19.5 239.5,-19.5 239.5,-0.5 130.5,-0.5"/>
<text text-anchor="middle" x="185" y="-7.5" font-family="Helvetica" font-size="10.00">PySampleHandlerFD</text>
</a>
</g>
</g>
<!-- Node3&#45;&gt;Node4 -->
<g id="edge3" class="edge">
<title>Node3&#45;&gt;Node4</title>
<path fill="none" stroke="midnightblue" d="M185,-45.8C185,-36.91 185,-26.78 185,-19.75"/>
<polygon fill="midnightblue" stroke="midnightblue" points="181.5,-46.08 185,-56.08 188.5,-46.08 181.5,-46.08"/>
</g>
</g>
</svg>
