<?xml version="1.0" encoding="UTF-8" standalone="no"?>
<!DOCTYPE svg PUBLIC "-//W3C//DTD SVG 1.1//EN"
 "http://www.w3.org/Graphics/SVG/1.1/DTD/svg11.dtd">
<!-- Generated by graphviz version 2.44.0 (0)
 -->
<!-- Title: ParameterTunes Pages: 1 -->
<svg width="312pt" height="127pt"
 viewBox="0.00 0.00 312.00 126.50" xmlns="http://www.w3.org/2000/svg" xmlns:xlink="http://www.w3.org/1999/xlink">
<g id="graph0" class="graph" transform="scale(1 1) rotate(0) translate(4 122.5)">
<title>ParameterTunes</title>
<polygon fill="white" stroke="transparent" points="-4,4 -4,-122.5 308,-122.5 308,4 -4,4"/>
<!-- Node1 -->
<g id="node1" class="node">
<title>Node1</title>
<g id="a_node1"><a xlink:title="Class storing tune values, for example allowing flexibly to retrieve parameter values for for PostND ...">
<polygon fill="#bfbfbf" stroke="black" points="216,-44.5 216,-63.5 304,-63.5 304,-44.5 216,-44.5"/>
<text text-anchor="middle" x="260" y="-51.5" font-family="Helvetica" font-size="10.00">ParameterTunes</text>
</a>
</g>
</g>
<!-- Node2 -->
<g id="node2" class="node">
<title>Node2</title>
<g id="a_node2"><a xlink:title=" ">
<polygon fill="white" stroke="#bfbfbf" points="10.5,-88 10.5,-118 113.5,-118 113.5,-88 10.5,-88"/>
<text text-anchor="start" x="18.5" y="-106" font-family="Helvetica" font-size="10.00">std::unordered_map</text>
<text text-anchor="middle" x="62" y="-95" font-family="Helvetica" font-size="10.00">&lt; std::string, int &gt;</text>
</a>
</g>
</g>
<!-- Node2&#45;&gt;Node1 -->
<g id="edge1" class="edge">
<title>Node2&#45;&gt;Node1</title>
<path fill="none" stroke="#9a32cd" stroke-dasharray="5,2" d="M123.79,-87.8C155.49,-79.88 193.3,-70.42 220.87,-63.53"/>
<polygon fill="#9a32cd" stroke="#9a32cd" points="122.58,-84.5 113.73,-90.32 124.28,-91.29 122.58,-84.5"/>
<text text-anchor="middle" x="170" y="-85" font-family="Helvetica" font-size="10.00"> TuneMap</text>
</g>
<!-- Node3 -->
<g id="node3" class="node">
<title>Node3</title>
<g id="a_node3"><a xlink:title=" ">
<polygon fill="white" stroke="#bfbfbf" points="3.5,-39 3.5,-69 120.5,-69 120.5,-39 3.5,-39"/>
<text text-anchor="start" x="11.5" y="-57" font-family="Helvetica" font-size="10.00">std::vector&lt; std::vector</text>
<text text-anchor="middle" x="62" y="-46" font-family="Helvetica" font-size="10.00">&lt; double &gt; &gt;</text>
</a>
</g>
</g>
<!-- Node3&#45;&gt;Node1 -->
<g id="edge2" class="edge">
<title>Node3&#45;&gt;Node1</title>
<path fill="none" stroke="#9a32cd" stroke-dasharray="5,2" d="M130.96,-54C159.17,-54 191.07,-54 215.97,-54"/>
<polygon fill="#9a32cd" stroke="#9a32cd" points="130.75,-50.5 120.75,-54 130.75,-57.5 130.75,-50.5"/>
<text text-anchor="middle" x="170" y="-57" font-family="Helvetica" font-size="10.00"> TuneValues</text>
</g>
<!-- Node4 -->
<g id="node4" class="node">
<title>Node4</title>
<g id="a_node4"><a xlink:title=" ">
<polygon fill="white" stroke="#bfbfbf" points="0,-0.5 0,-19.5 124,-19.5 124,-0.5 0,-0.5"/>
<text text-anchor="middle" x="62" y="-7.5" font-family="Helvetica" font-size="10.00">std::vector&lt; std::string &gt;</text>
</a>
</g>
</g>
<!-- Node4&#45;&gt;Node1 -->
<g id="edge3" class="edge">
<title>Node4&#45;&gt;Node1</title>
<path fill="none" stroke="#9a32cd" stroke-dasharray="5,2" d="M118.79,-21.6C143.15,-26.76 172.03,-33.02 198,-39 205.44,-40.71 213.37,-42.61 220.97,-44.46"/>
<polygon fill="#9a32cd" stroke="#9a32cd" points="119.51,-18.17 109,-19.53 118.06,-25.02 119.51,-18.17"/>
<text text-anchor="middle" x="170" y="-42" font-family="Helvetica" font-size="10.00"> TuneNames</text>
</g>
</g>
</svg>
