<?xml version="1.0" encoding="UTF-8" standalone="no"?>
<!DOCTYPE svg PUBLIC "-//W3C//DTD SVG 1.1//EN"
 "http://www.w3.org/Graphics/SVG/1.1/DTD/svg11.dtd">
<!-- Generated by graphviz version 2.44.0 (0)
 -->
<!-- Title: SampleSummary Pages: 1 -->
<!--zoomable 1055 -->
<svg id="main" version="1.1" xmlns="http://www.w3.org/2000/svg" xmlns:xlink="http://www.w3.org/1999/xlink" xml:space="preserve" onload="init(evt)">
<style type="text/css"><![CDATA[
.edge:hover path { stroke: red; }
.edge:hover polygon { stroke: red; fill: red; }
]]></style>
<script type="text/javascript"><![CDATA[
var edges = document.getElementsByTagName('g');
if (edges && edges.length) {
  for (var i=0;i<edges.length;i++) {
    if (edges[i].id.substr(0,4)=='edge') {
      edges[i].setAttribute('class','edge');
    }
  }
}
]]></script>
        <defs>
                <circle id="rim" cx="0" cy="0" r="7"/>
                <circle id="rim2" cx="0" cy="0" r="3.5"/>
                <g id="zoomPlus">
                        <use xlink:href="#rim" fill="#404040">
                                <set attributeName="fill" to="#808080" begin="zoomplus.mouseover" end="zoomplus.mouseout"/>
                        </use>
                        <path d="M-4,0h8M0,-4v8" fill="none" stroke="white" stroke-width="1.5" pointer-events="none"/>
                </g>
                <g id="zoomMin">
                        <use xlink:href="#rim" fill="#404040">
                                <set attributeName="fill" to="#808080" begin="zoomminus.mouseover" end="zoomminus.mouseout"/>
                        </use>
                        <path d="M-4,0h8" fill="none" stroke="white" stroke-width="1.5" pointer-events="none"/>
                </g>
                <g id="dirArrow">
                        <path fill="none" stroke="white" stroke-width="1.5" d="M0,-3.0v7 M-2.5,-0.5L0,-3.0L2.5,-0.5"/>
                </g>
               <g id="resetDef">
                       <use xlink:href="#rim2" fill="#404040">
                               <set attributeName="fill" to="#808080" begin="reset.mouseover" end="reset.mouseout"/>
                       </use>
               </g>
        </defs>

<script type="text/javascript">
var viewWidth = 936;
var viewHeight = 1055;
var sectionId = 'dynsection-0';
</script>
<script xlink:href="svgpan.js"/>
<svg id="graph" class="graph">
<g id="viewport">
<title>SampleSummary</title>
<polygon fill="white" stroke="transparent" points="-4,4 -4,-1050.8 932,-1050.8 932,4 -4,4"/>
<!-- Node1 -->
<g id="node1" class="node">
<title>Node1</title>
<g id="a_node1"><a xlink:title="Class to calculate pvalue produce posterior predictive and many fancy Bayesian stuff .">
<polygon fill="#bfbfbf" stroke="black" points="836,-526.3 836,-545.3 928,-545.3 928,-526.3 836,-526.3"/>
<text text-anchor="middle" x="882" y="-533.3" font-family="Helvetica" font-size="10.00">SampleSummary</text>
</a>
</g>
</g>
<!-- Node2 -->
<g id="node2" class="node">
<title>Node2</title>
<g id="a_node2"><a xlink:href="classMaCh3Modes.html" target="_top" xlink:title="KS: Class describing MaCh3 modes used in the analysis, it is being initialised from config.">
<polygon fill="white" stroke="black" points="339,-963.3 339,-982.3 416,-982.3 416,-963.3 339,-963.3"/>
<text text-anchor="middle" x="377.5" y="-970.3" font-family="Helvetica" font-size="10.00">MaCh3Modes</text>
</a>
</g>
</g>
<!-- Node2&#45;&gt;Node1 -->
<g id="edge1" class="edge">
<title>Node2&#45;&gt;Node1</title>
<path fill="none" stroke="#9a32cd" stroke-dasharray="5,2" d="M410.39,-986.17C490.13,-1017.24 700.17,-1084.15 818,-981.8 886.33,-922.44 882.6,-605.72 881.26,-545.64"/>
<polygon fill="#9a32cd" stroke="#9a32cd" points="411.48,-982.84 400.9,-982.4 408.9,-989.34 411.48,-982.84"/>
<text text-anchor="middle" x="587" y="-1038.8" font-family="Helvetica" font-size="10.00"> Modes</text>
</g>
<!-- Node16 -->
<g id="node16" class="node">
<title>Node16</title>
<g id="a_node16"><a xlink:href="classSampleHandlerBase.html" target="_top" xlink:title="Class responsible for handling implementation of samples used in analysis, reweighting and returning ...">
<polygon fill="white" stroke="black" points="534,-942.3 534,-961.3 640,-961.3 640,-942.3 534,-942.3"/>
<text text-anchor="middle" x="587" y="-949.3" font-family="Helvetica" font-size="10.00">SampleHandlerBase</text>
</a>
</g>
</g>
<!-- Node2&#45;&gt;Node16 -->
<g id="edge18" class="edge">
<title>Node2&#45;&gt;Node16</title>
<path fill="none" stroke="#9a32cd" stroke-dasharray="5,2" d="M426.14,-967.98C458.32,-964.72 500.79,-960.42 533.88,-957.08"/>
<polygon fill="#9a32cd" stroke="#9a32cd" points="425.67,-964.51 416.08,-969 426.38,-971.47 425.67,-964.51"/>
<text text-anchor="middle" x="463.5" y="-969.8" font-family="Helvetica" font-size="10.00"> Modes</text>
</g>
<!-- Node3 -->
<g id="node3" class="node">
<title>Node3</title>
<g id="a_node3"><a xlink:title=" ">
<polygon fill="white" stroke="#bfbfbf" points="139.5,-965.8 139.5,-995.8 249.5,-995.8 249.5,-965.8 139.5,-965.8"/>
<text text-anchor="start" x="147.5" y="-983.8" font-family="Helvetica" font-size="10.00">std::map&lt; std::string,</text>
<text text-anchor="middle" x="194.5" y="-972.8" font-family="Helvetica" font-size="10.00"> MaCh3Modes_t &gt;</text>
</a>
</g>
</g>
<!-- Node3&#45;&gt;Node2 -->
<g id="edge2" class="edge">
<title>Node3&#45;&gt;Node2</title>
<path fill="none" stroke="#9a32cd" stroke-dasharray="5,2" d="M260.13,-977.94C286.53,-976.78 316.14,-975.47 338.88,-974.46"/>
<polygon fill="#9a32cd" stroke="#9a32cd" points="259.64,-974.46 249.81,-978.4 259.95,-981.46 259.64,-974.46"/>
<text text-anchor="middle" x="298" y="-979.8" font-family="Helvetica" font-size="10.00"> Mode</text>
</g>
<!-- Node4 -->
<g id="node4" class="node">
<title>Node4</title>
<g id="a_node4"><a xlink:title=" ">
<polygon fill="white" stroke="#bfbfbf" points="132,-1014.8 132,-1044.8 257,-1044.8 257,-1014.8 132,-1014.8"/>
<text text-anchor="start" x="140" y="-1032.8" font-family="Helvetica" font-size="10.00">std::map&lt; MaCh3Modes</text>
<text text-anchor="middle" x="194.5" y="-1021.8" font-family="Helvetica" font-size="10.00">_t, MaCh3ModeInfo &gt;</text>
</a>
</g>
</g>
<!-- Node4&#45;&gt;Node2 -->
<g id="edge3" class="edge">
<title>Node4&#45;&gt;Node2</title>
<path fill="none" stroke="#9a32cd" stroke-dasharray="5,2" d="M256.2,-1011.9C276.82,-1005.69 299.96,-998.59 321,-991.8 330.21,-988.83 340.23,-985.45 349.18,-982.37"/>
<polygon fill="#9a32cd" stroke="#9a32cd" points="255.19,-1008.55 246.62,-1014.78 257.2,-1015.25 255.19,-1008.55"/>
<text text-anchor="middle" x="298" y="-1008.8" font-family="Helvetica" font-size="10.00"> fMode</text>
</g>
<!-- Node5 -->
<g id="node5" class="node">
<title>Node5</title>
<g id="a_node5"><a xlink:title=" ">
<polygon fill="white" stroke="#bfbfbf" points="164.5,-626.3 164.5,-645.3 224.5,-645.3 224.5,-626.3 164.5,-626.3"/>
<text text-anchor="middle" x="194.5" y="-633.3" font-family="Helvetica" font-size="10.00">std::string</text>
</a>
</g>
</g>
<!-- Node5&#45;&gt;Node1 -->
<g id="edge15" class="edge">
<title>Node5&#45;&gt;Node1</title>
<path fill="none" stroke="#9a32cd" stroke-dasharray="5,2" d="M210.3,-618.51C251.87,-571.41 375.53,-441.16 511,-392.8 575.26,-369.86 761.08,-350.17 818,-387.8 866.69,-419.99 877.87,-498.26 880.33,-525.92"/>
<polygon fill="#9a32cd" stroke="#9a32cd" points="207.44,-616.46 203.51,-626.3 212.72,-621.06 207.44,-616.46"/>
<text text-anchor="middle" x="463.5" y="-430.8" font-family="Helvetica" font-size="10.00"> OutputName</text>
</g>
<!-- Node5&#45;&gt;Node2 -->
<g id="edge4" class="edge">
<title>Node5&#45;&gt;Node2</title>
<path fill="none" stroke="#9a32cd" stroke-dasharray="5,2" d="M205.62,-654.65C239.21,-717.19 346.28,-916.54 371.26,-963.04"/>
<polygon fill="#9a32cd" stroke="#9a32cd" points="208.54,-652.68 200.72,-645.52 202.37,-655.99 208.54,-652.68"/>
<text text-anchor="middle" x="298" y="-876.8" font-family="Helvetica" font-size="10.00"> Generator</text>
<text text-anchor="middle" x="298" y="-865.8" font-family="Helvetica" font-size="10.00">Title</text>
</g>
<!-- Node6 -->
<g id="node6" class="node">
<title>Node6</title>
<g id="a_node6"><a xlink:title=" ">
<polygon fill="white" stroke="#bfbfbf" points="0,-620.8 0,-650.8 95,-650.8 95,-620.8 0,-620.8"/>
<text text-anchor="start" x="8" y="-638.8" font-family="Helvetica" font-size="10.00">std::basic_string&lt;</text>
<text text-anchor="middle" x="47.5" y="-627.8" font-family="Helvetica" font-size="10.00"> char &gt;</text>
</a>
</g>
</g>
<!-- Node6&#45;&gt;Node5 -->
<g id="edge5" class="edge">
<title>Node6&#45;&gt;Node5</title>
<path fill="none" stroke="midnightblue" d="M105.22,-635.8C125.4,-635.8 147.29,-635.8 164.22,-635.8"/>
<polygon fill="midnightblue" stroke="midnightblue" points="105.18,-632.3 95.18,-635.8 105.18,-639.3 105.18,-632.3"/>
</g>
<!-- Node7 -->
<g id="node7" class="node">
<title>Node7</title>
<g id="a_node7"><a xlink:title=" ">
<polygon fill="white" stroke="#bfbfbf" points="149,-915.3 149,-934.3 240,-934.3 240,-915.3 149,-915.3"/>
<text text-anchor="middle" x="194.5" y="-922.3" font-family="Helvetica" font-size="10.00">std::vector&lt; int &gt;</text>
</a>
</g>
</g>
<!-- Node7&#45;&gt;Node1 -->
<g id="edge16" class="edge">
<title>Node7&#45;&gt;Node1</title>
<path fill="none" stroke="#9a32cd" stroke-dasharray="5,2" d="M250.43,-925.99C394.67,-928.59 775.99,-931.84 818,-894.8 872.35,-846.88 879.88,-597.43 880.86,-545.34"/>
<polygon fill="#9a32cd" stroke="#9a32cd" points="250.12,-922.49 240.06,-925.8 249.99,-929.48 250.12,-922.49"/>
<text text-anchor="middle" x="463.5" y="-929.8" font-family="Helvetica" font-size="10.00"> maxBins</text>
</g>
<!-- Node7&#45;&gt;Node2 -->
<g id="edge6" class="edge">
<title>Node7&#45;&gt;Node2</title>
<path fill="none" stroke="#9a32cd" stroke-dasharray="5,2" d="M241.72,-937.06C272.37,-945.19 312.02,-955.7 340.37,-963.22"/>
<polygon fill="#9a32cd" stroke="#9a32cd" points="242.26,-933.58 231.69,-934.4 240.46,-940.35 242.26,-933.58"/>
<text text-anchor="middle" x="298" y="-959.8" font-family="Helvetica" font-size="10.00"> ModeMap</text>
</g>
<!-- Node8 -->
<g id="node8" class="node">
<title>Node8</title>
<g id="a_node8"><a xlink:title=" ">
<polygon fill="white" stroke="#bfbfbf" points="527.5,-844.3 527.5,-885.3 646.5,-885.3 646.5,-844.3 527.5,-844.3"/>
<text text-anchor="start" x="535.5" y="-873.3" font-family="Helvetica" font-size="10.00">std::vector&lt; std::vector</text>
<text text-anchor="start" x="535.5" y="-862.3" font-family="Helvetica" font-size="10.00">&lt; std::vector&lt; TH2Poly</text>
<text text-anchor="middle" x="587" y="-851.3" font-family="Helvetica" font-size="10.00"> * &gt; &gt; &gt;</text>
</a>
</g>
</g>
<!-- Node8&#45;&gt;Node1 -->
<g id="edge7" class="edge">
<title>Node8&#45;&gt;Node1</title>
<path fill="none" stroke="#9a32cd" stroke-dasharray="5,2" d="M656.8,-878.01C707.56,-883.54 775.01,-881.42 818,-842.8 863.84,-801.62 877.88,-592.99 880.51,-545.45"/>
<polygon fill="#9a32cd" stroke="#9a32cd" points="656.91,-874.5 646.56,-876.77 656.06,-881.45 656.91,-874.5"/>
<text text-anchor="middle" x="749.5" y="-882.8" font-family="Helvetica" font-size="10.00"> MCVectorByMode</text>
</g>
<!-- Node9 -->
<g id="node9" class="node">
<title>Node9</title>
<g id="a_node9"><a xlink:title=" ">
<polygon fill="white" stroke="#bfbfbf" points="530.5,-806.3 530.5,-825.3 643.5,-825.3 643.5,-806.3 530.5,-806.3"/>
<text text-anchor="middle" x="587" y="-813.3" font-family="Helvetica" font-size="10.00">std::vector&lt; TH2D * &gt;</text>
</a>
</g>
</g>
<!-- Node9&#45;&gt;Node1 -->
<g id="edge8" class="edge">
<title>Node9&#45;&gt;Node1</title>
<path fill="none" stroke="#9a32cd" stroke-dasharray="5,2" d="M653.68,-818.96C712.83,-820.36 794.06,-818.23 818,-797.8 857.86,-763.79 876.2,-588.7 880.16,-545.46"/>
<polygon fill="#9a32cd" stroke="#9a32cd" points="653.74,-815.46 643.65,-818.68 653.55,-822.46 653.74,-815.46"/>
<text text-anchor="middle" x="749.5" y="-832.8" font-family="Helvetica" font-size="10.00"> ViolinHists_ProjectX</text>
<text text-anchor="middle" x="749.5" y="-821.8" font-family="Helvetica" font-size="10.00">ViolinHists_ProjectY</text>
</g>
<!-- Node10 -->
<g id="node10" class="node">
<title>Node10</title>
<g id="a_node10"><a xlink:title=" ">
<polygon fill="white" stroke="#bfbfbf" points="514,-768.3 514,-787.3 660,-787.3 660,-768.3 514,-768.3"/>
<text text-anchor="middle" x="587" y="-775.3" font-family="Helvetica" font-size="10.00">std::unique_ptr&lt; TRandom3 &gt;</text>
</a>
</g>
</g>
<!-- Node10&#45;&gt;Node1 -->
<g id="edge9" class="edge">
<title>Node10&#45;&gt;Node1</title>
<path fill="none" stroke="#9a32cd" stroke-dasharray="5,2" d="M670.27,-782.56C726.92,-784.06 795.83,-781.77 818,-763.8 853.34,-735.17 874.69,-585.4 879.8,-545.55"/>
<polygon fill="#9a32cd" stroke="#9a32cd" points="670.31,-779.06 660.21,-782.25 670.09,-786.06 670.31,-779.06"/>
<text text-anchor="middle" x="749.5" y="-785.8" font-family="Helvetica" font-size="10.00"> rnd</text>
</g>
<!-- Node11 -->
<g id="node11" class="node">
<title>Node11</title>
<g id="a_node11"><a xlink:title=" ">
<polygon fill="white" stroke="#bfbfbf" points="524.5,-698.3 524.5,-717.3 649.5,-717.3 649.5,-698.3 524.5,-698.3"/>
<text text-anchor="middle" x="587" y="-705.3" font-family="Helvetica" font-size="10.00">std::unique_ptr&lt; TH1D &gt;</text>
</a>
</g>
</g>
<!-- Node11&#45;&gt;Node1 -->
<g id="edge10" class="edge">
<title>Node11&#45;&gt;Node1</title>
<path fill="none" stroke="#9a32cd" stroke-dasharray="5,2" d="M659.84,-706.34C717.82,-703.8 793.61,-696.98 818,-678.8 863.24,-645.07 876.55,-571.75 879.96,-545.44"/>
<polygon fill="#9a32cd" stroke="#9a32cd" points="659.46,-702.85 649.61,-706.75 659.74,-709.85 659.46,-702.85"/>
<text text-anchor="middle" x="749.5" y="-751.8" font-family="Helvetica" font-size="10.00"> RandomHist</text>
<text text-anchor="middle" x="749.5" y="-740.8" font-family="Helvetica" font-size="10.00">lnLHist</text>
<text text-anchor="middle" x="749.5" y="-729.8" font-family="Helvetica" font-size="10.00">lnLHist_drawdata</text>
<text text-anchor="middle" x="749.5" y="-718.8" font-family="Helvetica" font-size="10.00">lnLHist_drawfluc</text>
<text text-anchor="middle" x="749.5" y="-707.8" font-family="Helvetica" font-size="10.00">lnLHist_drawflucdraw</text>
</g>
<!-- Node12 -->
<g id="node12" class="node">
<title>Node12</title>
<g id="a_node12"><a xlink:title=" ">
<polygon fill="white" stroke="#bfbfbf" points="524.5,-554.3 524.5,-573.3 649.5,-573.3 649.5,-554.3 524.5,-554.3"/>
<text text-anchor="middle" x="587" y="-561.3" font-family="Helvetica" font-size="10.00">std::vector&lt; TH2Poly * &gt;</text>
</a>
</g>
</g>
<!-- Node12&#45;&gt;Node1 -->
<g id="edge11" class="edge">
<title>Node12&#45;&gt;Node1</title>
<path fill="none" stroke="#9a32cd" stroke-dasharray="5,2" d="M659.79,-556.94C714.67,-551.7 788.63,-544.63 835.58,-540.14"/>
<polygon fill="#9a32cd" stroke="#9a32cd" points="659.4,-553.46 649.78,-557.9 660.07,-560.43 659.4,-553.46"/>
<text text-anchor="middle" x="749.5" y="-666.8" font-family="Helvetica" font-size="10.00"> DataHist</text>
<text text-anchor="middle" x="749.5" y="-655.8" font-family="Helvetica" font-size="10.00">MeanHist</text>
<text text-anchor="middle" x="749.5" y="-644.8" font-family="Helvetica" font-size="10.00">MeanHistCorrected</text>
<text text-anchor="middle" x="749.5" y="-633.8" font-family="Helvetica" font-size="10.00">ModeHist</text>
<text text-anchor="middle" x="749.5" y="-622.8" font-family="Helvetica" font-size="10.00">NominalHist</text>
<text text-anchor="middle" x="749.5" y="-611.8" font-family="Helvetica" font-size="10.00">W2MeanHist</text>
<text text-anchor="middle" x="749.5" y="-600.8" font-family="Helvetica" font-size="10.00">W2ModeHist</text>
<text text-anchor="middle" x="749.5" y="-589.8" font-family="Helvetica" font-size="10.00">W2NomHist</text>
<text text-anchor="middle" x="749.5" y="-578.8" font-family="Helvetica" font-size="10.00">lnLHist_Mean</text>
<text text-anchor="middle" x="749.5" y="-567.8" font-family="Helvetica" font-size="10.00">lnLHist_Mode</text>
<text text-anchor="middle" x="749.5" y="-556.8" font-family="Helvetica" font-size="10.00">...</text>
</g>
<!-- Node13 -->
<g id="node13" class="node">
<title>Node13</title>
<g id="a_node13"><a xlink:title=" ">
<polygon fill="white" stroke="#bfbfbf" points="511,-492.8 511,-522.8 663,-522.8 663,-492.8 511,-492.8"/>
<text text-anchor="start" x="519" y="-510.8" font-family="Helvetica" font-size="10.00">std::vector&lt; std::vector</text>
<text text-anchor="middle" x="587" y="-499.8" font-family="Helvetica" font-size="10.00">&lt; std::unique_ptr&lt; TH1D &gt; &gt; &gt;</text>
</a>
</g>
</g>
<!-- Node13&#45;&gt;Node1 -->
<g id="edge12" class="edge">
<title>Node13&#45;&gt;Node1</title>
<path fill="none" stroke="#9a32cd" stroke-dasharray="5,2" d="M673.09,-497.05C716.92,-493.92 770.91,-493.84 818,-504.8 835.57,-508.89 853.88,-518.61 866.2,-526.09"/>
<polygon fill="#9a32cd" stroke="#9a32cd" points="672.73,-493.56 663.04,-497.83 673.28,-500.54 672.73,-493.56"/>
<text text-anchor="middle" x="749.5" y="-529.8" font-family="Helvetica" font-size="10.00"> BetaHist</text>
<text text-anchor="middle" x="749.5" y="-518.8" font-family="Helvetica" font-size="10.00">PosteriorHist</text>
<text text-anchor="middle" x="749.5" y="-507.8" font-family="Helvetica" font-size="10.00">w2Hist</text>
</g>
<!-- Node14 -->
<g id="node14" class="node">
<title>Node14</title>
<g id="a_node14"><a xlink:title=" ">
<polygon fill="white" stroke="#bfbfbf" points="524.5,-440.3 524.5,-459.3 649.5,-459.3 649.5,-440.3 524.5,-440.3"/>
<text text-anchor="middle" x="587" y="-447.3" font-family="Helvetica" font-size="10.00">std::unique_ptr&lt; TH2D &gt;</text>
</a>
</g>
</g>
<!-- Node14&#45;&gt;Node1 -->
<g id="edge13" class="edge">
<title>Node14&#45;&gt;Node1</title>
<path fill="none" stroke="#9a32cd" stroke-dasharray="5,2" d="M630.49,-437.88C678.83,-426.79 758.73,-416.14 818,-446.8 850.96,-463.85 870.38,-506.96 877.67,-526.24"/>
<polygon fill="#9a32cd" stroke="#9a32cd" points="629.58,-434.5 620.68,-440.24 631.22,-441.3 629.58,-434.5"/>
<text text-anchor="middle" x="749.5" y="-482.8" font-family="Helvetica" font-size="10.00"> lnLDrawHist</text>
<text text-anchor="middle" x="749.5" y="-471.8" font-family="Helvetica" font-size="10.00">lnLDrawHistRate</text>
<text text-anchor="middle" x="749.5" y="-460.8" font-family="Helvetica" font-size="10.00">lnLFlucHist</text>
<text text-anchor="middle" x="749.5" y="-449.8" font-family="Helvetica" font-size="10.00">lnLFlucHist_ProjectX</text>
</g>
<!-- Node15 -->
<g id="node15" class="node">
<title>Node15</title>
<g id="a_node15"><a xlink:title=" ">
<polygon fill="white" stroke="#bfbfbf" points="520,-402.3 520,-421.3 654,-421.3 654,-402.3 520,-402.3"/>
<text text-anchor="middle" x="587" y="-409.3" font-family="Helvetica" font-size="10.00">std::vector&lt; TDirectory * &gt;</text>
</a>
</g>
</g>
<!-- Node15&#45;&gt;Node1 -->
<g id="edge14" class="edge">
<title>Node15&#45;&gt;Node1</title>
<path fill="none" stroke="#9a32cd" stroke-dasharray="5,2" d="M628.13,-399.67C676.92,-387.45 759.91,-375.03 818,-410.8 860.42,-436.92 875.3,-501.37 879.55,-526"/>
<polygon fill="#9a32cd" stroke="#9a32cd" points="627.05,-396.33 618.26,-402.26 628.82,-403.11 627.05,-396.33"/>
<text text-anchor="middle" x="749.5" y="-413.8" font-family="Helvetica" font-size="10.00"> Dir</text>
</g>
<!-- Node16&#45;&gt;Node1 -->
<g id="edge17" class="edge">
<title>Node16&#45;&gt;Node1</title>
<path fill="none" stroke="#9a32cd" stroke-dasharray="5,2" d="M641.7,-962.92C693.77,-970.3 771.52,-971.77 818,-927.8 875.58,-873.32 880.55,-600.32 880.96,-545.42"/>
<polygon fill="#9a32cd" stroke="#9a32cd" points="642.06,-959.43 631.64,-961.38 641,-966.35 642.06,-959.43"/>
<text text-anchor="middle" x="749.5" y="-969.8" font-family="Helvetica" font-size="10.00"> SampleHandler</text>
</g>
<!-- Node17 -->
<g id="node17" class="node">
<title>Node17</title>
<g id="a_node17"><a xlink:title=" ">
<polygon fill="white" stroke="#bfbfbf" points="528.5,-312.8 528.5,-342.8 645.5,-342.8 645.5,-312.8 528.5,-312.8"/>
<text text-anchor="start" x="536.5" y="-330.8" font-family="Helvetica" font-size="10.00">std::vector&lt; std::vector</text>
<text text-anchor="middle" x="587" y="-319.8" font-family="Helvetica" font-size="10.00">&lt; TH2Poly * &gt; &gt;</text>
</a>
</g>
</g>
<!-- Node17&#45;&gt;Node1 -->
<g id="edge19" class="edge">
<title>Node17&#45;&gt;Node1</title>
<path fill="none" stroke="#9a32cd" stroke-dasharray="5,2" d="M655.88,-318.8C714.38,-312.59 793.21,-308.38 818,-326.8 851.46,-351.66 873.94,-488.14 879.6,-526.04"/>
<polygon fill="#9a32cd" stroke="#9a32cd" points="655.14,-315.36 645.58,-319.94 655.9,-322.32 655.14,-315.36"/>
<text text-anchor="middle" x="749.5" y="-351.8" font-family="Helvetica" font-size="10.00"> MCVector</text>
<text text-anchor="middle" x="749.5" y="-340.8" font-family="Helvetica" font-size="10.00">MeanHist_ByMode</text>
<text text-anchor="middle" x="749.5" y="-329.8" font-family="Helvetica" font-size="10.00">W2MCVector</text>
</g>
<!-- Node18 -->
<g id="node18" class="node">
<title>Node18</title>
<g id="a_node18"><a xlink:title=" ">
<polygon fill="white" stroke="#bfbfbf" points="525,-274.3 525,-293.3 649,-293.3 649,-274.3 525,-274.3"/>
<text text-anchor="middle" x="587" y="-281.3" font-family="Helvetica" font-size="10.00">std::vector&lt; std::string &gt;</text>
</a>
</g>
</g>
<!-- Node18&#45;&gt;Node1 -->
<g id="edge20" class="edge">
<title>Node18&#45;&gt;Node1</title>
<path fill="none" stroke="#9a32cd" stroke-dasharray="5,2" d="M659.53,-279.31C717.93,-277.21 794.5,-278.55 818,-297.8 854.78,-327.94 875.22,-485.47 879.94,-526.19"/>
<polygon fill="#9a32cd" stroke="#9a32cd" points="659.07,-275.83 649.22,-279.72 659.35,-282.82 659.07,-275.83"/>
<text text-anchor="middle" x="749.5" y="-300.8" font-family="Helvetica" font-size="10.00"> SampleNames</text>
</g>
<!-- Node19 -->
<g id="node19" class="node">
<title>Node19</title>
<g id="a_node19"><a xlink:title=" ">
<polygon fill="white" stroke="#bfbfbf" points="530.5,-171.3 530.5,-190.3 643.5,-190.3 643.5,-171.3 530.5,-171.3"/>
<text text-anchor="middle" x="587" y="-178.3" font-family="Helvetica" font-size="10.00">std::vector&lt; TH1D * &gt;</text>
</a>
</g>
</g>
<!-- Node19&#45;&gt;Node1 -->
<g id="edge21" class="edge">
<title>Node19&#45;&gt;Node1</title>
<path fill="none" stroke="#9a32cd" stroke-dasharray="5,2" d="M653.71,-173.34C712.9,-168.17 794.14,-165.41 818,-185.8 871.62,-231.63 879.71,-474.49 880.83,-526.14"/>
<polygon fill="#9a32cd" stroke="#9a32cd" points="653.32,-169.86 643.68,-174.26 653.96,-176.83 653.32,-169.86"/>
<text text-anchor="middle" x="749.5" y="-265.8" font-family="Helvetica" font-size="10.00"> DataHist_ProjectX</text>
<text text-anchor="middle" x="749.5" y="-254.8" font-family="Helvetica" font-size="10.00">DataHist_ProjectY</text>
<text text-anchor="middle" x="749.5" y="-243.8" font-family="Helvetica" font-size="10.00">lnLHist_Mean1D</text>
<text text-anchor="middle" x="749.5" y="-232.8" font-family="Helvetica" font-size="10.00">lnLHist_Mean_ProjectX</text>
<text text-anchor="middle" x="749.5" y="-221.8" font-family="Helvetica" font-size="10.00">lnLHist_Mode1D</text>
<text text-anchor="middle" x="749.5" y="-210.8" font-family="Helvetica" font-size="10.00">lnLHist_Sample_DrawData</text>
<text text-anchor="middle" x="749.5" y="-199.8" font-family="Helvetica" font-size="10.00">lnLHist_Sample_DrawflucDraw</text>
<text text-anchor="middle" x="749.5" y="-188.8" font-family="Helvetica" font-size="10.00">lnLHist_Sample_PredflucDraw</text>
</g>
<!-- Node20 -->
<g id="node20" class="node">
<title>Node20</title>
<g id="a_node20"><a xlink:title=" ">
<polygon fill="white" stroke="#bfbfbf" points="532.5,-16.3 532.5,-35.3 641.5,-35.3 641.5,-16.3 532.5,-16.3"/>
<text text-anchor="middle" x="587" y="-23.3" font-family="Helvetica" font-size="10.00">std::vector&lt; double &gt;</text>
</a>
</g>
</g>
<!-- Node20&#45;&gt;Node1 -->
<g id="edge22" class="edge">
<title>Node20&#45;&gt;Node1</title>
<path fill="none" stroke="#9a32cd" stroke-dasharray="5,2" d="M626.62,-13.42C677.38,0.18 766.17,14.36 818,-32.8 856.08,-67.45 877.18,-459.02 880.53,-526.06"/>
<polygon fill="#9a32cd" stroke="#9a32cd" points="625.37,-10.14 616.69,-16.21 627.26,-16.88 625.37,-10.14"/>
<text text-anchor="middle" x="749.5" y="-156.8" font-family="Helvetica" font-size="10.00"> LLHPenaltyVector</text>
<text text-anchor="middle" x="749.5" y="-145.8" font-family="Helvetica" font-size="10.00">WeightVector</text>
<text text-anchor="middle" x="749.5" y="-134.8" font-family="Helvetica" font-size="10.00">llh_data_draw</text>
<text text-anchor="middle" x="749.5" y="-123.8" font-family="Helvetica" font-size="10.00">llh_data_draw_ProjectX</text>
<text text-anchor="middle" x="749.5" y="-112.8" font-family="Helvetica" font-size="10.00">llh_data_drawfluc</text>
<text text-anchor="middle" x="749.5" y="-101.8" font-family="Helvetica" font-size="10.00">llh_data_predfluc</text>
<text text-anchor="middle" x="749.5" y="-90.8" font-family="Helvetica" font-size="10.00">llh_datafluc_draw</text>
<text text-anchor="middle" x="749.5" y="-79.8" font-family="Helvetica" font-size="10.00">llh_draw_pred</text>
<text text-anchor="middle" x="749.5" y="-68.8" font-family="Helvetica" font-size="10.00">llh_drawfluc_draw</text>
<text text-anchor="start" x="698" y="-57.8" font-family="Helvetica" font-size="10.00">llh_drawfluc_draw</text>
<text text-anchor="middle" x="749.5" y="-46.8" font-family="Helvetica" font-size="10.00">_ProjectX</text>
<text text-anchor="middle" x="749.5" y="-35.8" font-family="Helvetica" font-size="10.00">...</text>
</g>
</g>
</svg>
        <g id="navigator" transform="translate(0 0)" fill="#404254">
                <rect fill="#f2f5e9" fill-opacity="0.5" stroke="#606060" stroke-width=".5" x="0" y="0" width="60" height="60"/>
                <use id="zoomplus" xlink:href="#zoomPlus" x="17" y="9" onmousedown="handleZoom(evt,'in')"/>
                <use id="zoomminus" xlink:href="#zoomMin" x="42" y="9" onmousedown="handleZoom(evt,'out')"/>
                <use id="reset" xlink:href="#resetDef" x="30" y="36" onmousedown="handleReset()"/>
                <g id="arrowUp" xlink:href="#dirArrow" transform="translate(30 24)" onmousedown="handlePan(0,-1)">
                  <use xlink:href="#rim" fill="#404040">
                        <set attributeName="fill" to="#808080" begin="arrowUp.mouseover" end="arrowUp.mouseout"/>
                  </use>
                  <path fill="none" stroke="white" stroke-width="1.5" d="M0,-3.0v7 M-2.5,-0.5L0,-3.0L2.5,-0.5"/>
                </g>
                <g id="arrowRight" xlink:href="#dirArrow" transform="rotate(90) translate(36 -43)" onmousedown="handlePan(1,0)">
                  <use xlink:href="#rim" fill="#404040">
                        <set attributeName="fill" to="#808080" begin="arrowRight.mouseover" end="arrowRight.mouseout"/>
                  </use>
                  <path fill="none" stroke="white" stroke-width="1.5" d="M0,-3.0v7 M-2.5,-0.5L0,-3.0L2.5,-0.5"/>
                </g>
                <g id="arrowDown" xlink:href="#dirArrow" transform="rotate(180) translate(-30 -48)" onmousedown="handlePan(0,1)">
                  <use xlink:href="#rim" fill="#404040">
                        <set attributeName="fill" to="#808080" begin="arrowDown.mouseover" end="arrowDown.mouseout"/>
                  </use>
                  <path fill="none" stroke="white" stroke-width="1.5" d="M0,-3.0v7 M-2.5,-0.5L0,-3.0L2.5,-0.5"/>
                </g>
                <g id="arrowLeft" xlink:href="#dirArrow" transform="rotate(270) translate(-36 17)" onmousedown="handlePan(-1,0)">
                  <use xlink:href="#rim" fill="#404040">
                        <set attributeName="fill" to="#808080" begin="arrowLeft.mouseover" end="arrowLeft.mouseout"/>
                  </use>
                  <path fill="none" stroke="white" stroke-width="1.5" d="M0,-3.0v7 M-2.5,-0.5L0,-3.0L2.5,-0.5"/>
                </g>
        </g>
        <svg viewBox="0 0 15 15" width="100%" height="30px" preserveAspectRatio="xMaxYMin meet">
         <g id="arrow_out" transform="scale(0.3 0.3)">
          <a xlink:href="classSampleSummary__coll__graph_org.svg" target="_base">
           <rect id="button" ry="5" rx="5" y="6" x="6" height="38" width="38"
                fill="#f2f5e9" fill-opacity="0.5" stroke="#606060" stroke-width="1.0"/>
           <path id="arrow"
             d="M 11.500037,31.436501 C 11.940474,20.09759 22.043105,11.32322 32.158766,21.979434 L 37.068811,17.246167 C 37.068811,17.246167 37.088388,32 37.088388,32 L 22.160133,31.978069 C 22.160133,31.978069 26.997745,27.140456 26.997745,27.140456 C 18.528582,18.264221 13.291696,25.230495 11.500037,31.436501 z"
             style="fill:#404040;"/>
          </a>
         </g>
        </svg>
</svg>
