<?xml version="1.0" encoding="UTF-8" standalone="no"?>
<!DOCTYPE svg PUBLIC "-//W3C//DTD SVG 1.1//EN"
 "http://www.w3.org/Graphics/SVG/1.1/DTD/svg11.dtd">
<!-- Generated by graphviz version 2.44.0 (0)
 -->
<!-- Title: /hosthome/v2.1.0/Diagnostics/CombineMaCh3Chains.cpp Pages: 1 -->
<svg width="2095pt" height="431pt"
 viewBox="0.00 0.00 2095.00 431.00" xmlns="http://www.w3.org/2000/svg" xmlns:xlink="http://www.w3.org/1999/xlink">
<g id="graph0" class="graph" transform="scale(1 1) rotate(0) translate(4 427)">
<title>/hosthome/v2.1.0/Diagnostics/CombineMaCh3Chains.cpp</title>
<polygon fill="white" stroke="transparent" points="-4,4 -4,-427 2091,-427 2091,4 -4,4"/>
<!-- Node1 -->
<g id="node1" class="node">
<title>Node1</title>
<g id="a_node1"><a xlink:title=" ">
<polygon fill="#bfbfbf" stroke="black" points="1249,-392.5 1249,-422.5 1396,-422.5 1396,-392.5 1249,-392.5"/>
<text text-anchor="start" x="1257" y="-410.5" font-family="Helvetica" font-size="10.00">/hosthome/v2.1.0/Diagnostics</text>
<text text-anchor="middle" x="1322.5" y="-399.5" font-family="Helvetica" font-size="10.00">/CombineMaCh3Chains.cpp</text>
</a>
</g>
</g>
<!-- Node2 -->
<g id="node2" class="node">
<title>Node2</title>
<g id="a_node2"><a xlink:title=" ">
<polygon fill="white" stroke="#bfbfbf" points="0,-336.5 0,-355.5 51,-355.5 51,-336.5 0,-336.5"/>
<text text-anchor="middle" x="25.5" y="-343.5" font-family="Helvetica" font-size="10.00">unistd.h</text>
</a>
</g>
</g>
<!-- Node1&#45;&gt;Node2 -->
<g id="edge1" class="edge">
<title>Node1&#45;&gt;Node2</title>
<path fill="none" stroke="midnightblue" d="M1248.77,-405.29C1015.69,-401.2 296.52,-386.38 65.5,-356 64.04,-355.81 62.56,-355.59 61.07,-355.35"/>
<polygon fill="midnightblue" stroke="midnightblue" points="61.67,-351.9 51.2,-353.5 60.38,-358.78 61.67,-351.9"/>
</g>
<!-- Node3 -->
<g id="node3" class="node">
<title>Node3</title>
<g id="a_node3"><a xlink:href="Manager_8h.html" target="_top" xlink:title=" ">
<polygon fill="white" stroke="black" points="968,-336.5 968,-355.5 1071,-355.5 1071,-336.5 968,-336.5"/>
<text text-anchor="middle" x="1019.5" y="-343.5" font-family="Helvetica" font-size="10.00">Manager/Manager.h</text>
</a>
</g>
</g>
<!-- Node1&#45;&gt;Node3 -->
<g id="edge2" class="edge">
<title>Node1&#45;&gt;Node3</title>
<path fill="none" stroke="midnightblue" d="M1251.08,-392.47C1196.41,-381.74 1122.21,-367.17 1072.69,-357.44"/>
<polygon fill="midnightblue" stroke="midnightblue" points="1073.31,-354 1062.82,-355.51 1071.96,-360.87 1073.31,-354"/>
</g>
<!-- Node4 -->
<g id="node4" class="node">
<title>Node4</title>
<g id="a_node4"><a xlink:href="SampleStructs_8h.html" target="_top" xlink:title=" ">
<polygon fill="white" stroke="black" points="1315,-224.5 1315,-243.5 1446,-243.5 1446,-224.5 1315,-224.5"/>
<text text-anchor="middle" x="1380.5" y="-231.5" font-family="Helvetica" font-size="10.00">Samples/SampleStructs.h</text>
</a>
</g>
</g>
<!-- Node1&#45;&gt;Node4 -->
<g id="edge63" class="edge">
<title>Node1&#45;&gt;Node4</title>
<path fill="none" stroke="midnightblue" d="M1327.25,-392.47C1337.7,-361.57 1362.68,-287.69 1374.33,-253.25"/>
<polygon fill="midnightblue" stroke="midnightblue" points="1377.72,-254.15 1377.61,-243.56 1371.09,-251.91 1377.72,-254.15"/>
</g>
<!-- Node25 -->
<g id="node25" class="node">
<title>Node25</title>
<g id="a_node25"><a xlink:title=" ">
<polygon fill="white" stroke="#bfbfbf" points="2040,-168.5 2040,-187.5 2087,-187.5 2087,-168.5 2040,-168.5"/>
<text text-anchor="middle" x="2063.5" y="-175.5" font-family="Helvetica" font-size="10.00">TFile.h</text>
</a>
</g>
</g>
<!-- Node1&#45;&gt;Node25 -->
<g id="edge65" class="edge">
<title>Node1&#45;&gt;Node25</title>
<path fill="none" stroke="midnightblue" d="M1329.95,-392.48C1339.31,-376.28 1356.92,-350.06 1379.5,-336 1628.89,-180.67 1740.96,-259.32 2029.86,-188.3"/>
<polygon fill="midnightblue" stroke="midnightblue" points="2030.92,-191.64 2039.77,-185.82 2029.22,-184.85 2030.92,-191.64"/>
</g>
<!-- Node33 -->
<g id="node33" class="node">
<title>Node33</title>
<g id="a_node33"><a xlink:title=" ">
<polygon fill="white" stroke="#bfbfbf" points="383.5,-168.5 383.5,-187.5 441.5,-187.5 441.5,-168.5 383.5,-168.5"/>
<text text-anchor="middle" x="412.5" y="-175.5" font-family="Helvetica" font-size="10.00">TMacro.h</text>
</a>
</g>
</g>
<!-- Node1&#45;&gt;Node33 -->
<g id="edge66" class="edge">
<title>Node1&#45;&gt;Node33</title>
<path fill="none" stroke="midnightblue" d="M1248.7,-402.03C1000.72,-386.27 208.83,-329.55 136.5,-244 130.76,-237.21 130.74,-230.77 136.5,-224 166.41,-188.82 304.28,-181.07 373.14,-179.42"/>
<polygon fill="midnightblue" stroke="midnightblue" points="373.25,-182.92 383.17,-179.21 373.1,-175.92 373.25,-182.92"/>
</g>
<!-- Node34 -->
<g id="node34" class="node">
<title>Node34</title>
<g id="a_node34"><a xlink:title=" ">
<polygon fill="white" stroke="#bfbfbf" points="961.5,-168.5 961.5,-187.5 1007.5,-187.5 1007.5,-168.5 961.5,-168.5"/>
<text text-anchor="middle" x="984.5" y="-175.5" font-family="Helvetica" font-size="10.00">TList.h</text>
</a>
</g>
</g>
<!-- Node1&#45;&gt;Node34 -->
<g id="edge64" class="edge">
<title>Node1&#45;&gt;Node34</title>
<path fill="none" stroke="midnightblue" d="M1301.61,-392.44C1241.24,-351.8 1066.94,-234.49 1005.91,-193.41"/>
<polygon fill="midnightblue" stroke="midnightblue" points="1007.69,-190.39 997.44,-187.71 1003.78,-196.2 1007.69,-190.39"/>
</g>
<!-- Node38 -->
<g id="node38" class="node">
<title>Node38</title>
<g id="a_node38"><a xlink:title=" ">
<polygon fill="white" stroke="#bfbfbf" points="914.5,-224.5 914.5,-243.5 964.5,-243.5 964.5,-224.5 914.5,-224.5"/>
<text text-anchor="middle" x="939.5" y="-231.5" font-family="Helvetica" font-size="10.00">TTree.h</text>
</a>
</g>
</g>
<!-- Node1&#45;&gt;Node38 -->
<g id="edge67" class="edge">
<title>Node1&#45;&gt;Node38</title>
<path fill="none" stroke="midnightblue" d="M1248.6,-406.29C1154.24,-404.38 998.38,-395.18 958.5,-356 931.16,-329.14 932.9,-280.12 936.32,-253.46"/>
<polygon fill="midnightblue" stroke="midnightblue" points="939.79,-253.94 937.81,-243.53 932.87,-252.9 939.79,-253.94"/>
</g>
<!-- Node42 -->
<g id="node42" class="node">
<title>Node42</title>
<g id="a_node42"><a xlink:title=" ">
<polygon fill="white" stroke="#bfbfbf" points="1388.5,-336.5 1388.5,-355.5 1440.5,-355.5 1440.5,-336.5 1388.5,-336.5"/>
<text text-anchor="middle" x="1414.5" y="-343.5" font-family="Helvetica" font-size="10.00">TMD5.h</text>
</a>
</g>
</g>
<!-- Node1&#45;&gt;Node42 -->
<g id="edge68" class="edge">
<title>Node1&#45;&gt;Node42</title>
<path fill="none" stroke="midnightblue" d="M1344.3,-392.4C1358.91,-382.95 1378.07,-370.56 1392.68,-361.11"/>
<polygon fill="midnightblue" stroke="midnightblue" points="1394.62,-364.03 1401.11,-355.66 1390.82,-358.15 1394.62,-364.03"/>
</g>
<!-- Node43 -->
<g id="node43" class="node">
<title>Node43</title>
<g id="a_node43"><a xlink:title=" ">
<polygon fill="white" stroke="#bfbfbf" points="1459,-336.5 1459,-355.5 1536,-355.5 1536,-336.5 1459,-336.5"/>
<text text-anchor="middle" x="1497.5" y="-343.5" font-family="Helvetica" font-size="10.00">TFileMerger.h</text>
</a>
</g>
</g>
<!-- Node1&#45;&gt;Node43 -->
<g id="edge69" class="edge">
<title>Node1&#45;&gt;Node43</title>
<path fill="none" stroke="midnightblue" d="M1363.97,-392.4C1394.08,-382.16 1434.35,-368.47 1462.77,-358.81"/>
<polygon fill="midnightblue" stroke="midnightblue" points="1463.95,-362.1 1472.29,-355.57 1461.7,-355.48 1463.95,-362.1"/>
</g>
<!-- Node44 -->
<g id="node44" class="node">
<title>Node44</title>
<g id="a_node44"><a xlink:title=" ">
<polygon fill="white" stroke="#bfbfbf" points="1554,-336.5 1554,-355.5 1601,-355.5 1601,-336.5 1554,-336.5"/>
<text text-anchor="middle" x="1577.5" y="-343.5" font-family="Helvetica" font-size="10.00">TKey.h</text>
</a>
</g>
</g>
<!-- Node1&#45;&gt;Node44 -->
<g id="edge70" class="edge">
<title>Node1&#45;&gt;Node44</title>
<path fill="none" stroke="midnightblue" d="M1388.58,-392.47C1430.63,-383.33 1486.47,-370.79 1543.81,-356.35"/>
<polygon fill="midnightblue" stroke="midnightblue" points="1544.94,-359.67 1553.77,-353.82 1543.22,-352.88 1544.94,-359.67"/>
</g>
<!-- Node45 -->
<g id="node45" class="node">
<title>Node45</title>
<g id="a_node45"><a xlink:title=" ">
<polygon fill="white" stroke="#bfbfbf" points="1619.5,-336.5 1619.5,-355.5 1677.5,-355.5 1677.5,-336.5 1619.5,-336.5"/>
<text text-anchor="middle" x="1648.5" y="-343.5" font-family="Helvetica" font-size="10.00">TROOT.h</text>
</a>
</g>
</g>
<!-- Node1&#45;&gt;Node45 -->
<g id="edge71" class="edge">
<title>Node1&#45;&gt;Node45</title>
<path fill="none" stroke="midnightblue" d="M1396.12,-394.82C1452.05,-385.66 1531.1,-372.11 1609.45,-356.12"/>
<polygon fill="midnightblue" stroke="midnightblue" points="1610.4,-359.5 1619.49,-354.06 1608.99,-352.64 1610.4,-359.5"/>
</g>
<!-- Node3&#45;&gt;Node4 -->
<g id="edge3" class="edge">
<title>Node3&#45;&gt;Node4</title>
<path fill="none" stroke="midnightblue" d="M1047.53,-336.46C1111.76,-316.89 1269.69,-268.77 1342.54,-246.57"/>
<polygon fill="midnightblue" stroke="midnightblue" points="1343.7,-249.87 1352.24,-243.61 1341.66,-243.18 1343.7,-249.87"/>
</g>
<!-- Node8 -->
<g id="node8" class="node">
<title>Node8</title>
<g id="a_node8"><a xlink:href="MaCh3Exception_8h.html" target="_top" xlink:title=" ">
<polygon fill="white" stroke="black" points="1025.5,-168.5 1025.5,-187.5 1165.5,-187.5 1165.5,-168.5 1025.5,-168.5"/>
<text text-anchor="middle" x="1095.5" y="-175.5" font-family="Helvetica" font-size="10.00">Manager/MaCh3Exception.h</text>
</a>
</g>
</g>
<!-- Node3&#45;&gt;Node8 -->
<g id="edge62" class="edge">
<title>Node3&#45;&gt;Node8</title>
<path fill="none" stroke="midnightblue" d="M1023.59,-336.08C1035.65,-309.72 1071.29,-231.88 1087.41,-196.66"/>
<polygon fill="midnightblue" stroke="midnightblue" points="1090.6,-198.12 1091.58,-187.57 1084.23,-195.2 1090.6,-198.12"/>
</g>
<!-- Node30 -->
<g id="node30" class="node">
<title>Node30</title>
<g id="a_node30"><a xlink:href="YamlHelper_8h.html" target="_top" xlink:title="Utility functions for handling YAML nodes.">
<polygon fill="white" stroke="black" points="742.5,-224.5 742.5,-243.5 858.5,-243.5 858.5,-224.5 742.5,-224.5"/>
<text text-anchor="middle" x="800.5" y="-231.5" font-family="Helvetica" font-size="10.00">Manager/YamlHelper.h</text>
</a>
</g>
</g>
<!-- Node3&#45;&gt;Node30 -->
<g id="edge36" class="edge">
<title>Node3&#45;&gt;Node30</title>
<path fill="none" stroke="midnightblue" d="M1002.32,-336.37C964.18,-317.21 872.24,-271.04 826.81,-248.22"/>
<polygon fill="midnightblue" stroke="midnightblue" points="828.11,-244.95 817.6,-243.59 824.97,-251.21 828.11,-244.95"/>
</g>
<!-- Node36 -->
<g id="node36" class="node">
<title>Node36</title>
<g id="a_node36"><a xlink:href="Monitor_8h.html" target="_top" xlink:title="System and monitoring utilities for printing system information and status updates.">
<polygon fill="white" stroke="black" points="477.5,-280.5 477.5,-299.5 575.5,-299.5 575.5,-280.5 477.5,-280.5"/>
<text text-anchor="middle" x="526.5" y="-287.5" font-family="Helvetica" font-size="10.00">Manager/Monitor.h</text>
</a>
</g>
</g>
<!-- Node3&#45;&gt;Node36 -->
<g id="edge48" class="edge">
<title>Node3&#45;&gt;Node36</title>
<path fill="none" stroke="midnightblue" d="M967.67,-339.32C875.39,-329.21 683.16,-308.16 585.78,-297.49"/>
<polygon fill="midnightblue" stroke="midnightblue" points="586.12,-294.01 575.8,-296.4 585.36,-300.97 586.12,-294.01"/>
</g>
<!-- Node5 -->
<g id="node5" class="node">
<title>Node5</title>
<g id="a_node5"><a xlink:title=" ">
<polygon fill="white" stroke="#bfbfbf" points="1387.5,-168.5 1387.5,-187.5 1417.5,-187.5 1417.5,-168.5 1387.5,-168.5"/>
<text text-anchor="middle" x="1402.5" y="-175.5" font-family="Helvetica" font-size="10.00">set</text>
</a>
</g>
</g>
<!-- Node4&#45;&gt;Node5 -->
<g id="edge4" class="edge">
<title>Node4&#45;&gt;Node5</title>
<path fill="none" stroke="midnightblue" d="M1384.13,-224.08C1387.11,-216.77 1391.43,-206.18 1395.12,-197.1"/>
<polygon fill="midnightblue" stroke="midnightblue" points="1398.4,-198.33 1398.93,-187.75 1391.92,-195.69 1398.4,-198.33"/>
</g>
<!-- Node6 -->
<g id="node6" class="node">
<title>Node6</title>
<g id="a_node6"><a xlink:title=" ">
<polygon fill="white" stroke="#bfbfbf" points="1436,-168.5 1436,-187.5 1465,-187.5 1465,-168.5 1436,-168.5"/>
<text text-anchor="middle" x="1450.5" y="-175.5" font-family="Helvetica" font-size="10.00">list</text>
</a>
</g>
</g>
<!-- Node4&#45;&gt;Node6 -->
<g id="edge5" class="edge">
<title>Node4&#45;&gt;Node6</title>
<path fill="none" stroke="midnightblue" d="M1391.75,-224.32C1402.3,-216.18 1418.3,-203.84 1430.94,-194.09"/>
<polygon fill="midnightblue" stroke="midnightblue" points="1433.27,-196.71 1439.05,-187.83 1428.99,-191.17 1433.27,-196.71"/>
</g>
<!-- Node7 -->
<g id="node7" class="node">
<title>Node7</title>
<g id="a_node7"><a xlink:title=" ">
<polygon fill="white" stroke="#bfbfbf" points="1483,-168.5 1483,-187.5 1566,-187.5 1566,-168.5 1483,-168.5"/>
<text text-anchor="middle" x="1524.5" y="-175.5" font-family="Helvetica" font-size="10.00">unordered_map</text>
</a>
</g>
</g>
<!-- Node4&#45;&gt;Node7 -->
<g id="edge6" class="edge">
<title>Node4&#45;&gt;Node7</title>
<path fill="none" stroke="midnightblue" d="M1403.32,-224.44C1427.33,-215.44 1465.33,-201.19 1492.37,-191.05"/>
<polygon fill="midnightblue" stroke="midnightblue" points="1493.66,-194.3 1501.79,-187.52 1491.2,-187.75 1493.66,-194.3"/>
</g>
<!-- Node4&#45;&gt;Node8 -->
<g id="edge7" class="edge">
<title>Node4&#45;&gt;Node8</title>
<path fill="none" stroke="midnightblue" d="M1335.34,-224.44C1285.21,-214.94 1204.28,-199.61 1150.49,-189.42"/>
<polygon fill="midnightblue" stroke="midnightblue" points="1150.92,-185.94 1140.45,-187.52 1149.62,-192.82 1150.92,-185.94"/>
</g>
<!-- Node12 -->
<g id="node12" class="node">
<title>Node12</title>
<g id="a_node12"><a xlink:href="MaCh3Logger_8h.html" target="_top" xlink:title="KS: Based on this https://github.com/gabime/spdlog/blob/a2b4262090fd3f005c2315dcb5be2f0f1774a005/incl...">
<polygon fill="white" stroke="black" points="795.5,-112.5 795.5,-131.5 921.5,-131.5 921.5,-112.5 795.5,-112.5"/>
<text text-anchor="middle" x="858.5" y="-119.5" font-family="Helvetica" font-size="10.00">Manager/MaCh3Logger.h</text>
</a>
</g>
</g>
<!-- Node4&#45;&gt;Node12 -->
<g id="edge27" class="edge">
<title>Node4&#45;&gt;Node12</title>
<path fill="none" stroke="midnightblue" d="M1373.26,-224.4C1360.48,-209.88 1332.32,-180.84 1301.5,-168 1268.3,-154.16 1049.19,-136.66 932.06,-128.13"/>
<polygon fill="midnightblue" stroke="midnightblue" points="931.97,-124.62 921.74,-127.39 931.46,-131.6 931.97,-124.62"/>
</g>
<!-- Node16 -->
<g id="node16" class="node">
<title>Node16</title>
<g id="a_node16"><a xlink:href="Core_8h.html" target="_top" xlink:title=" ">
<polygon fill="white" stroke="black" points="1032.5,-56.5 1032.5,-75.5 1118.5,-75.5 1118.5,-56.5 1032.5,-56.5"/>
<text text-anchor="middle" x="1075.5" y="-63.5" font-family="Helvetica" font-size="10.00">Manager/Core.h</text>
</a>
</g>
</g>
<!-- Node4&#45;&gt;Node16 -->
<g id="edge28" class="edge">
<title>Node4&#45;&gt;Node16</title>
<path fill="none" stroke="midnightblue" d="M1375.96,-224.2C1368.45,-210.43 1352.2,-183.74 1331.5,-168 1268.49,-120.07 1179.81,-91.88 1125.08,-77.95"/>
<polygon fill="midnightblue" stroke="midnightblue" points="1125.82,-74.52 1115.27,-75.51 1124.13,-81.32 1125.82,-74.52"/>
</g>
<!-- Node23 -->
<g id="node23" class="node">
<title>Node23</title>
<g id="a_node23"><a xlink:title=" ">
<polygon fill="white" stroke="#bfbfbf" points="1584.5,-168.5 1584.5,-187.5 1642.5,-187.5 1642.5,-168.5 1584.5,-168.5"/>
<text text-anchor="middle" x="1613.5" y="-175.5" font-family="Helvetica" font-size="10.00">TSpline.h</text>
</a>
</g>
</g>
<!-- Node4&#45;&gt;Node23 -->
<g id="edge29" class="edge">
<title>Node4&#45;&gt;Node23</title>
<path fill="none" stroke="midnightblue" d="M1417.9,-224.44C1455.09,-215.91 1514.06,-202.34 1574.38,-188.25"/>
<polygon fill="midnightblue" stroke="midnightblue" points="1575.52,-191.58 1584.46,-185.9 1573.92,-184.76 1575.52,-191.58"/>
</g>
<!-- Node24 -->
<g id="node24" class="node">
<title>Node24</title>
<g id="a_node24"><a xlink:title=" ">
<polygon fill="white" stroke="#bfbfbf" points="1222,-168.5 1222,-187.5 1293,-187.5 1293,-168.5 1222,-168.5"/>
<text text-anchor="middle" x="1257.5" y="-175.5" font-family="Helvetica" font-size="10.00">TObjString.h</text>
</a>
</g>
</g>
<!-- Node4&#45;&gt;Node24 -->
<g id="edge30" class="edge">
<title>Node4&#45;&gt;Node24</title>
<path fill="none" stroke="midnightblue" d="M1361.01,-224.44C1340.86,-215.6 1309.18,-201.69 1286.17,-191.59"/>
<polygon fill="midnightblue" stroke="midnightblue" points="1287.46,-188.33 1276.9,-187.52 1284.65,-194.74 1287.46,-188.33"/>
</g>
<!-- Node4&#45;&gt;Node25 -->
<g id="edge31" class="edge">
<title>Node4&#45;&gt;Node25</title>
<path fill="none" stroke="midnightblue" d="M1446.4,-225.33C1451.17,-224.85 1455.91,-224.4 1460.5,-224 1710.47,-202.07 1779.02,-229.91 2029.72,-187.97"/>
<polygon fill="midnightblue" stroke="midnightblue" points="2030.59,-191.37 2039.86,-186.25 2029.42,-184.47 2030.59,-191.37"/>
</g>
<!-- Node26 -->
<g id="node26" class="node">
<title>Node26</title>
<g id="a_node26"><a xlink:title=" ">
<polygon fill="white" stroke="#bfbfbf" points="1660.5,-168.5 1660.5,-187.5 1702.5,-187.5 1702.5,-168.5 1660.5,-168.5"/>
<text text-anchor="middle" x="1681.5" y="-175.5" font-family="Helvetica" font-size="10.00">TF1.h</text>
</a>
</g>
</g>
<!-- Node4&#45;&gt;Node26 -->
<g id="edge32" class="edge">
<title>Node4&#45;&gt;Node26</title>
<path fill="none" stroke="midnightblue" d="M1446.12,-224.48C1498.92,-217.09 1575.15,-205.19 1650.19,-188.07"/>
<polygon fill="midnightblue" stroke="midnightblue" points="1651.33,-191.39 1660.28,-185.73 1649.75,-184.57 1651.33,-191.39"/>
</g>
<!-- Node27 -->
<g id="node27" class="node">
<title>Node27</title>
<g id="a_node27"><a xlink:title=" ">
<polygon fill="white" stroke="#bfbfbf" points="1720.5,-168.5 1720.5,-187.5 1782.5,-187.5 1782.5,-168.5 1720.5,-168.5"/>
<text text-anchor="middle" x="1751.5" y="-175.5" font-family="Helvetica" font-size="10.00">TH2Poly.h</text>
</a>
</g>
</g>
<!-- Node4&#45;&gt;Node27 -->
<g id="edge33" class="edge">
<title>Node4&#45;&gt;Node27</title>
<path fill="none" stroke="midnightblue" d="M1446.05,-224.77C1523.09,-214.98 1647.44,-198.81 1709.91,-188.13"/>
<polygon fill="midnightblue" stroke="midnightblue" points="1710.87,-191.51 1720.11,-186.33 1709.65,-184.62 1710.87,-191.51"/>
</g>
<!-- Node28 -->
<g id="node28" class="node">
<title>Node28</title>
<g id="a_node28"><a xlink:title=" ">
<polygon fill="white" stroke="#bfbfbf" points="1800.5,-168.5 1800.5,-187.5 1844.5,-187.5 1844.5,-168.5 1800.5,-168.5"/>
<text text-anchor="middle" x="1822.5" y="-175.5" font-family="Helvetica" font-size="10.00">TH1.h</text>
</a>
</g>
</g>
<!-- Node4&#45;&gt;Node28 -->
<g id="edge34" class="edge">
<title>Node4&#45;&gt;Node28</title>
<path fill="none" stroke="midnightblue" d="M1446.42,-225.56C1451.18,-225.03 1455.92,-224.51 1460.5,-224 1604.28,-208.09 1644.54,-216.35 1790.06,-187.97"/>
<polygon fill="midnightblue" stroke="midnightblue" points="1791.13,-191.33 1800.26,-185.96 1789.77,-184.46 1791.13,-191.33"/>
</g>
<!-- Node29 -->
<g id="node29" class="node">
<title>Node29</title>
<g id="a_node29"><a xlink:title=" ">
<polygon fill="white" stroke="#bfbfbf" points="1863,-168.5 1863,-187.5 2022,-187.5 2022,-168.5 1863,-168.5"/>
<text text-anchor="middle" x="1942.5" y="-175.5" font-family="Helvetica" font-size="10.00">Constants/OscillatorConstants.h</text>
</a>
</g>
</g>
<!-- Node4&#45;&gt;Node29 -->
<g id="edge35" class="edge">
<title>Node4&#45;&gt;Node29</title>
<path fill="none" stroke="midnightblue" d="M1446.41,-225.48C1451.18,-224.97 1455.91,-224.47 1460.5,-224 1631.75,-206.53 1677.24,-204.88 1852.83,-188.05"/>
<polygon fill="midnightblue" stroke="midnightblue" points="1853.31,-191.52 1862.93,-187.08 1852.64,-184.56 1853.31,-191.52"/>
</g>
<!-- Node9 -->
<g id="node9" class="node">
<title>Node9</title>
<g id="a_node9"><a xlink:title=" ">
<polygon fill="white" stroke="#bfbfbf" points="518.5,-0.5 518.5,-19.5 572.5,-19.5 572.5,-0.5 518.5,-0.5"/>
<text text-anchor="middle" x="545.5" y="-7.5" font-family="Helvetica" font-size="10.00">iostream</text>
</a>
</g>
</g>
<!-- Node8&#45;&gt;Node9 -->
<g id="edge8" class="edge">
<title>Node8&#45;&gt;Node9</title>
<path fill="none" stroke="midnightblue" d="M1025.24,-168.88C924.39,-157.12 749.13,-136.29 735.5,-132 664.58,-109.66 594.21,-53.76 562.68,-26.47"/>
<polygon fill="midnightblue" stroke="midnightblue" points="564.67,-23.56 554.85,-19.59 560.05,-28.82 564.67,-23.56"/>
</g>
<!-- Node10 -->
<g id="node10" class="node">
<title>Node10</title>
<g id="a_node10"><a xlink:title=" ">
<polygon fill="white" stroke="#bfbfbf" points="639,-56.5 639,-75.5 680,-75.5 680,-56.5 639,-56.5"/>
<text text-anchor="middle" x="659.5" y="-63.5" font-family="Helvetica" font-size="10.00">string</text>
</a>
</g>
</g>
<!-- Node8&#45;&gt;Node10 -->
<g id="edge9" class="edge">
<title>Node8&#45;&gt;Node10</title>
<path fill="none" stroke="midnightblue" d="M1028.7,-168.45C944.81,-157.54 809.06,-139.2 786.5,-132 747.37,-119.52 705.65,-95.93 681.11,-80.87"/>
<polygon fill="midnightblue" stroke="midnightblue" points="682.93,-77.88 672.59,-75.55 679.22,-83.81 682.93,-77.88"/>
</g>
<!-- Node11 -->
<g id="node11" class="node">
<title>Node11</title>
<g id="a_node11"><a xlink:title=" ">
<polygon fill="white" stroke="#bfbfbf" points="1008,-112.5 1008,-131.5 1067,-131.5 1067,-112.5 1008,-112.5"/>
<text text-anchor="middle" x="1037.5" y="-119.5" font-family="Helvetica" font-size="10.00">stdexcept</text>
</a>
</g>
</g>
<!-- Node8&#45;&gt;Node11 -->
<g id="edge10" class="edge">
<title>Node8&#45;&gt;Node11</title>
<path fill="none" stroke="midnightblue" d="M1086.18,-168.32C1077.61,-160.34 1064.69,-148.31 1054.31,-138.65"/>
<polygon fill="midnightblue" stroke="midnightblue" points="1056.69,-136.09 1046.99,-131.83 1051.92,-141.21 1056.69,-136.09"/>
</g>
<!-- Node8&#45;&gt;Node12 -->
<g id="edge11" class="edge">
<title>Node8&#45;&gt;Node12</title>
<path fill="none" stroke="midnightblue" d="M1057.95,-168.44C1016.69,-159.04 950.36,-143.93 905.63,-133.74"/>
<polygon fill="midnightblue" stroke="midnightblue" points="906.41,-130.33 895.88,-131.52 904.85,-137.15 906.41,-130.33"/>
</g>
<!-- Node8&#45;&gt;Node16 -->
<g id="edge26" class="edge">
<title>Node8&#45;&gt;Node16</title>
<path fill="none" stroke="midnightblue" d="M1093.93,-168.37C1090.7,-150.62 1083.26,-109.67 1078.88,-85.6"/>
<polygon fill="midnightblue" stroke="midnightblue" points="1082.29,-84.8 1077.06,-75.59 1075.41,-86.06 1082.29,-84.8"/>
</g>
<!-- Node12&#45;&gt;Node9 -->
<g id="edge12" class="edge">
<title>Node12&#45;&gt;Node9</title>
<path fill="none" stroke="midnightblue" d="M829.95,-112.49C803.11,-104.19 762.02,-90.69 727.5,-76 709.58,-68.37 706.52,-63.39 688.5,-56 653.28,-41.55 611.63,-28.92 582.39,-20.75"/>
<polygon fill="midnightblue" stroke="midnightblue" points="583.17,-17.34 572.6,-18.05 581.31,-24.08 583.17,-17.34"/>
</g>
<!-- Node12&#45;&gt;Node10 -->
<g id="edge15" class="edge">
<title>Node12&#45;&gt;Node10</title>
<path fill="none" stroke="midnightblue" d="M826.97,-112.44C789.4,-102.25 727.08,-85.34 689.98,-75.27"/>
<polygon fill="midnightblue" stroke="midnightblue" points="690.79,-71.87 680.23,-72.62 688.96,-78.62 690.79,-71.87"/>
</g>
<!-- Node13 -->
<g id="node13" class="node">
<title>Node13</title>
<g id="a_node13"><a xlink:title=" ">
<polygon fill="white" stroke="#bfbfbf" points="860.5,-0.5 860.5,-19.5 912.5,-19.5 912.5,-0.5 860.5,-0.5"/>
<text text-anchor="middle" x="886.5" y="-7.5" font-family="Helvetica" font-size="10.00">sstream</text>
</a>
</g>
</g>
<!-- Node12&#45;&gt;Node13 -->
<g id="edge13" class="edge">
<title>Node12&#45;&gt;Node13</title>
<path fill="none" stroke="midnightblue" d="M853.27,-112.33C846.31,-99.62 835.74,-75.35 843.5,-56 848.18,-44.33 857.49,-33.97 866.26,-26.14"/>
<polygon fill="midnightblue" stroke="midnightblue" points="868.55,-28.78 874,-19.7 864.08,-23.4 868.55,-28.78"/>
</g>
<!-- Node14 -->
<g id="node14" class="node">
<title>Node14</title>
<g id="a_node14"><a xlink:title=" ">
<polygon fill="white" stroke="#bfbfbf" points="737,-56.5 737,-75.5 796,-75.5 796,-56.5 737,-56.5"/>
<text text-anchor="middle" x="766.5" y="-63.5" font-family="Helvetica" font-size="10.00">functional</text>
</a>
</g>
</g>
<!-- Node12&#45;&gt;Node14 -->
<g id="edge14" class="edge">
<title>Node12&#45;&gt;Node14</title>
<path fill="none" stroke="midnightblue" d="M843.72,-112.32C829.23,-103.82 806.93,-90.73 790.01,-80.8"/>
<polygon fill="midnightblue" stroke="midnightblue" points="791.64,-77.7 781.24,-75.65 788.1,-83.74 791.64,-77.7"/>
</g>
<!-- Node15 -->
<g id="node15" class="node">
<title>Node15</title>
<g id="a_node15"><a xlink:title=" ">
<polygon fill="white" stroke="#bfbfbf" points="852.5,-56.5 852.5,-75.5 910.5,-75.5 910.5,-56.5 852.5,-56.5"/>
<text text-anchor="middle" x="881.5" y="-63.5" font-family="Helvetica" font-size="10.00">exception</text>
</a>
</g>
</g>
<!-- Node12&#45;&gt;Node15 -->
<g id="edge16" class="edge">
<title>Node12&#45;&gt;Node15</title>
<path fill="none" stroke="midnightblue" d="M862.3,-112.08C865.41,-104.77 869.92,-94.18 873.79,-85.1"/>
<polygon fill="midnightblue" stroke="midnightblue" points="877.07,-86.32 877.77,-75.75 870.63,-83.58 877.07,-86.32"/>
</g>
<!-- Node12&#45;&gt;Node16 -->
<g id="edge17" class="edge">
<title>Node12&#45;&gt;Node16</title>
<path fill="none" stroke="midnightblue" d="M892.88,-112.44C930.42,-103.1 990.63,-88.12 1031.57,-77.93"/>
<polygon fill="midnightblue" stroke="midnightblue" points="1032.42,-81.33 1041.28,-75.52 1030.73,-74.53 1032.42,-81.33"/>
</g>
<!-- Node22 -->
<g id="node22" class="node">
<title>Node22</title>
<g id="a_node22"><a xlink:title=" ">
<polygon fill="white" stroke="#bfbfbf" points="929,-56.5 929,-75.5 1014,-75.5 1014,-56.5 929,-56.5"/>
<text text-anchor="middle" x="971.5" y="-63.5" font-family="Helvetica" font-size="10.00">spdlog/spdlog.h</text>
</a>
</g>
</g>
<!-- Node12&#45;&gt;Node22 -->
<g id="edge25" class="edge">
<title>Node12&#45;&gt;Node22</title>
<path fill="none" stroke="midnightblue" d="M876.41,-112.44C894.75,-103.68 923.51,-89.94 944.59,-79.86"/>
<polygon fill="midnightblue" stroke="midnightblue" points="946.17,-82.99 953.68,-75.52 943.15,-76.67 946.17,-82.99"/>
</g>
<!-- Node16&#45;&gt;Node9 -->
<g id="edge20" class="edge">
<title>Node16&#45;&gt;Node9</title>
<path fill="none" stroke="midnightblue" d="M1032.44,-57.41C1029.08,-56.91 1025.74,-56.43 1022.5,-56 859.33,-34.48 663.43,-19.34 582.88,-13.58"/>
<polygon fill="midnightblue" stroke="midnightblue" points="582.96,-10.08 572.74,-12.86 582.47,-17.06 582.96,-10.08"/>
</g>
<!-- Node16&#45;&gt;Node13 -->
<g id="edge18" class="edge">
<title>Node16&#45;&gt;Node13</title>
<path fill="none" stroke="midnightblue" d="M1045.55,-56.44C1012.21,-46.92 958.32,-31.52 922.65,-21.33"/>
<polygon fill="midnightblue" stroke="midnightblue" points="923.23,-17.85 912.66,-18.47 921.31,-24.59 923.23,-17.85"/>
</g>
<!-- Node17 -->
<g id="node17" class="node">
<title>Node17</title>
<g id="a_node17"><a xlink:title=" ">
<polygon fill="white" stroke="#bfbfbf" points="406.5,-0.5 406.5,-19.5 456.5,-19.5 456.5,-0.5 406.5,-0.5"/>
<text text-anchor="middle" x="431.5" y="-7.5" font-family="Helvetica" font-size="10.00">fstream</text>
</a>
</g>
</g>
<!-- Node16&#45;&gt;Node17 -->
<g id="edge19" class="edge">
<title>Node16&#45;&gt;Node17</title>
<path fill="none" stroke="midnightblue" d="M1032.45,-57.33C1029.09,-56.84 1025.74,-56.39 1022.5,-56 795.56,-28.84 737.08,-41.1 509.5,-20 495.58,-18.71 480.29,-17.01 466.96,-15.43"/>
<polygon fill="midnightblue" stroke="midnightblue" points="467.11,-11.92 456.76,-14.21 466.27,-18.87 467.11,-11.92"/>
</g>
<!-- Node18 -->
<g id="node18" class="node">
<title>Node18</title>
<g id="a_node18"><a xlink:title=" ">
<polygon fill="white" stroke="#bfbfbf" points="726,-0.5 726,-19.5 769,-19.5 769,-0.5 726,-0.5"/>
<text text-anchor="middle" x="747.5" y="-7.5" font-family="Helvetica" font-size="10.00">vector</text>
</a>
</g>
</g>
<!-- Node16&#45;&gt;Node18 -->
<g id="edge21" class="edge">
<title>Node16&#45;&gt;Node18</title>
<path fill="none" stroke="midnightblue" d="M1032.41,-57.66C1029.05,-57.1 1025.72,-56.54 1022.5,-56 934.51,-41.33 830.61,-24.45 779.37,-16.15"/>
<polygon fill="midnightblue" stroke="midnightblue" points="779.68,-12.66 769.25,-14.51 778.57,-19.57 779.68,-12.66"/>
</g>
<!-- Node19 -->
<g id="node19" class="node">
<title>Node19</title>
<g id="a_node19"><a xlink:title=" ">
<polygon fill="white" stroke="#bfbfbf" points="1113.5,-0.5 1113.5,-19.5 1163.5,-19.5 1163.5,-0.5 1113.5,-0.5"/>
<text text-anchor="middle" x="1138.5" y="-7.5" font-family="Helvetica" font-size="10.00">iomanip</text>
</a>
</g>
</g>
<!-- Node16&#45;&gt;Node19 -->
<g id="edge22" class="edge">
<title>Node16&#45;&gt;Node19</title>
<path fill="none" stroke="midnightblue" d="M1085.62,-56.32C1095.03,-48.26 1109.24,-36.08 1120.57,-26.37"/>
<polygon fill="midnightblue" stroke="midnightblue" points="1122.88,-29 1128.19,-19.83 1118.32,-23.68 1122.88,-29"/>
</g>
<!-- Node20 -->
<g id="node20" class="node">
<title>Node20</title>
<g id="a_node20"><a xlink:title=" ">
<polygon fill="white" stroke="#bfbfbf" points="993.5,-0.5 993.5,-19.5 1037.5,-19.5 1037.5,-0.5 993.5,-0.5"/>
<text text-anchor="middle" x="1015.5" y="-7.5" font-family="Helvetica" font-size="10.00">cmath</text>
</a>
</g>
</g>
<!-- Node16&#45;&gt;Node20 -->
<g id="edge23" class="edge">
<title>Node16&#45;&gt;Node20</title>
<path fill="none" stroke="midnightblue" d="M1065.86,-56.32C1056.99,-48.34 1043.63,-36.31 1032.89,-26.65"/>
<polygon fill="midnightblue" stroke="midnightblue" points="1035.09,-23.92 1025.32,-19.83 1030.41,-29.13 1035.09,-23.92"/>
</g>
<!-- Node21 -->
<g id="node21" class="node">
<title>Node21</title>
<g id="a_node21"><a xlink:title=" ">
<polygon fill="white" stroke="#bfbfbf" points="1055.5,-0.5 1055.5,-19.5 1095.5,-19.5 1095.5,-0.5 1055.5,-0.5"/>
<text text-anchor="middle" x="1075.5" y="-7.5" font-family="Helvetica" font-size="10.00">limits</text>
</a>
</g>
</g>
<!-- Node16&#45;&gt;Node21 -->
<g id="edge24" class="edge">
<title>Node16&#45;&gt;Node21</title>
<path fill="none" stroke="midnightblue" d="M1075.5,-56.08C1075.5,-49.01 1075.5,-38.86 1075.5,-29.99"/>
<polygon fill="midnightblue" stroke="midnightblue" points="1079,-29.75 1075.5,-19.75 1072,-29.75 1079,-29.75"/>
</g>
<!-- Node30&#45;&gt;Node8 -->
<g id="edge42" class="edge">
<title>Node30&#45;&gt;Node8</title>
<path fill="none" stroke="midnightblue" d="M847.24,-224.44C899.25,-214.92 983.25,-199.55 1038.92,-189.36"/>
<polygon fill="midnightblue" stroke="midnightblue" points="1039.77,-192.76 1048.98,-187.52 1038.51,-185.87 1039.77,-192.76"/>
</g>
<!-- Node30&#45;&gt;Node9 -->
<g id="edge37" class="edge">
<title>Node30&#45;&gt;Node9</title>
<path fill="none" stroke="midnightblue" d="M772.85,-224.42C751.32,-216.92 721.35,-204.62 698.5,-188 634.24,-141.27 578.85,-62.61 556.3,-28.1"/>
<polygon fill="midnightblue" stroke="midnightblue" points="559.18,-26.12 550.83,-19.6 553.3,-29.9 559.18,-26.12"/>
</g>
<!-- Node30&#45;&gt;Node10 -->
<g id="edge39" class="edge">
<title>Node30&#45;&gt;Node10</title>
<path fill="none" stroke="midnightblue" d="M775.37,-224.46C757.09,-217.19 732.79,-205.15 716.5,-188 688.08,-158.08 671.65,-111.39 664.26,-85.64"/>
<polygon fill="midnightblue" stroke="midnightblue" points="667.56,-84.43 661.56,-75.7 660.8,-86.27 667.56,-84.43"/>
</g>
<!-- Node30&#45;&gt;Node16 -->
<g id="edge43" class="edge">
<title>Node30&#45;&gt;Node16</title>
<path fill="none" stroke="midnightblue" d="M858.59,-228.03C961.05,-218.98 1164.14,-199.68 1174.5,-188 1208.1,-150.12 1140.16,-103.2 1100.83,-80.52"/>
<polygon fill="midnightblue" stroke="midnightblue" points="1102.42,-77.4 1091.98,-75.55 1098.99,-83.5 1102.42,-77.4"/>
</g>
<!-- Node30&#45;&gt;Node17 -->
<g id="edge38" class="edge">
<title>Node30&#45;&gt;Node17</title>
<path fill="none" stroke="midnightblue" d="M767.03,-224.46C740.07,-216.87 701.66,-204.43 670.5,-188 579.64,-140.08 485.65,-59.74 448.28,-26.31"/>
<polygon fill="midnightblue" stroke="midnightblue" points="450.57,-23.66 440.8,-19.57 445.88,-28.86 450.57,-23.66"/>
</g>
<!-- Node30&#45;&gt;Node24 -->
<g id="edge46" class="edge">
<title>Node30&#45;&gt;Node24</title>
<path fill="none" stroke="midnightblue" d="M858.62,-227.83C937.74,-220.5 1083.68,-205.97 1207.5,-188 1208.95,-187.79 1210.41,-187.57 1211.89,-187.34"/>
<polygon fill="midnightblue" stroke="midnightblue" points="1212.46,-190.8 1221.77,-185.74 1211.34,-183.89 1212.46,-190.8"/>
</g>
<!-- Node31 -->
<g id="node31" class="node">
<title>Node31</title>
<g id="a_node31"><a xlink:title=" ">
<polygon fill="white" stroke="#bfbfbf" points="726,-168.5 726,-187.5 779,-187.5 779,-168.5 726,-168.5"/>
<text text-anchor="middle" x="752.5" y="-175.5" font-family="Helvetica" font-size="10.00">cxxabi.h</text>
</a>
</g>
</g>
<!-- Node30&#45;&gt;Node31 -->
<g id="edge40" class="edge">
<title>Node30&#45;&gt;Node31</title>
<path fill="none" stroke="midnightblue" d="M792.57,-224.08C785.65,-216.3 775.43,-204.8 767.05,-195.37"/>
<polygon fill="midnightblue" stroke="midnightblue" points="769.54,-192.9 760.28,-187.75 764.31,-197.55 769.54,-192.9"/>
</g>
<!-- Node32 -->
<g id="node32" class="node">
<title>Node32</title>
<g id="a_node32"><a xlink:title=" ">
<polygon fill="white" stroke="#bfbfbf" points="797,-168.5 797,-187.5 838,-187.5 838,-168.5 797,-168.5"/>
<text text-anchor="middle" x="817.5" y="-175.5" font-family="Helvetica" font-size="10.00">regex</text>
</a>
</g>
</g>
<!-- Node30&#45;&gt;Node32 -->
<g id="edge41" class="edge">
<title>Node30&#45;&gt;Node32</title>
<path fill="none" stroke="midnightblue" d="M803.31,-224.08C805.58,-216.85 808.87,-206.41 811.71,-197.4"/>
<polygon fill="midnightblue" stroke="midnightblue" points="815.08,-198.34 814.75,-187.75 808.4,-196.24 815.08,-198.34"/>
</g>
<!-- Node30&#45;&gt;Node33 -->
<g id="edge44" class="edge">
<title>Node30&#45;&gt;Node33</title>
<path fill="none" stroke="midnightblue" d="M742.41,-224.92C662.38,-213.78 520.34,-194.01 451.74,-184.46"/>
<polygon fill="midnightblue" stroke="midnightblue" points="452.16,-180.99 441.77,-183.07 451.19,-187.92 452.16,-180.99"/>
</g>
<!-- Node30&#45;&gt;Node34 -->
<g id="edge45" class="edge">
<title>Node30&#45;&gt;Node34</title>
<path fill="none" stroke="midnightblue" d="M829.66,-224.44C862.86,-214.7 916.98,-198.82 951.65,-188.64"/>
<polygon fill="midnightblue" stroke="midnightblue" points="952.7,-191.98 961.31,-185.81 950.73,-185.26 952.7,-191.98"/>
</g>
<!-- Node35 -->
<g id="node35" class="node">
<title>Node35</title>
<g id="a_node35"><a xlink:title=" ">
<polygon fill="white" stroke="#bfbfbf" points="856,-168.5 856,-187.5 943,-187.5 943,-168.5 856,-168.5"/>
<text text-anchor="middle" x="899.5" y="-175.5" font-family="Helvetica" font-size="10.00">yaml&#45;cpp/yaml.h</text>
</a>
</g>
</g>
<!-- Node30&#45;&gt;Node35 -->
<g id="edge47" class="edge">
<title>Node30&#45;&gt;Node35</title>
<path fill="none" stroke="midnightblue" d="M816.41,-224.32C832.14,-215.74 856.44,-202.49 874.71,-192.52"/>
<polygon fill="midnightblue" stroke="midnightblue" points="876.53,-195.52 883.63,-187.65 873.18,-189.37 876.53,-195.52"/>
</g>
<!-- Node36&#45;&gt;Node8 -->
<g id="edge55" class="edge">
<title>Node36&#45;&gt;Node8</title>
<path fill="none" stroke="midnightblue" d="M575.67,-287.92C643.02,-285.23 767.06,-275.94 867.5,-244 885.69,-238.22 887.63,-230.7 905.5,-224 947.31,-208.33 996.4,-196.87 1034.21,-189.44"/>
<polygon fill="midnightblue" stroke="midnightblue" points="1034.9,-192.87 1044.06,-187.54 1033.58,-186 1034.9,-192.87"/>
</g>
<!-- Node36&#45;&gt;Node9 -->
<g id="edge49" class="edge">
<title>Node36&#45;&gt;Node9</title>
<path fill="none" stroke="midnightblue" d="M527.09,-280.38C529.73,-241.78 540.48,-84.45 544.21,-29.81"/>
<polygon fill="midnightblue" stroke="midnightblue" points="547.73,-29.74 544.92,-19.52 540.74,-29.26 547.73,-29.74"/>
</g>
<!-- Node36&#45;&gt;Node10 -->
<g id="edge51" class="edge">
<title>Node36&#45;&gt;Node10</title>
<path fill="none" stroke="midnightblue" d="M531.71,-280.3C551.49,-247.29 622.11,-129.4 649,-84.52"/>
<polygon fill="midnightblue" stroke="midnightblue" points="652.04,-86.26 654.18,-75.88 646.04,-82.66 652.04,-86.26"/>
</g>
<!-- Node36&#45;&gt;Node12 -->
<g id="edge54" class="edge">
<title>Node36&#45;&gt;Node12</title>
<path fill="none" stroke="midnightblue" d="M540.12,-280.39C554.42,-271.34 577.55,-256.69 597.5,-244 650.45,-210.31 659.66,-194.59 716.5,-168 747.62,-153.44 784.67,-141.88 813.13,-134.12"/>
<polygon fill="midnightblue" stroke="midnightblue" points="814.05,-137.49 822.81,-131.53 812.25,-130.73 814.05,-137.49"/>
</g>
<!-- Node36&#45;&gt;Node17 -->
<g id="edge50" class="edge">
<title>Node36&#45;&gt;Node17</title>
<path fill="none" stroke="midnightblue" d="M477.49,-289.86C384.44,-290.48 186.97,-286.57 136.5,-244 113.49,-224.6 117.5,-209.1 117.5,-179 117.5,-179 117.5,-179 117.5,-121 117.5,-62.48 314.2,-27.69 396.23,-15.72"/>
<polygon fill="midnightblue" stroke="midnightblue" points="396.93,-19.16 406.33,-14.28 395.94,-12.23 396.93,-19.16"/>
</g>
<!-- Node36&#45;&gt;Node18 -->
<g id="edge52" class="edge">
<title>Node36&#45;&gt;Node18</title>
<path fill="none" stroke="midnightblue" d="M534.67,-280.38C550.43,-262.81 583.5,-220.94 583.5,-179 583.5,-179 583.5,-179 583.5,-121 583.5,-57.92 668.22,-28.69 715.88,-17.24"/>
<polygon fill="midnightblue" stroke="midnightblue" points="716.75,-20.63 725.72,-15 715.19,-13.81 716.75,-20.63"/>
</g>
<!-- Node36&#45;&gt;Node30 -->
<g id="edge56" class="edge">
<title>Node36&#45;&gt;Node30</title>
<path fill="none" stroke="midnightblue" d="M569.92,-280.44C618.02,-270.96 695.59,-255.67 747.31,-245.48"/>
<polygon fill="midnightblue" stroke="midnightblue" points="748.15,-248.88 757.29,-243.52 746.8,-242.02 748.15,-248.88"/>
</g>
<!-- Node36&#45;&gt;Node33 -->
<g id="edge59" class="edge">
<title>Node36&#45;&gt;Node33</title>
<path fill="none" stroke="midnightblue" d="M517.55,-280.37C498.41,-261.89 453.22,-218.29 428.82,-194.74"/>
<polygon fill="midnightblue" stroke="midnightblue" points="431.03,-192.02 421.4,-187.59 426.17,-197.05 431.03,-192.02"/>
</g>
<!-- Node37 -->
<g id="node37" class="node">
<title>Node37</title>
<g id="a_node37"><a xlink:title=" ">
<polygon fill="white" stroke="#bfbfbf" points="146,-224.5 146,-243.5 191,-243.5 191,-224.5 146,-224.5"/>
<text text-anchor="middle" x="168.5" y="-231.5" font-family="Helvetica" font-size="10.00">cstdlib</text>
</a>
</g>
</g>
<!-- Node36&#45;&gt;Node37 -->
<g id="edge53" class="edge">
<title>Node36&#45;&gt;Node37</title>
<path fill="none" stroke="midnightblue" d="M477.26,-284.33C415.12,-277.96 304.84,-265.11 201.14,-243.86"/>
<polygon fill="midnightblue" stroke="midnightblue" points="201.63,-240.39 191.13,-241.78 200.21,-247.24 201.63,-240.39"/>
</g>
<!-- Node36&#45;&gt;Node38 -->
<g id="edge57" class="edge">
<title>Node36&#45;&gt;Node38</title>
<path fill="none" stroke="midnightblue" d="M575.75,-284.77C647.52,-278.22 784.87,-264.24 900.5,-244 901.77,-243.78 903.06,-243.54 904.36,-243.29"/>
<polygon fill="midnightblue" stroke="midnightblue" points="905.33,-246.67 914.41,-241.21 903.9,-239.81 905.33,-246.67"/>
</g>
<!-- Node39 -->
<g id="node39" class="node">
<title>Node39</title>
<g id="a_node39"><a xlink:title=" ">
<polygon fill="white" stroke="#bfbfbf" points="209.5,-224.5 209.5,-243.5 271.5,-243.5 271.5,-224.5 209.5,-224.5"/>
<text text-anchor="middle" x="240.5" y="-231.5" font-family="Helvetica" font-size="10.00">TBranch.h</text>
</a>
</g>
</g>
<!-- Node36&#45;&gt;Node39 -->
<g id="edge58" class="edge">
<title>Node36&#45;&gt;Node39</title>
<path fill="none" stroke="midnightblue" d="M477.38,-280.62C429.78,-272.36 355.31,-259.08 281.81,-244.21"/>
<polygon fill="midnightblue" stroke="midnightblue" points="282.41,-240.76 271.92,-242.19 281.02,-247.62 282.41,-240.76"/>
</g>
<!-- Node40 -->
<g id="node40" class="node">
<title>Node40</title>
<g id="a_node40"><a xlink:title=" ">
<polygon fill="white" stroke="#bfbfbf" points="289.5,-224.5 289.5,-243.5 345.5,-243.5 345.5,-224.5 289.5,-224.5"/>
<text text-anchor="middle" x="317.5" y="-231.5" font-family="Helvetica" font-size="10.00">TChain.h</text>
</a>
</g>
</g>
<!-- Node36&#45;&gt;Node40 -->
<g id="edge60" class="edge">
<title>Node36&#45;&gt;Node40</title>
<path fill="none" stroke="midnightblue" d="M493.38,-280.44C455.9,-270.76 394.95,-255.01 355.54,-244.83"/>
<polygon fill="midnightblue" stroke="midnightblue" points="356.33,-241.42 345.77,-242.3 354.58,-248.19 356.33,-241.42"/>
</g>
<!-- Node41 -->
<g id="node41" class="node">
<title>Node41</title>
<g id="a_node41"><a xlink:title=" ">
<polygon fill="white" stroke="#bfbfbf" points="364,-224.5 364,-243.5 441,-243.5 441,-224.5 364,-224.5"/>
<text text-anchor="middle" x="402.5" y="-231.5" font-family="Helvetica" font-size="10.00">TStopwatch.h</text>
</a>
</g>
</g>
<!-- Node36&#45;&gt;Node41 -->
<g id="edge61" class="edge">
<title>Node36&#45;&gt;Node41</title>
<path fill="none" stroke="midnightblue" d="M506.85,-280.44C486.54,-271.6 454.6,-257.69 431.4,-247.59"/>
<polygon fill="midnightblue" stroke="midnightblue" points="432.62,-244.3 422.06,-243.52 429.83,-250.72 432.62,-244.3"/>
</g>
</g>
</svg>
