<?xml version="1.0" encoding="UTF-8" standalone="no"?>
<!DOCTYPE svg PUBLIC "-//W3C//DTD SVG 1.1//EN"
 "http://www.w3.org/Graphics/SVG/1.1/DTD/svg11.dtd">
<!-- Generated by graphviz version 2.44.0 (0)
 -->
<!-- Title: /hosthome/v2.1.0/Splines Pages: 1 -->
<svg width="128pt" height="239pt"
 viewBox="0.00 0.00 128.00 239.00" xmlns="http://www.w3.org/2000/svg" xmlns:xlink="http://www.w3.org/1999/xlink">
<g id="graph0" class="graph" transform="scale(1 1) rotate(0) translate(4 235)">
<title>/hosthome/v2.1.0/Splines</title>
<polygon fill="white" stroke="transparent" points="-4,4 -4,-235 124,-235 124,4 -4,4"/>
<g id="clust1" class="cluster">
<title>clusterdir_2b6e6d7aedbeba199c2c4d387cea8759</title>
<g id="a_clust1"><a xlink:href="dir_2b6e6d7aedbeba199c2c4d387cea8759.html" target="_top" xlink:title="v2.1.0">
<polygon fill="#ddddee" stroke="black" points="8,-8 8,-223 112,-223 112,-8 8,-8"/>
<text text-anchor="middle" x="60" y="-211" font-family="Helvetica" font-size="10.00">v2.1.0</text>
</a>
</g>
</g>
<!-- dir_5b22dbb5ab237d4144e7f72978ff8717 -->
<g id="node1" class="node">
<title>dir_5b22dbb5ab237d4144e7f72978ff8717</title>
<g id="a_node1"><a xlink:href="dir_5b22dbb5ab237d4144e7f72978ff8717.html" target="_top" xlink:title="Parameters">
<polygon fill="none" stroke="black" points="84,-124 16,-124 16,-88 84,-88 84,-124"/>
<text text-anchor="middle" x="50" y="-103.5" font-family="Helvetica" font-size="10.00">Parameters</text>
</a>
</g>
</g>
<!-- dir_b6d51e3e6724aa352c46aa13af4ea980 -->
<g id="node2" class="node">
<title>dir_b6d51e3e6724aa352c46aa13af4ea980</title>
<g id="a_node2"><a xlink:href="dir_b6d51e3e6724aa352c46aa13af4ea980.html" target="_top" xlink:title="Manager">
<polygon fill="none" stroke="black" points="90,-52 36,-52 36,-16 90,-16 90,-52"/>
<text text-anchor="middle" x="63" y="-31.5" font-family="Helvetica" font-size="10.00">Manager</text>
</a>
</g>
</g>
<!-- dir_5b22dbb5ab237d4144e7f72978ff8717&#45;&gt;dir_b6d51e3e6724aa352c46aa13af4ea980 -->
<g id="edge1" class="edge">
<title>dir_5b22dbb5ab237d4144e7f72978ff8717&#45;&gt;dir_b6d51e3e6724aa352c46aa13af4ea980</title>
<path fill="none" stroke="black" d="M53.21,-87.7C54.65,-79.98 56.37,-70.71 57.96,-62.11"/>
<polygon fill="black" stroke="black" points="61.44,-62.58 59.82,-52.1 54.56,-61.3 61.44,-62.58"/>
<g id="a_edge1&#45;headlabel"><a xlink:href="dir_000006_000005.html" target="_top" xlink:title="7">
<text text-anchor="middle" x="63.57" y="-64.13" font-family="Helvetica" font-size="10.00">7</text>
</a>
</g>
</g>
<!-- dir_a09bade3d8e3726d30b49d54feae9ccb -->
<g id="node3" class="node">
<title>dir_a09bade3d8e3726d30b49d54feae9ccb</title>
<g id="a_node3"><a xlink:href="dir_a09bade3d8e3726d30b49d54feae9ccb.html" target="_top" xlink:title="Splines">
<polygon fill="#eeeeff" stroke="black" points="90,-196 36,-196 36,-160 90,-160 90,-196"/>
<text text-anchor="middle" x="63" y="-175.5" font-family="Helvetica" font-size="10.00">Splines</text>
</a>
</g>
</g>
<!-- dir_a09bade3d8e3726d30b49d54feae9ccb&#45;&gt;dir_5b22dbb5ab237d4144e7f72978ff8717 -->
<g id="edge2" class="edge">
<title>dir_a09bade3d8e3726d30b49d54feae9ccb&#45;&gt;dir_5b22dbb5ab237d4144e7f72978ff8717</title>
<path fill="none" stroke="black" d="M59.79,-159.7C58.35,-151.98 56.63,-142.71 55.04,-134.11"/>
<polygon fill="black" stroke="black" points="58.44,-133.3 53.18,-124.1 51.56,-134.58 58.44,-133.3"/>
<g id="a_edge2&#45;headlabel"><a xlink:href="dir_000011_000006.html" target="_top" xlink:title="2">
<text text-anchor="middle" x="61.89" y="-133.81" font-family="Helvetica" font-size="10.00">2</text>
</a>
</g>
</g>
<!-- dir_a09bade3d8e3726d30b49d54feae9ccb&#45;&gt;dir_b6d51e3e6724aa352c46aa13af4ea980 -->
<g id="edge3" class="edge">
<title>dir_a09bade3d8e3726d30b49d54feae9ccb&#45;&gt;dir_b6d51e3e6724aa352c46aa13af4ea980</title>
<path fill="none" stroke="black" d="M75.73,-159.85C82.29,-149.92 89.61,-136.88 93,-124 97.08,-108.53 97.08,-103.47 93,-88 90.51,-78.54 85.9,-68.99 81.03,-60.66"/>
<polygon fill="black" stroke="black" points="83.99,-58.79 75.73,-52.15 78.05,-62.49 83.99,-58.79"/>
<g id="a_edge3&#45;headlabel"><a xlink:href="dir_000011_000005.html" target="_top" xlink:title="2">
<text text-anchor="middle" x="88.3" y="-57.84" font-family="Helvetica" font-size="10.00">2</text>
</a>
</g>
</g>
</g>
</svg>
