<?xml version="1.0" encoding="UTF-8" standalone="no"?>
<!DOCTYPE svg PUBLIC "-//W3C//DTD SVG 1.1//EN"
 "http://www.w3.org/Graphics/SVG/1.1/DTD/svg11.dtd">
<!-- Generated by graphviz version 2.44.0 (0)
 -->
<!-- Title: /hosthome/MaCh3_2.1.0/Manager Pages: 1 -->
<svg width="99pt" height="167pt"
 viewBox="0.00 0.00 99.00 167.00" xmlns="http://www.w3.org/2000/svg" xmlns:xlink="http://www.w3.org/1999/xlink">
<g id="graph0" class="graph" transform="scale(1 1) rotate(0) translate(4 163)">
<title>/hosthome/MaCh3_2.1.0/Manager</title>
<polygon fill="white" stroke="transparent" points="-4,4 -4,-163 95,-163 95,4 -4,4"/>
<g id="clust1" class="cluster">
<title>clusterdir_34617aa297439f1d629557763ddc166f</title>
<g id="a_clust1"><a xlink:href="dir_34617aa297439f1d629557763ddc166f.html" target="_top" xlink:title="MaCh3_2.1.0">
<polygon fill="#ddddee" stroke="black" points="8,-8 8,-151 83,-151 83,-8 8,-8"/>
<text text-anchor="middle" x="45.5" y="-139" font-family="Helvetica" font-size="10.00">MaCh3_2.1.0</text>
</a>
</g>
</g>
<!-- dir_71dfcbd1add876d8758da1cbdfe5f60d -->
<g id="node1" class="node">
<title>dir_71dfcbd1add876d8758da1cbdfe5f60d</title>
<g id="a_node1"><a xlink:href="dir_71dfcbd1add876d8758da1cbdfe5f60d.html" target="_top" xlink:title="Samples">
<polygon fill="none" stroke="black" points="72.5,-124 17.5,-124 17.5,-88 72.5,-88 72.5,-124"/>
<text text-anchor="middle" x="45" y="-103.5" font-family="Helvetica" font-size="10.00">Samples</text>
</a>
</g>
</g>
<!-- dir_65b63ed9391024b821163b2cf70beb66 -->
<g id="node2" class="node">
<title>dir_65b63ed9391024b821163b2cf70beb66</title>
<g id="a_node2"><a xlink:href="dir_65b63ed9391024b821163b2cf70beb66.html" target="_top" xlink:title="Manager">
<polygon fill="#eeeeff" stroke="black" points="72,-52 18,-52 18,-16 72,-16 72,-52"/>
<text text-anchor="middle" x="45" y="-31.5" font-family="Helvetica" font-size="10.00">Manager</text>
</a>
</g>
</g>
<!-- dir_71dfcbd1add876d8758da1cbdfe5f60d&#45;&gt;dir_65b63ed9391024b821163b2cf70beb66 -->
<g id="edge1" class="edge">
<title>dir_71dfcbd1add876d8758da1cbdfe5f60d&#45;&gt;dir_65b63ed9391024b821163b2cf70beb66</title>
<path fill="none" stroke="black" d="M39.08,-87.7C38.29,-79.98 38.06,-70.71 38.4,-62.11"/>
<polygon fill="black" stroke="black" points="41.9,-62.32 39.1,-52.1 34.92,-61.84 41.9,-62.32"/>
<g id="a_edge1&#45;headlabel"><a xlink:href="dir_000010_000005.html" target="_top" xlink:title="7">
<text text-anchor="middle" x="44.48" y="-63.61" font-family="Helvetica" font-size="10.00">7</text>
</a>
</g>
</g>
<!-- dir_65b63ed9391024b821163b2cf70beb66&#45;&gt;dir_71dfcbd1add876d8758da1cbdfe5f60d -->
<g id="edge2" class="edge">
<title>dir_65b63ed9391024b821163b2cf70beb66&#45;&gt;dir_71dfcbd1add876d8758da1cbdfe5f60d</title>
<path fill="none" stroke="black" d="M50.9,-52.1C51.7,-59.79 51.94,-69.05 51.6,-77.67"/>
<polygon fill="black" stroke="black" points="48.11,-77.48 50.92,-87.7 55.09,-77.96 48.11,-77.48"/>
<g id="a_edge2&#45;headlabel"><a xlink:href="dir_000005_000010.html" target="_top" xlink:title="1">
<text text-anchor="middle" x="45.52" y="-71.2" font-family="Helvetica" font-size="10.00">1</text>
</a>
</g>
</g>
</g>
</svg>
