<?xml version="1.0" encoding="UTF-8" standalone="no"?>
<!DOCTYPE svg PUBLIC "-//W3C//DTD SVG 1.1//EN"
 "http://www.w3.org/Graphics/SVG/1.1/DTD/svg11.dtd">
<!-- Generated by graphviz version 2.44.0 (0)
 -->
<!-- Title: /hosthome/v2.1.0/Samples Pages: 1 -->
<svg width="136pt" height="311pt"
 viewBox="0.00 0.00 136.00 311.00" xmlns="http://www.w3.org/2000/svg" xmlns:xlink="http://www.w3.org/1999/xlink">
<g id="graph0" class="graph" transform="scale(1 1) rotate(0) translate(4 307)">
<title>/hosthome/v2.1.0/Samples</title>
<polygon fill="white" stroke="transparent" points="-4,4 -4,-307 132,-307 132,4 -4,4"/>
<g id="clust1" class="cluster">
<title>clusterdir_2b6e6d7aedbeba199c2c4d387cea8759</title>
<g id="a_clust1"><a xlink:href="dir_2b6e6d7aedbeba199c2c4d387cea8759.html" target="_top" xlink:title="v2.1.0">
<polygon fill="#ddddee" stroke="black" points="8,-8 8,-295 120,-295 120,-8 8,-8"/>
<text text-anchor="middle" x="64" y="-283" font-family="Helvetica" font-size="10.00">v2.1.0</text>
</a>
</g>
</g>
<!-- dir_5b22dbb5ab237d4144e7f72978ff8717 -->
<g id="node1" class="node">
<title>dir_5b22dbb5ab237d4144e7f72978ff8717</title>
<g id="a_node1"><a xlink:href="dir_5b22dbb5ab237d4144e7f72978ff8717.html" target="_top" xlink:title="Parameters">
<polygon fill="none" stroke="black" points="112,-268 44,-268 44,-232 112,-232 112,-268"/>
<text text-anchor="middle" x="78" y="-247.5" font-family="Helvetica" font-size="10.00">Parameters</text>
</a>
</g>
</g>
<!-- dir_b6d51e3e6724aa352c46aa13af4ea980 -->
<g id="node3" class="node">
<title>dir_b6d51e3e6724aa352c46aa13af4ea980</title>
<g id="a_node3"><a xlink:href="dir_b6d51e3e6724aa352c46aa13af4ea980.html" target="_top" xlink:title="Manager">
<polygon fill="none" stroke="black" points="70,-196 16,-196 16,-160 70,-160 70,-196"/>
<text text-anchor="middle" x="43" y="-175.5" font-family="Helvetica" font-size="10.00">Manager</text>
</a>
</g>
</g>
<!-- dir_5b22dbb5ab237d4144e7f72978ff8717&#45;&gt;dir_b6d51e3e6724aa352c46aa13af4ea980 -->
<g id="edge5" class="edge">
<title>dir_5b22dbb5ab237d4144e7f72978ff8717&#45;&gt;dir_b6d51e3e6724aa352c46aa13af4ea980</title>
<path fill="none" stroke="black" d="M69.35,-231.7C65.36,-223.73 60.55,-214.1 56.13,-205.26"/>
<polygon fill="black" stroke="black" points="59.15,-203.48 51.55,-196.1 52.89,-206.61 59.15,-203.48"/>
<g id="a_edge5&#45;headlabel"><a xlink:href="dir_000006_000005.html" target="_top" xlink:title="7">
<text text-anchor="middle" x="63.3" y="-202.93" font-family="Helvetica" font-size="10.00">7</text>
</a>
</g>
</g>
<!-- dir_6489b7c74be0b3656af0c7716097efee -->
<g id="node4" class="node">
<title>dir_6489b7c74be0b3656af0c7716097efee</title>
<g id="a_node4"><a xlink:href="dir_6489b7c74be0b3656af0c7716097efee.html" target="_top" xlink:title="Samples">
<polygon fill="#eeeeff" stroke="black" points="91.5,-124 36.5,-124 36.5,-88 91.5,-88 91.5,-124"/>
<text text-anchor="middle" x="64" y="-103.5" font-family="Helvetica" font-size="10.00">Samples</text>
</a>
</g>
</g>
<!-- dir_5b22dbb5ab237d4144e7f72978ff8717&#45;&gt;dir_6489b7c74be0b3656af0c7716097efee -->
<g id="edge4" class="edge">
<title>dir_5b22dbb5ab237d4144e7f72978ff8717&#45;&gt;dir_6489b7c74be0b3656af0c7716097efee</title>
<path fill="none" stroke="black" d="M72.98,-231.84C72.13,-213.85 73.44,-184.8 70,-160 68.82,-151.48 66.61,-142.39 64.64,-134.2"/>
<polygon fill="black" stroke="black" points="68.04,-133.35 62.36,-124.41 61.22,-134.94 68.04,-133.35"/>
<g id="a_edge4&#45;headlabel"><a xlink:href="dir_000006_000010.html" target="_top" xlink:title="1">
<text text-anchor="middle" x="71.62" y="-133.71" font-family="Helvetica" font-size="10.00">1</text>
</a>
</g>
</g>
<!-- dir_a09bade3d8e3726d30b49d54feae9ccb -->
<g id="node2" class="node">
<title>dir_a09bade3d8e3726d30b49d54feae9ccb</title>
<g id="a_node2"><a xlink:href="dir_a09bade3d8e3726d30b49d54feae9ccb.html" target="_top" xlink:title="Splines">
<polygon fill="none" stroke="black" points="91,-52 37,-52 37,-16 91,-16 91,-52"/>
<text text-anchor="middle" x="64" y="-31.5" font-family="Helvetica" font-size="10.00">Splines</text>
</a>
</g>
</g>
<!-- dir_a09bade3d8e3726d30b49d54feae9ccb&#45;&gt;dir_5b22dbb5ab237d4144e7f72978ff8717 -->
<g id="edge6" class="edge">
<title>dir_a09bade3d8e3726d30b49d54feae9ccb&#45;&gt;dir_5b22dbb5ab237d4144e7f72978ff8717</title>
<path fill="none" stroke="black" d="M80.04,-52.15C88.01,-61.88 96.83,-74.73 101,-88 115.37,-133.69 100.6,-189.53 88.99,-222"/>
<polygon fill="black" stroke="black" points="85.6,-221.08 85.38,-231.67 92.16,-223.53 85.6,-221.08"/>
<g id="a_edge6&#45;headlabel"><a xlink:href="dir_000011_000006.html" target="_top" xlink:title="2">
<text text-anchor="middle" x="84.2" y="-214.22" font-family="Helvetica" font-size="10.00">2</text>
</a>
</g>
</g>
<!-- dir_a09bade3d8e3726d30b49d54feae9ccb&#45;&gt;dir_b6d51e3e6724aa352c46aa13af4ea980 -->
<g id="edge7" class="edge">
<title>dir_a09bade3d8e3726d30b49d54feae9ccb&#45;&gt;dir_b6d51e3e6724aa352c46aa13af4ea980</title>
<path fill="none" stroke="black" d="M47.96,-52.15C39.99,-61.88 31.17,-74.73 27,-88 20.55,-108.5 25.58,-132.53 31.65,-150.44"/>
<polygon fill="black" stroke="black" points="28.41,-151.79 35.16,-159.96 34.98,-149.37 28.41,-151.79"/>
<g id="a_edge7&#45;headlabel"><a xlink:href="dir_000011_000005.html" target="_top" xlink:title="2">
<text text-anchor="middle" x="24.5" y="-146.9" font-family="Helvetica" font-size="10.00">2</text>
</a>
</g>
</g>
<!-- dir_b6d51e3e6724aa352c46aa13af4ea980&#45;&gt;dir_6489b7c74be0b3656af0c7716097efee -->
<g id="edge8" class="edge">
<title>dir_b6d51e3e6724aa352c46aa13af4ea980&#45;&gt;dir_6489b7c74be0b3656af0c7716097efee</title>
<path fill="none" stroke="black" d="M42.28,-159.7C43.83,-151.81 46.46,-142.3 49.46,-133.55"/>
<polygon fill="black" stroke="black" points="52.77,-134.7 52.97,-124.1 46.21,-132.26 52.77,-134.7"/>
<g id="a_edge8&#45;headlabel"><a xlink:href="dir_000005_000010.html" target="_top" xlink:title="1">
<text text-anchor="middle" x="54.18" y="-136.56" font-family="Helvetica" font-size="10.00">1</text>
</a>
</g>
</g>
<!-- dir_6489b7c74be0b3656af0c7716097efee&#45;&gt;dir_5b22dbb5ab237d4144e7f72978ff8717 -->
<g id="edge1" class="edge">
<title>dir_6489b7c74be0b3656af0c7716097efee&#45;&gt;dir_5b22dbb5ab237d4144e7f72978ff8717</title>
<path fill="none" stroke="black" d="M78.11,-124.41C82.57,-134.63 86.32,-147.88 88,-160 90.85,-180.53 90.44,-203.99 88.11,-221.66"/>
<polygon fill="black" stroke="black" points="84.6,-221.4 86.42,-231.84 91.51,-222.55 84.6,-221.4"/>
<g id="a_edge1&#45;headlabel"><a xlink:href="dir_000010_000006.html" target="_top" xlink:title="3">
<text text-anchor="middle" x="82.39" y="-214.89" font-family="Helvetica" font-size="10.00">3</text>
</a>
</g>
</g>
<!-- dir_6489b7c74be0b3656af0c7716097efee&#45;&gt;dir_a09bade3d8e3726d30b49d54feae9ccb -->
<g id="edge2" class="edge">
<title>dir_6489b7c74be0b3656af0c7716097efee&#45;&gt;dir_a09bade3d8e3726d30b49d54feae9ccb</title>
<path fill="none" stroke="black" d="M64,-87.7C64,-79.98 64,-70.71 64,-62.11"/>
<polygon fill="black" stroke="black" points="67.5,-62.1 64,-52.1 60.5,-62.1 67.5,-62.1"/>
<g id="a_edge2&#45;headlabel"><a xlink:href="dir_000010_000011.html" target="_top" xlink:title="1">
<text text-anchor="middle" x="70.34" y="-63.2" font-family="Helvetica" font-size="10.00">1</text>
</a>
</g>
</g>
<!-- dir_6489b7c74be0b3656af0c7716097efee&#45;&gt;dir_b6d51e3e6724aa352c46aa13af4ea980 -->
<g id="edge3" class="edge">
<title>dir_6489b7c74be0b3656af0c7716097efee&#45;&gt;dir_b6d51e3e6724aa352c46aa13af4ea980</title>
<path fill="none" stroke="black" d="M64.76,-124.1C63.23,-131.96 60.61,-141.46 57.61,-150.23"/>
<polygon fill="black" stroke="black" points="54.3,-149.1 54.11,-159.7 60.86,-151.53 54.3,-149.1"/>
<g id="a_edge3&#45;headlabel"><a xlink:href="dir_000010_000005.html" target="_top" xlink:title="7">
<text text-anchor="middle" x="52.88" y="-142.25" font-family="Helvetica" font-size="10.00">7</text>
</a>
</g>
</g>
</g>
</svg>
