<?xml version="1.0" encoding="UTF-8" standalone="no"?>
<!DOCTYPE svg PUBLIC "-//W3C//DTD SVG 1.1//EN"
 "http://www.w3.org/Graphics/SVG/1.1/DTD/svg11.dtd">
<!-- Generated by graphviz version 2.44.0 (0)
 -->
<!-- Title: /hosthome/v2.1.0/python Pages: 1 -->
<!--zoomable 527 -->
<svg id="main" version="1.1" xmlns="http://www.w3.org/2000/svg" xmlns:xlink="http://www.w3.org/1999/xlink" xml:space="preserve" onload="init(evt)">
<style type="text/css"><![CDATA[
.edge:hover path { stroke: red; }
.edge:hover polygon { stroke: red; fill: red; }
]]></style>
<script type="text/javascript"><![CDATA[
var edges = document.getElementsByTagName('g');
if (edges && edges.length) {
  for (var i=0;i<edges.length;i++) {
    if (edges[i].id.substr(0,4)=='edge') {
      edges[i].setAttribute('class','edge');
    }
  }
}
]]></script>
        <defs>
                <circle id="rim" cx="0" cy="0" r="7"/>
                <circle id="rim2" cx="0" cy="0" r="3.5"/>
                <g id="zoomPlus">
                        <use xlink:href="#rim" fill="#404040">
                                <set attributeName="fill" to="#808080" begin="zoomplus.mouseover" end="zoomplus.mouseout"/>
                        </use>
                        <path d="M-4,0h8M0,-4v8" fill="none" stroke="white" stroke-width="1.5" pointer-events="none"/>
                </g>
                <g id="zoomMin">
                        <use xlink:href="#rim" fill="#404040">
                                <set attributeName="fill" to="#808080" begin="zoomminus.mouseover" end="zoomminus.mouseout"/>
                        </use>
                        <path d="M-4,0h8" fill="none" stroke="white" stroke-width="1.5" pointer-events="none"/>
                </g>
                <g id="dirArrow">
                        <path fill="none" stroke="white" stroke-width="1.5" d="M0,-3.0v7 M-2.5,-0.5L0,-3.0L2.5,-0.5"/>
                </g>
               <g id="resetDef">
                       <use xlink:href="#rim2" fill="#404040">
                               <set attributeName="fill" to="#808080" begin="reset.mouseover" end="reset.mouseout"/>
                       </use>
               </g>
        </defs>

<script type="text/javascript">
var viewWidth = 248;
var viewHeight = 527;
var sectionId = 'dynsection-0';
</script>
<script xlink:href="svgpan.js"/>
<svg id="graph" class="graph">
<g id="viewport">
<title>/hosthome/v2.1.0/python</title>
<polygon fill="white" stroke="transparent" points="-4,4 -4,-523 244,-523 244,4 -4,4"/>
<g id="clust1" class="cluster">
<title>clusterdir_2b6e6d7aedbeba199c2c4d387cea8759</title>
<g id="a_clust1"><a xlink:href="dir_2b6e6d7aedbeba199c2c4d387cea8759.html" target="_top" xlink:title="v2.1.0">
<polygon fill="#ddddee" stroke="black" points="8,-8 8,-511 232,-511 232,-8 8,-8"/>
<text text-anchor="middle" x="120" y="-499" font-family="Helvetica" font-size="10.00">v2.1.0</text>
</a>
</g>
</g>
<!-- dir_2a665c10f2373763d5a54bc96f34798d -->
<g id="node1" class="node">
<title>dir_2a665c10f2373763d5a54bc96f34798d</title>
<g id="a_node1"><a xlink:href="dir_2a665c10f2373763d5a54bc96f34798d.html" target="_top" xlink:title="Fitters">
<polygon fill="none" stroke="black" points="110,-340 56,-340 56,-304 110,-304 110,-340"/>
<text text-anchor="middle" x="83" y="-319.5" font-family="Helvetica" font-size="10.00">Fitters</text>
</a>
</g>
</g>
<!-- dir_5b22dbb5ab237d4144e7f72978ff8717 -->
<g id="node3" class="node">
<title>dir_5b22dbb5ab237d4144e7f72978ff8717</title>
<g id="a_node3"><a xlink:href="dir_5b22dbb5ab237d4144e7f72978ff8717.html" target="_top" xlink:title="Parameters">
<polygon fill="none" stroke="black" points="184,-268 116,-268 116,-232 184,-232 184,-268"/>
<text text-anchor="middle" x="150" y="-247.5" font-family="Helvetica" font-size="10.00">Parameters</text>
</a>
</g>
</g>
<!-- dir_2a665c10f2373763d5a54bc96f34798d&#45;&gt;dir_5b22dbb5ab237d4144e7f72978ff8717 -->
<g id="edge14" class="edge">
<title>dir_2a665c10f2373763d5a54bc96f34798d&#45;&gt;dir_5b22dbb5ab237d4144e7f72978ff8717</title>
<path fill="none" stroke="black" d="M99.56,-303.7C107.68,-295.22 117.59,-284.86 126.47,-275.58"/>
<polygon fill="black" stroke="black" points="129.24,-277.75 133.63,-268.1 124.19,-272.91 129.24,-277.75"/>
<g id="a_edge14&#45;headlabel"><a xlink:href="dir_000004_000006.html" target="_top" xlink:title="3">
<text text-anchor="middle" x="128.81" y="-279.81" font-family="Helvetica" font-size="10.00">3</text>
</a>
</g>
</g>
<!-- dir_6489b7c74be0b3656af0c7716097efee -->
<g id="node4" class="node">
<title>dir_6489b7c74be0b3656af0c7716097efee</title>
<g id="a_node4"><a xlink:href="dir_6489b7c74be0b3656af0c7716097efee.html" target="_top" xlink:title="Samples">
<polygon fill="none" stroke="black" points="131.5,-196 76.5,-196 76.5,-160 131.5,-160 131.5,-196"/>
<text text-anchor="middle" x="104" y="-175.5" font-family="Helvetica" font-size="10.00">Samples</text>
</a>
</g>
</g>
<!-- dir_2a665c10f2373763d5a54bc96f34798d&#45;&gt;dir_6489b7c74be0b3656af0c7716097efee -->
<g id="edge15" class="edge">
<title>dir_2a665c10f2373763d5a54bc96f34798d&#45;&gt;dir_6489b7c74be0b3656af0c7716097efee</title>
<path fill="none" stroke="black" d="M84.11,-303.86C85.42,-285.88 87.95,-256.83 92,-232 93.39,-223.49 95.32,-214.3 97.22,-206"/>
<polygon fill="black" stroke="black" points="100.67,-206.62 99.58,-196.08 93.86,-205 100.67,-206.62"/>
<g id="a_edge15&#45;headlabel"><a xlink:href="dir_000004_000010.html" target="_top" xlink:title="5">
<text text-anchor="middle" x="102.6" y="-208.27" font-family="Helvetica" font-size="10.00">5</text>
</a>
</g>
</g>
<!-- dir_b6d51e3e6724aa352c46aa13af4ea980 -->
<g id="node6" class="node">
<title>dir_b6d51e3e6724aa352c46aa13af4ea980</title>
<g id="a_node6"><a xlink:href="dir_b6d51e3e6724aa352c46aa13af4ea980.html" target="_top" xlink:title="Manager">
<polygon fill="none" stroke="black" points="131,-52 77,-52 77,-16 131,-16 131,-52"/>
<text text-anchor="middle" x="104" y="-31.5" font-family="Helvetica" font-size="10.00">Manager</text>
</a>
</g>
</g>
<!-- dir_2a665c10f2373763d5a54bc96f34798d&#45;&gt;dir_b6d51e3e6724aa352c46aa13af4ea980 -->
<g id="edge16" class="edge">
<title>dir_2a665c10f2373763d5a54bc96f34798d&#45;&gt;dir_b6d51e3e6724aa352c46aa13af4ea980</title>
<path fill="none" stroke="black" d="M78.72,-303.55C72.05,-273.93 60.66,-211.98 68,-160 72.91,-125.21 85.15,-86.54 93.99,-61.56"/>
<polygon fill="black" stroke="black" points="97.32,-62.65 97.43,-52.06 90.74,-60.27 97.32,-62.65"/>
<g id="a_edge16&#45;headlabel"><a xlink:href="dir_000004_000005.html" target="_top" xlink:title="3">
<text text-anchor="middle" x="98.77" y="-64.5" font-family="Helvetica" font-size="10.00">3</text>
</a>
</g>
</g>
<!-- dir_49d3beb7c8c94b5a38973172134a7dd5 -->
<g id="node2" class="node">
<title>dir_49d3beb7c8c94b5a38973172134a7dd5</title>
<g id="a_node2"><a xlink:href="dir_49d3beb7c8c94b5a38973172134a7dd5.html" target="_top" xlink:title="Plotting">
<polygon fill="white" stroke="red" points="75,-412 21,-412 21,-376 75,-376 75,-412"/>
<text text-anchor="middle" x="48" y="-391.5" font-family="Helvetica" font-size="10.00">Plotting</text>
</a>
</g>
</g>
<!-- dir_49d3beb7c8c94b5a38973172134a7dd5&#45;&gt;dir_2a665c10f2373763d5a54bc96f34798d -->
<g id="edge19" class="edge">
<title>dir_49d3beb7c8c94b5a38973172134a7dd5&#45;&gt;dir_2a665c10f2373763d5a54bc96f34798d</title>
<path fill="none" stroke="black" d="M56.65,-375.7C60.64,-367.73 65.45,-358.1 69.87,-349.26"/>
<polygon fill="black" stroke="black" points="73.11,-350.61 74.45,-340.1 66.85,-347.48 73.11,-350.61"/>
<g id="a_edge19&#45;headlabel"><a xlink:href="dir_000007_000004.html" target="_top" xlink:title="1">
<text text-anchor="middle" x="74.04" y="-352.6" font-family="Helvetica" font-size="10.00">1</text>
</a>
</g>
</g>
<!-- dir_49d3beb7c8c94b5a38973172134a7dd5&#45;&gt;dir_6489b7c74be0b3656af0c7716097efee -->
<g id="edge20" class="edge">
<title>dir_49d3beb7c8c94b5a38973172134a7dd5&#45;&gt;dir_6489b7c74be0b3656af0c7716097efee</title>
<path fill="none" stroke="black" d="M45.55,-375.71C43.5,-357.6 41.69,-328.46 47,-304 54.86,-267.83 74.13,-229.58 88.1,-205.06"/>
<polygon fill="black" stroke="black" points="91.15,-206.78 93.15,-196.37 85.1,-203.26 91.15,-206.78"/>
<g id="a_edge20&#45;headlabel"><a xlink:href="dir_000007_000010.html" target="_top" xlink:title="1">
<text text-anchor="middle" x="91.8" y="-208.81" font-family="Helvetica" font-size="10.00">1</text>
</a>
</g>
</g>
<!-- dir_49d3beb7c8c94b5a38973172134a7dd5&#45;&gt;dir_b6d51e3e6724aa352c46aa13af4ea980 -->
<g id="edge18" class="edge">
<title>dir_49d3beb7c8c94b5a38973172134a7dd5&#45;&gt;dir_b6d51e3e6724aa352c46aa13af4ea980</title>
<path fill="none" stroke="black" d="M41.73,-375.78C32.67,-349.32 17,-296.92 17,-251 17,-251 17,-251 17,-177 17,-130.16 51.84,-85.74 77.43,-59.43"/>
<polygon fill="black" stroke="black" points="80.08,-61.72 84.69,-52.18 75.14,-56.77 80.08,-61.72"/>
<g id="a_edge18&#45;headlabel"><a xlink:href="dir_000007_000005.html" target="_top" xlink:title="11">
<text text-anchor="middle" x="79.54" y="-63.77" font-family="Helvetica" font-size="10.00">11</text>
</a>
</g>
</g>
<!-- dir_5b22dbb5ab237d4144e7f72978ff8717&#45;&gt;dir_6489b7c74be0b3656af0c7716097efee -->
<g id="edge4" class="edge">
<title>dir_5b22dbb5ab237d4144e7f72978ff8717&#45;&gt;dir_6489b7c74be0b3656af0c7716097efee</title>
<path fill="none" stroke="black" d="M132.71,-231.7C126.59,-223.64 119.97,-213.89 114.53,-204.98"/>
<polygon fill="black" stroke="black" points="117.41,-202.98 109.34,-196.1 111.36,-206.51 117.41,-202.98"/>
<g id="a_edge4&#45;headlabel"><a xlink:href="dir_000006_000010.html" target="_top" xlink:title="1">
<text text-anchor="middle" x="121.67" y="-202.15" font-family="Helvetica" font-size="10.00">1</text>
</a>
</g>
</g>
<!-- dir_5b22dbb5ab237d4144e7f72978ff8717&#45;&gt;dir_b6d51e3e6724aa352c46aa13af4ea980 -->
<g id="edge5" class="edge">
<title>dir_5b22dbb5ab237d4144e7f72978ff8717&#45;&gt;dir_b6d51e3e6724aa352c46aa13af4ea980</title>
<path fill="none" stroke="black" d="M149.22,-231.8C148.17,-213.77 145.86,-184.69 141,-160 134.2,-125.45 122,-86.73 113.48,-61.67"/>
<polygon fill="black" stroke="black" points="116.76,-60.45 110.19,-52.14 110.14,-62.73 116.76,-60.45"/>
<g id="a_edge5&#45;headlabel"><a xlink:href="dir_000006_000005.html" target="_top" xlink:title="7">
<text text-anchor="middle" x="120.61" y="-60.42" font-family="Helvetica" font-size="10.00">7</text>
</a>
</g>
</g>
<!-- dir_6489b7c74be0b3656af0c7716097efee&#45;&gt;dir_5b22dbb5ab237d4144e7f72978ff8717 -->
<g id="edge1" class="edge">
<title>dir_6489b7c74be0b3656af0c7716097efee&#45;&gt;dir_5b22dbb5ab237d4144e7f72978ff8717</title>
<path fill="none" stroke="black" d="M121.14,-196.1C127.25,-204.13 133.87,-213.87 139.34,-222.8"/>
<polygon fill="black" stroke="black" points="136.47,-224.83 144.54,-231.7 142.52,-221.3 136.47,-224.83"/>
<g id="a_edge1&#45;headlabel"><a xlink:href="dir_000010_000006.html" target="_top" xlink:title="3">
<text text-anchor="middle" x="132.21" y="-220.66" font-family="Helvetica" font-size="10.00">3</text>
</a>
</g>
</g>
<!-- dir_a09bade3d8e3726d30b49d54feae9ccb -->
<g id="node5" class="node">
<title>dir_a09bade3d8e3726d30b49d54feae9ccb</title>
<g id="a_node5"><a xlink:href="dir_a09bade3d8e3726d30b49d54feae9ccb.html" target="_top" xlink:title="Splines">
<polygon fill="none" stroke="black" points="204,-124 150,-124 150,-88 204,-88 204,-124"/>
<text text-anchor="middle" x="177" y="-103.5" font-family="Helvetica" font-size="10.00">Splines</text>
</a>
</g>
</g>
<!-- dir_6489b7c74be0b3656af0c7716097efee&#45;&gt;dir_a09bade3d8e3726d30b49d54feae9ccb -->
<g id="edge2" class="edge">
<title>dir_6489b7c74be0b3656af0c7716097efee&#45;&gt;dir_a09bade3d8e3726d30b49d54feae9ccb</title>
<path fill="none" stroke="black" d="M122.04,-159.7C131.06,-151.05 142.12,-140.45 151.94,-131.03"/>
<polygon fill="black" stroke="black" points="154.37,-133.55 159.16,-124.1 149.52,-128.5 154.37,-133.55"/>
<g id="a_edge2&#45;headlabel"><a xlink:href="dir_000010_000011.html" target="_top" xlink:title="1">
<text text-anchor="middle" x="153.74" y="-135.59" font-family="Helvetica" font-size="10.00">1</text>
</a>
</g>
</g>
<!-- dir_6489b7c74be0b3656af0c7716097efee&#45;&gt;dir_b6d51e3e6724aa352c46aa13af4ea980 -->
<g id="edge3" class="edge">
<title>dir_6489b7c74be0b3656af0c7716097efee&#45;&gt;dir_b6d51e3e6724aa352c46aa13af4ea980</title>
<path fill="none" stroke="black" d="M99.42,-159.87C96.86,-135.67 96.57,-91.21 98.54,-62.39"/>
<polygon fill="black" stroke="black" points="102.05,-62.45 99.41,-52.19 95.07,-61.86 102.05,-62.45"/>
<g id="a_edge3&#45;headlabel"><a xlink:href="dir_000010_000005.html" target="_top" xlink:title="7">
<text text-anchor="middle" x="104.57" y="-63.77" font-family="Helvetica" font-size="10.00">7</text>
</a>
</g>
</g>
<!-- dir_a09bade3d8e3726d30b49d54feae9ccb&#45;&gt;dir_5b22dbb5ab237d4144e7f72978ff8717 -->
<g id="edge12" class="edge">
<title>dir_a09bade3d8e3726d30b49d54feae9ccb&#45;&gt;dir_5b22dbb5ab237d4144e7f72978ff8717</title>
<path fill="none" stroke="black" d="M173.73,-124.19C169.12,-148.42 160.67,-192.89 155.19,-221.68"/>
<polygon fill="black" stroke="black" points="151.69,-221.39 153.26,-231.87 158.56,-222.7 151.69,-221.39"/>
<g id="a_edge12&#45;headlabel"><a xlink:href="dir_000011_000006.html" target="_top" xlink:title="2">
<text text-anchor="middle" x="149.57" y="-214.83" font-family="Helvetica" font-size="10.00">2</text>
</a>
</g>
</g>
<!-- dir_a09bade3d8e3726d30b49d54feae9ccb&#45;&gt;dir_b6d51e3e6724aa352c46aa13af4ea980 -->
<g id="edge13" class="edge">
<title>dir_a09bade3d8e3726d30b49d54feae9ccb&#45;&gt;dir_b6d51e3e6724aa352c46aa13af4ea980</title>
<path fill="none" stroke="black" d="M158.96,-87.7C149.94,-79.05 138.88,-68.45 129.06,-59.03"/>
<polygon fill="black" stroke="black" points="131.48,-56.5 121.84,-52.1 126.63,-61.55 131.48,-56.5"/>
<g id="a_edge13&#45;headlabel"><a xlink:href="dir_000011_000005.html" target="_top" xlink:title="2">
<text text-anchor="middle" x="136.04" y="-54.44" font-family="Helvetica" font-size="10.00">2</text>
</a>
</g>
</g>
<!-- dir_b6d51e3e6724aa352c46aa13af4ea980&#45;&gt;dir_6489b7c74be0b3656af0c7716097efee -->
<g id="edge17" class="edge">
<title>dir_b6d51e3e6724aa352c46aa13af4ea980&#45;&gt;dir_6489b7c74be0b3656af0c7716097efee</title>
<path fill="none" stroke="black" d="M108.59,-52.19C111.15,-76.42 111.43,-120.89 109.45,-149.68"/>
<polygon fill="black" stroke="black" points="105.95,-149.61 108.58,-159.87 112.92,-150.21 105.95,-149.61"/>
<g id="a_edge17&#45;headlabel"><a xlink:href="dir_000005_000010.html" target="_top" xlink:title="1">
<text text-anchor="middle" x="103.42" y="-143.29" font-family="Helvetica" font-size="10.00">1</text>
</a>
</g>
</g>
<!-- dir_d34a2f6c94e09fe27657d70b092bb4a1 -->
<g id="node7" class="node">
<title>dir_d34a2f6c94e09fe27657d70b092bb4a1</title>
<g id="a_node7"><a xlink:href="dir_d34a2f6c94e09fe27657d70b092bb4a1.html" target="_top" xlink:title="python">
<polygon fill="#eeeeff" stroke="black" points="166,-484 112,-484 112,-448 166,-448 166,-484"/>
<text text-anchor="middle" x="139" y="-463.5" font-family="Helvetica" font-size="10.00">python</text>
</a>
</g>
</g>
<!-- dir_d34a2f6c94e09fe27657d70b092bb4a1&#45;&gt;dir_2a665c10f2373763d5a54bc96f34798d -->
<g id="edge6" class="edge">
<title>dir_d34a2f6c94e09fe27657d70b092bb4a1&#45;&gt;dir_2a665c10f2373763d5a54bc96f34798d</title>
<path fill="none" stroke="black" d="M132.25,-447.87C122.62,-423.46 104.86,-378.43 93.5,-349.64"/>
<polygon fill="black" stroke="black" points="96.7,-348.21 89.78,-340.19 90.19,-350.78 96.7,-348.21"/>
<g id="a_edge6&#45;headlabel"><a xlink:href="dir_000009_000004.html" target="_top" xlink:title="4">
<text text-anchor="middle" x="100.66" y="-348.01" font-family="Helvetica" font-size="10.00">4</text>
</a>
</g>
</g>
<!-- dir_d34a2f6c94e09fe27657d70b092bb4a1&#45;&gt;dir_49d3beb7c8c94b5a38973172134a7dd5 -->
<g id="edge7" class="edge">
<title>dir_d34a2f6c94e09fe27657d70b092bb4a1&#45;&gt;dir_49d3beb7c8c94b5a38973172134a7dd5</title>
<path fill="none" stroke="black" d="M116.51,-447.7C105.04,-438.88 90.94,-428.03 78.52,-418.47"/>
<polygon fill="black" stroke="black" points="80.3,-415.43 70.24,-412.1 76.03,-420.98 80.3,-415.43"/>
<g id="a_edge7&#45;headlabel"><a xlink:href="dir_000009_000007.html" target="_top" xlink:title="4">
<text text-anchor="middle" x="84.88" y="-412.87" font-family="Helvetica" font-size="10.00">4</text>
</a>
</g>
</g>
<!-- dir_d34a2f6c94e09fe27657d70b092bb4a1&#45;&gt;dir_5b22dbb5ab237d4144e7f72978ff8717 -->
<g id="edge8" class="edge">
<title>dir_d34a2f6c94e09fe27657d70b092bb4a1&#45;&gt;dir_5b22dbb5ab237d4144e7f72978ff8717</title>
<path fill="none" stroke="black" d="M139.88,-447.85C141.78,-410.83 146.29,-323.18 148.59,-278.39"/>
<polygon fill="black" stroke="black" points="152.1,-278.4 149.11,-268.23 145.11,-278.04 152.1,-278.4"/>
<g id="a_edge8&#45;headlabel"><a xlink:href="dir_000009_000006.html" target="_top" xlink:title="3">
<text text-anchor="middle" x="154.75" y="-279.63" font-family="Helvetica" font-size="10.00">3</text>
</a>
</g>
</g>
<!-- dir_d34a2f6c94e09fe27657d70b092bb4a1&#45;&gt;dir_6489b7c74be0b3656af0c7716097efee -->
<g id="edge9" class="edge">
<title>dir_d34a2f6c94e09fe27657d70b092bb4a1&#45;&gt;dir_6489b7c74be0b3656af0c7716097efee</title>
<path fill="none" stroke="black" d="M137.99,-447.89C136,-418.26 130.69,-355.65 119,-304 115.28,-287.55 109.98,-284.6 107,-268 103.33,-247.59 102.69,-224.13 102.9,-206.42"/>
<polygon fill="black" stroke="black" points="106.4,-206.29 103.13,-196.22 99.41,-206.14 106.4,-206.29"/>
<g id="a_edge9&#45;headlabel"><a xlink:href="dir_000009_000010.html" target="_top" xlink:title="2">
<text text-anchor="middle" x="109.16" y="-207.45" font-family="Helvetica" font-size="10.00">2</text>
</a>
</g>
</g>
<!-- dir_d34a2f6c94e09fe27657d70b092bb4a1&#45;&gt;dir_a09bade3d8e3726d30b49d54feae9ccb -->
<g id="edge10" class="edge">
<title>dir_d34a2f6c94e09fe27657d70b092bb4a1&#45;&gt;dir_a09bade3d8e3726d30b49d54feae9ccb</title>
<path fill="none" stroke="black" d="M152.57,-447.76C171.36,-422.1 203,-371.67 203,-323 203,-323 203,-323 203,-249 203,-208.55 192.67,-162.67 185.03,-134.28"/>
<polygon fill="black" stroke="black" points="188.31,-133 182.26,-124.3 181.56,-134.87 188.31,-133"/>
<g id="a_edge10&#45;headlabel"><a xlink:href="dir_000009_000011.html" target="_top" xlink:title="3">
<text text-anchor="middle" x="192" y="-133.21" font-family="Helvetica" font-size="10.00">3</text>
</a>
</g>
</g>
<!-- dir_d34a2f6c94e09fe27657d70b092bb4a1&#45;&gt;dir_b6d51e3e6724aa352c46aa13af4ea980 -->
<g id="edge11" class="edge">
<title>dir_d34a2f6c94e09fe27657d70b092bb4a1&#45;&gt;dir_b6d51e3e6724aa352c46aa13af4ea980</title>
<path fill="none" stroke="black" d="M158.52,-447.85C168.67,-438.13 180.66,-425.28 189,-412 211.51,-376.14 223,-365.34 223,-323 223,-323 223,-323 223,-177 223,-137.2 235.97,-120.51 213,-88 196.14,-64.13 165.5,-50.57 140.99,-43.14"/>
<polygon fill="black" stroke="black" points="141.83,-39.75 131.26,-40.42 139.94,-46.49 141.83,-39.75"/>
<g id="a_edge11&#45;headlabel"><a xlink:href="dir_000009_000005.html" target="_top" xlink:title="1">
<text text-anchor="middle" x="146.06" y="-35.48" font-family="Helvetica" font-size="10.00">1</text>
</a>
</g>
</g>
</g>
</svg>
        <g id="navigator" transform="translate(0 0)" fill="#404254">
                <rect fill="#f2f5e9" fill-opacity="0.5" stroke="#606060" stroke-width=".5" x="0" y="0" width="60" height="60"/>
                <use id="zoomplus" xlink:href="#zoomPlus" x="17" y="9" onmousedown="handleZoom(evt,'in')"/>
                <use id="zoomminus" xlink:href="#zoomMin" x="42" y="9" onmousedown="handleZoom(evt,'out')"/>
                <use id="reset" xlink:href="#resetDef" x="30" y="36" onmousedown="handleReset()"/>
                <g id="arrowUp" xlink:href="#dirArrow" transform="translate(30 24)" onmousedown="handlePan(0,-1)">
                  <use xlink:href="#rim" fill="#404040">
                        <set attributeName="fill" to="#808080" begin="arrowUp.mouseover" end="arrowUp.mouseout"/>
                  </use>
                  <path fill="none" stroke="white" stroke-width="1.5" d="M0,-3.0v7 M-2.5,-0.5L0,-3.0L2.5,-0.5"/>
                </g>
                <g id="arrowRight" xlink:href="#dirArrow" transform="rotate(90) translate(36 -43)" onmousedown="handlePan(1,0)">
                  <use xlink:href="#rim" fill="#404040">
                        <set attributeName="fill" to="#808080" begin="arrowRight.mouseover" end="arrowRight.mouseout"/>
                  </use>
                  <path fill="none" stroke="white" stroke-width="1.5" d="M0,-3.0v7 M-2.5,-0.5L0,-3.0L2.5,-0.5"/>
                </g>
                <g id="arrowDown" xlink:href="#dirArrow" transform="rotate(180) translate(-30 -48)" onmousedown="handlePan(0,1)">
                  <use xlink:href="#rim" fill="#404040">
                        <set attributeName="fill" to="#808080" begin="arrowDown.mouseover" end="arrowDown.mouseout"/>
                  </use>
                  <path fill="none" stroke="white" stroke-width="1.5" d="M0,-3.0v7 M-2.5,-0.5L0,-3.0L2.5,-0.5"/>
                </g>
                <g id="arrowLeft" xlink:href="#dirArrow" transform="rotate(270) translate(-36 17)" onmousedown="handlePan(-1,0)">
                  <use xlink:href="#rim" fill="#404040">
                        <set attributeName="fill" to="#808080" begin="arrowLeft.mouseover" end="arrowLeft.mouseout"/>
                  </use>
                  <path fill="none" stroke="white" stroke-width="1.5" d="M0,-3.0v7 M-2.5,-0.5L0,-3.0L2.5,-0.5"/>
                </g>
        </g>
        <svg viewBox="0 0 15 15" width="100%" height="30px" preserveAspectRatio="xMaxYMin meet">
         <g id="arrow_out" transform="scale(0.3 0.3)">
          <a xlink:href="dir_d34a2f6c94e09fe27657d70b092bb4a1_dep_org.svg" target="_base">
           <rect id="button" ry="5" rx="5" y="6" x="6" height="38" width="38"
                fill="#f2f5e9" fill-opacity="0.5" stroke="#606060" stroke-width="1.0"/>
           <path id="arrow"
             d="M 11.500037,31.436501 C 11.940474,20.09759 22.043105,11.32322 32.158766,21.979434 L 37.068811,17.246167 C 37.068811,17.246167 37.088388,32 37.088388,32 L 22.160133,31.978069 C 22.160133,31.978069 26.997745,27.140456 26.997745,27.140456 C 18.528582,18.264221 13.291696,25.230495 11.500037,31.436501 z"
             style="fill:#404040;"/>
          </a>
         </g>
        </svg>
</svg>
