<?xml version="1.0" encoding="UTF-8" standalone="no"?>
<!DOCTYPE svg PUBLIC "-//W3C//DTD SVG 1.1//EN"
 "http://www.w3.org/Graphics/SVG/1.1/DTD/svg11.dtd">
<!-- Generated by graphviz version 2.44.0 (0)
 -->
<!-- Title: /hosthome/v2.1.0/Plotting Pages: 1 -->
<svg width="134pt" height="391pt"
 viewBox="0.00 0.00 134.00 391.00" xmlns="http://www.w3.org/2000/svg" xmlns:xlink="http://www.w3.org/1999/xlink">
<g id="graph0" class="graph" transform="scale(1 1) rotate(0) translate(4 387)">
<title>/hosthome/v2.1.0/Plotting</title>
<polygon fill="white" stroke="transparent" points="-4,4 -4,-387 130,-387 130,4 -4,4"/>
<g id="clust1" class="cluster">
<title>clusterdir_2b6e6d7aedbeba199c2c4d387cea8759</title>
<g id="a_clust1"><a xlink:href="dir_2b6e6d7aedbeba199c2c4d387cea8759.html" target="_top" xlink:title="v2.1.0">
<polygon fill="#ddddee" stroke="black" points="8,-8 8,-375 118,-375 118,-8 8,-8"/>
<text text-anchor="middle" x="63" y="-363" font-family="Helvetica" font-size="10.00">v2.1.0</text>
</a>
</g>
</g>
<g id="clust2" class="cluster">
<title>clusterdir_49d3beb7c8c94b5a38973172134a7dd5</title>
<g id="a_clust2"><a xlink:href="dir_49d3beb7c8c94b5a38973172134a7dd5.html" target="_top">
<polygon fill="#eeeeff" stroke="black" points="21,-224 21,-348 105,-348 105,-224 21,-224"/>
</a>
</g>
</g>
<!-- dir_b6d51e3e6724aa352c46aa13af4ea980 -->
<g id="node1" class="node">
<title>dir_b6d51e3e6724aa352c46aa13af4ea980</title>
<g id="a_node1"><a xlink:href="dir_b6d51e3e6724aa352c46aa13af4ea980.html" target="_top" xlink:title="Manager">
<polygon fill="none" stroke="black" points="70,-124 16,-124 16,-88 70,-88 70,-124"/>
<text text-anchor="middle" x="43" y="-103.5" font-family="Helvetica" font-size="10.00">Manager</text>
</a>
</g>
</g>
<!-- dir_6489b7c74be0b3656af0c7716097efee -->
<g id="node3" class="node">
<title>dir_6489b7c74be0b3656af0c7716097efee</title>
<g id="a_node3"><a xlink:href="dir_6489b7c74be0b3656af0c7716097efee.html" target="_top" xlink:title="Samples">
<polygon fill="none" stroke="black" points="90.5,-52 35.5,-52 35.5,-16 90.5,-16 90.5,-52"/>
<text text-anchor="middle" x="63" y="-31.5" font-family="Helvetica" font-size="10.00">Samples</text>
</a>
</g>
</g>
<!-- dir_b6d51e3e6724aa352c46aa13af4ea980&#45;&gt;dir_6489b7c74be0b3656af0c7716097efee -->
<g id="edge7" class="edge">
<title>dir_b6d51e3e6724aa352c46aa13af4ea980&#45;&gt;dir_6489b7c74be0b3656af0c7716097efee</title>
<path fill="none" stroke="black" d="M42.03,-87.7C43.47,-79.81 45.97,-70.3 48.84,-61.55"/>
<polygon fill="black" stroke="black" points="52.15,-62.7 52.22,-52.1 45.56,-60.34 52.15,-62.7"/>
<g id="a_edge7&#45;headlabel"><a xlink:href="dir_000005_000010.html" target="_top" xlink:title="1">
<text text-anchor="middle" x="53.61" y="-64.54" font-family="Helvetica" font-size="10.00">1</text>
</a>
</g>
</g>
<!-- dir_2a665c10f2373763d5a54bc96f34798d -->
<g id="node2" class="node">
<title>dir_2a665c10f2373763d5a54bc96f34798d</title>
<g id="a_node2"><a xlink:href="dir_2a665c10f2373763d5a54bc96f34798d.html" target="_top" xlink:title="Fitters">
<polygon fill="none" stroke="black" points="90,-196 36,-196 36,-160 90,-160 90,-196"/>
<text text-anchor="middle" x="63" y="-175.5" font-family="Helvetica" font-size="10.00">Fitters</text>
</a>
</g>
</g>
<!-- dir_2a665c10f2373763d5a54bc96f34798d&#45;&gt;dir_b6d51e3e6724aa352c46aa13af4ea980 -->
<g id="edge6" class="edge">
<title>dir_2a665c10f2373763d5a54bc96f34798d&#45;&gt;dir_b6d51e3e6724aa352c46aa13af4ea980</title>
<path fill="none" stroke="black" d="M58.06,-159.7C55.83,-151.9 53.15,-142.51 50.67,-133.83"/>
<polygon fill="black" stroke="black" points="54,-132.76 47.89,-124.1 47.27,-134.68 54,-132.76"/>
<g id="a_edge6&#45;headlabel"><a xlink:href="dir_000004_000005.html" target="_top" xlink:title="3">
<text text-anchor="middle" x="57.72" y="-132.93" font-family="Helvetica" font-size="10.00">3</text>
</a>
</g>
</g>
<!-- dir_2a665c10f2373763d5a54bc96f34798d&#45;&gt;dir_6489b7c74be0b3656af0c7716097efee -->
<g id="edge5" class="edge">
<title>dir_2a665c10f2373763d5a54bc96f34798d&#45;&gt;dir_6489b7c74be0b3656af0c7716097efee</title>
<path fill="none" stroke="black" d="M69.65,-159.63C73.2,-149.42 77.2,-136.17 79,-124 81.34,-108.17 81.34,-103.83 79,-88 77.72,-79.35 75.33,-70.15 72.78,-61.89"/>
<polygon fill="black" stroke="black" points="76.1,-60.78 69.65,-52.37 69.45,-62.96 76.1,-60.78"/>
<g id="a_edge5&#45;headlabel"><a xlink:href="dir_000004_000010.html" target="_top" xlink:title="5">
<text text-anchor="middle" x="79.92" y="-60.81" font-family="Helvetica" font-size="10.00">5</text>
</a>
</g>
</g>
<!-- dir_6489b7c74be0b3656af0c7716097efee&#45;&gt;dir_b6d51e3e6724aa352c46aa13af4ea980 -->
<g id="edge1" class="edge">
<title>dir_6489b7c74be0b3656af0c7716097efee&#45;&gt;dir_b6d51e3e6724aa352c46aa13af4ea980</title>
<path fill="none" stroke="black" d="M64.01,-52.1C62.59,-59.96 60.1,-69.46 57.23,-78.23"/>
<polygon fill="black" stroke="black" points="53.92,-77.1 53.86,-87.7 60.51,-79.45 53.92,-77.1"/>
<g id="a_edge1&#45;headlabel"><a xlink:href="dir_000010_000005.html" target="_top" xlink:title="7">
<text text-anchor="middle" x="52.45" y="-70.26" font-family="Helvetica" font-size="10.00">7</text>
</a>
</g>
</g>
<!-- dir_49d3beb7c8c94b5a38973172134a7dd5 -->
<g id="node4" class="node">
<title>dir_49d3beb7c8c94b5a38973172134a7dd5</title>
<text text-anchor="middle" x="63" y="-319.5" font-family="Helvetica" font-size="10.00">Plotting</text>
</g>
<!-- dir_fa22f0ee4f47bf3fdf5c0f3804a49663 -->
<g id="node5" class="node">
<title>dir_fa22f0ee4f47bf3fdf5c0f3804a49663</title>
<g id="a_node5"><a xlink:href="dir_fa22f0ee4f47bf3fdf5c0f3804a49663.html" target="_top" xlink:title="plottingUtils">
<polygon fill="white" stroke="black" points="97,-268 29,-268 29,-232 97,-232 97,-268"/>
<text text-anchor="middle" x="63" y="-247.5" font-family="Helvetica" font-size="10.00">plottingUtils</text>
</a>
</g>
</g>
<!-- dir_49d3beb7c8c94b5a38973172134a7dd5&#45;&gt;dir_fa22f0ee4f47bf3fdf5c0f3804a49663 -->
<g id="edge8" class="edge">
<title>dir_49d3beb7c8c94b5a38973172134a7dd5&#45;&gt;dir_fa22f0ee4f47bf3fdf5c0f3804a49663</title>
<path fill="none" stroke="black" d="M63,-303.7C63,-295.98 63,-286.71 63,-278.11"/>
<polygon fill="black" stroke="black" points="66.5,-278.1 63,-268.1 59.5,-278.1 66.5,-278.1"/>
<g id="a_edge8&#45;headlabel"><a xlink:href="dir_000007_000008.html" target="_top" xlink:title="5">
<text text-anchor="middle" x="69.34" y="-279.2" font-family="Helvetica" font-size="10.00">5</text>
</a>
</g>
</g>
<!-- dir_fa22f0ee4f47bf3fdf5c0f3804a49663&#45;&gt;dir_b6d51e3e6724aa352c46aa13af4ea980 -->
<g id="edge4" class="edge">
<title>dir_fa22f0ee4f47bf3fdf5c0f3804a49663&#45;&gt;dir_b6d51e3e6724aa352c46aa13af4ea980</title>
<path fill="none" stroke="black" d="M47.39,-231.77C39.63,-222.03 31.05,-209.18 27,-196 20.68,-175.46 25.7,-151.44 31.73,-133.53"/>
<polygon fill="black" stroke="black" points="35.06,-134.61 35.22,-124.02 28.49,-132.2 35.06,-134.61"/>
<g id="a_edge4&#45;headlabel"><a xlink:href="dir_000008_000005.html" target="_top" xlink:title="11">
<text text-anchor="middle" x="36.49" y="-136.47" font-family="Helvetica" font-size="10.00">11</text>
</a>
</g>
</g>
<!-- dir_fa22f0ee4f47bf3fdf5c0f3804a49663&#45;&gt;dir_2a665c10f2373763d5a54bc96f34798d -->
<g id="edge2" class="edge">
<title>dir_fa22f0ee4f47bf3fdf5c0f3804a49663&#45;&gt;dir_2a665c10f2373763d5a54bc96f34798d</title>
<path fill="none" stroke="black" d="M63,-231.7C63,-223.98 63,-214.71 63,-206.11"/>
<polygon fill="black" stroke="black" points="66.5,-206.1 63,-196.1 59.5,-206.1 66.5,-206.1"/>
<g id="a_edge2&#45;headlabel"><a xlink:href="dir_000008_000004.html" target="_top" xlink:title="1">
<text text-anchor="middle" x="69.34" y="-207.2" font-family="Helvetica" font-size="10.00">1</text>
</a>
</g>
</g>
<!-- dir_fa22f0ee4f47bf3fdf5c0f3804a49663&#45;&gt;dir_6489b7c74be0b3656af0c7716097efee -->
<g id="edge3" class="edge">
<title>dir_fa22f0ee4f47bf3fdf5c0f3804a49663&#45;&gt;dir_6489b7c74be0b3656af0c7716097efee</title>
<path fill="none" stroke="black" d="M78.61,-231.77C86.37,-222.03 94.95,-209.18 99,-196 113.34,-149.36 92.65,-93.49 77.2,-61.33"/>
<polygon fill="black" stroke="black" points="80.22,-59.54 72.62,-52.15 73.95,-62.66 80.22,-59.54"/>
<g id="a_edge3&#45;headlabel"><a xlink:href="dir_000008_000010.html" target="_top" xlink:title="1">
<text text-anchor="middle" x="84.36" y="-58.98" font-family="Helvetica" font-size="10.00">1</text>
</a>
</g>
</g>
</g>
</svg>
