<?xml version="1.0" encoding="UTF-8" standalone="no"?>
<!DOCTYPE svg PUBLIC "-//W3C//DTD SVG 1.1//EN"
 "http://www.w3.org/Graphics/SVG/1.1/DTD/svg11.dtd">
<!-- Generated by graphviz version 2.44.0 (0)
 -->
<!-- Title: /hosthome/MaCh3_2.1.0/Fitters/FitterBase.h Pages: 1 -->
<svg width="918pt" height="307pt"
 viewBox="0.00 0.00 918.00 307.00" xmlns="http://www.w3.org/2000/svg" xmlns:xlink="http://www.w3.org/1999/xlink">
<g id="graph0" class="graph" transform="scale(1 1) rotate(0) translate(4 303)">
<title>/hosthome/MaCh3_2.1.0/Fitters/FitterBase.h</title>
<polygon fill="white" stroke="transparent" points="-4,4 -4,-303 914,-303 914,4 -4,4"/>
<!-- Node1 -->
<g id="node1" class="node">
<title>Node1</title>
<g id="a_node1"><a xlink:title=" ">
<polygon fill="#bfbfbf" stroke="black" points="305,-268.5 305,-298.5 429,-298.5 429,-268.5 305,-268.5"/>
<text text-anchor="start" x="313" y="-286.5" font-family="Helvetica" font-size="10.00">/hosthome/MaCh3_2.1.0</text>
<text text-anchor="middle" x="367" y="-275.5" font-family="Helvetica" font-size="10.00">/Fitters/FitterBase.h</text>
</a>
</g>
</g>
<!-- Node2 -->
<g id="node2" class="node">
<title>Node2</title>
<g id="a_node2"><a xlink:href="FitterBase_8cpp.html" target="_top" xlink:title=" ">
<polygon fill="white" stroke="black" points="0,-201.5 0,-231.5 124,-231.5 124,-201.5 0,-201.5"/>
<text text-anchor="start" x="8" y="-219.5" font-family="Helvetica" font-size="10.00">/hosthome/MaCh3_2.1.0</text>
<text text-anchor="middle" x="62" y="-208.5" font-family="Helvetica" font-size="10.00">/Fitters/FitterBase.cpp</text>
</a>
</g>
</g>
<!-- Node1&#45;&gt;Node2 -->
<g id="edge1" class="edge">
<title>Node1&#45;&gt;Node2</title>
<path fill="none" stroke="midnightblue" d="M295.09,-267.17C243.09,-256.09 173.56,-241.27 124,-230.71"/>
<polygon fill="midnightblue" stroke="midnightblue" points="294.4,-270.61 304.91,-269.27 295.86,-263.76 294.4,-270.61"/>
</g>
<!-- Node3 -->
<g id="node3" class="node">
<title>Node3</title>
<g id="a_node3"><a xlink:href="LikelihoodFit_8h.html" target="_top" xlink:title=" ">
<polygon fill="white" stroke="black" points="305,-201.5 305,-231.5 429,-231.5 429,-201.5 305,-201.5"/>
<text text-anchor="start" x="313" y="-219.5" font-family="Helvetica" font-size="10.00">/hosthome/MaCh3_2.1.0</text>
<text text-anchor="middle" x="367" y="-208.5" font-family="Helvetica" font-size="10.00">/Fitters/LikelihoodFit.h</text>
</a>
</g>
</g>
<!-- Node1&#45;&gt;Node3 -->
<g id="edge2" class="edge">
<title>Node1&#45;&gt;Node3</title>
<path fill="none" stroke="midnightblue" d="M367,-258.11C367,-249.15 367,-239.32 367,-231.58"/>
<polygon fill="midnightblue" stroke="midnightblue" points="363.5,-258.4 367,-268.4 370.5,-258.4 363.5,-258.4"/>
</g>
<!-- Node5 -->
<g id="node5" class="node">
<title>Node5</title>
<g id="a_node5"><a xlink:href="MaCh3Factory_8h.html" target="_top" xlink:title="Factory methods for MaCh3 software which streamline initialisation of different objects.">
<polygon fill="white" stroke="black" points="218,-67.5 218,-97.5 342,-97.5 342,-67.5 218,-67.5"/>
<text text-anchor="start" x="226" y="-85.5" font-family="Helvetica" font-size="10.00">/hosthome/MaCh3_2.1.0</text>
<text text-anchor="middle" x="280" y="-74.5" font-family="Helvetica" font-size="10.00">/Fitters/MaCh3Factory.h</text>
</a>
</g>
</g>
<!-- Node1&#45;&gt;Node5 -->
<g id="edge13" class="edge">
<title>Node1&#45;&gt;Node5</title>
<path fill="none" stroke="midnightblue" d="M308.08,-265C261.68,-247.76 200.12,-216.4 171,-165 164.21,-153.01 163.58,-145.61 171,-134 182.12,-116.6 200.93,-105.11 219.84,-97.55"/>
<polygon fill="midnightblue" stroke="midnightblue" points="307.15,-268.39 317.74,-268.47 309.51,-261.8 307.15,-268.39"/>
</g>
<!-- Node9 -->
<g id="node9" class="node">
<title>Node9</title>
<g id="a_node9"><a xlink:href="fitters_8cpp.html" target="_top" xlink:title=" ">
<polygon fill="white" stroke="black" points="644,-67.5 644,-97.5 768,-97.5 768,-67.5 644,-67.5"/>
<text text-anchor="start" x="652" y="-85.5" font-family="Helvetica" font-size="10.00">/hosthome/MaCh3_2.1.0</text>
<text text-anchor="middle" x="706" y="-74.5" font-family="Helvetica" font-size="10.00">/python/fitters.cpp</text>
</a>
</g>
</g>
<!-- Node1&#45;&gt;Node9 -->
<g id="edge18" class="edge">
<title>Node1&#45;&gt;Node9</title>
<path fill="none" stroke="midnightblue" d="M424.93,-265.38C481.97,-246.69 569.79,-212.91 635,-165 661.16,-145.78 684.39,-115.32 696.7,-97.58"/>
<polygon fill="midnightblue" stroke="midnightblue" points="423.79,-262.07 415.35,-268.47 425.94,-268.73 423.79,-262.07"/>
</g>
<!-- Node12 -->
<g id="node12" class="node">
<title>Node12</title>
<g id="a_node12"><a xlink:href="mcmc_8h.html" target="_top" xlink:title=" ">
<polygon fill="white" stroke="black" points="502,-134.5 502,-164.5 626,-164.5 626,-134.5 502,-134.5"/>
<text text-anchor="start" x="510" y="-152.5" font-family="Helvetica" font-size="10.00">/hosthome/MaCh3_2.1.0</text>
<text text-anchor="middle" x="564" y="-141.5" font-family="Helvetica" font-size="10.00">/Fitters/mcmc.h</text>
</a>
</g>
</g>
<!-- Node1&#45;&gt;Node12 -->
<g id="edge14" class="edge">
<title>Node1&#45;&gt;Node12</title>
<path fill="none" stroke="midnightblue" d="M396.41,-262.79C436.64,-235.84 507.85,-188.13 543.07,-164.52"/>
<polygon fill="midnightblue" stroke="midnightblue" points="394.44,-259.9 388.08,-268.37 398.34,-265.71 394.44,-259.9"/>
</g>
<!-- Node4 -->
<g id="node4" class="node">
<title>Node4</title>
<g id="a_node4"><a xlink:href="LikelihoodFit_8cpp.html" target="_top" xlink:title=" ">
<polygon fill="white" stroke="black" points="180,-134.5 180,-164.5 304,-164.5 304,-134.5 180,-134.5"/>
<text text-anchor="start" x="188" y="-152.5" font-family="Helvetica" font-size="10.00">/hosthome/MaCh3_2.1.0</text>
<text text-anchor="middle" x="242" y="-141.5" font-family="Helvetica" font-size="10.00">/Fitters/LikelihoodFit.cpp</text>
</a>
</g>
</g>
<!-- Node3&#45;&gt;Node4 -->
<g id="edge3" class="edge">
<title>Node3&#45;&gt;Node4</title>
<path fill="none" stroke="midnightblue" d="M330.87,-196.71C311.16,-186.46 287.16,-173.98 269.07,-164.58"/>
<polygon fill="midnightblue" stroke="midnightblue" points="329.39,-199.89 339.88,-201.4 332.62,-193.68 329.39,-199.89"/>
</g>
<!-- Node3&#45;&gt;Node5 -->
<g id="edge4" class="edge">
<title>Node3&#45;&gt;Node5</title>
<path fill="none" stroke="midnightblue" d="M352.06,-192.83C334.02,-165.47 304.24,-120.28 289.24,-97.52"/>
<polygon fill="midnightblue" stroke="midnightblue" points="349.26,-194.95 357.69,-201.37 355.11,-191.1 349.26,-194.95"/>
</g>
<!-- Node7 -->
<g id="node7" class="node">
<title>Node7</title>
<g id="a_node7"><a xlink:href="MinuitFit_8h.html" target="_top" xlink:title=" ">
<polygon fill="white" stroke="black" points="682,-134.5 682,-164.5 806,-164.5 806,-134.5 682,-134.5"/>
<text text-anchor="start" x="690" y="-152.5" font-family="Helvetica" font-size="10.00">/hosthome/MaCh3_2.1.0</text>
<text text-anchor="middle" x="744" y="-141.5" font-family="Helvetica" font-size="10.00">/Fitters/MinuitFit.h</text>
</a>
</g>
</g>
<!-- Node3&#45;&gt;Node7 -->
<g id="edge6" class="edge">
<title>Node3&#45;&gt;Node7</title>
<path fill="none" stroke="midnightblue" d="M439.37,-203.02C509.7,-190.9 615.38,-172.68 681.97,-161.2"/>
<polygon fill="midnightblue" stroke="midnightblue" points="438.51,-199.62 429.25,-204.77 439.7,-206.52 438.51,-199.62"/>
</g>
<!-- Node10 -->
<g id="node10" class="node">
<title>Node10</title>
<g id="a_node10"><a xlink:href="PSO_8h.html" target="_top" xlink:title=" ">
<polygon fill="white" stroke="black" points="360,-134.5 360,-164.5 484,-164.5 484,-134.5 360,-134.5"/>
<text text-anchor="start" x="368" y="-152.5" font-family="Helvetica" font-size="10.00">/hosthome/MaCh3_2.1.0</text>
<text text-anchor="middle" x="422" y="-141.5" font-family="Helvetica" font-size="10.00">/Fitters/PSO.h</text>
</a>
</g>
</g>
<!-- Node3&#45;&gt;Node10 -->
<g id="edge9" class="edge">
<title>Node3&#45;&gt;Node10</title>
<path fill="none" stroke="midnightblue" d="M385.42,-193.74C393.55,-184.12 402.89,-173.09 410.09,-164.58"/>
<polygon fill="midnightblue" stroke="midnightblue" points="382.72,-191.5 378.93,-201.4 388.07,-196.02 382.72,-191.5"/>
</g>
<!-- Node6 -->
<g id="node6" class="node">
<title>Node6</title>
<g id="a_node6"><a xlink:href="MaCh3Factory_8cpp.html" target="_top" xlink:title=" ">
<polygon fill="white" stroke="black" points="213,-0.5 213,-30.5 347,-30.5 347,-0.5 213,-0.5"/>
<text text-anchor="start" x="221" y="-18.5" font-family="Helvetica" font-size="10.00">/hosthome/MaCh3_2.1.0</text>
<text text-anchor="middle" x="280" y="-7.5" font-family="Helvetica" font-size="10.00">/Fitters/MaCh3Factory.cpp</text>
</a>
</g>
</g>
<!-- Node5&#45;&gt;Node6 -->
<g id="edge5" class="edge">
<title>Node5&#45;&gt;Node6</title>
<path fill="none" stroke="midnightblue" d="M280,-57.11C280,-48.15 280,-38.32 280,-30.58"/>
<polygon fill="midnightblue" stroke="midnightblue" points="276.5,-57.4 280,-67.4 283.5,-57.4 276.5,-57.4"/>
</g>
<!-- Node8 -->
<g id="node8" class="node">
<title>Node8</title>
<g id="a_node8"><a xlink:href="MinuitFit_8cpp.html" target="_top" xlink:title=" ">
<polygon fill="white" stroke="black" points="786,-67.5 786,-97.5 910,-97.5 910,-67.5 786,-67.5"/>
<text text-anchor="start" x="794" y="-85.5" font-family="Helvetica" font-size="10.00">/hosthome/MaCh3_2.1.0</text>
<text text-anchor="middle" x="848" y="-74.5" font-family="Helvetica" font-size="10.00">/Fitters/MinuitFit.cpp</text>
</a>
</g>
</g>
<!-- Node7&#45;&gt;Node8 -->
<g id="edge7" class="edge">
<title>Node7&#45;&gt;Node8</title>
<path fill="none" stroke="midnightblue" d="M775.18,-129.02C791.36,-118.9 810.77,-106.77 825.48,-97.58"/>
<polygon fill="midnightblue" stroke="midnightblue" points="773.19,-126.13 766.57,-134.4 776.9,-132.06 773.19,-126.13"/>
</g>
<!-- Node7&#45;&gt;Node9 -->
<g id="edge8" class="edge">
<title>Node7&#45;&gt;Node9</title>
<path fill="none" stroke="midnightblue" d="M730.6,-125.58C725.14,-116.24 719.01,-105.75 714.23,-97.58"/>
<polygon fill="midnightblue" stroke="midnightblue" points="727.69,-127.53 735.75,-134.4 733.73,-124 727.69,-127.53"/>
</g>
<!-- Node10&#45;&gt;Node5 -->
<g id="edge10" class="edge">
<title>Node10&#45;&gt;Node5</title>
<path fill="none" stroke="midnightblue" d="M381.87,-130.13C359.31,-119.8 331.58,-107.11 310.75,-97.58"/>
<polygon fill="midnightblue" stroke="midnightblue" points="380.64,-133.42 391.19,-134.4 383.55,-127.05 380.64,-133.42"/>
</g>
<!-- Node10&#45;&gt;Node9 -->
<g id="edge12" class="edge">
<title>Node10&#45;&gt;Node9</title>
<path fill="none" stroke="midnightblue" d="M493.28,-132.19C539.79,-121.54 599.9,-107.78 644.35,-97.61"/>
<polygon fill="midnightblue" stroke="midnightblue" points="492.24,-128.83 483.27,-134.48 493.8,-135.66 492.24,-128.83"/>
</g>
<!-- Node11 -->
<g id="node11" class="node">
<title>Node11</title>
<g id="a_node11"><a xlink:href="PSO_8cpp.html" target="_top" xlink:title=" ">
<polygon fill="white" stroke="black" points="360,-67.5 360,-97.5 484,-97.5 484,-67.5 360,-67.5"/>
<text text-anchor="start" x="368" y="-85.5" font-family="Helvetica" font-size="10.00">/hosthome/MaCh3_2.1.0</text>
<text text-anchor="middle" x="422" y="-74.5" font-family="Helvetica" font-size="10.00">/Fitters/PSO.cpp</text>
</a>
</g>
</g>
<!-- Node10&#45;&gt;Node11 -->
<g id="edge11" class="edge">
<title>Node10&#45;&gt;Node11</title>
<path fill="none" stroke="midnightblue" d="M422,-124.11C422,-115.15 422,-105.32 422,-97.58"/>
<polygon fill="midnightblue" stroke="midnightblue" points="418.5,-124.4 422,-134.4 425.5,-124.4 418.5,-124.4"/>
</g>
<!-- Node12&#45;&gt;Node5 -->
<g id="edge15" class="edge">
<title>Node12&#45;&gt;Node5</title>
<path fill="none" stroke="midnightblue" d="M492.72,-132.19C446.21,-121.54 386.1,-107.78 341.65,-97.61"/>
<polygon fill="midnightblue" stroke="midnightblue" points="492.2,-135.66 502.73,-134.48 493.76,-128.83 492.2,-135.66"/>
</g>
<!-- Node12&#45;&gt;Node9 -->
<g id="edge17" class="edge">
<title>Node12&#45;&gt;Node9</title>
<path fill="none" stroke="midnightblue" d="M604.13,-130.13C626.69,-119.8 654.42,-107.11 675.25,-97.58"/>
<polygon fill="midnightblue" stroke="midnightblue" points="602.45,-127.05 594.81,-134.4 605.36,-133.42 602.45,-127.05"/>
</g>
<!-- Node13 -->
<g id="node13" class="node">
<title>Node13</title>
<g id="a_node13"><a xlink:href="mcmc_8cpp.html" target="_top" xlink:title=" ">
<polygon fill="white" stroke="black" points="502,-67.5 502,-97.5 626,-97.5 626,-67.5 502,-67.5"/>
<text text-anchor="start" x="510" y="-85.5" font-family="Helvetica" font-size="10.00">/hosthome/MaCh3_2.1.0</text>
<text text-anchor="middle" x="564" y="-74.5" font-family="Helvetica" font-size="10.00">/Fitters/mcmc.cpp</text>
</a>
</g>
</g>
<!-- Node12&#45;&gt;Node13 -->
<g id="edge16" class="edge">
<title>Node12&#45;&gt;Node13</title>
<path fill="none" stroke="midnightblue" d="M564,-124.11C564,-115.15 564,-105.32 564,-97.58"/>
<polygon fill="midnightblue" stroke="midnightblue" points="560.5,-124.4 564,-134.4 567.5,-124.4 560.5,-124.4"/>
</g>
</g>
</svg>
