<?xml version="1.0" encoding="UTF-8" standalone="no"?>
<!DOCTYPE svg PUBLIC "-//W3C//DTD SVG 1.1//EN"
 "http://www.w3.org/Graphics/SVG/1.1/DTD/svg11.dtd">
<!-- Generated by graphviz version 2.44.0 (0)
 -->
<!-- Title: /hosthome/v2.1.0/Samples/HistogramUtils.h Pages: 1 -->
<svg width="1863pt" height="508pt"
 viewBox="0.00 0.00 1862.50 508.00" xmlns="http://www.w3.org/2000/svg" xmlns:xlink="http://www.w3.org/1999/xlink">
<g id="graph0" class="graph" transform="scale(1 1) rotate(0) translate(4 504)">
<title>/hosthome/v2.1.0/Samples/HistogramUtils.h</title>
<polygon fill="white" stroke="transparent" points="-4,4 -4,-504 1858.5,-504 1858.5,4 -4,4"/>
<!-- Node1 -->
<g id="node1" class="node">
<title>Node1</title>
<g id="a_node1"><a xlink:title=" ">
<polygon fill="#bfbfbf" stroke="black" points="954,-469.5 954,-499.5 1088,-499.5 1088,-469.5 954,-469.5"/>
<text text-anchor="start" x="962" y="-487.5" font-family="Helvetica" font-size="10.00">/hosthome/v2.1.0/Samples</text>
<text text-anchor="middle" x="1021" y="-476.5" font-family="Helvetica" font-size="10.00">/HistogramUtils.h</text>
</a>
</g>
</g>
<!-- Node2 -->
<g id="node2" class="node">
<title>Node2</title>
<g id="a_node2"><a xlink:href="HistogramUtils_8cpp.html" target="_top" xlink:title=" ">
<polygon fill="white" stroke="black" points="776,-402.5 776,-432.5 910,-432.5 910,-402.5 776,-402.5"/>
<text text-anchor="start" x="784" y="-420.5" font-family="Helvetica" font-size="10.00">/hosthome/v2.1.0/Samples</text>
<text text-anchor="middle" x="843" y="-409.5" font-family="Helvetica" font-size="10.00">/HistogramUtils.cpp</text>
</a>
</g>
</g>
<!-- Node1&#45;&gt;Node2 -->
<g id="edge1" class="edge">
<title>Node1&#45;&gt;Node2</title>
<path fill="none" stroke="midnightblue" d="M972.95,-465.96C944.28,-455.48 908.36,-442.37 881.55,-432.58"/>
<polygon fill="midnightblue" stroke="midnightblue" points="971.78,-469.25 982.38,-469.4 974.18,-462.68 971.78,-469.25"/>
</g>
<!-- Node3 -->
<g id="node3" class="node">
<title>Node3</title>
<g id="a_node3"><a xlink:href="SampleHandlerBase_8h.html" target="_top" xlink:title=" ">
<polygon fill="white" stroke="black" points="449,-335.5 449,-365.5 583,-365.5 583,-335.5 449,-335.5"/>
<text text-anchor="start" x="457" y="-353.5" font-family="Helvetica" font-size="10.00">/hosthome/v2.1.0/Samples</text>
<text text-anchor="middle" x="516" y="-342.5" font-family="Helvetica" font-size="10.00">/SampleHandlerBase.h</text>
</a>
</g>
</g>
<!-- Node1&#45;&gt;Node3 -->
<g id="edge2" class="edge">
<title>Node1&#45;&gt;Node3</title>
<path fill="none" stroke="midnightblue" d="M1001.22,-462.04C982.16,-442.86 951.49,-415.71 919,-402 859.97,-377.08 681.63,-362.09 583.14,-355.49"/>
<polygon fill="midnightblue" stroke="midnightblue" points="998.94,-464.72 1008.41,-469.46 1003.97,-459.85 998.94,-464.72"/>
</g>
<!-- Node23 -->
<g id="node23" class="node">
<title>Node23</title>
<g id="a_node23"><a xlink:href="MCMCProcessor_8h.html" target="_top" xlink:title=" ">
<polygon fill="white" stroke="black" points="914,-335.5 914,-365.5 1038,-365.5 1038,-335.5 914,-335.5"/>
<text text-anchor="start" x="922" y="-353.5" font-family="Helvetica" font-size="10.00">/hosthome/v2.1.0/Fitters</text>
<text text-anchor="middle" x="976" y="-342.5" font-family="Helvetica" font-size="10.00">/MCMCProcessor.h</text>
</a>
</g>
</g>
<!-- Node1&#45;&gt;Node23 -->
<g id="edge28" class="edge">
<title>Node1&#45;&gt;Node23</title>
<path fill="none" stroke="midnightblue" d="M1007.63,-460.47C1003.14,-452.04 998.41,-442.28 995,-433 986.58,-410.09 981.03,-382.15 978.21,-365.65"/>
<polygon fill="midnightblue" stroke="midnightblue" points="1004.62,-462.27 1012.51,-469.34 1010.75,-458.9 1004.62,-462.27"/>
</g>
<!-- Node25 -->
<g id="node25" class="node">
<title>Node25</title>
<g id="a_node25"><a xlink:href="OscProcessor_8h.html" target="_top" xlink:title=" ">
<polygon fill="white" stroke="black" points="1211,-268.5 1211,-298.5 1335,-298.5 1335,-268.5 1211,-268.5"/>
<text text-anchor="start" x="1219" y="-286.5" font-family="Helvetica" font-size="10.00">/hosthome/v2.1.0/Fitters</text>
<text text-anchor="middle" x="1273" y="-275.5" font-family="Helvetica" font-size="10.00">/OscProcessor.h</text>
</a>
</g>
</g>
<!-- Node1&#45;&gt;Node25 -->
<g id="edge46" class="edge">
<title>Node1&#45;&gt;Node25</title>
<path fill="none" stroke="midnightblue" d="M1074.18,-465.78C1094.83,-457.55 1118.02,-446.55 1137,-433 1192.77,-393.19 1242.86,-327.29 1263.28,-298.59"/>
<polygon fill="midnightblue" stroke="midnightblue" points="1072.66,-462.61 1064.59,-469.48 1075.18,-469.15 1072.66,-462.61"/>
</g>
<!-- Node28 -->
<g id="node28" class="node">
<title>Node28</title>
<g id="a_node28"><a xlink:href="PlotMCMCDiag_8cpp.html" target="_top" xlink:title="KS: This script is used to analyse output form DiagMCMC.">
<polygon fill="white" stroke="black" points="1512.5,-268.5 1512.5,-298.5 1659.5,-298.5 1659.5,-268.5 1512.5,-268.5"/>
<text text-anchor="start" x="1520.5" y="-286.5" font-family="Helvetica" font-size="10.00">/hosthome/v2.1.0/Diagnostics</text>
<text text-anchor="middle" x="1586" y="-275.5" font-family="Helvetica" font-size="10.00">/PlotMCMCDiag.cpp</text>
</a>
</g>
</g>
<!-- Node1&#45;&gt;Node28 -->
<g id="edge51" class="edge">
<title>Node1&#45;&gt;Node28</title>
<path fill="none" stroke="midnightblue" d="M1072.93,-466.13C1101.6,-456.48 1137.81,-444.2 1170,-433 1309.24,-384.55 1473.96,-325.12 1547.36,-298.53"/>
<polygon fill="midnightblue" stroke="midnightblue" points="1071.49,-462.92 1063.13,-469.42 1073.72,-469.55 1071.49,-462.92"/>
</g>
<!-- Node38 -->
<g id="node38" class="node">
<title>Node38</title>
<g id="a_node38"><a xlink:href="StatisticalUtils_8h.html" target="_top" xlink:title="Utility functions for statistical interpretations in MaCh3.">
<polygon fill="white" stroke="black" points="1004,-402.5 1004,-432.5 1128,-432.5 1128,-402.5 1004,-402.5"/>
<text text-anchor="start" x="1012" y="-420.5" font-family="Helvetica" font-size="10.00">/hosthome/v2.1.0/Fitters</text>
<text text-anchor="middle" x="1066" y="-409.5" font-family="Helvetica" font-size="10.00">/StatisticalUtils.h</text>
</a>
</g>
</g>
<!-- Node1&#45;&gt;Node38 -->
<g id="edge47" class="edge">
<title>Node1&#45;&gt;Node38</title>
<path fill="none" stroke="midnightblue" d="M1036.47,-461.16C1043.03,-451.68 1050.48,-440.92 1056.25,-432.58"/>
<polygon fill="midnightblue" stroke="midnightblue" points="1033.58,-459.18 1030.76,-469.4 1039.33,-463.17 1033.58,-459.18"/>
</g>
<!-- Node4 -->
<g id="node4" class="node">
<title>Node4</title>
<g id="a_node4"><a xlink:href="SampleHandlerBase_8cpp.html" target="_top" xlink:title=" ">
<polygon fill="white" stroke="black" points="48,-268.5 48,-298.5 182,-298.5 182,-268.5 48,-268.5"/>
<text text-anchor="start" x="56" y="-286.5" font-family="Helvetica" font-size="10.00">/hosthome/v2.1.0/Samples</text>
<text text-anchor="middle" x="115" y="-275.5" font-family="Helvetica" font-size="10.00">/SampleHandlerBase.cpp</text>
</a>
</g>
</g>
<!-- Node3&#45;&gt;Node4 -->
<g id="edge3" class="edge">
<title>Node3&#45;&gt;Node4</title>
<path fill="none" stroke="midnightblue" d="M439.08,-338.31C373.15,-328.53 275.69,-313.65 191,-299 188.09,-298.5 185.12,-297.97 182.11,-297.43"/>
<polygon fill="midnightblue" stroke="midnightblue" points="438.57,-341.77 448.98,-339.77 439.6,-334.85 438.57,-341.77"/>
</g>
<!-- Node5 -->
<g id="node5" class="node">
<title>Node5</title>
<g id="a_node5"><a xlink:href="SampleHandlerFD_8h.html" target="_top" xlink:title=" ">
<polygon fill="white" stroke="black" points="200,-268.5 200,-298.5 334,-298.5 334,-268.5 200,-268.5"/>
<text text-anchor="start" x="208" y="-286.5" font-family="Helvetica" font-size="10.00">/hosthome/v2.1.0/Samples</text>
<text text-anchor="middle" x="267" y="-275.5" font-family="Helvetica" font-size="10.00">/SampleHandlerFD.h</text>
</a>
</g>
</g>
<!-- Node3&#45;&gt;Node5 -->
<g id="edge4" class="edge">
<title>Node3&#45;&gt;Node5</title>
<path fill="none" stroke="midnightblue" d="M452.47,-332.92C411.84,-322.31 359.7,-308.7 321.06,-298.61"/>
<polygon fill="midnightblue" stroke="midnightblue" points="451.72,-336.34 462.28,-335.48 453.49,-329.56 451.72,-336.34"/>
</g>
<!-- Node8 -->
<g id="node8" class="node">
<title>Node8</title>
<g id="a_node8"><a xlink:href="FitterBase_8h.html" target="_top" xlink:title=" ">
<polygon fill="white" stroke="black" points="454,-268.5 454,-298.5 578,-298.5 578,-268.5 454,-268.5"/>
<text text-anchor="start" x="462" y="-286.5" font-family="Helvetica" font-size="10.00">/hosthome/v2.1.0/Fitters</text>
<text text-anchor="middle" x="516" y="-275.5" font-family="Helvetica" font-size="10.00">/FitterBase.h</text>
</a>
</g>
</g>
<!-- Node3&#45;&gt;Node8 -->
<g id="edge7" class="edge">
<title>Node3&#45;&gt;Node8</title>
<path fill="none" stroke="midnightblue" d="M516,-325.11C516,-316.15 516,-306.32 516,-298.58"/>
<polygon fill="midnightblue" stroke="midnightblue" points="512.5,-325.4 516,-335.4 519.5,-325.4 512.5,-325.4"/>
</g>
<!-- Node21 -->
<g id="node21" class="node">
<title>Node21</title>
<g id="a_node21"><a xlink:href="SampleSummary_8h.html" target="_top" xlink:title=" ">
<polygon fill="white" stroke="black" points="596,-268.5 596,-298.5 720,-298.5 720,-268.5 596,-268.5"/>
<text text-anchor="start" x="604" y="-286.5" font-family="Helvetica" font-size="10.00">/hosthome/v2.1.0/Fitters</text>
<text text-anchor="middle" x="658" y="-275.5" font-family="Helvetica" font-size="10.00">/SampleSummary.h</text>
</a>
</g>
</g>
<!-- Node3&#45;&gt;Node21 -->
<g id="edge26" class="edge">
<title>Node3&#45;&gt;Node21</title>
<path fill="none" stroke="midnightblue" d="M556.13,-331.13C578.69,-320.8 606.42,-308.11 627.25,-298.58"/>
<polygon fill="midnightblue" stroke="midnightblue" points="554.45,-328.05 546.81,-335.4 557.36,-334.42 554.45,-328.05"/>
</g>
<!-- Node6 -->
<g id="node6" class="node">
<title>Node6</title>
<g id="a_node6"><a xlink:href="SampleHandlerFD_8cpp.html" target="_top" xlink:title=" ">
<polygon fill="white" stroke="black" points="0,-201.5 0,-231.5 134,-231.5 134,-201.5 0,-201.5"/>
<text text-anchor="start" x="8" y="-219.5" font-family="Helvetica" font-size="10.00">/hosthome/v2.1.0/Samples</text>
<text text-anchor="middle" x="67" y="-208.5" font-family="Helvetica" font-size="10.00">/SampleHandlerFD.cpp</text>
</a>
</g>
</g>
<!-- Node5&#45;&gt;Node6 -->
<g id="edge5" class="edge">
<title>Node5&#45;&gt;Node6</title>
<path fill="none" stroke="midnightblue" d="M213.85,-265.23C181.5,-254.71 140.69,-241.45 110.31,-231.58"/>
<polygon fill="midnightblue" stroke="midnightblue" points="213.01,-268.63 223.6,-268.4 215.17,-261.98 213.01,-268.63"/>
</g>
<!-- Node7 -->
<g id="node7" class="node">
<title>Node7</title>
<g id="a_node7"><a xlink:href="samples_8cpp.html" target="_top" xlink:title=" ">
<polygon fill="white" stroke="black" points="152.5,-201.5 152.5,-231.5 277.5,-231.5 277.5,-201.5 152.5,-201.5"/>
<text text-anchor="start" x="160.5" y="-219.5" font-family="Helvetica" font-size="10.00">/hosthome/v2.1.0/python</text>
<text text-anchor="middle" x="215" y="-208.5" font-family="Helvetica" font-size="10.00">/samples.cpp</text>
</a>
</g>
</g>
<!-- Node5&#45;&gt;Node7 -->
<g id="edge6" class="edge">
<title>Node5&#45;&gt;Node7</title>
<path fill="none" stroke="midnightblue" d="M249.36,-260.45C241.72,-250.9 233,-240 226.26,-231.58"/>
<polygon fill="midnightblue" stroke="midnightblue" points="246.74,-262.77 255.72,-268.4 252.2,-258.4 246.74,-262.77"/>
</g>
<!-- Node9 -->
<g id="node9" class="node">
<title>Node9</title>
<g id="a_node9"><a xlink:href="FitterBase_8cpp.html" target="_top" xlink:title=" ">
<polygon fill="white" stroke="black" points="296,-201.5 296,-231.5 420,-231.5 420,-201.5 296,-201.5"/>
<text text-anchor="start" x="304" y="-219.5" font-family="Helvetica" font-size="10.00">/hosthome/v2.1.0/Fitters</text>
<text text-anchor="middle" x="358" y="-208.5" font-family="Helvetica" font-size="10.00">/FitterBase.cpp</text>
</a>
</g>
</g>
<!-- Node8&#45;&gt;Node9 -->
<g id="edge8" class="edge">
<title>Node8&#45;&gt;Node9</title>
<path fill="none" stroke="midnightblue" d="M472.35,-264.54C447.07,-254.14 415.7,-241.24 392.22,-231.58"/>
<polygon fill="midnightblue" stroke="midnightblue" points="471.14,-267.83 481.72,-268.4 473.8,-261.35 471.14,-267.83"/>
</g>
<!-- Node10 -->
<g id="node10" class="node">
<title>Node10</title>
<g id="a_node10"><a xlink:href="LikelihoodFit_8h.html" target="_top" xlink:title=" ">
<polygon fill="white" stroke="black" points="521,-201.5 521,-231.5 645,-231.5 645,-201.5 521,-201.5"/>
<text text-anchor="start" x="529" y="-219.5" font-family="Helvetica" font-size="10.00">/hosthome/v2.1.0/Fitters</text>
<text text-anchor="middle" x="583" y="-208.5" font-family="Helvetica" font-size="10.00">/LikelihoodFit.h</text>
</a>
</g>
</g>
<!-- Node8&#45;&gt;Node10 -->
<g id="edge9" class="edge">
<title>Node8&#45;&gt;Node10</title>
<path fill="none" stroke="midnightblue" d="M537.84,-261.31C547.89,-251.56 559.54,-240.26 568.49,-231.58"/>
<polygon fill="midnightblue" stroke="midnightblue" points="535.28,-258.92 530.54,-268.4 540.15,-263.94 535.28,-258.92"/>
</g>
<!-- Node12 -->
<g id="node12" class="node">
<title>Node12</title>
<g id="a_node12"><a xlink:href="MaCh3Factory_8h.html" target="_top" xlink:title="Factory methods for MaCh3 software which streamline initialisation of different objects.">
<polygon fill="white" stroke="black" points="469,-67.5 469,-97.5 593,-97.5 593,-67.5 469,-67.5"/>
<text text-anchor="start" x="477" y="-85.5" font-family="Helvetica" font-size="10.00">/hosthome/v2.1.0/Fitters</text>
<text text-anchor="middle" x="531" y="-74.5" font-family="Helvetica" font-size="10.00">/MaCh3Factory.h</text>
</a>
</g>
</g>
<!-- Node8&#45;&gt;Node12 -->
<g id="edge20" class="edge">
<title>Node8&#45;&gt;Node12</title>
<path fill="none" stroke="midnightblue" d="M491.37,-261.29C468.4,-239.73 435.69,-204.03 422,-165 417.44,-152 414.58,-145.61 422,-134 433.12,-116.6 451.93,-105.11 470.84,-97.55"/>
<polygon fill="midnightblue" stroke="midnightblue" points="489.3,-264.14 499.04,-268.3 494.03,-258.97 489.3,-264.14"/>
</g>
<!-- Node16 -->
<g id="node16" class="node">
<title>Node16</title>
<g id="a_node16"><a xlink:href="fitters_8cpp.html" target="_top" xlink:title=" ">
<polygon fill="white" stroke="black" points="895.5,-67.5 895.5,-97.5 1020.5,-97.5 1020.5,-67.5 895.5,-67.5"/>
<text text-anchor="start" x="903.5" y="-85.5" font-family="Helvetica" font-size="10.00">/hosthome/v2.1.0/python</text>
<text text-anchor="middle" x="958" y="-74.5" font-family="Helvetica" font-size="10.00">/fitters.cpp</text>
</a>
</g>
</g>
<!-- Node8&#45;&gt;Node16 -->
<g id="edge25" class="edge">
<title>Node8&#45;&gt;Node16</title>
<path fill="none" stroke="midnightblue" d="M583.52,-266C675.99,-242.58 836.24,-198.79 886,-165 913.18,-146.55 936.67,-115.53 948.94,-97.55"/>
<polygon fill="midnightblue" stroke="midnightblue" points="582.53,-262.64 573.69,-268.48 584.24,-269.43 582.53,-262.64"/>
</g>
<!-- Node19 -->
<g id="node19" class="node">
<title>Node19</title>
<g id="a_node19"><a xlink:href="mcmc_8h.html" target="_top" xlink:title=" ">
<polygon fill="white" stroke="black" points="753,-134.5 753,-164.5 877,-164.5 877,-134.5 753,-134.5"/>
<text text-anchor="start" x="761" y="-152.5" font-family="Helvetica" font-size="10.00">/hosthome/v2.1.0/Fitters</text>
<text text-anchor="middle" x="815" y="-141.5" font-family="Helvetica" font-size="10.00">/mcmc.h</text>
</a>
</g>
</g>
<!-- Node8&#45;&gt;Node19 -->
<g id="edge21" class="edge">
<title>Node8&#45;&gt;Node19</title>
<path fill="none" stroke="midnightblue" d="M568.17,-265.04C594.24,-255.91 626.09,-244.12 654,-232 702.99,-210.72 758.14,-181.64 789.51,-164.58"/>
<polygon fill="midnightblue" stroke="midnightblue" points="566.78,-261.82 558.48,-268.41 569.07,-268.43 566.78,-261.82"/>
</g>
<!-- Node11 -->
<g id="node11" class="node">
<title>Node11</title>
<g id="a_node11"><a xlink:href="LikelihoodFit_8cpp.html" target="_top" xlink:title=" ">
<polygon fill="white" stroke="black" points="431,-134.5 431,-164.5 555,-164.5 555,-134.5 431,-134.5"/>
<text text-anchor="start" x="439" y="-152.5" font-family="Helvetica" font-size="10.00">/hosthome/v2.1.0/Fitters</text>
<text text-anchor="middle" x="493" y="-141.5" font-family="Helvetica" font-size="10.00">/LikelihoodFit.cpp</text>
</a>
</g>
</g>
<!-- Node10&#45;&gt;Node11 -->
<g id="edge10" class="edge">
<title>Node10&#45;&gt;Node11</title>
<path fill="none" stroke="midnightblue" d="M555.24,-195.45C541.39,-185.45 524.98,-173.6 512.49,-164.58"/>
<polygon fill="midnightblue" stroke="midnightblue" points="553.32,-198.38 563.47,-201.4 557.41,-192.7 553.32,-198.38"/>
</g>
<!-- Node10&#45;&gt;Node12 -->
<g id="edge11" class="edge">
<title>Node10&#45;&gt;Node12</title>
<path fill="none" stroke="midnightblue" d="M579.67,-191.49C576.83,-174.88 571.92,-152.52 564,-134 558.4,-120.9 549.44,-107.47 542.26,-97.75"/>
<polygon fill="midnightblue" stroke="midnightblue" points="576.23,-192.15 581.25,-201.48 583.15,-191.06 576.23,-192.15"/>
</g>
<!-- Node14 -->
<g id="node14" class="node">
<title>Node14</title>
<g id="a_node14"><a xlink:href="MinuitFit_8h.html" target="_top" xlink:title=" ">
<polygon fill="white" stroke="black" points="933,-134.5 933,-164.5 1057,-164.5 1057,-134.5 933,-134.5"/>
<text text-anchor="start" x="941" y="-152.5" font-family="Helvetica" font-size="10.00">/hosthome/v2.1.0/Fitters</text>
<text text-anchor="middle" x="995" y="-141.5" font-family="Helvetica" font-size="10.00">/MinuitFit.h</text>
</a>
</g>
</g>
<!-- Node10&#45;&gt;Node14 -->
<g id="edge13" class="edge">
<title>Node10&#45;&gt;Node14</title>
<path fill="none" stroke="midnightblue" d="M655.43,-204.07C734.05,-191.67 858.3,-172.07 932.71,-160.33"/>
<polygon fill="midnightblue" stroke="midnightblue" points="654.46,-200.68 645.13,-205.7 655.55,-207.6 654.46,-200.68"/>
</g>
<!-- Node17 -->
<g id="node17" class="node">
<title>Node17</title>
<g id="a_node17"><a xlink:href="PSO_8h.html" target="_top" xlink:title=" ">
<polygon fill="white" stroke="black" points="611,-134.5 611,-164.5 735,-164.5 735,-134.5 611,-134.5"/>
<text text-anchor="start" x="619" y="-152.5" font-family="Helvetica" font-size="10.00">/hosthome/v2.1.0/Fitters</text>
<text text-anchor="middle" x="673" y="-141.5" font-family="Helvetica" font-size="10.00">/PSO.h</text>
</a>
</g>
</g>
<!-- Node10&#45;&gt;Node17 -->
<g id="edge16" class="edge">
<title>Node10&#45;&gt;Node17</title>
<path fill="none" stroke="midnightblue" d="M610.76,-195.45C624.61,-185.45 641.02,-173.6 653.51,-164.58"/>
<polygon fill="midnightblue" stroke="midnightblue" points="608.59,-192.7 602.53,-201.4 612.68,-198.38 608.59,-192.7"/>
</g>
<!-- Node13 -->
<g id="node13" class="node">
<title>Node13</title>
<g id="a_node13"><a xlink:href="MaCh3Factory_8cpp.html" target="_top" xlink:title=" ">
<polygon fill="white" stroke="black" points="469,-0.5 469,-30.5 593,-30.5 593,-0.5 469,-0.5"/>
<text text-anchor="start" x="477" y="-18.5" font-family="Helvetica" font-size="10.00">/hosthome/v2.1.0/Fitters</text>
<text text-anchor="middle" x="531" y="-7.5" font-family="Helvetica" font-size="10.00">/MaCh3Factory.cpp</text>
</a>
</g>
</g>
<!-- Node12&#45;&gt;Node13 -->
<g id="edge12" class="edge">
<title>Node12&#45;&gt;Node13</title>
<path fill="none" stroke="midnightblue" d="M531,-57.11C531,-48.15 531,-38.32 531,-30.58"/>
<polygon fill="midnightblue" stroke="midnightblue" points="527.5,-57.4 531,-67.4 534.5,-57.4 527.5,-57.4"/>
</g>
<!-- Node15 -->
<g id="node15" class="node">
<title>Node15</title>
<g id="a_node15"><a xlink:href="MinuitFit_8cpp.html" target="_top" xlink:title=" ">
<polygon fill="white" stroke="black" points="1039,-67.5 1039,-97.5 1163,-97.5 1163,-67.5 1039,-67.5"/>
<text text-anchor="start" x="1047" y="-85.5" font-family="Helvetica" font-size="10.00">/hosthome/v2.1.0/Fitters</text>
<text text-anchor="middle" x="1101" y="-74.5" font-family="Helvetica" font-size="10.00">/MinuitFit.cpp</text>
</a>
</g>
</g>
<!-- Node14&#45;&gt;Node15 -->
<g id="edge14" class="edge">
<title>Node14&#45;&gt;Node15</title>
<path fill="none" stroke="midnightblue" d="M1026.78,-129.02C1043.27,-118.9 1063.05,-106.77 1078.04,-97.58"/>
<polygon fill="midnightblue" stroke="midnightblue" points="1024.7,-126.18 1018,-134.4 1028.35,-132.15 1024.7,-126.18"/>
</g>
<!-- Node14&#45;&gt;Node16 -->
<g id="edge15" class="edge">
<title>Node14&#45;&gt;Node16</title>
<path fill="none" stroke="midnightblue" d="M981.95,-125.58C976.64,-116.24 970.66,-105.75 966.01,-97.58"/>
<polygon fill="midnightblue" stroke="midnightblue" points="978.98,-127.44 986.97,-134.4 985.07,-123.97 978.98,-127.44"/>
</g>
<!-- Node17&#45;&gt;Node12 -->
<g id="edge17" class="edge">
<title>Node17&#45;&gt;Node12</title>
<path fill="none" stroke="midnightblue" d="M632.87,-130.13C610.31,-119.8 582.58,-107.11 561.75,-97.58"/>
<polygon fill="midnightblue" stroke="midnightblue" points="631.64,-133.42 642.19,-134.4 634.55,-127.05 631.64,-133.42"/>
</g>
<!-- Node17&#45;&gt;Node16 -->
<g id="edge19" class="edge">
<title>Node17&#45;&gt;Node16</title>
<path fill="none" stroke="midnightblue" d="M744.53,-132.19C791.21,-121.54 851.52,-107.78 896.13,-97.61"/>
<polygon fill="midnightblue" stroke="midnightblue" points="743.46,-128.84 734.49,-134.48 745.02,-135.66 743.46,-128.84"/>
</g>
<!-- Node18 -->
<g id="node18" class="node">
<title>Node18</title>
<g id="a_node18"><a xlink:href="PSO_8cpp.html" target="_top" xlink:title=" ">
<polygon fill="white" stroke="black" points="611,-67.5 611,-97.5 735,-97.5 735,-67.5 611,-67.5"/>
<text text-anchor="start" x="619" y="-85.5" font-family="Helvetica" font-size="10.00">/hosthome/v2.1.0/Fitters</text>
<text text-anchor="middle" x="673" y="-74.5" font-family="Helvetica" font-size="10.00">/PSO.cpp</text>
</a>
</g>
</g>
<!-- Node17&#45;&gt;Node18 -->
<g id="edge18" class="edge">
<title>Node17&#45;&gt;Node18</title>
<path fill="none" stroke="midnightblue" d="M673,-124.11C673,-115.15 673,-105.32 673,-97.58"/>
<polygon fill="midnightblue" stroke="midnightblue" points="669.5,-124.4 673,-134.4 676.5,-124.4 669.5,-124.4"/>
</g>
<!-- Node19&#45;&gt;Node12 -->
<g id="edge22" class="edge">
<title>Node19&#45;&gt;Node12</title>
<path fill="none" stroke="midnightblue" d="M743.72,-132.19C697.21,-121.54 637.1,-107.78 592.65,-97.61"/>
<polygon fill="midnightblue" stroke="midnightblue" points="743.2,-135.66 753.73,-134.48 744.76,-128.83 743.2,-135.66"/>
</g>
<!-- Node19&#45;&gt;Node16 -->
<g id="edge24" class="edge">
<title>Node19&#45;&gt;Node16</title>
<path fill="none" stroke="midnightblue" d="M855.41,-130.13C878.13,-119.8 906.06,-107.11 927.03,-97.58"/>
<polygon fill="midnightblue" stroke="midnightblue" points="853.68,-127.07 846.03,-134.4 856.58,-133.44 853.68,-127.07"/>
</g>
<!-- Node20 -->
<g id="node20" class="node">
<title>Node20</title>
<g id="a_node20"><a xlink:href="mcmc_8cpp.html" target="_top" xlink:title=" ">
<polygon fill="white" stroke="black" points="753,-67.5 753,-97.5 877,-97.5 877,-67.5 753,-67.5"/>
<text text-anchor="start" x="761" y="-85.5" font-family="Helvetica" font-size="10.00">/hosthome/v2.1.0/Fitters</text>
<text text-anchor="middle" x="815" y="-74.5" font-family="Helvetica" font-size="10.00">/mcmc.cpp</text>
</a>
</g>
</g>
<!-- Node19&#45;&gt;Node20 -->
<g id="edge23" class="edge">
<title>Node19&#45;&gt;Node20</title>
<path fill="none" stroke="midnightblue" d="M815,-124.11C815,-115.15 815,-105.32 815,-97.58"/>
<polygon fill="midnightblue" stroke="midnightblue" points="811.5,-124.4 815,-134.4 818.5,-124.4 811.5,-124.4"/>
</g>
<!-- Node22 -->
<g id="node22" class="node">
<title>Node22</title>
<g id="a_node22"><a xlink:href="SampleSummary_8cpp.html" target="_top" xlink:title=" ">
<polygon fill="white" stroke="black" points="933,-201.5 933,-231.5 1057,-231.5 1057,-201.5 933,-201.5"/>
<text text-anchor="start" x="941" y="-219.5" font-family="Helvetica" font-size="10.00">/hosthome/v2.1.0/Fitters</text>
<text text-anchor="middle" x="995" y="-208.5" font-family="Helvetica" font-size="10.00">/SampleSummary.cpp</text>
</a>
</g>
</g>
<!-- Node21&#45;&gt;Node22 -->
<g id="edge27" class="edge">
<title>Node21&#45;&gt;Node22</title>
<path fill="none" stroke="midnightblue" d="M730.39,-267.74C814.99,-251.13 837.7,-247.46 919,-232 923.49,-231.15 928.12,-230.26 932.79,-229.38"/>
<polygon fill="midnightblue" stroke="midnightblue" points="729.46,-264.36 720.33,-269.72 730.82,-271.22 729.46,-264.36"/>
</g>
<!-- Node23&#45;&gt;Node8 -->
<g id="edge29" class="edge">
<title>Node23&#45;&gt;Node8</title>
<path fill="none" stroke="midnightblue" d="M903.58,-341.68C825.28,-332.87 696.93,-317.34 587,-299 584.15,-298.52 581.23,-298.02 578.29,-297.49"/>
<polygon fill="midnightblue" stroke="midnightblue" points="903.49,-345.2 913.81,-342.83 904.26,-338.24 903.49,-345.2"/>
</g>
<!-- Node23&#45;&gt;Node21 -->
<g id="edge33" class="edge">
<title>Node23&#45;&gt;Node21</title>
<path fill="none" stroke="midnightblue" d="M903.84,-334.75C848.49,-323.44 772.88,-307.98 720.18,-297.21"/>
<polygon fill="midnightblue" stroke="midnightblue" points="903.43,-338.24 913.93,-336.81 904.84,-331.38 903.43,-338.24"/>
</g>
<!-- Node24 -->
<g id="node24" class="node">
<title>Node24</title>
<g id="a_node24"><a xlink:href="MCMCProcessor_8cpp.html" target="_top" xlink:title=" ">
<polygon fill="white" stroke="black" points="738,-268.5 738,-298.5 862,-298.5 862,-268.5 738,-268.5"/>
<text text-anchor="start" x="746" y="-286.5" font-family="Helvetica" font-size="10.00">/hosthome/v2.1.0/Fitters</text>
<text text-anchor="middle" x="800" y="-275.5" font-family="Helvetica" font-size="10.00">/MCMCProcessor.cpp</text>
</a>
</g>
</g>
<!-- Node23&#45;&gt;Node24 -->
<g id="edge30" class="edge">
<title>Node23&#45;&gt;Node24</title>
<path fill="none" stroke="midnightblue" d="M928.12,-331.82C899.83,-321.37 864.51,-308.32 838.11,-298.58"/>
<polygon fill="midnightblue" stroke="midnightblue" points="927.22,-335.21 937.81,-335.4 929.64,-328.65 927.22,-335.21"/>
</g>
<!-- Node23&#45;&gt;Node25 -->
<g id="edge31" class="edge">
<title>Node23&#45;&gt;Node25</title>
<path fill="none" stroke="midnightblue" d="M1048.31,-333.68C1098.04,-322.79 1163.42,-308.48 1210.82,-298.11"/>
<polygon fill="midnightblue" stroke="midnightblue" points="1047.28,-330.32 1038.26,-335.87 1048.78,-337.15 1047.28,-330.32"/>
</g>
<!-- Node27 -->
<g id="node27" class="node">
<title>Node27</title>
<g id="a_node27"><a xlink:href="DiagMCMC_8cpp.html" target="_top" xlink:title=" ">
<polygon fill="white" stroke="black" points="880.5,-268.5 880.5,-298.5 1027.5,-298.5 1027.5,-268.5 880.5,-268.5"/>
<text text-anchor="start" x="888.5" y="-286.5" font-family="Helvetica" font-size="10.00">/hosthome/v2.1.0/Diagnostics</text>
<text text-anchor="middle" x="954" y="-275.5" font-family="Helvetica" font-size="10.00">/DiagMCMC.cpp</text>
</a>
</g>
</g>
<!-- Node23&#45;&gt;Node27 -->
<g id="edge34" class="edge">
<title>Node23&#45;&gt;Node27</title>
<path fill="none" stroke="midnightblue" d="M967.94,-325.7C964.86,-316.59 961.44,-306.49 958.76,-298.58"/>
<polygon fill="midnightblue" stroke="midnightblue" points="964.71,-327.05 971.23,-335.4 971.34,-324.8 964.71,-327.05"/>
</g>
<!-- Node23&#45;&gt;Node28 -->
<g id="edge35" class="edge">
<title>Node23&#45;&gt;Node28</title>
<path fill="none" stroke="midnightblue" d="M1048.3,-334.93C1250.05,-307.17 1304.56,-324.11 1503,-299 1506.05,-298.61 1509.15,-298.19 1512.29,-297.75"/>
<polygon fill="midnightblue" stroke="midnightblue" points="1047.68,-331.49 1038.26,-336.33 1048.65,-338.42 1047.68,-331.49"/>
</g>
<!-- Node29 -->
<g id="node29" class="node">
<title>Node29</title>
<g id="a_node29"><a xlink:href="ProcessMCMC_8cpp.html" target="_top" xlink:title="Main exectable responsible for different types of MCMC processing like drawing posteriors,...">
<polygon fill="white" stroke="black" points="1045.5,-268.5 1045.5,-298.5 1192.5,-298.5 1192.5,-268.5 1045.5,-268.5"/>
<text text-anchor="start" x="1053.5" y="-286.5" font-family="Helvetica" font-size="10.00">/hosthome/v2.1.0/Diagnostics</text>
<text text-anchor="middle" x="1119" y="-275.5" font-family="Helvetica" font-size="10.00">/ProcessMCMC.cpp</text>
</a>
</g>
</g>
<!-- Node23&#45;&gt;Node29 -->
<g id="edge36" class="edge">
<title>Node23&#45;&gt;Node29</title>
<path fill="none" stroke="midnightblue" d="M1016.41,-331.13C1039.13,-320.8 1067.06,-308.11 1088.03,-298.58"/>
<polygon fill="midnightblue" stroke="midnightblue" points="1014.68,-328.07 1007.03,-335.4 1017.58,-334.44 1014.68,-328.07"/>
</g>
<!-- Node30 -->
<g id="node30" class="node">
<title>Node30</title>
<g id="a_node30"><a xlink:href="inputManager_8h.html" target="_top" xlink:title=" ">
<polygon fill="white" stroke="black" points="1353.5,-268.5 1353.5,-298.5 1494.5,-298.5 1494.5,-268.5 1353.5,-268.5"/>
<text text-anchor="start" x="1361.5" y="-286.5" font-family="Helvetica" font-size="10.00">/hosthome/v2.1.0/Plotting</text>
<text text-anchor="middle" x="1424" y="-275.5" font-family="Helvetica" font-size="10.00">/plottingUtils/inputManager.h</text>
</a>
</g>
</g>
<!-- Node23&#45;&gt;Node30 -->
<g id="edge37" class="edge">
<title>Node23&#45;&gt;Node30</title>
<path fill="none" stroke="midnightblue" d="M1048.35,-334.86C1179.98,-313.92 1215.74,-318.38 1344,-299 1347.07,-298.54 1350.2,-298.04 1353.37,-297.53"/>
<polygon fill="midnightblue" stroke="midnightblue" points="1047.6,-331.44 1038.29,-336.48 1048.72,-338.35 1047.6,-331.44"/>
</g>
<!-- Node26 -->
<g id="node26" class="node">
<title>Node26</title>
<g id="a_node26"><a xlink:href="OscProcessor_8cpp.html" target="_top" xlink:title=" ">
<polygon fill="white" stroke="black" points="1191,-201.5 1191,-231.5 1315,-231.5 1315,-201.5 1191,-201.5"/>
<text text-anchor="start" x="1199" y="-219.5" font-family="Helvetica" font-size="10.00">/hosthome/v2.1.0/Fitters</text>
<text text-anchor="middle" x="1253" y="-208.5" font-family="Helvetica" font-size="10.00">/OscProcessor.cpp</text>
</a>
</g>
</g>
<!-- Node25&#45;&gt;Node26 -->
<g id="edge32" class="edge">
<title>Node25&#45;&gt;Node26</title>
<path fill="none" stroke="midnightblue" d="M1265.68,-258.7C1262.87,-249.59 1259.77,-239.49 1257.33,-231.58"/>
<polygon fill="midnightblue" stroke="midnightblue" points="1262.37,-259.87 1268.66,-268.4 1269.06,-257.81 1262.37,-259.87"/>
</g>
<!-- Node31 -->
<g id="node31" class="node">
<title>Node31</title>
<g id="a_node31"><a xlink:href="inputManager_8cpp.html" target="_top" xlink:title=" ">
<polygon fill="white" stroke="black" points="1333,-201.5 1333,-231.5 1485,-231.5 1485,-201.5 1333,-201.5"/>
<text text-anchor="start" x="1341" y="-219.5" font-family="Helvetica" font-size="10.00">/hosthome/v2.1.0/Plotting</text>
<text text-anchor="middle" x="1409" y="-208.5" font-family="Helvetica" font-size="10.00">/plottingUtils/inputManager.cpp</text>
</a>
</g>
</g>
<!-- Node30&#45;&gt;Node31 -->
<g id="edge38" class="edge">
<title>Node30&#45;&gt;Node31</title>
<path fill="none" stroke="midnightblue" d="M1418.44,-258.4C1416.35,-249.37 1414.06,-239.41 1412.25,-231.58"/>
<polygon fill="midnightblue" stroke="midnightblue" points="1415.09,-259.44 1420.75,-268.4 1421.91,-257.87 1415.09,-259.44"/>
</g>
<!-- Node32 -->
<g id="node32" class="node">
<title>Node32</title>
<g id="a_node32"><a xlink:href="plottingManager_8h.html" target="_top" xlink:title=" ">
<polygon fill="white" stroke="black" points="1503,-201.5 1503,-231.5 1655,-231.5 1655,-201.5 1503,-201.5"/>
<text text-anchor="start" x="1511" y="-219.5" font-family="Helvetica" font-size="10.00">/hosthome/v2.1.0/Plotting</text>
<text text-anchor="middle" x="1579" y="-208.5" font-family="Helvetica" font-size="10.00">/plottingUtils/plottingManager.h</text>
</a>
</g>
</g>
<!-- Node30&#45;&gt;Node32 -->
<g id="edge39" class="edge">
<title>Node30&#45;&gt;Node32</title>
<path fill="none" stroke="midnightblue" d="M1467.15,-264.41C1491.89,-254.03 1522.5,-241.2 1545.43,-231.58"/>
<polygon fill="midnightblue" stroke="midnightblue" points="1465.5,-261.3 1457.63,-268.4 1468.21,-267.76 1465.5,-261.3"/>
</g>
<!-- Node37 -->
<g id="node37" class="node">
<title>Node37</title>
<g id="a_node37"><a xlink:href="plotting_8cpp.html" target="_top" xlink:title=" ">
<polygon fill="white" stroke="black" points="1729.5,-134.5 1729.5,-164.5 1854.5,-164.5 1854.5,-134.5 1729.5,-134.5"/>
<text text-anchor="start" x="1737.5" y="-152.5" font-family="Helvetica" font-size="10.00">/hosthome/v2.1.0/python</text>
<text text-anchor="middle" x="1792" y="-141.5" font-family="Helvetica" font-size="10.00">/plotting.cpp</text>
</a>
</g>
</g>
<!-- Node30&#45;&gt;Node37 -->
<g id="edge45" class="edge">
<title>Node30&#45;&gt;Node37</title>
<path fill="none" stroke="midnightblue" d="M1504.59,-267.03C1568.37,-254.53 1649.12,-238.07 1664,-232 1706.69,-214.59 1750.83,-182.9 1774.49,-164.59"/>
<polygon fill="midnightblue" stroke="midnightblue" points="1503.65,-263.64 1494.51,-269 1504.99,-270.51 1503.65,-263.64"/>
</g>
<!-- Node33 -->
<g id="node33" class="node">
<title>Node33</title>
<g id="a_node33"><a xlink:href="GetPostfitParamPlots_8cpp.html" target="_top" xlink:title=" ">
<polygon fill="white" stroke="black" points="1105,-134.5 1105,-164.5 1239,-164.5 1239,-134.5 1105,-134.5"/>
<text text-anchor="start" x="1113" y="-152.5" font-family="Helvetica" font-size="10.00">/hosthome/v2.1.0/Plotting</text>
<text text-anchor="middle" x="1172" y="-141.5" font-family="Helvetica" font-size="10.00">/GetPostfitParamPlots.cpp</text>
</a>
</g>
</g>
<!-- Node32&#45;&gt;Node33 -->
<g id="edge40" class="edge">
<title>Node32&#45;&gt;Node33</title>
<path fill="none" stroke="midnightblue" d="M1492.44,-200.78C1383.16,-183.67 1353.77,-182.82 1248,-165 1245.09,-164.51 1242.11,-164 1239.11,-163.47"/>
<polygon fill="midnightblue" stroke="midnightblue" points="1492.14,-204.27 1502.56,-202.37 1493.23,-197.36 1492.14,-204.27"/>
</g>
<!-- Node34 -->
<g id="node34" class="node">
<title>Node34</title>
<g id="a_node34"><a xlink:href="MatrixPlotter_8cpp.html" target="_top" xlink:title=" ">
<polygon fill="white" stroke="black" points="1257,-134.5 1257,-164.5 1385,-164.5 1385,-134.5 1257,-134.5"/>
<text text-anchor="start" x="1265" y="-152.5" font-family="Helvetica" font-size="10.00">/hosthome/v2.1.0/Plotting</text>
<text text-anchor="middle" x="1321" y="-141.5" font-family="Helvetica" font-size="10.00">/MatrixPlotter.cpp</text>
</a>
</g>
</g>
<!-- Node32&#45;&gt;Node34 -->
<g id="edge41" class="edge">
<title>Node32&#45;&gt;Node34</title>
<path fill="none" stroke="midnightblue" d="M1513.45,-198.98C1471.3,-188.37 1417.14,-174.72 1377.01,-164.61"/>
<polygon fill="midnightblue" stroke="midnightblue" points="1512.78,-202.43 1523.34,-201.48 1514.49,-195.64 1512.78,-202.43"/>
</g>
<!-- Node35 -->
<g id="node35" class="node">
<title>Node35</title>
<g id="a_node35"><a xlink:href="PlotLLH_8cpp.html" target="_top" xlink:title=" ">
<polygon fill="white" stroke="black" points="1403,-134.5 1403,-164.5 1531,-164.5 1531,-134.5 1403,-134.5"/>
<text text-anchor="start" x="1411" y="-152.5" font-family="Helvetica" font-size="10.00">/hosthome/v2.1.0/Plotting</text>
<text text-anchor="middle" x="1467" y="-141.5" font-family="Helvetica" font-size="10.00">/PlotLLH.cpp</text>
</a>
</g>
</g>
<!-- Node32&#45;&gt;Node35 -->
<g id="edge42" class="edge">
<title>Node32&#45;&gt;Node35</title>
<path fill="none" stroke="midnightblue" d="M1545.91,-196.3C1528.38,-186.12 1507.24,-173.85 1491.25,-164.58"/>
<polygon fill="midnightblue" stroke="midnightblue" points="1544.29,-199.4 1554.7,-201.4 1547.81,-193.35 1544.29,-199.4"/>
</g>
<!-- Node36 -->
<g id="node36" class="node">
<title>Node36</title>
<g id="a_node36"><a xlink:href="plottingManager_8cpp.html" target="_top" xlink:title=" ">
<polygon fill="white" stroke="black" points="1549,-134.5 1549,-164.5 1711,-164.5 1711,-134.5 1549,-134.5"/>
<text text-anchor="start" x="1557" y="-152.5" font-family="Helvetica" font-size="10.00">/hosthome/v2.1.0/Plotting</text>
<text text-anchor="middle" x="1630" y="-141.5" font-family="Helvetica" font-size="10.00">/plottingUtils/plottingManager.cpp</text>
</a>
</g>
</g>
<!-- Node32&#45;&gt;Node36 -->
<g id="edge43" class="edge">
<title>Node32&#45;&gt;Node36</title>
<path fill="none" stroke="midnightblue" d="M1596.3,-193.45C1603.79,-183.9 1612.34,-173 1618.96,-164.58"/>
<polygon fill="midnightblue" stroke="midnightblue" points="1593.49,-191.37 1590.07,-201.4 1598.99,-195.69 1593.49,-191.37"/>
</g>
<!-- Node32&#45;&gt;Node37 -->
<g id="edge44" class="edge">
<title>Node32&#45;&gt;Node37</title>
<path fill="none" stroke="midnightblue" d="M1634.89,-198.44C1669.42,-187.91 1713.19,-174.55 1745.76,-164.61"/>
<polygon fill="midnightblue" stroke="midnightblue" points="1633.5,-195.21 1624.96,-201.48 1635.54,-201.9 1633.5,-195.21"/>
</g>
<!-- Node38&#45;&gt;Node21 -->
<g id="edge49" class="edge">
<title>Node38&#45;&gt;Node21</title>
<path fill="none" stroke="midnightblue" d="M1010.7,-399.38C979.61,-389.69 940.1,-377.3 905,-366 832.78,-342.76 748.98,-314.92 699.89,-298.53"/>
<polygon fill="midnightblue" stroke="midnightblue" points="1009.9,-402.79 1020.49,-402.42 1011.98,-396.11 1009.9,-402.79"/>
</g>
<!-- Node38&#45;&gt;Node23 -->
<g id="edge48" class="edge">
<title>Node38&#45;&gt;Node23</title>
<path fill="none" stroke="midnightblue" d="M1038.24,-396.45C1024.39,-386.45 1007.98,-374.6 995.49,-365.58"/>
<polygon fill="midnightblue" stroke="midnightblue" points="1036.32,-399.38 1046.47,-402.4 1040.41,-393.7 1036.32,-399.38"/>
</g>
<!-- Node39 -->
<g id="node39" class="node">
<title>Node39</title>
<g id="a_node39"><a xlink:href="StatisticalUtils_8cpp.html" target="_top" xlink:title=" ">
<polygon fill="white" stroke="black" points="1056,-335.5 1056,-365.5 1180,-365.5 1180,-335.5 1056,-335.5"/>
<text text-anchor="start" x="1064" y="-353.5" font-family="Helvetica" font-size="10.00">/hosthome/v2.1.0/Fitters</text>
<text text-anchor="middle" x="1118" y="-342.5" font-family="Helvetica" font-size="10.00">/StatisticalUtils.cpp</text>
</a>
</g>
</g>
<!-- Node38&#45;&gt;Node39 -->
<g id="edge50" class="edge">
<title>Node38&#45;&gt;Node39</title>
<path fill="none" stroke="midnightblue" d="M1083.64,-394.45C1091.28,-384.9 1100,-374 1106.74,-365.58"/>
<polygon fill="midnightblue" stroke="midnightblue" points="1080.8,-392.4 1077.28,-402.4 1086.26,-396.77 1080.8,-392.4"/>
</g>
</g>
</svg>
