<?xml version="1.0" encoding="UTF-8" standalone="no"?>
<!DOCTYPE svg PUBLIC "-//W3C//DTD SVG 1.1//EN"
 "http://www.w3.org/Graphics/SVG/1.1/DTD/svg11.dtd">
<!-- Generated by graphviz version 2.44.0 (0)
 -->
<!-- Title: Graphical Class Hierarchy Pages: 1 -->
<svg width="256pt" height="104pt"
 viewBox="0.00 0.00 256.00 104.00" xmlns="http://www.w3.org/2000/svg" xmlns:xlink="http://www.w3.org/1999/xlink">
<g id="graph0" class="graph" transform="scale(1 1) rotate(0) translate(4 100)">
<title>Graphical Class Hierarchy</title>
<polygon fill="white" stroke="transparent" points="-4,4 -4,-100 252,-100 252,4 -4,4"/>
<!-- Node0 -->
<g id="node1" class="node">
<title>Node0</title>
<g id="a_node1"><a xlink:href="structTypeParameterBase.html" target="_top" xlink:title="Base class storing info for parameters types, helping unify codebase.">
<polygon fill="white" stroke="black" points="0,-38.5 0,-57.5 105,-57.5 105,-38.5 0,-38.5"/>
<text text-anchor="middle" x="52.5" y="-45.5" font-family="Helvetica" font-size="10.00">TypeParameterBase</text>
</a>
</g>
</g>
<!-- Node1 -->
<g id="node2" class="node">
<title>Node1</title>
<g id="a_node2"><a xlink:href="structFunctionalParameter.html" target="_top" xlink:title="HH &#45; Functional parameters Carrier for whether you want to apply a systematic to an event or not.">
<polygon fill="white" stroke="black" points="141,-76.5 141,-95.5 248,-95.5 248,-76.5 141,-76.5"/>
<text text-anchor="middle" x="194.5" y="-83.5" font-family="Helvetica" font-size="10.00">FunctionalParameter</text>
</a>
</g>
</g>
<!-- Node0&#45;&gt;Node1 -->
<g id="edge1" class="edge">
<title>Node0&#45;&gt;Node1</title>
<path fill="none" stroke="midnightblue" d="M98.62,-60.25C117.91,-65.48 140.11,-71.51 158.18,-76.41"/>
<polygon fill="midnightblue" stroke="midnightblue" points="99.4,-56.83 88.83,-57.59 97.56,-63.59 99.4,-56.83"/>
</g>
<!-- Node2 -->
<g id="node3" class="node">
<title>Node2</title>
<g id="a_node3"><a xlink:href="structNormParameter.html" target="_top" xlink:title="ETA &#45; Normalisations for cross&#45;section parameters Carrier for whether you want to apply a systematic ...">
<polygon fill="white" stroke="black" points="151.5,-38.5 151.5,-57.5 237.5,-57.5 237.5,-38.5 151.5,-38.5"/>
<text text-anchor="middle" x="194.5" y="-45.5" font-family="Helvetica" font-size="10.00">NormParameter</text>
</a>
</g>
</g>
<!-- Node0&#45;&gt;Node2 -->
<g id="edge2" class="edge">
<title>Node0&#45;&gt;Node2</title>
<path fill="none" stroke="midnightblue" d="M115.29,-48C127.4,-48 139.84,-48 151.13,-48"/>
<polygon fill="midnightblue" stroke="midnightblue" points="115.23,-44.5 105.23,-48 115.23,-51.5 115.23,-44.5"/>
</g>
<!-- Node3 -->
<g id="node4" class="node">
<title>Node3</title>
<g id="a_node4"><a xlink:href="structSplineParameter.html" target="_top" xlink:title="KS: Struct holding info about Spline Systematics.">
<polygon fill="white" stroke="black" points="150,-0.5 150,-19.5 239,-19.5 239,-0.5 150,-0.5"/>
<text text-anchor="middle" x="194.5" y="-7.5" font-family="Helvetica" font-size="10.00">SplineParameter</text>
</a>
</g>
</g>
<!-- Node0&#45;&gt;Node3 -->
<g id="edge3" class="edge">
<title>Node0&#45;&gt;Node3</title>
<path fill="none" stroke="midnightblue" d="M98.62,-35.75C117.91,-30.52 140.11,-24.49 158.18,-19.59"/>
<polygon fill="midnightblue" stroke="midnightblue" points="97.56,-32.41 88.83,-38.41 99.4,-39.17 97.56,-32.41"/>
</g>
</g>
</svg>
