<?xml version="1.0" encoding="UTF-8" standalone="no"?>
<!DOCTYPE svg PUBLIC "-//W3C//DTD SVG 1.1//EN"
 "http://www.w3.org/Graphics/SVG/1.1/DTD/svg11.dtd">
<!-- Generated by graphviz version 2.44.0 (0)
 -->
<!-- Title: /hosthome/MaCh3_2.1.0/Fitters/LikelihoodFit.h Pages: 1 -->
<!--zoomable 240 -->
<svg id="main" version="1.1" xmlns="http://www.w3.org/2000/svg" xmlns:xlink="http://www.w3.org/1999/xlink" xml:space="preserve" onload="init(evt)">
<style type="text/css"><![CDATA[
.edge:hover path { stroke: red; }
.edge:hover polygon { stroke: red; fill: red; }
]]></style>
<script type="text/javascript"><![CDATA[
var edges = document.getElementsByTagName('g');
if (edges && edges.length) {
  for (var i=0;i<edges.length;i++) {
    if (edges[i].id.substr(0,4)=='edge') {
      edges[i].setAttribute('class','edge');
    }
  }
}
]]></script>
        <defs>
                <circle id="rim" cx="0" cy="0" r="7"/>
                <circle id="rim2" cx="0" cy="0" r="3.5"/>
                <g id="zoomPlus">
                        <use xlink:href="#rim" fill="#404040">
                                <set attributeName="fill" to="#808080" begin="zoomplus.mouseover" end="zoomplus.mouseout"/>
                        </use>
                        <path d="M-4,0h8M0,-4v8" fill="none" stroke="white" stroke-width="1.5" pointer-events="none"/>
                </g>
                <g id="zoomMin">
                        <use xlink:href="#rim" fill="#404040">
                                <set attributeName="fill" to="#808080" begin="zoomminus.mouseover" end="zoomminus.mouseout"/>
                        </use>
                        <path d="M-4,0h8" fill="none" stroke="white" stroke-width="1.5" pointer-events="none"/>
                </g>
                <g id="dirArrow">
                        <path fill="none" stroke="white" stroke-width="1.5" d="M0,-3.0v7 M-2.5,-0.5L0,-3.0L2.5,-0.5"/>
                </g>
               <g id="resetDef">
                       <use xlink:href="#rim2" fill="#404040">
                               <set attributeName="fill" to="#808080" begin="reset.mouseover" end="reset.mouseout"/>
                       </use>
               </g>
        </defs>

<script type="text/javascript">
var viewWidth = 563;
var viewHeight = 240;
var sectionId = 'dynsection-1';
</script>
<script xlink:href="svgpan.js"/>
<svg id="graph" class="graph">
<g id="viewport">
<title>/hosthome/MaCh3_2.1.0/Fitters/LikelihoodFit.h</title>
<polygon fill="white" stroke="transparent" points="-4,4 -4,-236 559,-236 559,4 -4,4"/>
<!-- Node1 -->
<g id="node1" class="node">
<title>Node1</title>
<g id="a_node1"><a xlink:title=" ">
<polygon fill="#bfbfbf" stroke="black" points="213,-201.5 213,-231.5 337,-231.5 337,-201.5 213,-201.5"/>
<text text-anchor="start" x="221" y="-219.5" font-family="Helvetica" font-size="10.00">/hosthome/MaCh3_2.1.0</text>
<text text-anchor="middle" x="275" y="-208.5" font-family="Helvetica" font-size="10.00">/Fitters/LikelihoodFit.h</text>
</a>
</g>
</g>
<!-- Node2 -->
<g id="node2" class="node">
<title>Node2</title>
<g id="a_node2"><a xlink:href="LikelihoodFit_8cpp.html" target="_top" xlink:title=" ">
<polygon fill="white" stroke="black" points="0,-134.5 0,-164.5 124,-164.5 124,-134.5 0,-134.5"/>
<text text-anchor="start" x="8" y="-152.5" font-family="Helvetica" font-size="10.00">/hosthome/MaCh3_2.1.0</text>
<text text-anchor="middle" x="62" y="-141.5" font-family="Helvetica" font-size="10.00">/Fitters/LikelihoodFit.cpp</text>
</a>
</g>
</g>
<!-- Node1&#45;&gt;Node2 -->
<g id="edge1" class="edge">
<title>Node1&#45;&gt;Node2</title>
<path fill="none" stroke="midnightblue" d="M219.11,-198.44C184.58,-187.91 140.81,-174.55 108.24,-164.61"/>
<polygon fill="midnightblue" stroke="midnightblue" points="218.46,-201.9 229.04,-201.48 220.5,-195.21 218.46,-201.9"/>
</g>
<!-- Node3 -->
<g id="node3" class="node">
<title>Node3</title>
<g id="a_node3"><a xlink:href="MaCh3Factory_8h.html" target="_top" xlink:title="Factory methods for MaCh3 software which streamline initialisation of different objects.">
<polygon fill="white" stroke="black" points="426,-67.5 426,-97.5 550,-97.5 550,-67.5 426,-67.5"/>
<text text-anchor="start" x="434" y="-85.5" font-family="Helvetica" font-size="10.00">/hosthome/MaCh3_2.1.0</text>
<text text-anchor="middle" x="488" y="-74.5" font-family="Helvetica" font-size="10.00">/Fitters/MaCh3Factory.h</text>
</a>
</g>
</g>
<!-- Node1&#45;&gt;Node3 -->
<g id="edge2" class="edge">
<title>Node1&#45;&gt;Node3</title>
<path fill="none" stroke="midnightblue" d="M345.33,-198.34C369.34,-190.51 395.52,-179.63 417,-165 443.99,-146.62 467.09,-115.57 479.12,-97.57"/>
<polygon fill="midnightblue" stroke="midnightblue" points="344.04,-195.08 335.55,-201.41 346.14,-201.76 344.04,-195.08"/>
</g>
<!-- Node5 -->
<g id="node5" class="node">
<title>Node5</title>
<g id="a_node5"><a xlink:href="MinuitFit_8h.html" target="_top" xlink:title=" ">
<polygon fill="white" stroke="black" points="142,-134.5 142,-164.5 266,-164.5 266,-134.5 142,-134.5"/>
<text text-anchor="start" x="150" y="-152.5" font-family="Helvetica" font-size="10.00">/hosthome/MaCh3_2.1.0</text>
<text text-anchor="middle" x="204" y="-141.5" font-family="Helvetica" font-size="10.00">/Fitters/MinuitFit.h</text>
</a>
</g>
</g>
<!-- Node1&#45;&gt;Node5 -->
<g id="edge4" class="edge">
<title>Node1&#45;&gt;Node5</title>
<path fill="none" stroke="midnightblue" d="M252.17,-194.6C241.45,-184.78 228.95,-173.34 219.38,-164.58"/>
<polygon fill="midnightblue" stroke="midnightblue" points="249.85,-197.22 259.59,-201.4 254.58,-192.06 249.85,-197.22"/>
</g>
<!-- Node8 -->
<g id="node8" class="node">
<title>Node8</title>
<g id="a_node8"><a xlink:href="PSO_8h.html" target="_top" xlink:title=" ">
<polygon fill="white" stroke="black" points="284,-134.5 284,-164.5 408,-164.5 408,-134.5 284,-134.5"/>
<text text-anchor="start" x="292" y="-152.5" font-family="Helvetica" font-size="10.00">/hosthome/MaCh3_2.1.0</text>
<text text-anchor="middle" x="346" y="-141.5" font-family="Helvetica" font-size="10.00">/Fitters/PSO.h</text>
</a>
</g>
</g>
<!-- Node1&#45;&gt;Node8 -->
<g id="edge7" class="edge">
<title>Node1&#45;&gt;Node8</title>
<path fill="none" stroke="midnightblue" d="M297.83,-194.6C308.55,-184.78 321.05,-173.34 330.62,-164.58"/>
<polygon fill="midnightblue" stroke="midnightblue" points="295.42,-192.06 290.41,-201.4 300.15,-197.22 295.42,-192.06"/>
</g>
<!-- Node4 -->
<g id="node4" class="node">
<title>Node4</title>
<g id="a_node4"><a xlink:href="MaCh3Factory_8cpp.html" target="_top" xlink:title=" ">
<polygon fill="white" stroke="black" points="421,-0.5 421,-30.5 555,-30.5 555,-0.5 421,-0.5"/>
<text text-anchor="start" x="429" y="-18.5" font-family="Helvetica" font-size="10.00">/hosthome/MaCh3_2.1.0</text>
<text text-anchor="middle" x="488" y="-7.5" font-family="Helvetica" font-size="10.00">/Fitters/MaCh3Factory.cpp</text>
</a>
</g>
</g>
<!-- Node3&#45;&gt;Node4 -->
<g id="edge3" class="edge">
<title>Node3&#45;&gt;Node4</title>
<path fill="none" stroke="midnightblue" d="M488,-57.11C488,-48.15 488,-38.32 488,-30.58"/>
<polygon fill="midnightblue" stroke="midnightblue" points="484.5,-57.4 488,-67.4 491.5,-57.4 484.5,-57.4"/>
</g>
<!-- Node6 -->
<g id="node6" class="node">
<title>Node6</title>
<g id="a_node6"><a xlink:href="MinuitFit_8cpp.html" target="_top" xlink:title=" ">
<polygon fill="white" stroke="black" points="0,-67.5 0,-97.5 124,-97.5 124,-67.5 0,-67.5"/>
<text text-anchor="start" x="8" y="-85.5" font-family="Helvetica" font-size="10.00">/hosthome/MaCh3_2.1.0</text>
<text text-anchor="middle" x="62" y="-74.5" font-family="Helvetica" font-size="10.00">/Fitters/MinuitFit.cpp</text>
</a>
</g>
</g>
<!-- Node5&#45;&gt;Node6 -->
<g id="edge5" class="edge">
<title>Node5&#45;&gt;Node6</title>
<path fill="none" stroke="midnightblue" d="M163.87,-130.13C141.31,-119.8 113.58,-107.11 92.75,-97.58"/>
<polygon fill="midnightblue" stroke="midnightblue" points="162.64,-133.42 173.19,-134.4 165.55,-127.05 162.64,-133.42"/>
</g>
<!-- Node7 -->
<g id="node7" class="node">
<title>Node7</title>
<g id="a_node7"><a xlink:href="fitters_8cpp.html" target="_top" xlink:title=" ">
<polygon fill="white" stroke="black" points="142,-67.5 142,-97.5 266,-97.5 266,-67.5 142,-67.5"/>
<text text-anchor="start" x="150" y="-85.5" font-family="Helvetica" font-size="10.00">/hosthome/MaCh3_2.1.0</text>
<text text-anchor="middle" x="204" y="-74.5" font-family="Helvetica" font-size="10.00">/python/fitters.cpp</text>
</a>
</g>
</g>
<!-- Node5&#45;&gt;Node7 -->
<g id="edge6" class="edge">
<title>Node5&#45;&gt;Node7</title>
<path fill="none" stroke="midnightblue" d="M204,-124.11C204,-115.15 204,-105.32 204,-97.58"/>
<polygon fill="midnightblue" stroke="midnightblue" points="200.5,-124.4 204,-134.4 207.5,-124.4 200.5,-124.4"/>
</g>
<!-- Node8&#45;&gt;Node3 -->
<g id="edge8" class="edge">
<title>Node8&#45;&gt;Node3</title>
<path fill="none" stroke="midnightblue" d="M386.13,-130.13C408.69,-119.8 436.42,-107.11 457.25,-97.58"/>
<polygon fill="midnightblue" stroke="midnightblue" points="384.45,-127.05 376.81,-134.4 387.36,-133.42 384.45,-127.05"/>
</g>
<!-- Node8&#45;&gt;Node7 -->
<g id="edge10" class="edge">
<title>Node8&#45;&gt;Node7</title>
<path fill="none" stroke="midnightblue" d="M305.87,-130.13C283.31,-119.8 255.58,-107.11 234.75,-97.58"/>
<polygon fill="midnightblue" stroke="midnightblue" points="304.64,-133.42 315.19,-134.4 307.55,-127.05 304.64,-133.42"/>
</g>
<!-- Node9 -->
<g id="node9" class="node">
<title>Node9</title>
<g id="a_node9"><a xlink:href="PSO_8cpp.html" target="_top" xlink:title=" ">
<polygon fill="white" stroke="black" points="284,-67.5 284,-97.5 408,-97.5 408,-67.5 284,-67.5"/>
<text text-anchor="start" x="292" y="-85.5" font-family="Helvetica" font-size="10.00">/hosthome/MaCh3_2.1.0</text>
<text text-anchor="middle" x="346" y="-74.5" font-family="Helvetica" font-size="10.00">/Fitters/PSO.cpp</text>
</a>
</g>
</g>
<!-- Node8&#45;&gt;Node9 -->
<g id="edge9" class="edge">
<title>Node8&#45;&gt;Node9</title>
<path fill="none" stroke="midnightblue" d="M346,-124.11C346,-115.15 346,-105.32 346,-97.58"/>
<polygon fill="midnightblue" stroke="midnightblue" points="342.5,-124.4 346,-134.4 349.5,-124.4 342.5,-124.4"/>
</g>
</g>
</svg>
        <g id="navigator" transform="translate(0 0)" fill="#404254">
                <rect fill="#f2f5e9" fill-opacity="0.5" stroke="#606060" stroke-width=".5" x="0" y="0" width="60" height="60"/>
                <use id="zoomplus" xlink:href="#zoomPlus" x="17" y="9" onmousedown="handleZoom(evt,'in')"/>
                <use id="zoomminus" xlink:href="#zoomMin" x="42" y="9" onmousedown="handleZoom(evt,'out')"/>
                <use id="reset" xlink:href="#resetDef" x="30" y="36" onmousedown="handleReset()"/>
                <g id="arrowUp" xlink:href="#dirArrow" transform="translate(30 24)" onmousedown="handlePan(0,-1)">
                  <use xlink:href="#rim" fill="#404040">
                        <set attributeName="fill" to="#808080" begin="arrowUp.mouseover" end="arrowUp.mouseout"/>
                  </use>
                  <path fill="none" stroke="white" stroke-width="1.5" d="M0,-3.0v7 M-2.5,-0.5L0,-3.0L2.5,-0.5"/>
                </g>
                <g id="arrowRight" xlink:href="#dirArrow" transform="rotate(90) translate(36 -43)" onmousedown="handlePan(1,0)">
                  <use xlink:href="#rim" fill="#404040">
                        <set attributeName="fill" to="#808080" begin="arrowRight.mouseover" end="arrowRight.mouseout"/>
                  </use>
                  <path fill="none" stroke="white" stroke-width="1.5" d="M0,-3.0v7 M-2.5,-0.5L0,-3.0L2.5,-0.5"/>
                </g>
                <g id="arrowDown" xlink:href="#dirArrow" transform="rotate(180) translate(-30 -48)" onmousedown="handlePan(0,1)">
                  <use xlink:href="#rim" fill="#404040">
                        <set attributeName="fill" to="#808080" begin="arrowDown.mouseover" end="arrowDown.mouseout"/>
                  </use>
                  <path fill="none" stroke="white" stroke-width="1.5" d="M0,-3.0v7 M-2.5,-0.5L0,-3.0L2.5,-0.5"/>
                </g>
                <g id="arrowLeft" xlink:href="#dirArrow" transform="rotate(270) translate(-36 17)" onmousedown="handlePan(-1,0)">
                  <use xlink:href="#rim" fill="#404040">
                        <set attributeName="fill" to="#808080" begin="arrowLeft.mouseover" end="arrowLeft.mouseout"/>
                  </use>
                  <path fill="none" stroke="white" stroke-width="1.5" d="M0,-3.0v7 M-2.5,-0.5L0,-3.0L2.5,-0.5"/>
                </g>
        </g>
        <svg viewBox="0 0 15 15" width="100%" height="30px" preserveAspectRatio="xMaxYMin meet">
         <g id="arrow_out" transform="scale(0.3 0.3)">
          <a xlink:href="LikelihoodFit_8h__dep__incl_org.svg" target="_base">
           <rect id="button" ry="5" rx="5" y="6" x="6" height="38" width="38"
                fill="#f2f5e9" fill-opacity="0.5" stroke="#606060" stroke-width="1.0"/>
           <path id="arrow"
             d="M 11.500037,31.436501 C 11.940474,20.09759 22.043105,11.32322 32.158766,21.979434 L 37.068811,17.246167 C 37.068811,17.246167 37.088388,32 37.088388,32 L 22.160133,31.978069 C 22.160133,31.978069 26.997745,27.140456 26.997745,27.140456 C 18.528582,18.264221 13.291696,25.230495 11.500037,31.436501 z"
             style="fill:#404040;"/>
          </a>
         </g>
        </svg>
</svg>
