<?xml version="1.0" encoding="UTF-8" standalone="no"?>
<!DOCTYPE svg PUBLIC "-//W3C//DTD SVG 1.1//EN"
 "http://www.w3.org/Graphics/SVG/1.1/DTD/svg11.dtd">
<!-- Generated by graphviz version 2.44.0 (0)
 -->
<!-- Title: /hosthome/MaCh3_2.1.0/Samples/SampleHandlerBase.h Pages: 1 -->
<svg width="1193pt" height="374pt"
 viewBox="0.00 0.00 1193.00 374.00" xmlns="http://www.w3.org/2000/svg" xmlns:xlink="http://www.w3.org/1999/xlink">
<g id="graph0" class="graph" transform="scale(1 1) rotate(0) translate(4 370)">
<title>/hosthome/MaCh3_2.1.0/Samples/SampleHandlerBase.h</title>
<polygon fill="white" stroke="transparent" points="-4,4 -4,-370 1189,-370 1189,4 -4,4"/>
<!-- Node1 -->
<g id="node1" class="node">
<title>Node1</title>
<g id="a_node1"><a xlink:title=" ">
<polygon fill="#bfbfbf" stroke="black" points="315,-335.5 315,-365.5 473,-365.5 473,-335.5 315,-335.5"/>
<text text-anchor="start" x="323" y="-353.5" font-family="Helvetica" font-size="10.00">/hosthome/MaCh3_2.1.0</text>
<text text-anchor="middle" x="394" y="-342.5" font-family="Helvetica" font-size="10.00">/Samples/SampleHandlerBase.h</text>
</a>
</g>
</g>
<!-- Node2 -->
<g id="node2" class="node">
<title>Node2</title>
<g id="a_node2"><a xlink:href="SampleHandlerBase_8cpp.html" target="_top" xlink:title=" ">
<polygon fill="white" stroke="black" points="16.5,-268.5 16.5,-298.5 185.5,-298.5 185.5,-268.5 16.5,-268.5"/>
<text text-anchor="start" x="24.5" y="-286.5" font-family="Helvetica" font-size="10.00">/hosthome/MaCh3_2.1.0</text>
<text text-anchor="middle" x="101" y="-275.5" font-family="Helvetica" font-size="10.00">/Samples/SampleHandlerBase.cpp</text>
</a>
</g>
</g>
<!-- Node1&#45;&gt;Node2 -->
<g id="edge1" class="edge">
<title>Node1&#45;&gt;Node2</title>
<path fill="none" stroke="midnightblue" d="M320.74,-333.25C272.63,-322.58 210.33,-308.75 164.35,-298.55"/>
<polygon fill="midnightblue" stroke="midnightblue" points="320.26,-336.73 330.78,-335.48 321.78,-329.89 320.26,-336.73"/>
</g>
<!-- Node3 -->
<g id="node3" class="node">
<title>Node3</title>
<g id="a_node3"><a xlink:href="SampleHandlerFD_8h.html" target="_top" xlink:title=" ">
<polygon fill="white" stroke="black" points="203.5,-268.5 203.5,-298.5 352.5,-298.5 352.5,-268.5 203.5,-268.5"/>
<text text-anchor="start" x="211.5" y="-286.5" font-family="Helvetica" font-size="10.00">/hosthome/MaCh3_2.1.0</text>
<text text-anchor="middle" x="278" y="-275.5" font-family="Helvetica" font-size="10.00">/Samples/SampleHandlerFD.h</text>
</a>
</g>
</g>
<!-- Node1&#45;&gt;Node3 -->
<g id="edge2" class="edge">
<title>Node1&#45;&gt;Node3</title>
<path fill="none" stroke="midnightblue" d="M359.73,-330.3C341.58,-320.12 319.68,-307.85 303.12,-298.58"/>
<polygon fill="midnightblue" stroke="midnightblue" points="358.4,-333.56 368.83,-335.4 361.82,-327.45 358.4,-333.56"/>
</g>
<!-- Node6 -->
<g id="node6" class="node">
<title>Node6</title>
<g id="a_node6"><a xlink:href="FitterBase_8h.html" target="_top" xlink:title=" ">
<polygon fill="white" stroke="black" points="500,-268.5 500,-298.5 624,-298.5 624,-268.5 500,-268.5"/>
<text text-anchor="start" x="508" y="-286.5" font-family="Helvetica" font-size="10.00">/hosthome/MaCh3_2.1.0</text>
<text text-anchor="middle" x="562" y="-275.5" font-family="Helvetica" font-size="10.00">/Fitters/FitterBase.h</text>
</a>
</g>
</g>
<!-- Node1&#45;&gt;Node6 -->
<g id="edge5" class="edge">
<title>Node1&#45;&gt;Node6</title>
<path fill="none" stroke="midnightblue" d="M440.05,-331.68C467,-321.26 500.54,-308.28 525.62,-298.58"/>
<polygon fill="midnightblue" stroke="midnightblue" points="438.52,-328.52 430.45,-335.4 441.04,-335.05 438.52,-328.52"/>
</g>
<!-- Node19 -->
<g id="node19" class="node">
<title>Node19</title>
<g id="a_node19"><a xlink:href="SampleSummary_8h.html" target="_top" xlink:title=" ">
<polygon fill="white" stroke="black" points="870,-268.5 870,-298.5 1004,-298.5 1004,-268.5 870,-268.5"/>
<text text-anchor="start" x="878" y="-286.5" font-family="Helvetica" font-size="10.00">/hosthome/MaCh3_2.1.0</text>
<text text-anchor="middle" x="937" y="-275.5" font-family="Helvetica" font-size="10.00">/Fitters/SampleSummary.h</text>
</a>
</g>
</g>
<!-- Node1&#45;&gt;Node19 -->
<g id="edge24" class="edge">
<title>Node1&#45;&gt;Node19</title>
<path fill="none" stroke="midnightblue" d="M483.19,-338.82C591.6,-325.85 772.11,-304.24 869.6,-292.57"/>
<polygon fill="midnightblue" stroke="midnightblue" points="482.76,-335.35 473.25,-340.01 483.59,-342.3 482.76,-335.35"/>
</g>
<!-- Node4 -->
<g id="node4" class="node">
<title>Node4</title>
<g id="a_node4"><a xlink:href="SampleHandlerFD_8cpp.html" target="_top" xlink:title=" ">
<polygon fill="white" stroke="black" points="0,-201.5 0,-231.5 160,-231.5 160,-201.5 0,-201.5"/>
<text text-anchor="start" x="8" y="-219.5" font-family="Helvetica" font-size="10.00">/hosthome/MaCh3_2.1.0</text>
<text text-anchor="middle" x="80" y="-208.5" font-family="Helvetica" font-size="10.00">/Samples/SampleHandlerFD.cpp</text>
</a>
</g>
</g>
<!-- Node3&#45;&gt;Node4 -->
<g id="edge3" class="edge">
<title>Node3&#45;&gt;Node4</title>
<path fill="none" stroke="midnightblue" d="M225.39,-265.23C193.36,-254.71 152.96,-241.45 122.88,-231.58"/>
<polygon fill="midnightblue" stroke="midnightblue" points="224.44,-268.6 235.04,-268.4 226.63,-261.95 224.44,-268.6"/>
</g>
<!-- Node5 -->
<g id="node5" class="node">
<title>Node5</title>
<g id="a_node5"><a xlink:href="samples_8cpp.html" target="_top" xlink:title=" ">
<polygon fill="white" stroke="black" points="178,-201.5 178,-231.5 302,-231.5 302,-201.5 178,-201.5"/>
<text text-anchor="start" x="186" y="-219.5" font-family="Helvetica" font-size="10.00">/hosthome/MaCh3_2.1.0</text>
<text text-anchor="middle" x="240" y="-208.5" font-family="Helvetica" font-size="10.00">/python/samples.cpp</text>
</a>
</g>
</g>
<!-- Node3&#45;&gt;Node5 -->
<g id="edge4" class="edge">
<title>Node3&#45;&gt;Node5</title>
<path fill="none" stroke="midnightblue" d="M264.6,-259.58C259.14,-250.24 253.01,-239.75 248.23,-231.58"/>
<polygon fill="midnightblue" stroke="midnightblue" points="261.69,-261.53 269.75,-268.4 267.73,-258 261.69,-261.53"/>
</g>
<!-- Node7 -->
<g id="node7" class="node">
<title>Node7</title>
<g id="a_node7"><a xlink:href="FitterBase_8cpp.html" target="_top" xlink:title=" ">
<polygon fill="white" stroke="black" points="320,-201.5 320,-231.5 444,-231.5 444,-201.5 320,-201.5"/>
<text text-anchor="start" x="328" y="-219.5" font-family="Helvetica" font-size="10.00">/hosthome/MaCh3_2.1.0</text>
<text text-anchor="middle" x="382" y="-208.5" font-family="Helvetica" font-size="10.00">/Fitters/FitterBase.cpp</text>
</a>
</g>
</g>
<!-- Node6&#45;&gt;Node7 -->
<g id="edge6" class="edge">
<title>Node6&#45;&gt;Node7</title>
<path fill="none" stroke="midnightblue" d="M513.41,-264.96C484.42,-254.48 448.09,-241.37 420.98,-231.58"/>
<polygon fill="midnightblue" stroke="midnightblue" points="512.35,-268.29 522.94,-268.4 514.73,-261.71 512.35,-268.29"/>
</g>
<!-- Node8 -->
<g id="node8" class="node">
<title>Node8</title>
<g id="a_node8"><a xlink:href="LikelihoodFit_8h.html" target="_top" xlink:title=" ">
<polygon fill="white" stroke="black" points="545,-201.5 545,-231.5 669,-231.5 669,-201.5 545,-201.5"/>
<text text-anchor="start" x="553" y="-219.5" font-family="Helvetica" font-size="10.00">/hosthome/MaCh3_2.1.0</text>
<text text-anchor="middle" x="607" y="-208.5" font-family="Helvetica" font-size="10.00">/Fitters/LikelihoodFit.h</text>
</a>
</g>
</g>
<!-- Node6&#45;&gt;Node8 -->
<g id="edge7" class="edge">
<title>Node6&#45;&gt;Node8</title>
<path fill="none" stroke="midnightblue" d="M577.47,-260.16C584.03,-250.68 591.48,-239.92 597.25,-231.58"/>
<polygon fill="midnightblue" stroke="midnightblue" points="574.58,-258.18 571.76,-268.4 580.33,-262.17 574.58,-258.18"/>
</g>
<!-- Node10 -->
<g id="node10" class="node">
<title>Node10</title>
<g id="a_node10"><a xlink:href="MaCh3Factory_8h.html" target="_top" xlink:title="Factory methods for MaCh3 software which streamline initialisation of different objects.">
<polygon fill="white" stroke="black" points="493,-67.5 493,-97.5 617,-97.5 617,-67.5 493,-67.5"/>
<text text-anchor="start" x="501" y="-85.5" font-family="Helvetica" font-size="10.00">/hosthome/MaCh3_2.1.0</text>
<text text-anchor="middle" x="555" y="-74.5" font-family="Helvetica" font-size="10.00">/Fitters/MaCh3Factory.h</text>
</a>
</g>
</g>
<!-- Node6&#45;&gt;Node10 -->
<g id="edge18" class="edge">
<title>Node6&#45;&gt;Node10</title>
<path fill="none" stroke="midnightblue" d="M531.41,-262.32C503.2,-241.7 463.16,-206.82 446,-165 440.77,-152.25 438.58,-145.61 446,-134 457.12,-116.6 475.93,-105.11 494.84,-97.55"/>
<polygon fill="midnightblue" stroke="midnightblue" points="529.57,-265.31 539.75,-268.26 533.63,-259.61 529.57,-265.31"/>
</g>
<!-- Node14 -->
<g id="node14" class="node">
<title>Node14</title>
<g id="a_node14"><a xlink:href="fitters_8cpp.html" target="_top" xlink:title=" ">
<polygon fill="white" stroke="black" points="919,-67.5 919,-97.5 1043,-97.5 1043,-67.5 919,-67.5"/>
<text text-anchor="start" x="927" y="-85.5" font-family="Helvetica" font-size="10.00">/hosthome/MaCh3_2.1.0</text>
<text text-anchor="middle" x="981" y="-74.5" font-family="Helvetica" font-size="10.00">/python/fitters.cpp</text>
</a>
</g>
</g>
<!-- Node6&#45;&gt;Node14 -->
<g id="edge23" class="edge">
<title>Node6&#45;&gt;Node14</title>
<path fill="none" stroke="midnightblue" d="M634.3,-270.1C708.54,-254.75 824.92,-223.2 910,-165 936.95,-146.56 960.06,-115.54 972.11,-97.55"/>
<polygon fill="midnightblue" stroke="midnightblue" points="633.22,-266.75 624.11,-272.16 634.61,-273.61 633.22,-266.75"/>
</g>
<!-- Node17 -->
<g id="node17" class="node">
<title>Node17</title>
<g id="a_node17"><a xlink:href="mcmc_8h.html" target="_top" xlink:title=" ">
<polygon fill="white" stroke="black" points="777,-134.5 777,-164.5 901,-164.5 901,-134.5 777,-134.5"/>
<text text-anchor="start" x="785" y="-152.5" font-family="Helvetica" font-size="10.00">/hosthome/MaCh3_2.1.0</text>
<text text-anchor="middle" x="839" y="-141.5" font-family="Helvetica" font-size="10.00">/Fitters/mcmc.h</text>
</a>
</g>
</g>
<!-- Node6&#45;&gt;Node17 -->
<g id="edge19" class="edge">
<title>Node6&#45;&gt;Node17</title>
<path fill="none" stroke="midnightblue" d="M605.12,-264.43C627.07,-255.06 654.11,-243.24 678,-232 725.91,-209.47 780.73,-181.17 812.46,-164.53"/>
<polygon fill="midnightblue" stroke="midnightblue" points="603.57,-261.29 595.73,-268.43 606.31,-267.73 603.57,-261.29"/>
</g>
<!-- Node9 -->
<g id="node9" class="node">
<title>Node9</title>
<g id="a_node9"><a xlink:href="LikelihoodFit_8cpp.html" target="_top" xlink:title=" ">
<polygon fill="white" stroke="black" points="455,-134.5 455,-164.5 579,-164.5 579,-134.5 455,-134.5"/>
<text text-anchor="start" x="463" y="-152.5" font-family="Helvetica" font-size="10.00">/hosthome/MaCh3_2.1.0</text>
<text text-anchor="middle" x="517" y="-141.5" font-family="Helvetica" font-size="10.00">/Fitters/LikelihoodFit.cpp</text>
</a>
</g>
</g>
<!-- Node8&#45;&gt;Node9 -->
<g id="edge8" class="edge">
<title>Node8&#45;&gt;Node9</title>
<path fill="none" stroke="midnightblue" d="M579.24,-195.45C565.39,-185.45 548.98,-173.6 536.49,-164.58"/>
<polygon fill="midnightblue" stroke="midnightblue" points="577.32,-198.38 587.47,-201.4 581.41,-192.7 577.32,-198.38"/>
</g>
<!-- Node8&#45;&gt;Node10 -->
<g id="edge9" class="edge">
<title>Node8&#45;&gt;Node10</title>
<path fill="none" stroke="midnightblue" d="M603.67,-191.49C600.83,-174.88 595.92,-152.52 588,-134 582.4,-120.9 573.44,-107.47 566.26,-97.75"/>
<polygon fill="midnightblue" stroke="midnightblue" points="600.23,-192.15 605.25,-201.48 607.15,-191.06 600.23,-192.15"/>
</g>
<!-- Node12 -->
<g id="node12" class="node">
<title>Node12</title>
<g id="a_node12"><a xlink:href="MinuitFit_8h.html" target="_top" xlink:title=" ">
<polygon fill="white" stroke="black" points="957,-134.5 957,-164.5 1081,-164.5 1081,-134.5 957,-134.5"/>
<text text-anchor="start" x="965" y="-152.5" font-family="Helvetica" font-size="10.00">/hosthome/MaCh3_2.1.0</text>
<text text-anchor="middle" x="1019" y="-141.5" font-family="Helvetica" font-size="10.00">/Fitters/MinuitFit.h</text>
</a>
</g>
</g>
<!-- Node8&#45;&gt;Node12 -->
<g id="edge11" class="edge">
<title>Node8&#45;&gt;Node12</title>
<path fill="none" stroke="midnightblue" d="M679.43,-204.07C758.05,-191.67 882.3,-172.07 956.71,-160.33"/>
<polygon fill="midnightblue" stroke="midnightblue" points="678.46,-200.68 669.13,-205.7 679.55,-207.6 678.46,-200.68"/>
</g>
<!-- Node15 -->
<g id="node15" class="node">
<title>Node15</title>
<g id="a_node15"><a xlink:href="PSO_8h.html" target="_top" xlink:title=" ">
<polygon fill="white" stroke="black" points="635,-134.5 635,-164.5 759,-164.5 759,-134.5 635,-134.5"/>
<text text-anchor="start" x="643" y="-152.5" font-family="Helvetica" font-size="10.00">/hosthome/MaCh3_2.1.0</text>
<text text-anchor="middle" x="697" y="-141.5" font-family="Helvetica" font-size="10.00">/Fitters/PSO.h</text>
</a>
</g>
</g>
<!-- Node8&#45;&gt;Node15 -->
<g id="edge14" class="edge">
<title>Node8&#45;&gt;Node15</title>
<path fill="none" stroke="midnightblue" d="M634.76,-195.45C648.61,-185.45 665.02,-173.6 677.51,-164.58"/>
<polygon fill="midnightblue" stroke="midnightblue" points="632.59,-192.7 626.53,-201.4 636.68,-198.38 632.59,-192.7"/>
</g>
<!-- Node11 -->
<g id="node11" class="node">
<title>Node11</title>
<g id="a_node11"><a xlink:href="MaCh3Factory_8cpp.html" target="_top" xlink:title=" ">
<polygon fill="white" stroke="black" points="488,-0.5 488,-30.5 622,-30.5 622,-0.5 488,-0.5"/>
<text text-anchor="start" x="496" y="-18.5" font-family="Helvetica" font-size="10.00">/hosthome/MaCh3_2.1.0</text>
<text text-anchor="middle" x="555" y="-7.5" font-family="Helvetica" font-size="10.00">/Fitters/MaCh3Factory.cpp</text>
</a>
</g>
</g>
<!-- Node10&#45;&gt;Node11 -->
<g id="edge10" class="edge">
<title>Node10&#45;&gt;Node11</title>
<path fill="none" stroke="midnightblue" d="M555,-57.11C555,-48.15 555,-38.32 555,-30.58"/>
<polygon fill="midnightblue" stroke="midnightblue" points="551.5,-57.4 555,-67.4 558.5,-57.4 551.5,-57.4"/>
</g>
<!-- Node13 -->
<g id="node13" class="node">
<title>Node13</title>
<g id="a_node13"><a xlink:href="MinuitFit_8cpp.html" target="_top" xlink:title=" ">
<polygon fill="white" stroke="black" points="1061,-67.5 1061,-97.5 1185,-97.5 1185,-67.5 1061,-67.5"/>
<text text-anchor="start" x="1069" y="-85.5" font-family="Helvetica" font-size="10.00">/hosthome/MaCh3_2.1.0</text>
<text text-anchor="middle" x="1123" y="-74.5" font-family="Helvetica" font-size="10.00">/Fitters/MinuitFit.cpp</text>
</a>
</g>
</g>
<!-- Node12&#45;&gt;Node13 -->
<g id="edge12" class="edge">
<title>Node12&#45;&gt;Node13</title>
<path fill="none" stroke="midnightblue" d="M1050.18,-129.02C1066.36,-118.9 1085.77,-106.77 1100.48,-97.58"/>
<polygon fill="midnightblue" stroke="midnightblue" points="1048.19,-126.13 1041.57,-134.4 1051.9,-132.06 1048.19,-126.13"/>
</g>
<!-- Node12&#45;&gt;Node14 -->
<g id="edge13" class="edge">
<title>Node12&#45;&gt;Node14</title>
<path fill="none" stroke="midnightblue" d="M1005.6,-125.58C1000.14,-116.24 994.01,-105.75 989.23,-97.58"/>
<polygon fill="midnightblue" stroke="midnightblue" points="1002.69,-127.53 1010.75,-134.4 1008.73,-124 1002.69,-127.53"/>
</g>
<!-- Node15&#45;&gt;Node10 -->
<g id="edge15" class="edge">
<title>Node15&#45;&gt;Node10</title>
<path fill="none" stroke="midnightblue" d="M656.87,-130.13C634.31,-119.8 606.58,-107.11 585.75,-97.58"/>
<polygon fill="midnightblue" stroke="midnightblue" points="655.64,-133.42 666.19,-134.4 658.55,-127.05 655.64,-133.42"/>
</g>
<!-- Node15&#45;&gt;Node14 -->
<g id="edge17" class="edge">
<title>Node15&#45;&gt;Node14</title>
<path fill="none" stroke="midnightblue" d="M768.28,-132.19C814.79,-121.54 874.9,-107.78 919.35,-97.61"/>
<polygon fill="midnightblue" stroke="midnightblue" points="767.24,-128.83 758.27,-134.48 768.8,-135.66 767.24,-128.83"/>
</g>
<!-- Node16 -->
<g id="node16" class="node">
<title>Node16</title>
<g id="a_node16"><a xlink:href="PSO_8cpp.html" target="_top" xlink:title=" ">
<polygon fill="white" stroke="black" points="635,-67.5 635,-97.5 759,-97.5 759,-67.5 635,-67.5"/>
<text text-anchor="start" x="643" y="-85.5" font-family="Helvetica" font-size="10.00">/hosthome/MaCh3_2.1.0</text>
<text text-anchor="middle" x="697" y="-74.5" font-family="Helvetica" font-size="10.00">/Fitters/PSO.cpp</text>
</a>
</g>
</g>
<!-- Node15&#45;&gt;Node16 -->
<g id="edge16" class="edge">
<title>Node15&#45;&gt;Node16</title>
<path fill="none" stroke="midnightblue" d="M697,-124.11C697,-115.15 697,-105.32 697,-97.58"/>
<polygon fill="midnightblue" stroke="midnightblue" points="693.5,-124.4 697,-134.4 700.5,-124.4 693.5,-124.4"/>
</g>
<!-- Node17&#45;&gt;Node10 -->
<g id="edge20" class="edge">
<title>Node17&#45;&gt;Node10</title>
<path fill="none" stroke="midnightblue" d="M767.72,-132.19C721.21,-121.54 661.1,-107.78 616.65,-97.61"/>
<polygon fill="midnightblue" stroke="midnightblue" points="767.2,-135.66 777.73,-134.48 768.76,-128.83 767.2,-135.66"/>
</g>
<!-- Node17&#45;&gt;Node14 -->
<g id="edge22" class="edge">
<title>Node17&#45;&gt;Node14</title>
<path fill="none" stroke="midnightblue" d="M879.13,-130.13C901.69,-119.8 929.42,-107.11 950.25,-97.58"/>
<polygon fill="midnightblue" stroke="midnightblue" points="877.45,-127.05 869.81,-134.4 880.36,-133.42 877.45,-127.05"/>
</g>
<!-- Node18 -->
<g id="node18" class="node">
<title>Node18</title>
<g id="a_node18"><a xlink:href="mcmc_8cpp.html" target="_top" xlink:title=" ">
<polygon fill="white" stroke="black" points="777,-67.5 777,-97.5 901,-97.5 901,-67.5 777,-67.5"/>
<text text-anchor="start" x="785" y="-85.5" font-family="Helvetica" font-size="10.00">/hosthome/MaCh3_2.1.0</text>
<text text-anchor="middle" x="839" y="-74.5" font-family="Helvetica" font-size="10.00">/Fitters/mcmc.cpp</text>
</a>
</g>
</g>
<!-- Node17&#45;&gt;Node18 -->
<g id="edge21" class="edge">
<title>Node17&#45;&gt;Node18</title>
<path fill="none" stroke="midnightblue" d="M839,-124.11C839,-115.15 839,-105.32 839,-97.58"/>
<polygon fill="midnightblue" stroke="midnightblue" points="835.5,-124.4 839,-134.4 842.5,-124.4 835.5,-124.4"/>
</g>
<!-- Node20 -->
<g id="node20" class="node">
<title>Node20</title>
<g id="a_node20"><a xlink:href="SampleSummary_8cpp.html" target="_top" xlink:title=" ">
<polygon fill="white" stroke="black" points="957.5,-201.5 957.5,-231.5 1102.5,-231.5 1102.5,-201.5 957.5,-201.5"/>
<text text-anchor="start" x="965.5" y="-219.5" font-family="Helvetica" font-size="10.00">/hosthome/MaCh3_2.1.0</text>
<text text-anchor="middle" x="1030" y="-208.5" font-family="Helvetica" font-size="10.00">/Fitters/SampleSummary.cpp</text>
</a>
</g>
</g>
<!-- Node19&#45;&gt;Node20 -->
<g id="edge25" class="edge">
<title>Node19&#45;&gt;Node20</title>
<path fill="none" stroke="midnightblue" d="M965.69,-262.45C979.99,-252.45 996.95,-240.6 1009.86,-231.58"/>
<polygon fill="midnightblue" stroke="midnightblue" points="963.37,-259.8 957.18,-268.4 967.38,-265.54 963.37,-259.8"/>
</g>
</g>
</svg>
