<?xml version="1.0" encoding="UTF-8" standalone="no"?>
<!DOCTYPE svg PUBLIC "-//W3C//DTD SVG 1.1//EN"
 "http://www.w3.org/Graphics/SVG/1.1/DTD/svg11.dtd">
<!-- Generated by graphviz version 2.44.0 (0)
 -->
<!-- Title: /hosthome/v2.1.0/Splines/SplineBase.h Pages: 1 -->
<!--zoomable 240 -->
<svg id="main" version="1.1" xmlns="http://www.w3.org/2000/svg" xmlns:xlink="http://www.w3.org/1999/xlink" xml:space="preserve" onload="init(evt)">
<style type="text/css"><![CDATA[
.edge:hover path { stroke: red; }
.edge:hover polygon { stroke: red; fill: red; }
]]></style>
<script type="text/javascript"><![CDATA[
var edges = document.getElementsByTagName('g');
if (edges && edges.length) {
  for (var i=0;i<edges.length;i++) {
    if (edges[i].id.substr(0,4)=='edge') {
      edges[i].setAttribute('class','edge');
    }
  }
}
]]></script>
        <defs>
                <circle id="rim" cx="0" cy="0" r="7"/>
                <circle id="rim2" cx="0" cy="0" r="3.5"/>
                <g id="zoomPlus">
                        <use xlink:href="#rim" fill="#404040">
                                <set attributeName="fill" to="#808080" begin="zoomplus.mouseover" end="zoomplus.mouseout"/>
                        </use>
                        <path d="M-4,0h8M0,-4v8" fill="none" stroke="white" stroke-width="1.5" pointer-events="none"/>
                </g>
                <g id="zoomMin">
                        <use xlink:href="#rim" fill="#404040">
                                <set attributeName="fill" to="#808080" begin="zoomminus.mouseover" end="zoomminus.mouseout"/>
                        </use>
                        <path d="M-4,0h8" fill="none" stroke="white" stroke-width="1.5" pointer-events="none"/>
                </g>
                <g id="dirArrow">
                        <path fill="none" stroke="white" stroke-width="1.5" d="M0,-3.0v7 M-2.5,-0.5L0,-3.0L2.5,-0.5"/>
                </g>
               <g id="resetDef">
                       <use xlink:href="#rim2" fill="#404040">
                               <set attributeName="fill" to="#808080" begin="reset.mouseover" end="reset.mouseout"/>
                       </use>
               </g>
        </defs>

<script type="text/javascript">
var viewWidth = 624;
var viewHeight = 240;
var sectionId = 'dynsection-1';
</script>
<script xlink:href="svgpan.js"/>
<svg id="graph" class="graph">
<g id="viewport">
<title>/hosthome/v2.1.0/Splines/SplineBase.h</title>
<polygon fill="white" stroke="transparent" points="-4,4 -4,-236 620,-236 620,4 -4,4"/>
<!-- Node1 -->
<g id="node1" class="node">
<title>Node1</title>
<g id="a_node1"><a xlink:title=" ">
<polygon fill="#bfbfbf" stroke="black" points="324.5,-201.5 324.5,-231.5 452.5,-231.5 452.5,-201.5 324.5,-201.5"/>
<text text-anchor="start" x="332.5" y="-219.5" font-family="Helvetica" font-size="10.00">/hosthome/v2.1.0/Splines</text>
<text text-anchor="middle" x="388.5" y="-208.5" font-family="Helvetica" font-size="10.00">/SplineBase.h</text>
</a>
</g>
</g>
<!-- Node2 -->
<g id="node2" class="node">
<title>Node2</title>
<g id="a_node2"><a xlink:href="BinnedSplineHandler_8h.html" target="_top" xlink:title=" ">
<polygon fill="white" stroke="black" points="105.5,-134.5 105.5,-164.5 233.5,-164.5 233.5,-134.5 105.5,-134.5"/>
<text text-anchor="start" x="113.5" y="-152.5" font-family="Helvetica" font-size="10.00">/hosthome/v2.1.0/Splines</text>
<text text-anchor="middle" x="169.5" y="-141.5" font-family="Helvetica" font-size="10.00">/BinnedSplineHandler.h</text>
</a>
</g>
</g>
<!-- Node1&#45;&gt;Node2 -->
<g id="edge1" class="edge">
<title>Node1&#45;&gt;Node2</title>
<path fill="none" stroke="midnightblue" d="M331.49,-198.58C295.92,-188.02 250.67,-174.59 217.04,-164.61"/>
<polygon fill="midnightblue" stroke="midnightblue" points="330.67,-201.99 341.25,-201.48 332.66,-195.28 330.67,-201.99"/>
</g>
<!-- Node7 -->
<g id="node7" class="node">
<title>Node7</title>
<g id="a_node7"><a xlink:href="SplineBase_8cpp.html" target="_top" xlink:title=" ">
<polygon fill="white" stroke="black" points="251.5,-134.5 251.5,-164.5 379.5,-164.5 379.5,-134.5 251.5,-134.5"/>
<text text-anchor="start" x="259.5" y="-152.5" font-family="Helvetica" font-size="10.00">/hosthome/v2.1.0/Splines</text>
<text text-anchor="middle" x="315.5" y="-141.5" font-family="Helvetica" font-size="10.00">/SplineBase.cpp</text>
</a>
</g>
</g>
<!-- Node1&#45;&gt;Node7 -->
<g id="edge6" class="edge">
<title>Node1&#45;&gt;Node7</title>
<path fill="none" stroke="midnightblue" d="M365.03,-194.6C354,-184.78 341.16,-173.34 331.31,-164.58"/>
<polygon fill="midnightblue" stroke="midnightblue" points="362.86,-197.36 372.66,-201.4 367.52,-192.13 362.86,-197.36"/>
</g>
<!-- Node8 -->
<g id="node8" class="node">
<title>Node8</title>
<g id="a_node8"><a xlink:href="SplineMonolith_8h.html" target="_top" xlink:title=" ">
<polygon fill="white" stroke="black" points="397.5,-134.5 397.5,-164.5 525.5,-164.5 525.5,-134.5 397.5,-134.5"/>
<text text-anchor="start" x="405.5" y="-152.5" font-family="Helvetica" font-size="10.00">/hosthome/v2.1.0/Splines</text>
<text text-anchor="middle" x="461.5" y="-141.5" font-family="Helvetica" font-size="10.00">/SplineMonolith.h</text>
</a>
</g>
</g>
<!-- Node1&#45;&gt;Node8 -->
<g id="edge7" class="edge">
<title>Node1&#45;&gt;Node8</title>
<path fill="none" stroke="midnightblue" d="M411.97,-194.6C423,-184.78 435.84,-173.34 445.69,-164.58"/>
<polygon fill="midnightblue" stroke="midnightblue" points="409.48,-192.13 404.34,-201.4 414.14,-197.36 409.48,-192.13"/>
</g>
<!-- Node10 -->
<g id="node10" class="node">
<title>Node10</title>
<g id="a_node10"><a xlink:href="splines_8cpp.html" target="_top" xlink:title=" ">
<polygon fill="white" stroke="black" points="491,-67.5 491,-97.5 616,-97.5 616,-67.5 491,-67.5"/>
<text text-anchor="start" x="499" y="-85.5" font-family="Helvetica" font-size="10.00">/hosthome/v2.1.0/python</text>
<text text-anchor="middle" x="553.5" y="-74.5" font-family="Helvetica" font-size="10.00">/splines.cpp</text>
</a>
</g>
</g>
<!-- Node1&#45;&gt;Node10 -->
<g id="edge10" class="edge">
<title>Node1&#45;&gt;Node10</title>
<path fill="none" stroke="midnightblue" d="M462.57,-205C488.6,-197.78 515.95,-185.58 534.5,-165 551.33,-146.33 554.09,-115.67 554.11,-97.76"/>
<polygon fill="midnightblue" stroke="midnightblue" points="461.5,-201.66 452.68,-207.53 463.23,-208.44 461.5,-201.66"/>
</g>
<!-- Node3 -->
<g id="node3" class="node">
<title>Node3</title>
<g id="a_node3"><a xlink:href="BinnedSplineHandler_8cpp.html" target="_top" xlink:title=" ">
<polygon fill="white" stroke="black" points="0,-67.5 0,-97.5 129,-97.5 129,-67.5 0,-67.5"/>
<text text-anchor="start" x="8" y="-85.5" font-family="Helvetica" font-size="10.00">/hosthome/v2.1.0/Splines</text>
<text text-anchor="middle" x="64.5" y="-74.5" font-family="Helvetica" font-size="10.00">/BinnedSplineHandler.cpp</text>
</a>
</g>
</g>
<!-- Node2&#45;&gt;Node3 -->
<g id="edge2" class="edge">
<title>Node2&#45;&gt;Node3</title>
<path fill="none" stroke="midnightblue" d="M138.02,-129.02C121.68,-118.9 102.09,-106.77 87.24,-97.58"/>
<polygon fill="midnightblue" stroke="midnightblue" points="136.37,-132.11 146.72,-134.4 140.06,-126.16 136.37,-132.11"/>
</g>
<!-- Node4 -->
<g id="node4" class="node">
<title>Node4</title>
<g id="a_node4"><a xlink:href="SampleHandlerFD_8h.html" target="_top" xlink:title=" ">
<polygon fill="white" stroke="black" points="147.5,-67.5 147.5,-97.5 281.5,-97.5 281.5,-67.5 147.5,-67.5"/>
<text text-anchor="start" x="155.5" y="-85.5" font-family="Helvetica" font-size="10.00">/hosthome/v2.1.0/Samples</text>
<text text-anchor="middle" x="214.5" y="-74.5" font-family="Helvetica" font-size="10.00">/SampleHandlerFD.h</text>
</a>
</g>
</g>
<!-- Node2&#45;&gt;Node4 -->
<g id="edge3" class="edge">
<title>Node2&#45;&gt;Node4</title>
<path fill="none" stroke="midnightblue" d="M184.97,-126.16C191.53,-116.68 198.98,-105.92 204.75,-97.58"/>
<polygon fill="midnightblue" stroke="midnightblue" points="182.08,-124.18 179.26,-134.4 187.83,-128.17 182.08,-124.18"/>
</g>
<!-- Node5 -->
<g id="node5" class="node">
<title>Node5</title>
<g id="a_node5"><a xlink:href="SampleHandlerFD_8cpp.html" target="_top" xlink:title=" ">
<polygon fill="white" stroke="black" points="73.5,-0.5 73.5,-30.5 207.5,-30.5 207.5,-0.5 73.5,-0.5"/>
<text text-anchor="start" x="81.5" y="-18.5" font-family="Helvetica" font-size="10.00">/hosthome/v2.1.0/Samples</text>
<text text-anchor="middle" x="140.5" y="-7.5" font-family="Helvetica" font-size="10.00">/SampleHandlerFD.cpp</text>
</a>
</g>
</g>
<!-- Node4&#45;&gt;Node5 -->
<g id="edge4" class="edge">
<title>Node4&#45;&gt;Node5</title>
<path fill="none" stroke="midnightblue" d="M190.7,-60.6C179.53,-50.78 166.51,-39.34 156.53,-30.58"/>
<polygon fill="midnightblue" stroke="midnightblue" points="188.62,-63.43 198.44,-67.4 193.24,-58.17 188.62,-63.43"/>
</g>
<!-- Node6 -->
<g id="node6" class="node">
<title>Node6</title>
<g id="a_node6"><a xlink:href="samples_8cpp.html" target="_top" xlink:title=" ">
<polygon fill="white" stroke="black" points="226,-0.5 226,-30.5 351,-30.5 351,-0.5 226,-0.5"/>
<text text-anchor="start" x="234" y="-18.5" font-family="Helvetica" font-size="10.00">/hosthome/v2.1.0/python</text>
<text text-anchor="middle" x="288.5" y="-7.5" font-family="Helvetica" font-size="10.00">/samples.cpp</text>
</a>
</g>
</g>
<!-- Node4&#45;&gt;Node6 -->
<g id="edge5" class="edge">
<title>Node4&#45;&gt;Node6</title>
<path fill="none" stroke="midnightblue" d="M238.3,-60.6C249.47,-50.78 262.49,-39.34 272.47,-30.58"/>
<polygon fill="midnightblue" stroke="midnightblue" points="235.76,-58.17 230.56,-67.4 240.38,-63.43 235.76,-58.17"/>
</g>
<!-- Node9 -->
<g id="node9" class="node">
<title>Node9</title>
<g id="a_node9"><a xlink:href="SplineMonolith_8cpp.html" target="_top" xlink:title=" ">
<polygon fill="white" stroke="black" points="344.5,-67.5 344.5,-97.5 472.5,-97.5 472.5,-67.5 344.5,-67.5"/>
<text text-anchor="start" x="352.5" y="-85.5" font-family="Helvetica" font-size="10.00">/hosthome/v2.1.0/Splines</text>
<text text-anchor="middle" x="408.5" y="-74.5" font-family="Helvetica" font-size="10.00">/SplineMonolith.cpp</text>
</a>
</g>
</g>
<!-- Node8&#45;&gt;Node9 -->
<g id="edge8" class="edge">
<title>Node8&#45;&gt;Node9</title>
<path fill="none" stroke="midnightblue" d="M443.52,-126.45C435.73,-116.9 426.85,-106 419.98,-97.58"/>
<polygon fill="midnightblue" stroke="midnightblue" points="440.97,-128.86 450,-134.4 446.39,-124.43 440.97,-128.86"/>
</g>
<!-- Node8&#45;&gt;Node10 -->
<g id="edge9" class="edge">
<title>Node8&#45;&gt;Node10</title>
<path fill="none" stroke="midnightblue" d="M489.88,-128.45C504.03,-118.45 520.81,-106.6 533.58,-97.58"/>
<polygon fill="midnightblue" stroke="midnightblue" points="487.61,-125.77 481.46,-134.4 491.65,-131.48 487.61,-125.77"/>
</g>
</g>
</svg>
        <g id="navigator" transform="translate(0 0)" fill="#404254">
                <rect fill="#f2f5e9" fill-opacity="0.5" stroke="#606060" stroke-width=".5" x="0" y="0" width="60" height="60"/>
                <use id="zoomplus" xlink:href="#zoomPlus" x="17" y="9" onmousedown="handleZoom(evt,'in')"/>
                <use id="zoomminus" xlink:href="#zoomMin" x="42" y="9" onmousedown="handleZoom(evt,'out')"/>
                <use id="reset" xlink:href="#resetDef" x="30" y="36" onmousedown="handleReset()"/>
                <g id="arrowUp" xlink:href="#dirArrow" transform="translate(30 24)" onmousedown="handlePan(0,-1)">
                  <use xlink:href="#rim" fill="#404040">
                        <set attributeName="fill" to="#808080" begin="arrowUp.mouseover" end="arrowUp.mouseout"/>
                  </use>
                  <path fill="none" stroke="white" stroke-width="1.5" d="M0,-3.0v7 M-2.5,-0.5L0,-3.0L2.5,-0.5"/>
                </g>
                <g id="arrowRight" xlink:href="#dirArrow" transform="rotate(90) translate(36 -43)" onmousedown="handlePan(1,0)">
                  <use xlink:href="#rim" fill="#404040">
                        <set attributeName="fill" to="#808080" begin="arrowRight.mouseover" end="arrowRight.mouseout"/>
                  </use>
                  <path fill="none" stroke="white" stroke-width="1.5" d="M0,-3.0v7 M-2.5,-0.5L0,-3.0L2.5,-0.5"/>
                </g>
                <g id="arrowDown" xlink:href="#dirArrow" transform="rotate(180) translate(-30 -48)" onmousedown="handlePan(0,1)">
                  <use xlink:href="#rim" fill="#404040">
                        <set attributeName="fill" to="#808080" begin="arrowDown.mouseover" end="arrowDown.mouseout"/>
                  </use>
                  <path fill="none" stroke="white" stroke-width="1.5" d="M0,-3.0v7 M-2.5,-0.5L0,-3.0L2.5,-0.5"/>
                </g>
                <g id="arrowLeft" xlink:href="#dirArrow" transform="rotate(270) translate(-36 17)" onmousedown="handlePan(-1,0)">
                  <use xlink:href="#rim" fill="#404040">
                        <set attributeName="fill" to="#808080" begin="arrowLeft.mouseover" end="arrowLeft.mouseout"/>
                  </use>
                  <path fill="none" stroke="white" stroke-width="1.5" d="M0,-3.0v7 M-2.5,-0.5L0,-3.0L2.5,-0.5"/>
                </g>
        </g>
        <svg viewBox="0 0 15 15" width="100%" height="30px" preserveAspectRatio="xMaxYMin meet">
         <g id="arrow_out" transform="scale(0.3 0.3)">
          <a xlink:href="SplineBase_8h__dep__incl_org.svg" target="_base">
           <rect id="button" ry="5" rx="5" y="6" x="6" height="38" width="38"
                fill="#f2f5e9" fill-opacity="0.5" stroke="#606060" stroke-width="1.0"/>
           <path id="arrow"
             d="M 11.500037,31.436501 C 11.940474,20.09759 22.043105,11.32322 32.158766,21.979434 L 37.068811,17.246167 C 37.068811,17.246167 37.088388,32 37.088388,32 L 22.160133,31.978069 C 22.160133,31.978069 26.997745,27.140456 26.997745,27.140456 C 18.528582,18.264221 13.291696,25.230495 11.500037,31.436501 z"
             style="fill:#404040;"/>
          </a>
         </g>
        </svg>
</svg>
