<?xml version="1.0" encoding="UTF-8" standalone="no"?>
<!DOCTYPE svg PUBLIC "-//W3C//DTD SVG 1.1//EN"
 "http://www.w3.org/Graphics/SVG/1.1/DTD/svg11.dtd">
<!-- Generated by graphviz version 2.44.0 (0)
 -->
<!-- Title: NormParameter Pages: 1 -->
<!--zoomable 194 -->
<svg id="main" version="1.1" xmlns="http://www.w3.org/2000/svg" xmlns:xlink="http://www.w3.org/1999/xlink" xml:space="preserve" onload="init(evt)">
<style type="text/css"><![CDATA[
.edge:hover path { stroke: red; }
.edge:hover polygon { stroke: red; fill: red; }
]]></style>
<script type="text/javascript"><![CDATA[
var edges = document.getElementsByTagName('g');
if (edges && edges.length) {
  for (var i=0;i<edges.length;i++) {
    if (edges[i].id.substr(0,4)=='edge') {
      edges[i].setAttribute('class','edge');
    }
  }
}
]]></script>
        <defs>
                <circle id="rim" cx="0" cy="0" r="7"/>
                <circle id="rim2" cx="0" cy="0" r="3.5"/>
                <g id="zoomPlus">
                        <use xlink:href="#rim" fill="#404040">
                                <set attributeName="fill" to="#808080" begin="zoomplus.mouseover" end="zoomplus.mouseout"/>
                        </use>
                        <path d="M-4,0h8M0,-4v8" fill="none" stroke="white" stroke-width="1.5" pointer-events="none"/>
                </g>
                <g id="zoomMin">
                        <use xlink:href="#rim" fill="#404040">
                                <set attributeName="fill" to="#808080" begin="zoomminus.mouseover" end="zoomminus.mouseout"/>
                        </use>
                        <path d="M-4,0h8" fill="none" stroke="white" stroke-width="1.5" pointer-events="none"/>
                </g>
                <g id="dirArrow">
                        <path fill="none" stroke="white" stroke-width="1.5" d="M0,-3.0v7 M-2.5,-0.5L0,-3.0L2.5,-0.5"/>
                </g>
               <g id="resetDef">
                       <use xlink:href="#rim2" fill="#404040">
                               <set attributeName="fill" to="#808080" begin="reset.mouseover" end="reset.mouseout"/>
                       </use>
               </g>
        </defs>

<script type="text/javascript">
var viewWidth = 584;
var viewHeight = 194;
var sectionId = 'dynsection-1';
</script>
<script xlink:href="svgpan.js"/>
<svg id="graph" class="graph">
<g id="viewport">
<title>NormParameter</title>
<polygon fill="white" stroke="transparent" points="-4,4 -4,-189.5 580,-189.5 580,4 -4,4"/>
<!-- Node1 -->
<g id="node1" class="node">
<title>Node1</title>
<g id="a_node1"><a xlink:title="ETA &#45; Normalisations for cross&#45;section parameters Carrier for whether you want to apply a systematic ...">
<polygon fill="#bfbfbf" stroke="black" points="490,-77.5 490,-96.5 576,-96.5 576,-77.5 490,-77.5"/>
<text text-anchor="middle" x="533" y="-84.5" font-family="Helvetica" font-size="10.00">NormParameter</text>
</a>
</g>
</g>
<!-- Node2 -->
<g id="node2" class="node">
<title>Node2</title>
<g id="a_node2"><a xlink:href="structTypeParameterBase.html" target="_top" xlink:title="Base class storing info for parameters types, helping unify codebase.">
<polygon fill="white" stroke="black" points="265.5,-160.5 265.5,-179.5 370.5,-179.5 370.5,-160.5 265.5,-160.5"/>
<text text-anchor="middle" x="318" y="-167.5" font-family="Helvetica" font-size="10.00">TypeParameterBase</text>
</a>
</g>
</g>
<!-- Node2&#45;&gt;Node1 -->
<g id="edge1" class="edge">
<title>Node2&#45;&gt;Node1</title>
<path fill="none" stroke="midnightblue" d="M380.55,-159.92C409.23,-153.83 443.29,-144.56 472,-131 490.92,-122.06 509.92,-106.82 521.33,-96.83"/>
<polygon fill="midnightblue" stroke="midnightblue" points="379.74,-156.52 370.64,-161.95 381.14,-163.37 379.74,-156.52"/>
</g>
<!-- Node3 -->
<g id="node3" class="node">
<title>Node3</title>
<g id="a_node3"><a xlink:title=" ">
<polygon fill="white" stroke="#bfbfbf" points="132,-160.5 132,-179.5 192,-179.5 192,-160.5 132,-160.5"/>
<text text-anchor="middle" x="162" y="-167.5" font-family="Helvetica" font-size="10.00">std::string</text>
</a>
</g>
</g>
<!-- Node3&#45;&gt;Node2 -->
<g id="edge2" class="edge">
<title>Node3&#45;&gt;Node2</title>
<path fill="none" stroke="#9a32cd" stroke-dasharray="5,2" d="M202.49,-170C221.61,-170 244.82,-170 265.33,-170"/>
<polygon fill="#9a32cd" stroke="#9a32cd" points="202.33,-166.5 192.33,-170 202.33,-173.5 202.33,-166.5"/>
<text text-anchor="middle" x="224" y="-173" font-family="Helvetica" font-size="10.00"> name</text>
</g>
<!-- Node4 -->
<g id="node4" class="node">
<title>Node4</title>
<g id="a_node4"><a xlink:title=" ">
<polygon fill="white" stroke="#bfbfbf" points="0,-155 0,-185 95,-185 95,-155 0,-155"/>
<text text-anchor="start" x="8" y="-173" font-family="Helvetica" font-size="10.00">std::basic_string&lt;</text>
<text text-anchor="middle" x="47.5" y="-162" font-family="Helvetica" font-size="10.00"> char &gt;</text>
</a>
</g>
</g>
<!-- Node4&#45;&gt;Node3 -->
<g id="edge3" class="edge">
<title>Node4&#45;&gt;Node3</title>
<path fill="none" stroke="midnightblue" d="M105.53,-170C114.68,-170 123.8,-170 131.93,-170"/>
<polygon fill="midnightblue" stroke="midnightblue" points="105.23,-166.5 95.23,-170 105.23,-173.5 105.23,-166.5"/>
</g>
<!-- Node5 -->
<g id="node5" class="node">
<title>Node5</title>
<g id="a_node5"><a xlink:title=" ">
<polygon fill="white" stroke="#bfbfbf" points="259.5,-111 259.5,-141 376.5,-141 376.5,-111 259.5,-111"/>
<text text-anchor="start" x="267.5" y="-129" font-family="Helvetica" font-size="10.00">std::vector&lt; std::vector</text>
<text text-anchor="middle" x="318" y="-118" font-family="Helvetica" font-size="10.00">&lt; double &gt; &gt;</text>
</a>
</g>
</g>
<!-- Node5&#45;&gt;Node1 -->
<g id="edge4" class="edge">
<title>Node5&#45;&gt;Node1</title>
<path fill="none" stroke="#9a32cd" stroke-dasharray="5,2" d="M386.74,-118.24C413.44,-114.66 444.3,-109.89 472,-104 481.64,-101.95 492,-99.21 501.36,-96.53"/>
<polygon fill="#9a32cd" stroke="#9a32cd" points="386.18,-114.78 376.72,-119.55 387.09,-121.72 386.18,-114.78"/>
<text text-anchor="middle" x="435" y="-119" font-family="Helvetica" font-size="10.00"> Selection</text>
</g>
<!-- Node6 -->
<g id="node6" class="node">
<title>Node6</title>
<g id="a_node6"><a xlink:title=" ">
<polygon fill="white" stroke="#bfbfbf" points="272.5,-38.5 272.5,-57.5 363.5,-57.5 363.5,-38.5 272.5,-38.5"/>
<text text-anchor="middle" x="318" y="-45.5" font-family="Helvetica" font-size="10.00">std::vector&lt; int &gt;</text>
</a>
</g>
</g>
<!-- Node6&#45;&gt;Node1 -->
<g id="edge5" class="edge">
<title>Node6&#45;&gt;Node1</title>
<path fill="none" stroke="#9a32cd" stroke-dasharray="5,2" d="M373.78,-38.56C403.5,-35.49 440.49,-35.07 472,-45 492.13,-51.35 511.38,-67.12 522.43,-77.43"/>
<polygon fill="#9a32cd" stroke="#9a32cd" points="373.12,-35.11 363.59,-39.74 373.93,-42.06 373.12,-35.11"/>
<text text-anchor="middle" x="435" y="-92" font-family="Helvetica" font-size="10.00"> horncurrents</text>
<text text-anchor="middle" x="435" y="-81" font-family="Helvetica" font-size="10.00">modes</text>
<text text-anchor="middle" x="435" y="-70" font-family="Helvetica" font-size="10.00">pdgs</text>
<text text-anchor="middle" x="435" y="-59" font-family="Helvetica" font-size="10.00">preoscpdgs</text>
<text text-anchor="middle" x="435" y="-48" font-family="Helvetica" font-size="10.00">targets</text>
</g>
<!-- Node7 -->
<g id="node7" class="node">
<title>Node7</title>
<g id="a_node7"><a xlink:title=" ">
<polygon fill="white" stroke="#bfbfbf" points="256,-0.5 256,-19.5 380,-19.5 380,-0.5 256,-0.5"/>
<text text-anchor="middle" x="318" y="-7.5" font-family="Helvetica" font-size="10.00">std::vector&lt; std::string &gt;</text>
</a>
</g>
</g>
<!-- Node7&#45;&gt;Node1 -->
<g id="edge6" class="edge">
<title>Node7&#45;&gt;Node1</title>
<path fill="none" stroke="#9a32cd" stroke-dasharray="5,2" d="M390.25,-4.87C417.04,-5.64 447.03,-9.88 472,-22 497.42,-34.34 517.3,-62.52 526.46,-77.4"/>
<polygon fill="#9a32cd" stroke="#9a32cd" points="390.21,-1.37 380.16,-4.73 390.11,-8.37 390.21,-1.37"/>
<text text-anchor="middle" x="435" y="-25" font-family="Helvetica" font-size="10.00"> KinematicVarStr</text>
</g>
</g>
</svg>
        <g id="navigator" transform="translate(0 0)" fill="#404254">
                <rect fill="#f2f5e9" fill-opacity="0.5" stroke="#606060" stroke-width=".5" x="0" y="0" width="60" height="60"/>
                <use id="zoomplus" xlink:href="#zoomPlus" x="17" y="9" onmousedown="handleZoom(evt,'in')"/>
                <use id="zoomminus" xlink:href="#zoomMin" x="42" y="9" onmousedown="handleZoom(evt,'out')"/>
                <use id="reset" xlink:href="#resetDef" x="30" y="36" onmousedown="handleReset()"/>
                <g id="arrowUp" xlink:href="#dirArrow" transform="translate(30 24)" onmousedown="handlePan(0,-1)">
                  <use xlink:href="#rim" fill="#404040">
                        <set attributeName="fill" to="#808080" begin="arrowUp.mouseover" end="arrowUp.mouseout"/>
                  </use>
                  <path fill="none" stroke="white" stroke-width="1.5" d="M0,-3.0v7 M-2.5,-0.5L0,-3.0L2.5,-0.5"/>
                </g>
                <g id="arrowRight" xlink:href="#dirArrow" transform="rotate(90) translate(36 -43)" onmousedown="handlePan(1,0)">
                  <use xlink:href="#rim" fill="#404040">
                        <set attributeName="fill" to="#808080" begin="arrowRight.mouseover" end="arrowRight.mouseout"/>
                  </use>
                  <path fill="none" stroke="white" stroke-width="1.5" d="M0,-3.0v7 M-2.5,-0.5L0,-3.0L2.5,-0.5"/>
                </g>
                <g id="arrowDown" xlink:href="#dirArrow" transform="rotate(180) translate(-30 -48)" onmousedown="handlePan(0,1)">
                  <use xlink:href="#rim" fill="#404040">
                        <set attributeName="fill" to="#808080" begin="arrowDown.mouseover" end="arrowDown.mouseout"/>
                  </use>
                  <path fill="none" stroke="white" stroke-width="1.5" d="M0,-3.0v7 M-2.5,-0.5L0,-3.0L2.5,-0.5"/>
                </g>
                <g id="arrowLeft" xlink:href="#dirArrow" transform="rotate(270) translate(-36 17)" onmousedown="handlePan(-1,0)">
                  <use xlink:href="#rim" fill="#404040">
                        <set attributeName="fill" to="#808080" begin="arrowLeft.mouseover" end="arrowLeft.mouseout"/>
                  </use>
                  <path fill="none" stroke="white" stroke-width="1.5" d="M0,-3.0v7 M-2.5,-0.5L0,-3.0L2.5,-0.5"/>
                </g>
        </g>
        <svg viewBox="0 0 15 15" width="100%" height="30px" preserveAspectRatio="xMaxYMin meet">
         <g id="arrow_out" transform="scale(0.3 0.3)">
          <a xlink:href="structNormParameter__coll__graph_org.svg" target="_base">
           <rect id="button" ry="5" rx="5" y="6" x="6" height="38" width="38"
                fill="#f2f5e9" fill-opacity="0.5" stroke="#606060" stroke-width="1.0"/>
           <path id="arrow"
             d="M 11.500037,31.436501 C 11.940474,20.09759 22.043105,11.32322 32.158766,21.979434 L 37.068811,17.246167 C 37.068811,17.246167 37.088388,32 37.088388,32 L 22.160133,31.978069 C 22.160133,31.978069 26.997745,27.140456 26.997745,27.140456 C 18.528582,18.264221 13.291696,25.230495 11.500037,31.436501 z"
             style="fill:#404040;"/>
          </a>
         </g>
        </svg>
</svg>
