<?xml version="1.0" encoding="UTF-8" standalone="no"?>
<!DOCTYPE svg PUBLIC "-//W3C//DTD SVG 1.1//EN"
 "http://www.w3.org/Graphics/SVG/1.1/DTD/svg11.dtd">
<!-- Generated by graphviz version 2.44.0 (0)
 -->
<!-- Title: /hosthome/v2.1.0/Plotting/plottingUtils/styleManager.h Pages: 1 -->
<svg width="805pt" height="173pt"
 viewBox="0.00 0.00 805.00 173.00" xmlns="http://www.w3.org/2000/svg" xmlns:xlink="http://www.w3.org/1999/xlink">
<g id="graph0" class="graph" transform="scale(1 1) rotate(0) translate(4 169)">
<title>/hosthome/v2.1.0/Plotting/plottingUtils/styleManager.h</title>
<polygon fill="white" stroke="transparent" points="-4,4 -4,-169 801,-169 801,4 -4,4"/>
<!-- Node1 -->
<g id="node1" class="node">
<title>Node1</title>
<g id="a_node1"><a xlink:title=" ">
<polygon fill="#bfbfbf" stroke="black" points="546.5,-134.5 546.5,-164.5 687.5,-164.5 687.5,-134.5 546.5,-134.5"/>
<text text-anchor="start" x="554.5" y="-152.5" font-family="Helvetica" font-size="10.00">/hosthome/v2.1.0/Plotting</text>
<text text-anchor="middle" x="617" y="-141.5" font-family="Helvetica" font-size="10.00">/plottingUtils/styleManager.h</text>
</a>
</g>
</g>
<!-- Node2 -->
<g id="node2" class="node">
<title>Node2</title>
<g id="a_node2"><a xlink:href="plottingManager_8h.html" target="_top" xlink:title=" ">
<polygon fill="white" stroke="black" points="367,-67.5 367,-97.5 519,-97.5 519,-67.5 367,-67.5"/>
<text text-anchor="start" x="375" y="-85.5" font-family="Helvetica" font-size="10.00">/hosthome/v2.1.0/Plotting</text>
<text text-anchor="middle" x="443" y="-74.5" font-family="Helvetica" font-size="10.00">/plottingUtils/plottingManager.h</text>
</a>
</g>
</g>
<!-- Node1&#45;&gt;Node2 -->
<g id="edge1" class="edge">
<title>Node1&#45;&gt;Node2</title>
<path fill="none" stroke="midnightblue" d="M569.67,-130.82C541.7,-120.37 506.77,-107.32 480.68,-97.58"/>
<polygon fill="midnightblue" stroke="midnightblue" points="568.65,-134.18 579.24,-134.4 571.1,-127.62 568.65,-134.18"/>
</g>
<!-- Node7 -->
<g id="node7" class="node">
<title>Node7</title>
<g id="a_node7"><a xlink:href="plotting_8cpp.html" target="_top" xlink:title=" ">
<polygon fill="white" stroke="black" points="624.5,-0.5 624.5,-30.5 749.5,-30.5 749.5,-0.5 624.5,-0.5"/>
<text text-anchor="start" x="632.5" y="-18.5" font-family="Helvetica" font-size="10.00">/hosthome/v2.1.0/python</text>
<text text-anchor="middle" x="687" y="-7.5" font-family="Helvetica" font-size="10.00">/plotting.cpp</text>
</a>
</g>
</g>
<!-- Node1&#45;&gt;Node7 -->
<g id="edge8" class="edge">
<title>Node1&#45;&gt;Node7</title>
<path fill="none" stroke="midnightblue" d="M619.08,-124.2C621.36,-107.29 626.11,-84.69 636,-67 643.96,-52.75 657.13,-39.86 668.09,-30.67"/>
<polygon fill="midnightblue" stroke="midnightblue" points="615.58,-124.05 617.91,-134.39 622.53,-124.85 615.58,-124.05"/>
</g>
<!-- Node8 -->
<g id="node8" class="node">
<title>Node8</title>
<g id="a_node8"><a xlink:href="styleManager_8cpp.html" target="_top" xlink:title=" ">
<polygon fill="white" stroke="black" points="645,-67.5 645,-97.5 797,-97.5 797,-67.5 645,-67.5"/>
<text text-anchor="start" x="653" y="-85.5" font-family="Helvetica" font-size="10.00">/hosthome/v2.1.0/Plotting</text>
<text text-anchor="middle" x="721" y="-74.5" font-family="Helvetica" font-size="10.00">/plottingUtils/styleManager.cpp</text>
</a>
</g>
</g>
<!-- Node1&#45;&gt;Node8 -->
<g id="edge7" class="edge">
<title>Node1&#45;&gt;Node8</title>
<path fill="none" stroke="midnightblue" d="M648.18,-129.02C664.36,-118.9 683.77,-106.77 698.48,-97.58"/>
<polygon fill="midnightblue" stroke="midnightblue" points="646.19,-126.13 639.57,-134.4 649.9,-132.06 646.19,-126.13"/>
</g>
<!-- Node3 -->
<g id="node3" class="node">
<title>Node3</title>
<g id="a_node3"><a xlink:href="GetPostfitParamPlots_8cpp.html" target="_top" xlink:title=" ">
<polygon fill="white" stroke="black" points="0,-0.5 0,-30.5 134,-30.5 134,-0.5 0,-0.5"/>
<text text-anchor="start" x="8" y="-18.5" font-family="Helvetica" font-size="10.00">/hosthome/v2.1.0/Plotting</text>
<text text-anchor="middle" x="67" y="-7.5" font-family="Helvetica" font-size="10.00">/GetPostfitParamPlots.cpp</text>
</a>
</g>
</g>
<!-- Node2&#45;&gt;Node3 -->
<g id="edge2" class="edge">
<title>Node2&#45;&gt;Node3</title>
<path fill="none" stroke="midnightblue" d="M356.6,-67.47C296.61,-57.6 214.87,-43.9 143,-31 140.09,-30.48 137.12,-29.94 134.12,-29.39"/>
<polygon fill="midnightblue" stroke="midnightblue" points="356.35,-70.97 366.78,-69.14 357.48,-64.07 356.35,-70.97"/>
</g>
<!-- Node4 -->
<g id="node4" class="node">
<title>Node4</title>
<g id="a_node4"><a xlink:href="MatrixPlotter_8cpp.html" target="_top" xlink:title=" ">
<polygon fill="white" stroke="black" points="152,-0.5 152,-30.5 280,-30.5 280,-0.5 152,-0.5"/>
<text text-anchor="start" x="160" y="-18.5" font-family="Helvetica" font-size="10.00">/hosthome/v2.1.0/Plotting</text>
<text text-anchor="middle" x="216" y="-7.5" font-family="Helvetica" font-size="10.00">/MatrixPlotter.cpp</text>
</a>
</g>
</g>
<!-- Node2&#45;&gt;Node4 -->
<g id="edge3" class="edge">
<title>Node2&#45;&gt;Node4</title>
<path fill="none" stroke="midnightblue" d="M384.38,-64.71C347.44,-54.14 300.29,-40.63 265.28,-30.61"/>
<polygon fill="midnightblue" stroke="midnightblue" points="383.45,-68.09 394.02,-67.48 385.37,-61.36 383.45,-68.09"/>
</g>
<!-- Node5 -->
<g id="node5" class="node">
<title>Node5</title>
<g id="a_node5"><a xlink:href="PlotLLH_8cpp.html" target="_top" xlink:title=" ">
<polygon fill="white" stroke="black" points="298,-0.5 298,-30.5 426,-30.5 426,-0.5 298,-0.5"/>
<text text-anchor="start" x="306" y="-18.5" font-family="Helvetica" font-size="10.00">/hosthome/v2.1.0/Plotting</text>
<text text-anchor="middle" x="362" y="-7.5" font-family="Helvetica" font-size="10.00">/PlotLLH.cpp</text>
</a>
</g>
</g>
<!-- Node2&#45;&gt;Node5 -->
<g id="edge4" class="edge">
<title>Node2&#45;&gt;Node5</title>
<path fill="none" stroke="midnightblue" d="M417.31,-60.88C405,-51.01 390.57,-39.43 379.54,-30.58"/>
<polygon fill="midnightblue" stroke="midnightblue" points="415.43,-63.87 425.42,-67.4 419.82,-58.41 415.43,-63.87"/>
</g>
<!-- Node6 -->
<g id="node6" class="node">
<title>Node6</title>
<g id="a_node6"><a xlink:href="plottingManager_8cpp.html" target="_top" xlink:title=" ">
<polygon fill="white" stroke="black" points="444,-0.5 444,-30.5 606,-30.5 606,-0.5 444,-0.5"/>
<text text-anchor="start" x="452" y="-18.5" font-family="Helvetica" font-size="10.00">/hosthome/v2.1.0/Plotting</text>
<text text-anchor="middle" x="525" y="-7.5" font-family="Helvetica" font-size="10.00">/plottingUtils/plottingManager.cpp</text>
</a>
</g>
</g>
<!-- Node2&#45;&gt;Node6 -->
<g id="edge5" class="edge">
<title>Node2&#45;&gt;Node6</title>
<path fill="none" stroke="midnightblue" d="M468.65,-61.17C481.19,-51.23 495.97,-39.51 507.24,-30.58"/>
<polygon fill="midnightblue" stroke="midnightblue" points="466.46,-58.44 460.79,-67.4 470.8,-63.93 466.46,-58.44"/>
</g>
<!-- Node2&#45;&gt;Node7 -->
<g id="edge6" class="edge">
<title>Node2&#45;&gt;Node7</title>
<path fill="none" stroke="midnightblue" d="M505.5,-64.85C545.28,-54.25 596.24,-40.68 634.03,-30.61"/>
<polygon fill="midnightblue" stroke="midnightblue" points="504.41,-61.52 495.64,-67.48 506.21,-68.28 504.41,-61.52"/>
</g>
</g>
</svg>
