<?xml version="1.0" encoding="UTF-8" standalone="no"?>
<!DOCTYPE svg PUBLIC "-//W3C//DTD SVG 1.1//EN"
 "http://www.w3.org/Graphics/SVG/1.1/DTD/svg11.dtd">
<!-- Generated by graphviz version 2.44.0 (0)
 -->
<!-- Title: Fitters/MCMCProcessor.cpp Pages: 1 -->
<!--zoomable 319 -->
<svg id="main" version="1.1" xmlns="http://www.w3.org/2000/svg" xmlns:xlink="http://www.w3.org/1999/xlink" xml:space="preserve" onload="init(evt)">
<style type="text/css"><![CDATA[
.edge:hover path { stroke: red; }
.edge:hover polygon { stroke: red; fill: red; }
]]></style>
<script type="text/javascript"><![CDATA[
var edges = document.getElementsByTagName('g');
if (edges && edges.length) {
  for (var i=0;i<edges.length;i++) {
    if (edges[i].id.substr(0,4)=='edge') {
      edges[i].setAttribute('class','edge');
    }
  }
}
]]></script>
        <defs>
                <circle id="rim" cx="0" cy="0" r="7"/>
                <circle id="rim2" cx="0" cy="0" r="3.5"/>
                <g id="zoomPlus">
                        <use xlink:href="#rim" fill="#404040">
                                <set attributeName="fill" to="#808080" begin="zoomplus.mouseover" end="zoomplus.mouseout"/>
                        </use>
                        <path d="M-4,0h8M0,-4v8" fill="none" stroke="white" stroke-width="1.5" pointer-events="none"/>
                </g>
                <g id="zoomMin">
                        <use xlink:href="#rim" fill="#404040">
                                <set attributeName="fill" to="#808080" begin="zoomminus.mouseover" end="zoomminus.mouseout"/>
                        </use>
                        <path d="M-4,0h8" fill="none" stroke="white" stroke-width="1.5" pointer-events="none"/>
                </g>
                <g id="dirArrow">
                        <path fill="none" stroke="white" stroke-width="1.5" d="M0,-3.0v7 M-2.5,-0.5L0,-3.0L2.5,-0.5"/>
                </g>
               <g id="resetDef">
                       <use xlink:href="#rim2" fill="#404040">
                               <set attributeName="fill" to="#808080" begin="reset.mouseover" end="reset.mouseout"/>
                       </use>
               </g>
        </defs>

<script type="text/javascript">
var viewWidth = 2694;
var viewHeight = 319;
var sectionId = 'dynsection-0';
</script>
<script xlink:href="svgpan.js"/>
<svg id="graph" class="graph">
<g id="viewport">
<title>Fitters/MCMCProcessor.cpp</title>
<polygon fill="white" stroke="transparent" points="-4,4 -4,-315 2690.41,-315 2690.41,4 -4,4"/>
<!-- Node1 -->
<g id="node1" class="node">
<title>Node1</title>
<g id="a_node1"><a xlink:title=" ">
<polygon fill="#bfbfbf" stroke="black" points="1538.89,-291.5 1538.89,-310.5 1681.89,-310.5 1681.89,-291.5 1538.89,-291.5"/>
<text text-anchor="middle" x="1610.39" y="-298.5" font-family="Helvetica" font-size="10.00">Fitters/MCMCProcessor.cpp</text>
</a>
</g>
</g>
<!-- Node2 -->
<g id="node2" class="node">
<title>Node2</title>
<g id="a_node2"><a xlink:href="MCMCProcessor_8h.html" target="_top" xlink:title=" ">
<polygon fill="white" stroke="black" points="1559.89,-235.5 1559.89,-254.5 1660.89,-254.5 1660.89,-235.5 1559.89,-235.5"/>
<text text-anchor="middle" x="1610.39" y="-242.5" font-family="Helvetica" font-size="10.00">MCMCProcessor.h</text>
</a>
</g>
</g>
<!-- Node1&#45;&gt;Node2 -->
<g id="edge1" class="edge">
<title>Node1&#45;&gt;Node2</title>
<path fill="none" stroke="midnightblue" d="M1610.39,-291.08C1610.39,-284.01 1610.39,-273.86 1610.39,-264.99"/>
<polygon fill="midnightblue" stroke="midnightblue" points="1613.89,-264.75 1610.39,-254.75 1606.89,-264.75 1613.89,-264.75"/>
</g>
<!-- Node30 -->
<g id="node16" class="node">
<title>Node30</title>
<g id="a_node16"><a xlink:title=" ">
<polygon fill="white" stroke="#bfbfbf" points="1139.39,-0.5 1139.39,-19.5 1181.39,-19.5 1181.39,-0.5 1139.39,-0.5"/>
<text text-anchor="middle" x="1160.39" y="-7.5" font-family="Helvetica" font-size="10.00">TF1.h</text>
</a>
</g>
</g>
<!-- Node1&#45;&gt;Node30 -->
<g id="edge71" class="edge">
<title>Node1&#45;&gt;Node30</title>
<path fill="none" stroke="midnightblue" d="M1538.73,-300.32C1287.77,-300.61 450.33,-294.23 202.39,-199 157.16,-181.63 137.66,-175.53 116.39,-132 46.67,10.69 -216.92,-135.01 396.39,-56 679.26,-19.56 1024.91,-12.59 1129.18,-11.29"/>
<polygon fill="midnightblue" stroke="midnightblue" points="1129.37,-14.79 1139.33,-11.17 1129.29,-7.79 1129.37,-14.79"/>
</g>
<!-- Node44 -->
<g id="node50" class="node">
<title>Node44</title>
<g id="a_node50"><a xlink:title=" ">
<polygon fill="white" stroke="#bfbfbf" points="1679.39,-235.5 1679.39,-254.5 1735.39,-254.5 1735.39,-235.5 1679.39,-235.5"/>
<text text-anchor="middle" x="1707.39" y="-242.5" font-family="Helvetica" font-size="10.00">TChain.h</text>
</a>
</g>
</g>
<!-- Node1&#45;&gt;Node44 -->
<g id="edge70" class="edge">
<title>Node1&#45;&gt;Node44</title>
<path fill="none" stroke="midnightblue" d="M1625.97,-291.32C1641.39,-282.74 1665.2,-269.49 1683.1,-259.52"/>
<polygon fill="midnightblue" stroke="midnightblue" points="1684.81,-262.58 1691.84,-254.65 1681.4,-256.46 1684.81,-262.58"/>
</g>
<!-- Node3 -->
<g id="node3" class="node">
<title>Node3</title>
<g id="a_node3"><a xlink:title=" ">
<polygon fill="white" stroke="#bfbfbf" points="2555.89,-174 2555.89,-193 2608.89,-193 2608.89,-174 2555.89,-174"/>
<text text-anchor="middle" x="2582.39" y="-181" font-family="Helvetica" font-size="10.00">complex</text>
</a>
</g>
</g>
<!-- Node2&#45;&gt;Node3 -->
<g id="edge2" class="edge">
<title>Node2&#45;&gt;Node3</title>
<path fill="none" stroke="midnightblue" d="M1661.08,-236C1664.23,-235.63 1667.35,-235.29 1670.39,-235 1864.56,-216.51 2356.91,-240.97 2547.39,-199 2550.07,-198.41 2552.8,-197.63 2555.5,-196.73"/>
<polygon fill="midnightblue" stroke="midnightblue" points="2556.88,-199.95 2564.98,-193.12 2554.39,-193.41 2556.88,-199.95"/>
</g>
<!-- Node4 -->
<g id="node4" class="node">
<title>Node4</title>
<g id="a_node4"><a xlink:title=" ">
<polygon fill="white" stroke="#bfbfbf" points="2626.89,-174 2626.89,-193 2669.89,-193 2669.89,-174 2626.89,-174"/>
<text text-anchor="middle" x="2648.39" y="-181" font-family="Helvetica" font-size="10.00">cstdio</text>
</a>
</g>
</g>
<!-- Node2&#45;&gt;Node4 -->
<g id="edge3" class="edge">
<title>Node2&#45;&gt;Node4</title>
<path fill="none" stroke="midnightblue" d="M1661.08,-235.99C1664.23,-235.62 1667.35,-235.28 1670.39,-235 1880.29,-215.33 2413.82,-249.95 2618.39,-199 2620.33,-198.52 2622.29,-197.9 2624.23,-197.2"/>
<polygon fill="midnightblue" stroke="midnightblue" points="2625.8,-200.33 2633.59,-193.14 2623.02,-193.91 2625.8,-200.33"/>
</g>
<!-- Node5 -->
<g id="node5" class="node">
<title>Node5</title>
<g id="a_node5"><a xlink:href="StatisticalUtils_8h.html" target="_top" xlink:title="Utility functions for statistical interpretations in MaCh3.">
<polygon fill="white" stroke="black" points="1594.39,-174 1594.39,-193 1714.39,-193 1714.39,-174 1594.39,-174"/>
<text text-anchor="middle" x="1654.39" y="-181" font-family="Helvetica" font-size="10.00">Fitters/StatisticalUtils.h</text>
</a>
</g>
</g>
<!-- Node2&#45;&gt;Node5 -->
<g id="edge4" class="edge">
<title>Node2&#45;&gt;Node5</title>
<path fill="none" stroke="midnightblue" d="M1616.69,-235.48C1623.29,-226.55 1633.83,-212.31 1642.08,-201.14"/>
<polygon fill="midnightblue" stroke="midnightblue" points="1644.97,-203.13 1648.1,-193.01 1639.34,-198.97 1644.97,-203.13"/>
</g>
<!-- Node29 -->
<g id="node15" class="node">
<title>Node29</title>
<g id="a_node15"><a xlink:title=" ">
<polygon fill="white" stroke="#bfbfbf" points="719.89,-0.5 719.89,-19.5 766.89,-19.5 766.89,-0.5 719.89,-0.5"/>
<text text-anchor="middle" x="743.39" y="-7.5" font-family="Helvetica" font-size="10.00">TFile.h</text>
</a>
</g>
</g>
<!-- Node2&#45;&gt;Node29 -->
<g id="edge48" class="edge">
<title>Node2&#45;&gt;Node29</title>
<path fill="none" stroke="midnightblue" d="M1559.54,-244.24C1322.47,-245.09 331.84,-245.8 202.39,-199 156.82,-182.53 137.66,-175.53 116.39,-132 62.49,-21.68 571.26,-11.68 709.36,-10.99"/>
<polygon fill="midnightblue" stroke="midnightblue" points="709.76,-14.49 719.75,-10.95 709.74,-7.49 709.76,-14.49"/>
</g>
<!-- Node46 -->
<g id="node17" class="node">
<title>Node46</title>
<g id="a_node17"><a xlink:href="HistogramUtils_8h.html" target="_top" xlink:title=" ">
<polygon fill="white" stroke="black" points="2281.89,-112.5 2281.89,-131.5 2412.89,-131.5 2412.89,-112.5 2281.89,-112.5"/>
<text text-anchor="middle" x="2347.39" y="-119.5" font-family="Helvetica" font-size="10.00">Samples/HistogramUtils.h</text>
</a>
</g>
</g>
<!-- Node2&#45;&gt;Node46 -->
<g id="edge29" class="edge">
<title>Node2&#45;&gt;Node46</title>
<path fill="none" stroke="midnightblue" d="M1661.08,-235.98C1664.23,-235.61 1667.35,-235.28 1670.39,-235 1726.24,-229.83 2640.44,-239.36 2679.39,-199 2688.96,-189.09 2688.45,-178.38 2679.39,-168 2646.81,-130.71 2510.72,-123.12 2423.21,-122.21"/>
<polygon fill="midnightblue" stroke="midnightblue" points="2423.08,-118.71 2413.05,-122.14 2423.02,-125.71 2423.08,-118.71"/>
</g>
<!-- Node49 -->
<g id="node20" class="node">
<title>Node49</title>
<g id="a_node20"><a xlink:title=" ">
<polygon fill="white" stroke="#bfbfbf" points="405.39,-56.5 405.39,-75.5 477.39,-75.5 477.39,-56.5 405.39,-56.5"/>
<text text-anchor="middle" x="441.39" y="-63.5" font-family="Helvetica" font-size="10.00">TRandom3.h</text>
</a>
</g>
</g>
<!-- Node2&#45;&gt;Node49 -->
<g id="edge64" class="edge">
<title>Node2&#45;&gt;Node49</title>
<path fill="none" stroke="midnightblue" d="M1559.84,-244.41C1310.15,-245.87 216.84,-245.74 124.39,-132 118.78,-125.1 118.56,-118.71 124.39,-112 141.88,-91.85 311.43,-76.61 395.13,-70.25"/>
<polygon fill="midnightblue" stroke="midnightblue" points="395.42,-73.74 405.14,-69.5 394.9,-66.76 395.42,-73.74"/>
</g>
<!-- Node50 -->
<g id="node21" class="node">
<title>Node50</title>
<g id="a_node21"><a xlink:title=" ">
<polygon fill="white" stroke="#bfbfbf" points="1455.89,-112.5 1455.89,-131.5 1518.89,-131.5 1518.89,-112.5 1455.89,-112.5"/>
<text text-anchor="middle" x="1487.39" y="-119.5" font-family="Helvetica" font-size="10.00">TCanvas.h</text>
</a>
</g>
</g>
<!-- Node2&#45;&gt;Node50 -->
<g id="edge50" class="edge">
<title>Node2&#45;&gt;Node50</title>
<path fill="none" stroke="midnightblue" d="M1590.21,-235.37C1573.77,-227.62 1550.7,-215 1534.39,-199 1517.15,-182.09 1503.49,-157.64 1495.44,-141.07"/>
<polygon fill="midnightblue" stroke="midnightblue" points="1498.57,-139.5 1491.17,-131.92 1492.23,-142.46 1498.57,-139.5"/>
</g>
<!-- Node51 -->
<g id="node22" class="node">
<title>Node51</title>
<g id="a_node22"><a xlink:title=" ">
<polygon fill="white" stroke="#bfbfbf" points="1536.89,-112.5 1536.89,-131.5 1585.89,-131.5 1585.89,-112.5 1536.89,-112.5"/>
<text text-anchor="middle" x="1561.39" y="-119.5" font-family="Helvetica" font-size="10.00">TLine.h</text>
</a>
</g>
</g>
<!-- Node2&#45;&gt;Node51 -->
<g id="edge51" class="edge">
<title>Node2&#45;&gt;Node51</title>
<path fill="none" stroke="midnightblue" d="M1587.6,-235.47C1572.06,-228.32 1552.68,-216.44 1543.39,-199 1533.57,-180.57 1542.08,-156.8 1550.42,-140.8"/>
<polygon fill="midnightblue" stroke="midnightblue" points="1553.55,-142.37 1555.43,-131.95 1547.46,-138.93 1553.55,-142.37"/>
</g>
<!-- Node52 -->
<g id="node23" class="node">
<title>Node52</title>
<g id="a_node23"><a xlink:title=" ">
<polygon fill="white" stroke="#bfbfbf" points="1604.39,-112.5 1604.39,-131.5 1662.39,-131.5 1662.39,-112.5 1604.39,-112.5"/>
<text text-anchor="middle" x="1633.39" y="-119.5" font-family="Helvetica" font-size="10.00">TROOT.h</text>
</a>
</g>
</g>
<!-- Node2&#45;&gt;Node52 -->
<g id="edge62" class="edge">
<title>Node2&#45;&gt;Node52</title>
<path fill="none" stroke="midnightblue" d="M1592,-235.47C1578.29,-228 1560.58,-215.71 1552.39,-199 1546.33,-186.63 1545.4,-179.87 1552.39,-168 1561.58,-152.38 1578.36,-141.8 1594.27,-134.84"/>
<polygon fill="midnightblue" stroke="midnightblue" points="1596,-137.92 1604,-130.96 1593.41,-131.42 1596,-137.92"/>
</g>
<!-- Node53 -->
<g id="node24" class="node">
<title>Node53</title>
<g id="a_node24"><a xlink:title=" ">
<polygon fill="white" stroke="#bfbfbf" points="1680.89,-112.5 1680.89,-131.5 1733.89,-131.5 1733.89,-112.5 1680.89,-112.5"/>
<text text-anchor="middle" x="1707.39" y="-119.5" font-family="Helvetica" font-size="10.00">TStyle.h</text>
</a>
</g>
</g>
<!-- Node2&#45;&gt;Node53 -->
<g id="edge57" class="edge">
<title>Node2&#45;&gt;Node53</title>
<path fill="none" stroke="midnightblue" d="M1602.87,-235.3C1590.94,-220.37 1570.46,-189.42 1585.39,-168 1590.56,-160.58 1637.03,-144.83 1671.09,-134.08"/>
<polygon fill="midnightblue" stroke="midnightblue" points="1672.26,-137.38 1680.76,-131.05 1670.17,-130.69 1672.26,-137.38"/>
</g>
<!-- Node54 -->
<g id="node25" class="node">
<title>Node54</title>
<g id="a_node25"><a xlink:href="ParameterHandlerUtils_8h.html" target="_top" xlink:title=" ">
<polygon fill="white" stroke="red" points="747.89,-168.5 747.89,-198.5 896.89,-198.5 896.89,-168.5 747.89,-168.5"/>
<text text-anchor="start" x="755.89" y="-186.5" font-family="Helvetica" font-size="10.00">Parameters/ParameterHandler</text>
<text text-anchor="middle" x="822.39" y="-175.5" font-family="Helvetica" font-size="10.00">Utils.h</text>
</a>
</g>
</g>
<!-- Node2&#45;&gt;Node54 -->
<g id="edge30" class="edge">
<title>Node2&#45;&gt;Node54</title>
<path fill="none" stroke="midnightblue" d="M1559.6,-240.16C1427.33,-230.18 1071.14,-203.28 907.15,-190.9"/>
<polygon fill="midnightblue" stroke="midnightblue" points="907.34,-187.4 897.11,-190.14 906.82,-194.38 907.34,-187.4"/>
</g>
<!-- Node58 -->
<g id="node29" class="node">
<title>Node58</title>
<g id="a_node29"><a xlink:title=" ">
<polygon fill="white" stroke="#bfbfbf" points="133.39,-112.5 133.39,-131.5 199.39,-131.5 199.39,-112.5 133.39,-112.5"/>
<text text-anchor="middle" x="166.39" y="-119.5" font-family="Helvetica" font-size="10.00">TVectorD.h</text>
</a>
</g>
</g>
<!-- Node2&#45;&gt;Node58 -->
<g id="edge55" class="edge">
<title>Node2&#45;&gt;Node58</title>
<path fill="none" stroke="midnightblue" d="M1559.68,-242.72C1425.44,-239.04 1049.8,-226.87 738.39,-199 504.1,-178.03 445.68,-169.03 213.39,-132 212.12,-131.8 210.83,-131.59 209.54,-131.37"/>
<polygon fill="midnightblue" stroke="midnightblue" points="209.92,-127.88 199.47,-129.6 208.71,-134.78 209.92,-127.88"/>
</g>
<!-- Node42 -->
<g id="node32" class="node">
<title>Node42</title>
<g id="a_node32"><a xlink:title=" ">
<polygon fill="white" stroke="#bfbfbf" points="1027.39,-112.5 1027.39,-131.5 1077.39,-131.5 1077.39,-112.5 1027.39,-112.5"/>
<text text-anchor="middle" x="1052.39" y="-119.5" font-family="Helvetica" font-size="10.00">TTree.h</text>
</a>
</g>
</g>
<!-- Node2&#45;&gt;Node42 -->
<g id="edge61" class="edge">
<title>Node2&#45;&gt;Node42</title>
<path fill="none" stroke="midnightblue" d="M1559.82,-243.42C1483.71,-241.39 1335.79,-232.95 1215.39,-199 1162.83,-184.18 1106,-154.13 1075.27,-136.58"/>
<polygon fill="midnightblue" stroke="midnightblue" points="1077.02,-133.55 1066.61,-131.57 1073.51,-139.61 1077.02,-133.55"/>
</g>
<!-- Node61 -->
<g id="node33" class="node">
<title>Node61</title>
<g id="a_node33"><a xlink:title=" ">
<polygon fill="white" stroke="#bfbfbf" points="1095.89,-112.5 1095.89,-131.5 1148.89,-131.5 1148.89,-112.5 1095.89,-112.5"/>
<text text-anchor="middle" x="1122.39" y="-119.5" font-family="Helvetica" font-size="10.00">TMath.h</text>
</a>
</g>
</g>
<!-- Node2&#45;&gt;Node61 -->
<g id="edge67" class="edge">
<title>Node2&#45;&gt;Node61</title>
<path fill="none" stroke="midnightblue" d="M1559.85,-240.32C1498.88,-235.02 1393.69,-223.1 1306.39,-199 1247.92,-182.86 1183.14,-153.13 1148.19,-136.03"/>
<polygon fill="midnightblue" stroke="midnightblue" points="1149.66,-132.86 1139.15,-131.56 1146.56,-139.13 1149.66,-132.86"/>
</g>
<!-- Node45 -->
<g id="node35" class="node">
<title>Node45</title>
<g id="a_node35"><a xlink:title=" ">
<polygon fill="white" stroke="#bfbfbf" points="1166.89,-112.5 1166.89,-131.5 1243.89,-131.5 1243.89,-112.5 1166.89,-112.5"/>
<text text-anchor="middle" x="1205.39" y="-119.5" font-family="Helvetica" font-size="10.00">TStopwatch.h</text>
</a>
</g>
</g>
<!-- Node2&#45;&gt;Node45 -->
<g id="edge58" class="edge">
<title>Node2&#45;&gt;Node45</title>
<path fill="none" stroke="midnightblue" d="M1559.76,-236.15C1515.36,-228.65 1449.36,-215.97 1393.39,-199 1334.72,-181.22 1268.89,-152.46 1232.78,-135.89"/>
<polygon fill="midnightblue" stroke="midnightblue" points="1233.95,-132.58 1223.41,-131.56 1231.02,-138.93 1233.95,-132.58"/>
</g>
<!-- Node64 -->
<g id="node37" class="node">
<title>Node64</title>
<g id="a_node37"><a xlink:title=" ">
<polygon fill="white" stroke="#bfbfbf" points="1262.39,-112.5 1262.39,-131.5 1372.39,-131.5 1372.39,-112.5 1262.39,-112.5"/>
<text text-anchor="middle" x="1317.39" y="-119.5" font-family="Helvetica" font-size="10.00">TMatrixDSymEigen.h</text>
</a>
</g>
</g>
<!-- Node2&#45;&gt;Node64 -->
<g id="edge68" class="edge">
<title>Node2&#45;&gt;Node64</title>
<path fill="none" stroke="midnightblue" d="M1575.41,-235.48C1544.79,-227.54 1499.39,-214.6 1461.39,-199 1416.98,-180.77 1368.13,-153.29 1340.27,-136.85"/>
<polygon fill="midnightblue" stroke="midnightblue" points="1342.04,-133.83 1331.66,-131.72 1338.46,-139.85 1342.04,-133.83"/>
</g>
<!-- Node67 -->
<g id="node39" class="node">
<title>Node67</title>
<g id="a_node39"><a xlink:title=" ">
<polygon fill="white" stroke="#bfbfbf" points="1390.89,-112.5 1390.89,-131.5 1437.89,-131.5 1437.89,-112.5 1390.89,-112.5"/>
<text text-anchor="middle" x="1414.39" y="-119.5" font-family="Helvetica" font-size="10.00">TKey.h</text>
</a>
</g>
</g>
<!-- Node2&#45;&gt;Node67 -->
<g id="edge63" class="edge">
<title>Node2&#45;&gt;Node67</title>
<path fill="none" stroke="midnightblue" d="M1585.74,-235.41C1564.27,-227.43 1532.7,-214.47 1507.39,-199 1478.49,-181.34 1448.83,-155.5 1431,-138.96"/>
<polygon fill="midnightblue" stroke="midnightblue" points="1432.94,-135.98 1423.26,-131.67 1428.14,-141.07 1432.94,-135.98"/>
</g>
<!-- Node43 -->
<g id="node40" class="node">
<title>Node43</title>
<g id="a_node40"><a xlink:title=" ">
<polygon fill="white" stroke="#bfbfbf" points="1732.39,-174 1732.39,-193 1794.39,-193 1794.39,-174 1732.39,-174"/>
<text text-anchor="middle" x="1763.39" y="-181" font-family="Helvetica" font-size="10.00">TBranch.h</text>
</a>
</g>
</g>
<!-- Node2&#45;&gt;Node43 -->
<g id="edge49" class="edge">
<title>Node2&#45;&gt;Node43</title>
<path fill="none" stroke="midnightblue" d="M1632.31,-235.48C1658.44,-225.31 1702.3,-208.26 1732.02,-196.7"/>
<polygon fill="midnightblue" stroke="midnightblue" points="1733.46,-199.9 1741.51,-193.01 1730.92,-193.37 1733.46,-199.9"/>
</g>
<!-- Node68 -->
<g id="node41" class="node">
<title>Node68</title>
<g id="a_node41"><a xlink:title=" ">
<polygon fill="white" stroke="#bfbfbf" points="1812.39,-174 1812.39,-193 1874.39,-193 1874.39,-174 1812.39,-174"/>
<text text-anchor="middle" x="1843.39" y="-181" font-family="Helvetica" font-size="10.00">TLegend.h</text>
</a>
</g>
</g>
<!-- Node2&#45;&gt;Node68 -->
<g id="edge52" class="edge">
<title>Node2&#45;&gt;Node68</title>
<path fill="none" stroke="midnightblue" d="M1653.7,-235.44C1693.07,-227.29 1752.59,-214.07 1803.39,-199 1806.02,-198.22 1808.73,-197.36 1811.44,-196.46"/>
<polygon fill="midnightblue" stroke="midnightblue" points="1812.82,-199.69 1821.12,-193.1 1810.53,-193.07 1812.82,-199.69"/>
</g>
<!-- Node69 -->
<g id="node42" class="node">
<title>Node69</title>
<g id="a_node42"><a xlink:title=" ">
<polygon fill="white" stroke="#bfbfbf" points="1892.39,-174 1892.39,-193 1948.39,-193 1948.39,-174 1892.39,-174"/>
<text text-anchor="middle" x="1920.39" y="-181" font-family="Helvetica" font-size="10.00">TString.h</text>
</a>
</g>
</g>
<!-- Node2&#45;&gt;Node69 -->
<g id="edge53" class="edge">
<title>Node2&#45;&gt;Node69</title>
<path fill="none" stroke="midnightblue" d="M1660.96,-236.25C1733.93,-224.98 1862.37,-204.78 1883.39,-199 1885.98,-198.29 1888.64,-197.45 1891.29,-196.56"/>
<polygon fill="midnightblue" stroke="midnightblue" points="1892.5,-199.84 1900.68,-193.11 1890.09,-193.27 1892.5,-199.84"/>
</g>
<!-- Node70 -->
<g id="node43" class="node">
<title>Node70</title>
<g id="a_node43"><a xlink:title=" ">
<polygon fill="white" stroke="#bfbfbf" points="1966.39,-174 1966.39,-193 2050.39,-193 2050.39,-174 1966.39,-174"/>
<text text-anchor="middle" x="2008.39" y="-181" font-family="Helvetica" font-size="10.00">TGraphErrors.h</text>
</a>
</g>
</g>
<!-- Node2&#45;&gt;Node70 -->
<g id="edge54" class="edge">
<title>Node2&#45;&gt;Node70</title>
<path fill="none" stroke="midnightblue" d="M1661.12,-236.3C1664.25,-235.85 1667.36,-235.42 1670.39,-235 1797.74,-217.46 1831.42,-224.65 1957.39,-199 1961.93,-198.08 1966.65,-196.96 1971.31,-195.75"/>
<polygon fill="midnightblue" stroke="midnightblue" points="1972.59,-199.03 1981.32,-193.02 1970.75,-192.28 1972.59,-199.03"/>
</g>
<!-- Node71 -->
<g id="node44" class="node">
<title>Node71</title>
<g id="a_node44"><a xlink:title=" ">
<polygon fill="white" stroke="#bfbfbf" points="2068.39,-174 2068.39,-193 2122.39,-193 2122.39,-174 2068.39,-174"/>
<text text-anchor="middle" x="2095.39" y="-181" font-family="Helvetica" font-size="10.00">TColor.h</text>
</a>
</g>
</g>
<!-- Node2&#45;&gt;Node71 -->
<g id="edge56" class="edge">
<title>Node2&#45;&gt;Node71</title>
<path fill="none" stroke="midnightblue" d="M1661.1,-236.19C1664.24,-235.77 1667.36,-235.37 1670.39,-235 1842.76,-214.11 1890.64,-239.87 2059.39,-199 2062.06,-198.35 2064.79,-197.54 2067.5,-196.64"/>
<polygon fill="midnightblue" stroke="midnightblue" points="2068.9,-199.86 2077.04,-193.08 2066.45,-193.3 2068.9,-199.86"/>
</g>
<!-- Node72 -->
<g id="node45" class="node">
<title>Node72</title>
<g id="a_node45"><a xlink:title=" ">
<polygon fill="white" stroke="#bfbfbf" points="2140.89,-174 2140.89,-193 2189.89,-193 2189.89,-174 2140.89,-174"/>
<text text-anchor="middle" x="2165.39" y="-181" font-family="Helvetica" font-size="10.00">TText.h</text>
</a>
</g>
</g>
<!-- Node2&#45;&gt;Node72 -->
<g id="edge59" class="edge">
<title>Node2&#45;&gt;Node72</title>
<path fill="none" stroke="midnightblue" d="M1661.1,-236.14C1664.24,-235.73 1667.36,-235.35 1670.39,-235 1874.58,-211.74 1931.79,-247.96 2131.39,-199 2133.76,-198.42 2136.17,-197.69 2138.56,-196.87"/>
<polygon fill="midnightblue" stroke="midnightblue" points="2140.07,-200.04 2148.12,-193.15 2137.53,-193.52 2140.07,-200.04"/>
</g>
<!-- Node73 -->
<g id="node46" class="node">
<title>Node73</title>
<g id="a_node46"><a xlink:title=" ">
<polygon fill="white" stroke="#bfbfbf" points="2207.89,-174 2207.89,-193 2264.89,-193 2264.89,-174 2207.89,-174"/>
<text text-anchor="middle" x="2236.39" y="-181" font-family="Helvetica" font-size="10.00">TGaxis.h</text>
</a>
</g>
</g>
<!-- Node2&#45;&gt;Node73 -->
<g id="edge60" class="edge">
<title>Node2&#45;&gt;Node73</title>
<path fill="none" stroke="midnightblue" d="M1661.09,-236.1C1664.23,-235.7 1667.35,-235.33 1670.39,-235 1904.66,-209.5 1969.45,-250.59 2199.39,-199 2202.39,-198.33 2205.47,-197.45 2208.5,-196.46"/>
<polygon fill="midnightblue" stroke="midnightblue" points="2209.73,-199.74 2217.92,-193.02 2207.32,-193.16 2209.73,-199.74"/>
</g>
<!-- Node74 -->
<g id="node47" class="node">
<title>Node74</title>
<g id="a_node47"><a xlink:title=" ">
<polygon fill="white" stroke="#bfbfbf" points="2283.39,-174 2283.39,-193 2363.39,-193 2363.39,-174 2283.39,-174"/>
<text text-anchor="middle" x="2323.39" y="-181" font-family="Helvetica" font-size="10.00">TGraphPolar.h</text>
</a>
</g>
</g>
<!-- Node2&#45;&gt;Node74 -->
<g id="edge65" class="edge">
<title>Node2&#45;&gt;Node74</title>
<path fill="none" stroke="midnightblue" d="M1661.09,-236.07C1664.23,-235.68 1667.35,-235.32 1670.39,-235 1937.85,-207.03 2009.51,-245.46 2274.39,-199 2279.11,-198.17 2284.02,-197.05 2288.83,-195.79"/>
<polygon fill="midnightblue" stroke="midnightblue" points="2289.8,-199.15 2298.47,-193.07 2287.9,-192.42 2289.8,-199.15"/>
</g>
<!-- Node75 -->
<g id="node48" class="node">
<title>Node75</title>
<g id="a_node48"><a xlink:title=" ">
<polygon fill="white" stroke="#bfbfbf" points="2381.89,-174 2381.89,-193 2442.89,-193 2442.89,-174 2381.89,-174"/>
<text text-anchor="middle" x="2412.39" y="-181" font-family="Helvetica" font-size="10.00">TCandle.h</text>
</a>
</g>
</g>
<!-- Node2&#45;&gt;Node75 -->
<g id="edge66" class="edge">
<title>Node2&#45;&gt;Node75</title>
<path fill="none" stroke="midnightblue" d="M1661.09,-236.04C1664.23,-235.66 1667.35,-235.31 1670.39,-235 1981.24,-203.79 2066.18,-260.91 2372.39,-199 2375.82,-198.31 2379.36,-197.37 2382.84,-196.31"/>
<polygon fill="midnightblue" stroke="midnightblue" points="2384.03,-199.6 2392.38,-193.07 2381.78,-192.97 2384.03,-199.6"/>
</g>
<!-- Node76 -->
<g id="node49" class="node">
<title>Node76</title>
<g id="a_node49"><a xlink:title=" ">
<polygon fill="white" stroke="#bfbfbf" points="2460.89,-174 2460.89,-193 2537.89,-193 2537.89,-174 2460.89,-174"/>
<text text-anchor="middle" x="2499.39" y="-181" font-family="Helvetica" font-size="10.00">TVirtualFFT.h</text>
</a>
</g>
</g>
<!-- Node2&#45;&gt;Node76 -->
<g id="edge69" class="edge">
<title>Node2&#45;&gt;Node76</title>
<path fill="none" stroke="midnightblue" d="M1661.08,-236.02C1664.23,-235.64 1667.35,-235.3 1670.39,-235 2016.66,-201.15 2109.64,-258.76 2452.39,-199 2456.86,-198.22 2461.51,-197.14 2466.06,-195.91"/>
<polygon fill="midnightblue" stroke="midnightblue" points="2467.16,-199.24 2475.77,-193.07 2465.19,-192.52 2467.16,-199.24"/>
</g>
<!-- Node6 -->
<g id="node6" class="node">
<title>Node6</title>
<g id="a_node6"><a xlink:title=" ">
<polygon fill="white" stroke="#bfbfbf" points="1873.39,-112.5 1873.39,-131.5 1927.39,-131.5 1927.39,-112.5 1873.39,-112.5"/>
<text text-anchor="middle" x="1900.39" y="-119.5" font-family="Helvetica" font-size="10.00">iostream</text>
</a>
</g>
</g>
<!-- Node5&#45;&gt;Node6 -->
<g id="edge5" class="edge">
<title>Node5&#45;&gt;Node6</title>
<path fill="none" stroke="midnightblue" d="M1690.46,-173.93C1730.35,-164.43 1796.79,-148.54 1863.44,-132.22"/>
<polygon fill="midnightblue" stroke="midnightblue" points="1864.39,-135.59 1873.27,-129.81 1862.72,-128.79 1864.39,-135.59"/>
</g>
<!-- Node7 -->
<g id="node7" class="node">
<title>Node7</title>
<g id="a_node7"><a xlink:title=" ">
<polygon fill="white" stroke="#bfbfbf" points="1945.39,-112.5 1945.39,-131.5 1997.39,-131.5 1997.39,-112.5 1945.39,-112.5"/>
<text text-anchor="middle" x="1971.39" y="-119.5" font-family="Helvetica" font-size="10.00">sstream</text>
</a>
</g>
</g>
<!-- Node5&#45;&gt;Node7 -->
<g id="edge6" class="edge">
<title>Node5&#45;&gt;Node7</title>
<path fill="none" stroke="midnightblue" d="M1693.74,-173.95C1703.42,-171.92 1713.77,-169.82 1723.39,-168 1814.59,-150.72 1840.76,-151.87 1935.11,-132.13"/>
<polygon fill="midnightblue" stroke="midnightblue" points="1936.01,-135.52 1945.07,-130.02 1934.57,-128.67 1936.01,-135.52"/>
</g>
<!-- Node8 -->
<g id="node8" class="node">
<title>Node8</title>
<g id="a_node8"><a xlink:title=" ">
<polygon fill="white" stroke="#bfbfbf" points="2015.39,-112.5 2015.39,-131.5 2065.39,-131.5 2065.39,-112.5 2015.39,-112.5"/>
<text text-anchor="middle" x="2040.39" y="-119.5" font-family="Helvetica" font-size="10.00">iomanip</text>
</a>
</g>
</g>
<!-- Node5&#45;&gt;Node8 -->
<g id="edge7" class="edge">
<title>Node5&#45;&gt;Node8</title>
<path fill="none" stroke="midnightblue" d="M1692.25,-173.97C1702.34,-171.86 1713.25,-169.71 1723.39,-168 1845.25,-147.48 1880.18,-155.82 2005.26,-131.99"/>
<polygon fill="midnightblue" stroke="midnightblue" points="2006.07,-135.4 2015.23,-130.06 2004.74,-128.52 2006.07,-135.4"/>
</g>
<!-- Node9 -->
<g id="node9" class="node">
<title>Node9</title>
<g id="a_node9"><a xlink:title=" ">
<polygon fill="white" stroke="#bfbfbf" points="2083.89,-112.5 2083.89,-131.5 2126.89,-131.5 2126.89,-112.5 2083.89,-112.5"/>
<text text-anchor="middle" x="2105.39" y="-119.5" font-family="Helvetica" font-size="10.00">vector</text>
</a>
</g>
</g>
<!-- Node5&#45;&gt;Node9 -->
<g id="edge8" class="edge">
<title>Node5&#45;&gt;Node9</title>
<path fill="none" stroke="midnightblue" d="M1691.5,-173.96C1701.79,-171.79 1712.99,-169.62 1723.39,-168 1875.16,-144.34 1918.69,-161.26 2073.93,-131.72"/>
<polygon fill="midnightblue" stroke="midnightblue" points="2074.68,-135.14 2083.83,-129.8 2073.35,-128.26 2074.68,-135.14"/>
</g>
<!-- Node10 -->
<g id="node10" class="node">
<title>Node10</title>
<g id="a_node10"><a xlink:title=" ">
<polygon fill="white" stroke="#bfbfbf" points="2145.39,-112.5 2145.39,-131.5 2201.39,-131.5 2201.39,-112.5 2145.39,-112.5"/>
<text text-anchor="middle" x="2173.39" y="-119.5" font-family="Helvetica" font-size="10.00">algorithm</text>
</a>
</g>
</g>
<!-- Node5&#45;&gt;Node10 -->
<g id="edge9" class="edge">
<title>Node5&#45;&gt;Node10</title>
<path fill="none" stroke="midnightblue" d="M1691.13,-173.93C1701.51,-171.73 1712.86,-169.56 1723.39,-168 1902.45,-141.48 1952.81,-161.14 2135.28,-131.94"/>
<polygon fill="midnightblue" stroke="midnightblue" points="2135.89,-135.39 2145.2,-130.32 2134.77,-128.48 2135.89,-135.39"/>
</g>
<!-- Node11 -->
<g id="node11" class="node">
<title>Node11</title>
<g id="a_node11"><a xlink:title=" ">
<polygon fill="white" stroke="#bfbfbf" points="2219.39,-112.5 2219.39,-131.5 2263.39,-131.5 2263.39,-112.5 2219.39,-112.5"/>
<text text-anchor="middle" x="2241.39" y="-119.5" font-family="Helvetica" font-size="10.00">cmath</text>
</a>
</g>
</g>
<!-- Node5&#45;&gt;Node11 -->
<g id="edge10" class="edge">
<title>Node5&#45;&gt;Node11</title>
<path fill="none" stroke="midnightblue" d="M1690.4,-173.99C1700.98,-171.74 1712.6,-169.53 1723.39,-168 1935.04,-138.08 1994.98,-169.49 2209.18,-131.84"/>
<polygon fill="midnightblue" stroke="midnightblue" points="2209.94,-135.26 2219.17,-130.05 2208.71,-128.37 2209.94,-135.26"/>
</g>
<!-- Node12 -->
<g id="node12" class="node">
<title>Node12</title>
<g id="a_node12"><a xlink:href="Manager_8h.html" target="_top" xlink:title=" ">
<polygon fill="white" stroke="red" points="1751.89,-112.5 1751.89,-131.5 1854.89,-131.5 1854.89,-112.5 1751.89,-112.5"/>
<text text-anchor="middle" x="1803.39" y="-119.5" font-family="Helvetica" font-size="10.00">Manager/Manager.h</text>
</a>
</g>
</g>
<!-- Node5&#45;&gt;Node12 -->
<g id="edge11" class="edge">
<title>Node5&#45;&gt;Node12</title>
<path fill="none" stroke="midnightblue" d="M1675.74,-173.98C1701.08,-163.86 1743.53,-146.9 1772.46,-135.35"/>
<polygon fill="midnightblue" stroke="midnightblue" points="1774.09,-138.47 1782.08,-131.51 1771.5,-131.97 1774.09,-138.47"/>
</g>
<!-- Node5&#45;&gt;Node46 -->
<g id="edge16" class="edge">
<title>Node5&#45;&gt;Node46</title>
<path fill="none" stroke="midnightblue" d="M1690.39,-173.93C1700.97,-171.68 1712.6,-169.48 1723.39,-168 1962.33,-135.23 2027.15,-154.04 2271.3,-132.04"/>
<polygon fill="midnightblue" stroke="midnightblue" points="2271.92,-135.5 2281.56,-131.1 2271.28,-128.53 2271.92,-135.5"/>
</g>
<!-- Node5&#45;&gt;Node50 -->
<g id="edge25" class="edge">
<title>Node5&#45;&gt;Node50</title>
<path fill="none" stroke="midnightblue" d="M1630.46,-173.98C1601.69,-163.72 1553.23,-146.46 1520.79,-134.9"/>
<polygon fill="midnightblue" stroke="midnightblue" points="1521.87,-131.57 1511.27,-131.51 1519.52,-138.16 1521.87,-131.57"/>
</g>
<!-- Node5&#45;&gt;Node51 -->
<g id="edge26" class="edge">
<title>Node5&#45;&gt;Node51</title>
<path fill="none" stroke="midnightblue" d="M1641.07,-173.98C1626.01,-164.34 1601.27,-148.52 1583.35,-137.05"/>
<polygon fill="midnightblue" stroke="midnightblue" points="1585,-133.95 1574.69,-131.51 1581.23,-139.85 1585,-133.95"/>
</g>
<!-- Node5&#45;&gt;Node52 -->
<g id="edge27" class="edge">
<title>Node5&#45;&gt;Node52</title>
<path fill="none" stroke="midnightblue" d="M1651.38,-173.98C1648.36,-165.4 1643.6,-151.93 1639.74,-140.98"/>
<polygon fill="midnightblue" stroke="midnightblue" points="1643.02,-139.77 1636.39,-131.51 1636.42,-142.1 1643.02,-139.77"/>
</g>
<!-- Node5&#45;&gt;Node53 -->
<g id="edge28" class="edge">
<title>Node5&#45;&gt;Node53</title>
<path fill="none" stroke="midnightblue" d="M1661.98,-173.98C1670.09,-164.87 1683.13,-150.24 1693.15,-138.98"/>
<polygon fill="midnightblue" stroke="midnightblue" points="1695.77,-141.3 1699.81,-131.51 1690.55,-136.65 1695.77,-141.3"/>
</g>
<!-- Node13 -->
<g id="node13" class="node">
<title>Node13</title>
<g id="a_node13"><a xlink:href="SampleStructs_8h.html" target="_top" xlink:title=" ">
<polygon fill="white" stroke="red" points="1576.89,-56.5 1576.89,-75.5 1707.89,-75.5 1707.89,-56.5 1576.89,-56.5"/>
<text text-anchor="middle" x="1642.39" y="-63.5" font-family="Helvetica" font-size="10.00">Samples/SampleStructs.h</text>
</a>
</g>
</g>
<!-- Node12&#45;&gt;Node13 -->
<g id="edge12" class="edge">
<title>Node12&#45;&gt;Node13</title>
<path fill="none" stroke="midnightblue" d="M1777.88,-112.44C1750.79,-103.36 1707.8,-88.94 1677.52,-78.78"/>
<polygon fill="midnightblue" stroke="midnightblue" points="1678.38,-75.38 1667.78,-75.52 1676.15,-82.01 1678.38,-75.38"/>
</g>
<!-- Node28 -->
<g id="node14" class="node">
<title>Node28</title>
<g id="a_node14"><a xlink:title=" ">
<polygon fill="white" stroke="#bfbfbf" points="1606.89,-0.5 1606.89,-19.5 1677.89,-19.5 1677.89,-0.5 1606.89,-0.5"/>
<text text-anchor="middle" x="1642.39" y="-7.5" font-family="Helvetica" font-size="10.00">TObjString.h</text>
</a>
</g>
</g>
<!-- Node13&#45;&gt;Node28 -->
<g id="edge13" class="edge">
<title>Node13&#45;&gt;Node28</title>
<path fill="none" stroke="midnightblue" d="M1642.39,-56.08C1642.39,-49.01 1642.39,-38.86 1642.39,-29.99"/>
<polygon fill="midnightblue" stroke="midnightblue" points="1645.89,-29.75 1642.39,-19.75 1638.89,-29.75 1645.89,-29.75"/>
</g>
<!-- Node13&#45;&gt;Node29 -->
<g id="edge14" class="edge">
<title>Node13&#45;&gt;Node29</title>
<path fill="none" stroke="midnightblue" d="M1576.65,-61.05C1398.32,-50.34 909.91,-21 777.11,-13.03"/>
<polygon fill="midnightblue" stroke="midnightblue" points="777.31,-9.53 767.11,-12.42 776.89,-16.52 777.31,-9.53"/>
</g>
<!-- Node13&#45;&gt;Node30 -->
<g id="edge15" class="edge">
<title>Node13&#45;&gt;Node30</title>
<path fill="none" stroke="midnightblue" d="M1576.88,-57.66C1471.67,-45.87 1268.98,-23.17 1191.52,-14.49"/>
<polygon fill="midnightblue" stroke="midnightblue" points="1191.78,-10.99 1181.45,-13.36 1191,-17.95 1191.78,-10.99"/>
</g>
<!-- Node46&#45;&gt;Node13 -->
<g id="edge17" class="edge">
<title>Node46&#45;&gt;Node13</title>
<path fill="none" stroke="midnightblue" d="M2281.56,-112.92C2278.46,-112.6 2275.39,-112.29 2272.39,-112 2072.72,-92.9 1836.75,-78.12 1718.29,-71.24"/>
<polygon fill="midnightblue" stroke="midnightblue" points="1718.42,-67.74 1708.23,-70.66 1718.01,-74.73 1718.42,-67.74"/>
</g>
<!-- Node46&#45;&gt;Node28 -->
<g id="edge23" class="edge">
<title>Node46&#45;&gt;Node28</title>
<path fill="none" stroke="midnightblue" d="M2347.73,-112.15C2347.75,-97.8 2345.45,-69.68 2328.39,-56 2278.66,-16.11 1834.12,-11.46 1688.41,-11.01"/>
<polygon fill="midnightblue" stroke="midnightblue" points="1688.05,-7.51 1678.04,-10.99 1688.03,-14.51 1688.05,-7.51"/>
</g>
<!-- Node47 -->
<g id="node18" class="node">
<title>Node47</title>
<g id="a_node18"><a xlink:href="ParameterStructs_8h.html" target="_top" xlink:title="Definitions of generic parameter structs and utility templates for MaCh3.">
<polygon fill="white" stroke="red" points="1082.89,-56.5 1082.89,-75.5 1237.89,-75.5 1237.89,-56.5 1082.89,-56.5"/>
<text text-anchor="middle" x="1160.39" y="-63.5" font-family="Helvetica" font-size="10.00">Parameters/ParameterStructs.h</text>
</a>
</g>
</g>
<!-- Node46&#45;&gt;Node47 -->
<g id="edge18" class="edge">
<title>Node46&#45;&gt;Node47</title>
<path fill="none" stroke="midnightblue" d="M2281.57,-112.8C2278.47,-112.51 2275.4,-112.24 2272.39,-112 2073.94,-96.1 1474.37,-76.64 1248.1,-69.65"/>
<polygon fill="midnightblue" stroke="midnightblue" points="1248.04,-66.15 1237.94,-69.34 1247.83,-73.15 1248.04,-66.15"/>
</g>
<!-- Node48 -->
<g id="node19" class="node">
<title>Node48</title>
<g id="a_node19"><a xlink:title=" ">
<polygon fill="white" stroke="#bfbfbf" points="2201.89,-56.5 2201.89,-75.5 2318.89,-75.5 2318.89,-56.5 2201.89,-56.5"/>
<text text-anchor="middle" x="2260.39" y="-63.5" font-family="Helvetica" font-size="10.00">TGraphAsymmErrors.h</text>
</a>
</g>
</g>
<!-- Node46&#45;&gt;Node48 -->
<g id="edge22" class="edge">
<title>Node46&#45;&gt;Node48</title>
<path fill="none" stroke="midnightblue" d="M2333.41,-112.32C2319.84,-103.9 2299.01,-90.97 2283.07,-81.07"/>
<polygon fill="midnightblue" stroke="midnightblue" points="2284.68,-77.95 2274.33,-75.65 2280.98,-83.9 2284.68,-77.95"/>
</g>
<!-- Node46&#45;&gt;Node49 -->
<g id="edge24" class="edge">
<title>Node46&#45;&gt;Node49</title>
<path fill="none" stroke="midnightblue" d="M2281.57,-112.74C2278.47,-112.47 2275.4,-112.22 2272.39,-112 1910.09,-85.87 736.12,-70.54 487.8,-67.54"/>
<polygon fill="midnightblue" stroke="midnightblue" points="487.72,-64.04 477.67,-67.42 487.63,-71.04 487.72,-64.04"/>
</g>
<!-- Node47&#45;&gt;Node28 -->
<g id="edge19" class="edge">
<title>Node47&#45;&gt;Node28</title>
<path fill="none" stroke="midnightblue" d="M1236.5,-56.47C1337.75,-45.13 1513.6,-25.43 1596.56,-16.13"/>
<polygon fill="midnightblue" stroke="midnightblue" points="1597.14,-19.59 1606.69,-15 1596.36,-12.64 1597.14,-19.59"/>
</g>
<!-- Node47&#45;&gt;Node29 -->
<g id="edge20" class="edge">
<title>Node47&#45;&gt;Node29</title>
<path fill="none" stroke="midnightblue" d="M1094.32,-56.44C1004.28,-44.78 846.39,-24.34 777.33,-15.4"/>
<polygon fill="midnightblue" stroke="midnightblue" points="777.41,-11.88 767.04,-14.06 776.51,-18.82 777.41,-11.88"/>
</g>
<!-- Node47&#45;&gt;Node30 -->
<g id="edge21" class="edge">
<title>Node47&#45;&gt;Node30</title>
<path fill="none" stroke="midnightblue" d="M1160.39,-56.08C1160.39,-49.01 1160.39,-38.86 1160.39,-29.99"/>
<polygon fill="midnightblue" stroke="midnightblue" points="1163.89,-29.75 1160.39,-19.75 1156.89,-29.75 1163.89,-29.75"/>
</g>
<!-- Node54&#45;&gt;Node29 -->
<g id="edge39" class="edge">
<title>Node54&#45;&gt;Node29</title>
<path fill="none" stroke="midnightblue" d="M747.8,-177.27C593.9,-166.3 254.77,-141.15 246.39,-132 181.02,-60.65 587.09,-23.09 709.34,-13.5"/>
<polygon fill="midnightblue" stroke="midnightblue" points="709.91,-16.97 719.61,-12.71 709.37,-9.99 709.91,-16.97"/>
</g>
<!-- Node54&#45;&gt;Node47 -->
<g id="edge31" class="edge">
<title>Node54&#45;&gt;Node47</title>
<path fill="none" stroke="midnightblue" d="M873.34,-168.4C904.44,-159.24 944.73,-146.35 979.39,-132 997.39,-124.55 1000.38,-119.41 1018.39,-112 1051.34,-98.44 1089.94,-86.45 1118.58,-78.26"/>
<polygon fill="midnightblue" stroke="midnightblue" points="1119.59,-81.61 1128.27,-75.52 1117.69,-74.87 1119.59,-81.61"/>
</g>
<!-- Node54&#45;&gt;Node49 -->
<g id="edge40" class="edge">
<title>Node54&#45;&gt;Node49</title>
<path fill="none" stroke="midnightblue" d="M747.62,-181.38C654.39,-178.45 502.17,-168.09 460.39,-132 447.2,-120.61 442.92,-100.62 441.65,-85.81"/>
<polygon fill="midnightblue" stroke="midnightblue" points="445.14,-85.54 441.16,-75.72 438.14,-85.87 445.14,-85.54"/>
</g>
<!-- Node55 -->
<g id="node26" class="node">
<title>Node55</title>
<g id="a_node26"><a xlink:title=" ">
<polygon fill="white" stroke="#bfbfbf" points="651.89,-112.5 651.89,-131.5 714.89,-131.5 714.89,-112.5 651.89,-112.5"/>
<text text-anchor="middle" x="683.39" y="-119.5" font-family="Helvetica" font-size="10.00">TMatrixT.h</text>
</a>
</g>
</g>
<!-- Node54&#45;&gt;Node55 -->
<g id="edge32" class="edge">
<title>Node54&#45;&gt;Node55</title>
<path fill="none" stroke="midnightblue" d="M789.45,-168.4C766.23,-158.46 735.4,-145.26 712.97,-135.66"/>
<polygon fill="midnightblue" stroke="midnightblue" points="714.19,-132.38 703.62,-131.66 711.43,-138.81 714.19,-132.38"/>
</g>
<!-- Node56 -->
<g id="node27" class="node">
<title>Node56</title>
<g id="a_node27"><a xlink:title=" ">
<polygon fill="white" stroke="#bfbfbf" points="733.39,-112.5 733.39,-131.5 819.39,-131.5 819.39,-112.5 733.39,-112.5"/>
<text text-anchor="middle" x="776.39" y="-119.5" font-family="Helvetica" font-size="10.00">TMatrixDSym.h</text>
</a>
</g>
</g>
<!-- Node54&#45;&gt;Node56 -->
<g id="edge33" class="edge">
<title>Node54&#45;&gt;Node56</title>
<path fill="none" stroke="midnightblue" d="M811.49,-168.4C804.8,-159.75 796.21,-148.64 789.21,-139.58"/>
<polygon fill="midnightblue" stroke="midnightblue" points="791.97,-137.43 783.08,-131.66 786.43,-141.71 791.97,-137.43"/>
</g>
<!-- Node57 -->
<g id="node28" class="node">
<title>Node57</title>
<g id="a_node28"><a xlink:title=" ">
<polygon fill="white" stroke="#bfbfbf" points="837.39,-112.5 837.39,-131.5 901.39,-131.5 901.39,-112.5 837.39,-112.5"/>
<text text-anchor="middle" x="869.39" y="-119.5" font-family="Helvetica" font-size="10.00">TVectorT.h</text>
</a>
</g>
</g>
<!-- Node54&#45;&gt;Node57 -->
<g id="edge34" class="edge">
<title>Node54&#45;&gt;Node57</title>
<path fill="none" stroke="midnightblue" d="M833.53,-168.4C840.36,-159.75 849.14,-148.64 856.3,-139.58"/>
<polygon fill="midnightblue" stroke="midnightblue" points="859.1,-141.67 862.55,-131.66 853.61,-137.34 859.1,-141.67"/>
</g>
<!-- Node54&#45;&gt;Node58 -->
<g id="edge35" class="edge">
<title>Node54&#45;&gt;Node58</title>
<path fill="none" stroke="midnightblue" d="M747.58,-178.87C632.42,-172.7 404.96,-158.21 213.39,-132 212.12,-131.83 210.83,-131.64 209.52,-131.44"/>
<polygon fill="midnightblue" stroke="midnightblue" points="209.88,-127.96 199.44,-129.79 208.74,-134.86 209.88,-127.96"/>
</g>
<!-- Node59 -->
<g id="node30" class="node">
<title>Node59</title>
<g id="a_node30"><a xlink:title=" ">
<polygon fill="white" stroke="#bfbfbf" points="919.89,-112.5 919.89,-131.5 970.89,-131.5 970.89,-112.5 919.89,-112.5"/>
<text text-anchor="middle" x="945.39" y="-119.5" font-family="Helvetica" font-size="10.00">TH1D.h</text>
</a>
</g>
</g>
<!-- Node54&#45;&gt;Node59 -->
<g id="edge36" class="edge">
<title>Node54&#45;&gt;Node59</title>
<path fill="none" stroke="midnightblue" d="M851.54,-168.4C871.81,-158.59 898.63,-145.62 918.41,-136.05"/>
<polygon fill="midnightblue" stroke="midnightblue" points="920.01,-139.16 927.49,-131.66 916.97,-132.86 920.01,-139.16"/>
</g>
<!-- Node60 -->
<g id="node31" class="node">
<title>Node60</title>
<g id="a_node31"><a xlink:title=" ">
<polygon fill="white" stroke="#bfbfbf" points="255.89,-112.5 255.89,-131.5 306.89,-131.5 306.89,-112.5 255.89,-112.5"/>
<text text-anchor="middle" x="281.39" y="-119.5" font-family="Helvetica" font-size="10.00">TH2D.h</text>
</a>
</g>
</g>
<!-- Node54&#45;&gt;Node60 -->
<g id="edge37" class="edge">
<title>Node54&#45;&gt;Node60</title>
<path fill="none" stroke="midnightblue" d="M747.74,-178.61C650.63,-172.76 475.65,-159.51 316.86,-131.8"/>
<polygon fill="midnightblue" stroke="midnightblue" points="317.36,-128.33 306.91,-130.04 316.14,-135.23 317.36,-128.33"/>
</g>
<!-- Node54&#45;&gt;Node42 -->
<g id="edge38" class="edge">
<title>Node54&#45;&gt;Node42</title>
<path fill="none" stroke="midnightblue" d="M876.61,-168.47C920.07,-157.23 979.78,-141.78 1017.22,-132.1"/>
<polygon fill="midnightblue" stroke="midnightblue" points="1018.35,-135.42 1027.15,-129.53 1016.59,-128.65 1018.35,-135.42"/>
</g>
<!-- Node54&#45;&gt;Node61 -->
<g id="edge41" class="edge">
<title>Node54&#45;&gt;Node61</title>
<path fill="none" stroke="midnightblue" d="M897.15,-169.35C947.76,-160.18 1016.33,-147.24 1085.88,-132.01"/>
<polygon fill="midnightblue" stroke="midnightblue" points="1086.68,-135.42 1095.69,-129.85 1085.17,-128.59 1086.68,-135.42"/>
</g>
<!-- Node62 -->
<g id="node34" class="node">
<title>Node62</title>
<g id="a_node34"><a xlink:title=" ">
<polygon fill="white" stroke="#bfbfbf" points="325.39,-112.5 325.39,-131.5 413.39,-131.5 413.39,-112.5 325.39,-112.5"/>
<text text-anchor="middle" x="369.39" y="-119.5" font-family="Helvetica" font-size="10.00">TDecompChol.h</text>
</a>
</g>
</g>
<!-- Node54&#45;&gt;Node62 -->
<g id="edge42" class="edge">
<title>Node54&#45;&gt;Node62</title>
<path fill="none" stroke="midnightblue" d="M747.69,-173.55C668.2,-163.89 538.8,-147.76 427.39,-132 426.11,-131.82 424.82,-131.63 423.52,-131.45"/>
<polygon fill="midnightblue" stroke="midnightblue" points="423.79,-127.95 413.39,-129.95 422.77,-134.87 423.79,-127.95"/>
</g>
<!-- Node54&#45;&gt;Node45 -->
<g id="edge43" class="edge">
<title>Node54&#45;&gt;Node45</title>
<path fill="none" stroke="midnightblue" d="M897.02,-172.03C962.67,-162.64 1061.07,-148.13 1156.52,-132.1"/>
<polygon fill="midnightblue" stroke="midnightblue" points="1157.36,-135.5 1166.64,-130.39 1156.2,-128.6 1157.36,-135.5"/>
</g>
<!-- Node63 -->
<g id="node36" class="node">
<title>Node63</title>
<g id="a_node36"><a xlink:title=" ">
<polygon fill="white" stroke="#bfbfbf" points="469.89,-112.5 469.89,-131.5 526.89,-131.5 526.89,-112.5 469.89,-112.5"/>
<text text-anchor="middle" x="498.39" y="-119.5" font-family="Helvetica" font-size="10.00">TMatrix.h</text>
</a>
</g>
</g>
<!-- Node54&#45;&gt;Node63 -->
<g id="edge44" class="edge">
<title>Node54&#45;&gt;Node63</title>
<path fill="none" stroke="midnightblue" d="M747.81,-170.73C692.11,-161.63 613.92,-148.19 536.91,-132.22"/>
<polygon fill="midnightblue" stroke="midnightblue" points="537.54,-128.78 527.03,-130.16 536.11,-135.63 537.54,-128.78"/>
</g>
<!-- Node54&#45;&gt;Node64 -->
<g id="edge45" class="edge">
<title>Node54&#45;&gt;Node64</title>
<path fill="none" stroke="midnightblue" d="M897.02,-174.21C980.65,-164.81 1120.55,-148.77 1251.84,-132.05"/>
<polygon fill="midnightblue" stroke="midnightblue" points="1252.61,-135.48 1262.08,-130.74 1251.72,-128.53 1252.61,-135.48"/>
</g>
<!-- Node65 -->
<g id="node38" class="node">
<title>Node65</title>
<g id="a_node38"><a xlink:title=" ">
<polygon fill="white" stroke="#bfbfbf" points="544.89,-112.5 544.89,-131.5 633.89,-131.5 633.89,-112.5 544.89,-112.5"/>
<text text-anchor="middle" x="589.39" y="-119.5" font-family="Helvetica" font-size="10.00">TMatrixDEigen.h</text>
</a>
</g>
</g>
<!-- Node54&#45;&gt;Node65 -->
<g id="edge46" class="edge">
<title>Node54&#45;&gt;Node65</title>
<path fill="none" stroke="midnightblue" d="M767.47,-168.47C726.22,-157.94 670.51,-143.72 632.46,-134"/>
<polygon fill="midnightblue" stroke="midnightblue" points="633.26,-130.59 622.7,-131.51 631.52,-137.37 633.26,-130.59"/>
</g>
<!-- Node54&#45;&gt;Node67 -->
<g id="edge47" class="edge">
<title>Node54&#45;&gt;Node67</title>
<path fill="none" stroke="midnightblue" d="M897.09,-179.93C1002.83,-175.37 1202.16,-163.37 1380.61,-131.81"/>
<polygon fill="midnightblue" stroke="midnightblue" points="1381.49,-135.2 1390.71,-129.99 1380.25,-128.31 1381.49,-135.2"/>
</g>
</g>
</svg>
        <g id="navigator" transform="translate(0 0)" fill="#404254">
                <rect fill="#f2f5e9" fill-opacity="0.5" stroke="#606060" stroke-width=".5" x="0" y="0" width="60" height="60"/>
                <use id="zoomplus" xlink:href="#zoomPlus" x="17" y="9" onmousedown="handleZoom(evt,'in')"/>
                <use id="zoomminus" xlink:href="#zoomMin" x="42" y="9" onmousedown="handleZoom(evt,'out')"/>
                <use id="reset" xlink:href="#resetDef" x="30" y="36" onmousedown="handleReset()"/>
                <g id="arrowUp" xlink:href="#dirArrow" transform="translate(30 24)" onmousedown="handlePan(0,-1)">
                  <use xlink:href="#rim" fill="#404040">
                        <set attributeName="fill" to="#808080" begin="arrowUp.mouseover" end="arrowUp.mouseout"/>
                  </use>
                  <path fill="none" stroke="white" stroke-width="1.5" d="M0,-3.0v7 M-2.5,-0.5L0,-3.0L2.5,-0.5"/>
                </g>
                <g id="arrowRight" xlink:href="#dirArrow" transform="rotate(90) translate(36 -43)" onmousedown="handlePan(1,0)">
                  <use xlink:href="#rim" fill="#404040">
                        <set attributeName="fill" to="#808080" begin="arrowRight.mouseover" end="arrowRight.mouseout"/>
                  </use>
                  <path fill="none" stroke="white" stroke-width="1.5" d="M0,-3.0v7 M-2.5,-0.5L0,-3.0L2.5,-0.5"/>
                </g>
                <g id="arrowDown" xlink:href="#dirArrow" transform="rotate(180) translate(-30 -48)" onmousedown="handlePan(0,1)">
                  <use xlink:href="#rim" fill="#404040">
                        <set attributeName="fill" to="#808080" begin="arrowDown.mouseover" end="arrowDown.mouseout"/>
                  </use>
                  <path fill="none" stroke="white" stroke-width="1.5" d="M0,-3.0v7 M-2.5,-0.5L0,-3.0L2.5,-0.5"/>
                </g>
                <g id="arrowLeft" xlink:href="#dirArrow" transform="rotate(270) translate(-36 17)" onmousedown="handlePan(-1,0)">
                  <use xlink:href="#rim" fill="#404040">
                        <set attributeName="fill" to="#808080" begin="arrowLeft.mouseover" end="arrowLeft.mouseout"/>
                  </use>
                  <path fill="none" stroke="white" stroke-width="1.5" d="M0,-3.0v7 M-2.5,-0.5L0,-3.0L2.5,-0.5"/>
                </g>
        </g>
        <svg viewBox="0 0 15 15" width="100%" height="30px" preserveAspectRatio="xMaxYMin meet">
         <g id="arrow_out" transform="scale(0.3 0.3)">
          <a xlink:href="MCMCProcessor_8cpp__incl_org.svg" target="_base">
           <rect id="button" ry="5" rx="5" y="6" x="6" height="38" width="38"
                fill="#f2f5e9" fill-opacity="0.5" stroke="#606060" stroke-width="1.0"/>
           <path id="arrow"
             d="M 11.500037,31.436501 C 11.940474,20.09759 22.043105,11.32322 32.158766,21.979434 L 37.068811,17.246167 C 37.068811,17.246167 37.088388,32 37.088388,32 L 22.160133,31.978069 C 22.160133,31.978069 26.997745,27.140456 26.997745,27.140456 C 18.528582,18.264221 13.291696,25.230495 11.500037,31.436501 z"
             style="fill:#404040;"/>
          </a>
         </g>
        </svg>
</svg>
