<?xml version="1.0" encoding="UTF-8" standalone="no"?>
<!DOCTYPE svg PUBLIC "-//W3C//DTD SVG 1.1//EN"
 "http://www.w3.org/Graphics/SVG/1.1/DTD/svg11.dtd">
<!-- Generated by graphviz version 2.44.0 (0)
 -->
<!-- Title: BinnedSplineHandler Pages: 1 -->
<svg width="1187pt" height="1003pt"
 viewBox="0.00 0.00 1187.00 1002.93" xmlns="http://www.w3.org/2000/svg" xmlns:xlink="http://www.w3.org/1999/xlink">
<g id="graph0" class="graph" transform="scale(1 1) rotate(0) translate(4 998.93)">
<title>BinnedSplineHandler</title>
<polygon fill="white" stroke="transparent" points="-4,4 -4,-998.93 1183,-998.93 1183,4 -4,4"/>
<!-- Node1 -->
<g id="node1" class="node">
<title>Node1</title>
<g id="a_node1"><a xlink:title="Bin&#45;by&#45;bin class calculating response for spline parameters.">
<polygon fill="#bfbfbf" stroke="black" points="1072,-371.93 1072,-390.93 1179,-390.93 1179,-371.93 1072,-371.93"/>
<text text-anchor="middle" x="1125.5" y="-378.93" font-family="Helvetica" font-size="10.00">BinnedSplineHandler</text>
</a>
</g>
</g>
<!-- Node2 -->
<g id="node2" class="node">
<title>Node2</title>
<g id="a_node2"><a xlink:href="classSplineBase.html" target="_top" xlink:title="Base class for calculating weight from spline.">
<polygon fill="white" stroke="black" points="816,-939.93 816,-958.93 882,-958.93 882,-939.93 816,-939.93"/>
<text text-anchor="middle" x="849" y="-946.93" font-family="Helvetica" font-size="10.00">SplineBase</text>
</a>
</g>
</g>
<!-- Node2&#45;&gt;Node1 -->
<g id="edge1" class="edge">
<title>Node2&#45;&gt;Node1</title>
<path fill="none" stroke="midnightblue" d="M892.37,-957.81C938.71,-964.28 1011.98,-966.15 1054,-924.43 1093.63,-885.08 1119.91,-460.4 1123.95,-390.99"/>
<polygon fill="midnightblue" stroke="midnightblue" points="892.76,-954.33 882.34,-956.28 891.7,-961.25 892.76,-954.33"/>
</g>
<!-- Node3 -->
<g id="node3" class="node">
<title>Node3</title>
<g id="a_node3"><a xlink:title=" ">
<polygon fill="white" stroke="#bfbfbf" points="447.5,-939.93 447.5,-958.93 590.5,-958.93 590.5,-939.93 447.5,-939.93"/>
<text text-anchor="middle" x="519" y="-946.93" font-family="Helvetica" font-size="10.00">std::vector&lt; FastSplineInfo &gt;</text>
</a>
</g>
</g>
<!-- Node3&#45;&gt;Node2 -->
<g id="edge2" class="edge">
<title>Node3&#45;&gt;Node2</title>
<path fill="none" stroke="#9a32cd" stroke-dasharray="5,2" d="M600.78,-949.43C670.02,-949.43 766.19,-949.43 815.7,-949.43"/>
<polygon fill="#9a32cd" stroke="#9a32cd" points="600.77,-945.93 590.77,-949.43 600.77,-952.93 600.77,-945.93"/>
<text text-anchor="middle" x="688" y="-952.43" font-family="Helvetica" font-size="10.00"> SplineInfoArray</text>
</g>
<!-- Node4 -->
<g id="node4" class="node">
<title>Node4</title>
<g id="a_node4"><a xlink:href="classMaCh3Modes.html" target="_top" xlink:title="KS: Class describing MaCh3 modes used in the analysis, it is being initialised from config.">
<polygon fill="white" stroke="black" points="480.5,-900.93 480.5,-919.93 557.5,-919.93 557.5,-900.93 480.5,-900.93"/>
<text text-anchor="middle" x="519" y="-907.93" font-family="Helvetica" font-size="10.00">MaCh3Modes</text>
</a>
</g>
</g>
<!-- Node4&#45;&gt;Node1 -->
<g id="edge3" class="edge">
<title>Node4&#45;&gt;Node1</title>
<path fill="none" stroke="#9a32cd" stroke-dasharray="5,2" d="M568.01,-910.68C686.52,-910.2 988.13,-902.03 1054,-832.43 1117.05,-765.8 1123.72,-450.87 1124.42,-391.2"/>
<polygon fill="#9a32cd" stroke="#9a32cd" points="567.79,-907.18 557.79,-910.7 567.8,-914.18 567.79,-907.18"/>
<text text-anchor="middle" x="849" y="-905.43" font-family="Helvetica" font-size="10.00"> Modes</text>
</g>
<!-- Node5 -->
<g id="node5" class="node">
<title>Node5</title>
<g id="a_node5"><a xlink:title=" ">
<polygon fill="white" stroke="#bfbfbf" points="160,-915.43 160,-945.43 270,-945.43 270,-915.43 160,-915.43"/>
<text text-anchor="start" x="168" y="-933.43" font-family="Helvetica" font-size="10.00">std::map&lt; std::string,</text>
<text text-anchor="middle" x="215" y="-922.43" font-family="Helvetica" font-size="10.00"> MaCh3Modes_t &gt;</text>
</a>
</g>
</g>
<!-- Node5&#45;&gt;Node4 -->
<g id="edge4" class="edge">
<title>Node5&#45;&gt;Node4</title>
<path fill="none" stroke="#9a32cd" stroke-dasharray="5,2" d="M280.6,-926.15C341.39,-922.12 430.35,-916.23 480.32,-912.92"/>
<polygon fill="#9a32cd" stroke="#9a32cd" points="280.09,-922.67 270.34,-926.83 280.55,-929.66 280.09,-922.67"/>
<text text-anchor="middle" x="366" y="-925.43" font-family="Helvetica" font-size="10.00"> Mode</text>
</g>
<!-- Node6 -->
<g id="node6" class="node">
<title>Node6</title>
<g id="a_node6"><a xlink:title=" ">
<polygon fill="white" stroke="#bfbfbf" points="152.5,-964.43 152.5,-994.43 277.5,-994.43 277.5,-964.43 152.5,-964.43"/>
<text text-anchor="start" x="160.5" y="-982.43" font-family="Helvetica" font-size="10.00">std::map&lt; MaCh3Modes</text>
<text text-anchor="middle" x="215" y="-971.43" font-family="Helvetica" font-size="10.00">_t, MaCh3ModeInfo &gt;</text>
</a>
</g>
</g>
<!-- Node6&#45;&gt;Node4 -->
<g id="edge5" class="edge">
<title>Node6&#45;&gt;Node4</title>
<path fill="none" stroke="#9a32cd" stroke-dasharray="5,2" d="M287.98,-967.27C326.36,-960.04 374.17,-949.86 416,-937.43 424.23,-934.98 425.81,-932.98 434,-930.43 449.03,-925.74 465.86,-921.53 480.49,-918.2"/>
<polygon fill="#9a32cd" stroke="#9a32cd" points="287.12,-963.87 277.92,-969.13 288.39,-970.75 287.12,-963.87"/>
<text text-anchor="middle" x="366" y="-963.43" font-family="Helvetica" font-size="10.00"> fMode</text>
</g>
<!-- Node7 -->
<g id="node7" class="node">
<title>Node7</title>
<g id="a_node7"><a xlink:title=" ">
<polygon fill="white" stroke="#bfbfbf" points="185,-748.93 185,-767.93 245,-767.93 245,-748.93 185,-748.93"/>
<text text-anchor="middle" x="215" y="-755.93" font-family="Helvetica" font-size="10.00">std::string</text>
</a>
</g>
</g>
<!-- Node7&#45;&gt;Node4 -->
<g id="edge6" class="edge">
<title>Node7&#45;&gt;Node4</title>
<path fill="none" stroke="#9a32cd" stroke-dasharray="5,2" d="M243.75,-772.64C263.69,-782.7 291.3,-796.33 316,-807.43 359.81,-827.12 373.12,-826.77 416,-848.43 448.56,-864.87 484.56,-888.01 503.88,-900.86"/>
<polygon fill="#9a32cd" stroke="#9a32cd" points="245.12,-769.41 234.62,-768.01 241.96,-775.66 245.12,-769.41"/>
<text text-anchor="middle" x="366" y="-862.43" font-family="Helvetica" font-size="10.00"> Generator</text>
<text text-anchor="middle" x="366" y="-851.43" font-family="Helvetica" font-size="10.00">Title</text>
</g>
<!-- Node16 -->
<g id="node16" class="node">
<title>Node16</title>
<g id="a_node16"><a xlink:href="classParameterHandlerBase.html" target="_top" xlink:title="Base class responsible for handling of systematic error parameters. Capable of using PCA or using ada...">
<polygon fill="white" stroke="black" points="460,-480.93 460,-499.93 578,-499.93 578,-480.93 460,-480.93"/>
<text text-anchor="middle" x="519" y="-487.93" font-family="Helvetica" font-size="10.00">ParameterHandlerBase</text>
</a>
</g>
</g>
<!-- Node7&#45;&gt;Node16 -->
<g id="edge22" class="edge">
<title>Node7&#45;&gt;Node16</title>
<path fill="none" stroke="#9a32cd" stroke-dasharray="5,2" d="M255.17,-750.11C313.02,-737.78 414.66,-715.95 416,-714.43 446.05,-680.25 404.25,-544.86 434,-510.43 440.76,-502.6 449.98,-497.54 459.84,-494.32"/>
<polygon fill="#9a32cd" stroke="#9a32cd" points="254.31,-746.71 245.26,-752.22 255.77,-753.56 254.31,-746.71"/>
<text text-anchor="middle" x="366" y="-749.43" font-family="Helvetica" font-size="10.00"> inputFile</text>
<text text-anchor="middle" x="366" y="-738.43" font-family="Helvetica" font-size="10.00">matrixName</text>
</g>
<!-- Node8 -->
<g id="node8" class="node">
<title>Node8</title>
<g id="a_node8"><a xlink:title=" ">
<polygon fill="white" stroke="#bfbfbf" points="0,-743.43 0,-773.43 95,-773.43 95,-743.43 0,-743.43"/>
<text text-anchor="start" x="8" y="-761.43" font-family="Helvetica" font-size="10.00">std::basic_string&lt;</text>
<text text-anchor="middle" x="47.5" y="-750.43" font-family="Helvetica" font-size="10.00"> char &gt;</text>
</a>
</g>
</g>
<!-- Node8&#45;&gt;Node7 -->
<g id="edge7" class="edge">
<title>Node8&#45;&gt;Node7</title>
<path fill="none" stroke="midnightblue" d="M105.11,-758.43C131.97,-758.43 162.93,-758.43 184.95,-758.43"/>
<polygon fill="midnightblue" stroke="midnightblue" points="105.04,-754.93 95.04,-758.43 105.04,-761.93 105.04,-754.93"/>
</g>
<!-- Node9 -->
<g id="node9" class="node">
<title>Node9</title>
<g id="a_node9"><a xlink:title=" ">
<polygon fill="white" stroke="#bfbfbf" points="169.5,-808.93 169.5,-827.93 260.5,-827.93 260.5,-808.93 169.5,-808.93"/>
<text text-anchor="middle" x="215" y="-815.93" font-family="Helvetica" font-size="10.00">std::vector&lt; int &gt;</text>
</a>
</g>
</g>
<!-- Node9&#45;&gt;Node1 -->
<g id="edge37" class="edge">
<title>Node9&#45;&gt;Node1</title>
<path fill="none" stroke="#9a32cd" stroke-dasharray="5,2" d="M270.9,-819.19C311.47,-818.65 367.8,-815.56 416,-804.43 714.01,-735.57 835.62,-760.58 1054,-546.43 1100.71,-500.62 1118.23,-418.94 1123.01,-391.06"/>
<polygon fill="#9a32cd" stroke="#9a32cd" points="270.65,-815.69 260.68,-819.28 270.71,-822.69 270.65,-815.69"/>
<text text-anchor="middle" x="688" y="-831.43" font-family="Helvetica" font-size="10.00"> Dimensions</text>
<text text-anchor="middle" x="688" y="-820.43" font-family="Helvetica" font-size="10.00">UniqueSystIndices</text>
<text text-anchor="middle" x="688" y="-809.43" font-family="Helvetica" font-size="10.00">coeffindexvec</text>
<text text-anchor="middle" x="688" y="-798.43" font-family="Helvetica" font-size="10.00">nOscChans</text>
<text text-anchor="middle" x="688" y="-787.43" font-family="Helvetica" font-size="10.00">nSplineParams</text>
<text text-anchor="middle" x="688" y="-776.43" font-family="Helvetica" font-size="10.00">uniquecoeffindices</text>
<text text-anchor="middle" x="688" y="-765.43" font-family="Helvetica" font-size="10.00">uniquesplinevec_Monolith</text>
</g>
<!-- Node9&#45;&gt;Node4 -->
<g id="edge8" class="edge">
<title>Node9&#45;&gt;Node4</title>
<path fill="none" stroke="#9a32cd" stroke-dasharray="5,2" d="M238.03,-833.62C257.63,-846.42 287.53,-864.25 316,-874.43 371.18,-894.16 438.85,-903.4 480.18,-907.48"/>
<polygon fill="#9a32cd" stroke="#9a32cd" points="239.8,-830.59 229.53,-827.96 235.92,-836.42 239.8,-830.59"/>
<text text-anchor="middle" x="366" y="-901.43" font-family="Helvetica" font-size="10.00"> ModeMap</text>
</g>
<!-- Node9&#45;&gt;Node16 -->
<g id="edge23" class="edge">
<title>Node9&#45;&gt;Node16</title>
<path fill="none" stroke="#9a32cd" stroke-dasharray="5,2" d="M249.51,-805.23C268.78,-797.93 293.54,-789.03 316,-782.43 359.75,-769.57 386.33,-794.06 416,-759.43 452.1,-717.3 398.07,-552.69 434,-510.43 440.7,-502.55 449.89,-497.46 459.74,-494.24"/>
<polygon fill="#9a32cd" stroke="#9a32cd" points="248.07,-802.03 239.98,-808.88 250.57,-808.57 248.07,-802.03"/>
<text text-anchor="middle" x="366" y="-796.43" font-family="Helvetica" font-size="10.00"> CircularBoundsIndex</text>
<text text-anchor="middle" x="366" y="-785.43" font-family="Helvetica" font-size="10.00">FlipParameterIndex</text>
</g>
<!-- Node10 -->
<g id="node10" class="node">
<title>Node10</title>
<g id="a_node10"><a xlink:title=" ">
<polygon fill="white" stroke="#bfbfbf" points="786.5,-535.43 786.5,-565.43 911.5,-565.43 911.5,-535.43 786.5,-535.43"/>
<text text-anchor="start" x="794.5" y="-553.43" font-family="Helvetica" font-size="10.00">std::vector&lt; std::vector</text>
<text text-anchor="middle" x="849" y="-542.43" font-family="Helvetica" font-size="10.00">&lt; SplineInterpolation &gt; &gt;</text>
</a>
</g>
</g>
<!-- Node10&#45;&gt;Node1 -->
<g id="edge9" class="edge">
<title>Node10&#45;&gt;Node1</title>
<path fill="none" stroke="#9a32cd" stroke-dasharray="5,2" d="M921.4,-538.9C963.22,-529.4 1015.25,-512.58 1054,-483.43 1087.89,-457.93 1111.37,-411.27 1120.39,-391.12"/>
<polygon fill="#9a32cd" stroke="#9a32cd" points="920.57,-535.5 911.55,-541.05 922.06,-542.34 920.57,-535.5"/>
<text text-anchor="middle" x="999" y="-534.43" font-family="Helvetica" font-size="10.00"> SplineInterpolationTypes</text>
</g>
<!-- Node11 -->
<g id="node11" class="node">
<title>Node11</title>
<g id="a_node11"><a xlink:title=" ">
<polygon fill="white" stroke="#bfbfbf" points="772,-464.43 772,-516.43 926,-516.43 926,-464.43 772,-464.43"/>
<text text-anchor="start" x="780" y="-504.43" font-family="Helvetica" font-size="10.00">std::vector&lt; std::vector</text>
<text text-anchor="start" x="780" y="-493.43" font-family="Helvetica" font-size="10.00">&lt; std::vector&lt; std::vector</text>
<text text-anchor="start" x="780" y="-482.43" font-family="Helvetica" font-size="10.00">&lt; std::vector&lt; std::vector</text>
<text text-anchor="middle" x="849" y="-471.43" font-family="Helvetica" font-size="10.00">&lt; std::vector&lt; int &gt; &gt; &gt; &gt; &gt; &gt; &gt;</text>
</a>
</g>
</g>
<!-- Node11&#45;&gt;Node1 -->
<g id="edge10" class="edge">
<title>Node11&#45;&gt;Node1</title>
<path fill="none" stroke="#9a32cd" stroke-dasharray="5,2" d="M936.01,-471C973.26,-461 1016.77,-447.14 1054,-429.43 1076.19,-418.86 1099.25,-401.82 1112.72,-391.14"/>
<polygon fill="#9a32cd" stroke="#9a32cd" points="934.96,-467.66 926.18,-473.59 936.74,-474.43 934.96,-467.66"/>
<text text-anchor="middle" x="999" y="-471.43" font-family="Helvetica" font-size="10.00"> indexvec</text>
</g>
<!-- Node12 -->
<g id="node12" class="node">
<title>Node12</title>
<g id="a_node12"><a xlink:title=" ">
<polygon fill="white" stroke="#bfbfbf" points="790.5,-415.43 790.5,-445.43 907.5,-445.43 907.5,-415.43 790.5,-415.43"/>
<text text-anchor="start" x="798.5" y="-433.43" font-family="Helvetica" font-size="10.00">std::vector&lt; std::vector</text>
<text text-anchor="middle" x="849" y="-422.43" font-family="Helvetica" font-size="10.00">&lt; int &gt; &gt;</text>
</a>
</g>
</g>
<!-- Node12&#45;&gt;Node1 -->
<g id="edge11" class="edge">
<title>Node12&#45;&gt;Node1</title>
<path fill="none" stroke="#9a32cd" stroke-dasharray="5,2" d="M917.83,-419.9C957.58,-413.53 1008.73,-405.01 1054,-396.43 1062.85,-394.75 1072.3,-392.83 1081.31,-390.93"/>
<polygon fill="#9a32cd" stroke="#9a32cd" points="917.04,-416.48 907.72,-421.51 918.14,-423.39 917.04,-416.48"/>
<text text-anchor="middle" x="999" y="-417.43" font-family="Helvetica" font-size="10.00"> GlobalSystIndex</text>
</g>
<!-- Node13 -->
<g id="node13" class="node">
<title>Node13</title>
<g id="a_node13"><a xlink:title=" ">
<polygon fill="white" stroke="#bfbfbf" points="794,-366.43 794,-396.43 904,-396.43 904,-366.43 794,-366.43"/>
<text text-anchor="start" x="802" y="-384.43" font-family="Helvetica" font-size="10.00">std::vector&lt; TSpline3</text>
<text text-anchor="middle" x="849" y="-373.43" font-family="Helvetica" font-size="10.00">_red * &gt;</text>
</a>
</g>
</g>
<!-- Node13&#45;&gt;Node1 -->
<g id="edge12" class="edge">
<title>Node13&#45;&gt;Node1</title>
<path fill="none" stroke="#9a32cd" stroke-dasharray="5,2" d="M914.49,-381.43C962.4,-381.43 1026.94,-381.43 1071.78,-381.43"/>
<polygon fill="#9a32cd" stroke="#9a32cd" points="914.23,-377.93 904.23,-381.43 914.23,-384.93 914.23,-377.93"/>
<text text-anchor="middle" x="999" y="-384.43" font-family="Helvetica" font-size="10.00"> splinevec_Monolith</text>
</g>
<!-- Node14 -->
<g id="node14" class="node">
<title>Node14</title>
<g id="a_node14"><a xlink:title=" ">
<polygon fill="white" stroke="#bfbfbf" points="156.5,-159.43 156.5,-189.43 273.5,-189.43 273.5,-159.43 156.5,-159.43"/>
<text text-anchor="start" x="164.5" y="-177.43" font-family="Helvetica" font-size="10.00">std::vector&lt; std::vector</text>
<text text-anchor="middle" x="215" y="-166.43" font-family="Helvetica" font-size="10.00">&lt; std::string &gt; &gt;</text>
</a>
</g>
</g>
<!-- Node14&#45;&gt;Node1 -->
<g id="edge13" class="edge">
<title>Node14&#45;&gt;Node1</title>
<path fill="none" stroke="#9a32cd" stroke-dasharray="5,2" d="M283.84,-163.69C413.58,-146.07 703.7,-120.84 926,-205.43 986.01,-228.26 1006.56,-229.16 1054,-272.43 1086.97,-302.5 1111.11,-351.26 1120.36,-371.81"/>
<polygon fill="#9a32cd" stroke="#9a32cd" points="283.08,-160.26 273.66,-165.1 284.05,-167.19 283.08,-160.26"/>
<text text-anchor="middle" x="688" y="-174.43" font-family="Helvetica" font-size="10.00"> DimensionLabels</text>
<text text-anchor="middle" x="688" y="-163.43" font-family="Helvetica" font-size="10.00">SplineFileParPrefixNames</text>
</g>
<!-- Node14&#45;&gt;Node16 -->
<g id="edge19" class="edge">
<title>Node14&#45;&gt;Node16</title>
<path fill="none" stroke="#9a32cd" stroke-dasharray="5,2" d="M283.31,-189.87C328.57,-203.97 385.35,-229.66 416,-274.43 440.21,-309.79 406.62,-433.46 434,-466.43 440.69,-474.48 449.87,-479.93 459.72,-483.61"/>
<polygon fill="#9a32cd" stroke="#9a32cd" points="284.14,-186.46 273.55,-186.95 282.13,-193.17 284.14,-186.46"/>
<text text-anchor="middle" x="366" y="-277.43" font-family="Helvetica" font-size="10.00"> _fSampleNames</text>
</g>
<!-- Node15 -->
<g id="node15" class="node">
<title>Node15</title>
<g id="a_node15"><a xlink:href="classParameterHandlerGeneric.html" target="_top" xlink:title="Class responsible for handling of systematic error parameters with different types defined in the con...">
<polygon fill="white" stroke="black" points="784.5,-327.93 784.5,-346.93 913.5,-346.93 913.5,-327.93 784.5,-327.93"/>
<text text-anchor="middle" x="849" y="-334.93" font-family="Helvetica" font-size="10.00">ParameterHandlerGeneric</text>
</a>
</g>
</g>
<!-- Node15&#45;&gt;Node1 -->
<g id="edge14" class="edge">
<title>Node15&#45;&gt;Node1</title>
<path fill="none" stroke="#9a32cd" stroke-dasharray="5,2" d="M923.76,-346.67C962.61,-351.86 1011,-358.8 1054,-366.43 1063.12,-368.04 1072.86,-369.98 1082.09,-371.91"/>
<polygon fill="#9a32cd" stroke="#9a32cd" points="923.95,-343.17 913.58,-345.33 923.04,-350.11 923.95,-343.17"/>
<text text-anchor="middle" x="999" y="-369.43" font-family="Helvetica" font-size="10.00"> xsec</text>
</g>
<!-- Node16&#45;&gt;Node15 -->
<g id="edge15" class="edge">
<title>Node16&#45;&gt;Node15</title>
<path fill="none" stroke="midnightblue" d="M588.35,-499.32C640.63,-502.06 710.84,-496.27 754,-454.43 785.48,-423.9 742.16,-389.55 772,-357.43 775.99,-353.13 780.79,-349.71 786,-347"/>
<polygon fill="midnightblue" stroke="midnightblue" points="588.35,-495.82 578.15,-498.67 587.91,-502.8 588.35,-495.82"/>
</g>
<!-- Node17 -->
<g id="node17" class="node">
<title>Node17</title>
<g id="a_node17"><a xlink:title=" ">
<polygon fill="white" stroke="#bfbfbf" points="132,-529.43 132,-559.43 298,-559.43 298,-529.43 132,-529.43"/>
<text text-anchor="start" x="140" y="-547.43" font-family="Helvetica" font-size="10.00">std::unique_ptr&lt; adaptive</text>
<text text-anchor="middle" x="215" y="-536.43" font-family="Helvetica" font-size="10.00">_mcmc::AdaptiveMCMCHandler &gt;</text>
</a>
</g>
</g>
<!-- Node17&#45;&gt;Node16 -->
<g id="edge16" class="edge">
<title>Node17&#45;&gt;Node16</title>
<path fill="none" stroke="#9a32cd" stroke-dasharray="5,2" d="M304.24,-527.58C308.22,-526.85 312.15,-526.13 316,-525.43 365.03,-516.52 420.84,-506.89 461.36,-499.99"/>
<polygon fill="#9a32cd" stroke="#9a32cd" points="303.51,-524.16 294.31,-529.42 304.78,-531.04 303.51,-524.16"/>
<text text-anchor="middle" x="366" y="-528.43" font-family="Helvetica" font-size="10.00"> AdaptiveHandler</text>
</g>
<!-- Node18 -->
<g id="node18" class="node">
<title>Node18</title>
<g id="a_node18"><a xlink:title=" ">
<polygon fill="white" stroke="#bfbfbf" points="138.5,-490.93 138.5,-509.93 291.5,-509.93 291.5,-490.93 138.5,-490.93"/>
<text text-anchor="middle" x="215" y="-497.93" font-family="Helvetica" font-size="10.00">std::unique_ptr&lt; PCAHandler &gt;</text>
</a>
</g>
</g>
<!-- Node18&#45;&gt;Node16 -->
<g id="edge17" class="edge">
<title>Node18&#45;&gt;Node16</title>
<path fill="none" stroke="#9a32cd" stroke-dasharray="5,2" d="M301.6,-492.24C306.47,-491.93 311.3,-491.65 316,-491.43 364.34,-489.14 419.26,-489.02 459.62,-489.41"/>
<polygon fill="#9a32cd" stroke="#9a32cd" points="301.31,-488.75 291.58,-492.94 301.8,-495.74 301.31,-488.75"/>
<text text-anchor="middle" x="366" y="-494.43" font-family="Helvetica" font-size="10.00"> PCAObj</text>
</g>
<!-- Node19 -->
<g id="node19" class="node">
<title>Node19</title>
<g id="a_node19"><a xlink:title=" ">
<polygon fill="white" stroke="#bfbfbf" points="147.5,-441.43 147.5,-471.43 282.5,-471.43 282.5,-441.43 147.5,-441.43"/>
<text text-anchor="start" x="155.5" y="-459.43" font-family="Helvetica" font-size="10.00">std::unique_ptr&lt; Parameter</text>
<text text-anchor="middle" x="215" y="-448.43" font-family="Helvetica" font-size="10.00">Tunes &gt;</text>
</a>
</g>
</g>
<!-- Node19&#45;&gt;Node16 -->
<g id="edge18" class="edge">
<title>Node19&#45;&gt;Node16</title>
<path fill="none" stroke="#9a32cd" stroke-dasharray="5,2" d="M293.08,-461.52C330.29,-464.36 375.55,-468.34 416,-473.43 432.3,-475.47 449.98,-478.23 465.97,-480.93"/>
<polygon fill="#9a32cd" stroke="#9a32cd" points="293.04,-458.01 282.81,-460.76 292.52,-464.99 293.04,-458.01"/>
<text text-anchor="middle" x="366" y="-476.43" font-family="Helvetica" font-size="10.00"> Tunes</text>
</g>
<!-- Node20 -->
<g id="node20" class="node">
<title>Node20</title>
<g id="a_node20"><a xlink:title=" ">
<polygon fill="white" stroke="#bfbfbf" points="156.5,-392.43 156.5,-422.43 273.5,-422.43 273.5,-392.43 156.5,-392.43"/>
<text text-anchor="start" x="164.5" y="-410.43" font-family="Helvetica" font-size="10.00">std::vector&lt; std::vector</text>
<text text-anchor="middle" x="215" y="-399.43" font-family="Helvetica" font-size="10.00">&lt; double &gt; &gt;</text>
</a>
</g>
</g>
<!-- Node20&#45;&gt;Node16 -->
<g id="edge20" class="edge">
<title>Node20&#45;&gt;Node16</title>
<path fill="none" stroke="#9a32cd" stroke-dasharray="5,2" d="M283.76,-411.53C324.14,-416.29 375.29,-426.51 416,-448.43 425.96,-453.79 424.25,-460.69 434,-466.43 444.59,-472.66 456.89,-477.35 468.75,-480.85"/>
<polygon fill="#9a32cd" stroke="#9a32cd" points="284.06,-408.04 273.73,-410.43 283.29,-415 284.06,-408.04"/>
<text text-anchor="middle" x="366" y="-451.43" font-family="Helvetica" font-size="10.00"> InvertCovMatrix</text>
</g>
<!-- Node21 -->
<g id="node21" class="node">
<title>Node21</title>
<g id="a_node21"><a xlink:title=" ">
<polygon fill="white" stroke="#bfbfbf" points="161.5,-343.43 161.5,-373.43 268.5,-373.43 268.5,-343.43 161.5,-343.43"/>
<text text-anchor="start" x="169.5" y="-361.43" font-family="Helvetica" font-size="10.00">std::vector&lt; std::pair</text>
<text text-anchor="middle" x="215" y="-350.43" font-family="Helvetica" font-size="10.00">&lt; double, double &gt; &gt;</text>
</a>
</g>
</g>
<!-- Node21&#45;&gt;Node16 -->
<g id="edge21" class="edge">
<title>Node21&#45;&gt;Node16</title>
<path fill="none" stroke="#9a32cd" stroke-dasharray="5,2" d="M278.61,-364.45C329.66,-370.61 396.39,-381.95 416,-400.43 438.13,-421.28 412.63,-444.8 434,-466.43 441.14,-473.66 450.3,-478.74 459.93,-482.32"/>
<polygon fill="#9a32cd" stroke="#9a32cd" points="278.97,-360.97 268.63,-363.28 278.16,-367.92 278.97,-360.97"/>
<text text-anchor="middle" x="366" y="-403.43" font-family="Helvetica" font-size="10.00"> CircularBoundsValues</text>
</g>
<!-- Node22 -->
<g id="node22" class="node">
<title>Node22</title>
<g id="a_node22"><a xlink:title=" ">
<polygon fill="white" stroke="#bfbfbf" points="155.5,-294.43 155.5,-324.43 274.5,-324.43 274.5,-294.43 155.5,-294.43"/>
<text text-anchor="start" x="163.5" y="-312.43" font-family="Helvetica" font-size="10.00">std::vector&lt; std::unique</text>
<text text-anchor="middle" x="215" y="-301.43" font-family="Helvetica" font-size="10.00">_ptr&lt; TRandom3 &gt; &gt;</text>
</a>
</g>
</g>
<!-- Node22&#45;&gt;Node16 -->
<g id="edge24" class="edge">
<title>Node22&#45;&gt;Node16</title>
<path fill="none" stroke="#9a32cd" stroke-dasharray="5,2" d="M284.65,-325.31C295.14,-327.71 305.86,-330.14 316,-332.43 360.4,-342.42 384.75,-321.34 416,-354.43 450.62,-391.08 400.53,-428.72 434,-466.43 440.85,-474.14 449.98,-479.45 459.71,-483.09"/>
<polygon fill="#9a32cd" stroke="#9a32cd" points="285.2,-321.84 274.67,-323.02 283.64,-328.67 285.2,-321.84"/>
<text text-anchor="middle" x="366" y="-357.43" font-family="Helvetica" font-size="10.00"> random_number</text>
</g>
<!-- Node23 -->
<g id="node23" class="node">
<title>Node23</title>
<g id="a_node23"><a xlink:title=" ">
<polygon fill="white" stroke="#bfbfbf" points="166,-670.93 166,-689.93 264,-689.93 264,-670.93 166,-670.93"/>
<text text-anchor="middle" x="215" y="-677.93" font-family="Helvetica" font-size="10.00">std::vector&lt; bool &gt;</text>
</a>
</g>
</g>
<!-- Node23&#45;&gt;Node16 -->
<g id="edge25" class="edge">
<title>Node23&#45;&gt;Node16</title>
<path fill="none" stroke="#9a32cd" stroke-dasharray="5,2" d="M274.28,-681.75C326.09,-681.59 396.55,-677.65 416,-658.43 463.12,-611.84 389.86,-559.85 434,-510.43 440.79,-502.82 449.9,-497.85 459.62,-494.64"/>
<polygon fill="#9a32cd" stroke="#9a32cd" points="274.2,-678.25 264.19,-681.73 274.18,-685.25 274.2,-678.25"/>
<text text-anchor="middle" x="366" y="-705.43" font-family="Helvetica" font-size="10.00"> _fFlatPrior</text>
<text text-anchor="start" x="326" y="-694.43" font-family="Helvetica" font-size="10.00">param_skip_adapt</text>
<text text-anchor="middle" x="366" y="-683.43" font-family="Helvetica" font-size="10.00">_flags</text>
</g>
<!-- Node24 -->
<g id="node24" class="node">
<title>Node24</title>
<g id="a_node24"><a xlink:title=" ">
<polygon fill="white" stroke="#bfbfbf" points="153,-232.93 153,-251.93 277,-251.93 277,-232.93 153,-232.93"/>
<text text-anchor="middle" x="215" y="-239.93" font-family="Helvetica" font-size="10.00">std::vector&lt; std::string &gt;</text>
</a>
</g>
</g>
<!-- Node24&#45;&gt;Node1 -->
<g id="edge39" class="edge">
<title>Node24&#45;&gt;Node1</title>
<path fill="none" stroke="#9a32cd" stroke-dasharray="5,2" d="M261.77,-230.44C355.43,-207.81 575.19,-164.5 754,-204.43 903.58,-237.83 1063.24,-339.97 1110.54,-371.83"/>
<polygon fill="#9a32cd" stroke="#9a32cd" points="260.65,-227.11 251.78,-232.89 262.32,-233.9 260.65,-227.11"/>
<text text-anchor="middle" x="688" y="-229.43" font-family="Helvetica" font-size="10.00"> SampleNames</text>
<text text-anchor="middle" x="688" y="-218.43" font-family="Helvetica" font-size="10.00">SampleTitles</text>
<text text-anchor="middle" x="688" y="-207.43" font-family="Helvetica" font-size="10.00">UniqueSystNames</text>
</g>
<!-- Node24&#45;&gt;Node15 -->
<g id="edge34" class="edge">
<title>Node24&#45;&gt;Node15</title>
<path fill="none" stroke="#9a32cd" stroke-dasharray="5,2" d="M261.2,-230.82C306.59,-222.15 375.43,-217.61 416,-256.43 466.75,-304.98 381.58,-366.68 434,-413.43 487.11,-460.8 696.51,-442.38 754,-400.43 770.74,-388.21 756.37,-371.02 772,-357.43 776.94,-353.13 782.7,-349.74 788.8,-347.07"/>
<polygon fill="#9a32cd" stroke="#9a32cd" points="260.42,-227.41 251.33,-232.84 261.83,-234.27 260.42,-227.41"/>
<text text-anchor="middle" x="519" y="-455.43" font-family="Helvetica" font-size="10.00"> _ParameterGroup</text>
<text text-anchor="middle" x="519" y="-444.43" font-family="Helvetica" font-size="10.00">_fSplineNames</text>
</g>
<!-- Node24&#45;&gt;Node16 -->
<g id="edge26" class="edge">
<title>Node24&#45;&gt;Node16</title>
<path fill="none" stroke="#9a32cd" stroke-dasharray="5,2" d="M242.94,-256.64C262.69,-266.54 290.41,-279.36 316,-287.43 359.15,-301.02 385.24,-273.25 416,-306.43 464.65,-358.91 387.78,-411.8 434,-466.43 440.76,-474.42 449.98,-479.84 459.84,-483.51"/>
<polygon fill="#9a32cd" stroke="#9a32cd" points="244.42,-253.47 233.92,-252.05 241.25,-259.71 244.42,-253.47"/>
<text text-anchor="middle" x="366" y="-320.43" font-family="Helvetica" font-size="10.00"> _fFancyNames</text>
<text text-anchor="middle" x="366" y="-309.43" font-family="Helvetica" font-size="10.00">_fNames</text>
</g>
<!-- Node25 -->
<g id="node25" class="node">
<title>Node25</title>
<g id="a_node25"><a xlink:title=" ">
<polygon fill="white" stroke="#bfbfbf" points="160.5,-578.93 160.5,-597.93 269.5,-597.93 269.5,-578.93 160.5,-578.93"/>
<text text-anchor="middle" x="215" y="-585.93" font-family="Helvetica" font-size="10.00">std::vector&lt; double &gt;</text>
</a>
</g>
</g>
<!-- Node25&#45;&gt;Node16 -->
<g id="edge27" class="edge">
<title>Node25&#45;&gt;Node16</title>
<path fill="none" stroke="#9a32cd" stroke-dasharray="5,2" d="M277.11,-576.27C284.24,-574.26 291.34,-571.99 298,-569.43 306.54,-566.14 307.46,-562.71 316,-559.43 358.57,-543.08 378.25,-562.01 416,-536.43 427.63,-528.54 422.4,-518.36 434,-510.43 441.67,-505.18 450.56,-501.31 459.61,-498.44"/>
<polygon fill="#9a32cd" stroke="#9a32cd" points="276.18,-572.9 267.41,-578.84 277.97,-579.66 276.18,-572.9"/>
<text text-anchor="middle" x="366" y="-650.43" font-family="Helvetica" font-size="10.00"> FlipParameterPoint</text>
<text text-anchor="middle" x="366" y="-639.43" font-family="Helvetica" font-size="10.00">_fCurrVal</text>
<text text-anchor="middle" x="366" y="-628.43" font-family="Helvetica" font-size="10.00">_fError</text>
<text text-anchor="middle" x="366" y="-617.43" font-family="Helvetica" font-size="10.00">_fIndivStepScale</text>
<text text-anchor="middle" x="366" y="-606.43" font-family="Helvetica" font-size="10.00">_fIndivStepScaleInitial</text>
<text text-anchor="middle" x="366" y="-595.43" font-family="Helvetica" font-size="10.00">_fLowBound</text>
<text text-anchor="middle" x="366" y="-584.43" font-family="Helvetica" font-size="10.00">_fPreFitValue</text>
<text text-anchor="middle" x="366" y="-573.43" font-family="Helvetica" font-size="10.00">_fPropVal</text>
<text text-anchor="middle" x="366" y="-562.43" font-family="Helvetica" font-size="10.00">_fUpBound</text>
</g>
<!-- Node26 -->
<g id="node26" class="node">
<title>Node26</title>
<g id="a_node26"><a xlink:title=" ">
<polygon fill="white" stroke="#bfbfbf" points="464,-519.43 464,-549.43 574,-549.43 574,-519.43 464,-519.43"/>
<text text-anchor="start" x="472" y="-537.43" font-family="Helvetica" font-size="10.00">std::vector&lt; std::map</text>
<text text-anchor="middle" x="519" y="-526.43" font-family="Helvetica" font-size="10.00">&lt; int, int &gt; &gt;</text>
</a>
</g>
</g>
<!-- Node26&#45;&gt;Node15 -->
<g id="edge28" class="edge">
<title>Node26&#45;&gt;Node15</title>
<path fill="none" stroke="#9a32cd" stroke-dasharray="5,2" d="M584.09,-541.13C637.31,-542.86 711.01,-535.69 754,-490.43 795.08,-447.18 732.49,-402.11 772,-357.43 775.8,-353.13 780.39,-349.71 785.42,-346.99"/>
<polygon fill="#9a32cd" stroke="#9a32cd" points="584.21,-537.63 574.07,-540.69 583.91,-544.63 584.21,-537.63"/>
<text text-anchor="middle" x="688" y="-542.43" font-family="Helvetica" font-size="10.00"> _fSystToGlobalSystIndexMap</text>
</g>
<!-- Node27 -->
<g id="node27" class="node">
<title>Node27</title>
<g id="a_node27"><a xlink:title=" ">
<polygon fill="white" stroke="#bfbfbf" points="458.5,-384.93 458.5,-403.93 579.5,-403.93 579.5,-384.93 458.5,-384.93"/>
<text text-anchor="middle" x="519" y="-391.93" font-family="Helvetica" font-size="10.00">std::vector&lt; SystType &gt;</text>
</a>
</g>
</g>
<!-- Node27&#45;&gt;Node15 -->
<g id="edge29" class="edge">
<title>Node27&#45;&gt;Node15</title>
<path fill="none" stroke="#9a32cd" stroke-dasharray="5,2" d="M589.96,-389.93C636.9,-385.83 699.83,-378.21 754,-364.43 762.32,-362.31 763.84,-360.08 772,-357.43 783.68,-353.63 796.54,-350.03 808.31,-346.96"/>
<polygon fill="#9a32cd" stroke="#9a32cd" points="589.57,-386.45 579.89,-390.78 590.15,-393.43 589.57,-386.45"/>
<text text-anchor="middle" x="688" y="-388.43" font-family="Helvetica" font-size="10.00"> _fParamType</text>
</g>
<!-- Node28 -->
<g id="node28" class="node">
<title>Node28</title>
<g id="a_node28"><a xlink:title=" ">
<polygon fill="white" stroke="#bfbfbf" points="444.5,-346.93 444.5,-365.93 593.5,-365.93 593.5,-346.93 444.5,-346.93"/>
<text text-anchor="middle" x="519" y="-353.93" font-family="Helvetica" font-size="10.00">std::vector&lt; NormParameter &gt;</text>
</a>
</g>
</g>
<!-- Node28&#45;&gt;Node15 -->
<g id="edge30" class="edge">
<title>Node28&#45;&gt;Node15</title>
<path fill="none" stroke="#9a32cd" stroke-dasharray="5,2" d="M603.9,-351.57C660.08,-348.31 732.89,-344.09 784.32,-341.12"/>
<polygon fill="#9a32cd" stroke="#9a32cd" points="603.39,-348.09 593.61,-352.16 603.8,-355.08 603.39,-348.09"/>
<text text-anchor="middle" x="688" y="-352.43" font-family="Helvetica" font-size="10.00"> NormParams</text>
</g>
<!-- Node29 -->
<g id="node29" class="node">
<title>Node29</title>
<g id="a_node29"><a xlink:title=" ">
<polygon fill="white" stroke="#bfbfbf" points="434,-308.93 434,-327.93 604,-327.93 604,-308.93 434,-308.93"/>
<text text-anchor="middle" x="519" y="-315.93" font-family="Helvetica" font-size="10.00">std::vector&lt; FunctionalParameter &gt;</text>
</a>
</g>
</g>
<!-- Node29&#45;&gt;Node15 -->
<g id="edge31" class="edge">
<title>Node29&#45;&gt;Node15</title>
<path fill="none" stroke="#9a32cd" stroke-dasharray="5,2" d="M614.12,-320.6C656.85,-321.95 708.01,-324.1 754,-327.43 763.82,-328.14 774.2,-329.06 784.34,-330.07"/>
<polygon fill="#9a32cd" stroke="#9a32cd" points="614.11,-317.09 604.01,-320.28 613.9,-324.09 614.11,-317.09"/>
<text text-anchor="middle" x="688" y="-330.43" font-family="Helvetica" font-size="10.00"> FuncParams</text>
</g>
<!-- Node30 -->
<g id="node30" class="node">
<title>Node30</title>
<g id="a_node30"><a xlink:title=" ">
<polygon fill="white" stroke="#bfbfbf" points="443,-270.93 443,-289.93 595,-289.93 595,-270.93 443,-270.93"/>
<text text-anchor="middle" x="519" y="-277.93" font-family="Helvetica" font-size="10.00">std::vector&lt; SplineParameter &gt;</text>
</a>
</g>
</g>
<!-- Node30&#45;&gt;Node15 -->
<g id="edge32" class="edge">
<title>Node30&#45;&gt;Node15</title>
<path fill="none" stroke="#9a32cd" stroke-dasharray="5,2" d="M605.47,-284.99C650.12,-288.52 705.42,-294.7 754,-305.43 778.58,-310.85 805.7,-320.5 824.46,-327.78"/>
<polygon fill="#9a32cd" stroke="#9a32cd" points="605.48,-281.48 595.24,-284.22 604.95,-288.46 605.48,-281.48"/>
<text text-anchor="middle" x="688" y="-308.43" font-family="Helvetica" font-size="10.00"> SplineParams</text>
</g>
<!-- Node31 -->
<g id="node31" class="node">
<title>Node31</title>
<g id="a_node31"><a xlink:title=" ">
<polygon fill="white" stroke="#bfbfbf" points="460.5,-221.43 460.5,-251.43 577.5,-251.43 577.5,-221.43 460.5,-221.43"/>
<text text-anchor="start" x="468.5" y="-239.43" font-family="Helvetica" font-size="10.00">std::vector&lt; Oscillation</text>
<text text-anchor="middle" x="519" y="-228.43" font-family="Helvetica" font-size="10.00">Parameter &gt;</text>
</a>
</g>
</g>
<!-- Node31&#45;&gt;Node15 -->
<g id="edge33" class="edge">
<title>Node31&#45;&gt;Node15</title>
<path fill="none" stroke="#9a32cd" stroke-dasharray="5,2" d="M587.96,-238.34C635.86,-241.64 700.7,-250.12 754,-271.43 787.88,-284.97 821.36,-312.88 837.69,-327.69"/>
<polygon fill="#9a32cd" stroke="#9a32cd" points="587.91,-234.83 577.71,-237.7 587.47,-241.82 587.91,-234.83"/>
<text text-anchor="middle" x="688" y="-274.43" font-family="Helvetica" font-size="10.00"> OscParams</text>
</g>
<!-- Node32 -->
<g id="node32" class="node">
<title>Node32</title>
<g id="a_node32"><a xlink:title=" ">
<polygon fill="white" stroke="#bfbfbf" points="790,-93.43 790,-123.43 908,-123.43 908,-93.43 790,-93.43"/>
<text text-anchor="start" x="798" y="-111.43" font-family="Helvetica" font-size="10.00">std::vector&lt; std::vector</text>
<text text-anchor="middle" x="849" y="-100.43" font-family="Helvetica" font-size="10.00">&lt; std::vector&lt; int &gt; &gt; &gt;</text>
</a>
</g>
</g>
<!-- Node32&#45;&gt;Node1 -->
<g id="edge35" class="edge">
<title>Node32&#45;&gt;Node1</title>
<path fill="none" stroke="#9a32cd" stroke-dasharray="5,2" d="M918.07,-96.57C961.71,-92.98 1016.91,-96.41 1054,-127.43 1093.23,-160.23 1117.7,-329.36 1123.28,-371.77"/>
<polygon fill="#9a32cd" stroke="#9a32cd" points="917.72,-93.09 908.1,-97.53 918.39,-100.06 917.72,-93.09"/>
<text text-anchor="middle" x="999" y="-130.43" font-family="Helvetica" font-size="10.00"> SplineModeVecs</text>
</g>
<!-- Node33 -->
<g id="node33" class="node">
<title>Node33</title>
<g id="a_node33"><a xlink:title=" ">
<polygon fill="white" stroke="#bfbfbf" points="779.5,-44.43 779.5,-74.43 918.5,-74.43 918.5,-44.43 779.5,-44.43"/>
<text text-anchor="start" x="787.5" y="-62.43" font-family="Helvetica" font-size="10.00">std::vector&lt; std::vector</text>
<text text-anchor="middle" x="849" y="-51.43" font-family="Helvetica" font-size="10.00">&lt; std::vector&lt; TAxis * &gt; &gt; &gt;</text>
</a>
</g>
</g>
<!-- Node33&#45;&gt;Node1 -->
<g id="edge36" class="edge">
<title>Node33&#45;&gt;Node1</title>
<path fill="none" stroke="#9a32cd" stroke-dasharray="5,2" d="M929.16,-47.21C971.03,-45.31 1020.54,-50.98 1054,-80.43 1099.53,-120.49 1119.62,-324.4 1123.7,-371.65"/>
<polygon fill="#9a32cd" stroke="#9a32cd" points="928.74,-43.73 918.97,-47.82 929.16,-50.71 928.74,-43.73"/>
<text text-anchor="middle" x="999" y="-83.43" font-family="Helvetica" font-size="10.00"> SplineBinning</text>
</g>
<!-- Node34 -->
<g id="node34" class="node">
<title>Node34</title>
<g id="a_node34"><a xlink:title=" ">
<polygon fill="white" stroke="#bfbfbf" points="785.5,-5.93 785.5,-24.93 912.5,-24.93 912.5,-5.93 785.5,-5.93"/>
<text text-anchor="middle" x="849" y="-12.93" font-family="Helvetica" font-size="10.00">std::vector&lt; M3::float_t &gt;</text>
</a>
</g>
</g>
<!-- Node34&#45;&gt;Node1 -->
<g id="edge38" class="edge">
<title>Node34&#45;&gt;Node1</title>
<path fill="none" stroke="#9a32cd" stroke-dasharray="5,2" d="M900.76,-4.21C946.53,2.7 1012.78,4.26 1054,-32.43 1106.75,-79.38 1121.5,-320.56 1124.06,-371.84"/>
<polygon fill="#9a32cd" stroke="#9a32cd" points="900.05,-0.78 890.75,-5.85 901.19,-7.69 900.05,-0.78"/>
<text text-anchor="middle" x="999" y="-35.43" font-family="Helvetica" font-size="10.00"> weightvec_Monolith</text>
</g>
</g>
</svg>
