<?xml version="1.0" encoding="UTF-8" standalone="no"?>
<!DOCTYPE svg PUBLIC "-//W3C//DTD SVG 1.1//EN"
 "http://www.w3.org/Graphics/SVG/1.1/DTD/svg11.dtd">
<!-- Generated by graphviz version 2.44.0 (0)
 -->
<!-- Title: Fitters/MCMCProcessor.cpp Pages: 1 -->
<svg width="2542pt" height="375pt"
 viewBox="0.00 0.00 2541.50 375.00" xmlns="http://www.w3.org/2000/svg" xmlns:xlink="http://www.w3.org/1999/xlink">
<g id="graph0" class="graph" transform="scale(1 1) rotate(0) translate(4 371)">
<title>Fitters/MCMCProcessor.cpp</title>
<polygon fill="white" stroke="transparent" points="-4,4 -4,-371 2537.5,-371 2537.5,4 -4,4"/>
<!-- Node1 -->
<g id="node1" class="node">
<title>Node1</title>
<g id="a_node1"><a xlink:title=" ">
<polygon fill="#bfbfbf" stroke="black" points="1562.5,-347.5 1562.5,-366.5 1705.5,-366.5 1705.5,-347.5 1562.5,-347.5"/>
<text text-anchor="middle" x="1634" y="-354.5" font-family="Helvetica" font-size="10.00">Fitters/MCMCProcessor.cpp</text>
</a>
</g>
</g>
<!-- Node2 -->
<g id="node2" class="node">
<title>Node2</title>
<g id="a_node2"><a xlink:href="MCMCProcessor_8h.html" target="_top" xlink:title=" ">
<polygon fill="white" stroke="black" points="1535.5,-291.5 1535.5,-310.5 1636.5,-310.5 1636.5,-291.5 1535.5,-291.5"/>
<text text-anchor="middle" x="1586" y="-298.5" font-family="Helvetica" font-size="10.00">MCMCProcessor.h</text>
</a>
</g>
</g>
<!-- Node1&#45;&gt;Node2 -->
<g id="edge1" class="edge">
<title>Node1&#45;&gt;Node2</title>
<path fill="none" stroke="midnightblue" d="M1626.07,-347.08C1619.15,-339.3 1608.93,-327.8 1600.55,-318.37"/>
<polygon fill="midnightblue" stroke="midnightblue" points="1603.04,-315.9 1593.78,-310.75 1597.81,-320.55 1603.04,-315.9"/>
</g>
<!-- Node31 -->
<g id="node17" class="node">
<title>Node31</title>
<g id="a_node17"><a xlink:title=" ">
<polygon fill="white" stroke="#bfbfbf" points="35,-0.5 35,-19.5 77,-19.5 77,-0.5 35,-0.5"/>
<text text-anchor="middle" x="56" y="-7.5" font-family="Helvetica" font-size="10.00">TF1.h</text>
</a>
</g>
</g>
<!-- Node1&#45;&gt;Node31 -->
<g id="edge71" class="edge">
<title>Node1&#45;&gt;Node31</title>
<path fill="none" stroke="midnightblue" d="M1562.47,-354.74C1247.54,-348.76 0,-320.02 0,-240.5 0,-240.5 0,-240.5 0,-121 0,-84.44 24.88,-47.75 41.47,-27.34"/>
<polygon fill="midnightblue" stroke="midnightblue" points="44.2,-29.54 47.98,-19.64 38.85,-25.02 44.2,-29.54"/>
</g>
<!-- Node45 -->
<g id="node49" class="node">
<title>Node45</title>
<g id="a_node49"><a xlink:title=" ">
<polygon fill="white" stroke="#bfbfbf" points="1655,-291.5 1655,-310.5 1711,-310.5 1711,-291.5 1655,-291.5"/>
<text text-anchor="middle" x="1683" y="-298.5" font-family="Helvetica" font-size="10.00">TChain.h</text>
</a>
</g>
</g>
<!-- Node1&#45;&gt;Node45 -->
<g id="edge70" class="edge">
<title>Node1&#45;&gt;Node45</title>
<path fill="none" stroke="midnightblue" d="M1642.09,-347.08C1649.16,-339.3 1659.59,-327.8 1668.15,-318.37"/>
<polygon fill="midnightblue" stroke="midnightblue" points="1670.93,-320.51 1675.06,-310.75 1665.75,-315.8 1670.93,-320.51"/>
</g>
<!-- Node76 -->
<g id="node50" class="node">
<title>Node76</title>
<g id="a_node50"><a xlink:title=" ">
<polygon fill="white" stroke="#bfbfbf" points="1729.5,-291.5 1729.5,-310.5 1806.5,-310.5 1806.5,-291.5 1729.5,-291.5"/>
<text text-anchor="middle" x="1768" y="-298.5" font-family="Helvetica" font-size="10.00">TVirtualFFT.h</text>
</a>
</g>
</g>
<!-- Node1&#45;&gt;Node76 -->
<g id="edge72" class="edge">
<title>Node1&#45;&gt;Node76</title>
<path fill="none" stroke="midnightblue" d="M1655.23,-347.44C1677.38,-338.52 1712.32,-324.44 1737.44,-314.32"/>
<polygon fill="midnightblue" stroke="midnightblue" points="1738.9,-317.5 1746.87,-310.52 1736.28,-311.01 1738.9,-317.5"/>
</g>
<!-- Node3 -->
<g id="node3" class="node">
<title>Node3</title>
<g id="a_node3"><a xlink:title=" ">
<polygon fill="white" stroke="#bfbfbf" points="2380.5,-230 2380.5,-249 2433.5,-249 2433.5,-230 2380.5,-230"/>
<text text-anchor="middle" x="2407" y="-237" font-family="Helvetica" font-size="10.00">complex</text>
</a>
</g>
</g>
<!-- Node2&#45;&gt;Node3 -->
<g id="edge2" class="edge">
<title>Node2&#45;&gt;Node3</title>
<path fill="none" stroke="midnightblue" d="M1636.69,-292.03C1639.84,-291.65 1642.96,-291.3 1646,-291 1967.47,-259 2056.81,-325.87 2372,-255 2374.68,-254.4 2377.41,-253.61 2380.11,-252.71"/>
<polygon fill="midnightblue" stroke="midnightblue" points="2381.48,-255.93 2389.58,-249.09 2378.99,-249.39 2381.48,-255.93"/>
</g>
<!-- Node4 -->
<g id="node4" class="node">
<title>Node4</title>
<g id="a_node4"><a xlink:title=" ">
<polygon fill="white" stroke="#bfbfbf" points="2490.5,-230 2490.5,-249 2533.5,-249 2533.5,-230 2490.5,-230"/>
<text text-anchor="middle" x="2512" y="-237" font-family="Helvetica" font-size="10.00">cstdio</text>
</a>
</g>
</g>
<!-- Node2&#45;&gt;Node4 -->
<g id="edge3" class="edge">
<title>Node2&#45;&gt;Node4</title>
<path fill="none" stroke="midnightblue" d="M1636.69,-292.01C1639.84,-291.64 1642.96,-291.29 1646,-291 1829.77,-273.28 2295.56,-294.05 2476,-255 2478.84,-254.39 2481.74,-253.57 2484.61,-252.63"/>
<polygon fill="midnightblue" stroke="midnightblue" points="2485.91,-255.88 2494.07,-249.11 2483.47,-249.32 2485.91,-255.88"/>
</g>
<!-- Node5 -->
<g id="node5" class="node">
<title>Node5</title>
<g id="a_node5"><a xlink:href="StatisticalUtils_8h.html" target="_top" xlink:title="Utility functions for statistical interpretations in MaCh3.">
<polygon fill="white" stroke="black" points="482,-230 482,-249 602,-249 602,-230 482,-230"/>
<text text-anchor="middle" x="542" y="-237" font-family="Helvetica" font-size="10.00">Fitters/StatisticalUtils.h</text>
</a>
</g>
</g>
<!-- Node2&#45;&gt;Node5 -->
<g id="edge4" class="edge">
<title>Node2&#45;&gt;Node5</title>
<path fill="none" stroke="midnightblue" d="M1535.02,-297.72C1402.64,-291.72 1037.12,-274.56 733,-255 693.13,-252.44 648.62,-249.08 612.6,-246.25"/>
<polygon fill="midnightblue" stroke="midnightblue" points="612.44,-242.73 602.19,-245.43 611.88,-249.7 612.44,-242.73"/>
</g>
<!-- Node30 -->
<g id="node16" class="node">
<title>Node30</title>
<g id="a_node16"><a xlink:title=" ">
<polygon fill="white" stroke="#bfbfbf" points="872.5,-0.5 872.5,-19.5 919.5,-19.5 919.5,-0.5 872.5,-0.5"/>
<text text-anchor="middle" x="896" y="-7.5" font-family="Helvetica" font-size="10.00">TFile.h</text>
</a>
</g>
</g>
<!-- Node2&#45;&gt;Node30 -->
<g id="edge49" class="edge">
<title>Node2&#45;&gt;Node30</title>
<path fill="none" stroke="midnightblue" d="M1535.28,-299.22C1401.99,-295.82 1052,-277.5 1052,-179 1052,-179 1052,-179 1052,-121 1052,-61.54 975.36,-31.39 929.52,-18.68"/>
<polygon fill="midnightblue" stroke="midnightblue" points="930.25,-15.25 919.69,-16.09 928.47,-22.02 930.25,-15.25"/>
</g>
<!-- Node47 -->
<g id="node18" class="node">
<title>Node47</title>
<g id="a_node18"><a xlink:href="HistogramUtils_8h.html" target="_top" xlink:title=" ">
<polygon fill="white" stroke="black" points="28.5,-168.5 28.5,-187.5 159.5,-187.5 159.5,-168.5 28.5,-168.5"/>
<text text-anchor="middle" x="94" y="-175.5" font-family="Helvetica" font-size="10.00">Samples/HistogramUtils.h</text>
</a>
</g>
</g>
<!-- Node2&#45;&gt;Node47 -->
<g id="edge30" class="edge">
<title>Node2&#45;&gt;Node47</title>
<path fill="none" stroke="midnightblue" d="M1535.18,-299.01C1346.02,-295.16 682.9,-280.13 473,-255 349.95,-240.27 207.21,-207.24 137.22,-189.98"/>
<polygon fill="midnightblue" stroke="midnightblue" points="137.98,-186.57 127.43,-187.55 136.29,-193.36 137.98,-186.57"/>
</g>
<!-- Node49 -->
<g id="node20" class="node">
<title>Node49</title>
<g id="a_node20"><a xlink:title=" ">
<polygon fill="white" stroke="#bfbfbf" points="914,-112.5 914,-131.5 986,-131.5 986,-112.5 914,-112.5"/>
<text text-anchor="middle" x="950" y="-119.5" font-family="Helvetica" font-size="10.00">TRandom3.h</text>
</a>
</g>
</g>
<!-- Node2&#45;&gt;Node49 -->
<g id="edge65" class="edge">
<title>Node2&#45;&gt;Node49</title>
<path fill="none" stroke="midnightblue" d="M1535.17,-298.66C1407.13,-294.87 1078.56,-282.56 1038,-255 1002.33,-230.76 1020.14,-203.05 995,-168 987.31,-157.28 977,-146.76 968.19,-138.6"/>
<polygon fill="midnightblue" stroke="midnightblue" points="970.42,-135.9 960.64,-131.82 965.74,-141.11 970.42,-135.9"/>
</g>
<!-- Node50 -->
<g id="node21" class="node">
<title>Node50</title>
<g id="a_node21"><a xlink:title=" ">
<polygon fill="white" stroke="#bfbfbf" points="707.5,-168.5 707.5,-187.5 770.5,-187.5 770.5,-168.5 707.5,-168.5"/>
<text text-anchor="middle" x="739" y="-175.5" font-family="Helvetica" font-size="10.00">TCanvas.h</text>
</a>
</g>
</g>
<!-- Node2&#45;&gt;Node50 -->
<g id="edge51" class="edge">
<title>Node2&#45;&gt;Node50</title>
<path fill="none" stroke="midnightblue" d="M1535.44,-299.96C1392.94,-299.35 990.33,-294.12 865,-255 823.05,-241.91 780.58,-212.09 757.24,-193.94"/>
<polygon fill="midnightblue" stroke="midnightblue" points="759.28,-191.09 749.27,-187.62 754.92,-196.57 759.28,-191.09"/>
</g>
<!-- Node51 -->
<g id="node22" class="node">
<title>Node51</title>
<g id="a_node22"><a xlink:title=" ">
<polygon fill="white" stroke="#bfbfbf" points="788.5,-168.5 788.5,-187.5 837.5,-187.5 837.5,-168.5 788.5,-168.5"/>
<text text-anchor="middle" x="813" y="-175.5" font-family="Helvetica" font-size="10.00">TLine.h</text>
</a>
</g>
</g>
<!-- Node2&#45;&gt;Node51 -->
<g id="edge52" class="edge">
<title>Node2&#45;&gt;Node51</title>
<path fill="none" stroke="midnightblue" d="M1535.22,-300.05C1400.2,-299.63 1034.95,-294.73 922,-255 885.06,-242 849.18,-212.83 829.2,-194.64"/>
<polygon fill="midnightblue" stroke="midnightblue" points="831.35,-191.86 821.65,-187.6 826.58,-196.98 831.35,-191.86"/>
</g>
<!-- Node52 -->
<g id="node23" class="node">
<title>Node52</title>
<g id="a_node23"><a xlink:title=" ">
<polygon fill="white" stroke="#bfbfbf" points="856,-168.5 856,-187.5 914,-187.5 914,-168.5 856,-168.5"/>
<text text-anchor="middle" x="885" y="-175.5" font-family="Helvetica" font-size="10.00">TROOT.h</text>
</a>
</g>
</g>
<!-- Node2&#45;&gt;Node52 -->
<g id="edge63" class="edge">
<title>Node2&#45;&gt;Node52</title>
<path fill="none" stroke="midnightblue" d="M1535.39,-300.46C1406.96,-300.97 1071.43,-298.03 970,-255 939.62,-242.11 912.76,-213.78 897.72,-195.58"/>
<polygon fill="midnightblue" stroke="midnightblue" points="900.3,-193.2 891.32,-187.57 894.83,-197.57 900.3,-193.2"/>
</g>
<!-- Node53 -->
<g id="node24" class="node">
<title>Node53</title>
<g id="a_node24"><a xlink:title=" ">
<polygon fill="white" stroke="#bfbfbf" points="932.5,-168.5 932.5,-187.5 985.5,-187.5 985.5,-168.5 932.5,-168.5"/>
<text text-anchor="middle" x="959" y="-175.5" font-family="Helvetica" font-size="10.00">TStyle.h</text>
</a>
</g>
</g>
<!-- Node2&#45;&gt;Node53 -->
<g id="edge58" class="edge">
<title>Node2&#45;&gt;Node53</title>
<path fill="none" stroke="midnightblue" d="M1535.16,-298.86C1400.95,-295.47 1044.33,-283.81 1000,-255 979.92,-241.95 968.93,-215.59 963.51,-197.62"/>
<polygon fill="midnightblue" stroke="midnightblue" points="966.88,-196.67 960.88,-187.93 960.13,-198.5 966.88,-196.67"/>
</g>
<!-- Node54 -->
<g id="node25" class="node">
<title>Node54</title>
<g id="a_node25"><a xlink:href="ParameterHandlerUtils_8h.html" target="_top" xlink:title=" ">
<polygon fill="white" stroke="red" points="1332.5,-224.5 1332.5,-254.5 1481.5,-254.5 1481.5,-224.5 1332.5,-224.5"/>
<text text-anchor="start" x="1340.5" y="-242.5" font-family="Helvetica" font-size="10.00">Parameters/ParameterHandler</text>
<text text-anchor="middle" x="1407" y="-231.5" font-family="Helvetica" font-size="10.00">Utils.h</text>
</a>
</g>
</g>
<!-- Node2&#45;&gt;Node54 -->
<g id="edge31" class="edge">
<title>Node2&#45;&gt;Node54</title>
<path fill="none" stroke="midnightblue" d="M1560.35,-291.48C1533.96,-282.7 1492.1,-268.79 1458.78,-257.71"/>
<polygon fill="midnightblue" stroke="midnightblue" points="1459.78,-254.36 1449.19,-254.52 1457.57,-261 1459.78,-254.36"/>
</g>
<!-- Node58 -->
<g id="node29" class="node">
<title>Node58</title>
<g id="a_node29"><a xlink:title=" ">
<polygon fill="white" stroke="#bfbfbf" points="1080,-168.5 1080,-187.5 1146,-187.5 1146,-168.5 1080,-168.5"/>
<text text-anchor="middle" x="1113" y="-175.5" font-family="Helvetica" font-size="10.00">TVectorD.h</text>
</a>
</g>
</g>
<!-- Node2&#45;&gt;Node58 -->
<g id="edge56" class="edge">
<title>Node2&#45;&gt;Node58</title>
<path fill="none" stroke="midnightblue" d="M1535.21,-293.97C1482.01,-287.02 1396.29,-274.07 1324,-255 1257.71,-237.51 1182.79,-208.13 1142.47,-191.48"/>
<polygon fill="midnightblue" stroke="midnightblue" points="1143.57,-188.15 1132.99,-187.54 1140.88,-194.61 1143.57,-188.15"/>
</g>
<!-- Node43 -->
<g id="node32" class="node">
<title>Node43</title>
<g id="a_node32"><a xlink:title=" ">
<polygon fill="white" stroke="#bfbfbf" points="1973,-168.5 1973,-187.5 2023,-187.5 2023,-168.5 1973,-168.5"/>
<text text-anchor="middle" x="1998" y="-175.5" font-family="Helvetica" font-size="10.00">TTree.h</text>
</a>
</g>
</g>
<!-- Node2&#45;&gt;Node43 -->
<g id="edge62" class="edge">
<title>Node2&#45;&gt;Node43</title>
<path fill="none" stroke="midnightblue" d="M1572.64,-291.45C1551.24,-276.74 1513.66,-246.13 1534,-224 1566.07,-189.1 1912.18,-195.35 1959,-188 1960.27,-187.8 1961.57,-187.58 1962.87,-187.35"/>
<polygon fill="midnightblue" stroke="midnightblue" points="1963.81,-190.73 1972.93,-185.34 1962.44,-183.87 1963.81,-190.73"/>
</g>
<!-- Node61 -->
<g id="node33" class="node">
<title>Node61</title>
<g id="a_node33"><a xlink:title=" ">
<polygon fill="white" stroke="#bfbfbf" points="2041.5,-168.5 2041.5,-187.5 2094.5,-187.5 2094.5,-168.5 2041.5,-168.5"/>
<text text-anchor="middle" x="2068" y="-175.5" font-family="Helvetica" font-size="10.00">TMath.h</text>
</a>
</g>
</g>
<!-- Node2&#45;&gt;Node61 -->
<g id="edge68" class="edge">
<title>Node2&#45;&gt;Node61</title>
<path fill="none" stroke="midnightblue" d="M1580.39,-291.43C1570.96,-275.86 1554.6,-242.81 1572,-224 1605.24,-188.05 1948.43,-195.45 2031.44,-187.43"/>
<polygon fill="midnightblue" stroke="midnightblue" points="2031.88,-190.9 2041.37,-186.18 2031.01,-183.95 2031.88,-190.9"/>
</g>
<!-- Node46 -->
<g id="node35" class="node">
<title>Node46</title>
<g id="a_node35"><a xlink:title=" ">
<polygon fill="white" stroke="#bfbfbf" points="2112.5,-168.5 2112.5,-187.5 2189.5,-187.5 2189.5,-168.5 2112.5,-168.5"/>
<text text-anchor="middle" x="2151" y="-175.5" font-family="Helvetica" font-size="10.00">TStopwatch.h</text>
</a>
</g>
</g>
<!-- Node2&#45;&gt;Node46 -->
<g id="edge59" class="edge">
<title>Node2&#45;&gt;Node46</title>
<path fill="none" stroke="midnightblue" d="M1585.84,-291.21C1586.08,-274.99 1589.16,-240.47 1610,-224 1651.28,-191.37 2015.29,-194.8 2102.16,-187.81"/>
<polygon fill="midnightblue" stroke="midnightblue" points="2102.73,-191.27 2112.33,-186.77 2102.03,-184.3 2102.73,-191.27"/>
</g>
<!-- Node64 -->
<g id="node37" class="node">
<title>Node64</title>
<g id="a_node37"><a xlink:title=" ">
<polygon fill="white" stroke="#bfbfbf" points="2208,-168.5 2208,-187.5 2318,-187.5 2318,-168.5 2208,-168.5"/>
<text text-anchor="middle" x="2263" y="-175.5" font-family="Helvetica" font-size="10.00">TMatrixDSymEigen.h</text>
</a>
</g>
</g>
<!-- Node2&#45;&gt;Node64 -->
<g id="edge69" class="edge">
<title>Node2&#45;&gt;Node64</title>
<path fill="none" stroke="midnightblue" d="M1589.46,-291.47C1596.64,-275.02 1614.86,-239.23 1643,-224 1749.24,-166.52 2060.14,-198.95 2197.87,-187.93"/>
<polygon fill="midnightblue" stroke="midnightblue" points="2198.23,-191.41 2207.87,-187.02 2197.6,-184.44 2198.23,-191.41"/>
</g>
<!-- Node67 -->
<g id="node39" class="node">
<title>Node67</title>
<g id="a_node39"><a xlink:title=" ">
<polygon fill="white" stroke="#bfbfbf" points="2363.5,-168.5 2363.5,-187.5 2410.5,-187.5 2410.5,-168.5 2363.5,-168.5"/>
<text text-anchor="middle" x="2387" y="-175.5" font-family="Helvetica" font-size="10.00">TKey.h</text>
</a>
</g>
</g>
<!-- Node2&#45;&gt;Node67 -->
<g id="edge64" class="edge">
<title>Node2&#45;&gt;Node67</title>
<path fill="none" stroke="midnightblue" d="M1636.69,-292.02C1639.84,-291.64 1642.96,-291.3 1646,-291 1690.11,-286.71 2412.37,-287.04 2443,-255 2452.52,-245.04 2448.95,-236.42 2443,-224 2436.75,-210.95 2424.66,-200.49 2413.32,-192.95"/>
<polygon fill="midnightblue" stroke="midnightblue" points="2414.85,-189.79 2404.5,-187.54 2411.19,-195.75 2414.85,-189.79"/>
</g>
<!-- Node44 -->
<g id="node40" class="node">
<title>Node44</title>
<g id="a_node40"><a xlink:title=" ">
<polygon fill="white" stroke="#bfbfbf" points="1652,-230 1652,-249 1714,-249 1714,-230 1652,-230"/>
<text text-anchor="middle" x="1683" y="-237" font-family="Helvetica" font-size="10.00">TBranch.h</text>
</a>
</g>
</g>
<!-- Node2&#45;&gt;Node44 -->
<g id="edge50" class="edge">
<title>Node2&#45;&gt;Node44</title>
<path fill="none" stroke="midnightblue" d="M1599.9,-291.48C1615.67,-281.8 1641.64,-265.87 1660.35,-254.39"/>
<polygon fill="midnightblue" stroke="midnightblue" points="1662.43,-257.22 1669.13,-249.01 1658.77,-251.25 1662.43,-257.22"/>
</g>
<!-- Node68 -->
<g id="node41" class="node">
<title>Node68</title>
<g id="a_node41"><a xlink:title=" ">
<polygon fill="white" stroke="#bfbfbf" points="1732,-230 1732,-249 1794,-249 1794,-230 1732,-230"/>
<text text-anchor="middle" x="1763" y="-237" font-family="Helvetica" font-size="10.00">TLegend.h</text>
</a>
</g>
</g>
<!-- Node2&#45;&gt;Node68 -->
<g id="edge53" class="edge">
<title>Node2&#45;&gt;Node68</title>
<path fill="none" stroke="midnightblue" d="M1612.86,-291.44C1640.54,-282.56 1684.9,-268.16 1723,-255 1725.38,-254.18 1727.84,-253.32 1730.31,-252.44"/>
<polygon fill="midnightblue" stroke="midnightblue" points="1731.54,-255.72 1739.78,-249.05 1729.18,-249.13 1731.54,-255.72"/>
</g>
<!-- Node69 -->
<g id="node42" class="node">
<title>Node69</title>
<g id="a_node42"><a xlink:title=" ">
<polygon fill="white" stroke="#bfbfbf" points="1812,-230 1812,-249 1868,-249 1868,-230 1812,-230"/>
<text text-anchor="middle" x="1840" y="-237" font-family="Helvetica" font-size="10.00">TString.h</text>
</a>
</g>
</g>
<!-- Node2&#45;&gt;Node69 -->
<g id="edge54" class="edge">
<title>Node2&#45;&gt;Node69</title>
<path fill="none" stroke="midnightblue" d="M1636.59,-292.01C1680.95,-284.41 1746.94,-271.67 1803,-255 1805.43,-254.28 1807.93,-253.46 1810.42,-252.6"/>
<polygon fill="midnightblue" stroke="midnightblue" points="1811.7,-255.86 1819.86,-249.1 1809.27,-249.29 1811.7,-255.86"/>
</g>
<!-- Node70 -->
<g id="node43" class="node">
<title>Node70</title>
<g id="a_node43"><a xlink:title=" ">
<polygon fill="white" stroke="#bfbfbf" points="1886,-230 1886,-249 1970,-249 1970,-230 1886,-230"/>
<text text-anchor="middle" x="1928" y="-237" font-family="Helvetica" font-size="10.00">TGraphErrors.h</text>
</a>
</g>
</g>
<!-- Node2&#45;&gt;Node70 -->
<g id="edge55" class="edge">
<title>Node2&#45;&gt;Node70</title>
<path fill="none" stroke="midnightblue" d="M1636.77,-292.32C1717.03,-280.14 1865.39,-257.54 1877,-255 1881.42,-254.03 1886.02,-252.9 1890.57,-251.71"/>
<polygon fill="midnightblue" stroke="midnightblue" points="1891.64,-255.05 1900.37,-249.03 1889.8,-248.29 1891.64,-255.05"/>
</g>
<!-- Node71 -->
<g id="node44" class="node">
<title>Node71</title>
<g id="a_node44"><a xlink:title=" ">
<polygon fill="white" stroke="#bfbfbf" points="1988,-230 1988,-249 2042,-249 2042,-230 1988,-230"/>
<text text-anchor="middle" x="2015" y="-237" font-family="Helvetica" font-size="10.00">TColor.h</text>
</a>
</g>
</g>
<!-- Node2&#45;&gt;Node71 -->
<g id="edge57" class="edge">
<title>Node2&#45;&gt;Node71</title>
<path fill="none" stroke="midnightblue" d="M1636.72,-292.24C1639.86,-291.81 1642.97,-291.39 1646,-291 1793.64,-271.95 1834.59,-291.15 1979,-255 1981.67,-254.33 1984.4,-253.51 1987.1,-252.6"/>
<polygon fill="midnightblue" stroke="midnightblue" points="1988.5,-255.81 1996.64,-249.03 1986.05,-249.26 1988.5,-255.81"/>
</g>
<!-- Node72 -->
<g id="node45" class="node">
<title>Node72</title>
<g id="a_node45"><a xlink:title=" ">
<polygon fill="white" stroke="#bfbfbf" points="2060.5,-230 2060.5,-249 2109.5,-249 2109.5,-230 2060.5,-230"/>
<text text-anchor="middle" x="2085" y="-237" font-family="Helvetica" font-size="10.00">TText.h</text>
</a>
</g>
</g>
<!-- Node2&#45;&gt;Node72 -->
<g id="edge60" class="edge">
<title>Node2&#45;&gt;Node72</title>
<path fill="none" stroke="midnightblue" d="M1636.71,-292.17C1639.85,-291.76 1642.97,-291.36 1646,-291 1825.44,-269.59 1875.73,-298.99 2051,-255 2053.36,-254.41 2055.77,-253.67 2058.16,-252.85"/>
<polygon fill="midnightblue" stroke="midnightblue" points="2059.68,-256.01 2067.72,-249.11 2057.13,-249.49 2059.68,-256.01"/>
</g>
<!-- Node73 -->
<g id="node46" class="node">
<title>Node73</title>
<g id="a_node46"><a xlink:title=" ">
<polygon fill="white" stroke="#bfbfbf" points="2127.5,-230 2127.5,-249 2184.5,-249 2184.5,-230 2127.5,-230"/>
<text text-anchor="middle" x="2156" y="-237" font-family="Helvetica" font-size="10.00">TGaxis.h</text>
</a>
</g>
</g>
<!-- Node2&#45;&gt;Node73 -->
<g id="edge61" class="edge">
<title>Node2&#45;&gt;Node73</title>
<path fill="none" stroke="midnightblue" d="M1636.7,-292.13C1639.85,-291.72 1642.96,-291.34 1646,-291 1855.5,-267.35 1913.47,-301.98 2119,-255 2121.84,-254.35 2124.74,-253.52 2127.62,-252.59"/>
<polygon fill="midnightblue" stroke="midnightblue" points="2128.93,-255.84 2137.14,-249.14 2126.55,-249.26 2128.93,-255.84"/>
</g>
<!-- Node74 -->
<g id="node47" class="node">
<title>Node74</title>
<g id="a_node47"><a xlink:title=" ">
<polygon fill="white" stroke="#bfbfbf" points="2203,-230 2203,-249 2283,-249 2283,-230 2203,-230"/>
<text text-anchor="middle" x="2243" y="-237" font-family="Helvetica" font-size="10.00">TGraphPolar.h</text>
</a>
</g>
</g>
<!-- Node2&#45;&gt;Node74 -->
<g id="edge66" class="edge">
<title>Node2&#45;&gt;Node74</title>
<path fill="none" stroke="midnightblue" d="M1636.7,-292.09C1639.84,-291.7 1642.96,-291.33 1646,-291 1888.68,-264.87 1953.72,-297.89 2194,-255 2198.72,-254.16 2203.63,-253.02 2208.44,-251.76"/>
<polygon fill="midnightblue" stroke="midnightblue" points="2209.41,-255.13 2218.08,-249.04 2207.5,-248.39 2209.41,-255.13"/>
</g>
<!-- Node75 -->
<g id="node48" class="node">
<title>Node75</title>
<g id="a_node48"><a xlink:title=" ">
<polygon fill="white" stroke="#bfbfbf" points="2301.5,-230 2301.5,-249 2362.5,-249 2362.5,-230 2301.5,-230"/>
<text text-anchor="middle" x="2332" y="-237" font-family="Helvetica" font-size="10.00">TCandle.h</text>
</a>
</g>
</g>
<!-- Node2&#45;&gt;Node75 -->
<g id="edge67" class="edge">
<title>Node2&#45;&gt;Node75</title>
<path fill="none" stroke="midnightblue" d="M1636.7,-292.06C1639.84,-291.67 1642.96,-291.31 1646,-291 1932.05,-261.64 2010.27,-312.61 2292,-255 2295.43,-254.3 2298.97,-253.36 2302.45,-252.29"/>
<polygon fill="midnightblue" stroke="midnightblue" points="2303.64,-255.58 2311.98,-249.05 2301.39,-248.96 2303.64,-255.58"/>
</g>
<!-- Node6 -->
<g id="node6" class="node">
<title>Node6</title>
<g id="a_node6"><a xlink:title=" ">
<polygon fill="white" stroke="#bfbfbf" points="444,-168.5 444,-187.5 498,-187.5 498,-168.5 444,-168.5"/>
<text text-anchor="middle" x="471" y="-175.5" font-family="Helvetica" font-size="10.00">iostream</text>
</a>
</g>
</g>
<!-- Node5&#45;&gt;Node6 -->
<g id="edge5" class="edge">
<title>Node5&#45;&gt;Node6</title>
<path fill="none" stroke="midnightblue" d="M531.83,-229.98C520.65,-220.61 502.48,-205.38 488.91,-194.01"/>
<polygon fill="midnightblue" stroke="midnightblue" points="491.07,-191.25 481.15,-187.51 486.57,-196.61 491.07,-191.25"/>
</g>
<!-- Node7 -->
<g id="node7" class="node">
<title>Node7</title>
<g id="a_node7"><a xlink:title=" ">
<polygon fill="white" stroke="#bfbfbf" points="516,-168.5 516,-187.5 568,-187.5 568,-168.5 516,-168.5"/>
<text text-anchor="middle" x="542" y="-175.5" font-family="Helvetica" font-size="10.00">sstream</text>
</a>
</g>
</g>
<!-- Node5&#45;&gt;Node7 -->
<g id="edge6" class="edge">
<title>Node5&#45;&gt;Node7</title>
<path fill="none" stroke="midnightblue" d="M542,-229.98C542,-221.58 542,-208.48 542,-197.66"/>
<polygon fill="midnightblue" stroke="midnightblue" points="545.5,-197.51 542,-187.51 538.5,-197.51 545.5,-197.51"/>
</g>
<!-- Node8 -->
<g id="node8" class="node">
<title>Node8</title>
<g id="a_node8"><a xlink:title=" ">
<polygon fill="white" stroke="#bfbfbf" points="178,-168.5 178,-187.5 228,-187.5 228,-168.5 178,-168.5"/>
<text text-anchor="middle" x="203" y="-175.5" font-family="Helvetica" font-size="10.00">iomanip</text>
</a>
</g>
</g>
<!-- Node5&#45;&gt;Node8 -->
<g id="edge7" class="edge">
<title>Node5&#45;&gt;Node8</title>
<path fill="none" stroke="midnightblue" d="M481.78,-230.25C422.2,-221.7 328.25,-207.17 238.03,-188.06"/>
<polygon fill="midnightblue" stroke="midnightblue" points="238.7,-184.62 228.19,-185.95 237.23,-191.47 238.7,-184.62"/>
</g>
<!-- Node9 -->
<g id="node9" class="node">
<title>Node9</title>
<g id="a_node9"><a xlink:title=" ">
<polygon fill="white" stroke="#bfbfbf" points="246.5,-168.5 246.5,-187.5 289.5,-187.5 289.5,-168.5 246.5,-168.5"/>
<text text-anchor="middle" x="268" y="-175.5" font-family="Helvetica" font-size="10.00">vector</text>
</a>
</g>
</g>
<!-- Node5&#45;&gt;Node9 -->
<g id="edge8" class="edge">
<title>Node5&#45;&gt;Node9</title>
<path fill="none" stroke="midnightblue" d="M495.63,-229.97C448.66,-221.09 373.73,-206.24 299.6,-187.99"/>
<polygon fill="midnightblue" stroke="midnightblue" points="300.17,-184.52 289.62,-185.51 298.48,-191.32 300.17,-184.52"/>
</g>
<!-- Node10 -->
<g id="node10" class="node">
<title>Node10</title>
<g id="a_node10"><a xlink:title=" ">
<polygon fill="white" stroke="#bfbfbf" points="308,-168.5 308,-187.5 364,-187.5 364,-168.5 308,-168.5"/>
<text text-anchor="middle" x="336" y="-175.5" font-family="Helvetica" font-size="10.00">algorithm</text>
</a>
</g>
</g>
<!-- Node5&#45;&gt;Node10 -->
<g id="edge9" class="edge">
<title>Node5&#45;&gt;Node10</title>
<path fill="none" stroke="midnightblue" d="M512.49,-229.98C475.97,-219.43 413.76,-201.46 373.79,-189.92"/>
<polygon fill="midnightblue" stroke="midnightblue" points="374.72,-186.54 364.14,-187.13 372.77,-193.26 374.72,-186.54"/>
</g>
<!-- Node11 -->
<g id="node11" class="node">
<title>Node11</title>
<g id="a_node11"><a xlink:title=" ">
<polygon fill="white" stroke="#bfbfbf" points="382,-168.5 382,-187.5 426,-187.5 426,-168.5 382,-168.5"/>
<text text-anchor="middle" x="404" y="-175.5" font-family="Helvetica" font-size="10.00">cmath</text>
</a>
</g>
</g>
<!-- Node5&#45;&gt;Node11 -->
<g id="edge10" class="edge">
<title>Node5&#45;&gt;Node11</title>
<path fill="none" stroke="midnightblue" d="M522.23,-229.98C498.86,-219.9 459.79,-203.05 433,-191.5"/>
<polygon fill="midnightblue" stroke="midnightblue" points="434.3,-188.25 423.74,-187.51 431.53,-194.68 434.3,-188.25"/>
</g>
<!-- Node12 -->
<g id="node12" class="node">
<title>Node12</title>
<g id="a_node12"><a xlink:href="Manager_8h.html" target="_top" xlink:title=" ">
<polygon fill="white" stroke="red" points="586.5,-168.5 586.5,-187.5 689.5,-187.5 689.5,-168.5 586.5,-168.5"/>
<text text-anchor="middle" x="638" y="-175.5" font-family="Helvetica" font-size="10.00">Manager/Manager.h</text>
</a>
</g>
</g>
<!-- Node5&#45;&gt;Node12 -->
<g id="edge11" class="edge">
<title>Node5&#45;&gt;Node12</title>
<path fill="none" stroke="midnightblue" d="M555.75,-229.98C571.37,-220.3 597.06,-204.37 615.58,-192.89"/>
<polygon fill="midnightblue" stroke="midnightblue" points="617.62,-195.75 624.27,-187.51 613.93,-189.8 617.62,-195.75"/>
</g>
<!-- Node5&#45;&gt;Node47 -->
<g id="edge20" class="edge">
<title>Node5&#45;&gt;Node47</title>
<path fill="none" stroke="midnightblue" d="M481.58,-230.48C400.37,-219.69 256.08,-200.53 168.31,-188.87"/>
<polygon fill="midnightblue" stroke="midnightblue" points="168.53,-185.37 158.16,-187.52 167.61,-192.31 168.53,-185.37"/>
</g>
<!-- Node5&#45;&gt;Node50 -->
<g id="edge26" class="edge">
<title>Node5&#45;&gt;Node50</title>
<path fill="none" stroke="midnightblue" d="M570.23,-229.98C604.6,-219.59 662.81,-202.01 701.08,-190.45"/>
<polygon fill="midnightblue" stroke="midnightblue" points="702.27,-193.75 710.83,-187.51 700.24,-187.05 702.27,-193.75"/>
</g>
<!-- Node5&#45;&gt;Node51 -->
<g id="edge27" class="edge">
<title>Node5&#45;&gt;Node51</title>
<path fill="none" stroke="midnightblue" d="M585.39,-229.92C630.98,-220.75 704.98,-205.46 778.29,-188.08"/>
<polygon fill="midnightblue" stroke="midnightblue" points="779.24,-191.45 788.15,-185.73 777.61,-184.64 779.24,-191.45"/>
</g>
<!-- Node5&#45;&gt;Node52 -->
<g id="edge28" class="edge">
<title>Node5&#45;&gt;Node52</title>
<path fill="none" stroke="midnightblue" d="M599.91,-229.98C659.06,-221.02 753.77,-206.01 845.63,-187.96"/>
<polygon fill="midnightblue" stroke="midnightblue" points="846.52,-191.35 855.65,-185.98 845.17,-184.49 846.52,-191.35"/>
</g>
<!-- Node5&#45;&gt;Node53 -->
<g id="edge29" class="edge">
<title>Node5&#45;&gt;Node53</title>
<path fill="none" stroke="midnightblue" d="M602.06,-232.66C675.35,-225.07 803.2,-210.3 922.31,-187.93"/>
<polygon fill="midnightblue" stroke="midnightblue" points="923.17,-191.33 932.34,-186.02 921.86,-184.45 923.17,-191.33"/>
</g>
<!-- Node13 -->
<g id="node13" class="node">
<title>Node13</title>
<g id="a_node13"><a xlink:href="SampleStructs_8h.html" target="_top" xlink:title=" ">
<polygon fill="white" stroke="red" points="295.5,-112.5 295.5,-131.5 426.5,-131.5 426.5,-112.5 295.5,-112.5"/>
<text text-anchor="middle" x="361" y="-119.5" font-family="Helvetica" font-size="10.00">Samples/SampleStructs.h</text>
</a>
</g>
</g>
<!-- Node12&#45;&gt;Node13 -->
<g id="edge12" class="edge">
<title>Node12&#45;&gt;Node13</title>
<path fill="none" stroke="midnightblue" d="M594.11,-168.44C545.48,-158.96 467.05,-143.67 414.78,-133.48"/>
<polygon fill="midnightblue" stroke="midnightblue" points="415.17,-129.99 404.69,-131.52 413.83,-136.87 415.17,-129.99"/>
</g>
<!-- Node27 -->
<g id="node14" class="node">
<title>Node27</title>
<g id="a_node14"><a xlink:href="ParameterStructs_8h.html" target="_top" xlink:title="Definitions of generic parameter structs and utility templates for MaCh3.">
<polygon fill="white" stroke="red" points="283.5,-56.5 283.5,-75.5 438.5,-75.5 438.5,-56.5 283.5,-56.5"/>
<text text-anchor="middle" x="361" y="-63.5" font-family="Helvetica" font-size="10.00">Parameters/ParameterStructs.h</text>
</a>
</g>
</g>
<!-- Node13&#45;&gt;Node27 -->
<g id="edge13" class="edge">
<title>Node13&#45;&gt;Node27</title>
<path fill="none" stroke="midnightblue" d="M361,-112.08C361,-105.01 361,-94.86 361,-85.99"/>
<polygon fill="midnightblue" stroke="midnightblue" points="364.5,-85.75 361,-75.75 357.5,-85.75 364.5,-85.75"/>
</g>
<!-- Node29 -->
<g id="node15" class="node">
<title>Node29</title>
<g id="a_node15"><a xlink:title=" ">
<polygon fill="white" stroke="#bfbfbf" points="219.5,-0.5 219.5,-19.5 290.5,-19.5 290.5,-0.5 219.5,-0.5"/>
<text text-anchor="middle" x="255" y="-7.5" font-family="Helvetica" font-size="10.00">TObjString.h</text>
</a>
</g>
</g>
<!-- Node13&#45;&gt;Node29 -->
<g id="edge17" class="edge">
<title>Node13&#45;&gt;Node29</title>
<path fill="none" stroke="midnightblue" d="M331.26,-112.37C312.34,-105.44 288.7,-93.85 274,-76 263.15,-62.82 258.49,-43.69 256.5,-29.59"/>
<polygon fill="midnightblue" stroke="midnightblue" points="259.97,-29.13 255.4,-19.57 253.01,-29.89 259.97,-29.13"/>
</g>
<!-- Node13&#45;&gt;Node30 -->
<g id="edge18" class="edge">
<title>Node13&#45;&gt;Node30</title>
<path fill="none" stroke="midnightblue" d="M402.54,-112.46C505.01,-91.39 768.38,-37.24 862.19,-17.95"/>
<polygon fill="midnightblue" stroke="midnightblue" points="863.17,-21.32 872.26,-15.88 861.76,-14.47 863.17,-21.32"/>
</g>
<!-- Node13&#45;&gt;Node31 -->
<g id="edge19" class="edge">
<title>Node13&#45;&gt;Node31</title>
<path fill="none" stroke="midnightblue" d="M337.32,-112.46C282.56,-92.71 147.24,-43.91 86.44,-21.98"/>
<polygon fill="midnightblue" stroke="midnightblue" points="87.6,-18.68 77,-18.57 85.22,-25.26 87.6,-18.68"/>
</g>
<!-- Node27&#45;&gt;Node29 -->
<g id="edge14" class="edge">
<title>Node27&#45;&gt;Node29</title>
<path fill="none" stroke="midnightblue" d="M343.97,-56.32C326.97,-47.66 300.62,-34.24 281.01,-24.25"/>
<polygon fill="midnightblue" stroke="midnightblue" points="282.49,-21.08 271.99,-19.65 279.31,-27.31 282.49,-21.08"/>
</g>
<!-- Node27&#45;&gt;Node30 -->
<g id="edge15" class="edge">
<title>Node27&#45;&gt;Node30</title>
<path fill="none" stroke="midnightblue" d="M438.51,-57.18C556.95,-45.22 778.11,-22.9 862.29,-14.4"/>
<polygon fill="midnightblue" stroke="midnightblue" points="862.72,-17.88 872.32,-13.39 862.02,-10.91 862.72,-17.88"/>
</g>
<!-- Node27&#45;&gt;Node31 -->
<g id="edge16" class="edge">
<title>Node27&#45;&gt;Node31</title>
<path fill="none" stroke="midnightblue" d="M312.67,-56.44C249.37,-45.24 140.19,-25.91 86.97,-16.48"/>
<polygon fill="midnightblue" stroke="midnightblue" points="87.56,-13.03 77.1,-14.74 86.34,-19.93 87.56,-13.03"/>
</g>
<!-- Node47&#45;&gt;Node13 -->
<g id="edge21" class="edge">
<title>Node47&#45;&gt;Node13</title>
<path fill="none" stroke="midnightblue" d="M136.31,-168.44C183.08,-158.98 258.46,-143.74 308.85,-133.55"/>
<polygon fill="midnightblue" stroke="midnightblue" points="309.78,-136.93 318.89,-131.52 308.4,-130.07 309.78,-136.93"/>
</g>
<!-- Node47&#45;&gt;Node27 -->
<g id="edge22" class="edge">
<title>Node47&#45;&gt;Node27</title>
<path fill="none" stroke="midnightblue" d="M99.06,-168.25C107.75,-154.04 126.93,-126.14 151,-112 187.9,-90.33 233.93,-79.05 273.47,-73.19"/>
<polygon fill="midnightblue" stroke="midnightblue" points="273.96,-76.66 283.38,-71.82 272.99,-69.72 273.96,-76.66"/>
</g>
<!-- Node47&#45;&gt;Node29 -->
<g id="edge24" class="edge">
<title>Node47&#45;&gt;Node29</title>
<path fill="none" stroke="midnightblue" d="M96.54,-168.28C100.68,-155.08 109.9,-129.69 124,-112 154.24,-74.08 201.61,-42.23 230.33,-24.95"/>
<polygon fill="midnightblue" stroke="midnightblue" points="232.47,-27.75 239.31,-19.66 228.91,-21.72 232.47,-27.75"/>
</g>
<!-- Node48 -->
<g id="node19" class="node">
<title>Node48</title>
<g id="a_node19"><a xlink:title=" ">
<polygon fill="white" stroke="#bfbfbf" points="160.5,-112.5 160.5,-131.5 277.5,-131.5 277.5,-112.5 160.5,-112.5"/>
<text text-anchor="middle" x="219" y="-119.5" font-family="Helvetica" font-size="10.00">TGraphAsymmErrors.h</text>
</a>
</g>
</g>
<!-- Node47&#45;&gt;Node48 -->
<g id="edge23" class="edge">
<title>Node47&#45;&gt;Node48</title>
<path fill="none" stroke="midnightblue" d="M113.81,-168.44C134.29,-159.6 166.48,-145.69 189.86,-135.59"/>
<polygon fill="midnightblue" stroke="midnightblue" points="191.49,-138.7 199.29,-131.52 188.72,-132.27 191.49,-138.7"/>
</g>
<!-- Node47&#45;&gt;Node49 -->
<g id="edge25" class="edge">
<title>Node47&#45;&gt;Node49</title>
<path fill="none" stroke="midnightblue" d="M159.83,-168.87C162.93,-168.56 166,-168.27 169,-168 447.35,-143.3 782.77,-129.24 903.72,-124.67"/>
<polygon fill="midnightblue" stroke="midnightblue" points="903.88,-128.16 913.74,-124.29 903.62,-121.17 903.88,-128.16"/>
</g>
<!-- Node54&#45;&gt;Node27 -->
<g id="edge32" class="edge">
<title>Node54&#45;&gt;Node27</title>
<path fill="none" stroke="midnightblue" d="M1349.48,-224.44C1314.96,-215.38 1270.43,-202.58 1232,-188 1212.67,-180.66 1209.33,-175.32 1190,-168 1105.68,-136.06 1083.79,-127.72 995,-112 802.12,-77.85 571.9,-69.42 448.86,-67.47"/>
<polygon fill="midnightblue" stroke="midnightblue" points="448.79,-63.96 438.74,-67.31 448.68,-70.96 448.79,-63.96"/>
</g>
<!-- Node54&#45;&gt;Node30 -->
<g id="edge40" class="edge">
<title>Node54&#45;&gt;Node30</title>
<path fill="none" stroke="midnightblue" d="M1481.54,-228.88C1495.63,-227.17 1510.26,-225.47 1524,-224 1613.69,-214.43 1984.78,-236.41 1926,-168 1792.91,-13.09 1093.21,-9.31 930.04,-10.57"/>
<polygon fill="midnightblue" stroke="midnightblue" points="929.62,-7.08 919.65,-10.67 929.69,-14.08 929.62,-7.08"/>
</g>
<!-- Node54&#45;&gt;Node49 -->
<g id="edge41" class="edge">
<title>Node54&#45;&gt;Node49</title>
<path fill="none" stroke="midnightblue" d="M1333.43,-224.46C1292.91,-215.8 1242.05,-203.39 1198,-188 1178.1,-181.05 1174.97,-174.74 1155,-168 1126.09,-158.24 1047.28,-141.99 996.23,-131.92"/>
<polygon fill="midnightblue" stroke="midnightblue" points="996.58,-128.42 986.1,-129.93 995.23,-135.29 996.58,-128.42"/>
</g>
<!-- Node55 -->
<g id="node26" class="node">
<title>Node55</title>
<g id="a_node26"><a xlink:title=" ">
<polygon fill="white" stroke="#bfbfbf" points="1422.5,-168.5 1422.5,-187.5 1485.5,-187.5 1485.5,-168.5 1422.5,-168.5"/>
<text text-anchor="middle" x="1454" y="-175.5" font-family="Helvetica" font-size="10.00">TMatrixT.h</text>
</a>
</g>
</g>
<!-- Node54&#45;&gt;Node55 -->
<g id="edge33" class="edge">
<title>Node54&#45;&gt;Node55</title>
<path fill="none" stroke="midnightblue" d="M1418.14,-224.4C1424.97,-215.75 1433.74,-204.64 1440.91,-195.58"/>
<polygon fill="midnightblue" stroke="midnightblue" points="1443.71,-197.67 1447.16,-187.66 1438.22,-193.34 1443.71,-197.67"/>
</g>
<!-- Node56 -->
<g id="node27" class="node">
<title>Node56</title>
<g id="a_node27"><a xlink:title=" ">
<polygon fill="white" stroke="#bfbfbf" points="1504,-168.5 1504,-187.5 1590,-187.5 1590,-168.5 1504,-168.5"/>
<text text-anchor="middle" x="1547" y="-175.5" font-family="Helvetica" font-size="10.00">TMatrixDSym.h</text>
</a>
</g>
</g>
<!-- Node54&#45;&gt;Node56 -->
<g id="edge34" class="edge">
<title>Node54&#45;&gt;Node56</title>
<path fill="none" stroke="midnightblue" d="M1440.18,-224.4C1463.56,-214.46 1494.61,-201.26 1517.21,-191.66"/>
<polygon fill="midnightblue" stroke="midnightblue" points="1518.79,-194.79 1526.63,-187.66 1516.06,-188.35 1518.79,-194.79"/>
</g>
<!-- Node57 -->
<g id="node28" class="node">
<title>Node57</title>
<g id="a_node28"><a xlink:title=" ">
<polygon fill="white" stroke="#bfbfbf" points="1608,-168.5 1608,-187.5 1672,-187.5 1672,-168.5 1608,-168.5"/>
<text text-anchor="middle" x="1640" y="-175.5" font-family="Helvetica" font-size="10.00">TVectorT.h</text>
</a>
</g>
</g>
<!-- Node54&#45;&gt;Node57 -->
<g id="edge35" class="edge">
<title>Node54&#45;&gt;Node57</title>
<path fill="none" stroke="midnightblue" d="M1461.92,-224.47C1503.54,-213.85 1559.88,-199.46 1597.95,-189.74"/>
<polygon fill="midnightblue" stroke="midnightblue" points="1598.88,-193.11 1607.7,-187.25 1597.15,-186.33 1598.88,-193.11"/>
</g>
<!-- Node54&#45;&gt;Node58 -->
<g id="edge36" class="edge">
<title>Node54&#45;&gt;Node58</title>
<path fill="none" stroke="midnightblue" d="M1337.7,-224.47C1281.39,-213.08 1203.75,-197.37 1156.04,-187.71"/>
<polygon fill="midnightblue" stroke="midnightblue" points="1156.53,-184.24 1146.04,-185.69 1155.14,-191.1 1156.53,-184.24"/>
</g>
<!-- Node59 -->
<g id="node30" class="node">
<title>Node59</title>
<g id="a_node30"><a xlink:title=" ">
<polygon fill="white" stroke="#bfbfbf" points="1690.5,-168.5 1690.5,-187.5 1741.5,-187.5 1741.5,-168.5 1690.5,-168.5"/>
<text text-anchor="middle" x="1716" y="-175.5" font-family="Helvetica" font-size="10.00">TH1D.h</text>
</a>
</g>
</g>
<!-- Node54&#45;&gt;Node59 -->
<g id="edge37" class="edge">
<title>Node54&#45;&gt;Node59</title>
<path fill="none" stroke="midnightblue" d="M1481.71,-226.17C1534.58,-217.11 1607.35,-203.97 1680.57,-187.97"/>
<polygon fill="midnightblue" stroke="midnightblue" points="1681.42,-191.36 1690.43,-185.79 1679.92,-184.53 1681.42,-191.36"/>
</g>
<!-- Node60 -->
<g id="node31" class="node">
<title>Node60</title>
<g id="a_node31"><a xlink:title=" ">
<polygon fill="white" stroke="#bfbfbf" points="1759.5,-168.5 1759.5,-187.5 1810.5,-187.5 1810.5,-168.5 1759.5,-168.5"/>
<text text-anchor="middle" x="1785" y="-175.5" font-family="Helvetica" font-size="10.00">TH2D.h</text>
</a>
</g>
</g>
<!-- Node54&#45;&gt;Node60 -->
<g id="edge38" class="edge">
<title>Node54&#45;&gt;Node60</title>
<path fill="none" stroke="midnightblue" d="M1481.76,-226.2C1486.58,-225.45 1491.36,-224.71 1496,-224 1605.95,-207.28 1637.07,-210.48 1749.42,-188.13"/>
<polygon fill="midnightblue" stroke="midnightblue" points="1750.34,-191.51 1759.46,-186.11 1748.96,-184.65 1750.34,-191.51"/>
</g>
<!-- Node54&#45;&gt;Node43 -->
<g id="edge39" class="edge">
<title>Node54&#45;&gt;Node43</title>
<path fill="none" stroke="midnightblue" d="M1481.72,-225.86C1486.54,-225.19 1491.34,-224.56 1496,-224 1700.93,-199.38 1754.99,-219.29 1959,-188 1960.27,-187.8 1961.57,-187.59 1962.88,-187.36"/>
<polygon fill="midnightblue" stroke="midnightblue" points="1963.8,-190.74 1972.93,-185.36 1962.44,-183.88 1963.8,-190.74"/>
</g>
<!-- Node54&#45;&gt;Node61 -->
<g id="edge42" class="edge">
<title>Node54&#45;&gt;Node61</title>
<path fill="none" stroke="midnightblue" d="M1481.82,-229.43C1498.95,-227.5 1517.1,-225.58 1534,-224 1751.72,-203.71 1811.14,-222.47 2031.44,-187.79"/>
<polygon fill="midnightblue" stroke="midnightblue" points="2032.05,-191.23 2041.37,-186.2 2030.94,-184.32 2032.05,-191.23"/>
</g>
<!-- Node62 -->
<g id="node34" class="node">
<title>Node62</title>
<g id="a_node34"><a xlink:title=" ">
<polygon fill="white" stroke="#bfbfbf" points="1829,-168.5 1829,-187.5 1917,-187.5 1917,-168.5 1829,-168.5"/>
<text text-anchor="middle" x="1873" y="-175.5" font-family="Helvetica" font-size="10.00">TDecompChol.h</text>
</a>
</g>
</g>
<!-- Node54&#45;&gt;Node62 -->
<g id="edge43" class="edge">
<title>Node54&#45;&gt;Node62</title>
<path fill="none" stroke="midnightblue" d="M1481.74,-226.04C1486.56,-225.32 1491.35,-224.64 1496,-224 1636.32,-204.79 1674.81,-207.98 1818.7,-188.11"/>
<polygon fill="midnightblue" stroke="midnightblue" points="1819.36,-191.55 1828.78,-186.7 1818.4,-184.62 1819.36,-191.55"/>
</g>
<!-- Node54&#45;&gt;Node46 -->
<g id="edge44" class="edge">
<title>Node54&#45;&gt;Node46</title>
<path fill="none" stroke="midnightblue" d="M1481.72,-231.61C1509.99,-229.09 1542.47,-226.3 1572,-224 1804.93,-205.89 1867.21,-217.99 2102.1,-188.1"/>
<polygon fill="midnightblue" stroke="midnightblue" points="2102.86,-191.54 2112.33,-186.79 2101.97,-184.59 2102.86,-191.54"/>
</g>
<!-- Node63 -->
<g id="node36" class="node">
<title>Node63</title>
<g id="a_node36"><a xlink:title=" ">
<polygon fill="white" stroke="#bfbfbf" points="1240.5,-168.5 1240.5,-187.5 1297.5,-187.5 1297.5,-168.5 1240.5,-168.5"/>
<text text-anchor="middle" x="1269" y="-175.5" font-family="Helvetica" font-size="10.00">TMatrix.h</text>
</a>
</g>
</g>
<!-- Node54&#45;&gt;Node63 -->
<g id="edge45" class="edge">
<title>Node54&#45;&gt;Node63</title>
<path fill="none" stroke="midnightblue" d="M1374.3,-224.4C1351.25,-214.46 1320.64,-201.26 1298.37,-191.66"/>
<polygon fill="midnightblue" stroke="midnightblue" points="1299.65,-188.4 1289.08,-187.66 1296.88,-194.83 1299.65,-188.4"/>
</g>
<!-- Node54&#45;&gt;Node64 -->
<g id="edge46" class="edge">
<title>Node54&#45;&gt;Node64</title>
<path fill="none" stroke="midnightblue" d="M1481.71,-232.98C1520.05,-230.19 1567.52,-226.82 1610,-224 1868.37,-206.88 1936.34,-214.09 2197.7,-188.05"/>
<polygon fill="midnightblue" stroke="midnightblue" points="2198.27,-191.51 2207.88,-187.03 2197.58,-184.55 2198.27,-191.51"/>
</g>
<!-- Node65 -->
<g id="node38" class="node">
<title>Node65</title>
<g id="a_node38"><a xlink:title=" ">
<polygon fill="white" stroke="#bfbfbf" points="1315.5,-168.5 1315.5,-187.5 1404.5,-187.5 1404.5,-168.5 1315.5,-168.5"/>
<text text-anchor="middle" x="1360" y="-175.5" font-family="Helvetica" font-size="10.00">TMatrixDEigen.h</text>
</a>
</g>
</g>
<!-- Node54&#45;&gt;Node65 -->
<g id="edge47" class="edge">
<title>Node54&#45;&gt;Node65</title>
<path fill="none" stroke="midnightblue" d="M1395.86,-224.4C1389.03,-215.75 1380.26,-204.64 1373.09,-195.58"/>
<polygon fill="midnightblue" stroke="midnightblue" points="1375.78,-193.34 1366.84,-187.66 1370.29,-197.67 1375.78,-193.34"/>
</g>
<!-- Node54&#45;&gt;Node67 -->
<g id="edge48" class="edge">
<title>Node54&#45;&gt;Node67</title>
<path fill="none" stroke="midnightblue" d="M1481.66,-233.74C1528.08,-230.83 1589.01,-227.08 1643,-224 1946.93,-206.67 2024.12,-218.61 2327,-188 2335.57,-187.13 2344.78,-185.9 2353.36,-184.63"/>
<polygon fill="midnightblue" stroke="midnightblue" points="2354.07,-188.06 2363.41,-183.07 2353,-181.14 2354.07,-188.06"/>
</g>
</g>
</svg>
