<?xml version="1.0" encoding="UTF-8" standalone="no"?>
<!DOCTYPE svg PUBLIC "-//W3C//DTD SVG 1.1//EN"
 "http://www.w3.org/Graphics/SVG/1.1/DTD/svg11.dtd">
<!-- Generated by graphviz version 2.43.0 (0)
 -->
<!-- Title: ParameterTunes Pages: 1 -->
<svg width="340pt" height="124pt"
 viewBox="0.00 0.00 340.00 123.50" xmlns="http://www.w3.org/2000/svg" xmlns:xlink="http://www.w3.org/1999/xlink">
<g id="graph0" class="graph" transform="scale(1 1) rotate(0) translate(4 119.5)">
<title>ParameterTunes</title>
<!-- Node1 -->
<g id="node1" class="node">
<title>Node1</title>
<g id="a_node1"><a xlink:title="Class storing tune values, for example allowing flexibly to retrieve parameter values for for PostND ...">
<polygon fill="#999999" stroke="#666666" points="332,-72.5 237,-72.5 237,-53.5 332,-53.5 332,-72.5"/>
<text text-anchor="middle" x="284.5" y="-60.5" font-family="Helvetica,sans-Serif" font-size="10.00">ParameterTunes</text>
</a>
</g>
</g>
<!-- Node2 -->
<g id="node2" class="node">
<title>Node2</title>
<g id="a_node2"><a xlink:title=" ">
<polygon fill="white" stroke="#666666" points="140,-115.5 0,-115.5 0,-96.5 140,-96.5 140,-115.5"/>
<text text-anchor="middle" x="70" y="-103.5" font-family="Helvetica,sans-Serif" font-size="10.00">std::vector&lt; std::string &gt;</text>
</a>
</g>
</g>
<!-- Node2&#45;&gt;Node1 -->
<g id="edge1" class="edge">
<title>Node2&#45;&gt;Node1</title>
<path fill="none" stroke="#9a32cd" stroke-dasharray="5,2" d="M134.04,-94.67C160.35,-89.79 191.21,-83.86 219,-78 226.99,-76.32 235.51,-74.41 243.65,-72.54"/>
<polygon fill="#9a32cd" stroke="#9a32cd" points="133.39,-91.23 124.19,-96.49 134.66,-98.11 133.39,-91.23"/>
<text text-anchor="middle" x="188.5" y="-93" font-family="Helvetica,sans-Serif" font-size="10.00"> TuneNames</text>
</g>
<!-- Node3 -->
<g id="node3" class="node">
<title>Node3</title>
<g id="a_node3"><a xlink:title=" ">
<polygon fill="white" stroke="#666666" points="135.5,-78 4.5,-78 4.5,-48 135.5,-48 135.5,-78"/>
<text text-anchor="start" x="12.5" y="-66" font-family="Helvetica,sans-Serif" font-size="10.00">std::vector&lt; std::vector</text>
<text text-anchor="middle" x="70" y="-55" font-family="Helvetica,sans-Serif" font-size="10.00">&lt; double &gt; &gt;</text>
</a>
</g>
</g>
<!-- Node3&#45;&gt;Node1 -->
<g id="edge2" class="edge">
<title>Node3&#45;&gt;Node1</title>
<path fill="none" stroke="#9a32cd" stroke-dasharray="5,2" d="M145.73,-63C176.01,-63 210.05,-63 236.72,-63"/>
<polygon fill="#9a32cd" stroke="#9a32cd" points="145.62,-59.5 135.62,-63 145.62,-66.5 145.62,-59.5"/>
<text text-anchor="middle" x="188.5" y="-66" font-family="Helvetica,sans-Serif" font-size="10.00"> TuneValues</text>
</g>
<!-- Node4 -->
<g id="node4" class="node">
<title>Node4</title>
<g id="a_node4"><a xlink:title=" ">
<polygon fill="white" stroke="#666666" points="127,-30 13,-30 13,0 127,0 127,-30"/>
<text text-anchor="start" x="21" y="-18" font-family="Helvetica,sans-Serif" font-size="10.00">std::unordered_map</text>
<text text-anchor="middle" x="70" y="-7" font-family="Helvetica,sans-Serif" font-size="10.00">&lt; std::string, int &gt;</text>
</a>
</g>
</g>
<!-- Node4&#45;&gt;Node1 -->
<g id="edge3" class="edge">
<title>Node4&#45;&gt;Node1</title>
<path fill="none" stroke="#9a32cd" stroke-dasharray="5,2" d="M137.21,-29.63C162.78,-35.31 192.26,-41.91 219,-48 226.62,-49.74 234.75,-51.61 242.57,-53.42"/>
<polygon fill="#9a32cd" stroke="#9a32cd" points="137.77,-26.17 127.25,-27.42 136.25,-33 137.77,-26.17"/>
<text text-anchor="middle" x="188.5" y="-51" font-family="Helvetica,sans-Serif" font-size="10.00"> TuneMap</text>
</g>
</g>
</svg>
