<?xml version="1.0" encoding="UTF-8" standalone="no"?>
<!DOCTYPE svg PUBLIC "-//W3C//DTD SVG 1.1//EN"
 "http://www.w3.org/Graphics/SVG/1.1/DTD/svg11.dtd">
<!-- Generated by graphviz version 2.43.0 (0)
 -->
<!-- Title: LikelihoodFit Pages: 1 -->
<!--zoomable 245 -->
<svg id="main" version="1.1" xmlns="http://www.w3.org/2000/svg" xmlns:xlink="http://www.w3.org/1999/xlink" xml:space="preserve" onload="init(evt)">
<style type="text/css"><![CDATA[
.edge:hover path { stroke: red; }
.edge:hover polygon { stroke: red; fill: red; }
]]></style>
<script type="text/javascript"><![CDATA[
var edges = document.getElementsByTagName('g');
if (edges && edges.length) {
  for (var i=0;i<edges.length;i++) {
    if (edges[i].id.substr(0,4)=='edge') {
      edges[i].setAttribute('class','edge');
    }
  }
}
]]></script>
        <defs>
                <circle id="rim" cx="0" cy="0" r="7"/>
                <circle id="rim2" cx="0" cy="0" r="3.5"/>
                <g id="zoomPlus">
                        <use xlink:href="#rim" fill="#404040">
                                <set attributeName="fill" to="#808080" begin="zoomplus.mouseover" end="zoomplus.mouseout"/>
                        </use>
                        <path d="M-4,0h8M0,-4v8" fill="none" stroke="white" stroke-width="1.5" pointer-events="none"/>
                </g>
                <g id="zoomMin">
                        <use xlink:href="#rim" fill="#404040">
                                <set attributeName="fill" to="#808080" begin="zoomminus.mouseover" end="zoomminus.mouseout"/>
                        </use>
                        <path d="M-4,0h8" fill="none" stroke="white" stroke-width="1.5" pointer-events="none"/>
                </g>
                <g id="dirArrow">
                        <path fill="none" stroke="white" stroke-width="1.5" d="M0,-3.0v7 M-2.5,-0.5L0,-3.0L2.5,-0.5"/>
                </g>
               <g id="resetDef">
                       <use xlink:href="#rim2" fill="#404040">
                               <set attributeName="fill" to="#808080" begin="reset.mouseover" end="reset.mouseout"/>
                       </use>
               </g>
        </defs>

<script type="text/javascript">
var viewWidth = 749;
var viewHeight = 245;
var sectionId = 'dynsection-1';
</script>
<script xlink:href="svgpan.js"/>
<svg id="graph" class="graph">
<g id="viewport">
<title>LikelihoodFit</title>
<!-- Node1 -->
<g id="node1" class="node">
<title>Node1</title>
<g id="a_node1"><a xlink:title="Implementation of base Likelihood Fit class, it is mostly responsible for likelihood calculation whil...">
<polygon fill="#999999" stroke="#666666" points="741,-124 663,-124 663,-105 741,-105 741,-124"/>
<text text-anchor="middle" x="702" y="-112" font-family="Helvetica,sans-Serif" font-size="10.00">LikelihoodFit</text>
</a>
</g>
</g>
<!-- Node2 -->
<g id="node2" class="node">
<title>Node2</title>
<g id="a_node2"><a xlink:href="classFitterBase.html" target="_top" xlink:title="Base class for implementing fitting algorithms.">
<polygon fill="white" stroke="#666666" points="626,-124 560,-124 560,-105 626,-105 626,-124"/>
<text text-anchor="middle" x="593" y="-112" font-family="Helvetica,sans-Serif" font-size="10.00">FitterBase</text>
</a>
</g>
</g>
<!-- Node2&#45;&gt;Node1 -->
<g id="edge1" class="edge">
<title>Node2&#45;&gt;Node1</title>
<path fill="none" stroke="#63b8ff" d="M636.19,-114.5C645,-114.5 654.23,-114.5 662.88,-114.5"/>
<polygon fill="#63b8ff" stroke="#63b8ff" points="636.1,-111 626.1,-114.5 636.1,-118 636.1,-111"/>
</g>
<!-- Node3 -->
<g id="node3" class="node">
<title>Node3</title>
<g id="a_node3"><a xlink:href="classmanager.html" target="_top" xlink:title="The manager class is responsible for managing configurations and settings.">
<polygon fill="white" stroke="#666666" points="406.5,-231 346.5,-231 346.5,-212 406.5,-212 406.5,-231"/>
<text text-anchor="middle" x="376.5" y="-219" font-family="Helvetica,sans-Serif" font-size="10.00">manager</text>
</a>
</g>
</g>
<!-- Node3&#45;&gt;Node2 -->
<g id="edge2" class="edge">
<title>Node3&#45;&gt;Node2</title>
<path fill="none" stroke="#9a32cd" stroke-dasharray="5,2" d="M417.13,-220.78C452.54,-218.39 504.48,-210.42 542,-185.5 565.36,-169.98 581.17,-139.53 588.07,-124.04"/>
<polygon fill="#9a32cd" stroke="#9a32cd" points="416.5,-217.31 406.7,-221.35 416.88,-224.3 416.5,-217.31"/>
<text text-anchor="middle" x="510.5" y="-212.5" font-family="Helvetica,sans-Serif" font-size="10.00"> fitMan</text>
</g>
<!-- Node4 -->
<g id="node4" class="node">
<title>Node4</title>
<g id="a_node4"><a xlink:title=" ">
<polygon fill="white" stroke="#666666" points="206,-231 141,-231 141,-212 206,-212 206,-231"/>
<text text-anchor="middle" x="173.5" y="-219" font-family="Helvetica,sans-Serif" font-size="10.00">std::string</text>
</a>
</g>
</g>
<!-- Node4&#45;&gt;Node3 -->
<g id="edge3" class="edge">
<title>Node4&#45;&gt;Node3</title>
<path fill="none" stroke="#9a32cd" stroke-dasharray="5,2" d="M216.82,-221.5C255.72,-221.5 312.37,-221.5 346.41,-221.5"/>
<polygon fill="#9a32cd" stroke="#9a32cd" points="216.35,-218 206.35,-221.5 216.35,-225 216.35,-218"/>
<text text-anchor="middle" x="249" y="-224.5" font-family="Helvetica,sans-Serif" font-size="10.00"> FileName</text>
</g>
<!-- Node5 -->
<g id="node5" class="node">
<title>Node5</title>
<g id="a_node5"><a xlink:title=" ">
<polygon fill="white" stroke="#666666" points="104,-236.5 0,-236.5 0,-206.5 104,-206.5 104,-236.5"/>
<text text-anchor="start" x="8" y="-224.5" font-family="Helvetica,sans-Serif" font-size="10.00">std::basic_string&lt;</text>
<text text-anchor="middle" x="52" y="-213.5" font-family="Helvetica,sans-Serif" font-size="10.00"> Char &gt;</text>
</a>
</g>
</g>
<!-- Node5&#45;&gt;Node4 -->
<g id="edge4" class="edge">
<title>Node5&#45;&gt;Node4</title>
<path fill="none" stroke="#63b8ff" d="M114.1,-221.5C123.41,-221.5 132.68,-221.5 141,-221.5"/>
<polygon fill="#63b8ff" stroke="#63b8ff" points="114.03,-218 104.03,-221.5 114.03,-225 114.03,-218"/>
</g>
<!-- Node6 -->
<g id="node6" class="node">
<title>Node6</title>
<g id="a_node6"><a xlink:title=" ">
<polygon fill="white" stroke="#666666" points="438.5,-190 314.5,-190 314.5,-171 438.5,-171 438.5,-190"/>
<text text-anchor="middle" x="376.5" y="-178" font-family="Helvetica,sans-Serif" font-size="10.00">std::vector&lt; double &gt;</text>
</a>
</g>
</g>
<!-- Node6&#45;&gt;Node2 -->
<g id="edge5" class="edge">
<title>Node6&#45;&gt;Node2</title>
<path fill="none" stroke="#9a32cd" stroke-dasharray="5,2" d="M441.34,-168.96C472.3,-162.36 509.69,-152.91 542,-140.5 553.69,-136.01 566.19,-129.51 575.77,-124.13"/>
<polygon fill="#9a32cd" stroke="#9a32cd" points="440.6,-165.53 431.52,-171 442.03,-172.39 440.6,-165.53"/>
<text text-anchor="middle" x="510.5" y="-173.5" font-family="Helvetica,sans-Serif" font-size="10.00"> sample_llh</text>
<text text-anchor="middle" x="510.5" y="-162.5" font-family="Helvetica,sans-Serif" font-size="10.00">syst_llh</text>
</g>
<!-- Node7 -->
<g id="node7" class="node">
<title>Node7</title>
<g id="a_node7"><a xlink:title=" ">
<polygon fill="white" stroke="#666666" points="454,-152.5 299,-152.5 299,-122.5 454,-122.5 454,-152.5"/>
<text text-anchor="start" x="307" y="-140.5" font-family="Helvetica,sans-Serif" font-size="10.00">std::vector&lt; SampleHandler</text>
<text text-anchor="middle" x="376.5" y="-129.5" font-family="Helvetica,sans-Serif" font-size="10.00">Base * &gt;</text>
</a>
</g>
</g>
<!-- Node7&#45;&gt;Node2 -->
<g id="edge6" class="edge">
<title>Node7&#45;&gt;Node2</title>
<path fill="none" stroke="#9a32cd" stroke-dasharray="5,2" d="M464.37,-128.19C498.02,-124.58 534.46,-120.67 559.75,-117.96"/>
<polygon fill="#9a32cd" stroke="#9a32cd" points="463.6,-124.75 454.03,-129.29 464.35,-131.71 463.6,-124.75"/>
<text text-anchor="middle" x="510.5" y="-128.5" font-family="Helvetica,sans-Serif" font-size="10.00"> samples</text>
</g>
<!-- Node8 -->
<g id="node8" class="node">
<title>Node8</title>
<g id="a_node8"><a xlink:title=" ">
<polygon fill="white" stroke="#666666" points="460.5,-104.5 292.5,-104.5 292.5,-74.5 460.5,-74.5 460.5,-104.5"/>
<text text-anchor="start" x="300.5" y="-92.5" font-family="Helvetica,sans-Serif" font-size="10.00">std::vector&lt; ParameterHandler</text>
<text text-anchor="middle" x="376.5" y="-81.5" font-family="Helvetica,sans-Serif" font-size="10.00">Base * &gt;</text>
</a>
</g>
</g>
<!-- Node8&#45;&gt;Node2 -->
<g id="edge7" class="edge">
<title>Node8&#45;&gt;Node2</title>
<path fill="none" stroke="#9a32cd" stroke-dasharray="5,2" d="M470.78,-96.27C494.1,-98.43 519.01,-101.16 542,-104.5 547.78,-105.34 553.91,-106.41 559.81,-107.54"/>
<polygon fill="#9a32cd" stroke="#9a32cd" points="470.82,-92.76 460.54,-95.34 470.19,-99.73 470.82,-92.76"/>
<text text-anchor="middle" x="510.5" y="-107.5" font-family="Helvetica,sans-Serif" font-size="10.00"> systematics</text>
</g>
<!-- Node9 -->
<g id="node9" class="node">
<title>Node9</title>
<g id="a_node9"><a xlink:title=" ">
<polygon fill="white" stroke="#666666" points="461,-56 292,-56 292,-37 461,-37 461,-56"/>
<text text-anchor="middle" x="376.5" y="-44" font-family="Helvetica,sans-Serif" font-size="10.00">std::unique_ptr&lt; TStopwatch &gt;</text>
</a>
</g>
</g>
<!-- Node9&#45;&gt;Node2 -->
<g id="edge8" class="edge">
<title>Node9&#45;&gt;Node2</title>
<path fill="none" stroke="#9a32cd" stroke-dasharray="5,2" d="M471.44,-50.77C495.25,-54.37 520.23,-60.43 542,-70.5 559.42,-78.56 575.27,-94.67 584.27,-105"/>
<polygon fill="#9a32cd" stroke="#9a32cd" points="471.71,-47.28 461.33,-49.38 470.75,-54.21 471.71,-47.28"/>
<text text-anchor="middle" x="510.5" y="-84.5" font-family="Helvetica,sans-Serif" font-size="10.00"> clock</text>
<text text-anchor="middle" x="510.5" y="-73.5" font-family="Helvetica,sans-Serif" font-size="10.00">stepClock</text>
</g>
<!-- Node10 -->
<g id="node10" class="node">
<title>Node10</title>
<g id="a_node10"><a xlink:title=" ">
<polygon fill="white" stroke="#666666" points="458.5,-19 294.5,-19 294.5,0 458.5,0 458.5,-19"/>
<text text-anchor="middle" x="376.5" y="-7" font-family="Helvetica,sans-Serif" font-size="10.00">std::unique_ptr&lt; TRandom3 &gt;</text>
</a>
</g>
</g>
<!-- Node10&#45;&gt;Node2 -->
<g id="edge9" class="edge">
<title>Node10&#45;&gt;Node2</title>
<path fill="none" stroke="#9a32cd" stroke-dasharray="5,2" d="M468.56,-10.89C493.94,-14.74 520.44,-22.32 542,-36.5 567.53,-53.29 582.71,-88.12 588.84,-104.97"/>
<polygon fill="#9a32cd" stroke="#9a32cd" points="468.91,-7.4 458.53,-9.54 467.98,-14.34 468.91,-7.4"/>
<text text-anchor="middle" x="510.5" y="-39.5" font-family="Helvetica,sans-Serif" font-size="10.00"> random</text>
</g>
</g>
</svg>
        <g id="navigator" transform="translate(0 0)" fill="#404254">
                <rect fill="#f2f5e9" fill-opacity="0.5" stroke="#606060" stroke-width=".5" x="0" y="0" width="60" height="60"/>
                <use id="zoomplus" xlink:href="#zoomPlus" x="17" y="9" onmousedown="handleZoom(evt,'in')"/>
                <use id="zoomminus" xlink:href="#zoomMin" x="42" y="9" onmousedown="handleZoom(evt,'out')"/>
                <use id="reset" xlink:href="#resetDef" x="30" y="36" onmousedown="handleReset()"/>
                <g id="arrowUp" xlink:href="#dirArrow" transform="translate(30 24)" onmousedown="handlePan(0,-1)">
                  <use xlink:href="#rim" fill="#404040">
                        <set attributeName="fill" to="#808080" begin="arrowUp.mouseover" end="arrowUp.mouseout"/>
                  </use>
                  <path fill="none" stroke="white" stroke-width="1.5" d="M0,-3.0v7 M-2.5,-0.5L0,-3.0L2.5,-0.5"/>
                </g>
                <g id="arrowRight" xlink:href="#dirArrow" transform="rotate(90) translate(36 -43)" onmousedown="handlePan(1,0)">
                  <use xlink:href="#rim" fill="#404040">
                        <set attributeName="fill" to="#808080" begin="arrowRight.mouseover" end="arrowRight.mouseout"/>
                  </use>
                  <path fill="none" stroke="white" stroke-width="1.5" d="M0,-3.0v7 M-2.5,-0.5L0,-3.0L2.5,-0.5"/>
                </g>
                <g id="arrowDown" xlink:href="#dirArrow" transform="rotate(180) translate(-30 -48)" onmousedown="handlePan(0,1)">
                  <use xlink:href="#rim" fill="#404040">
                        <set attributeName="fill" to="#808080" begin="arrowDown.mouseover" end="arrowDown.mouseout"/>
                  </use>
                  <path fill="none" stroke="white" stroke-width="1.5" d="M0,-3.0v7 M-2.5,-0.5L0,-3.0L2.5,-0.5"/>
                </g>
                <g id="arrowLeft" xlink:href="#dirArrow" transform="rotate(270) translate(-36 17)" onmousedown="handlePan(-1,0)">
                  <use xlink:href="#rim" fill="#404040">
                        <set attributeName="fill" to="#808080" begin="arrowLeft.mouseover" end="arrowLeft.mouseout"/>
                  </use>
                  <path fill="none" stroke="white" stroke-width="1.5" d="M0,-3.0v7 M-2.5,-0.5L0,-3.0L2.5,-0.5"/>
                </g>
        </g>
        <svg viewBox="0 0 15 15" width="100%" height="30px" preserveAspectRatio="xMaxYMin meet">
         <g id="arrow_out" transform="scale(0.3 0.3)">
          <a xlink:href="classLikelihoodFit__coll__graph_org.svg" target="_base">
           <rect id="button" ry="5" rx="5" y="6" x="6" height="38" width="38"
                fill="#f2f5e9" fill-opacity="0.5" stroke="#606060" stroke-width="1.0"/>
           <path id="arrow"
             d="M 11.500037,31.436501 C 11.940474,20.09759 22.043105,11.32322 32.158766,21.979434 L 37.068811,17.246167 C 37.068811,17.246167 37.088388,32 37.088388,32 L 22.160133,31.978069 C 22.160133,31.978069 26.997745,27.140456 26.997745,27.140456 C 18.528582,18.264221 13.291696,25.230495 11.500037,31.436501 z"
             style="fill:#404040;"/>
          </a>
         </g>
        </svg>
</svg>
