<?xml version="1.0" encoding="UTF-8" standalone="no"?>
<!DOCTYPE svg PUBLIC "-//W3C//DTD SVG 1.1//EN"
 "http://www.w3.org/Graphics/SVG/1.1/DTD/svg11.dtd">
<!-- Generated by graphviz version 2.43.0 (0)
 -->
<!-- Title: TResponseFunction_red Pages: 1 -->
<svg width="162pt" height="82pt"
 viewBox="0.00 0.00 162.00 82.00" xmlns="http://www.w3.org/2000/svg" xmlns:xlink="http://www.w3.org/1999/xlink">
<g id="graph0" class="graph" transform="scale(1 1) rotate(0) translate(4 78)">
<title>TResponseFunction_red</title>
<!-- Node1 -->
<g id="node1" class="node">
<title>Node1</title>
<g id="a_node1"><a xlink:title="KS: A reduced ResponseFunction Generic function used for evaluating weight.">
<polygon fill="#999999" stroke="#666666" points="137,-74 5,-74 5,-55 137,-55 137,-74"/>
<text text-anchor="middle" x="71" y="-62" font-family="Helvetica,sans-Serif" font-size="10.00">TResponseFunction_red</text>
</a>
</g>
</g>
<!-- Node2 -->
<g id="node2" class="node">
<title>Node2</title>
<g id="a_node2"><a xlink:href="classTF1__red.html" target="_top" xlink:title="CW: A reduced TF1 class only. Only saves parameters for each TF1 and how many parameters each paramet...">
<polygon fill="white" stroke="#666666" points="56,-19 0,-19 0,0 56,0 56,-19"/>
<text text-anchor="middle" x="28" y="-7" font-family="Helvetica,sans-Serif" font-size="10.00">TF1_red</text>
</a>
</g>
</g>
<!-- Node1&#45;&gt;Node2 -->
<g id="edge1" class="edge">
<title>Node1&#45;&gt;Node2</title>
<path fill="none" stroke="#63b8ff" d="M57.58,-46.96C50.09,-37.72 41.06,-26.6 34.97,-19.09"/>
<polygon fill="#63b8ff" stroke="#63b8ff" points="54.88,-49.19 63.9,-54.75 60.32,-44.78 54.88,-49.19"/>
</g>
<!-- Node3 -->
<g id="node3" class="node">
<title>Node3</title>
<g id="a_node3"><a xlink:href="classTSpline3__red.html" target="_top" xlink:title="CW: Reduced TSpline3 class.">
<polygon fill="white" stroke="#666666" points="154,-19 74,-19 74,0 154,0 154,-19"/>
<text text-anchor="middle" x="114" y="-7" font-family="Helvetica,sans-Serif" font-size="10.00">TSpline3_red</text>
</a>
</g>
</g>
<!-- Node1&#45;&gt;Node3 -->
<g id="edge2" class="edge">
<title>Node1&#45;&gt;Node3</title>
<path fill="none" stroke="#63b8ff" d="M84.42,-46.96C91.91,-37.72 100.94,-26.6 107.03,-19.09"/>
<polygon fill="#63b8ff" stroke="#63b8ff" points="81.68,-44.78 78.1,-54.75 87.12,-49.19 81.68,-44.78"/>
</g>
</g>
</svg>
