<?xml version="1.0" encoding="UTF-8" standalone="no"?>
<!DOCTYPE svg PUBLIC "-//W3C//DTD SVG 1.1//EN"
 "http://www.w3.org/Graphics/SVG/1.1/DTD/svg11.dtd">
<!-- Generated by graphviz version 2.44.0 (0)
 -->
<!-- Title: Parameters/ParameterStructs.h Pages: 1 -->
<!--zoomable 252 -->
<svg id="main" version="1.1" xmlns="http://www.w3.org/2000/svg" xmlns:xlink="http://www.w3.org/1999/xlink" xml:space="preserve" onload="init(evt)">
<style type="text/css"><![CDATA[
.edge:hover path { stroke: red; }
.edge:hover polygon { stroke: red; fill: red; }
]]></style>
<script type="text/javascript"><![CDATA[
var edges = document.getElementsByTagName('g');
if (edges && edges.length) {
  for (var i=0;i<edges.length;i++) {
    if (edges[i].id.substr(0,4)=='edge') {
      edges[i].setAttribute('class','edge');
    }
  }
}
]]></script>
        <defs>
                <circle id="rim" cx="0" cy="0" r="7"/>
                <circle id="rim2" cx="0" cy="0" r="3.5"/>
                <g id="zoomPlus">
                        <use xlink:href="#rim" fill="#404040">
                                <set attributeName="fill" to="#808080" begin="zoomplus.mouseover" end="zoomplus.mouseout"/>
                        </use>
                        <path d="M-4,0h8M0,-4v8" fill="none" stroke="white" stroke-width="1.5" pointer-events="none"/>
                </g>
                <g id="zoomMin">
                        <use xlink:href="#rim" fill="#404040">
                                <set attributeName="fill" to="#808080" begin="zoomminus.mouseover" end="zoomminus.mouseout"/>
                        </use>
                        <path d="M-4,0h8" fill="none" stroke="white" stroke-width="1.5" pointer-events="none"/>
                </g>
                <g id="dirArrow">
                        <path fill="none" stroke="white" stroke-width="1.5" d="M0,-3.0v7 M-2.5,-0.5L0,-3.0L2.5,-0.5"/>
                </g>
               <g id="resetDef">
                       <use xlink:href="#rim2" fill="#404040">
                               <set attributeName="fill" to="#808080" begin="reset.mouseover" end="reset.mouseout"/>
                       </use>
               </g>
        </defs>

<script type="text/javascript">
var viewWidth = 854;
var viewHeight = 252;
var sectionId = 'dynsection-0';
</script>
<script xlink:href="svgpan.js"/>
<svg id="graph" class="graph">
<g id="viewport">
<title>Parameters/ParameterStructs.h</title>
<polygon fill="white" stroke="transparent" points="-4,4 -4,-248 850,-248 850,4 -4,4"/>
<!-- Node1 -->
<g id="node1" class="node">
<title>Node1</title>
<g id="a_node1"><a xlink:title=" ">
<polygon fill="#bfbfbf" stroke="black" points="353.5,-224.5 353.5,-243.5 508.5,-243.5 508.5,-224.5 353.5,-224.5"/>
<text text-anchor="middle" x="431" y="-231.5" font-family="Helvetica" font-size="10.00">Parameters/ParameterStructs.h</text>
</a>
</g>
</g>
<!-- Node2 -->
<g id="node2" class="node">
<title>Node2</title>
<g id="a_node2"><a xlink:title=" ">
<polygon fill="white" stroke="#bfbfbf" points="0,-168.5 0,-187.5 30,-187.5 30,-168.5 0,-168.5"/>
<text text-anchor="middle" x="15" y="-175.5" font-family="Helvetica" font-size="10.00">set</text>
</a>
</g>
</g>
<!-- Node1&#45;&gt;Node2 -->
<g id="edge1" class="edge">
<title>Node1&#45;&gt;Node2</title>
<path fill="none" stroke="midnightblue" d="M353.41,-229.69C275.88,-225.11 153.4,-214.47 39.95,-187.67"/>
<polygon fill="midnightblue" stroke="midnightblue" points="40.6,-184.23 30.06,-185.29 38.96,-191.03 40.6,-184.23"/>
</g>
<!-- Node3 -->
<g id="node3" class="node">
<title>Node3</title>
<g id="a_node3"><a xlink:title=" ">
<polygon fill="white" stroke="#bfbfbf" points="48.5,-168.5 48.5,-187.5 77.5,-187.5 77.5,-168.5 48.5,-168.5"/>
<text text-anchor="middle" x="63" y="-175.5" font-family="Helvetica" font-size="10.00">list</text>
</a>
</g>
</g>
<!-- Node1&#45;&gt;Node3 -->
<g id="edge2" class="edge">
<title>Node1&#45;&gt;Node3</title>
<path fill="none" stroke="midnightblue" d="M353.25,-228.28C284.99,-222.9 183.13,-211.9 87.73,-187.95"/>
<polygon fill="midnightblue" stroke="midnightblue" points="88.48,-184.53 77.92,-185.44 86.74,-191.32 88.48,-184.53"/>
</g>
<!-- Node4 -->
<g id="node4" class="node">
<title>Node4</title>
<g id="a_node4"><a xlink:title=" ">
<polygon fill="white" stroke="#bfbfbf" points="95.5,-168.5 95.5,-187.5 178.5,-187.5 178.5,-168.5 95.5,-168.5"/>
<text text-anchor="middle" x="137" y="-175.5" font-family="Helvetica" font-size="10.00">unordered_map</text>
</a>
</g>
</g>
<!-- Node1&#45;&gt;Node4 -->
<g id="edge3" class="edge">
<title>Node1&#45;&gt;Node4</title>
<path fill="none" stroke="midnightblue" d="M384.41,-224.44C331.07,-214.64 243.92,-198.64 188.56,-188.47"/>
<polygon fill="midnightblue" stroke="midnightblue" points="189.08,-185.01 178.61,-186.64 187.82,-191.89 189.08,-185.01"/>
</g>
<!-- Node5 -->
<g id="node5" class="node">
<title>Node5</title>
<g id="a_node5"><a xlink:href="MaCh3Exception_8h.html" target="_top" xlink:title=" ">
<polygon fill="white" stroke="black" points="197,-168.5 197,-187.5 337,-187.5 337,-168.5 197,-168.5"/>
<text text-anchor="middle" x="267" y="-175.5" font-family="Helvetica" font-size="10.00">Manager/MaCh3Exception.h</text>
</a>
</g>
</g>
<!-- Node1&#45;&gt;Node5 -->
<g id="edge4" class="edge">
<title>Node1&#45;&gt;Node5</title>
<path fill="none" stroke="midnightblue" d="M405.01,-224.44C377.3,-215.32 333.25,-200.81 302.38,-190.65"/>
<polygon fill="midnightblue" stroke="midnightblue" points="303.46,-187.32 292.86,-187.52 301.27,-193.97 303.46,-187.32"/>
</g>
<!-- Node9 -->
<g id="node9" class="node">
<title>Node9</title>
<g id="a_node9"><a xlink:href="MaCh3Logger_8h.html" target="_top" xlink:title="KS: Based on this https://github.com/gabime/spdlog/blob/a2b4262090fd3f005c2315dcb5be2f0f1774a005/incl...">
<polygon fill="white" stroke="black" points="211,-112.5 211,-131.5 337,-131.5 337,-112.5 211,-112.5"/>
<text text-anchor="middle" x="274" y="-119.5" font-family="Helvetica" font-size="10.00">Manager/MaCh3Logger.h</text>
</a>
</g>
</g>
<!-- Node1&#45;&gt;Node9 -->
<g id="edge24" class="edge">
<title>Node1&#45;&gt;Node9</title>
<path fill="none" stroke="midnightblue" d="M420.51,-224.46C404.69,-211.71 373.64,-187.14 346,-168 330.09,-156.98 311.57,-145.44 297.3,-136.8"/>
<polygon fill="midnightblue" stroke="midnightblue" points="298.98,-133.72 288.6,-131.57 295.37,-139.72 298.98,-133.72"/>
</g>
<!-- Node13 -->
<g id="node13" class="node">
<title>Node13</title>
<g id="a_node13"><a xlink:href="Core_8h.html" target="_top" xlink:title=" ">
<polygon fill="white" stroke="black" points="478,-56.5 478,-75.5 564,-75.5 564,-56.5 478,-56.5"/>
<text text-anchor="middle" x="521" y="-63.5" font-family="Helvetica" font-size="10.00">Manager/Core.h</text>
</a>
</g>
</g>
<!-- Node1&#45;&gt;Node13 -->
<g id="edge25" class="edge">
<title>Node1&#45;&gt;Node13</title>
<path fill="none" stroke="midnightblue" d="M427.04,-224.23C421.85,-211.41 414.25,-186.98 422,-168 437.47,-130.11 474.78,-98.74 498.92,-81.46"/>
<polygon fill="midnightblue" stroke="midnightblue" points="501.22,-84.12 507.45,-75.55 497.24,-78.37 501.22,-84.12"/>
</g>
<!-- Node20 -->
<g id="node20" class="node">
<title>Node20</title>
<g id="a_node20"><a xlink:title=" ">
<polygon fill="white" stroke="#bfbfbf" points="431,-168.5 431,-187.5 489,-187.5 489,-168.5 431,-168.5"/>
<text text-anchor="middle" x="460" y="-175.5" font-family="Helvetica" font-size="10.00">TSpline.h</text>
</a>
</g>
</g>
<!-- Node1&#45;&gt;Node20 -->
<g id="edge26" class="edge">
<title>Node1&#45;&gt;Node20</title>
<path fill="none" stroke="midnightblue" d="M435.79,-224.08C439.76,-216.69 445.53,-205.95 450.43,-196.81"/>
<polygon fill="midnightblue" stroke="midnightblue" points="453.65,-198.22 455.3,-187.75 447.49,-194.91 453.65,-198.22"/>
</g>
<!-- Node21 -->
<g id="node21" class="node">
<title>Node21</title>
<g id="a_node21"><a xlink:title=" ">
<polygon fill="white" stroke="#bfbfbf" points="507.5,-168.5 507.5,-187.5 578.5,-187.5 578.5,-168.5 507.5,-168.5"/>
<text text-anchor="middle" x="543" y="-175.5" font-family="Helvetica" font-size="10.00">TObjString.h</text>
</a>
</g>
</g>
<!-- Node1&#45;&gt;Node21 -->
<g id="edge27" class="edge">
<title>Node1&#45;&gt;Node21</title>
<path fill="none" stroke="midnightblue" d="M448.99,-224.32C467.04,-215.62 495.05,-202.12 515.8,-192.11"/>
<polygon fill="midnightblue" stroke="midnightblue" points="517.56,-195.15 525.05,-187.65 514.52,-188.84 517.56,-195.15"/>
</g>
<!-- Node22 -->
<g id="node22" class="node">
<title>Node22</title>
<g id="a_node22"><a xlink:title=" ">
<polygon fill="white" stroke="#bfbfbf" points="596.5,-168.5 596.5,-187.5 643.5,-187.5 643.5,-168.5 596.5,-168.5"/>
<text text-anchor="middle" x="620" y="-175.5" font-family="Helvetica" font-size="10.00">TFile.h</text>
</a>
</g>
</g>
<!-- Node1&#45;&gt;Node22 -->
<g id="edge28" class="edge">
<title>Node1&#45;&gt;Node22</title>
<path fill="none" stroke="midnightblue" d="M460.95,-224.44C495.15,-214.67 550.95,-198.73 586.55,-188.56"/>
<polygon fill="midnightblue" stroke="midnightblue" points="587.81,-191.84 596.46,-185.73 585.89,-185.11 587.81,-191.84"/>
</g>
<!-- Node23 -->
<g id="node23" class="node">
<title>Node23</title>
<g id="a_node23"><a xlink:title=" ">
<polygon fill="white" stroke="#bfbfbf" points="662,-168.5 662,-187.5 704,-187.5 704,-168.5 662,-168.5"/>
<text text-anchor="middle" x="683" y="-175.5" font-family="Helvetica" font-size="10.00">TF1.h</text>
</a>
</g>
</g>
<!-- Node1&#45;&gt;Node23 -->
<g id="edge29" class="edge">
<title>Node1&#45;&gt;Node23</title>
<path fill="none" stroke="midnightblue" d="M479.79,-224.44C522.76,-216.6 587.2,-204.12 651.81,-188.12"/>
<polygon fill="midnightblue" stroke="midnightblue" points="652.91,-191.46 661.76,-185.63 651.21,-184.67 652.91,-191.46"/>
</g>
<!-- Node24 -->
<g id="node24" class="node">
<title>Node24</title>
<g id="a_node24"><a xlink:title=" ">
<polygon fill="white" stroke="#bfbfbf" points="722,-168.5 722,-187.5 784,-187.5 784,-168.5 722,-168.5"/>
<text text-anchor="middle" x="753" y="-175.5" font-family="Helvetica" font-size="10.00">TH2Poly.h</text>
</a>
</g>
</g>
<!-- Node1&#45;&gt;Node24 -->
<g id="edge30" class="edge">
<title>Node1&#45;&gt;Node24</title>
<path fill="none" stroke="midnightblue" d="M491.43,-224.48C546.43,-216.48 630.08,-203.66 711.66,-188.17"/>
<polygon fill="midnightblue" stroke="midnightblue" points="712.43,-191.58 721.6,-186.26 711.12,-184.71 712.43,-191.58"/>
</g>
<!-- Node25 -->
<g id="node25" class="node">
<title>Node25</title>
<g id="a_node25"><a xlink:title=" ">
<polygon fill="white" stroke="#bfbfbf" points="802,-168.5 802,-187.5 846,-187.5 846,-168.5 802,-168.5"/>
<text text-anchor="middle" x="824" y="-175.5" font-family="Helvetica" font-size="10.00">TH1.h</text>
</a>
</g>
</g>
<!-- Node1&#45;&gt;Node25 -->
<g id="edge31" class="edge">
<title>Node1&#45;&gt;Node25</title>
<path fill="none" stroke="midnightblue" d="M508.55,-226.95C579.95,-220.57 688.86,-208.76 791.81,-187.96"/>
<polygon fill="midnightblue" stroke="midnightblue" points="792.66,-191.36 801.75,-185.92 791.26,-184.5 792.66,-191.36"/>
</g>
<!-- Node6 -->
<g id="node6" class="node">
<title>Node6</title>
<g id="a_node6"><a xlink:title=" ">
<polygon fill="white" stroke="#bfbfbf" points="127,-0.5 127,-19.5 181,-19.5 181,-0.5 127,-0.5"/>
<text text-anchor="middle" x="154" y="-7.5" font-family="Helvetica" font-size="10.00">iostream</text>
</a>
</g>
</g>
<!-- Node5&#45;&gt;Node6 -->
<g id="edge5" class="edge">
<title>Node5&#45;&gt;Node6</title>
<path fill="none" stroke="midnightblue" d="M196.98,-168.6C167.52,-162.3 134.29,-151.28 109,-132 79.57,-109.57 56.4,-87.99 75,-56 84.2,-40.18 101.27,-29.46 117.19,-22.46"/>
<polygon fill="midnightblue" stroke="midnightblue" points="118.9,-25.55 126.88,-18.58 116.29,-19.05 118.9,-25.55"/>
</g>
<!-- Node7 -->
<g id="node7" class="node">
<title>Node7</title>
<g id="a_node7"><a xlink:title=" ">
<polygon fill="white" stroke="#bfbfbf" points="84.5,-56.5 84.5,-75.5 125.5,-75.5 125.5,-56.5 84.5,-56.5"/>
<text text-anchor="middle" x="105" y="-63.5" font-family="Helvetica" font-size="10.00">string</text>
</a>
</g>
</g>
<!-- Node5&#45;&gt;Node7 -->
<g id="edge6" class="edge">
<title>Node5&#45;&gt;Node7</title>
<path fill="none" stroke="midnightblue" d="M196.77,-168.96C170.88,-162.7 143.22,-151.61 124,-132 112.05,-119.81 107.55,-100.54 105.88,-86.14"/>
<polygon fill="midnightblue" stroke="midnightblue" points="109.35,-85.56 105.07,-75.87 102.37,-86.11 109.35,-85.56"/>
</g>
<!-- Node8 -->
<g id="node8" class="node">
<title>Node8</title>
<g id="a_node8"><a xlink:title=" ">
<polygon fill="white" stroke="#bfbfbf" points="133.5,-112.5 133.5,-131.5 192.5,-131.5 192.5,-112.5 133.5,-112.5"/>
<text text-anchor="middle" x="163" y="-119.5" font-family="Helvetica" font-size="10.00">stdexcept</text>
</a>
</g>
</g>
<!-- Node5&#45;&gt;Node8 -->
<g id="edge7" class="edge">
<title>Node5&#45;&gt;Node8</title>
<path fill="none" stroke="midnightblue" d="M250.29,-168.32C233.69,-159.7 208,-146.36 188.78,-136.39"/>
<polygon fill="midnightblue" stroke="midnightblue" points="190.16,-133.16 179.67,-131.65 186.93,-139.37 190.16,-133.16"/>
</g>
<!-- Node5&#45;&gt;Node9 -->
<g id="edge8" class="edge">
<title>Node5&#45;&gt;Node9</title>
<path fill="none" stroke="midnightblue" d="M268.16,-168.08C269.08,-160.93 270.42,-150.64 271.58,-141.69"/>
<polygon fill="midnightblue" stroke="midnightblue" points="275.05,-142.12 272.87,-131.75 268.11,-141.22 275.05,-142.12"/>
</g>
<!-- Node5&#45;&gt;Node13 -->
<g id="edge23" class="edge">
<title>Node5&#45;&gt;Node13</title>
<path fill="none" stroke="midnightblue" d="M281.27,-168.42C303.68,-155.18 348.7,-129.47 389,-112 419.53,-98.76 455.33,-86.77 481.93,-78.5"/>
<polygon fill="midnightblue" stroke="midnightblue" points="483.12,-81.8 491.65,-75.52 481.06,-75.1 483.12,-81.8"/>
</g>
<!-- Node9&#45;&gt;Node6 -->
<g id="edge9" class="edge">
<title>Node9&#45;&gt;Node6</title>
<path fill="none" stroke="midnightblue" d="M257.6,-112.35C242.91,-104.14 221.24,-90.88 205,-76 189.36,-61.67 174.77,-42.21 165.24,-28.32"/>
<polygon fill="midnightblue" stroke="midnightblue" points="167.96,-26.1 159.5,-19.73 162.14,-29.99 167.96,-26.1"/>
</g>
<!-- Node9&#45;&gt;Node7 -->
<g id="edge12" class="edge">
<title>Node9&#45;&gt;Node7</title>
<path fill="none" stroke="midnightblue" d="M247.22,-112.44C216.74,-102.7 167.05,-86.83 135.2,-76.65"/>
<polygon fill="midnightblue" stroke="midnightblue" points="136.13,-73.27 125.54,-73.56 134,-79.94 136.13,-73.27"/>
</g>
<!-- Node10 -->
<g id="node10" class="node">
<title>Node10</title>
<g id="a_node10"><a xlink:title=" ">
<polygon fill="white" stroke="#bfbfbf" points="248,-0.5 248,-19.5 300,-19.5 300,-0.5 248,-0.5"/>
<text text-anchor="middle" x="274" y="-7.5" font-family="Helvetica" font-size="10.00">sstream</text>
</a>
</g>
</g>
<!-- Node9&#45;&gt;Node10 -->
<g id="edge10" class="edge">
<title>Node9&#45;&gt;Node10</title>
<path fill="none" stroke="midnightblue" d="M253.15,-112.43C238.42,-105.13 219.8,-93.09 211,-76 200.18,-54.97 223.85,-36.2 245.21,-24.3"/>
<polygon fill="midnightblue" stroke="midnightblue" points="246.87,-27.38 254.11,-19.64 243.63,-21.18 246.87,-27.38"/>
</g>
<!-- Node11 -->
<g id="node11" class="node">
<title>Node11</title>
<g id="a_node11"><a xlink:title=" ">
<polygon fill="white" stroke="#bfbfbf" points="220.5,-56.5 220.5,-75.5 279.5,-75.5 279.5,-56.5 220.5,-56.5"/>
<text text-anchor="middle" x="250" y="-63.5" font-family="Helvetica" font-size="10.00">functional</text>
</a>
</g>
</g>
<!-- Node9&#45;&gt;Node11 -->
<g id="edge11" class="edge">
<title>Node9&#45;&gt;Node11</title>
<path fill="none" stroke="midnightblue" d="M270.04,-112.08C266.79,-104.77 262.08,-94.18 258.05,-85.1"/>
<polygon fill="midnightblue" stroke="midnightblue" points="261.15,-83.47 253.89,-75.75 254.75,-86.31 261.15,-83.47"/>
</g>
<!-- Node12 -->
<g id="node12" class="node">
<title>Node12</title>
<g id="a_node12"><a xlink:title=" ">
<polygon fill="white" stroke="#bfbfbf" points="298,-56.5 298,-75.5 356,-75.5 356,-56.5 298,-56.5"/>
<text text-anchor="middle" x="327" y="-63.5" font-family="Helvetica" font-size="10.00">exception</text>
</a>
</g>
</g>
<!-- Node9&#45;&gt;Node12 -->
<g id="edge13" class="edge">
<title>Node9&#45;&gt;Node12</title>
<path fill="none" stroke="midnightblue" d="M282.75,-112.08C290.47,-104.22 301.9,-92.57 311.22,-83.08"/>
<polygon fill="midnightblue" stroke="midnightblue" points="313.9,-85.34 318.41,-75.75 308.91,-80.44 313.9,-85.34"/>
</g>
<!-- Node9&#45;&gt;Node13 -->
<g id="edge14" class="edge">
<title>Node9&#45;&gt;Node13</title>
<path fill="none" stroke="midnightblue" d="M313.14,-112.44C356.23,-103.02 425.56,-87.87 472.17,-77.68"/>
<polygon fill="midnightblue" stroke="midnightblue" points="473.02,-81.07 482.05,-75.52 471.53,-74.23 473.02,-81.07"/>
</g>
<!-- Node19 -->
<g id="node19" class="node">
<title>Node19</title>
<g id="a_node19"><a xlink:title=" ">
<polygon fill="white" stroke="#bfbfbf" points="374.5,-56.5 374.5,-75.5 459.5,-75.5 459.5,-56.5 374.5,-56.5"/>
<text text-anchor="middle" x="417" y="-63.5" font-family="Helvetica" font-size="10.00">spdlog/spdlog.h</text>
</a>
</g>
</g>
<!-- Node9&#45;&gt;Node19 -->
<g id="edge22" class="edge">
<title>Node9&#45;&gt;Node19</title>
<path fill="none" stroke="midnightblue" d="M296.66,-112.44C320.4,-103.48 357.91,-89.31 384.74,-79.18"/>
<polygon fill="midnightblue" stroke="midnightblue" points="386.33,-82.32 394.45,-75.52 383.86,-75.77 386.33,-82.32"/>
</g>
<!-- Node13&#45;&gt;Node6 -->
<g id="edge17" class="edge">
<title>Node13&#45;&gt;Node6</title>
<path fill="none" stroke="midnightblue" d="M477.89,-57.44C474.88,-56.94 471.9,-56.46 469,-56 368.62,-40.15 249.85,-23.84 190.95,-15.92"/>
<polygon fill="midnightblue" stroke="midnightblue" points="191.38,-12.45 181.01,-14.59 190.45,-19.38 191.38,-12.45"/>
</g>
<!-- Node13&#45;&gt;Node10 -->
<g id="edge15" class="edge">
<title>Node13&#45;&gt;Node10</title>
<path fill="none" stroke="midnightblue" d="M481.86,-56.44C434.56,-46.1 355.64,-28.85 309.86,-18.84"/>
<polygon fill="midnightblue" stroke="midnightblue" points="310.59,-15.42 300.07,-16.7 309.1,-22.26 310.59,-15.42"/>
</g>
<!-- Node14 -->
<g id="node14" class="node">
<title>Node14</title>
<g id="a_node14"><a xlink:title=" ">
<polygon fill="white" stroke="#bfbfbf" points="366,-0.5 366,-19.5 416,-19.5 416,-0.5 366,-0.5"/>
<text text-anchor="middle" x="391" y="-7.5" font-family="Helvetica" font-size="10.00">fstream</text>
</a>
</g>
</g>
<!-- Node13&#45;&gt;Node14 -->
<g id="edge16" class="edge">
<title>Node13&#45;&gt;Node14</title>
<path fill="none" stroke="midnightblue" d="M500.4,-56.44C479.01,-47.56 445.32,-33.56 420.98,-23.45"/>
<polygon fill="midnightblue" stroke="midnightblue" points="422.08,-20.12 411.5,-19.52 419.39,-26.58 422.08,-20.12"/>
</g>
<!-- Node15 -->
<g id="node15" class="node">
<title>Node15</title>
<g id="a_node15"><a xlink:title=" ">
<polygon fill="white" stroke="#bfbfbf" points="434.5,-0.5 434.5,-19.5 477.5,-19.5 477.5,-0.5 434.5,-0.5"/>
<text text-anchor="middle" x="456" y="-7.5" font-family="Helvetica" font-size="10.00">vector</text>
</a>
</g>
</g>
<!-- Node13&#45;&gt;Node15 -->
<g id="edge18" class="edge">
<title>Node13&#45;&gt;Node15</title>
<path fill="none" stroke="midnightblue" d="M510.56,-56.32C500.85,-48.26 486.18,-36.08 474.5,-26.37"/>
<polygon fill="midnightblue" stroke="midnightblue" points="476.56,-23.53 466.63,-19.83 472.09,-28.92 476.56,-23.53"/>
</g>
<!-- Node16 -->
<g id="node16" class="node">
<title>Node16</title>
<g id="a_node16"><a xlink:title=" ">
<polygon fill="white" stroke="#bfbfbf" points="496,-0.5 496,-19.5 546,-19.5 546,-0.5 496,-0.5"/>
<text text-anchor="middle" x="521" y="-7.5" font-family="Helvetica" font-size="10.00">iomanip</text>
</a>
</g>
</g>
<!-- Node13&#45;&gt;Node16 -->
<g id="edge19" class="edge">
<title>Node13&#45;&gt;Node16</title>
<path fill="none" stroke="midnightblue" d="M521,-56.08C521,-49.01 521,-38.86 521,-29.99"/>
<polygon fill="midnightblue" stroke="midnightblue" points="524.5,-29.75 521,-19.75 517.5,-29.75 524.5,-29.75"/>
</g>
<!-- Node17 -->
<g id="node17" class="node">
<title>Node17</title>
<g id="a_node17"><a xlink:title=" ">
<polygon fill="white" stroke="#bfbfbf" points="564,-0.5 564,-19.5 608,-19.5 608,-0.5 564,-0.5"/>
<text text-anchor="middle" x="586" y="-7.5" font-family="Helvetica" font-size="10.00">cmath</text>
</a>
</g>
</g>
<!-- Node13&#45;&gt;Node17 -->
<g id="edge20" class="edge">
<title>Node13&#45;&gt;Node17</title>
<path fill="none" stroke="midnightblue" d="M531.44,-56.32C541.15,-48.26 555.82,-36.08 567.5,-26.37"/>
<polygon fill="midnightblue" stroke="midnightblue" points="569.91,-28.92 575.37,-19.83 565.44,-23.53 569.91,-28.92"/>
</g>
<!-- Node18 -->
<g id="node18" class="node">
<title>Node18</title>
<g id="a_node18"><a xlink:title=" ">
<polygon fill="white" stroke="#bfbfbf" points="626,-0.5 626,-19.5 666,-19.5 666,-0.5 626,-0.5"/>
<text text-anchor="middle" x="646" y="-7.5" font-family="Helvetica" font-size="10.00">limits</text>
</a>
</g>
</g>
<!-- Node13&#45;&gt;Node18 -->
<g id="edge21" class="edge">
<title>Node13&#45;&gt;Node18</title>
<path fill="none" stroke="midnightblue" d="M540.81,-56.44C561.29,-47.6 593.48,-33.69 616.86,-23.59"/>
<polygon fill="midnightblue" stroke="midnightblue" points="618.49,-26.7 626.29,-19.52 615.72,-20.27 618.49,-26.7"/>
</g>
</g>
</svg>
        <g id="navigator" transform="translate(0 0)" fill="#404254">
                <rect fill="#f2f5e9" fill-opacity="0.5" stroke="#606060" stroke-width=".5" x="0" y="0" width="60" height="60"/>
                <use id="zoomplus" xlink:href="#zoomPlus" x="17" y="9" onmousedown="handleZoom(evt,'in')"/>
                <use id="zoomminus" xlink:href="#zoomMin" x="42" y="9" onmousedown="handleZoom(evt,'out')"/>
                <use id="reset" xlink:href="#resetDef" x="30" y="36" onmousedown="handleReset()"/>
                <g id="arrowUp" xlink:href="#dirArrow" transform="translate(30 24)" onmousedown="handlePan(0,-1)">
                  <use xlink:href="#rim" fill="#404040">
                        <set attributeName="fill" to="#808080" begin="arrowUp.mouseover" end="arrowUp.mouseout"/>
                  </use>
                  <path fill="none" stroke="white" stroke-width="1.5" d="M0,-3.0v7 M-2.5,-0.5L0,-3.0L2.5,-0.5"/>
                </g>
                <g id="arrowRight" xlink:href="#dirArrow" transform="rotate(90) translate(36 -43)" onmousedown="handlePan(1,0)">
                  <use xlink:href="#rim" fill="#404040">
                        <set attributeName="fill" to="#808080" begin="arrowRight.mouseover" end="arrowRight.mouseout"/>
                  </use>
                  <path fill="none" stroke="white" stroke-width="1.5" d="M0,-3.0v7 M-2.5,-0.5L0,-3.0L2.5,-0.5"/>
                </g>
                <g id="arrowDown" xlink:href="#dirArrow" transform="rotate(180) translate(-30 -48)" onmousedown="handlePan(0,1)">
                  <use xlink:href="#rim" fill="#404040">
                        <set attributeName="fill" to="#808080" begin="arrowDown.mouseover" end="arrowDown.mouseout"/>
                  </use>
                  <path fill="none" stroke="white" stroke-width="1.5" d="M0,-3.0v7 M-2.5,-0.5L0,-3.0L2.5,-0.5"/>
                </g>
                <g id="arrowLeft" xlink:href="#dirArrow" transform="rotate(270) translate(-36 17)" onmousedown="handlePan(-1,0)">
                  <use xlink:href="#rim" fill="#404040">
                        <set attributeName="fill" to="#808080" begin="arrowLeft.mouseover" end="arrowLeft.mouseout"/>
                  </use>
                  <path fill="none" stroke="white" stroke-width="1.5" d="M0,-3.0v7 M-2.5,-0.5L0,-3.0L2.5,-0.5"/>
                </g>
        </g>
        <svg viewBox="0 0 15 15" width="100%" height="30px" preserveAspectRatio="xMaxYMin meet">
         <g id="arrow_out" transform="scale(0.3 0.3)">
          <a xlink:href="ParameterStructs_8h__incl_org.svg" target="_base">
           <rect id="button" ry="5" rx="5" y="6" x="6" height="38" width="38"
                fill="#f2f5e9" fill-opacity="0.5" stroke="#606060" stroke-width="1.0"/>
           <path id="arrow"
             d="M 11.500037,31.436501 C 11.940474,20.09759 22.043105,11.32322 32.158766,21.979434 L 37.068811,17.246167 C 37.068811,17.246167 37.088388,32 37.088388,32 L 22.160133,31.978069 C 22.160133,31.978069 26.997745,27.140456 26.997745,27.140456 C 18.528582,18.264221 13.291696,25.230495 11.500037,31.436501 z"
             style="fill:#404040;"/>
          </a>
         </g>
        </svg>
</svg>
