<?xml version="1.0" encoding="UTF-8" standalone="no"?>
<!DOCTYPE svg PUBLIC "-//W3C//DTD SVG 1.1//EN"
 "http://www.w3.org/Graphics/SVG/1.1/DTD/svg11.dtd">
<!-- Generated by graphviz version 2.43.0 (0)
 -->
<!-- Title: SampleBinningInfo Pages: 1 -->
<svg width="199pt" height="159pt"
 viewBox="0.00 0.00 199.00 159.00" xmlns="http://www.w3.org/2000/svg" xmlns:xlink="http://www.w3.org/1999/xlink">
<g id="graph0" class="graph" transform="scale(1 1) rotate(0) translate(4 155)">
<title>SampleBinningInfo</title>
<!-- Node1 -->
<g id="node1" class="node">
<title>Node1</title>
<g id="a_node1"><a xlink:title="KS: Small struct storying info about used binning.">
<polygon fill="#999999" stroke="#666666" points="116.5,-19 7.5,-19 7.5,0 116.5,0 116.5,-19"/>
<text text-anchor="middle" x="62" y="-7" font-family="Helvetica,sans-Serif" font-size="10.00">SampleBinningInfo</text>
</a>
</g>
</g>
<!-- Node2 -->
<g id="node2" class="node">
<title>Node2</title>
<g id="a_node2"><a xlink:title=" ">
<polygon fill="white" stroke="#666666" points="124,-151 0,-151 0,-132 124,-132 124,-151"/>
<text text-anchor="middle" x="62" y="-139" font-family="Helvetica,sans-Serif" font-size="10.00">std::vector&lt; double &gt;</text>
</a>
</g>
</g>
<!-- Node2&#45;&gt;Node1 -->
<g id="edge1" class="edge">
<title>Node2&#45;&gt;Node1</title>
<path fill="none" stroke="#9a32cd" stroke-dasharray="5,2" d="M62,-121.73C62,-93.22 62,-40.09 62,-19.23"/>
<polygon fill="#9a32cd" stroke="#9a32cd" points="58.5,-121.97 62,-131.97 65.5,-121.97 58.5,-121.97"/>
<text text-anchor="middle" x="126.5" y="-106" font-family="Helvetica,sans-Serif" font-size="10.00"> XBinEdges</text>
<text text-anchor="middle" x="126.5" y="-95" font-family="Helvetica,sans-Serif" font-size="10.00">YBinEdges</text>
<text text-anchor="start" x="62" y="-84" font-family="Helvetica,sans-Serif" font-size="10.00">rw_lower_lower</text>
<text text-anchor="middle" x="126.5" y="-73" font-family="Helvetica,sans-Serif" font-size="10.00">_xbinedge</text>
<text text-anchor="middle" x="126.5" y="-62" font-family="Helvetica,sans-Serif" font-size="10.00">rw_lower_xbinedge</text>
<text text-anchor="middle" x="126.5" y="-51" font-family="Helvetica,sans-Serif" font-size="10.00">rw_upper_upper_xbinedge</text>
<text text-anchor="middle" x="126.5" y="-40" font-family="Helvetica,sans-Serif" font-size="10.00">rw_upper_xbinedge</text>
</g>
</g>
</svg>
